<svg width="900" height="402" viewBox="0 0 900 402" xmlns="http://www.w3.org/2000/svg">
  <defs>
    <linearGradient id="calendar-gradient" x1="0%" y1="0%" x2="100%" y2="100%">
      <stop offset="0%" style="stop-color:#58a6ff;stop-opacity:1" />
      <stop offset="100%" style="stop-color:#a371f7;stop-opacity:1" />
    </linearGradient>
    <clipPath id="calendar-rounded">
      <rect x="0" y="0" width="900" height="402" rx="8" ry="8" />
    </clipPath>
  </defs>
  <style>
    .title {
      font-family: 'Segoe UI', Ubuntu, 'Helvetica Neue', sans-serif;
      font-size: 22px;
      font-weight: 700;
      fill: #58a6ff;
    }
    .subtitle {
      font-family: 'Segoe UI', Ubuntu, 'Helvetica Neue', sans-serif;
      font-size: 12px;
      font-weight: 500;
      fill: #8b949e;
    }
    .day-label {
      font-family: 'Segoe UI', Ubuntu, 'Helvetica Neue', sans-serif;
      font-size: 11px;
      font-weight: 600;
      fill: #c9d1d9;
    }
    .hour-label {
      font-family: 'Segoe UI', Ubuntu, 'Helvetica Neue', sans-serif;
      font-size: 10px;
      fill: #8b949e;
      text-anchor: end;
      dominant-baseline: central;
    }
    .grid-line {
      stroke: #30363d;
      stroke-width: 1;
      opacity: 0.55;
    }
    .legend-label {
      font-family: 'Segoe UI', Ubuntu, 'Helvetica Neue', sans-serif;
      font-size: 11px;
      fill: #c9d1d9;
      dominant-baseline: middle;
    }
  </style>
  <rect clip-path="url(#calendar-rounded)" width="100%" height="100%" fill="#0d1117" stroke="#30363d" stroke-width="1" />
  <rect x="0" y="396" width="900" height="6" fill="url(#calendar-gradient)" clip-path="url(#calendar-rounded)" />
  <text x="24" y="34" class="title">Weekly Commit Calendar</text>
  <text x="24" y="54" class="subtitle">Week: 2026-02-16 to 2026-02-22 | Timezone: UTC</text>
  <text x="160.5" y="80" text-anchor="middle" class="day-label">Mon</text><text x="261.5" y="80" text-anchor="middle" class="day-label">Tue</text><text x="362.5" y="80" text-anchor="middle" class="day-label">Wed</text><text x="463.5" y="80" text-anchor="middle" class="day-label">Thu</text><text x="564.5" y="80" text-anchor="middle" class="day-label">Fri</text><text x="665.5" y="80" text-anchor="middle" class="day-label">Sat</text><text x="766.5" y="80" text-anchor="middle" class="day-label">Sun</text>
  <text x="56" y="94" class="hour-label">00:00</text><text x="56" y="134" class="hour-label">04:00</text><text x="56" y="174" class="hour-label">08:00</text><text x="56" y="214" class="hour-label">12:00</text><text x="56" y="254" class="hour-label">16:00</text><text x="56" y="294" class="hour-label">20:00</text><text x="56" y="334" class="hour-label">23:59</text>
  <line x1="110" y1="84" x2="110" y2="324" class="grid-line" /><line x1="211" y1="84" x2="211" y2="324" class="grid-line" /><line x1="312" y1="84" x2="312" y2="324" class="grid-line" /><line x1="413" y1="84" x2="413" y2="324" class="grid-line" /><line x1="514" y1="84" x2="514" y2="324" class="grid-line" /><line x1="615" y1="84" x2="615" y2="324" class="grid-line" /><line x1="716" y1="84" x2="716" y2="324" class="grid-line" /><line x1="817" y1="84" x2="817" y2="324" class="grid-line" /><line x1="110" y1="84" x2="817" y2="84" class="grid-line" /><line x1="110" y1="94" x2="817" y2="94" class="grid-line" /><line x1="110" y1="104" x2="817" y2="104" class="grid-line" /><line x1="110" y1="114" x2="817" y2="114" class="grid-line" /><line x1="110" y1="124" x2="817" y2="124" class="grid-line" /><line x1="110" y1="134" x2="817" y2="134" class="grid-line" /><line x1="110" y1="144" x2="817" y2="144" class="grid-line" /><line x1="110" y1="154" x2="817" y2="154" class="grid-line" /><line x1="110" y1="164" x2="817" y2="164" class="grid-line" /><line x1="110" y1="174" x2="817" y2="174" class="grid-line" /><line x1="110" y1="184" x2="817" y2="184" class="grid-line" /><line x1="110" y1="194" x2="817" y2="194" class="grid-line" /><line x1="110" y1="204" x2="817" y2="204" class="grid-line" /><line x1="110" y1="214" x2="817" y2="214" class="grid-line" /><line x1="110" y1="224" x2="817" y2="224" class="grid-line" /><line x1="110" y1="234" x2="817" y2="234" class="grid-line" /><line x1="110" y1="244" x2="817" y2="244" class="grid-line" /><line x1="110" y1="254" x2="817" y2="254" class="grid-line" /><line x1="110" y1="264" x2="817" y2="264" class="grid-line" /><line x1="110" y1="274" x2="817" y2="274" class="grid-line" /><line x1="110" y1="284" x2="817" y2="284" class="grid-line" /><line x1="110" y1="294" x2="817" y2="294" class="grid-line" /><line x1="110" y1="304" x2="817" y2="304" class="grid-line" /><line x1="110" y1="314" x2="817" y2="314" class="grid-line" /><line x1="110" y1="324" x2="817" y2="324" class="grid-line" />
  <g><rect x="112.0" y="87.0" width="97" height="8" rx="0 " ry="0" fill="#46d3df" opacity="{{ calendar_slot_opacity }}" /><title>leonardokr/minecraft-bedrock-simpleconomy | e12922e | 2026-02-16 00:21</title></g><g><rect x="112.0" y="88.0" width="97" height="8" rx="0 " ry="0" fill="#46d3df" opacity="{{ calendar_slot_opacity }}" /><title>leonardokr/minecraft-bedrock-simpleconomy | 536041c | 2026-02-16 00:26</title></g><g><rect x="213.0" y="90.0" width="97" height="8" rx="0 " ry="0" fill="#16ceaf" opacity="{{ calendar_slot_opacity }}" /><title>leonardokr/leo-git-statistics | feat: add Flask API dependencies | 2026-02-17 00:38</title></g><g><rect x="213.0" y="90.0" width="97" height="8" rx="0 " ry="0" fill="#16ceaf" opacity="{{ calendar_slot_opacity }}" /><title>leonardokr/leo-git-statistics | feat: add API environment configuration template with PAT generation instructions | 2026-02-17 00:38</title></g><g><rect x="213.0" y="90.0" width="97" height="8" rx="0 " ry="0" fill="#16ceaf" opacity="{{ calendar_slot_opacity }}" /><title>leonardokr/leo-git-statistics | feat: add REST API with Swagger documentation and user statistics endpoints | 2026-02-17 00:38</title></g><g><rect x="213.0" y="90.0" width="97" height="8" rx="0 " ry="0" fill="#16ceaf" opacity="{{ calendar_slot_opacity }}" /><title>leonardokr/leo-git-statistics | feat: add static JSON generator for GitHub Pages deployment | 2026-02-17 00:38</title></g><g><rect x="213.0" y="90.0" width="97" height="8" rx="0 " ry="0" fill="#16ceaf" opacity="{{ calendar_slot_opacity }}" /><title>leonardokr/leo-git-statistics | docs: add comprehensive REST API documentation with deployment guides and usage examples | 2026-02-17 00:38</title></g><g><rect x="213.0" y="104.0" width="97" height="8" rx="0 " ry="0" fill="#16ceaf" opacity="{{ calendar_slot_opacity }}" /><title>leonardokr/leo-git-statistics | fix: add parent directory to Python path for module imports | 2026-02-17 02:00</title></g><g><rect x="213.0" y="107.0" width="97" height="8" rx="0 " ry="0" fill="#16ceaf" opacity="{{ calendar_slot_opacity }}" /><title>leonardokr/leo-git-statistics | fix: remove /api/v1 prefix from route decorators | 2026-02-17 02:19</title></g><g><rect x="213.0" y="109.0" width="97" height="8" rx="0 " ry="0" fill="#16ceaf" opacity="{{ calendar_slot_opacity }}" /><title>leonardokr/leo-git-statistics | fix: pass username and access_token as constructor arguments to Environment | 2026-02-17 02:31</title></g><g><rect x="213.0" y="110.0" width="97" height="8" rx="0 " ry="0" fill="#16ceaf" opacity="{{ calendar_slot_opacity }}" /><title>leonardokr/leo-git-statistics | Merge pull request #5 from leonardokr/release-please--branches--main | 2026-02-17 02:37</title></g><g><rect x="213.0" y="121.0" width="97" height="8" rx="0 " ry="0" fill="#16ceaf" opacity="{{ calendar_slot_opacity }}" /><title>leonardokr/leo-git-statistics | perf: parallelize repository API calls with asyncio.gather and semaphore | 2026-02-17 03:44</title></g><g><rect x="213.0" y="125.0" width="97" height="8" rx="0 " ry="0" fill="#16ceaf" opacity="{{ calendar_slot_opacity }}" /><title>leonardokr/leo-git-statistics | feat: add in-memory TTL cache for API responses | 2026-02-17 04:04</title></g><g><rect x="213.0" y="125.0" width="97" height="8" rx="0 " ry="0" fill="#16ceaf" opacity="{{ calendar_slot_opacity }}" /><title>leonardokr/leo-git-statistics | perf: use persistent event loop, shared aiohttp session, and TTL cache in all routes | 2026-02-17 04:04</title></g><g><rect x="213.0" y="126.0" width="97" height="8" rx="0 " ry="0" fill="#16ceaf" opacity="{{ calendar_slot_opacity }}" /><title>leonardokr/leo-git-statistics | feat!: migrate API from Flask to FastAPI with modular structure | 2026-02-17 04:12</title></g><g><rect x="213.0" y="126.0" width="97" height="8" rx="0 " ry="0" fill="#16ceaf" opacity="{{ calendar_slot_opacity }}" /><title>leonardokr/leo-git-statistics | refactor: apply lazy_async_property decorator to StatsCollector facade methods | 2026-02-17 04:13</title></g><g><rect x="213.0" y="127.0" width="97" height="8" rx="0 " ry="0" fill="#16ceaf" opacity="{{ calendar_slot_opacity }}" /><title>leonardokr/leo-git-statistics | feat: isolate server token to exclude private repos by default | 2026-02-17 04:20</title></g><g><rect x="213.0" y="127.0" width="97" height="8" rx="0 " ry="0" fill="#16ceaf" opacity="{{ calendar_slot_opacity }}" /><title>leonardokr/leo-git-statistics | feat: add API key authentication with configurable enforcement | 2026-02-17 04:20</title></g><g><rect x="213.0" y="127.0" width="97" height="8" rx="0 " ry="0" fill="#16ceaf" opacity="{{ calendar_slot_opacity }}" /><title>leonardokr/leo-git-statistics | feat: support user-supplied GitHub token via X-GitHub-Token header | 2026-02-17 04:20</title></g><g><rect x="213.0" y="127.0" width="97" height="8" rx="0 " ry="0" fill="#16ceaf" opacity="{{ calendar_slot_opacity }}" /><title>leonardokr/leo-git-statistics | feat: add rate limiting per IP and API key with slowapi | 2026-02-17 04:20</title></g><g><rect x="213.0" y="127.0" width="97" height="8" rx="0 " ry="0" fill="#16ceaf" opacity="{{ calendar_slot_opacity }}" /><title>leonardokr/leo-git-statistics | feat: add input validation with Pydantic models and username regex | 2026-02-17 04:21</title></g><g><rect x="213.0" y="127.0" width="97" height="8" rx="0 " ry="0" fill="#16ceaf" opacity="{{ calendar_slot_opacity }}" /><title>leonardokr/leo-git-statistics | refactor: wire security dependencies into routes and app configuration | 2026-02-17 04:21</title></g><g><rect x="213.0" y="207.0" width="97" height="8" rx="0 " ry="0" fill="#16ceaf" opacity="{{ calendar_slot_opacity }}" /><title>leonardokr/leo-git-statistics | feat: add retry with backoff, circuit breaker and rate limit monitoring to GitHubClient | 2026-02-17 12:17</title></g><g><rect x="213.0" y="207.0" width="97" height="8" rx="0 " ry="0" fill="#16ceaf" opacity="{{ calendar_slot_opacity }}" /><title>leonardokr/leo-git-statistics | feat: add partial responses with warnings on collector failure | 2026-02-17 12:17</title></g><g><rect x="213.0" y="209.0" width="97" height="8" rx="0 " ry="0" fill="#16ceaf" opacity="{{ calendar_slot_opacity }}" /><title>leonardokr/leo-git-statistics | feat: add structured logging with structlog and request ID propagation | 2026-02-17 12:27</title></g><g><rect x="213.0" y="209.0" width="97" height="8" rx="0 " ry="0" fill="#16ceaf" opacity="{{ calendar_slot_opacity }}" /><title>leonardokr/leo-git-statistics | feat: add Prometheus metrics with /metrics endpoint and custom gauges | 2026-02-17 12:27</title></g><g><rect x="213.0" y="209.0" width="97" height="8" rx="0 " ry="0" fill="#16ceaf" opacity="{{ calendar_slot_opacity }}" /><title>leonardokr/leo-git-statistics | feat: add robust health check with subsystem probes and degraded status | 2026-02-17 12:28</title></g><g><rect x="213.0" y="214.0" width="97" height="8" rx="0 " ry="0" fill="#16ceaf" opacity="{{ calendar_slot_opacity }}" /><title>leonardokr/leo-git-statistics | feat: add SVG card endpoints with theme support via /users/{username}/cards/{type} | 2026-02-17 12:58</title></g><g><rect x="213.0" y="214.0" width="97" height="8" rx="0 " ry="0" fill="#16ceaf" opacity="{{ calendar_slot_opacity }}" /><title>leonardokr/leo-git-statistics | feat: add pagination to repositories and repositories/detailed endpoints | 2026-02-17 12:58</title></g><g><rect x="213.0" y="214.0" width="97" height="8" rx="0 " ry="0" fill="#16ceaf" opacity="{{ calendar_slot_opacity }}" /><title>leonardokr/leo-git-statistics | feat: add user comparison endpoint at /users/{username}/compare/{other} | 2026-02-17 12:59</title></g><g><rect x="213.0" y="214.0" width="97" height="8" rx="0 " ry="0" fill="#16ceaf" opacity="{{ calendar_slot_opacity }}" /><title>leonardokr/leo-git-statistics | feat: add temporal statistics snapshots with SQLite storage and history endpoint | 2026-02-17 12:59</title></g><g><rect x="213.0" y="214.0" width="97" height="8" rx="0 " ry="0" fill="#16ceaf" opacity="{{ calendar_slot_opacity }}" /><title>leonardokr/leo-git-statistics | feat: add webhook registration and notification dispatch on snapshot triggers | 2026-02-17 12:59</title></g><g><rect x="213.0" y="214.0" width="97" height="8" rx="0 " ry="0" fill="#16ceaf" opacity="{{ calendar_slot_opacity }}" /><title>leonardokr/leo-git-statistics | feat: register cards, compare, history and webhooks routers in main app | 2026-02-17 12:59</title></g><g><rect x="213.0" y="235.0" width="97" height="8" rx="0 " ry="0" fill="#16ceaf" opacity="{{ calendar_slot_opacity }}" /><title>leonardokr/leo-git-statistics | feat: add Dockerfile, docker-compose.yml and .dockerignore for containerized deployment | 2026-02-17 15:08</title></g><g><rect x="213.0" y="236.0" width="97" height="8" rx="0 " ry="0" fill="#16ceaf" opacity="{{ calendar_slot_opacity }}" /><title>leonardokr/leo-git-statistics | feat: add gunicorn production server and configure workers | 2026-02-17 15:10</title></g><g><rect x="213.0" y="236.0" width="97" height="8" rx="0 " ry="0" fill="#16ceaf" opacity="{{ calendar_slot_opacity }}" /><title>leonardokr/leo-git-statistics | refactor: migrate traffic stats from JSON flat-file to SQLite with WAL mode | 2026-02-17 15:11</title></g><g><rect x="213.0" y="236.0" width="97" height="8" rx="0 " ry="0" fill="#16ceaf" opacity="{{ calendar_slot_opacity }}" /><title>leonardokr/leo-git-statistics | feat: add Redis cache backend with in-memory TTLCache fallback | 2026-02-17 15:13</title></g><g><rect x="213.0" y="267.0" width="97" height="8" rx="0 " ry="0" fill="#16ceaf" opacity="{{ calendar_slot_opacity }}" /><title>leonardokr/leo-git-statistics | test: add API integration tests, async collector tests and Locust load tests | 2026-02-17 18:16</title></g><g><rect x="213.0" y="267.0" width="97" height="8" rx="0 " ry="0" fill="#16ceaf" opacity="{{ calendar_slot_opacity }}" /><title>leonardokr/leo-git-statistics | fix: add tzdata to requirements for Windows timezone support | 2026-02-17 18:17</title></g><g><rect x="213.0" y="277.0" width="97" height="8" rx="0 " ry="0" fill="#16ceaf" opacity="{{ calendar_slot_opacity }}" /><title>leonardokr/leo-git-statistics | chore: update README | 2026-02-17 19:19</title></g><g><rect x="213.0" y="316.0" width="97" height="8" rx="0 " ry="0" fill="#16ceaf" opacity="{{ calendar_slot_opacity }}" /><title>leonardokr/leo-git-statistics | refactor: centralize data assembly in stats_assembler.py | 2026-02-17 23:22</title></g><g><rect x="213.0" y="316.0" width="97" height="8" rx="0 " ry="0" fill="#16ceaf" opacity="{{ calendar_slot_opacity }}" /><title>leonardokr/leo-git-statistics | feat: add followers and following collection via GraphQL | 2026-02-17 23:22</title></g><g><rect x="213.0" y="316.0" width="97" height="8" rx="0 " ry="0" fill="#16ceaf" opacity="{{ calendar_slot_opacity }}" /><title>leonardokr/leo-git-statistics | feat: add line chart theme support with calendar color fallbacks | 2026-02-17 23:22</title></g><g><rect x="213.0" y="316.0" width="97" height="8" rx="0 " ry="0" fill="#16ceaf" opacity="{{ calendar_slot_opacity }}" /><title>leonardokr/leo-git-statistics | feat: add stats history multi-series line chart generator | 2026-02-17 23:22</title></g><g><rect x="213.0" y="316.0" width="97" height="8" rx="0 " ry="0" fill="#16ceaf" opacity="{{ calendar_slot_opacity }}" /><title>leonardokr/leo-git-statistics | feat: add daily stats snapshot GitHub Actions workflow | 2026-02-17 23:24</title></g><g><rect x="213.0" y="316.0" width="97" height="8" rx="0 " ry="0" fill="#16ceaf" opacity="{{ calendar_slot_opacity }}" /><title>leonardokr/leo-git-statistics | docs: add entry points table and stats history card to README | 2026-02-17 23:24</title></g><g><rect x="213.0" y="316.0" width="97" height="8" rx="0 " ry="0" fill="#16ceaf" opacity="{{ calendar_slot_opacity }}" /><title>leonardokr/leo-git-statistics | refactor: simplify theme normalization removing cascade fallback logic | 2026-02-17 23:45</title></g><g><rect x="213.0" y="316.0" width="97" height="8" rx="0 " ry="0" fill="#16ceaf" opacity="{{ calendar_slot_opacity }}" /><title>leonardokr/leo-git-statistics | refactor: add all theme keys explicitly to YAML files | 2026-02-17 23:45</title></g><g><rect x="213.0" y="316.0" width="97" height="8" rx="0 " ry="0" fill="#16ceaf" opacity="{{ calendar_slot_opacity }}" /><title>leonardokr/leo-git-statistics | refactor: remove inline .get() theme fallbacks from generators | 2026-02-17 23:45</title></g><g><rect x="213.0" y="316.0" width="97" height="8" rx="0 " ry="0" fill="#16ceaf" opacity="{{ calendar_slot_opacity }}" /><title>leonardokr/leo-git-statistics | refactor: make generate_palette_colors parameters required | 2026-02-17 23:46</title></g><g><rect x="213.0" y="316.0" width="97" height="8" rx="0 " ry="0" fill="#16ceaf" opacity="{{ calendar_slot_opacity }}" /><title>leonardokr/leo-git-statistics | docs: new card samples | 2026-02-17 23:52</title></g><g><rect x="213.0" y="316.0" width="97" height="8" rx="0 " ry="0" fill="#16ceaf" opacity="{{ calendar_slot_opacity }}" /><title>leonardokr/leo-git-statistics | docs: reorganize entry points section into categorized tables with snapshot explanation | 2026-02-17 23:56</title></g><g><rect x="314.0" y="85.0" width="97" height="8" rx="0 " ry="0" fill="#16ceaf" opacity="{{ calendar_slot_opacity }}" /><title>leonardokr/leo-git-statistics | Merge branch &apos;main&apos; of https://github.com/leonardokr/leo-git-statistics | 2026-02-18 00:03</title></g><g><rect x="314.0" y="85.0" width="97" height="8" rx="0 " ry="0" fill="#16ceaf" opacity="{{ calendar_slot_opacity }}" /><title>leonardokr/leo-git-statistics | Merge pull request #6 from leonardokr/release-please--branches--main | 2026-02-18 00:07</title></g><g><rect x="314.0" y="89.0" width="97" height="8" rx="0 " ry="0" fill="#16ceaf" opacity="{{ calendar_slot_opacity }}" /><title>leonardokr/leo-git-statistics | fix: pin Python 3.13.2 for pybreaker compatibility | 2026-02-18 00:33</title></g><g><rect x="314.0" y="90.0" width="97" height="8" rx="0 " ry="0" fill="#16ceaf" opacity="{{ calendar_slot_opacity }}" /><title>leonardokr/leo-git-statistics | Merge pull request #8 from leonardokr/release-please--branches--main | 2026-02-18 00:34</title></g><g><rect x="314.0" y="93.0" width="97" height="8" rx="0 " ry="0" fill="#16ceaf" opacity="{{ calendar_slot_opacity }}" /><title>leonardokr/leo-git-statistics | fix: resolve pybreaker NameError for tornado.gen on Python 3.12+ | 2026-02-18 00:51</title></g><g><rect x="314.0" y="93.0" width="97" height="8" rx="0 " ry="0" fill="#16ceaf" opacity="{{ calendar_slot_opacity }}" /><title>leonardokr/leo-git-statistics | Merge branch &apos;main&apos; of https://github.com/leonardokr/leo-git-statistics | 2026-02-18 00:51</title></g><g><rect x="314.0" y="93.0" width="97" height="8" rx="0 " ry="0" fill="#16ceaf" opacity="{{ calendar_slot_opacity }}" /><title>leonardokr/leo-git-statistics | Merge pull request #9 from leonardokr/release-please--branches--main | 2026-02-18 00:52</title></g><g><rect x="314.0" y="93.0" width="97" height="8" rx="0 " ry="0" fill="#16ceaf" opacity="{{ calendar_slot_opacity }}" /><title>leonardokr/leo-git-statistics | fix(workflow): fix indentation and multiline string on snapshot.yml | 2026-02-18 00:55</title></g><g><rect x="314.0" y="93.0" width="97" height="8" rx="0 " ry="0" fill="#16ceaf" opacity="{{ calendar_slot_opacity }}" /><title>leonardokr/leo-git-statistics | Merge branch &apos;main&apos; of https://github.com/leonardokr/leo-git-statistics | 2026-02-18 00:55</title></g><g><rect x="314.0" y="93.0" width="97" height="8" rx="0 " ry="0" fill="#16ceaf" opacity="{{ calendar_slot_opacity }}" /><title>leonardokr/leo-git-statistics | Merge pull request #10 from leonardokr/release-please--branches--main | 2026-02-18 00:55</title></g><g><rect x="314.0" y="94.0" width="97" height="8" rx="0 " ry="0" fill="#16ceaf" opacity="{{ calendar_slot_opacity }}" /><title>leonardokr/leo-git-statistics | chore: add tornado to requirements for pybreaker compatibility fix | 2026-02-18 01:00</title></g><g><rect x="314.0" y="94.0" width="97" height="8" rx="0 " ry="0" fill="#16ceaf" opacity="{{ calendar_slot_opacity }}" /><title>leonardokr/leo-git-statistics | fix: add tornado dependency and inject module for pybreaker compatibility | 2026-02-18 01:00</title></g><g><rect x="314.0" y="95.0" width="97" height="8" rx="0 " ry="0" fill="#16ceaf" opacity="{{ calendar_slot_opacity }}" /><title>leonardokr/leo-git-statistics | Merge pull request #11 from leonardokr/release-please--branches--main | 2026-02-18 01:04</title></g><g><rect x="314.0" y="200.0" width="97" height="8" rx="0 " ry="0" fill="#16ceaf" opacity="{{ calendar_slot_opacity }}" /><title>leonardokr/leo-git-statistics | feat: probe GitHub rate limit on startup to seed health endpoint state | 2026-02-18 11:38</title></g><g><rect x="314.0" y="200.0" width="97" height="8" rx="0 " ry="0" fill="#16ceaf" opacity="{{ calendar_slot_opacity }}" /><title>leonardokr/leo-git-statistics | fix: inject tornado.gen into sys.modules for pybreaker compatibility in tests | 2026-02-18 11:38</title></g><g><rect x="314.0" y="201.0" width="97" height="8" rx="0 " ry="0" fill="#16ceaf" opacity="{{ calendar_slot_opacity }}" /><title>leonardokr/leo-git-statistics | Merge branch &apos;main&apos; of https://github.com/leonardokr/leo-git-statistics | 2026-02-18 11:39</title></g><g><rect x="314.0" y="204.0" width="97" height="8" rx="0 " ry="0" fill="#16ceaf" opacity="{{ calendar_slot_opacity }}" /><title>leonardokr/leo-git-statistics | Merge pull request #12 from leonardokr/release-please--branches--main | 2026-02-18 12:02</title></g><g><rect x="314.0" y="206.0" width="97" height="8" rx="0 " ry="0" fill="#16ceaf" opacity="{{ calendar_slot_opacity }}" /><title>leonardokr/leo-git-statistics | feat: add latest floating tag to release workflow and update README | 2026-02-18 12:12</title></g><g><rect x="314.0" y="206.0" width="97" height="8" rx="0 " ry="0" fill="#16ceaf" opacity="{{ calendar_slot_opacity }}" /><title>leonardokr/leo-git-statistics | Merge branch &apos;main&apos; of https://github.com/leonardokr/leo-git-statistics | 2026-02-18 12:12</title></g><g><rect x="314.0" y="206.0" width="97" height="8" rx="0 " ry="0" fill="#16ceaf" opacity="{{ calendar_slot_opacity }}" /><title>leonardokr/leo-git-statistics | Merge pull request #13 from leonardokr/release-please--branches--main | 2026-02-18 12:14</title></g><g><rect x="314.0" y="289.0" width="97" height="8" rx="0 " ry="0" fill="#16ceaf" opacity="{{ calendar_slot_opacity }}" /><title>leonardokr/leo-git-statistics | fix: strip internal details from /health endpoint to prevent information leakage | 2026-02-18 20:31</title></g><g><rect x="314.0" y="293.0" width="97" height="8" rx="0 " ry="0" fill="#16ceaf" opacity="{{ calendar_slot_opacity }}" /><title>leonardokr/leo-git-statistics | feat: add /v1 prefix to all business API routes | 2026-02-18 20:54</title></g><g><rect x="314.0" y="295.0" width="97" height="8" rx="0 " ry="0" fill="#16ceaf" opacity="{{ calendar_slot_opacity }}" /><title>leonardokr/leo-git-statistics | Merge pull request #14 from leonardokr/release-please--branches--main | 2026-02-18 21:09</title></g><g><rect x="314.0" y="299.0" width="97" height="8" rx="0 " ry="0" fill="#3d2ade" opacity="{{ calendar_slot_opacity }}" /><title>leonardokr/powershell-scripts | fix: add undeclared LogPath and EnableDebugMode params to New-ShareAndDFS.ps1 | 2026-02-18 21:31</title></g><g><rect x="314.0" y="299.0" width="97" height="8" rx="0 " ry="0" fill="#3d2ade" opacity="{{ calendar_slot_opacity }}" /><title>leonardokr/powershell-scripts | fix: add undeclared LogPath and EnableDebugMode params to Deploy-ScheduledTasks.ps1 | 2026-02-18 21:33</title></g><g><rect x="314.0" y="300.0" width="97" height="8" rx="0 " ry="0" fill="#3d2ade" opacity="{{ calendar_slot_opacity }}" /><title>leonardokr/powershell-scripts | fix: correct WhatIf check in Disable-LanmanCache.ps1 | 2026-02-18 21:34</title></g><g><rect x="314.0" y="307.0" width="97" height="8" rx="0 " ry="0" fill="#3d2ade" opacity="{{ calendar_slot_opacity }}" /><title>leonardokr/powershell-scripts | fix: correct Recheck stage SQL check and remove unused Timeout param | 2026-02-18 22:18</title></g><g><rect x="314.0" y="307.0" width="97" height="8" rx="0 " ry="0" fill="#3d2ade" opacity="{{ calendar_slot_opacity }}" /><title>leonardokr/powershell-scripts | fix: parameterize SMTP config and standardize Send-PasswordExpiryNotification | 2026-02-18 22:20</title></g><g><rect x="314.0" y="308.0" width="97" height="8" rx="0 " ry="0" fill="#3d2ade" opacity="{{ calendar_slot_opacity }}" /><title>leonardokr/powershell-scripts | Merge pull request #9 from leonardokr/fix/issue-3-whatif-disable-lanmancache | 2026-02-18 22:24</title></g><g><rect x="314.0" y="308.0" width="97" height="8" rx="0 " ry="0" fill="#3d2ade" opacity="{{ calendar_slot_opacity }}" /><title>leonardokr/powershell-scripts | Merge pull request #10 from leonardokr/fix/issue-4-5-windows-update-maintenance | 2026-02-18 22:24</title></g><g><rect x="314.0" y="308.0" width="97" height="8" rx="0 " ry="0" fill="#3d2ade" opacity="{{ calendar_slot_opacity }}" /><title>leonardokr/powershell-scripts | Merge pull request #7 from leonardokr/fix/issue-1-undeclared-params-new-shareandfs | 2026-02-18 22:25</title></g><g><rect x="314.0" y="308.0" width="97" height="8" rx="0 " ry="0" fill="#3d2ade" opacity="{{ calendar_slot_opacity }}" /><title>leonardokr/powershell-scripts | Merge pull request #8 from leonardokr/fix/issue-2-undeclared-params-deploy-scheduledtasks | 2026-02-18 22:26</title></g><g><rect x="314.0" y="309.0" width="97" height="8" rx="0 " ry="0" fill="#3d2ade" opacity="{{ calendar_slot_opacity }}" /><title>leonardokr/powershell-scripts | Merge pull request #11 from leonardokr/fix/issue-6-password-expiry-notification | 2026-02-18 22:27</title></g><g><rect x="314.0" y="312.0" width="97" height="8" rx="0 " ry="0" fill="#3d2ade" opacity="{{ calendar_slot_opacity }}" /><title>leonardokr/powershell-scripts | refactor: improve code quality, documentation, and add Pester tests | 2026-02-18 22:50</title></g><g><rect x="314.0" y="313.0" width="97" height="8" rx="0 " ry="0" fill="#3d2ade" opacity="{{ calendar_slot_opacity }}" /><title>leonardokr/powershell-scripts | fix: resolve PSScriptAnalyzer warnings in Invoke-WindowsUpdateMaintenance | 2026-02-18 22:56</title></g><g><rect x="314.0" y="315.0" width="97" height="8" rx="0 " ry="0" fill="#3d2ade" opacity="{{ calendar_slot_opacity }}" /><title>leonardokr/powershell-scripts | fix: move PSUseUsingScopeModifierInNewRunspaces suppression to script level | 2026-02-18 23:03</title></g><g><rect x="314.0" y="315.0" width="97" height="8" rx="0 " ry="0" fill="#3d2ade" opacity="{{ calendar_slot_opacity }}" /><title>leonardokr/powershell-scripts | Merge pull request #12 from leonardokr/feature/windows-update-maintenance | 2026-02-18 23:05</title></g><g><rect x="314.0" y="316.0" width="97" height="8" rx="0 " ry="0" fill="#3d2ade" opacity="{{ calendar_slot_opacity }}" /><title>leonardokr/powershell-scripts | Merge branch &apos;main&apos; into improve/code-quality-and-docs | 2026-02-18 23:11</title></g><g><rect x="314.0" y="316.0" width="97" height="8" rx="0 " ry="0" fill="#3d2ade" opacity="{{ calendar_slot_opacity }}" /><title>leonardokr/powershell-scripts | fix: remove obsolete SuppressMessage for EnableDebugMode in New-ShareAndDFS | 2026-02-18 23:19</title></g><g><rect x="314.0" y="316.0" width="97" height="8" rx="0 " ry="0" fill="#3d2ade" opacity="{{ calendar_slot_opacity }}" /><title>leonardokr/powershell-scripts | fix: add SuppressMessage for ShareAccess param in New-ShareAndDFS | 2026-02-18 23:21</title></g><g><rect x="314.0" y="316.0" width="97" height="8" rx="0 " ry="0" fill="#3d2ade" opacity="{{ calendar_slot_opacity }}" /><title>leonardokr/powershell-scripts | fix: correct trailing whitespace test to handle Windows line endings | 2026-02-18 23:24</title></g><g><rect x="314.0" y="316.0" width="97" height="8" rx="0 " ry="0" fill="#3d2ade" opacity="{{ calendar_slot_opacity }}" /><title>leonardokr/powershell-scripts | fix: resolve remaining Pester test failures | 2026-02-18 23:30</title></g><g><rect x="314.0" y="316.0" width="97" height="8" rx="0 " ry="0" fill="#3d2ade" opacity="{{ calendar_slot_opacity }}" /><title>leonardokr/powershell-scripts | fix: restore SuppressMessage for EnableDebugMode in New-ShareAndDFS | 2026-02-18 23:32</title></g><g><rect x="314.0" y="316.0" width="97" height="8" rx="0 " ry="0" fill="#3d2ade" opacity="{{ calendar_slot_opacity }}" /><title>leonardokr/powershell-scripts | Merge pull request #13 from leonardokr/improve/code-quality-and-docs | 2026-02-18 23:35</title></g><g><rect x="415.0" y="307.0" width="97" height="8" rx="0 " ry="0" fill="#55a3e8" opacity="{{ calendar_slot_opacity }}" /><title>leonardokr/simpleponto | 7c00e76 | 2026-02-19 22:16</title></g><g><rect x="415.0" y="307.0" width="97" height="8" rx="0 " ry="0" fill="#55a3e8" opacity="{{ calendar_slot_opacity }}" /><title>leonardokr/simpleponto | 42823b5 | 2026-02-19 22:16</title></g><g><rect x="415.0" y="307.0" width="97" height="8" rx="0 " ry="0" fill="#55a3e8" opacity="{{ calendar_slot_opacity }}" /><title>leonardokr/simpleponto | 2b7d33b | 2026-02-19 22:16</title></g><g><rect x="415.0" y="307.0" width="97" height="8" rx="0 " ry="0" fill="#55a3e8" opacity="{{ calendar_slot_opacity }}" /><title>leonardokr/simpleponto | 5076606 | 2026-02-19 22:17</title></g><g><rect x="415.0" y="307.0" width="97" height="8" rx="0 " ry="0" fill="#55a3e8" opacity="{{ calendar_slot_opacity }}" /><title>leonardokr/simpleponto | 8f03501 | 2026-02-19 22:17</title></g><g><rect x="415.0" y="307.0" width="97" height="8" rx="0 " ry="0" fill="#55a3e8" opacity="{{ calendar_slot_opacity }}" /><title>leonardokr/simpleponto | 5bb0589 | 2026-02-19 22:18</title></g><g><rect x="415.0" y="307.0" width="97" height="8" rx="0 " ry="0" fill="#55a3e8" opacity="{{ calendar_slot_opacity }}" /><title>leonardokr/simpleponto | e29b518 | 2026-02-19 22:18</title></g><g><rect x="415.0" y="307.0" width="97" height="8" rx="0 " ry="0" fill="#55a3e8" opacity="{{ calendar_slot_opacity }}" /><title>leonardokr/simpleponto | 775cc94 | 2026-02-19 22:19</title></g><g><rect x="415.0" y="308.0" width="97" height="8" rx="0 " ry="0" fill="#55a3e8" opacity="{{ calendar_slot_opacity }}" /><title>leonardokr/simpleponto | 455a370 | 2026-02-19 22:22</title></g><g><rect x="415.0" y="308.0" width="97" height="8" rx="0 " ry="0" fill="#55a3e8" opacity="{{ calendar_slot_opacity }}" /><title>leonardokr/simpleponto | 2b46593 | 2026-02-19 22:23</title></g><g><rect x="415.0" y="308.0" width="97" height="8" rx="0 " ry="0" fill="#55a3e8" opacity="{{ calendar_slot_opacity }}" /><title>leonardokr/simpleponto | 5de709f | 2026-02-19 22:25</title></g><g><rect x="415.0" y="308.0" width="97" height="8" rx="0 " ry="0" fill="#55a3e8" opacity="{{ calendar_slot_opacity }}" /><title>leonardokr/simpleponto | 4a374d9 | 2026-02-19 22:25</title></g><g><rect x="415.0" y="309.0" width="97" height="8" rx="0 " ry="0" fill="#55a3e8" opacity="{{ calendar_slot_opacity }}" /><title>leonardokr/simpleponto | a240a6d | 2026-02-19 22:28</title></g><g><rect x="415.0" y="309.0" width="97" height="8" rx="0 " ry="0" fill="#55a3e8" opacity="{{ calendar_slot_opacity }}" /><title>leonardokr/simpleponto | 9b284de | 2026-02-19 22:29</title></g><g><rect x="415.0" y="309.0" width="97" height="8" rx="0 " ry="0" fill="#55a3e8" opacity="{{ calendar_slot_opacity }}" /><title>leonardokr/simpleponto | e8cf70c | 2026-02-19 22:30</title></g><g><rect x="415.0" y="311.0" width="97" height="8" rx="0 " ry="0" fill="#55a3e8" opacity="{{ calendar_slot_opacity }}" /><title>leonardokr/simpleponto | 525cea6 | 2026-02-19 22:40</title></g><g><rect x="415.0" y="311.0" width="97" height="8" rx="0 " ry="0" fill="#55a3e8" opacity="{{ calendar_slot_opacity }}" /><title>leonardokr/simpleponto | 143ceb5 | 2026-02-19 22:44</title></g><g><rect x="415.0" y="311.0" width="97" height="8" rx="0 " ry="0" fill="#55a3e8" opacity="{{ calendar_slot_opacity }}" /><title>leonardokr/simpleponto | 8d213c0 | 2026-02-19 22:44</title></g><g><rect x="415.0" y="315.0" width="97" height="8" rx="0 " ry="0" fill="#55a3e8" opacity="{{ calendar_slot_opacity }}" /><title>leonardokr/simpleponto | 1d55c14 | 2026-02-19 23:05</title></g><g><rect x="415.0" y="316.0" width="97" height="8" rx="0 " ry="0" fill="#55a3e8" opacity="{{ calendar_slot_opacity }}" /><title>leonardokr/simpleponto | ee06eb2 | 2026-02-19 23:29</title></g><g><rect x="415.0" y="316.0" width="97" height="8" rx="0 " ry="0" fill="#55a3e8" opacity="{{ calendar_slot_opacity }}" /><title>leonardokr/simpleponto | 77549c2 | 2026-02-19 23:31</title></g><g><rect x="415.0" y="316.0" width="97" height="8" rx="0 " ry="0" fill="#55a3e8" opacity="{{ calendar_slot_opacity }}" /><title>leonardokr/simpleponto | bb0f823 | 2026-02-19 23:32</title></g><g><rect x="415.0" y="316.0" width="97" height="8" rx="0 " ry="0" fill="#55a3e8" opacity="{{ calendar_slot_opacity }}" /><title>leonardokr/simpleponto | 7c379a7 | 2026-02-19 23:35</title></g><g><rect x="415.0" y="316.0" width="97" height="8" rx="0 " ry="0" fill="#55a3e8" opacity="{{ calendar_slot_opacity }}" /><title>leonardokr/simpleponto | 48d8903 | 2026-02-19 23:43</title></g><g><rect x="415.0" y="316.0" width="97" height="8" rx="0 " ry="0" fill="#55a3e8" opacity="{{ calendar_slot_opacity }}" /><title>leonardokr/simpleponto | e32b736 | 2026-02-19 23:44</title></g><g><rect x="415.0" y="316.0" width="97" height="8" rx="0 " ry="0" fill="#55a3e8" opacity="{{ calendar_slot_opacity }}" /><title>leonardokr/simpleponto | caec4a3 | 2026-02-19 23:54</title></g><g><rect x="516.0" y="85.0" width="97" height="8" rx="0 " ry="0" fill="#4f78dd" opacity="{{ calendar_slot_opacity }}" /><title>leonardokr/leonardokr | chore: update uses leonardokr/leo-git-statistics to v2 | 2026-02-20 00:05</title></g>
  <rect x="110" y="339" width="10" height="10" rx="2" ry="2" fill="#16ceaf" /><text x="126" y="348" class="legend-label">leonardokr/leo-git-stat...</text><rect x="280" y="339" width="10" height="10" rx="2" ry="2" fill="#55a3e8" /><text x="296" y="348" class="legend-label">leonardokr/simpleponto</text><rect x="450" y="339" width="10" height="10" rx="2" ry="2" fill="#3d2ade" /><text x="466" y="348" class="legend-label">leonardokr/powershell-s...</text><rect x="620" y="339" width="10" height="10" rx="2" ry="2" fill="#46d3df" /><text x="636" y="348" class="legend-label">leonardokr/minecraft-be...</text><rect x="110" y="357" width="10" height="10" rx="2" ry="2" fill="#4f78dd" /><text x="126" y="366" class="legend-label">leonardokr/leonardokr</text>
</svg>
