<svg width="900" height="384" viewBox="0 0 900 384" xmlns="http://www.w3.org/2000/svg">
  <defs>
    <linearGradient id="calendar-gradient" x1="0%" y1="0%" x2="100%" y2="100%">
      <stop offset="0%" style="stop-color:#58a6ff;stop-opacity:1" />
      <stop offset="100%" style="stop-color:#a371f7;stop-opacity:1" />
    </linearGradient>
    <clipPath id="calendar-rounded">
      <rect x="0" y="0" width="900" height="384" rx="8" ry="8" />
    </clipPath>
  </defs>
  <style>
    .title {
      font-family: 'Segoe UI', Ubuntu, 'Helvetica Neue', sans-serif;
      font-size: 22px;
      font-weight: 700;
      fill: #58a6ff;
    }
    .subtitle {
      font-family: 'Segoe UI', Ubuntu, 'Helvetica Neue', sans-serif;
      font-size: 12px;
      font-weight: 500;
      fill: #8b949e;
    }
    .day-label {
      font-family: 'Segoe UI', Ubuntu, 'Helvetica Neue', sans-serif;
      font-size: 11px;
      font-weight: 600;
      fill: #c9d1d9;
    }
    .hour-label {
      font-family: 'Segoe UI', Ubuntu, 'Helvetica Neue', sans-serif;
      font-size: 10px;
      fill: #8b949e;
      text-anchor: end;
      dominant-baseline: central;
    }
    .grid-line {
      stroke: #30363d;
      stroke-width: 1;
      opacity: 0.55;
    }
    .legend-label {
      font-family: 'Segoe UI', Ubuntu, 'Helvetica Neue', sans-serif;
      font-size: 11px;
      fill: #c9d1d9;
      dominant-baseline: middle;
    }
  </style>
  <rect clip-path="url(#calendar-rounded)" width="100%" height="100%" fill="#0d1117" stroke="#30363d" stroke-width="1" />
  <rect x="0" y="378" width="900" height="6" fill="url(#calendar-gradient)" clip-path="url(#calendar-rounded)" />
  <text x="24" y="34" class="title">Weekly Commit Calendar</text>
  <text x="24" y="54" class="subtitle">Week: 2026-07-20 to 2026-07-26 | Timezone: America/Sao_Paulo</text>
  <text x="160.5" y="80" text-anchor="middle" class="day-label">Mon</text><text x="261.5" y="80" text-anchor="middle" class="day-label">Tue</text><text x="362.5" y="80" text-anchor="middle" class="day-label">Wed</text><text x="463.5" y="80" text-anchor="middle" class="day-label">Thu</text><text x="564.5" y="80" text-anchor="middle" class="day-label">Fri</text><text x="665.5" y="80" text-anchor="middle" class="day-label">Sat</text><text x="766.5" y="80" text-anchor="middle" class="day-label">Sun</text>
  <text x="56" y="94" class="hour-label">00:00</text><text x="56" y="134" class="hour-label">04:00</text><text x="56" y="174" class="hour-label">08:00</text><text x="56" y="214" class="hour-label">12:00</text><text x="56" y="254" class="hour-label">16:00</text><text x="56" y="294" class="hour-label">20:00</text><text x="56" y="334" class="hour-label">23:59</text>
  <line x1="110" y1="84" x2="110" y2="324" class="grid-line" /><line x1="211" y1="84" x2="211" y2="324" class="grid-line" /><line x1="312" y1="84" x2="312" y2="324" class="grid-line" /><line x1="413" y1="84" x2="413" y2="324" class="grid-line" /><line x1="514" y1="84" x2="514" y2="324" class="grid-line" /><line x1="615" y1="84" x2="615" y2="324" class="grid-line" /><line x1="716" y1="84" x2="716" y2="324" class="grid-line" /><line x1="817" y1="84" x2="817" y2="324" class="grid-line" /><line x1="110" y1="84" x2="817" y2="84" class="grid-line" /><line x1="110" y1="94" x2="817" y2="94" class="grid-line" /><line x1="110" y1="104" x2="817" y2="104" class="grid-line" /><line x1="110" y1="114" x2="817" y2="114" class="grid-line" /><line x1="110" y1="124" x2="817" y2="124" class="grid-line" /><line x1="110" y1="134" x2="817" y2="134" class="grid-line" /><line x1="110" y1="144" x2="817" y2="144" class="grid-line" /><line x1="110" y1="154" x2="817" y2="154" class="grid-line" /><line x1="110" y1="164" x2="817" y2="164" class="grid-line" /><line x1="110" y1="174" x2="817" y2="174" class="grid-line" /><line x1="110" y1="184" x2="817" y2="184" class="grid-line" /><line x1="110" y1="194" x2="817" y2="194" class="grid-line" /><line x1="110" y1="204" x2="817" y2="204" class="grid-line" /><line x1="110" y1="214" x2="817" y2="214" class="grid-line" /><line x1="110" y1="224" x2="817" y2="224" class="grid-line" /><line x1="110" y1="234" x2="817" y2="234" class="grid-line" /><line x1="110" y1="244" x2="817" y2="244" class="grid-line" /><line x1="110" y1="254" x2="817" y2="254" class="grid-line" /><line x1="110" y1="264" x2="817" y2="264" class="grid-line" /><line x1="110" y1="274" x2="817" y2="274" class="grid-line" /><line x1="110" y1="284" x2="817" y2="284" class="grid-line" /><line x1="110" y1="294" x2="817" y2="294" class="grid-line" /><line x1="110" y1="304" x2="817" y2="304" class="grid-line" /><line x1="110" y1="314" x2="817" y2="314" class="grid-line" /><line x1="110" y1="324" x2="817" y2="324" class="grid-line" />
  <g><rect x="112.0" y="279.0" width="97" height="8" rx="0 " ry="0" fill="#16ceaf" opacity="{{ calendar_slot_opacity }}" /><title>leonardokr/minecraft-java-experience-tweaks | fix: consume item cost when taking result using anvil | 2026-07-20 19:33</title></g><g><rect x="112.0" y="299.0" width="97" height="8" rx="0 " ry="0" fill="#16ceaf" opacity="{{ calendar_slot_opacity }}" /><title>leonardokr/minecraft-java-experience-tweaks | fix: fix grass slab side texture and overlay UV mapping | 2026-07-20 21:31</title></g><g><rect x="112.0" y="306.0" width="97" height="8" rx="0 " ry="0" fill="#16ceaf" opacity="{{ calendar_slot_opacity }}" /><title>leonardokr/minecraft-java-experience-tweaks | fix: fix sugar cane tinting and stacked offset propagation | 2026-07-20 22:14</title></g><g><rect x="112.0" y="309.0" width="97" height="8" rx="0 " ry="0" fill="#16ceaf" opacity="{{ calendar_slot_opacity }}" /><title>leonardokr/minecraft-java-experience-tweaks | feat: add configurable water hydration radius and water below option | 2026-07-20 22:27</title></g><g><rect x="112.0" y="309.0" width="97" height="8" rx="0 " ry="0" fill="#16ceaf" opacity="{{ calendar_slot_opacity }}" /><title>leonardokr/minecraft-java-experience-tweaks | feat: add milk bucket hunger restoration with configurable nutrition | 2026-07-20 22:32</title></g><g><rect x="213.0" y="163.0" width="97" height="8" rx="0 " ry="0" fill="#16ceaf" opacity="{{ calendar_slot_opacity }}" /><title>leonardokr/minecraft-java-experience-tweaks | refactor: separate server and client configs and replace dontKeepExperience list with client keepExperience setting | 2026-07-21 07:52</title></g><g><rect x="213.0" y="165.0" width="97" height="8" rx="0 " ry="0" fill="#16ceaf" opacity="{{ calendar_slot_opacity }}" /><title>leonardokr/minecraft-java-experience-tweaks | feat: add in-game config screen with client and server tabs | 2026-07-21 08:05</title></g><g><rect x="213.0" y="165.0" width="97" height="8" rx="0 " ry="0" fill="#16ceaf" opacity="{{ calendar_slot_opacity }}" /><title>leonardokr/minecraft-java-experience-tweaks | refactor: move daily experience amount and growth settings to server config | 2026-07-21 08:09</title></g><g><rect x="213.0" y="191.0" width="97" height="8" rx="0 " ry="0" fill="#16ceaf" opacity="{{ calendar_slot_opacity }}" /><title>leonardokr/minecraft-java-experience-tweaks | feat: add Switch Rail block with pulse redstone toggling and junction logic | 2026-07-21 10:45</title></g><g><rect x="213.0" y="192.0" width="97" height="8" rx="0 " ry="0" fill="#16ceaf" opacity="{{ calendar_slot_opacity }}" /><title>leonardokr/minecraft-java-experience-tweaks | Merge pull request #11 from leonardokr/release-please--branches--main--components--experiencetweaks | 2026-07-21 10:49</title></g><g><rect x="213.0" y="203.0" width="97" height="8" rx="0 " ry="0" fill="#16ceaf" opacity="{{ calendar_slot_opacity }}" /><title>leonardokr/minecraft-java-experience-tweaks | fix: fix multiplayer auto fishing detection and config GUI recast toggle | 2026-07-21 11:57</title></g><g><rect x="213.0" y="205.0" width="97" height="8" rx="0 " ry="0" fill="#16ceaf" opacity="{{ calendar_slot_opacity }}" /><title>leonardokr/minecraft-java-experience-tweaks | fix: fix anvil item cost consumption and separate server sync handler | 2026-07-21 12:08</title></g><g><rect x="213.0" y="206.0" width="97" height="8" rx="0 " ry="0" fill="#16ceaf" opacity="{{ calendar_slot_opacity }}" /><title>leonardokr/minecraft-java-experience-tweaks | fix: support modded milk items in MilkBucketNutritionHandler | 2026-07-21 12:12</title></g><g><rect x="213.0" y="207.0" width="97" height="8" rx="0 " ry="0" fill="#16ceaf" opacity="{{ calendar_slot_opacity }}" /><title>leonardokr/minecraft-java-experience-tweaks | Merge pull request #12 from leonardokr/release-please--branches--main--components--experiencetweaks | 2026-07-21 12:16</title></g><g><rect x="213.0" y="210.0" width="97" height="8" rx="0 " ry="0" fill="#16ceaf" opacity="{{ calendar_slot_opacity }}" /><title>leonardokr/minecraft-java-experience-tweaks | fix: fix dirt path slab side UV mapping | 2026-07-21 12:37</title></g><g><rect x="213.0" y="226.0" width="97" height="8" rx="0 " ry="0" fill="#16ceaf" opacity="{{ calendar_slot_opacity }}" /><title>leonardokr/minecraft-java-experience-tweaks | fix: restore food points on milk consumption universally via LivingEntityMixin | 2026-07-21 14:13</title></g><g><rect x="213.0" y="242.0" width="97" height="8" rx="0 " ry="0" fill="#16ceaf" opacity="{{ calendar_slot_opacity }}" /><title>leonardokr/minecraft-java-experience-tweaks | feat: add unlimited trade options for wandering traders and villagers | 2026-07-21 15:50</title></g><g><rect x="213.0" y="243.0" width="97" height="8" rx="0 " ry="0" fill="#16ceaf" opacity="{{ calendar_slot_opacity }}" /><title>leonardokr/minecraft-java-experience-tweaks | fix: sync client config settings to the logical server | 2026-07-21 15:53</title></g><g><rect x="213.0" y="274.0" width="97" height="8" rx="0 " ry="0" fill="#16ceaf" opacity="{{ calendar_slot_opacity }}" /><title>leonardokr/minecraft-java-experience-tweaks | feat: add option to affect all arrow types with Infinity enchantment | 2026-07-21 18:59</title></g><g><rect x="213.0" y="278.0" width="97" height="8" rx="0 " ry="0" fill="#16ceaf" opacity="{{ calendar_slot_opacity }}" /><title>leonardokr/minecraft-java-experience-tweaks | feat: add option to allow multiple damage enchantments on weapons | 2026-07-21 19:25</title></g><g><rect x="314.0" y="169.0" width="97" height="8" rx="0 " ry="0" fill="#16ceaf" opacity="{{ calendar_slot_opacity }}" /><title>leonardokr/minecraft-java-experience-tweaks | feat: add option to allow multiple protection enchantments on armor | 2026-07-22 08:33</title></g><g><rect x="314.0" y="171.0" width="97" height="8" rx="0 " ry="0" fill="#16ceaf" opacity="{{ calendar_slot_opacity }}" /><title>leonardokr/minecraft-java-experience-tweaks | feat: add option to allow Piercing and Multishot together on crossbows | 2026-07-22 08:40</title></g><g><rect x="314.0" y="172.0" width="97" height="8" rx="0 " ry="0" fill="#16ceaf" opacity="{{ calendar_slot_opacity }}" /><title>leonardokr/minecraft-java-experience-tweaks | feat: add option to allow multiple trident enchantments | 2026-07-22 08:48</title></g><g><rect x="314.0" y="174.0" width="97" height="8" rx="0 " ry="0" fill="#16ceaf" opacity="{{ calendar_slot_opacity }}" /><title>leonardokr/minecraft-java-experience-tweaks | feat: add client-side option to use Riptide anywhere | 2026-07-22 09:01</title></g><g><rect x="314.0" y="182.0" width="97" height="8" rx="0 " ry="0" fill="#16ceaf" opacity="{{ calendar_slot_opacity }}" /><title>leonardokr/minecraft-java-experience-tweaks | Merge pull request #13 from leonardokr/release-please--branches--main--components--experiencetweaks | 2026-07-22 09:48</title></g><g><rect x="314.0" y="247.0" width="97" height="8" rx="0 " ry="0" fill="#16ceaf" opacity="{{ calendar_slot_opacity }}" /><title>leonardokr/minecraft-java-experience-tweaks | feat: add server option to unlock all recipes for all players | 2026-07-22 16:19</title></g><g><rect x="314.0" y="248.0" width="97" height="8" rx="0 " ry="0" fill="#16ceaf" opacity="{{ calendar_slot_opacity }}" /><title>leonardokr/minecraft-java-experience-tweaks | feat: add configurable anvil durability multiplier option | 2026-07-22 16:25</title></g><g><rect x="314.0" y="249.0" width="97" height="8" rx="0 " ry="0" fill="#16ceaf" opacity="{{ calendar_slot_opacity }}" /><title>leonardokr/minecraft-java-experience-tweaks | docs: update and simplify README description and features | 2026-07-22 16:28</title></g><g><rect x="314.0" y="261.0" width="97" height="8" rx="0 " ry="0" fill="#16ceaf" opacity="{{ calendar_slot_opacity }}" /><title>leonardokr/minecraft-java-experience-tweaks | fix: adjust dirt path slab models UV to fix transparent gap | 2026-07-22 17:43</title></g><g><rect x="314.0" y="287.0" width="97" height="8" rx="0 " ry="0" fill="#16ceaf" opacity="{{ calendar_slot_opacity }}" /><title>leonardokr/minecraft-java-experience-tweaks | feat: improve config screen layout, add tooltips and break lines | 2026-07-22 20:21</title></g><g><rect x="314.0" y="288.0" width="97" height="8" rx="0 " ry="0" fill="#16ceaf" opacity="{{ calendar_slot_opacity }}" /><title>leonardokr/minecraft-java-experience-tweaks | feat: add debug mode option with config logs | 2026-07-22 20:24</title></g><g><rect x="314.0" y="288.0" width="97" height="8" rx="0 " ry="0" fill="#16ceaf" opacity="{{ calendar_slot_opacity }}" /><title>leonardokr/minecraft-java-experience-tweaks | fix: fix critical injection failure in AnvilMenuMixin | 2026-07-22 20:24</title></g><g><rect x="314.0" y="289.0" width="97" height="8" rx="0 " ry="0" fill="#16ceaf" opacity="{{ calendar_slot_opacity }}" /><title>leonardokr/minecraft-java-experience-tweaks | Merge pull request #15 from leonardokr/release-please--branches--main--components--experiencetweaks | 2026-07-22 20:27</title></g><g><rect x="314.0" y="316.0" width="97" height="8" rx="0 " ry="0" fill="#4d9de4" opacity="{{ calendar_slot_opacity }}" /><title>leonardokr/private-repo | Private commit | 2026-07-22 23:12</title></g><g><rect x="314.0" y="316.0" width="97" height="8" rx="0 " ry="0" fill="#4d9de4" opacity="{{ calendar_slot_opacity }}" /><title>leonardokr/private-repo | Private commit | 2026-07-22 23:13</title></g><g><rect x="415.0" y="174.0" width="97" height="8" rx="0 " ry="0" fill="#4d9de4" opacity="{{ calendar_slot_opacity }}" /><title>leonardokr/private-repo | Private commit | 2026-07-23 09:02</title></g><g><rect x="415.0" y="241.0" width="97" height="8" rx="0 " ry="0" fill="#16ceaf" opacity="{{ calendar_slot_opacity }}" /><title>leonardokr/minecraft-java-experience-tweaks | feat: add collectible mob arrows configuration | 2026-07-23 15:39</title></g><g><rect x="415.0" y="242.0" width="97" height="8" rx="0 " ry="0" fill="#16ceaf" opacity="{{ calendar_slot_opacity }}" /><title>leonardokr/minecraft-java-experience-tweaks | feat: implement shared mod config registry and unified selection screen | 2026-07-23 15:49</title></g><g><rect x="415.0" y="245.0" width="97" height="8" rx="0 " ry="0" fill="#4d9de4" opacity="{{ calendar_slot_opacity }}" /><title>leonardokr/private-repo | Private commit | 2026-07-23 16:05</title></g><g><rect x="415.0" y="245.0" width="97" height="8" rx="0 " ry="0" fill="#16ceaf" opacity="{{ calendar_slot_opacity }}" /><title>leonardokr/minecraft-java-experience-tweaks | docs: simplify project description in README.md | 2026-07-23 16:08</title></g><g><rect x="415.0" y="253.0" width="97" height="8" rx="0 " ry="0" fill="#16ceaf" opacity="{{ calendar_slot_opacity }}" /><title>leonardokr/minecraft-java-experience-tweaks | Merge pull request #16 from leonardokr/release-please--branches--main--components--experiencetweaks | 2026-07-23 16:53</title></g><g><rect x="415.0" y="253.0" width="97" height="8" rx="0 " ry="0" fill="#4d9de4" opacity="{{ calendar_slot_opacity }}" /><title>leonardokr/private-repo | Private commit | 2026-07-23 16:53</title></g><g><rect x="516.0" y="235.0" width="97" height="8" rx="0 " ry="0" fill="#5e4fdd" opacity="{{ calendar_slot_opacity }}" /><title>leonardokr/leonardokr | ci: allow workflow to continue when card generation fails | 2026-07-24 15:09</title></g><g><rect x="516.0" y="235.0" width="97" height="8" rx="0 " ry="0" fill="#5e4fdd" opacity="{{ calendar_slot_opacity }}" /><title>leonardokr/leonardokr | Merge branch &apos;master&apos; of https://github.com/leonardokr/leonardokr | 2026-07-24 15:09</title></g>
  <rect x="110" y="339" width="10" height="10" rx="2" ry="2" fill="#16ceaf" /><text x="126" y="348" class="legend-label">leonardokr/minecraft-ja...</text><rect x="280" y="339" width="10" height="10" rx="2" ry="2" fill="#4d9de4" /><text x="296" y="348" class="legend-label">leonardokr/private-repo</text><rect x="450" y="339" width="10" height="10" rx="2" ry="2" fill="#5e4fdd" /><text x="466" y="348" class="legend-label">leonardokr/leonardokr</text>
</svg>
