<svg width="495" height="195" viewBox="0 0 495 195" xmlns="http://www.w3.org/2000/svg">
<defs>
  <linearGradient id="puzzle-gradient" x1="0%" y1="0%" x2="100%" y2="100%">
    <stop offset="0%" style="stop-color:#58a6ff;stop-opacity:1" />
    <stop offset="100%" style="stop-color:#a371f7;stop-opacity:1" />
  </linearGradient>
  <clipPath id="card-rounded">
    <rect x="0" y="0" width="495" height="195" rx="6" ry="6"/>
  </clipPath>
  <clipPath id="treemap-clip">
    <rect x="0" y="0" width="455" height="135" rx="4" ry="4"/>
  </clipPath>
</defs>

<style>
  @keyframes fadeInUp {
    from { opacity: 0; transform: translateY(8px); }
    to { opacity: 1; transform: translateY(0); }
  }
  @keyframes scaleIn {
    from { opacity: 0; transform: scale(0.95); }
    to { opacity: 1; transform: scale(1); }
  }
  .animate-fade { animation: fadeInUp 0.6s ease forwards; opacity: 0; }
  .puzzle-rect { animation: scaleIn 0.5s ease forwards; opacity: 0; }
  .delay-1 { animation-delay: 0.1s; }
  .delay-2 { animation-delay: 0.2s; }
  .delay-3 { animation-delay: 0.3s; }
  .delay-4 { animation-delay: 0.4s; }
  .delay-5 { animation-delay: 0.5s; }
  .delay-6 { animation-delay: 0.6s; }
  .delay-7 { animation-delay: 0.7s; }
  .delay-8 { animation-delay: 0.8s; }
  .puzzle-text {
    font-family: 'Segoe UI', Ubuntu, 'Helvetica Neue', Sans-Serif;
    font-weight: 600;
    font-size: 12px;
    fill: #FFFFFF;
    pointer-events: none;
  }
  .puzzle-percent {
    font-family: 'Segoe UI', Ubuntu, 'Helvetica Neue', Sans-Serif;
    font-weight: 400;
    font-size: 10px;
    fill: #FFFFFF;
    opacity: 0.85;
    pointer-events: none;
  }
</style>

<rect clip-path="url(#card-rounded)" width="100%" height="100%" fill="#0d1117" stroke="#30363d" stroke-width="1"/>

<rect x="0" y="0" width="6" height="195" fill="url(#puzzle-gradient)" clip-path="url(#card-rounded)"/>

<g transform="translate(25, 32)">
  <g class="animate-fade delay-1">
    <svg x="0" y="-14" width="16" height="16" viewBox="0 0 16 16" fill="#8b949e">
      <path d="M1 2.5A1.5 1.5 0 0 1 2.5 1h3A1.5 1.5 0 0 1 7 2.5v3A1.5 1.5 0 0 1 5.5 7h-3A1.5 1.5 0 0 1 1 5.5v-3zm8 0A1.5 1.5 0 0 1 10.5 1h3A1.5 1.5 0 0 1 15 2.5v3A1.5 1.5 0 0 1 13.5 7h-3A1.5 1.5 0 0 1 9 5.5v-3zm-8 8A1.5 1.5 0 0 1 2.5 9h3A1.5 1.5 0 0 1 7 10.5v3A1.5 1.5 0 0 1 5.5 15h-3A1.5 1.5 0 0 1 1 13.5v-3zm8 0A1.5 1.5 0 0 1 10.5 9h3a1.5 1.5 0 0 1 1.5 1.5v3a1.5 1.5 0 0 1-1.5 1.5h-3A1.5 1.5 0 0 1 9 13.5v-3z"/>
    </svg>
    <text x="22" font-family="'Segoe UI', Ubuntu, 'Helvetica Neue', Sans-Serif" font-weight="600" font-size="16" fill="#58a6ff">Top Languages</text>
  </g>
</g>

<g transform="translate(20, 50)">
    <g class="animate-fade delay-2">
    <g clip-path="url(#treemap-clip)">
      <rect class="puzzle-rect delay-1" x="1.00" y="1.00" width="186.06" height="104.42" rx="4.0" fill="#16cece"/>
<text class="puzzle-text" x="94.03" y="51.21" text-anchor="middle" dominant-baseline="middle">Rich Text Format</text>
<text class="puzzle-percent" x="94.03" y="63.21" text-anchor="middle" dominant-baseline="middle">50.3%</text>
<rect class="puzzle-rect delay-2" x="189.06" y="1.00" width="232.84" height="70.58" rx="4.0" fill="#5ba2eb"/>
<text class="puzzle-text" x="305.48" y="34.29" text-anchor="middle" dominant-baseline="middle">Python</text>
<text class="puzzle-percent" x="305.48" y="46.29" text-anchor="middle" dominant-baseline="middle">36.5%</text>
<rect class="puzzle-rect delay-3" x="189.06" y="73.58" width="232.84" height="31.84" rx="4.0" fill="#1d1ad5"/>
<text class="puzzle-text" x="305.48" y="87.50" text-anchor="middle" dominant-baseline="middle">XSLT</text>
<text class="puzzle-percent" x="305.48" y="99.50" text-anchor="middle" dominant-baseline="middle">7.9%</text>
<rect class="puzzle-rect delay-4" x="1.00" y="107.42" width="250.96" height="13.25" rx="3.8" fill="#57cde9"/>
<rect class="puzzle-rect delay-5" x="1.00" y="122.68" width="250.96" height="11.32" rx="3.3" fill="#1d56dc"/>
<rect class="puzzle-rect delay-6" x="253.96" y="107.42" width="167.94" height="14.96" rx="4.0" fill="#7252e6"/>
<rect class="puzzle-rect delay-7" x="253.96" y="124.38" width="167.94" height="9.62" rx="2.9" fill="#2496df"/>
<rect class="puzzle-rect delay-8" x="423.90" y="1.00" width="19.56" height="62.66" rx="4.0" fill="#4d5de4"/>
<rect class="puzzle-rect delay-8" x="423.90" y="65.66" width="19.56" height="35.99" rx="4.0" fill="#2fd1de"/>
<rect class="puzzle-rect delay-8" x="445.46" y="1.00" width="8.54" height="57.55" rx="2.6" fill="#4988e1"/>
<rect class="puzzle-rect delay-8" x="445.46" y="60.55" width="8.54" height="41.10" rx="2.6" fill="#493add"/>
<rect class="puzzle-rect delay-8" x="423.90" y="103.64" width="19.62" height="18.47" rx="4.0" fill="#45b5de"/>
<rect class="puzzle-rect delay-8" x="423.90" y="124.12" width="19.62" height="9.88" rx="3.0" fill="#4567dd"/>
<rect class="puzzle-rect delay-8" x="445.52" y="103.64" width="8.48" height="20.42" rx="2.6" fill="#6d40db"/>
<rect class="puzzle-rect delay-8" x="445.52" y="126.06" width="8.48" height="7.94" rx="2.5" fill="#4f9bdd"/>

    </g>
  </g>
</g>

</svg>
