<svg width="495" height="195" viewBox="0 0 495 195" xmlns="http://www.w3.org/2000/svg">
<defs>
  <linearGradient id="puzzle-gradient" x1="0%" y1="0%" x2="100%" y2="100%">
    <stop offset="0%" style="stop-color:#58a6ff;stop-opacity:1" />
    <stop offset="100%" style="stop-color:#a371f7;stop-opacity:1" />
  </linearGradient>
  <clipPath id="card-rounded">
    <rect x="0" y="0" width="495" height="195" rx="6" ry="6"/>
  </clipPath>
  <clipPath id="treemap-clip">
    <rect x="0" y="0" width="455" height="135" rx="4" ry="4"/>
  </clipPath>
</defs>

<style>
  @keyframes fadeInUp {
    from { opacity: 0; transform: translateY(8px); }
    to { opacity: 1; transform: translateY(0); }
  }
  @keyframes scaleIn {
    from { opacity: 0; transform: scale(0.95); }
    to { opacity: 1; transform: scale(1); }
  }
  .animate-fade { animation: fadeInUp 0.6s ease forwards; opacity: 0; }
  .puzzle-rect { animation: scaleIn 0.5s ease forwards; opacity: 0; }
  .delay-1 { animation-delay: 0.1s; }
  .delay-2 { animation-delay: 0.2s; }
  .delay-3 { animation-delay: 0.3s; }
  .delay-4 { animation-delay: 0.4s; }
  .delay-5 { animation-delay: 0.5s; }
  .delay-6 { animation-delay: 0.6s; }
  .delay-7 { animation-delay: 0.7s; }
  .delay-8 { animation-delay: 0.8s; }
  .puzzle-text {
    font-family: 'Segoe UI', Ubuntu, 'Helvetica Neue', Sans-Serif;
    font-weight: 600;
    font-size: 12px;
    fill: #FFFFFF;
    pointer-events: none;
  }
  .puzzle-percent {
    font-family: 'Segoe UI', Ubuntu, 'Helvetica Neue', Sans-Serif;
    font-weight: 400;
    font-size: 10px;
    fill: #FFFFFF;
    opacity: 0.85;
    pointer-events: none;
  }
</style>

<rect clip-path="url(#card-rounded)" width="100%" height="100%" fill="#0d1117" stroke="#30363d" stroke-width="1"/>

<rect x="0" y="0" width="6" height="195" fill="url(#puzzle-gradient)" clip-path="url(#card-rounded)"/>

<g transform="translate(25, 32)">
  <g class="animate-fade delay-1">
    <svg x="0" y="-14" width="16" height="16" viewBox="0 0 16 16" fill="#8b949e">
      <path d="M1 2.5A1.5 1.5 0 0 1 2.5 1h3A1.5 1.5 0 0 1 7 2.5v3A1.5 1.5 0 0 1 5.5 7h-3A1.5 1.5 0 0 1 1 5.5v-3zm8 0A1.5 1.5 0 0 1 10.5 1h3A1.5 1.5 0 0 1 15 2.5v3A1.5 1.5 0 0 1 13.5 7h-3A1.5 1.5 0 0 1 9 5.5v-3zm-8 8A1.5 1.5 0 0 1 2.5 9h3A1.5 1.5 0 0 1 7 10.5v3A1.5 1.5 0 0 1 5.5 15h-3A1.5 1.5 0 0 1 1 13.5v-3zm8 0A1.5 1.5 0 0 1 10.5 9h3a1.5 1.5 0 0 1 1.5 1.5v3a1.5 1.5 0 0 1-1.5 1.5h-3A1.5 1.5 0 0 1 9 13.5v-3z"/>
    </svg>
    <text x="22" font-family="'Segoe UI', Ubuntu, 'Helvetica Neue', Sans-Serif" font-weight="600" font-size="16" fill="#58a6ff">Top Languages</text>
  </g>
</g>

<g transform="translate(20, 50)">
    <g class="animate-fade delay-2">
    <g clip-path="url(#treemap-clip)">
      <rect class="puzzle-rect delay-1" x="1.00" y="1.00" width="186.76" height="104.52" rx="4.0" fill="#16cece"/>
<text class="puzzle-text" x="94.38" y="51.26" text-anchor="middle" dominant-baseline="middle">Rich Text Format</text>
<text class="puzzle-percent" x="94.38" y="63.26" text-anchor="middle" dominant-baseline="middle">50.6%</text>
<rect class="puzzle-rect delay-2" x="189.76" y="1.00" width="232.76" height="70.51" rx="4.0" fill="#5ba2eb"/>
<text class="puzzle-text" x="306.14" y="34.26" text-anchor="middle" dominant-baseline="middle">Python</text>
<text class="puzzle-percent" x="306.14" y="46.26" text-anchor="middle" dominant-baseline="middle">36.2%</text>
<rect class="puzzle-rect delay-3" x="189.76" y="73.51" width="232.76" height="32.01" rx="4.0" fill="#1d1ad6"/>
<text class="puzzle-text" x="306.14" y="87.52" text-anchor="middle" dominant-baseline="middle">XSLT</text>
<text class="puzzle-percent" x="306.14" y="99.52" text-anchor="middle" dominant-baseline="middle">8.0%</text>
<rect class="puzzle-rect delay-4" x="1.00" y="107.52" width="253.02" height="13.20" rx="3.8" fill="#56cce9"/>
<rect class="puzzle-rect delay-5" x="1.00" y="122.72" width="253.02" height="11.28" rx="3.3" fill="#1d56dd"/>
<rect class="puzzle-rect delay-6" x="256.02" y="107.52" width="166.51" height="14.71" rx="4.0" fill="#7151e6"/>
<rect class="puzzle-rect delay-7" x="256.02" y="124.23" width="166.51" height="9.77" rx="2.9" fill="#2797df"/>
<rect class="puzzle-rect delay-8" x="424.52" y="1.00" width="13.44" height="88.67" rx="3.9" fill="#4c5be3"/>
<rect class="puzzle-rect delay-8" x="439.97" y="1.00" width="14.03" height="49.32" rx="4.0" fill="#33d1de"/>
<rect class="puzzle-rect delay-8" x="439.97" y="52.32" width="14.03" height="37.35" rx="4.0" fill="#4787e0"/>
<rect class="puzzle-rect delay-8" x="424.52" y="91.67" width="18.33" height="20.46" rx="4.0" fill="#4d3edd"/>
<rect class="puzzle-rect delay-8" x="424.52" y="114.13" width="18.33" height="19.87" rx="4.0" fill="#43b3dd"/>
<rect class="puzzle-rect delay-8" x="444.85" y="91.67" width="9.15" height="21.15" rx="2.8" fill="#4a6add"/>
<rect class="puzzle-rect delay-8" x="444.85" y="114.82" width="9.15" height="19.18" rx="2.8" fill="#6b3ed9"/>

    </g>
  </g>
</g>

</svg>
