<svg width="495" height="195" viewBox="0 0 495 195" xmlns="http://www.w3.org/2000/svg">
<defs>
  <linearGradient id="puzzle-gradient" x1="0%" y1="0%" x2="100%" y2="100%">
    <stop offset="0%" style="stop-color:#58a6ff;stop-opacity:1" />
    <stop offset="100%" style="stop-color:#a371f7;stop-opacity:1" />
  </linearGradient>
  <clipPath id="card-rounded">
    <rect x="0" y="0" width="495" height="195" rx="6" ry="6"/>
  </clipPath>
  <clipPath id="treemap-clip">
    <rect x="0" y="0" width="455" height="135" rx="4" ry="4"/>
  </clipPath>
</defs>

<style>
  @keyframes fadeInUp {
    from { opacity: 0; transform: translateY(8px); }
    to { opacity: 1; transform: translateY(0); }
  }
  @keyframes scaleIn {
    from { opacity: 0; transform: scale(0.95); }
    to { opacity: 1; transform: scale(1); }
  }
  .animate-fade { animation: fadeInUp 0.6s ease forwards; opacity: 0; }
  .puzzle-rect { animation: scaleIn 0.5s ease forwards; opacity: 0; }
  .delay-1 { animation-delay: 0.1s; }
  .delay-2 { animation-delay: 0.2s; }
  .delay-3 { animation-delay: 0.3s; }
  .delay-4 { animation-delay: 0.4s; }
  .delay-5 { animation-delay: 0.5s; }
  .delay-6 { animation-delay: 0.6s; }
  .delay-7 { animation-delay: 0.7s; }
  .delay-8 { animation-delay: 0.8s; }
  .puzzle-text {
    font-family: 'Segoe UI', Ubuntu, 'Helvetica Neue', Sans-Serif;
    font-weight: 600;
    font-size: 12px;
    fill: #FFFFFF;
    pointer-events: none;
  }
  .puzzle-percent {
    font-family: 'Segoe UI', Ubuntu, 'Helvetica Neue', Sans-Serif;
    font-weight: 400;
    font-size: 10px;
    fill: #FFFFFF;
    opacity: 0.85;
    pointer-events: none;
  }
</style>

<rect clip-path="url(#card-rounded)" width="100%" height="100%" fill="#0d1117" stroke="#30363d" stroke-width="1"/>

<rect x="0" y="0" width="6" height="195" fill="url(#puzzle-gradient)" clip-path="url(#card-rounded)"/>

<g transform="translate(25, 32)">
  <g class="animate-fade delay-1">
    <svg x="0" y="-14" width="16" height="16" viewBox="0 0 16 16" fill="#8b949e">
      <path d="M1 2.5A1.5 1.5 0 0 1 2.5 1h3A1.5 1.5 0 0 1 7 2.5v3A1.5 1.5 0 0 1 5.5 7h-3A1.5 1.5 0 0 1 1 5.5v-3zm8 0A1.5 1.5 0 0 1 10.5 1h3A1.5 1.5 0 0 1 15 2.5v3A1.5 1.5 0 0 1 13.5 7h-3A1.5 1.5 0 0 1 9 5.5v-3zm-8 8A1.5 1.5 0 0 1 2.5 9h3A1.5 1.5 0 0 1 7 10.5v3A1.5 1.5 0 0 1 5.5 15h-3A1.5 1.5 0 0 1 1 13.5v-3zm8 0A1.5 1.5 0 0 1 10.5 9h3a1.5 1.5 0 0 1 1.5 1.5v3a1.5 1.5 0 0 1-1.5 1.5h-3A1.5 1.5 0 0 1 9 13.5v-3z"/>
    </svg>
    <text x="22" font-family="'Segoe UI', Ubuntu, 'Helvetica Neue', Sans-Serif" font-weight="600" font-size="16" fill="#58a6ff">Top Languages</text>
  </g>
</g>

<g transform="translate(20, 50)">
    <g class="animate-fade delay-2">
    <g clip-path="url(#treemap-clip)">
      <rect class="puzzle-rect delay-1" x="1.00" y="1.00" width="333.49" height="102.10" rx="4.0" fill="#16ceaf"/>
<text class="puzzle-text" x="167.75" y="50.05" text-anchor="middle" dominant-baseline="middle">Python</text>
<text class="puzzle-percent" x="167.75" y="62.05" text-anchor="middle" dominant-baseline="middle">90.3%</text>
<rect class="puzzle-rect delay-2" x="336.49" y="1.00" width="73.73" height="102.10" rx="4.0" fill="#5aa7eb"/>
<text class="puzzle-text" x="373.36" y="50.05" text-anchor="middle" dominant-baseline="middle">TypeScript</text>
<text class="puzzle-percent" x="373.36" y="62.05" text-anchor="middle" dominant-baseline="middle">4.6%</text>
<rect class="puzzle-rect delay-3" x="1.00" y="105.10" width="197.02" height="28.90" rx="4.0" fill="#2f1bd8"/>
<text class="puzzle-text" x="99.51" y="117.55" text-anchor="middle" dominant-baseline="middle">PowerShell</text>
<text class="puzzle-percent" x="99.51" y="129.55" text-anchor="middle" dominant-baseline="middle">2.8%</text>
<rect class="puzzle-rect delay-4" x="200.02" y="105.10" width="210.20" height="17.75" rx="4.0" fill="#54dce7"/>
<rect class="puzzle-rect delay-5" x="200.02" y="124.85" width="210.20" height="9.15" rx="2.8" fill="#2258df"/>
<rect class="puzzle-rect delay-6" x="412.22" y="1.00" width="15.97" height="94.99" rx="4.0" fill="#824de4"/>
<rect class="puzzle-rect delay-7" x="430.20" y="1.00" width="23.80" height="57.51" rx="4.0" fill="#32a7de"/>
<rect class="puzzle-rect delay-8" x="430.20" y="60.51" width="23.80" height="35.48" rx="4.0" fill="#474ee0"/>
<rect class="puzzle-rect delay-8" x="412.22" y="97.99" width="22.78" height="36.01" rx="4.0" fill="#41ddd1"/>
<rect class="puzzle-rect delay-8" x="437.00" y="97.99" width="17.00" height="24.33" rx="4.0" fill="#4185db"/>
<rect class="puzzle-rect delay-8" x="437.00" y="124.33" width="17.00" height="9.67" rx="2.9" fill="#6c4fdd"/>

    </g>
  </g>
</g>

</svg>
