<svg width="900" height="402" viewBox="0 0 900 402" xmlns="http://www.w3.org/2000/svg">
  <defs>
    <linearGradient id="history-gradient" x1="0%" y1="0%" x2="100%" y2="100%">
      <stop offset="0%" style="stop-color:#58a6ff;stop-opacity:1" />
      <stop offset="100%" style="stop-color:#a371f7;stop-opacity:1" />
    </linearGradient>
    <clipPath id="history-rounded">
      <rect x="0" y="0" width="900" height="402" rx="8" ry="8" />
    </clipPath>
  </defs>
  <style>
    .title {
      font-family: 'Segoe UI', Ubuntu, 'Helvetica Neue', sans-serif;
      font-size: 22px;
      font-weight: 700;
      fill: #58a6ff;
    }
    .subtitle {
      font-family: 'Segoe UI', Ubuntu, 'Helvetica Neue', sans-serif;
      font-size: 12px;
      font-weight: 500;
      fill: #8b949e;
    }
    .axis-label {
      font-family: 'Segoe UI', Ubuntu, 'Helvetica Neue', sans-serif;
      font-size: 10px;
      fill: #8b949e;
    }
    .grid-line {
      stroke: #30363d;
      stroke-width: 1;
      opacity: 0.3;
    }
    .legend-label {
      font-family: 'Segoe UI', Ubuntu, 'Helvetica Neue', sans-serif;
      font-size: 11px;
      fill: #c9d1d9;
      dominant-baseline: middle;
    }
  </style>
  <rect clip-path="url(#history-rounded)" width="100%" height="100%" fill="#0d1117" stroke="#30363d" stroke-width="1" />
  <rect x="0" y="396" width="900" height="6" fill="url(#history-gradient)" clip-path="url(#history-rounded)" />
  <text x="24" y="34" class="title">Leonardo Klein Stats History</text>
  <text x="24" y="54" class="subtitle">Period: 2026-02-20 to 2026-03-14</text>
  <text x="72" y="320.0" text-anchor="end" dominant-baseline="central" class="axis-label">0</text><text x="72" y="270.0" text-anchor="end" dominant-baseline="central" class="axis-label">400</text><text x="72" y="220.0" text-anchor="end" dominant-baseline="central" class="axis-label">800</text><text x="72" y="170.0" text-anchor="end" dominant-baseline="central" class="axis-label">1.2k</text><text x="72" y="120.0" text-anchor="end" dominant-baseline="central" class="axis-label">1.6k</text><text x="72" y="70.0" text-anchor="end" dominant-baseline="central" class="axis-label">2.0k</text>
  <text x="80.0" y="336" text-anchor="middle" class="axis-label">02-20</text><text x="155.3" y="336" text-anchor="middle" class="axis-label">02-22</text><text x="230.6" y="336" text-anchor="middle" class="axis-label">02-24</text><text x="305.9" y="336" text-anchor="middle" class="axis-label">02-27</text><text x="381.3" y="336" text-anchor="middle" class="axis-label">03-01</text><text x="456.6" y="336" text-anchor="middle" class="axis-label">03-03</text><text x="531.9" y="336" text-anchor="middle" class="axis-label">03-05</text><text x="607.2" y="336" text-anchor="middle" class="axis-label">03-07</text><text x="682.5" y="336" text-anchor="middle" class="axis-label">03-10</text><text x="757.8" y="336" text-anchor="middle" class="axis-label">03-12</text><text x="833.2" y="336" text-anchor="middle" class="axis-label">03-14</text><text x="840.0" y="336" text-anchor="middle" class="axis-label">03-14</text>
  <line x1="80" y1="320.0" x2="840" y2="320.0" class="grid-line" /><line x1="80" y1="270.0" x2="840" y2="270.0" class="grid-line" /><line x1="80" y1="220.0" x2="840" y2="220.0" class="grid-line" /><line x1="80" y1="170.0" x2="840" y2="170.0" class="grid-line" /><line x1="80" y1="120.0" x2="840" y2="120.0" class="grid-line" /><line x1="80" y1="70.0" x2="840" y2="70.0" class="grid-line" />
  <polyline points="80.0,317.0 86.8,317.0 93.7,317.0 100.5,317.0 107.4,317.0 114.2,317.0 121.1,317.0 127.9,317.0 134.8,317.0 141.6,317.0 148.5,317.0 155.3,317.0 162.2,317.0 169.0,317.0 175.9,317.0 182.7,317.0 189.5,317.0 196.4,317.0 203.2,317.0 210.1,317.0 216.9,317.0 223.8,317.0 230.6,317.0 237.5,317.0 244.3,317.0 251.2,317.0 258.0,317.0 264.9,317.0 271.7,317.0 278.6,317.0 285.4,317.0 292.3,317.0 299.1,317.0 305.9,317.0 312.8,317.0 319.6,317.0 326.5,317.0 333.3,317.0 340.2,317.0 347.0,317.0 353.9,317.0 360.7,317.0 367.6,317.0 374.4,317.0 381.3,317.0 388.1,317.0 395.0,317.0 401.8,317.0 408.6,317.0 415.5,317.0 422.3,317.0 429.2,317.0 436.0,317.0 442.9,317.0 449.7,317.0 456.6,317.0 463.4,317.0 470.3,317.0 477.1,317.0 484.0,317.0 490.8,317.0 497.7,317.0 504.5,317.0 511.4,317.0 518.2,317.0 525.0,317.0 531.9,317.0 538.7,317.0 545.6,317.0 552.4,317.0 559.3,317.0 566.1,317.0 573.0,317.0 579.8,317.0 586.7,317.0 593.5,317.0 600.4,317.0 607.2,317.0 614.1,317.0 620.9,317.0 627.7,317.0 634.6,317.0 641.4,317.0 648.3,317.0 655.1,317.0 662.0,317.0 668.8,317.0 675.7,317.0 682.5,317.0 689.4,317.0 696.2,317.0 703.1,317.0 709.9,317.0 716.8,317.0 723.6,317.0 730.5,317.0 737.3,317.0 744.1,317.0 751.0,317.0 757.8,317.0 764.7,317.0 771.5,317.0 778.4,317.0 785.2,317.0 792.1,317.0 798.9,317.0 805.8,317.0 812.6,317.0 819.5,317.0 826.3,317.0 833.2,317.0 840.0,317.0" fill="none" stroke="#19e5a1" stroke-width="2.5" stroke-linecap="round" stroke-linejoin="round" /><circle cx="80.0" cy="317.0" r="4" fill="#19e5a1" /><circle cx="86.8" cy="317.0" r="4" fill="#19e5a1" /><circle cx="93.7" cy="317.0" r="4" fill="#19e5a1" /><circle cx="100.5" cy="317.0" r="4" fill="#19e5a1" /><circle cx="107.4" cy="317.0" r="4" fill="#19e5a1" /><circle cx="114.2" cy="317.0" r="4" fill="#19e5a1" /><circle cx="121.1" cy="317.0" r="4" fill="#19e5a1" /><circle cx="127.9" cy="317.0" r="4" fill="#19e5a1" /><circle cx="134.8" cy="317.0" r="4" fill="#19e5a1" /><circle cx="141.6" cy="317.0" r="4" fill="#19e5a1" /><circle cx="148.5" cy="317.0" r="4" fill="#19e5a1" /><circle cx="155.3" cy="317.0" r="4" fill="#19e5a1" /><circle cx="162.2" cy="317.0" r="4" fill="#19e5a1" /><circle cx="169.0" cy="317.0" r="4" fill="#19e5a1" /><circle cx="175.9" cy="317.0" r="4" fill="#19e5a1" /><circle cx="182.7" cy="317.0" r="4" fill="#19e5a1" /><circle cx="189.5" cy="317.0" r="4" fill="#19e5a1" /><circle cx="196.4" cy="317.0" r="4" fill="#19e5a1" /><circle cx="203.2" cy="317.0" r="4" fill="#19e5a1" /><circle cx="210.1" cy="317.0" r="4" fill="#19e5a1" /><circle cx="216.9" cy="317.0" r="4" fill="#19e5a1" /><circle cx="223.8" cy="317.0" r="4" fill="#19e5a1" /><circle cx="230.6" cy="317.0" r="4" fill="#19e5a1" /><circle cx="237.5" cy="317.0" r="4" fill="#19e5a1" /><circle cx="244.3" cy="317.0" r="4" fill="#19e5a1" /><circle cx="251.2" cy="317.0" r="4" fill="#19e5a1" /><circle cx="258.0" cy="317.0" r="4" fill="#19e5a1" /><circle cx="264.9" cy="317.0" r="4" fill="#19e5a1" /><circle cx="271.7" cy="317.0" r="4" fill="#19e5a1" /><circle cx="278.6" cy="317.0" r="4" fill="#19e5a1" /><circle cx="285.4" cy="317.0" r="4" fill="#19e5a1" /><circle cx="292.3" cy="317.0" r="4" fill="#19e5a1" /><circle cx="299.1" cy="317.0" r="4" fill="#19e5a1" /><circle cx="305.9" cy="317.0" r="4" fill="#19e5a1" /><circle cx="312.8" cy="317.0" r="4" fill="#19e5a1" /><circle cx="319.6" cy="317.0" r="4" fill="#19e5a1" /><circle cx="326.5" cy="317.0" r="4" fill="#19e5a1" /><circle cx="333.3" cy="317.0" r="4" fill="#19e5a1" /><circle cx="340.2" cy="317.0" r="4" fill="#19e5a1" /><circle cx="347.0" cy="317.0" r="4" fill="#19e5a1" /><circle cx="353.9" cy="317.0" r="4" fill="#19e5a1" /><circle cx="360.7" cy="317.0" r="4" fill="#19e5a1" /><circle cx="367.6" cy="317.0" r="4" fill="#19e5a1" /><circle cx="374.4" cy="317.0" r="4" fill="#19e5a1" /><circle cx="381.3" cy="317.0" r="4" fill="#19e5a1" /><circle cx="388.1" cy="317.0" r="4" fill="#19e5a1" /><circle cx="395.0" cy="317.0" r="4" fill="#19e5a1" /><circle cx="401.8" cy="317.0" r="4" fill="#19e5a1" /><circle cx="408.6" cy="317.0" r="4" fill="#19e5a1" /><circle cx="415.5" cy="317.0" r="4" fill="#19e5a1" /><circle cx="422.3" cy="317.0" r="4" fill="#19e5a1" /><circle cx="429.2" cy="317.0" r="4" fill="#19e5a1" /><circle cx="436.0" cy="317.0" r="4" fill="#19e5a1" /><circle cx="442.9" cy="317.0" r="4" fill="#19e5a1" /><circle cx="449.7" cy="317.0" r="4" fill="#19e5a1" /><circle cx="456.6" cy="317.0" r="4" fill="#19e5a1" /><circle cx="463.4" cy="317.0" r="4" fill="#19e5a1" /><circle cx="470.3" cy="317.0" r="4" fill="#19e5a1" /><circle cx="477.1" cy="317.0" r="4" fill="#19e5a1" /><circle cx="484.0" cy="317.0" r="4" fill="#19e5a1" /><circle cx="490.8" cy="317.0" r="4" fill="#19e5a1" /><circle cx="497.7" cy="317.0" r="4" fill="#19e5a1" /><circle cx="504.5" cy="317.0" r="4" fill="#19e5a1" /><circle cx="511.4" cy="317.0" r="4" fill="#19e5a1" /><circle cx="518.2" cy="317.0" r="4" fill="#19e5a1" /><circle cx="525.0" cy="317.0" r="4" fill="#19e5a1" /><circle cx="531.9" cy="317.0" r="4" fill="#19e5a1" /><circle cx="538.7" cy="317.0" r="4" fill="#19e5a1" /><circle cx="545.6" cy="317.0" r="4" fill="#19e5a1" /><circle cx="552.4" cy="317.0" r="4" fill="#19e5a1" /><circle cx="559.3" cy="317.0" r="4" fill="#19e5a1" /><circle cx="566.1" cy="317.0" r="4" fill="#19e5a1" /><circle cx="573.0" cy="317.0" r="4" fill="#19e5a1" /><circle cx="579.8" cy="317.0" r="4" fill="#19e5a1" /><circle cx="586.7" cy="317.0" r="4" fill="#19e5a1" /><circle cx="593.5" cy="317.0" r="4" fill="#19e5a1" /><circle cx="600.4" cy="317.0" r="4" fill="#19e5a1" /><circle cx="607.2" cy="317.0" r="4" fill="#19e5a1" /><circle cx="614.1" cy="317.0" r="4" fill="#19e5a1" /><circle cx="620.9" cy="317.0" r="4" fill="#19e5a1" /><circle cx="627.7" cy="317.0" r="4" fill="#19e5a1" /><circle cx="634.6" cy="317.0" r="4" fill="#19e5a1" /><circle cx="641.4" cy="317.0" r="4" fill="#19e5a1" /><circle cx="648.3" cy="317.0" r="4" fill="#19e5a1" /><circle cx="655.1" cy="317.0" r="4" fill="#19e5a1" /><circle cx="662.0" cy="317.0" r="4" fill="#19e5a1" /><circle cx="668.8" cy="317.0" r="4" fill="#19e5a1" /><circle cx="675.7" cy="317.0" r="4" fill="#19e5a1" /><circle cx="682.5" cy="317.0" r="4" fill="#19e5a1" /><circle cx="689.4" cy="317.0" r="4" fill="#19e5a1" /><circle cx="696.2" cy="317.0" r="4" fill="#19e5a1" /><circle cx="703.1" cy="317.0" r="4" fill="#19e5a1" /><circle cx="709.9" cy="317.0" r="4" fill="#19e5a1" /><circle cx="716.8" cy="317.0" r="4" fill="#19e5a1" /><circle cx="723.6" cy="317.0" r="4" fill="#19e5a1" /><circle cx="730.5" cy="317.0" r="4" fill="#19e5a1" /><circle cx="737.3" cy="317.0" r="4" fill="#19e5a1" /><circle cx="744.1" cy="317.0" r="4" fill="#19e5a1" /><circle cx="751.0" cy="317.0" r="4" fill="#19e5a1" /><circle cx="757.8" cy="317.0" r="4" fill="#19e5a1" /><circle cx="764.7" cy="317.0" r="4" fill="#19e5a1" /><circle cx="771.5" cy="317.0" r="4" fill="#19e5a1" /><circle cx="778.4" cy="317.0" r="4" fill="#19e5a1" /><circle cx="785.2" cy="317.0" r="4" fill="#19e5a1" /><circle cx="792.1" cy="317.0" r="4" fill="#19e5a1" /><circle cx="798.9" cy="317.0" r="4" fill="#19e5a1" /><circle cx="805.8" cy="317.0" r="4" fill="#19e5a1" /><circle cx="812.6" cy="317.0" r="4" fill="#19e5a1" /><circle cx="819.5" cy="317.0" r="4" fill="#19e5a1" /><circle cx="826.3" cy="317.0" r="4" fill="#19e5a1" /><circle cx="833.2" cy="317.0" r="4" fill="#19e5a1" /><circle cx="840.0" cy="317.0" r="4" fill="#19e5a1" /><polyline points="80.0,313.2 86.8,312.2 93.7,312.1 100.5,312.4 107.4,312.4 114.2,312.4 121.1,312.1 127.9,312.0 134.8,311.9 141.6,311.9 148.5,311.8 155.3,311.8 162.2,311.5 169.0,311.5 175.9,311.5 182.7,311.2 189.5,311.2 196.4,311.1 203.2,311.1 210.1,311.1 216.9,310.9 223.8,311.0 230.6,310.8 237.5,310.8 244.3,310.8 251.2,310.8 258.0,310.4 264.9,310.2 271.7,310.4 278.6,310.4 285.4,310.4 292.3,310.4 299.1,310.4 305.9,310.2 312.8,310.2 319.6,310.1 326.5,310.1 333.3,309.8 340.2,309.6 347.0,309.6 353.9,309.6 360.7,309.6 367.6,309.5 374.4,309.4 381.3,309.4 388.1,309.4 395.0,309.4 401.8,309.2 408.6,309.2 415.5,309.2 422.3,309.4 429.2,309.4 436.0,309.5 442.9,309.2 449.7,309.2 456.6,309.4 463.4,309.2 470.3,309.2 477.1,309.2 484.0,309.2 490.8,309.2 497.7,309.1 504.5,309.1 511.4,309.1 518.2,309.1 525.0,309.0 531.9,309.0 538.7,308.9 545.6,308.9 552.4,308.9 559.3,308.6 566.1,308.6 573.0,308.6 579.8,308.6 586.7,308.6 593.5,308.6 600.4,308.6 607.2,308.6 614.1,308.6 620.9,308.6 627.7,308.6 634.6,308.6 641.4,308.6 648.3,307.8 655.1,307.8 662.0,307.6 668.8,307.6 675.7,307.6 682.5,307.5 689.4,307.5 696.2,307.6 703.1,308.5 709.9,308.5 716.8,308.4 723.6,308.4 730.5,307.5 737.3,307.5 744.1,307.2 751.0,307.1 757.8,307.1 764.7,307.1 771.5,307.0 778.4,306.8 785.2,306.6 792.1,306.6 798.9,306.5 805.8,306.5 812.6,306.5 819.5,306.5 826.3,306.5 833.2,306.4 840.0,306.5" fill="none" stroke="#6eb6ec" stroke-width="2.5" stroke-linecap="round" stroke-linejoin="round" /><circle cx="80.0" cy="313.2" r="4" fill="#6eb6ec" /><circle cx="86.8" cy="312.2" r="4" fill="#6eb6ec" /><circle cx="93.7" cy="312.1" r="4" fill="#6eb6ec" /><circle cx="100.5" cy="312.4" r="4" fill="#6eb6ec" /><circle cx="107.4" cy="312.4" r="4" fill="#6eb6ec" /><circle cx="114.2" cy="312.4" r="4" fill="#6eb6ec" /><circle cx="121.1" cy="312.1" r="4" fill="#6eb6ec" /><circle cx="127.9" cy="312.0" r="4" fill="#6eb6ec" /><circle cx="134.8" cy="311.9" r="4" fill="#6eb6ec" /><circle cx="141.6" cy="311.9" r="4" fill="#6eb6ec" /><circle cx="148.5" cy="311.8" r="4" fill="#6eb6ec" /><circle cx="155.3" cy="311.8" r="4" fill="#6eb6ec" /><circle cx="162.2" cy="311.5" r="4" fill="#6eb6ec" /><circle cx="169.0" cy="311.5" r="4" fill="#6eb6ec" /><circle cx="175.9" cy="311.5" r="4" fill="#6eb6ec" /><circle cx="182.7" cy="311.2" r="4" fill="#6eb6ec" /><circle cx="189.5" cy="311.2" r="4" fill="#6eb6ec" /><circle cx="196.4" cy="311.1" r="4" fill="#6eb6ec" /><circle cx="203.2" cy="311.1" r="4" fill="#6eb6ec" /><circle cx="210.1" cy="311.1" r="4" fill="#6eb6ec" /><circle cx="216.9" cy="310.9" r="4" fill="#6eb6ec" /><circle cx="223.8" cy="311.0" r="4" fill="#6eb6ec" /><circle cx="230.6" cy="310.8" r="4" fill="#6eb6ec" /><circle cx="237.5" cy="310.8" r="4" fill="#6eb6ec" /><circle cx="244.3" cy="310.8" r="4" fill="#6eb6ec" /><circle cx="251.2" cy="310.8" r="4" fill="#6eb6ec" /><circle cx="258.0" cy="310.4" r="4" fill="#6eb6ec" /><circle cx="264.9" cy="310.2" r="4" fill="#6eb6ec" /><circle cx="271.7" cy="310.4" r="4" fill="#6eb6ec" /><circle cx="278.6" cy="310.4" r="4" fill="#6eb6ec" /><circle cx="285.4" cy="310.4" r="4" fill="#6eb6ec" /><circle cx="292.3" cy="310.4" r="4" fill="#6eb6ec" /><circle cx="299.1" cy="310.4" r="4" fill="#6eb6ec" /><circle cx="305.9" cy="310.2" r="4" fill="#6eb6ec" /><circle cx="312.8" cy="310.2" r="4" fill="#6eb6ec" /><circle cx="319.6" cy="310.1" r="4" fill="#6eb6ec" /><circle cx="326.5" cy="310.1" r="4" fill="#6eb6ec" /><circle cx="333.3" cy="309.8" r="4" fill="#6eb6ec" /><circle cx="340.2" cy="309.6" r="4" fill="#6eb6ec" /><circle cx="347.0" cy="309.6" r="4" fill="#6eb6ec" /><circle cx="353.9" cy="309.6" r="4" fill="#6eb6ec" /><circle cx="360.7" cy="309.6" r="4" fill="#6eb6ec" /><circle cx="367.6" cy="309.5" r="4" fill="#6eb6ec" /><circle cx="374.4" cy="309.4" r="4" fill="#6eb6ec" /><circle cx="381.3" cy="309.4" r="4" fill="#6eb6ec" /><circle cx="388.1" cy="309.4" r="4" fill="#6eb6ec" /><circle cx="395.0" cy="309.4" r="4" fill="#6eb6ec" /><circle cx="401.8" cy="309.2" r="4" fill="#6eb6ec" /><circle cx="408.6" cy="309.2" r="4" fill="#6eb6ec" /><circle cx="415.5" cy="309.2" r="4" fill="#6eb6ec" /><circle cx="422.3" cy="309.4" r="4" fill="#6eb6ec" /><circle cx="429.2" cy="309.4" r="4" fill="#6eb6ec" /><circle cx="436.0" cy="309.5" r="4" fill="#6eb6ec" /><circle cx="442.9" cy="309.2" r="4" fill="#6eb6ec" /><circle cx="449.7" cy="309.2" r="4" fill="#6eb6ec" /><circle cx="456.6" cy="309.4" r="4" fill="#6eb6ec" /><circle cx="463.4" cy="309.2" r="4" fill="#6eb6ec" /><circle cx="470.3" cy="309.2" r="4" fill="#6eb6ec" /><circle cx="477.1" cy="309.2" r="4" fill="#6eb6ec" /><circle cx="484.0" cy="309.2" r="4" fill="#6eb6ec" /><circle cx="490.8" cy="309.2" r="4" fill="#6eb6ec" /><circle cx="497.7" cy="309.1" r="4" fill="#6eb6ec" /><circle cx="504.5" cy="309.1" r="4" fill="#6eb6ec" /><circle cx="511.4" cy="309.1" r="4" fill="#6eb6ec" /><circle cx="518.2" cy="309.1" r="4" fill="#6eb6ec" /><circle cx="525.0" cy="309.0" r="4" fill="#6eb6ec" /><circle cx="531.9" cy="309.0" r="4" fill="#6eb6ec" /><circle cx="538.7" cy="308.9" r="4" fill="#6eb6ec" /><circle cx="545.6" cy="308.9" r="4" fill="#6eb6ec" /><circle cx="552.4" cy="308.9" r="4" fill="#6eb6ec" /><circle cx="559.3" cy="308.6" r="4" fill="#6eb6ec" /><circle cx="566.1" cy="308.6" r="4" fill="#6eb6ec" /><circle cx="573.0" cy="308.6" r="4" fill="#6eb6ec" /><circle cx="579.8" cy="308.6" r="4" fill="#6eb6ec" /><circle cx="586.7" cy="308.6" r="4" fill="#6eb6ec" /><circle cx="593.5" cy="308.6" r="4" fill="#6eb6ec" /><circle cx="600.4" cy="308.6" r="4" fill="#6eb6ec" /><circle cx="607.2" cy="308.6" r="4" fill="#6eb6ec" /><circle cx="614.1" cy="308.6" r="4" fill="#6eb6ec" /><circle cx="620.9" cy="308.6" r="4" fill="#6eb6ec" /><circle cx="627.7" cy="308.6" r="4" fill="#6eb6ec" /><circle cx="634.6" cy="308.6" r="4" fill="#6eb6ec" /><circle cx="641.4" cy="308.6" r="4" fill="#6eb6ec" /><circle cx="648.3" cy="307.8" r="4" fill="#6eb6ec" /><circle cx="655.1" cy="307.8" r="4" fill="#6eb6ec" /><circle cx="662.0" cy="307.6" r="4" fill="#6eb6ec" /><circle cx="668.8" cy="307.6" r="4" fill="#6eb6ec" /><circle cx="675.7" cy="307.6" r="4" fill="#6eb6ec" /><circle cx="682.5" cy="307.5" r="4" fill="#6eb6ec" /><circle cx="689.4" cy="307.5" r="4" fill="#6eb6ec" /><circle cx="696.2" cy="307.6" r="4" fill="#6eb6ec" /><circle cx="703.1" cy="308.5" r="4" fill="#6eb6ec" /><circle cx="709.9" cy="308.5" r="4" fill="#6eb6ec" /><circle cx="716.8" cy="308.4" r="4" fill="#6eb6ec" /><circle cx="723.6" cy="308.4" r="4" fill="#6eb6ec" /><circle cx="730.5" cy="307.5" r="4" fill="#6eb6ec" /><circle cx="737.3" cy="307.5" r="4" fill="#6eb6ec" /><circle cx="744.1" cy="307.2" r="4" fill="#6eb6ec" /><circle cx="751.0" cy="307.1" r="4" fill="#6eb6ec" /><circle cx="757.8" cy="307.1" r="4" fill="#6eb6ec" /><circle cx="764.7" cy="307.1" r="4" fill="#6eb6ec" /><circle cx="771.5" cy="307.0" r="4" fill="#6eb6ec" /><circle cx="778.4" cy="306.8" r="4" fill="#6eb6ec" /><circle cx="785.2" cy="306.6" r="4" fill="#6eb6ec" /><circle cx="792.1" cy="306.6" r="4" fill="#6eb6ec" /><circle cx="798.9" cy="306.5" r="4" fill="#6eb6ec" /><circle cx="805.8" cy="306.5" r="4" fill="#6eb6ec" /><circle cx="812.6" cy="306.5" r="4" fill="#6eb6ec" /><circle cx="819.5" cy="306.5" r="4" fill="#6eb6ec" /><circle cx="826.3" cy="306.5" r="4" fill="#6eb6ec" /><circle cx="833.2" cy="306.4" r="4" fill="#6eb6ec" /><circle cx="840.0" cy="306.5" r="4" fill="#6eb6ec" /><polyline points="80.0,305.8 86.8,305.8 93.7,305.8 100.5,305.8 107.4,305.8 114.2,305.8 121.1,305.8 127.9,305.8 134.8,305.8 141.6,305.8 148.5,304.9 155.3,304.9 162.2,304.9 169.0,304.9 175.9,304.9 182.7,304.9 189.5,304.9 196.4,304.9 203.2,304.9 210.1,304.9 216.9,304.9 223.8,304.9 230.6,304.9 237.5,304.9 244.3,304.9 251.2,304.9 258.0,304.9 264.9,304.9 271.7,304.9 278.6,304.9 285.4,304.9 292.3,304.9 299.1,304.9 305.9,304.9 312.8,304.9 319.6,304.9 326.5,304.9 333.3,303.6 340.2,303.6 347.0,303.6 353.9,303.6 360.7,303.6 367.6,303.6 374.4,303.6 381.3,303.6 388.1,303.6 395.0,303.6 401.8,303.6 408.6,303.6 415.5,303.6 422.3,303.6 429.2,302.9 436.0,302.9 442.9,298.0 449.7,298.0 456.6,298.0 463.4,298.0 470.3,298.0 477.1,298.0 484.0,298.0 490.8,298.0 497.7,298.0 504.5,298.0 511.4,298.0 518.2,298.0 525.0,298.0 531.9,298.0 538.7,297.8 545.6,297.8 552.4,297.8 559.3,297.8 566.1,297.8 573.0,297.8 579.8,297.8 586.7,297.8 593.5,297.8 600.4,297.8 607.2,297.8 614.1,297.8 620.9,297.8 627.7,297.8 634.6,297.8 641.4,297.8 648.3,297.8 655.1,297.8 662.0,297.8 668.8,297.6 675.7,297.8 682.5,297.8 689.4,297.8 696.2,297.9 703.1,297.9 709.9,297.9 716.8,296.1 723.6,296.1 730.5,296.1 737.3,296.1 744.1,296.1 751.0,296.1 757.8,296.1 764.7,296.1 771.5,296.1 778.4,296.1 785.2,295.0 792.1,295.0 798.9,295.0 805.8,295.0 812.6,295.0 819.5,295.0 826.3,295.0 833.2,295.0 840.0,294.9" fill="none" stroke="#5938e2" stroke-width="2.5" stroke-linecap="round" stroke-linejoin="round" /><circle cx="80.0" cy="305.8" r="4" fill="#5938e2" /><circle cx="86.8" cy="305.8" r="4" fill="#5938e2" /><circle cx="93.7" cy="305.8" r="4" fill="#5938e2" /><circle cx="100.5" cy="305.8" r="4" fill="#5938e2" /><circle cx="107.4" cy="305.8" r="4" fill="#5938e2" /><circle cx="114.2" cy="305.8" r="4" fill="#5938e2" /><circle cx="121.1" cy="305.8" r="4" fill="#5938e2" /><circle cx="127.9" cy="305.8" r="4" fill="#5938e2" /><circle cx="134.8" cy="305.8" r="4" fill="#5938e2" /><circle cx="141.6" cy="305.8" r="4" fill="#5938e2" /><circle cx="148.5" cy="304.9" r="4" fill="#5938e2" /><circle cx="155.3" cy="304.9" r="4" fill="#5938e2" /><circle cx="162.2" cy="304.9" r="4" fill="#5938e2" /><circle cx="169.0" cy="304.9" r="4" fill="#5938e2" /><circle cx="175.9" cy="304.9" r="4" fill="#5938e2" /><circle cx="182.7" cy="304.9" r="4" fill="#5938e2" /><circle cx="189.5" cy="304.9" r="4" fill="#5938e2" /><circle cx="196.4" cy="304.9" r="4" fill="#5938e2" /><circle cx="203.2" cy="304.9" r="4" fill="#5938e2" /><circle cx="210.1" cy="304.9" r="4" fill="#5938e2" /><circle cx="216.9" cy="304.9" r="4" fill="#5938e2" /><circle cx="223.8" cy="304.9" r="4" fill="#5938e2" /><circle cx="230.6" cy="304.9" r="4" fill="#5938e2" /><circle cx="237.5" cy="304.9" r="4" fill="#5938e2" /><circle cx="244.3" cy="304.9" r="4" fill="#5938e2" /><circle cx="251.2" cy="304.9" r="4" fill="#5938e2" /><circle cx="258.0" cy="304.9" r="4" fill="#5938e2" /><circle cx="264.9" cy="304.9" r="4" fill="#5938e2" /><circle cx="271.7" cy="304.9" r="4" fill="#5938e2" /><circle cx="278.6" cy="304.9" r="4" fill="#5938e2" /><circle cx="285.4" cy="304.9" r="4" fill="#5938e2" /><circle cx="292.3" cy="304.9" r="4" fill="#5938e2" /><circle cx="299.1" cy="304.9" r="4" fill="#5938e2" /><circle cx="305.9" cy="304.9" r="4" fill="#5938e2" /><circle cx="312.8" cy="304.9" r="4" fill="#5938e2" /><circle cx="319.6" cy="304.9" r="4" fill="#5938e2" /><circle cx="326.5" cy="304.9" r="4" fill="#5938e2" /><circle cx="333.3" cy="303.6" r="4" fill="#5938e2" /><circle cx="340.2" cy="303.6" r="4" fill="#5938e2" /><circle cx="347.0" cy="303.6" r="4" fill="#5938e2" /><circle cx="353.9" cy="303.6" r="4" fill="#5938e2" /><circle cx="360.7" cy="303.6" r="4" fill="#5938e2" /><circle cx="367.6" cy="303.6" r="4" fill="#5938e2" /><circle cx="374.4" cy="303.6" r="4" fill="#5938e2" /><circle cx="381.3" cy="303.6" r="4" fill="#5938e2" /><circle cx="388.1" cy="303.6" r="4" fill="#5938e2" /><circle cx="395.0" cy="303.6" r="4" fill="#5938e2" /><circle cx="401.8" cy="303.6" r="4" fill="#5938e2" /><circle cx="408.6" cy="303.6" r="4" fill="#5938e2" /><circle cx="415.5" cy="303.6" r="4" fill="#5938e2" /><circle cx="422.3" cy="303.6" r="4" fill="#5938e2" /><circle cx="429.2" cy="302.9" r="4" fill="#5938e2" /><circle cx="436.0" cy="302.9" r="4" fill="#5938e2" /><circle cx="442.9" cy="298.0" r="4" fill="#5938e2" /><circle cx="449.7" cy="298.0" r="4" fill="#5938e2" /><circle cx="456.6" cy="298.0" r="4" fill="#5938e2" /><circle cx="463.4" cy="298.0" r="4" fill="#5938e2" /><circle cx="470.3" cy="298.0" r="4" fill="#5938e2" /><circle cx="477.1" cy="298.0" r="4" fill="#5938e2" /><circle cx="484.0" cy="298.0" r="4" fill="#5938e2" /><circle cx="490.8" cy="298.0" r="4" fill="#5938e2" /><circle cx="497.7" cy="298.0" r="4" fill="#5938e2" /><circle cx="504.5" cy="298.0" r="4" fill="#5938e2" /><circle cx="511.4" cy="298.0" r="4" fill="#5938e2" /><circle cx="518.2" cy="298.0" r="4" fill="#5938e2" /><circle cx="525.0" cy="298.0" r="4" fill="#5938e2" /><circle cx="531.9" cy="298.0" r="4" fill="#5938e2" /><circle cx="538.7" cy="297.8" r="4" fill="#5938e2" /><circle cx="545.6" cy="297.8" r="4" fill="#5938e2" /><circle cx="552.4" cy="297.8" r="4" fill="#5938e2" /><circle cx="559.3" cy="297.8" r="4" fill="#5938e2" /><circle cx="566.1" cy="297.8" r="4" fill="#5938e2" /><circle cx="573.0" cy="297.8" r="4" fill="#5938e2" /><circle cx="579.8" cy="297.8" r="4" fill="#5938e2" /><circle cx="586.7" cy="297.8" r="4" fill="#5938e2" /><circle cx="593.5" cy="297.8" r="4" fill="#5938e2" /><circle cx="600.4" cy="297.8" r="4" fill="#5938e2" /><circle cx="607.2" cy="297.8" r="4" fill="#5938e2" /><circle cx="614.1" cy="297.8" r="4" fill="#5938e2" /><circle cx="620.9" cy="297.8" r="4" fill="#5938e2" /><circle cx="627.7" cy="297.8" r="4" fill="#5938e2" /><circle cx="634.6" cy="297.8" r="4" fill="#5938e2" /><circle cx="641.4" cy="297.8" r="4" fill="#5938e2" /><circle cx="648.3" cy="297.8" r="4" fill="#5938e2" /><circle cx="655.1" cy="297.8" r="4" fill="#5938e2" /><circle cx="662.0" cy="297.8" r="4" fill="#5938e2" /><circle cx="668.8" cy="297.6" r="4" fill="#5938e2" /><circle cx="675.7" cy="297.8" r="4" fill="#5938e2" /><circle cx="682.5" cy="297.8" r="4" fill="#5938e2" /><circle cx="689.4" cy="297.8" r="4" fill="#5938e2" /><circle cx="696.2" cy="297.9" r="4" fill="#5938e2" /><circle cx="703.1" cy="297.9" r="4" fill="#5938e2" /><circle cx="709.9" cy="297.9" r="4" fill="#5938e2" /><circle cx="716.8" cy="296.1" r="4" fill="#5938e2" /><circle cx="723.6" cy="296.1" r="4" fill="#5938e2" /><circle cx="730.5" cy="296.1" r="4" fill="#5938e2" /><circle cx="737.3" cy="296.1" r="4" fill="#5938e2" /><circle cx="744.1" cy="296.1" r="4" fill="#5938e2" /><circle cx="751.0" cy="296.1" r="4" fill="#5938e2" /><circle cx="757.8" cy="296.1" r="4" fill="#5938e2" /><circle cx="764.7" cy="296.1" r="4" fill="#5938e2" /><circle cx="771.5" cy="296.1" r="4" fill="#5938e2" /><circle cx="778.4" cy="296.1" r="4" fill="#5938e2" /><circle cx="785.2" cy="295.0" r="4" fill="#5938e2" /><circle cx="792.1" cy="295.0" r="4" fill="#5938e2" /><circle cx="798.9" cy="295.0" r="4" fill="#5938e2" /><circle cx="805.8" cy="295.0" r="4" fill="#5938e2" /><circle cx="812.6" cy="295.0" r="4" fill="#5938e2" /><circle cx="819.5" cy="295.0" r="4" fill="#5938e2" /><circle cx="826.3" cy="295.0" r="4" fill="#5938e2" /><circle cx="833.2" cy="295.0" r="4" fill="#5938e2" /><circle cx="840.0" cy="294.9" r="4" fill="#5938e2" /><polyline points="80.0,144.6 86.8,140.1 93.7,139.9 100.5,139.8 107.4,139.8 114.2,139.6 121.1,139.6 127.9,139.6 134.8,139.6 141.6,139.6 148.5,138.4 155.3,138.4 162.2,138.4 169.0,138.4 175.9,138.4 182.7,138.4 189.5,138.4 196.4,137.4 203.2,137.4 210.1,137.4 216.9,137.4 223.8,137.4 230.6,137.4 237.5,137.4 244.3,137.4 251.2,137.4 258.0,137.4 264.9,137.4 271.7,131.2 278.6,131.2 285.4,130.8 292.3,130.4 299.1,126.9 305.9,126.9 312.8,126.9 319.6,126.9 326.5,126.9 333.3,126.9 340.2,126.9 347.0,126.9 353.9,126.9 360.7,126.8 367.6,122.1 374.4,120.4 381.3,120.4 388.1,120.4 395.0,120.4 401.8,120.4 408.6,119.4 415.5,119.4 422.3,119.4 429.2,119.4 436.0,119.1 442.9,118.8 449.7,118.8 456.6,117.8 463.4,117.8 470.3,117.8 477.1,115.8 484.0,115.8 490.8,115.0 497.7,115.0 504.5,115.0 511.4,115.0 518.2,115.0 525.0,115.0 531.9,115.0 538.7,113.9 545.6,111.8 552.4,111.8 559.3,111.8 566.1,111.8 573.0,111.8 579.8,111.8 586.7,111.8 593.5,111.8 600.4,111.8 607.2,111.8 614.1,110.6 620.9,110.6 627.7,110.6 634.6,110.6 641.4,110.6 648.3,109.4 655.1,109.4 662.0,109.4 668.8,109.4 675.7,109.2 682.5,109.2 689.4,109.2 696.2,109.2 703.1,109.2 709.9,109.2 716.8,109.2 723.6,109.2 730.5,109.2 737.3,109.2 744.1,109.2 751.0,109.2 757.8,109.2 764.7,109.2 771.5,109.2 778.4,109.1 785.2,103.5 792.1,103.5 798.9,103.5 805.8,101.5 812.6,101.5 819.5,101.5 826.3,101.5 833.2,101.5 840.0,101.5" fill="none" stroke="#60e5e0" stroke-width="2.5" stroke-linecap="round" stroke-linejoin="round" /><circle cx="80.0" cy="144.6" r="4" fill="#60e5e0" /><circle cx="86.8" cy="140.1" r="4" fill="#60e5e0" /><circle cx="93.7" cy="139.9" r="4" fill="#60e5e0" /><circle cx="100.5" cy="139.8" r="4" fill="#60e5e0" /><circle cx="107.4" cy="139.8" r="4" fill="#60e5e0" /><circle cx="114.2" cy="139.6" r="4" fill="#60e5e0" /><circle cx="121.1" cy="139.6" r="4" fill="#60e5e0" /><circle cx="127.9" cy="139.6" r="4" fill="#60e5e0" /><circle cx="134.8" cy="139.6" r="4" fill="#60e5e0" /><circle cx="141.6" cy="139.6" r="4" fill="#60e5e0" /><circle cx="148.5" cy="138.4" r="4" fill="#60e5e0" /><circle cx="155.3" cy="138.4" r="4" fill="#60e5e0" /><circle cx="162.2" cy="138.4" r="4" fill="#60e5e0" /><circle cx="169.0" cy="138.4" r="4" fill="#60e5e0" /><circle cx="175.9" cy="138.4" r="4" fill="#60e5e0" /><circle cx="182.7" cy="138.4" r="4" fill="#60e5e0" /><circle cx="189.5" cy="138.4" r="4" fill="#60e5e0" /><circle cx="196.4" cy="137.4" r="4" fill="#60e5e0" /><circle cx="203.2" cy="137.4" r="4" fill="#60e5e0" /><circle cx="210.1" cy="137.4" r="4" fill="#60e5e0" /><circle cx="216.9" cy="137.4" r="4" fill="#60e5e0" /><circle cx="223.8" cy="137.4" r="4" fill="#60e5e0" /><circle cx="230.6" cy="137.4" r="4" fill="#60e5e0" /><circle cx="237.5" cy="137.4" r="4" fill="#60e5e0" /><circle cx="244.3" cy="137.4" r="4" fill="#60e5e0" /><circle cx="251.2" cy="137.4" r="4" fill="#60e5e0" /><circle cx="258.0" cy="137.4" r="4" fill="#60e5e0" /><circle cx="264.9" cy="137.4" r="4" fill="#60e5e0" /><circle cx="271.7" cy="131.2" r="4" fill="#60e5e0" /><circle cx="278.6" cy="131.2" r="4" fill="#60e5e0" /><circle cx="285.4" cy="130.8" r="4" fill="#60e5e0" /><circle cx="292.3" cy="130.4" r="4" fill="#60e5e0" /><circle cx="299.1" cy="126.9" r="4" fill="#60e5e0" /><circle cx="305.9" cy="126.9" r="4" fill="#60e5e0" /><circle cx="312.8" cy="126.9" r="4" fill="#60e5e0" /><circle cx="319.6" cy="126.9" r="4" fill="#60e5e0" /><circle cx="326.5" cy="126.9" r="4" fill="#60e5e0" /><circle cx="333.3" cy="126.9" r="4" fill="#60e5e0" /><circle cx="340.2" cy="126.9" r="4" fill="#60e5e0" /><circle cx="347.0" cy="126.9" r="4" fill="#60e5e0" /><circle cx="353.9" cy="126.9" r="4" fill="#60e5e0" /><circle cx="360.7" cy="126.8" r="4" fill="#60e5e0" /><circle cx="367.6" cy="122.1" r="4" fill="#60e5e0" /><circle cx="374.4" cy="120.4" r="4" fill="#60e5e0" /><circle cx="381.3" cy="120.4" r="4" fill="#60e5e0" /><circle cx="388.1" cy="120.4" r="4" fill="#60e5e0" /><circle cx="395.0" cy="120.4" r="4" fill="#60e5e0" /><circle cx="401.8" cy="120.4" r="4" fill="#60e5e0" /><circle cx="408.6" cy="119.4" r="4" fill="#60e5e0" /><circle cx="415.5" cy="119.4" r="4" fill="#60e5e0" /><circle cx="422.3" cy="119.4" r="4" fill="#60e5e0" /><circle cx="429.2" cy="119.4" r="4" fill="#60e5e0" /><circle cx="436.0" cy="119.1" r="4" fill="#60e5e0" /><circle cx="442.9" cy="118.8" r="4" fill="#60e5e0" /><circle cx="449.7" cy="118.8" r="4" fill="#60e5e0" /><circle cx="456.6" cy="117.8" r="4" fill="#60e5e0" /><circle cx="463.4" cy="117.8" r="4" fill="#60e5e0" /><circle cx="470.3" cy="117.8" r="4" fill="#60e5e0" /><circle cx="477.1" cy="115.8" r="4" fill="#60e5e0" /><circle cx="484.0" cy="115.8" r="4" fill="#60e5e0" /><circle cx="490.8" cy="115.0" r="4" fill="#60e5e0" /><circle cx="497.7" cy="115.0" r="4" fill="#60e5e0" /><circle cx="504.5" cy="115.0" r="4" fill="#60e5e0" /><circle cx="511.4" cy="115.0" r="4" fill="#60e5e0" /><circle cx="518.2" cy="115.0" r="4" fill="#60e5e0" /><circle cx="525.0" cy="115.0" r="4" fill="#60e5e0" /><circle cx="531.9" cy="115.0" r="4" fill="#60e5e0" /><circle cx="538.7" cy="113.9" r="4" fill="#60e5e0" /><circle cx="545.6" cy="111.8" r="4" fill="#60e5e0" /><circle cx="552.4" cy="111.8" r="4" fill="#60e5e0" /><circle cx="559.3" cy="111.8" r="4" fill="#60e5e0" /><circle cx="566.1" cy="111.8" r="4" fill="#60e5e0" /><circle cx="573.0" cy="111.8" r="4" fill="#60e5e0" /><circle cx="579.8" cy="111.8" r="4" fill="#60e5e0" /><circle cx="586.7" cy="111.8" r="4" fill="#60e5e0" /><circle cx="593.5" cy="111.8" r="4" fill="#60e5e0" /><circle cx="600.4" cy="111.8" r="4" fill="#60e5e0" /><circle cx="607.2" cy="111.8" r="4" fill="#60e5e0" /><circle cx="614.1" cy="110.6" r="4" fill="#60e5e0" /><circle cx="620.9" cy="110.6" r="4" fill="#60e5e0" /><circle cx="627.7" cy="110.6" r="4" fill="#60e5e0" /><circle cx="634.6" cy="110.6" r="4" fill="#60e5e0" /><circle cx="641.4" cy="110.6" r="4" fill="#60e5e0" /><circle cx="648.3" cy="109.4" r="4" fill="#60e5e0" /><circle cx="655.1" cy="109.4" r="4" fill="#60e5e0" /><circle cx="662.0" cy="109.4" r="4" fill="#60e5e0" /><circle cx="668.8" cy="109.4" r="4" fill="#60e5e0" /><circle cx="675.7" cy="109.2" r="4" fill="#60e5e0" /><circle cx="682.5" cy="109.2" r="4" fill="#60e5e0" /><circle cx="689.4" cy="109.2" r="4" fill="#60e5e0" /><circle cx="696.2" cy="109.2" r="4" fill="#60e5e0" /><circle cx="703.1" cy="109.2" r="4" fill="#60e5e0" /><circle cx="709.9" cy="109.2" r="4" fill="#60e5e0" /><circle cx="716.8" cy="109.2" r="4" fill="#60e5e0" /><circle cx="723.6" cy="109.2" r="4" fill="#60e5e0" /><circle cx="730.5" cy="109.2" r="4" fill="#60e5e0" /><circle cx="737.3" cy="109.2" r="4" fill="#60e5e0" /><circle cx="744.1" cy="109.2" r="4" fill="#60e5e0" /><circle cx="751.0" cy="109.2" r="4" fill="#60e5e0" /><circle cx="757.8" cy="109.2" r="4" fill="#60e5e0" /><circle cx="764.7" cy="109.2" r="4" fill="#60e5e0" /><circle cx="771.5" cy="109.2" r="4" fill="#60e5e0" /><circle cx="778.4" cy="109.1" r="4" fill="#60e5e0" /><circle cx="785.2" cy="103.5" r="4" fill="#60e5e0" /><circle cx="792.1" cy="103.5" r="4" fill="#60e5e0" /><circle cx="798.9" cy="103.5" r="4" fill="#60e5e0" /><circle cx="805.8" cy="101.5" r="4" fill="#60e5e0" /><circle cx="812.6" cy="101.5" r="4" fill="#60e5e0" /><circle cx="819.5" cy="101.5" r="4" fill="#60e5e0" /><circle cx="826.3" cy="101.5" r="4" fill="#60e5e0" /><circle cx="833.2" cy="101.5" r="4" fill="#60e5e0" /><circle cx="840.0" cy="101.5" r="4" fill="#60e5e0" /><polyline points="80.0,314.6 86.8,314.4 93.7,314.2 100.5,314.2 107.4,314.2 114.2,314.1 121.1,314.1 127.9,314.1 134.8,314.1 141.6,314.1 148.5,314.0 155.3,314.0 162.2,314.0 169.0,314.0 175.9,314.0 182.7,314.0 189.5,314.0 196.4,314.0 203.2,314.0 210.1,314.0 216.9,314.0 223.8,314.0 230.6,314.0 237.5,314.0 244.3,314.0 251.2,314.0 258.0,314.0 264.9,314.0 271.7,314.0 278.6,314.0 285.4,314.0 292.3,314.0 299.1,314.0 305.9,314.0 312.8,314.0 319.6,314.0 326.5,314.0 333.3,314.0 340.2,314.0 347.0,314.0 353.9,314.0 360.7,313.9 367.6,313.6 374.4,313.4 381.3,313.4 388.1,313.4 395.0,313.4 401.8,313.4 408.6,313.1 415.5,313.1 422.3,313.1 429.2,313.1 436.0,313.1 442.9,313.0 449.7,313.0 456.6,312.9 463.4,312.9 470.3,312.9 477.1,312.8 484.0,312.8 490.8,312.6 497.7,312.6 504.5,312.6 511.4,312.6 518.2,312.6 525.0,312.6 531.9,312.6 538.7,312.5 545.6,312.1 552.4,312.1 559.3,312.1 566.1,312.1 573.0,312.1 579.8,312.1 586.7,312.1 593.5,312.1 600.4,312.1 607.2,312.1 614.1,312.0 620.9,312.0 627.7,312.0 634.6,312.0 641.4,312.0 648.3,312.0 655.1,312.0 662.0,312.0 668.8,312.0 675.7,312.0 682.5,312.0 689.4,312.0 696.2,312.0 703.1,312.0 709.9,312.0 716.8,312.0 723.6,312.0 730.5,312.0 737.3,312.0 744.1,312.0 751.0,312.0 757.8,312.0 764.7,312.0 771.5,312.0 778.4,312.0 785.2,311.9 792.1,311.9 798.9,311.9 805.8,311.8 812.6,311.8 819.5,311.8 826.3,311.8 833.2,311.8 840.0,311.8" fill="none" stroke="#567de1" stroke-width="2.5" stroke-linecap="round" stroke-linejoin="round" /><circle cx="80.0" cy="314.6" r="4" fill="#567de1" /><circle cx="86.8" cy="314.4" r="4" fill="#567de1" /><circle cx="93.7" cy="314.2" r="4" fill="#567de1" /><circle cx="100.5" cy="314.2" r="4" fill="#567de1" /><circle cx="107.4" cy="314.2" r="4" fill="#567de1" /><circle cx="114.2" cy="314.1" r="4" fill="#567de1" /><circle cx="121.1" cy="314.1" r="4" fill="#567de1" /><circle cx="127.9" cy="314.1" r="4" fill="#567de1" /><circle cx="134.8" cy="314.1" r="4" fill="#567de1" /><circle cx="141.6" cy="314.1" r="4" fill="#567de1" /><circle cx="148.5" cy="314.0" r="4" fill="#567de1" /><circle cx="155.3" cy="314.0" r="4" fill="#567de1" /><circle cx="162.2" cy="314.0" r="4" fill="#567de1" /><circle cx="169.0" cy="314.0" r="4" fill="#567de1" /><circle cx="175.9" cy="314.0" r="4" fill="#567de1" /><circle cx="182.7" cy="314.0" r="4" fill="#567de1" /><circle cx="189.5" cy="314.0" r="4" fill="#567de1" /><circle cx="196.4" cy="314.0" r="4" fill="#567de1" /><circle cx="203.2" cy="314.0" r="4" fill="#567de1" /><circle cx="210.1" cy="314.0" r="4" fill="#567de1" /><circle cx="216.9" cy="314.0" r="4" fill="#567de1" /><circle cx="223.8" cy="314.0" r="4" fill="#567de1" /><circle cx="230.6" cy="314.0" r="4" fill="#567de1" /><circle cx="237.5" cy="314.0" r="4" fill="#567de1" /><circle cx="244.3" cy="314.0" r="4" fill="#567de1" /><circle cx="251.2" cy="314.0" r="4" fill="#567de1" /><circle cx="258.0" cy="314.0" r="4" fill="#567de1" /><circle cx="264.9" cy="314.0" r="4" fill="#567de1" /><circle cx="271.7" cy="314.0" r="4" fill="#567de1" /><circle cx="278.6" cy="314.0" r="4" fill="#567de1" /><circle cx="285.4" cy="314.0" r="4" fill="#567de1" /><circle cx="292.3" cy="314.0" r="4" fill="#567de1" /><circle cx="299.1" cy="314.0" r="4" fill="#567de1" /><circle cx="305.9" cy="314.0" r="4" fill="#567de1" /><circle cx="312.8" cy="314.0" r="4" fill="#567de1" /><circle cx="319.6" cy="314.0" r="4" fill="#567de1" /><circle cx="326.5" cy="314.0" r="4" fill="#567de1" /><circle cx="333.3" cy="314.0" r="4" fill="#567de1" /><circle cx="340.2" cy="314.0" r="4" fill="#567de1" /><circle cx="347.0" cy="314.0" r="4" fill="#567de1" /><circle cx="353.9" cy="314.0" r="4" fill="#567de1" /><circle cx="360.7" cy="313.9" r="4" fill="#567de1" /><circle cx="367.6" cy="313.6" r="4" fill="#567de1" /><circle cx="374.4" cy="313.4" r="4" fill="#567de1" /><circle cx="381.3" cy="313.4" r="4" fill="#567de1" /><circle cx="388.1" cy="313.4" r="4" fill="#567de1" /><circle cx="395.0" cy="313.4" r="4" fill="#567de1" /><circle cx="401.8" cy="313.4" r="4" fill="#567de1" /><circle cx="408.6" cy="313.1" r="4" fill="#567de1" /><circle cx="415.5" cy="313.1" r="4" fill="#567de1" /><circle cx="422.3" cy="313.1" r="4" fill="#567de1" /><circle cx="429.2" cy="313.1" r="4" fill="#567de1" /><circle cx="436.0" cy="313.1" r="4" fill="#567de1" /><circle cx="442.9" cy="313.0" r="4" fill="#567de1" /><circle cx="449.7" cy="313.0" r="4" fill="#567de1" /><circle cx="456.6" cy="312.9" r="4" fill="#567de1" /><circle cx="463.4" cy="312.9" r="4" fill="#567de1" /><circle cx="470.3" cy="312.9" r="4" fill="#567de1" /><circle cx="477.1" cy="312.8" r="4" fill="#567de1" /><circle cx="484.0" cy="312.8" r="4" fill="#567de1" /><circle cx="490.8" cy="312.6" r="4" fill="#567de1" /><circle cx="497.7" cy="312.6" r="4" fill="#567de1" /><circle cx="504.5" cy="312.6" r="4" fill="#567de1" /><circle cx="511.4" cy="312.6" r="4" fill="#567de1" /><circle cx="518.2" cy="312.6" r="4" fill="#567de1" /><circle cx="525.0" cy="312.6" r="4" fill="#567de1" /><circle cx="531.9" cy="312.6" r="4" fill="#567de1" /><circle cx="538.7" cy="312.5" r="4" fill="#567de1" /><circle cx="545.6" cy="312.1" r="4" fill="#567de1" /><circle cx="552.4" cy="312.1" r="4" fill="#567de1" /><circle cx="559.3" cy="312.1" r="4" fill="#567de1" /><circle cx="566.1" cy="312.1" r="4" fill="#567de1" /><circle cx="573.0" cy="312.1" r="4" fill="#567de1" /><circle cx="579.8" cy="312.1" r="4" fill="#567de1" /><circle cx="586.7" cy="312.1" r="4" fill="#567de1" /><circle cx="593.5" cy="312.1" r="4" fill="#567de1" /><circle cx="600.4" cy="312.1" r="4" fill="#567de1" /><circle cx="607.2" cy="312.1" r="4" fill="#567de1" /><circle cx="614.1" cy="312.0" r="4" fill="#567de1" /><circle cx="620.9" cy="312.0" r="4" fill="#567de1" /><circle cx="627.7" cy="312.0" r="4" fill="#567de1" /><circle cx="634.6" cy="312.0" r="4" fill="#567de1" /><circle cx="641.4" cy="312.0" r="4" fill="#567de1" /><circle cx="648.3" cy="312.0" r="4" fill="#567de1" /><circle cx="655.1" cy="312.0" r="4" fill="#567de1" /><circle cx="662.0" cy="312.0" r="4" fill="#567de1" /><circle cx="668.8" cy="312.0" r="4" fill="#567de1" /><circle cx="675.7" cy="312.0" r="4" fill="#567de1" /><circle cx="682.5" cy="312.0" r="4" fill="#567de1" /><circle cx="689.4" cy="312.0" r="4" fill="#567de1" /><circle cx="696.2" cy="312.0" r="4" fill="#567de1" /><circle cx="703.1" cy="312.0" r="4" fill="#567de1" /><circle cx="709.9" cy="312.0" r="4" fill="#567de1" /><circle cx="716.8" cy="312.0" r="4" fill="#567de1" /><circle cx="723.6" cy="312.0" r="4" fill="#567de1" /><circle cx="730.5" cy="312.0" r="4" fill="#567de1" /><circle cx="737.3" cy="312.0" r="4" fill="#567de1" /><circle cx="744.1" cy="312.0" r="4" fill="#567de1" /><circle cx="751.0" cy="312.0" r="4" fill="#567de1" /><circle cx="757.8" cy="312.0" r="4" fill="#567de1" /><circle cx="764.7" cy="312.0" r="4" fill="#567de1" /><circle cx="771.5" cy="312.0" r="4" fill="#567de1" /><circle cx="778.4" cy="312.0" r="4" fill="#567de1" /><circle cx="785.2" cy="311.9" r="4" fill="#567de1" /><circle cx="792.1" cy="311.9" r="4" fill="#567de1" /><circle cx="798.9" cy="311.9" r="4" fill="#567de1" /><circle cx="805.8" cy="311.8" r="4" fill="#567de1" /><circle cx="812.6" cy="311.8" r="4" fill="#567de1" /><circle cx="819.5" cy="311.8" r="4" fill="#567de1" /><circle cx="826.3" cy="311.8" r="4" fill="#567de1" /><circle cx="833.2" cy="311.8" r="4" fill="#567de1" /><circle cx="840.0" cy="311.8" r="4" fill="#567de1" /><polyline points="80.0,303.9 86.8,304.2 93.7,304.4 100.5,304.4 107.4,304.4 114.2,304.4 121.1,304.4 127.9,304.4 134.8,304.4 141.6,304.4 148.5,304.4 155.3,304.4 162.2,304.4 169.0,304.4 175.9,304.4 182.7,304.4 189.5,304.4 196.4,304.4 203.2,304.4 210.1,304.4 216.9,304.4 223.8,304.4 230.6,304.4 237.5,304.4 244.3,304.4 251.2,304.4 258.0,304.4 264.9,304.4 271.7,299.1 278.6,299.1 285.4,299.1 292.3,298.9 299.1,295.6 305.9,295.6 312.8,295.6 319.6,295.6 326.5,295.6 333.3,295.6 340.2,295.6 347.0,295.6 353.9,295.6 360.7,295.8 367.6,295.9 374.4,295.9 381.3,295.9 388.1,295.9 395.0,295.9 401.8,295.9 408.6,295.9 415.5,295.9 422.3,295.9 429.2,295.9 436.0,295.9 442.9,295.9 449.7,295.9 456.6,295.9 463.4,295.9 470.3,295.9 477.1,295.8 484.0,295.8 490.8,295.9 497.7,295.9 504.5,295.9 511.4,295.9 518.2,295.9 525.0,295.9 531.9,295.9 538.7,296.0 545.6,296.4 552.4,296.4 559.3,296.4 566.1,296.4 573.0,296.4 579.8,296.4 586.7,296.4 593.5,296.4 600.4,296.4 607.2,296.4 614.1,296.5 620.9,296.5 627.7,296.5 634.6,296.5 641.4,296.5 648.3,296.5 655.1,296.5 662.0,296.5 668.8,296.5 675.7,296.5 682.5,296.5 689.4,296.5 696.2,296.5 703.1,296.5 709.9,296.5 716.8,296.5 723.6,296.5 730.5,296.5 737.3,296.5 744.1,296.5 751.0,296.5 757.8,296.5 764.7,296.5 771.5,296.5 778.4,296.5 785.2,295.0 792.1,295.0 798.9,295.0 805.8,295.1 812.6,295.1 819.5,295.1 826.3,295.1 833.2,295.1 840.0,295.1" fill="none" stroke="#9754dd" stroke-width="2.5" stroke-linecap="round" stroke-linejoin="round" /><circle cx="80.0" cy="303.9" r="4" fill="#9754dd" /><circle cx="86.8" cy="304.2" r="4" fill="#9754dd" /><circle cx="93.7" cy="304.4" r="4" fill="#9754dd" /><circle cx="100.5" cy="304.4" r="4" fill="#9754dd" /><circle cx="107.4" cy="304.4" r="4" fill="#9754dd" /><circle cx="114.2" cy="304.4" r="4" fill="#9754dd" /><circle cx="121.1" cy="304.4" r="4" fill="#9754dd" /><circle cx="127.9" cy="304.4" r="4" fill="#9754dd" /><circle cx="134.8" cy="304.4" r="4" fill="#9754dd" /><circle cx="141.6" cy="304.4" r="4" fill="#9754dd" /><circle cx="148.5" cy="304.4" r="4" fill="#9754dd" /><circle cx="155.3" cy="304.4" r="4" fill="#9754dd" /><circle cx="162.2" cy="304.4" r="4" fill="#9754dd" /><circle cx="169.0" cy="304.4" r="4" fill="#9754dd" /><circle cx="175.9" cy="304.4" r="4" fill="#9754dd" /><circle cx="182.7" cy="304.4" r="4" fill="#9754dd" /><circle cx="189.5" cy="304.4" r="4" fill="#9754dd" /><circle cx="196.4" cy="304.4" r="4" fill="#9754dd" /><circle cx="203.2" cy="304.4" r="4" fill="#9754dd" /><circle cx="210.1" cy="304.4" r="4" fill="#9754dd" /><circle cx="216.9" cy="304.4" r="4" fill="#9754dd" /><circle cx="223.8" cy="304.4" r="4" fill="#9754dd" /><circle cx="230.6" cy="304.4" r="4" fill="#9754dd" /><circle cx="237.5" cy="304.4" r="4" fill="#9754dd" /><circle cx="244.3" cy="304.4" r="4" fill="#9754dd" /><circle cx="251.2" cy="304.4" r="4" fill="#9754dd" /><circle cx="258.0" cy="304.4" r="4" fill="#9754dd" /><circle cx="264.9" cy="304.4" r="4" fill="#9754dd" /><circle cx="271.7" cy="299.1" r="4" fill="#9754dd" /><circle cx="278.6" cy="299.1" r="4" fill="#9754dd" /><circle cx="285.4" cy="299.1" r="4" fill="#9754dd" /><circle cx="292.3" cy="298.9" r="4" fill="#9754dd" /><circle cx="299.1" cy="295.6" r="4" fill="#9754dd" /><circle cx="305.9" cy="295.6" r="4" fill="#9754dd" /><circle cx="312.8" cy="295.6" r="4" fill="#9754dd" /><circle cx="319.6" cy="295.6" r="4" fill="#9754dd" /><circle cx="326.5" cy="295.6" r="4" fill="#9754dd" /><circle cx="333.3" cy="295.6" r="4" fill="#9754dd" /><circle cx="340.2" cy="295.6" r="4" fill="#9754dd" /><circle cx="347.0" cy="295.6" r="4" fill="#9754dd" /><circle cx="353.9" cy="295.6" r="4" fill="#9754dd" /><circle cx="360.7" cy="295.8" r="4" fill="#9754dd" /><circle cx="367.6" cy="295.9" r="4" fill="#9754dd" /><circle cx="374.4" cy="295.9" r="4" fill="#9754dd" /><circle cx="381.3" cy="295.9" r="4" fill="#9754dd" /><circle cx="388.1" cy="295.9" r="4" fill="#9754dd" /><circle cx="395.0" cy="295.9" r="4" fill="#9754dd" /><circle cx="401.8" cy="295.9" r="4" fill="#9754dd" /><circle cx="408.6" cy="295.9" r="4" fill="#9754dd" /><circle cx="415.5" cy="295.9" r="4" fill="#9754dd" /><circle cx="422.3" cy="295.9" r="4" fill="#9754dd" /><circle cx="429.2" cy="295.9" r="4" fill="#9754dd" /><circle cx="436.0" cy="295.9" r="4" fill="#9754dd" /><circle cx="442.9" cy="295.9" r="4" fill="#9754dd" /><circle cx="449.7" cy="295.9" r="4" fill="#9754dd" /><circle cx="456.6" cy="295.9" r="4" fill="#9754dd" /><circle cx="463.4" cy="295.9" r="4" fill="#9754dd" /><circle cx="470.3" cy="295.9" r="4" fill="#9754dd" /><circle cx="477.1" cy="295.8" r="4" fill="#9754dd" /><circle cx="484.0" cy="295.8" r="4" fill="#9754dd" /><circle cx="490.8" cy="295.9" r="4" fill="#9754dd" /><circle cx="497.7" cy="295.9" r="4" fill="#9754dd" /><circle cx="504.5" cy="295.9" r="4" fill="#9754dd" /><circle cx="511.4" cy="295.9" r="4" fill="#9754dd" /><circle cx="518.2" cy="295.9" r="4" fill="#9754dd" /><circle cx="525.0" cy="295.9" r="4" fill="#9754dd" /><circle cx="531.9" cy="295.9" r="4" fill="#9754dd" /><circle cx="538.7" cy="296.0" r="4" fill="#9754dd" /><circle cx="545.6" cy="296.4" r="4" fill="#9754dd" /><circle cx="552.4" cy="296.4" r="4" fill="#9754dd" /><circle cx="559.3" cy="296.4" r="4" fill="#9754dd" /><circle cx="566.1" cy="296.4" r="4" fill="#9754dd" /><circle cx="573.0" cy="296.4" r="4" fill="#9754dd" /><circle cx="579.8" cy="296.4" r="4" fill="#9754dd" /><circle cx="586.7" cy="296.4" r="4" fill="#9754dd" /><circle cx="593.5" cy="296.4" r="4" fill="#9754dd" /><circle cx="600.4" cy="296.4" r="4" fill="#9754dd" /><circle cx="607.2" cy="296.4" r="4" fill="#9754dd" /><circle cx="614.1" cy="296.5" r="4" fill="#9754dd" /><circle cx="620.9" cy="296.5" r="4" fill="#9754dd" /><circle cx="627.7" cy="296.5" r="4" fill="#9754dd" /><circle cx="634.6" cy="296.5" r="4" fill="#9754dd" /><circle cx="641.4" cy="296.5" r="4" fill="#9754dd" /><circle cx="648.3" cy="296.5" r="4" fill="#9754dd" /><circle cx="655.1" cy="296.5" r="4" fill="#9754dd" /><circle cx="662.0" cy="296.5" r="4" fill="#9754dd" /><circle cx="668.8" cy="296.5" r="4" fill="#9754dd" /><circle cx="675.7" cy="296.5" r="4" fill="#9754dd" /><circle cx="682.5" cy="296.5" r="4" fill="#9754dd" /><circle cx="689.4" cy="296.5" r="4" fill="#9754dd" /><circle cx="696.2" cy="296.5" r="4" fill="#9754dd" /><circle cx="703.1" cy="296.5" r="4" fill="#9754dd" /><circle cx="709.9" cy="296.5" r="4" fill="#9754dd" /><circle cx="716.8" cy="296.5" r="4" fill="#9754dd" /><circle cx="723.6" cy="296.5" r="4" fill="#9754dd" /><circle cx="730.5" cy="296.5" r="4" fill="#9754dd" /><circle cx="737.3" cy="296.5" r="4" fill="#9754dd" /><circle cx="744.1" cy="296.5" r="4" fill="#9754dd" /><circle cx="751.0" cy="296.5" r="4" fill="#9754dd" /><circle cx="757.8" cy="296.5" r="4" fill="#9754dd" /><circle cx="764.7" cy="296.5" r="4" fill="#9754dd" /><circle cx="771.5" cy="296.5" r="4" fill="#9754dd" /><circle cx="778.4" cy="296.5" r="4" fill="#9754dd" /><circle cx="785.2" cy="295.0" r="4" fill="#9754dd" /><circle cx="792.1" cy="295.0" r="4" fill="#9754dd" /><circle cx="798.9" cy="295.0" r="4" fill="#9754dd" /><circle cx="805.8" cy="295.1" r="4" fill="#9754dd" /><circle cx="812.6" cy="295.1" r="4" fill="#9754dd" /><circle cx="819.5" cy="295.1" r="4" fill="#9754dd" /><circle cx="826.3" cy="295.1" r="4" fill="#9754dd" /><circle cx="833.2" cy="295.1" r="4" fill="#9754dd" /><circle cx="840.0" cy="295.1" r="4" fill="#9754dd" />
  <rect x="80" y="339" width="10" height="10" rx="2" ry="2" fill="#19e5a1" /><text x="96" y="348" class="legend-label">Stars</text><rect x="250" y="339" width="10" height="10" rx="2" ry="2" fill="#6eb6ec" /><text x="266" y="348" class="legend-label">Followers</text><rect x="420" y="339" width="10" height="10" rx="2" ry="2" fill="#5938e2" /><text x="436" y="348" class="legend-label">Following</text><rect x="590" y="339" width="10" height="10" rx="2" ry="2" fill="#60e5e0" /><text x="606" y="348" class="legend-label">Contributions</text><rect x="80" y="357" width="10" height="10" rx="2" ry="2" fill="#567de1" /><text x="96" y="366" class="legend-label">Pull Requests</text><rect x="250" y="357" width="10" height="10" rx="2" ry="2" fill="#9754dd" /><text x="266" y="366" class="legend-label">Issues</text>
</svg>
