<svg width="900" height="402" viewBox="0 0 900 402" xmlns="http://www.w3.org/2000/svg">
  <defs>
    <linearGradient id="history-gradient" x1="0%" y1="0%" x2="100%" y2="100%">
      <stop offset="0%" style="stop-color:#58a6ff;stop-opacity:1" />
      <stop offset="100%" style="stop-color:#a371f7;stop-opacity:1" />
    </linearGradient>
    <clipPath id="history-rounded">
      <rect x="0" y="0" width="900" height="402" rx="8" ry="8" />
    </clipPath>
  </defs>
  <style>
    .title {
      font-family: 'Segoe UI', Ubuntu, 'Helvetica Neue', sans-serif;
      font-size: 22px;
      font-weight: 700;
      fill: #58a6ff;
    }
    .subtitle {
      font-family: 'Segoe UI', Ubuntu, 'Helvetica Neue', sans-serif;
      font-size: 12px;
      font-weight: 500;
      fill: #8b949e;
    }
    .axis-label {
      font-family: 'Segoe UI', Ubuntu, 'Helvetica Neue', sans-serif;
      font-size: 10px;
      fill: #8b949e;
    }
    .grid-line {
      stroke: #30363d;
      stroke-width: 1;
      opacity: 0.3;
    }
    .legend-label {
      font-family: 'Segoe UI', Ubuntu, 'Helvetica Neue', sans-serif;
      font-size: 11px;
      fill: #c9d1d9;
      dominant-baseline: middle;
    }
  </style>
  <rect clip-path="url(#history-rounded)" width="100%" height="100%" fill="#0d1117" stroke="#30363d" stroke-width="1" />
  <rect x="0" y="396" width="900" height="6" fill="url(#history-gradient)" clip-path="url(#history-rounded)" />
  <text x="24" y="34" class="title">Leonardo Klein Stats History</text>
  <text x="24" y="54" class="subtitle">Period: 2026-02-20 to 2026-02-25</text>
  <text x="72" y="320.0" text-anchor="end" dominant-baseline="central" class="axis-label">0</text><text x="72" y="270.0" text-anchor="end" dominant-baseline="central" class="axis-label">300</text><text x="72" y="220.0" text-anchor="end" dominant-baseline="central" class="axis-label">600</text><text x="72" y="170.0" text-anchor="end" dominant-baseline="central" class="axis-label">900</text><text x="72" y="120.0" text-anchor="end" dominant-baseline="central" class="axis-label">1.2k</text><text x="72" y="70.0" text-anchor="end" dominant-baseline="central" class="axis-label">1.5k</text>
  <text x="80.0" y="336" text-anchor="middle" class="axis-label">02-20</text><text x="140.8" y="336" text-anchor="middle" class="axis-label">02-20</text><text x="201.6" y="336" text-anchor="middle" class="axis-label">02-21</text><text x="262.4" y="336" text-anchor="middle" class="axis-label">02-21</text><text x="323.2" y="336" text-anchor="middle" class="axis-label">02-22</text><text x="384.0" y="336" text-anchor="middle" class="axis-label">02-22</text><text x="444.8" y="336" text-anchor="middle" class="axis-label">02-22</text><text x="505.6" y="336" text-anchor="middle" class="axis-label">02-23</text><text x="566.4" y="336" text-anchor="middle" class="axis-label">02-23</text><text x="627.2" y="336" text-anchor="middle" class="axis-label">02-24</text><text x="688.0" y="336" text-anchor="middle" class="axis-label">02-24</text><text x="748.8" y="336" text-anchor="middle" class="axis-label">02-24</text><text x="809.6" y="336" text-anchor="middle" class="axis-label">02-25</text><text x="840.0" y="336" text-anchor="middle" class="axis-label">02-25</text>
  <line x1="80" y1="320.0" x2="840" y2="320.0" class="grid-line" /><line x1="80" y1="270.0" x2="840" y2="270.0" class="grid-line" /><line x1="80" y1="220.0" x2="840" y2="220.0" class="grid-line" /><line x1="80" y1="170.0" x2="840" y2="170.0" class="grid-line" /><line x1="80" y1="120.0" x2="840" y2="120.0" class="grid-line" /><line x1="80" y1="70.0" x2="840" y2="70.0" class="grid-line" />
  <polyline points="80.0,316.0 110.4,316.0 140.8,316.0 171.2,316.0 201.6,316.0 232.0,316.0 262.4,316.0 292.8,316.0 323.2,316.0 353.6,316.0 384.0,316.0 414.4,316.0 444.8,316.0 475.2,316.0 505.6,316.0 536.0,316.0 566.4,316.0 596.8,316.0 627.2,316.0 657.6,316.0 688.0,316.0 718.4,316.0 748.8,316.0 779.2,316.0 809.6,316.0 840.0,316.0" fill="none" stroke="#19e5a1" stroke-width="2.5" stroke-linecap="round" stroke-linejoin="round" /><circle cx="80.0" cy="316.0" r="4" fill="#19e5a1" /><circle cx="110.4" cy="316.0" r="4" fill="#19e5a1" /><circle cx="140.8" cy="316.0" r="4" fill="#19e5a1" /><circle cx="171.2" cy="316.0" r="4" fill="#19e5a1" /><circle cx="201.6" cy="316.0" r="4" fill="#19e5a1" /><circle cx="232.0" cy="316.0" r="4" fill="#19e5a1" /><circle cx="262.4" cy="316.0" r="4" fill="#19e5a1" /><circle cx="292.8" cy="316.0" r="4" fill="#19e5a1" /><circle cx="323.2" cy="316.0" r="4" fill="#19e5a1" /><circle cx="353.6" cy="316.0" r="4" fill="#19e5a1" /><circle cx="384.0" cy="316.0" r="4" fill="#19e5a1" /><circle cx="414.4" cy="316.0" r="4" fill="#19e5a1" /><circle cx="444.8" cy="316.0" r="4" fill="#19e5a1" /><circle cx="475.2" cy="316.0" r="4" fill="#19e5a1" /><circle cx="505.6" cy="316.0" r="4" fill="#19e5a1" /><circle cx="536.0" cy="316.0" r="4" fill="#19e5a1" /><circle cx="566.4" cy="316.0" r="4" fill="#19e5a1" /><circle cx="596.8" cy="316.0" r="4" fill="#19e5a1" /><circle cx="627.2" cy="316.0" r="4" fill="#19e5a1" /><circle cx="657.6" cy="316.0" r="4" fill="#19e5a1" /><circle cx="688.0" cy="316.0" r="4" fill="#19e5a1" /><circle cx="718.4" cy="316.0" r="4" fill="#19e5a1" /><circle cx="748.8" cy="316.0" r="4" fill="#19e5a1" /><circle cx="779.2" cy="316.0" r="4" fill="#19e5a1" /><circle cx="809.6" cy="316.0" r="4" fill="#19e5a1" /><circle cx="840.0" cy="316.0" r="4" fill="#19e5a1" /><polyline points="80.0,311.0 110.4,309.7 140.8,309.5 171.2,309.8 201.6,309.8 232.0,309.8 262.4,309.5 292.8,309.3 323.2,309.2 353.6,309.2 384.0,309.0 414.4,309.0 444.8,308.7 475.2,308.7 505.6,308.7 536.0,308.3 566.4,308.3 596.8,308.2 627.2,308.2 657.6,308.2 688.0,307.8 718.4,308.0 748.8,307.7 779.2,307.7 809.6,307.7 840.0,307.7" fill="none" stroke="#6eb6ec" stroke-width="2.5" stroke-linecap="round" stroke-linejoin="round" /><circle cx="80.0" cy="311.0" r="4" fill="#6eb6ec" /><circle cx="110.4" cy="309.7" r="4" fill="#6eb6ec" /><circle cx="140.8" cy="309.5" r="4" fill="#6eb6ec" /><circle cx="171.2" cy="309.8" r="4" fill="#6eb6ec" /><circle cx="201.6" cy="309.8" r="4" fill="#6eb6ec" /><circle cx="232.0" cy="309.8" r="4" fill="#6eb6ec" /><circle cx="262.4" cy="309.5" r="4" fill="#6eb6ec" /><circle cx="292.8" cy="309.3" r="4" fill="#6eb6ec" /><circle cx="323.2" cy="309.2" r="4" fill="#6eb6ec" /><circle cx="353.6" cy="309.2" r="4" fill="#6eb6ec" /><circle cx="384.0" cy="309.0" r="4" fill="#6eb6ec" /><circle cx="414.4" cy="309.0" r="4" fill="#6eb6ec" /><circle cx="444.8" cy="308.7" r="4" fill="#6eb6ec" /><circle cx="475.2" cy="308.7" r="4" fill="#6eb6ec" /><circle cx="505.6" cy="308.7" r="4" fill="#6eb6ec" /><circle cx="536.0" cy="308.3" r="4" fill="#6eb6ec" /><circle cx="566.4" cy="308.3" r="4" fill="#6eb6ec" /><circle cx="596.8" cy="308.2" r="4" fill="#6eb6ec" /><circle cx="627.2" cy="308.2" r="4" fill="#6eb6ec" /><circle cx="657.6" cy="308.2" r="4" fill="#6eb6ec" /><circle cx="688.0" cy="307.8" r="4" fill="#6eb6ec" /><circle cx="718.4" cy="308.0" r="4" fill="#6eb6ec" /><circle cx="748.8" cy="307.7" r="4" fill="#6eb6ec" /><circle cx="779.2" cy="307.7" r="4" fill="#6eb6ec" /><circle cx="809.6" cy="307.7" r="4" fill="#6eb6ec" /><circle cx="840.0" cy="307.7" r="4" fill="#6eb6ec" /><polyline points="80.0,301.0 110.4,301.0 140.8,301.0 171.2,301.0 201.6,301.0 232.0,301.0 262.4,301.0 292.8,301.0 323.2,301.0 353.6,301.0 384.0,299.8 414.4,299.8 444.8,299.8 475.2,299.8 505.6,299.8 536.0,299.8 566.4,299.8 596.8,299.8 627.2,299.8 657.6,299.8 688.0,299.8 718.4,299.8 748.8,299.8 779.2,299.8 809.6,299.8 840.0,299.8" fill="none" stroke="#5938e2" stroke-width="2.5" stroke-linecap="round" stroke-linejoin="round" /><circle cx="80.0" cy="301.0" r="4" fill="#5938e2" /><circle cx="110.4" cy="301.0" r="4" fill="#5938e2" /><circle cx="140.8" cy="301.0" r="4" fill="#5938e2" /><circle cx="171.2" cy="301.0" r="4" fill="#5938e2" /><circle cx="201.6" cy="301.0" r="4" fill="#5938e2" /><circle cx="232.0" cy="301.0" r="4" fill="#5938e2" /><circle cx="262.4" cy="301.0" r="4" fill="#5938e2" /><circle cx="292.8" cy="301.0" r="4" fill="#5938e2" /><circle cx="323.2" cy="301.0" r="4" fill="#5938e2" /><circle cx="353.6" cy="301.0" r="4" fill="#5938e2" /><circle cx="384.0" cy="299.8" r="4" fill="#5938e2" /><circle cx="414.4" cy="299.8" r="4" fill="#5938e2" /><circle cx="444.8" cy="299.8" r="4" fill="#5938e2" /><circle cx="475.2" cy="299.8" r="4" fill="#5938e2" /><circle cx="505.6" cy="299.8" r="4" fill="#5938e2" /><circle cx="536.0" cy="299.8" r="4" fill="#5938e2" /><circle cx="566.4" cy="299.8" r="4" fill="#5938e2" /><circle cx="596.8" cy="299.8" r="4" fill="#5938e2" /><circle cx="627.2" cy="299.8" r="4" fill="#5938e2" /><circle cx="657.6" cy="299.8" r="4" fill="#5938e2" /><circle cx="688.0" cy="299.8" r="4" fill="#5938e2" /><circle cx="718.4" cy="299.8" r="4" fill="#5938e2" /><circle cx="748.8" cy="299.8" r="4" fill="#5938e2" /><circle cx="779.2" cy="299.8" r="4" fill="#5938e2" /><circle cx="809.6" cy="299.8" r="4" fill="#5938e2" /><circle cx="840.0" cy="299.8" r="4" fill="#5938e2" /><polyline points="80.0,86.2 110.4,80.2 140.8,79.8 171.2,79.7 201.6,79.7 232.0,79.5 262.4,79.5 292.8,79.5 323.2,79.5 353.6,79.5 384.0,77.8 414.4,77.8 444.8,77.8 475.2,77.8 505.6,77.8 536.0,77.8 566.4,77.8 596.8,76.5 627.2,76.5 657.6,76.5 688.0,76.5 718.4,76.5 748.8,76.5 779.2,76.5 809.6,76.5 840.0,76.5" fill="none" stroke="#60e5e0" stroke-width="2.5" stroke-linecap="round" stroke-linejoin="round" /><circle cx="80.0" cy="86.2" r="4" fill="#60e5e0" /><circle cx="110.4" cy="80.2" r="4" fill="#60e5e0" /><circle cx="140.8" cy="79.8" r="4" fill="#60e5e0" /><circle cx="171.2" cy="79.7" r="4" fill="#60e5e0" /><circle cx="201.6" cy="79.7" r="4" fill="#60e5e0" /><circle cx="232.0" cy="79.5" r="4" fill="#60e5e0" /><circle cx="262.4" cy="79.5" r="4" fill="#60e5e0" /><circle cx="292.8" cy="79.5" r="4" fill="#60e5e0" /><circle cx="323.2" cy="79.5" r="4" fill="#60e5e0" /><circle cx="353.6" cy="79.5" r="4" fill="#60e5e0" /><circle cx="384.0" cy="77.8" r="4" fill="#60e5e0" /><circle cx="414.4" cy="77.8" r="4" fill="#60e5e0" /><circle cx="444.8" cy="77.8" r="4" fill="#60e5e0" /><circle cx="475.2" cy="77.8" r="4" fill="#60e5e0" /><circle cx="505.6" cy="77.8" r="4" fill="#60e5e0" /><circle cx="536.0" cy="77.8" r="4" fill="#60e5e0" /><circle cx="566.4" cy="77.8" r="4" fill="#60e5e0" /><circle cx="596.8" cy="76.5" r="4" fill="#60e5e0" /><circle cx="627.2" cy="76.5" r="4" fill="#60e5e0" /><circle cx="657.6" cy="76.5" r="4" fill="#60e5e0" /><circle cx="688.0" cy="76.5" r="4" fill="#60e5e0" /><circle cx="718.4" cy="76.5" r="4" fill="#60e5e0" /><circle cx="748.8" cy="76.5" r="4" fill="#60e5e0" /><circle cx="779.2" cy="76.5" r="4" fill="#60e5e0" /><circle cx="809.6" cy="76.5" r="4" fill="#60e5e0" /><circle cx="840.0" cy="76.5" r="4" fill="#60e5e0" /><polyline points="80.0,312.8 110.4,312.5 140.8,312.3 171.2,312.3 201.6,312.3 232.0,312.2 262.4,312.2 292.8,312.2 323.2,312.2 353.6,312.2 384.0,312.0 414.4,312.0 444.8,312.0 475.2,312.0 505.6,312.0 536.0,312.0 566.4,312.0 596.8,312.0 627.2,312.0 657.6,312.0 688.0,312.0 718.4,312.0 748.8,312.0 779.2,312.0 809.6,312.0 840.0,312.0" fill="none" stroke="#567de1" stroke-width="2.5" stroke-linecap="round" stroke-linejoin="round" /><circle cx="80.0" cy="312.8" r="4" fill="#567de1" /><circle cx="110.4" cy="312.5" r="4" fill="#567de1" /><circle cx="140.8" cy="312.3" r="4" fill="#567de1" /><circle cx="171.2" cy="312.3" r="4" fill="#567de1" /><circle cx="201.6" cy="312.3" r="4" fill="#567de1" /><circle cx="232.0" cy="312.2" r="4" fill="#567de1" /><circle cx="262.4" cy="312.2" r="4" fill="#567de1" /><circle cx="292.8" cy="312.2" r="4" fill="#567de1" /><circle cx="323.2" cy="312.2" r="4" fill="#567de1" /><circle cx="353.6" cy="312.2" r="4" fill="#567de1" /><circle cx="384.0" cy="312.0" r="4" fill="#567de1" /><circle cx="414.4" cy="312.0" r="4" fill="#567de1" /><circle cx="444.8" cy="312.0" r="4" fill="#567de1" /><circle cx="475.2" cy="312.0" r="4" fill="#567de1" /><circle cx="505.6" cy="312.0" r="4" fill="#567de1" /><circle cx="536.0" cy="312.0" r="4" fill="#567de1" /><circle cx="566.4" cy="312.0" r="4" fill="#567de1" /><circle cx="596.8" cy="312.0" r="4" fill="#567de1" /><circle cx="627.2" cy="312.0" r="4" fill="#567de1" /><circle cx="657.6" cy="312.0" r="4" fill="#567de1" /><circle cx="688.0" cy="312.0" r="4" fill="#567de1" /><circle cx="718.4" cy="312.0" r="4" fill="#567de1" /><circle cx="748.8" cy="312.0" r="4" fill="#567de1" /><circle cx="779.2" cy="312.0" r="4" fill="#567de1" /><circle cx="809.6" cy="312.0" r="4" fill="#567de1" /><circle cx="840.0" cy="312.0" r="4" fill="#567de1" /><polyline points="80.0,298.5 110.4,299.0 140.8,299.2 171.2,299.2 201.6,299.2 232.0,299.2 262.4,299.2 292.8,299.2 323.2,299.2 353.6,299.2 384.0,299.2 414.4,299.2 444.8,299.2 475.2,299.2 505.6,299.2 536.0,299.2 566.4,299.2 596.8,299.2 627.2,299.2 657.6,299.2 688.0,299.2 718.4,299.2 748.8,299.2 779.2,299.2 809.6,299.2 840.0,299.2" fill="none" stroke="#9754dd" stroke-width="2.5" stroke-linecap="round" stroke-linejoin="round" /><circle cx="80.0" cy="298.5" r="4" fill="#9754dd" /><circle cx="110.4" cy="299.0" r="4" fill="#9754dd" /><circle cx="140.8" cy="299.2" r="4" fill="#9754dd" /><circle cx="171.2" cy="299.2" r="4" fill="#9754dd" /><circle cx="201.6" cy="299.2" r="4" fill="#9754dd" /><circle cx="232.0" cy="299.2" r="4" fill="#9754dd" /><circle cx="262.4" cy="299.2" r="4" fill="#9754dd" /><circle cx="292.8" cy="299.2" r="4" fill="#9754dd" /><circle cx="323.2" cy="299.2" r="4" fill="#9754dd" /><circle cx="353.6" cy="299.2" r="4" fill="#9754dd" /><circle cx="384.0" cy="299.2" r="4" fill="#9754dd" /><circle cx="414.4" cy="299.2" r="4" fill="#9754dd" /><circle cx="444.8" cy="299.2" r="4" fill="#9754dd" /><circle cx="475.2" cy="299.2" r="4" fill="#9754dd" /><circle cx="505.6" cy="299.2" r="4" fill="#9754dd" /><circle cx="536.0" cy="299.2" r="4" fill="#9754dd" /><circle cx="566.4" cy="299.2" r="4" fill="#9754dd" /><circle cx="596.8" cy="299.2" r="4" fill="#9754dd" /><circle cx="627.2" cy="299.2" r="4" fill="#9754dd" /><circle cx="657.6" cy="299.2" r="4" fill="#9754dd" /><circle cx="688.0" cy="299.2" r="4" fill="#9754dd" /><circle cx="718.4" cy="299.2" r="4" fill="#9754dd" /><circle cx="748.8" cy="299.2" r="4" fill="#9754dd" /><circle cx="779.2" cy="299.2" r="4" fill="#9754dd" /><circle cx="809.6" cy="299.2" r="4" fill="#9754dd" /><circle cx="840.0" cy="299.2" r="4" fill="#9754dd" />
  <rect x="80" y="339" width="10" height="10" rx="2" ry="2" fill="#19e5a1" /><text x="96" y="348" class="legend-label">Stars</text><rect x="250" y="339" width="10" height="10" rx="2" ry="2" fill="#6eb6ec" /><text x="266" y="348" class="legend-label">Followers</text><rect x="420" y="339" width="10" height="10" rx="2" ry="2" fill="#5938e2" /><text x="436" y="348" class="legend-label">Following</text><rect x="590" y="339" width="10" height="10" rx="2" ry="2" fill="#60e5e0" /><text x="606" y="348" class="legend-label">Contributions</text><rect x="80" y="357" width="10" height="10" rx="2" ry="2" fill="#567de1" /><text x="96" y="366" class="legend-label">Pull Requests</text><rect x="250" y="357" width="10" height="10" rx="2" ry="2" fill="#9754dd" /><text x="266" y="366" class="legend-label">Issues</text>
</svg>
