<svg width="900" height="402" viewBox="0 0 900 402" xmlns="http://www.w3.org/2000/svg">
  <defs>
    <linearGradient id="history-gradient" x1="0%" y1="0%" x2="100%" y2="100%">
      <stop offset="0%" style="stop-color:#58a6ff;stop-opacity:1" />
      <stop offset="100%" style="stop-color:#a371f7;stop-opacity:1" />
    </linearGradient>
    <clipPath id="history-rounded">
      <rect x="0" y="0" width="900" height="402" rx="8" ry="8" />
    </clipPath>
  </defs>
  <style>
    .title {
      font-family: 'Segoe UI', Ubuntu, 'Helvetica Neue', sans-serif;
      font-size: 22px;
      font-weight: 700;
      fill: #58a6ff;
    }
    .subtitle {
      font-family: 'Segoe UI', Ubuntu, 'Helvetica Neue', sans-serif;
      font-size: 12px;
      font-weight: 500;
      fill: #8b949e;
    }
    .axis-label {
      font-family: 'Segoe UI', Ubuntu, 'Helvetica Neue', sans-serif;
      font-size: 10px;
      fill: #8b949e;
    }
    .grid-line {
      stroke: #30363d;
      stroke-width: 1;
      opacity: 0.3;
    }
    .legend-label {
      font-family: 'Segoe UI', Ubuntu, 'Helvetica Neue', sans-serif;
      font-size: 11px;
      fill: #c9d1d9;
      dominant-baseline: middle;
    }
  </style>
  <rect clip-path="url(#history-rounded)" width="100%" height="100%" fill="#0d1117" stroke="#30363d" stroke-width="1" />
  <rect x="0" y="396" width="900" height="6" fill="url(#history-gradient)" clip-path="url(#history-rounded)" />
  <text x="24" y="34" class="title">Leonardo Klein Stats History</text>
  <text x="24" y="54" class="subtitle">Period: 2026-02-20 to 2026-02-25</text>
  <text x="72" y="320.0" text-anchor="end" dominant-baseline="central" class="axis-label">0</text><text x="72" y="270.0" text-anchor="end" dominant-baseline="central" class="axis-label">300</text><text x="72" y="220.0" text-anchor="end" dominant-baseline="central" class="axis-label">600</text><text x="72" y="170.0" text-anchor="end" dominant-baseline="central" class="axis-label">900</text><text x="72" y="120.0" text-anchor="end" dominant-baseline="central" class="axis-label">1.2k</text><text x="72" y="70.0" text-anchor="end" dominant-baseline="central" class="axis-label">1.5k</text>
  <text x="80.0" y="336" text-anchor="middle" class="axis-label">02-20</text><text x="138.5" y="336" text-anchor="middle" class="axis-label">02-20</text><text x="196.9" y="336" text-anchor="middle" class="axis-label">02-21</text><text x="255.4" y="336" text-anchor="middle" class="axis-label">02-21</text><text x="313.8" y="336" text-anchor="middle" class="axis-label">02-22</text><text x="372.3" y="336" text-anchor="middle" class="axis-label">02-22</text><text x="430.8" y="336" text-anchor="middle" class="axis-label">02-22</text><text x="489.2" y="336" text-anchor="middle" class="axis-label">02-23</text><text x="547.7" y="336" text-anchor="middle" class="axis-label">02-23</text><text x="606.2" y="336" text-anchor="middle" class="axis-label">02-24</text><text x="664.6" y="336" text-anchor="middle" class="axis-label">02-24</text><text x="723.1" y="336" text-anchor="middle" class="axis-label">02-24</text><text x="781.5" y="336" text-anchor="middle" class="axis-label">02-25</text><text x="840.0" y="336" text-anchor="middle" class="axis-label">02-25</text>
  <line x1="80" y1="320.0" x2="840" y2="320.0" class="grid-line" /><line x1="80" y1="270.0" x2="840" y2="270.0" class="grid-line" /><line x1="80" y1="220.0" x2="840" y2="220.0" class="grid-line" /><line x1="80" y1="170.0" x2="840" y2="170.0" class="grid-line" /><line x1="80" y1="120.0" x2="840" y2="120.0" class="grid-line" /><line x1="80" y1="70.0" x2="840" y2="70.0" class="grid-line" />
  <polyline points="80.0,316.0 109.2,316.0 138.5,316.0 167.7,316.0 196.9,316.0 226.2,316.0 255.4,316.0 284.6,316.0 313.8,316.0 343.1,316.0 372.3,316.0 401.5,316.0 430.8,316.0 460.0,316.0 489.2,316.0 518.5,316.0 547.7,316.0 576.9,316.0 606.2,316.0 635.4,316.0 664.6,316.0 693.8,316.0 723.1,316.0 752.3,316.0 781.5,316.0 810.8,316.0 840.0,316.0" fill="none" stroke="#19e5a1" stroke-width="2.5" stroke-linecap="round" stroke-linejoin="round" /><circle cx="80.0" cy="316.0" r="4" fill="#19e5a1" /><circle cx="109.2" cy="316.0" r="4" fill="#19e5a1" /><circle cx="138.5" cy="316.0" r="4" fill="#19e5a1" /><circle cx="167.7" cy="316.0" r="4" fill="#19e5a1" /><circle cx="196.9" cy="316.0" r="4" fill="#19e5a1" /><circle cx="226.2" cy="316.0" r="4" fill="#19e5a1" /><circle cx="255.4" cy="316.0" r="4" fill="#19e5a1" /><circle cx="284.6" cy="316.0" r="4" fill="#19e5a1" /><circle cx="313.8" cy="316.0" r="4" fill="#19e5a1" /><circle cx="343.1" cy="316.0" r="4" fill="#19e5a1" /><circle cx="372.3" cy="316.0" r="4" fill="#19e5a1" /><circle cx="401.5" cy="316.0" r="4" fill="#19e5a1" /><circle cx="430.8" cy="316.0" r="4" fill="#19e5a1" /><circle cx="460.0" cy="316.0" r="4" fill="#19e5a1" /><circle cx="489.2" cy="316.0" r="4" fill="#19e5a1" /><circle cx="518.5" cy="316.0" r="4" fill="#19e5a1" /><circle cx="547.7" cy="316.0" r="4" fill="#19e5a1" /><circle cx="576.9" cy="316.0" r="4" fill="#19e5a1" /><circle cx="606.2" cy="316.0" r="4" fill="#19e5a1" /><circle cx="635.4" cy="316.0" r="4" fill="#19e5a1" /><circle cx="664.6" cy="316.0" r="4" fill="#19e5a1" /><circle cx="693.8" cy="316.0" r="4" fill="#19e5a1" /><circle cx="723.1" cy="316.0" r="4" fill="#19e5a1" /><circle cx="752.3" cy="316.0" r="4" fill="#19e5a1" /><circle cx="781.5" cy="316.0" r="4" fill="#19e5a1" /><circle cx="810.8" cy="316.0" r="4" fill="#19e5a1" /><circle cx="840.0" cy="316.0" r="4" fill="#19e5a1" /><polyline points="80.0,311.0 109.2,309.7 138.5,309.5 167.7,309.8 196.9,309.8 226.2,309.8 255.4,309.5 284.6,309.3 313.8,309.2 343.1,309.2 372.3,309.0 401.5,309.0 430.8,308.7 460.0,308.7 489.2,308.7 518.5,308.3 547.7,308.3 576.9,308.2 606.2,308.2 635.4,308.2 664.6,307.8 693.8,308.0 723.1,307.7 752.3,307.7 781.5,307.7 810.8,307.7 840.0,307.2" fill="none" stroke="#6eb6ec" stroke-width="2.5" stroke-linecap="round" stroke-linejoin="round" /><circle cx="80.0" cy="311.0" r="4" fill="#6eb6ec" /><circle cx="109.2" cy="309.7" r="4" fill="#6eb6ec" /><circle cx="138.5" cy="309.5" r="4" fill="#6eb6ec" /><circle cx="167.7" cy="309.8" r="4" fill="#6eb6ec" /><circle cx="196.9" cy="309.8" r="4" fill="#6eb6ec" /><circle cx="226.2" cy="309.8" r="4" fill="#6eb6ec" /><circle cx="255.4" cy="309.5" r="4" fill="#6eb6ec" /><circle cx="284.6" cy="309.3" r="4" fill="#6eb6ec" /><circle cx="313.8" cy="309.2" r="4" fill="#6eb6ec" /><circle cx="343.1" cy="309.2" r="4" fill="#6eb6ec" /><circle cx="372.3" cy="309.0" r="4" fill="#6eb6ec" /><circle cx="401.5" cy="309.0" r="4" fill="#6eb6ec" /><circle cx="430.8" cy="308.7" r="4" fill="#6eb6ec" /><circle cx="460.0" cy="308.7" r="4" fill="#6eb6ec" /><circle cx="489.2" cy="308.7" r="4" fill="#6eb6ec" /><circle cx="518.5" cy="308.3" r="4" fill="#6eb6ec" /><circle cx="547.7" cy="308.3" r="4" fill="#6eb6ec" /><circle cx="576.9" cy="308.2" r="4" fill="#6eb6ec" /><circle cx="606.2" cy="308.2" r="4" fill="#6eb6ec" /><circle cx="635.4" cy="308.2" r="4" fill="#6eb6ec" /><circle cx="664.6" cy="307.8" r="4" fill="#6eb6ec" /><circle cx="693.8" cy="308.0" r="4" fill="#6eb6ec" /><circle cx="723.1" cy="307.7" r="4" fill="#6eb6ec" /><circle cx="752.3" cy="307.7" r="4" fill="#6eb6ec" /><circle cx="781.5" cy="307.7" r="4" fill="#6eb6ec" /><circle cx="810.8" cy="307.7" r="4" fill="#6eb6ec" /><circle cx="840.0" cy="307.2" r="4" fill="#6eb6ec" /><polyline points="80.0,301.0 109.2,301.0 138.5,301.0 167.7,301.0 196.9,301.0 226.2,301.0 255.4,301.0 284.6,301.0 313.8,301.0 343.1,301.0 372.3,299.8 401.5,299.8 430.8,299.8 460.0,299.8 489.2,299.8 518.5,299.8 547.7,299.8 576.9,299.8 606.2,299.8 635.4,299.8 664.6,299.8 693.8,299.8 723.1,299.8 752.3,299.8 781.5,299.8 810.8,299.8 840.0,299.8" fill="none" stroke="#5938e2" stroke-width="2.5" stroke-linecap="round" stroke-linejoin="round" /><circle cx="80.0" cy="301.0" r="4" fill="#5938e2" /><circle cx="109.2" cy="301.0" r="4" fill="#5938e2" /><circle cx="138.5" cy="301.0" r="4" fill="#5938e2" /><circle cx="167.7" cy="301.0" r="4" fill="#5938e2" /><circle cx="196.9" cy="301.0" r="4" fill="#5938e2" /><circle cx="226.2" cy="301.0" r="4" fill="#5938e2" /><circle cx="255.4" cy="301.0" r="4" fill="#5938e2" /><circle cx="284.6" cy="301.0" r="4" fill="#5938e2" /><circle cx="313.8" cy="301.0" r="4" fill="#5938e2" /><circle cx="343.1" cy="301.0" r="4" fill="#5938e2" /><circle cx="372.3" cy="299.8" r="4" fill="#5938e2" /><circle cx="401.5" cy="299.8" r="4" fill="#5938e2" /><circle cx="430.8" cy="299.8" r="4" fill="#5938e2" /><circle cx="460.0" cy="299.8" r="4" fill="#5938e2" /><circle cx="489.2" cy="299.8" r="4" fill="#5938e2" /><circle cx="518.5" cy="299.8" r="4" fill="#5938e2" /><circle cx="547.7" cy="299.8" r="4" fill="#5938e2" /><circle cx="576.9" cy="299.8" r="4" fill="#5938e2" /><circle cx="606.2" cy="299.8" r="4" fill="#5938e2" /><circle cx="635.4" cy="299.8" r="4" fill="#5938e2" /><circle cx="664.6" cy="299.8" r="4" fill="#5938e2" /><circle cx="693.8" cy="299.8" r="4" fill="#5938e2" /><circle cx="723.1" cy="299.8" r="4" fill="#5938e2" /><circle cx="752.3" cy="299.8" r="4" fill="#5938e2" /><circle cx="781.5" cy="299.8" r="4" fill="#5938e2" /><circle cx="810.8" cy="299.8" r="4" fill="#5938e2" /><circle cx="840.0" cy="299.8" r="4" fill="#5938e2" /><polyline points="80.0,86.2 109.2,80.2 138.5,79.8 167.7,79.7 196.9,79.7 226.2,79.5 255.4,79.5 284.6,79.5 313.8,79.5 343.1,79.5 372.3,77.8 401.5,77.8 430.8,77.8 460.0,77.8 489.2,77.8 518.5,77.8 547.7,77.8 576.9,76.5 606.2,76.5 635.4,76.5 664.6,76.5 693.8,76.5 723.1,76.5 752.3,76.5 781.5,76.5 810.8,76.5 840.0,76.5" fill="none" stroke="#60e5e0" stroke-width="2.5" stroke-linecap="round" stroke-linejoin="round" /><circle cx="80.0" cy="86.2" r="4" fill="#60e5e0" /><circle cx="109.2" cy="80.2" r="4" fill="#60e5e0" /><circle cx="138.5" cy="79.8" r="4" fill="#60e5e0" /><circle cx="167.7" cy="79.7" r="4" fill="#60e5e0" /><circle cx="196.9" cy="79.7" r="4" fill="#60e5e0" /><circle cx="226.2" cy="79.5" r="4" fill="#60e5e0" /><circle cx="255.4" cy="79.5" r="4" fill="#60e5e0" /><circle cx="284.6" cy="79.5" r="4" fill="#60e5e0" /><circle cx="313.8" cy="79.5" r="4" fill="#60e5e0" /><circle cx="343.1" cy="79.5" r="4" fill="#60e5e0" /><circle cx="372.3" cy="77.8" r="4" fill="#60e5e0" /><circle cx="401.5" cy="77.8" r="4" fill="#60e5e0" /><circle cx="430.8" cy="77.8" r="4" fill="#60e5e0" /><circle cx="460.0" cy="77.8" r="4" fill="#60e5e0" /><circle cx="489.2" cy="77.8" r="4" fill="#60e5e0" /><circle cx="518.5" cy="77.8" r="4" fill="#60e5e0" /><circle cx="547.7" cy="77.8" r="4" fill="#60e5e0" /><circle cx="576.9" cy="76.5" r="4" fill="#60e5e0" /><circle cx="606.2" cy="76.5" r="4" fill="#60e5e0" /><circle cx="635.4" cy="76.5" r="4" fill="#60e5e0" /><circle cx="664.6" cy="76.5" r="4" fill="#60e5e0" /><circle cx="693.8" cy="76.5" r="4" fill="#60e5e0" /><circle cx="723.1" cy="76.5" r="4" fill="#60e5e0" /><circle cx="752.3" cy="76.5" r="4" fill="#60e5e0" /><circle cx="781.5" cy="76.5" r="4" fill="#60e5e0" /><circle cx="810.8" cy="76.5" r="4" fill="#60e5e0" /><circle cx="840.0" cy="76.5" r="4" fill="#60e5e0" /><polyline points="80.0,312.8 109.2,312.5 138.5,312.3 167.7,312.3 196.9,312.3 226.2,312.2 255.4,312.2 284.6,312.2 313.8,312.2 343.1,312.2 372.3,312.0 401.5,312.0 430.8,312.0 460.0,312.0 489.2,312.0 518.5,312.0 547.7,312.0 576.9,312.0 606.2,312.0 635.4,312.0 664.6,312.0 693.8,312.0 723.1,312.0 752.3,312.0 781.5,312.0 810.8,312.0 840.0,312.0" fill="none" stroke="#567de1" stroke-width="2.5" stroke-linecap="round" stroke-linejoin="round" /><circle cx="80.0" cy="312.8" r="4" fill="#567de1" /><circle cx="109.2" cy="312.5" r="4" fill="#567de1" /><circle cx="138.5" cy="312.3" r="4" fill="#567de1" /><circle cx="167.7" cy="312.3" r="4" fill="#567de1" /><circle cx="196.9" cy="312.3" r="4" fill="#567de1" /><circle cx="226.2" cy="312.2" r="4" fill="#567de1" /><circle cx="255.4" cy="312.2" r="4" fill="#567de1" /><circle cx="284.6" cy="312.2" r="4" fill="#567de1" /><circle cx="313.8" cy="312.2" r="4" fill="#567de1" /><circle cx="343.1" cy="312.2" r="4" fill="#567de1" /><circle cx="372.3" cy="312.0" r="4" fill="#567de1" /><circle cx="401.5" cy="312.0" r="4" fill="#567de1" /><circle cx="430.8" cy="312.0" r="4" fill="#567de1" /><circle cx="460.0" cy="312.0" r="4" fill="#567de1" /><circle cx="489.2" cy="312.0" r="4" fill="#567de1" /><circle cx="518.5" cy="312.0" r="4" fill="#567de1" /><circle cx="547.7" cy="312.0" r="4" fill="#567de1" /><circle cx="576.9" cy="312.0" r="4" fill="#567de1" /><circle cx="606.2" cy="312.0" r="4" fill="#567de1" /><circle cx="635.4" cy="312.0" r="4" fill="#567de1" /><circle cx="664.6" cy="312.0" r="4" fill="#567de1" /><circle cx="693.8" cy="312.0" r="4" fill="#567de1" /><circle cx="723.1" cy="312.0" r="4" fill="#567de1" /><circle cx="752.3" cy="312.0" r="4" fill="#567de1" /><circle cx="781.5" cy="312.0" r="4" fill="#567de1" /><circle cx="810.8" cy="312.0" r="4" fill="#567de1" /><circle cx="840.0" cy="312.0" r="4" fill="#567de1" /><polyline points="80.0,298.5 109.2,299.0 138.5,299.2 167.7,299.2 196.9,299.2 226.2,299.2 255.4,299.2 284.6,299.2 313.8,299.2 343.1,299.2 372.3,299.2 401.5,299.2 430.8,299.2 460.0,299.2 489.2,299.2 518.5,299.2 547.7,299.2 576.9,299.2 606.2,299.2 635.4,299.2 664.6,299.2 693.8,299.2 723.1,299.2 752.3,299.2 781.5,299.2 810.8,299.2 840.0,299.2" fill="none" stroke="#9754dd" stroke-width="2.5" stroke-linecap="round" stroke-linejoin="round" /><circle cx="80.0" cy="298.5" r="4" fill="#9754dd" /><circle cx="109.2" cy="299.0" r="4" fill="#9754dd" /><circle cx="138.5" cy="299.2" r="4" fill="#9754dd" /><circle cx="167.7" cy="299.2" r="4" fill="#9754dd" /><circle cx="196.9" cy="299.2" r="4" fill="#9754dd" /><circle cx="226.2" cy="299.2" r="4" fill="#9754dd" /><circle cx="255.4" cy="299.2" r="4" fill="#9754dd" /><circle cx="284.6" cy="299.2" r="4" fill="#9754dd" /><circle cx="313.8" cy="299.2" r="4" fill="#9754dd" /><circle cx="343.1" cy="299.2" r="4" fill="#9754dd" /><circle cx="372.3" cy="299.2" r="4" fill="#9754dd" /><circle cx="401.5" cy="299.2" r="4" fill="#9754dd" /><circle cx="430.8" cy="299.2" r="4" fill="#9754dd" /><circle cx="460.0" cy="299.2" r="4" fill="#9754dd" /><circle cx="489.2" cy="299.2" r="4" fill="#9754dd" /><circle cx="518.5" cy="299.2" r="4" fill="#9754dd" /><circle cx="547.7" cy="299.2" r="4" fill="#9754dd" /><circle cx="576.9" cy="299.2" r="4" fill="#9754dd" /><circle cx="606.2" cy="299.2" r="4" fill="#9754dd" /><circle cx="635.4" cy="299.2" r="4" fill="#9754dd" /><circle cx="664.6" cy="299.2" r="4" fill="#9754dd" /><circle cx="693.8" cy="299.2" r="4" fill="#9754dd" /><circle cx="723.1" cy="299.2" r="4" fill="#9754dd" /><circle cx="752.3" cy="299.2" r="4" fill="#9754dd" /><circle cx="781.5" cy="299.2" r="4" fill="#9754dd" /><circle cx="810.8" cy="299.2" r="4" fill="#9754dd" /><circle cx="840.0" cy="299.2" r="4" fill="#9754dd" />
  <rect x="80" y="339" width="10" height="10" rx="2" ry="2" fill="#19e5a1" /><text x="96" y="348" class="legend-label">Stars</text><rect x="250" y="339" width="10" height="10" rx="2" ry="2" fill="#6eb6ec" /><text x="266" y="348" class="legend-label">Followers</text><rect x="420" y="339" width="10" height="10" rx="2" ry="2" fill="#5938e2" /><text x="436" y="348" class="legend-label">Following</text><rect x="590" y="339" width="10" height="10" rx="2" ry="2" fill="#60e5e0" /><text x="606" y="348" class="legend-label">Contributions</text><rect x="80" y="357" width="10" height="10" rx="2" ry="2" fill="#567de1" /><text x="96" y="366" class="legend-label">Pull Requests</text><rect x="250" y="357" width="10" height="10" rx="2" ry="2" fill="#9754dd" /><text x="266" y="366" class="legend-label">Issues</text>
</svg>
