<svg width="900" height="402" viewBox="0 0 900 402" xmlns="http://www.w3.org/2000/svg">
  <defs>
    <linearGradient id="history-gradient" x1="0%" y1="0%" x2="100%" y2="100%">
      <stop offset="0%" style="stop-color:#58a6ff;stop-opacity:1" />
      <stop offset="100%" style="stop-color:#a371f7;stop-opacity:1" />
    </linearGradient>
    <clipPath id="history-rounded">
      <rect x="0" y="0" width="900" height="402" rx="8" ry="8" />
    </clipPath>
  </defs>
  <style>
    .title {
      font-family: 'Segoe UI', Ubuntu, 'Helvetica Neue', sans-serif;
      font-size: 22px;
      font-weight: 700;
      fill: #58a6ff;
    }
    .subtitle {
      font-family: 'Segoe UI', Ubuntu, 'Helvetica Neue', sans-serif;
      font-size: 12px;
      font-weight: 500;
      fill: #8b949e;
    }
    .axis-label {
      font-family: 'Segoe UI', Ubuntu, 'Helvetica Neue', sans-serif;
      font-size: 10px;
      fill: #8b949e;
    }
    .grid-line {
      stroke: #30363d;
      stroke-width: 1;
      opacity: 0.3;
    }
    .legend-label {
      font-family: 'Segoe UI', Ubuntu, 'Helvetica Neue', sans-serif;
      font-size: 11px;
      fill: #c9d1d9;
      dominant-baseline: middle;
    }
  </style>
  <rect clip-path="url(#history-rounded)" width="100%" height="100%" fill="#0d1117" stroke="#30363d" stroke-width="1" />
  <rect x="0" y="396" width="900" height="6" fill="url(#history-gradient)" clip-path="url(#history-rounded)" />
  <text x="24" y="34" class="title">Leonardo Klein Stats History</text>
  <text x="24" y="54" class="subtitle">Period: 2026-02-20 to 2026-03-08</text>
  <text x="72" y="320.0" text-anchor="end" dominant-baseline="central" class="axis-label">0</text><text x="72" y="270.0" text-anchor="end" dominant-baseline="central" class="axis-label">400</text><text x="72" y="220.0" text-anchor="end" dominant-baseline="central" class="axis-label">800</text><text x="72" y="170.0" text-anchor="end" dominant-baseline="central" class="axis-label">1.2k</text><text x="72" y="120.0" text-anchor="end" dominant-baseline="central" class="axis-label">1.6k</text><text x="72" y="70.0" text-anchor="end" dominant-baseline="central" class="axis-label">2.0k</text>
  <text x="80.0" y="336" text-anchor="middle" class="axis-label">02-20</text><text x="148.2" y="336" text-anchor="middle" class="axis-label">02-21</text><text x="216.4" y="336" text-anchor="middle" class="axis-label">02-23</text><text x="284.6" y="336" text-anchor="middle" class="axis-label">02-24</text><text x="352.8" y="336" text-anchor="middle" class="axis-label">02-26</text><text x="421.0" y="336" text-anchor="middle" class="axis-label">02-27</text><text x="489.2" y="336" text-anchor="middle" class="axis-label">02-28</text><text x="557.4" y="336" text-anchor="middle" class="axis-label">03-02</text><text x="625.6" y="336" text-anchor="middle" class="axis-label">03-03</text><text x="693.8" y="336" text-anchor="middle" class="axis-label">03-05</text><text x="762.1" y="336" text-anchor="middle" class="axis-label">03-06</text><text x="830.3" y="336" text-anchor="middle" class="axis-label">03-07</text><text x="840.0" y="336" text-anchor="middle" class="axis-label">03-08</text>
  <line x1="80" y1="320.0" x2="840" y2="320.0" class="grid-line" /><line x1="80" y1="270.0" x2="840" y2="270.0" class="grid-line" /><line x1="80" y1="220.0" x2="840" y2="220.0" class="grid-line" /><line x1="80" y1="170.0" x2="840" y2="170.0" class="grid-line" /><line x1="80" y1="120.0" x2="840" y2="120.0" class="grid-line" /><line x1="80" y1="70.0" x2="840" y2="70.0" class="grid-line" />
  <polyline points="80.0,317.0 89.7,317.0 99.5,317.0 109.2,317.0 119.0,317.0 128.7,317.0 138.5,317.0 148.2,317.0 157.9,317.0 167.7,317.0 177.4,317.0 187.2,317.0 196.9,317.0 206.7,317.0 216.4,317.0 226.2,317.0 235.9,317.0 245.6,317.0 255.4,317.0 265.1,317.0 274.9,317.0 284.6,317.0 294.4,317.0 304.1,317.0 313.8,317.0 323.6,317.0 333.3,317.0 343.1,317.0 352.8,317.0 362.6,317.0 372.3,317.0 382.1,317.0 391.8,317.0 401.5,317.0 411.3,317.0 421.0,317.0 430.8,317.0 440.5,317.0 450.3,317.0 460.0,317.0 469.7,317.0 479.5,317.0 489.2,317.0 499.0,317.0 508.7,317.0 518.5,317.0 528.2,317.0 537.9,317.0 547.7,317.0 557.4,317.0 567.2,317.0 576.9,317.0 586.7,317.0 596.4,317.0 606.2,317.0 615.9,317.0 625.6,317.0 635.4,317.0 645.1,317.0 654.9,317.0 664.6,317.0 674.4,317.0 684.1,317.0 693.8,317.0 703.6,317.0 713.3,317.0 723.1,317.0 732.8,317.0 742.6,317.0 752.3,317.0 762.1,317.0 771.8,317.0 781.5,317.0 791.3,317.0 801.0,317.0 810.8,317.0 820.5,317.0 830.3,317.0 840.0,317.0" fill="none" stroke="#19e5a1" stroke-width="2.5" stroke-linecap="round" stroke-linejoin="round" /><circle cx="80.0" cy="317.0" r="4" fill="#19e5a1" /><circle cx="89.7" cy="317.0" r="4" fill="#19e5a1" /><circle cx="99.5" cy="317.0" r="4" fill="#19e5a1" /><circle cx="109.2" cy="317.0" r="4" fill="#19e5a1" /><circle cx="119.0" cy="317.0" r="4" fill="#19e5a1" /><circle cx="128.7" cy="317.0" r="4" fill="#19e5a1" /><circle cx="138.5" cy="317.0" r="4" fill="#19e5a1" /><circle cx="148.2" cy="317.0" r="4" fill="#19e5a1" /><circle cx="157.9" cy="317.0" r="4" fill="#19e5a1" /><circle cx="167.7" cy="317.0" r="4" fill="#19e5a1" /><circle cx="177.4" cy="317.0" r="4" fill="#19e5a1" /><circle cx="187.2" cy="317.0" r="4" fill="#19e5a1" /><circle cx="196.9" cy="317.0" r="4" fill="#19e5a1" /><circle cx="206.7" cy="317.0" r="4" fill="#19e5a1" /><circle cx="216.4" cy="317.0" r="4" fill="#19e5a1" /><circle cx="226.2" cy="317.0" r="4" fill="#19e5a1" /><circle cx="235.9" cy="317.0" r="4" fill="#19e5a1" /><circle cx="245.6" cy="317.0" r="4" fill="#19e5a1" /><circle cx="255.4" cy="317.0" r="4" fill="#19e5a1" /><circle cx="265.1" cy="317.0" r="4" fill="#19e5a1" /><circle cx="274.9" cy="317.0" r="4" fill="#19e5a1" /><circle cx="284.6" cy="317.0" r="4" fill="#19e5a1" /><circle cx="294.4" cy="317.0" r="4" fill="#19e5a1" /><circle cx="304.1" cy="317.0" r="4" fill="#19e5a1" /><circle cx="313.8" cy="317.0" r="4" fill="#19e5a1" /><circle cx="323.6" cy="317.0" r="4" fill="#19e5a1" /><circle cx="333.3" cy="317.0" r="4" fill="#19e5a1" /><circle cx="343.1" cy="317.0" r="4" fill="#19e5a1" /><circle cx="352.8" cy="317.0" r="4" fill="#19e5a1" /><circle cx="362.6" cy="317.0" r="4" fill="#19e5a1" /><circle cx="372.3" cy="317.0" r="4" fill="#19e5a1" /><circle cx="382.1" cy="317.0" r="4" fill="#19e5a1" /><circle cx="391.8" cy="317.0" r="4" fill="#19e5a1" /><circle cx="401.5" cy="317.0" r="4" fill="#19e5a1" /><circle cx="411.3" cy="317.0" r="4" fill="#19e5a1" /><circle cx="421.0" cy="317.0" r="4" fill="#19e5a1" /><circle cx="430.8" cy="317.0" r="4" fill="#19e5a1" /><circle cx="440.5" cy="317.0" r="4" fill="#19e5a1" /><circle cx="450.3" cy="317.0" r="4" fill="#19e5a1" /><circle cx="460.0" cy="317.0" r="4" fill="#19e5a1" /><circle cx="469.7" cy="317.0" r="4" fill="#19e5a1" /><circle cx="479.5" cy="317.0" r="4" fill="#19e5a1" /><circle cx="489.2" cy="317.0" r="4" fill="#19e5a1" /><circle cx="499.0" cy="317.0" r="4" fill="#19e5a1" /><circle cx="508.7" cy="317.0" r="4" fill="#19e5a1" /><circle cx="518.5" cy="317.0" r="4" fill="#19e5a1" /><circle cx="528.2" cy="317.0" r="4" fill="#19e5a1" /><circle cx="537.9" cy="317.0" r="4" fill="#19e5a1" /><circle cx="547.7" cy="317.0" r="4" fill="#19e5a1" /><circle cx="557.4" cy="317.0" r="4" fill="#19e5a1" /><circle cx="567.2" cy="317.0" r="4" fill="#19e5a1" /><circle cx="576.9" cy="317.0" r="4" fill="#19e5a1" /><circle cx="586.7" cy="317.0" r="4" fill="#19e5a1" /><circle cx="596.4" cy="317.0" r="4" fill="#19e5a1" /><circle cx="606.2" cy="317.0" r="4" fill="#19e5a1" /><circle cx="615.9" cy="317.0" r="4" fill="#19e5a1" /><circle cx="625.6" cy="317.0" r="4" fill="#19e5a1" /><circle cx="635.4" cy="317.0" r="4" fill="#19e5a1" /><circle cx="645.1" cy="317.0" r="4" fill="#19e5a1" /><circle cx="654.9" cy="317.0" r="4" fill="#19e5a1" /><circle cx="664.6" cy="317.0" r="4" fill="#19e5a1" /><circle cx="674.4" cy="317.0" r="4" fill="#19e5a1" /><circle cx="684.1" cy="317.0" r="4" fill="#19e5a1" /><circle cx="693.8" cy="317.0" r="4" fill="#19e5a1" /><circle cx="703.6" cy="317.0" r="4" fill="#19e5a1" /><circle cx="713.3" cy="317.0" r="4" fill="#19e5a1" /><circle cx="723.1" cy="317.0" r="4" fill="#19e5a1" /><circle cx="732.8" cy="317.0" r="4" fill="#19e5a1" /><circle cx="742.6" cy="317.0" r="4" fill="#19e5a1" /><circle cx="752.3" cy="317.0" r="4" fill="#19e5a1" /><circle cx="762.1" cy="317.0" r="4" fill="#19e5a1" /><circle cx="771.8" cy="317.0" r="4" fill="#19e5a1" /><circle cx="781.5" cy="317.0" r="4" fill="#19e5a1" /><circle cx="791.3" cy="317.0" r="4" fill="#19e5a1" /><circle cx="801.0" cy="317.0" r="4" fill="#19e5a1" /><circle cx="810.8" cy="317.0" r="4" fill="#19e5a1" /><circle cx="820.5" cy="317.0" r="4" fill="#19e5a1" /><circle cx="830.3" cy="317.0" r="4" fill="#19e5a1" /><circle cx="840.0" cy="317.0" r="4" fill="#19e5a1" /><polyline points="80.0,313.2 89.7,312.2 99.5,312.1 109.2,312.4 119.0,312.4 128.7,312.4 138.5,312.1 148.2,312.0 157.9,311.9 167.7,311.9 177.4,311.8 187.2,311.8 196.9,311.5 206.7,311.5 216.4,311.5 226.2,311.2 235.9,311.2 245.6,311.1 255.4,311.1 265.1,311.1 274.9,310.9 284.6,311.0 294.4,310.8 304.1,310.8 313.8,310.8 323.6,310.8 333.3,310.4 343.1,310.2 352.8,310.4 362.6,310.4 372.3,310.4 382.1,310.4 391.8,310.4 401.5,310.2 411.3,310.2 421.0,310.1 430.8,310.1 440.5,309.8 450.3,309.6 460.0,309.6 469.7,309.6 479.5,309.6 489.2,309.5 499.0,309.4 508.7,309.4 518.5,309.4 528.2,309.4 537.9,309.2 547.7,309.2 557.4,309.2 567.2,309.4 576.9,309.4 586.7,309.5 596.4,309.2 606.2,309.2 615.9,309.4 625.6,309.2 635.4,309.2 645.1,309.2 654.9,309.2 664.6,309.2 674.4,309.1 684.1,309.1 693.8,309.1 703.6,309.1 713.3,309.0 723.1,309.0 732.8,308.9 742.6,308.9 752.3,308.9 762.1,308.6 771.8,308.6 781.5,308.6 791.3,308.6 801.0,308.6 810.8,308.6 820.5,308.6 830.3,308.6 840.0,308.6" fill="none" stroke="#6eb6ec" stroke-width="2.5" stroke-linecap="round" stroke-linejoin="round" /><circle cx="80.0" cy="313.2" r="4" fill="#6eb6ec" /><circle cx="89.7" cy="312.2" r="4" fill="#6eb6ec" /><circle cx="99.5" cy="312.1" r="4" fill="#6eb6ec" /><circle cx="109.2" cy="312.4" r="4" fill="#6eb6ec" /><circle cx="119.0" cy="312.4" r="4" fill="#6eb6ec" /><circle cx="128.7" cy="312.4" r="4" fill="#6eb6ec" /><circle cx="138.5" cy="312.1" r="4" fill="#6eb6ec" /><circle cx="148.2" cy="312.0" r="4" fill="#6eb6ec" /><circle cx="157.9" cy="311.9" r="4" fill="#6eb6ec" /><circle cx="167.7" cy="311.9" r="4" fill="#6eb6ec" /><circle cx="177.4" cy="311.8" r="4" fill="#6eb6ec" /><circle cx="187.2" cy="311.8" r="4" fill="#6eb6ec" /><circle cx="196.9" cy="311.5" r="4" fill="#6eb6ec" /><circle cx="206.7" cy="311.5" r="4" fill="#6eb6ec" /><circle cx="216.4" cy="311.5" r="4" fill="#6eb6ec" /><circle cx="226.2" cy="311.2" r="4" fill="#6eb6ec" /><circle cx="235.9" cy="311.2" r="4" fill="#6eb6ec" /><circle cx="245.6" cy="311.1" r="4" fill="#6eb6ec" /><circle cx="255.4" cy="311.1" r="4" fill="#6eb6ec" /><circle cx="265.1" cy="311.1" r="4" fill="#6eb6ec" /><circle cx="274.9" cy="310.9" r="4" fill="#6eb6ec" /><circle cx="284.6" cy="311.0" r="4" fill="#6eb6ec" /><circle cx="294.4" cy="310.8" r="4" fill="#6eb6ec" /><circle cx="304.1" cy="310.8" r="4" fill="#6eb6ec" /><circle cx="313.8" cy="310.8" r="4" fill="#6eb6ec" /><circle cx="323.6" cy="310.8" r="4" fill="#6eb6ec" /><circle cx="333.3" cy="310.4" r="4" fill="#6eb6ec" /><circle cx="343.1" cy="310.2" r="4" fill="#6eb6ec" /><circle cx="352.8" cy="310.4" r="4" fill="#6eb6ec" /><circle cx="362.6" cy="310.4" r="4" fill="#6eb6ec" /><circle cx="372.3" cy="310.4" r="4" fill="#6eb6ec" /><circle cx="382.1" cy="310.4" r="4" fill="#6eb6ec" /><circle cx="391.8" cy="310.4" r="4" fill="#6eb6ec" /><circle cx="401.5" cy="310.2" r="4" fill="#6eb6ec" /><circle cx="411.3" cy="310.2" r="4" fill="#6eb6ec" /><circle cx="421.0" cy="310.1" r="4" fill="#6eb6ec" /><circle cx="430.8" cy="310.1" r="4" fill="#6eb6ec" /><circle cx="440.5" cy="309.8" r="4" fill="#6eb6ec" /><circle cx="450.3" cy="309.6" r="4" fill="#6eb6ec" /><circle cx="460.0" cy="309.6" r="4" fill="#6eb6ec" /><circle cx="469.7" cy="309.6" r="4" fill="#6eb6ec" /><circle cx="479.5" cy="309.6" r="4" fill="#6eb6ec" /><circle cx="489.2" cy="309.5" r="4" fill="#6eb6ec" /><circle cx="499.0" cy="309.4" r="4" fill="#6eb6ec" /><circle cx="508.7" cy="309.4" r="4" fill="#6eb6ec" /><circle cx="518.5" cy="309.4" r="4" fill="#6eb6ec" /><circle cx="528.2" cy="309.4" r="4" fill="#6eb6ec" /><circle cx="537.9" cy="309.2" r="4" fill="#6eb6ec" /><circle cx="547.7" cy="309.2" r="4" fill="#6eb6ec" /><circle cx="557.4" cy="309.2" r="4" fill="#6eb6ec" /><circle cx="567.2" cy="309.4" r="4" fill="#6eb6ec" /><circle cx="576.9" cy="309.4" r="4" fill="#6eb6ec" /><circle cx="586.7" cy="309.5" r="4" fill="#6eb6ec" /><circle cx="596.4" cy="309.2" r="4" fill="#6eb6ec" /><circle cx="606.2" cy="309.2" r="4" fill="#6eb6ec" /><circle cx="615.9" cy="309.4" r="4" fill="#6eb6ec" /><circle cx="625.6" cy="309.2" r="4" fill="#6eb6ec" /><circle cx="635.4" cy="309.2" r="4" fill="#6eb6ec" /><circle cx="645.1" cy="309.2" r="4" fill="#6eb6ec" /><circle cx="654.9" cy="309.2" r="4" fill="#6eb6ec" /><circle cx="664.6" cy="309.2" r="4" fill="#6eb6ec" /><circle cx="674.4" cy="309.1" r="4" fill="#6eb6ec" /><circle cx="684.1" cy="309.1" r="4" fill="#6eb6ec" /><circle cx="693.8" cy="309.1" r="4" fill="#6eb6ec" /><circle cx="703.6" cy="309.1" r="4" fill="#6eb6ec" /><circle cx="713.3" cy="309.0" r="4" fill="#6eb6ec" /><circle cx="723.1" cy="309.0" r="4" fill="#6eb6ec" /><circle cx="732.8" cy="308.9" r="4" fill="#6eb6ec" /><circle cx="742.6" cy="308.9" r="4" fill="#6eb6ec" /><circle cx="752.3" cy="308.9" r="4" fill="#6eb6ec" /><circle cx="762.1" cy="308.6" r="4" fill="#6eb6ec" /><circle cx="771.8" cy="308.6" r="4" fill="#6eb6ec" /><circle cx="781.5" cy="308.6" r="4" fill="#6eb6ec" /><circle cx="791.3" cy="308.6" r="4" fill="#6eb6ec" /><circle cx="801.0" cy="308.6" r="4" fill="#6eb6ec" /><circle cx="810.8" cy="308.6" r="4" fill="#6eb6ec" /><circle cx="820.5" cy="308.6" r="4" fill="#6eb6ec" /><circle cx="830.3" cy="308.6" r="4" fill="#6eb6ec" /><circle cx="840.0" cy="308.6" r="4" fill="#6eb6ec" /><polyline points="80.0,305.8 89.7,305.8 99.5,305.8 109.2,305.8 119.0,305.8 128.7,305.8 138.5,305.8 148.2,305.8 157.9,305.8 167.7,305.8 177.4,304.9 187.2,304.9 196.9,304.9 206.7,304.9 216.4,304.9 226.2,304.9 235.9,304.9 245.6,304.9 255.4,304.9 265.1,304.9 274.9,304.9 284.6,304.9 294.4,304.9 304.1,304.9 313.8,304.9 323.6,304.9 333.3,304.9 343.1,304.9 352.8,304.9 362.6,304.9 372.3,304.9 382.1,304.9 391.8,304.9 401.5,304.9 411.3,304.9 421.0,304.9 430.8,304.9 440.5,303.6 450.3,303.6 460.0,303.6 469.7,303.6 479.5,303.6 489.2,303.6 499.0,303.6 508.7,303.6 518.5,303.6 528.2,303.6 537.9,303.6 547.7,303.6 557.4,303.6 567.2,303.6 576.9,302.9 586.7,302.9 596.4,298.0 606.2,298.0 615.9,298.0 625.6,298.0 635.4,298.0 645.1,298.0 654.9,298.0 664.6,298.0 674.4,298.0 684.1,298.0 693.8,298.0 703.6,298.0 713.3,298.0 723.1,298.0 732.8,297.8 742.6,297.8 752.3,297.8 762.1,297.8 771.8,297.8 781.5,297.8 791.3,297.8 801.0,297.8 810.8,297.8 820.5,297.8 830.3,297.8 840.0,297.8" fill="none" stroke="#5938e2" stroke-width="2.5" stroke-linecap="round" stroke-linejoin="round" /><circle cx="80.0" cy="305.8" r="4" fill="#5938e2" /><circle cx="89.7" cy="305.8" r="4" fill="#5938e2" /><circle cx="99.5" cy="305.8" r="4" fill="#5938e2" /><circle cx="109.2" cy="305.8" r="4" fill="#5938e2" /><circle cx="119.0" cy="305.8" r="4" fill="#5938e2" /><circle cx="128.7" cy="305.8" r="4" fill="#5938e2" /><circle cx="138.5" cy="305.8" r="4" fill="#5938e2" /><circle cx="148.2" cy="305.8" r="4" fill="#5938e2" /><circle cx="157.9" cy="305.8" r="4" fill="#5938e2" /><circle cx="167.7" cy="305.8" r="4" fill="#5938e2" /><circle cx="177.4" cy="304.9" r="4" fill="#5938e2" /><circle cx="187.2" cy="304.9" r="4" fill="#5938e2" /><circle cx="196.9" cy="304.9" r="4" fill="#5938e2" /><circle cx="206.7" cy="304.9" r="4" fill="#5938e2" /><circle cx="216.4" cy="304.9" r="4" fill="#5938e2" /><circle cx="226.2" cy="304.9" r="4" fill="#5938e2" /><circle cx="235.9" cy="304.9" r="4" fill="#5938e2" /><circle cx="245.6" cy="304.9" r="4" fill="#5938e2" /><circle cx="255.4" cy="304.9" r="4" fill="#5938e2" /><circle cx="265.1" cy="304.9" r="4" fill="#5938e2" /><circle cx="274.9" cy="304.9" r="4" fill="#5938e2" /><circle cx="284.6" cy="304.9" r="4" fill="#5938e2" /><circle cx="294.4" cy="304.9" r="4" fill="#5938e2" /><circle cx="304.1" cy="304.9" r="4" fill="#5938e2" /><circle cx="313.8" cy="304.9" r="4" fill="#5938e2" /><circle cx="323.6" cy="304.9" r="4" fill="#5938e2" /><circle cx="333.3" cy="304.9" r="4" fill="#5938e2" /><circle cx="343.1" cy="304.9" r="4" fill="#5938e2" /><circle cx="352.8" cy="304.9" r="4" fill="#5938e2" /><circle cx="362.6" cy="304.9" r="4" fill="#5938e2" /><circle cx="372.3" cy="304.9" r="4" fill="#5938e2" /><circle cx="382.1" cy="304.9" r="4" fill="#5938e2" /><circle cx="391.8" cy="304.9" r="4" fill="#5938e2" /><circle cx="401.5" cy="304.9" r="4" fill="#5938e2" /><circle cx="411.3" cy="304.9" r="4" fill="#5938e2" /><circle cx="421.0" cy="304.9" r="4" fill="#5938e2" /><circle cx="430.8" cy="304.9" r="4" fill="#5938e2" /><circle cx="440.5" cy="303.6" r="4" fill="#5938e2" /><circle cx="450.3" cy="303.6" r="4" fill="#5938e2" /><circle cx="460.0" cy="303.6" r="4" fill="#5938e2" /><circle cx="469.7" cy="303.6" r="4" fill="#5938e2" /><circle cx="479.5" cy="303.6" r="4" fill="#5938e2" /><circle cx="489.2" cy="303.6" r="4" fill="#5938e2" /><circle cx="499.0" cy="303.6" r="4" fill="#5938e2" /><circle cx="508.7" cy="303.6" r="4" fill="#5938e2" /><circle cx="518.5" cy="303.6" r="4" fill="#5938e2" /><circle cx="528.2" cy="303.6" r="4" fill="#5938e2" /><circle cx="537.9" cy="303.6" r="4" fill="#5938e2" /><circle cx="547.7" cy="303.6" r="4" fill="#5938e2" /><circle cx="557.4" cy="303.6" r="4" fill="#5938e2" /><circle cx="567.2" cy="303.6" r="4" fill="#5938e2" /><circle cx="576.9" cy="302.9" r="4" fill="#5938e2" /><circle cx="586.7" cy="302.9" r="4" fill="#5938e2" /><circle cx="596.4" cy="298.0" r="4" fill="#5938e2" /><circle cx="606.2" cy="298.0" r="4" fill="#5938e2" /><circle cx="615.9" cy="298.0" r="4" fill="#5938e2" /><circle cx="625.6" cy="298.0" r="4" fill="#5938e2" /><circle cx="635.4" cy="298.0" r="4" fill="#5938e2" /><circle cx="645.1" cy="298.0" r="4" fill="#5938e2" /><circle cx="654.9" cy="298.0" r="4" fill="#5938e2" /><circle cx="664.6" cy="298.0" r="4" fill="#5938e2" /><circle cx="674.4" cy="298.0" r="4" fill="#5938e2" /><circle cx="684.1" cy="298.0" r="4" fill="#5938e2" /><circle cx="693.8" cy="298.0" r="4" fill="#5938e2" /><circle cx="703.6" cy="298.0" r="4" fill="#5938e2" /><circle cx="713.3" cy="298.0" r="4" fill="#5938e2" /><circle cx="723.1" cy="298.0" r="4" fill="#5938e2" /><circle cx="732.8" cy="297.8" r="4" fill="#5938e2" /><circle cx="742.6" cy="297.8" r="4" fill="#5938e2" /><circle cx="752.3" cy="297.8" r="4" fill="#5938e2" /><circle cx="762.1" cy="297.8" r="4" fill="#5938e2" /><circle cx="771.8" cy="297.8" r="4" fill="#5938e2" /><circle cx="781.5" cy="297.8" r="4" fill="#5938e2" /><circle cx="791.3" cy="297.8" r="4" fill="#5938e2" /><circle cx="801.0" cy="297.8" r="4" fill="#5938e2" /><circle cx="810.8" cy="297.8" r="4" fill="#5938e2" /><circle cx="820.5" cy="297.8" r="4" fill="#5938e2" /><circle cx="830.3" cy="297.8" r="4" fill="#5938e2" /><circle cx="840.0" cy="297.8" r="4" fill="#5938e2" /><polyline points="80.0,144.6 89.7,140.1 99.5,139.9 109.2,139.8 119.0,139.8 128.7,139.6 138.5,139.6 148.2,139.6 157.9,139.6 167.7,139.6 177.4,138.4 187.2,138.4 196.9,138.4 206.7,138.4 216.4,138.4 226.2,138.4 235.9,138.4 245.6,137.4 255.4,137.4 265.1,137.4 274.9,137.4 284.6,137.4 294.4,137.4 304.1,137.4 313.8,137.4 323.6,137.4 333.3,137.4 343.1,137.4 352.8,131.2 362.6,131.2 372.3,130.8 382.1,130.4 391.8,126.9 401.5,126.9 411.3,126.9 421.0,126.9 430.8,126.9 440.5,126.9 450.3,126.9 460.0,126.9 469.7,126.9 479.5,126.8 489.2,122.1 499.0,120.4 508.7,120.4 518.5,120.4 528.2,120.4 537.9,120.4 547.7,119.4 557.4,119.4 567.2,119.4 576.9,119.4 586.7,119.1 596.4,118.8 606.2,118.8 615.9,117.8 625.6,117.8 635.4,117.8 645.1,115.8 654.9,115.8 664.6,115.0 674.4,115.0 684.1,115.0 693.8,115.0 703.6,115.0 713.3,115.0 723.1,115.0 732.8,113.9 742.6,111.8 752.3,111.8 762.1,111.8 771.8,111.8 781.5,111.8 791.3,111.8 801.0,111.8 810.8,111.8 820.5,111.8 830.3,111.8 840.0,110.6" fill="none" stroke="#60e5e0" stroke-width="2.5" stroke-linecap="round" stroke-linejoin="round" /><circle cx="80.0" cy="144.6" r="4" fill="#60e5e0" /><circle cx="89.7" cy="140.1" r="4" fill="#60e5e0" /><circle cx="99.5" cy="139.9" r="4" fill="#60e5e0" /><circle cx="109.2" cy="139.8" r="4" fill="#60e5e0" /><circle cx="119.0" cy="139.8" r="4" fill="#60e5e0" /><circle cx="128.7" cy="139.6" r="4" fill="#60e5e0" /><circle cx="138.5" cy="139.6" r="4" fill="#60e5e0" /><circle cx="148.2" cy="139.6" r="4" fill="#60e5e0" /><circle cx="157.9" cy="139.6" r="4" fill="#60e5e0" /><circle cx="167.7" cy="139.6" r="4" fill="#60e5e0" /><circle cx="177.4" cy="138.4" r="4" fill="#60e5e0" /><circle cx="187.2" cy="138.4" r="4" fill="#60e5e0" /><circle cx="196.9" cy="138.4" r="4" fill="#60e5e0" /><circle cx="206.7" cy="138.4" r="4" fill="#60e5e0" /><circle cx="216.4" cy="138.4" r="4" fill="#60e5e0" /><circle cx="226.2" cy="138.4" r="4" fill="#60e5e0" /><circle cx="235.9" cy="138.4" r="4" fill="#60e5e0" /><circle cx="245.6" cy="137.4" r="4" fill="#60e5e0" /><circle cx="255.4" cy="137.4" r="4" fill="#60e5e0" /><circle cx="265.1" cy="137.4" r="4" fill="#60e5e0" /><circle cx="274.9" cy="137.4" r="4" fill="#60e5e0" /><circle cx="284.6" cy="137.4" r="4" fill="#60e5e0" /><circle cx="294.4" cy="137.4" r="4" fill="#60e5e0" /><circle cx="304.1" cy="137.4" r="4" fill="#60e5e0" /><circle cx="313.8" cy="137.4" r="4" fill="#60e5e0" /><circle cx="323.6" cy="137.4" r="4" fill="#60e5e0" /><circle cx="333.3" cy="137.4" r="4" fill="#60e5e0" /><circle cx="343.1" cy="137.4" r="4" fill="#60e5e0" /><circle cx="352.8" cy="131.2" r="4" fill="#60e5e0" /><circle cx="362.6" cy="131.2" r="4" fill="#60e5e0" /><circle cx="372.3" cy="130.8" r="4" fill="#60e5e0" /><circle cx="382.1" cy="130.4" r="4" fill="#60e5e0" /><circle cx="391.8" cy="126.9" r="4" fill="#60e5e0" /><circle cx="401.5" cy="126.9" r="4" fill="#60e5e0" /><circle cx="411.3" cy="126.9" r="4" fill="#60e5e0" /><circle cx="421.0" cy="126.9" r="4" fill="#60e5e0" /><circle cx="430.8" cy="126.9" r="4" fill="#60e5e0" /><circle cx="440.5" cy="126.9" r="4" fill="#60e5e0" /><circle cx="450.3" cy="126.9" r="4" fill="#60e5e0" /><circle cx="460.0" cy="126.9" r="4" fill="#60e5e0" /><circle cx="469.7" cy="126.9" r="4" fill="#60e5e0" /><circle cx="479.5" cy="126.8" r="4" fill="#60e5e0" /><circle cx="489.2" cy="122.1" r="4" fill="#60e5e0" /><circle cx="499.0" cy="120.4" r="4" fill="#60e5e0" /><circle cx="508.7" cy="120.4" r="4" fill="#60e5e0" /><circle cx="518.5" cy="120.4" r="4" fill="#60e5e0" /><circle cx="528.2" cy="120.4" r="4" fill="#60e5e0" /><circle cx="537.9" cy="120.4" r="4" fill="#60e5e0" /><circle cx="547.7" cy="119.4" r="4" fill="#60e5e0" /><circle cx="557.4" cy="119.4" r="4" fill="#60e5e0" /><circle cx="567.2" cy="119.4" r="4" fill="#60e5e0" /><circle cx="576.9" cy="119.4" r="4" fill="#60e5e0" /><circle cx="586.7" cy="119.1" r="4" fill="#60e5e0" /><circle cx="596.4" cy="118.8" r="4" fill="#60e5e0" /><circle cx="606.2" cy="118.8" r="4" fill="#60e5e0" /><circle cx="615.9" cy="117.8" r="4" fill="#60e5e0" /><circle cx="625.6" cy="117.8" r="4" fill="#60e5e0" /><circle cx="635.4" cy="117.8" r="4" fill="#60e5e0" /><circle cx="645.1" cy="115.8" r="4" fill="#60e5e0" /><circle cx="654.9" cy="115.8" r="4" fill="#60e5e0" /><circle cx="664.6" cy="115.0" r="4" fill="#60e5e0" /><circle cx="674.4" cy="115.0" r="4" fill="#60e5e0" /><circle cx="684.1" cy="115.0" r="4" fill="#60e5e0" /><circle cx="693.8" cy="115.0" r="4" fill="#60e5e0" /><circle cx="703.6" cy="115.0" r="4" fill="#60e5e0" /><circle cx="713.3" cy="115.0" r="4" fill="#60e5e0" /><circle cx="723.1" cy="115.0" r="4" fill="#60e5e0" /><circle cx="732.8" cy="113.9" r="4" fill="#60e5e0" /><circle cx="742.6" cy="111.8" r="4" fill="#60e5e0" /><circle cx="752.3" cy="111.8" r="4" fill="#60e5e0" /><circle cx="762.1" cy="111.8" r="4" fill="#60e5e0" /><circle cx="771.8" cy="111.8" r="4" fill="#60e5e0" /><circle cx="781.5" cy="111.8" r="4" fill="#60e5e0" /><circle cx="791.3" cy="111.8" r="4" fill="#60e5e0" /><circle cx="801.0" cy="111.8" r="4" fill="#60e5e0" /><circle cx="810.8" cy="111.8" r="4" fill="#60e5e0" /><circle cx="820.5" cy="111.8" r="4" fill="#60e5e0" /><circle cx="830.3" cy="111.8" r="4" fill="#60e5e0" /><circle cx="840.0" cy="110.6" r="4" fill="#60e5e0" /><polyline points="80.0,314.6 89.7,314.4 99.5,314.2 109.2,314.2 119.0,314.2 128.7,314.1 138.5,314.1 148.2,314.1 157.9,314.1 167.7,314.1 177.4,314.0 187.2,314.0 196.9,314.0 206.7,314.0 216.4,314.0 226.2,314.0 235.9,314.0 245.6,314.0 255.4,314.0 265.1,314.0 274.9,314.0 284.6,314.0 294.4,314.0 304.1,314.0 313.8,314.0 323.6,314.0 333.3,314.0 343.1,314.0 352.8,314.0 362.6,314.0 372.3,314.0 382.1,314.0 391.8,314.0 401.5,314.0 411.3,314.0 421.0,314.0 430.8,314.0 440.5,314.0 450.3,314.0 460.0,314.0 469.7,314.0 479.5,313.9 489.2,313.6 499.0,313.4 508.7,313.4 518.5,313.4 528.2,313.4 537.9,313.4 547.7,313.1 557.4,313.1 567.2,313.1 576.9,313.1 586.7,313.1 596.4,313.0 606.2,313.0 615.9,312.9 625.6,312.9 635.4,312.9 645.1,312.8 654.9,312.8 664.6,312.6 674.4,312.6 684.1,312.6 693.8,312.6 703.6,312.6 713.3,312.6 723.1,312.6 732.8,312.5 742.6,312.1 752.3,312.1 762.1,312.1 771.8,312.1 781.5,312.1 791.3,312.1 801.0,312.1 810.8,312.1 820.5,312.1 830.3,312.1 840.0,312.0" fill="none" stroke="#567de1" stroke-width="2.5" stroke-linecap="round" stroke-linejoin="round" /><circle cx="80.0" cy="314.6" r="4" fill="#567de1" /><circle cx="89.7" cy="314.4" r="4" fill="#567de1" /><circle cx="99.5" cy="314.2" r="4" fill="#567de1" /><circle cx="109.2" cy="314.2" r="4" fill="#567de1" /><circle cx="119.0" cy="314.2" r="4" fill="#567de1" /><circle cx="128.7" cy="314.1" r="4" fill="#567de1" /><circle cx="138.5" cy="314.1" r="4" fill="#567de1" /><circle cx="148.2" cy="314.1" r="4" fill="#567de1" /><circle cx="157.9" cy="314.1" r="4" fill="#567de1" /><circle cx="167.7" cy="314.1" r="4" fill="#567de1" /><circle cx="177.4" cy="314.0" r="4" fill="#567de1" /><circle cx="187.2" cy="314.0" r="4" fill="#567de1" /><circle cx="196.9" cy="314.0" r="4" fill="#567de1" /><circle cx="206.7" cy="314.0" r="4" fill="#567de1" /><circle cx="216.4" cy="314.0" r="4" fill="#567de1" /><circle cx="226.2" cy="314.0" r="4" fill="#567de1" /><circle cx="235.9" cy="314.0" r="4" fill="#567de1" /><circle cx="245.6" cy="314.0" r="4" fill="#567de1" /><circle cx="255.4" cy="314.0" r="4" fill="#567de1" /><circle cx="265.1" cy="314.0" r="4" fill="#567de1" /><circle cx="274.9" cy="314.0" r="4" fill="#567de1" /><circle cx="284.6" cy="314.0" r="4" fill="#567de1" /><circle cx="294.4" cy="314.0" r="4" fill="#567de1" /><circle cx="304.1" cy="314.0" r="4" fill="#567de1" /><circle cx="313.8" cy="314.0" r="4" fill="#567de1" /><circle cx="323.6" cy="314.0" r="4" fill="#567de1" /><circle cx="333.3" cy="314.0" r="4" fill="#567de1" /><circle cx="343.1" cy="314.0" r="4" fill="#567de1" /><circle cx="352.8" cy="314.0" r="4" fill="#567de1" /><circle cx="362.6" cy="314.0" r="4" fill="#567de1" /><circle cx="372.3" cy="314.0" r="4" fill="#567de1" /><circle cx="382.1" cy="314.0" r="4" fill="#567de1" /><circle cx="391.8" cy="314.0" r="4" fill="#567de1" /><circle cx="401.5" cy="314.0" r="4" fill="#567de1" /><circle cx="411.3" cy="314.0" r="4" fill="#567de1" /><circle cx="421.0" cy="314.0" r="4" fill="#567de1" /><circle cx="430.8" cy="314.0" r="4" fill="#567de1" /><circle cx="440.5" cy="314.0" r="4" fill="#567de1" /><circle cx="450.3" cy="314.0" r="4" fill="#567de1" /><circle cx="460.0" cy="314.0" r="4" fill="#567de1" /><circle cx="469.7" cy="314.0" r="4" fill="#567de1" /><circle cx="479.5" cy="313.9" r="4" fill="#567de1" /><circle cx="489.2" cy="313.6" r="4" fill="#567de1" /><circle cx="499.0" cy="313.4" r="4" fill="#567de1" /><circle cx="508.7" cy="313.4" r="4" fill="#567de1" /><circle cx="518.5" cy="313.4" r="4" fill="#567de1" /><circle cx="528.2" cy="313.4" r="4" fill="#567de1" /><circle cx="537.9" cy="313.4" r="4" fill="#567de1" /><circle cx="547.7" cy="313.1" r="4" fill="#567de1" /><circle cx="557.4" cy="313.1" r="4" fill="#567de1" /><circle cx="567.2" cy="313.1" r="4" fill="#567de1" /><circle cx="576.9" cy="313.1" r="4" fill="#567de1" /><circle cx="586.7" cy="313.1" r="4" fill="#567de1" /><circle cx="596.4" cy="313.0" r="4" fill="#567de1" /><circle cx="606.2" cy="313.0" r="4" fill="#567de1" /><circle cx="615.9" cy="312.9" r="4" fill="#567de1" /><circle cx="625.6" cy="312.9" r="4" fill="#567de1" /><circle cx="635.4" cy="312.9" r="4" fill="#567de1" /><circle cx="645.1" cy="312.8" r="4" fill="#567de1" /><circle cx="654.9" cy="312.8" r="4" fill="#567de1" /><circle cx="664.6" cy="312.6" r="4" fill="#567de1" /><circle cx="674.4" cy="312.6" r="4" fill="#567de1" /><circle cx="684.1" cy="312.6" r="4" fill="#567de1" /><circle cx="693.8" cy="312.6" r="4" fill="#567de1" /><circle cx="703.6" cy="312.6" r="4" fill="#567de1" /><circle cx="713.3" cy="312.6" r="4" fill="#567de1" /><circle cx="723.1" cy="312.6" r="4" fill="#567de1" /><circle cx="732.8" cy="312.5" r="4" fill="#567de1" /><circle cx="742.6" cy="312.1" r="4" fill="#567de1" /><circle cx="752.3" cy="312.1" r="4" fill="#567de1" /><circle cx="762.1" cy="312.1" r="4" fill="#567de1" /><circle cx="771.8" cy="312.1" r="4" fill="#567de1" /><circle cx="781.5" cy="312.1" r="4" fill="#567de1" /><circle cx="791.3" cy="312.1" r="4" fill="#567de1" /><circle cx="801.0" cy="312.1" r="4" fill="#567de1" /><circle cx="810.8" cy="312.1" r="4" fill="#567de1" /><circle cx="820.5" cy="312.1" r="4" fill="#567de1" /><circle cx="830.3" cy="312.1" r="4" fill="#567de1" /><circle cx="840.0" cy="312.0" r="4" fill="#567de1" /><polyline points="80.0,303.9 89.7,304.2 99.5,304.4 109.2,304.4 119.0,304.4 128.7,304.4 138.5,304.4 148.2,304.4 157.9,304.4 167.7,304.4 177.4,304.4 187.2,304.4 196.9,304.4 206.7,304.4 216.4,304.4 226.2,304.4 235.9,304.4 245.6,304.4 255.4,304.4 265.1,304.4 274.9,304.4 284.6,304.4 294.4,304.4 304.1,304.4 313.8,304.4 323.6,304.4 333.3,304.4 343.1,304.4 352.8,299.1 362.6,299.1 372.3,299.1 382.1,298.9 391.8,295.6 401.5,295.6 411.3,295.6 421.0,295.6 430.8,295.6 440.5,295.6 450.3,295.6 460.0,295.6 469.7,295.6 479.5,295.8 489.2,295.9 499.0,295.9 508.7,295.9 518.5,295.9 528.2,295.9 537.9,295.9 547.7,295.9 557.4,295.9 567.2,295.9 576.9,295.9 586.7,295.9 596.4,295.9 606.2,295.9 615.9,295.9 625.6,295.9 635.4,295.9 645.1,295.8 654.9,295.8 664.6,295.9 674.4,295.9 684.1,295.9 693.8,295.9 703.6,295.9 713.3,295.9 723.1,295.9 732.8,296.0 742.6,296.4 752.3,296.4 762.1,296.4 771.8,296.4 781.5,296.4 791.3,296.4 801.0,296.4 810.8,296.4 820.5,296.4 830.3,296.4 840.0,296.5" fill="none" stroke="#9754dd" stroke-width="2.5" stroke-linecap="round" stroke-linejoin="round" /><circle cx="80.0" cy="303.9" r="4" fill="#9754dd" /><circle cx="89.7" cy="304.2" r="4" fill="#9754dd" /><circle cx="99.5" cy="304.4" r="4" fill="#9754dd" /><circle cx="109.2" cy="304.4" r="4" fill="#9754dd" /><circle cx="119.0" cy="304.4" r="4" fill="#9754dd" /><circle cx="128.7" cy="304.4" r="4" fill="#9754dd" /><circle cx="138.5" cy="304.4" r="4" fill="#9754dd" /><circle cx="148.2" cy="304.4" r="4" fill="#9754dd" /><circle cx="157.9" cy="304.4" r="4" fill="#9754dd" /><circle cx="167.7" cy="304.4" r="4" fill="#9754dd" /><circle cx="177.4" cy="304.4" r="4" fill="#9754dd" /><circle cx="187.2" cy="304.4" r="4" fill="#9754dd" /><circle cx="196.9" cy="304.4" r="4" fill="#9754dd" /><circle cx="206.7" cy="304.4" r="4" fill="#9754dd" /><circle cx="216.4" cy="304.4" r="4" fill="#9754dd" /><circle cx="226.2" cy="304.4" r="4" fill="#9754dd" /><circle cx="235.9" cy="304.4" r="4" fill="#9754dd" /><circle cx="245.6" cy="304.4" r="4" fill="#9754dd" /><circle cx="255.4" cy="304.4" r="4" fill="#9754dd" /><circle cx="265.1" cy="304.4" r="4" fill="#9754dd" /><circle cx="274.9" cy="304.4" r="4" fill="#9754dd" /><circle cx="284.6" cy="304.4" r="4" fill="#9754dd" /><circle cx="294.4" cy="304.4" r="4" fill="#9754dd" /><circle cx="304.1" cy="304.4" r="4" fill="#9754dd" /><circle cx="313.8" cy="304.4" r="4" fill="#9754dd" /><circle cx="323.6" cy="304.4" r="4" fill="#9754dd" /><circle cx="333.3" cy="304.4" r="4" fill="#9754dd" /><circle cx="343.1" cy="304.4" r="4" fill="#9754dd" /><circle cx="352.8" cy="299.1" r="4" fill="#9754dd" /><circle cx="362.6" cy="299.1" r="4" fill="#9754dd" /><circle cx="372.3" cy="299.1" r="4" fill="#9754dd" /><circle cx="382.1" cy="298.9" r="4" fill="#9754dd" /><circle cx="391.8" cy="295.6" r="4" fill="#9754dd" /><circle cx="401.5" cy="295.6" r="4" fill="#9754dd" /><circle cx="411.3" cy="295.6" r="4" fill="#9754dd" /><circle cx="421.0" cy="295.6" r="4" fill="#9754dd" /><circle cx="430.8" cy="295.6" r="4" fill="#9754dd" /><circle cx="440.5" cy="295.6" r="4" fill="#9754dd" /><circle cx="450.3" cy="295.6" r="4" fill="#9754dd" /><circle cx="460.0" cy="295.6" r="4" fill="#9754dd" /><circle cx="469.7" cy="295.6" r="4" fill="#9754dd" /><circle cx="479.5" cy="295.8" r="4" fill="#9754dd" /><circle cx="489.2" cy="295.9" r="4" fill="#9754dd" /><circle cx="499.0" cy="295.9" r="4" fill="#9754dd" /><circle cx="508.7" cy="295.9" r="4" fill="#9754dd" /><circle cx="518.5" cy="295.9" r="4" fill="#9754dd" /><circle cx="528.2" cy="295.9" r="4" fill="#9754dd" /><circle cx="537.9" cy="295.9" r="4" fill="#9754dd" /><circle cx="547.7" cy="295.9" r="4" fill="#9754dd" /><circle cx="557.4" cy="295.9" r="4" fill="#9754dd" /><circle cx="567.2" cy="295.9" r="4" fill="#9754dd" /><circle cx="576.9" cy="295.9" r="4" fill="#9754dd" /><circle cx="586.7" cy="295.9" r="4" fill="#9754dd" /><circle cx="596.4" cy="295.9" r="4" fill="#9754dd" /><circle cx="606.2" cy="295.9" r="4" fill="#9754dd" /><circle cx="615.9" cy="295.9" r="4" fill="#9754dd" /><circle cx="625.6" cy="295.9" r="4" fill="#9754dd" /><circle cx="635.4" cy="295.9" r="4" fill="#9754dd" /><circle cx="645.1" cy="295.8" r="4" fill="#9754dd" /><circle cx="654.9" cy="295.8" r="4" fill="#9754dd" /><circle cx="664.6" cy="295.9" r="4" fill="#9754dd" /><circle cx="674.4" cy="295.9" r="4" fill="#9754dd" /><circle cx="684.1" cy="295.9" r="4" fill="#9754dd" /><circle cx="693.8" cy="295.9" r="4" fill="#9754dd" /><circle cx="703.6" cy="295.9" r="4" fill="#9754dd" /><circle cx="713.3" cy="295.9" r="4" fill="#9754dd" /><circle cx="723.1" cy="295.9" r="4" fill="#9754dd" /><circle cx="732.8" cy="296.0" r="4" fill="#9754dd" /><circle cx="742.6" cy="296.4" r="4" fill="#9754dd" /><circle cx="752.3" cy="296.4" r="4" fill="#9754dd" /><circle cx="762.1" cy="296.4" r="4" fill="#9754dd" /><circle cx="771.8" cy="296.4" r="4" fill="#9754dd" /><circle cx="781.5" cy="296.4" r="4" fill="#9754dd" /><circle cx="791.3" cy="296.4" r="4" fill="#9754dd" /><circle cx="801.0" cy="296.4" r="4" fill="#9754dd" /><circle cx="810.8" cy="296.4" r="4" fill="#9754dd" /><circle cx="820.5" cy="296.4" r="4" fill="#9754dd" /><circle cx="830.3" cy="296.4" r="4" fill="#9754dd" /><circle cx="840.0" cy="296.5" r="4" fill="#9754dd" />
  <rect x="80" y="339" width="10" height="10" rx="2" ry="2" fill="#19e5a1" /><text x="96" y="348" class="legend-label">Stars</text><rect x="250" y="339" width="10" height="10" rx="2" ry="2" fill="#6eb6ec" /><text x="266" y="348" class="legend-label">Followers</text><rect x="420" y="339" width="10" height="10" rx="2" ry="2" fill="#5938e2" /><text x="436" y="348" class="legend-label">Following</text><rect x="590" y="339" width="10" height="10" rx="2" ry="2" fill="#60e5e0" /><text x="606" y="348" class="legend-label">Contributions</text><rect x="80" y="357" width="10" height="10" rx="2" ry="2" fill="#567de1" /><text x="96" y="366" class="legend-label">Pull Requests</text><rect x="250" y="357" width="10" height="10" rx="2" ry="2" fill="#9754dd" /><text x="266" y="366" class="legend-label">Issues</text>
</svg>
