<svg width="900" height="402" viewBox="0 0 900 402" xmlns="http://www.w3.org/2000/svg">
  <defs>
    <linearGradient id="history-gradient" x1="0%" y1="0%" x2="100%" y2="100%">
      <stop offset="0%" style="stop-color:#58a6ff;stop-opacity:1" />
      <stop offset="100%" style="stop-color:#a371f7;stop-opacity:1" />
    </linearGradient>
    <clipPath id="history-rounded">
      <rect x="0" y="0" width="900" height="402" rx="8" ry="8" />
    </clipPath>
  </defs>
  <style>
    .title {
      font-family: 'Segoe UI', Ubuntu, 'Helvetica Neue', sans-serif;
      font-size: 22px;
      font-weight: 700;
      fill: #58a6ff;
    }
    .subtitle {
      font-family: 'Segoe UI', Ubuntu, 'Helvetica Neue', sans-serif;
      font-size: 12px;
      font-weight: 500;
      fill: #8b949e;
    }
    .axis-label {
      font-family: 'Segoe UI', Ubuntu, 'Helvetica Neue', sans-serif;
      font-size: 10px;
      fill: #8b949e;
    }
    .grid-line {
      stroke: #30363d;
      stroke-width: 1;
      opacity: 0.3;
    }
    .legend-label {
      font-family: 'Segoe UI', Ubuntu, 'Helvetica Neue', sans-serif;
      font-size: 11px;
      fill: #c9d1d9;
      dominant-baseline: middle;
    }
  </style>
  <rect clip-path="url(#history-rounded)" width="100%" height="100%" fill="#0d1117" stroke="#30363d" stroke-width="1" />
  <rect x="0" y="396" width="900" height="6" fill="url(#history-gradient)" clip-path="url(#history-rounded)" />
  <text x="24" y="34" class="title">Leonardo Klein Stats History</text>
  <text x="24" y="54" class="subtitle">Period: 2026-02-20 to 2026-03-09</text>
  <text x="72" y="320.0" text-anchor="end" dominant-baseline="central" class="axis-label">0</text><text x="72" y="270.0" text-anchor="end" dominant-baseline="central" class="axis-label">400</text><text x="72" y="220.0" text-anchor="end" dominant-baseline="central" class="axis-label">800</text><text x="72" y="170.0" text-anchor="end" dominant-baseline="central" class="axis-label">1.2k</text><text x="72" y="120.0" text-anchor="end" dominant-baseline="central" class="axis-label">1.6k</text><text x="72" y="70.0" text-anchor="end" dominant-baseline="central" class="axis-label">2.0k</text>
  <text x="80.0" y="336" text-anchor="middle" class="axis-label">02-20</text><text x="151.5" y="336" text-anchor="middle" class="axis-label">02-22</text><text x="223.1" y="336" text-anchor="middle" class="axis-label">02-23</text><text x="294.6" y="336" text-anchor="middle" class="axis-label">02-25</text><text x="366.1" y="336" text-anchor="middle" class="axis-label">02-26</text><text x="437.6" y="336" text-anchor="middle" class="axis-label">02-28</text><text x="509.2" y="336" text-anchor="middle" class="axis-label">03-02</text><text x="580.7" y="336" text-anchor="middle" class="axis-label">03-03</text><text x="652.2" y="336" text-anchor="middle" class="axis-label">03-05</text><text x="723.8" y="336" text-anchor="middle" class="axis-label">03-06</text><text x="795.3" y="336" text-anchor="middle" class="axis-label">03-08</text><text x="840.0" y="336" text-anchor="middle" class="axis-label">03-09</text>
  <line x1="80" y1="320.0" x2="840" y2="320.0" class="grid-line" /><line x1="80" y1="270.0" x2="840" y2="270.0" class="grid-line" /><line x1="80" y1="220.0" x2="840" y2="220.0" class="grid-line" /><line x1="80" y1="170.0" x2="840" y2="170.0" class="grid-line" /><line x1="80" y1="120.0" x2="840" y2="120.0" class="grid-line" /><line x1="80" y1="70.0" x2="840" y2="70.0" class="grid-line" />
  <polyline points="80.0,317.0 88.9,317.0 97.9,317.0 106.8,317.0 115.8,317.0 124.7,317.0 133.6,317.0 142.6,317.0 151.5,317.0 160.5,317.0 169.4,317.0 178.4,317.0 187.3,317.0 196.2,317.0 205.2,317.0 214.1,317.0 223.1,317.0 232.0,317.0 240.9,317.0 249.9,317.0 258.8,317.0 267.8,317.0 276.7,317.0 285.6,317.0 294.6,317.0 303.5,317.0 312.5,317.0 321.4,317.0 330.4,317.0 339.3,317.0 348.2,317.0 357.2,317.0 366.1,317.0 375.1,317.0 384.0,317.0 392.9,317.0 401.9,317.0 410.8,317.0 419.8,317.0 428.7,317.0 437.6,317.0 446.6,317.0 455.5,317.0 464.5,317.0 473.4,317.0 482.4,317.0 491.3,317.0 500.2,317.0 509.2,317.0 518.1,317.0 527.1,317.0 536.0,317.0 544.9,317.0 553.9,317.0 562.8,317.0 571.8,317.0 580.7,317.0 589.6,317.0 598.6,317.0 607.5,317.0 616.5,317.0 625.4,317.0 634.4,317.0 643.3,317.0 652.2,317.0 661.2,317.0 670.1,317.0 679.1,317.0 688.0,317.0 696.9,317.0 705.9,317.0 714.8,317.0 723.8,317.0 732.7,317.0 741.6,317.0 750.6,317.0 759.5,317.0 768.5,317.0 777.4,317.0 786.4,317.0 795.3,317.0 804.2,317.0 813.2,317.0 822.1,317.0 831.1,317.0 840.0,317.0" fill="none" stroke="#19e5a1" stroke-width="2.5" stroke-linecap="round" stroke-linejoin="round" /><circle cx="80.0" cy="317.0" r="4" fill="#19e5a1" /><circle cx="88.9" cy="317.0" r="4" fill="#19e5a1" /><circle cx="97.9" cy="317.0" r="4" fill="#19e5a1" /><circle cx="106.8" cy="317.0" r="4" fill="#19e5a1" /><circle cx="115.8" cy="317.0" r="4" fill="#19e5a1" /><circle cx="124.7" cy="317.0" r="4" fill="#19e5a1" /><circle cx="133.6" cy="317.0" r="4" fill="#19e5a1" /><circle cx="142.6" cy="317.0" r="4" fill="#19e5a1" /><circle cx="151.5" cy="317.0" r="4" fill="#19e5a1" /><circle cx="160.5" cy="317.0" r="4" fill="#19e5a1" /><circle cx="169.4" cy="317.0" r="4" fill="#19e5a1" /><circle cx="178.4" cy="317.0" r="4" fill="#19e5a1" /><circle cx="187.3" cy="317.0" r="4" fill="#19e5a1" /><circle cx="196.2" cy="317.0" r="4" fill="#19e5a1" /><circle cx="205.2" cy="317.0" r="4" fill="#19e5a1" /><circle cx="214.1" cy="317.0" r="4" fill="#19e5a1" /><circle cx="223.1" cy="317.0" r="4" fill="#19e5a1" /><circle cx="232.0" cy="317.0" r="4" fill="#19e5a1" /><circle cx="240.9" cy="317.0" r="4" fill="#19e5a1" /><circle cx="249.9" cy="317.0" r="4" fill="#19e5a1" /><circle cx="258.8" cy="317.0" r="4" fill="#19e5a1" /><circle cx="267.8" cy="317.0" r="4" fill="#19e5a1" /><circle cx="276.7" cy="317.0" r="4" fill="#19e5a1" /><circle cx="285.6" cy="317.0" r="4" fill="#19e5a1" /><circle cx="294.6" cy="317.0" r="4" fill="#19e5a1" /><circle cx="303.5" cy="317.0" r="4" fill="#19e5a1" /><circle cx="312.5" cy="317.0" r="4" fill="#19e5a1" /><circle cx="321.4" cy="317.0" r="4" fill="#19e5a1" /><circle cx="330.4" cy="317.0" r="4" fill="#19e5a1" /><circle cx="339.3" cy="317.0" r="4" fill="#19e5a1" /><circle cx="348.2" cy="317.0" r="4" fill="#19e5a1" /><circle cx="357.2" cy="317.0" r="4" fill="#19e5a1" /><circle cx="366.1" cy="317.0" r="4" fill="#19e5a1" /><circle cx="375.1" cy="317.0" r="4" fill="#19e5a1" /><circle cx="384.0" cy="317.0" r="4" fill="#19e5a1" /><circle cx="392.9" cy="317.0" r="4" fill="#19e5a1" /><circle cx="401.9" cy="317.0" r="4" fill="#19e5a1" /><circle cx="410.8" cy="317.0" r="4" fill="#19e5a1" /><circle cx="419.8" cy="317.0" r="4" fill="#19e5a1" /><circle cx="428.7" cy="317.0" r="4" fill="#19e5a1" /><circle cx="437.6" cy="317.0" r="4" fill="#19e5a1" /><circle cx="446.6" cy="317.0" r="4" fill="#19e5a1" /><circle cx="455.5" cy="317.0" r="4" fill="#19e5a1" /><circle cx="464.5" cy="317.0" r="4" fill="#19e5a1" /><circle cx="473.4" cy="317.0" r="4" fill="#19e5a1" /><circle cx="482.4" cy="317.0" r="4" fill="#19e5a1" /><circle cx="491.3" cy="317.0" r="4" fill="#19e5a1" /><circle cx="500.2" cy="317.0" r="4" fill="#19e5a1" /><circle cx="509.2" cy="317.0" r="4" fill="#19e5a1" /><circle cx="518.1" cy="317.0" r="4" fill="#19e5a1" /><circle cx="527.1" cy="317.0" r="4" fill="#19e5a1" /><circle cx="536.0" cy="317.0" r="4" fill="#19e5a1" /><circle cx="544.9" cy="317.0" r="4" fill="#19e5a1" /><circle cx="553.9" cy="317.0" r="4" fill="#19e5a1" /><circle cx="562.8" cy="317.0" r="4" fill="#19e5a1" /><circle cx="571.8" cy="317.0" r="4" fill="#19e5a1" /><circle cx="580.7" cy="317.0" r="4" fill="#19e5a1" /><circle cx="589.6" cy="317.0" r="4" fill="#19e5a1" /><circle cx="598.6" cy="317.0" r="4" fill="#19e5a1" /><circle cx="607.5" cy="317.0" r="4" fill="#19e5a1" /><circle cx="616.5" cy="317.0" r="4" fill="#19e5a1" /><circle cx="625.4" cy="317.0" r="4" fill="#19e5a1" /><circle cx="634.4" cy="317.0" r="4" fill="#19e5a1" /><circle cx="643.3" cy="317.0" r="4" fill="#19e5a1" /><circle cx="652.2" cy="317.0" r="4" fill="#19e5a1" /><circle cx="661.2" cy="317.0" r="4" fill="#19e5a1" /><circle cx="670.1" cy="317.0" r="4" fill="#19e5a1" /><circle cx="679.1" cy="317.0" r="4" fill="#19e5a1" /><circle cx="688.0" cy="317.0" r="4" fill="#19e5a1" /><circle cx="696.9" cy="317.0" r="4" fill="#19e5a1" /><circle cx="705.9" cy="317.0" r="4" fill="#19e5a1" /><circle cx="714.8" cy="317.0" r="4" fill="#19e5a1" /><circle cx="723.8" cy="317.0" r="4" fill="#19e5a1" /><circle cx="732.7" cy="317.0" r="4" fill="#19e5a1" /><circle cx="741.6" cy="317.0" r="4" fill="#19e5a1" /><circle cx="750.6" cy="317.0" r="4" fill="#19e5a1" /><circle cx="759.5" cy="317.0" r="4" fill="#19e5a1" /><circle cx="768.5" cy="317.0" r="4" fill="#19e5a1" /><circle cx="777.4" cy="317.0" r="4" fill="#19e5a1" /><circle cx="786.4" cy="317.0" r="4" fill="#19e5a1" /><circle cx="795.3" cy="317.0" r="4" fill="#19e5a1" /><circle cx="804.2" cy="317.0" r="4" fill="#19e5a1" /><circle cx="813.2" cy="317.0" r="4" fill="#19e5a1" /><circle cx="822.1" cy="317.0" r="4" fill="#19e5a1" /><circle cx="831.1" cy="317.0" r="4" fill="#19e5a1" /><circle cx="840.0" cy="317.0" r="4" fill="#19e5a1" /><polyline points="80.0,313.2 88.9,312.2 97.9,312.1 106.8,312.4 115.8,312.4 124.7,312.4 133.6,312.1 142.6,312.0 151.5,311.9 160.5,311.9 169.4,311.8 178.4,311.8 187.3,311.5 196.2,311.5 205.2,311.5 214.1,311.2 223.1,311.2 232.0,311.1 240.9,311.1 249.9,311.1 258.8,310.9 267.8,311.0 276.7,310.8 285.6,310.8 294.6,310.8 303.5,310.8 312.5,310.4 321.4,310.2 330.4,310.4 339.3,310.4 348.2,310.4 357.2,310.4 366.1,310.4 375.1,310.2 384.0,310.2 392.9,310.1 401.9,310.1 410.8,309.8 419.8,309.6 428.7,309.6 437.6,309.6 446.6,309.6 455.5,309.5 464.5,309.4 473.4,309.4 482.4,309.4 491.3,309.4 500.2,309.2 509.2,309.2 518.1,309.2 527.1,309.4 536.0,309.4 544.9,309.5 553.9,309.2 562.8,309.2 571.8,309.4 580.7,309.2 589.6,309.2 598.6,309.2 607.5,309.2 616.5,309.2 625.4,309.1 634.4,309.1 643.3,309.1 652.2,309.1 661.2,309.0 670.1,309.0 679.1,308.9 688.0,308.9 696.9,308.9 705.9,308.6 714.8,308.6 723.8,308.6 732.7,308.6 741.6,308.6 750.6,308.6 759.5,308.6 768.5,308.6 777.4,308.6 786.4,308.6 795.3,308.6 804.2,308.6 813.2,308.6 822.1,307.8 831.1,307.8 840.0,307.6" fill="none" stroke="#6eb6ec" stroke-width="2.5" stroke-linecap="round" stroke-linejoin="round" /><circle cx="80.0" cy="313.2" r="4" fill="#6eb6ec" /><circle cx="88.9" cy="312.2" r="4" fill="#6eb6ec" /><circle cx="97.9" cy="312.1" r="4" fill="#6eb6ec" /><circle cx="106.8" cy="312.4" r="4" fill="#6eb6ec" /><circle cx="115.8" cy="312.4" r="4" fill="#6eb6ec" /><circle cx="124.7" cy="312.4" r="4" fill="#6eb6ec" /><circle cx="133.6" cy="312.1" r="4" fill="#6eb6ec" /><circle cx="142.6" cy="312.0" r="4" fill="#6eb6ec" /><circle cx="151.5" cy="311.9" r="4" fill="#6eb6ec" /><circle cx="160.5" cy="311.9" r="4" fill="#6eb6ec" /><circle cx="169.4" cy="311.8" r="4" fill="#6eb6ec" /><circle cx="178.4" cy="311.8" r="4" fill="#6eb6ec" /><circle cx="187.3" cy="311.5" r="4" fill="#6eb6ec" /><circle cx="196.2" cy="311.5" r="4" fill="#6eb6ec" /><circle cx="205.2" cy="311.5" r="4" fill="#6eb6ec" /><circle cx="214.1" cy="311.2" r="4" fill="#6eb6ec" /><circle cx="223.1" cy="311.2" r="4" fill="#6eb6ec" /><circle cx="232.0" cy="311.1" r="4" fill="#6eb6ec" /><circle cx="240.9" cy="311.1" r="4" fill="#6eb6ec" /><circle cx="249.9" cy="311.1" r="4" fill="#6eb6ec" /><circle cx="258.8" cy="310.9" r="4" fill="#6eb6ec" /><circle cx="267.8" cy="311.0" r="4" fill="#6eb6ec" /><circle cx="276.7" cy="310.8" r="4" fill="#6eb6ec" /><circle cx="285.6" cy="310.8" r="4" fill="#6eb6ec" /><circle cx="294.6" cy="310.8" r="4" fill="#6eb6ec" /><circle cx="303.5" cy="310.8" r="4" fill="#6eb6ec" /><circle cx="312.5" cy="310.4" r="4" fill="#6eb6ec" /><circle cx="321.4" cy="310.2" r="4" fill="#6eb6ec" /><circle cx="330.4" cy="310.4" r="4" fill="#6eb6ec" /><circle cx="339.3" cy="310.4" r="4" fill="#6eb6ec" /><circle cx="348.2" cy="310.4" r="4" fill="#6eb6ec" /><circle cx="357.2" cy="310.4" r="4" fill="#6eb6ec" /><circle cx="366.1" cy="310.4" r="4" fill="#6eb6ec" /><circle cx="375.1" cy="310.2" r="4" fill="#6eb6ec" /><circle cx="384.0" cy="310.2" r="4" fill="#6eb6ec" /><circle cx="392.9" cy="310.1" r="4" fill="#6eb6ec" /><circle cx="401.9" cy="310.1" r="4" fill="#6eb6ec" /><circle cx="410.8" cy="309.8" r="4" fill="#6eb6ec" /><circle cx="419.8" cy="309.6" r="4" fill="#6eb6ec" /><circle cx="428.7" cy="309.6" r="4" fill="#6eb6ec" /><circle cx="437.6" cy="309.6" r="4" fill="#6eb6ec" /><circle cx="446.6" cy="309.6" r="4" fill="#6eb6ec" /><circle cx="455.5" cy="309.5" r="4" fill="#6eb6ec" /><circle cx="464.5" cy="309.4" r="4" fill="#6eb6ec" /><circle cx="473.4" cy="309.4" r="4" fill="#6eb6ec" /><circle cx="482.4" cy="309.4" r="4" fill="#6eb6ec" /><circle cx="491.3" cy="309.4" r="4" fill="#6eb6ec" /><circle cx="500.2" cy="309.2" r="4" fill="#6eb6ec" /><circle cx="509.2" cy="309.2" r="4" fill="#6eb6ec" /><circle cx="518.1" cy="309.2" r="4" fill="#6eb6ec" /><circle cx="527.1" cy="309.4" r="4" fill="#6eb6ec" /><circle cx="536.0" cy="309.4" r="4" fill="#6eb6ec" /><circle cx="544.9" cy="309.5" r="4" fill="#6eb6ec" /><circle cx="553.9" cy="309.2" r="4" fill="#6eb6ec" /><circle cx="562.8" cy="309.2" r="4" fill="#6eb6ec" /><circle cx="571.8" cy="309.4" r="4" fill="#6eb6ec" /><circle cx="580.7" cy="309.2" r="4" fill="#6eb6ec" /><circle cx="589.6" cy="309.2" r="4" fill="#6eb6ec" /><circle cx="598.6" cy="309.2" r="4" fill="#6eb6ec" /><circle cx="607.5" cy="309.2" r="4" fill="#6eb6ec" /><circle cx="616.5" cy="309.2" r="4" fill="#6eb6ec" /><circle cx="625.4" cy="309.1" r="4" fill="#6eb6ec" /><circle cx="634.4" cy="309.1" r="4" fill="#6eb6ec" /><circle cx="643.3" cy="309.1" r="4" fill="#6eb6ec" /><circle cx="652.2" cy="309.1" r="4" fill="#6eb6ec" /><circle cx="661.2" cy="309.0" r="4" fill="#6eb6ec" /><circle cx="670.1" cy="309.0" r="4" fill="#6eb6ec" /><circle cx="679.1" cy="308.9" r="4" fill="#6eb6ec" /><circle cx="688.0" cy="308.9" r="4" fill="#6eb6ec" /><circle cx="696.9" cy="308.9" r="4" fill="#6eb6ec" /><circle cx="705.9" cy="308.6" r="4" fill="#6eb6ec" /><circle cx="714.8" cy="308.6" r="4" fill="#6eb6ec" /><circle cx="723.8" cy="308.6" r="4" fill="#6eb6ec" /><circle cx="732.7" cy="308.6" r="4" fill="#6eb6ec" /><circle cx="741.6" cy="308.6" r="4" fill="#6eb6ec" /><circle cx="750.6" cy="308.6" r="4" fill="#6eb6ec" /><circle cx="759.5" cy="308.6" r="4" fill="#6eb6ec" /><circle cx="768.5" cy="308.6" r="4" fill="#6eb6ec" /><circle cx="777.4" cy="308.6" r="4" fill="#6eb6ec" /><circle cx="786.4" cy="308.6" r="4" fill="#6eb6ec" /><circle cx="795.3" cy="308.6" r="4" fill="#6eb6ec" /><circle cx="804.2" cy="308.6" r="4" fill="#6eb6ec" /><circle cx="813.2" cy="308.6" r="4" fill="#6eb6ec" /><circle cx="822.1" cy="307.8" r="4" fill="#6eb6ec" /><circle cx="831.1" cy="307.8" r="4" fill="#6eb6ec" /><circle cx="840.0" cy="307.6" r="4" fill="#6eb6ec" /><polyline points="80.0,305.8 88.9,305.8 97.9,305.8 106.8,305.8 115.8,305.8 124.7,305.8 133.6,305.8 142.6,305.8 151.5,305.8 160.5,305.8 169.4,304.9 178.4,304.9 187.3,304.9 196.2,304.9 205.2,304.9 214.1,304.9 223.1,304.9 232.0,304.9 240.9,304.9 249.9,304.9 258.8,304.9 267.8,304.9 276.7,304.9 285.6,304.9 294.6,304.9 303.5,304.9 312.5,304.9 321.4,304.9 330.4,304.9 339.3,304.9 348.2,304.9 357.2,304.9 366.1,304.9 375.1,304.9 384.0,304.9 392.9,304.9 401.9,304.9 410.8,303.6 419.8,303.6 428.7,303.6 437.6,303.6 446.6,303.6 455.5,303.6 464.5,303.6 473.4,303.6 482.4,303.6 491.3,303.6 500.2,303.6 509.2,303.6 518.1,303.6 527.1,303.6 536.0,302.9 544.9,302.9 553.9,298.0 562.8,298.0 571.8,298.0 580.7,298.0 589.6,298.0 598.6,298.0 607.5,298.0 616.5,298.0 625.4,298.0 634.4,298.0 643.3,298.0 652.2,298.0 661.2,298.0 670.1,298.0 679.1,297.8 688.0,297.8 696.9,297.8 705.9,297.8 714.8,297.8 723.8,297.8 732.7,297.8 741.6,297.8 750.6,297.8 759.5,297.8 768.5,297.8 777.4,297.8 786.4,297.8 795.3,297.8 804.2,297.8 813.2,297.8 822.1,297.8 831.1,297.8 840.0,297.8" fill="none" stroke="#5938e2" stroke-width="2.5" stroke-linecap="round" stroke-linejoin="round" /><circle cx="80.0" cy="305.8" r="4" fill="#5938e2" /><circle cx="88.9" cy="305.8" r="4" fill="#5938e2" /><circle cx="97.9" cy="305.8" r="4" fill="#5938e2" /><circle cx="106.8" cy="305.8" r="4" fill="#5938e2" /><circle cx="115.8" cy="305.8" r="4" fill="#5938e2" /><circle cx="124.7" cy="305.8" r="4" fill="#5938e2" /><circle cx="133.6" cy="305.8" r="4" fill="#5938e2" /><circle cx="142.6" cy="305.8" r="4" fill="#5938e2" /><circle cx="151.5" cy="305.8" r="4" fill="#5938e2" /><circle cx="160.5" cy="305.8" r="4" fill="#5938e2" /><circle cx="169.4" cy="304.9" r="4" fill="#5938e2" /><circle cx="178.4" cy="304.9" r="4" fill="#5938e2" /><circle cx="187.3" cy="304.9" r="4" fill="#5938e2" /><circle cx="196.2" cy="304.9" r="4" fill="#5938e2" /><circle cx="205.2" cy="304.9" r="4" fill="#5938e2" /><circle cx="214.1" cy="304.9" r="4" fill="#5938e2" /><circle cx="223.1" cy="304.9" r="4" fill="#5938e2" /><circle cx="232.0" cy="304.9" r="4" fill="#5938e2" /><circle cx="240.9" cy="304.9" r="4" fill="#5938e2" /><circle cx="249.9" cy="304.9" r="4" fill="#5938e2" /><circle cx="258.8" cy="304.9" r="4" fill="#5938e2" /><circle cx="267.8" cy="304.9" r="4" fill="#5938e2" /><circle cx="276.7" cy="304.9" r="4" fill="#5938e2" /><circle cx="285.6" cy="304.9" r="4" fill="#5938e2" /><circle cx="294.6" cy="304.9" r="4" fill="#5938e2" /><circle cx="303.5" cy="304.9" r="4" fill="#5938e2" /><circle cx="312.5" cy="304.9" r="4" fill="#5938e2" /><circle cx="321.4" cy="304.9" r="4" fill="#5938e2" /><circle cx="330.4" cy="304.9" r="4" fill="#5938e2" /><circle cx="339.3" cy="304.9" r="4" fill="#5938e2" /><circle cx="348.2" cy="304.9" r="4" fill="#5938e2" /><circle cx="357.2" cy="304.9" r="4" fill="#5938e2" /><circle cx="366.1" cy="304.9" r="4" fill="#5938e2" /><circle cx="375.1" cy="304.9" r="4" fill="#5938e2" /><circle cx="384.0" cy="304.9" r="4" fill="#5938e2" /><circle cx="392.9" cy="304.9" r="4" fill="#5938e2" /><circle cx="401.9" cy="304.9" r="4" fill="#5938e2" /><circle cx="410.8" cy="303.6" r="4" fill="#5938e2" /><circle cx="419.8" cy="303.6" r="4" fill="#5938e2" /><circle cx="428.7" cy="303.6" r="4" fill="#5938e2" /><circle cx="437.6" cy="303.6" r="4" fill="#5938e2" /><circle cx="446.6" cy="303.6" r="4" fill="#5938e2" /><circle cx="455.5" cy="303.6" r="4" fill="#5938e2" /><circle cx="464.5" cy="303.6" r="4" fill="#5938e2" /><circle cx="473.4" cy="303.6" r="4" fill="#5938e2" /><circle cx="482.4" cy="303.6" r="4" fill="#5938e2" /><circle cx="491.3" cy="303.6" r="4" fill="#5938e2" /><circle cx="500.2" cy="303.6" r="4" fill="#5938e2" /><circle cx="509.2" cy="303.6" r="4" fill="#5938e2" /><circle cx="518.1" cy="303.6" r="4" fill="#5938e2" /><circle cx="527.1" cy="303.6" r="4" fill="#5938e2" /><circle cx="536.0" cy="302.9" r="4" fill="#5938e2" /><circle cx="544.9" cy="302.9" r="4" fill="#5938e2" /><circle cx="553.9" cy="298.0" r="4" fill="#5938e2" /><circle cx="562.8" cy="298.0" r="4" fill="#5938e2" /><circle cx="571.8" cy="298.0" r="4" fill="#5938e2" /><circle cx="580.7" cy="298.0" r="4" fill="#5938e2" /><circle cx="589.6" cy="298.0" r="4" fill="#5938e2" /><circle cx="598.6" cy="298.0" r="4" fill="#5938e2" /><circle cx="607.5" cy="298.0" r="4" fill="#5938e2" /><circle cx="616.5" cy="298.0" r="4" fill="#5938e2" /><circle cx="625.4" cy="298.0" r="4" fill="#5938e2" /><circle cx="634.4" cy="298.0" r="4" fill="#5938e2" /><circle cx="643.3" cy="298.0" r="4" fill="#5938e2" /><circle cx="652.2" cy="298.0" r="4" fill="#5938e2" /><circle cx="661.2" cy="298.0" r="4" fill="#5938e2" /><circle cx="670.1" cy="298.0" r="4" fill="#5938e2" /><circle cx="679.1" cy="297.8" r="4" fill="#5938e2" /><circle cx="688.0" cy="297.8" r="4" fill="#5938e2" /><circle cx="696.9" cy="297.8" r="4" fill="#5938e2" /><circle cx="705.9" cy="297.8" r="4" fill="#5938e2" /><circle cx="714.8" cy="297.8" r="4" fill="#5938e2" /><circle cx="723.8" cy="297.8" r="4" fill="#5938e2" /><circle cx="732.7" cy="297.8" r="4" fill="#5938e2" /><circle cx="741.6" cy="297.8" r="4" fill="#5938e2" /><circle cx="750.6" cy="297.8" r="4" fill="#5938e2" /><circle cx="759.5" cy="297.8" r="4" fill="#5938e2" /><circle cx="768.5" cy="297.8" r="4" fill="#5938e2" /><circle cx="777.4" cy="297.8" r="4" fill="#5938e2" /><circle cx="786.4" cy="297.8" r="4" fill="#5938e2" /><circle cx="795.3" cy="297.8" r="4" fill="#5938e2" /><circle cx="804.2" cy="297.8" r="4" fill="#5938e2" /><circle cx="813.2" cy="297.8" r="4" fill="#5938e2" /><circle cx="822.1" cy="297.8" r="4" fill="#5938e2" /><circle cx="831.1" cy="297.8" r="4" fill="#5938e2" /><circle cx="840.0" cy="297.8" r="4" fill="#5938e2" /><polyline points="80.0,144.6 88.9,140.1 97.9,139.9 106.8,139.8 115.8,139.8 124.7,139.6 133.6,139.6 142.6,139.6 151.5,139.6 160.5,139.6 169.4,138.4 178.4,138.4 187.3,138.4 196.2,138.4 205.2,138.4 214.1,138.4 223.1,138.4 232.0,137.4 240.9,137.4 249.9,137.4 258.8,137.4 267.8,137.4 276.7,137.4 285.6,137.4 294.6,137.4 303.5,137.4 312.5,137.4 321.4,137.4 330.4,131.2 339.3,131.2 348.2,130.8 357.2,130.4 366.1,126.9 375.1,126.9 384.0,126.9 392.9,126.9 401.9,126.9 410.8,126.9 419.8,126.9 428.7,126.9 437.6,126.9 446.6,126.8 455.5,122.1 464.5,120.4 473.4,120.4 482.4,120.4 491.3,120.4 500.2,120.4 509.2,119.4 518.1,119.4 527.1,119.4 536.0,119.4 544.9,119.1 553.9,118.8 562.8,118.8 571.8,117.8 580.7,117.8 589.6,117.8 598.6,115.8 607.5,115.8 616.5,115.0 625.4,115.0 634.4,115.0 643.3,115.0 652.2,115.0 661.2,115.0 670.1,115.0 679.1,113.9 688.0,111.8 696.9,111.8 705.9,111.8 714.8,111.8 723.8,111.8 732.7,111.8 741.6,111.8 750.6,111.8 759.5,111.8 768.5,111.8 777.4,110.6 786.4,110.6 795.3,110.6 804.2,110.6 813.2,110.6 822.1,109.4 831.1,109.4 840.0,109.4" fill="none" stroke="#60e5e0" stroke-width="2.5" stroke-linecap="round" stroke-linejoin="round" /><circle cx="80.0" cy="144.6" r="4" fill="#60e5e0" /><circle cx="88.9" cy="140.1" r="4" fill="#60e5e0" /><circle cx="97.9" cy="139.9" r="4" fill="#60e5e0" /><circle cx="106.8" cy="139.8" r="4" fill="#60e5e0" /><circle cx="115.8" cy="139.8" r="4" fill="#60e5e0" /><circle cx="124.7" cy="139.6" r="4" fill="#60e5e0" /><circle cx="133.6" cy="139.6" r="4" fill="#60e5e0" /><circle cx="142.6" cy="139.6" r="4" fill="#60e5e0" /><circle cx="151.5" cy="139.6" r="4" fill="#60e5e0" /><circle cx="160.5" cy="139.6" r="4" fill="#60e5e0" /><circle cx="169.4" cy="138.4" r="4" fill="#60e5e0" /><circle cx="178.4" cy="138.4" r="4" fill="#60e5e0" /><circle cx="187.3" cy="138.4" r="4" fill="#60e5e0" /><circle cx="196.2" cy="138.4" r="4" fill="#60e5e0" /><circle cx="205.2" cy="138.4" r="4" fill="#60e5e0" /><circle cx="214.1" cy="138.4" r="4" fill="#60e5e0" /><circle cx="223.1" cy="138.4" r="4" fill="#60e5e0" /><circle cx="232.0" cy="137.4" r="4" fill="#60e5e0" /><circle cx="240.9" cy="137.4" r="4" fill="#60e5e0" /><circle cx="249.9" cy="137.4" r="4" fill="#60e5e0" /><circle cx="258.8" cy="137.4" r="4" fill="#60e5e0" /><circle cx="267.8" cy="137.4" r="4" fill="#60e5e0" /><circle cx="276.7" cy="137.4" r="4" fill="#60e5e0" /><circle cx="285.6" cy="137.4" r="4" fill="#60e5e0" /><circle cx="294.6" cy="137.4" r="4" fill="#60e5e0" /><circle cx="303.5" cy="137.4" r="4" fill="#60e5e0" /><circle cx="312.5" cy="137.4" r="4" fill="#60e5e0" /><circle cx="321.4" cy="137.4" r="4" fill="#60e5e0" /><circle cx="330.4" cy="131.2" r="4" fill="#60e5e0" /><circle cx="339.3" cy="131.2" r="4" fill="#60e5e0" /><circle cx="348.2" cy="130.8" r="4" fill="#60e5e0" /><circle cx="357.2" cy="130.4" r="4" fill="#60e5e0" /><circle cx="366.1" cy="126.9" r="4" fill="#60e5e0" /><circle cx="375.1" cy="126.9" r="4" fill="#60e5e0" /><circle cx="384.0" cy="126.9" r="4" fill="#60e5e0" /><circle cx="392.9" cy="126.9" r="4" fill="#60e5e0" /><circle cx="401.9" cy="126.9" r="4" fill="#60e5e0" /><circle cx="410.8" cy="126.9" r="4" fill="#60e5e0" /><circle cx="419.8" cy="126.9" r="4" fill="#60e5e0" /><circle cx="428.7" cy="126.9" r="4" fill="#60e5e0" /><circle cx="437.6" cy="126.9" r="4" fill="#60e5e0" /><circle cx="446.6" cy="126.8" r="4" fill="#60e5e0" /><circle cx="455.5" cy="122.1" r="4" fill="#60e5e0" /><circle cx="464.5" cy="120.4" r="4" fill="#60e5e0" /><circle cx="473.4" cy="120.4" r="4" fill="#60e5e0" /><circle cx="482.4" cy="120.4" r="4" fill="#60e5e0" /><circle cx="491.3" cy="120.4" r="4" fill="#60e5e0" /><circle cx="500.2" cy="120.4" r="4" fill="#60e5e0" /><circle cx="509.2" cy="119.4" r="4" fill="#60e5e0" /><circle cx="518.1" cy="119.4" r="4" fill="#60e5e0" /><circle cx="527.1" cy="119.4" r="4" fill="#60e5e0" /><circle cx="536.0" cy="119.4" r="4" fill="#60e5e0" /><circle cx="544.9" cy="119.1" r="4" fill="#60e5e0" /><circle cx="553.9" cy="118.8" r="4" fill="#60e5e0" /><circle cx="562.8" cy="118.8" r="4" fill="#60e5e0" /><circle cx="571.8" cy="117.8" r="4" fill="#60e5e0" /><circle cx="580.7" cy="117.8" r="4" fill="#60e5e0" /><circle cx="589.6" cy="117.8" r="4" fill="#60e5e0" /><circle cx="598.6" cy="115.8" r="4" fill="#60e5e0" /><circle cx="607.5" cy="115.8" r="4" fill="#60e5e0" /><circle cx="616.5" cy="115.0" r="4" fill="#60e5e0" /><circle cx="625.4" cy="115.0" r="4" fill="#60e5e0" /><circle cx="634.4" cy="115.0" r="4" fill="#60e5e0" /><circle cx="643.3" cy="115.0" r="4" fill="#60e5e0" /><circle cx="652.2" cy="115.0" r="4" fill="#60e5e0" /><circle cx="661.2" cy="115.0" r="4" fill="#60e5e0" /><circle cx="670.1" cy="115.0" r="4" fill="#60e5e0" /><circle cx="679.1" cy="113.9" r="4" fill="#60e5e0" /><circle cx="688.0" cy="111.8" r="4" fill="#60e5e0" /><circle cx="696.9" cy="111.8" r="4" fill="#60e5e0" /><circle cx="705.9" cy="111.8" r="4" fill="#60e5e0" /><circle cx="714.8" cy="111.8" r="4" fill="#60e5e0" /><circle cx="723.8" cy="111.8" r="4" fill="#60e5e0" /><circle cx="732.7" cy="111.8" r="4" fill="#60e5e0" /><circle cx="741.6" cy="111.8" r="4" fill="#60e5e0" /><circle cx="750.6" cy="111.8" r="4" fill="#60e5e0" /><circle cx="759.5" cy="111.8" r="4" fill="#60e5e0" /><circle cx="768.5" cy="111.8" r="4" fill="#60e5e0" /><circle cx="777.4" cy="110.6" r="4" fill="#60e5e0" /><circle cx="786.4" cy="110.6" r="4" fill="#60e5e0" /><circle cx="795.3" cy="110.6" r="4" fill="#60e5e0" /><circle cx="804.2" cy="110.6" r="4" fill="#60e5e0" /><circle cx="813.2" cy="110.6" r="4" fill="#60e5e0" /><circle cx="822.1" cy="109.4" r="4" fill="#60e5e0" /><circle cx="831.1" cy="109.4" r="4" fill="#60e5e0" /><circle cx="840.0" cy="109.4" r="4" fill="#60e5e0" /><polyline points="80.0,314.6 88.9,314.4 97.9,314.2 106.8,314.2 115.8,314.2 124.7,314.1 133.6,314.1 142.6,314.1 151.5,314.1 160.5,314.1 169.4,314.0 178.4,314.0 187.3,314.0 196.2,314.0 205.2,314.0 214.1,314.0 223.1,314.0 232.0,314.0 240.9,314.0 249.9,314.0 258.8,314.0 267.8,314.0 276.7,314.0 285.6,314.0 294.6,314.0 303.5,314.0 312.5,314.0 321.4,314.0 330.4,314.0 339.3,314.0 348.2,314.0 357.2,314.0 366.1,314.0 375.1,314.0 384.0,314.0 392.9,314.0 401.9,314.0 410.8,314.0 419.8,314.0 428.7,314.0 437.6,314.0 446.6,313.9 455.5,313.6 464.5,313.4 473.4,313.4 482.4,313.4 491.3,313.4 500.2,313.4 509.2,313.1 518.1,313.1 527.1,313.1 536.0,313.1 544.9,313.1 553.9,313.0 562.8,313.0 571.8,312.9 580.7,312.9 589.6,312.9 598.6,312.8 607.5,312.8 616.5,312.6 625.4,312.6 634.4,312.6 643.3,312.6 652.2,312.6 661.2,312.6 670.1,312.6 679.1,312.5 688.0,312.1 696.9,312.1 705.9,312.1 714.8,312.1 723.8,312.1 732.7,312.1 741.6,312.1 750.6,312.1 759.5,312.1 768.5,312.1 777.4,312.0 786.4,312.0 795.3,312.0 804.2,312.0 813.2,312.0 822.1,312.0 831.1,312.0 840.0,312.0" fill="none" stroke="#567de1" stroke-width="2.5" stroke-linecap="round" stroke-linejoin="round" /><circle cx="80.0" cy="314.6" r="4" fill="#567de1" /><circle cx="88.9" cy="314.4" r="4" fill="#567de1" /><circle cx="97.9" cy="314.2" r="4" fill="#567de1" /><circle cx="106.8" cy="314.2" r="4" fill="#567de1" /><circle cx="115.8" cy="314.2" r="4" fill="#567de1" /><circle cx="124.7" cy="314.1" r="4" fill="#567de1" /><circle cx="133.6" cy="314.1" r="4" fill="#567de1" /><circle cx="142.6" cy="314.1" r="4" fill="#567de1" /><circle cx="151.5" cy="314.1" r="4" fill="#567de1" /><circle cx="160.5" cy="314.1" r="4" fill="#567de1" /><circle cx="169.4" cy="314.0" r="4" fill="#567de1" /><circle cx="178.4" cy="314.0" r="4" fill="#567de1" /><circle cx="187.3" cy="314.0" r="4" fill="#567de1" /><circle cx="196.2" cy="314.0" r="4" fill="#567de1" /><circle cx="205.2" cy="314.0" r="4" fill="#567de1" /><circle cx="214.1" cy="314.0" r="4" fill="#567de1" /><circle cx="223.1" cy="314.0" r="4" fill="#567de1" /><circle cx="232.0" cy="314.0" r="4" fill="#567de1" /><circle cx="240.9" cy="314.0" r="4" fill="#567de1" /><circle cx="249.9" cy="314.0" r="4" fill="#567de1" /><circle cx="258.8" cy="314.0" r="4" fill="#567de1" /><circle cx="267.8" cy="314.0" r="4" fill="#567de1" /><circle cx="276.7" cy="314.0" r="4" fill="#567de1" /><circle cx="285.6" cy="314.0" r="4" fill="#567de1" /><circle cx="294.6" cy="314.0" r="4" fill="#567de1" /><circle cx="303.5" cy="314.0" r="4" fill="#567de1" /><circle cx="312.5" cy="314.0" r="4" fill="#567de1" /><circle cx="321.4" cy="314.0" r="4" fill="#567de1" /><circle cx="330.4" cy="314.0" r="4" fill="#567de1" /><circle cx="339.3" cy="314.0" r="4" fill="#567de1" /><circle cx="348.2" cy="314.0" r="4" fill="#567de1" /><circle cx="357.2" cy="314.0" r="4" fill="#567de1" /><circle cx="366.1" cy="314.0" r="4" fill="#567de1" /><circle cx="375.1" cy="314.0" r="4" fill="#567de1" /><circle cx="384.0" cy="314.0" r="4" fill="#567de1" /><circle cx="392.9" cy="314.0" r="4" fill="#567de1" /><circle cx="401.9" cy="314.0" r="4" fill="#567de1" /><circle cx="410.8" cy="314.0" r="4" fill="#567de1" /><circle cx="419.8" cy="314.0" r="4" fill="#567de1" /><circle cx="428.7" cy="314.0" r="4" fill="#567de1" /><circle cx="437.6" cy="314.0" r="4" fill="#567de1" /><circle cx="446.6" cy="313.9" r="4" fill="#567de1" /><circle cx="455.5" cy="313.6" r="4" fill="#567de1" /><circle cx="464.5" cy="313.4" r="4" fill="#567de1" /><circle cx="473.4" cy="313.4" r="4" fill="#567de1" /><circle cx="482.4" cy="313.4" r="4" fill="#567de1" /><circle cx="491.3" cy="313.4" r="4" fill="#567de1" /><circle cx="500.2" cy="313.4" r="4" fill="#567de1" /><circle cx="509.2" cy="313.1" r="4" fill="#567de1" /><circle cx="518.1" cy="313.1" r="4" fill="#567de1" /><circle cx="527.1" cy="313.1" r="4" fill="#567de1" /><circle cx="536.0" cy="313.1" r="4" fill="#567de1" /><circle cx="544.9" cy="313.1" r="4" fill="#567de1" /><circle cx="553.9" cy="313.0" r="4" fill="#567de1" /><circle cx="562.8" cy="313.0" r="4" fill="#567de1" /><circle cx="571.8" cy="312.9" r="4" fill="#567de1" /><circle cx="580.7" cy="312.9" r="4" fill="#567de1" /><circle cx="589.6" cy="312.9" r="4" fill="#567de1" /><circle cx="598.6" cy="312.8" r="4" fill="#567de1" /><circle cx="607.5" cy="312.8" r="4" fill="#567de1" /><circle cx="616.5" cy="312.6" r="4" fill="#567de1" /><circle cx="625.4" cy="312.6" r="4" fill="#567de1" /><circle cx="634.4" cy="312.6" r="4" fill="#567de1" /><circle cx="643.3" cy="312.6" r="4" fill="#567de1" /><circle cx="652.2" cy="312.6" r="4" fill="#567de1" /><circle cx="661.2" cy="312.6" r="4" fill="#567de1" /><circle cx="670.1" cy="312.6" r="4" fill="#567de1" /><circle cx="679.1" cy="312.5" r="4" fill="#567de1" /><circle cx="688.0" cy="312.1" r="4" fill="#567de1" /><circle cx="696.9" cy="312.1" r="4" fill="#567de1" /><circle cx="705.9" cy="312.1" r="4" fill="#567de1" /><circle cx="714.8" cy="312.1" r="4" fill="#567de1" /><circle cx="723.8" cy="312.1" r="4" fill="#567de1" /><circle cx="732.7" cy="312.1" r="4" fill="#567de1" /><circle cx="741.6" cy="312.1" r="4" fill="#567de1" /><circle cx="750.6" cy="312.1" r="4" fill="#567de1" /><circle cx="759.5" cy="312.1" r="4" fill="#567de1" /><circle cx="768.5" cy="312.1" r="4" fill="#567de1" /><circle cx="777.4" cy="312.0" r="4" fill="#567de1" /><circle cx="786.4" cy="312.0" r="4" fill="#567de1" /><circle cx="795.3" cy="312.0" r="4" fill="#567de1" /><circle cx="804.2" cy="312.0" r="4" fill="#567de1" /><circle cx="813.2" cy="312.0" r="4" fill="#567de1" /><circle cx="822.1" cy="312.0" r="4" fill="#567de1" /><circle cx="831.1" cy="312.0" r="4" fill="#567de1" /><circle cx="840.0" cy="312.0" r="4" fill="#567de1" /><polyline points="80.0,303.9 88.9,304.2 97.9,304.4 106.8,304.4 115.8,304.4 124.7,304.4 133.6,304.4 142.6,304.4 151.5,304.4 160.5,304.4 169.4,304.4 178.4,304.4 187.3,304.4 196.2,304.4 205.2,304.4 214.1,304.4 223.1,304.4 232.0,304.4 240.9,304.4 249.9,304.4 258.8,304.4 267.8,304.4 276.7,304.4 285.6,304.4 294.6,304.4 303.5,304.4 312.5,304.4 321.4,304.4 330.4,299.1 339.3,299.1 348.2,299.1 357.2,298.9 366.1,295.6 375.1,295.6 384.0,295.6 392.9,295.6 401.9,295.6 410.8,295.6 419.8,295.6 428.7,295.6 437.6,295.6 446.6,295.8 455.5,295.9 464.5,295.9 473.4,295.9 482.4,295.9 491.3,295.9 500.2,295.9 509.2,295.9 518.1,295.9 527.1,295.9 536.0,295.9 544.9,295.9 553.9,295.9 562.8,295.9 571.8,295.9 580.7,295.9 589.6,295.9 598.6,295.8 607.5,295.8 616.5,295.9 625.4,295.9 634.4,295.9 643.3,295.9 652.2,295.9 661.2,295.9 670.1,295.9 679.1,296.0 688.0,296.4 696.9,296.4 705.9,296.4 714.8,296.4 723.8,296.4 732.7,296.4 741.6,296.4 750.6,296.4 759.5,296.4 768.5,296.4 777.4,296.5 786.4,296.5 795.3,296.5 804.2,296.5 813.2,296.5 822.1,296.5 831.1,296.5 840.0,296.5" fill="none" stroke="#9754dd" stroke-width="2.5" stroke-linecap="round" stroke-linejoin="round" /><circle cx="80.0" cy="303.9" r="4" fill="#9754dd" /><circle cx="88.9" cy="304.2" r="4" fill="#9754dd" /><circle cx="97.9" cy="304.4" r="4" fill="#9754dd" /><circle cx="106.8" cy="304.4" r="4" fill="#9754dd" /><circle cx="115.8" cy="304.4" r="4" fill="#9754dd" /><circle cx="124.7" cy="304.4" r="4" fill="#9754dd" /><circle cx="133.6" cy="304.4" r="4" fill="#9754dd" /><circle cx="142.6" cy="304.4" r="4" fill="#9754dd" /><circle cx="151.5" cy="304.4" r="4" fill="#9754dd" /><circle cx="160.5" cy="304.4" r="4" fill="#9754dd" /><circle cx="169.4" cy="304.4" r="4" fill="#9754dd" /><circle cx="178.4" cy="304.4" r="4" fill="#9754dd" /><circle cx="187.3" cy="304.4" r="4" fill="#9754dd" /><circle cx="196.2" cy="304.4" r="4" fill="#9754dd" /><circle cx="205.2" cy="304.4" r="4" fill="#9754dd" /><circle cx="214.1" cy="304.4" r="4" fill="#9754dd" /><circle cx="223.1" cy="304.4" r="4" fill="#9754dd" /><circle cx="232.0" cy="304.4" r="4" fill="#9754dd" /><circle cx="240.9" cy="304.4" r="4" fill="#9754dd" /><circle cx="249.9" cy="304.4" r="4" fill="#9754dd" /><circle cx="258.8" cy="304.4" r="4" fill="#9754dd" /><circle cx="267.8" cy="304.4" r="4" fill="#9754dd" /><circle cx="276.7" cy="304.4" r="4" fill="#9754dd" /><circle cx="285.6" cy="304.4" r="4" fill="#9754dd" /><circle cx="294.6" cy="304.4" r="4" fill="#9754dd" /><circle cx="303.5" cy="304.4" r="4" fill="#9754dd" /><circle cx="312.5" cy="304.4" r="4" fill="#9754dd" /><circle cx="321.4" cy="304.4" r="4" fill="#9754dd" /><circle cx="330.4" cy="299.1" r="4" fill="#9754dd" /><circle cx="339.3" cy="299.1" r="4" fill="#9754dd" /><circle cx="348.2" cy="299.1" r="4" fill="#9754dd" /><circle cx="357.2" cy="298.9" r="4" fill="#9754dd" /><circle cx="366.1" cy="295.6" r="4" fill="#9754dd" /><circle cx="375.1" cy="295.6" r="4" fill="#9754dd" /><circle cx="384.0" cy="295.6" r="4" fill="#9754dd" /><circle cx="392.9" cy="295.6" r="4" fill="#9754dd" /><circle cx="401.9" cy="295.6" r="4" fill="#9754dd" /><circle cx="410.8" cy="295.6" r="4" fill="#9754dd" /><circle cx="419.8" cy="295.6" r="4" fill="#9754dd" /><circle cx="428.7" cy="295.6" r="4" fill="#9754dd" /><circle cx="437.6" cy="295.6" r="4" fill="#9754dd" /><circle cx="446.6" cy="295.8" r="4" fill="#9754dd" /><circle cx="455.5" cy="295.9" r="4" fill="#9754dd" /><circle cx="464.5" cy="295.9" r="4" fill="#9754dd" /><circle cx="473.4" cy="295.9" r="4" fill="#9754dd" /><circle cx="482.4" cy="295.9" r="4" fill="#9754dd" /><circle cx="491.3" cy="295.9" r="4" fill="#9754dd" /><circle cx="500.2" cy="295.9" r="4" fill="#9754dd" /><circle cx="509.2" cy="295.9" r="4" fill="#9754dd" /><circle cx="518.1" cy="295.9" r="4" fill="#9754dd" /><circle cx="527.1" cy="295.9" r="4" fill="#9754dd" /><circle cx="536.0" cy="295.9" r="4" fill="#9754dd" /><circle cx="544.9" cy="295.9" r="4" fill="#9754dd" /><circle cx="553.9" cy="295.9" r="4" fill="#9754dd" /><circle cx="562.8" cy="295.9" r="4" fill="#9754dd" /><circle cx="571.8" cy="295.9" r="4" fill="#9754dd" /><circle cx="580.7" cy="295.9" r="4" fill="#9754dd" /><circle cx="589.6" cy="295.9" r="4" fill="#9754dd" /><circle cx="598.6" cy="295.8" r="4" fill="#9754dd" /><circle cx="607.5" cy="295.8" r="4" fill="#9754dd" /><circle cx="616.5" cy="295.9" r="4" fill="#9754dd" /><circle cx="625.4" cy="295.9" r="4" fill="#9754dd" /><circle cx="634.4" cy="295.9" r="4" fill="#9754dd" /><circle cx="643.3" cy="295.9" r="4" fill="#9754dd" /><circle cx="652.2" cy="295.9" r="4" fill="#9754dd" /><circle cx="661.2" cy="295.9" r="4" fill="#9754dd" /><circle cx="670.1" cy="295.9" r="4" fill="#9754dd" /><circle cx="679.1" cy="296.0" r="4" fill="#9754dd" /><circle cx="688.0" cy="296.4" r="4" fill="#9754dd" /><circle cx="696.9" cy="296.4" r="4" fill="#9754dd" /><circle cx="705.9" cy="296.4" r="4" fill="#9754dd" /><circle cx="714.8" cy="296.4" r="4" fill="#9754dd" /><circle cx="723.8" cy="296.4" r="4" fill="#9754dd" /><circle cx="732.7" cy="296.4" r="4" fill="#9754dd" /><circle cx="741.6" cy="296.4" r="4" fill="#9754dd" /><circle cx="750.6" cy="296.4" r="4" fill="#9754dd" /><circle cx="759.5" cy="296.4" r="4" fill="#9754dd" /><circle cx="768.5" cy="296.4" r="4" fill="#9754dd" /><circle cx="777.4" cy="296.5" r="4" fill="#9754dd" /><circle cx="786.4" cy="296.5" r="4" fill="#9754dd" /><circle cx="795.3" cy="296.5" r="4" fill="#9754dd" /><circle cx="804.2" cy="296.5" r="4" fill="#9754dd" /><circle cx="813.2" cy="296.5" r="4" fill="#9754dd" /><circle cx="822.1" cy="296.5" r="4" fill="#9754dd" /><circle cx="831.1" cy="296.5" r="4" fill="#9754dd" /><circle cx="840.0" cy="296.5" r="4" fill="#9754dd" />
  <rect x="80" y="339" width="10" height="10" rx="2" ry="2" fill="#19e5a1" /><text x="96" y="348" class="legend-label">Stars</text><rect x="250" y="339" width="10" height="10" rx="2" ry="2" fill="#6eb6ec" /><text x="266" y="348" class="legend-label">Followers</text><rect x="420" y="339" width="10" height="10" rx="2" ry="2" fill="#5938e2" /><text x="436" y="348" class="legend-label">Following</text><rect x="590" y="339" width="10" height="10" rx="2" ry="2" fill="#60e5e0" /><text x="606" y="348" class="legend-label">Contributions</text><rect x="80" y="357" width="10" height="10" rx="2" ry="2" fill="#567de1" /><text x="96" y="366" class="legend-label">Pull Requests</text><rect x="250" y="357" width="10" height="10" rx="2" ry="2" fill="#9754dd" /><text x="266" y="366" class="legend-label">Issues</text>
</svg>
