<svg width="900" height="402" viewBox="0 0 900 402" xmlns="http://www.w3.org/2000/svg">
  <defs>
    <linearGradient id="history-gradient" x1="0%" y1="0%" x2="100%" y2="100%">
      <stop offset="0%" style="stop-color:#58a6ff;stop-opacity:1" />
      <stop offset="100%" style="stop-color:#a371f7;stop-opacity:1" />
    </linearGradient>
    <clipPath id="history-rounded">
      <rect x="0" y="0" width="900" height="402" rx="8" ry="8" />
    </clipPath>
  </defs>
  <style>
    .title {
      font-family: 'Segoe UI', Ubuntu, 'Helvetica Neue', sans-serif;
      font-size: 22px;
      font-weight: 700;
      fill: #58a6ff;
    }
    .subtitle {
      font-family: 'Segoe UI', Ubuntu, 'Helvetica Neue', sans-serif;
      font-size: 12px;
      font-weight: 500;
      fill: #8b949e;
    }
    .axis-label {
      font-family: 'Segoe UI', Ubuntu, 'Helvetica Neue', sans-serif;
      font-size: 10px;
      fill: #8b949e;
    }
    .grid-line {
      stroke: #30363d;
      stroke-width: 1;
      opacity: 0.3;
    }
    .legend-label {
      font-family: 'Segoe UI', Ubuntu, 'Helvetica Neue', sans-serif;
      font-size: 11px;
      fill: #c9d1d9;
      dominant-baseline: middle;
    }
  </style>
  <rect clip-path="url(#history-rounded)" width="100%" height="100%" fill="#0d1117" stroke="#30363d" stroke-width="1" />
  <rect x="0" y="396" width="900" height="6" fill="url(#history-gradient)" clip-path="url(#history-rounded)" />
  <text x="24" y="34" class="title">Leonardo Klein Stats History</text>
  <text x="24" y="54" class="subtitle">Period: 2026-02-20 to 2026-03-07</text>
  <text x="72" y="320.0" text-anchor="end" dominant-baseline="central" class="axis-label">0</text><text x="72" y="270.0" text-anchor="end" dominant-baseline="central" class="axis-label">400</text><text x="72" y="220.0" text-anchor="end" dominant-baseline="central" class="axis-label">800</text><text x="72" y="170.0" text-anchor="end" dominant-baseline="central" class="axis-label">1.2k</text><text x="72" y="120.0" text-anchor="end" dominant-baseline="central" class="axis-label">1.6k</text><text x="72" y="70.0" text-anchor="end" dominant-baseline="central" class="axis-label">2.0k</text>
  <text x="80.0" y="336" text-anchor="middle" class="axis-label">02-20</text><text x="150.9" y="336" text-anchor="middle" class="axis-label">02-21</text><text x="221.9" y="336" text-anchor="middle" class="axis-label">02-23</text><text x="292.8" y="336" text-anchor="middle" class="axis-label">02-24</text><text x="363.7" y="336" text-anchor="middle" class="axis-label">02-26</text><text x="434.7" y="336" text-anchor="middle" class="axis-label">02-27</text><text x="505.6" y="336" text-anchor="middle" class="axis-label">02-28</text><text x="576.5" y="336" text-anchor="middle" class="axis-label">03-02</text><text x="647.5" y="336" text-anchor="middle" class="axis-label">03-03</text><text x="718.4" y="336" text-anchor="middle" class="axis-label">03-05</text><text x="789.3" y="336" text-anchor="middle" class="axis-label">03-06</text><text x="840.0" y="336" text-anchor="middle" class="axis-label">03-07</text>
  <line x1="80" y1="320.0" x2="840" y2="320.0" class="grid-line" /><line x1="80" y1="270.0" x2="840" y2="270.0" class="grid-line" /><line x1="80" y1="220.0" x2="840" y2="220.0" class="grid-line" /><line x1="80" y1="170.0" x2="840" y2="170.0" class="grid-line" /><line x1="80" y1="120.0" x2="840" y2="120.0" class="grid-line" /><line x1="80" y1="70.0" x2="840" y2="70.0" class="grid-line" />
  <polyline points="80.0,317.0 90.1,317.0 100.3,317.0 110.4,317.0 120.5,317.0 130.7,317.0 140.8,317.0 150.9,317.0 161.1,317.0 171.2,317.0 181.3,317.0 191.5,317.0 201.6,317.0 211.7,317.0 221.9,317.0 232.0,317.0 242.1,317.0 252.3,317.0 262.4,317.0 272.5,317.0 282.7,317.0 292.8,317.0 302.9,317.0 313.1,317.0 323.2,317.0 333.3,317.0 343.5,317.0 353.6,317.0 363.7,317.0 373.9,317.0 384.0,317.0 394.1,317.0 404.3,317.0 414.4,317.0 424.5,317.0 434.7,317.0 444.8,317.0 454.9,317.0 465.1,317.0 475.2,317.0 485.3,317.0 495.5,317.0 505.6,317.0 515.7,317.0 525.9,317.0 536.0,317.0 546.1,317.0 556.3,317.0 566.4,317.0 576.5,317.0 586.7,317.0 596.8,317.0 606.9,317.0 617.1,317.0 627.2,317.0 637.3,317.0 647.5,317.0 657.6,317.0 667.7,317.0 677.9,317.0 688.0,317.0 698.1,317.0 708.3,317.0 718.4,317.0 728.5,317.0 738.7,317.0 748.8,317.0 758.9,317.0 769.1,317.0 779.2,317.0 789.3,317.0 799.5,317.0 809.6,317.0 819.7,317.0 829.9,317.0 840.0,317.0" fill="none" stroke="#19e5a1" stroke-width="2.5" stroke-linecap="round" stroke-linejoin="round" /><circle cx="80.0" cy="317.0" r="4" fill="#19e5a1" /><circle cx="90.1" cy="317.0" r="4" fill="#19e5a1" /><circle cx="100.3" cy="317.0" r="4" fill="#19e5a1" /><circle cx="110.4" cy="317.0" r="4" fill="#19e5a1" /><circle cx="120.5" cy="317.0" r="4" fill="#19e5a1" /><circle cx="130.7" cy="317.0" r="4" fill="#19e5a1" /><circle cx="140.8" cy="317.0" r="4" fill="#19e5a1" /><circle cx="150.9" cy="317.0" r="4" fill="#19e5a1" /><circle cx="161.1" cy="317.0" r="4" fill="#19e5a1" /><circle cx="171.2" cy="317.0" r="4" fill="#19e5a1" /><circle cx="181.3" cy="317.0" r="4" fill="#19e5a1" /><circle cx="191.5" cy="317.0" r="4" fill="#19e5a1" /><circle cx="201.6" cy="317.0" r="4" fill="#19e5a1" /><circle cx="211.7" cy="317.0" r="4" fill="#19e5a1" /><circle cx="221.9" cy="317.0" r="4" fill="#19e5a1" /><circle cx="232.0" cy="317.0" r="4" fill="#19e5a1" /><circle cx="242.1" cy="317.0" r="4" fill="#19e5a1" /><circle cx="252.3" cy="317.0" r="4" fill="#19e5a1" /><circle cx="262.4" cy="317.0" r="4" fill="#19e5a1" /><circle cx="272.5" cy="317.0" r="4" fill="#19e5a1" /><circle cx="282.7" cy="317.0" r="4" fill="#19e5a1" /><circle cx="292.8" cy="317.0" r="4" fill="#19e5a1" /><circle cx="302.9" cy="317.0" r="4" fill="#19e5a1" /><circle cx="313.1" cy="317.0" r="4" fill="#19e5a1" /><circle cx="323.2" cy="317.0" r="4" fill="#19e5a1" /><circle cx="333.3" cy="317.0" r="4" fill="#19e5a1" /><circle cx="343.5" cy="317.0" r="4" fill="#19e5a1" /><circle cx="353.6" cy="317.0" r="4" fill="#19e5a1" /><circle cx="363.7" cy="317.0" r="4" fill="#19e5a1" /><circle cx="373.9" cy="317.0" r="4" fill="#19e5a1" /><circle cx="384.0" cy="317.0" r="4" fill="#19e5a1" /><circle cx="394.1" cy="317.0" r="4" fill="#19e5a1" /><circle cx="404.3" cy="317.0" r="4" fill="#19e5a1" /><circle cx="414.4" cy="317.0" r="4" fill="#19e5a1" /><circle cx="424.5" cy="317.0" r="4" fill="#19e5a1" /><circle cx="434.7" cy="317.0" r="4" fill="#19e5a1" /><circle cx="444.8" cy="317.0" r="4" fill="#19e5a1" /><circle cx="454.9" cy="317.0" r="4" fill="#19e5a1" /><circle cx="465.1" cy="317.0" r="4" fill="#19e5a1" /><circle cx="475.2" cy="317.0" r="4" fill="#19e5a1" /><circle cx="485.3" cy="317.0" r="4" fill="#19e5a1" /><circle cx="495.5" cy="317.0" r="4" fill="#19e5a1" /><circle cx="505.6" cy="317.0" r="4" fill="#19e5a1" /><circle cx="515.7" cy="317.0" r="4" fill="#19e5a1" /><circle cx="525.9" cy="317.0" r="4" fill="#19e5a1" /><circle cx="536.0" cy="317.0" r="4" fill="#19e5a1" /><circle cx="546.1" cy="317.0" r="4" fill="#19e5a1" /><circle cx="556.3" cy="317.0" r="4" fill="#19e5a1" /><circle cx="566.4" cy="317.0" r="4" fill="#19e5a1" /><circle cx="576.5" cy="317.0" r="4" fill="#19e5a1" /><circle cx="586.7" cy="317.0" r="4" fill="#19e5a1" /><circle cx="596.8" cy="317.0" r="4" fill="#19e5a1" /><circle cx="606.9" cy="317.0" r="4" fill="#19e5a1" /><circle cx="617.1" cy="317.0" r="4" fill="#19e5a1" /><circle cx="627.2" cy="317.0" r="4" fill="#19e5a1" /><circle cx="637.3" cy="317.0" r="4" fill="#19e5a1" /><circle cx="647.5" cy="317.0" r="4" fill="#19e5a1" /><circle cx="657.6" cy="317.0" r="4" fill="#19e5a1" /><circle cx="667.7" cy="317.0" r="4" fill="#19e5a1" /><circle cx="677.9" cy="317.0" r="4" fill="#19e5a1" /><circle cx="688.0" cy="317.0" r="4" fill="#19e5a1" /><circle cx="698.1" cy="317.0" r="4" fill="#19e5a1" /><circle cx="708.3" cy="317.0" r="4" fill="#19e5a1" /><circle cx="718.4" cy="317.0" r="4" fill="#19e5a1" /><circle cx="728.5" cy="317.0" r="4" fill="#19e5a1" /><circle cx="738.7" cy="317.0" r="4" fill="#19e5a1" /><circle cx="748.8" cy="317.0" r="4" fill="#19e5a1" /><circle cx="758.9" cy="317.0" r="4" fill="#19e5a1" /><circle cx="769.1" cy="317.0" r="4" fill="#19e5a1" /><circle cx="779.2" cy="317.0" r="4" fill="#19e5a1" /><circle cx="789.3" cy="317.0" r="4" fill="#19e5a1" /><circle cx="799.5" cy="317.0" r="4" fill="#19e5a1" /><circle cx="809.6" cy="317.0" r="4" fill="#19e5a1" /><circle cx="819.7" cy="317.0" r="4" fill="#19e5a1" /><circle cx="829.9" cy="317.0" r="4" fill="#19e5a1" /><circle cx="840.0" cy="317.0" r="4" fill="#19e5a1" /><polyline points="80.0,313.2 90.1,312.2 100.3,312.1 110.4,312.4 120.5,312.4 130.7,312.4 140.8,312.1 150.9,312.0 161.1,311.9 171.2,311.9 181.3,311.8 191.5,311.8 201.6,311.5 211.7,311.5 221.9,311.5 232.0,311.2 242.1,311.2 252.3,311.1 262.4,311.1 272.5,311.1 282.7,310.9 292.8,311.0 302.9,310.8 313.1,310.8 323.2,310.8 333.3,310.8 343.5,310.4 353.6,310.2 363.7,310.4 373.9,310.4 384.0,310.4 394.1,310.4 404.3,310.4 414.4,310.2 424.5,310.2 434.7,310.1 444.8,310.1 454.9,309.8 465.1,309.6 475.2,309.6 485.3,309.6 495.5,309.6 505.6,309.5 515.7,309.4 525.9,309.4 536.0,309.4 546.1,309.4 556.3,309.2 566.4,309.2 576.5,309.2 586.7,309.4 596.8,309.4 606.9,309.5 617.1,309.2 627.2,309.2 637.3,309.4 647.5,309.2 657.6,309.2 667.7,309.2 677.9,309.2 688.0,309.2 698.1,309.1 708.3,309.1 718.4,309.1 728.5,309.1 738.7,309.0 748.8,309.0 758.9,308.9 769.1,308.9 779.2,308.9 789.3,308.6 799.5,308.6 809.6,308.6 819.7,308.6 829.9,308.6 840.0,308.6" fill="none" stroke="#6eb6ec" stroke-width="2.5" stroke-linecap="round" stroke-linejoin="round" /><circle cx="80.0" cy="313.2" r="4" fill="#6eb6ec" /><circle cx="90.1" cy="312.2" r="4" fill="#6eb6ec" /><circle cx="100.3" cy="312.1" r="4" fill="#6eb6ec" /><circle cx="110.4" cy="312.4" r="4" fill="#6eb6ec" /><circle cx="120.5" cy="312.4" r="4" fill="#6eb6ec" /><circle cx="130.7" cy="312.4" r="4" fill="#6eb6ec" /><circle cx="140.8" cy="312.1" r="4" fill="#6eb6ec" /><circle cx="150.9" cy="312.0" r="4" fill="#6eb6ec" /><circle cx="161.1" cy="311.9" r="4" fill="#6eb6ec" /><circle cx="171.2" cy="311.9" r="4" fill="#6eb6ec" /><circle cx="181.3" cy="311.8" r="4" fill="#6eb6ec" /><circle cx="191.5" cy="311.8" r="4" fill="#6eb6ec" /><circle cx="201.6" cy="311.5" r="4" fill="#6eb6ec" /><circle cx="211.7" cy="311.5" r="4" fill="#6eb6ec" /><circle cx="221.9" cy="311.5" r="4" fill="#6eb6ec" /><circle cx="232.0" cy="311.2" r="4" fill="#6eb6ec" /><circle cx="242.1" cy="311.2" r="4" fill="#6eb6ec" /><circle cx="252.3" cy="311.1" r="4" fill="#6eb6ec" /><circle cx="262.4" cy="311.1" r="4" fill="#6eb6ec" /><circle cx="272.5" cy="311.1" r="4" fill="#6eb6ec" /><circle cx="282.7" cy="310.9" r="4" fill="#6eb6ec" /><circle cx="292.8" cy="311.0" r="4" fill="#6eb6ec" /><circle cx="302.9" cy="310.8" r="4" fill="#6eb6ec" /><circle cx="313.1" cy="310.8" r="4" fill="#6eb6ec" /><circle cx="323.2" cy="310.8" r="4" fill="#6eb6ec" /><circle cx="333.3" cy="310.8" r="4" fill="#6eb6ec" /><circle cx="343.5" cy="310.4" r="4" fill="#6eb6ec" /><circle cx="353.6" cy="310.2" r="4" fill="#6eb6ec" /><circle cx="363.7" cy="310.4" r="4" fill="#6eb6ec" /><circle cx="373.9" cy="310.4" r="4" fill="#6eb6ec" /><circle cx="384.0" cy="310.4" r="4" fill="#6eb6ec" /><circle cx="394.1" cy="310.4" r="4" fill="#6eb6ec" /><circle cx="404.3" cy="310.4" r="4" fill="#6eb6ec" /><circle cx="414.4" cy="310.2" r="4" fill="#6eb6ec" /><circle cx="424.5" cy="310.2" r="4" fill="#6eb6ec" /><circle cx="434.7" cy="310.1" r="4" fill="#6eb6ec" /><circle cx="444.8" cy="310.1" r="4" fill="#6eb6ec" /><circle cx="454.9" cy="309.8" r="4" fill="#6eb6ec" /><circle cx="465.1" cy="309.6" r="4" fill="#6eb6ec" /><circle cx="475.2" cy="309.6" r="4" fill="#6eb6ec" /><circle cx="485.3" cy="309.6" r="4" fill="#6eb6ec" /><circle cx="495.5" cy="309.6" r="4" fill="#6eb6ec" /><circle cx="505.6" cy="309.5" r="4" fill="#6eb6ec" /><circle cx="515.7" cy="309.4" r="4" fill="#6eb6ec" /><circle cx="525.9" cy="309.4" r="4" fill="#6eb6ec" /><circle cx="536.0" cy="309.4" r="4" fill="#6eb6ec" /><circle cx="546.1" cy="309.4" r="4" fill="#6eb6ec" /><circle cx="556.3" cy="309.2" r="4" fill="#6eb6ec" /><circle cx="566.4" cy="309.2" r="4" fill="#6eb6ec" /><circle cx="576.5" cy="309.2" r="4" fill="#6eb6ec" /><circle cx="586.7" cy="309.4" r="4" fill="#6eb6ec" /><circle cx="596.8" cy="309.4" r="4" fill="#6eb6ec" /><circle cx="606.9" cy="309.5" r="4" fill="#6eb6ec" /><circle cx="617.1" cy="309.2" r="4" fill="#6eb6ec" /><circle cx="627.2" cy="309.2" r="4" fill="#6eb6ec" /><circle cx="637.3" cy="309.4" r="4" fill="#6eb6ec" /><circle cx="647.5" cy="309.2" r="4" fill="#6eb6ec" /><circle cx="657.6" cy="309.2" r="4" fill="#6eb6ec" /><circle cx="667.7" cy="309.2" r="4" fill="#6eb6ec" /><circle cx="677.9" cy="309.2" r="4" fill="#6eb6ec" /><circle cx="688.0" cy="309.2" r="4" fill="#6eb6ec" /><circle cx="698.1" cy="309.1" r="4" fill="#6eb6ec" /><circle cx="708.3" cy="309.1" r="4" fill="#6eb6ec" /><circle cx="718.4" cy="309.1" r="4" fill="#6eb6ec" /><circle cx="728.5" cy="309.1" r="4" fill="#6eb6ec" /><circle cx="738.7" cy="309.0" r="4" fill="#6eb6ec" /><circle cx="748.8" cy="309.0" r="4" fill="#6eb6ec" /><circle cx="758.9" cy="308.9" r="4" fill="#6eb6ec" /><circle cx="769.1" cy="308.9" r="4" fill="#6eb6ec" /><circle cx="779.2" cy="308.9" r="4" fill="#6eb6ec" /><circle cx="789.3" cy="308.6" r="4" fill="#6eb6ec" /><circle cx="799.5" cy="308.6" r="4" fill="#6eb6ec" /><circle cx="809.6" cy="308.6" r="4" fill="#6eb6ec" /><circle cx="819.7" cy="308.6" r="4" fill="#6eb6ec" /><circle cx="829.9" cy="308.6" r="4" fill="#6eb6ec" /><circle cx="840.0" cy="308.6" r="4" fill="#6eb6ec" /><polyline points="80.0,305.8 90.1,305.8 100.3,305.8 110.4,305.8 120.5,305.8 130.7,305.8 140.8,305.8 150.9,305.8 161.1,305.8 171.2,305.8 181.3,304.9 191.5,304.9 201.6,304.9 211.7,304.9 221.9,304.9 232.0,304.9 242.1,304.9 252.3,304.9 262.4,304.9 272.5,304.9 282.7,304.9 292.8,304.9 302.9,304.9 313.1,304.9 323.2,304.9 333.3,304.9 343.5,304.9 353.6,304.9 363.7,304.9 373.9,304.9 384.0,304.9 394.1,304.9 404.3,304.9 414.4,304.9 424.5,304.9 434.7,304.9 444.8,304.9 454.9,303.6 465.1,303.6 475.2,303.6 485.3,303.6 495.5,303.6 505.6,303.6 515.7,303.6 525.9,303.6 536.0,303.6 546.1,303.6 556.3,303.6 566.4,303.6 576.5,303.6 586.7,303.6 596.8,302.9 606.9,302.9 617.1,298.0 627.2,298.0 637.3,298.0 647.5,298.0 657.6,298.0 667.7,298.0 677.9,298.0 688.0,298.0 698.1,298.0 708.3,298.0 718.4,298.0 728.5,298.0 738.7,298.0 748.8,298.0 758.9,297.8 769.1,297.8 779.2,297.8 789.3,297.8 799.5,297.8 809.6,297.8 819.7,297.8 829.9,297.8 840.0,297.8" fill="none" stroke="#5938e2" stroke-width="2.5" stroke-linecap="round" stroke-linejoin="round" /><circle cx="80.0" cy="305.8" r="4" fill="#5938e2" /><circle cx="90.1" cy="305.8" r="4" fill="#5938e2" /><circle cx="100.3" cy="305.8" r="4" fill="#5938e2" /><circle cx="110.4" cy="305.8" r="4" fill="#5938e2" /><circle cx="120.5" cy="305.8" r="4" fill="#5938e2" /><circle cx="130.7" cy="305.8" r="4" fill="#5938e2" /><circle cx="140.8" cy="305.8" r="4" fill="#5938e2" /><circle cx="150.9" cy="305.8" r="4" fill="#5938e2" /><circle cx="161.1" cy="305.8" r="4" fill="#5938e2" /><circle cx="171.2" cy="305.8" r="4" fill="#5938e2" /><circle cx="181.3" cy="304.9" r="4" fill="#5938e2" /><circle cx="191.5" cy="304.9" r="4" fill="#5938e2" /><circle cx="201.6" cy="304.9" r="4" fill="#5938e2" /><circle cx="211.7" cy="304.9" r="4" fill="#5938e2" /><circle cx="221.9" cy="304.9" r="4" fill="#5938e2" /><circle cx="232.0" cy="304.9" r="4" fill="#5938e2" /><circle cx="242.1" cy="304.9" r="4" fill="#5938e2" /><circle cx="252.3" cy="304.9" r="4" fill="#5938e2" /><circle cx="262.4" cy="304.9" r="4" fill="#5938e2" /><circle cx="272.5" cy="304.9" r="4" fill="#5938e2" /><circle cx="282.7" cy="304.9" r="4" fill="#5938e2" /><circle cx="292.8" cy="304.9" r="4" fill="#5938e2" /><circle cx="302.9" cy="304.9" r="4" fill="#5938e2" /><circle cx="313.1" cy="304.9" r="4" fill="#5938e2" /><circle cx="323.2" cy="304.9" r="4" fill="#5938e2" /><circle cx="333.3" cy="304.9" r="4" fill="#5938e2" /><circle cx="343.5" cy="304.9" r="4" fill="#5938e2" /><circle cx="353.6" cy="304.9" r="4" fill="#5938e2" /><circle cx="363.7" cy="304.9" r="4" fill="#5938e2" /><circle cx="373.9" cy="304.9" r="4" fill="#5938e2" /><circle cx="384.0" cy="304.9" r="4" fill="#5938e2" /><circle cx="394.1" cy="304.9" r="4" fill="#5938e2" /><circle cx="404.3" cy="304.9" r="4" fill="#5938e2" /><circle cx="414.4" cy="304.9" r="4" fill="#5938e2" /><circle cx="424.5" cy="304.9" r="4" fill="#5938e2" /><circle cx="434.7" cy="304.9" r="4" fill="#5938e2" /><circle cx="444.8" cy="304.9" r="4" fill="#5938e2" /><circle cx="454.9" cy="303.6" r="4" fill="#5938e2" /><circle cx="465.1" cy="303.6" r="4" fill="#5938e2" /><circle cx="475.2" cy="303.6" r="4" fill="#5938e2" /><circle cx="485.3" cy="303.6" r="4" fill="#5938e2" /><circle cx="495.5" cy="303.6" r="4" fill="#5938e2" /><circle cx="505.6" cy="303.6" r="4" fill="#5938e2" /><circle cx="515.7" cy="303.6" r="4" fill="#5938e2" /><circle cx="525.9" cy="303.6" r="4" fill="#5938e2" /><circle cx="536.0" cy="303.6" r="4" fill="#5938e2" /><circle cx="546.1" cy="303.6" r="4" fill="#5938e2" /><circle cx="556.3" cy="303.6" r="4" fill="#5938e2" /><circle cx="566.4" cy="303.6" r="4" fill="#5938e2" /><circle cx="576.5" cy="303.6" r="4" fill="#5938e2" /><circle cx="586.7" cy="303.6" r="4" fill="#5938e2" /><circle cx="596.8" cy="302.9" r="4" fill="#5938e2" /><circle cx="606.9" cy="302.9" r="4" fill="#5938e2" /><circle cx="617.1" cy="298.0" r="4" fill="#5938e2" /><circle cx="627.2" cy="298.0" r="4" fill="#5938e2" /><circle cx="637.3" cy="298.0" r="4" fill="#5938e2" /><circle cx="647.5" cy="298.0" r="4" fill="#5938e2" /><circle cx="657.6" cy="298.0" r="4" fill="#5938e2" /><circle cx="667.7" cy="298.0" r="4" fill="#5938e2" /><circle cx="677.9" cy="298.0" r="4" fill="#5938e2" /><circle cx="688.0" cy="298.0" r="4" fill="#5938e2" /><circle cx="698.1" cy="298.0" r="4" fill="#5938e2" /><circle cx="708.3" cy="298.0" r="4" fill="#5938e2" /><circle cx="718.4" cy="298.0" r="4" fill="#5938e2" /><circle cx="728.5" cy="298.0" r="4" fill="#5938e2" /><circle cx="738.7" cy="298.0" r="4" fill="#5938e2" /><circle cx="748.8" cy="298.0" r="4" fill="#5938e2" /><circle cx="758.9" cy="297.8" r="4" fill="#5938e2" /><circle cx="769.1" cy="297.8" r="4" fill="#5938e2" /><circle cx="779.2" cy="297.8" r="4" fill="#5938e2" /><circle cx="789.3" cy="297.8" r="4" fill="#5938e2" /><circle cx="799.5" cy="297.8" r="4" fill="#5938e2" /><circle cx="809.6" cy="297.8" r="4" fill="#5938e2" /><circle cx="819.7" cy="297.8" r="4" fill="#5938e2" /><circle cx="829.9" cy="297.8" r="4" fill="#5938e2" /><circle cx="840.0" cy="297.8" r="4" fill="#5938e2" /><polyline points="80.0,144.6 90.1,140.1 100.3,139.9 110.4,139.8 120.5,139.8 130.7,139.6 140.8,139.6 150.9,139.6 161.1,139.6 171.2,139.6 181.3,138.4 191.5,138.4 201.6,138.4 211.7,138.4 221.9,138.4 232.0,138.4 242.1,138.4 252.3,137.4 262.4,137.4 272.5,137.4 282.7,137.4 292.8,137.4 302.9,137.4 313.1,137.4 323.2,137.4 333.3,137.4 343.5,137.4 353.6,137.4 363.7,131.2 373.9,131.2 384.0,130.8 394.1,130.4 404.3,126.9 414.4,126.9 424.5,126.9 434.7,126.9 444.8,126.9 454.9,126.9 465.1,126.9 475.2,126.9 485.3,126.9 495.5,126.8 505.6,122.1 515.7,120.4 525.9,120.4 536.0,120.4 546.1,120.4 556.3,120.4 566.4,119.4 576.5,119.4 586.7,119.4 596.8,119.4 606.9,119.1 617.1,118.8 627.2,118.8 637.3,117.8 647.5,117.8 657.6,117.8 667.7,115.8 677.9,115.8 688.0,115.0 698.1,115.0 708.3,115.0 718.4,115.0 728.5,115.0 738.7,115.0 748.8,115.0 758.9,113.9 769.1,111.8 779.2,111.8 789.3,111.8 799.5,111.8 809.6,111.8 819.7,111.8 829.9,111.8 840.0,111.8" fill="none" stroke="#60e5e0" stroke-width="2.5" stroke-linecap="round" stroke-linejoin="round" /><circle cx="80.0" cy="144.6" r="4" fill="#60e5e0" /><circle cx="90.1" cy="140.1" r="4" fill="#60e5e0" /><circle cx="100.3" cy="139.9" r="4" fill="#60e5e0" /><circle cx="110.4" cy="139.8" r="4" fill="#60e5e0" /><circle cx="120.5" cy="139.8" r="4" fill="#60e5e0" /><circle cx="130.7" cy="139.6" r="4" fill="#60e5e0" /><circle cx="140.8" cy="139.6" r="4" fill="#60e5e0" /><circle cx="150.9" cy="139.6" r="4" fill="#60e5e0" /><circle cx="161.1" cy="139.6" r="4" fill="#60e5e0" /><circle cx="171.2" cy="139.6" r="4" fill="#60e5e0" /><circle cx="181.3" cy="138.4" r="4" fill="#60e5e0" /><circle cx="191.5" cy="138.4" r="4" fill="#60e5e0" /><circle cx="201.6" cy="138.4" r="4" fill="#60e5e0" /><circle cx="211.7" cy="138.4" r="4" fill="#60e5e0" /><circle cx="221.9" cy="138.4" r="4" fill="#60e5e0" /><circle cx="232.0" cy="138.4" r="4" fill="#60e5e0" /><circle cx="242.1" cy="138.4" r="4" fill="#60e5e0" /><circle cx="252.3" cy="137.4" r="4" fill="#60e5e0" /><circle cx="262.4" cy="137.4" r="4" fill="#60e5e0" /><circle cx="272.5" cy="137.4" r="4" fill="#60e5e0" /><circle cx="282.7" cy="137.4" r="4" fill="#60e5e0" /><circle cx="292.8" cy="137.4" r="4" fill="#60e5e0" /><circle cx="302.9" cy="137.4" r="4" fill="#60e5e0" /><circle cx="313.1" cy="137.4" r="4" fill="#60e5e0" /><circle cx="323.2" cy="137.4" r="4" fill="#60e5e0" /><circle cx="333.3" cy="137.4" r="4" fill="#60e5e0" /><circle cx="343.5" cy="137.4" r="4" fill="#60e5e0" /><circle cx="353.6" cy="137.4" r="4" fill="#60e5e0" /><circle cx="363.7" cy="131.2" r="4" fill="#60e5e0" /><circle cx="373.9" cy="131.2" r="4" fill="#60e5e0" /><circle cx="384.0" cy="130.8" r="4" fill="#60e5e0" /><circle cx="394.1" cy="130.4" r="4" fill="#60e5e0" /><circle cx="404.3" cy="126.9" r="4" fill="#60e5e0" /><circle cx="414.4" cy="126.9" r="4" fill="#60e5e0" /><circle cx="424.5" cy="126.9" r="4" fill="#60e5e0" /><circle cx="434.7" cy="126.9" r="4" fill="#60e5e0" /><circle cx="444.8" cy="126.9" r="4" fill="#60e5e0" /><circle cx="454.9" cy="126.9" r="4" fill="#60e5e0" /><circle cx="465.1" cy="126.9" r="4" fill="#60e5e0" /><circle cx="475.2" cy="126.9" r="4" fill="#60e5e0" /><circle cx="485.3" cy="126.9" r="4" fill="#60e5e0" /><circle cx="495.5" cy="126.8" r="4" fill="#60e5e0" /><circle cx="505.6" cy="122.1" r="4" fill="#60e5e0" /><circle cx="515.7" cy="120.4" r="4" fill="#60e5e0" /><circle cx="525.9" cy="120.4" r="4" fill="#60e5e0" /><circle cx="536.0" cy="120.4" r="4" fill="#60e5e0" /><circle cx="546.1" cy="120.4" r="4" fill="#60e5e0" /><circle cx="556.3" cy="120.4" r="4" fill="#60e5e0" /><circle cx="566.4" cy="119.4" r="4" fill="#60e5e0" /><circle cx="576.5" cy="119.4" r="4" fill="#60e5e0" /><circle cx="586.7" cy="119.4" r="4" fill="#60e5e0" /><circle cx="596.8" cy="119.4" r="4" fill="#60e5e0" /><circle cx="606.9" cy="119.1" r="4" fill="#60e5e0" /><circle cx="617.1" cy="118.8" r="4" fill="#60e5e0" /><circle cx="627.2" cy="118.8" r="4" fill="#60e5e0" /><circle cx="637.3" cy="117.8" r="4" fill="#60e5e0" /><circle cx="647.5" cy="117.8" r="4" fill="#60e5e0" /><circle cx="657.6" cy="117.8" r="4" fill="#60e5e0" /><circle cx="667.7" cy="115.8" r="4" fill="#60e5e0" /><circle cx="677.9" cy="115.8" r="4" fill="#60e5e0" /><circle cx="688.0" cy="115.0" r="4" fill="#60e5e0" /><circle cx="698.1" cy="115.0" r="4" fill="#60e5e0" /><circle cx="708.3" cy="115.0" r="4" fill="#60e5e0" /><circle cx="718.4" cy="115.0" r="4" fill="#60e5e0" /><circle cx="728.5" cy="115.0" r="4" fill="#60e5e0" /><circle cx="738.7" cy="115.0" r="4" fill="#60e5e0" /><circle cx="748.8" cy="115.0" r="4" fill="#60e5e0" /><circle cx="758.9" cy="113.9" r="4" fill="#60e5e0" /><circle cx="769.1" cy="111.8" r="4" fill="#60e5e0" /><circle cx="779.2" cy="111.8" r="4" fill="#60e5e0" /><circle cx="789.3" cy="111.8" r="4" fill="#60e5e0" /><circle cx="799.5" cy="111.8" r="4" fill="#60e5e0" /><circle cx="809.6" cy="111.8" r="4" fill="#60e5e0" /><circle cx="819.7" cy="111.8" r="4" fill="#60e5e0" /><circle cx="829.9" cy="111.8" r="4" fill="#60e5e0" /><circle cx="840.0" cy="111.8" r="4" fill="#60e5e0" /><polyline points="80.0,314.6 90.1,314.4 100.3,314.2 110.4,314.2 120.5,314.2 130.7,314.1 140.8,314.1 150.9,314.1 161.1,314.1 171.2,314.1 181.3,314.0 191.5,314.0 201.6,314.0 211.7,314.0 221.9,314.0 232.0,314.0 242.1,314.0 252.3,314.0 262.4,314.0 272.5,314.0 282.7,314.0 292.8,314.0 302.9,314.0 313.1,314.0 323.2,314.0 333.3,314.0 343.5,314.0 353.6,314.0 363.7,314.0 373.9,314.0 384.0,314.0 394.1,314.0 404.3,314.0 414.4,314.0 424.5,314.0 434.7,314.0 444.8,314.0 454.9,314.0 465.1,314.0 475.2,314.0 485.3,314.0 495.5,313.9 505.6,313.6 515.7,313.4 525.9,313.4 536.0,313.4 546.1,313.4 556.3,313.4 566.4,313.1 576.5,313.1 586.7,313.1 596.8,313.1 606.9,313.1 617.1,313.0 627.2,313.0 637.3,312.9 647.5,312.9 657.6,312.9 667.7,312.8 677.9,312.8 688.0,312.6 698.1,312.6 708.3,312.6 718.4,312.6 728.5,312.6 738.7,312.6 748.8,312.6 758.9,312.5 769.1,312.1 779.2,312.1 789.3,312.1 799.5,312.1 809.6,312.1 819.7,312.1 829.9,312.1 840.0,312.1" fill="none" stroke="#567de1" stroke-width="2.5" stroke-linecap="round" stroke-linejoin="round" /><circle cx="80.0" cy="314.6" r="4" fill="#567de1" /><circle cx="90.1" cy="314.4" r="4" fill="#567de1" /><circle cx="100.3" cy="314.2" r="4" fill="#567de1" /><circle cx="110.4" cy="314.2" r="4" fill="#567de1" /><circle cx="120.5" cy="314.2" r="4" fill="#567de1" /><circle cx="130.7" cy="314.1" r="4" fill="#567de1" /><circle cx="140.8" cy="314.1" r="4" fill="#567de1" /><circle cx="150.9" cy="314.1" r="4" fill="#567de1" /><circle cx="161.1" cy="314.1" r="4" fill="#567de1" /><circle cx="171.2" cy="314.1" r="4" fill="#567de1" /><circle cx="181.3" cy="314.0" r="4" fill="#567de1" /><circle cx="191.5" cy="314.0" r="4" fill="#567de1" /><circle cx="201.6" cy="314.0" r="4" fill="#567de1" /><circle cx="211.7" cy="314.0" r="4" fill="#567de1" /><circle cx="221.9" cy="314.0" r="4" fill="#567de1" /><circle cx="232.0" cy="314.0" r="4" fill="#567de1" /><circle cx="242.1" cy="314.0" r="4" fill="#567de1" /><circle cx="252.3" cy="314.0" r="4" fill="#567de1" /><circle cx="262.4" cy="314.0" r="4" fill="#567de1" /><circle cx="272.5" cy="314.0" r="4" fill="#567de1" /><circle cx="282.7" cy="314.0" r="4" fill="#567de1" /><circle cx="292.8" cy="314.0" r="4" fill="#567de1" /><circle cx="302.9" cy="314.0" r="4" fill="#567de1" /><circle cx="313.1" cy="314.0" r="4" fill="#567de1" /><circle cx="323.2" cy="314.0" r="4" fill="#567de1" /><circle cx="333.3" cy="314.0" r="4" fill="#567de1" /><circle cx="343.5" cy="314.0" r="4" fill="#567de1" /><circle cx="353.6" cy="314.0" r="4" fill="#567de1" /><circle cx="363.7" cy="314.0" r="4" fill="#567de1" /><circle cx="373.9" cy="314.0" r="4" fill="#567de1" /><circle cx="384.0" cy="314.0" r="4" fill="#567de1" /><circle cx="394.1" cy="314.0" r="4" fill="#567de1" /><circle cx="404.3" cy="314.0" r="4" fill="#567de1" /><circle cx="414.4" cy="314.0" r="4" fill="#567de1" /><circle cx="424.5" cy="314.0" r="4" fill="#567de1" /><circle cx="434.7" cy="314.0" r="4" fill="#567de1" /><circle cx="444.8" cy="314.0" r="4" fill="#567de1" /><circle cx="454.9" cy="314.0" r="4" fill="#567de1" /><circle cx="465.1" cy="314.0" r="4" fill="#567de1" /><circle cx="475.2" cy="314.0" r="4" fill="#567de1" /><circle cx="485.3" cy="314.0" r="4" fill="#567de1" /><circle cx="495.5" cy="313.9" r="4" fill="#567de1" /><circle cx="505.6" cy="313.6" r="4" fill="#567de1" /><circle cx="515.7" cy="313.4" r="4" fill="#567de1" /><circle cx="525.9" cy="313.4" r="4" fill="#567de1" /><circle cx="536.0" cy="313.4" r="4" fill="#567de1" /><circle cx="546.1" cy="313.4" r="4" fill="#567de1" /><circle cx="556.3" cy="313.4" r="4" fill="#567de1" /><circle cx="566.4" cy="313.1" r="4" fill="#567de1" /><circle cx="576.5" cy="313.1" r="4" fill="#567de1" /><circle cx="586.7" cy="313.1" r="4" fill="#567de1" /><circle cx="596.8" cy="313.1" r="4" fill="#567de1" /><circle cx="606.9" cy="313.1" r="4" fill="#567de1" /><circle cx="617.1" cy="313.0" r="4" fill="#567de1" /><circle cx="627.2" cy="313.0" r="4" fill="#567de1" /><circle cx="637.3" cy="312.9" r="4" fill="#567de1" /><circle cx="647.5" cy="312.9" r="4" fill="#567de1" /><circle cx="657.6" cy="312.9" r="4" fill="#567de1" /><circle cx="667.7" cy="312.8" r="4" fill="#567de1" /><circle cx="677.9" cy="312.8" r="4" fill="#567de1" /><circle cx="688.0" cy="312.6" r="4" fill="#567de1" /><circle cx="698.1" cy="312.6" r="4" fill="#567de1" /><circle cx="708.3" cy="312.6" r="4" fill="#567de1" /><circle cx="718.4" cy="312.6" r="4" fill="#567de1" /><circle cx="728.5" cy="312.6" r="4" fill="#567de1" /><circle cx="738.7" cy="312.6" r="4" fill="#567de1" /><circle cx="748.8" cy="312.6" r="4" fill="#567de1" /><circle cx="758.9" cy="312.5" r="4" fill="#567de1" /><circle cx="769.1" cy="312.1" r="4" fill="#567de1" /><circle cx="779.2" cy="312.1" r="4" fill="#567de1" /><circle cx="789.3" cy="312.1" r="4" fill="#567de1" /><circle cx="799.5" cy="312.1" r="4" fill="#567de1" /><circle cx="809.6" cy="312.1" r="4" fill="#567de1" /><circle cx="819.7" cy="312.1" r="4" fill="#567de1" /><circle cx="829.9" cy="312.1" r="4" fill="#567de1" /><circle cx="840.0" cy="312.1" r="4" fill="#567de1" /><polyline points="80.0,303.9 90.1,304.2 100.3,304.4 110.4,304.4 120.5,304.4 130.7,304.4 140.8,304.4 150.9,304.4 161.1,304.4 171.2,304.4 181.3,304.4 191.5,304.4 201.6,304.4 211.7,304.4 221.9,304.4 232.0,304.4 242.1,304.4 252.3,304.4 262.4,304.4 272.5,304.4 282.7,304.4 292.8,304.4 302.9,304.4 313.1,304.4 323.2,304.4 333.3,304.4 343.5,304.4 353.6,304.4 363.7,299.1 373.9,299.1 384.0,299.1 394.1,298.9 404.3,295.6 414.4,295.6 424.5,295.6 434.7,295.6 444.8,295.6 454.9,295.6 465.1,295.6 475.2,295.6 485.3,295.6 495.5,295.8 505.6,295.9 515.7,295.9 525.9,295.9 536.0,295.9 546.1,295.9 556.3,295.9 566.4,295.9 576.5,295.9 586.7,295.9 596.8,295.9 606.9,295.9 617.1,295.9 627.2,295.9 637.3,295.9 647.5,295.9 657.6,295.9 667.7,295.8 677.9,295.8 688.0,295.9 698.1,295.9 708.3,295.9 718.4,295.9 728.5,295.9 738.7,295.9 748.8,295.9 758.9,296.0 769.1,296.4 779.2,296.4 789.3,296.4 799.5,296.4 809.6,296.4 819.7,296.4 829.9,296.4 840.0,296.4" fill="none" stroke="#9754dd" stroke-width="2.5" stroke-linecap="round" stroke-linejoin="round" /><circle cx="80.0" cy="303.9" r="4" fill="#9754dd" /><circle cx="90.1" cy="304.2" r="4" fill="#9754dd" /><circle cx="100.3" cy="304.4" r="4" fill="#9754dd" /><circle cx="110.4" cy="304.4" r="4" fill="#9754dd" /><circle cx="120.5" cy="304.4" r="4" fill="#9754dd" /><circle cx="130.7" cy="304.4" r="4" fill="#9754dd" /><circle cx="140.8" cy="304.4" r="4" fill="#9754dd" /><circle cx="150.9" cy="304.4" r="4" fill="#9754dd" /><circle cx="161.1" cy="304.4" r="4" fill="#9754dd" /><circle cx="171.2" cy="304.4" r="4" fill="#9754dd" /><circle cx="181.3" cy="304.4" r="4" fill="#9754dd" /><circle cx="191.5" cy="304.4" r="4" fill="#9754dd" /><circle cx="201.6" cy="304.4" r="4" fill="#9754dd" /><circle cx="211.7" cy="304.4" r="4" fill="#9754dd" /><circle cx="221.9" cy="304.4" r="4" fill="#9754dd" /><circle cx="232.0" cy="304.4" r="4" fill="#9754dd" /><circle cx="242.1" cy="304.4" r="4" fill="#9754dd" /><circle cx="252.3" cy="304.4" r="4" fill="#9754dd" /><circle cx="262.4" cy="304.4" r="4" fill="#9754dd" /><circle cx="272.5" cy="304.4" r="4" fill="#9754dd" /><circle cx="282.7" cy="304.4" r="4" fill="#9754dd" /><circle cx="292.8" cy="304.4" r="4" fill="#9754dd" /><circle cx="302.9" cy="304.4" r="4" fill="#9754dd" /><circle cx="313.1" cy="304.4" r="4" fill="#9754dd" /><circle cx="323.2" cy="304.4" r="4" fill="#9754dd" /><circle cx="333.3" cy="304.4" r="4" fill="#9754dd" /><circle cx="343.5" cy="304.4" r="4" fill="#9754dd" /><circle cx="353.6" cy="304.4" r="4" fill="#9754dd" /><circle cx="363.7" cy="299.1" r="4" fill="#9754dd" /><circle cx="373.9" cy="299.1" r="4" fill="#9754dd" /><circle cx="384.0" cy="299.1" r="4" fill="#9754dd" /><circle cx="394.1" cy="298.9" r="4" fill="#9754dd" /><circle cx="404.3" cy="295.6" r="4" fill="#9754dd" /><circle cx="414.4" cy="295.6" r="4" fill="#9754dd" /><circle cx="424.5" cy="295.6" r="4" fill="#9754dd" /><circle cx="434.7" cy="295.6" r="4" fill="#9754dd" /><circle cx="444.8" cy="295.6" r="4" fill="#9754dd" /><circle cx="454.9" cy="295.6" r="4" fill="#9754dd" /><circle cx="465.1" cy="295.6" r="4" fill="#9754dd" /><circle cx="475.2" cy="295.6" r="4" fill="#9754dd" /><circle cx="485.3" cy="295.6" r="4" fill="#9754dd" /><circle cx="495.5" cy="295.8" r="4" fill="#9754dd" /><circle cx="505.6" cy="295.9" r="4" fill="#9754dd" /><circle cx="515.7" cy="295.9" r="4" fill="#9754dd" /><circle cx="525.9" cy="295.9" r="4" fill="#9754dd" /><circle cx="536.0" cy="295.9" r="4" fill="#9754dd" /><circle cx="546.1" cy="295.9" r="4" fill="#9754dd" /><circle cx="556.3" cy="295.9" r="4" fill="#9754dd" /><circle cx="566.4" cy="295.9" r="4" fill="#9754dd" /><circle cx="576.5" cy="295.9" r="4" fill="#9754dd" /><circle cx="586.7" cy="295.9" r="4" fill="#9754dd" /><circle cx="596.8" cy="295.9" r="4" fill="#9754dd" /><circle cx="606.9" cy="295.9" r="4" fill="#9754dd" /><circle cx="617.1" cy="295.9" r="4" fill="#9754dd" /><circle cx="627.2" cy="295.9" r="4" fill="#9754dd" /><circle cx="637.3" cy="295.9" r="4" fill="#9754dd" /><circle cx="647.5" cy="295.9" r="4" fill="#9754dd" /><circle cx="657.6" cy="295.9" r="4" fill="#9754dd" /><circle cx="667.7" cy="295.8" r="4" fill="#9754dd" /><circle cx="677.9" cy="295.8" r="4" fill="#9754dd" /><circle cx="688.0" cy="295.9" r="4" fill="#9754dd" /><circle cx="698.1" cy="295.9" r="4" fill="#9754dd" /><circle cx="708.3" cy="295.9" r="4" fill="#9754dd" /><circle cx="718.4" cy="295.9" r="4" fill="#9754dd" /><circle cx="728.5" cy="295.9" r="4" fill="#9754dd" /><circle cx="738.7" cy="295.9" r="4" fill="#9754dd" /><circle cx="748.8" cy="295.9" r="4" fill="#9754dd" /><circle cx="758.9" cy="296.0" r="4" fill="#9754dd" /><circle cx="769.1" cy="296.4" r="4" fill="#9754dd" /><circle cx="779.2" cy="296.4" r="4" fill="#9754dd" /><circle cx="789.3" cy="296.4" r="4" fill="#9754dd" /><circle cx="799.5" cy="296.4" r="4" fill="#9754dd" /><circle cx="809.6" cy="296.4" r="4" fill="#9754dd" /><circle cx="819.7" cy="296.4" r="4" fill="#9754dd" /><circle cx="829.9" cy="296.4" r="4" fill="#9754dd" /><circle cx="840.0" cy="296.4" r="4" fill="#9754dd" />
  <rect x="80" y="339" width="10" height="10" rx="2" ry="2" fill="#19e5a1" /><text x="96" y="348" class="legend-label">Stars</text><rect x="250" y="339" width="10" height="10" rx="2" ry="2" fill="#6eb6ec" /><text x="266" y="348" class="legend-label">Followers</text><rect x="420" y="339" width="10" height="10" rx="2" ry="2" fill="#5938e2" /><text x="436" y="348" class="legend-label">Following</text><rect x="590" y="339" width="10" height="10" rx="2" ry="2" fill="#60e5e0" /><text x="606" y="348" class="legend-label">Contributions</text><rect x="80" y="357" width="10" height="10" rx="2" ry="2" fill="#567de1" /><text x="96" y="366" class="legend-label">Pull Requests</text><rect x="250" y="357" width="10" height="10" rx="2" ry="2" fill="#9754dd" /><text x="266" y="366" class="legend-label">Issues</text>
</svg>
