<svg width="900" height="402" viewBox="0 0 900 402" xmlns="http://www.w3.org/2000/svg">
  <defs>
    <linearGradient id="history-gradient" x1="0%" y1="0%" x2="100%" y2="100%">
      <stop offset="0%" style="stop-color:#58a6ff;stop-opacity:1" />
      <stop offset="100%" style="stop-color:#a371f7;stop-opacity:1" />
    </linearGradient>
    <clipPath id="history-rounded">
      <rect x="0" y="0" width="900" height="402" rx="8" ry="8" />
    </clipPath>
  </defs>
  <style>
    .title {
      font-family: 'Segoe UI', Ubuntu, 'Helvetica Neue', sans-serif;
      font-size: 22px;
      font-weight: 700;
      fill: #58a6ff;
    }
    .subtitle {
      font-family: 'Segoe UI', Ubuntu, 'Helvetica Neue', sans-serif;
      font-size: 12px;
      font-weight: 500;
      fill: #8b949e;
    }
    .axis-label {
      font-family: 'Segoe UI', Ubuntu, 'Helvetica Neue', sans-serif;
      font-size: 10px;
      fill: #8b949e;
    }
    .grid-line {
      stroke: #30363d;
      stroke-width: 1;
      opacity: 0.3;
    }
    .legend-label {
      font-family: 'Segoe UI', Ubuntu, 'Helvetica Neue', sans-serif;
      font-size: 11px;
      fill: #c9d1d9;
      dominant-baseline: middle;
    }
  </style>
  <rect clip-path="url(#history-rounded)" width="100%" height="100%" fill="#0d1117" stroke="#30363d" stroke-width="1" />
  <rect x="0" y="396" width="900" height="6" fill="url(#history-gradient)" clip-path="url(#history-rounded)" />
  <text x="24" y="34" class="title">Leonardo Klein Stats History</text>
  <text x="24" y="54" class="subtitle">Period: 2026-02-20 to 2026-03-02</text>
  <text x="72" y="320.0" text-anchor="end" dominant-baseline="central" class="axis-label">0</text><text x="72" y="270.0" text-anchor="end" dominant-baseline="central" class="axis-label">400</text><text x="72" y="220.0" text-anchor="end" dominant-baseline="central" class="axis-label">800</text><text x="72" y="170.0" text-anchor="end" dominant-baseline="central" class="axis-label">1.2k</text><text x="72" y="120.0" text-anchor="end" dominant-baseline="central" class="axis-label">1.6k</text><text x="72" y="70.0" text-anchor="end" dominant-baseline="central" class="axis-label">2.0k</text>
  <text x="80.0" y="336" text-anchor="middle" class="axis-label">02-20</text><text x="143.3" y="336" text-anchor="middle" class="axis-label">02-21</text><text x="206.7" y="336" text-anchor="middle" class="axis-label">02-22</text><text x="270.0" y="336" text-anchor="middle" class="axis-label">02-22</text><text x="333.3" y="336" text-anchor="middle" class="axis-label">02-23</text><text x="396.7" y="336" text-anchor="middle" class="axis-label">02-24</text><text x="460.0" y="336" text-anchor="middle" class="axis-label">02-25</text><text x="523.3" y="336" text-anchor="middle" class="axis-label">02-26</text><text x="586.7" y="336" text-anchor="middle" class="axis-label">02-26</text><text x="650.0" y="336" text-anchor="middle" class="axis-label">02-27</text><text x="713.3" y="336" text-anchor="middle" class="axis-label">02-28</text><text x="776.7" y="336" text-anchor="middle" class="axis-label">03-01</text><text x="840.0" y="336" text-anchor="middle" class="axis-label">03-02</text>
  <line x1="80" y1="320.0" x2="840" y2="320.0" class="grid-line" /><line x1="80" y1="270.0" x2="840" y2="270.0" class="grid-line" /><line x1="80" y1="220.0" x2="840" y2="220.0" class="grid-line" /><line x1="80" y1="170.0" x2="840" y2="170.0" class="grid-line" /><line x1="80" y1="120.0" x2="840" y2="120.0" class="grid-line" /><line x1="80" y1="70.0" x2="840" y2="70.0" class="grid-line" />
  <polyline points="80.0,317.0 95.8,317.0 111.7,317.0 127.5,317.0 143.3,317.0 159.2,317.0 175.0,317.0 190.8,317.0 206.7,317.0 222.5,317.0 238.3,317.0 254.2,317.0 270.0,317.0 285.8,317.0 301.7,317.0 317.5,317.0 333.3,317.0 349.2,317.0 365.0,317.0 380.8,317.0 396.7,317.0 412.5,317.0 428.3,317.0 444.2,317.0 460.0,317.0 475.8,317.0 491.7,317.0 507.5,317.0 523.3,317.0 539.2,317.0 555.0,317.0 570.8,317.0 586.7,317.0 602.5,317.0 618.3,317.0 634.2,317.0 650.0,317.0 665.8,317.0 681.7,317.0 697.5,317.0 713.3,317.0 729.2,317.0 745.0,317.0 760.8,317.0 776.7,317.0 792.5,317.0 808.3,317.0 824.2,317.0 840.0,317.0" fill="none" stroke="#19e5a1" stroke-width="2.5" stroke-linecap="round" stroke-linejoin="round" /><circle cx="80.0" cy="317.0" r="4" fill="#19e5a1" /><circle cx="95.8" cy="317.0" r="4" fill="#19e5a1" /><circle cx="111.7" cy="317.0" r="4" fill="#19e5a1" /><circle cx="127.5" cy="317.0" r="4" fill="#19e5a1" /><circle cx="143.3" cy="317.0" r="4" fill="#19e5a1" /><circle cx="159.2" cy="317.0" r="4" fill="#19e5a1" /><circle cx="175.0" cy="317.0" r="4" fill="#19e5a1" /><circle cx="190.8" cy="317.0" r="4" fill="#19e5a1" /><circle cx="206.7" cy="317.0" r="4" fill="#19e5a1" /><circle cx="222.5" cy="317.0" r="4" fill="#19e5a1" /><circle cx="238.3" cy="317.0" r="4" fill="#19e5a1" /><circle cx="254.2" cy="317.0" r="4" fill="#19e5a1" /><circle cx="270.0" cy="317.0" r="4" fill="#19e5a1" /><circle cx="285.8" cy="317.0" r="4" fill="#19e5a1" /><circle cx="301.7" cy="317.0" r="4" fill="#19e5a1" /><circle cx="317.5" cy="317.0" r="4" fill="#19e5a1" /><circle cx="333.3" cy="317.0" r="4" fill="#19e5a1" /><circle cx="349.2" cy="317.0" r="4" fill="#19e5a1" /><circle cx="365.0" cy="317.0" r="4" fill="#19e5a1" /><circle cx="380.8" cy="317.0" r="4" fill="#19e5a1" /><circle cx="396.7" cy="317.0" r="4" fill="#19e5a1" /><circle cx="412.5" cy="317.0" r="4" fill="#19e5a1" /><circle cx="428.3" cy="317.0" r="4" fill="#19e5a1" /><circle cx="444.2" cy="317.0" r="4" fill="#19e5a1" /><circle cx="460.0" cy="317.0" r="4" fill="#19e5a1" /><circle cx="475.8" cy="317.0" r="4" fill="#19e5a1" /><circle cx="491.7" cy="317.0" r="4" fill="#19e5a1" /><circle cx="507.5" cy="317.0" r="4" fill="#19e5a1" /><circle cx="523.3" cy="317.0" r="4" fill="#19e5a1" /><circle cx="539.2" cy="317.0" r="4" fill="#19e5a1" /><circle cx="555.0" cy="317.0" r="4" fill="#19e5a1" /><circle cx="570.8" cy="317.0" r="4" fill="#19e5a1" /><circle cx="586.7" cy="317.0" r="4" fill="#19e5a1" /><circle cx="602.5" cy="317.0" r="4" fill="#19e5a1" /><circle cx="618.3" cy="317.0" r="4" fill="#19e5a1" /><circle cx="634.2" cy="317.0" r="4" fill="#19e5a1" /><circle cx="650.0" cy="317.0" r="4" fill="#19e5a1" /><circle cx="665.8" cy="317.0" r="4" fill="#19e5a1" /><circle cx="681.7" cy="317.0" r="4" fill="#19e5a1" /><circle cx="697.5" cy="317.0" r="4" fill="#19e5a1" /><circle cx="713.3" cy="317.0" r="4" fill="#19e5a1" /><circle cx="729.2" cy="317.0" r="4" fill="#19e5a1" /><circle cx="745.0" cy="317.0" r="4" fill="#19e5a1" /><circle cx="760.8" cy="317.0" r="4" fill="#19e5a1" /><circle cx="776.7" cy="317.0" r="4" fill="#19e5a1" /><circle cx="792.5" cy="317.0" r="4" fill="#19e5a1" /><circle cx="808.3" cy="317.0" r="4" fill="#19e5a1" /><circle cx="824.2" cy="317.0" r="4" fill="#19e5a1" /><circle cx="840.0" cy="317.0" r="4" fill="#19e5a1" /><polyline points="80.0,313.2 95.8,312.2 111.7,312.1 127.5,312.4 143.3,312.4 159.2,312.4 175.0,312.1 190.8,312.0 206.7,311.9 222.5,311.9 238.3,311.8 254.2,311.8 270.0,311.5 285.8,311.5 301.7,311.5 317.5,311.2 333.3,311.2 349.2,311.1 365.0,311.1 380.8,311.1 396.7,310.9 412.5,311.0 428.3,310.8 444.2,310.8 460.0,310.8 475.8,310.8 491.7,310.4 507.5,310.2 523.3,310.4 539.2,310.4 555.0,310.4 570.8,310.4 586.7,310.4 602.5,310.2 618.3,310.2 634.2,310.1 650.0,310.1 665.8,309.8 681.7,309.6 697.5,309.6 713.3,309.6 729.2,309.6 745.0,309.5 760.8,309.4 776.7,309.4 792.5,309.4 808.3,309.4 824.2,309.2 840.0,309.2" fill="none" stroke="#6eb6ec" stroke-width="2.5" stroke-linecap="round" stroke-linejoin="round" /><circle cx="80.0" cy="313.2" r="4" fill="#6eb6ec" /><circle cx="95.8" cy="312.2" r="4" fill="#6eb6ec" /><circle cx="111.7" cy="312.1" r="4" fill="#6eb6ec" /><circle cx="127.5" cy="312.4" r="4" fill="#6eb6ec" /><circle cx="143.3" cy="312.4" r="4" fill="#6eb6ec" /><circle cx="159.2" cy="312.4" r="4" fill="#6eb6ec" /><circle cx="175.0" cy="312.1" r="4" fill="#6eb6ec" /><circle cx="190.8" cy="312.0" r="4" fill="#6eb6ec" /><circle cx="206.7" cy="311.9" r="4" fill="#6eb6ec" /><circle cx="222.5" cy="311.9" r="4" fill="#6eb6ec" /><circle cx="238.3" cy="311.8" r="4" fill="#6eb6ec" /><circle cx="254.2" cy="311.8" r="4" fill="#6eb6ec" /><circle cx="270.0" cy="311.5" r="4" fill="#6eb6ec" /><circle cx="285.8" cy="311.5" r="4" fill="#6eb6ec" /><circle cx="301.7" cy="311.5" r="4" fill="#6eb6ec" /><circle cx="317.5" cy="311.2" r="4" fill="#6eb6ec" /><circle cx="333.3" cy="311.2" r="4" fill="#6eb6ec" /><circle cx="349.2" cy="311.1" r="4" fill="#6eb6ec" /><circle cx="365.0" cy="311.1" r="4" fill="#6eb6ec" /><circle cx="380.8" cy="311.1" r="4" fill="#6eb6ec" /><circle cx="396.7" cy="310.9" r="4" fill="#6eb6ec" /><circle cx="412.5" cy="311.0" r="4" fill="#6eb6ec" /><circle cx="428.3" cy="310.8" r="4" fill="#6eb6ec" /><circle cx="444.2" cy="310.8" r="4" fill="#6eb6ec" /><circle cx="460.0" cy="310.8" r="4" fill="#6eb6ec" /><circle cx="475.8" cy="310.8" r="4" fill="#6eb6ec" /><circle cx="491.7" cy="310.4" r="4" fill="#6eb6ec" /><circle cx="507.5" cy="310.2" r="4" fill="#6eb6ec" /><circle cx="523.3" cy="310.4" r="4" fill="#6eb6ec" /><circle cx="539.2" cy="310.4" r="4" fill="#6eb6ec" /><circle cx="555.0" cy="310.4" r="4" fill="#6eb6ec" /><circle cx="570.8" cy="310.4" r="4" fill="#6eb6ec" /><circle cx="586.7" cy="310.4" r="4" fill="#6eb6ec" /><circle cx="602.5" cy="310.2" r="4" fill="#6eb6ec" /><circle cx="618.3" cy="310.2" r="4" fill="#6eb6ec" /><circle cx="634.2" cy="310.1" r="4" fill="#6eb6ec" /><circle cx="650.0" cy="310.1" r="4" fill="#6eb6ec" /><circle cx="665.8" cy="309.8" r="4" fill="#6eb6ec" /><circle cx="681.7" cy="309.6" r="4" fill="#6eb6ec" /><circle cx="697.5" cy="309.6" r="4" fill="#6eb6ec" /><circle cx="713.3" cy="309.6" r="4" fill="#6eb6ec" /><circle cx="729.2" cy="309.6" r="4" fill="#6eb6ec" /><circle cx="745.0" cy="309.5" r="4" fill="#6eb6ec" /><circle cx="760.8" cy="309.4" r="4" fill="#6eb6ec" /><circle cx="776.7" cy="309.4" r="4" fill="#6eb6ec" /><circle cx="792.5" cy="309.4" r="4" fill="#6eb6ec" /><circle cx="808.3" cy="309.4" r="4" fill="#6eb6ec" /><circle cx="824.2" cy="309.2" r="4" fill="#6eb6ec" /><circle cx="840.0" cy="309.2" r="4" fill="#6eb6ec" /><polyline points="80.0,305.8 95.8,305.8 111.7,305.8 127.5,305.8 143.3,305.8 159.2,305.8 175.0,305.8 190.8,305.8 206.7,305.8 222.5,305.8 238.3,304.9 254.2,304.9 270.0,304.9 285.8,304.9 301.7,304.9 317.5,304.9 333.3,304.9 349.2,304.9 365.0,304.9 380.8,304.9 396.7,304.9 412.5,304.9 428.3,304.9 444.2,304.9 460.0,304.9 475.8,304.9 491.7,304.9 507.5,304.9 523.3,304.9 539.2,304.9 555.0,304.9 570.8,304.9 586.7,304.9 602.5,304.9 618.3,304.9 634.2,304.9 650.0,304.9 665.8,303.6 681.7,303.6 697.5,303.6 713.3,303.6 729.2,303.6 745.0,303.6 760.8,303.6 776.7,303.6 792.5,303.6 808.3,303.6 824.2,303.6 840.0,303.6" fill="none" stroke="#5938e2" stroke-width="2.5" stroke-linecap="round" stroke-linejoin="round" /><circle cx="80.0" cy="305.8" r="4" fill="#5938e2" /><circle cx="95.8" cy="305.8" r="4" fill="#5938e2" /><circle cx="111.7" cy="305.8" r="4" fill="#5938e2" /><circle cx="127.5" cy="305.8" r="4" fill="#5938e2" /><circle cx="143.3" cy="305.8" r="4" fill="#5938e2" /><circle cx="159.2" cy="305.8" r="4" fill="#5938e2" /><circle cx="175.0" cy="305.8" r="4" fill="#5938e2" /><circle cx="190.8" cy="305.8" r="4" fill="#5938e2" /><circle cx="206.7" cy="305.8" r="4" fill="#5938e2" /><circle cx="222.5" cy="305.8" r="4" fill="#5938e2" /><circle cx="238.3" cy="304.9" r="4" fill="#5938e2" /><circle cx="254.2" cy="304.9" r="4" fill="#5938e2" /><circle cx="270.0" cy="304.9" r="4" fill="#5938e2" /><circle cx="285.8" cy="304.9" r="4" fill="#5938e2" /><circle cx="301.7" cy="304.9" r="4" fill="#5938e2" /><circle cx="317.5" cy="304.9" r="4" fill="#5938e2" /><circle cx="333.3" cy="304.9" r="4" fill="#5938e2" /><circle cx="349.2" cy="304.9" r="4" fill="#5938e2" /><circle cx="365.0" cy="304.9" r="4" fill="#5938e2" /><circle cx="380.8" cy="304.9" r="4" fill="#5938e2" /><circle cx="396.7" cy="304.9" r="4" fill="#5938e2" /><circle cx="412.5" cy="304.9" r="4" fill="#5938e2" /><circle cx="428.3" cy="304.9" r="4" fill="#5938e2" /><circle cx="444.2" cy="304.9" r="4" fill="#5938e2" /><circle cx="460.0" cy="304.9" r="4" fill="#5938e2" /><circle cx="475.8" cy="304.9" r="4" fill="#5938e2" /><circle cx="491.7" cy="304.9" r="4" fill="#5938e2" /><circle cx="507.5" cy="304.9" r="4" fill="#5938e2" /><circle cx="523.3" cy="304.9" r="4" fill="#5938e2" /><circle cx="539.2" cy="304.9" r="4" fill="#5938e2" /><circle cx="555.0" cy="304.9" r="4" fill="#5938e2" /><circle cx="570.8" cy="304.9" r="4" fill="#5938e2" /><circle cx="586.7" cy="304.9" r="4" fill="#5938e2" /><circle cx="602.5" cy="304.9" r="4" fill="#5938e2" /><circle cx="618.3" cy="304.9" r="4" fill="#5938e2" /><circle cx="634.2" cy="304.9" r="4" fill="#5938e2" /><circle cx="650.0" cy="304.9" r="4" fill="#5938e2" /><circle cx="665.8" cy="303.6" r="4" fill="#5938e2" /><circle cx="681.7" cy="303.6" r="4" fill="#5938e2" /><circle cx="697.5" cy="303.6" r="4" fill="#5938e2" /><circle cx="713.3" cy="303.6" r="4" fill="#5938e2" /><circle cx="729.2" cy="303.6" r="4" fill="#5938e2" /><circle cx="745.0" cy="303.6" r="4" fill="#5938e2" /><circle cx="760.8" cy="303.6" r="4" fill="#5938e2" /><circle cx="776.7" cy="303.6" r="4" fill="#5938e2" /><circle cx="792.5" cy="303.6" r="4" fill="#5938e2" /><circle cx="808.3" cy="303.6" r="4" fill="#5938e2" /><circle cx="824.2" cy="303.6" r="4" fill="#5938e2" /><circle cx="840.0" cy="303.6" r="4" fill="#5938e2" /><polyline points="80.0,144.6 95.8,140.1 111.7,139.9 127.5,139.8 143.3,139.8 159.2,139.6 175.0,139.6 190.8,139.6 206.7,139.6 222.5,139.6 238.3,138.4 254.2,138.4 270.0,138.4 285.8,138.4 301.7,138.4 317.5,138.4 333.3,138.4 349.2,137.4 365.0,137.4 380.8,137.4 396.7,137.4 412.5,137.4 428.3,137.4 444.2,137.4 460.0,137.4 475.8,137.4 491.7,137.4 507.5,137.4 523.3,131.2 539.2,131.2 555.0,130.8 570.8,130.4 586.7,126.9 602.5,126.9 618.3,126.9 634.2,126.9 650.0,126.9 665.8,126.9 681.7,126.9 697.5,126.9 713.3,126.9 729.2,126.8 745.0,122.1 760.8,120.4 776.7,120.4 792.5,120.4 808.3,120.4 824.2,120.4 840.0,119.4" fill="none" stroke="#60e5e0" stroke-width="2.5" stroke-linecap="round" stroke-linejoin="round" /><circle cx="80.0" cy="144.6" r="4" fill="#60e5e0" /><circle cx="95.8" cy="140.1" r="4" fill="#60e5e0" /><circle cx="111.7" cy="139.9" r="4" fill="#60e5e0" /><circle cx="127.5" cy="139.8" r="4" fill="#60e5e0" /><circle cx="143.3" cy="139.8" r="4" fill="#60e5e0" /><circle cx="159.2" cy="139.6" r="4" fill="#60e5e0" /><circle cx="175.0" cy="139.6" r="4" fill="#60e5e0" /><circle cx="190.8" cy="139.6" r="4" fill="#60e5e0" /><circle cx="206.7" cy="139.6" r="4" fill="#60e5e0" /><circle cx="222.5" cy="139.6" r="4" fill="#60e5e0" /><circle cx="238.3" cy="138.4" r="4" fill="#60e5e0" /><circle cx="254.2" cy="138.4" r="4" fill="#60e5e0" /><circle cx="270.0" cy="138.4" r="4" fill="#60e5e0" /><circle cx="285.8" cy="138.4" r="4" fill="#60e5e0" /><circle cx="301.7" cy="138.4" r="4" fill="#60e5e0" /><circle cx="317.5" cy="138.4" r="4" fill="#60e5e0" /><circle cx="333.3" cy="138.4" r="4" fill="#60e5e0" /><circle cx="349.2" cy="137.4" r="4" fill="#60e5e0" /><circle cx="365.0" cy="137.4" r="4" fill="#60e5e0" /><circle cx="380.8" cy="137.4" r="4" fill="#60e5e0" /><circle cx="396.7" cy="137.4" r="4" fill="#60e5e0" /><circle cx="412.5" cy="137.4" r="4" fill="#60e5e0" /><circle cx="428.3" cy="137.4" r="4" fill="#60e5e0" /><circle cx="444.2" cy="137.4" r="4" fill="#60e5e0" /><circle cx="460.0" cy="137.4" r="4" fill="#60e5e0" /><circle cx="475.8" cy="137.4" r="4" fill="#60e5e0" /><circle cx="491.7" cy="137.4" r="4" fill="#60e5e0" /><circle cx="507.5" cy="137.4" r="4" fill="#60e5e0" /><circle cx="523.3" cy="131.2" r="4" fill="#60e5e0" /><circle cx="539.2" cy="131.2" r="4" fill="#60e5e0" /><circle cx="555.0" cy="130.8" r="4" fill="#60e5e0" /><circle cx="570.8" cy="130.4" r="4" fill="#60e5e0" /><circle cx="586.7" cy="126.9" r="4" fill="#60e5e0" /><circle cx="602.5" cy="126.9" r="4" fill="#60e5e0" /><circle cx="618.3" cy="126.9" r="4" fill="#60e5e0" /><circle cx="634.2" cy="126.9" r="4" fill="#60e5e0" /><circle cx="650.0" cy="126.9" r="4" fill="#60e5e0" /><circle cx="665.8" cy="126.9" r="4" fill="#60e5e0" /><circle cx="681.7" cy="126.9" r="4" fill="#60e5e0" /><circle cx="697.5" cy="126.9" r="4" fill="#60e5e0" /><circle cx="713.3" cy="126.9" r="4" fill="#60e5e0" /><circle cx="729.2" cy="126.8" r="4" fill="#60e5e0" /><circle cx="745.0" cy="122.1" r="4" fill="#60e5e0" /><circle cx="760.8" cy="120.4" r="4" fill="#60e5e0" /><circle cx="776.7" cy="120.4" r="4" fill="#60e5e0" /><circle cx="792.5" cy="120.4" r="4" fill="#60e5e0" /><circle cx="808.3" cy="120.4" r="4" fill="#60e5e0" /><circle cx="824.2" cy="120.4" r="4" fill="#60e5e0" /><circle cx="840.0" cy="119.4" r="4" fill="#60e5e0" /><polyline points="80.0,314.6 95.8,314.4 111.7,314.2 127.5,314.2 143.3,314.2 159.2,314.1 175.0,314.1 190.8,314.1 206.7,314.1 222.5,314.1 238.3,314.0 254.2,314.0 270.0,314.0 285.8,314.0 301.7,314.0 317.5,314.0 333.3,314.0 349.2,314.0 365.0,314.0 380.8,314.0 396.7,314.0 412.5,314.0 428.3,314.0 444.2,314.0 460.0,314.0 475.8,314.0 491.7,314.0 507.5,314.0 523.3,314.0 539.2,314.0 555.0,314.0 570.8,314.0 586.7,314.0 602.5,314.0 618.3,314.0 634.2,314.0 650.0,314.0 665.8,314.0 681.7,314.0 697.5,314.0 713.3,314.0 729.2,313.9 745.0,313.6 760.8,313.4 776.7,313.4 792.5,313.4 808.3,313.4 824.2,313.4 840.0,313.1" fill="none" stroke="#567de1" stroke-width="2.5" stroke-linecap="round" stroke-linejoin="round" /><circle cx="80.0" cy="314.6" r="4" fill="#567de1" /><circle cx="95.8" cy="314.4" r="4" fill="#567de1" /><circle cx="111.7" cy="314.2" r="4" fill="#567de1" /><circle cx="127.5" cy="314.2" r="4" fill="#567de1" /><circle cx="143.3" cy="314.2" r="4" fill="#567de1" /><circle cx="159.2" cy="314.1" r="4" fill="#567de1" /><circle cx="175.0" cy="314.1" r="4" fill="#567de1" /><circle cx="190.8" cy="314.1" r="4" fill="#567de1" /><circle cx="206.7" cy="314.1" r="4" fill="#567de1" /><circle cx="222.5" cy="314.1" r="4" fill="#567de1" /><circle cx="238.3" cy="314.0" r="4" fill="#567de1" /><circle cx="254.2" cy="314.0" r="4" fill="#567de1" /><circle cx="270.0" cy="314.0" r="4" fill="#567de1" /><circle cx="285.8" cy="314.0" r="4" fill="#567de1" /><circle cx="301.7" cy="314.0" r="4" fill="#567de1" /><circle cx="317.5" cy="314.0" r="4" fill="#567de1" /><circle cx="333.3" cy="314.0" r="4" fill="#567de1" /><circle cx="349.2" cy="314.0" r="4" fill="#567de1" /><circle cx="365.0" cy="314.0" r="4" fill="#567de1" /><circle cx="380.8" cy="314.0" r="4" fill="#567de1" /><circle cx="396.7" cy="314.0" r="4" fill="#567de1" /><circle cx="412.5" cy="314.0" r="4" fill="#567de1" /><circle cx="428.3" cy="314.0" r="4" fill="#567de1" /><circle cx="444.2" cy="314.0" r="4" fill="#567de1" /><circle cx="460.0" cy="314.0" r="4" fill="#567de1" /><circle cx="475.8" cy="314.0" r="4" fill="#567de1" /><circle cx="491.7" cy="314.0" r="4" fill="#567de1" /><circle cx="507.5" cy="314.0" r="4" fill="#567de1" /><circle cx="523.3" cy="314.0" r="4" fill="#567de1" /><circle cx="539.2" cy="314.0" r="4" fill="#567de1" /><circle cx="555.0" cy="314.0" r="4" fill="#567de1" /><circle cx="570.8" cy="314.0" r="4" fill="#567de1" /><circle cx="586.7" cy="314.0" r="4" fill="#567de1" /><circle cx="602.5" cy="314.0" r="4" fill="#567de1" /><circle cx="618.3" cy="314.0" r="4" fill="#567de1" /><circle cx="634.2" cy="314.0" r="4" fill="#567de1" /><circle cx="650.0" cy="314.0" r="4" fill="#567de1" /><circle cx="665.8" cy="314.0" r="4" fill="#567de1" /><circle cx="681.7" cy="314.0" r="4" fill="#567de1" /><circle cx="697.5" cy="314.0" r="4" fill="#567de1" /><circle cx="713.3" cy="314.0" r="4" fill="#567de1" /><circle cx="729.2" cy="313.9" r="4" fill="#567de1" /><circle cx="745.0" cy="313.6" r="4" fill="#567de1" /><circle cx="760.8" cy="313.4" r="4" fill="#567de1" /><circle cx="776.7" cy="313.4" r="4" fill="#567de1" /><circle cx="792.5" cy="313.4" r="4" fill="#567de1" /><circle cx="808.3" cy="313.4" r="4" fill="#567de1" /><circle cx="824.2" cy="313.4" r="4" fill="#567de1" /><circle cx="840.0" cy="313.1" r="4" fill="#567de1" /><polyline points="80.0,303.9 95.8,304.2 111.7,304.4 127.5,304.4 143.3,304.4 159.2,304.4 175.0,304.4 190.8,304.4 206.7,304.4 222.5,304.4 238.3,304.4 254.2,304.4 270.0,304.4 285.8,304.4 301.7,304.4 317.5,304.4 333.3,304.4 349.2,304.4 365.0,304.4 380.8,304.4 396.7,304.4 412.5,304.4 428.3,304.4 444.2,304.4 460.0,304.4 475.8,304.4 491.7,304.4 507.5,304.4 523.3,299.1 539.2,299.1 555.0,299.1 570.8,298.9 586.7,295.6 602.5,295.6 618.3,295.6 634.2,295.6 650.0,295.6 665.8,295.6 681.7,295.6 697.5,295.6 713.3,295.6 729.2,295.8 745.0,295.9 760.8,295.9 776.7,295.9 792.5,295.9 808.3,295.9 824.2,295.9 840.0,295.9" fill="none" stroke="#9754dd" stroke-width="2.5" stroke-linecap="round" stroke-linejoin="round" /><circle cx="80.0" cy="303.9" r="4" fill="#9754dd" /><circle cx="95.8" cy="304.2" r="4" fill="#9754dd" /><circle cx="111.7" cy="304.4" r="4" fill="#9754dd" /><circle cx="127.5" cy="304.4" r="4" fill="#9754dd" /><circle cx="143.3" cy="304.4" r="4" fill="#9754dd" /><circle cx="159.2" cy="304.4" r="4" fill="#9754dd" /><circle cx="175.0" cy="304.4" r="4" fill="#9754dd" /><circle cx="190.8" cy="304.4" r="4" fill="#9754dd" /><circle cx="206.7" cy="304.4" r="4" fill="#9754dd" /><circle cx="222.5" cy="304.4" r="4" fill="#9754dd" /><circle cx="238.3" cy="304.4" r="4" fill="#9754dd" /><circle cx="254.2" cy="304.4" r="4" fill="#9754dd" /><circle cx="270.0" cy="304.4" r="4" fill="#9754dd" /><circle cx="285.8" cy="304.4" r="4" fill="#9754dd" /><circle cx="301.7" cy="304.4" r="4" fill="#9754dd" /><circle cx="317.5" cy="304.4" r="4" fill="#9754dd" /><circle cx="333.3" cy="304.4" r="4" fill="#9754dd" /><circle cx="349.2" cy="304.4" r="4" fill="#9754dd" /><circle cx="365.0" cy="304.4" r="4" fill="#9754dd" /><circle cx="380.8" cy="304.4" r="4" fill="#9754dd" /><circle cx="396.7" cy="304.4" r="4" fill="#9754dd" /><circle cx="412.5" cy="304.4" r="4" fill="#9754dd" /><circle cx="428.3" cy="304.4" r="4" fill="#9754dd" /><circle cx="444.2" cy="304.4" r="4" fill="#9754dd" /><circle cx="460.0" cy="304.4" r="4" fill="#9754dd" /><circle cx="475.8" cy="304.4" r="4" fill="#9754dd" /><circle cx="491.7" cy="304.4" r="4" fill="#9754dd" /><circle cx="507.5" cy="304.4" r="4" fill="#9754dd" /><circle cx="523.3" cy="299.1" r="4" fill="#9754dd" /><circle cx="539.2" cy="299.1" r="4" fill="#9754dd" /><circle cx="555.0" cy="299.1" r="4" fill="#9754dd" /><circle cx="570.8" cy="298.9" r="4" fill="#9754dd" /><circle cx="586.7" cy="295.6" r="4" fill="#9754dd" /><circle cx="602.5" cy="295.6" r="4" fill="#9754dd" /><circle cx="618.3" cy="295.6" r="4" fill="#9754dd" /><circle cx="634.2" cy="295.6" r="4" fill="#9754dd" /><circle cx="650.0" cy="295.6" r="4" fill="#9754dd" /><circle cx="665.8" cy="295.6" r="4" fill="#9754dd" /><circle cx="681.7" cy="295.6" r="4" fill="#9754dd" /><circle cx="697.5" cy="295.6" r="4" fill="#9754dd" /><circle cx="713.3" cy="295.6" r="4" fill="#9754dd" /><circle cx="729.2" cy="295.8" r="4" fill="#9754dd" /><circle cx="745.0" cy="295.9" r="4" fill="#9754dd" /><circle cx="760.8" cy="295.9" r="4" fill="#9754dd" /><circle cx="776.7" cy="295.9" r="4" fill="#9754dd" /><circle cx="792.5" cy="295.9" r="4" fill="#9754dd" /><circle cx="808.3" cy="295.9" r="4" fill="#9754dd" /><circle cx="824.2" cy="295.9" r="4" fill="#9754dd" /><circle cx="840.0" cy="295.9" r="4" fill="#9754dd" />
  <rect x="80" y="339" width="10" height="10" rx="2" ry="2" fill="#19e5a1" /><text x="96" y="348" class="legend-label">Stars</text><rect x="250" y="339" width="10" height="10" rx="2" ry="2" fill="#6eb6ec" /><text x="266" y="348" class="legend-label">Followers</text><rect x="420" y="339" width="10" height="10" rx="2" ry="2" fill="#5938e2" /><text x="436" y="348" class="legend-label">Following</text><rect x="590" y="339" width="10" height="10" rx="2" ry="2" fill="#60e5e0" /><text x="606" y="348" class="legend-label">Contributions</text><rect x="80" y="357" width="10" height="10" rx="2" ry="2" fill="#567de1" /><text x="96" y="366" class="legend-label">Pull Requests</text><rect x="250" y="357" width="10" height="10" rx="2" ry="2" fill="#9754dd" /><text x="266" y="366" class="legend-label">Issues</text>
</svg>
