<svg width="900" height="402" viewBox="0 0 900 402" xmlns="http://www.w3.org/2000/svg">
  <defs>
    <linearGradient id="history-gradient" x1="0%" y1="0%" x2="100%" y2="100%">
      <stop offset="0%" style="stop-color:#58a6ff;stop-opacity:1" />
      <stop offset="100%" style="stop-color:#a371f7;stop-opacity:1" />
    </linearGradient>
    <clipPath id="history-rounded">
      <rect x="0" y="0" width="900" height="402" rx="8" ry="8" />
    </clipPath>
  </defs>
  <style>
    .title {
      font-family: 'Segoe UI', Ubuntu, 'Helvetica Neue', sans-serif;
      font-size: 22px;
      font-weight: 700;
      fill: #58a6ff;
    }
    .subtitle {
      font-family: 'Segoe UI', Ubuntu, 'Helvetica Neue', sans-serif;
      font-size: 12px;
      font-weight: 500;
      fill: #8b949e;
    }
    .axis-label {
      font-family: 'Segoe UI', Ubuntu, 'Helvetica Neue', sans-serif;
      font-size: 10px;
      fill: #8b949e;
    }
    .grid-line {
      stroke: #30363d;
      stroke-width: 1;
      opacity: 0.3;
    }
    .legend-label {
      font-family: 'Segoe UI', Ubuntu, 'Helvetica Neue', sans-serif;
      font-size: 11px;
      fill: #c9d1d9;
      dominant-baseline: middle;
    }
  </style>
  <rect clip-path="url(#history-rounded)" width="100%" height="100%" fill="#0d1117" stroke="#30363d" stroke-width="1" />
  <rect x="0" y="396" width="900" height="6" fill="url(#history-gradient)" clip-path="url(#history-rounded)" />
  <text x="24" y="34" class="title">Leonardo Klein Stats History</text>
  <text x="24" y="54" class="subtitle">Period: 2026-02-20 to 2026-03-05</text>
  <text x="72" y="320.0" text-anchor="end" dominant-baseline="central" class="axis-label">0</text><text x="72" y="270.0" text-anchor="end" dominant-baseline="central" class="axis-label">400</text><text x="72" y="220.0" text-anchor="end" dominant-baseline="central" class="axis-label">800</text><text x="72" y="170.0" text-anchor="end" dominant-baseline="central" class="axis-label">1.2k</text><text x="72" y="120.0" text-anchor="end" dominant-baseline="central" class="axis-label">1.6k</text><text x="72" y="70.0" text-anchor="end" dominant-baseline="central" class="axis-label">2.0k</text>
  <text x="80.0" y="336" text-anchor="middle" class="axis-label">02-20</text><text x="150.2" y="336" text-anchor="middle" class="axis-label">02-21</text><text x="220.3" y="336" text-anchor="middle" class="axis-label">02-22</text><text x="290.5" y="336" text-anchor="middle" class="axis-label">02-24</text><text x="360.6" y="336" text-anchor="middle" class="axis-label">02-25</text><text x="430.8" y="336" text-anchor="middle" class="axis-label">02-26</text><text x="500.9" y="336" text-anchor="middle" class="axis-label">02-27</text><text x="571.1" y="336" text-anchor="middle" class="axis-label">02-28</text><text x="641.2" y="336" text-anchor="middle" class="axis-label">03-02</text><text x="711.4" y="336" text-anchor="middle" class="axis-label">03-03</text><text x="781.5" y="336" text-anchor="middle" class="axis-label">03-04</text><text x="840.0" y="336" text-anchor="middle" class="axis-label">03-05</text>
  <line x1="80" y1="320.0" x2="840" y2="320.0" class="grid-line" /><line x1="80" y1="270.0" x2="840" y2="270.0" class="grid-line" /><line x1="80" y1="220.0" x2="840" y2="220.0" class="grid-line" /><line x1="80" y1="170.0" x2="840" y2="170.0" class="grid-line" /><line x1="80" y1="120.0" x2="840" y2="120.0" class="grid-line" /><line x1="80" y1="70.0" x2="840" y2="70.0" class="grid-line" />
  <polyline points="80.0,317.0 91.7,317.0 103.4,317.0 115.1,317.0 126.8,317.0 138.5,317.0 150.2,317.0 161.8,317.0 173.5,317.0 185.2,317.0 196.9,317.0 208.6,317.0 220.3,317.0 232.0,317.0 243.7,317.0 255.4,317.0 267.1,317.0 278.8,317.0 290.5,317.0 302.2,317.0 313.8,317.0 325.5,317.0 337.2,317.0 348.9,317.0 360.6,317.0 372.3,317.0 384.0,317.0 395.7,317.0 407.4,317.0 419.1,317.0 430.8,317.0 442.5,317.0 454.2,317.0 465.8,317.0 477.5,317.0 489.2,317.0 500.9,317.0 512.6,317.0 524.3,317.0 536.0,317.0 547.7,317.0 559.4,317.0 571.1,317.0 582.8,317.0 594.5,317.0 606.2,317.0 617.8,317.0 629.5,317.0 641.2,317.0 652.9,317.0 664.6,317.0 676.3,317.0 688.0,317.0 699.7,317.0 711.4,317.0 723.1,317.0 734.8,317.0 746.5,317.0 758.2,317.0 769.8,317.0 781.5,317.0 793.2,317.0 804.9,317.0 816.6,317.0 828.3,317.0 840.0,317.0" fill="none" stroke="#19e5a1" stroke-width="2.5" stroke-linecap="round" stroke-linejoin="round" /><circle cx="80.0" cy="317.0" r="4" fill="#19e5a1" /><circle cx="91.7" cy="317.0" r="4" fill="#19e5a1" /><circle cx="103.4" cy="317.0" r="4" fill="#19e5a1" /><circle cx="115.1" cy="317.0" r="4" fill="#19e5a1" /><circle cx="126.8" cy="317.0" r="4" fill="#19e5a1" /><circle cx="138.5" cy="317.0" r="4" fill="#19e5a1" /><circle cx="150.2" cy="317.0" r="4" fill="#19e5a1" /><circle cx="161.8" cy="317.0" r="4" fill="#19e5a1" /><circle cx="173.5" cy="317.0" r="4" fill="#19e5a1" /><circle cx="185.2" cy="317.0" r="4" fill="#19e5a1" /><circle cx="196.9" cy="317.0" r="4" fill="#19e5a1" /><circle cx="208.6" cy="317.0" r="4" fill="#19e5a1" /><circle cx="220.3" cy="317.0" r="4" fill="#19e5a1" /><circle cx="232.0" cy="317.0" r="4" fill="#19e5a1" /><circle cx="243.7" cy="317.0" r="4" fill="#19e5a1" /><circle cx="255.4" cy="317.0" r="4" fill="#19e5a1" /><circle cx="267.1" cy="317.0" r="4" fill="#19e5a1" /><circle cx="278.8" cy="317.0" r="4" fill="#19e5a1" /><circle cx="290.5" cy="317.0" r="4" fill="#19e5a1" /><circle cx="302.2" cy="317.0" r="4" fill="#19e5a1" /><circle cx="313.8" cy="317.0" r="4" fill="#19e5a1" /><circle cx="325.5" cy="317.0" r="4" fill="#19e5a1" /><circle cx="337.2" cy="317.0" r="4" fill="#19e5a1" /><circle cx="348.9" cy="317.0" r="4" fill="#19e5a1" /><circle cx="360.6" cy="317.0" r="4" fill="#19e5a1" /><circle cx="372.3" cy="317.0" r="4" fill="#19e5a1" /><circle cx="384.0" cy="317.0" r="4" fill="#19e5a1" /><circle cx="395.7" cy="317.0" r="4" fill="#19e5a1" /><circle cx="407.4" cy="317.0" r="4" fill="#19e5a1" /><circle cx="419.1" cy="317.0" r="4" fill="#19e5a1" /><circle cx="430.8" cy="317.0" r="4" fill="#19e5a1" /><circle cx="442.5" cy="317.0" r="4" fill="#19e5a1" /><circle cx="454.2" cy="317.0" r="4" fill="#19e5a1" /><circle cx="465.8" cy="317.0" r="4" fill="#19e5a1" /><circle cx="477.5" cy="317.0" r="4" fill="#19e5a1" /><circle cx="489.2" cy="317.0" r="4" fill="#19e5a1" /><circle cx="500.9" cy="317.0" r="4" fill="#19e5a1" /><circle cx="512.6" cy="317.0" r="4" fill="#19e5a1" /><circle cx="524.3" cy="317.0" r="4" fill="#19e5a1" /><circle cx="536.0" cy="317.0" r="4" fill="#19e5a1" /><circle cx="547.7" cy="317.0" r="4" fill="#19e5a1" /><circle cx="559.4" cy="317.0" r="4" fill="#19e5a1" /><circle cx="571.1" cy="317.0" r="4" fill="#19e5a1" /><circle cx="582.8" cy="317.0" r="4" fill="#19e5a1" /><circle cx="594.5" cy="317.0" r="4" fill="#19e5a1" /><circle cx="606.2" cy="317.0" r="4" fill="#19e5a1" /><circle cx="617.8" cy="317.0" r="4" fill="#19e5a1" /><circle cx="629.5" cy="317.0" r="4" fill="#19e5a1" /><circle cx="641.2" cy="317.0" r="4" fill="#19e5a1" /><circle cx="652.9" cy="317.0" r="4" fill="#19e5a1" /><circle cx="664.6" cy="317.0" r="4" fill="#19e5a1" /><circle cx="676.3" cy="317.0" r="4" fill="#19e5a1" /><circle cx="688.0" cy="317.0" r="4" fill="#19e5a1" /><circle cx="699.7" cy="317.0" r="4" fill="#19e5a1" /><circle cx="711.4" cy="317.0" r="4" fill="#19e5a1" /><circle cx="723.1" cy="317.0" r="4" fill="#19e5a1" /><circle cx="734.8" cy="317.0" r="4" fill="#19e5a1" /><circle cx="746.5" cy="317.0" r="4" fill="#19e5a1" /><circle cx="758.2" cy="317.0" r="4" fill="#19e5a1" /><circle cx="769.8" cy="317.0" r="4" fill="#19e5a1" /><circle cx="781.5" cy="317.0" r="4" fill="#19e5a1" /><circle cx="793.2" cy="317.0" r="4" fill="#19e5a1" /><circle cx="804.9" cy="317.0" r="4" fill="#19e5a1" /><circle cx="816.6" cy="317.0" r="4" fill="#19e5a1" /><circle cx="828.3" cy="317.0" r="4" fill="#19e5a1" /><circle cx="840.0" cy="317.0" r="4" fill="#19e5a1" /><polyline points="80.0,313.2 91.7,312.2 103.4,312.1 115.1,312.4 126.8,312.4 138.5,312.4 150.2,312.1 161.8,312.0 173.5,311.9 185.2,311.9 196.9,311.8 208.6,311.8 220.3,311.5 232.0,311.5 243.7,311.5 255.4,311.2 267.1,311.2 278.8,311.1 290.5,311.1 302.2,311.1 313.8,310.9 325.5,311.0 337.2,310.8 348.9,310.8 360.6,310.8 372.3,310.8 384.0,310.4 395.7,310.2 407.4,310.4 419.1,310.4 430.8,310.4 442.5,310.4 454.2,310.4 465.8,310.2 477.5,310.2 489.2,310.1 500.9,310.1 512.6,309.8 524.3,309.6 536.0,309.6 547.7,309.6 559.4,309.6 571.1,309.5 582.8,309.4 594.5,309.4 606.2,309.4 617.8,309.4 629.5,309.2 641.2,309.2 652.9,309.2 664.6,309.4 676.3,309.4 688.0,309.5 699.7,309.2 711.4,309.2 723.1,309.4 734.8,309.2 746.5,309.2 758.2,309.2 769.8,309.2 781.5,309.2 793.2,309.1 804.9,309.1 816.6,309.1 828.3,309.1 840.0,309.0" fill="none" stroke="#6eb6ec" stroke-width="2.5" stroke-linecap="round" stroke-linejoin="round" /><circle cx="80.0" cy="313.2" r="4" fill="#6eb6ec" /><circle cx="91.7" cy="312.2" r="4" fill="#6eb6ec" /><circle cx="103.4" cy="312.1" r="4" fill="#6eb6ec" /><circle cx="115.1" cy="312.4" r="4" fill="#6eb6ec" /><circle cx="126.8" cy="312.4" r="4" fill="#6eb6ec" /><circle cx="138.5" cy="312.4" r="4" fill="#6eb6ec" /><circle cx="150.2" cy="312.1" r="4" fill="#6eb6ec" /><circle cx="161.8" cy="312.0" r="4" fill="#6eb6ec" /><circle cx="173.5" cy="311.9" r="4" fill="#6eb6ec" /><circle cx="185.2" cy="311.9" r="4" fill="#6eb6ec" /><circle cx="196.9" cy="311.8" r="4" fill="#6eb6ec" /><circle cx="208.6" cy="311.8" r="4" fill="#6eb6ec" /><circle cx="220.3" cy="311.5" r="4" fill="#6eb6ec" /><circle cx="232.0" cy="311.5" r="4" fill="#6eb6ec" /><circle cx="243.7" cy="311.5" r="4" fill="#6eb6ec" /><circle cx="255.4" cy="311.2" r="4" fill="#6eb6ec" /><circle cx="267.1" cy="311.2" r="4" fill="#6eb6ec" /><circle cx="278.8" cy="311.1" r="4" fill="#6eb6ec" /><circle cx="290.5" cy="311.1" r="4" fill="#6eb6ec" /><circle cx="302.2" cy="311.1" r="4" fill="#6eb6ec" /><circle cx="313.8" cy="310.9" r="4" fill="#6eb6ec" /><circle cx="325.5" cy="311.0" r="4" fill="#6eb6ec" /><circle cx="337.2" cy="310.8" r="4" fill="#6eb6ec" /><circle cx="348.9" cy="310.8" r="4" fill="#6eb6ec" /><circle cx="360.6" cy="310.8" r="4" fill="#6eb6ec" /><circle cx="372.3" cy="310.8" r="4" fill="#6eb6ec" /><circle cx="384.0" cy="310.4" r="4" fill="#6eb6ec" /><circle cx="395.7" cy="310.2" r="4" fill="#6eb6ec" /><circle cx="407.4" cy="310.4" r="4" fill="#6eb6ec" /><circle cx="419.1" cy="310.4" r="4" fill="#6eb6ec" /><circle cx="430.8" cy="310.4" r="4" fill="#6eb6ec" /><circle cx="442.5" cy="310.4" r="4" fill="#6eb6ec" /><circle cx="454.2" cy="310.4" r="4" fill="#6eb6ec" /><circle cx="465.8" cy="310.2" r="4" fill="#6eb6ec" /><circle cx="477.5" cy="310.2" r="4" fill="#6eb6ec" /><circle cx="489.2" cy="310.1" r="4" fill="#6eb6ec" /><circle cx="500.9" cy="310.1" r="4" fill="#6eb6ec" /><circle cx="512.6" cy="309.8" r="4" fill="#6eb6ec" /><circle cx="524.3" cy="309.6" r="4" fill="#6eb6ec" /><circle cx="536.0" cy="309.6" r="4" fill="#6eb6ec" /><circle cx="547.7" cy="309.6" r="4" fill="#6eb6ec" /><circle cx="559.4" cy="309.6" r="4" fill="#6eb6ec" /><circle cx="571.1" cy="309.5" r="4" fill="#6eb6ec" /><circle cx="582.8" cy="309.4" r="4" fill="#6eb6ec" /><circle cx="594.5" cy="309.4" r="4" fill="#6eb6ec" /><circle cx="606.2" cy="309.4" r="4" fill="#6eb6ec" /><circle cx="617.8" cy="309.4" r="4" fill="#6eb6ec" /><circle cx="629.5" cy="309.2" r="4" fill="#6eb6ec" /><circle cx="641.2" cy="309.2" r="4" fill="#6eb6ec" /><circle cx="652.9" cy="309.2" r="4" fill="#6eb6ec" /><circle cx="664.6" cy="309.4" r="4" fill="#6eb6ec" /><circle cx="676.3" cy="309.4" r="4" fill="#6eb6ec" /><circle cx="688.0" cy="309.5" r="4" fill="#6eb6ec" /><circle cx="699.7" cy="309.2" r="4" fill="#6eb6ec" /><circle cx="711.4" cy="309.2" r="4" fill="#6eb6ec" /><circle cx="723.1" cy="309.4" r="4" fill="#6eb6ec" /><circle cx="734.8" cy="309.2" r="4" fill="#6eb6ec" /><circle cx="746.5" cy="309.2" r="4" fill="#6eb6ec" /><circle cx="758.2" cy="309.2" r="4" fill="#6eb6ec" /><circle cx="769.8" cy="309.2" r="4" fill="#6eb6ec" /><circle cx="781.5" cy="309.2" r="4" fill="#6eb6ec" /><circle cx="793.2" cy="309.1" r="4" fill="#6eb6ec" /><circle cx="804.9" cy="309.1" r="4" fill="#6eb6ec" /><circle cx="816.6" cy="309.1" r="4" fill="#6eb6ec" /><circle cx="828.3" cy="309.1" r="4" fill="#6eb6ec" /><circle cx="840.0" cy="309.0" r="4" fill="#6eb6ec" /><polyline points="80.0,305.8 91.7,305.8 103.4,305.8 115.1,305.8 126.8,305.8 138.5,305.8 150.2,305.8 161.8,305.8 173.5,305.8 185.2,305.8 196.9,304.9 208.6,304.9 220.3,304.9 232.0,304.9 243.7,304.9 255.4,304.9 267.1,304.9 278.8,304.9 290.5,304.9 302.2,304.9 313.8,304.9 325.5,304.9 337.2,304.9 348.9,304.9 360.6,304.9 372.3,304.9 384.0,304.9 395.7,304.9 407.4,304.9 419.1,304.9 430.8,304.9 442.5,304.9 454.2,304.9 465.8,304.9 477.5,304.9 489.2,304.9 500.9,304.9 512.6,303.6 524.3,303.6 536.0,303.6 547.7,303.6 559.4,303.6 571.1,303.6 582.8,303.6 594.5,303.6 606.2,303.6 617.8,303.6 629.5,303.6 641.2,303.6 652.9,303.6 664.6,303.6 676.3,302.9 688.0,302.9 699.7,298.0 711.4,298.0 723.1,298.0 734.8,298.0 746.5,298.0 758.2,298.0 769.8,298.0 781.5,298.0 793.2,298.0 804.9,298.0 816.6,298.0 828.3,298.0 840.0,298.0" fill="none" stroke="#5938e2" stroke-width="2.5" stroke-linecap="round" stroke-linejoin="round" /><circle cx="80.0" cy="305.8" r="4" fill="#5938e2" /><circle cx="91.7" cy="305.8" r="4" fill="#5938e2" /><circle cx="103.4" cy="305.8" r="4" fill="#5938e2" /><circle cx="115.1" cy="305.8" r="4" fill="#5938e2" /><circle cx="126.8" cy="305.8" r="4" fill="#5938e2" /><circle cx="138.5" cy="305.8" r="4" fill="#5938e2" /><circle cx="150.2" cy="305.8" r="4" fill="#5938e2" /><circle cx="161.8" cy="305.8" r="4" fill="#5938e2" /><circle cx="173.5" cy="305.8" r="4" fill="#5938e2" /><circle cx="185.2" cy="305.8" r="4" fill="#5938e2" /><circle cx="196.9" cy="304.9" r="4" fill="#5938e2" /><circle cx="208.6" cy="304.9" r="4" fill="#5938e2" /><circle cx="220.3" cy="304.9" r="4" fill="#5938e2" /><circle cx="232.0" cy="304.9" r="4" fill="#5938e2" /><circle cx="243.7" cy="304.9" r="4" fill="#5938e2" /><circle cx="255.4" cy="304.9" r="4" fill="#5938e2" /><circle cx="267.1" cy="304.9" r="4" fill="#5938e2" /><circle cx="278.8" cy="304.9" r="4" fill="#5938e2" /><circle cx="290.5" cy="304.9" r="4" fill="#5938e2" /><circle cx="302.2" cy="304.9" r="4" fill="#5938e2" /><circle cx="313.8" cy="304.9" r="4" fill="#5938e2" /><circle cx="325.5" cy="304.9" r="4" fill="#5938e2" /><circle cx="337.2" cy="304.9" r="4" fill="#5938e2" /><circle cx="348.9" cy="304.9" r="4" fill="#5938e2" /><circle cx="360.6" cy="304.9" r="4" fill="#5938e2" /><circle cx="372.3" cy="304.9" r="4" fill="#5938e2" /><circle cx="384.0" cy="304.9" r="4" fill="#5938e2" /><circle cx="395.7" cy="304.9" r="4" fill="#5938e2" /><circle cx="407.4" cy="304.9" r="4" fill="#5938e2" /><circle cx="419.1" cy="304.9" r="4" fill="#5938e2" /><circle cx="430.8" cy="304.9" r="4" fill="#5938e2" /><circle cx="442.5" cy="304.9" r="4" fill="#5938e2" /><circle cx="454.2" cy="304.9" r="4" fill="#5938e2" /><circle cx="465.8" cy="304.9" r="4" fill="#5938e2" /><circle cx="477.5" cy="304.9" r="4" fill="#5938e2" /><circle cx="489.2" cy="304.9" r="4" fill="#5938e2" /><circle cx="500.9" cy="304.9" r="4" fill="#5938e2" /><circle cx="512.6" cy="303.6" r="4" fill="#5938e2" /><circle cx="524.3" cy="303.6" r="4" fill="#5938e2" /><circle cx="536.0" cy="303.6" r="4" fill="#5938e2" /><circle cx="547.7" cy="303.6" r="4" fill="#5938e2" /><circle cx="559.4" cy="303.6" r="4" fill="#5938e2" /><circle cx="571.1" cy="303.6" r="4" fill="#5938e2" /><circle cx="582.8" cy="303.6" r="4" fill="#5938e2" /><circle cx="594.5" cy="303.6" r="4" fill="#5938e2" /><circle cx="606.2" cy="303.6" r="4" fill="#5938e2" /><circle cx="617.8" cy="303.6" r="4" fill="#5938e2" /><circle cx="629.5" cy="303.6" r="4" fill="#5938e2" /><circle cx="641.2" cy="303.6" r="4" fill="#5938e2" /><circle cx="652.9" cy="303.6" r="4" fill="#5938e2" /><circle cx="664.6" cy="303.6" r="4" fill="#5938e2" /><circle cx="676.3" cy="302.9" r="4" fill="#5938e2" /><circle cx="688.0" cy="302.9" r="4" fill="#5938e2" /><circle cx="699.7" cy="298.0" r="4" fill="#5938e2" /><circle cx="711.4" cy="298.0" r="4" fill="#5938e2" /><circle cx="723.1" cy="298.0" r="4" fill="#5938e2" /><circle cx="734.8" cy="298.0" r="4" fill="#5938e2" /><circle cx="746.5" cy="298.0" r="4" fill="#5938e2" /><circle cx="758.2" cy="298.0" r="4" fill="#5938e2" /><circle cx="769.8" cy="298.0" r="4" fill="#5938e2" /><circle cx="781.5" cy="298.0" r="4" fill="#5938e2" /><circle cx="793.2" cy="298.0" r="4" fill="#5938e2" /><circle cx="804.9" cy="298.0" r="4" fill="#5938e2" /><circle cx="816.6" cy="298.0" r="4" fill="#5938e2" /><circle cx="828.3" cy="298.0" r="4" fill="#5938e2" /><circle cx="840.0" cy="298.0" r="4" fill="#5938e2" /><polyline points="80.0,144.6 91.7,140.1 103.4,139.9 115.1,139.8 126.8,139.8 138.5,139.6 150.2,139.6 161.8,139.6 173.5,139.6 185.2,139.6 196.9,138.4 208.6,138.4 220.3,138.4 232.0,138.4 243.7,138.4 255.4,138.4 267.1,138.4 278.8,137.4 290.5,137.4 302.2,137.4 313.8,137.4 325.5,137.4 337.2,137.4 348.9,137.4 360.6,137.4 372.3,137.4 384.0,137.4 395.7,137.4 407.4,131.2 419.1,131.2 430.8,130.8 442.5,130.4 454.2,126.9 465.8,126.9 477.5,126.9 489.2,126.9 500.9,126.9 512.6,126.9 524.3,126.9 536.0,126.9 547.7,126.9 559.4,126.8 571.1,122.1 582.8,120.4 594.5,120.4 606.2,120.4 617.8,120.4 629.5,120.4 641.2,119.4 652.9,119.4 664.6,119.4 676.3,119.4 688.0,119.1 699.7,118.8 711.4,118.8 723.1,117.8 734.8,117.8 746.5,117.8 758.2,115.8 769.8,115.8 781.5,115.0 793.2,115.0 804.9,115.0 816.6,115.0 828.3,115.0 840.0,115.0" fill="none" stroke="#60e5e0" stroke-width="2.5" stroke-linecap="round" stroke-linejoin="round" /><circle cx="80.0" cy="144.6" r="4" fill="#60e5e0" /><circle cx="91.7" cy="140.1" r="4" fill="#60e5e0" /><circle cx="103.4" cy="139.9" r="4" fill="#60e5e0" /><circle cx="115.1" cy="139.8" r="4" fill="#60e5e0" /><circle cx="126.8" cy="139.8" r="4" fill="#60e5e0" /><circle cx="138.5" cy="139.6" r="4" fill="#60e5e0" /><circle cx="150.2" cy="139.6" r="4" fill="#60e5e0" /><circle cx="161.8" cy="139.6" r="4" fill="#60e5e0" /><circle cx="173.5" cy="139.6" r="4" fill="#60e5e0" /><circle cx="185.2" cy="139.6" r="4" fill="#60e5e0" /><circle cx="196.9" cy="138.4" r="4" fill="#60e5e0" /><circle cx="208.6" cy="138.4" r="4" fill="#60e5e0" /><circle cx="220.3" cy="138.4" r="4" fill="#60e5e0" /><circle cx="232.0" cy="138.4" r="4" fill="#60e5e0" /><circle cx="243.7" cy="138.4" r="4" fill="#60e5e0" /><circle cx="255.4" cy="138.4" r="4" fill="#60e5e0" /><circle cx="267.1" cy="138.4" r="4" fill="#60e5e0" /><circle cx="278.8" cy="137.4" r="4" fill="#60e5e0" /><circle cx="290.5" cy="137.4" r="4" fill="#60e5e0" /><circle cx="302.2" cy="137.4" r="4" fill="#60e5e0" /><circle cx="313.8" cy="137.4" r="4" fill="#60e5e0" /><circle cx="325.5" cy="137.4" r="4" fill="#60e5e0" /><circle cx="337.2" cy="137.4" r="4" fill="#60e5e0" /><circle cx="348.9" cy="137.4" r="4" fill="#60e5e0" /><circle cx="360.6" cy="137.4" r="4" fill="#60e5e0" /><circle cx="372.3" cy="137.4" r="4" fill="#60e5e0" /><circle cx="384.0" cy="137.4" r="4" fill="#60e5e0" /><circle cx="395.7" cy="137.4" r="4" fill="#60e5e0" /><circle cx="407.4" cy="131.2" r="4" fill="#60e5e0" /><circle cx="419.1" cy="131.2" r="4" fill="#60e5e0" /><circle cx="430.8" cy="130.8" r="4" fill="#60e5e0" /><circle cx="442.5" cy="130.4" r="4" fill="#60e5e0" /><circle cx="454.2" cy="126.9" r="4" fill="#60e5e0" /><circle cx="465.8" cy="126.9" r="4" fill="#60e5e0" /><circle cx="477.5" cy="126.9" r="4" fill="#60e5e0" /><circle cx="489.2" cy="126.9" r="4" fill="#60e5e0" /><circle cx="500.9" cy="126.9" r="4" fill="#60e5e0" /><circle cx="512.6" cy="126.9" r="4" fill="#60e5e0" /><circle cx="524.3" cy="126.9" r="4" fill="#60e5e0" /><circle cx="536.0" cy="126.9" r="4" fill="#60e5e0" /><circle cx="547.7" cy="126.9" r="4" fill="#60e5e0" /><circle cx="559.4" cy="126.8" r="4" fill="#60e5e0" /><circle cx="571.1" cy="122.1" r="4" fill="#60e5e0" /><circle cx="582.8" cy="120.4" r="4" fill="#60e5e0" /><circle cx="594.5" cy="120.4" r="4" fill="#60e5e0" /><circle cx="606.2" cy="120.4" r="4" fill="#60e5e0" /><circle cx="617.8" cy="120.4" r="4" fill="#60e5e0" /><circle cx="629.5" cy="120.4" r="4" fill="#60e5e0" /><circle cx="641.2" cy="119.4" r="4" fill="#60e5e0" /><circle cx="652.9" cy="119.4" r="4" fill="#60e5e0" /><circle cx="664.6" cy="119.4" r="4" fill="#60e5e0" /><circle cx="676.3" cy="119.4" r="4" fill="#60e5e0" /><circle cx="688.0" cy="119.1" r="4" fill="#60e5e0" /><circle cx="699.7" cy="118.8" r="4" fill="#60e5e0" /><circle cx="711.4" cy="118.8" r="4" fill="#60e5e0" /><circle cx="723.1" cy="117.8" r="4" fill="#60e5e0" /><circle cx="734.8" cy="117.8" r="4" fill="#60e5e0" /><circle cx="746.5" cy="117.8" r="4" fill="#60e5e0" /><circle cx="758.2" cy="115.8" r="4" fill="#60e5e0" /><circle cx="769.8" cy="115.8" r="4" fill="#60e5e0" /><circle cx="781.5" cy="115.0" r="4" fill="#60e5e0" /><circle cx="793.2" cy="115.0" r="4" fill="#60e5e0" /><circle cx="804.9" cy="115.0" r="4" fill="#60e5e0" /><circle cx="816.6" cy="115.0" r="4" fill="#60e5e0" /><circle cx="828.3" cy="115.0" r="4" fill="#60e5e0" /><circle cx="840.0" cy="115.0" r="4" fill="#60e5e0" /><polyline points="80.0,314.6 91.7,314.4 103.4,314.2 115.1,314.2 126.8,314.2 138.5,314.1 150.2,314.1 161.8,314.1 173.5,314.1 185.2,314.1 196.9,314.0 208.6,314.0 220.3,314.0 232.0,314.0 243.7,314.0 255.4,314.0 267.1,314.0 278.8,314.0 290.5,314.0 302.2,314.0 313.8,314.0 325.5,314.0 337.2,314.0 348.9,314.0 360.6,314.0 372.3,314.0 384.0,314.0 395.7,314.0 407.4,314.0 419.1,314.0 430.8,314.0 442.5,314.0 454.2,314.0 465.8,314.0 477.5,314.0 489.2,314.0 500.9,314.0 512.6,314.0 524.3,314.0 536.0,314.0 547.7,314.0 559.4,313.9 571.1,313.6 582.8,313.4 594.5,313.4 606.2,313.4 617.8,313.4 629.5,313.4 641.2,313.1 652.9,313.1 664.6,313.1 676.3,313.1 688.0,313.1 699.7,313.0 711.4,313.0 723.1,312.9 734.8,312.9 746.5,312.9 758.2,312.8 769.8,312.8 781.5,312.6 793.2,312.6 804.9,312.6 816.6,312.6 828.3,312.6 840.0,312.6" fill="none" stroke="#567de1" stroke-width="2.5" stroke-linecap="round" stroke-linejoin="round" /><circle cx="80.0" cy="314.6" r="4" fill="#567de1" /><circle cx="91.7" cy="314.4" r="4" fill="#567de1" /><circle cx="103.4" cy="314.2" r="4" fill="#567de1" /><circle cx="115.1" cy="314.2" r="4" fill="#567de1" /><circle cx="126.8" cy="314.2" r="4" fill="#567de1" /><circle cx="138.5" cy="314.1" r="4" fill="#567de1" /><circle cx="150.2" cy="314.1" r="4" fill="#567de1" /><circle cx="161.8" cy="314.1" r="4" fill="#567de1" /><circle cx="173.5" cy="314.1" r="4" fill="#567de1" /><circle cx="185.2" cy="314.1" r="4" fill="#567de1" /><circle cx="196.9" cy="314.0" r="4" fill="#567de1" /><circle cx="208.6" cy="314.0" r="4" fill="#567de1" /><circle cx="220.3" cy="314.0" r="4" fill="#567de1" /><circle cx="232.0" cy="314.0" r="4" fill="#567de1" /><circle cx="243.7" cy="314.0" r="4" fill="#567de1" /><circle cx="255.4" cy="314.0" r="4" fill="#567de1" /><circle cx="267.1" cy="314.0" r="4" fill="#567de1" /><circle cx="278.8" cy="314.0" r="4" fill="#567de1" /><circle cx="290.5" cy="314.0" r="4" fill="#567de1" /><circle cx="302.2" cy="314.0" r="4" fill="#567de1" /><circle cx="313.8" cy="314.0" r="4" fill="#567de1" /><circle cx="325.5" cy="314.0" r="4" fill="#567de1" /><circle cx="337.2" cy="314.0" r="4" fill="#567de1" /><circle cx="348.9" cy="314.0" r="4" fill="#567de1" /><circle cx="360.6" cy="314.0" r="4" fill="#567de1" /><circle cx="372.3" cy="314.0" r="4" fill="#567de1" /><circle cx="384.0" cy="314.0" r="4" fill="#567de1" /><circle cx="395.7" cy="314.0" r="4" fill="#567de1" /><circle cx="407.4" cy="314.0" r="4" fill="#567de1" /><circle cx="419.1" cy="314.0" r="4" fill="#567de1" /><circle cx="430.8" cy="314.0" r="4" fill="#567de1" /><circle cx="442.5" cy="314.0" r="4" fill="#567de1" /><circle cx="454.2" cy="314.0" r="4" fill="#567de1" /><circle cx="465.8" cy="314.0" r="4" fill="#567de1" /><circle cx="477.5" cy="314.0" r="4" fill="#567de1" /><circle cx="489.2" cy="314.0" r="4" fill="#567de1" /><circle cx="500.9" cy="314.0" r="4" fill="#567de1" /><circle cx="512.6" cy="314.0" r="4" fill="#567de1" /><circle cx="524.3" cy="314.0" r="4" fill="#567de1" /><circle cx="536.0" cy="314.0" r="4" fill="#567de1" /><circle cx="547.7" cy="314.0" r="4" fill="#567de1" /><circle cx="559.4" cy="313.9" r="4" fill="#567de1" /><circle cx="571.1" cy="313.6" r="4" fill="#567de1" /><circle cx="582.8" cy="313.4" r="4" fill="#567de1" /><circle cx="594.5" cy="313.4" r="4" fill="#567de1" /><circle cx="606.2" cy="313.4" r="4" fill="#567de1" /><circle cx="617.8" cy="313.4" r="4" fill="#567de1" /><circle cx="629.5" cy="313.4" r="4" fill="#567de1" /><circle cx="641.2" cy="313.1" r="4" fill="#567de1" /><circle cx="652.9" cy="313.1" r="4" fill="#567de1" /><circle cx="664.6" cy="313.1" r="4" fill="#567de1" /><circle cx="676.3" cy="313.1" r="4" fill="#567de1" /><circle cx="688.0" cy="313.1" r="4" fill="#567de1" /><circle cx="699.7" cy="313.0" r="4" fill="#567de1" /><circle cx="711.4" cy="313.0" r="4" fill="#567de1" /><circle cx="723.1" cy="312.9" r="4" fill="#567de1" /><circle cx="734.8" cy="312.9" r="4" fill="#567de1" /><circle cx="746.5" cy="312.9" r="4" fill="#567de1" /><circle cx="758.2" cy="312.8" r="4" fill="#567de1" /><circle cx="769.8" cy="312.8" r="4" fill="#567de1" /><circle cx="781.5" cy="312.6" r="4" fill="#567de1" /><circle cx="793.2" cy="312.6" r="4" fill="#567de1" /><circle cx="804.9" cy="312.6" r="4" fill="#567de1" /><circle cx="816.6" cy="312.6" r="4" fill="#567de1" /><circle cx="828.3" cy="312.6" r="4" fill="#567de1" /><circle cx="840.0" cy="312.6" r="4" fill="#567de1" /><polyline points="80.0,303.9 91.7,304.2 103.4,304.4 115.1,304.4 126.8,304.4 138.5,304.4 150.2,304.4 161.8,304.4 173.5,304.4 185.2,304.4 196.9,304.4 208.6,304.4 220.3,304.4 232.0,304.4 243.7,304.4 255.4,304.4 267.1,304.4 278.8,304.4 290.5,304.4 302.2,304.4 313.8,304.4 325.5,304.4 337.2,304.4 348.9,304.4 360.6,304.4 372.3,304.4 384.0,304.4 395.7,304.4 407.4,299.1 419.1,299.1 430.8,299.1 442.5,298.9 454.2,295.6 465.8,295.6 477.5,295.6 489.2,295.6 500.9,295.6 512.6,295.6 524.3,295.6 536.0,295.6 547.7,295.6 559.4,295.8 571.1,295.9 582.8,295.9 594.5,295.9 606.2,295.9 617.8,295.9 629.5,295.9 641.2,295.9 652.9,295.9 664.6,295.9 676.3,295.9 688.0,295.9 699.7,295.9 711.4,295.9 723.1,295.9 734.8,295.9 746.5,295.9 758.2,295.8 769.8,295.8 781.5,295.9 793.2,295.9 804.9,295.9 816.6,295.9 828.3,295.9 840.0,295.9" fill="none" stroke="#9754dd" stroke-width="2.5" stroke-linecap="round" stroke-linejoin="round" /><circle cx="80.0" cy="303.9" r="4" fill="#9754dd" /><circle cx="91.7" cy="304.2" r="4" fill="#9754dd" /><circle cx="103.4" cy="304.4" r="4" fill="#9754dd" /><circle cx="115.1" cy="304.4" r="4" fill="#9754dd" /><circle cx="126.8" cy="304.4" r="4" fill="#9754dd" /><circle cx="138.5" cy="304.4" r="4" fill="#9754dd" /><circle cx="150.2" cy="304.4" r="4" fill="#9754dd" /><circle cx="161.8" cy="304.4" r="4" fill="#9754dd" /><circle cx="173.5" cy="304.4" r="4" fill="#9754dd" /><circle cx="185.2" cy="304.4" r="4" fill="#9754dd" /><circle cx="196.9" cy="304.4" r="4" fill="#9754dd" /><circle cx="208.6" cy="304.4" r="4" fill="#9754dd" /><circle cx="220.3" cy="304.4" r="4" fill="#9754dd" /><circle cx="232.0" cy="304.4" r="4" fill="#9754dd" /><circle cx="243.7" cy="304.4" r="4" fill="#9754dd" /><circle cx="255.4" cy="304.4" r="4" fill="#9754dd" /><circle cx="267.1" cy="304.4" r="4" fill="#9754dd" /><circle cx="278.8" cy="304.4" r="4" fill="#9754dd" /><circle cx="290.5" cy="304.4" r="4" fill="#9754dd" /><circle cx="302.2" cy="304.4" r="4" fill="#9754dd" /><circle cx="313.8" cy="304.4" r="4" fill="#9754dd" /><circle cx="325.5" cy="304.4" r="4" fill="#9754dd" /><circle cx="337.2" cy="304.4" r="4" fill="#9754dd" /><circle cx="348.9" cy="304.4" r="4" fill="#9754dd" /><circle cx="360.6" cy="304.4" r="4" fill="#9754dd" /><circle cx="372.3" cy="304.4" r="4" fill="#9754dd" /><circle cx="384.0" cy="304.4" r="4" fill="#9754dd" /><circle cx="395.7" cy="304.4" r="4" fill="#9754dd" /><circle cx="407.4" cy="299.1" r="4" fill="#9754dd" /><circle cx="419.1" cy="299.1" r="4" fill="#9754dd" /><circle cx="430.8" cy="299.1" r="4" fill="#9754dd" /><circle cx="442.5" cy="298.9" r="4" fill="#9754dd" /><circle cx="454.2" cy="295.6" r="4" fill="#9754dd" /><circle cx="465.8" cy="295.6" r="4" fill="#9754dd" /><circle cx="477.5" cy="295.6" r="4" fill="#9754dd" /><circle cx="489.2" cy="295.6" r="4" fill="#9754dd" /><circle cx="500.9" cy="295.6" r="4" fill="#9754dd" /><circle cx="512.6" cy="295.6" r="4" fill="#9754dd" /><circle cx="524.3" cy="295.6" r="4" fill="#9754dd" /><circle cx="536.0" cy="295.6" r="4" fill="#9754dd" /><circle cx="547.7" cy="295.6" r="4" fill="#9754dd" /><circle cx="559.4" cy="295.8" r="4" fill="#9754dd" /><circle cx="571.1" cy="295.9" r="4" fill="#9754dd" /><circle cx="582.8" cy="295.9" r="4" fill="#9754dd" /><circle cx="594.5" cy="295.9" r="4" fill="#9754dd" /><circle cx="606.2" cy="295.9" r="4" fill="#9754dd" /><circle cx="617.8" cy="295.9" r="4" fill="#9754dd" /><circle cx="629.5" cy="295.9" r="4" fill="#9754dd" /><circle cx="641.2" cy="295.9" r="4" fill="#9754dd" /><circle cx="652.9" cy="295.9" r="4" fill="#9754dd" /><circle cx="664.6" cy="295.9" r="4" fill="#9754dd" /><circle cx="676.3" cy="295.9" r="4" fill="#9754dd" /><circle cx="688.0" cy="295.9" r="4" fill="#9754dd" /><circle cx="699.7" cy="295.9" r="4" fill="#9754dd" /><circle cx="711.4" cy="295.9" r="4" fill="#9754dd" /><circle cx="723.1" cy="295.9" r="4" fill="#9754dd" /><circle cx="734.8" cy="295.9" r="4" fill="#9754dd" /><circle cx="746.5" cy="295.9" r="4" fill="#9754dd" /><circle cx="758.2" cy="295.8" r="4" fill="#9754dd" /><circle cx="769.8" cy="295.8" r="4" fill="#9754dd" /><circle cx="781.5" cy="295.9" r="4" fill="#9754dd" /><circle cx="793.2" cy="295.9" r="4" fill="#9754dd" /><circle cx="804.9" cy="295.9" r="4" fill="#9754dd" /><circle cx="816.6" cy="295.9" r="4" fill="#9754dd" /><circle cx="828.3" cy="295.9" r="4" fill="#9754dd" /><circle cx="840.0" cy="295.9" r="4" fill="#9754dd" />
  <rect x="80" y="339" width="10" height="10" rx="2" ry="2" fill="#19e5a1" /><text x="96" y="348" class="legend-label">Stars</text><rect x="250" y="339" width="10" height="10" rx="2" ry="2" fill="#6eb6ec" /><text x="266" y="348" class="legend-label">Followers</text><rect x="420" y="339" width="10" height="10" rx="2" ry="2" fill="#5938e2" /><text x="436" y="348" class="legend-label">Following</text><rect x="590" y="339" width="10" height="10" rx="2" ry="2" fill="#60e5e0" /><text x="606" y="348" class="legend-label">Contributions</text><rect x="80" y="357" width="10" height="10" rx="2" ry="2" fill="#567de1" /><text x="96" y="366" class="legend-label">Pull Requests</text><rect x="250" y="357" width="10" height="10" rx="2" ry="2" fill="#9754dd" /><text x="266" y="366" class="legend-label">Issues</text>
</svg>
