<svg width="900" height="402" viewBox="0 0 900 402" xmlns="http://www.w3.org/2000/svg">
  <defs>
    <linearGradient id="history-gradient" x1="0%" y1="0%" x2="100%" y2="100%">
      <stop offset="0%" style="stop-color:#58a6ff;stop-opacity:1" />
      <stop offset="100%" style="stop-color:#a371f7;stop-opacity:1" />
    </linearGradient>
    <clipPath id="history-rounded">
      <rect x="0" y="0" width="900" height="402" rx="8" ry="8" />
    </clipPath>
  </defs>
  <style>
    .title {
      font-family: 'Segoe UI', Ubuntu, 'Helvetica Neue', sans-serif;
      font-size: 22px;
      font-weight: 700;
      fill: #58a6ff;
    }
    .subtitle {
      font-family: 'Segoe UI', Ubuntu, 'Helvetica Neue', sans-serif;
      font-size: 12px;
      font-weight: 500;
      fill: #8b949e;
    }
    .axis-label {
      font-family: 'Segoe UI', Ubuntu, 'Helvetica Neue', sans-serif;
      font-size: 10px;
      fill: #8b949e;
    }
    .grid-line {
      stroke: #30363d;
      stroke-width: 1;
      opacity: 0.3;
    }
    .legend-label {
      font-family: 'Segoe UI', Ubuntu, 'Helvetica Neue', sans-serif;
      font-size: 11px;
      fill: #c9d1d9;
      dominant-baseline: middle;
    }
  </style>
  <rect clip-path="url(#history-rounded)" width="100%" height="100%" fill="#0d1117" stroke="#30363d" stroke-width="1" />
  <rect x="0" y="396" width="900" height="6" fill="url(#history-gradient)" clip-path="url(#history-rounded)" />
  <text x="24" y="34" class="title">Leonardo Klein Stats History</text>
  <text x="24" y="54" class="subtitle">Period: 2026-02-20 to 2026-02-28</text>
  <text x="72" y="320.0" text-anchor="end" dominant-baseline="central" class="axis-label">0</text><text x="72" y="270.0" text-anchor="end" dominant-baseline="central" class="axis-label">400</text><text x="72" y="220.0" text-anchor="end" dominant-baseline="central" class="axis-label">800</text><text x="72" y="170.0" text-anchor="end" dominant-baseline="central" class="axis-label">1.2k</text><text x="72" y="120.0" text-anchor="end" dominant-baseline="central" class="axis-label">1.6k</text><text x="72" y="70.0" text-anchor="end" dominant-baseline="central" class="axis-label">2.0k</text>
  <text x="80.0" y="336" text-anchor="middle" class="axis-label">02-20</text><text x="152.4" y="336" text-anchor="middle" class="axis-label">02-21</text><text x="224.8" y="336" text-anchor="middle" class="axis-label">02-22</text><text x="297.1" y="336" text-anchor="middle" class="axis-label">02-22</text><text x="369.5" y="336" text-anchor="middle" class="axis-label">02-23</text><text x="441.9" y="336" text-anchor="middle" class="axis-label">02-24</text><text x="514.3" y="336" text-anchor="middle" class="axis-label">02-25</text><text x="586.7" y="336" text-anchor="middle" class="axis-label">02-26</text><text x="659.0" y="336" text-anchor="middle" class="axis-label">02-26</text><text x="731.4" y="336" text-anchor="middle" class="axis-label">02-27</text><text x="803.8" y="336" text-anchor="middle" class="axis-label">02-28</text><text x="840.0" y="336" text-anchor="middle" class="axis-label">02-28</text>
  <line x1="80" y1="320.0" x2="840" y2="320.0" class="grid-line" /><line x1="80" y1="270.0" x2="840" y2="270.0" class="grid-line" /><line x1="80" y1="220.0" x2="840" y2="220.0" class="grid-line" /><line x1="80" y1="170.0" x2="840" y2="170.0" class="grid-line" /><line x1="80" y1="120.0" x2="840" y2="120.0" class="grid-line" /><line x1="80" y1="70.0" x2="840" y2="70.0" class="grid-line" />
  <polyline points="80.0,317.0 98.1,317.0 116.2,317.0 134.3,317.0 152.4,317.0 170.5,317.0 188.6,317.0 206.7,317.0 224.8,317.0 242.9,317.0 261.0,317.0 279.0,317.0 297.1,317.0 315.2,317.0 333.3,317.0 351.4,317.0 369.5,317.0 387.6,317.0 405.7,317.0 423.8,317.0 441.9,317.0 460.0,317.0 478.1,317.0 496.2,317.0 514.3,317.0 532.4,317.0 550.5,317.0 568.6,317.0 586.7,317.0 604.8,317.0 622.9,317.0 641.0,317.0 659.0,317.0 677.1,317.0 695.2,317.0 713.3,317.0 731.4,317.0 749.5,317.0 767.6,317.0 785.7,317.0 803.8,317.0 821.9,317.0 840.0,317.0" fill="none" stroke="#19e5a1" stroke-width="2.5" stroke-linecap="round" stroke-linejoin="round" /><circle cx="80.0" cy="317.0" r="4" fill="#19e5a1" /><circle cx="98.1" cy="317.0" r="4" fill="#19e5a1" /><circle cx="116.2" cy="317.0" r="4" fill="#19e5a1" /><circle cx="134.3" cy="317.0" r="4" fill="#19e5a1" /><circle cx="152.4" cy="317.0" r="4" fill="#19e5a1" /><circle cx="170.5" cy="317.0" r="4" fill="#19e5a1" /><circle cx="188.6" cy="317.0" r="4" fill="#19e5a1" /><circle cx="206.7" cy="317.0" r="4" fill="#19e5a1" /><circle cx="224.8" cy="317.0" r="4" fill="#19e5a1" /><circle cx="242.9" cy="317.0" r="4" fill="#19e5a1" /><circle cx="261.0" cy="317.0" r="4" fill="#19e5a1" /><circle cx="279.0" cy="317.0" r="4" fill="#19e5a1" /><circle cx="297.1" cy="317.0" r="4" fill="#19e5a1" /><circle cx="315.2" cy="317.0" r="4" fill="#19e5a1" /><circle cx="333.3" cy="317.0" r="4" fill="#19e5a1" /><circle cx="351.4" cy="317.0" r="4" fill="#19e5a1" /><circle cx="369.5" cy="317.0" r="4" fill="#19e5a1" /><circle cx="387.6" cy="317.0" r="4" fill="#19e5a1" /><circle cx="405.7" cy="317.0" r="4" fill="#19e5a1" /><circle cx="423.8" cy="317.0" r="4" fill="#19e5a1" /><circle cx="441.9" cy="317.0" r="4" fill="#19e5a1" /><circle cx="460.0" cy="317.0" r="4" fill="#19e5a1" /><circle cx="478.1" cy="317.0" r="4" fill="#19e5a1" /><circle cx="496.2" cy="317.0" r="4" fill="#19e5a1" /><circle cx="514.3" cy="317.0" r="4" fill="#19e5a1" /><circle cx="532.4" cy="317.0" r="4" fill="#19e5a1" /><circle cx="550.5" cy="317.0" r="4" fill="#19e5a1" /><circle cx="568.6" cy="317.0" r="4" fill="#19e5a1" /><circle cx="586.7" cy="317.0" r="4" fill="#19e5a1" /><circle cx="604.8" cy="317.0" r="4" fill="#19e5a1" /><circle cx="622.9" cy="317.0" r="4" fill="#19e5a1" /><circle cx="641.0" cy="317.0" r="4" fill="#19e5a1" /><circle cx="659.0" cy="317.0" r="4" fill="#19e5a1" /><circle cx="677.1" cy="317.0" r="4" fill="#19e5a1" /><circle cx="695.2" cy="317.0" r="4" fill="#19e5a1" /><circle cx="713.3" cy="317.0" r="4" fill="#19e5a1" /><circle cx="731.4" cy="317.0" r="4" fill="#19e5a1" /><circle cx="749.5" cy="317.0" r="4" fill="#19e5a1" /><circle cx="767.6" cy="317.0" r="4" fill="#19e5a1" /><circle cx="785.7" cy="317.0" r="4" fill="#19e5a1" /><circle cx="803.8" cy="317.0" r="4" fill="#19e5a1" /><circle cx="821.9" cy="317.0" r="4" fill="#19e5a1" /><circle cx="840.0" cy="317.0" r="4" fill="#19e5a1" /><polyline points="80.0,313.2 98.1,312.2 116.2,312.1 134.3,312.4 152.4,312.4 170.5,312.4 188.6,312.1 206.7,312.0 224.8,311.9 242.9,311.9 261.0,311.8 279.0,311.8 297.1,311.5 315.2,311.5 333.3,311.5 351.4,311.2 369.5,311.2 387.6,311.1 405.7,311.1 423.8,311.1 441.9,310.9 460.0,311.0 478.1,310.8 496.2,310.8 514.3,310.8 532.4,310.8 550.5,310.4 568.6,310.2 586.7,310.4 604.8,310.4 622.9,310.4 641.0,310.4 659.0,310.4 677.1,310.2 695.2,310.2 713.3,310.1 731.4,310.1 749.5,309.8 767.6,309.6 785.7,309.6 803.8,309.6 821.9,309.6 840.0,309.5" fill="none" stroke="#6eb6ec" stroke-width="2.5" stroke-linecap="round" stroke-linejoin="round" /><circle cx="80.0" cy="313.2" r="4" fill="#6eb6ec" /><circle cx="98.1" cy="312.2" r="4" fill="#6eb6ec" /><circle cx="116.2" cy="312.1" r="4" fill="#6eb6ec" /><circle cx="134.3" cy="312.4" r="4" fill="#6eb6ec" /><circle cx="152.4" cy="312.4" r="4" fill="#6eb6ec" /><circle cx="170.5" cy="312.4" r="4" fill="#6eb6ec" /><circle cx="188.6" cy="312.1" r="4" fill="#6eb6ec" /><circle cx="206.7" cy="312.0" r="4" fill="#6eb6ec" /><circle cx="224.8" cy="311.9" r="4" fill="#6eb6ec" /><circle cx="242.9" cy="311.9" r="4" fill="#6eb6ec" /><circle cx="261.0" cy="311.8" r="4" fill="#6eb6ec" /><circle cx="279.0" cy="311.8" r="4" fill="#6eb6ec" /><circle cx="297.1" cy="311.5" r="4" fill="#6eb6ec" /><circle cx="315.2" cy="311.5" r="4" fill="#6eb6ec" /><circle cx="333.3" cy="311.5" r="4" fill="#6eb6ec" /><circle cx="351.4" cy="311.2" r="4" fill="#6eb6ec" /><circle cx="369.5" cy="311.2" r="4" fill="#6eb6ec" /><circle cx="387.6" cy="311.1" r="4" fill="#6eb6ec" /><circle cx="405.7" cy="311.1" r="4" fill="#6eb6ec" /><circle cx="423.8" cy="311.1" r="4" fill="#6eb6ec" /><circle cx="441.9" cy="310.9" r="4" fill="#6eb6ec" /><circle cx="460.0" cy="311.0" r="4" fill="#6eb6ec" /><circle cx="478.1" cy="310.8" r="4" fill="#6eb6ec" /><circle cx="496.2" cy="310.8" r="4" fill="#6eb6ec" /><circle cx="514.3" cy="310.8" r="4" fill="#6eb6ec" /><circle cx="532.4" cy="310.8" r="4" fill="#6eb6ec" /><circle cx="550.5" cy="310.4" r="4" fill="#6eb6ec" /><circle cx="568.6" cy="310.2" r="4" fill="#6eb6ec" /><circle cx="586.7" cy="310.4" r="4" fill="#6eb6ec" /><circle cx="604.8" cy="310.4" r="4" fill="#6eb6ec" /><circle cx="622.9" cy="310.4" r="4" fill="#6eb6ec" /><circle cx="641.0" cy="310.4" r="4" fill="#6eb6ec" /><circle cx="659.0" cy="310.4" r="4" fill="#6eb6ec" /><circle cx="677.1" cy="310.2" r="4" fill="#6eb6ec" /><circle cx="695.2" cy="310.2" r="4" fill="#6eb6ec" /><circle cx="713.3" cy="310.1" r="4" fill="#6eb6ec" /><circle cx="731.4" cy="310.1" r="4" fill="#6eb6ec" /><circle cx="749.5" cy="309.8" r="4" fill="#6eb6ec" /><circle cx="767.6" cy="309.6" r="4" fill="#6eb6ec" /><circle cx="785.7" cy="309.6" r="4" fill="#6eb6ec" /><circle cx="803.8" cy="309.6" r="4" fill="#6eb6ec" /><circle cx="821.9" cy="309.6" r="4" fill="#6eb6ec" /><circle cx="840.0" cy="309.5" r="4" fill="#6eb6ec" /><polyline points="80.0,305.8 98.1,305.8 116.2,305.8 134.3,305.8 152.4,305.8 170.5,305.8 188.6,305.8 206.7,305.8 224.8,305.8 242.9,305.8 261.0,304.9 279.0,304.9 297.1,304.9 315.2,304.9 333.3,304.9 351.4,304.9 369.5,304.9 387.6,304.9 405.7,304.9 423.8,304.9 441.9,304.9 460.0,304.9 478.1,304.9 496.2,304.9 514.3,304.9 532.4,304.9 550.5,304.9 568.6,304.9 586.7,304.9 604.8,304.9 622.9,304.9 641.0,304.9 659.0,304.9 677.1,304.9 695.2,304.9 713.3,304.9 731.4,304.9 749.5,303.6 767.6,303.6 785.7,303.6 803.8,303.6 821.9,303.6 840.0,303.6" fill="none" stroke="#5938e2" stroke-width="2.5" stroke-linecap="round" stroke-linejoin="round" /><circle cx="80.0" cy="305.8" r="4" fill="#5938e2" /><circle cx="98.1" cy="305.8" r="4" fill="#5938e2" /><circle cx="116.2" cy="305.8" r="4" fill="#5938e2" /><circle cx="134.3" cy="305.8" r="4" fill="#5938e2" /><circle cx="152.4" cy="305.8" r="4" fill="#5938e2" /><circle cx="170.5" cy="305.8" r="4" fill="#5938e2" /><circle cx="188.6" cy="305.8" r="4" fill="#5938e2" /><circle cx="206.7" cy="305.8" r="4" fill="#5938e2" /><circle cx="224.8" cy="305.8" r="4" fill="#5938e2" /><circle cx="242.9" cy="305.8" r="4" fill="#5938e2" /><circle cx="261.0" cy="304.9" r="4" fill="#5938e2" /><circle cx="279.0" cy="304.9" r="4" fill="#5938e2" /><circle cx="297.1" cy="304.9" r="4" fill="#5938e2" /><circle cx="315.2" cy="304.9" r="4" fill="#5938e2" /><circle cx="333.3" cy="304.9" r="4" fill="#5938e2" /><circle cx="351.4" cy="304.9" r="4" fill="#5938e2" /><circle cx="369.5" cy="304.9" r="4" fill="#5938e2" /><circle cx="387.6" cy="304.9" r="4" fill="#5938e2" /><circle cx="405.7" cy="304.9" r="4" fill="#5938e2" /><circle cx="423.8" cy="304.9" r="4" fill="#5938e2" /><circle cx="441.9" cy="304.9" r="4" fill="#5938e2" /><circle cx="460.0" cy="304.9" r="4" fill="#5938e2" /><circle cx="478.1" cy="304.9" r="4" fill="#5938e2" /><circle cx="496.2" cy="304.9" r="4" fill="#5938e2" /><circle cx="514.3" cy="304.9" r="4" fill="#5938e2" /><circle cx="532.4" cy="304.9" r="4" fill="#5938e2" /><circle cx="550.5" cy="304.9" r="4" fill="#5938e2" /><circle cx="568.6" cy="304.9" r="4" fill="#5938e2" /><circle cx="586.7" cy="304.9" r="4" fill="#5938e2" /><circle cx="604.8" cy="304.9" r="4" fill="#5938e2" /><circle cx="622.9" cy="304.9" r="4" fill="#5938e2" /><circle cx="641.0" cy="304.9" r="4" fill="#5938e2" /><circle cx="659.0" cy="304.9" r="4" fill="#5938e2" /><circle cx="677.1" cy="304.9" r="4" fill="#5938e2" /><circle cx="695.2" cy="304.9" r="4" fill="#5938e2" /><circle cx="713.3" cy="304.9" r="4" fill="#5938e2" /><circle cx="731.4" cy="304.9" r="4" fill="#5938e2" /><circle cx="749.5" cy="303.6" r="4" fill="#5938e2" /><circle cx="767.6" cy="303.6" r="4" fill="#5938e2" /><circle cx="785.7" cy="303.6" r="4" fill="#5938e2" /><circle cx="803.8" cy="303.6" r="4" fill="#5938e2" /><circle cx="821.9" cy="303.6" r="4" fill="#5938e2" /><circle cx="840.0" cy="303.6" r="4" fill="#5938e2" /><polyline points="80.0,144.6 98.1,140.1 116.2,139.9 134.3,139.8 152.4,139.8 170.5,139.6 188.6,139.6 206.7,139.6 224.8,139.6 242.9,139.6 261.0,138.4 279.0,138.4 297.1,138.4 315.2,138.4 333.3,138.4 351.4,138.4 369.5,138.4 387.6,137.4 405.7,137.4 423.8,137.4 441.9,137.4 460.0,137.4 478.1,137.4 496.2,137.4 514.3,137.4 532.4,137.4 550.5,137.4 568.6,137.4 586.7,131.2 604.8,131.2 622.9,130.8 641.0,130.4 659.0,126.9 677.1,126.9 695.2,126.9 713.3,126.9 731.4,126.9 749.5,126.9 767.6,126.9 785.7,126.9 803.8,126.9 821.9,126.8 840.0,122.1" fill="none" stroke="#60e5e0" stroke-width="2.5" stroke-linecap="round" stroke-linejoin="round" /><circle cx="80.0" cy="144.6" r="4" fill="#60e5e0" /><circle cx="98.1" cy="140.1" r="4" fill="#60e5e0" /><circle cx="116.2" cy="139.9" r="4" fill="#60e5e0" /><circle cx="134.3" cy="139.8" r="4" fill="#60e5e0" /><circle cx="152.4" cy="139.8" r="4" fill="#60e5e0" /><circle cx="170.5" cy="139.6" r="4" fill="#60e5e0" /><circle cx="188.6" cy="139.6" r="4" fill="#60e5e0" /><circle cx="206.7" cy="139.6" r="4" fill="#60e5e0" /><circle cx="224.8" cy="139.6" r="4" fill="#60e5e0" /><circle cx="242.9" cy="139.6" r="4" fill="#60e5e0" /><circle cx="261.0" cy="138.4" r="4" fill="#60e5e0" /><circle cx="279.0" cy="138.4" r="4" fill="#60e5e0" /><circle cx="297.1" cy="138.4" r="4" fill="#60e5e0" /><circle cx="315.2" cy="138.4" r="4" fill="#60e5e0" /><circle cx="333.3" cy="138.4" r="4" fill="#60e5e0" /><circle cx="351.4" cy="138.4" r="4" fill="#60e5e0" /><circle cx="369.5" cy="138.4" r="4" fill="#60e5e0" /><circle cx="387.6" cy="137.4" r="4" fill="#60e5e0" /><circle cx="405.7" cy="137.4" r="4" fill="#60e5e0" /><circle cx="423.8" cy="137.4" r="4" fill="#60e5e0" /><circle cx="441.9" cy="137.4" r="4" fill="#60e5e0" /><circle cx="460.0" cy="137.4" r="4" fill="#60e5e0" /><circle cx="478.1" cy="137.4" r="4" fill="#60e5e0" /><circle cx="496.2" cy="137.4" r="4" fill="#60e5e0" /><circle cx="514.3" cy="137.4" r="4" fill="#60e5e0" /><circle cx="532.4" cy="137.4" r="4" fill="#60e5e0" /><circle cx="550.5" cy="137.4" r="4" fill="#60e5e0" /><circle cx="568.6" cy="137.4" r="4" fill="#60e5e0" /><circle cx="586.7" cy="131.2" r="4" fill="#60e5e0" /><circle cx="604.8" cy="131.2" r="4" fill="#60e5e0" /><circle cx="622.9" cy="130.8" r="4" fill="#60e5e0" /><circle cx="641.0" cy="130.4" r="4" fill="#60e5e0" /><circle cx="659.0" cy="126.9" r="4" fill="#60e5e0" /><circle cx="677.1" cy="126.9" r="4" fill="#60e5e0" /><circle cx="695.2" cy="126.9" r="4" fill="#60e5e0" /><circle cx="713.3" cy="126.9" r="4" fill="#60e5e0" /><circle cx="731.4" cy="126.9" r="4" fill="#60e5e0" /><circle cx="749.5" cy="126.9" r="4" fill="#60e5e0" /><circle cx="767.6" cy="126.9" r="4" fill="#60e5e0" /><circle cx="785.7" cy="126.9" r="4" fill="#60e5e0" /><circle cx="803.8" cy="126.9" r="4" fill="#60e5e0" /><circle cx="821.9" cy="126.8" r="4" fill="#60e5e0" /><circle cx="840.0" cy="122.1" r="4" fill="#60e5e0" /><polyline points="80.0,314.6 98.1,314.4 116.2,314.2 134.3,314.2 152.4,314.2 170.5,314.1 188.6,314.1 206.7,314.1 224.8,314.1 242.9,314.1 261.0,314.0 279.0,314.0 297.1,314.0 315.2,314.0 333.3,314.0 351.4,314.0 369.5,314.0 387.6,314.0 405.7,314.0 423.8,314.0 441.9,314.0 460.0,314.0 478.1,314.0 496.2,314.0 514.3,314.0 532.4,314.0 550.5,314.0 568.6,314.0 586.7,314.0 604.8,314.0 622.9,314.0 641.0,314.0 659.0,314.0 677.1,314.0 695.2,314.0 713.3,314.0 731.4,314.0 749.5,314.0 767.6,314.0 785.7,314.0 803.8,314.0 821.9,313.9 840.0,313.6" fill="none" stroke="#567de1" stroke-width="2.5" stroke-linecap="round" stroke-linejoin="round" /><circle cx="80.0" cy="314.6" r="4" fill="#567de1" /><circle cx="98.1" cy="314.4" r="4" fill="#567de1" /><circle cx="116.2" cy="314.2" r="4" fill="#567de1" /><circle cx="134.3" cy="314.2" r="4" fill="#567de1" /><circle cx="152.4" cy="314.2" r="4" fill="#567de1" /><circle cx="170.5" cy="314.1" r="4" fill="#567de1" /><circle cx="188.6" cy="314.1" r="4" fill="#567de1" /><circle cx="206.7" cy="314.1" r="4" fill="#567de1" /><circle cx="224.8" cy="314.1" r="4" fill="#567de1" /><circle cx="242.9" cy="314.1" r="4" fill="#567de1" /><circle cx="261.0" cy="314.0" r="4" fill="#567de1" /><circle cx="279.0" cy="314.0" r="4" fill="#567de1" /><circle cx="297.1" cy="314.0" r="4" fill="#567de1" /><circle cx="315.2" cy="314.0" r="4" fill="#567de1" /><circle cx="333.3" cy="314.0" r="4" fill="#567de1" /><circle cx="351.4" cy="314.0" r="4" fill="#567de1" /><circle cx="369.5" cy="314.0" r="4" fill="#567de1" /><circle cx="387.6" cy="314.0" r="4" fill="#567de1" /><circle cx="405.7" cy="314.0" r="4" fill="#567de1" /><circle cx="423.8" cy="314.0" r="4" fill="#567de1" /><circle cx="441.9" cy="314.0" r="4" fill="#567de1" /><circle cx="460.0" cy="314.0" r="4" fill="#567de1" /><circle cx="478.1" cy="314.0" r="4" fill="#567de1" /><circle cx="496.2" cy="314.0" r="4" fill="#567de1" /><circle cx="514.3" cy="314.0" r="4" fill="#567de1" /><circle cx="532.4" cy="314.0" r="4" fill="#567de1" /><circle cx="550.5" cy="314.0" r="4" fill="#567de1" /><circle cx="568.6" cy="314.0" r="4" fill="#567de1" /><circle cx="586.7" cy="314.0" r="4" fill="#567de1" /><circle cx="604.8" cy="314.0" r="4" fill="#567de1" /><circle cx="622.9" cy="314.0" r="4" fill="#567de1" /><circle cx="641.0" cy="314.0" r="4" fill="#567de1" /><circle cx="659.0" cy="314.0" r="4" fill="#567de1" /><circle cx="677.1" cy="314.0" r="4" fill="#567de1" /><circle cx="695.2" cy="314.0" r="4" fill="#567de1" /><circle cx="713.3" cy="314.0" r="4" fill="#567de1" /><circle cx="731.4" cy="314.0" r="4" fill="#567de1" /><circle cx="749.5" cy="314.0" r="4" fill="#567de1" /><circle cx="767.6" cy="314.0" r="4" fill="#567de1" /><circle cx="785.7" cy="314.0" r="4" fill="#567de1" /><circle cx="803.8" cy="314.0" r="4" fill="#567de1" /><circle cx="821.9" cy="313.9" r="4" fill="#567de1" /><circle cx="840.0" cy="313.6" r="4" fill="#567de1" /><polyline points="80.0,303.9 98.1,304.2 116.2,304.4 134.3,304.4 152.4,304.4 170.5,304.4 188.6,304.4 206.7,304.4 224.8,304.4 242.9,304.4 261.0,304.4 279.0,304.4 297.1,304.4 315.2,304.4 333.3,304.4 351.4,304.4 369.5,304.4 387.6,304.4 405.7,304.4 423.8,304.4 441.9,304.4 460.0,304.4 478.1,304.4 496.2,304.4 514.3,304.4 532.4,304.4 550.5,304.4 568.6,304.4 586.7,299.1 604.8,299.1 622.9,299.1 641.0,298.9 659.0,295.6 677.1,295.6 695.2,295.6 713.3,295.6 731.4,295.6 749.5,295.6 767.6,295.6 785.7,295.6 803.8,295.6 821.9,295.8 840.0,295.9" fill="none" stroke="#9754dd" stroke-width="2.5" stroke-linecap="round" stroke-linejoin="round" /><circle cx="80.0" cy="303.9" r="4" fill="#9754dd" /><circle cx="98.1" cy="304.2" r="4" fill="#9754dd" /><circle cx="116.2" cy="304.4" r="4" fill="#9754dd" /><circle cx="134.3" cy="304.4" r="4" fill="#9754dd" /><circle cx="152.4" cy="304.4" r="4" fill="#9754dd" /><circle cx="170.5" cy="304.4" r="4" fill="#9754dd" /><circle cx="188.6" cy="304.4" r="4" fill="#9754dd" /><circle cx="206.7" cy="304.4" r="4" fill="#9754dd" /><circle cx="224.8" cy="304.4" r="4" fill="#9754dd" /><circle cx="242.9" cy="304.4" r="4" fill="#9754dd" /><circle cx="261.0" cy="304.4" r="4" fill="#9754dd" /><circle cx="279.0" cy="304.4" r="4" fill="#9754dd" /><circle cx="297.1" cy="304.4" r="4" fill="#9754dd" /><circle cx="315.2" cy="304.4" r="4" fill="#9754dd" /><circle cx="333.3" cy="304.4" r="4" fill="#9754dd" /><circle cx="351.4" cy="304.4" r="4" fill="#9754dd" /><circle cx="369.5" cy="304.4" r="4" fill="#9754dd" /><circle cx="387.6" cy="304.4" r="4" fill="#9754dd" /><circle cx="405.7" cy="304.4" r="4" fill="#9754dd" /><circle cx="423.8" cy="304.4" r="4" fill="#9754dd" /><circle cx="441.9" cy="304.4" r="4" fill="#9754dd" /><circle cx="460.0" cy="304.4" r="4" fill="#9754dd" /><circle cx="478.1" cy="304.4" r="4" fill="#9754dd" /><circle cx="496.2" cy="304.4" r="4" fill="#9754dd" /><circle cx="514.3" cy="304.4" r="4" fill="#9754dd" /><circle cx="532.4" cy="304.4" r="4" fill="#9754dd" /><circle cx="550.5" cy="304.4" r="4" fill="#9754dd" /><circle cx="568.6" cy="304.4" r="4" fill="#9754dd" /><circle cx="586.7" cy="299.1" r="4" fill="#9754dd" /><circle cx="604.8" cy="299.1" r="4" fill="#9754dd" /><circle cx="622.9" cy="299.1" r="4" fill="#9754dd" /><circle cx="641.0" cy="298.9" r="4" fill="#9754dd" /><circle cx="659.0" cy="295.6" r="4" fill="#9754dd" /><circle cx="677.1" cy="295.6" r="4" fill="#9754dd" /><circle cx="695.2" cy="295.6" r="4" fill="#9754dd" /><circle cx="713.3" cy="295.6" r="4" fill="#9754dd" /><circle cx="731.4" cy="295.6" r="4" fill="#9754dd" /><circle cx="749.5" cy="295.6" r="4" fill="#9754dd" /><circle cx="767.6" cy="295.6" r="4" fill="#9754dd" /><circle cx="785.7" cy="295.6" r="4" fill="#9754dd" /><circle cx="803.8" cy="295.6" r="4" fill="#9754dd" /><circle cx="821.9" cy="295.8" r="4" fill="#9754dd" /><circle cx="840.0" cy="295.9" r="4" fill="#9754dd" />
  <rect x="80" y="339" width="10" height="10" rx="2" ry="2" fill="#19e5a1" /><text x="96" y="348" class="legend-label">Stars</text><rect x="250" y="339" width="10" height="10" rx="2" ry="2" fill="#6eb6ec" /><text x="266" y="348" class="legend-label">Followers</text><rect x="420" y="339" width="10" height="10" rx="2" ry="2" fill="#5938e2" /><text x="436" y="348" class="legend-label">Following</text><rect x="590" y="339" width="10" height="10" rx="2" ry="2" fill="#60e5e0" /><text x="606" y="348" class="legend-label">Contributions</text><rect x="80" y="357" width="10" height="10" rx="2" ry="2" fill="#567de1" /><text x="96" y="366" class="legend-label">Pull Requests</text><rect x="250" y="357" width="10" height="10" rx="2" ry="2" fill="#9754dd" /><text x="266" y="366" class="legend-label">Issues</text>
</svg>
