<svg width="900" height="402" viewBox="0 0 900 402" xmlns="http://www.w3.org/2000/svg">
  <defs>
    <linearGradient id="history-gradient" x1="0%" y1="0%" x2="100%" y2="100%">
      <stop offset="0%" style="stop-color:#58a6ff;stop-opacity:1" />
      <stop offset="100%" style="stop-color:#a371f7;stop-opacity:1" />
    </linearGradient>
    <clipPath id="history-rounded">
      <rect x="0" y="0" width="900" height="402" rx="8" ry="8" />
    </clipPath>
  </defs>
  <style>
    .title {
      font-family: 'Segoe UI', Ubuntu, 'Helvetica Neue', sans-serif;
      font-size: 22px;
      font-weight: 700;
      fill: #58a6ff;
    }
    .subtitle {
      font-family: 'Segoe UI', Ubuntu, 'Helvetica Neue', sans-serif;
      font-size: 12px;
      font-weight: 500;
      fill: #8b949e;
    }
    .axis-label {
      font-family: 'Segoe UI', Ubuntu, 'Helvetica Neue', sans-serif;
      font-size: 10px;
      fill: #8b949e;
    }
    .grid-line {
      stroke: #30363d;
      stroke-width: 1;
      opacity: 0.3;
    }
    .legend-label {
      font-family: 'Segoe UI', Ubuntu, 'Helvetica Neue', sans-serif;
      font-size: 11px;
      fill: #c9d1d9;
      dominant-baseline: middle;
    }
  </style>
  <rect clip-path="url(#history-rounded)" width="100%" height="100%" fill="#0d1117" stroke="#30363d" stroke-width="1" />
  <rect x="0" y="396" width="900" height="6" fill="url(#history-gradient)" clip-path="url(#history-rounded)" />
  <text x="24" y="34" class="title">Leonardo Klein Stats History</text>
  <text x="24" y="54" class="subtitle">Period: 2026-02-20 to 2026-02-26</text>
  <text x="72" y="320.0" text-anchor="end" dominant-baseline="central" class="axis-label">0</text><text x="72" y="270.0" text-anchor="end" dominant-baseline="central" class="axis-label">400</text><text x="72" y="220.0" text-anchor="end" dominant-baseline="central" class="axis-label">800</text><text x="72" y="170.0" text-anchor="end" dominant-baseline="central" class="axis-label">1.2k</text><text x="72" y="120.0" text-anchor="end" dominant-baseline="central" class="axis-label">1.6k</text><text x="72" y="70.0" text-anchor="end" dominant-baseline="central" class="axis-label">2.0k</text>
  <text x="80.0" y="336" text-anchor="middle" class="axis-label">02-20</text><text x="151.2" y="336" text-anchor="middle" class="axis-label">02-21</text><text x="222.5" y="336" text-anchor="middle" class="axis-label">02-21</text><text x="293.8" y="336" text-anchor="middle" class="axis-label">02-22</text><text x="365.0" y="336" text-anchor="middle" class="axis-label">02-22</text><text x="436.2" y="336" text-anchor="middle" class="axis-label">02-23</text><text x="507.5" y="336" text-anchor="middle" class="axis-label">02-24</text><text x="578.8" y="336" text-anchor="middle" class="axis-label">02-24</text><text x="650.0" y="336" text-anchor="middle" class="axis-label">02-25</text><text x="721.2" y="336" text-anchor="middle" class="axis-label">02-25</text><text x="792.5" y="336" text-anchor="middle" class="axis-label">02-26</text><text x="840.0" y="336" text-anchor="middle" class="axis-label">02-26</text>
  <line x1="80" y1="320.0" x2="840" y2="320.0" class="grid-line" /><line x1="80" y1="270.0" x2="840" y2="270.0" class="grid-line" /><line x1="80" y1="220.0" x2="840" y2="220.0" class="grid-line" /><line x1="80" y1="170.0" x2="840" y2="170.0" class="grid-line" /><line x1="80" y1="120.0" x2="840" y2="120.0" class="grid-line" /><line x1="80" y1="70.0" x2="840" y2="70.0" class="grid-line" />
  <polyline points="80.0,317.0 103.8,317.0 127.5,317.0 151.2,317.0 175.0,317.0 198.8,317.0 222.5,317.0 246.2,317.0 270.0,317.0 293.8,317.0 317.5,317.0 341.2,317.0 365.0,317.0 388.8,317.0 412.5,317.0 436.2,317.0 460.0,317.0 483.8,317.0 507.5,317.0 531.2,317.0 555.0,317.0 578.8,317.0 602.5,317.0 626.2,317.0 650.0,317.0 673.8,317.0 697.5,317.0 721.2,317.0 745.0,317.0 768.8,317.0 792.5,317.0 816.2,317.0 840.0,317.0" fill="none" stroke="#19e5a1" stroke-width="2.5" stroke-linecap="round" stroke-linejoin="round" /><circle cx="80.0" cy="317.0" r="4" fill="#19e5a1" /><circle cx="103.8" cy="317.0" r="4" fill="#19e5a1" /><circle cx="127.5" cy="317.0" r="4" fill="#19e5a1" /><circle cx="151.2" cy="317.0" r="4" fill="#19e5a1" /><circle cx="175.0" cy="317.0" r="4" fill="#19e5a1" /><circle cx="198.8" cy="317.0" r="4" fill="#19e5a1" /><circle cx="222.5" cy="317.0" r="4" fill="#19e5a1" /><circle cx="246.2" cy="317.0" r="4" fill="#19e5a1" /><circle cx="270.0" cy="317.0" r="4" fill="#19e5a1" /><circle cx="293.8" cy="317.0" r="4" fill="#19e5a1" /><circle cx="317.5" cy="317.0" r="4" fill="#19e5a1" /><circle cx="341.2" cy="317.0" r="4" fill="#19e5a1" /><circle cx="365.0" cy="317.0" r="4" fill="#19e5a1" /><circle cx="388.8" cy="317.0" r="4" fill="#19e5a1" /><circle cx="412.5" cy="317.0" r="4" fill="#19e5a1" /><circle cx="436.2" cy="317.0" r="4" fill="#19e5a1" /><circle cx="460.0" cy="317.0" r="4" fill="#19e5a1" /><circle cx="483.8" cy="317.0" r="4" fill="#19e5a1" /><circle cx="507.5" cy="317.0" r="4" fill="#19e5a1" /><circle cx="531.2" cy="317.0" r="4" fill="#19e5a1" /><circle cx="555.0" cy="317.0" r="4" fill="#19e5a1" /><circle cx="578.8" cy="317.0" r="4" fill="#19e5a1" /><circle cx="602.5" cy="317.0" r="4" fill="#19e5a1" /><circle cx="626.2" cy="317.0" r="4" fill="#19e5a1" /><circle cx="650.0" cy="317.0" r="4" fill="#19e5a1" /><circle cx="673.8" cy="317.0" r="4" fill="#19e5a1" /><circle cx="697.5" cy="317.0" r="4" fill="#19e5a1" /><circle cx="721.2" cy="317.0" r="4" fill="#19e5a1" /><circle cx="745.0" cy="317.0" r="4" fill="#19e5a1" /><circle cx="768.8" cy="317.0" r="4" fill="#19e5a1" /><circle cx="792.5" cy="317.0" r="4" fill="#19e5a1" /><circle cx="816.2" cy="317.0" r="4" fill="#19e5a1" /><circle cx="840.0" cy="317.0" r="4" fill="#19e5a1" /><polyline points="80.0,313.2 103.8,312.2 127.5,312.1 151.2,312.4 175.0,312.4 198.8,312.4 222.5,312.1 246.2,312.0 270.0,311.9 293.8,311.9 317.5,311.8 341.2,311.8 365.0,311.5 388.8,311.5 412.5,311.5 436.2,311.2 460.0,311.2 483.8,311.1 507.5,311.1 531.2,311.1 555.0,310.9 578.8,311.0 602.5,310.8 626.2,310.8 650.0,310.8 673.8,310.8 697.5,310.4 721.2,310.2 745.0,310.4 768.8,310.4 792.5,310.4 816.2,310.4 840.0,310.4" fill="none" stroke="#6eb6ec" stroke-width="2.5" stroke-linecap="round" stroke-linejoin="round" /><circle cx="80.0" cy="313.2" r="4" fill="#6eb6ec" /><circle cx="103.8" cy="312.2" r="4" fill="#6eb6ec" /><circle cx="127.5" cy="312.1" r="4" fill="#6eb6ec" /><circle cx="151.2" cy="312.4" r="4" fill="#6eb6ec" /><circle cx="175.0" cy="312.4" r="4" fill="#6eb6ec" /><circle cx="198.8" cy="312.4" r="4" fill="#6eb6ec" /><circle cx="222.5" cy="312.1" r="4" fill="#6eb6ec" /><circle cx="246.2" cy="312.0" r="4" fill="#6eb6ec" /><circle cx="270.0" cy="311.9" r="4" fill="#6eb6ec" /><circle cx="293.8" cy="311.9" r="4" fill="#6eb6ec" /><circle cx="317.5" cy="311.8" r="4" fill="#6eb6ec" /><circle cx="341.2" cy="311.8" r="4" fill="#6eb6ec" /><circle cx="365.0" cy="311.5" r="4" fill="#6eb6ec" /><circle cx="388.8" cy="311.5" r="4" fill="#6eb6ec" /><circle cx="412.5" cy="311.5" r="4" fill="#6eb6ec" /><circle cx="436.2" cy="311.2" r="4" fill="#6eb6ec" /><circle cx="460.0" cy="311.2" r="4" fill="#6eb6ec" /><circle cx="483.8" cy="311.1" r="4" fill="#6eb6ec" /><circle cx="507.5" cy="311.1" r="4" fill="#6eb6ec" /><circle cx="531.2" cy="311.1" r="4" fill="#6eb6ec" /><circle cx="555.0" cy="310.9" r="4" fill="#6eb6ec" /><circle cx="578.8" cy="311.0" r="4" fill="#6eb6ec" /><circle cx="602.5" cy="310.8" r="4" fill="#6eb6ec" /><circle cx="626.2" cy="310.8" r="4" fill="#6eb6ec" /><circle cx="650.0" cy="310.8" r="4" fill="#6eb6ec" /><circle cx="673.8" cy="310.8" r="4" fill="#6eb6ec" /><circle cx="697.5" cy="310.4" r="4" fill="#6eb6ec" /><circle cx="721.2" cy="310.2" r="4" fill="#6eb6ec" /><circle cx="745.0" cy="310.4" r="4" fill="#6eb6ec" /><circle cx="768.8" cy="310.4" r="4" fill="#6eb6ec" /><circle cx="792.5" cy="310.4" r="4" fill="#6eb6ec" /><circle cx="816.2" cy="310.4" r="4" fill="#6eb6ec" /><circle cx="840.0" cy="310.4" r="4" fill="#6eb6ec" /><polyline points="80.0,305.8 103.8,305.8 127.5,305.8 151.2,305.8 175.0,305.8 198.8,305.8 222.5,305.8 246.2,305.8 270.0,305.8 293.8,305.8 317.5,304.9 341.2,304.9 365.0,304.9 388.8,304.9 412.5,304.9 436.2,304.9 460.0,304.9 483.8,304.9 507.5,304.9 531.2,304.9 555.0,304.9 578.8,304.9 602.5,304.9 626.2,304.9 650.0,304.9 673.8,304.9 697.5,304.9 721.2,304.9 745.0,304.9 768.8,304.9 792.5,304.9 816.2,304.9 840.0,304.9" fill="none" stroke="#5938e2" stroke-width="2.5" stroke-linecap="round" stroke-linejoin="round" /><circle cx="80.0" cy="305.8" r="4" fill="#5938e2" /><circle cx="103.8" cy="305.8" r="4" fill="#5938e2" /><circle cx="127.5" cy="305.8" r="4" fill="#5938e2" /><circle cx="151.2" cy="305.8" r="4" fill="#5938e2" /><circle cx="175.0" cy="305.8" r="4" fill="#5938e2" /><circle cx="198.8" cy="305.8" r="4" fill="#5938e2" /><circle cx="222.5" cy="305.8" r="4" fill="#5938e2" /><circle cx="246.2" cy="305.8" r="4" fill="#5938e2" /><circle cx="270.0" cy="305.8" r="4" fill="#5938e2" /><circle cx="293.8" cy="305.8" r="4" fill="#5938e2" /><circle cx="317.5" cy="304.9" r="4" fill="#5938e2" /><circle cx="341.2" cy="304.9" r="4" fill="#5938e2" /><circle cx="365.0" cy="304.9" r="4" fill="#5938e2" /><circle cx="388.8" cy="304.9" r="4" fill="#5938e2" /><circle cx="412.5" cy="304.9" r="4" fill="#5938e2" /><circle cx="436.2" cy="304.9" r="4" fill="#5938e2" /><circle cx="460.0" cy="304.9" r="4" fill="#5938e2" /><circle cx="483.8" cy="304.9" r="4" fill="#5938e2" /><circle cx="507.5" cy="304.9" r="4" fill="#5938e2" /><circle cx="531.2" cy="304.9" r="4" fill="#5938e2" /><circle cx="555.0" cy="304.9" r="4" fill="#5938e2" /><circle cx="578.8" cy="304.9" r="4" fill="#5938e2" /><circle cx="602.5" cy="304.9" r="4" fill="#5938e2" /><circle cx="626.2" cy="304.9" r="4" fill="#5938e2" /><circle cx="650.0" cy="304.9" r="4" fill="#5938e2" /><circle cx="673.8" cy="304.9" r="4" fill="#5938e2" /><circle cx="697.5" cy="304.9" r="4" fill="#5938e2" /><circle cx="721.2" cy="304.9" r="4" fill="#5938e2" /><circle cx="745.0" cy="304.9" r="4" fill="#5938e2" /><circle cx="768.8" cy="304.9" r="4" fill="#5938e2" /><circle cx="792.5" cy="304.9" r="4" fill="#5938e2" /><circle cx="816.2" cy="304.9" r="4" fill="#5938e2" /><circle cx="840.0" cy="304.9" r="4" fill="#5938e2" /><polyline points="80.0,144.6 103.8,140.1 127.5,139.9 151.2,139.8 175.0,139.8 198.8,139.6 222.5,139.6 246.2,139.6 270.0,139.6 293.8,139.6 317.5,138.4 341.2,138.4 365.0,138.4 388.8,138.4 412.5,138.4 436.2,138.4 460.0,138.4 483.8,137.4 507.5,137.4 531.2,137.4 555.0,137.4 578.8,137.4 602.5,137.4 626.2,137.4 650.0,137.4 673.8,137.4 697.5,137.4 721.2,137.4 745.0,131.2 768.8,131.2 792.5,130.8 816.2,130.4 840.0,126.9" fill="none" stroke="#60e5e0" stroke-width="2.5" stroke-linecap="round" stroke-linejoin="round" /><circle cx="80.0" cy="144.6" r="4" fill="#60e5e0" /><circle cx="103.8" cy="140.1" r="4" fill="#60e5e0" /><circle cx="127.5" cy="139.9" r="4" fill="#60e5e0" /><circle cx="151.2" cy="139.8" r="4" fill="#60e5e0" /><circle cx="175.0" cy="139.8" r="4" fill="#60e5e0" /><circle cx="198.8" cy="139.6" r="4" fill="#60e5e0" /><circle cx="222.5" cy="139.6" r="4" fill="#60e5e0" /><circle cx="246.2" cy="139.6" r="4" fill="#60e5e0" /><circle cx="270.0" cy="139.6" r="4" fill="#60e5e0" /><circle cx="293.8" cy="139.6" r="4" fill="#60e5e0" /><circle cx="317.5" cy="138.4" r="4" fill="#60e5e0" /><circle cx="341.2" cy="138.4" r="4" fill="#60e5e0" /><circle cx="365.0" cy="138.4" r="4" fill="#60e5e0" /><circle cx="388.8" cy="138.4" r="4" fill="#60e5e0" /><circle cx="412.5" cy="138.4" r="4" fill="#60e5e0" /><circle cx="436.2" cy="138.4" r="4" fill="#60e5e0" /><circle cx="460.0" cy="138.4" r="4" fill="#60e5e0" /><circle cx="483.8" cy="137.4" r="4" fill="#60e5e0" /><circle cx="507.5" cy="137.4" r="4" fill="#60e5e0" /><circle cx="531.2" cy="137.4" r="4" fill="#60e5e0" /><circle cx="555.0" cy="137.4" r="4" fill="#60e5e0" /><circle cx="578.8" cy="137.4" r="4" fill="#60e5e0" /><circle cx="602.5" cy="137.4" r="4" fill="#60e5e0" /><circle cx="626.2" cy="137.4" r="4" fill="#60e5e0" /><circle cx="650.0" cy="137.4" r="4" fill="#60e5e0" /><circle cx="673.8" cy="137.4" r="4" fill="#60e5e0" /><circle cx="697.5" cy="137.4" r="4" fill="#60e5e0" /><circle cx="721.2" cy="137.4" r="4" fill="#60e5e0" /><circle cx="745.0" cy="131.2" r="4" fill="#60e5e0" /><circle cx="768.8" cy="131.2" r="4" fill="#60e5e0" /><circle cx="792.5" cy="130.8" r="4" fill="#60e5e0" /><circle cx="816.2" cy="130.4" r="4" fill="#60e5e0" /><circle cx="840.0" cy="126.9" r="4" fill="#60e5e0" /><polyline points="80.0,314.6 103.8,314.4 127.5,314.2 151.2,314.2 175.0,314.2 198.8,314.1 222.5,314.1 246.2,314.1 270.0,314.1 293.8,314.1 317.5,314.0 341.2,314.0 365.0,314.0 388.8,314.0 412.5,314.0 436.2,314.0 460.0,314.0 483.8,314.0 507.5,314.0 531.2,314.0 555.0,314.0 578.8,314.0 602.5,314.0 626.2,314.0 650.0,314.0 673.8,314.0 697.5,314.0 721.2,314.0 745.0,314.0 768.8,314.0 792.5,314.0 816.2,314.0 840.0,314.0" fill="none" stroke="#567de1" stroke-width="2.5" stroke-linecap="round" stroke-linejoin="round" /><circle cx="80.0" cy="314.6" r="4" fill="#567de1" /><circle cx="103.8" cy="314.4" r="4" fill="#567de1" /><circle cx="127.5" cy="314.2" r="4" fill="#567de1" /><circle cx="151.2" cy="314.2" r="4" fill="#567de1" /><circle cx="175.0" cy="314.2" r="4" fill="#567de1" /><circle cx="198.8" cy="314.1" r="4" fill="#567de1" /><circle cx="222.5" cy="314.1" r="4" fill="#567de1" /><circle cx="246.2" cy="314.1" r="4" fill="#567de1" /><circle cx="270.0" cy="314.1" r="4" fill="#567de1" /><circle cx="293.8" cy="314.1" r="4" fill="#567de1" /><circle cx="317.5" cy="314.0" r="4" fill="#567de1" /><circle cx="341.2" cy="314.0" r="4" fill="#567de1" /><circle cx="365.0" cy="314.0" r="4" fill="#567de1" /><circle cx="388.8" cy="314.0" r="4" fill="#567de1" /><circle cx="412.5" cy="314.0" r="4" fill="#567de1" /><circle cx="436.2" cy="314.0" r="4" fill="#567de1" /><circle cx="460.0" cy="314.0" r="4" fill="#567de1" /><circle cx="483.8" cy="314.0" r="4" fill="#567de1" /><circle cx="507.5" cy="314.0" r="4" fill="#567de1" /><circle cx="531.2" cy="314.0" r="4" fill="#567de1" /><circle cx="555.0" cy="314.0" r="4" fill="#567de1" /><circle cx="578.8" cy="314.0" r="4" fill="#567de1" /><circle cx="602.5" cy="314.0" r="4" fill="#567de1" /><circle cx="626.2" cy="314.0" r="4" fill="#567de1" /><circle cx="650.0" cy="314.0" r="4" fill="#567de1" /><circle cx="673.8" cy="314.0" r="4" fill="#567de1" /><circle cx="697.5" cy="314.0" r="4" fill="#567de1" /><circle cx="721.2" cy="314.0" r="4" fill="#567de1" /><circle cx="745.0" cy="314.0" r="4" fill="#567de1" /><circle cx="768.8" cy="314.0" r="4" fill="#567de1" /><circle cx="792.5" cy="314.0" r="4" fill="#567de1" /><circle cx="816.2" cy="314.0" r="4" fill="#567de1" /><circle cx="840.0" cy="314.0" r="4" fill="#567de1" /><polyline points="80.0,303.9 103.8,304.2 127.5,304.4 151.2,304.4 175.0,304.4 198.8,304.4 222.5,304.4 246.2,304.4 270.0,304.4 293.8,304.4 317.5,304.4 341.2,304.4 365.0,304.4 388.8,304.4 412.5,304.4 436.2,304.4 460.0,304.4 483.8,304.4 507.5,304.4 531.2,304.4 555.0,304.4 578.8,304.4 602.5,304.4 626.2,304.4 650.0,304.4 673.8,304.4 697.5,304.4 721.2,304.4 745.0,299.1 768.8,299.1 792.5,299.1 816.2,298.9 840.0,295.6" fill="none" stroke="#9754dd" stroke-width="2.5" stroke-linecap="round" stroke-linejoin="round" /><circle cx="80.0" cy="303.9" r="4" fill="#9754dd" /><circle cx="103.8" cy="304.2" r="4" fill="#9754dd" /><circle cx="127.5" cy="304.4" r="4" fill="#9754dd" /><circle cx="151.2" cy="304.4" r="4" fill="#9754dd" /><circle cx="175.0" cy="304.4" r="4" fill="#9754dd" /><circle cx="198.8" cy="304.4" r="4" fill="#9754dd" /><circle cx="222.5" cy="304.4" r="4" fill="#9754dd" /><circle cx="246.2" cy="304.4" r="4" fill="#9754dd" /><circle cx="270.0" cy="304.4" r="4" fill="#9754dd" /><circle cx="293.8" cy="304.4" r="4" fill="#9754dd" /><circle cx="317.5" cy="304.4" r="4" fill="#9754dd" /><circle cx="341.2" cy="304.4" r="4" fill="#9754dd" /><circle cx="365.0" cy="304.4" r="4" fill="#9754dd" /><circle cx="388.8" cy="304.4" r="4" fill="#9754dd" /><circle cx="412.5" cy="304.4" r="4" fill="#9754dd" /><circle cx="436.2" cy="304.4" r="4" fill="#9754dd" /><circle cx="460.0" cy="304.4" r="4" fill="#9754dd" /><circle cx="483.8" cy="304.4" r="4" fill="#9754dd" /><circle cx="507.5" cy="304.4" r="4" fill="#9754dd" /><circle cx="531.2" cy="304.4" r="4" fill="#9754dd" /><circle cx="555.0" cy="304.4" r="4" fill="#9754dd" /><circle cx="578.8" cy="304.4" r="4" fill="#9754dd" /><circle cx="602.5" cy="304.4" r="4" fill="#9754dd" /><circle cx="626.2" cy="304.4" r="4" fill="#9754dd" /><circle cx="650.0" cy="304.4" r="4" fill="#9754dd" /><circle cx="673.8" cy="304.4" r="4" fill="#9754dd" /><circle cx="697.5" cy="304.4" r="4" fill="#9754dd" /><circle cx="721.2" cy="304.4" r="4" fill="#9754dd" /><circle cx="745.0" cy="299.1" r="4" fill="#9754dd" /><circle cx="768.8" cy="299.1" r="4" fill="#9754dd" /><circle cx="792.5" cy="299.1" r="4" fill="#9754dd" /><circle cx="816.2" cy="298.9" r="4" fill="#9754dd" /><circle cx="840.0" cy="295.6" r="4" fill="#9754dd" />
  <rect x="80" y="339" width="10" height="10" rx="2" ry="2" fill="#19e5a1" /><text x="96" y="348" class="legend-label">Stars</text><rect x="250" y="339" width="10" height="10" rx="2" ry="2" fill="#6eb6ec" /><text x="266" y="348" class="legend-label">Followers</text><rect x="420" y="339" width="10" height="10" rx="2" ry="2" fill="#5938e2" /><text x="436" y="348" class="legend-label">Following</text><rect x="590" y="339" width="10" height="10" rx="2" ry="2" fill="#60e5e0" /><text x="606" y="348" class="legend-label">Contributions</text><rect x="80" y="357" width="10" height="10" rx="2" ry="2" fill="#567de1" /><text x="96" y="366" class="legend-label">Pull Requests</text><rect x="250" y="357" width="10" height="10" rx="2" ry="2" fill="#9754dd" /><text x="266" y="366" class="legend-label">Issues</text>
</svg>
