<svg width="900" height="402" viewBox="0 0 900 402" xmlns="http://www.w3.org/2000/svg">
  <defs>
    <linearGradient id="history-gradient" x1="0%" y1="0%" x2="100%" y2="100%">
      <stop offset="0%" style="stop-color:#58a6ff;stop-opacity:1" />
      <stop offset="100%" style="stop-color:#a371f7;stop-opacity:1" />
    </linearGradient>
    <clipPath id="history-rounded">
      <rect x="0" y="0" width="900" height="402" rx="8" ry="8" />
    </clipPath>
  </defs>
  <style>
    .title {
      font-family: 'Segoe UI', Ubuntu, 'Helvetica Neue', sans-serif;
      font-size: 22px;
      font-weight: 700;
      fill: #58a6ff;
    }
    .subtitle {
      font-family: 'Segoe UI', Ubuntu, 'Helvetica Neue', sans-serif;
      font-size: 12px;
      font-weight: 500;
      fill: #8b949e;
    }
    .axis-label {
      font-family: 'Segoe UI', Ubuntu, 'Helvetica Neue', sans-serif;
      font-size: 10px;
      fill: #8b949e;
    }
    .grid-line {
      stroke: #30363d;
      stroke-width: 1;
      opacity: 0.3;
    }
    .legend-label {
      font-family: 'Segoe UI', Ubuntu, 'Helvetica Neue', sans-serif;
      font-size: 11px;
      fill: #c9d1d9;
      dominant-baseline: middle;
    }
  </style>
  <rect clip-path="url(#history-rounded)" width="100%" height="100%" fill="#0d1117" stroke="#30363d" stroke-width="1" />
  <rect x="0" y="396" width="900" height="6" fill="url(#history-gradient)" clip-path="url(#history-rounded)" />
  <text x="24" y="34" class="title">Leonardo Klein Stats History</text>
  <text x="24" y="54" class="subtitle">Period: 2026-02-20 to 2026-02-22</text>
  <text x="72" y="320.0" text-anchor="end" dominant-baseline="central" class="axis-label">0</text><text x="72" y="270.0" text-anchor="end" dominant-baseline="central" class="axis-label">300</text><text x="72" y="220.0" text-anchor="end" dominant-baseline="central" class="axis-label">600</text><text x="72" y="170.0" text-anchor="end" dominant-baseline="central" class="axis-label">900</text><text x="72" y="120.0" text-anchor="end" dominant-baseline="central" class="axis-label">1.2k</text><text x="72" y="70.0" text-anchor="end" dominant-baseline="central" class="axis-label">1.5k</text>
  <text x="80.0" y="336" text-anchor="middle" class="axis-label">02-20</text><text x="149.1" y="336" text-anchor="middle" class="axis-label">02-20</text><text x="218.2" y="336" text-anchor="middle" class="axis-label">02-20</text><text x="287.3" y="336" text-anchor="middle" class="axis-label">02-21</text><text x="356.4" y="336" text-anchor="middle" class="axis-label">02-21</text><text x="425.5" y="336" text-anchor="middle" class="axis-label">02-21</text><text x="494.5" y="336" text-anchor="middle" class="axis-label">02-21</text><text x="563.6" y="336" text-anchor="middle" class="axis-label">02-21</text><text x="632.7" y="336" text-anchor="middle" class="axis-label">02-22</text><text x="701.8" y="336" text-anchor="middle" class="axis-label">02-22</text><text x="770.9" y="336" text-anchor="middle" class="axis-label">02-22</text><text x="840.0" y="336" text-anchor="middle" class="axis-label">02-22</text>
  <line x1="80" y1="320.0" x2="840" y2="320.0" class="grid-line" /><line x1="80" y1="270.0" x2="840" y2="270.0" class="grid-line" /><line x1="80" y1="220.0" x2="840" y2="220.0" class="grid-line" /><line x1="80" y1="170.0" x2="840" y2="170.0" class="grid-line" /><line x1="80" y1="120.0" x2="840" y2="120.0" class="grid-line" /><line x1="80" y1="70.0" x2="840" y2="70.0" class="grid-line" />
  <polyline points="80.0,316.0 149.1,316.0 218.2,316.0 287.3,316.0 356.4,316.0 425.5,316.0 494.5,316.0 563.6,316.0 632.7,316.0 701.8,316.0 770.9,316.0 840.0,316.0" fill="none" stroke="#19e5a1" stroke-width="2.5" stroke-linecap="round" stroke-linejoin="round" /><circle cx="80.0" cy="316.0" r="4" fill="#19e5a1" /><circle cx="149.1" cy="316.0" r="4" fill="#19e5a1" /><circle cx="218.2" cy="316.0" r="4" fill="#19e5a1" /><circle cx="287.3" cy="316.0" r="4" fill="#19e5a1" /><circle cx="356.4" cy="316.0" r="4" fill="#19e5a1" /><circle cx="425.5" cy="316.0" r="4" fill="#19e5a1" /><circle cx="494.5" cy="316.0" r="4" fill="#19e5a1" /><circle cx="563.6" cy="316.0" r="4" fill="#19e5a1" /><circle cx="632.7" cy="316.0" r="4" fill="#19e5a1" /><circle cx="701.8" cy="316.0" r="4" fill="#19e5a1" /><circle cx="770.9" cy="316.0" r="4" fill="#19e5a1" /><circle cx="840.0" cy="316.0" r="4" fill="#19e5a1" /><polyline points="80.0,311.0 149.1,309.7 218.2,309.5 287.3,309.8 356.4,309.8 425.5,309.8 494.5,309.5 563.6,309.3 632.7,309.2 701.8,309.2 770.9,309.0 840.0,309.0" fill="none" stroke="#6eb6ec" stroke-width="2.5" stroke-linecap="round" stroke-linejoin="round" /><circle cx="80.0" cy="311.0" r="4" fill="#6eb6ec" /><circle cx="149.1" cy="309.7" r="4" fill="#6eb6ec" /><circle cx="218.2" cy="309.5" r="4" fill="#6eb6ec" /><circle cx="287.3" cy="309.8" r="4" fill="#6eb6ec" /><circle cx="356.4" cy="309.8" r="4" fill="#6eb6ec" /><circle cx="425.5" cy="309.8" r="4" fill="#6eb6ec" /><circle cx="494.5" cy="309.5" r="4" fill="#6eb6ec" /><circle cx="563.6" cy="309.3" r="4" fill="#6eb6ec" /><circle cx="632.7" cy="309.2" r="4" fill="#6eb6ec" /><circle cx="701.8" cy="309.2" r="4" fill="#6eb6ec" /><circle cx="770.9" cy="309.0" r="4" fill="#6eb6ec" /><circle cx="840.0" cy="309.0" r="4" fill="#6eb6ec" /><polyline points="80.0,301.0 149.1,301.0 218.2,301.0 287.3,301.0 356.4,301.0 425.5,301.0 494.5,301.0 563.6,301.0 632.7,301.0 701.8,301.0 770.9,299.8 840.0,299.8" fill="none" stroke="#5938e2" stroke-width="2.5" stroke-linecap="round" stroke-linejoin="round" /><circle cx="80.0" cy="301.0" r="4" fill="#5938e2" /><circle cx="149.1" cy="301.0" r="4" fill="#5938e2" /><circle cx="218.2" cy="301.0" r="4" fill="#5938e2" /><circle cx="287.3" cy="301.0" r="4" fill="#5938e2" /><circle cx="356.4" cy="301.0" r="4" fill="#5938e2" /><circle cx="425.5" cy="301.0" r="4" fill="#5938e2" /><circle cx="494.5" cy="301.0" r="4" fill="#5938e2" /><circle cx="563.6" cy="301.0" r="4" fill="#5938e2" /><circle cx="632.7" cy="301.0" r="4" fill="#5938e2" /><circle cx="701.8" cy="301.0" r="4" fill="#5938e2" /><circle cx="770.9" cy="299.8" r="4" fill="#5938e2" /><circle cx="840.0" cy="299.8" r="4" fill="#5938e2" /><polyline points="80.0,86.2 149.1,80.2 218.2,79.8 287.3,79.7 356.4,79.7 425.5,79.5 494.5,79.5 563.6,79.5 632.7,79.5 701.8,79.5 770.9,77.8 840.0,77.8" fill="none" stroke="#60e5e0" stroke-width="2.5" stroke-linecap="round" stroke-linejoin="round" /><circle cx="80.0" cy="86.2" r="4" fill="#60e5e0" /><circle cx="149.1" cy="80.2" r="4" fill="#60e5e0" /><circle cx="218.2" cy="79.8" r="4" fill="#60e5e0" /><circle cx="287.3" cy="79.7" r="4" fill="#60e5e0" /><circle cx="356.4" cy="79.7" r="4" fill="#60e5e0" /><circle cx="425.5" cy="79.5" r="4" fill="#60e5e0" /><circle cx="494.5" cy="79.5" r="4" fill="#60e5e0" /><circle cx="563.6" cy="79.5" r="4" fill="#60e5e0" /><circle cx="632.7" cy="79.5" r="4" fill="#60e5e0" /><circle cx="701.8" cy="79.5" r="4" fill="#60e5e0" /><circle cx="770.9" cy="77.8" r="4" fill="#60e5e0" /><circle cx="840.0" cy="77.8" r="4" fill="#60e5e0" /><polyline points="80.0,312.8 149.1,312.5 218.2,312.3 287.3,312.3 356.4,312.3 425.5,312.2 494.5,312.2 563.6,312.2 632.7,312.2 701.8,312.2 770.9,312.0 840.0,312.0" fill="none" stroke="#567de1" stroke-width="2.5" stroke-linecap="round" stroke-linejoin="round" /><circle cx="80.0" cy="312.8" r="4" fill="#567de1" /><circle cx="149.1" cy="312.5" r="4" fill="#567de1" /><circle cx="218.2" cy="312.3" r="4" fill="#567de1" /><circle cx="287.3" cy="312.3" r="4" fill="#567de1" /><circle cx="356.4" cy="312.3" r="4" fill="#567de1" /><circle cx="425.5" cy="312.2" r="4" fill="#567de1" /><circle cx="494.5" cy="312.2" r="4" fill="#567de1" /><circle cx="563.6" cy="312.2" r="4" fill="#567de1" /><circle cx="632.7" cy="312.2" r="4" fill="#567de1" /><circle cx="701.8" cy="312.2" r="4" fill="#567de1" /><circle cx="770.9" cy="312.0" r="4" fill="#567de1" /><circle cx="840.0" cy="312.0" r="4" fill="#567de1" /><polyline points="80.0,298.5 149.1,299.0 218.2,299.2 287.3,299.2 356.4,299.2 425.5,299.2 494.5,299.2 563.6,299.2 632.7,299.2 701.8,299.2 770.9,299.2 840.0,299.2" fill="none" stroke="#9754dd" stroke-width="2.5" stroke-linecap="round" stroke-linejoin="round" /><circle cx="80.0" cy="298.5" r="4" fill="#9754dd" /><circle cx="149.1" cy="299.0" r="4" fill="#9754dd" /><circle cx="218.2" cy="299.2" r="4" fill="#9754dd" /><circle cx="287.3" cy="299.2" r="4" fill="#9754dd" /><circle cx="356.4" cy="299.2" r="4" fill="#9754dd" /><circle cx="425.5" cy="299.2" r="4" fill="#9754dd" /><circle cx="494.5" cy="299.2" r="4" fill="#9754dd" /><circle cx="563.6" cy="299.2" r="4" fill="#9754dd" /><circle cx="632.7" cy="299.2" r="4" fill="#9754dd" /><circle cx="701.8" cy="299.2" r="4" fill="#9754dd" /><circle cx="770.9" cy="299.2" r="4" fill="#9754dd" /><circle cx="840.0" cy="299.2" r="4" fill="#9754dd" />
  <rect x="80" y="339" width="10" height="10" rx="2" ry="2" fill="#19e5a1" /><text x="96" y="348" class="legend-label">Stars</text><rect x="250" y="339" width="10" height="10" rx="2" ry="2" fill="#6eb6ec" /><text x="266" y="348" class="legend-label">Followers</text><rect x="420" y="339" width="10" height="10" rx="2" ry="2" fill="#5938e2" /><text x="436" y="348" class="legend-label">Following</text><rect x="590" y="339" width="10" height="10" rx="2" ry="2" fill="#60e5e0" /><text x="606" y="348" class="legend-label">Contributions</text><rect x="80" y="357" width="10" height="10" rx="2" ry="2" fill="#567de1" /><text x="96" y="366" class="legend-label">Pull Requests</text><rect x="250" y="357" width="10" height="10" rx="2" ry="2" fill="#9754dd" /><text x="266" y="366" class="legend-label">Issues</text>
</svg>
