<svg width="900" height="402" viewBox="0 0 900 402" xmlns="http://www.w3.org/2000/svg">
  <defs>
    <linearGradient id="history-gradient" x1="0%" y1="0%" x2="100%" y2="100%">
      <stop offset="0%" style="stop-color:#58a6ff;stop-opacity:1" />
      <stop offset="100%" style="stop-color:#a371f7;stop-opacity:1" />
    </linearGradient>
    <clipPath id="history-rounded">
      <rect x="0" y="0" width="900" height="402" rx="8" ry="8" />
    </clipPath>
  </defs>
  <style>
    .title {
      font-family: 'Segoe UI', Ubuntu, 'Helvetica Neue', sans-serif;
      font-size: 22px;
      font-weight: 700;
      fill: #58a6ff;
    }
    .subtitle {
      font-family: 'Segoe UI', Ubuntu, 'Helvetica Neue', sans-serif;
      font-size: 12px;
      font-weight: 500;
      fill: #8b949e;
    }
    .axis-label {
      font-family: 'Segoe UI', Ubuntu, 'Helvetica Neue', sans-serif;
      font-size: 10px;
      fill: #8b949e;
    }
    .grid-line {
      stroke: #30363d;
      stroke-width: 1;
      opacity: 0.3;
    }
    .legend-label {
      font-family: 'Segoe UI', Ubuntu, 'Helvetica Neue', sans-serif;
      font-size: 11px;
      fill: #c9d1d9;
      dominant-baseline: middle;
    }
  </style>
  <rect clip-path="url(#history-rounded)" width="100%" height="100%" fill="#0d1117" stroke="#30363d" stroke-width="1" />
  <rect x="0" y="396" width="900" height="6" fill="url(#history-gradient)" clip-path="url(#history-rounded)" />
  <text x="24" y="34" class="title">Leonardo Klein Stats History</text>
  <text x="24" y="54" class="subtitle">Period: 2026-02-20 to 2026-02-27</text>
  <text x="72" y="320.0" text-anchor="end" dominant-baseline="central" class="axis-label">0</text><text x="72" y="270.0" text-anchor="end" dominant-baseline="central" class="axis-label">400</text><text x="72" y="220.0" text-anchor="end" dominant-baseline="central" class="axis-label">800</text><text x="72" y="170.0" text-anchor="end" dominant-baseline="central" class="axis-label">1.2k</text><text x="72" y="120.0" text-anchor="end" dominant-baseline="central" class="axis-label">1.6k</text><text x="72" y="70.0" text-anchor="end" dominant-baseline="central" class="axis-label">2.0k</text>
  <text x="80.0" y="336" text-anchor="middle" class="axis-label">02-20</text><text x="143.3" y="336" text-anchor="middle" class="axis-label">02-21</text><text x="206.7" y="336" text-anchor="middle" class="axis-label">02-21</text><text x="270.0" y="336" text-anchor="middle" class="axis-label">02-22</text><text x="333.3" y="336" text-anchor="middle" class="axis-label">02-22</text><text x="396.7" y="336" text-anchor="middle" class="axis-label">02-23</text><text x="460.0" y="336" text-anchor="middle" class="axis-label">02-24</text><text x="523.3" y="336" text-anchor="middle" class="axis-label">02-24</text><text x="586.7" y="336" text-anchor="middle" class="axis-label">02-25</text><text x="650.0" y="336" text-anchor="middle" class="axis-label">02-25</text><text x="713.3" y="336" text-anchor="middle" class="axis-label">02-26</text><text x="776.7" y="336" text-anchor="middle" class="axis-label">02-27</text><text x="840.0" y="336" text-anchor="middle" class="axis-label">02-27</text>
  <line x1="80" y1="320.0" x2="840" y2="320.0" class="grid-line" /><line x1="80" y1="270.0" x2="840" y2="270.0" class="grid-line" /><line x1="80" y1="220.0" x2="840" y2="220.0" class="grid-line" /><line x1="80" y1="170.0" x2="840" y2="170.0" class="grid-line" /><line x1="80" y1="120.0" x2="840" y2="120.0" class="grid-line" /><line x1="80" y1="70.0" x2="840" y2="70.0" class="grid-line" />
  <polyline points="80.0,317.0 101.1,317.0 122.2,317.0 143.3,317.0 164.4,317.0 185.6,317.0 206.7,317.0 227.8,317.0 248.9,317.0 270.0,317.0 291.1,317.0 312.2,317.0 333.3,317.0 354.4,317.0 375.6,317.0 396.7,317.0 417.8,317.0 438.9,317.0 460.0,317.0 481.1,317.0 502.2,317.0 523.3,317.0 544.4,317.0 565.6,317.0 586.7,317.0 607.8,317.0 628.9,317.0 650.0,317.0 671.1,317.0 692.2,317.0 713.3,317.0 734.4,317.0 755.6,317.0 776.7,317.0 797.8,317.0 818.9,317.0 840.0,317.0" fill="none" stroke="#19e5a1" stroke-width="2.5" stroke-linecap="round" stroke-linejoin="round" /><circle cx="80.0" cy="317.0" r="4" fill="#19e5a1" /><circle cx="101.1" cy="317.0" r="4" fill="#19e5a1" /><circle cx="122.2" cy="317.0" r="4" fill="#19e5a1" /><circle cx="143.3" cy="317.0" r="4" fill="#19e5a1" /><circle cx="164.4" cy="317.0" r="4" fill="#19e5a1" /><circle cx="185.6" cy="317.0" r="4" fill="#19e5a1" /><circle cx="206.7" cy="317.0" r="4" fill="#19e5a1" /><circle cx="227.8" cy="317.0" r="4" fill="#19e5a1" /><circle cx="248.9" cy="317.0" r="4" fill="#19e5a1" /><circle cx="270.0" cy="317.0" r="4" fill="#19e5a1" /><circle cx="291.1" cy="317.0" r="4" fill="#19e5a1" /><circle cx="312.2" cy="317.0" r="4" fill="#19e5a1" /><circle cx="333.3" cy="317.0" r="4" fill="#19e5a1" /><circle cx="354.4" cy="317.0" r="4" fill="#19e5a1" /><circle cx="375.6" cy="317.0" r="4" fill="#19e5a1" /><circle cx="396.7" cy="317.0" r="4" fill="#19e5a1" /><circle cx="417.8" cy="317.0" r="4" fill="#19e5a1" /><circle cx="438.9" cy="317.0" r="4" fill="#19e5a1" /><circle cx="460.0" cy="317.0" r="4" fill="#19e5a1" /><circle cx="481.1" cy="317.0" r="4" fill="#19e5a1" /><circle cx="502.2" cy="317.0" r="4" fill="#19e5a1" /><circle cx="523.3" cy="317.0" r="4" fill="#19e5a1" /><circle cx="544.4" cy="317.0" r="4" fill="#19e5a1" /><circle cx="565.6" cy="317.0" r="4" fill="#19e5a1" /><circle cx="586.7" cy="317.0" r="4" fill="#19e5a1" /><circle cx="607.8" cy="317.0" r="4" fill="#19e5a1" /><circle cx="628.9" cy="317.0" r="4" fill="#19e5a1" /><circle cx="650.0" cy="317.0" r="4" fill="#19e5a1" /><circle cx="671.1" cy="317.0" r="4" fill="#19e5a1" /><circle cx="692.2" cy="317.0" r="4" fill="#19e5a1" /><circle cx="713.3" cy="317.0" r="4" fill="#19e5a1" /><circle cx="734.4" cy="317.0" r="4" fill="#19e5a1" /><circle cx="755.6" cy="317.0" r="4" fill="#19e5a1" /><circle cx="776.7" cy="317.0" r="4" fill="#19e5a1" /><circle cx="797.8" cy="317.0" r="4" fill="#19e5a1" /><circle cx="818.9" cy="317.0" r="4" fill="#19e5a1" /><circle cx="840.0" cy="317.0" r="4" fill="#19e5a1" /><polyline points="80.0,313.2 101.1,312.2 122.2,312.1 143.3,312.4 164.4,312.4 185.6,312.4 206.7,312.1 227.8,312.0 248.9,311.9 270.0,311.9 291.1,311.8 312.2,311.8 333.3,311.5 354.4,311.5 375.6,311.5 396.7,311.2 417.8,311.2 438.9,311.1 460.0,311.1 481.1,311.1 502.2,310.9 523.3,311.0 544.4,310.8 565.6,310.8 586.7,310.8 607.8,310.8 628.9,310.4 650.0,310.2 671.1,310.4 692.2,310.4 713.3,310.4 734.4,310.4 755.6,310.4 776.7,310.2 797.8,310.2 818.9,310.1 840.0,310.1" fill="none" stroke="#6eb6ec" stroke-width="2.5" stroke-linecap="round" stroke-linejoin="round" /><circle cx="80.0" cy="313.2" r="4" fill="#6eb6ec" /><circle cx="101.1" cy="312.2" r="4" fill="#6eb6ec" /><circle cx="122.2" cy="312.1" r="4" fill="#6eb6ec" /><circle cx="143.3" cy="312.4" r="4" fill="#6eb6ec" /><circle cx="164.4" cy="312.4" r="4" fill="#6eb6ec" /><circle cx="185.6" cy="312.4" r="4" fill="#6eb6ec" /><circle cx="206.7" cy="312.1" r="4" fill="#6eb6ec" /><circle cx="227.8" cy="312.0" r="4" fill="#6eb6ec" /><circle cx="248.9" cy="311.9" r="4" fill="#6eb6ec" /><circle cx="270.0" cy="311.9" r="4" fill="#6eb6ec" /><circle cx="291.1" cy="311.8" r="4" fill="#6eb6ec" /><circle cx="312.2" cy="311.8" r="4" fill="#6eb6ec" /><circle cx="333.3" cy="311.5" r="4" fill="#6eb6ec" /><circle cx="354.4" cy="311.5" r="4" fill="#6eb6ec" /><circle cx="375.6" cy="311.5" r="4" fill="#6eb6ec" /><circle cx="396.7" cy="311.2" r="4" fill="#6eb6ec" /><circle cx="417.8" cy="311.2" r="4" fill="#6eb6ec" /><circle cx="438.9" cy="311.1" r="4" fill="#6eb6ec" /><circle cx="460.0" cy="311.1" r="4" fill="#6eb6ec" /><circle cx="481.1" cy="311.1" r="4" fill="#6eb6ec" /><circle cx="502.2" cy="310.9" r="4" fill="#6eb6ec" /><circle cx="523.3" cy="311.0" r="4" fill="#6eb6ec" /><circle cx="544.4" cy="310.8" r="4" fill="#6eb6ec" /><circle cx="565.6" cy="310.8" r="4" fill="#6eb6ec" /><circle cx="586.7" cy="310.8" r="4" fill="#6eb6ec" /><circle cx="607.8" cy="310.8" r="4" fill="#6eb6ec" /><circle cx="628.9" cy="310.4" r="4" fill="#6eb6ec" /><circle cx="650.0" cy="310.2" r="4" fill="#6eb6ec" /><circle cx="671.1" cy="310.4" r="4" fill="#6eb6ec" /><circle cx="692.2" cy="310.4" r="4" fill="#6eb6ec" /><circle cx="713.3" cy="310.4" r="4" fill="#6eb6ec" /><circle cx="734.4" cy="310.4" r="4" fill="#6eb6ec" /><circle cx="755.6" cy="310.4" r="4" fill="#6eb6ec" /><circle cx="776.7" cy="310.2" r="4" fill="#6eb6ec" /><circle cx="797.8" cy="310.2" r="4" fill="#6eb6ec" /><circle cx="818.9" cy="310.1" r="4" fill="#6eb6ec" /><circle cx="840.0" cy="310.1" r="4" fill="#6eb6ec" /><polyline points="80.0,305.8 101.1,305.8 122.2,305.8 143.3,305.8 164.4,305.8 185.6,305.8 206.7,305.8 227.8,305.8 248.9,305.8 270.0,305.8 291.1,304.9 312.2,304.9 333.3,304.9 354.4,304.9 375.6,304.9 396.7,304.9 417.8,304.9 438.9,304.9 460.0,304.9 481.1,304.9 502.2,304.9 523.3,304.9 544.4,304.9 565.6,304.9 586.7,304.9 607.8,304.9 628.9,304.9 650.0,304.9 671.1,304.9 692.2,304.9 713.3,304.9 734.4,304.9 755.6,304.9 776.7,304.9 797.8,304.9 818.9,304.9 840.0,304.9" fill="none" stroke="#5938e2" stroke-width="2.5" stroke-linecap="round" stroke-linejoin="round" /><circle cx="80.0" cy="305.8" r="4" fill="#5938e2" /><circle cx="101.1" cy="305.8" r="4" fill="#5938e2" /><circle cx="122.2" cy="305.8" r="4" fill="#5938e2" /><circle cx="143.3" cy="305.8" r="4" fill="#5938e2" /><circle cx="164.4" cy="305.8" r="4" fill="#5938e2" /><circle cx="185.6" cy="305.8" r="4" fill="#5938e2" /><circle cx="206.7" cy="305.8" r="4" fill="#5938e2" /><circle cx="227.8" cy="305.8" r="4" fill="#5938e2" /><circle cx="248.9" cy="305.8" r="4" fill="#5938e2" /><circle cx="270.0" cy="305.8" r="4" fill="#5938e2" /><circle cx="291.1" cy="304.9" r="4" fill="#5938e2" /><circle cx="312.2" cy="304.9" r="4" fill="#5938e2" /><circle cx="333.3" cy="304.9" r="4" fill="#5938e2" /><circle cx="354.4" cy="304.9" r="4" fill="#5938e2" /><circle cx="375.6" cy="304.9" r="4" fill="#5938e2" /><circle cx="396.7" cy="304.9" r="4" fill="#5938e2" /><circle cx="417.8" cy="304.9" r="4" fill="#5938e2" /><circle cx="438.9" cy="304.9" r="4" fill="#5938e2" /><circle cx="460.0" cy="304.9" r="4" fill="#5938e2" /><circle cx="481.1" cy="304.9" r="4" fill="#5938e2" /><circle cx="502.2" cy="304.9" r="4" fill="#5938e2" /><circle cx="523.3" cy="304.9" r="4" fill="#5938e2" /><circle cx="544.4" cy="304.9" r="4" fill="#5938e2" /><circle cx="565.6" cy="304.9" r="4" fill="#5938e2" /><circle cx="586.7" cy="304.9" r="4" fill="#5938e2" /><circle cx="607.8" cy="304.9" r="4" fill="#5938e2" /><circle cx="628.9" cy="304.9" r="4" fill="#5938e2" /><circle cx="650.0" cy="304.9" r="4" fill="#5938e2" /><circle cx="671.1" cy="304.9" r="4" fill="#5938e2" /><circle cx="692.2" cy="304.9" r="4" fill="#5938e2" /><circle cx="713.3" cy="304.9" r="4" fill="#5938e2" /><circle cx="734.4" cy="304.9" r="4" fill="#5938e2" /><circle cx="755.6" cy="304.9" r="4" fill="#5938e2" /><circle cx="776.7" cy="304.9" r="4" fill="#5938e2" /><circle cx="797.8" cy="304.9" r="4" fill="#5938e2" /><circle cx="818.9" cy="304.9" r="4" fill="#5938e2" /><circle cx="840.0" cy="304.9" r="4" fill="#5938e2" /><polyline points="80.0,144.6 101.1,140.1 122.2,139.9 143.3,139.8 164.4,139.8 185.6,139.6 206.7,139.6 227.8,139.6 248.9,139.6 270.0,139.6 291.1,138.4 312.2,138.4 333.3,138.4 354.4,138.4 375.6,138.4 396.7,138.4 417.8,138.4 438.9,137.4 460.0,137.4 481.1,137.4 502.2,137.4 523.3,137.4 544.4,137.4 565.6,137.4 586.7,137.4 607.8,137.4 628.9,137.4 650.0,137.4 671.1,131.2 692.2,131.2 713.3,130.8 734.4,130.4 755.6,126.9 776.7,126.9 797.8,126.9 818.9,126.9 840.0,126.9" fill="none" stroke="#60e5e0" stroke-width="2.5" stroke-linecap="round" stroke-linejoin="round" /><circle cx="80.0" cy="144.6" r="4" fill="#60e5e0" /><circle cx="101.1" cy="140.1" r="4" fill="#60e5e0" /><circle cx="122.2" cy="139.9" r="4" fill="#60e5e0" /><circle cx="143.3" cy="139.8" r="4" fill="#60e5e0" /><circle cx="164.4" cy="139.8" r="4" fill="#60e5e0" /><circle cx="185.6" cy="139.6" r="4" fill="#60e5e0" /><circle cx="206.7" cy="139.6" r="4" fill="#60e5e0" /><circle cx="227.8" cy="139.6" r="4" fill="#60e5e0" /><circle cx="248.9" cy="139.6" r="4" fill="#60e5e0" /><circle cx="270.0" cy="139.6" r="4" fill="#60e5e0" /><circle cx="291.1" cy="138.4" r="4" fill="#60e5e0" /><circle cx="312.2" cy="138.4" r="4" fill="#60e5e0" /><circle cx="333.3" cy="138.4" r="4" fill="#60e5e0" /><circle cx="354.4" cy="138.4" r="4" fill="#60e5e0" /><circle cx="375.6" cy="138.4" r="4" fill="#60e5e0" /><circle cx="396.7" cy="138.4" r="4" fill="#60e5e0" /><circle cx="417.8" cy="138.4" r="4" fill="#60e5e0" /><circle cx="438.9" cy="137.4" r="4" fill="#60e5e0" /><circle cx="460.0" cy="137.4" r="4" fill="#60e5e0" /><circle cx="481.1" cy="137.4" r="4" fill="#60e5e0" /><circle cx="502.2" cy="137.4" r="4" fill="#60e5e0" /><circle cx="523.3" cy="137.4" r="4" fill="#60e5e0" /><circle cx="544.4" cy="137.4" r="4" fill="#60e5e0" /><circle cx="565.6" cy="137.4" r="4" fill="#60e5e0" /><circle cx="586.7" cy="137.4" r="4" fill="#60e5e0" /><circle cx="607.8" cy="137.4" r="4" fill="#60e5e0" /><circle cx="628.9" cy="137.4" r="4" fill="#60e5e0" /><circle cx="650.0" cy="137.4" r="4" fill="#60e5e0" /><circle cx="671.1" cy="131.2" r="4" fill="#60e5e0" /><circle cx="692.2" cy="131.2" r="4" fill="#60e5e0" /><circle cx="713.3" cy="130.8" r="4" fill="#60e5e0" /><circle cx="734.4" cy="130.4" r="4" fill="#60e5e0" /><circle cx="755.6" cy="126.9" r="4" fill="#60e5e0" /><circle cx="776.7" cy="126.9" r="4" fill="#60e5e0" /><circle cx="797.8" cy="126.9" r="4" fill="#60e5e0" /><circle cx="818.9" cy="126.9" r="4" fill="#60e5e0" /><circle cx="840.0" cy="126.9" r="4" fill="#60e5e0" /><polyline points="80.0,314.6 101.1,314.4 122.2,314.2 143.3,314.2 164.4,314.2 185.6,314.1 206.7,314.1 227.8,314.1 248.9,314.1 270.0,314.1 291.1,314.0 312.2,314.0 333.3,314.0 354.4,314.0 375.6,314.0 396.7,314.0 417.8,314.0 438.9,314.0 460.0,314.0 481.1,314.0 502.2,314.0 523.3,314.0 544.4,314.0 565.6,314.0 586.7,314.0 607.8,314.0 628.9,314.0 650.0,314.0 671.1,314.0 692.2,314.0 713.3,314.0 734.4,314.0 755.6,314.0 776.7,314.0 797.8,314.0 818.9,314.0 840.0,314.0" fill="none" stroke="#567de1" stroke-width="2.5" stroke-linecap="round" stroke-linejoin="round" /><circle cx="80.0" cy="314.6" r="4" fill="#567de1" /><circle cx="101.1" cy="314.4" r="4" fill="#567de1" /><circle cx="122.2" cy="314.2" r="4" fill="#567de1" /><circle cx="143.3" cy="314.2" r="4" fill="#567de1" /><circle cx="164.4" cy="314.2" r="4" fill="#567de1" /><circle cx="185.6" cy="314.1" r="4" fill="#567de1" /><circle cx="206.7" cy="314.1" r="4" fill="#567de1" /><circle cx="227.8" cy="314.1" r="4" fill="#567de1" /><circle cx="248.9" cy="314.1" r="4" fill="#567de1" /><circle cx="270.0" cy="314.1" r="4" fill="#567de1" /><circle cx="291.1" cy="314.0" r="4" fill="#567de1" /><circle cx="312.2" cy="314.0" r="4" fill="#567de1" /><circle cx="333.3" cy="314.0" r="4" fill="#567de1" /><circle cx="354.4" cy="314.0" r="4" fill="#567de1" /><circle cx="375.6" cy="314.0" r="4" fill="#567de1" /><circle cx="396.7" cy="314.0" r="4" fill="#567de1" /><circle cx="417.8" cy="314.0" r="4" fill="#567de1" /><circle cx="438.9" cy="314.0" r="4" fill="#567de1" /><circle cx="460.0" cy="314.0" r="4" fill="#567de1" /><circle cx="481.1" cy="314.0" r="4" fill="#567de1" /><circle cx="502.2" cy="314.0" r="4" fill="#567de1" /><circle cx="523.3" cy="314.0" r="4" fill="#567de1" /><circle cx="544.4" cy="314.0" r="4" fill="#567de1" /><circle cx="565.6" cy="314.0" r="4" fill="#567de1" /><circle cx="586.7" cy="314.0" r="4" fill="#567de1" /><circle cx="607.8" cy="314.0" r="4" fill="#567de1" /><circle cx="628.9" cy="314.0" r="4" fill="#567de1" /><circle cx="650.0" cy="314.0" r="4" fill="#567de1" /><circle cx="671.1" cy="314.0" r="4" fill="#567de1" /><circle cx="692.2" cy="314.0" r="4" fill="#567de1" /><circle cx="713.3" cy="314.0" r="4" fill="#567de1" /><circle cx="734.4" cy="314.0" r="4" fill="#567de1" /><circle cx="755.6" cy="314.0" r="4" fill="#567de1" /><circle cx="776.7" cy="314.0" r="4" fill="#567de1" /><circle cx="797.8" cy="314.0" r="4" fill="#567de1" /><circle cx="818.9" cy="314.0" r="4" fill="#567de1" /><circle cx="840.0" cy="314.0" r="4" fill="#567de1" /><polyline points="80.0,303.9 101.1,304.2 122.2,304.4 143.3,304.4 164.4,304.4 185.6,304.4 206.7,304.4 227.8,304.4 248.9,304.4 270.0,304.4 291.1,304.4 312.2,304.4 333.3,304.4 354.4,304.4 375.6,304.4 396.7,304.4 417.8,304.4 438.9,304.4 460.0,304.4 481.1,304.4 502.2,304.4 523.3,304.4 544.4,304.4 565.6,304.4 586.7,304.4 607.8,304.4 628.9,304.4 650.0,304.4 671.1,299.1 692.2,299.1 713.3,299.1 734.4,298.9 755.6,295.6 776.7,295.6 797.8,295.6 818.9,295.6 840.0,295.6" fill="none" stroke="#9754dd" stroke-width="2.5" stroke-linecap="round" stroke-linejoin="round" /><circle cx="80.0" cy="303.9" r="4" fill="#9754dd" /><circle cx="101.1" cy="304.2" r="4" fill="#9754dd" /><circle cx="122.2" cy="304.4" r="4" fill="#9754dd" /><circle cx="143.3" cy="304.4" r="4" fill="#9754dd" /><circle cx="164.4" cy="304.4" r="4" fill="#9754dd" /><circle cx="185.6" cy="304.4" r="4" fill="#9754dd" /><circle cx="206.7" cy="304.4" r="4" fill="#9754dd" /><circle cx="227.8" cy="304.4" r="4" fill="#9754dd" /><circle cx="248.9" cy="304.4" r="4" fill="#9754dd" /><circle cx="270.0" cy="304.4" r="4" fill="#9754dd" /><circle cx="291.1" cy="304.4" r="4" fill="#9754dd" /><circle cx="312.2" cy="304.4" r="4" fill="#9754dd" /><circle cx="333.3" cy="304.4" r="4" fill="#9754dd" /><circle cx="354.4" cy="304.4" r="4" fill="#9754dd" /><circle cx="375.6" cy="304.4" r="4" fill="#9754dd" /><circle cx="396.7" cy="304.4" r="4" fill="#9754dd" /><circle cx="417.8" cy="304.4" r="4" fill="#9754dd" /><circle cx="438.9" cy="304.4" r="4" fill="#9754dd" /><circle cx="460.0" cy="304.4" r="4" fill="#9754dd" /><circle cx="481.1" cy="304.4" r="4" fill="#9754dd" /><circle cx="502.2" cy="304.4" r="4" fill="#9754dd" /><circle cx="523.3" cy="304.4" r="4" fill="#9754dd" /><circle cx="544.4" cy="304.4" r="4" fill="#9754dd" /><circle cx="565.6" cy="304.4" r="4" fill="#9754dd" /><circle cx="586.7" cy="304.4" r="4" fill="#9754dd" /><circle cx="607.8" cy="304.4" r="4" fill="#9754dd" /><circle cx="628.9" cy="304.4" r="4" fill="#9754dd" /><circle cx="650.0" cy="304.4" r="4" fill="#9754dd" /><circle cx="671.1" cy="299.1" r="4" fill="#9754dd" /><circle cx="692.2" cy="299.1" r="4" fill="#9754dd" /><circle cx="713.3" cy="299.1" r="4" fill="#9754dd" /><circle cx="734.4" cy="298.9" r="4" fill="#9754dd" /><circle cx="755.6" cy="295.6" r="4" fill="#9754dd" /><circle cx="776.7" cy="295.6" r="4" fill="#9754dd" /><circle cx="797.8" cy="295.6" r="4" fill="#9754dd" /><circle cx="818.9" cy="295.6" r="4" fill="#9754dd" /><circle cx="840.0" cy="295.6" r="4" fill="#9754dd" />
  <rect x="80" y="339" width="10" height="10" rx="2" ry="2" fill="#19e5a1" /><text x="96" y="348" class="legend-label">Stars</text><rect x="250" y="339" width="10" height="10" rx="2" ry="2" fill="#6eb6ec" /><text x="266" y="348" class="legend-label">Followers</text><rect x="420" y="339" width="10" height="10" rx="2" ry="2" fill="#5938e2" /><text x="436" y="348" class="legend-label">Following</text><rect x="590" y="339" width="10" height="10" rx="2" ry="2" fill="#60e5e0" /><text x="606" y="348" class="legend-label">Contributions</text><rect x="80" y="357" width="10" height="10" rx="2" ry="2" fill="#567de1" /><text x="96" y="366" class="legend-label">Pull Requests</text><rect x="250" y="357" width="10" height="10" rx="2" ry="2" fill="#9754dd" /><text x="266" y="366" class="legend-label">Issues</text>
</svg>
