<svg width="900" height="402" viewBox="0 0 900 402" xmlns="http://www.w3.org/2000/svg">
  <defs>
    <linearGradient id="history-gradient" x1="0%" y1="0%" x2="100%" y2="100%">
      <stop offset="0%" style="stop-color:#58a6ff;stop-opacity:1" />
      <stop offset="100%" style="stop-color:#a371f7;stop-opacity:1" />
    </linearGradient>
    <clipPath id="history-rounded">
      <rect x="0" y="0" width="900" height="402" rx="8" ry="8" />
    </clipPath>
  </defs>
  <style>
    .title {
      font-family: 'Segoe UI', Ubuntu, 'Helvetica Neue', sans-serif;
      font-size: 22px;
      font-weight: 700;
      fill: #58a6ff;
    }
    .subtitle {
      font-family: 'Segoe UI', Ubuntu, 'Helvetica Neue', sans-serif;
      font-size: 12px;
      font-weight: 500;
      fill: #8b949e;
    }
    .axis-label {
      font-family: 'Segoe UI', Ubuntu, 'Helvetica Neue', sans-serif;
      font-size: 10px;
      fill: #8b949e;
    }
    .grid-line {
      stroke: #30363d;
      stroke-width: 1;
      opacity: 0.3;
    }
    .legend-label {
      font-family: 'Segoe UI', Ubuntu, 'Helvetica Neue', sans-serif;
      font-size: 11px;
      fill: #c9d1d9;
      dominant-baseline: middle;
    }
  </style>
  <rect clip-path="url(#history-rounded)" width="100%" height="100%" fill="#0d1117" stroke="#30363d" stroke-width="1" />
  <rect x="0" y="396" width="900" height="6" fill="url(#history-gradient)" clip-path="url(#history-rounded)" />
  <text x="24" y="34" class="title">Leonardo Klein Stats History</text>
  <text x="24" y="54" class="subtitle">Period: 2026-02-20 to 2026-03-05</text>
  <text x="72" y="320.0" text-anchor="end" dominant-baseline="central" class="axis-label">0</text><text x="72" y="270.0" text-anchor="end" dominant-baseline="central" class="axis-label">400</text><text x="72" y="220.0" text-anchor="end" dominant-baseline="central" class="axis-label">800</text><text x="72" y="170.0" text-anchor="end" dominant-baseline="central" class="axis-label">1.2k</text><text x="72" y="120.0" text-anchor="end" dominant-baseline="central" class="axis-label">1.6k</text><text x="72" y="70.0" text-anchor="end" dominant-baseline="central" class="axis-label">2.0k</text>
  <text x="80.0" y="336" text-anchor="middle" class="axis-label">02-20</text><text x="148.1" y="336" text-anchor="middle" class="axis-label">02-21</text><text x="216.1" y="336" text-anchor="middle" class="axis-label">02-22</text><text x="284.2" y="336" text-anchor="middle" class="axis-label">02-24</text><text x="352.2" y="336" text-anchor="middle" class="axis-label">02-25</text><text x="420.3" y="336" text-anchor="middle" class="axis-label">02-26</text><text x="488.4" y="336" text-anchor="middle" class="axis-label">02-27</text><text x="556.4" y="336" text-anchor="middle" class="axis-label">02-28</text><text x="624.5" y="336" text-anchor="middle" class="axis-label">03-02</text><text x="692.5" y="336" text-anchor="middle" class="axis-label">03-03</text><text x="760.6" y="336" text-anchor="middle" class="axis-label">03-04</text><text x="828.7" y="336" text-anchor="middle" class="axis-label">03-05</text><text x="840.0" y="336" text-anchor="middle" class="axis-label">03-05</text>
  <line x1="80" y1="320.0" x2="840" y2="320.0" class="grid-line" /><line x1="80" y1="270.0" x2="840" y2="270.0" class="grid-line" /><line x1="80" y1="220.0" x2="840" y2="220.0" class="grid-line" /><line x1="80" y1="170.0" x2="840" y2="170.0" class="grid-line" /><line x1="80" y1="120.0" x2="840" y2="120.0" class="grid-line" /><line x1="80" y1="70.0" x2="840" y2="70.0" class="grid-line" />
  <polyline points="80.0,317.0 91.3,317.0 102.7,317.0 114.0,317.0 125.4,317.0 136.7,317.0 148.1,317.0 159.4,317.0 170.7,317.0 182.1,317.0 193.4,317.0 204.8,317.0 216.1,317.0 227.5,317.0 238.8,317.0 250.1,317.0 261.5,317.0 272.8,317.0 284.2,317.0 295.5,317.0 306.9,317.0 318.2,317.0 329.6,317.0 340.9,317.0 352.2,317.0 363.6,317.0 374.9,317.0 386.3,317.0 397.6,317.0 409.0,317.0 420.3,317.0 431.6,317.0 443.0,317.0 454.3,317.0 465.7,317.0 477.0,317.0 488.4,317.0 499.7,317.0 511.0,317.0 522.4,317.0 533.7,317.0 545.1,317.0 556.4,317.0 567.8,317.0 579.1,317.0 590.4,317.0 601.8,317.0 613.1,317.0 624.5,317.0 635.8,317.0 647.2,317.0 658.5,317.0 669.9,317.0 681.2,317.0 692.5,317.0 703.9,317.0 715.2,317.0 726.6,317.0 737.9,317.0 749.3,317.0 760.6,317.0 771.9,317.0 783.3,317.0 794.6,317.0 806.0,317.0 817.3,317.0 828.7,317.0 840.0,317.0" fill="none" stroke="#19e5a1" stroke-width="2.5" stroke-linecap="round" stroke-linejoin="round" /><circle cx="80.0" cy="317.0" r="4" fill="#19e5a1" /><circle cx="91.3" cy="317.0" r="4" fill="#19e5a1" /><circle cx="102.7" cy="317.0" r="4" fill="#19e5a1" /><circle cx="114.0" cy="317.0" r="4" fill="#19e5a1" /><circle cx="125.4" cy="317.0" r="4" fill="#19e5a1" /><circle cx="136.7" cy="317.0" r="4" fill="#19e5a1" /><circle cx="148.1" cy="317.0" r="4" fill="#19e5a1" /><circle cx="159.4" cy="317.0" r="4" fill="#19e5a1" /><circle cx="170.7" cy="317.0" r="4" fill="#19e5a1" /><circle cx="182.1" cy="317.0" r="4" fill="#19e5a1" /><circle cx="193.4" cy="317.0" r="4" fill="#19e5a1" /><circle cx="204.8" cy="317.0" r="4" fill="#19e5a1" /><circle cx="216.1" cy="317.0" r="4" fill="#19e5a1" /><circle cx="227.5" cy="317.0" r="4" fill="#19e5a1" /><circle cx="238.8" cy="317.0" r="4" fill="#19e5a1" /><circle cx="250.1" cy="317.0" r="4" fill="#19e5a1" /><circle cx="261.5" cy="317.0" r="4" fill="#19e5a1" /><circle cx="272.8" cy="317.0" r="4" fill="#19e5a1" /><circle cx="284.2" cy="317.0" r="4" fill="#19e5a1" /><circle cx="295.5" cy="317.0" r="4" fill="#19e5a1" /><circle cx="306.9" cy="317.0" r="4" fill="#19e5a1" /><circle cx="318.2" cy="317.0" r="4" fill="#19e5a1" /><circle cx="329.6" cy="317.0" r="4" fill="#19e5a1" /><circle cx="340.9" cy="317.0" r="4" fill="#19e5a1" /><circle cx="352.2" cy="317.0" r="4" fill="#19e5a1" /><circle cx="363.6" cy="317.0" r="4" fill="#19e5a1" /><circle cx="374.9" cy="317.0" r="4" fill="#19e5a1" /><circle cx="386.3" cy="317.0" r="4" fill="#19e5a1" /><circle cx="397.6" cy="317.0" r="4" fill="#19e5a1" /><circle cx="409.0" cy="317.0" r="4" fill="#19e5a1" /><circle cx="420.3" cy="317.0" r="4" fill="#19e5a1" /><circle cx="431.6" cy="317.0" r="4" fill="#19e5a1" /><circle cx="443.0" cy="317.0" r="4" fill="#19e5a1" /><circle cx="454.3" cy="317.0" r="4" fill="#19e5a1" /><circle cx="465.7" cy="317.0" r="4" fill="#19e5a1" /><circle cx="477.0" cy="317.0" r="4" fill="#19e5a1" /><circle cx="488.4" cy="317.0" r="4" fill="#19e5a1" /><circle cx="499.7" cy="317.0" r="4" fill="#19e5a1" /><circle cx="511.0" cy="317.0" r="4" fill="#19e5a1" /><circle cx="522.4" cy="317.0" r="4" fill="#19e5a1" /><circle cx="533.7" cy="317.0" r="4" fill="#19e5a1" /><circle cx="545.1" cy="317.0" r="4" fill="#19e5a1" /><circle cx="556.4" cy="317.0" r="4" fill="#19e5a1" /><circle cx="567.8" cy="317.0" r="4" fill="#19e5a1" /><circle cx="579.1" cy="317.0" r="4" fill="#19e5a1" /><circle cx="590.4" cy="317.0" r="4" fill="#19e5a1" /><circle cx="601.8" cy="317.0" r="4" fill="#19e5a1" /><circle cx="613.1" cy="317.0" r="4" fill="#19e5a1" /><circle cx="624.5" cy="317.0" r="4" fill="#19e5a1" /><circle cx="635.8" cy="317.0" r="4" fill="#19e5a1" /><circle cx="647.2" cy="317.0" r="4" fill="#19e5a1" /><circle cx="658.5" cy="317.0" r="4" fill="#19e5a1" /><circle cx="669.9" cy="317.0" r="4" fill="#19e5a1" /><circle cx="681.2" cy="317.0" r="4" fill="#19e5a1" /><circle cx="692.5" cy="317.0" r="4" fill="#19e5a1" /><circle cx="703.9" cy="317.0" r="4" fill="#19e5a1" /><circle cx="715.2" cy="317.0" r="4" fill="#19e5a1" /><circle cx="726.6" cy="317.0" r="4" fill="#19e5a1" /><circle cx="737.9" cy="317.0" r="4" fill="#19e5a1" /><circle cx="749.3" cy="317.0" r="4" fill="#19e5a1" /><circle cx="760.6" cy="317.0" r="4" fill="#19e5a1" /><circle cx="771.9" cy="317.0" r="4" fill="#19e5a1" /><circle cx="783.3" cy="317.0" r="4" fill="#19e5a1" /><circle cx="794.6" cy="317.0" r="4" fill="#19e5a1" /><circle cx="806.0" cy="317.0" r="4" fill="#19e5a1" /><circle cx="817.3" cy="317.0" r="4" fill="#19e5a1" /><circle cx="828.7" cy="317.0" r="4" fill="#19e5a1" /><circle cx="840.0" cy="317.0" r="4" fill="#19e5a1" /><polyline points="80.0,313.2 91.3,312.2 102.7,312.1 114.0,312.4 125.4,312.4 136.7,312.4 148.1,312.1 159.4,312.0 170.7,311.9 182.1,311.9 193.4,311.8 204.8,311.8 216.1,311.5 227.5,311.5 238.8,311.5 250.1,311.2 261.5,311.2 272.8,311.1 284.2,311.1 295.5,311.1 306.9,310.9 318.2,311.0 329.6,310.8 340.9,310.8 352.2,310.8 363.6,310.8 374.9,310.4 386.3,310.2 397.6,310.4 409.0,310.4 420.3,310.4 431.6,310.4 443.0,310.4 454.3,310.2 465.7,310.2 477.0,310.1 488.4,310.1 499.7,309.8 511.0,309.6 522.4,309.6 533.7,309.6 545.1,309.6 556.4,309.5 567.8,309.4 579.1,309.4 590.4,309.4 601.8,309.4 613.1,309.2 624.5,309.2 635.8,309.2 647.2,309.4 658.5,309.4 669.9,309.5 681.2,309.2 692.5,309.2 703.9,309.4 715.2,309.2 726.6,309.2 737.9,309.2 749.3,309.2 760.6,309.2 771.9,309.1 783.3,309.1 794.6,309.1 806.0,309.1 817.3,309.0 828.7,309.0 840.0,308.9" fill="none" stroke="#6eb6ec" stroke-width="2.5" stroke-linecap="round" stroke-linejoin="round" /><circle cx="80.0" cy="313.2" r="4" fill="#6eb6ec" /><circle cx="91.3" cy="312.2" r="4" fill="#6eb6ec" /><circle cx="102.7" cy="312.1" r="4" fill="#6eb6ec" /><circle cx="114.0" cy="312.4" r="4" fill="#6eb6ec" /><circle cx="125.4" cy="312.4" r="4" fill="#6eb6ec" /><circle cx="136.7" cy="312.4" r="4" fill="#6eb6ec" /><circle cx="148.1" cy="312.1" r="4" fill="#6eb6ec" /><circle cx="159.4" cy="312.0" r="4" fill="#6eb6ec" /><circle cx="170.7" cy="311.9" r="4" fill="#6eb6ec" /><circle cx="182.1" cy="311.9" r="4" fill="#6eb6ec" /><circle cx="193.4" cy="311.8" r="4" fill="#6eb6ec" /><circle cx="204.8" cy="311.8" r="4" fill="#6eb6ec" /><circle cx="216.1" cy="311.5" r="4" fill="#6eb6ec" /><circle cx="227.5" cy="311.5" r="4" fill="#6eb6ec" /><circle cx="238.8" cy="311.5" r="4" fill="#6eb6ec" /><circle cx="250.1" cy="311.2" r="4" fill="#6eb6ec" /><circle cx="261.5" cy="311.2" r="4" fill="#6eb6ec" /><circle cx="272.8" cy="311.1" r="4" fill="#6eb6ec" /><circle cx="284.2" cy="311.1" r="4" fill="#6eb6ec" /><circle cx="295.5" cy="311.1" r="4" fill="#6eb6ec" /><circle cx="306.9" cy="310.9" r="4" fill="#6eb6ec" /><circle cx="318.2" cy="311.0" r="4" fill="#6eb6ec" /><circle cx="329.6" cy="310.8" r="4" fill="#6eb6ec" /><circle cx="340.9" cy="310.8" r="4" fill="#6eb6ec" /><circle cx="352.2" cy="310.8" r="4" fill="#6eb6ec" /><circle cx="363.6" cy="310.8" r="4" fill="#6eb6ec" /><circle cx="374.9" cy="310.4" r="4" fill="#6eb6ec" /><circle cx="386.3" cy="310.2" r="4" fill="#6eb6ec" /><circle cx="397.6" cy="310.4" r="4" fill="#6eb6ec" /><circle cx="409.0" cy="310.4" r="4" fill="#6eb6ec" /><circle cx="420.3" cy="310.4" r="4" fill="#6eb6ec" /><circle cx="431.6" cy="310.4" r="4" fill="#6eb6ec" /><circle cx="443.0" cy="310.4" r="4" fill="#6eb6ec" /><circle cx="454.3" cy="310.2" r="4" fill="#6eb6ec" /><circle cx="465.7" cy="310.2" r="4" fill="#6eb6ec" /><circle cx="477.0" cy="310.1" r="4" fill="#6eb6ec" /><circle cx="488.4" cy="310.1" r="4" fill="#6eb6ec" /><circle cx="499.7" cy="309.8" r="4" fill="#6eb6ec" /><circle cx="511.0" cy="309.6" r="4" fill="#6eb6ec" /><circle cx="522.4" cy="309.6" r="4" fill="#6eb6ec" /><circle cx="533.7" cy="309.6" r="4" fill="#6eb6ec" /><circle cx="545.1" cy="309.6" r="4" fill="#6eb6ec" /><circle cx="556.4" cy="309.5" r="4" fill="#6eb6ec" /><circle cx="567.8" cy="309.4" r="4" fill="#6eb6ec" /><circle cx="579.1" cy="309.4" r="4" fill="#6eb6ec" /><circle cx="590.4" cy="309.4" r="4" fill="#6eb6ec" /><circle cx="601.8" cy="309.4" r="4" fill="#6eb6ec" /><circle cx="613.1" cy="309.2" r="4" fill="#6eb6ec" /><circle cx="624.5" cy="309.2" r="4" fill="#6eb6ec" /><circle cx="635.8" cy="309.2" r="4" fill="#6eb6ec" /><circle cx="647.2" cy="309.4" r="4" fill="#6eb6ec" /><circle cx="658.5" cy="309.4" r="4" fill="#6eb6ec" /><circle cx="669.9" cy="309.5" r="4" fill="#6eb6ec" /><circle cx="681.2" cy="309.2" r="4" fill="#6eb6ec" /><circle cx="692.5" cy="309.2" r="4" fill="#6eb6ec" /><circle cx="703.9" cy="309.4" r="4" fill="#6eb6ec" /><circle cx="715.2" cy="309.2" r="4" fill="#6eb6ec" /><circle cx="726.6" cy="309.2" r="4" fill="#6eb6ec" /><circle cx="737.9" cy="309.2" r="4" fill="#6eb6ec" /><circle cx="749.3" cy="309.2" r="4" fill="#6eb6ec" /><circle cx="760.6" cy="309.2" r="4" fill="#6eb6ec" /><circle cx="771.9" cy="309.1" r="4" fill="#6eb6ec" /><circle cx="783.3" cy="309.1" r="4" fill="#6eb6ec" /><circle cx="794.6" cy="309.1" r="4" fill="#6eb6ec" /><circle cx="806.0" cy="309.1" r="4" fill="#6eb6ec" /><circle cx="817.3" cy="309.0" r="4" fill="#6eb6ec" /><circle cx="828.7" cy="309.0" r="4" fill="#6eb6ec" /><circle cx="840.0" cy="308.9" r="4" fill="#6eb6ec" /><polyline points="80.0,305.8 91.3,305.8 102.7,305.8 114.0,305.8 125.4,305.8 136.7,305.8 148.1,305.8 159.4,305.8 170.7,305.8 182.1,305.8 193.4,304.9 204.8,304.9 216.1,304.9 227.5,304.9 238.8,304.9 250.1,304.9 261.5,304.9 272.8,304.9 284.2,304.9 295.5,304.9 306.9,304.9 318.2,304.9 329.6,304.9 340.9,304.9 352.2,304.9 363.6,304.9 374.9,304.9 386.3,304.9 397.6,304.9 409.0,304.9 420.3,304.9 431.6,304.9 443.0,304.9 454.3,304.9 465.7,304.9 477.0,304.9 488.4,304.9 499.7,303.6 511.0,303.6 522.4,303.6 533.7,303.6 545.1,303.6 556.4,303.6 567.8,303.6 579.1,303.6 590.4,303.6 601.8,303.6 613.1,303.6 624.5,303.6 635.8,303.6 647.2,303.6 658.5,302.9 669.9,302.9 681.2,298.0 692.5,298.0 703.9,298.0 715.2,298.0 726.6,298.0 737.9,298.0 749.3,298.0 760.6,298.0 771.9,298.0 783.3,298.0 794.6,298.0 806.0,298.0 817.3,298.0 828.7,298.0 840.0,297.8" fill="none" stroke="#5938e2" stroke-width="2.5" stroke-linecap="round" stroke-linejoin="round" /><circle cx="80.0" cy="305.8" r="4" fill="#5938e2" /><circle cx="91.3" cy="305.8" r="4" fill="#5938e2" /><circle cx="102.7" cy="305.8" r="4" fill="#5938e2" /><circle cx="114.0" cy="305.8" r="4" fill="#5938e2" /><circle cx="125.4" cy="305.8" r="4" fill="#5938e2" /><circle cx="136.7" cy="305.8" r="4" fill="#5938e2" /><circle cx="148.1" cy="305.8" r="4" fill="#5938e2" /><circle cx="159.4" cy="305.8" r="4" fill="#5938e2" /><circle cx="170.7" cy="305.8" r="4" fill="#5938e2" /><circle cx="182.1" cy="305.8" r="4" fill="#5938e2" /><circle cx="193.4" cy="304.9" r="4" fill="#5938e2" /><circle cx="204.8" cy="304.9" r="4" fill="#5938e2" /><circle cx="216.1" cy="304.9" r="4" fill="#5938e2" /><circle cx="227.5" cy="304.9" r="4" fill="#5938e2" /><circle cx="238.8" cy="304.9" r="4" fill="#5938e2" /><circle cx="250.1" cy="304.9" r="4" fill="#5938e2" /><circle cx="261.5" cy="304.9" r="4" fill="#5938e2" /><circle cx="272.8" cy="304.9" r="4" fill="#5938e2" /><circle cx="284.2" cy="304.9" r="4" fill="#5938e2" /><circle cx="295.5" cy="304.9" r="4" fill="#5938e2" /><circle cx="306.9" cy="304.9" r="4" fill="#5938e2" /><circle cx="318.2" cy="304.9" r="4" fill="#5938e2" /><circle cx="329.6" cy="304.9" r="4" fill="#5938e2" /><circle cx="340.9" cy="304.9" r="4" fill="#5938e2" /><circle cx="352.2" cy="304.9" r="4" fill="#5938e2" /><circle cx="363.6" cy="304.9" r="4" fill="#5938e2" /><circle cx="374.9" cy="304.9" r="4" fill="#5938e2" /><circle cx="386.3" cy="304.9" r="4" fill="#5938e2" /><circle cx="397.6" cy="304.9" r="4" fill="#5938e2" /><circle cx="409.0" cy="304.9" r="4" fill="#5938e2" /><circle cx="420.3" cy="304.9" r="4" fill="#5938e2" /><circle cx="431.6" cy="304.9" r="4" fill="#5938e2" /><circle cx="443.0" cy="304.9" r="4" fill="#5938e2" /><circle cx="454.3" cy="304.9" r="4" fill="#5938e2" /><circle cx="465.7" cy="304.9" r="4" fill="#5938e2" /><circle cx="477.0" cy="304.9" r="4" fill="#5938e2" /><circle cx="488.4" cy="304.9" r="4" fill="#5938e2" /><circle cx="499.7" cy="303.6" r="4" fill="#5938e2" /><circle cx="511.0" cy="303.6" r="4" fill="#5938e2" /><circle cx="522.4" cy="303.6" r="4" fill="#5938e2" /><circle cx="533.7" cy="303.6" r="4" fill="#5938e2" /><circle cx="545.1" cy="303.6" r="4" fill="#5938e2" /><circle cx="556.4" cy="303.6" r="4" fill="#5938e2" /><circle cx="567.8" cy="303.6" r="4" fill="#5938e2" /><circle cx="579.1" cy="303.6" r="4" fill="#5938e2" /><circle cx="590.4" cy="303.6" r="4" fill="#5938e2" /><circle cx="601.8" cy="303.6" r="4" fill="#5938e2" /><circle cx="613.1" cy="303.6" r="4" fill="#5938e2" /><circle cx="624.5" cy="303.6" r="4" fill="#5938e2" /><circle cx="635.8" cy="303.6" r="4" fill="#5938e2" /><circle cx="647.2" cy="303.6" r="4" fill="#5938e2" /><circle cx="658.5" cy="302.9" r="4" fill="#5938e2" /><circle cx="669.9" cy="302.9" r="4" fill="#5938e2" /><circle cx="681.2" cy="298.0" r="4" fill="#5938e2" /><circle cx="692.5" cy="298.0" r="4" fill="#5938e2" /><circle cx="703.9" cy="298.0" r="4" fill="#5938e2" /><circle cx="715.2" cy="298.0" r="4" fill="#5938e2" /><circle cx="726.6" cy="298.0" r="4" fill="#5938e2" /><circle cx="737.9" cy="298.0" r="4" fill="#5938e2" /><circle cx="749.3" cy="298.0" r="4" fill="#5938e2" /><circle cx="760.6" cy="298.0" r="4" fill="#5938e2" /><circle cx="771.9" cy="298.0" r="4" fill="#5938e2" /><circle cx="783.3" cy="298.0" r="4" fill="#5938e2" /><circle cx="794.6" cy="298.0" r="4" fill="#5938e2" /><circle cx="806.0" cy="298.0" r="4" fill="#5938e2" /><circle cx="817.3" cy="298.0" r="4" fill="#5938e2" /><circle cx="828.7" cy="298.0" r="4" fill="#5938e2" /><circle cx="840.0" cy="297.8" r="4" fill="#5938e2" /><polyline points="80.0,144.6 91.3,140.1 102.7,139.9 114.0,139.8 125.4,139.8 136.7,139.6 148.1,139.6 159.4,139.6 170.7,139.6 182.1,139.6 193.4,138.4 204.8,138.4 216.1,138.4 227.5,138.4 238.8,138.4 250.1,138.4 261.5,138.4 272.8,137.4 284.2,137.4 295.5,137.4 306.9,137.4 318.2,137.4 329.6,137.4 340.9,137.4 352.2,137.4 363.6,137.4 374.9,137.4 386.3,137.4 397.6,131.2 409.0,131.2 420.3,130.8 431.6,130.4 443.0,126.9 454.3,126.9 465.7,126.9 477.0,126.9 488.4,126.9 499.7,126.9 511.0,126.9 522.4,126.9 533.7,126.9 545.1,126.8 556.4,122.1 567.8,120.4 579.1,120.4 590.4,120.4 601.8,120.4 613.1,120.4 624.5,119.4 635.8,119.4 647.2,119.4 658.5,119.4 669.9,119.1 681.2,118.8 692.5,118.8 703.9,117.8 715.2,117.8 726.6,117.8 737.9,115.8 749.3,115.8 760.6,115.0 771.9,115.0 783.3,115.0 794.6,115.0 806.0,115.0 817.3,115.0 828.7,115.0 840.0,113.9" fill="none" stroke="#60e5e0" stroke-width="2.5" stroke-linecap="round" stroke-linejoin="round" /><circle cx="80.0" cy="144.6" r="4" fill="#60e5e0" /><circle cx="91.3" cy="140.1" r="4" fill="#60e5e0" /><circle cx="102.7" cy="139.9" r="4" fill="#60e5e0" /><circle cx="114.0" cy="139.8" r="4" fill="#60e5e0" /><circle cx="125.4" cy="139.8" r="4" fill="#60e5e0" /><circle cx="136.7" cy="139.6" r="4" fill="#60e5e0" /><circle cx="148.1" cy="139.6" r="4" fill="#60e5e0" /><circle cx="159.4" cy="139.6" r="4" fill="#60e5e0" /><circle cx="170.7" cy="139.6" r="4" fill="#60e5e0" /><circle cx="182.1" cy="139.6" r="4" fill="#60e5e0" /><circle cx="193.4" cy="138.4" r="4" fill="#60e5e0" /><circle cx="204.8" cy="138.4" r="4" fill="#60e5e0" /><circle cx="216.1" cy="138.4" r="4" fill="#60e5e0" /><circle cx="227.5" cy="138.4" r="4" fill="#60e5e0" /><circle cx="238.8" cy="138.4" r="4" fill="#60e5e0" /><circle cx="250.1" cy="138.4" r="4" fill="#60e5e0" /><circle cx="261.5" cy="138.4" r="4" fill="#60e5e0" /><circle cx="272.8" cy="137.4" r="4" fill="#60e5e0" /><circle cx="284.2" cy="137.4" r="4" fill="#60e5e0" /><circle cx="295.5" cy="137.4" r="4" fill="#60e5e0" /><circle cx="306.9" cy="137.4" r="4" fill="#60e5e0" /><circle cx="318.2" cy="137.4" r="4" fill="#60e5e0" /><circle cx="329.6" cy="137.4" r="4" fill="#60e5e0" /><circle cx="340.9" cy="137.4" r="4" fill="#60e5e0" /><circle cx="352.2" cy="137.4" r="4" fill="#60e5e0" /><circle cx="363.6" cy="137.4" r="4" fill="#60e5e0" /><circle cx="374.9" cy="137.4" r="4" fill="#60e5e0" /><circle cx="386.3" cy="137.4" r="4" fill="#60e5e0" /><circle cx="397.6" cy="131.2" r="4" fill="#60e5e0" /><circle cx="409.0" cy="131.2" r="4" fill="#60e5e0" /><circle cx="420.3" cy="130.8" r="4" fill="#60e5e0" /><circle cx="431.6" cy="130.4" r="4" fill="#60e5e0" /><circle cx="443.0" cy="126.9" r="4" fill="#60e5e0" /><circle cx="454.3" cy="126.9" r="4" fill="#60e5e0" /><circle cx="465.7" cy="126.9" r="4" fill="#60e5e0" /><circle cx="477.0" cy="126.9" r="4" fill="#60e5e0" /><circle cx="488.4" cy="126.9" r="4" fill="#60e5e0" /><circle cx="499.7" cy="126.9" r="4" fill="#60e5e0" /><circle cx="511.0" cy="126.9" r="4" fill="#60e5e0" /><circle cx="522.4" cy="126.9" r="4" fill="#60e5e0" /><circle cx="533.7" cy="126.9" r="4" fill="#60e5e0" /><circle cx="545.1" cy="126.8" r="4" fill="#60e5e0" /><circle cx="556.4" cy="122.1" r="4" fill="#60e5e0" /><circle cx="567.8" cy="120.4" r="4" fill="#60e5e0" /><circle cx="579.1" cy="120.4" r="4" fill="#60e5e0" /><circle cx="590.4" cy="120.4" r="4" fill="#60e5e0" /><circle cx="601.8" cy="120.4" r="4" fill="#60e5e0" /><circle cx="613.1" cy="120.4" r="4" fill="#60e5e0" /><circle cx="624.5" cy="119.4" r="4" fill="#60e5e0" /><circle cx="635.8" cy="119.4" r="4" fill="#60e5e0" /><circle cx="647.2" cy="119.4" r="4" fill="#60e5e0" /><circle cx="658.5" cy="119.4" r="4" fill="#60e5e0" /><circle cx="669.9" cy="119.1" r="4" fill="#60e5e0" /><circle cx="681.2" cy="118.8" r="4" fill="#60e5e0" /><circle cx="692.5" cy="118.8" r="4" fill="#60e5e0" /><circle cx="703.9" cy="117.8" r="4" fill="#60e5e0" /><circle cx="715.2" cy="117.8" r="4" fill="#60e5e0" /><circle cx="726.6" cy="117.8" r="4" fill="#60e5e0" /><circle cx="737.9" cy="115.8" r="4" fill="#60e5e0" /><circle cx="749.3" cy="115.8" r="4" fill="#60e5e0" /><circle cx="760.6" cy="115.0" r="4" fill="#60e5e0" /><circle cx="771.9" cy="115.0" r="4" fill="#60e5e0" /><circle cx="783.3" cy="115.0" r="4" fill="#60e5e0" /><circle cx="794.6" cy="115.0" r="4" fill="#60e5e0" /><circle cx="806.0" cy="115.0" r="4" fill="#60e5e0" /><circle cx="817.3" cy="115.0" r="4" fill="#60e5e0" /><circle cx="828.7" cy="115.0" r="4" fill="#60e5e0" /><circle cx="840.0" cy="113.9" r="4" fill="#60e5e0" /><polyline points="80.0,314.6 91.3,314.4 102.7,314.2 114.0,314.2 125.4,314.2 136.7,314.1 148.1,314.1 159.4,314.1 170.7,314.1 182.1,314.1 193.4,314.0 204.8,314.0 216.1,314.0 227.5,314.0 238.8,314.0 250.1,314.0 261.5,314.0 272.8,314.0 284.2,314.0 295.5,314.0 306.9,314.0 318.2,314.0 329.6,314.0 340.9,314.0 352.2,314.0 363.6,314.0 374.9,314.0 386.3,314.0 397.6,314.0 409.0,314.0 420.3,314.0 431.6,314.0 443.0,314.0 454.3,314.0 465.7,314.0 477.0,314.0 488.4,314.0 499.7,314.0 511.0,314.0 522.4,314.0 533.7,314.0 545.1,313.9 556.4,313.6 567.8,313.4 579.1,313.4 590.4,313.4 601.8,313.4 613.1,313.4 624.5,313.1 635.8,313.1 647.2,313.1 658.5,313.1 669.9,313.1 681.2,313.0 692.5,313.0 703.9,312.9 715.2,312.9 726.6,312.9 737.9,312.8 749.3,312.8 760.6,312.6 771.9,312.6 783.3,312.6 794.6,312.6 806.0,312.6 817.3,312.6 828.7,312.6 840.0,312.5" fill="none" stroke="#567de1" stroke-width="2.5" stroke-linecap="round" stroke-linejoin="round" /><circle cx="80.0" cy="314.6" r="4" fill="#567de1" /><circle cx="91.3" cy="314.4" r="4" fill="#567de1" /><circle cx="102.7" cy="314.2" r="4" fill="#567de1" /><circle cx="114.0" cy="314.2" r="4" fill="#567de1" /><circle cx="125.4" cy="314.2" r="4" fill="#567de1" /><circle cx="136.7" cy="314.1" r="4" fill="#567de1" /><circle cx="148.1" cy="314.1" r="4" fill="#567de1" /><circle cx="159.4" cy="314.1" r="4" fill="#567de1" /><circle cx="170.7" cy="314.1" r="4" fill="#567de1" /><circle cx="182.1" cy="314.1" r="4" fill="#567de1" /><circle cx="193.4" cy="314.0" r="4" fill="#567de1" /><circle cx="204.8" cy="314.0" r="4" fill="#567de1" /><circle cx="216.1" cy="314.0" r="4" fill="#567de1" /><circle cx="227.5" cy="314.0" r="4" fill="#567de1" /><circle cx="238.8" cy="314.0" r="4" fill="#567de1" /><circle cx="250.1" cy="314.0" r="4" fill="#567de1" /><circle cx="261.5" cy="314.0" r="4" fill="#567de1" /><circle cx="272.8" cy="314.0" r="4" fill="#567de1" /><circle cx="284.2" cy="314.0" r="4" fill="#567de1" /><circle cx="295.5" cy="314.0" r="4" fill="#567de1" /><circle cx="306.9" cy="314.0" r="4" fill="#567de1" /><circle cx="318.2" cy="314.0" r="4" fill="#567de1" /><circle cx="329.6" cy="314.0" r="4" fill="#567de1" /><circle cx="340.9" cy="314.0" r="4" fill="#567de1" /><circle cx="352.2" cy="314.0" r="4" fill="#567de1" /><circle cx="363.6" cy="314.0" r="4" fill="#567de1" /><circle cx="374.9" cy="314.0" r="4" fill="#567de1" /><circle cx="386.3" cy="314.0" r="4" fill="#567de1" /><circle cx="397.6" cy="314.0" r="4" fill="#567de1" /><circle cx="409.0" cy="314.0" r="4" fill="#567de1" /><circle cx="420.3" cy="314.0" r="4" fill="#567de1" /><circle cx="431.6" cy="314.0" r="4" fill="#567de1" /><circle cx="443.0" cy="314.0" r="4" fill="#567de1" /><circle cx="454.3" cy="314.0" r="4" fill="#567de1" /><circle cx="465.7" cy="314.0" r="4" fill="#567de1" /><circle cx="477.0" cy="314.0" r="4" fill="#567de1" /><circle cx="488.4" cy="314.0" r="4" fill="#567de1" /><circle cx="499.7" cy="314.0" r="4" fill="#567de1" /><circle cx="511.0" cy="314.0" r="4" fill="#567de1" /><circle cx="522.4" cy="314.0" r="4" fill="#567de1" /><circle cx="533.7" cy="314.0" r="4" fill="#567de1" /><circle cx="545.1" cy="313.9" r="4" fill="#567de1" /><circle cx="556.4" cy="313.6" r="4" fill="#567de1" /><circle cx="567.8" cy="313.4" r="4" fill="#567de1" /><circle cx="579.1" cy="313.4" r="4" fill="#567de1" /><circle cx="590.4" cy="313.4" r="4" fill="#567de1" /><circle cx="601.8" cy="313.4" r="4" fill="#567de1" /><circle cx="613.1" cy="313.4" r="4" fill="#567de1" /><circle cx="624.5" cy="313.1" r="4" fill="#567de1" /><circle cx="635.8" cy="313.1" r="4" fill="#567de1" /><circle cx="647.2" cy="313.1" r="4" fill="#567de1" /><circle cx="658.5" cy="313.1" r="4" fill="#567de1" /><circle cx="669.9" cy="313.1" r="4" fill="#567de1" /><circle cx="681.2" cy="313.0" r="4" fill="#567de1" /><circle cx="692.5" cy="313.0" r="4" fill="#567de1" /><circle cx="703.9" cy="312.9" r="4" fill="#567de1" /><circle cx="715.2" cy="312.9" r="4" fill="#567de1" /><circle cx="726.6" cy="312.9" r="4" fill="#567de1" /><circle cx="737.9" cy="312.8" r="4" fill="#567de1" /><circle cx="749.3" cy="312.8" r="4" fill="#567de1" /><circle cx="760.6" cy="312.6" r="4" fill="#567de1" /><circle cx="771.9" cy="312.6" r="4" fill="#567de1" /><circle cx="783.3" cy="312.6" r="4" fill="#567de1" /><circle cx="794.6" cy="312.6" r="4" fill="#567de1" /><circle cx="806.0" cy="312.6" r="4" fill="#567de1" /><circle cx="817.3" cy="312.6" r="4" fill="#567de1" /><circle cx="828.7" cy="312.6" r="4" fill="#567de1" /><circle cx="840.0" cy="312.5" r="4" fill="#567de1" /><polyline points="80.0,303.9 91.3,304.2 102.7,304.4 114.0,304.4 125.4,304.4 136.7,304.4 148.1,304.4 159.4,304.4 170.7,304.4 182.1,304.4 193.4,304.4 204.8,304.4 216.1,304.4 227.5,304.4 238.8,304.4 250.1,304.4 261.5,304.4 272.8,304.4 284.2,304.4 295.5,304.4 306.9,304.4 318.2,304.4 329.6,304.4 340.9,304.4 352.2,304.4 363.6,304.4 374.9,304.4 386.3,304.4 397.6,299.1 409.0,299.1 420.3,299.1 431.6,298.9 443.0,295.6 454.3,295.6 465.7,295.6 477.0,295.6 488.4,295.6 499.7,295.6 511.0,295.6 522.4,295.6 533.7,295.6 545.1,295.8 556.4,295.9 567.8,295.9 579.1,295.9 590.4,295.9 601.8,295.9 613.1,295.9 624.5,295.9 635.8,295.9 647.2,295.9 658.5,295.9 669.9,295.9 681.2,295.9 692.5,295.9 703.9,295.9 715.2,295.9 726.6,295.9 737.9,295.8 749.3,295.8 760.6,295.9 771.9,295.9 783.3,295.9 794.6,295.9 806.0,295.9 817.3,295.9 828.7,295.9 840.0,296.0" fill="none" stroke="#9754dd" stroke-width="2.5" stroke-linecap="round" stroke-linejoin="round" /><circle cx="80.0" cy="303.9" r="4" fill="#9754dd" /><circle cx="91.3" cy="304.2" r="4" fill="#9754dd" /><circle cx="102.7" cy="304.4" r="4" fill="#9754dd" /><circle cx="114.0" cy="304.4" r="4" fill="#9754dd" /><circle cx="125.4" cy="304.4" r="4" fill="#9754dd" /><circle cx="136.7" cy="304.4" r="4" fill="#9754dd" /><circle cx="148.1" cy="304.4" r="4" fill="#9754dd" /><circle cx="159.4" cy="304.4" r="4" fill="#9754dd" /><circle cx="170.7" cy="304.4" r="4" fill="#9754dd" /><circle cx="182.1" cy="304.4" r="4" fill="#9754dd" /><circle cx="193.4" cy="304.4" r="4" fill="#9754dd" /><circle cx="204.8" cy="304.4" r="4" fill="#9754dd" /><circle cx="216.1" cy="304.4" r="4" fill="#9754dd" /><circle cx="227.5" cy="304.4" r="4" fill="#9754dd" /><circle cx="238.8" cy="304.4" r="4" fill="#9754dd" /><circle cx="250.1" cy="304.4" r="4" fill="#9754dd" /><circle cx="261.5" cy="304.4" r="4" fill="#9754dd" /><circle cx="272.8" cy="304.4" r="4" fill="#9754dd" /><circle cx="284.2" cy="304.4" r="4" fill="#9754dd" /><circle cx="295.5" cy="304.4" r="4" fill="#9754dd" /><circle cx="306.9" cy="304.4" r="4" fill="#9754dd" /><circle cx="318.2" cy="304.4" r="4" fill="#9754dd" /><circle cx="329.6" cy="304.4" r="4" fill="#9754dd" /><circle cx="340.9" cy="304.4" r="4" fill="#9754dd" /><circle cx="352.2" cy="304.4" r="4" fill="#9754dd" /><circle cx="363.6" cy="304.4" r="4" fill="#9754dd" /><circle cx="374.9" cy="304.4" r="4" fill="#9754dd" /><circle cx="386.3" cy="304.4" r="4" fill="#9754dd" /><circle cx="397.6" cy="299.1" r="4" fill="#9754dd" /><circle cx="409.0" cy="299.1" r="4" fill="#9754dd" /><circle cx="420.3" cy="299.1" r="4" fill="#9754dd" /><circle cx="431.6" cy="298.9" r="4" fill="#9754dd" /><circle cx="443.0" cy="295.6" r="4" fill="#9754dd" /><circle cx="454.3" cy="295.6" r="4" fill="#9754dd" /><circle cx="465.7" cy="295.6" r="4" fill="#9754dd" /><circle cx="477.0" cy="295.6" r="4" fill="#9754dd" /><circle cx="488.4" cy="295.6" r="4" fill="#9754dd" /><circle cx="499.7" cy="295.6" r="4" fill="#9754dd" /><circle cx="511.0" cy="295.6" r="4" fill="#9754dd" /><circle cx="522.4" cy="295.6" r="4" fill="#9754dd" /><circle cx="533.7" cy="295.6" r="4" fill="#9754dd" /><circle cx="545.1" cy="295.8" r="4" fill="#9754dd" /><circle cx="556.4" cy="295.9" r="4" fill="#9754dd" /><circle cx="567.8" cy="295.9" r="4" fill="#9754dd" /><circle cx="579.1" cy="295.9" r="4" fill="#9754dd" /><circle cx="590.4" cy="295.9" r="4" fill="#9754dd" /><circle cx="601.8" cy="295.9" r="4" fill="#9754dd" /><circle cx="613.1" cy="295.9" r="4" fill="#9754dd" /><circle cx="624.5" cy="295.9" r="4" fill="#9754dd" /><circle cx="635.8" cy="295.9" r="4" fill="#9754dd" /><circle cx="647.2" cy="295.9" r="4" fill="#9754dd" /><circle cx="658.5" cy="295.9" r="4" fill="#9754dd" /><circle cx="669.9" cy="295.9" r="4" fill="#9754dd" /><circle cx="681.2" cy="295.9" r="4" fill="#9754dd" /><circle cx="692.5" cy="295.9" r="4" fill="#9754dd" /><circle cx="703.9" cy="295.9" r="4" fill="#9754dd" /><circle cx="715.2" cy="295.9" r="4" fill="#9754dd" /><circle cx="726.6" cy="295.9" r="4" fill="#9754dd" /><circle cx="737.9" cy="295.8" r="4" fill="#9754dd" /><circle cx="749.3" cy="295.8" r="4" fill="#9754dd" /><circle cx="760.6" cy="295.9" r="4" fill="#9754dd" /><circle cx="771.9" cy="295.9" r="4" fill="#9754dd" /><circle cx="783.3" cy="295.9" r="4" fill="#9754dd" /><circle cx="794.6" cy="295.9" r="4" fill="#9754dd" /><circle cx="806.0" cy="295.9" r="4" fill="#9754dd" /><circle cx="817.3" cy="295.9" r="4" fill="#9754dd" /><circle cx="828.7" cy="295.9" r="4" fill="#9754dd" /><circle cx="840.0" cy="296.0" r="4" fill="#9754dd" />
  <rect x="80" y="339" width="10" height="10" rx="2" ry="2" fill="#19e5a1" /><text x="96" y="348" class="legend-label">Stars</text><rect x="250" y="339" width="10" height="10" rx="2" ry="2" fill="#6eb6ec" /><text x="266" y="348" class="legend-label">Followers</text><rect x="420" y="339" width="10" height="10" rx="2" ry="2" fill="#5938e2" /><text x="436" y="348" class="legend-label">Following</text><rect x="590" y="339" width="10" height="10" rx="2" ry="2" fill="#60e5e0" /><text x="606" y="348" class="legend-label">Contributions</text><rect x="80" y="357" width="10" height="10" rx="2" ry="2" fill="#567de1" /><text x="96" y="366" class="legend-label">Pull Requests</text><rect x="250" y="357" width="10" height="10" rx="2" ry="2" fill="#9754dd" /><text x="266" y="366" class="legend-label">Issues</text>
</svg>
