<svg width="900" height="402" viewBox="0 0 900 402" xmlns="http://www.w3.org/2000/svg">
  <defs>
    <linearGradient id="history-gradient" x1="0%" y1="0%" x2="100%" y2="100%">
      <stop offset="0%" style="stop-color:#58a6ff;stop-opacity:1" />
      <stop offset="100%" style="stop-color:#a371f7;stop-opacity:1" />
    </linearGradient>
    <clipPath id="history-rounded">
      <rect x="0" y="0" width="900" height="402" rx="8" ry="8" />
    </clipPath>
  </defs>
  <style>
    .title {
      font-family: 'Segoe UI', Ubuntu, 'Helvetica Neue', sans-serif;
      font-size: 22px;
      font-weight: 700;
      fill: #58a6ff;
    }
    .subtitle {
      font-family: 'Segoe UI', Ubuntu, 'Helvetica Neue', sans-serif;
      font-size: 12px;
      font-weight: 500;
      fill: #8b949e;
    }
    .axis-label {
      font-family: 'Segoe UI', Ubuntu, 'Helvetica Neue', sans-serif;
      font-size: 10px;
      fill: #8b949e;
    }
    .grid-line {
      stroke: #30363d;
      stroke-width: 1;
      opacity: 0.3;
    }
    .legend-label {
      font-family: 'Segoe UI', Ubuntu, 'Helvetica Neue', sans-serif;
      font-size: 11px;
      fill: #c9d1d9;
      dominant-baseline: middle;
    }
  </style>
  <rect clip-path="url(#history-rounded)" width="100%" height="100%" fill="#0d1117" stroke="#30363d" stroke-width="1" />
  <rect x="0" y="396" width="900" height="6" fill="url(#history-gradient)" clip-path="url(#history-rounded)" />
  <text x="24" y="34" class="title">Leonardo Klein Stats History</text>
  <text x="24" y="54" class="subtitle">Period: 2026-02-20 to 2026-03-03</text>
  <text x="72" y="320.0" text-anchor="end" dominant-baseline="central" class="axis-label">0</text><text x="72" y="270.0" text-anchor="end" dominant-baseline="central" class="axis-label">400</text><text x="72" y="220.0" text-anchor="end" dominant-baseline="central" class="axis-label">800</text><text x="72" y="170.0" text-anchor="end" dominant-baseline="central" class="axis-label">1.2k</text><text x="72" y="120.0" text-anchor="end" dominant-baseline="central" class="axis-label">1.6k</text><text x="72" y="70.0" text-anchor="end" dominant-baseline="central" class="axis-label">2.0k</text>
  <text x="80.0" y="336" text-anchor="middle" class="axis-label">02-20</text><text x="151.7" y="336" text-anchor="middle" class="axis-label">02-21</text><text x="223.4" y="336" text-anchor="middle" class="axis-label">02-22</text><text x="295.1" y="336" text-anchor="middle" class="axis-label">02-23</text><text x="366.8" y="336" text-anchor="middle" class="axis-label">02-24</text><text x="438.5" y="336" text-anchor="middle" class="axis-label">02-25</text><text x="510.2" y="336" text-anchor="middle" class="axis-label">02-26</text><text x="581.9" y="336" text-anchor="middle" class="axis-label">02-27</text><text x="653.6" y="336" text-anchor="middle" class="axis-label">02-28</text><text x="725.3" y="336" text-anchor="middle" class="axis-label">03-01</text><text x="797.0" y="336" text-anchor="middle" class="axis-label">03-02</text><text x="840.0" y="336" text-anchor="middle" class="axis-label">03-03</text>
  <line x1="80" y1="320.0" x2="840" y2="320.0" class="grid-line" /><line x1="80" y1="270.0" x2="840" y2="270.0" class="grid-line" /><line x1="80" y1="220.0" x2="840" y2="220.0" class="grid-line" /><line x1="80" y1="170.0" x2="840" y2="170.0" class="grid-line" /><line x1="80" y1="120.0" x2="840" y2="120.0" class="grid-line" /><line x1="80" y1="70.0" x2="840" y2="70.0" class="grid-line" />
  <polyline points="80.0,317.0 94.3,317.0 108.7,317.0 123.0,317.0 137.4,317.0 151.7,317.0 166.0,317.0 180.4,317.0 194.7,317.0 209.1,317.0 223.4,317.0 237.7,317.0 252.1,317.0 266.4,317.0 280.8,317.0 295.1,317.0 309.4,317.0 323.8,317.0 338.1,317.0 352.5,317.0 366.8,317.0 381.1,317.0 395.5,317.0 409.8,317.0 424.2,317.0 438.5,317.0 452.8,317.0 467.2,317.0 481.5,317.0 495.8,317.0 510.2,317.0 524.5,317.0 538.9,317.0 553.2,317.0 567.5,317.0 581.9,317.0 596.2,317.0 610.6,317.0 624.9,317.0 639.2,317.0 653.6,317.0 667.9,317.0 682.3,317.0 696.6,317.0 710.9,317.0 725.3,317.0 739.6,317.0 754.0,317.0 768.3,317.0 782.6,317.0 797.0,317.0 811.3,317.0 825.7,317.0 840.0,317.0" fill="none" stroke="#19e5a1" stroke-width="2.5" stroke-linecap="round" stroke-linejoin="round" /><circle cx="80.0" cy="317.0" r="4" fill="#19e5a1" /><circle cx="94.3" cy="317.0" r="4" fill="#19e5a1" /><circle cx="108.7" cy="317.0" r="4" fill="#19e5a1" /><circle cx="123.0" cy="317.0" r="4" fill="#19e5a1" /><circle cx="137.4" cy="317.0" r="4" fill="#19e5a1" /><circle cx="151.7" cy="317.0" r="4" fill="#19e5a1" /><circle cx="166.0" cy="317.0" r="4" fill="#19e5a1" /><circle cx="180.4" cy="317.0" r="4" fill="#19e5a1" /><circle cx="194.7" cy="317.0" r="4" fill="#19e5a1" /><circle cx="209.1" cy="317.0" r="4" fill="#19e5a1" /><circle cx="223.4" cy="317.0" r="4" fill="#19e5a1" /><circle cx="237.7" cy="317.0" r="4" fill="#19e5a1" /><circle cx="252.1" cy="317.0" r="4" fill="#19e5a1" /><circle cx="266.4" cy="317.0" r="4" fill="#19e5a1" /><circle cx="280.8" cy="317.0" r="4" fill="#19e5a1" /><circle cx="295.1" cy="317.0" r="4" fill="#19e5a1" /><circle cx="309.4" cy="317.0" r="4" fill="#19e5a1" /><circle cx="323.8" cy="317.0" r="4" fill="#19e5a1" /><circle cx="338.1" cy="317.0" r="4" fill="#19e5a1" /><circle cx="352.5" cy="317.0" r="4" fill="#19e5a1" /><circle cx="366.8" cy="317.0" r="4" fill="#19e5a1" /><circle cx="381.1" cy="317.0" r="4" fill="#19e5a1" /><circle cx="395.5" cy="317.0" r="4" fill="#19e5a1" /><circle cx="409.8" cy="317.0" r="4" fill="#19e5a1" /><circle cx="424.2" cy="317.0" r="4" fill="#19e5a1" /><circle cx="438.5" cy="317.0" r="4" fill="#19e5a1" /><circle cx="452.8" cy="317.0" r="4" fill="#19e5a1" /><circle cx="467.2" cy="317.0" r="4" fill="#19e5a1" /><circle cx="481.5" cy="317.0" r="4" fill="#19e5a1" /><circle cx="495.8" cy="317.0" r="4" fill="#19e5a1" /><circle cx="510.2" cy="317.0" r="4" fill="#19e5a1" /><circle cx="524.5" cy="317.0" r="4" fill="#19e5a1" /><circle cx="538.9" cy="317.0" r="4" fill="#19e5a1" /><circle cx="553.2" cy="317.0" r="4" fill="#19e5a1" /><circle cx="567.5" cy="317.0" r="4" fill="#19e5a1" /><circle cx="581.9" cy="317.0" r="4" fill="#19e5a1" /><circle cx="596.2" cy="317.0" r="4" fill="#19e5a1" /><circle cx="610.6" cy="317.0" r="4" fill="#19e5a1" /><circle cx="624.9" cy="317.0" r="4" fill="#19e5a1" /><circle cx="639.2" cy="317.0" r="4" fill="#19e5a1" /><circle cx="653.6" cy="317.0" r="4" fill="#19e5a1" /><circle cx="667.9" cy="317.0" r="4" fill="#19e5a1" /><circle cx="682.3" cy="317.0" r="4" fill="#19e5a1" /><circle cx="696.6" cy="317.0" r="4" fill="#19e5a1" /><circle cx="710.9" cy="317.0" r="4" fill="#19e5a1" /><circle cx="725.3" cy="317.0" r="4" fill="#19e5a1" /><circle cx="739.6" cy="317.0" r="4" fill="#19e5a1" /><circle cx="754.0" cy="317.0" r="4" fill="#19e5a1" /><circle cx="768.3" cy="317.0" r="4" fill="#19e5a1" /><circle cx="782.6" cy="317.0" r="4" fill="#19e5a1" /><circle cx="797.0" cy="317.0" r="4" fill="#19e5a1" /><circle cx="811.3" cy="317.0" r="4" fill="#19e5a1" /><circle cx="825.7" cy="317.0" r="4" fill="#19e5a1" /><circle cx="840.0" cy="317.0" r="4" fill="#19e5a1" /><polyline points="80.0,313.2 94.3,312.2 108.7,312.1 123.0,312.4 137.4,312.4 151.7,312.4 166.0,312.1 180.4,312.0 194.7,311.9 209.1,311.9 223.4,311.8 237.7,311.8 252.1,311.5 266.4,311.5 280.8,311.5 295.1,311.2 309.4,311.2 323.8,311.1 338.1,311.1 352.5,311.1 366.8,310.9 381.1,311.0 395.5,310.8 409.8,310.8 424.2,310.8 438.5,310.8 452.8,310.4 467.2,310.2 481.5,310.4 495.8,310.4 510.2,310.4 524.5,310.4 538.9,310.4 553.2,310.2 567.5,310.2 581.9,310.1 596.2,310.1 610.6,309.8 624.9,309.6 639.2,309.6 653.6,309.6 667.9,309.6 682.3,309.5 696.6,309.4 710.9,309.4 725.3,309.4 739.6,309.4 754.0,309.2 768.3,309.2 782.6,309.2 797.0,309.4 811.3,309.4 825.7,309.5 840.0,309.2" fill="none" stroke="#6eb6ec" stroke-width="2.5" stroke-linecap="round" stroke-linejoin="round" /><circle cx="80.0" cy="313.2" r="4" fill="#6eb6ec" /><circle cx="94.3" cy="312.2" r="4" fill="#6eb6ec" /><circle cx="108.7" cy="312.1" r="4" fill="#6eb6ec" /><circle cx="123.0" cy="312.4" r="4" fill="#6eb6ec" /><circle cx="137.4" cy="312.4" r="4" fill="#6eb6ec" /><circle cx="151.7" cy="312.4" r="4" fill="#6eb6ec" /><circle cx="166.0" cy="312.1" r="4" fill="#6eb6ec" /><circle cx="180.4" cy="312.0" r="4" fill="#6eb6ec" /><circle cx="194.7" cy="311.9" r="4" fill="#6eb6ec" /><circle cx="209.1" cy="311.9" r="4" fill="#6eb6ec" /><circle cx="223.4" cy="311.8" r="4" fill="#6eb6ec" /><circle cx="237.7" cy="311.8" r="4" fill="#6eb6ec" /><circle cx="252.1" cy="311.5" r="4" fill="#6eb6ec" /><circle cx="266.4" cy="311.5" r="4" fill="#6eb6ec" /><circle cx="280.8" cy="311.5" r="4" fill="#6eb6ec" /><circle cx="295.1" cy="311.2" r="4" fill="#6eb6ec" /><circle cx="309.4" cy="311.2" r="4" fill="#6eb6ec" /><circle cx="323.8" cy="311.1" r="4" fill="#6eb6ec" /><circle cx="338.1" cy="311.1" r="4" fill="#6eb6ec" /><circle cx="352.5" cy="311.1" r="4" fill="#6eb6ec" /><circle cx="366.8" cy="310.9" r="4" fill="#6eb6ec" /><circle cx="381.1" cy="311.0" r="4" fill="#6eb6ec" /><circle cx="395.5" cy="310.8" r="4" fill="#6eb6ec" /><circle cx="409.8" cy="310.8" r="4" fill="#6eb6ec" /><circle cx="424.2" cy="310.8" r="4" fill="#6eb6ec" /><circle cx="438.5" cy="310.8" r="4" fill="#6eb6ec" /><circle cx="452.8" cy="310.4" r="4" fill="#6eb6ec" /><circle cx="467.2" cy="310.2" r="4" fill="#6eb6ec" /><circle cx="481.5" cy="310.4" r="4" fill="#6eb6ec" /><circle cx="495.8" cy="310.4" r="4" fill="#6eb6ec" /><circle cx="510.2" cy="310.4" r="4" fill="#6eb6ec" /><circle cx="524.5" cy="310.4" r="4" fill="#6eb6ec" /><circle cx="538.9" cy="310.4" r="4" fill="#6eb6ec" /><circle cx="553.2" cy="310.2" r="4" fill="#6eb6ec" /><circle cx="567.5" cy="310.2" r="4" fill="#6eb6ec" /><circle cx="581.9" cy="310.1" r="4" fill="#6eb6ec" /><circle cx="596.2" cy="310.1" r="4" fill="#6eb6ec" /><circle cx="610.6" cy="309.8" r="4" fill="#6eb6ec" /><circle cx="624.9" cy="309.6" r="4" fill="#6eb6ec" /><circle cx="639.2" cy="309.6" r="4" fill="#6eb6ec" /><circle cx="653.6" cy="309.6" r="4" fill="#6eb6ec" /><circle cx="667.9" cy="309.6" r="4" fill="#6eb6ec" /><circle cx="682.3" cy="309.5" r="4" fill="#6eb6ec" /><circle cx="696.6" cy="309.4" r="4" fill="#6eb6ec" /><circle cx="710.9" cy="309.4" r="4" fill="#6eb6ec" /><circle cx="725.3" cy="309.4" r="4" fill="#6eb6ec" /><circle cx="739.6" cy="309.4" r="4" fill="#6eb6ec" /><circle cx="754.0" cy="309.2" r="4" fill="#6eb6ec" /><circle cx="768.3" cy="309.2" r="4" fill="#6eb6ec" /><circle cx="782.6" cy="309.2" r="4" fill="#6eb6ec" /><circle cx="797.0" cy="309.4" r="4" fill="#6eb6ec" /><circle cx="811.3" cy="309.4" r="4" fill="#6eb6ec" /><circle cx="825.7" cy="309.5" r="4" fill="#6eb6ec" /><circle cx="840.0" cy="309.2" r="4" fill="#6eb6ec" /><polyline points="80.0,305.8 94.3,305.8 108.7,305.8 123.0,305.8 137.4,305.8 151.7,305.8 166.0,305.8 180.4,305.8 194.7,305.8 209.1,305.8 223.4,304.9 237.7,304.9 252.1,304.9 266.4,304.9 280.8,304.9 295.1,304.9 309.4,304.9 323.8,304.9 338.1,304.9 352.5,304.9 366.8,304.9 381.1,304.9 395.5,304.9 409.8,304.9 424.2,304.9 438.5,304.9 452.8,304.9 467.2,304.9 481.5,304.9 495.8,304.9 510.2,304.9 524.5,304.9 538.9,304.9 553.2,304.9 567.5,304.9 581.9,304.9 596.2,304.9 610.6,303.6 624.9,303.6 639.2,303.6 653.6,303.6 667.9,303.6 682.3,303.6 696.6,303.6 710.9,303.6 725.3,303.6 739.6,303.6 754.0,303.6 768.3,303.6 782.6,303.6 797.0,303.6 811.3,302.9 825.7,302.9 840.0,298.0" fill="none" stroke="#5938e2" stroke-width="2.5" stroke-linecap="round" stroke-linejoin="round" /><circle cx="80.0" cy="305.8" r="4" fill="#5938e2" /><circle cx="94.3" cy="305.8" r="4" fill="#5938e2" /><circle cx="108.7" cy="305.8" r="4" fill="#5938e2" /><circle cx="123.0" cy="305.8" r="4" fill="#5938e2" /><circle cx="137.4" cy="305.8" r="4" fill="#5938e2" /><circle cx="151.7" cy="305.8" r="4" fill="#5938e2" /><circle cx="166.0" cy="305.8" r="4" fill="#5938e2" /><circle cx="180.4" cy="305.8" r="4" fill="#5938e2" /><circle cx="194.7" cy="305.8" r="4" fill="#5938e2" /><circle cx="209.1" cy="305.8" r="4" fill="#5938e2" /><circle cx="223.4" cy="304.9" r="4" fill="#5938e2" /><circle cx="237.7" cy="304.9" r="4" fill="#5938e2" /><circle cx="252.1" cy="304.9" r="4" fill="#5938e2" /><circle cx="266.4" cy="304.9" r="4" fill="#5938e2" /><circle cx="280.8" cy="304.9" r="4" fill="#5938e2" /><circle cx="295.1" cy="304.9" r="4" fill="#5938e2" /><circle cx="309.4" cy="304.9" r="4" fill="#5938e2" /><circle cx="323.8" cy="304.9" r="4" fill="#5938e2" /><circle cx="338.1" cy="304.9" r="4" fill="#5938e2" /><circle cx="352.5" cy="304.9" r="4" fill="#5938e2" /><circle cx="366.8" cy="304.9" r="4" fill="#5938e2" /><circle cx="381.1" cy="304.9" r="4" fill="#5938e2" /><circle cx="395.5" cy="304.9" r="4" fill="#5938e2" /><circle cx="409.8" cy="304.9" r="4" fill="#5938e2" /><circle cx="424.2" cy="304.9" r="4" fill="#5938e2" /><circle cx="438.5" cy="304.9" r="4" fill="#5938e2" /><circle cx="452.8" cy="304.9" r="4" fill="#5938e2" /><circle cx="467.2" cy="304.9" r="4" fill="#5938e2" /><circle cx="481.5" cy="304.9" r="4" fill="#5938e2" /><circle cx="495.8" cy="304.9" r="4" fill="#5938e2" /><circle cx="510.2" cy="304.9" r="4" fill="#5938e2" /><circle cx="524.5" cy="304.9" r="4" fill="#5938e2" /><circle cx="538.9" cy="304.9" r="4" fill="#5938e2" /><circle cx="553.2" cy="304.9" r="4" fill="#5938e2" /><circle cx="567.5" cy="304.9" r="4" fill="#5938e2" /><circle cx="581.9" cy="304.9" r="4" fill="#5938e2" /><circle cx="596.2" cy="304.9" r="4" fill="#5938e2" /><circle cx="610.6" cy="303.6" r="4" fill="#5938e2" /><circle cx="624.9" cy="303.6" r="4" fill="#5938e2" /><circle cx="639.2" cy="303.6" r="4" fill="#5938e2" /><circle cx="653.6" cy="303.6" r="4" fill="#5938e2" /><circle cx="667.9" cy="303.6" r="4" fill="#5938e2" /><circle cx="682.3" cy="303.6" r="4" fill="#5938e2" /><circle cx="696.6" cy="303.6" r="4" fill="#5938e2" /><circle cx="710.9" cy="303.6" r="4" fill="#5938e2" /><circle cx="725.3" cy="303.6" r="4" fill="#5938e2" /><circle cx="739.6" cy="303.6" r="4" fill="#5938e2" /><circle cx="754.0" cy="303.6" r="4" fill="#5938e2" /><circle cx="768.3" cy="303.6" r="4" fill="#5938e2" /><circle cx="782.6" cy="303.6" r="4" fill="#5938e2" /><circle cx="797.0" cy="303.6" r="4" fill="#5938e2" /><circle cx="811.3" cy="302.9" r="4" fill="#5938e2" /><circle cx="825.7" cy="302.9" r="4" fill="#5938e2" /><circle cx="840.0" cy="298.0" r="4" fill="#5938e2" /><polyline points="80.0,144.6 94.3,140.1 108.7,139.9 123.0,139.8 137.4,139.8 151.7,139.6 166.0,139.6 180.4,139.6 194.7,139.6 209.1,139.6 223.4,138.4 237.7,138.4 252.1,138.4 266.4,138.4 280.8,138.4 295.1,138.4 309.4,138.4 323.8,137.4 338.1,137.4 352.5,137.4 366.8,137.4 381.1,137.4 395.5,137.4 409.8,137.4 424.2,137.4 438.5,137.4 452.8,137.4 467.2,137.4 481.5,131.2 495.8,131.2 510.2,130.8 524.5,130.4 538.9,126.9 553.2,126.9 567.5,126.9 581.9,126.9 596.2,126.9 610.6,126.9 624.9,126.9 639.2,126.9 653.6,126.9 667.9,126.8 682.3,122.1 696.6,120.4 710.9,120.4 725.3,120.4 739.6,120.4 754.0,120.4 768.3,119.4 782.6,119.4 797.0,119.4 811.3,119.4 825.7,119.1 840.0,118.8" fill="none" stroke="#60e5e0" stroke-width="2.5" stroke-linecap="round" stroke-linejoin="round" /><circle cx="80.0" cy="144.6" r="4" fill="#60e5e0" /><circle cx="94.3" cy="140.1" r="4" fill="#60e5e0" /><circle cx="108.7" cy="139.9" r="4" fill="#60e5e0" /><circle cx="123.0" cy="139.8" r="4" fill="#60e5e0" /><circle cx="137.4" cy="139.8" r="4" fill="#60e5e0" /><circle cx="151.7" cy="139.6" r="4" fill="#60e5e0" /><circle cx="166.0" cy="139.6" r="4" fill="#60e5e0" /><circle cx="180.4" cy="139.6" r="4" fill="#60e5e0" /><circle cx="194.7" cy="139.6" r="4" fill="#60e5e0" /><circle cx="209.1" cy="139.6" r="4" fill="#60e5e0" /><circle cx="223.4" cy="138.4" r="4" fill="#60e5e0" /><circle cx="237.7" cy="138.4" r="4" fill="#60e5e0" /><circle cx="252.1" cy="138.4" r="4" fill="#60e5e0" /><circle cx="266.4" cy="138.4" r="4" fill="#60e5e0" /><circle cx="280.8" cy="138.4" r="4" fill="#60e5e0" /><circle cx="295.1" cy="138.4" r="4" fill="#60e5e0" /><circle cx="309.4" cy="138.4" r="4" fill="#60e5e0" /><circle cx="323.8" cy="137.4" r="4" fill="#60e5e0" /><circle cx="338.1" cy="137.4" r="4" fill="#60e5e0" /><circle cx="352.5" cy="137.4" r="4" fill="#60e5e0" /><circle cx="366.8" cy="137.4" r="4" fill="#60e5e0" /><circle cx="381.1" cy="137.4" r="4" fill="#60e5e0" /><circle cx="395.5" cy="137.4" r="4" fill="#60e5e0" /><circle cx="409.8" cy="137.4" r="4" fill="#60e5e0" /><circle cx="424.2" cy="137.4" r="4" fill="#60e5e0" /><circle cx="438.5" cy="137.4" r="4" fill="#60e5e0" /><circle cx="452.8" cy="137.4" r="4" fill="#60e5e0" /><circle cx="467.2" cy="137.4" r="4" fill="#60e5e0" /><circle cx="481.5" cy="131.2" r="4" fill="#60e5e0" /><circle cx="495.8" cy="131.2" r="4" fill="#60e5e0" /><circle cx="510.2" cy="130.8" r="4" fill="#60e5e0" /><circle cx="524.5" cy="130.4" r="4" fill="#60e5e0" /><circle cx="538.9" cy="126.9" r="4" fill="#60e5e0" /><circle cx="553.2" cy="126.9" r="4" fill="#60e5e0" /><circle cx="567.5" cy="126.9" r="4" fill="#60e5e0" /><circle cx="581.9" cy="126.9" r="4" fill="#60e5e0" /><circle cx="596.2" cy="126.9" r="4" fill="#60e5e0" /><circle cx="610.6" cy="126.9" r="4" fill="#60e5e0" /><circle cx="624.9" cy="126.9" r="4" fill="#60e5e0" /><circle cx="639.2" cy="126.9" r="4" fill="#60e5e0" /><circle cx="653.6" cy="126.9" r="4" fill="#60e5e0" /><circle cx="667.9" cy="126.8" r="4" fill="#60e5e0" /><circle cx="682.3" cy="122.1" r="4" fill="#60e5e0" /><circle cx="696.6" cy="120.4" r="4" fill="#60e5e0" /><circle cx="710.9" cy="120.4" r="4" fill="#60e5e0" /><circle cx="725.3" cy="120.4" r="4" fill="#60e5e0" /><circle cx="739.6" cy="120.4" r="4" fill="#60e5e0" /><circle cx="754.0" cy="120.4" r="4" fill="#60e5e0" /><circle cx="768.3" cy="119.4" r="4" fill="#60e5e0" /><circle cx="782.6" cy="119.4" r="4" fill="#60e5e0" /><circle cx="797.0" cy="119.4" r="4" fill="#60e5e0" /><circle cx="811.3" cy="119.4" r="4" fill="#60e5e0" /><circle cx="825.7" cy="119.1" r="4" fill="#60e5e0" /><circle cx="840.0" cy="118.8" r="4" fill="#60e5e0" /><polyline points="80.0,314.6 94.3,314.4 108.7,314.2 123.0,314.2 137.4,314.2 151.7,314.1 166.0,314.1 180.4,314.1 194.7,314.1 209.1,314.1 223.4,314.0 237.7,314.0 252.1,314.0 266.4,314.0 280.8,314.0 295.1,314.0 309.4,314.0 323.8,314.0 338.1,314.0 352.5,314.0 366.8,314.0 381.1,314.0 395.5,314.0 409.8,314.0 424.2,314.0 438.5,314.0 452.8,314.0 467.2,314.0 481.5,314.0 495.8,314.0 510.2,314.0 524.5,314.0 538.9,314.0 553.2,314.0 567.5,314.0 581.9,314.0 596.2,314.0 610.6,314.0 624.9,314.0 639.2,314.0 653.6,314.0 667.9,313.9 682.3,313.6 696.6,313.4 710.9,313.4 725.3,313.4 739.6,313.4 754.0,313.4 768.3,313.1 782.6,313.1 797.0,313.1 811.3,313.1 825.7,313.1 840.0,313.0" fill="none" stroke="#567de1" stroke-width="2.5" stroke-linecap="round" stroke-linejoin="round" /><circle cx="80.0" cy="314.6" r="4" fill="#567de1" /><circle cx="94.3" cy="314.4" r="4" fill="#567de1" /><circle cx="108.7" cy="314.2" r="4" fill="#567de1" /><circle cx="123.0" cy="314.2" r="4" fill="#567de1" /><circle cx="137.4" cy="314.2" r="4" fill="#567de1" /><circle cx="151.7" cy="314.1" r="4" fill="#567de1" /><circle cx="166.0" cy="314.1" r="4" fill="#567de1" /><circle cx="180.4" cy="314.1" r="4" fill="#567de1" /><circle cx="194.7" cy="314.1" r="4" fill="#567de1" /><circle cx="209.1" cy="314.1" r="4" fill="#567de1" /><circle cx="223.4" cy="314.0" r="4" fill="#567de1" /><circle cx="237.7" cy="314.0" r="4" fill="#567de1" /><circle cx="252.1" cy="314.0" r="4" fill="#567de1" /><circle cx="266.4" cy="314.0" r="4" fill="#567de1" /><circle cx="280.8" cy="314.0" r="4" fill="#567de1" /><circle cx="295.1" cy="314.0" r="4" fill="#567de1" /><circle cx="309.4" cy="314.0" r="4" fill="#567de1" /><circle cx="323.8" cy="314.0" r="4" fill="#567de1" /><circle cx="338.1" cy="314.0" r="4" fill="#567de1" /><circle cx="352.5" cy="314.0" r="4" fill="#567de1" /><circle cx="366.8" cy="314.0" r="4" fill="#567de1" /><circle cx="381.1" cy="314.0" r="4" fill="#567de1" /><circle cx="395.5" cy="314.0" r="4" fill="#567de1" /><circle cx="409.8" cy="314.0" r="4" fill="#567de1" /><circle cx="424.2" cy="314.0" r="4" fill="#567de1" /><circle cx="438.5" cy="314.0" r="4" fill="#567de1" /><circle cx="452.8" cy="314.0" r="4" fill="#567de1" /><circle cx="467.2" cy="314.0" r="4" fill="#567de1" /><circle cx="481.5" cy="314.0" r="4" fill="#567de1" /><circle cx="495.8" cy="314.0" r="4" fill="#567de1" /><circle cx="510.2" cy="314.0" r="4" fill="#567de1" /><circle cx="524.5" cy="314.0" r="4" fill="#567de1" /><circle cx="538.9" cy="314.0" r="4" fill="#567de1" /><circle cx="553.2" cy="314.0" r="4" fill="#567de1" /><circle cx="567.5" cy="314.0" r="4" fill="#567de1" /><circle cx="581.9" cy="314.0" r="4" fill="#567de1" /><circle cx="596.2" cy="314.0" r="4" fill="#567de1" /><circle cx="610.6" cy="314.0" r="4" fill="#567de1" /><circle cx="624.9" cy="314.0" r="4" fill="#567de1" /><circle cx="639.2" cy="314.0" r="4" fill="#567de1" /><circle cx="653.6" cy="314.0" r="4" fill="#567de1" /><circle cx="667.9" cy="313.9" r="4" fill="#567de1" /><circle cx="682.3" cy="313.6" r="4" fill="#567de1" /><circle cx="696.6" cy="313.4" r="4" fill="#567de1" /><circle cx="710.9" cy="313.4" r="4" fill="#567de1" /><circle cx="725.3" cy="313.4" r="4" fill="#567de1" /><circle cx="739.6" cy="313.4" r="4" fill="#567de1" /><circle cx="754.0" cy="313.4" r="4" fill="#567de1" /><circle cx="768.3" cy="313.1" r="4" fill="#567de1" /><circle cx="782.6" cy="313.1" r="4" fill="#567de1" /><circle cx="797.0" cy="313.1" r="4" fill="#567de1" /><circle cx="811.3" cy="313.1" r="4" fill="#567de1" /><circle cx="825.7" cy="313.1" r="4" fill="#567de1" /><circle cx="840.0" cy="313.0" r="4" fill="#567de1" /><polyline points="80.0,303.9 94.3,304.2 108.7,304.4 123.0,304.4 137.4,304.4 151.7,304.4 166.0,304.4 180.4,304.4 194.7,304.4 209.1,304.4 223.4,304.4 237.7,304.4 252.1,304.4 266.4,304.4 280.8,304.4 295.1,304.4 309.4,304.4 323.8,304.4 338.1,304.4 352.5,304.4 366.8,304.4 381.1,304.4 395.5,304.4 409.8,304.4 424.2,304.4 438.5,304.4 452.8,304.4 467.2,304.4 481.5,299.1 495.8,299.1 510.2,299.1 524.5,298.9 538.9,295.6 553.2,295.6 567.5,295.6 581.9,295.6 596.2,295.6 610.6,295.6 624.9,295.6 639.2,295.6 653.6,295.6 667.9,295.8 682.3,295.9 696.6,295.9 710.9,295.9 725.3,295.9 739.6,295.9 754.0,295.9 768.3,295.9 782.6,295.9 797.0,295.9 811.3,295.9 825.7,295.9 840.0,295.9" fill="none" stroke="#9754dd" stroke-width="2.5" stroke-linecap="round" stroke-linejoin="round" /><circle cx="80.0" cy="303.9" r="4" fill="#9754dd" /><circle cx="94.3" cy="304.2" r="4" fill="#9754dd" /><circle cx="108.7" cy="304.4" r="4" fill="#9754dd" /><circle cx="123.0" cy="304.4" r="4" fill="#9754dd" /><circle cx="137.4" cy="304.4" r="4" fill="#9754dd" /><circle cx="151.7" cy="304.4" r="4" fill="#9754dd" /><circle cx="166.0" cy="304.4" r="4" fill="#9754dd" /><circle cx="180.4" cy="304.4" r="4" fill="#9754dd" /><circle cx="194.7" cy="304.4" r="4" fill="#9754dd" /><circle cx="209.1" cy="304.4" r="4" fill="#9754dd" /><circle cx="223.4" cy="304.4" r="4" fill="#9754dd" /><circle cx="237.7" cy="304.4" r="4" fill="#9754dd" /><circle cx="252.1" cy="304.4" r="4" fill="#9754dd" /><circle cx="266.4" cy="304.4" r="4" fill="#9754dd" /><circle cx="280.8" cy="304.4" r="4" fill="#9754dd" /><circle cx="295.1" cy="304.4" r="4" fill="#9754dd" /><circle cx="309.4" cy="304.4" r="4" fill="#9754dd" /><circle cx="323.8" cy="304.4" r="4" fill="#9754dd" /><circle cx="338.1" cy="304.4" r="4" fill="#9754dd" /><circle cx="352.5" cy="304.4" r="4" fill="#9754dd" /><circle cx="366.8" cy="304.4" r="4" fill="#9754dd" /><circle cx="381.1" cy="304.4" r="4" fill="#9754dd" /><circle cx="395.5" cy="304.4" r="4" fill="#9754dd" /><circle cx="409.8" cy="304.4" r="4" fill="#9754dd" /><circle cx="424.2" cy="304.4" r="4" fill="#9754dd" /><circle cx="438.5" cy="304.4" r="4" fill="#9754dd" /><circle cx="452.8" cy="304.4" r="4" fill="#9754dd" /><circle cx="467.2" cy="304.4" r="4" fill="#9754dd" /><circle cx="481.5" cy="299.1" r="4" fill="#9754dd" /><circle cx="495.8" cy="299.1" r="4" fill="#9754dd" /><circle cx="510.2" cy="299.1" r="4" fill="#9754dd" /><circle cx="524.5" cy="298.9" r="4" fill="#9754dd" /><circle cx="538.9" cy="295.6" r="4" fill="#9754dd" /><circle cx="553.2" cy="295.6" r="4" fill="#9754dd" /><circle cx="567.5" cy="295.6" r="4" fill="#9754dd" /><circle cx="581.9" cy="295.6" r="4" fill="#9754dd" /><circle cx="596.2" cy="295.6" r="4" fill="#9754dd" /><circle cx="610.6" cy="295.6" r="4" fill="#9754dd" /><circle cx="624.9" cy="295.6" r="4" fill="#9754dd" /><circle cx="639.2" cy="295.6" r="4" fill="#9754dd" /><circle cx="653.6" cy="295.6" r="4" fill="#9754dd" /><circle cx="667.9" cy="295.8" r="4" fill="#9754dd" /><circle cx="682.3" cy="295.9" r="4" fill="#9754dd" /><circle cx="696.6" cy="295.9" r="4" fill="#9754dd" /><circle cx="710.9" cy="295.9" r="4" fill="#9754dd" /><circle cx="725.3" cy="295.9" r="4" fill="#9754dd" /><circle cx="739.6" cy="295.9" r="4" fill="#9754dd" /><circle cx="754.0" cy="295.9" r="4" fill="#9754dd" /><circle cx="768.3" cy="295.9" r="4" fill="#9754dd" /><circle cx="782.6" cy="295.9" r="4" fill="#9754dd" /><circle cx="797.0" cy="295.9" r="4" fill="#9754dd" /><circle cx="811.3" cy="295.9" r="4" fill="#9754dd" /><circle cx="825.7" cy="295.9" r="4" fill="#9754dd" /><circle cx="840.0" cy="295.9" r="4" fill="#9754dd" />
  <rect x="80" y="339" width="10" height="10" rx="2" ry="2" fill="#19e5a1" /><text x="96" y="348" class="legend-label">Stars</text><rect x="250" y="339" width="10" height="10" rx="2" ry="2" fill="#6eb6ec" /><text x="266" y="348" class="legend-label">Followers</text><rect x="420" y="339" width="10" height="10" rx="2" ry="2" fill="#5938e2" /><text x="436" y="348" class="legend-label">Following</text><rect x="590" y="339" width="10" height="10" rx="2" ry="2" fill="#60e5e0" /><text x="606" y="348" class="legend-label">Contributions</text><rect x="80" y="357" width="10" height="10" rx="2" ry="2" fill="#567de1" /><text x="96" y="366" class="legend-label">Pull Requests</text><rect x="250" y="357" width="10" height="10" rx="2" ry="2" fill="#9754dd" /><text x="266" y="366" class="legend-label">Issues</text>
</svg>
