<svg width="900" height="402" viewBox="0 0 900 402" xmlns="http://www.w3.org/2000/svg">
  <defs>
    <linearGradient id="history-gradient" x1="0%" y1="0%" x2="100%" y2="100%">
      <stop offset="0%" style="stop-color:#58a6ff;stop-opacity:1" />
      <stop offset="100%" style="stop-color:#a371f7;stop-opacity:1" />
    </linearGradient>
    <clipPath id="history-rounded">
      <rect x="0" y="0" width="900" height="402" rx="8" ry="8" />
    </clipPath>
  </defs>
  <style>
    .title {
      font-family: 'Segoe UI', Ubuntu, 'Helvetica Neue', sans-serif;
      font-size: 22px;
      font-weight: 700;
      fill: #58a6ff;
    }
    .subtitle {
      font-family: 'Segoe UI', Ubuntu, 'Helvetica Neue', sans-serif;
      font-size: 12px;
      font-weight: 500;
      fill: #8b949e;
    }
    .axis-label {
      font-family: 'Segoe UI', Ubuntu, 'Helvetica Neue', sans-serif;
      font-size: 10px;
      fill: #8b949e;
    }
    .grid-line {
      stroke: #30363d;
      stroke-width: 1;
      opacity: 0.3;
    }
    .legend-label {
      font-family: 'Segoe UI', Ubuntu, 'Helvetica Neue', sans-serif;
      font-size: 11px;
      fill: #c9d1d9;
      dominant-baseline: middle;
    }
  </style>
  <rect clip-path="url(#history-rounded)" width="100%" height="100%" fill="#0d1117" stroke="#30363d" stroke-width="1" />
  <rect x="0" y="396" width="900" height="6" fill="url(#history-gradient)" clip-path="url(#history-rounded)" />
  <text x="24" y="34" class="title">Leonardo Klein Stats History</text>
  <text x="24" y="54" class="subtitle">Period: 2026-02-20 to 2026-03-13</text>
  <text x="72" y="320.0" text-anchor="end" dominant-baseline="central" class="axis-label">0</text><text x="72" y="270.0" text-anchor="end" dominant-baseline="central" class="axis-label">400</text><text x="72" y="220.0" text-anchor="end" dominant-baseline="central" class="axis-label">800</text><text x="72" y="170.0" text-anchor="end" dominant-baseline="central" class="axis-label">1.2k</text><text x="72" y="120.0" text-anchor="end" dominant-baseline="central" class="axis-label">1.6k</text><text x="72" y="70.0" text-anchor="end" dominant-baseline="central" class="axis-label">2.0k</text>
  <text x="80.0" y="336" text-anchor="middle" class="axis-label">02-20</text><text x="151.0" y="336" text-anchor="middle" class="axis-label">02-22</text><text x="222.1" y="336" text-anchor="middle" class="axis-label">02-24</text><text x="293.1" y="336" text-anchor="middle" class="axis-label">02-26</text><text x="364.1" y="336" text-anchor="middle" class="axis-label">02-28</text><text x="435.1" y="336" text-anchor="middle" class="axis-label">03-02</text><text x="506.2" y="336" text-anchor="middle" class="axis-label">03-04</text><text x="577.2" y="336" text-anchor="middle" class="axis-label">03-06</text><text x="648.2" y="336" text-anchor="middle" class="axis-label">03-08</text><text x="719.3" y="336" text-anchor="middle" class="axis-label">03-10</text><text x="790.3" y="336" text-anchor="middle" class="axis-label">03-12</text><text x="840.0" y="336" text-anchor="middle" class="axis-label">03-13</text>
  <line x1="80" y1="320.0" x2="840" y2="320.0" class="grid-line" /><line x1="80" y1="270.0" x2="840" y2="270.0" class="grid-line" /><line x1="80" y1="220.0" x2="840" y2="220.0" class="grid-line" /><line x1="80" y1="170.0" x2="840" y2="170.0" class="grid-line" /><line x1="80" y1="120.0" x2="840" y2="120.0" class="grid-line" /><line x1="80" y1="70.0" x2="840" y2="70.0" class="grid-line" />
  <polyline points="80.0,317.0 87.1,317.0 94.2,317.0 101.3,317.0 108.4,317.0 115.5,317.0 122.6,317.0 129.7,317.0 136.8,317.0 143.9,317.0 151.0,317.0 158.1,317.0 165.2,317.0 172.3,317.0 179.4,317.0 186.5,317.0 193.6,317.0 200.7,317.0 207.9,317.0 215.0,317.0 222.1,317.0 229.2,317.0 236.3,317.0 243.4,317.0 250.5,317.0 257.6,317.0 264.7,317.0 271.8,317.0 278.9,317.0 286.0,317.0 293.1,317.0 300.2,317.0 307.3,317.0 314.4,317.0 321.5,317.0 328.6,317.0 335.7,317.0 342.8,317.0 349.9,317.0 357.0,317.0 364.1,317.0 371.2,317.0 378.3,317.0 385.4,317.0 392.5,317.0 399.6,317.0 406.7,317.0 413.8,317.0 420.9,317.0 428.0,317.0 435.1,317.0 442.2,317.0 449.3,317.0 456.4,317.0 463.6,317.0 470.7,317.0 477.8,317.0 484.9,317.0 492.0,317.0 499.1,317.0 506.2,317.0 513.3,317.0 520.4,317.0 527.5,317.0 534.6,317.0 541.7,317.0 548.8,317.0 555.9,317.0 563.0,317.0 570.1,317.0 577.2,317.0 584.3,317.0 591.4,317.0 598.5,317.0 605.6,317.0 612.7,317.0 619.8,317.0 626.9,317.0 634.0,317.0 641.1,317.0 648.2,317.0 655.3,317.0 662.4,317.0 669.5,317.0 676.6,317.0 683.7,317.0 690.8,317.0 697.9,317.0 705.0,317.0 712.1,317.0 719.3,317.0 726.4,317.0 733.5,317.0 740.6,317.0 747.7,317.0 754.8,317.0 761.9,317.0 769.0,317.0 776.1,317.0 783.2,317.0 790.3,317.0 797.4,317.0 804.5,317.0 811.6,317.0 818.7,317.0 825.8,317.0 832.9,317.0 840.0,317.0" fill="none" stroke="#19e5a1" stroke-width="2.5" stroke-linecap="round" stroke-linejoin="round" /><circle cx="80.0" cy="317.0" r="4" fill="#19e5a1" /><circle cx="87.1" cy="317.0" r="4" fill="#19e5a1" /><circle cx="94.2" cy="317.0" r="4" fill="#19e5a1" /><circle cx="101.3" cy="317.0" r="4" fill="#19e5a1" /><circle cx="108.4" cy="317.0" r="4" fill="#19e5a1" /><circle cx="115.5" cy="317.0" r="4" fill="#19e5a1" /><circle cx="122.6" cy="317.0" r="4" fill="#19e5a1" /><circle cx="129.7" cy="317.0" r="4" fill="#19e5a1" /><circle cx="136.8" cy="317.0" r="4" fill="#19e5a1" /><circle cx="143.9" cy="317.0" r="4" fill="#19e5a1" /><circle cx="151.0" cy="317.0" r="4" fill="#19e5a1" /><circle cx="158.1" cy="317.0" r="4" fill="#19e5a1" /><circle cx="165.2" cy="317.0" r="4" fill="#19e5a1" /><circle cx="172.3" cy="317.0" r="4" fill="#19e5a1" /><circle cx="179.4" cy="317.0" r="4" fill="#19e5a1" /><circle cx="186.5" cy="317.0" r="4" fill="#19e5a1" /><circle cx="193.6" cy="317.0" r="4" fill="#19e5a1" /><circle cx="200.7" cy="317.0" r="4" fill="#19e5a1" /><circle cx="207.9" cy="317.0" r="4" fill="#19e5a1" /><circle cx="215.0" cy="317.0" r="4" fill="#19e5a1" /><circle cx="222.1" cy="317.0" r="4" fill="#19e5a1" /><circle cx="229.2" cy="317.0" r="4" fill="#19e5a1" /><circle cx="236.3" cy="317.0" r="4" fill="#19e5a1" /><circle cx="243.4" cy="317.0" r="4" fill="#19e5a1" /><circle cx="250.5" cy="317.0" r="4" fill="#19e5a1" /><circle cx="257.6" cy="317.0" r="4" fill="#19e5a1" /><circle cx="264.7" cy="317.0" r="4" fill="#19e5a1" /><circle cx="271.8" cy="317.0" r="4" fill="#19e5a1" /><circle cx="278.9" cy="317.0" r="4" fill="#19e5a1" /><circle cx="286.0" cy="317.0" r="4" fill="#19e5a1" /><circle cx="293.1" cy="317.0" r="4" fill="#19e5a1" /><circle cx="300.2" cy="317.0" r="4" fill="#19e5a1" /><circle cx="307.3" cy="317.0" r="4" fill="#19e5a1" /><circle cx="314.4" cy="317.0" r="4" fill="#19e5a1" /><circle cx="321.5" cy="317.0" r="4" fill="#19e5a1" /><circle cx="328.6" cy="317.0" r="4" fill="#19e5a1" /><circle cx="335.7" cy="317.0" r="4" fill="#19e5a1" /><circle cx="342.8" cy="317.0" r="4" fill="#19e5a1" /><circle cx="349.9" cy="317.0" r="4" fill="#19e5a1" /><circle cx="357.0" cy="317.0" r="4" fill="#19e5a1" /><circle cx="364.1" cy="317.0" r="4" fill="#19e5a1" /><circle cx="371.2" cy="317.0" r="4" fill="#19e5a1" /><circle cx="378.3" cy="317.0" r="4" fill="#19e5a1" /><circle cx="385.4" cy="317.0" r="4" fill="#19e5a1" /><circle cx="392.5" cy="317.0" r="4" fill="#19e5a1" /><circle cx="399.6" cy="317.0" r="4" fill="#19e5a1" /><circle cx="406.7" cy="317.0" r="4" fill="#19e5a1" /><circle cx="413.8" cy="317.0" r="4" fill="#19e5a1" /><circle cx="420.9" cy="317.0" r="4" fill="#19e5a1" /><circle cx="428.0" cy="317.0" r="4" fill="#19e5a1" /><circle cx="435.1" cy="317.0" r="4" fill="#19e5a1" /><circle cx="442.2" cy="317.0" r="4" fill="#19e5a1" /><circle cx="449.3" cy="317.0" r="4" fill="#19e5a1" /><circle cx="456.4" cy="317.0" r="4" fill="#19e5a1" /><circle cx="463.6" cy="317.0" r="4" fill="#19e5a1" /><circle cx="470.7" cy="317.0" r="4" fill="#19e5a1" /><circle cx="477.8" cy="317.0" r="4" fill="#19e5a1" /><circle cx="484.9" cy="317.0" r="4" fill="#19e5a1" /><circle cx="492.0" cy="317.0" r="4" fill="#19e5a1" /><circle cx="499.1" cy="317.0" r="4" fill="#19e5a1" /><circle cx="506.2" cy="317.0" r="4" fill="#19e5a1" /><circle cx="513.3" cy="317.0" r="4" fill="#19e5a1" /><circle cx="520.4" cy="317.0" r="4" fill="#19e5a1" /><circle cx="527.5" cy="317.0" r="4" fill="#19e5a1" /><circle cx="534.6" cy="317.0" r="4" fill="#19e5a1" /><circle cx="541.7" cy="317.0" r="4" fill="#19e5a1" /><circle cx="548.8" cy="317.0" r="4" fill="#19e5a1" /><circle cx="555.9" cy="317.0" r="4" fill="#19e5a1" /><circle cx="563.0" cy="317.0" r="4" fill="#19e5a1" /><circle cx="570.1" cy="317.0" r="4" fill="#19e5a1" /><circle cx="577.2" cy="317.0" r="4" fill="#19e5a1" /><circle cx="584.3" cy="317.0" r="4" fill="#19e5a1" /><circle cx="591.4" cy="317.0" r="4" fill="#19e5a1" /><circle cx="598.5" cy="317.0" r="4" fill="#19e5a1" /><circle cx="605.6" cy="317.0" r="4" fill="#19e5a1" /><circle cx="612.7" cy="317.0" r="4" fill="#19e5a1" /><circle cx="619.8" cy="317.0" r="4" fill="#19e5a1" /><circle cx="626.9" cy="317.0" r="4" fill="#19e5a1" /><circle cx="634.0" cy="317.0" r="4" fill="#19e5a1" /><circle cx="641.1" cy="317.0" r="4" fill="#19e5a1" /><circle cx="648.2" cy="317.0" r="4" fill="#19e5a1" /><circle cx="655.3" cy="317.0" r="4" fill="#19e5a1" /><circle cx="662.4" cy="317.0" r="4" fill="#19e5a1" /><circle cx="669.5" cy="317.0" r="4" fill="#19e5a1" /><circle cx="676.6" cy="317.0" r="4" fill="#19e5a1" /><circle cx="683.7" cy="317.0" r="4" fill="#19e5a1" /><circle cx="690.8" cy="317.0" r="4" fill="#19e5a1" /><circle cx="697.9" cy="317.0" r="4" fill="#19e5a1" /><circle cx="705.0" cy="317.0" r="4" fill="#19e5a1" /><circle cx="712.1" cy="317.0" r="4" fill="#19e5a1" /><circle cx="719.3" cy="317.0" r="4" fill="#19e5a1" /><circle cx="726.4" cy="317.0" r="4" fill="#19e5a1" /><circle cx="733.5" cy="317.0" r="4" fill="#19e5a1" /><circle cx="740.6" cy="317.0" r="4" fill="#19e5a1" /><circle cx="747.7" cy="317.0" r="4" fill="#19e5a1" /><circle cx="754.8" cy="317.0" r="4" fill="#19e5a1" /><circle cx="761.9" cy="317.0" r="4" fill="#19e5a1" /><circle cx="769.0" cy="317.0" r="4" fill="#19e5a1" /><circle cx="776.1" cy="317.0" r="4" fill="#19e5a1" /><circle cx="783.2" cy="317.0" r="4" fill="#19e5a1" /><circle cx="790.3" cy="317.0" r="4" fill="#19e5a1" /><circle cx="797.4" cy="317.0" r="4" fill="#19e5a1" /><circle cx="804.5" cy="317.0" r="4" fill="#19e5a1" /><circle cx="811.6" cy="317.0" r="4" fill="#19e5a1" /><circle cx="818.7" cy="317.0" r="4" fill="#19e5a1" /><circle cx="825.8" cy="317.0" r="4" fill="#19e5a1" /><circle cx="832.9" cy="317.0" r="4" fill="#19e5a1" /><circle cx="840.0" cy="317.0" r="4" fill="#19e5a1" /><polyline points="80.0,313.2 87.1,312.2 94.2,312.1 101.3,312.4 108.4,312.4 115.5,312.4 122.6,312.1 129.7,312.0 136.8,311.9 143.9,311.9 151.0,311.8 158.1,311.8 165.2,311.5 172.3,311.5 179.4,311.5 186.5,311.2 193.6,311.2 200.7,311.1 207.9,311.1 215.0,311.1 222.1,310.9 229.2,311.0 236.3,310.8 243.4,310.8 250.5,310.8 257.6,310.8 264.7,310.4 271.8,310.2 278.9,310.4 286.0,310.4 293.1,310.4 300.2,310.4 307.3,310.4 314.4,310.2 321.5,310.2 328.6,310.1 335.7,310.1 342.8,309.8 349.9,309.6 357.0,309.6 364.1,309.6 371.2,309.6 378.3,309.5 385.4,309.4 392.5,309.4 399.6,309.4 406.7,309.4 413.8,309.2 420.9,309.2 428.0,309.2 435.1,309.4 442.2,309.4 449.3,309.5 456.4,309.2 463.6,309.2 470.7,309.4 477.8,309.2 484.9,309.2 492.0,309.2 499.1,309.2 506.2,309.2 513.3,309.1 520.4,309.1 527.5,309.1 534.6,309.1 541.7,309.0 548.8,309.0 555.9,308.9 563.0,308.9 570.1,308.9 577.2,308.6 584.3,308.6 591.4,308.6 598.5,308.6 605.6,308.6 612.7,308.6 619.8,308.6 626.9,308.6 634.0,308.6 641.1,308.6 648.2,308.6 655.3,308.6 662.4,308.6 669.5,307.8 676.6,307.8 683.7,307.6 690.8,307.6 697.9,307.6 705.0,307.5 712.1,307.5 719.3,307.6 726.4,308.5 733.5,308.5 740.6,308.4 747.7,308.4 754.8,307.5 761.9,307.5 769.0,307.2 776.1,307.1 783.2,307.1 790.3,307.1 797.4,307.0 804.5,306.8 811.6,306.6 818.7,306.6 825.8,306.5 832.9,306.5 840.0,306.5" fill="none" stroke="#6eb6ec" stroke-width="2.5" stroke-linecap="round" stroke-linejoin="round" /><circle cx="80.0" cy="313.2" r="4" fill="#6eb6ec" /><circle cx="87.1" cy="312.2" r="4" fill="#6eb6ec" /><circle cx="94.2" cy="312.1" r="4" fill="#6eb6ec" /><circle cx="101.3" cy="312.4" r="4" fill="#6eb6ec" /><circle cx="108.4" cy="312.4" r="4" fill="#6eb6ec" /><circle cx="115.5" cy="312.4" r="4" fill="#6eb6ec" /><circle cx="122.6" cy="312.1" r="4" fill="#6eb6ec" /><circle cx="129.7" cy="312.0" r="4" fill="#6eb6ec" /><circle cx="136.8" cy="311.9" r="4" fill="#6eb6ec" /><circle cx="143.9" cy="311.9" r="4" fill="#6eb6ec" /><circle cx="151.0" cy="311.8" r="4" fill="#6eb6ec" /><circle cx="158.1" cy="311.8" r="4" fill="#6eb6ec" /><circle cx="165.2" cy="311.5" r="4" fill="#6eb6ec" /><circle cx="172.3" cy="311.5" r="4" fill="#6eb6ec" /><circle cx="179.4" cy="311.5" r="4" fill="#6eb6ec" /><circle cx="186.5" cy="311.2" r="4" fill="#6eb6ec" /><circle cx="193.6" cy="311.2" r="4" fill="#6eb6ec" /><circle cx="200.7" cy="311.1" r="4" fill="#6eb6ec" /><circle cx="207.9" cy="311.1" r="4" fill="#6eb6ec" /><circle cx="215.0" cy="311.1" r="4" fill="#6eb6ec" /><circle cx="222.1" cy="310.9" r="4" fill="#6eb6ec" /><circle cx="229.2" cy="311.0" r="4" fill="#6eb6ec" /><circle cx="236.3" cy="310.8" r="4" fill="#6eb6ec" /><circle cx="243.4" cy="310.8" r="4" fill="#6eb6ec" /><circle cx="250.5" cy="310.8" r="4" fill="#6eb6ec" /><circle cx="257.6" cy="310.8" r="4" fill="#6eb6ec" /><circle cx="264.7" cy="310.4" r="4" fill="#6eb6ec" /><circle cx="271.8" cy="310.2" r="4" fill="#6eb6ec" /><circle cx="278.9" cy="310.4" r="4" fill="#6eb6ec" /><circle cx="286.0" cy="310.4" r="4" fill="#6eb6ec" /><circle cx="293.1" cy="310.4" r="4" fill="#6eb6ec" /><circle cx="300.2" cy="310.4" r="4" fill="#6eb6ec" /><circle cx="307.3" cy="310.4" r="4" fill="#6eb6ec" /><circle cx="314.4" cy="310.2" r="4" fill="#6eb6ec" /><circle cx="321.5" cy="310.2" r="4" fill="#6eb6ec" /><circle cx="328.6" cy="310.1" r="4" fill="#6eb6ec" /><circle cx="335.7" cy="310.1" r="4" fill="#6eb6ec" /><circle cx="342.8" cy="309.8" r="4" fill="#6eb6ec" /><circle cx="349.9" cy="309.6" r="4" fill="#6eb6ec" /><circle cx="357.0" cy="309.6" r="4" fill="#6eb6ec" /><circle cx="364.1" cy="309.6" r="4" fill="#6eb6ec" /><circle cx="371.2" cy="309.6" r="4" fill="#6eb6ec" /><circle cx="378.3" cy="309.5" r="4" fill="#6eb6ec" /><circle cx="385.4" cy="309.4" r="4" fill="#6eb6ec" /><circle cx="392.5" cy="309.4" r="4" fill="#6eb6ec" /><circle cx="399.6" cy="309.4" r="4" fill="#6eb6ec" /><circle cx="406.7" cy="309.4" r="4" fill="#6eb6ec" /><circle cx="413.8" cy="309.2" r="4" fill="#6eb6ec" /><circle cx="420.9" cy="309.2" r="4" fill="#6eb6ec" /><circle cx="428.0" cy="309.2" r="4" fill="#6eb6ec" /><circle cx="435.1" cy="309.4" r="4" fill="#6eb6ec" /><circle cx="442.2" cy="309.4" r="4" fill="#6eb6ec" /><circle cx="449.3" cy="309.5" r="4" fill="#6eb6ec" /><circle cx="456.4" cy="309.2" r="4" fill="#6eb6ec" /><circle cx="463.6" cy="309.2" r="4" fill="#6eb6ec" /><circle cx="470.7" cy="309.4" r="4" fill="#6eb6ec" /><circle cx="477.8" cy="309.2" r="4" fill="#6eb6ec" /><circle cx="484.9" cy="309.2" r="4" fill="#6eb6ec" /><circle cx="492.0" cy="309.2" r="4" fill="#6eb6ec" /><circle cx="499.1" cy="309.2" r="4" fill="#6eb6ec" /><circle cx="506.2" cy="309.2" r="4" fill="#6eb6ec" /><circle cx="513.3" cy="309.1" r="4" fill="#6eb6ec" /><circle cx="520.4" cy="309.1" r="4" fill="#6eb6ec" /><circle cx="527.5" cy="309.1" r="4" fill="#6eb6ec" /><circle cx="534.6" cy="309.1" r="4" fill="#6eb6ec" /><circle cx="541.7" cy="309.0" r="4" fill="#6eb6ec" /><circle cx="548.8" cy="309.0" r="4" fill="#6eb6ec" /><circle cx="555.9" cy="308.9" r="4" fill="#6eb6ec" /><circle cx="563.0" cy="308.9" r="4" fill="#6eb6ec" /><circle cx="570.1" cy="308.9" r="4" fill="#6eb6ec" /><circle cx="577.2" cy="308.6" r="4" fill="#6eb6ec" /><circle cx="584.3" cy="308.6" r="4" fill="#6eb6ec" /><circle cx="591.4" cy="308.6" r="4" fill="#6eb6ec" /><circle cx="598.5" cy="308.6" r="4" fill="#6eb6ec" /><circle cx="605.6" cy="308.6" r="4" fill="#6eb6ec" /><circle cx="612.7" cy="308.6" r="4" fill="#6eb6ec" /><circle cx="619.8" cy="308.6" r="4" fill="#6eb6ec" /><circle cx="626.9" cy="308.6" r="4" fill="#6eb6ec" /><circle cx="634.0" cy="308.6" r="4" fill="#6eb6ec" /><circle cx="641.1" cy="308.6" r="4" fill="#6eb6ec" /><circle cx="648.2" cy="308.6" r="4" fill="#6eb6ec" /><circle cx="655.3" cy="308.6" r="4" fill="#6eb6ec" /><circle cx="662.4" cy="308.6" r="4" fill="#6eb6ec" /><circle cx="669.5" cy="307.8" r="4" fill="#6eb6ec" /><circle cx="676.6" cy="307.8" r="4" fill="#6eb6ec" /><circle cx="683.7" cy="307.6" r="4" fill="#6eb6ec" /><circle cx="690.8" cy="307.6" r="4" fill="#6eb6ec" /><circle cx="697.9" cy="307.6" r="4" fill="#6eb6ec" /><circle cx="705.0" cy="307.5" r="4" fill="#6eb6ec" /><circle cx="712.1" cy="307.5" r="4" fill="#6eb6ec" /><circle cx="719.3" cy="307.6" r="4" fill="#6eb6ec" /><circle cx="726.4" cy="308.5" r="4" fill="#6eb6ec" /><circle cx="733.5" cy="308.5" r="4" fill="#6eb6ec" /><circle cx="740.6" cy="308.4" r="4" fill="#6eb6ec" /><circle cx="747.7" cy="308.4" r="4" fill="#6eb6ec" /><circle cx="754.8" cy="307.5" r="4" fill="#6eb6ec" /><circle cx="761.9" cy="307.5" r="4" fill="#6eb6ec" /><circle cx="769.0" cy="307.2" r="4" fill="#6eb6ec" /><circle cx="776.1" cy="307.1" r="4" fill="#6eb6ec" /><circle cx="783.2" cy="307.1" r="4" fill="#6eb6ec" /><circle cx="790.3" cy="307.1" r="4" fill="#6eb6ec" /><circle cx="797.4" cy="307.0" r="4" fill="#6eb6ec" /><circle cx="804.5" cy="306.8" r="4" fill="#6eb6ec" /><circle cx="811.6" cy="306.6" r="4" fill="#6eb6ec" /><circle cx="818.7" cy="306.6" r="4" fill="#6eb6ec" /><circle cx="825.8" cy="306.5" r="4" fill="#6eb6ec" /><circle cx="832.9" cy="306.5" r="4" fill="#6eb6ec" /><circle cx="840.0" cy="306.5" r="4" fill="#6eb6ec" /><polyline points="80.0,305.8 87.1,305.8 94.2,305.8 101.3,305.8 108.4,305.8 115.5,305.8 122.6,305.8 129.7,305.8 136.8,305.8 143.9,305.8 151.0,304.9 158.1,304.9 165.2,304.9 172.3,304.9 179.4,304.9 186.5,304.9 193.6,304.9 200.7,304.9 207.9,304.9 215.0,304.9 222.1,304.9 229.2,304.9 236.3,304.9 243.4,304.9 250.5,304.9 257.6,304.9 264.7,304.9 271.8,304.9 278.9,304.9 286.0,304.9 293.1,304.9 300.2,304.9 307.3,304.9 314.4,304.9 321.5,304.9 328.6,304.9 335.7,304.9 342.8,303.6 349.9,303.6 357.0,303.6 364.1,303.6 371.2,303.6 378.3,303.6 385.4,303.6 392.5,303.6 399.6,303.6 406.7,303.6 413.8,303.6 420.9,303.6 428.0,303.6 435.1,303.6 442.2,302.9 449.3,302.9 456.4,298.0 463.6,298.0 470.7,298.0 477.8,298.0 484.9,298.0 492.0,298.0 499.1,298.0 506.2,298.0 513.3,298.0 520.4,298.0 527.5,298.0 534.6,298.0 541.7,298.0 548.8,298.0 555.9,297.8 563.0,297.8 570.1,297.8 577.2,297.8 584.3,297.8 591.4,297.8 598.5,297.8 605.6,297.8 612.7,297.8 619.8,297.8 626.9,297.8 634.0,297.8 641.1,297.8 648.2,297.8 655.3,297.8 662.4,297.8 669.5,297.8 676.6,297.8 683.7,297.8 690.8,297.6 697.9,297.8 705.0,297.8 712.1,297.8 719.3,297.9 726.4,297.9 733.5,297.9 740.6,296.1 747.7,296.1 754.8,296.1 761.9,296.1 769.0,296.1 776.1,296.1 783.2,296.1 790.3,296.1 797.4,296.1 804.5,296.1 811.6,295.0 818.7,295.0 825.8,295.0 832.9,295.0 840.0,295.0" fill="none" stroke="#5938e2" stroke-width="2.5" stroke-linecap="round" stroke-linejoin="round" /><circle cx="80.0" cy="305.8" r="4" fill="#5938e2" /><circle cx="87.1" cy="305.8" r="4" fill="#5938e2" /><circle cx="94.2" cy="305.8" r="4" fill="#5938e2" /><circle cx="101.3" cy="305.8" r="4" fill="#5938e2" /><circle cx="108.4" cy="305.8" r="4" fill="#5938e2" /><circle cx="115.5" cy="305.8" r="4" fill="#5938e2" /><circle cx="122.6" cy="305.8" r="4" fill="#5938e2" /><circle cx="129.7" cy="305.8" r="4" fill="#5938e2" /><circle cx="136.8" cy="305.8" r="4" fill="#5938e2" /><circle cx="143.9" cy="305.8" r="4" fill="#5938e2" /><circle cx="151.0" cy="304.9" r="4" fill="#5938e2" /><circle cx="158.1" cy="304.9" r="4" fill="#5938e2" /><circle cx="165.2" cy="304.9" r="4" fill="#5938e2" /><circle cx="172.3" cy="304.9" r="4" fill="#5938e2" /><circle cx="179.4" cy="304.9" r="4" fill="#5938e2" /><circle cx="186.5" cy="304.9" r="4" fill="#5938e2" /><circle cx="193.6" cy="304.9" r="4" fill="#5938e2" /><circle cx="200.7" cy="304.9" r="4" fill="#5938e2" /><circle cx="207.9" cy="304.9" r="4" fill="#5938e2" /><circle cx="215.0" cy="304.9" r="4" fill="#5938e2" /><circle cx="222.1" cy="304.9" r="4" fill="#5938e2" /><circle cx="229.2" cy="304.9" r="4" fill="#5938e2" /><circle cx="236.3" cy="304.9" r="4" fill="#5938e2" /><circle cx="243.4" cy="304.9" r="4" fill="#5938e2" /><circle cx="250.5" cy="304.9" r="4" fill="#5938e2" /><circle cx="257.6" cy="304.9" r="4" fill="#5938e2" /><circle cx="264.7" cy="304.9" r="4" fill="#5938e2" /><circle cx="271.8" cy="304.9" r="4" fill="#5938e2" /><circle cx="278.9" cy="304.9" r="4" fill="#5938e2" /><circle cx="286.0" cy="304.9" r="4" fill="#5938e2" /><circle cx="293.1" cy="304.9" r="4" fill="#5938e2" /><circle cx="300.2" cy="304.9" r="4" fill="#5938e2" /><circle cx="307.3" cy="304.9" r="4" fill="#5938e2" /><circle cx="314.4" cy="304.9" r="4" fill="#5938e2" /><circle cx="321.5" cy="304.9" r="4" fill="#5938e2" /><circle cx="328.6" cy="304.9" r="4" fill="#5938e2" /><circle cx="335.7" cy="304.9" r="4" fill="#5938e2" /><circle cx="342.8" cy="303.6" r="4" fill="#5938e2" /><circle cx="349.9" cy="303.6" r="4" fill="#5938e2" /><circle cx="357.0" cy="303.6" r="4" fill="#5938e2" /><circle cx="364.1" cy="303.6" r="4" fill="#5938e2" /><circle cx="371.2" cy="303.6" r="4" fill="#5938e2" /><circle cx="378.3" cy="303.6" r="4" fill="#5938e2" /><circle cx="385.4" cy="303.6" r="4" fill="#5938e2" /><circle cx="392.5" cy="303.6" r="4" fill="#5938e2" /><circle cx="399.6" cy="303.6" r="4" fill="#5938e2" /><circle cx="406.7" cy="303.6" r="4" fill="#5938e2" /><circle cx="413.8" cy="303.6" r="4" fill="#5938e2" /><circle cx="420.9" cy="303.6" r="4" fill="#5938e2" /><circle cx="428.0" cy="303.6" r="4" fill="#5938e2" /><circle cx="435.1" cy="303.6" r="4" fill="#5938e2" /><circle cx="442.2" cy="302.9" r="4" fill="#5938e2" /><circle cx="449.3" cy="302.9" r="4" fill="#5938e2" /><circle cx="456.4" cy="298.0" r="4" fill="#5938e2" /><circle cx="463.6" cy="298.0" r="4" fill="#5938e2" /><circle cx="470.7" cy="298.0" r="4" fill="#5938e2" /><circle cx="477.8" cy="298.0" r="4" fill="#5938e2" /><circle cx="484.9" cy="298.0" r="4" fill="#5938e2" /><circle cx="492.0" cy="298.0" r="4" fill="#5938e2" /><circle cx="499.1" cy="298.0" r="4" fill="#5938e2" /><circle cx="506.2" cy="298.0" r="4" fill="#5938e2" /><circle cx="513.3" cy="298.0" r="4" fill="#5938e2" /><circle cx="520.4" cy="298.0" r="4" fill="#5938e2" /><circle cx="527.5" cy="298.0" r="4" fill="#5938e2" /><circle cx="534.6" cy="298.0" r="4" fill="#5938e2" /><circle cx="541.7" cy="298.0" r="4" fill="#5938e2" /><circle cx="548.8" cy="298.0" r="4" fill="#5938e2" /><circle cx="555.9" cy="297.8" r="4" fill="#5938e2" /><circle cx="563.0" cy="297.8" r="4" fill="#5938e2" /><circle cx="570.1" cy="297.8" r="4" fill="#5938e2" /><circle cx="577.2" cy="297.8" r="4" fill="#5938e2" /><circle cx="584.3" cy="297.8" r="4" fill="#5938e2" /><circle cx="591.4" cy="297.8" r="4" fill="#5938e2" /><circle cx="598.5" cy="297.8" r="4" fill="#5938e2" /><circle cx="605.6" cy="297.8" r="4" fill="#5938e2" /><circle cx="612.7" cy="297.8" r="4" fill="#5938e2" /><circle cx="619.8" cy="297.8" r="4" fill="#5938e2" /><circle cx="626.9" cy="297.8" r="4" fill="#5938e2" /><circle cx="634.0" cy="297.8" r="4" fill="#5938e2" /><circle cx="641.1" cy="297.8" r="4" fill="#5938e2" /><circle cx="648.2" cy="297.8" r="4" fill="#5938e2" /><circle cx="655.3" cy="297.8" r="4" fill="#5938e2" /><circle cx="662.4" cy="297.8" r="4" fill="#5938e2" /><circle cx="669.5" cy="297.8" r="4" fill="#5938e2" /><circle cx="676.6" cy="297.8" r="4" fill="#5938e2" /><circle cx="683.7" cy="297.8" r="4" fill="#5938e2" /><circle cx="690.8" cy="297.6" r="4" fill="#5938e2" /><circle cx="697.9" cy="297.8" r="4" fill="#5938e2" /><circle cx="705.0" cy="297.8" r="4" fill="#5938e2" /><circle cx="712.1" cy="297.8" r="4" fill="#5938e2" /><circle cx="719.3" cy="297.9" r="4" fill="#5938e2" /><circle cx="726.4" cy="297.9" r="4" fill="#5938e2" /><circle cx="733.5" cy="297.9" r="4" fill="#5938e2" /><circle cx="740.6" cy="296.1" r="4" fill="#5938e2" /><circle cx="747.7" cy="296.1" r="4" fill="#5938e2" /><circle cx="754.8" cy="296.1" r="4" fill="#5938e2" /><circle cx="761.9" cy="296.1" r="4" fill="#5938e2" /><circle cx="769.0" cy="296.1" r="4" fill="#5938e2" /><circle cx="776.1" cy="296.1" r="4" fill="#5938e2" /><circle cx="783.2" cy="296.1" r="4" fill="#5938e2" /><circle cx="790.3" cy="296.1" r="4" fill="#5938e2" /><circle cx="797.4" cy="296.1" r="4" fill="#5938e2" /><circle cx="804.5" cy="296.1" r="4" fill="#5938e2" /><circle cx="811.6" cy="295.0" r="4" fill="#5938e2" /><circle cx="818.7" cy="295.0" r="4" fill="#5938e2" /><circle cx="825.8" cy="295.0" r="4" fill="#5938e2" /><circle cx="832.9" cy="295.0" r="4" fill="#5938e2" /><circle cx="840.0" cy="295.0" r="4" fill="#5938e2" /><polyline points="80.0,144.6 87.1,140.1 94.2,139.9 101.3,139.8 108.4,139.8 115.5,139.6 122.6,139.6 129.7,139.6 136.8,139.6 143.9,139.6 151.0,138.4 158.1,138.4 165.2,138.4 172.3,138.4 179.4,138.4 186.5,138.4 193.6,138.4 200.7,137.4 207.9,137.4 215.0,137.4 222.1,137.4 229.2,137.4 236.3,137.4 243.4,137.4 250.5,137.4 257.6,137.4 264.7,137.4 271.8,137.4 278.9,131.2 286.0,131.2 293.1,130.8 300.2,130.4 307.3,126.9 314.4,126.9 321.5,126.9 328.6,126.9 335.7,126.9 342.8,126.9 349.9,126.9 357.0,126.9 364.1,126.9 371.2,126.8 378.3,122.1 385.4,120.4 392.5,120.4 399.6,120.4 406.7,120.4 413.8,120.4 420.9,119.4 428.0,119.4 435.1,119.4 442.2,119.4 449.3,119.1 456.4,118.8 463.6,118.8 470.7,117.8 477.8,117.8 484.9,117.8 492.0,115.8 499.1,115.8 506.2,115.0 513.3,115.0 520.4,115.0 527.5,115.0 534.6,115.0 541.7,115.0 548.8,115.0 555.9,113.9 563.0,111.8 570.1,111.8 577.2,111.8 584.3,111.8 591.4,111.8 598.5,111.8 605.6,111.8 612.7,111.8 619.8,111.8 626.9,111.8 634.0,110.6 641.1,110.6 648.2,110.6 655.3,110.6 662.4,110.6 669.5,109.4 676.6,109.4 683.7,109.4 690.8,109.4 697.9,109.2 705.0,109.2 712.1,109.2 719.3,109.2 726.4,109.2 733.5,109.2 740.6,109.2 747.7,109.2 754.8,109.2 761.9,109.2 769.0,109.2 776.1,109.2 783.2,109.2 790.3,109.2 797.4,109.2 804.5,109.1 811.6,103.5 818.7,103.5 825.8,103.5 832.9,101.5 840.0,101.5" fill="none" stroke="#60e5e0" stroke-width="2.5" stroke-linecap="round" stroke-linejoin="round" /><circle cx="80.0" cy="144.6" r="4" fill="#60e5e0" /><circle cx="87.1" cy="140.1" r="4" fill="#60e5e0" /><circle cx="94.2" cy="139.9" r="4" fill="#60e5e0" /><circle cx="101.3" cy="139.8" r="4" fill="#60e5e0" /><circle cx="108.4" cy="139.8" r="4" fill="#60e5e0" /><circle cx="115.5" cy="139.6" r="4" fill="#60e5e0" /><circle cx="122.6" cy="139.6" r="4" fill="#60e5e0" /><circle cx="129.7" cy="139.6" r="4" fill="#60e5e0" /><circle cx="136.8" cy="139.6" r="4" fill="#60e5e0" /><circle cx="143.9" cy="139.6" r="4" fill="#60e5e0" /><circle cx="151.0" cy="138.4" r="4" fill="#60e5e0" /><circle cx="158.1" cy="138.4" r="4" fill="#60e5e0" /><circle cx="165.2" cy="138.4" r="4" fill="#60e5e0" /><circle cx="172.3" cy="138.4" r="4" fill="#60e5e0" /><circle cx="179.4" cy="138.4" r="4" fill="#60e5e0" /><circle cx="186.5" cy="138.4" r="4" fill="#60e5e0" /><circle cx="193.6" cy="138.4" r="4" fill="#60e5e0" /><circle cx="200.7" cy="137.4" r="4" fill="#60e5e0" /><circle cx="207.9" cy="137.4" r="4" fill="#60e5e0" /><circle cx="215.0" cy="137.4" r="4" fill="#60e5e0" /><circle cx="222.1" cy="137.4" r="4" fill="#60e5e0" /><circle cx="229.2" cy="137.4" r="4" fill="#60e5e0" /><circle cx="236.3" cy="137.4" r="4" fill="#60e5e0" /><circle cx="243.4" cy="137.4" r="4" fill="#60e5e0" /><circle cx="250.5" cy="137.4" r="4" fill="#60e5e0" /><circle cx="257.6" cy="137.4" r="4" fill="#60e5e0" /><circle cx="264.7" cy="137.4" r="4" fill="#60e5e0" /><circle cx="271.8" cy="137.4" r="4" fill="#60e5e0" /><circle cx="278.9" cy="131.2" r="4" fill="#60e5e0" /><circle cx="286.0" cy="131.2" r="4" fill="#60e5e0" /><circle cx="293.1" cy="130.8" r="4" fill="#60e5e0" /><circle cx="300.2" cy="130.4" r="4" fill="#60e5e0" /><circle cx="307.3" cy="126.9" r="4" fill="#60e5e0" /><circle cx="314.4" cy="126.9" r="4" fill="#60e5e0" /><circle cx="321.5" cy="126.9" r="4" fill="#60e5e0" /><circle cx="328.6" cy="126.9" r="4" fill="#60e5e0" /><circle cx="335.7" cy="126.9" r="4" fill="#60e5e0" /><circle cx="342.8" cy="126.9" r="4" fill="#60e5e0" /><circle cx="349.9" cy="126.9" r="4" fill="#60e5e0" /><circle cx="357.0" cy="126.9" r="4" fill="#60e5e0" /><circle cx="364.1" cy="126.9" r="4" fill="#60e5e0" /><circle cx="371.2" cy="126.8" r="4" fill="#60e5e0" /><circle cx="378.3" cy="122.1" r="4" fill="#60e5e0" /><circle cx="385.4" cy="120.4" r="4" fill="#60e5e0" /><circle cx="392.5" cy="120.4" r="4" fill="#60e5e0" /><circle cx="399.6" cy="120.4" r="4" fill="#60e5e0" /><circle cx="406.7" cy="120.4" r="4" fill="#60e5e0" /><circle cx="413.8" cy="120.4" r="4" fill="#60e5e0" /><circle cx="420.9" cy="119.4" r="4" fill="#60e5e0" /><circle cx="428.0" cy="119.4" r="4" fill="#60e5e0" /><circle cx="435.1" cy="119.4" r="4" fill="#60e5e0" /><circle cx="442.2" cy="119.4" r="4" fill="#60e5e0" /><circle cx="449.3" cy="119.1" r="4" fill="#60e5e0" /><circle cx="456.4" cy="118.8" r="4" fill="#60e5e0" /><circle cx="463.6" cy="118.8" r="4" fill="#60e5e0" /><circle cx="470.7" cy="117.8" r="4" fill="#60e5e0" /><circle cx="477.8" cy="117.8" r="4" fill="#60e5e0" /><circle cx="484.9" cy="117.8" r="4" fill="#60e5e0" /><circle cx="492.0" cy="115.8" r="4" fill="#60e5e0" /><circle cx="499.1" cy="115.8" r="4" fill="#60e5e0" /><circle cx="506.2" cy="115.0" r="4" fill="#60e5e0" /><circle cx="513.3" cy="115.0" r="4" fill="#60e5e0" /><circle cx="520.4" cy="115.0" r="4" fill="#60e5e0" /><circle cx="527.5" cy="115.0" r="4" fill="#60e5e0" /><circle cx="534.6" cy="115.0" r="4" fill="#60e5e0" /><circle cx="541.7" cy="115.0" r="4" fill="#60e5e0" /><circle cx="548.8" cy="115.0" r="4" fill="#60e5e0" /><circle cx="555.9" cy="113.9" r="4" fill="#60e5e0" /><circle cx="563.0" cy="111.8" r="4" fill="#60e5e0" /><circle cx="570.1" cy="111.8" r="4" fill="#60e5e0" /><circle cx="577.2" cy="111.8" r="4" fill="#60e5e0" /><circle cx="584.3" cy="111.8" r="4" fill="#60e5e0" /><circle cx="591.4" cy="111.8" r="4" fill="#60e5e0" /><circle cx="598.5" cy="111.8" r="4" fill="#60e5e0" /><circle cx="605.6" cy="111.8" r="4" fill="#60e5e0" /><circle cx="612.7" cy="111.8" r="4" fill="#60e5e0" /><circle cx="619.8" cy="111.8" r="4" fill="#60e5e0" /><circle cx="626.9" cy="111.8" r="4" fill="#60e5e0" /><circle cx="634.0" cy="110.6" r="4" fill="#60e5e0" /><circle cx="641.1" cy="110.6" r="4" fill="#60e5e0" /><circle cx="648.2" cy="110.6" r="4" fill="#60e5e0" /><circle cx="655.3" cy="110.6" r="4" fill="#60e5e0" /><circle cx="662.4" cy="110.6" r="4" fill="#60e5e0" /><circle cx="669.5" cy="109.4" r="4" fill="#60e5e0" /><circle cx="676.6" cy="109.4" r="4" fill="#60e5e0" /><circle cx="683.7" cy="109.4" r="4" fill="#60e5e0" /><circle cx="690.8" cy="109.4" r="4" fill="#60e5e0" /><circle cx="697.9" cy="109.2" r="4" fill="#60e5e0" /><circle cx="705.0" cy="109.2" r="4" fill="#60e5e0" /><circle cx="712.1" cy="109.2" r="4" fill="#60e5e0" /><circle cx="719.3" cy="109.2" r="4" fill="#60e5e0" /><circle cx="726.4" cy="109.2" r="4" fill="#60e5e0" /><circle cx="733.5" cy="109.2" r="4" fill="#60e5e0" /><circle cx="740.6" cy="109.2" r="4" fill="#60e5e0" /><circle cx="747.7" cy="109.2" r="4" fill="#60e5e0" /><circle cx="754.8" cy="109.2" r="4" fill="#60e5e0" /><circle cx="761.9" cy="109.2" r="4" fill="#60e5e0" /><circle cx="769.0" cy="109.2" r="4" fill="#60e5e0" /><circle cx="776.1" cy="109.2" r="4" fill="#60e5e0" /><circle cx="783.2" cy="109.2" r="4" fill="#60e5e0" /><circle cx="790.3" cy="109.2" r="4" fill="#60e5e0" /><circle cx="797.4" cy="109.2" r="4" fill="#60e5e0" /><circle cx="804.5" cy="109.1" r="4" fill="#60e5e0" /><circle cx="811.6" cy="103.5" r="4" fill="#60e5e0" /><circle cx="818.7" cy="103.5" r="4" fill="#60e5e0" /><circle cx="825.8" cy="103.5" r="4" fill="#60e5e0" /><circle cx="832.9" cy="101.5" r="4" fill="#60e5e0" /><circle cx="840.0" cy="101.5" r="4" fill="#60e5e0" /><polyline points="80.0,314.6 87.1,314.4 94.2,314.2 101.3,314.2 108.4,314.2 115.5,314.1 122.6,314.1 129.7,314.1 136.8,314.1 143.9,314.1 151.0,314.0 158.1,314.0 165.2,314.0 172.3,314.0 179.4,314.0 186.5,314.0 193.6,314.0 200.7,314.0 207.9,314.0 215.0,314.0 222.1,314.0 229.2,314.0 236.3,314.0 243.4,314.0 250.5,314.0 257.6,314.0 264.7,314.0 271.8,314.0 278.9,314.0 286.0,314.0 293.1,314.0 300.2,314.0 307.3,314.0 314.4,314.0 321.5,314.0 328.6,314.0 335.7,314.0 342.8,314.0 349.9,314.0 357.0,314.0 364.1,314.0 371.2,313.9 378.3,313.6 385.4,313.4 392.5,313.4 399.6,313.4 406.7,313.4 413.8,313.4 420.9,313.1 428.0,313.1 435.1,313.1 442.2,313.1 449.3,313.1 456.4,313.0 463.6,313.0 470.7,312.9 477.8,312.9 484.9,312.9 492.0,312.8 499.1,312.8 506.2,312.6 513.3,312.6 520.4,312.6 527.5,312.6 534.6,312.6 541.7,312.6 548.8,312.6 555.9,312.5 563.0,312.1 570.1,312.1 577.2,312.1 584.3,312.1 591.4,312.1 598.5,312.1 605.6,312.1 612.7,312.1 619.8,312.1 626.9,312.1 634.0,312.0 641.1,312.0 648.2,312.0 655.3,312.0 662.4,312.0 669.5,312.0 676.6,312.0 683.7,312.0 690.8,312.0 697.9,312.0 705.0,312.0 712.1,312.0 719.3,312.0 726.4,312.0 733.5,312.0 740.6,312.0 747.7,312.0 754.8,312.0 761.9,312.0 769.0,312.0 776.1,312.0 783.2,312.0 790.3,312.0 797.4,312.0 804.5,312.0 811.6,311.9 818.7,311.9 825.8,311.9 832.9,311.8 840.0,311.8" fill="none" stroke="#567de1" stroke-width="2.5" stroke-linecap="round" stroke-linejoin="round" /><circle cx="80.0" cy="314.6" r="4" fill="#567de1" /><circle cx="87.1" cy="314.4" r="4" fill="#567de1" /><circle cx="94.2" cy="314.2" r="4" fill="#567de1" /><circle cx="101.3" cy="314.2" r="4" fill="#567de1" /><circle cx="108.4" cy="314.2" r="4" fill="#567de1" /><circle cx="115.5" cy="314.1" r="4" fill="#567de1" /><circle cx="122.6" cy="314.1" r="4" fill="#567de1" /><circle cx="129.7" cy="314.1" r="4" fill="#567de1" /><circle cx="136.8" cy="314.1" r="4" fill="#567de1" /><circle cx="143.9" cy="314.1" r="4" fill="#567de1" /><circle cx="151.0" cy="314.0" r="4" fill="#567de1" /><circle cx="158.1" cy="314.0" r="4" fill="#567de1" /><circle cx="165.2" cy="314.0" r="4" fill="#567de1" /><circle cx="172.3" cy="314.0" r="4" fill="#567de1" /><circle cx="179.4" cy="314.0" r="4" fill="#567de1" /><circle cx="186.5" cy="314.0" r="4" fill="#567de1" /><circle cx="193.6" cy="314.0" r="4" fill="#567de1" /><circle cx="200.7" cy="314.0" r="4" fill="#567de1" /><circle cx="207.9" cy="314.0" r="4" fill="#567de1" /><circle cx="215.0" cy="314.0" r="4" fill="#567de1" /><circle cx="222.1" cy="314.0" r="4" fill="#567de1" /><circle cx="229.2" cy="314.0" r="4" fill="#567de1" /><circle cx="236.3" cy="314.0" r="4" fill="#567de1" /><circle cx="243.4" cy="314.0" r="4" fill="#567de1" /><circle cx="250.5" cy="314.0" r="4" fill="#567de1" /><circle cx="257.6" cy="314.0" r="4" fill="#567de1" /><circle cx="264.7" cy="314.0" r="4" fill="#567de1" /><circle cx="271.8" cy="314.0" r="4" fill="#567de1" /><circle cx="278.9" cy="314.0" r="4" fill="#567de1" /><circle cx="286.0" cy="314.0" r="4" fill="#567de1" /><circle cx="293.1" cy="314.0" r="4" fill="#567de1" /><circle cx="300.2" cy="314.0" r="4" fill="#567de1" /><circle cx="307.3" cy="314.0" r="4" fill="#567de1" /><circle cx="314.4" cy="314.0" r="4" fill="#567de1" /><circle cx="321.5" cy="314.0" r="4" fill="#567de1" /><circle cx="328.6" cy="314.0" r="4" fill="#567de1" /><circle cx="335.7" cy="314.0" r="4" fill="#567de1" /><circle cx="342.8" cy="314.0" r="4" fill="#567de1" /><circle cx="349.9" cy="314.0" r="4" fill="#567de1" /><circle cx="357.0" cy="314.0" r="4" fill="#567de1" /><circle cx="364.1" cy="314.0" r="4" fill="#567de1" /><circle cx="371.2" cy="313.9" r="4" fill="#567de1" /><circle cx="378.3" cy="313.6" r="4" fill="#567de1" /><circle cx="385.4" cy="313.4" r="4" fill="#567de1" /><circle cx="392.5" cy="313.4" r="4" fill="#567de1" /><circle cx="399.6" cy="313.4" r="4" fill="#567de1" /><circle cx="406.7" cy="313.4" r="4" fill="#567de1" /><circle cx="413.8" cy="313.4" r="4" fill="#567de1" /><circle cx="420.9" cy="313.1" r="4" fill="#567de1" /><circle cx="428.0" cy="313.1" r="4" fill="#567de1" /><circle cx="435.1" cy="313.1" r="4" fill="#567de1" /><circle cx="442.2" cy="313.1" r="4" fill="#567de1" /><circle cx="449.3" cy="313.1" r="4" fill="#567de1" /><circle cx="456.4" cy="313.0" r="4" fill="#567de1" /><circle cx="463.6" cy="313.0" r="4" fill="#567de1" /><circle cx="470.7" cy="312.9" r="4" fill="#567de1" /><circle cx="477.8" cy="312.9" r="4" fill="#567de1" /><circle cx="484.9" cy="312.9" r="4" fill="#567de1" /><circle cx="492.0" cy="312.8" r="4" fill="#567de1" /><circle cx="499.1" cy="312.8" r="4" fill="#567de1" /><circle cx="506.2" cy="312.6" r="4" fill="#567de1" /><circle cx="513.3" cy="312.6" r="4" fill="#567de1" /><circle cx="520.4" cy="312.6" r="4" fill="#567de1" /><circle cx="527.5" cy="312.6" r="4" fill="#567de1" /><circle cx="534.6" cy="312.6" r="4" fill="#567de1" /><circle cx="541.7" cy="312.6" r="4" fill="#567de1" /><circle cx="548.8" cy="312.6" r="4" fill="#567de1" /><circle cx="555.9" cy="312.5" r="4" fill="#567de1" /><circle cx="563.0" cy="312.1" r="4" fill="#567de1" /><circle cx="570.1" cy="312.1" r="4" fill="#567de1" /><circle cx="577.2" cy="312.1" r="4" fill="#567de1" /><circle cx="584.3" cy="312.1" r="4" fill="#567de1" /><circle cx="591.4" cy="312.1" r="4" fill="#567de1" /><circle cx="598.5" cy="312.1" r="4" fill="#567de1" /><circle cx="605.6" cy="312.1" r="4" fill="#567de1" /><circle cx="612.7" cy="312.1" r="4" fill="#567de1" /><circle cx="619.8" cy="312.1" r="4" fill="#567de1" /><circle cx="626.9" cy="312.1" r="4" fill="#567de1" /><circle cx="634.0" cy="312.0" r="4" fill="#567de1" /><circle cx="641.1" cy="312.0" r="4" fill="#567de1" /><circle cx="648.2" cy="312.0" r="4" fill="#567de1" /><circle cx="655.3" cy="312.0" r="4" fill="#567de1" /><circle cx="662.4" cy="312.0" r="4" fill="#567de1" /><circle cx="669.5" cy="312.0" r="4" fill="#567de1" /><circle cx="676.6" cy="312.0" r="4" fill="#567de1" /><circle cx="683.7" cy="312.0" r="4" fill="#567de1" /><circle cx="690.8" cy="312.0" r="4" fill="#567de1" /><circle cx="697.9" cy="312.0" r="4" fill="#567de1" /><circle cx="705.0" cy="312.0" r="4" fill="#567de1" /><circle cx="712.1" cy="312.0" r="4" fill="#567de1" /><circle cx="719.3" cy="312.0" r="4" fill="#567de1" /><circle cx="726.4" cy="312.0" r="4" fill="#567de1" /><circle cx="733.5" cy="312.0" r="4" fill="#567de1" /><circle cx="740.6" cy="312.0" r="4" fill="#567de1" /><circle cx="747.7" cy="312.0" r="4" fill="#567de1" /><circle cx="754.8" cy="312.0" r="4" fill="#567de1" /><circle cx="761.9" cy="312.0" r="4" fill="#567de1" /><circle cx="769.0" cy="312.0" r="4" fill="#567de1" /><circle cx="776.1" cy="312.0" r="4" fill="#567de1" /><circle cx="783.2" cy="312.0" r="4" fill="#567de1" /><circle cx="790.3" cy="312.0" r="4" fill="#567de1" /><circle cx="797.4" cy="312.0" r="4" fill="#567de1" /><circle cx="804.5" cy="312.0" r="4" fill="#567de1" /><circle cx="811.6" cy="311.9" r="4" fill="#567de1" /><circle cx="818.7" cy="311.9" r="4" fill="#567de1" /><circle cx="825.8" cy="311.9" r="4" fill="#567de1" /><circle cx="832.9" cy="311.8" r="4" fill="#567de1" /><circle cx="840.0" cy="311.8" r="4" fill="#567de1" /><polyline points="80.0,303.9 87.1,304.2 94.2,304.4 101.3,304.4 108.4,304.4 115.5,304.4 122.6,304.4 129.7,304.4 136.8,304.4 143.9,304.4 151.0,304.4 158.1,304.4 165.2,304.4 172.3,304.4 179.4,304.4 186.5,304.4 193.6,304.4 200.7,304.4 207.9,304.4 215.0,304.4 222.1,304.4 229.2,304.4 236.3,304.4 243.4,304.4 250.5,304.4 257.6,304.4 264.7,304.4 271.8,304.4 278.9,299.1 286.0,299.1 293.1,299.1 300.2,298.9 307.3,295.6 314.4,295.6 321.5,295.6 328.6,295.6 335.7,295.6 342.8,295.6 349.9,295.6 357.0,295.6 364.1,295.6 371.2,295.8 378.3,295.9 385.4,295.9 392.5,295.9 399.6,295.9 406.7,295.9 413.8,295.9 420.9,295.9 428.0,295.9 435.1,295.9 442.2,295.9 449.3,295.9 456.4,295.9 463.6,295.9 470.7,295.9 477.8,295.9 484.9,295.9 492.0,295.8 499.1,295.8 506.2,295.9 513.3,295.9 520.4,295.9 527.5,295.9 534.6,295.9 541.7,295.9 548.8,295.9 555.9,296.0 563.0,296.4 570.1,296.4 577.2,296.4 584.3,296.4 591.4,296.4 598.5,296.4 605.6,296.4 612.7,296.4 619.8,296.4 626.9,296.4 634.0,296.5 641.1,296.5 648.2,296.5 655.3,296.5 662.4,296.5 669.5,296.5 676.6,296.5 683.7,296.5 690.8,296.5 697.9,296.5 705.0,296.5 712.1,296.5 719.3,296.5 726.4,296.5 733.5,296.5 740.6,296.5 747.7,296.5 754.8,296.5 761.9,296.5 769.0,296.5 776.1,296.5 783.2,296.5 790.3,296.5 797.4,296.5 804.5,296.5 811.6,295.0 818.7,295.0 825.8,295.0 832.9,295.1 840.0,295.1" fill="none" stroke="#9754dd" stroke-width="2.5" stroke-linecap="round" stroke-linejoin="round" /><circle cx="80.0" cy="303.9" r="4" fill="#9754dd" /><circle cx="87.1" cy="304.2" r="4" fill="#9754dd" /><circle cx="94.2" cy="304.4" r="4" fill="#9754dd" /><circle cx="101.3" cy="304.4" r="4" fill="#9754dd" /><circle cx="108.4" cy="304.4" r="4" fill="#9754dd" /><circle cx="115.5" cy="304.4" r="4" fill="#9754dd" /><circle cx="122.6" cy="304.4" r="4" fill="#9754dd" /><circle cx="129.7" cy="304.4" r="4" fill="#9754dd" /><circle cx="136.8" cy="304.4" r="4" fill="#9754dd" /><circle cx="143.9" cy="304.4" r="4" fill="#9754dd" /><circle cx="151.0" cy="304.4" r="4" fill="#9754dd" /><circle cx="158.1" cy="304.4" r="4" fill="#9754dd" /><circle cx="165.2" cy="304.4" r="4" fill="#9754dd" /><circle cx="172.3" cy="304.4" r="4" fill="#9754dd" /><circle cx="179.4" cy="304.4" r="4" fill="#9754dd" /><circle cx="186.5" cy="304.4" r="4" fill="#9754dd" /><circle cx="193.6" cy="304.4" r="4" fill="#9754dd" /><circle cx="200.7" cy="304.4" r="4" fill="#9754dd" /><circle cx="207.9" cy="304.4" r="4" fill="#9754dd" /><circle cx="215.0" cy="304.4" r="4" fill="#9754dd" /><circle cx="222.1" cy="304.4" r="4" fill="#9754dd" /><circle cx="229.2" cy="304.4" r="4" fill="#9754dd" /><circle cx="236.3" cy="304.4" r="4" fill="#9754dd" /><circle cx="243.4" cy="304.4" r="4" fill="#9754dd" /><circle cx="250.5" cy="304.4" r="4" fill="#9754dd" /><circle cx="257.6" cy="304.4" r="4" fill="#9754dd" /><circle cx="264.7" cy="304.4" r="4" fill="#9754dd" /><circle cx="271.8" cy="304.4" r="4" fill="#9754dd" /><circle cx="278.9" cy="299.1" r="4" fill="#9754dd" /><circle cx="286.0" cy="299.1" r="4" fill="#9754dd" /><circle cx="293.1" cy="299.1" r="4" fill="#9754dd" /><circle cx="300.2" cy="298.9" r="4" fill="#9754dd" /><circle cx="307.3" cy="295.6" r="4" fill="#9754dd" /><circle cx="314.4" cy="295.6" r="4" fill="#9754dd" /><circle cx="321.5" cy="295.6" r="4" fill="#9754dd" /><circle cx="328.6" cy="295.6" r="4" fill="#9754dd" /><circle cx="335.7" cy="295.6" r="4" fill="#9754dd" /><circle cx="342.8" cy="295.6" r="4" fill="#9754dd" /><circle cx="349.9" cy="295.6" r="4" fill="#9754dd" /><circle cx="357.0" cy="295.6" r="4" fill="#9754dd" /><circle cx="364.1" cy="295.6" r="4" fill="#9754dd" /><circle cx="371.2" cy="295.8" r="4" fill="#9754dd" /><circle cx="378.3" cy="295.9" r="4" fill="#9754dd" /><circle cx="385.4" cy="295.9" r="4" fill="#9754dd" /><circle cx="392.5" cy="295.9" r="4" fill="#9754dd" /><circle cx="399.6" cy="295.9" r="4" fill="#9754dd" /><circle cx="406.7" cy="295.9" r="4" fill="#9754dd" /><circle cx="413.8" cy="295.9" r="4" fill="#9754dd" /><circle cx="420.9" cy="295.9" r="4" fill="#9754dd" /><circle cx="428.0" cy="295.9" r="4" fill="#9754dd" /><circle cx="435.1" cy="295.9" r="4" fill="#9754dd" /><circle cx="442.2" cy="295.9" r="4" fill="#9754dd" /><circle cx="449.3" cy="295.9" r="4" fill="#9754dd" /><circle cx="456.4" cy="295.9" r="4" fill="#9754dd" /><circle cx="463.6" cy="295.9" r="4" fill="#9754dd" /><circle cx="470.7" cy="295.9" r="4" fill="#9754dd" /><circle cx="477.8" cy="295.9" r="4" fill="#9754dd" /><circle cx="484.9" cy="295.9" r="4" fill="#9754dd" /><circle cx="492.0" cy="295.8" r="4" fill="#9754dd" /><circle cx="499.1" cy="295.8" r="4" fill="#9754dd" /><circle cx="506.2" cy="295.9" r="4" fill="#9754dd" /><circle cx="513.3" cy="295.9" r="4" fill="#9754dd" /><circle cx="520.4" cy="295.9" r="4" fill="#9754dd" /><circle cx="527.5" cy="295.9" r="4" fill="#9754dd" /><circle cx="534.6" cy="295.9" r="4" fill="#9754dd" /><circle cx="541.7" cy="295.9" r="4" fill="#9754dd" /><circle cx="548.8" cy="295.9" r="4" fill="#9754dd" /><circle cx="555.9" cy="296.0" r="4" fill="#9754dd" /><circle cx="563.0" cy="296.4" r="4" fill="#9754dd" /><circle cx="570.1" cy="296.4" r="4" fill="#9754dd" /><circle cx="577.2" cy="296.4" r="4" fill="#9754dd" /><circle cx="584.3" cy="296.4" r="4" fill="#9754dd" /><circle cx="591.4" cy="296.4" r="4" fill="#9754dd" /><circle cx="598.5" cy="296.4" r="4" fill="#9754dd" /><circle cx="605.6" cy="296.4" r="4" fill="#9754dd" /><circle cx="612.7" cy="296.4" r="4" fill="#9754dd" /><circle cx="619.8" cy="296.4" r="4" fill="#9754dd" /><circle cx="626.9" cy="296.4" r="4" fill="#9754dd" /><circle cx="634.0" cy="296.5" r="4" fill="#9754dd" /><circle cx="641.1" cy="296.5" r="4" fill="#9754dd" /><circle cx="648.2" cy="296.5" r="4" fill="#9754dd" /><circle cx="655.3" cy="296.5" r="4" fill="#9754dd" /><circle cx="662.4" cy="296.5" r="4" fill="#9754dd" /><circle cx="669.5" cy="296.5" r="4" fill="#9754dd" /><circle cx="676.6" cy="296.5" r="4" fill="#9754dd" /><circle cx="683.7" cy="296.5" r="4" fill="#9754dd" /><circle cx="690.8" cy="296.5" r="4" fill="#9754dd" /><circle cx="697.9" cy="296.5" r="4" fill="#9754dd" /><circle cx="705.0" cy="296.5" r="4" fill="#9754dd" /><circle cx="712.1" cy="296.5" r="4" fill="#9754dd" /><circle cx="719.3" cy="296.5" r="4" fill="#9754dd" /><circle cx="726.4" cy="296.5" r="4" fill="#9754dd" /><circle cx="733.5" cy="296.5" r="4" fill="#9754dd" /><circle cx="740.6" cy="296.5" r="4" fill="#9754dd" /><circle cx="747.7" cy="296.5" r="4" fill="#9754dd" /><circle cx="754.8" cy="296.5" r="4" fill="#9754dd" /><circle cx="761.9" cy="296.5" r="4" fill="#9754dd" /><circle cx="769.0" cy="296.5" r="4" fill="#9754dd" /><circle cx="776.1" cy="296.5" r="4" fill="#9754dd" /><circle cx="783.2" cy="296.5" r="4" fill="#9754dd" /><circle cx="790.3" cy="296.5" r="4" fill="#9754dd" /><circle cx="797.4" cy="296.5" r="4" fill="#9754dd" /><circle cx="804.5" cy="296.5" r="4" fill="#9754dd" /><circle cx="811.6" cy="295.0" r="4" fill="#9754dd" /><circle cx="818.7" cy="295.0" r="4" fill="#9754dd" /><circle cx="825.8" cy="295.0" r="4" fill="#9754dd" /><circle cx="832.9" cy="295.1" r="4" fill="#9754dd" /><circle cx="840.0" cy="295.1" r="4" fill="#9754dd" />
  <rect x="80" y="339" width="10" height="10" rx="2" ry="2" fill="#19e5a1" /><text x="96" y="348" class="legend-label">Stars</text><rect x="250" y="339" width="10" height="10" rx="2" ry="2" fill="#6eb6ec" /><text x="266" y="348" class="legend-label">Followers</text><rect x="420" y="339" width="10" height="10" rx="2" ry="2" fill="#5938e2" /><text x="436" y="348" class="legend-label">Following</text><rect x="590" y="339" width="10" height="10" rx="2" ry="2" fill="#60e5e0" /><text x="606" y="348" class="legend-label">Contributions</text><rect x="80" y="357" width="10" height="10" rx="2" ry="2" fill="#567de1" /><text x="96" y="366" class="legend-label">Pull Requests</text><rect x="250" y="357" width="10" height="10" rx="2" ry="2" fill="#9754dd" /><text x="266" y="366" class="legend-label">Issues</text>
</svg>
