<svg width="900" height="402" viewBox="0 0 900 402" xmlns="http://www.w3.org/2000/svg">
  <defs>
    <linearGradient id="history-gradient" x1="0%" y1="0%" x2="100%" y2="100%">
      <stop offset="0%" style="stop-color:#58a6ff;stop-opacity:1" />
      <stop offset="100%" style="stop-color:#a371f7;stop-opacity:1" />
    </linearGradient>
    <clipPath id="history-rounded">
      <rect x="0" y="0" width="900" height="402" rx="8" ry="8" />
    </clipPath>
  </defs>
  <style>
    .title {
      font-family: 'Segoe UI', Ubuntu, 'Helvetica Neue', sans-serif;
      font-size: 22px;
      font-weight: 700;
      fill: #58a6ff;
    }
    .subtitle {
      font-family: 'Segoe UI', Ubuntu, 'Helvetica Neue', sans-serif;
      font-size: 12px;
      font-weight: 500;
      fill: #8b949e;
    }
    .axis-label {
      font-family: 'Segoe UI', Ubuntu, 'Helvetica Neue', sans-serif;
      font-size: 10px;
      fill: #8b949e;
    }
    .grid-line {
      stroke: #30363d;
      stroke-width: 1;
      opacity: 0.3;
    }
    .legend-label {
      font-family: 'Segoe UI', Ubuntu, 'Helvetica Neue', sans-serif;
      font-size: 11px;
      fill: #c9d1d9;
      dominant-baseline: middle;
    }
  </style>
  <rect clip-path="url(#history-rounded)" width="100%" height="100%" fill="#0d1117" stroke="#30363d" stroke-width="1" />
  <rect x="0" y="396" width="900" height="6" fill="url(#history-gradient)" clip-path="url(#history-rounded)" />
  <text x="24" y="34" class="title">Leonardo Klein Stats History</text>
  <text x="24" y="54" class="subtitle">Period: 2026-02-20 to 2026-02-28</text>
  <text x="72" y="320.0" text-anchor="end" dominant-baseline="central" class="axis-label">0</text><text x="72" y="270.0" text-anchor="end" dominant-baseline="central" class="axis-label">400</text><text x="72" y="220.0" text-anchor="end" dominant-baseline="central" class="axis-label">800</text><text x="72" y="170.0" text-anchor="end" dominant-baseline="central" class="axis-label">1.2k</text><text x="72" y="120.0" text-anchor="end" dominant-baseline="central" class="axis-label">1.6k</text><text x="72" y="70.0" text-anchor="end" dominant-baseline="central" class="axis-label">2.0k</text>
  <text x="80.0" y="336" text-anchor="middle" class="axis-label">02-20</text><text x="140.0" y="336" text-anchor="middle" class="axis-label">02-21</text><text x="200.0" y="336" text-anchor="middle" class="axis-label">02-21</text><text x="260.0" y="336" text-anchor="middle" class="axis-label">02-22</text><text x="320.0" y="336" text-anchor="middle" class="axis-label">02-22</text><text x="380.0" y="336" text-anchor="middle" class="axis-label">02-23</text><text x="440.0" y="336" text-anchor="middle" class="axis-label">02-24</text><text x="500.0" y="336" text-anchor="middle" class="axis-label">02-24</text><text x="560.0" y="336" text-anchor="middle" class="axis-label">02-25</text><text x="620.0" y="336" text-anchor="middle" class="axis-label">02-25</text><text x="680.0" y="336" text-anchor="middle" class="axis-label">02-26</text><text x="740.0" y="336" text-anchor="middle" class="axis-label">02-27</text><text x="800.0" y="336" text-anchor="middle" class="axis-label">02-27</text><text x="840.0" y="336" text-anchor="middle" class="axis-label">02-28</text>
  <line x1="80" y1="320.0" x2="840" y2="320.0" class="grid-line" /><line x1="80" y1="270.0" x2="840" y2="270.0" class="grid-line" /><line x1="80" y1="220.0" x2="840" y2="220.0" class="grid-line" /><line x1="80" y1="170.0" x2="840" y2="170.0" class="grid-line" /><line x1="80" y1="120.0" x2="840" y2="120.0" class="grid-line" /><line x1="80" y1="70.0" x2="840" y2="70.0" class="grid-line" />
  <polyline points="80.0,317.0 100.0,317.0 120.0,317.0 140.0,317.0 160.0,317.0 180.0,317.0 200.0,317.0 220.0,317.0 240.0,317.0 260.0,317.0 280.0,317.0 300.0,317.0 320.0,317.0 340.0,317.0 360.0,317.0 380.0,317.0 400.0,317.0 420.0,317.0 440.0,317.0 460.0,317.0 480.0,317.0 500.0,317.0 520.0,317.0 540.0,317.0 560.0,317.0 580.0,317.0 600.0,317.0 620.0,317.0 640.0,317.0 660.0,317.0 680.0,317.0 700.0,317.0 720.0,317.0 740.0,317.0 760.0,317.0 780.0,317.0 800.0,317.0 820.0,317.0 840.0,317.0" fill="none" stroke="#19e5a1" stroke-width="2.5" stroke-linecap="round" stroke-linejoin="round" /><circle cx="80.0" cy="317.0" r="4" fill="#19e5a1" /><circle cx="100.0" cy="317.0" r="4" fill="#19e5a1" /><circle cx="120.0" cy="317.0" r="4" fill="#19e5a1" /><circle cx="140.0" cy="317.0" r="4" fill="#19e5a1" /><circle cx="160.0" cy="317.0" r="4" fill="#19e5a1" /><circle cx="180.0" cy="317.0" r="4" fill="#19e5a1" /><circle cx="200.0" cy="317.0" r="4" fill="#19e5a1" /><circle cx="220.0" cy="317.0" r="4" fill="#19e5a1" /><circle cx="240.0" cy="317.0" r="4" fill="#19e5a1" /><circle cx="260.0" cy="317.0" r="4" fill="#19e5a1" /><circle cx="280.0" cy="317.0" r="4" fill="#19e5a1" /><circle cx="300.0" cy="317.0" r="4" fill="#19e5a1" /><circle cx="320.0" cy="317.0" r="4" fill="#19e5a1" /><circle cx="340.0" cy="317.0" r="4" fill="#19e5a1" /><circle cx="360.0" cy="317.0" r="4" fill="#19e5a1" /><circle cx="380.0" cy="317.0" r="4" fill="#19e5a1" /><circle cx="400.0" cy="317.0" r="4" fill="#19e5a1" /><circle cx="420.0" cy="317.0" r="4" fill="#19e5a1" /><circle cx="440.0" cy="317.0" r="4" fill="#19e5a1" /><circle cx="460.0" cy="317.0" r="4" fill="#19e5a1" /><circle cx="480.0" cy="317.0" r="4" fill="#19e5a1" /><circle cx="500.0" cy="317.0" r="4" fill="#19e5a1" /><circle cx="520.0" cy="317.0" r="4" fill="#19e5a1" /><circle cx="540.0" cy="317.0" r="4" fill="#19e5a1" /><circle cx="560.0" cy="317.0" r="4" fill="#19e5a1" /><circle cx="580.0" cy="317.0" r="4" fill="#19e5a1" /><circle cx="600.0" cy="317.0" r="4" fill="#19e5a1" /><circle cx="620.0" cy="317.0" r="4" fill="#19e5a1" /><circle cx="640.0" cy="317.0" r="4" fill="#19e5a1" /><circle cx="660.0" cy="317.0" r="4" fill="#19e5a1" /><circle cx="680.0" cy="317.0" r="4" fill="#19e5a1" /><circle cx="700.0" cy="317.0" r="4" fill="#19e5a1" /><circle cx="720.0" cy="317.0" r="4" fill="#19e5a1" /><circle cx="740.0" cy="317.0" r="4" fill="#19e5a1" /><circle cx="760.0" cy="317.0" r="4" fill="#19e5a1" /><circle cx="780.0" cy="317.0" r="4" fill="#19e5a1" /><circle cx="800.0" cy="317.0" r="4" fill="#19e5a1" /><circle cx="820.0" cy="317.0" r="4" fill="#19e5a1" /><circle cx="840.0" cy="317.0" r="4" fill="#19e5a1" /><polyline points="80.0,313.2 100.0,312.2 120.0,312.1 140.0,312.4 160.0,312.4 180.0,312.4 200.0,312.1 220.0,312.0 240.0,311.9 260.0,311.9 280.0,311.8 300.0,311.8 320.0,311.5 340.0,311.5 360.0,311.5 380.0,311.2 400.0,311.2 420.0,311.1 440.0,311.1 460.0,311.1 480.0,310.9 500.0,311.0 520.0,310.8 540.0,310.8 560.0,310.8 580.0,310.8 600.0,310.4 620.0,310.2 640.0,310.4 660.0,310.4 680.0,310.4 700.0,310.4 720.0,310.4 740.0,310.2 760.0,310.2 780.0,310.1 800.0,310.1 820.0,309.8 840.0,309.6" fill="none" stroke="#6eb6ec" stroke-width="2.5" stroke-linecap="round" stroke-linejoin="round" /><circle cx="80.0" cy="313.2" r="4" fill="#6eb6ec" /><circle cx="100.0" cy="312.2" r="4" fill="#6eb6ec" /><circle cx="120.0" cy="312.1" r="4" fill="#6eb6ec" /><circle cx="140.0" cy="312.4" r="4" fill="#6eb6ec" /><circle cx="160.0" cy="312.4" r="4" fill="#6eb6ec" /><circle cx="180.0" cy="312.4" r="4" fill="#6eb6ec" /><circle cx="200.0" cy="312.1" r="4" fill="#6eb6ec" /><circle cx="220.0" cy="312.0" r="4" fill="#6eb6ec" /><circle cx="240.0" cy="311.9" r="4" fill="#6eb6ec" /><circle cx="260.0" cy="311.9" r="4" fill="#6eb6ec" /><circle cx="280.0" cy="311.8" r="4" fill="#6eb6ec" /><circle cx="300.0" cy="311.8" r="4" fill="#6eb6ec" /><circle cx="320.0" cy="311.5" r="4" fill="#6eb6ec" /><circle cx="340.0" cy="311.5" r="4" fill="#6eb6ec" /><circle cx="360.0" cy="311.5" r="4" fill="#6eb6ec" /><circle cx="380.0" cy="311.2" r="4" fill="#6eb6ec" /><circle cx="400.0" cy="311.2" r="4" fill="#6eb6ec" /><circle cx="420.0" cy="311.1" r="4" fill="#6eb6ec" /><circle cx="440.0" cy="311.1" r="4" fill="#6eb6ec" /><circle cx="460.0" cy="311.1" r="4" fill="#6eb6ec" /><circle cx="480.0" cy="310.9" r="4" fill="#6eb6ec" /><circle cx="500.0" cy="311.0" r="4" fill="#6eb6ec" /><circle cx="520.0" cy="310.8" r="4" fill="#6eb6ec" /><circle cx="540.0" cy="310.8" r="4" fill="#6eb6ec" /><circle cx="560.0" cy="310.8" r="4" fill="#6eb6ec" /><circle cx="580.0" cy="310.8" r="4" fill="#6eb6ec" /><circle cx="600.0" cy="310.4" r="4" fill="#6eb6ec" /><circle cx="620.0" cy="310.2" r="4" fill="#6eb6ec" /><circle cx="640.0" cy="310.4" r="4" fill="#6eb6ec" /><circle cx="660.0" cy="310.4" r="4" fill="#6eb6ec" /><circle cx="680.0" cy="310.4" r="4" fill="#6eb6ec" /><circle cx="700.0" cy="310.4" r="4" fill="#6eb6ec" /><circle cx="720.0" cy="310.4" r="4" fill="#6eb6ec" /><circle cx="740.0" cy="310.2" r="4" fill="#6eb6ec" /><circle cx="760.0" cy="310.2" r="4" fill="#6eb6ec" /><circle cx="780.0" cy="310.1" r="4" fill="#6eb6ec" /><circle cx="800.0" cy="310.1" r="4" fill="#6eb6ec" /><circle cx="820.0" cy="309.8" r="4" fill="#6eb6ec" /><circle cx="840.0" cy="309.6" r="4" fill="#6eb6ec" /><polyline points="80.0,305.8 100.0,305.8 120.0,305.8 140.0,305.8 160.0,305.8 180.0,305.8 200.0,305.8 220.0,305.8 240.0,305.8 260.0,305.8 280.0,304.9 300.0,304.9 320.0,304.9 340.0,304.9 360.0,304.9 380.0,304.9 400.0,304.9 420.0,304.9 440.0,304.9 460.0,304.9 480.0,304.9 500.0,304.9 520.0,304.9 540.0,304.9 560.0,304.9 580.0,304.9 600.0,304.9 620.0,304.9 640.0,304.9 660.0,304.9 680.0,304.9 700.0,304.9 720.0,304.9 740.0,304.9 760.0,304.9 780.0,304.9 800.0,304.9 820.0,303.6 840.0,303.6" fill="none" stroke="#5938e2" stroke-width="2.5" stroke-linecap="round" stroke-linejoin="round" /><circle cx="80.0" cy="305.8" r="4" fill="#5938e2" /><circle cx="100.0" cy="305.8" r="4" fill="#5938e2" /><circle cx="120.0" cy="305.8" r="4" fill="#5938e2" /><circle cx="140.0" cy="305.8" r="4" fill="#5938e2" /><circle cx="160.0" cy="305.8" r="4" fill="#5938e2" /><circle cx="180.0" cy="305.8" r="4" fill="#5938e2" /><circle cx="200.0" cy="305.8" r="4" fill="#5938e2" /><circle cx="220.0" cy="305.8" r="4" fill="#5938e2" /><circle cx="240.0" cy="305.8" r="4" fill="#5938e2" /><circle cx="260.0" cy="305.8" r="4" fill="#5938e2" /><circle cx="280.0" cy="304.9" r="4" fill="#5938e2" /><circle cx="300.0" cy="304.9" r="4" fill="#5938e2" /><circle cx="320.0" cy="304.9" r="4" fill="#5938e2" /><circle cx="340.0" cy="304.9" r="4" fill="#5938e2" /><circle cx="360.0" cy="304.9" r="4" fill="#5938e2" /><circle cx="380.0" cy="304.9" r="4" fill="#5938e2" /><circle cx="400.0" cy="304.9" r="4" fill="#5938e2" /><circle cx="420.0" cy="304.9" r="4" fill="#5938e2" /><circle cx="440.0" cy="304.9" r="4" fill="#5938e2" /><circle cx="460.0" cy="304.9" r="4" fill="#5938e2" /><circle cx="480.0" cy="304.9" r="4" fill="#5938e2" /><circle cx="500.0" cy="304.9" r="4" fill="#5938e2" /><circle cx="520.0" cy="304.9" r="4" fill="#5938e2" /><circle cx="540.0" cy="304.9" r="4" fill="#5938e2" /><circle cx="560.0" cy="304.9" r="4" fill="#5938e2" /><circle cx="580.0" cy="304.9" r="4" fill="#5938e2" /><circle cx="600.0" cy="304.9" r="4" fill="#5938e2" /><circle cx="620.0" cy="304.9" r="4" fill="#5938e2" /><circle cx="640.0" cy="304.9" r="4" fill="#5938e2" /><circle cx="660.0" cy="304.9" r="4" fill="#5938e2" /><circle cx="680.0" cy="304.9" r="4" fill="#5938e2" /><circle cx="700.0" cy="304.9" r="4" fill="#5938e2" /><circle cx="720.0" cy="304.9" r="4" fill="#5938e2" /><circle cx="740.0" cy="304.9" r="4" fill="#5938e2" /><circle cx="760.0" cy="304.9" r="4" fill="#5938e2" /><circle cx="780.0" cy="304.9" r="4" fill="#5938e2" /><circle cx="800.0" cy="304.9" r="4" fill="#5938e2" /><circle cx="820.0" cy="303.6" r="4" fill="#5938e2" /><circle cx="840.0" cy="303.6" r="4" fill="#5938e2" /><polyline points="80.0,144.6 100.0,140.1 120.0,139.9 140.0,139.8 160.0,139.8 180.0,139.6 200.0,139.6 220.0,139.6 240.0,139.6 260.0,139.6 280.0,138.4 300.0,138.4 320.0,138.4 340.0,138.4 360.0,138.4 380.0,138.4 400.0,138.4 420.0,137.4 440.0,137.4 460.0,137.4 480.0,137.4 500.0,137.4 520.0,137.4 540.0,137.4 560.0,137.4 580.0,137.4 600.0,137.4 620.0,137.4 640.0,131.2 660.0,131.2 680.0,130.8 700.0,130.4 720.0,126.9 740.0,126.9 760.0,126.9 780.0,126.9 800.0,126.9 820.0,126.9 840.0,126.9" fill="none" stroke="#60e5e0" stroke-width="2.5" stroke-linecap="round" stroke-linejoin="round" /><circle cx="80.0" cy="144.6" r="4" fill="#60e5e0" /><circle cx="100.0" cy="140.1" r="4" fill="#60e5e0" /><circle cx="120.0" cy="139.9" r="4" fill="#60e5e0" /><circle cx="140.0" cy="139.8" r="4" fill="#60e5e0" /><circle cx="160.0" cy="139.8" r="4" fill="#60e5e0" /><circle cx="180.0" cy="139.6" r="4" fill="#60e5e0" /><circle cx="200.0" cy="139.6" r="4" fill="#60e5e0" /><circle cx="220.0" cy="139.6" r="4" fill="#60e5e0" /><circle cx="240.0" cy="139.6" r="4" fill="#60e5e0" /><circle cx="260.0" cy="139.6" r="4" fill="#60e5e0" /><circle cx="280.0" cy="138.4" r="4" fill="#60e5e0" /><circle cx="300.0" cy="138.4" r="4" fill="#60e5e0" /><circle cx="320.0" cy="138.4" r="4" fill="#60e5e0" /><circle cx="340.0" cy="138.4" r="4" fill="#60e5e0" /><circle cx="360.0" cy="138.4" r="4" fill="#60e5e0" /><circle cx="380.0" cy="138.4" r="4" fill="#60e5e0" /><circle cx="400.0" cy="138.4" r="4" fill="#60e5e0" /><circle cx="420.0" cy="137.4" r="4" fill="#60e5e0" /><circle cx="440.0" cy="137.4" r="4" fill="#60e5e0" /><circle cx="460.0" cy="137.4" r="4" fill="#60e5e0" /><circle cx="480.0" cy="137.4" r="4" fill="#60e5e0" /><circle cx="500.0" cy="137.4" r="4" fill="#60e5e0" /><circle cx="520.0" cy="137.4" r="4" fill="#60e5e0" /><circle cx="540.0" cy="137.4" r="4" fill="#60e5e0" /><circle cx="560.0" cy="137.4" r="4" fill="#60e5e0" /><circle cx="580.0" cy="137.4" r="4" fill="#60e5e0" /><circle cx="600.0" cy="137.4" r="4" fill="#60e5e0" /><circle cx="620.0" cy="137.4" r="4" fill="#60e5e0" /><circle cx="640.0" cy="131.2" r="4" fill="#60e5e0" /><circle cx="660.0" cy="131.2" r="4" fill="#60e5e0" /><circle cx="680.0" cy="130.8" r="4" fill="#60e5e0" /><circle cx="700.0" cy="130.4" r="4" fill="#60e5e0" /><circle cx="720.0" cy="126.9" r="4" fill="#60e5e0" /><circle cx="740.0" cy="126.9" r="4" fill="#60e5e0" /><circle cx="760.0" cy="126.9" r="4" fill="#60e5e0" /><circle cx="780.0" cy="126.9" r="4" fill="#60e5e0" /><circle cx="800.0" cy="126.9" r="4" fill="#60e5e0" /><circle cx="820.0" cy="126.9" r="4" fill="#60e5e0" /><circle cx="840.0" cy="126.9" r="4" fill="#60e5e0" /><polyline points="80.0,314.6 100.0,314.4 120.0,314.2 140.0,314.2 160.0,314.2 180.0,314.1 200.0,314.1 220.0,314.1 240.0,314.1 260.0,314.1 280.0,314.0 300.0,314.0 320.0,314.0 340.0,314.0 360.0,314.0 380.0,314.0 400.0,314.0 420.0,314.0 440.0,314.0 460.0,314.0 480.0,314.0 500.0,314.0 520.0,314.0 540.0,314.0 560.0,314.0 580.0,314.0 600.0,314.0 620.0,314.0 640.0,314.0 660.0,314.0 680.0,314.0 700.0,314.0 720.0,314.0 740.0,314.0 760.0,314.0 780.0,314.0 800.0,314.0 820.0,314.0 840.0,314.0" fill="none" stroke="#567de1" stroke-width="2.5" stroke-linecap="round" stroke-linejoin="round" /><circle cx="80.0" cy="314.6" r="4" fill="#567de1" /><circle cx="100.0" cy="314.4" r="4" fill="#567de1" /><circle cx="120.0" cy="314.2" r="4" fill="#567de1" /><circle cx="140.0" cy="314.2" r="4" fill="#567de1" /><circle cx="160.0" cy="314.2" r="4" fill="#567de1" /><circle cx="180.0" cy="314.1" r="4" fill="#567de1" /><circle cx="200.0" cy="314.1" r="4" fill="#567de1" /><circle cx="220.0" cy="314.1" r="4" fill="#567de1" /><circle cx="240.0" cy="314.1" r="4" fill="#567de1" /><circle cx="260.0" cy="314.1" r="4" fill="#567de1" /><circle cx="280.0" cy="314.0" r="4" fill="#567de1" /><circle cx="300.0" cy="314.0" r="4" fill="#567de1" /><circle cx="320.0" cy="314.0" r="4" fill="#567de1" /><circle cx="340.0" cy="314.0" r="4" fill="#567de1" /><circle cx="360.0" cy="314.0" r="4" fill="#567de1" /><circle cx="380.0" cy="314.0" r="4" fill="#567de1" /><circle cx="400.0" cy="314.0" r="4" fill="#567de1" /><circle cx="420.0" cy="314.0" r="4" fill="#567de1" /><circle cx="440.0" cy="314.0" r="4" fill="#567de1" /><circle cx="460.0" cy="314.0" r="4" fill="#567de1" /><circle cx="480.0" cy="314.0" r="4" fill="#567de1" /><circle cx="500.0" cy="314.0" r="4" fill="#567de1" /><circle cx="520.0" cy="314.0" r="4" fill="#567de1" /><circle cx="540.0" cy="314.0" r="4" fill="#567de1" /><circle cx="560.0" cy="314.0" r="4" fill="#567de1" /><circle cx="580.0" cy="314.0" r="4" fill="#567de1" /><circle cx="600.0" cy="314.0" r="4" fill="#567de1" /><circle cx="620.0" cy="314.0" r="4" fill="#567de1" /><circle cx="640.0" cy="314.0" r="4" fill="#567de1" /><circle cx="660.0" cy="314.0" r="4" fill="#567de1" /><circle cx="680.0" cy="314.0" r="4" fill="#567de1" /><circle cx="700.0" cy="314.0" r="4" fill="#567de1" /><circle cx="720.0" cy="314.0" r="4" fill="#567de1" /><circle cx="740.0" cy="314.0" r="4" fill="#567de1" /><circle cx="760.0" cy="314.0" r="4" fill="#567de1" /><circle cx="780.0" cy="314.0" r="4" fill="#567de1" /><circle cx="800.0" cy="314.0" r="4" fill="#567de1" /><circle cx="820.0" cy="314.0" r="4" fill="#567de1" /><circle cx="840.0" cy="314.0" r="4" fill="#567de1" /><polyline points="80.0,303.9 100.0,304.2 120.0,304.4 140.0,304.4 160.0,304.4 180.0,304.4 200.0,304.4 220.0,304.4 240.0,304.4 260.0,304.4 280.0,304.4 300.0,304.4 320.0,304.4 340.0,304.4 360.0,304.4 380.0,304.4 400.0,304.4 420.0,304.4 440.0,304.4 460.0,304.4 480.0,304.4 500.0,304.4 520.0,304.4 540.0,304.4 560.0,304.4 580.0,304.4 600.0,304.4 620.0,304.4 640.0,299.1 660.0,299.1 680.0,299.1 700.0,298.9 720.0,295.6 740.0,295.6 760.0,295.6 780.0,295.6 800.0,295.6 820.0,295.6 840.0,295.6" fill="none" stroke="#9754dd" stroke-width="2.5" stroke-linecap="round" stroke-linejoin="round" /><circle cx="80.0" cy="303.9" r="4" fill="#9754dd" /><circle cx="100.0" cy="304.2" r="4" fill="#9754dd" /><circle cx="120.0" cy="304.4" r="4" fill="#9754dd" /><circle cx="140.0" cy="304.4" r="4" fill="#9754dd" /><circle cx="160.0" cy="304.4" r="4" fill="#9754dd" /><circle cx="180.0" cy="304.4" r="4" fill="#9754dd" /><circle cx="200.0" cy="304.4" r="4" fill="#9754dd" /><circle cx="220.0" cy="304.4" r="4" fill="#9754dd" /><circle cx="240.0" cy="304.4" r="4" fill="#9754dd" /><circle cx="260.0" cy="304.4" r="4" fill="#9754dd" /><circle cx="280.0" cy="304.4" r="4" fill="#9754dd" /><circle cx="300.0" cy="304.4" r="4" fill="#9754dd" /><circle cx="320.0" cy="304.4" r="4" fill="#9754dd" /><circle cx="340.0" cy="304.4" r="4" fill="#9754dd" /><circle cx="360.0" cy="304.4" r="4" fill="#9754dd" /><circle cx="380.0" cy="304.4" r="4" fill="#9754dd" /><circle cx="400.0" cy="304.4" r="4" fill="#9754dd" /><circle cx="420.0" cy="304.4" r="4" fill="#9754dd" /><circle cx="440.0" cy="304.4" r="4" fill="#9754dd" /><circle cx="460.0" cy="304.4" r="4" fill="#9754dd" /><circle cx="480.0" cy="304.4" r="4" fill="#9754dd" /><circle cx="500.0" cy="304.4" r="4" fill="#9754dd" /><circle cx="520.0" cy="304.4" r="4" fill="#9754dd" /><circle cx="540.0" cy="304.4" r="4" fill="#9754dd" /><circle cx="560.0" cy="304.4" r="4" fill="#9754dd" /><circle cx="580.0" cy="304.4" r="4" fill="#9754dd" /><circle cx="600.0" cy="304.4" r="4" fill="#9754dd" /><circle cx="620.0" cy="304.4" r="4" fill="#9754dd" /><circle cx="640.0" cy="299.1" r="4" fill="#9754dd" /><circle cx="660.0" cy="299.1" r="4" fill="#9754dd" /><circle cx="680.0" cy="299.1" r="4" fill="#9754dd" /><circle cx="700.0" cy="298.9" r="4" fill="#9754dd" /><circle cx="720.0" cy="295.6" r="4" fill="#9754dd" /><circle cx="740.0" cy="295.6" r="4" fill="#9754dd" /><circle cx="760.0" cy="295.6" r="4" fill="#9754dd" /><circle cx="780.0" cy="295.6" r="4" fill="#9754dd" /><circle cx="800.0" cy="295.6" r="4" fill="#9754dd" /><circle cx="820.0" cy="295.6" r="4" fill="#9754dd" /><circle cx="840.0" cy="295.6" r="4" fill="#9754dd" />
  <rect x="80" y="339" width="10" height="10" rx="2" ry="2" fill="#19e5a1" /><text x="96" y="348" class="legend-label">Stars</text><rect x="250" y="339" width="10" height="10" rx="2" ry="2" fill="#6eb6ec" /><text x="266" y="348" class="legend-label">Followers</text><rect x="420" y="339" width="10" height="10" rx="2" ry="2" fill="#5938e2" /><text x="436" y="348" class="legend-label">Following</text><rect x="590" y="339" width="10" height="10" rx="2" ry="2" fill="#60e5e0" /><text x="606" y="348" class="legend-label">Contributions</text><rect x="80" y="357" width="10" height="10" rx="2" ry="2" fill="#567de1" /><text x="96" y="366" class="legend-label">Pull Requests</text><rect x="250" y="357" width="10" height="10" rx="2" ry="2" fill="#9754dd" /><text x="266" y="366" class="legend-label">Issues</text>
</svg>
