<svg width="900" height="402" viewBox="0 0 900 402" xmlns="http://www.w3.org/2000/svg">
  <defs>
    <linearGradient id="history-gradient" x1="0%" y1="0%" x2="100%" y2="100%">
      <stop offset="0%" style="stop-color:#58a6ff;stop-opacity:1" />
      <stop offset="100%" style="stop-color:#a371f7;stop-opacity:1" />
    </linearGradient>
    <clipPath id="history-rounded">
      <rect x="0" y="0" width="900" height="402" rx="8" ry="8" />
    </clipPath>
  </defs>
  <style>
    .title {
      font-family: 'Segoe UI', Ubuntu, 'Helvetica Neue', sans-serif;
      font-size: 22px;
      font-weight: 700;
      fill: #58a6ff;
    }
    .subtitle {
      font-family: 'Segoe UI', Ubuntu, 'Helvetica Neue', sans-serif;
      font-size: 12px;
      font-weight: 500;
      fill: #8b949e;
    }
    .axis-label {
      font-family: 'Segoe UI', Ubuntu, 'Helvetica Neue', sans-serif;
      font-size: 10px;
      fill: #8b949e;
    }
    .grid-line {
      stroke: #30363d;
      stroke-width: 1;
      opacity: 0.3;
    }
    .legend-label {
      font-family: 'Segoe UI', Ubuntu, 'Helvetica Neue', sans-serif;
      font-size: 11px;
      fill: #c9d1d9;
      dominant-baseline: middle;
    }
  </style>
  <rect clip-path="url(#history-rounded)" width="100%" height="100%" fill="#0d1117" stroke="#30363d" stroke-width="1" />
  <rect x="0" y="396" width="900" height="6" fill="url(#history-gradient)" clip-path="url(#history-rounded)" />
  <text x="24" y="34" class="title">Leonardo Klein Stats History</text>
  <text x="24" y="54" class="subtitle">Period: 2026-02-20 to 2026-02-24</text>
  <text x="72" y="320.0" text-anchor="end" dominant-baseline="central" class="axis-label">0</text><text x="72" y="270.0" text-anchor="end" dominant-baseline="central" class="axis-label">300</text><text x="72" y="220.0" text-anchor="end" dominant-baseline="central" class="axis-label">600</text><text x="72" y="170.0" text-anchor="end" dominant-baseline="central" class="axis-label">900</text><text x="72" y="120.0" text-anchor="end" dominant-baseline="central" class="axis-label">1.2k</text><text x="72" y="70.0" text-anchor="end" dominant-baseline="central" class="axis-label">1.5k</text>
  <text x="80.0" y="336" text-anchor="middle" class="axis-label">02-20</text><text x="152.4" y="336" text-anchor="middle" class="axis-label">02-20</text><text x="224.8" y="336" text-anchor="middle" class="axis-label">02-21</text><text x="297.1" y="336" text-anchor="middle" class="axis-label">02-21</text><text x="369.5" y="336" text-anchor="middle" class="axis-label">02-22</text><text x="441.9" y="336" text-anchor="middle" class="axis-label">02-22</text><text x="514.3" y="336" text-anchor="middle" class="axis-label">02-22</text><text x="586.7" y="336" text-anchor="middle" class="axis-label">02-23</text><text x="659.0" y="336" text-anchor="middle" class="axis-label">02-23</text><text x="731.4" y="336" text-anchor="middle" class="axis-label">02-24</text><text x="803.8" y="336" text-anchor="middle" class="axis-label">02-24</text><text x="840.0" y="336" text-anchor="middle" class="axis-label">02-24</text>
  <line x1="80" y1="320.0" x2="840" y2="320.0" class="grid-line" /><line x1="80" y1="270.0" x2="840" y2="270.0" class="grid-line" /><line x1="80" y1="220.0" x2="840" y2="220.0" class="grid-line" /><line x1="80" y1="170.0" x2="840" y2="170.0" class="grid-line" /><line x1="80" y1="120.0" x2="840" y2="120.0" class="grid-line" /><line x1="80" y1="70.0" x2="840" y2="70.0" class="grid-line" />
  <polyline points="80.0,316.0 116.2,316.0 152.4,316.0 188.6,316.0 224.8,316.0 261.0,316.0 297.1,316.0 333.3,316.0 369.5,316.0 405.7,316.0 441.9,316.0 478.1,316.0 514.3,316.0 550.5,316.0 586.7,316.0 622.9,316.0 659.0,316.0 695.2,316.0 731.4,316.0 767.6,316.0 803.8,316.0 840.0,316.0" fill="none" stroke="#19e5a1" stroke-width="2.5" stroke-linecap="round" stroke-linejoin="round" /><circle cx="80.0" cy="316.0" r="4" fill="#19e5a1" /><circle cx="116.2" cy="316.0" r="4" fill="#19e5a1" /><circle cx="152.4" cy="316.0" r="4" fill="#19e5a1" /><circle cx="188.6" cy="316.0" r="4" fill="#19e5a1" /><circle cx="224.8" cy="316.0" r="4" fill="#19e5a1" /><circle cx="261.0" cy="316.0" r="4" fill="#19e5a1" /><circle cx="297.1" cy="316.0" r="4" fill="#19e5a1" /><circle cx="333.3" cy="316.0" r="4" fill="#19e5a1" /><circle cx="369.5" cy="316.0" r="4" fill="#19e5a1" /><circle cx="405.7" cy="316.0" r="4" fill="#19e5a1" /><circle cx="441.9" cy="316.0" r="4" fill="#19e5a1" /><circle cx="478.1" cy="316.0" r="4" fill="#19e5a1" /><circle cx="514.3" cy="316.0" r="4" fill="#19e5a1" /><circle cx="550.5" cy="316.0" r="4" fill="#19e5a1" /><circle cx="586.7" cy="316.0" r="4" fill="#19e5a1" /><circle cx="622.9" cy="316.0" r="4" fill="#19e5a1" /><circle cx="659.0" cy="316.0" r="4" fill="#19e5a1" /><circle cx="695.2" cy="316.0" r="4" fill="#19e5a1" /><circle cx="731.4" cy="316.0" r="4" fill="#19e5a1" /><circle cx="767.6" cy="316.0" r="4" fill="#19e5a1" /><circle cx="803.8" cy="316.0" r="4" fill="#19e5a1" /><circle cx="840.0" cy="316.0" r="4" fill="#19e5a1" /><polyline points="80.0,311.0 116.2,309.7 152.4,309.5 188.6,309.8 224.8,309.8 261.0,309.8 297.1,309.5 333.3,309.3 369.5,309.2 405.7,309.2 441.9,309.0 478.1,309.0 514.3,308.7 550.5,308.7 586.7,308.7 622.9,308.3 659.0,308.3 695.2,308.2 731.4,308.2 767.6,308.2 803.8,307.8 840.0,308.0" fill="none" stroke="#6eb6ec" stroke-width="2.5" stroke-linecap="round" stroke-linejoin="round" /><circle cx="80.0" cy="311.0" r="4" fill="#6eb6ec" /><circle cx="116.2" cy="309.7" r="4" fill="#6eb6ec" /><circle cx="152.4" cy="309.5" r="4" fill="#6eb6ec" /><circle cx="188.6" cy="309.8" r="4" fill="#6eb6ec" /><circle cx="224.8" cy="309.8" r="4" fill="#6eb6ec" /><circle cx="261.0" cy="309.8" r="4" fill="#6eb6ec" /><circle cx="297.1" cy="309.5" r="4" fill="#6eb6ec" /><circle cx="333.3" cy="309.3" r="4" fill="#6eb6ec" /><circle cx="369.5" cy="309.2" r="4" fill="#6eb6ec" /><circle cx="405.7" cy="309.2" r="4" fill="#6eb6ec" /><circle cx="441.9" cy="309.0" r="4" fill="#6eb6ec" /><circle cx="478.1" cy="309.0" r="4" fill="#6eb6ec" /><circle cx="514.3" cy="308.7" r="4" fill="#6eb6ec" /><circle cx="550.5" cy="308.7" r="4" fill="#6eb6ec" /><circle cx="586.7" cy="308.7" r="4" fill="#6eb6ec" /><circle cx="622.9" cy="308.3" r="4" fill="#6eb6ec" /><circle cx="659.0" cy="308.3" r="4" fill="#6eb6ec" /><circle cx="695.2" cy="308.2" r="4" fill="#6eb6ec" /><circle cx="731.4" cy="308.2" r="4" fill="#6eb6ec" /><circle cx="767.6" cy="308.2" r="4" fill="#6eb6ec" /><circle cx="803.8" cy="307.8" r="4" fill="#6eb6ec" /><circle cx="840.0" cy="308.0" r="4" fill="#6eb6ec" /><polyline points="80.0,301.0 116.2,301.0 152.4,301.0 188.6,301.0 224.8,301.0 261.0,301.0 297.1,301.0 333.3,301.0 369.5,301.0 405.7,301.0 441.9,299.8 478.1,299.8 514.3,299.8 550.5,299.8 586.7,299.8 622.9,299.8 659.0,299.8 695.2,299.8 731.4,299.8 767.6,299.8 803.8,299.8 840.0,299.8" fill="none" stroke="#5938e2" stroke-width="2.5" stroke-linecap="round" stroke-linejoin="round" /><circle cx="80.0" cy="301.0" r="4" fill="#5938e2" /><circle cx="116.2" cy="301.0" r="4" fill="#5938e2" /><circle cx="152.4" cy="301.0" r="4" fill="#5938e2" /><circle cx="188.6" cy="301.0" r="4" fill="#5938e2" /><circle cx="224.8" cy="301.0" r="4" fill="#5938e2" /><circle cx="261.0" cy="301.0" r="4" fill="#5938e2" /><circle cx="297.1" cy="301.0" r="4" fill="#5938e2" /><circle cx="333.3" cy="301.0" r="4" fill="#5938e2" /><circle cx="369.5" cy="301.0" r="4" fill="#5938e2" /><circle cx="405.7" cy="301.0" r="4" fill="#5938e2" /><circle cx="441.9" cy="299.8" r="4" fill="#5938e2" /><circle cx="478.1" cy="299.8" r="4" fill="#5938e2" /><circle cx="514.3" cy="299.8" r="4" fill="#5938e2" /><circle cx="550.5" cy="299.8" r="4" fill="#5938e2" /><circle cx="586.7" cy="299.8" r="4" fill="#5938e2" /><circle cx="622.9" cy="299.8" r="4" fill="#5938e2" /><circle cx="659.0" cy="299.8" r="4" fill="#5938e2" /><circle cx="695.2" cy="299.8" r="4" fill="#5938e2" /><circle cx="731.4" cy="299.8" r="4" fill="#5938e2" /><circle cx="767.6" cy="299.8" r="4" fill="#5938e2" /><circle cx="803.8" cy="299.8" r="4" fill="#5938e2" /><circle cx="840.0" cy="299.8" r="4" fill="#5938e2" /><polyline points="80.0,86.2 116.2,80.2 152.4,79.8 188.6,79.7 224.8,79.7 261.0,79.5 297.1,79.5 333.3,79.5 369.5,79.5 405.7,79.5 441.9,77.8 478.1,77.8 514.3,77.8 550.5,77.8 586.7,77.8 622.9,77.8 659.0,77.8 695.2,76.5 731.4,76.5 767.6,76.5 803.8,76.5 840.0,76.5" fill="none" stroke="#60e5e0" stroke-width="2.5" stroke-linecap="round" stroke-linejoin="round" /><circle cx="80.0" cy="86.2" r="4" fill="#60e5e0" /><circle cx="116.2" cy="80.2" r="4" fill="#60e5e0" /><circle cx="152.4" cy="79.8" r="4" fill="#60e5e0" /><circle cx="188.6" cy="79.7" r="4" fill="#60e5e0" /><circle cx="224.8" cy="79.7" r="4" fill="#60e5e0" /><circle cx="261.0" cy="79.5" r="4" fill="#60e5e0" /><circle cx="297.1" cy="79.5" r="4" fill="#60e5e0" /><circle cx="333.3" cy="79.5" r="4" fill="#60e5e0" /><circle cx="369.5" cy="79.5" r="4" fill="#60e5e0" /><circle cx="405.7" cy="79.5" r="4" fill="#60e5e0" /><circle cx="441.9" cy="77.8" r="4" fill="#60e5e0" /><circle cx="478.1" cy="77.8" r="4" fill="#60e5e0" /><circle cx="514.3" cy="77.8" r="4" fill="#60e5e0" /><circle cx="550.5" cy="77.8" r="4" fill="#60e5e0" /><circle cx="586.7" cy="77.8" r="4" fill="#60e5e0" /><circle cx="622.9" cy="77.8" r="4" fill="#60e5e0" /><circle cx="659.0" cy="77.8" r="4" fill="#60e5e0" /><circle cx="695.2" cy="76.5" r="4" fill="#60e5e0" /><circle cx="731.4" cy="76.5" r="4" fill="#60e5e0" /><circle cx="767.6" cy="76.5" r="4" fill="#60e5e0" /><circle cx="803.8" cy="76.5" r="4" fill="#60e5e0" /><circle cx="840.0" cy="76.5" r="4" fill="#60e5e0" /><polyline points="80.0,312.8 116.2,312.5 152.4,312.3 188.6,312.3 224.8,312.3 261.0,312.2 297.1,312.2 333.3,312.2 369.5,312.2 405.7,312.2 441.9,312.0 478.1,312.0 514.3,312.0 550.5,312.0 586.7,312.0 622.9,312.0 659.0,312.0 695.2,312.0 731.4,312.0 767.6,312.0 803.8,312.0 840.0,312.0" fill="none" stroke="#567de1" stroke-width="2.5" stroke-linecap="round" stroke-linejoin="round" /><circle cx="80.0" cy="312.8" r="4" fill="#567de1" /><circle cx="116.2" cy="312.5" r="4" fill="#567de1" /><circle cx="152.4" cy="312.3" r="4" fill="#567de1" /><circle cx="188.6" cy="312.3" r="4" fill="#567de1" /><circle cx="224.8" cy="312.3" r="4" fill="#567de1" /><circle cx="261.0" cy="312.2" r="4" fill="#567de1" /><circle cx="297.1" cy="312.2" r="4" fill="#567de1" /><circle cx="333.3" cy="312.2" r="4" fill="#567de1" /><circle cx="369.5" cy="312.2" r="4" fill="#567de1" /><circle cx="405.7" cy="312.2" r="4" fill="#567de1" /><circle cx="441.9" cy="312.0" r="4" fill="#567de1" /><circle cx="478.1" cy="312.0" r="4" fill="#567de1" /><circle cx="514.3" cy="312.0" r="4" fill="#567de1" /><circle cx="550.5" cy="312.0" r="4" fill="#567de1" /><circle cx="586.7" cy="312.0" r="4" fill="#567de1" /><circle cx="622.9" cy="312.0" r="4" fill="#567de1" /><circle cx="659.0" cy="312.0" r="4" fill="#567de1" /><circle cx="695.2" cy="312.0" r="4" fill="#567de1" /><circle cx="731.4" cy="312.0" r="4" fill="#567de1" /><circle cx="767.6" cy="312.0" r="4" fill="#567de1" /><circle cx="803.8" cy="312.0" r="4" fill="#567de1" /><circle cx="840.0" cy="312.0" r="4" fill="#567de1" /><polyline points="80.0,298.5 116.2,299.0 152.4,299.2 188.6,299.2 224.8,299.2 261.0,299.2 297.1,299.2 333.3,299.2 369.5,299.2 405.7,299.2 441.9,299.2 478.1,299.2 514.3,299.2 550.5,299.2 586.7,299.2 622.9,299.2 659.0,299.2 695.2,299.2 731.4,299.2 767.6,299.2 803.8,299.2 840.0,299.2" fill="none" stroke="#9754dd" stroke-width="2.5" stroke-linecap="round" stroke-linejoin="round" /><circle cx="80.0" cy="298.5" r="4" fill="#9754dd" /><circle cx="116.2" cy="299.0" r="4" fill="#9754dd" /><circle cx="152.4" cy="299.2" r="4" fill="#9754dd" /><circle cx="188.6" cy="299.2" r="4" fill="#9754dd" /><circle cx="224.8" cy="299.2" r="4" fill="#9754dd" /><circle cx="261.0" cy="299.2" r="4" fill="#9754dd" /><circle cx="297.1" cy="299.2" r="4" fill="#9754dd" /><circle cx="333.3" cy="299.2" r="4" fill="#9754dd" /><circle cx="369.5" cy="299.2" r="4" fill="#9754dd" /><circle cx="405.7" cy="299.2" r="4" fill="#9754dd" /><circle cx="441.9" cy="299.2" r="4" fill="#9754dd" /><circle cx="478.1" cy="299.2" r="4" fill="#9754dd" /><circle cx="514.3" cy="299.2" r="4" fill="#9754dd" /><circle cx="550.5" cy="299.2" r="4" fill="#9754dd" /><circle cx="586.7" cy="299.2" r="4" fill="#9754dd" /><circle cx="622.9" cy="299.2" r="4" fill="#9754dd" /><circle cx="659.0" cy="299.2" r="4" fill="#9754dd" /><circle cx="695.2" cy="299.2" r="4" fill="#9754dd" /><circle cx="731.4" cy="299.2" r="4" fill="#9754dd" /><circle cx="767.6" cy="299.2" r="4" fill="#9754dd" /><circle cx="803.8" cy="299.2" r="4" fill="#9754dd" /><circle cx="840.0" cy="299.2" r="4" fill="#9754dd" />
  <rect x="80" y="339" width="10" height="10" rx="2" ry="2" fill="#19e5a1" /><text x="96" y="348" class="legend-label">Stars</text><rect x="250" y="339" width="10" height="10" rx="2" ry="2" fill="#6eb6ec" /><text x="266" y="348" class="legend-label">Followers</text><rect x="420" y="339" width="10" height="10" rx="2" ry="2" fill="#5938e2" /><text x="436" y="348" class="legend-label">Following</text><rect x="590" y="339" width="10" height="10" rx="2" ry="2" fill="#60e5e0" /><text x="606" y="348" class="legend-label">Contributions</text><rect x="80" y="357" width="10" height="10" rx="2" ry="2" fill="#567de1" /><text x="96" y="366" class="legend-label">Pull Requests</text><rect x="250" y="357" width="10" height="10" rx="2" ry="2" fill="#9754dd" /><text x="266" y="366" class="legend-label">Issues</text>
</svg>
