<svg width="900" height="402" viewBox="0 0 900 402" xmlns="http://www.w3.org/2000/svg">
  <defs>
    <linearGradient id="history-gradient" x1="0%" y1="0%" x2="100%" y2="100%">
      <stop offset="0%" style="stop-color:#58a6ff;stop-opacity:1" />
      <stop offset="100%" style="stop-color:#a371f7;stop-opacity:1" />
    </linearGradient>
    <clipPath id="history-rounded">
      <rect x="0" y="0" width="900" height="402" rx="8" ry="8" />
    </clipPath>
  </defs>
  <style>
    .title {
      font-family: 'Segoe UI', Ubuntu, 'Helvetica Neue', sans-serif;
      font-size: 22px;
      font-weight: 700;
      fill: #58a6ff;
    }
    .subtitle {
      font-family: 'Segoe UI', Ubuntu, 'Helvetica Neue', sans-serif;
      font-size: 12px;
      font-weight: 500;
      fill: #8b949e;
    }
    .axis-label {
      font-family: 'Segoe UI', Ubuntu, 'Helvetica Neue', sans-serif;
      font-size: 10px;
      fill: #8b949e;
    }
    .grid-line {
      stroke: #30363d;
      stroke-width: 1;
      opacity: 0.3;
    }
    .legend-label {
      font-family: 'Segoe UI', Ubuntu, 'Helvetica Neue', sans-serif;
      font-size: 11px;
      fill: #c9d1d9;
      dominant-baseline: middle;
    }
  </style>
  <rect clip-path="url(#history-rounded)" width="100%" height="100%" fill="#0d1117" stroke="#30363d" stroke-width="1" />
  <rect x="0" y="396" width="900" height="6" fill="url(#history-gradient)" clip-path="url(#history-rounded)" />
  <text x="24" y="34" class="title">Leonardo Klein Stats History</text>
  <text x="24" y="54" class="subtitle">Period: 2026-02-20 to 2026-03-01</text>
  <text x="72" y="320.0" text-anchor="end" dominant-baseline="central" class="axis-label">0</text><text x="72" y="270.0" text-anchor="end" dominant-baseline="central" class="axis-label">400</text><text x="72" y="220.0" text-anchor="end" dominant-baseline="central" class="axis-label">800</text><text x="72" y="170.0" text-anchor="end" dominant-baseline="central" class="axis-label">1.2k</text><text x="72" y="120.0" text-anchor="end" dominant-baseline="central" class="axis-label">1.6k</text><text x="72" y="70.0" text-anchor="end" dominant-baseline="central" class="axis-label">2.0k</text>
  <text x="80.0" y="336" text-anchor="middle" class="axis-label">02-20</text><text x="147.6" y="336" text-anchor="middle" class="axis-label">02-21</text><text x="215.1" y="336" text-anchor="middle" class="axis-label">02-22</text><text x="282.7" y="336" text-anchor="middle" class="axis-label">02-22</text><text x="350.2" y="336" text-anchor="middle" class="axis-label">02-23</text><text x="417.8" y="336" text-anchor="middle" class="axis-label">02-24</text><text x="485.3" y="336" text-anchor="middle" class="axis-label">02-25</text><text x="552.9" y="336" text-anchor="middle" class="axis-label">02-26</text><text x="620.4" y="336" text-anchor="middle" class="axis-label">02-26</text><text x="688.0" y="336" text-anchor="middle" class="axis-label">02-27</text><text x="755.6" y="336" text-anchor="middle" class="axis-label">02-28</text><text x="823.1" y="336" text-anchor="middle" class="axis-label">03-01</text><text x="840.0" y="336" text-anchor="middle" class="axis-label">03-01</text>
  <line x1="80" y1="320.0" x2="840" y2="320.0" class="grid-line" /><line x1="80" y1="270.0" x2="840" y2="270.0" class="grid-line" /><line x1="80" y1="220.0" x2="840" y2="220.0" class="grid-line" /><line x1="80" y1="170.0" x2="840" y2="170.0" class="grid-line" /><line x1="80" y1="120.0" x2="840" y2="120.0" class="grid-line" /><line x1="80" y1="70.0" x2="840" y2="70.0" class="grid-line" />
  <polyline points="80.0,317.0 96.9,317.0 113.8,317.0 130.7,317.0 147.6,317.0 164.4,317.0 181.3,317.0 198.2,317.0 215.1,317.0 232.0,317.0 248.9,317.0 265.8,317.0 282.7,317.0 299.6,317.0 316.4,317.0 333.3,317.0 350.2,317.0 367.1,317.0 384.0,317.0 400.9,317.0 417.8,317.0 434.7,317.0 451.6,317.0 468.4,317.0 485.3,317.0 502.2,317.0 519.1,317.0 536.0,317.0 552.9,317.0 569.8,317.0 586.7,317.0 603.6,317.0 620.4,317.0 637.3,317.0 654.2,317.0 671.1,317.0 688.0,317.0 704.9,317.0 721.8,317.0 738.7,317.0 755.6,317.0 772.4,317.0 789.3,317.0 806.2,317.0 823.1,317.0 840.0,317.0" fill="none" stroke="#19e5a1" stroke-width="2.5" stroke-linecap="round" stroke-linejoin="round" /><circle cx="80.0" cy="317.0" r="4" fill="#19e5a1" /><circle cx="96.9" cy="317.0" r="4" fill="#19e5a1" /><circle cx="113.8" cy="317.0" r="4" fill="#19e5a1" /><circle cx="130.7" cy="317.0" r="4" fill="#19e5a1" /><circle cx="147.6" cy="317.0" r="4" fill="#19e5a1" /><circle cx="164.4" cy="317.0" r="4" fill="#19e5a1" /><circle cx="181.3" cy="317.0" r="4" fill="#19e5a1" /><circle cx="198.2" cy="317.0" r="4" fill="#19e5a1" /><circle cx="215.1" cy="317.0" r="4" fill="#19e5a1" /><circle cx="232.0" cy="317.0" r="4" fill="#19e5a1" /><circle cx="248.9" cy="317.0" r="4" fill="#19e5a1" /><circle cx="265.8" cy="317.0" r="4" fill="#19e5a1" /><circle cx="282.7" cy="317.0" r="4" fill="#19e5a1" /><circle cx="299.6" cy="317.0" r="4" fill="#19e5a1" /><circle cx="316.4" cy="317.0" r="4" fill="#19e5a1" /><circle cx="333.3" cy="317.0" r="4" fill="#19e5a1" /><circle cx="350.2" cy="317.0" r="4" fill="#19e5a1" /><circle cx="367.1" cy="317.0" r="4" fill="#19e5a1" /><circle cx="384.0" cy="317.0" r="4" fill="#19e5a1" /><circle cx="400.9" cy="317.0" r="4" fill="#19e5a1" /><circle cx="417.8" cy="317.0" r="4" fill="#19e5a1" /><circle cx="434.7" cy="317.0" r="4" fill="#19e5a1" /><circle cx="451.6" cy="317.0" r="4" fill="#19e5a1" /><circle cx="468.4" cy="317.0" r="4" fill="#19e5a1" /><circle cx="485.3" cy="317.0" r="4" fill="#19e5a1" /><circle cx="502.2" cy="317.0" r="4" fill="#19e5a1" /><circle cx="519.1" cy="317.0" r="4" fill="#19e5a1" /><circle cx="536.0" cy="317.0" r="4" fill="#19e5a1" /><circle cx="552.9" cy="317.0" r="4" fill="#19e5a1" /><circle cx="569.8" cy="317.0" r="4" fill="#19e5a1" /><circle cx="586.7" cy="317.0" r="4" fill="#19e5a1" /><circle cx="603.6" cy="317.0" r="4" fill="#19e5a1" /><circle cx="620.4" cy="317.0" r="4" fill="#19e5a1" /><circle cx="637.3" cy="317.0" r="4" fill="#19e5a1" /><circle cx="654.2" cy="317.0" r="4" fill="#19e5a1" /><circle cx="671.1" cy="317.0" r="4" fill="#19e5a1" /><circle cx="688.0" cy="317.0" r="4" fill="#19e5a1" /><circle cx="704.9" cy="317.0" r="4" fill="#19e5a1" /><circle cx="721.8" cy="317.0" r="4" fill="#19e5a1" /><circle cx="738.7" cy="317.0" r="4" fill="#19e5a1" /><circle cx="755.6" cy="317.0" r="4" fill="#19e5a1" /><circle cx="772.4" cy="317.0" r="4" fill="#19e5a1" /><circle cx="789.3" cy="317.0" r="4" fill="#19e5a1" /><circle cx="806.2" cy="317.0" r="4" fill="#19e5a1" /><circle cx="823.1" cy="317.0" r="4" fill="#19e5a1" /><circle cx="840.0" cy="317.0" r="4" fill="#19e5a1" /><polyline points="80.0,313.2 96.9,312.2 113.8,312.1 130.7,312.4 147.6,312.4 164.4,312.4 181.3,312.1 198.2,312.0 215.1,311.9 232.0,311.9 248.9,311.8 265.8,311.8 282.7,311.5 299.6,311.5 316.4,311.5 333.3,311.2 350.2,311.2 367.1,311.1 384.0,311.1 400.9,311.1 417.8,310.9 434.7,311.0 451.6,310.8 468.4,310.8 485.3,310.8 502.2,310.8 519.1,310.4 536.0,310.2 552.9,310.4 569.8,310.4 586.7,310.4 603.6,310.4 620.4,310.4 637.3,310.2 654.2,310.2 671.1,310.1 688.0,310.1 704.9,309.8 721.8,309.6 738.7,309.6 755.6,309.6 772.4,309.6 789.3,309.5 806.2,309.4 823.1,309.4 840.0,309.4" fill="none" stroke="#6eb6ec" stroke-width="2.5" stroke-linecap="round" stroke-linejoin="round" /><circle cx="80.0" cy="313.2" r="4" fill="#6eb6ec" /><circle cx="96.9" cy="312.2" r="4" fill="#6eb6ec" /><circle cx="113.8" cy="312.1" r="4" fill="#6eb6ec" /><circle cx="130.7" cy="312.4" r="4" fill="#6eb6ec" /><circle cx="147.6" cy="312.4" r="4" fill="#6eb6ec" /><circle cx="164.4" cy="312.4" r="4" fill="#6eb6ec" /><circle cx="181.3" cy="312.1" r="4" fill="#6eb6ec" /><circle cx="198.2" cy="312.0" r="4" fill="#6eb6ec" /><circle cx="215.1" cy="311.9" r="4" fill="#6eb6ec" /><circle cx="232.0" cy="311.9" r="4" fill="#6eb6ec" /><circle cx="248.9" cy="311.8" r="4" fill="#6eb6ec" /><circle cx="265.8" cy="311.8" r="4" fill="#6eb6ec" /><circle cx="282.7" cy="311.5" r="4" fill="#6eb6ec" /><circle cx="299.6" cy="311.5" r="4" fill="#6eb6ec" /><circle cx="316.4" cy="311.5" r="4" fill="#6eb6ec" /><circle cx="333.3" cy="311.2" r="4" fill="#6eb6ec" /><circle cx="350.2" cy="311.2" r="4" fill="#6eb6ec" /><circle cx="367.1" cy="311.1" r="4" fill="#6eb6ec" /><circle cx="384.0" cy="311.1" r="4" fill="#6eb6ec" /><circle cx="400.9" cy="311.1" r="4" fill="#6eb6ec" /><circle cx="417.8" cy="310.9" r="4" fill="#6eb6ec" /><circle cx="434.7" cy="311.0" r="4" fill="#6eb6ec" /><circle cx="451.6" cy="310.8" r="4" fill="#6eb6ec" /><circle cx="468.4" cy="310.8" r="4" fill="#6eb6ec" /><circle cx="485.3" cy="310.8" r="4" fill="#6eb6ec" /><circle cx="502.2" cy="310.8" r="4" fill="#6eb6ec" /><circle cx="519.1" cy="310.4" r="4" fill="#6eb6ec" /><circle cx="536.0" cy="310.2" r="4" fill="#6eb6ec" /><circle cx="552.9" cy="310.4" r="4" fill="#6eb6ec" /><circle cx="569.8" cy="310.4" r="4" fill="#6eb6ec" /><circle cx="586.7" cy="310.4" r="4" fill="#6eb6ec" /><circle cx="603.6" cy="310.4" r="4" fill="#6eb6ec" /><circle cx="620.4" cy="310.4" r="4" fill="#6eb6ec" /><circle cx="637.3" cy="310.2" r="4" fill="#6eb6ec" /><circle cx="654.2" cy="310.2" r="4" fill="#6eb6ec" /><circle cx="671.1" cy="310.1" r="4" fill="#6eb6ec" /><circle cx="688.0" cy="310.1" r="4" fill="#6eb6ec" /><circle cx="704.9" cy="309.8" r="4" fill="#6eb6ec" /><circle cx="721.8" cy="309.6" r="4" fill="#6eb6ec" /><circle cx="738.7" cy="309.6" r="4" fill="#6eb6ec" /><circle cx="755.6" cy="309.6" r="4" fill="#6eb6ec" /><circle cx="772.4" cy="309.6" r="4" fill="#6eb6ec" /><circle cx="789.3" cy="309.5" r="4" fill="#6eb6ec" /><circle cx="806.2" cy="309.4" r="4" fill="#6eb6ec" /><circle cx="823.1" cy="309.4" r="4" fill="#6eb6ec" /><circle cx="840.0" cy="309.4" r="4" fill="#6eb6ec" /><polyline points="80.0,305.8 96.9,305.8 113.8,305.8 130.7,305.8 147.6,305.8 164.4,305.8 181.3,305.8 198.2,305.8 215.1,305.8 232.0,305.8 248.9,304.9 265.8,304.9 282.7,304.9 299.6,304.9 316.4,304.9 333.3,304.9 350.2,304.9 367.1,304.9 384.0,304.9 400.9,304.9 417.8,304.9 434.7,304.9 451.6,304.9 468.4,304.9 485.3,304.9 502.2,304.9 519.1,304.9 536.0,304.9 552.9,304.9 569.8,304.9 586.7,304.9 603.6,304.9 620.4,304.9 637.3,304.9 654.2,304.9 671.1,304.9 688.0,304.9 704.9,303.6 721.8,303.6 738.7,303.6 755.6,303.6 772.4,303.6 789.3,303.6 806.2,303.6 823.1,303.6 840.0,303.6" fill="none" stroke="#5938e2" stroke-width="2.5" stroke-linecap="round" stroke-linejoin="round" /><circle cx="80.0" cy="305.8" r="4" fill="#5938e2" /><circle cx="96.9" cy="305.8" r="4" fill="#5938e2" /><circle cx="113.8" cy="305.8" r="4" fill="#5938e2" /><circle cx="130.7" cy="305.8" r="4" fill="#5938e2" /><circle cx="147.6" cy="305.8" r="4" fill="#5938e2" /><circle cx="164.4" cy="305.8" r="4" fill="#5938e2" /><circle cx="181.3" cy="305.8" r="4" fill="#5938e2" /><circle cx="198.2" cy="305.8" r="4" fill="#5938e2" /><circle cx="215.1" cy="305.8" r="4" fill="#5938e2" /><circle cx="232.0" cy="305.8" r="4" fill="#5938e2" /><circle cx="248.9" cy="304.9" r="4" fill="#5938e2" /><circle cx="265.8" cy="304.9" r="4" fill="#5938e2" /><circle cx="282.7" cy="304.9" r="4" fill="#5938e2" /><circle cx="299.6" cy="304.9" r="4" fill="#5938e2" /><circle cx="316.4" cy="304.9" r="4" fill="#5938e2" /><circle cx="333.3" cy="304.9" r="4" fill="#5938e2" /><circle cx="350.2" cy="304.9" r="4" fill="#5938e2" /><circle cx="367.1" cy="304.9" r="4" fill="#5938e2" /><circle cx="384.0" cy="304.9" r="4" fill="#5938e2" /><circle cx="400.9" cy="304.9" r="4" fill="#5938e2" /><circle cx="417.8" cy="304.9" r="4" fill="#5938e2" /><circle cx="434.7" cy="304.9" r="4" fill="#5938e2" /><circle cx="451.6" cy="304.9" r="4" fill="#5938e2" /><circle cx="468.4" cy="304.9" r="4" fill="#5938e2" /><circle cx="485.3" cy="304.9" r="4" fill="#5938e2" /><circle cx="502.2" cy="304.9" r="4" fill="#5938e2" /><circle cx="519.1" cy="304.9" r="4" fill="#5938e2" /><circle cx="536.0" cy="304.9" r="4" fill="#5938e2" /><circle cx="552.9" cy="304.9" r="4" fill="#5938e2" /><circle cx="569.8" cy="304.9" r="4" fill="#5938e2" /><circle cx="586.7" cy="304.9" r="4" fill="#5938e2" /><circle cx="603.6" cy="304.9" r="4" fill="#5938e2" /><circle cx="620.4" cy="304.9" r="4" fill="#5938e2" /><circle cx="637.3" cy="304.9" r="4" fill="#5938e2" /><circle cx="654.2" cy="304.9" r="4" fill="#5938e2" /><circle cx="671.1" cy="304.9" r="4" fill="#5938e2" /><circle cx="688.0" cy="304.9" r="4" fill="#5938e2" /><circle cx="704.9" cy="303.6" r="4" fill="#5938e2" /><circle cx="721.8" cy="303.6" r="4" fill="#5938e2" /><circle cx="738.7" cy="303.6" r="4" fill="#5938e2" /><circle cx="755.6" cy="303.6" r="4" fill="#5938e2" /><circle cx="772.4" cy="303.6" r="4" fill="#5938e2" /><circle cx="789.3" cy="303.6" r="4" fill="#5938e2" /><circle cx="806.2" cy="303.6" r="4" fill="#5938e2" /><circle cx="823.1" cy="303.6" r="4" fill="#5938e2" /><circle cx="840.0" cy="303.6" r="4" fill="#5938e2" /><polyline points="80.0,144.6 96.9,140.1 113.8,139.9 130.7,139.8 147.6,139.8 164.4,139.6 181.3,139.6 198.2,139.6 215.1,139.6 232.0,139.6 248.9,138.4 265.8,138.4 282.7,138.4 299.6,138.4 316.4,138.4 333.3,138.4 350.2,138.4 367.1,137.4 384.0,137.4 400.9,137.4 417.8,137.4 434.7,137.4 451.6,137.4 468.4,137.4 485.3,137.4 502.2,137.4 519.1,137.4 536.0,137.4 552.9,131.2 569.8,131.2 586.7,130.8 603.6,130.4 620.4,126.9 637.3,126.9 654.2,126.9 671.1,126.9 688.0,126.9 704.9,126.9 721.8,126.9 738.7,126.9 755.6,126.9 772.4,126.8 789.3,122.1 806.2,120.4 823.1,120.4 840.0,120.4" fill="none" stroke="#60e5e0" stroke-width="2.5" stroke-linecap="round" stroke-linejoin="round" /><circle cx="80.0" cy="144.6" r="4" fill="#60e5e0" /><circle cx="96.9" cy="140.1" r="4" fill="#60e5e0" /><circle cx="113.8" cy="139.9" r="4" fill="#60e5e0" /><circle cx="130.7" cy="139.8" r="4" fill="#60e5e0" /><circle cx="147.6" cy="139.8" r="4" fill="#60e5e0" /><circle cx="164.4" cy="139.6" r="4" fill="#60e5e0" /><circle cx="181.3" cy="139.6" r="4" fill="#60e5e0" /><circle cx="198.2" cy="139.6" r="4" fill="#60e5e0" /><circle cx="215.1" cy="139.6" r="4" fill="#60e5e0" /><circle cx="232.0" cy="139.6" r="4" fill="#60e5e0" /><circle cx="248.9" cy="138.4" r="4" fill="#60e5e0" /><circle cx="265.8" cy="138.4" r="4" fill="#60e5e0" /><circle cx="282.7" cy="138.4" r="4" fill="#60e5e0" /><circle cx="299.6" cy="138.4" r="4" fill="#60e5e0" /><circle cx="316.4" cy="138.4" r="4" fill="#60e5e0" /><circle cx="333.3" cy="138.4" r="4" fill="#60e5e0" /><circle cx="350.2" cy="138.4" r="4" fill="#60e5e0" /><circle cx="367.1" cy="137.4" r="4" fill="#60e5e0" /><circle cx="384.0" cy="137.4" r="4" fill="#60e5e0" /><circle cx="400.9" cy="137.4" r="4" fill="#60e5e0" /><circle cx="417.8" cy="137.4" r="4" fill="#60e5e0" /><circle cx="434.7" cy="137.4" r="4" fill="#60e5e0" /><circle cx="451.6" cy="137.4" r="4" fill="#60e5e0" /><circle cx="468.4" cy="137.4" r="4" fill="#60e5e0" /><circle cx="485.3" cy="137.4" r="4" fill="#60e5e0" /><circle cx="502.2" cy="137.4" r="4" fill="#60e5e0" /><circle cx="519.1" cy="137.4" r="4" fill="#60e5e0" /><circle cx="536.0" cy="137.4" r="4" fill="#60e5e0" /><circle cx="552.9" cy="131.2" r="4" fill="#60e5e0" /><circle cx="569.8" cy="131.2" r="4" fill="#60e5e0" /><circle cx="586.7" cy="130.8" r="4" fill="#60e5e0" /><circle cx="603.6" cy="130.4" r="4" fill="#60e5e0" /><circle cx="620.4" cy="126.9" r="4" fill="#60e5e0" /><circle cx="637.3" cy="126.9" r="4" fill="#60e5e0" /><circle cx="654.2" cy="126.9" r="4" fill="#60e5e0" /><circle cx="671.1" cy="126.9" r="4" fill="#60e5e0" /><circle cx="688.0" cy="126.9" r="4" fill="#60e5e0" /><circle cx="704.9" cy="126.9" r="4" fill="#60e5e0" /><circle cx="721.8" cy="126.9" r="4" fill="#60e5e0" /><circle cx="738.7" cy="126.9" r="4" fill="#60e5e0" /><circle cx="755.6" cy="126.9" r="4" fill="#60e5e0" /><circle cx="772.4" cy="126.8" r="4" fill="#60e5e0" /><circle cx="789.3" cy="122.1" r="4" fill="#60e5e0" /><circle cx="806.2" cy="120.4" r="4" fill="#60e5e0" /><circle cx="823.1" cy="120.4" r="4" fill="#60e5e0" /><circle cx="840.0" cy="120.4" r="4" fill="#60e5e0" /><polyline points="80.0,314.6 96.9,314.4 113.8,314.2 130.7,314.2 147.6,314.2 164.4,314.1 181.3,314.1 198.2,314.1 215.1,314.1 232.0,314.1 248.9,314.0 265.8,314.0 282.7,314.0 299.6,314.0 316.4,314.0 333.3,314.0 350.2,314.0 367.1,314.0 384.0,314.0 400.9,314.0 417.8,314.0 434.7,314.0 451.6,314.0 468.4,314.0 485.3,314.0 502.2,314.0 519.1,314.0 536.0,314.0 552.9,314.0 569.8,314.0 586.7,314.0 603.6,314.0 620.4,314.0 637.3,314.0 654.2,314.0 671.1,314.0 688.0,314.0 704.9,314.0 721.8,314.0 738.7,314.0 755.6,314.0 772.4,313.9 789.3,313.6 806.2,313.4 823.1,313.4 840.0,313.4" fill="none" stroke="#567de1" stroke-width="2.5" stroke-linecap="round" stroke-linejoin="round" /><circle cx="80.0" cy="314.6" r="4" fill="#567de1" /><circle cx="96.9" cy="314.4" r="4" fill="#567de1" /><circle cx="113.8" cy="314.2" r="4" fill="#567de1" /><circle cx="130.7" cy="314.2" r="4" fill="#567de1" /><circle cx="147.6" cy="314.2" r="4" fill="#567de1" /><circle cx="164.4" cy="314.1" r="4" fill="#567de1" /><circle cx="181.3" cy="314.1" r="4" fill="#567de1" /><circle cx="198.2" cy="314.1" r="4" fill="#567de1" /><circle cx="215.1" cy="314.1" r="4" fill="#567de1" /><circle cx="232.0" cy="314.1" r="4" fill="#567de1" /><circle cx="248.9" cy="314.0" r="4" fill="#567de1" /><circle cx="265.8" cy="314.0" r="4" fill="#567de1" /><circle cx="282.7" cy="314.0" r="4" fill="#567de1" /><circle cx="299.6" cy="314.0" r="4" fill="#567de1" /><circle cx="316.4" cy="314.0" r="4" fill="#567de1" /><circle cx="333.3" cy="314.0" r="4" fill="#567de1" /><circle cx="350.2" cy="314.0" r="4" fill="#567de1" /><circle cx="367.1" cy="314.0" r="4" fill="#567de1" /><circle cx="384.0" cy="314.0" r="4" fill="#567de1" /><circle cx="400.9" cy="314.0" r="4" fill="#567de1" /><circle cx="417.8" cy="314.0" r="4" fill="#567de1" /><circle cx="434.7" cy="314.0" r="4" fill="#567de1" /><circle cx="451.6" cy="314.0" r="4" fill="#567de1" /><circle cx="468.4" cy="314.0" r="4" fill="#567de1" /><circle cx="485.3" cy="314.0" r="4" fill="#567de1" /><circle cx="502.2" cy="314.0" r="4" fill="#567de1" /><circle cx="519.1" cy="314.0" r="4" fill="#567de1" /><circle cx="536.0" cy="314.0" r="4" fill="#567de1" /><circle cx="552.9" cy="314.0" r="4" fill="#567de1" /><circle cx="569.8" cy="314.0" r="4" fill="#567de1" /><circle cx="586.7" cy="314.0" r="4" fill="#567de1" /><circle cx="603.6" cy="314.0" r="4" fill="#567de1" /><circle cx="620.4" cy="314.0" r="4" fill="#567de1" /><circle cx="637.3" cy="314.0" r="4" fill="#567de1" /><circle cx="654.2" cy="314.0" r="4" fill="#567de1" /><circle cx="671.1" cy="314.0" r="4" fill="#567de1" /><circle cx="688.0" cy="314.0" r="4" fill="#567de1" /><circle cx="704.9" cy="314.0" r="4" fill="#567de1" /><circle cx="721.8" cy="314.0" r="4" fill="#567de1" /><circle cx="738.7" cy="314.0" r="4" fill="#567de1" /><circle cx="755.6" cy="314.0" r="4" fill="#567de1" /><circle cx="772.4" cy="313.9" r="4" fill="#567de1" /><circle cx="789.3" cy="313.6" r="4" fill="#567de1" /><circle cx="806.2" cy="313.4" r="4" fill="#567de1" /><circle cx="823.1" cy="313.4" r="4" fill="#567de1" /><circle cx="840.0" cy="313.4" r="4" fill="#567de1" /><polyline points="80.0,303.9 96.9,304.2 113.8,304.4 130.7,304.4 147.6,304.4 164.4,304.4 181.3,304.4 198.2,304.4 215.1,304.4 232.0,304.4 248.9,304.4 265.8,304.4 282.7,304.4 299.6,304.4 316.4,304.4 333.3,304.4 350.2,304.4 367.1,304.4 384.0,304.4 400.9,304.4 417.8,304.4 434.7,304.4 451.6,304.4 468.4,304.4 485.3,304.4 502.2,304.4 519.1,304.4 536.0,304.4 552.9,299.1 569.8,299.1 586.7,299.1 603.6,298.9 620.4,295.6 637.3,295.6 654.2,295.6 671.1,295.6 688.0,295.6 704.9,295.6 721.8,295.6 738.7,295.6 755.6,295.6 772.4,295.8 789.3,295.9 806.2,295.9 823.1,295.9 840.0,295.9" fill="none" stroke="#9754dd" stroke-width="2.5" stroke-linecap="round" stroke-linejoin="round" /><circle cx="80.0" cy="303.9" r="4" fill="#9754dd" /><circle cx="96.9" cy="304.2" r="4" fill="#9754dd" /><circle cx="113.8" cy="304.4" r="4" fill="#9754dd" /><circle cx="130.7" cy="304.4" r="4" fill="#9754dd" /><circle cx="147.6" cy="304.4" r="4" fill="#9754dd" /><circle cx="164.4" cy="304.4" r="4" fill="#9754dd" /><circle cx="181.3" cy="304.4" r="4" fill="#9754dd" /><circle cx="198.2" cy="304.4" r="4" fill="#9754dd" /><circle cx="215.1" cy="304.4" r="4" fill="#9754dd" /><circle cx="232.0" cy="304.4" r="4" fill="#9754dd" /><circle cx="248.9" cy="304.4" r="4" fill="#9754dd" /><circle cx="265.8" cy="304.4" r="4" fill="#9754dd" /><circle cx="282.7" cy="304.4" r="4" fill="#9754dd" /><circle cx="299.6" cy="304.4" r="4" fill="#9754dd" /><circle cx="316.4" cy="304.4" r="4" fill="#9754dd" /><circle cx="333.3" cy="304.4" r="4" fill="#9754dd" /><circle cx="350.2" cy="304.4" r="4" fill="#9754dd" /><circle cx="367.1" cy="304.4" r="4" fill="#9754dd" /><circle cx="384.0" cy="304.4" r="4" fill="#9754dd" /><circle cx="400.9" cy="304.4" r="4" fill="#9754dd" /><circle cx="417.8" cy="304.4" r="4" fill="#9754dd" /><circle cx="434.7" cy="304.4" r="4" fill="#9754dd" /><circle cx="451.6" cy="304.4" r="4" fill="#9754dd" /><circle cx="468.4" cy="304.4" r="4" fill="#9754dd" /><circle cx="485.3" cy="304.4" r="4" fill="#9754dd" /><circle cx="502.2" cy="304.4" r="4" fill="#9754dd" /><circle cx="519.1" cy="304.4" r="4" fill="#9754dd" /><circle cx="536.0" cy="304.4" r="4" fill="#9754dd" /><circle cx="552.9" cy="299.1" r="4" fill="#9754dd" /><circle cx="569.8" cy="299.1" r="4" fill="#9754dd" /><circle cx="586.7" cy="299.1" r="4" fill="#9754dd" /><circle cx="603.6" cy="298.9" r="4" fill="#9754dd" /><circle cx="620.4" cy="295.6" r="4" fill="#9754dd" /><circle cx="637.3" cy="295.6" r="4" fill="#9754dd" /><circle cx="654.2" cy="295.6" r="4" fill="#9754dd" /><circle cx="671.1" cy="295.6" r="4" fill="#9754dd" /><circle cx="688.0" cy="295.6" r="4" fill="#9754dd" /><circle cx="704.9" cy="295.6" r="4" fill="#9754dd" /><circle cx="721.8" cy="295.6" r="4" fill="#9754dd" /><circle cx="738.7" cy="295.6" r="4" fill="#9754dd" /><circle cx="755.6" cy="295.6" r="4" fill="#9754dd" /><circle cx="772.4" cy="295.8" r="4" fill="#9754dd" /><circle cx="789.3" cy="295.9" r="4" fill="#9754dd" /><circle cx="806.2" cy="295.9" r="4" fill="#9754dd" /><circle cx="823.1" cy="295.9" r="4" fill="#9754dd" /><circle cx="840.0" cy="295.9" r="4" fill="#9754dd" />
  <rect x="80" y="339" width="10" height="10" rx="2" ry="2" fill="#19e5a1" /><text x="96" y="348" class="legend-label">Stars</text><rect x="250" y="339" width="10" height="10" rx="2" ry="2" fill="#6eb6ec" /><text x="266" y="348" class="legend-label">Followers</text><rect x="420" y="339" width="10" height="10" rx="2" ry="2" fill="#5938e2" /><text x="436" y="348" class="legend-label">Following</text><rect x="590" y="339" width="10" height="10" rx="2" ry="2" fill="#60e5e0" /><text x="606" y="348" class="legend-label">Contributions</text><rect x="80" y="357" width="10" height="10" rx="2" ry="2" fill="#567de1" /><text x="96" y="366" class="legend-label">Pull Requests</text><rect x="250" y="357" width="10" height="10" rx="2" ry="2" fill="#9754dd" /><text x="266" y="366" class="legend-label">Issues</text>
</svg>
