<svg width="900" height="402" viewBox="0 0 900 402" xmlns="http://www.w3.org/2000/svg">
  <defs>
    <linearGradient id="history-gradient" x1="0%" y1="0%" x2="100%" y2="100%">
      <stop offset="0%" style="stop-color:#58a6ff;stop-opacity:1" />
      <stop offset="100%" style="stop-color:#a371f7;stop-opacity:1" />
    </linearGradient>
    <clipPath id="history-rounded">
      <rect x="0" y="0" width="900" height="402" rx="8" ry="8" />
    </clipPath>
  </defs>
  <style>
    .title {
      font-family: 'Segoe UI', Ubuntu, 'Helvetica Neue', sans-serif;
      font-size: 22px;
      font-weight: 700;
      fill: #58a6ff;
    }
    .subtitle {
      font-family: 'Segoe UI', Ubuntu, 'Helvetica Neue', sans-serif;
      font-size: 12px;
      font-weight: 500;
      fill: #8b949e;
    }
    .axis-label {
      font-family: 'Segoe UI', Ubuntu, 'Helvetica Neue', sans-serif;
      font-size: 10px;
      fill: #8b949e;
    }
    .grid-line {
      stroke: #30363d;
      stroke-width: 1;
      opacity: 0.3;
    }
    .legend-label {
      font-family: 'Segoe UI', Ubuntu, 'Helvetica Neue', sans-serif;
      font-size: 11px;
      fill: #c9d1d9;
      dominant-baseline: middle;
    }
  </style>
  <rect clip-path="url(#history-rounded)" width="100%" height="100%" fill="#0d1117" stroke="#30363d" stroke-width="1" />
  <rect x="0" y="396" width="900" height="6" fill="url(#history-gradient)" clip-path="url(#history-rounded)" />
  <text x="24" y="34" class="title">Leonardo Klein Stats History</text>
  <text x="24" y="54" class="subtitle">Period: 2026-02-20 to 2026-03-02</text>
  <text x="72" y="320.0" text-anchor="end" dominant-baseline="central" class="axis-label">0</text><text x="72" y="270.0" text-anchor="end" dominant-baseline="central" class="axis-label">400</text><text x="72" y="220.0" text-anchor="end" dominant-baseline="central" class="axis-label">800</text><text x="72" y="170.0" text-anchor="end" dominant-baseline="central" class="axis-label">1.2k</text><text x="72" y="120.0" text-anchor="end" dominant-baseline="central" class="axis-label">1.6k</text><text x="72" y="70.0" text-anchor="end" dominant-baseline="central" class="axis-label">2.0k</text>
  <text x="80.0" y="336" text-anchor="middle" class="axis-label">02-20</text><text x="154.5" y="336" text-anchor="middle" class="axis-label">02-21</text><text x="229.0" y="336" text-anchor="middle" class="axis-label">02-22</text><text x="303.5" y="336" text-anchor="middle" class="axis-label">02-23</text><text x="378.0" y="336" text-anchor="middle" class="axis-label">02-24</text><text x="452.5" y="336" text-anchor="middle" class="axis-label">02-25</text><text x="527.1" y="336" text-anchor="middle" class="axis-label">02-26</text><text x="601.6" y="336" text-anchor="middle" class="axis-label">02-27</text><text x="676.1" y="336" text-anchor="middle" class="axis-label">02-28</text><text x="750.6" y="336" text-anchor="middle" class="axis-label">03-01</text><text x="825.1" y="336" text-anchor="middle" class="axis-label">03-02</text><text x="840.0" y="336" text-anchor="middle" class="axis-label">03-02</text>
  <line x1="80" y1="320.0" x2="840" y2="320.0" class="grid-line" /><line x1="80" y1="270.0" x2="840" y2="270.0" class="grid-line" /><line x1="80" y1="220.0" x2="840" y2="220.0" class="grid-line" /><line x1="80" y1="170.0" x2="840" y2="170.0" class="grid-line" /><line x1="80" y1="120.0" x2="840" y2="120.0" class="grid-line" /><line x1="80" y1="70.0" x2="840" y2="70.0" class="grid-line" />
  <polyline points="80.0,317.0 94.9,317.0 109.8,317.0 124.7,317.0 139.6,317.0 154.5,317.0 169.4,317.0 184.3,317.0 199.2,317.0 214.1,317.0 229.0,317.0 243.9,317.0 258.8,317.0 273.7,317.0 288.6,317.0 303.5,317.0 318.4,317.0 333.3,317.0 348.2,317.0 363.1,317.0 378.0,317.0 392.9,317.0 407.8,317.0 422.7,317.0 437.6,317.0 452.5,317.0 467.5,317.0 482.4,317.0 497.3,317.0 512.2,317.0 527.1,317.0 542.0,317.0 556.9,317.0 571.8,317.0 586.7,317.0 601.6,317.0 616.5,317.0 631.4,317.0 646.3,317.0 661.2,317.0 676.1,317.0 691.0,317.0 705.9,317.0 720.8,317.0 735.7,317.0 750.6,317.0 765.5,317.0 780.4,317.0 795.3,317.0 810.2,317.0 825.1,317.0 840.0,317.0" fill="none" stroke="#19e5a1" stroke-width="2.5" stroke-linecap="round" stroke-linejoin="round" /><circle cx="80.0" cy="317.0" r="4" fill="#19e5a1" /><circle cx="94.9" cy="317.0" r="4" fill="#19e5a1" /><circle cx="109.8" cy="317.0" r="4" fill="#19e5a1" /><circle cx="124.7" cy="317.0" r="4" fill="#19e5a1" /><circle cx="139.6" cy="317.0" r="4" fill="#19e5a1" /><circle cx="154.5" cy="317.0" r="4" fill="#19e5a1" /><circle cx="169.4" cy="317.0" r="4" fill="#19e5a1" /><circle cx="184.3" cy="317.0" r="4" fill="#19e5a1" /><circle cx="199.2" cy="317.0" r="4" fill="#19e5a1" /><circle cx="214.1" cy="317.0" r="4" fill="#19e5a1" /><circle cx="229.0" cy="317.0" r="4" fill="#19e5a1" /><circle cx="243.9" cy="317.0" r="4" fill="#19e5a1" /><circle cx="258.8" cy="317.0" r="4" fill="#19e5a1" /><circle cx="273.7" cy="317.0" r="4" fill="#19e5a1" /><circle cx="288.6" cy="317.0" r="4" fill="#19e5a1" /><circle cx="303.5" cy="317.0" r="4" fill="#19e5a1" /><circle cx="318.4" cy="317.0" r="4" fill="#19e5a1" /><circle cx="333.3" cy="317.0" r="4" fill="#19e5a1" /><circle cx="348.2" cy="317.0" r="4" fill="#19e5a1" /><circle cx="363.1" cy="317.0" r="4" fill="#19e5a1" /><circle cx="378.0" cy="317.0" r="4" fill="#19e5a1" /><circle cx="392.9" cy="317.0" r="4" fill="#19e5a1" /><circle cx="407.8" cy="317.0" r="4" fill="#19e5a1" /><circle cx="422.7" cy="317.0" r="4" fill="#19e5a1" /><circle cx="437.6" cy="317.0" r="4" fill="#19e5a1" /><circle cx="452.5" cy="317.0" r="4" fill="#19e5a1" /><circle cx="467.5" cy="317.0" r="4" fill="#19e5a1" /><circle cx="482.4" cy="317.0" r="4" fill="#19e5a1" /><circle cx="497.3" cy="317.0" r="4" fill="#19e5a1" /><circle cx="512.2" cy="317.0" r="4" fill="#19e5a1" /><circle cx="527.1" cy="317.0" r="4" fill="#19e5a1" /><circle cx="542.0" cy="317.0" r="4" fill="#19e5a1" /><circle cx="556.9" cy="317.0" r="4" fill="#19e5a1" /><circle cx="571.8" cy="317.0" r="4" fill="#19e5a1" /><circle cx="586.7" cy="317.0" r="4" fill="#19e5a1" /><circle cx="601.6" cy="317.0" r="4" fill="#19e5a1" /><circle cx="616.5" cy="317.0" r="4" fill="#19e5a1" /><circle cx="631.4" cy="317.0" r="4" fill="#19e5a1" /><circle cx="646.3" cy="317.0" r="4" fill="#19e5a1" /><circle cx="661.2" cy="317.0" r="4" fill="#19e5a1" /><circle cx="676.1" cy="317.0" r="4" fill="#19e5a1" /><circle cx="691.0" cy="317.0" r="4" fill="#19e5a1" /><circle cx="705.9" cy="317.0" r="4" fill="#19e5a1" /><circle cx="720.8" cy="317.0" r="4" fill="#19e5a1" /><circle cx="735.7" cy="317.0" r="4" fill="#19e5a1" /><circle cx="750.6" cy="317.0" r="4" fill="#19e5a1" /><circle cx="765.5" cy="317.0" r="4" fill="#19e5a1" /><circle cx="780.4" cy="317.0" r="4" fill="#19e5a1" /><circle cx="795.3" cy="317.0" r="4" fill="#19e5a1" /><circle cx="810.2" cy="317.0" r="4" fill="#19e5a1" /><circle cx="825.1" cy="317.0" r="4" fill="#19e5a1" /><circle cx="840.0" cy="317.0" r="4" fill="#19e5a1" /><polyline points="80.0,313.2 94.9,312.2 109.8,312.1 124.7,312.4 139.6,312.4 154.5,312.4 169.4,312.1 184.3,312.0 199.2,311.9 214.1,311.9 229.0,311.8 243.9,311.8 258.8,311.5 273.7,311.5 288.6,311.5 303.5,311.2 318.4,311.2 333.3,311.1 348.2,311.1 363.1,311.1 378.0,310.9 392.9,311.0 407.8,310.8 422.7,310.8 437.6,310.8 452.5,310.8 467.5,310.4 482.4,310.2 497.3,310.4 512.2,310.4 527.1,310.4 542.0,310.4 556.9,310.4 571.8,310.2 586.7,310.2 601.6,310.1 616.5,310.1 631.4,309.8 646.3,309.6 661.2,309.6 676.1,309.6 691.0,309.6 705.9,309.5 720.8,309.4 735.7,309.4 750.6,309.4 765.5,309.4 780.4,309.2 795.3,309.2 810.2,309.2 825.1,309.4 840.0,309.4" fill="none" stroke="#6eb6ec" stroke-width="2.5" stroke-linecap="round" stroke-linejoin="round" /><circle cx="80.0" cy="313.2" r="4" fill="#6eb6ec" /><circle cx="94.9" cy="312.2" r="4" fill="#6eb6ec" /><circle cx="109.8" cy="312.1" r="4" fill="#6eb6ec" /><circle cx="124.7" cy="312.4" r="4" fill="#6eb6ec" /><circle cx="139.6" cy="312.4" r="4" fill="#6eb6ec" /><circle cx="154.5" cy="312.4" r="4" fill="#6eb6ec" /><circle cx="169.4" cy="312.1" r="4" fill="#6eb6ec" /><circle cx="184.3" cy="312.0" r="4" fill="#6eb6ec" /><circle cx="199.2" cy="311.9" r="4" fill="#6eb6ec" /><circle cx="214.1" cy="311.9" r="4" fill="#6eb6ec" /><circle cx="229.0" cy="311.8" r="4" fill="#6eb6ec" /><circle cx="243.9" cy="311.8" r="4" fill="#6eb6ec" /><circle cx="258.8" cy="311.5" r="4" fill="#6eb6ec" /><circle cx="273.7" cy="311.5" r="4" fill="#6eb6ec" /><circle cx="288.6" cy="311.5" r="4" fill="#6eb6ec" /><circle cx="303.5" cy="311.2" r="4" fill="#6eb6ec" /><circle cx="318.4" cy="311.2" r="4" fill="#6eb6ec" /><circle cx="333.3" cy="311.1" r="4" fill="#6eb6ec" /><circle cx="348.2" cy="311.1" r="4" fill="#6eb6ec" /><circle cx="363.1" cy="311.1" r="4" fill="#6eb6ec" /><circle cx="378.0" cy="310.9" r="4" fill="#6eb6ec" /><circle cx="392.9" cy="311.0" r="4" fill="#6eb6ec" /><circle cx="407.8" cy="310.8" r="4" fill="#6eb6ec" /><circle cx="422.7" cy="310.8" r="4" fill="#6eb6ec" /><circle cx="437.6" cy="310.8" r="4" fill="#6eb6ec" /><circle cx="452.5" cy="310.8" r="4" fill="#6eb6ec" /><circle cx="467.5" cy="310.4" r="4" fill="#6eb6ec" /><circle cx="482.4" cy="310.2" r="4" fill="#6eb6ec" /><circle cx="497.3" cy="310.4" r="4" fill="#6eb6ec" /><circle cx="512.2" cy="310.4" r="4" fill="#6eb6ec" /><circle cx="527.1" cy="310.4" r="4" fill="#6eb6ec" /><circle cx="542.0" cy="310.4" r="4" fill="#6eb6ec" /><circle cx="556.9" cy="310.4" r="4" fill="#6eb6ec" /><circle cx="571.8" cy="310.2" r="4" fill="#6eb6ec" /><circle cx="586.7" cy="310.2" r="4" fill="#6eb6ec" /><circle cx="601.6" cy="310.1" r="4" fill="#6eb6ec" /><circle cx="616.5" cy="310.1" r="4" fill="#6eb6ec" /><circle cx="631.4" cy="309.8" r="4" fill="#6eb6ec" /><circle cx="646.3" cy="309.6" r="4" fill="#6eb6ec" /><circle cx="661.2" cy="309.6" r="4" fill="#6eb6ec" /><circle cx="676.1" cy="309.6" r="4" fill="#6eb6ec" /><circle cx="691.0" cy="309.6" r="4" fill="#6eb6ec" /><circle cx="705.9" cy="309.5" r="4" fill="#6eb6ec" /><circle cx="720.8" cy="309.4" r="4" fill="#6eb6ec" /><circle cx="735.7" cy="309.4" r="4" fill="#6eb6ec" /><circle cx="750.6" cy="309.4" r="4" fill="#6eb6ec" /><circle cx="765.5" cy="309.4" r="4" fill="#6eb6ec" /><circle cx="780.4" cy="309.2" r="4" fill="#6eb6ec" /><circle cx="795.3" cy="309.2" r="4" fill="#6eb6ec" /><circle cx="810.2" cy="309.2" r="4" fill="#6eb6ec" /><circle cx="825.1" cy="309.4" r="4" fill="#6eb6ec" /><circle cx="840.0" cy="309.4" r="4" fill="#6eb6ec" /><polyline points="80.0,305.8 94.9,305.8 109.8,305.8 124.7,305.8 139.6,305.8 154.5,305.8 169.4,305.8 184.3,305.8 199.2,305.8 214.1,305.8 229.0,304.9 243.9,304.9 258.8,304.9 273.7,304.9 288.6,304.9 303.5,304.9 318.4,304.9 333.3,304.9 348.2,304.9 363.1,304.9 378.0,304.9 392.9,304.9 407.8,304.9 422.7,304.9 437.6,304.9 452.5,304.9 467.5,304.9 482.4,304.9 497.3,304.9 512.2,304.9 527.1,304.9 542.0,304.9 556.9,304.9 571.8,304.9 586.7,304.9 601.6,304.9 616.5,304.9 631.4,303.6 646.3,303.6 661.2,303.6 676.1,303.6 691.0,303.6 705.9,303.6 720.8,303.6 735.7,303.6 750.6,303.6 765.5,303.6 780.4,303.6 795.3,303.6 810.2,303.6 825.1,303.6 840.0,302.9" fill="none" stroke="#5938e2" stroke-width="2.5" stroke-linecap="round" stroke-linejoin="round" /><circle cx="80.0" cy="305.8" r="4" fill="#5938e2" /><circle cx="94.9" cy="305.8" r="4" fill="#5938e2" /><circle cx="109.8" cy="305.8" r="4" fill="#5938e2" /><circle cx="124.7" cy="305.8" r="4" fill="#5938e2" /><circle cx="139.6" cy="305.8" r="4" fill="#5938e2" /><circle cx="154.5" cy="305.8" r="4" fill="#5938e2" /><circle cx="169.4" cy="305.8" r="4" fill="#5938e2" /><circle cx="184.3" cy="305.8" r="4" fill="#5938e2" /><circle cx="199.2" cy="305.8" r="4" fill="#5938e2" /><circle cx="214.1" cy="305.8" r="4" fill="#5938e2" /><circle cx="229.0" cy="304.9" r="4" fill="#5938e2" /><circle cx="243.9" cy="304.9" r="4" fill="#5938e2" /><circle cx="258.8" cy="304.9" r="4" fill="#5938e2" /><circle cx="273.7" cy="304.9" r="4" fill="#5938e2" /><circle cx="288.6" cy="304.9" r="4" fill="#5938e2" /><circle cx="303.5" cy="304.9" r="4" fill="#5938e2" /><circle cx="318.4" cy="304.9" r="4" fill="#5938e2" /><circle cx="333.3" cy="304.9" r="4" fill="#5938e2" /><circle cx="348.2" cy="304.9" r="4" fill="#5938e2" /><circle cx="363.1" cy="304.9" r="4" fill="#5938e2" /><circle cx="378.0" cy="304.9" r="4" fill="#5938e2" /><circle cx="392.9" cy="304.9" r="4" fill="#5938e2" /><circle cx="407.8" cy="304.9" r="4" fill="#5938e2" /><circle cx="422.7" cy="304.9" r="4" fill="#5938e2" /><circle cx="437.6" cy="304.9" r="4" fill="#5938e2" /><circle cx="452.5" cy="304.9" r="4" fill="#5938e2" /><circle cx="467.5" cy="304.9" r="4" fill="#5938e2" /><circle cx="482.4" cy="304.9" r="4" fill="#5938e2" /><circle cx="497.3" cy="304.9" r="4" fill="#5938e2" /><circle cx="512.2" cy="304.9" r="4" fill="#5938e2" /><circle cx="527.1" cy="304.9" r="4" fill="#5938e2" /><circle cx="542.0" cy="304.9" r="4" fill="#5938e2" /><circle cx="556.9" cy="304.9" r="4" fill="#5938e2" /><circle cx="571.8" cy="304.9" r="4" fill="#5938e2" /><circle cx="586.7" cy="304.9" r="4" fill="#5938e2" /><circle cx="601.6" cy="304.9" r="4" fill="#5938e2" /><circle cx="616.5" cy="304.9" r="4" fill="#5938e2" /><circle cx="631.4" cy="303.6" r="4" fill="#5938e2" /><circle cx="646.3" cy="303.6" r="4" fill="#5938e2" /><circle cx="661.2" cy="303.6" r="4" fill="#5938e2" /><circle cx="676.1" cy="303.6" r="4" fill="#5938e2" /><circle cx="691.0" cy="303.6" r="4" fill="#5938e2" /><circle cx="705.9" cy="303.6" r="4" fill="#5938e2" /><circle cx="720.8" cy="303.6" r="4" fill="#5938e2" /><circle cx="735.7" cy="303.6" r="4" fill="#5938e2" /><circle cx="750.6" cy="303.6" r="4" fill="#5938e2" /><circle cx="765.5" cy="303.6" r="4" fill="#5938e2" /><circle cx="780.4" cy="303.6" r="4" fill="#5938e2" /><circle cx="795.3" cy="303.6" r="4" fill="#5938e2" /><circle cx="810.2" cy="303.6" r="4" fill="#5938e2" /><circle cx="825.1" cy="303.6" r="4" fill="#5938e2" /><circle cx="840.0" cy="302.9" r="4" fill="#5938e2" /><polyline points="80.0,144.6 94.9,140.1 109.8,139.9 124.7,139.8 139.6,139.8 154.5,139.6 169.4,139.6 184.3,139.6 199.2,139.6 214.1,139.6 229.0,138.4 243.9,138.4 258.8,138.4 273.7,138.4 288.6,138.4 303.5,138.4 318.4,138.4 333.3,137.4 348.2,137.4 363.1,137.4 378.0,137.4 392.9,137.4 407.8,137.4 422.7,137.4 437.6,137.4 452.5,137.4 467.5,137.4 482.4,137.4 497.3,131.2 512.2,131.2 527.1,130.8 542.0,130.4 556.9,126.9 571.8,126.9 586.7,126.9 601.6,126.9 616.5,126.9 631.4,126.9 646.3,126.9 661.2,126.9 676.1,126.9 691.0,126.8 705.9,122.1 720.8,120.4 735.7,120.4 750.6,120.4 765.5,120.4 780.4,120.4 795.3,119.4 810.2,119.4 825.1,119.4 840.0,119.4" fill="none" stroke="#60e5e0" stroke-width="2.5" stroke-linecap="round" stroke-linejoin="round" /><circle cx="80.0" cy="144.6" r="4" fill="#60e5e0" /><circle cx="94.9" cy="140.1" r="4" fill="#60e5e0" /><circle cx="109.8" cy="139.9" r="4" fill="#60e5e0" /><circle cx="124.7" cy="139.8" r="4" fill="#60e5e0" /><circle cx="139.6" cy="139.8" r="4" fill="#60e5e0" /><circle cx="154.5" cy="139.6" r="4" fill="#60e5e0" /><circle cx="169.4" cy="139.6" r="4" fill="#60e5e0" /><circle cx="184.3" cy="139.6" r="4" fill="#60e5e0" /><circle cx="199.2" cy="139.6" r="4" fill="#60e5e0" /><circle cx="214.1" cy="139.6" r="4" fill="#60e5e0" /><circle cx="229.0" cy="138.4" r="4" fill="#60e5e0" /><circle cx="243.9" cy="138.4" r="4" fill="#60e5e0" /><circle cx="258.8" cy="138.4" r="4" fill="#60e5e0" /><circle cx="273.7" cy="138.4" r="4" fill="#60e5e0" /><circle cx="288.6" cy="138.4" r="4" fill="#60e5e0" /><circle cx="303.5" cy="138.4" r="4" fill="#60e5e0" /><circle cx="318.4" cy="138.4" r="4" fill="#60e5e0" /><circle cx="333.3" cy="137.4" r="4" fill="#60e5e0" /><circle cx="348.2" cy="137.4" r="4" fill="#60e5e0" /><circle cx="363.1" cy="137.4" r="4" fill="#60e5e0" /><circle cx="378.0" cy="137.4" r="4" fill="#60e5e0" /><circle cx="392.9" cy="137.4" r="4" fill="#60e5e0" /><circle cx="407.8" cy="137.4" r="4" fill="#60e5e0" /><circle cx="422.7" cy="137.4" r="4" fill="#60e5e0" /><circle cx="437.6" cy="137.4" r="4" fill="#60e5e0" /><circle cx="452.5" cy="137.4" r="4" fill="#60e5e0" /><circle cx="467.5" cy="137.4" r="4" fill="#60e5e0" /><circle cx="482.4" cy="137.4" r="4" fill="#60e5e0" /><circle cx="497.3" cy="131.2" r="4" fill="#60e5e0" /><circle cx="512.2" cy="131.2" r="4" fill="#60e5e0" /><circle cx="527.1" cy="130.8" r="4" fill="#60e5e0" /><circle cx="542.0" cy="130.4" r="4" fill="#60e5e0" /><circle cx="556.9" cy="126.9" r="4" fill="#60e5e0" /><circle cx="571.8" cy="126.9" r="4" fill="#60e5e0" /><circle cx="586.7" cy="126.9" r="4" fill="#60e5e0" /><circle cx="601.6" cy="126.9" r="4" fill="#60e5e0" /><circle cx="616.5" cy="126.9" r="4" fill="#60e5e0" /><circle cx="631.4" cy="126.9" r="4" fill="#60e5e0" /><circle cx="646.3" cy="126.9" r="4" fill="#60e5e0" /><circle cx="661.2" cy="126.9" r="4" fill="#60e5e0" /><circle cx="676.1" cy="126.9" r="4" fill="#60e5e0" /><circle cx="691.0" cy="126.8" r="4" fill="#60e5e0" /><circle cx="705.9" cy="122.1" r="4" fill="#60e5e0" /><circle cx="720.8" cy="120.4" r="4" fill="#60e5e0" /><circle cx="735.7" cy="120.4" r="4" fill="#60e5e0" /><circle cx="750.6" cy="120.4" r="4" fill="#60e5e0" /><circle cx="765.5" cy="120.4" r="4" fill="#60e5e0" /><circle cx="780.4" cy="120.4" r="4" fill="#60e5e0" /><circle cx="795.3" cy="119.4" r="4" fill="#60e5e0" /><circle cx="810.2" cy="119.4" r="4" fill="#60e5e0" /><circle cx="825.1" cy="119.4" r="4" fill="#60e5e0" /><circle cx="840.0" cy="119.4" r="4" fill="#60e5e0" /><polyline points="80.0,314.6 94.9,314.4 109.8,314.2 124.7,314.2 139.6,314.2 154.5,314.1 169.4,314.1 184.3,314.1 199.2,314.1 214.1,314.1 229.0,314.0 243.9,314.0 258.8,314.0 273.7,314.0 288.6,314.0 303.5,314.0 318.4,314.0 333.3,314.0 348.2,314.0 363.1,314.0 378.0,314.0 392.9,314.0 407.8,314.0 422.7,314.0 437.6,314.0 452.5,314.0 467.5,314.0 482.4,314.0 497.3,314.0 512.2,314.0 527.1,314.0 542.0,314.0 556.9,314.0 571.8,314.0 586.7,314.0 601.6,314.0 616.5,314.0 631.4,314.0 646.3,314.0 661.2,314.0 676.1,314.0 691.0,313.9 705.9,313.6 720.8,313.4 735.7,313.4 750.6,313.4 765.5,313.4 780.4,313.4 795.3,313.1 810.2,313.1 825.1,313.1 840.0,313.1" fill="none" stroke="#567de1" stroke-width="2.5" stroke-linecap="round" stroke-linejoin="round" /><circle cx="80.0" cy="314.6" r="4" fill="#567de1" /><circle cx="94.9" cy="314.4" r="4" fill="#567de1" /><circle cx="109.8" cy="314.2" r="4" fill="#567de1" /><circle cx="124.7" cy="314.2" r="4" fill="#567de1" /><circle cx="139.6" cy="314.2" r="4" fill="#567de1" /><circle cx="154.5" cy="314.1" r="4" fill="#567de1" /><circle cx="169.4" cy="314.1" r="4" fill="#567de1" /><circle cx="184.3" cy="314.1" r="4" fill="#567de1" /><circle cx="199.2" cy="314.1" r="4" fill="#567de1" /><circle cx="214.1" cy="314.1" r="4" fill="#567de1" /><circle cx="229.0" cy="314.0" r="4" fill="#567de1" /><circle cx="243.9" cy="314.0" r="4" fill="#567de1" /><circle cx="258.8" cy="314.0" r="4" fill="#567de1" /><circle cx="273.7" cy="314.0" r="4" fill="#567de1" /><circle cx="288.6" cy="314.0" r="4" fill="#567de1" /><circle cx="303.5" cy="314.0" r="4" fill="#567de1" /><circle cx="318.4" cy="314.0" r="4" fill="#567de1" /><circle cx="333.3" cy="314.0" r="4" fill="#567de1" /><circle cx="348.2" cy="314.0" r="4" fill="#567de1" /><circle cx="363.1" cy="314.0" r="4" fill="#567de1" /><circle cx="378.0" cy="314.0" r="4" fill="#567de1" /><circle cx="392.9" cy="314.0" r="4" fill="#567de1" /><circle cx="407.8" cy="314.0" r="4" fill="#567de1" /><circle cx="422.7" cy="314.0" r="4" fill="#567de1" /><circle cx="437.6" cy="314.0" r="4" fill="#567de1" /><circle cx="452.5" cy="314.0" r="4" fill="#567de1" /><circle cx="467.5" cy="314.0" r="4" fill="#567de1" /><circle cx="482.4" cy="314.0" r="4" fill="#567de1" /><circle cx="497.3" cy="314.0" r="4" fill="#567de1" /><circle cx="512.2" cy="314.0" r="4" fill="#567de1" /><circle cx="527.1" cy="314.0" r="4" fill="#567de1" /><circle cx="542.0" cy="314.0" r="4" fill="#567de1" /><circle cx="556.9" cy="314.0" r="4" fill="#567de1" /><circle cx="571.8" cy="314.0" r="4" fill="#567de1" /><circle cx="586.7" cy="314.0" r="4" fill="#567de1" /><circle cx="601.6" cy="314.0" r="4" fill="#567de1" /><circle cx="616.5" cy="314.0" r="4" fill="#567de1" /><circle cx="631.4" cy="314.0" r="4" fill="#567de1" /><circle cx="646.3" cy="314.0" r="4" fill="#567de1" /><circle cx="661.2" cy="314.0" r="4" fill="#567de1" /><circle cx="676.1" cy="314.0" r="4" fill="#567de1" /><circle cx="691.0" cy="313.9" r="4" fill="#567de1" /><circle cx="705.9" cy="313.6" r="4" fill="#567de1" /><circle cx="720.8" cy="313.4" r="4" fill="#567de1" /><circle cx="735.7" cy="313.4" r="4" fill="#567de1" /><circle cx="750.6" cy="313.4" r="4" fill="#567de1" /><circle cx="765.5" cy="313.4" r="4" fill="#567de1" /><circle cx="780.4" cy="313.4" r="4" fill="#567de1" /><circle cx="795.3" cy="313.1" r="4" fill="#567de1" /><circle cx="810.2" cy="313.1" r="4" fill="#567de1" /><circle cx="825.1" cy="313.1" r="4" fill="#567de1" /><circle cx="840.0" cy="313.1" r="4" fill="#567de1" /><polyline points="80.0,303.9 94.9,304.2 109.8,304.4 124.7,304.4 139.6,304.4 154.5,304.4 169.4,304.4 184.3,304.4 199.2,304.4 214.1,304.4 229.0,304.4 243.9,304.4 258.8,304.4 273.7,304.4 288.6,304.4 303.5,304.4 318.4,304.4 333.3,304.4 348.2,304.4 363.1,304.4 378.0,304.4 392.9,304.4 407.8,304.4 422.7,304.4 437.6,304.4 452.5,304.4 467.5,304.4 482.4,304.4 497.3,299.1 512.2,299.1 527.1,299.1 542.0,298.9 556.9,295.6 571.8,295.6 586.7,295.6 601.6,295.6 616.5,295.6 631.4,295.6 646.3,295.6 661.2,295.6 676.1,295.6 691.0,295.8 705.9,295.9 720.8,295.9 735.7,295.9 750.6,295.9 765.5,295.9 780.4,295.9 795.3,295.9 810.2,295.9 825.1,295.9 840.0,295.9" fill="none" stroke="#9754dd" stroke-width="2.5" stroke-linecap="round" stroke-linejoin="round" /><circle cx="80.0" cy="303.9" r="4" fill="#9754dd" /><circle cx="94.9" cy="304.2" r="4" fill="#9754dd" /><circle cx="109.8" cy="304.4" r="4" fill="#9754dd" /><circle cx="124.7" cy="304.4" r="4" fill="#9754dd" /><circle cx="139.6" cy="304.4" r="4" fill="#9754dd" /><circle cx="154.5" cy="304.4" r="4" fill="#9754dd" /><circle cx="169.4" cy="304.4" r="4" fill="#9754dd" /><circle cx="184.3" cy="304.4" r="4" fill="#9754dd" /><circle cx="199.2" cy="304.4" r="4" fill="#9754dd" /><circle cx="214.1" cy="304.4" r="4" fill="#9754dd" /><circle cx="229.0" cy="304.4" r="4" fill="#9754dd" /><circle cx="243.9" cy="304.4" r="4" fill="#9754dd" /><circle cx="258.8" cy="304.4" r="4" fill="#9754dd" /><circle cx="273.7" cy="304.4" r="4" fill="#9754dd" /><circle cx="288.6" cy="304.4" r="4" fill="#9754dd" /><circle cx="303.5" cy="304.4" r="4" fill="#9754dd" /><circle cx="318.4" cy="304.4" r="4" fill="#9754dd" /><circle cx="333.3" cy="304.4" r="4" fill="#9754dd" /><circle cx="348.2" cy="304.4" r="4" fill="#9754dd" /><circle cx="363.1" cy="304.4" r="4" fill="#9754dd" /><circle cx="378.0" cy="304.4" r="4" fill="#9754dd" /><circle cx="392.9" cy="304.4" r="4" fill="#9754dd" /><circle cx="407.8" cy="304.4" r="4" fill="#9754dd" /><circle cx="422.7" cy="304.4" r="4" fill="#9754dd" /><circle cx="437.6" cy="304.4" r="4" fill="#9754dd" /><circle cx="452.5" cy="304.4" r="4" fill="#9754dd" /><circle cx="467.5" cy="304.4" r="4" fill="#9754dd" /><circle cx="482.4" cy="304.4" r="4" fill="#9754dd" /><circle cx="497.3" cy="299.1" r="4" fill="#9754dd" /><circle cx="512.2" cy="299.1" r="4" fill="#9754dd" /><circle cx="527.1" cy="299.1" r="4" fill="#9754dd" /><circle cx="542.0" cy="298.9" r="4" fill="#9754dd" /><circle cx="556.9" cy="295.6" r="4" fill="#9754dd" /><circle cx="571.8" cy="295.6" r="4" fill="#9754dd" /><circle cx="586.7" cy="295.6" r="4" fill="#9754dd" /><circle cx="601.6" cy="295.6" r="4" fill="#9754dd" /><circle cx="616.5" cy="295.6" r="4" fill="#9754dd" /><circle cx="631.4" cy="295.6" r="4" fill="#9754dd" /><circle cx="646.3" cy="295.6" r="4" fill="#9754dd" /><circle cx="661.2" cy="295.6" r="4" fill="#9754dd" /><circle cx="676.1" cy="295.6" r="4" fill="#9754dd" /><circle cx="691.0" cy="295.8" r="4" fill="#9754dd" /><circle cx="705.9" cy="295.9" r="4" fill="#9754dd" /><circle cx="720.8" cy="295.9" r="4" fill="#9754dd" /><circle cx="735.7" cy="295.9" r="4" fill="#9754dd" /><circle cx="750.6" cy="295.9" r="4" fill="#9754dd" /><circle cx="765.5" cy="295.9" r="4" fill="#9754dd" /><circle cx="780.4" cy="295.9" r="4" fill="#9754dd" /><circle cx="795.3" cy="295.9" r="4" fill="#9754dd" /><circle cx="810.2" cy="295.9" r="4" fill="#9754dd" /><circle cx="825.1" cy="295.9" r="4" fill="#9754dd" /><circle cx="840.0" cy="295.9" r="4" fill="#9754dd" />
  <rect x="80" y="339" width="10" height="10" rx="2" ry="2" fill="#19e5a1" /><text x="96" y="348" class="legend-label">Stars</text><rect x="250" y="339" width="10" height="10" rx="2" ry="2" fill="#6eb6ec" /><text x="266" y="348" class="legend-label">Followers</text><rect x="420" y="339" width="10" height="10" rx="2" ry="2" fill="#5938e2" /><text x="436" y="348" class="legend-label">Following</text><rect x="590" y="339" width="10" height="10" rx="2" ry="2" fill="#60e5e0" /><text x="606" y="348" class="legend-label">Contributions</text><rect x="80" y="357" width="10" height="10" rx="2" ry="2" fill="#567de1" /><text x="96" y="366" class="legend-label">Pull Requests</text><rect x="250" y="357" width="10" height="10" rx="2" ry="2" fill="#9754dd" /><text x="266" y="366" class="legend-label">Issues</text>
</svg>
