<svg width="900" height="402" viewBox="0 0 900 402" xmlns="http://www.w3.org/2000/svg">
  <defs>
    <linearGradient id="history-gradient" x1="0%" y1="0%" x2="100%" y2="100%">
      <stop offset="0%" style="stop-color:#58a6ff;stop-opacity:1" />
      <stop offset="100%" style="stop-color:#a371f7;stop-opacity:1" />
    </linearGradient>
    <clipPath id="history-rounded">
      <rect x="0" y="0" width="900" height="402" rx="8" ry="8" />
    </clipPath>
  </defs>
  <style>
    .title {
      font-family: 'Segoe UI', Ubuntu, 'Helvetica Neue', sans-serif;
      font-size: 22px;
      font-weight: 700;
      fill: #58a6ff;
    }
    .subtitle {
      font-family: 'Segoe UI', Ubuntu, 'Helvetica Neue', sans-serif;
      font-size: 12px;
      font-weight: 500;
      fill: #8b949e;
    }
    .axis-label {
      font-family: 'Segoe UI', Ubuntu, 'Helvetica Neue', sans-serif;
      font-size: 10px;
      fill: #8b949e;
    }
    .grid-line {
      stroke: #30363d;
      stroke-width: 1;
      opacity: 0.3;
    }
    .legend-label {
      font-family: 'Segoe UI', Ubuntu, 'Helvetica Neue', sans-serif;
      font-size: 11px;
      fill: #c9d1d9;
      dominant-baseline: middle;
    }
  </style>
  <rect clip-path="url(#history-rounded)" width="100%" height="100%" fill="#0d1117" stroke="#30363d" stroke-width="1" />
  <rect x="0" y="396" width="900" height="6" fill="url(#history-gradient)" clip-path="url(#history-rounded)" />
  <text x="24" y="34" class="title">Leonardo Klein Stats History</text>
  <text x="24" y="54" class="subtitle">Period: 2026-02-20 to 2026-03-01</text>
  <text x="72" y="320.0" text-anchor="end" dominant-baseline="central" class="axis-label">0</text><text x="72" y="270.0" text-anchor="end" dominant-baseline="central" class="axis-label">400</text><text x="72" y="220.0" text-anchor="end" dominant-baseline="central" class="axis-label">800</text><text x="72" y="170.0" text-anchor="end" dominant-baseline="central" class="axis-label">1.2k</text><text x="72" y="120.0" text-anchor="end" dominant-baseline="central" class="axis-label">1.6k</text><text x="72" y="70.0" text-anchor="end" dominant-baseline="central" class="axis-label">2.0k</text>
  <text x="80.0" y="336" text-anchor="middle" class="axis-label">02-20</text><text x="146.1" y="336" text-anchor="middle" class="axis-label">02-21</text><text x="212.2" y="336" text-anchor="middle" class="axis-label">02-22</text><text x="278.3" y="336" text-anchor="middle" class="axis-label">02-22</text><text x="344.3" y="336" text-anchor="middle" class="axis-label">02-23</text><text x="410.4" y="336" text-anchor="middle" class="axis-label">02-24</text><text x="476.5" y="336" text-anchor="middle" class="axis-label">02-25</text><text x="542.6" y="336" text-anchor="middle" class="axis-label">02-26</text><text x="608.7" y="336" text-anchor="middle" class="axis-label">02-26</text><text x="674.8" y="336" text-anchor="middle" class="axis-label">02-27</text><text x="740.9" y="336" text-anchor="middle" class="axis-label">02-28</text><text x="807.0" y="336" text-anchor="middle" class="axis-label">03-01</text><text x="840.0" y="336" text-anchor="middle" class="axis-label">03-01</text>
  <line x1="80" y1="320.0" x2="840" y2="320.0" class="grid-line" /><line x1="80" y1="270.0" x2="840" y2="270.0" class="grid-line" /><line x1="80" y1="220.0" x2="840" y2="220.0" class="grid-line" /><line x1="80" y1="170.0" x2="840" y2="170.0" class="grid-line" /><line x1="80" y1="120.0" x2="840" y2="120.0" class="grid-line" /><line x1="80" y1="70.0" x2="840" y2="70.0" class="grid-line" />
  <polyline points="80.0,317.0 96.5,317.0 113.0,317.0 129.6,317.0 146.1,317.0 162.6,317.0 179.1,317.0 195.7,317.0 212.2,317.0 228.7,317.0 245.2,317.0 261.7,317.0 278.3,317.0 294.8,317.0 311.3,317.0 327.8,317.0 344.3,317.0 360.9,317.0 377.4,317.0 393.9,317.0 410.4,317.0 427.0,317.0 443.5,317.0 460.0,317.0 476.5,317.0 493.0,317.0 509.6,317.0 526.1,317.0 542.6,317.0 559.1,317.0 575.7,317.0 592.2,317.0 608.7,317.0 625.2,317.0 641.7,317.0 658.3,317.0 674.8,317.0 691.3,317.0 707.8,317.0 724.3,317.0 740.9,317.0 757.4,317.0 773.9,317.0 790.4,317.0 807.0,317.0 823.5,317.0 840.0,317.0" fill="none" stroke="#19e5a1" stroke-width="2.5" stroke-linecap="round" stroke-linejoin="round" /><circle cx="80.0" cy="317.0" r="4" fill="#19e5a1" /><circle cx="96.5" cy="317.0" r="4" fill="#19e5a1" /><circle cx="113.0" cy="317.0" r="4" fill="#19e5a1" /><circle cx="129.6" cy="317.0" r="4" fill="#19e5a1" /><circle cx="146.1" cy="317.0" r="4" fill="#19e5a1" /><circle cx="162.6" cy="317.0" r="4" fill="#19e5a1" /><circle cx="179.1" cy="317.0" r="4" fill="#19e5a1" /><circle cx="195.7" cy="317.0" r="4" fill="#19e5a1" /><circle cx="212.2" cy="317.0" r="4" fill="#19e5a1" /><circle cx="228.7" cy="317.0" r="4" fill="#19e5a1" /><circle cx="245.2" cy="317.0" r="4" fill="#19e5a1" /><circle cx="261.7" cy="317.0" r="4" fill="#19e5a1" /><circle cx="278.3" cy="317.0" r="4" fill="#19e5a1" /><circle cx="294.8" cy="317.0" r="4" fill="#19e5a1" /><circle cx="311.3" cy="317.0" r="4" fill="#19e5a1" /><circle cx="327.8" cy="317.0" r="4" fill="#19e5a1" /><circle cx="344.3" cy="317.0" r="4" fill="#19e5a1" /><circle cx="360.9" cy="317.0" r="4" fill="#19e5a1" /><circle cx="377.4" cy="317.0" r="4" fill="#19e5a1" /><circle cx="393.9" cy="317.0" r="4" fill="#19e5a1" /><circle cx="410.4" cy="317.0" r="4" fill="#19e5a1" /><circle cx="427.0" cy="317.0" r="4" fill="#19e5a1" /><circle cx="443.5" cy="317.0" r="4" fill="#19e5a1" /><circle cx="460.0" cy="317.0" r="4" fill="#19e5a1" /><circle cx="476.5" cy="317.0" r="4" fill="#19e5a1" /><circle cx="493.0" cy="317.0" r="4" fill="#19e5a1" /><circle cx="509.6" cy="317.0" r="4" fill="#19e5a1" /><circle cx="526.1" cy="317.0" r="4" fill="#19e5a1" /><circle cx="542.6" cy="317.0" r="4" fill="#19e5a1" /><circle cx="559.1" cy="317.0" r="4" fill="#19e5a1" /><circle cx="575.7" cy="317.0" r="4" fill="#19e5a1" /><circle cx="592.2" cy="317.0" r="4" fill="#19e5a1" /><circle cx="608.7" cy="317.0" r="4" fill="#19e5a1" /><circle cx="625.2" cy="317.0" r="4" fill="#19e5a1" /><circle cx="641.7" cy="317.0" r="4" fill="#19e5a1" /><circle cx="658.3" cy="317.0" r="4" fill="#19e5a1" /><circle cx="674.8" cy="317.0" r="4" fill="#19e5a1" /><circle cx="691.3" cy="317.0" r="4" fill="#19e5a1" /><circle cx="707.8" cy="317.0" r="4" fill="#19e5a1" /><circle cx="724.3" cy="317.0" r="4" fill="#19e5a1" /><circle cx="740.9" cy="317.0" r="4" fill="#19e5a1" /><circle cx="757.4" cy="317.0" r="4" fill="#19e5a1" /><circle cx="773.9" cy="317.0" r="4" fill="#19e5a1" /><circle cx="790.4" cy="317.0" r="4" fill="#19e5a1" /><circle cx="807.0" cy="317.0" r="4" fill="#19e5a1" /><circle cx="823.5" cy="317.0" r="4" fill="#19e5a1" /><circle cx="840.0" cy="317.0" r="4" fill="#19e5a1" /><polyline points="80.0,313.2 96.5,312.2 113.0,312.1 129.6,312.4 146.1,312.4 162.6,312.4 179.1,312.1 195.7,312.0 212.2,311.9 228.7,311.9 245.2,311.8 261.7,311.8 278.3,311.5 294.8,311.5 311.3,311.5 327.8,311.2 344.3,311.2 360.9,311.1 377.4,311.1 393.9,311.1 410.4,310.9 427.0,311.0 443.5,310.8 460.0,310.8 476.5,310.8 493.0,310.8 509.6,310.4 526.1,310.2 542.6,310.4 559.1,310.4 575.7,310.4 592.2,310.4 608.7,310.4 625.2,310.2 641.7,310.2 658.3,310.1 674.8,310.1 691.3,309.8 707.8,309.6 724.3,309.6 740.9,309.6 757.4,309.6 773.9,309.5 790.4,309.4 807.0,309.4 823.5,309.4 840.0,309.4" fill="none" stroke="#6eb6ec" stroke-width="2.5" stroke-linecap="round" stroke-linejoin="round" /><circle cx="80.0" cy="313.2" r="4" fill="#6eb6ec" /><circle cx="96.5" cy="312.2" r="4" fill="#6eb6ec" /><circle cx="113.0" cy="312.1" r="4" fill="#6eb6ec" /><circle cx="129.6" cy="312.4" r="4" fill="#6eb6ec" /><circle cx="146.1" cy="312.4" r="4" fill="#6eb6ec" /><circle cx="162.6" cy="312.4" r="4" fill="#6eb6ec" /><circle cx="179.1" cy="312.1" r="4" fill="#6eb6ec" /><circle cx="195.7" cy="312.0" r="4" fill="#6eb6ec" /><circle cx="212.2" cy="311.9" r="4" fill="#6eb6ec" /><circle cx="228.7" cy="311.9" r="4" fill="#6eb6ec" /><circle cx="245.2" cy="311.8" r="4" fill="#6eb6ec" /><circle cx="261.7" cy="311.8" r="4" fill="#6eb6ec" /><circle cx="278.3" cy="311.5" r="4" fill="#6eb6ec" /><circle cx="294.8" cy="311.5" r="4" fill="#6eb6ec" /><circle cx="311.3" cy="311.5" r="4" fill="#6eb6ec" /><circle cx="327.8" cy="311.2" r="4" fill="#6eb6ec" /><circle cx="344.3" cy="311.2" r="4" fill="#6eb6ec" /><circle cx="360.9" cy="311.1" r="4" fill="#6eb6ec" /><circle cx="377.4" cy="311.1" r="4" fill="#6eb6ec" /><circle cx="393.9" cy="311.1" r="4" fill="#6eb6ec" /><circle cx="410.4" cy="310.9" r="4" fill="#6eb6ec" /><circle cx="427.0" cy="311.0" r="4" fill="#6eb6ec" /><circle cx="443.5" cy="310.8" r="4" fill="#6eb6ec" /><circle cx="460.0" cy="310.8" r="4" fill="#6eb6ec" /><circle cx="476.5" cy="310.8" r="4" fill="#6eb6ec" /><circle cx="493.0" cy="310.8" r="4" fill="#6eb6ec" /><circle cx="509.6" cy="310.4" r="4" fill="#6eb6ec" /><circle cx="526.1" cy="310.2" r="4" fill="#6eb6ec" /><circle cx="542.6" cy="310.4" r="4" fill="#6eb6ec" /><circle cx="559.1" cy="310.4" r="4" fill="#6eb6ec" /><circle cx="575.7" cy="310.4" r="4" fill="#6eb6ec" /><circle cx="592.2" cy="310.4" r="4" fill="#6eb6ec" /><circle cx="608.7" cy="310.4" r="4" fill="#6eb6ec" /><circle cx="625.2" cy="310.2" r="4" fill="#6eb6ec" /><circle cx="641.7" cy="310.2" r="4" fill="#6eb6ec" /><circle cx="658.3" cy="310.1" r="4" fill="#6eb6ec" /><circle cx="674.8" cy="310.1" r="4" fill="#6eb6ec" /><circle cx="691.3" cy="309.8" r="4" fill="#6eb6ec" /><circle cx="707.8" cy="309.6" r="4" fill="#6eb6ec" /><circle cx="724.3" cy="309.6" r="4" fill="#6eb6ec" /><circle cx="740.9" cy="309.6" r="4" fill="#6eb6ec" /><circle cx="757.4" cy="309.6" r="4" fill="#6eb6ec" /><circle cx="773.9" cy="309.5" r="4" fill="#6eb6ec" /><circle cx="790.4" cy="309.4" r="4" fill="#6eb6ec" /><circle cx="807.0" cy="309.4" r="4" fill="#6eb6ec" /><circle cx="823.5" cy="309.4" r="4" fill="#6eb6ec" /><circle cx="840.0" cy="309.4" r="4" fill="#6eb6ec" /><polyline points="80.0,305.8 96.5,305.8 113.0,305.8 129.6,305.8 146.1,305.8 162.6,305.8 179.1,305.8 195.7,305.8 212.2,305.8 228.7,305.8 245.2,304.9 261.7,304.9 278.3,304.9 294.8,304.9 311.3,304.9 327.8,304.9 344.3,304.9 360.9,304.9 377.4,304.9 393.9,304.9 410.4,304.9 427.0,304.9 443.5,304.9 460.0,304.9 476.5,304.9 493.0,304.9 509.6,304.9 526.1,304.9 542.6,304.9 559.1,304.9 575.7,304.9 592.2,304.9 608.7,304.9 625.2,304.9 641.7,304.9 658.3,304.9 674.8,304.9 691.3,303.6 707.8,303.6 724.3,303.6 740.9,303.6 757.4,303.6 773.9,303.6 790.4,303.6 807.0,303.6 823.5,303.6 840.0,303.6" fill="none" stroke="#5938e2" stroke-width="2.5" stroke-linecap="round" stroke-linejoin="round" /><circle cx="80.0" cy="305.8" r="4" fill="#5938e2" /><circle cx="96.5" cy="305.8" r="4" fill="#5938e2" /><circle cx="113.0" cy="305.8" r="4" fill="#5938e2" /><circle cx="129.6" cy="305.8" r="4" fill="#5938e2" /><circle cx="146.1" cy="305.8" r="4" fill="#5938e2" /><circle cx="162.6" cy="305.8" r="4" fill="#5938e2" /><circle cx="179.1" cy="305.8" r="4" fill="#5938e2" /><circle cx="195.7" cy="305.8" r="4" fill="#5938e2" /><circle cx="212.2" cy="305.8" r="4" fill="#5938e2" /><circle cx="228.7" cy="305.8" r="4" fill="#5938e2" /><circle cx="245.2" cy="304.9" r="4" fill="#5938e2" /><circle cx="261.7" cy="304.9" r="4" fill="#5938e2" /><circle cx="278.3" cy="304.9" r="4" fill="#5938e2" /><circle cx="294.8" cy="304.9" r="4" fill="#5938e2" /><circle cx="311.3" cy="304.9" r="4" fill="#5938e2" /><circle cx="327.8" cy="304.9" r="4" fill="#5938e2" /><circle cx="344.3" cy="304.9" r="4" fill="#5938e2" /><circle cx="360.9" cy="304.9" r="4" fill="#5938e2" /><circle cx="377.4" cy="304.9" r="4" fill="#5938e2" /><circle cx="393.9" cy="304.9" r="4" fill="#5938e2" /><circle cx="410.4" cy="304.9" r="4" fill="#5938e2" /><circle cx="427.0" cy="304.9" r="4" fill="#5938e2" /><circle cx="443.5" cy="304.9" r="4" fill="#5938e2" /><circle cx="460.0" cy="304.9" r="4" fill="#5938e2" /><circle cx="476.5" cy="304.9" r="4" fill="#5938e2" /><circle cx="493.0" cy="304.9" r="4" fill="#5938e2" /><circle cx="509.6" cy="304.9" r="4" fill="#5938e2" /><circle cx="526.1" cy="304.9" r="4" fill="#5938e2" /><circle cx="542.6" cy="304.9" r="4" fill="#5938e2" /><circle cx="559.1" cy="304.9" r="4" fill="#5938e2" /><circle cx="575.7" cy="304.9" r="4" fill="#5938e2" /><circle cx="592.2" cy="304.9" r="4" fill="#5938e2" /><circle cx="608.7" cy="304.9" r="4" fill="#5938e2" /><circle cx="625.2" cy="304.9" r="4" fill="#5938e2" /><circle cx="641.7" cy="304.9" r="4" fill="#5938e2" /><circle cx="658.3" cy="304.9" r="4" fill="#5938e2" /><circle cx="674.8" cy="304.9" r="4" fill="#5938e2" /><circle cx="691.3" cy="303.6" r="4" fill="#5938e2" /><circle cx="707.8" cy="303.6" r="4" fill="#5938e2" /><circle cx="724.3" cy="303.6" r="4" fill="#5938e2" /><circle cx="740.9" cy="303.6" r="4" fill="#5938e2" /><circle cx="757.4" cy="303.6" r="4" fill="#5938e2" /><circle cx="773.9" cy="303.6" r="4" fill="#5938e2" /><circle cx="790.4" cy="303.6" r="4" fill="#5938e2" /><circle cx="807.0" cy="303.6" r="4" fill="#5938e2" /><circle cx="823.5" cy="303.6" r="4" fill="#5938e2" /><circle cx="840.0" cy="303.6" r="4" fill="#5938e2" /><polyline points="80.0,144.6 96.5,140.1 113.0,139.9 129.6,139.8 146.1,139.8 162.6,139.6 179.1,139.6 195.7,139.6 212.2,139.6 228.7,139.6 245.2,138.4 261.7,138.4 278.3,138.4 294.8,138.4 311.3,138.4 327.8,138.4 344.3,138.4 360.9,137.4 377.4,137.4 393.9,137.4 410.4,137.4 427.0,137.4 443.5,137.4 460.0,137.4 476.5,137.4 493.0,137.4 509.6,137.4 526.1,137.4 542.6,131.2 559.1,131.2 575.7,130.8 592.2,130.4 608.7,126.9 625.2,126.9 641.7,126.9 658.3,126.9 674.8,126.9 691.3,126.9 707.8,126.9 724.3,126.9 740.9,126.9 757.4,126.8 773.9,122.1 790.4,120.4 807.0,120.4 823.5,120.4 840.0,120.4" fill="none" stroke="#60e5e0" stroke-width="2.5" stroke-linecap="round" stroke-linejoin="round" /><circle cx="80.0" cy="144.6" r="4" fill="#60e5e0" /><circle cx="96.5" cy="140.1" r="4" fill="#60e5e0" /><circle cx="113.0" cy="139.9" r="4" fill="#60e5e0" /><circle cx="129.6" cy="139.8" r="4" fill="#60e5e0" /><circle cx="146.1" cy="139.8" r="4" fill="#60e5e0" /><circle cx="162.6" cy="139.6" r="4" fill="#60e5e0" /><circle cx="179.1" cy="139.6" r="4" fill="#60e5e0" /><circle cx="195.7" cy="139.6" r="4" fill="#60e5e0" /><circle cx="212.2" cy="139.6" r="4" fill="#60e5e0" /><circle cx="228.7" cy="139.6" r="4" fill="#60e5e0" /><circle cx="245.2" cy="138.4" r="4" fill="#60e5e0" /><circle cx="261.7" cy="138.4" r="4" fill="#60e5e0" /><circle cx="278.3" cy="138.4" r="4" fill="#60e5e0" /><circle cx="294.8" cy="138.4" r="4" fill="#60e5e0" /><circle cx="311.3" cy="138.4" r="4" fill="#60e5e0" /><circle cx="327.8" cy="138.4" r="4" fill="#60e5e0" /><circle cx="344.3" cy="138.4" r="4" fill="#60e5e0" /><circle cx="360.9" cy="137.4" r="4" fill="#60e5e0" /><circle cx="377.4" cy="137.4" r="4" fill="#60e5e0" /><circle cx="393.9" cy="137.4" r="4" fill="#60e5e0" /><circle cx="410.4" cy="137.4" r="4" fill="#60e5e0" /><circle cx="427.0" cy="137.4" r="4" fill="#60e5e0" /><circle cx="443.5" cy="137.4" r="4" fill="#60e5e0" /><circle cx="460.0" cy="137.4" r="4" fill="#60e5e0" /><circle cx="476.5" cy="137.4" r="4" fill="#60e5e0" /><circle cx="493.0" cy="137.4" r="4" fill="#60e5e0" /><circle cx="509.6" cy="137.4" r="4" fill="#60e5e0" /><circle cx="526.1" cy="137.4" r="4" fill="#60e5e0" /><circle cx="542.6" cy="131.2" r="4" fill="#60e5e0" /><circle cx="559.1" cy="131.2" r="4" fill="#60e5e0" /><circle cx="575.7" cy="130.8" r="4" fill="#60e5e0" /><circle cx="592.2" cy="130.4" r="4" fill="#60e5e0" /><circle cx="608.7" cy="126.9" r="4" fill="#60e5e0" /><circle cx="625.2" cy="126.9" r="4" fill="#60e5e0" /><circle cx="641.7" cy="126.9" r="4" fill="#60e5e0" /><circle cx="658.3" cy="126.9" r="4" fill="#60e5e0" /><circle cx="674.8" cy="126.9" r="4" fill="#60e5e0" /><circle cx="691.3" cy="126.9" r="4" fill="#60e5e0" /><circle cx="707.8" cy="126.9" r="4" fill="#60e5e0" /><circle cx="724.3" cy="126.9" r="4" fill="#60e5e0" /><circle cx="740.9" cy="126.9" r="4" fill="#60e5e0" /><circle cx="757.4" cy="126.8" r="4" fill="#60e5e0" /><circle cx="773.9" cy="122.1" r="4" fill="#60e5e0" /><circle cx="790.4" cy="120.4" r="4" fill="#60e5e0" /><circle cx="807.0" cy="120.4" r="4" fill="#60e5e0" /><circle cx="823.5" cy="120.4" r="4" fill="#60e5e0" /><circle cx="840.0" cy="120.4" r="4" fill="#60e5e0" /><polyline points="80.0,314.6 96.5,314.4 113.0,314.2 129.6,314.2 146.1,314.2 162.6,314.1 179.1,314.1 195.7,314.1 212.2,314.1 228.7,314.1 245.2,314.0 261.7,314.0 278.3,314.0 294.8,314.0 311.3,314.0 327.8,314.0 344.3,314.0 360.9,314.0 377.4,314.0 393.9,314.0 410.4,314.0 427.0,314.0 443.5,314.0 460.0,314.0 476.5,314.0 493.0,314.0 509.6,314.0 526.1,314.0 542.6,314.0 559.1,314.0 575.7,314.0 592.2,314.0 608.7,314.0 625.2,314.0 641.7,314.0 658.3,314.0 674.8,314.0 691.3,314.0 707.8,314.0 724.3,314.0 740.9,314.0 757.4,313.9 773.9,313.6 790.4,313.4 807.0,313.4 823.5,313.4 840.0,313.4" fill="none" stroke="#567de1" stroke-width="2.5" stroke-linecap="round" stroke-linejoin="round" /><circle cx="80.0" cy="314.6" r="4" fill="#567de1" /><circle cx="96.5" cy="314.4" r="4" fill="#567de1" /><circle cx="113.0" cy="314.2" r="4" fill="#567de1" /><circle cx="129.6" cy="314.2" r="4" fill="#567de1" /><circle cx="146.1" cy="314.2" r="4" fill="#567de1" /><circle cx="162.6" cy="314.1" r="4" fill="#567de1" /><circle cx="179.1" cy="314.1" r="4" fill="#567de1" /><circle cx="195.7" cy="314.1" r="4" fill="#567de1" /><circle cx="212.2" cy="314.1" r="4" fill="#567de1" /><circle cx="228.7" cy="314.1" r="4" fill="#567de1" /><circle cx="245.2" cy="314.0" r="4" fill="#567de1" /><circle cx="261.7" cy="314.0" r="4" fill="#567de1" /><circle cx="278.3" cy="314.0" r="4" fill="#567de1" /><circle cx="294.8" cy="314.0" r="4" fill="#567de1" /><circle cx="311.3" cy="314.0" r="4" fill="#567de1" /><circle cx="327.8" cy="314.0" r="4" fill="#567de1" /><circle cx="344.3" cy="314.0" r="4" fill="#567de1" /><circle cx="360.9" cy="314.0" r="4" fill="#567de1" /><circle cx="377.4" cy="314.0" r="4" fill="#567de1" /><circle cx="393.9" cy="314.0" r="4" fill="#567de1" /><circle cx="410.4" cy="314.0" r="4" fill="#567de1" /><circle cx="427.0" cy="314.0" r="4" fill="#567de1" /><circle cx="443.5" cy="314.0" r="4" fill="#567de1" /><circle cx="460.0" cy="314.0" r="4" fill="#567de1" /><circle cx="476.5" cy="314.0" r="4" fill="#567de1" /><circle cx="493.0" cy="314.0" r="4" fill="#567de1" /><circle cx="509.6" cy="314.0" r="4" fill="#567de1" /><circle cx="526.1" cy="314.0" r="4" fill="#567de1" /><circle cx="542.6" cy="314.0" r="4" fill="#567de1" /><circle cx="559.1" cy="314.0" r="4" fill="#567de1" /><circle cx="575.7" cy="314.0" r="4" fill="#567de1" /><circle cx="592.2" cy="314.0" r="4" fill="#567de1" /><circle cx="608.7" cy="314.0" r="4" fill="#567de1" /><circle cx="625.2" cy="314.0" r="4" fill="#567de1" /><circle cx="641.7" cy="314.0" r="4" fill="#567de1" /><circle cx="658.3" cy="314.0" r="4" fill="#567de1" /><circle cx="674.8" cy="314.0" r="4" fill="#567de1" /><circle cx="691.3" cy="314.0" r="4" fill="#567de1" /><circle cx="707.8" cy="314.0" r="4" fill="#567de1" /><circle cx="724.3" cy="314.0" r="4" fill="#567de1" /><circle cx="740.9" cy="314.0" r="4" fill="#567de1" /><circle cx="757.4" cy="313.9" r="4" fill="#567de1" /><circle cx="773.9" cy="313.6" r="4" fill="#567de1" /><circle cx="790.4" cy="313.4" r="4" fill="#567de1" /><circle cx="807.0" cy="313.4" r="4" fill="#567de1" /><circle cx="823.5" cy="313.4" r="4" fill="#567de1" /><circle cx="840.0" cy="313.4" r="4" fill="#567de1" /><polyline points="80.0,303.9 96.5,304.2 113.0,304.4 129.6,304.4 146.1,304.4 162.6,304.4 179.1,304.4 195.7,304.4 212.2,304.4 228.7,304.4 245.2,304.4 261.7,304.4 278.3,304.4 294.8,304.4 311.3,304.4 327.8,304.4 344.3,304.4 360.9,304.4 377.4,304.4 393.9,304.4 410.4,304.4 427.0,304.4 443.5,304.4 460.0,304.4 476.5,304.4 493.0,304.4 509.6,304.4 526.1,304.4 542.6,299.1 559.1,299.1 575.7,299.1 592.2,298.9 608.7,295.6 625.2,295.6 641.7,295.6 658.3,295.6 674.8,295.6 691.3,295.6 707.8,295.6 724.3,295.6 740.9,295.6 757.4,295.8 773.9,295.9 790.4,295.9 807.0,295.9 823.5,295.9 840.0,295.9" fill="none" stroke="#9754dd" stroke-width="2.5" stroke-linecap="round" stroke-linejoin="round" /><circle cx="80.0" cy="303.9" r="4" fill="#9754dd" /><circle cx="96.5" cy="304.2" r="4" fill="#9754dd" /><circle cx="113.0" cy="304.4" r="4" fill="#9754dd" /><circle cx="129.6" cy="304.4" r="4" fill="#9754dd" /><circle cx="146.1" cy="304.4" r="4" fill="#9754dd" /><circle cx="162.6" cy="304.4" r="4" fill="#9754dd" /><circle cx="179.1" cy="304.4" r="4" fill="#9754dd" /><circle cx="195.7" cy="304.4" r="4" fill="#9754dd" /><circle cx="212.2" cy="304.4" r="4" fill="#9754dd" /><circle cx="228.7" cy="304.4" r="4" fill="#9754dd" /><circle cx="245.2" cy="304.4" r="4" fill="#9754dd" /><circle cx="261.7" cy="304.4" r="4" fill="#9754dd" /><circle cx="278.3" cy="304.4" r="4" fill="#9754dd" /><circle cx="294.8" cy="304.4" r="4" fill="#9754dd" /><circle cx="311.3" cy="304.4" r="4" fill="#9754dd" /><circle cx="327.8" cy="304.4" r="4" fill="#9754dd" /><circle cx="344.3" cy="304.4" r="4" fill="#9754dd" /><circle cx="360.9" cy="304.4" r="4" fill="#9754dd" /><circle cx="377.4" cy="304.4" r="4" fill="#9754dd" /><circle cx="393.9" cy="304.4" r="4" fill="#9754dd" /><circle cx="410.4" cy="304.4" r="4" fill="#9754dd" /><circle cx="427.0" cy="304.4" r="4" fill="#9754dd" /><circle cx="443.5" cy="304.4" r="4" fill="#9754dd" /><circle cx="460.0" cy="304.4" r="4" fill="#9754dd" /><circle cx="476.5" cy="304.4" r="4" fill="#9754dd" /><circle cx="493.0" cy="304.4" r="4" fill="#9754dd" /><circle cx="509.6" cy="304.4" r="4" fill="#9754dd" /><circle cx="526.1" cy="304.4" r="4" fill="#9754dd" /><circle cx="542.6" cy="299.1" r="4" fill="#9754dd" /><circle cx="559.1" cy="299.1" r="4" fill="#9754dd" /><circle cx="575.7" cy="299.1" r="4" fill="#9754dd" /><circle cx="592.2" cy="298.9" r="4" fill="#9754dd" /><circle cx="608.7" cy="295.6" r="4" fill="#9754dd" /><circle cx="625.2" cy="295.6" r="4" fill="#9754dd" /><circle cx="641.7" cy="295.6" r="4" fill="#9754dd" /><circle cx="658.3" cy="295.6" r="4" fill="#9754dd" /><circle cx="674.8" cy="295.6" r="4" fill="#9754dd" /><circle cx="691.3" cy="295.6" r="4" fill="#9754dd" /><circle cx="707.8" cy="295.6" r="4" fill="#9754dd" /><circle cx="724.3" cy="295.6" r="4" fill="#9754dd" /><circle cx="740.9" cy="295.6" r="4" fill="#9754dd" /><circle cx="757.4" cy="295.8" r="4" fill="#9754dd" /><circle cx="773.9" cy="295.9" r="4" fill="#9754dd" /><circle cx="790.4" cy="295.9" r="4" fill="#9754dd" /><circle cx="807.0" cy="295.9" r="4" fill="#9754dd" /><circle cx="823.5" cy="295.9" r="4" fill="#9754dd" /><circle cx="840.0" cy="295.9" r="4" fill="#9754dd" />
  <rect x="80" y="339" width="10" height="10" rx="2" ry="2" fill="#19e5a1" /><text x="96" y="348" class="legend-label">Stars</text><rect x="250" y="339" width="10" height="10" rx="2" ry="2" fill="#6eb6ec" /><text x="266" y="348" class="legend-label">Followers</text><rect x="420" y="339" width="10" height="10" rx="2" ry="2" fill="#5938e2" /><text x="436" y="348" class="legend-label">Following</text><rect x="590" y="339" width="10" height="10" rx="2" ry="2" fill="#60e5e0" /><text x="606" y="348" class="legend-label">Contributions</text><rect x="80" y="357" width="10" height="10" rx="2" ry="2" fill="#567de1" /><text x="96" y="366" class="legend-label">Pull Requests</text><rect x="250" y="357" width="10" height="10" rx="2" ry="2" fill="#9754dd" /><text x="266" y="366" class="legend-label">Issues</text>
</svg>
