<svg width="900" height="402" viewBox="0 0 900 402" xmlns="http://www.w3.org/2000/svg">
  <defs>
    <linearGradient id="history-gradient" x1="0%" y1="0%" x2="100%" y2="100%">
      <stop offset="0%" style="stop-color:#58a6ff;stop-opacity:1" />
      <stop offset="100%" style="stop-color:#a371f7;stop-opacity:1" />
    </linearGradient>
    <clipPath id="history-rounded">
      <rect x="0" y="0" width="900" height="402" rx="8" ry="8" />
    </clipPath>
  </defs>
  <style>
    .title {
      font-family: 'Segoe UI', Ubuntu, 'Helvetica Neue', sans-serif;
      font-size: 22px;
      font-weight: 700;
      fill: #58a6ff;
    }
    .subtitle {
      font-family: 'Segoe UI', Ubuntu, 'Helvetica Neue', sans-serif;
      font-size: 12px;
      font-weight: 500;
      fill: #8b949e;
    }
    .axis-label {
      font-family: 'Segoe UI', Ubuntu, 'Helvetica Neue', sans-serif;
      font-size: 10px;
      fill: #8b949e;
    }
    .grid-line {
      stroke: #30363d;
      stroke-width: 1;
      opacity: 0.3;
    }
    .legend-label {
      font-family: 'Segoe UI', Ubuntu, 'Helvetica Neue', sans-serif;
      font-size: 11px;
      fill: #c9d1d9;
      dominant-baseline: middle;
    }
  </style>
  <rect clip-path="url(#history-rounded)" width="100%" height="100%" fill="#0d1117" stroke="#30363d" stroke-width="1" />
  <rect x="0" y="396" width="900" height="6" fill="url(#history-gradient)" clip-path="url(#history-rounded)" />
  <text x="24" y="34" class="title">Leonardo Klein Stats History</text>
  <text x="24" y="54" class="subtitle">Period: 2026-02-20 to 2026-03-10</text>
  <text x="72" y="320.0" text-anchor="end" dominant-baseline="central" class="axis-label">0</text><text x="72" y="270.0" text-anchor="end" dominant-baseline="central" class="axis-label">400</text><text x="72" y="220.0" text-anchor="end" dominant-baseline="central" class="axis-label">800</text><text x="72" y="170.0" text-anchor="end" dominant-baseline="central" class="axis-label">1.2k</text><text x="72" y="120.0" text-anchor="end" dominant-baseline="central" class="axis-label">1.6k</text><text x="72" y="70.0" text-anchor="end" dominant-baseline="central" class="axis-label">2.0k</text>
  <text x="80.0" y="336" text-anchor="middle" class="axis-label">02-20</text><text x="149.1" y="336" text-anchor="middle" class="axis-label">02-22</text><text x="218.2" y="336" text-anchor="middle" class="axis-label">02-23</text><text x="287.3" y="336" text-anchor="middle" class="axis-label">02-25</text><text x="356.4" y="336" text-anchor="middle" class="axis-label">02-26</text><text x="425.5" y="336" text-anchor="middle" class="axis-label">02-28</text><text x="494.5" y="336" text-anchor="middle" class="axis-label">03-02</text><text x="563.6" y="336" text-anchor="middle" class="axis-label">03-03</text><text x="632.7" y="336" text-anchor="middle" class="axis-label">03-05</text><text x="701.8" y="336" text-anchor="middle" class="axis-label">03-06</text><text x="770.9" y="336" text-anchor="middle" class="axis-label">03-08</text><text x="840.0" y="336" text-anchor="middle" class="axis-label">03-10</text>
  <line x1="80" y1="320.0" x2="840" y2="320.0" class="grid-line" /><line x1="80" y1="270.0" x2="840" y2="270.0" class="grid-line" /><line x1="80" y1="220.0" x2="840" y2="220.0" class="grid-line" /><line x1="80" y1="170.0" x2="840" y2="170.0" class="grid-line" /><line x1="80" y1="120.0" x2="840" y2="120.0" class="grid-line" /><line x1="80" y1="70.0" x2="840" y2="70.0" class="grid-line" />
  <polyline points="80.0,317.0 88.6,317.0 97.3,317.0 105.9,317.0 114.5,317.0 123.2,317.0 131.8,317.0 140.5,317.0 149.1,317.0 157.7,317.0 166.4,317.0 175.0,317.0 183.6,317.0 192.3,317.0 200.9,317.0 209.5,317.0 218.2,317.0 226.8,317.0 235.5,317.0 244.1,317.0 252.7,317.0 261.4,317.0 270.0,317.0 278.6,317.0 287.3,317.0 295.9,317.0 304.5,317.0 313.2,317.0 321.8,317.0 330.5,317.0 339.1,317.0 347.7,317.0 356.4,317.0 365.0,317.0 373.6,317.0 382.3,317.0 390.9,317.0 399.5,317.0 408.2,317.0 416.8,317.0 425.5,317.0 434.1,317.0 442.7,317.0 451.4,317.0 460.0,317.0 468.6,317.0 477.3,317.0 485.9,317.0 494.5,317.0 503.2,317.0 511.8,317.0 520.5,317.0 529.1,317.0 537.7,317.0 546.4,317.0 555.0,317.0 563.6,317.0 572.3,317.0 580.9,317.0 589.5,317.0 598.2,317.0 606.8,317.0 615.5,317.0 624.1,317.0 632.7,317.0 641.4,317.0 650.0,317.0 658.6,317.0 667.3,317.0 675.9,317.0 684.5,317.0 693.2,317.0 701.8,317.0 710.5,317.0 719.1,317.0 727.7,317.0 736.4,317.0 745.0,317.0 753.6,317.0 762.3,317.0 770.9,317.0 779.5,317.0 788.2,317.0 796.8,317.0 805.5,317.0 814.1,317.0 822.7,317.0 831.4,317.0 840.0,317.0" fill="none" stroke="#19e5a1" stroke-width="2.5" stroke-linecap="round" stroke-linejoin="round" /><circle cx="80.0" cy="317.0" r="4" fill="#19e5a1" /><circle cx="88.6" cy="317.0" r="4" fill="#19e5a1" /><circle cx="97.3" cy="317.0" r="4" fill="#19e5a1" /><circle cx="105.9" cy="317.0" r="4" fill="#19e5a1" /><circle cx="114.5" cy="317.0" r="4" fill="#19e5a1" /><circle cx="123.2" cy="317.0" r="4" fill="#19e5a1" /><circle cx="131.8" cy="317.0" r="4" fill="#19e5a1" /><circle cx="140.5" cy="317.0" r="4" fill="#19e5a1" /><circle cx="149.1" cy="317.0" r="4" fill="#19e5a1" /><circle cx="157.7" cy="317.0" r="4" fill="#19e5a1" /><circle cx="166.4" cy="317.0" r="4" fill="#19e5a1" /><circle cx="175.0" cy="317.0" r="4" fill="#19e5a1" /><circle cx="183.6" cy="317.0" r="4" fill="#19e5a1" /><circle cx="192.3" cy="317.0" r="4" fill="#19e5a1" /><circle cx="200.9" cy="317.0" r="4" fill="#19e5a1" /><circle cx="209.5" cy="317.0" r="4" fill="#19e5a1" /><circle cx="218.2" cy="317.0" r="4" fill="#19e5a1" /><circle cx="226.8" cy="317.0" r="4" fill="#19e5a1" /><circle cx="235.5" cy="317.0" r="4" fill="#19e5a1" /><circle cx="244.1" cy="317.0" r="4" fill="#19e5a1" /><circle cx="252.7" cy="317.0" r="4" fill="#19e5a1" /><circle cx="261.4" cy="317.0" r="4" fill="#19e5a1" /><circle cx="270.0" cy="317.0" r="4" fill="#19e5a1" /><circle cx="278.6" cy="317.0" r="4" fill="#19e5a1" /><circle cx="287.3" cy="317.0" r="4" fill="#19e5a1" /><circle cx="295.9" cy="317.0" r="4" fill="#19e5a1" /><circle cx="304.5" cy="317.0" r="4" fill="#19e5a1" /><circle cx="313.2" cy="317.0" r="4" fill="#19e5a1" /><circle cx="321.8" cy="317.0" r="4" fill="#19e5a1" /><circle cx="330.5" cy="317.0" r="4" fill="#19e5a1" /><circle cx="339.1" cy="317.0" r="4" fill="#19e5a1" /><circle cx="347.7" cy="317.0" r="4" fill="#19e5a1" /><circle cx="356.4" cy="317.0" r="4" fill="#19e5a1" /><circle cx="365.0" cy="317.0" r="4" fill="#19e5a1" /><circle cx="373.6" cy="317.0" r="4" fill="#19e5a1" /><circle cx="382.3" cy="317.0" r="4" fill="#19e5a1" /><circle cx="390.9" cy="317.0" r="4" fill="#19e5a1" /><circle cx="399.5" cy="317.0" r="4" fill="#19e5a1" /><circle cx="408.2" cy="317.0" r="4" fill="#19e5a1" /><circle cx="416.8" cy="317.0" r="4" fill="#19e5a1" /><circle cx="425.5" cy="317.0" r="4" fill="#19e5a1" /><circle cx="434.1" cy="317.0" r="4" fill="#19e5a1" /><circle cx="442.7" cy="317.0" r="4" fill="#19e5a1" /><circle cx="451.4" cy="317.0" r="4" fill="#19e5a1" /><circle cx="460.0" cy="317.0" r="4" fill="#19e5a1" /><circle cx="468.6" cy="317.0" r="4" fill="#19e5a1" /><circle cx="477.3" cy="317.0" r="4" fill="#19e5a1" /><circle cx="485.9" cy="317.0" r="4" fill="#19e5a1" /><circle cx="494.5" cy="317.0" r="4" fill="#19e5a1" /><circle cx="503.2" cy="317.0" r="4" fill="#19e5a1" /><circle cx="511.8" cy="317.0" r="4" fill="#19e5a1" /><circle cx="520.5" cy="317.0" r="4" fill="#19e5a1" /><circle cx="529.1" cy="317.0" r="4" fill="#19e5a1" /><circle cx="537.7" cy="317.0" r="4" fill="#19e5a1" /><circle cx="546.4" cy="317.0" r="4" fill="#19e5a1" /><circle cx="555.0" cy="317.0" r="4" fill="#19e5a1" /><circle cx="563.6" cy="317.0" r="4" fill="#19e5a1" /><circle cx="572.3" cy="317.0" r="4" fill="#19e5a1" /><circle cx="580.9" cy="317.0" r="4" fill="#19e5a1" /><circle cx="589.5" cy="317.0" r="4" fill="#19e5a1" /><circle cx="598.2" cy="317.0" r="4" fill="#19e5a1" /><circle cx="606.8" cy="317.0" r="4" fill="#19e5a1" /><circle cx="615.5" cy="317.0" r="4" fill="#19e5a1" /><circle cx="624.1" cy="317.0" r="4" fill="#19e5a1" /><circle cx="632.7" cy="317.0" r="4" fill="#19e5a1" /><circle cx="641.4" cy="317.0" r="4" fill="#19e5a1" /><circle cx="650.0" cy="317.0" r="4" fill="#19e5a1" /><circle cx="658.6" cy="317.0" r="4" fill="#19e5a1" /><circle cx="667.3" cy="317.0" r="4" fill="#19e5a1" /><circle cx="675.9" cy="317.0" r="4" fill="#19e5a1" /><circle cx="684.5" cy="317.0" r="4" fill="#19e5a1" /><circle cx="693.2" cy="317.0" r="4" fill="#19e5a1" /><circle cx="701.8" cy="317.0" r="4" fill="#19e5a1" /><circle cx="710.5" cy="317.0" r="4" fill="#19e5a1" /><circle cx="719.1" cy="317.0" r="4" fill="#19e5a1" /><circle cx="727.7" cy="317.0" r="4" fill="#19e5a1" /><circle cx="736.4" cy="317.0" r="4" fill="#19e5a1" /><circle cx="745.0" cy="317.0" r="4" fill="#19e5a1" /><circle cx="753.6" cy="317.0" r="4" fill="#19e5a1" /><circle cx="762.3" cy="317.0" r="4" fill="#19e5a1" /><circle cx="770.9" cy="317.0" r="4" fill="#19e5a1" /><circle cx="779.5" cy="317.0" r="4" fill="#19e5a1" /><circle cx="788.2" cy="317.0" r="4" fill="#19e5a1" /><circle cx="796.8" cy="317.0" r="4" fill="#19e5a1" /><circle cx="805.5" cy="317.0" r="4" fill="#19e5a1" /><circle cx="814.1" cy="317.0" r="4" fill="#19e5a1" /><circle cx="822.7" cy="317.0" r="4" fill="#19e5a1" /><circle cx="831.4" cy="317.0" r="4" fill="#19e5a1" /><circle cx="840.0" cy="317.0" r="4" fill="#19e5a1" /><polyline points="80.0,313.2 88.6,312.2 97.3,312.1 105.9,312.4 114.5,312.4 123.2,312.4 131.8,312.1 140.5,312.0 149.1,311.9 157.7,311.9 166.4,311.8 175.0,311.8 183.6,311.5 192.3,311.5 200.9,311.5 209.5,311.2 218.2,311.2 226.8,311.1 235.5,311.1 244.1,311.1 252.7,310.9 261.4,311.0 270.0,310.8 278.6,310.8 287.3,310.8 295.9,310.8 304.5,310.4 313.2,310.2 321.8,310.4 330.5,310.4 339.1,310.4 347.7,310.4 356.4,310.4 365.0,310.2 373.6,310.2 382.3,310.1 390.9,310.1 399.5,309.8 408.2,309.6 416.8,309.6 425.5,309.6 434.1,309.6 442.7,309.5 451.4,309.4 460.0,309.4 468.6,309.4 477.3,309.4 485.9,309.2 494.5,309.2 503.2,309.2 511.8,309.4 520.5,309.4 529.1,309.5 537.7,309.2 546.4,309.2 555.0,309.4 563.6,309.2 572.3,309.2 580.9,309.2 589.5,309.2 598.2,309.2 606.8,309.1 615.5,309.1 624.1,309.1 632.7,309.1 641.4,309.0 650.0,309.0 658.6,308.9 667.3,308.9 675.9,308.9 684.5,308.6 693.2,308.6 701.8,308.6 710.5,308.6 719.1,308.6 727.7,308.6 736.4,308.6 745.0,308.6 753.6,308.6 762.3,308.6 770.9,308.6 779.5,308.6 788.2,308.6 796.8,307.8 805.5,307.8 814.1,307.6 822.7,307.6 831.4,307.6 840.0,307.5" fill="none" stroke="#6eb6ec" stroke-width="2.5" stroke-linecap="round" stroke-linejoin="round" /><circle cx="80.0" cy="313.2" r="4" fill="#6eb6ec" /><circle cx="88.6" cy="312.2" r="4" fill="#6eb6ec" /><circle cx="97.3" cy="312.1" r="4" fill="#6eb6ec" /><circle cx="105.9" cy="312.4" r="4" fill="#6eb6ec" /><circle cx="114.5" cy="312.4" r="4" fill="#6eb6ec" /><circle cx="123.2" cy="312.4" r="4" fill="#6eb6ec" /><circle cx="131.8" cy="312.1" r="4" fill="#6eb6ec" /><circle cx="140.5" cy="312.0" r="4" fill="#6eb6ec" /><circle cx="149.1" cy="311.9" r="4" fill="#6eb6ec" /><circle cx="157.7" cy="311.9" r="4" fill="#6eb6ec" /><circle cx="166.4" cy="311.8" r="4" fill="#6eb6ec" /><circle cx="175.0" cy="311.8" r="4" fill="#6eb6ec" /><circle cx="183.6" cy="311.5" r="4" fill="#6eb6ec" /><circle cx="192.3" cy="311.5" r="4" fill="#6eb6ec" /><circle cx="200.9" cy="311.5" r="4" fill="#6eb6ec" /><circle cx="209.5" cy="311.2" r="4" fill="#6eb6ec" /><circle cx="218.2" cy="311.2" r="4" fill="#6eb6ec" /><circle cx="226.8" cy="311.1" r="4" fill="#6eb6ec" /><circle cx="235.5" cy="311.1" r="4" fill="#6eb6ec" /><circle cx="244.1" cy="311.1" r="4" fill="#6eb6ec" /><circle cx="252.7" cy="310.9" r="4" fill="#6eb6ec" /><circle cx="261.4" cy="311.0" r="4" fill="#6eb6ec" /><circle cx="270.0" cy="310.8" r="4" fill="#6eb6ec" /><circle cx="278.6" cy="310.8" r="4" fill="#6eb6ec" /><circle cx="287.3" cy="310.8" r="4" fill="#6eb6ec" /><circle cx="295.9" cy="310.8" r="4" fill="#6eb6ec" /><circle cx="304.5" cy="310.4" r="4" fill="#6eb6ec" /><circle cx="313.2" cy="310.2" r="4" fill="#6eb6ec" /><circle cx="321.8" cy="310.4" r="4" fill="#6eb6ec" /><circle cx="330.5" cy="310.4" r="4" fill="#6eb6ec" /><circle cx="339.1" cy="310.4" r="4" fill="#6eb6ec" /><circle cx="347.7" cy="310.4" r="4" fill="#6eb6ec" /><circle cx="356.4" cy="310.4" r="4" fill="#6eb6ec" /><circle cx="365.0" cy="310.2" r="4" fill="#6eb6ec" /><circle cx="373.6" cy="310.2" r="4" fill="#6eb6ec" /><circle cx="382.3" cy="310.1" r="4" fill="#6eb6ec" /><circle cx="390.9" cy="310.1" r="4" fill="#6eb6ec" /><circle cx="399.5" cy="309.8" r="4" fill="#6eb6ec" /><circle cx="408.2" cy="309.6" r="4" fill="#6eb6ec" /><circle cx="416.8" cy="309.6" r="4" fill="#6eb6ec" /><circle cx="425.5" cy="309.6" r="4" fill="#6eb6ec" /><circle cx="434.1" cy="309.6" r="4" fill="#6eb6ec" /><circle cx="442.7" cy="309.5" r="4" fill="#6eb6ec" /><circle cx="451.4" cy="309.4" r="4" fill="#6eb6ec" /><circle cx="460.0" cy="309.4" r="4" fill="#6eb6ec" /><circle cx="468.6" cy="309.4" r="4" fill="#6eb6ec" /><circle cx="477.3" cy="309.4" r="4" fill="#6eb6ec" /><circle cx="485.9" cy="309.2" r="4" fill="#6eb6ec" /><circle cx="494.5" cy="309.2" r="4" fill="#6eb6ec" /><circle cx="503.2" cy="309.2" r="4" fill="#6eb6ec" /><circle cx="511.8" cy="309.4" r="4" fill="#6eb6ec" /><circle cx="520.5" cy="309.4" r="4" fill="#6eb6ec" /><circle cx="529.1" cy="309.5" r="4" fill="#6eb6ec" /><circle cx="537.7" cy="309.2" r="4" fill="#6eb6ec" /><circle cx="546.4" cy="309.2" r="4" fill="#6eb6ec" /><circle cx="555.0" cy="309.4" r="4" fill="#6eb6ec" /><circle cx="563.6" cy="309.2" r="4" fill="#6eb6ec" /><circle cx="572.3" cy="309.2" r="4" fill="#6eb6ec" /><circle cx="580.9" cy="309.2" r="4" fill="#6eb6ec" /><circle cx="589.5" cy="309.2" r="4" fill="#6eb6ec" /><circle cx="598.2" cy="309.2" r="4" fill="#6eb6ec" /><circle cx="606.8" cy="309.1" r="4" fill="#6eb6ec" /><circle cx="615.5" cy="309.1" r="4" fill="#6eb6ec" /><circle cx="624.1" cy="309.1" r="4" fill="#6eb6ec" /><circle cx="632.7" cy="309.1" r="4" fill="#6eb6ec" /><circle cx="641.4" cy="309.0" r="4" fill="#6eb6ec" /><circle cx="650.0" cy="309.0" r="4" fill="#6eb6ec" /><circle cx="658.6" cy="308.9" r="4" fill="#6eb6ec" /><circle cx="667.3" cy="308.9" r="4" fill="#6eb6ec" /><circle cx="675.9" cy="308.9" r="4" fill="#6eb6ec" /><circle cx="684.5" cy="308.6" r="4" fill="#6eb6ec" /><circle cx="693.2" cy="308.6" r="4" fill="#6eb6ec" /><circle cx="701.8" cy="308.6" r="4" fill="#6eb6ec" /><circle cx="710.5" cy="308.6" r="4" fill="#6eb6ec" /><circle cx="719.1" cy="308.6" r="4" fill="#6eb6ec" /><circle cx="727.7" cy="308.6" r="4" fill="#6eb6ec" /><circle cx="736.4" cy="308.6" r="4" fill="#6eb6ec" /><circle cx="745.0" cy="308.6" r="4" fill="#6eb6ec" /><circle cx="753.6" cy="308.6" r="4" fill="#6eb6ec" /><circle cx="762.3" cy="308.6" r="4" fill="#6eb6ec" /><circle cx="770.9" cy="308.6" r="4" fill="#6eb6ec" /><circle cx="779.5" cy="308.6" r="4" fill="#6eb6ec" /><circle cx="788.2" cy="308.6" r="4" fill="#6eb6ec" /><circle cx="796.8" cy="307.8" r="4" fill="#6eb6ec" /><circle cx="805.5" cy="307.8" r="4" fill="#6eb6ec" /><circle cx="814.1" cy="307.6" r="4" fill="#6eb6ec" /><circle cx="822.7" cy="307.6" r="4" fill="#6eb6ec" /><circle cx="831.4" cy="307.6" r="4" fill="#6eb6ec" /><circle cx="840.0" cy="307.5" r="4" fill="#6eb6ec" /><polyline points="80.0,305.8 88.6,305.8 97.3,305.8 105.9,305.8 114.5,305.8 123.2,305.8 131.8,305.8 140.5,305.8 149.1,305.8 157.7,305.8 166.4,304.9 175.0,304.9 183.6,304.9 192.3,304.9 200.9,304.9 209.5,304.9 218.2,304.9 226.8,304.9 235.5,304.9 244.1,304.9 252.7,304.9 261.4,304.9 270.0,304.9 278.6,304.9 287.3,304.9 295.9,304.9 304.5,304.9 313.2,304.9 321.8,304.9 330.5,304.9 339.1,304.9 347.7,304.9 356.4,304.9 365.0,304.9 373.6,304.9 382.3,304.9 390.9,304.9 399.5,303.6 408.2,303.6 416.8,303.6 425.5,303.6 434.1,303.6 442.7,303.6 451.4,303.6 460.0,303.6 468.6,303.6 477.3,303.6 485.9,303.6 494.5,303.6 503.2,303.6 511.8,303.6 520.5,302.9 529.1,302.9 537.7,298.0 546.4,298.0 555.0,298.0 563.6,298.0 572.3,298.0 580.9,298.0 589.5,298.0 598.2,298.0 606.8,298.0 615.5,298.0 624.1,298.0 632.7,298.0 641.4,298.0 650.0,298.0 658.6,297.8 667.3,297.8 675.9,297.8 684.5,297.8 693.2,297.8 701.8,297.8 710.5,297.8 719.1,297.8 727.7,297.8 736.4,297.8 745.0,297.8 753.6,297.8 762.3,297.8 770.9,297.8 779.5,297.8 788.2,297.8 796.8,297.8 805.5,297.8 814.1,297.8 822.7,297.6 831.4,297.8 840.0,297.8" fill="none" stroke="#5938e2" stroke-width="2.5" stroke-linecap="round" stroke-linejoin="round" /><circle cx="80.0" cy="305.8" r="4" fill="#5938e2" /><circle cx="88.6" cy="305.8" r="4" fill="#5938e2" /><circle cx="97.3" cy="305.8" r="4" fill="#5938e2" /><circle cx="105.9" cy="305.8" r="4" fill="#5938e2" /><circle cx="114.5" cy="305.8" r="4" fill="#5938e2" /><circle cx="123.2" cy="305.8" r="4" fill="#5938e2" /><circle cx="131.8" cy="305.8" r="4" fill="#5938e2" /><circle cx="140.5" cy="305.8" r="4" fill="#5938e2" /><circle cx="149.1" cy="305.8" r="4" fill="#5938e2" /><circle cx="157.7" cy="305.8" r="4" fill="#5938e2" /><circle cx="166.4" cy="304.9" r="4" fill="#5938e2" /><circle cx="175.0" cy="304.9" r="4" fill="#5938e2" /><circle cx="183.6" cy="304.9" r="4" fill="#5938e2" /><circle cx="192.3" cy="304.9" r="4" fill="#5938e2" /><circle cx="200.9" cy="304.9" r="4" fill="#5938e2" /><circle cx="209.5" cy="304.9" r="4" fill="#5938e2" /><circle cx="218.2" cy="304.9" r="4" fill="#5938e2" /><circle cx="226.8" cy="304.9" r="4" fill="#5938e2" /><circle cx="235.5" cy="304.9" r="4" fill="#5938e2" /><circle cx="244.1" cy="304.9" r="4" fill="#5938e2" /><circle cx="252.7" cy="304.9" r="4" fill="#5938e2" /><circle cx="261.4" cy="304.9" r="4" fill="#5938e2" /><circle cx="270.0" cy="304.9" r="4" fill="#5938e2" /><circle cx="278.6" cy="304.9" r="4" fill="#5938e2" /><circle cx="287.3" cy="304.9" r="4" fill="#5938e2" /><circle cx="295.9" cy="304.9" r="4" fill="#5938e2" /><circle cx="304.5" cy="304.9" r="4" fill="#5938e2" /><circle cx="313.2" cy="304.9" r="4" fill="#5938e2" /><circle cx="321.8" cy="304.9" r="4" fill="#5938e2" /><circle cx="330.5" cy="304.9" r="4" fill="#5938e2" /><circle cx="339.1" cy="304.9" r="4" fill="#5938e2" /><circle cx="347.7" cy="304.9" r="4" fill="#5938e2" /><circle cx="356.4" cy="304.9" r="4" fill="#5938e2" /><circle cx="365.0" cy="304.9" r="4" fill="#5938e2" /><circle cx="373.6" cy="304.9" r="4" fill="#5938e2" /><circle cx="382.3" cy="304.9" r="4" fill="#5938e2" /><circle cx="390.9" cy="304.9" r="4" fill="#5938e2" /><circle cx="399.5" cy="303.6" r="4" fill="#5938e2" /><circle cx="408.2" cy="303.6" r="4" fill="#5938e2" /><circle cx="416.8" cy="303.6" r="4" fill="#5938e2" /><circle cx="425.5" cy="303.6" r="4" fill="#5938e2" /><circle cx="434.1" cy="303.6" r="4" fill="#5938e2" /><circle cx="442.7" cy="303.6" r="4" fill="#5938e2" /><circle cx="451.4" cy="303.6" r="4" fill="#5938e2" /><circle cx="460.0" cy="303.6" r="4" fill="#5938e2" /><circle cx="468.6" cy="303.6" r="4" fill="#5938e2" /><circle cx="477.3" cy="303.6" r="4" fill="#5938e2" /><circle cx="485.9" cy="303.6" r="4" fill="#5938e2" /><circle cx="494.5" cy="303.6" r="4" fill="#5938e2" /><circle cx="503.2" cy="303.6" r="4" fill="#5938e2" /><circle cx="511.8" cy="303.6" r="4" fill="#5938e2" /><circle cx="520.5" cy="302.9" r="4" fill="#5938e2" /><circle cx="529.1" cy="302.9" r="4" fill="#5938e2" /><circle cx="537.7" cy="298.0" r="4" fill="#5938e2" /><circle cx="546.4" cy="298.0" r="4" fill="#5938e2" /><circle cx="555.0" cy="298.0" r="4" fill="#5938e2" /><circle cx="563.6" cy="298.0" r="4" fill="#5938e2" /><circle cx="572.3" cy="298.0" r="4" fill="#5938e2" /><circle cx="580.9" cy="298.0" r="4" fill="#5938e2" /><circle cx="589.5" cy="298.0" r="4" fill="#5938e2" /><circle cx="598.2" cy="298.0" r="4" fill="#5938e2" /><circle cx="606.8" cy="298.0" r="4" fill="#5938e2" /><circle cx="615.5" cy="298.0" r="4" fill="#5938e2" /><circle cx="624.1" cy="298.0" r="4" fill="#5938e2" /><circle cx="632.7" cy="298.0" r="4" fill="#5938e2" /><circle cx="641.4" cy="298.0" r="4" fill="#5938e2" /><circle cx="650.0" cy="298.0" r="4" fill="#5938e2" /><circle cx="658.6" cy="297.8" r="4" fill="#5938e2" /><circle cx="667.3" cy="297.8" r="4" fill="#5938e2" /><circle cx="675.9" cy="297.8" r="4" fill="#5938e2" /><circle cx="684.5" cy="297.8" r="4" fill="#5938e2" /><circle cx="693.2" cy="297.8" r="4" fill="#5938e2" /><circle cx="701.8" cy="297.8" r="4" fill="#5938e2" /><circle cx="710.5" cy="297.8" r="4" fill="#5938e2" /><circle cx="719.1" cy="297.8" r="4" fill="#5938e2" /><circle cx="727.7" cy="297.8" r="4" fill="#5938e2" /><circle cx="736.4" cy="297.8" r="4" fill="#5938e2" /><circle cx="745.0" cy="297.8" r="4" fill="#5938e2" /><circle cx="753.6" cy="297.8" r="4" fill="#5938e2" /><circle cx="762.3" cy="297.8" r="4" fill="#5938e2" /><circle cx="770.9" cy="297.8" r="4" fill="#5938e2" /><circle cx="779.5" cy="297.8" r="4" fill="#5938e2" /><circle cx="788.2" cy="297.8" r="4" fill="#5938e2" /><circle cx="796.8" cy="297.8" r="4" fill="#5938e2" /><circle cx="805.5" cy="297.8" r="4" fill="#5938e2" /><circle cx="814.1" cy="297.8" r="4" fill="#5938e2" /><circle cx="822.7" cy="297.6" r="4" fill="#5938e2" /><circle cx="831.4" cy="297.8" r="4" fill="#5938e2" /><circle cx="840.0" cy="297.8" r="4" fill="#5938e2" /><polyline points="80.0,144.6 88.6,140.1 97.3,139.9 105.9,139.8 114.5,139.8 123.2,139.6 131.8,139.6 140.5,139.6 149.1,139.6 157.7,139.6 166.4,138.4 175.0,138.4 183.6,138.4 192.3,138.4 200.9,138.4 209.5,138.4 218.2,138.4 226.8,137.4 235.5,137.4 244.1,137.4 252.7,137.4 261.4,137.4 270.0,137.4 278.6,137.4 287.3,137.4 295.9,137.4 304.5,137.4 313.2,137.4 321.8,131.2 330.5,131.2 339.1,130.8 347.7,130.4 356.4,126.9 365.0,126.9 373.6,126.9 382.3,126.9 390.9,126.9 399.5,126.9 408.2,126.9 416.8,126.9 425.5,126.9 434.1,126.8 442.7,122.1 451.4,120.4 460.0,120.4 468.6,120.4 477.3,120.4 485.9,120.4 494.5,119.4 503.2,119.4 511.8,119.4 520.5,119.4 529.1,119.1 537.7,118.8 546.4,118.8 555.0,117.8 563.6,117.8 572.3,117.8 580.9,115.8 589.5,115.8 598.2,115.0 606.8,115.0 615.5,115.0 624.1,115.0 632.7,115.0 641.4,115.0 650.0,115.0 658.6,113.9 667.3,111.8 675.9,111.8 684.5,111.8 693.2,111.8 701.8,111.8 710.5,111.8 719.1,111.8 727.7,111.8 736.4,111.8 745.0,111.8 753.6,110.6 762.3,110.6 770.9,110.6 779.5,110.6 788.2,110.6 796.8,109.4 805.5,109.4 814.1,109.4 822.7,109.4 831.4,109.2 840.0,109.2" fill="none" stroke="#60e5e0" stroke-width="2.5" stroke-linecap="round" stroke-linejoin="round" /><circle cx="80.0" cy="144.6" r="4" fill="#60e5e0" /><circle cx="88.6" cy="140.1" r="4" fill="#60e5e0" /><circle cx="97.3" cy="139.9" r="4" fill="#60e5e0" /><circle cx="105.9" cy="139.8" r="4" fill="#60e5e0" /><circle cx="114.5" cy="139.8" r="4" fill="#60e5e0" /><circle cx="123.2" cy="139.6" r="4" fill="#60e5e0" /><circle cx="131.8" cy="139.6" r="4" fill="#60e5e0" /><circle cx="140.5" cy="139.6" r="4" fill="#60e5e0" /><circle cx="149.1" cy="139.6" r="4" fill="#60e5e0" /><circle cx="157.7" cy="139.6" r="4" fill="#60e5e0" /><circle cx="166.4" cy="138.4" r="4" fill="#60e5e0" /><circle cx="175.0" cy="138.4" r="4" fill="#60e5e0" /><circle cx="183.6" cy="138.4" r="4" fill="#60e5e0" /><circle cx="192.3" cy="138.4" r="4" fill="#60e5e0" /><circle cx="200.9" cy="138.4" r="4" fill="#60e5e0" /><circle cx="209.5" cy="138.4" r="4" fill="#60e5e0" /><circle cx="218.2" cy="138.4" r="4" fill="#60e5e0" /><circle cx="226.8" cy="137.4" r="4" fill="#60e5e0" /><circle cx="235.5" cy="137.4" r="4" fill="#60e5e0" /><circle cx="244.1" cy="137.4" r="4" fill="#60e5e0" /><circle cx="252.7" cy="137.4" r="4" fill="#60e5e0" /><circle cx="261.4" cy="137.4" r="4" fill="#60e5e0" /><circle cx="270.0" cy="137.4" r="4" fill="#60e5e0" /><circle cx="278.6" cy="137.4" r="4" fill="#60e5e0" /><circle cx="287.3" cy="137.4" r="4" fill="#60e5e0" /><circle cx="295.9" cy="137.4" r="4" fill="#60e5e0" /><circle cx="304.5" cy="137.4" r="4" fill="#60e5e0" /><circle cx="313.2" cy="137.4" r="4" fill="#60e5e0" /><circle cx="321.8" cy="131.2" r="4" fill="#60e5e0" /><circle cx="330.5" cy="131.2" r="4" fill="#60e5e0" /><circle cx="339.1" cy="130.8" r="4" fill="#60e5e0" /><circle cx="347.7" cy="130.4" r="4" fill="#60e5e0" /><circle cx="356.4" cy="126.9" r="4" fill="#60e5e0" /><circle cx="365.0" cy="126.9" r="4" fill="#60e5e0" /><circle cx="373.6" cy="126.9" r="4" fill="#60e5e0" /><circle cx="382.3" cy="126.9" r="4" fill="#60e5e0" /><circle cx="390.9" cy="126.9" r="4" fill="#60e5e0" /><circle cx="399.5" cy="126.9" r="4" fill="#60e5e0" /><circle cx="408.2" cy="126.9" r="4" fill="#60e5e0" /><circle cx="416.8" cy="126.9" r="4" fill="#60e5e0" /><circle cx="425.5" cy="126.9" r="4" fill="#60e5e0" /><circle cx="434.1" cy="126.8" r="4" fill="#60e5e0" /><circle cx="442.7" cy="122.1" r="4" fill="#60e5e0" /><circle cx="451.4" cy="120.4" r="4" fill="#60e5e0" /><circle cx="460.0" cy="120.4" r="4" fill="#60e5e0" /><circle cx="468.6" cy="120.4" r="4" fill="#60e5e0" /><circle cx="477.3" cy="120.4" r="4" fill="#60e5e0" /><circle cx="485.9" cy="120.4" r="4" fill="#60e5e0" /><circle cx="494.5" cy="119.4" r="4" fill="#60e5e0" /><circle cx="503.2" cy="119.4" r="4" fill="#60e5e0" /><circle cx="511.8" cy="119.4" r="4" fill="#60e5e0" /><circle cx="520.5" cy="119.4" r="4" fill="#60e5e0" /><circle cx="529.1" cy="119.1" r="4" fill="#60e5e0" /><circle cx="537.7" cy="118.8" r="4" fill="#60e5e0" /><circle cx="546.4" cy="118.8" r="4" fill="#60e5e0" /><circle cx="555.0" cy="117.8" r="4" fill="#60e5e0" /><circle cx="563.6" cy="117.8" r="4" fill="#60e5e0" /><circle cx="572.3" cy="117.8" r="4" fill="#60e5e0" /><circle cx="580.9" cy="115.8" r="4" fill="#60e5e0" /><circle cx="589.5" cy="115.8" r="4" fill="#60e5e0" /><circle cx="598.2" cy="115.0" r="4" fill="#60e5e0" /><circle cx="606.8" cy="115.0" r="4" fill="#60e5e0" /><circle cx="615.5" cy="115.0" r="4" fill="#60e5e0" /><circle cx="624.1" cy="115.0" r="4" fill="#60e5e0" /><circle cx="632.7" cy="115.0" r="4" fill="#60e5e0" /><circle cx="641.4" cy="115.0" r="4" fill="#60e5e0" /><circle cx="650.0" cy="115.0" r="4" fill="#60e5e0" /><circle cx="658.6" cy="113.9" r="4" fill="#60e5e0" /><circle cx="667.3" cy="111.8" r="4" fill="#60e5e0" /><circle cx="675.9" cy="111.8" r="4" fill="#60e5e0" /><circle cx="684.5" cy="111.8" r="4" fill="#60e5e0" /><circle cx="693.2" cy="111.8" r="4" fill="#60e5e0" /><circle cx="701.8" cy="111.8" r="4" fill="#60e5e0" /><circle cx="710.5" cy="111.8" r="4" fill="#60e5e0" /><circle cx="719.1" cy="111.8" r="4" fill="#60e5e0" /><circle cx="727.7" cy="111.8" r="4" fill="#60e5e0" /><circle cx="736.4" cy="111.8" r="4" fill="#60e5e0" /><circle cx="745.0" cy="111.8" r="4" fill="#60e5e0" /><circle cx="753.6" cy="110.6" r="4" fill="#60e5e0" /><circle cx="762.3" cy="110.6" r="4" fill="#60e5e0" /><circle cx="770.9" cy="110.6" r="4" fill="#60e5e0" /><circle cx="779.5" cy="110.6" r="4" fill="#60e5e0" /><circle cx="788.2" cy="110.6" r="4" fill="#60e5e0" /><circle cx="796.8" cy="109.4" r="4" fill="#60e5e0" /><circle cx="805.5" cy="109.4" r="4" fill="#60e5e0" /><circle cx="814.1" cy="109.4" r="4" fill="#60e5e0" /><circle cx="822.7" cy="109.4" r="4" fill="#60e5e0" /><circle cx="831.4" cy="109.2" r="4" fill="#60e5e0" /><circle cx="840.0" cy="109.2" r="4" fill="#60e5e0" /><polyline points="80.0,314.6 88.6,314.4 97.3,314.2 105.9,314.2 114.5,314.2 123.2,314.1 131.8,314.1 140.5,314.1 149.1,314.1 157.7,314.1 166.4,314.0 175.0,314.0 183.6,314.0 192.3,314.0 200.9,314.0 209.5,314.0 218.2,314.0 226.8,314.0 235.5,314.0 244.1,314.0 252.7,314.0 261.4,314.0 270.0,314.0 278.6,314.0 287.3,314.0 295.9,314.0 304.5,314.0 313.2,314.0 321.8,314.0 330.5,314.0 339.1,314.0 347.7,314.0 356.4,314.0 365.0,314.0 373.6,314.0 382.3,314.0 390.9,314.0 399.5,314.0 408.2,314.0 416.8,314.0 425.5,314.0 434.1,313.9 442.7,313.6 451.4,313.4 460.0,313.4 468.6,313.4 477.3,313.4 485.9,313.4 494.5,313.1 503.2,313.1 511.8,313.1 520.5,313.1 529.1,313.1 537.7,313.0 546.4,313.0 555.0,312.9 563.6,312.9 572.3,312.9 580.9,312.8 589.5,312.8 598.2,312.6 606.8,312.6 615.5,312.6 624.1,312.6 632.7,312.6 641.4,312.6 650.0,312.6 658.6,312.5 667.3,312.1 675.9,312.1 684.5,312.1 693.2,312.1 701.8,312.1 710.5,312.1 719.1,312.1 727.7,312.1 736.4,312.1 745.0,312.1 753.6,312.0 762.3,312.0 770.9,312.0 779.5,312.0 788.2,312.0 796.8,312.0 805.5,312.0 814.1,312.0 822.7,312.0 831.4,312.0 840.0,312.0" fill="none" stroke="#567de1" stroke-width="2.5" stroke-linecap="round" stroke-linejoin="round" /><circle cx="80.0" cy="314.6" r="4" fill="#567de1" /><circle cx="88.6" cy="314.4" r="4" fill="#567de1" /><circle cx="97.3" cy="314.2" r="4" fill="#567de1" /><circle cx="105.9" cy="314.2" r="4" fill="#567de1" /><circle cx="114.5" cy="314.2" r="4" fill="#567de1" /><circle cx="123.2" cy="314.1" r="4" fill="#567de1" /><circle cx="131.8" cy="314.1" r="4" fill="#567de1" /><circle cx="140.5" cy="314.1" r="4" fill="#567de1" /><circle cx="149.1" cy="314.1" r="4" fill="#567de1" /><circle cx="157.7" cy="314.1" r="4" fill="#567de1" /><circle cx="166.4" cy="314.0" r="4" fill="#567de1" /><circle cx="175.0" cy="314.0" r="4" fill="#567de1" /><circle cx="183.6" cy="314.0" r="4" fill="#567de1" /><circle cx="192.3" cy="314.0" r="4" fill="#567de1" /><circle cx="200.9" cy="314.0" r="4" fill="#567de1" /><circle cx="209.5" cy="314.0" r="4" fill="#567de1" /><circle cx="218.2" cy="314.0" r="4" fill="#567de1" /><circle cx="226.8" cy="314.0" r="4" fill="#567de1" /><circle cx="235.5" cy="314.0" r="4" fill="#567de1" /><circle cx="244.1" cy="314.0" r="4" fill="#567de1" /><circle cx="252.7" cy="314.0" r="4" fill="#567de1" /><circle cx="261.4" cy="314.0" r="4" fill="#567de1" /><circle cx="270.0" cy="314.0" r="4" fill="#567de1" /><circle cx="278.6" cy="314.0" r="4" fill="#567de1" /><circle cx="287.3" cy="314.0" r="4" fill="#567de1" /><circle cx="295.9" cy="314.0" r="4" fill="#567de1" /><circle cx="304.5" cy="314.0" r="4" fill="#567de1" /><circle cx="313.2" cy="314.0" r="4" fill="#567de1" /><circle cx="321.8" cy="314.0" r="4" fill="#567de1" /><circle cx="330.5" cy="314.0" r="4" fill="#567de1" /><circle cx="339.1" cy="314.0" r="4" fill="#567de1" /><circle cx="347.7" cy="314.0" r="4" fill="#567de1" /><circle cx="356.4" cy="314.0" r="4" fill="#567de1" /><circle cx="365.0" cy="314.0" r="4" fill="#567de1" /><circle cx="373.6" cy="314.0" r="4" fill="#567de1" /><circle cx="382.3" cy="314.0" r="4" fill="#567de1" /><circle cx="390.9" cy="314.0" r="4" fill="#567de1" /><circle cx="399.5" cy="314.0" r="4" fill="#567de1" /><circle cx="408.2" cy="314.0" r="4" fill="#567de1" /><circle cx="416.8" cy="314.0" r="4" fill="#567de1" /><circle cx="425.5" cy="314.0" r="4" fill="#567de1" /><circle cx="434.1" cy="313.9" r="4" fill="#567de1" /><circle cx="442.7" cy="313.6" r="4" fill="#567de1" /><circle cx="451.4" cy="313.4" r="4" fill="#567de1" /><circle cx="460.0" cy="313.4" r="4" fill="#567de1" /><circle cx="468.6" cy="313.4" r="4" fill="#567de1" /><circle cx="477.3" cy="313.4" r="4" fill="#567de1" /><circle cx="485.9" cy="313.4" r="4" fill="#567de1" /><circle cx="494.5" cy="313.1" r="4" fill="#567de1" /><circle cx="503.2" cy="313.1" r="4" fill="#567de1" /><circle cx="511.8" cy="313.1" r="4" fill="#567de1" /><circle cx="520.5" cy="313.1" r="4" fill="#567de1" /><circle cx="529.1" cy="313.1" r="4" fill="#567de1" /><circle cx="537.7" cy="313.0" r="4" fill="#567de1" /><circle cx="546.4" cy="313.0" r="4" fill="#567de1" /><circle cx="555.0" cy="312.9" r="4" fill="#567de1" /><circle cx="563.6" cy="312.9" r="4" fill="#567de1" /><circle cx="572.3" cy="312.9" r="4" fill="#567de1" /><circle cx="580.9" cy="312.8" r="4" fill="#567de1" /><circle cx="589.5" cy="312.8" r="4" fill="#567de1" /><circle cx="598.2" cy="312.6" r="4" fill="#567de1" /><circle cx="606.8" cy="312.6" r="4" fill="#567de1" /><circle cx="615.5" cy="312.6" r="4" fill="#567de1" /><circle cx="624.1" cy="312.6" r="4" fill="#567de1" /><circle cx="632.7" cy="312.6" r="4" fill="#567de1" /><circle cx="641.4" cy="312.6" r="4" fill="#567de1" /><circle cx="650.0" cy="312.6" r="4" fill="#567de1" /><circle cx="658.6" cy="312.5" r="4" fill="#567de1" /><circle cx="667.3" cy="312.1" r="4" fill="#567de1" /><circle cx="675.9" cy="312.1" r="4" fill="#567de1" /><circle cx="684.5" cy="312.1" r="4" fill="#567de1" /><circle cx="693.2" cy="312.1" r="4" fill="#567de1" /><circle cx="701.8" cy="312.1" r="4" fill="#567de1" /><circle cx="710.5" cy="312.1" r="4" fill="#567de1" /><circle cx="719.1" cy="312.1" r="4" fill="#567de1" /><circle cx="727.7" cy="312.1" r="4" fill="#567de1" /><circle cx="736.4" cy="312.1" r="4" fill="#567de1" /><circle cx="745.0" cy="312.1" r="4" fill="#567de1" /><circle cx="753.6" cy="312.0" r="4" fill="#567de1" /><circle cx="762.3" cy="312.0" r="4" fill="#567de1" /><circle cx="770.9" cy="312.0" r="4" fill="#567de1" /><circle cx="779.5" cy="312.0" r="4" fill="#567de1" /><circle cx="788.2" cy="312.0" r="4" fill="#567de1" /><circle cx="796.8" cy="312.0" r="4" fill="#567de1" /><circle cx="805.5" cy="312.0" r="4" fill="#567de1" /><circle cx="814.1" cy="312.0" r="4" fill="#567de1" /><circle cx="822.7" cy="312.0" r="4" fill="#567de1" /><circle cx="831.4" cy="312.0" r="4" fill="#567de1" /><circle cx="840.0" cy="312.0" r="4" fill="#567de1" /><polyline points="80.0,303.9 88.6,304.2 97.3,304.4 105.9,304.4 114.5,304.4 123.2,304.4 131.8,304.4 140.5,304.4 149.1,304.4 157.7,304.4 166.4,304.4 175.0,304.4 183.6,304.4 192.3,304.4 200.9,304.4 209.5,304.4 218.2,304.4 226.8,304.4 235.5,304.4 244.1,304.4 252.7,304.4 261.4,304.4 270.0,304.4 278.6,304.4 287.3,304.4 295.9,304.4 304.5,304.4 313.2,304.4 321.8,299.1 330.5,299.1 339.1,299.1 347.7,298.9 356.4,295.6 365.0,295.6 373.6,295.6 382.3,295.6 390.9,295.6 399.5,295.6 408.2,295.6 416.8,295.6 425.5,295.6 434.1,295.8 442.7,295.9 451.4,295.9 460.0,295.9 468.6,295.9 477.3,295.9 485.9,295.9 494.5,295.9 503.2,295.9 511.8,295.9 520.5,295.9 529.1,295.9 537.7,295.9 546.4,295.9 555.0,295.9 563.6,295.9 572.3,295.9 580.9,295.8 589.5,295.8 598.2,295.9 606.8,295.9 615.5,295.9 624.1,295.9 632.7,295.9 641.4,295.9 650.0,295.9 658.6,296.0 667.3,296.4 675.9,296.4 684.5,296.4 693.2,296.4 701.8,296.4 710.5,296.4 719.1,296.4 727.7,296.4 736.4,296.4 745.0,296.4 753.6,296.5 762.3,296.5 770.9,296.5 779.5,296.5 788.2,296.5 796.8,296.5 805.5,296.5 814.1,296.5 822.7,296.5 831.4,296.5 840.0,296.5" fill="none" stroke="#9754dd" stroke-width="2.5" stroke-linecap="round" stroke-linejoin="round" /><circle cx="80.0" cy="303.9" r="4" fill="#9754dd" /><circle cx="88.6" cy="304.2" r="4" fill="#9754dd" /><circle cx="97.3" cy="304.4" r="4" fill="#9754dd" /><circle cx="105.9" cy="304.4" r="4" fill="#9754dd" /><circle cx="114.5" cy="304.4" r="4" fill="#9754dd" /><circle cx="123.2" cy="304.4" r="4" fill="#9754dd" /><circle cx="131.8" cy="304.4" r="4" fill="#9754dd" /><circle cx="140.5" cy="304.4" r="4" fill="#9754dd" /><circle cx="149.1" cy="304.4" r="4" fill="#9754dd" /><circle cx="157.7" cy="304.4" r="4" fill="#9754dd" /><circle cx="166.4" cy="304.4" r="4" fill="#9754dd" /><circle cx="175.0" cy="304.4" r="4" fill="#9754dd" /><circle cx="183.6" cy="304.4" r="4" fill="#9754dd" /><circle cx="192.3" cy="304.4" r="4" fill="#9754dd" /><circle cx="200.9" cy="304.4" r="4" fill="#9754dd" /><circle cx="209.5" cy="304.4" r="4" fill="#9754dd" /><circle cx="218.2" cy="304.4" r="4" fill="#9754dd" /><circle cx="226.8" cy="304.4" r="4" fill="#9754dd" /><circle cx="235.5" cy="304.4" r="4" fill="#9754dd" /><circle cx="244.1" cy="304.4" r="4" fill="#9754dd" /><circle cx="252.7" cy="304.4" r="4" fill="#9754dd" /><circle cx="261.4" cy="304.4" r="4" fill="#9754dd" /><circle cx="270.0" cy="304.4" r="4" fill="#9754dd" /><circle cx="278.6" cy="304.4" r="4" fill="#9754dd" /><circle cx="287.3" cy="304.4" r="4" fill="#9754dd" /><circle cx="295.9" cy="304.4" r="4" fill="#9754dd" /><circle cx="304.5" cy="304.4" r="4" fill="#9754dd" /><circle cx="313.2" cy="304.4" r="4" fill="#9754dd" /><circle cx="321.8" cy="299.1" r="4" fill="#9754dd" /><circle cx="330.5" cy="299.1" r="4" fill="#9754dd" /><circle cx="339.1" cy="299.1" r="4" fill="#9754dd" /><circle cx="347.7" cy="298.9" r="4" fill="#9754dd" /><circle cx="356.4" cy="295.6" r="4" fill="#9754dd" /><circle cx="365.0" cy="295.6" r="4" fill="#9754dd" /><circle cx="373.6" cy="295.6" r="4" fill="#9754dd" /><circle cx="382.3" cy="295.6" r="4" fill="#9754dd" /><circle cx="390.9" cy="295.6" r="4" fill="#9754dd" /><circle cx="399.5" cy="295.6" r="4" fill="#9754dd" /><circle cx="408.2" cy="295.6" r="4" fill="#9754dd" /><circle cx="416.8" cy="295.6" r="4" fill="#9754dd" /><circle cx="425.5" cy="295.6" r="4" fill="#9754dd" /><circle cx="434.1" cy="295.8" r="4" fill="#9754dd" /><circle cx="442.7" cy="295.9" r="4" fill="#9754dd" /><circle cx="451.4" cy="295.9" r="4" fill="#9754dd" /><circle cx="460.0" cy="295.9" r="4" fill="#9754dd" /><circle cx="468.6" cy="295.9" r="4" fill="#9754dd" /><circle cx="477.3" cy="295.9" r="4" fill="#9754dd" /><circle cx="485.9" cy="295.9" r="4" fill="#9754dd" /><circle cx="494.5" cy="295.9" r="4" fill="#9754dd" /><circle cx="503.2" cy="295.9" r="4" fill="#9754dd" /><circle cx="511.8" cy="295.9" r="4" fill="#9754dd" /><circle cx="520.5" cy="295.9" r="4" fill="#9754dd" /><circle cx="529.1" cy="295.9" r="4" fill="#9754dd" /><circle cx="537.7" cy="295.9" r="4" fill="#9754dd" /><circle cx="546.4" cy="295.9" r="4" fill="#9754dd" /><circle cx="555.0" cy="295.9" r="4" fill="#9754dd" /><circle cx="563.6" cy="295.9" r="4" fill="#9754dd" /><circle cx="572.3" cy="295.9" r="4" fill="#9754dd" /><circle cx="580.9" cy="295.8" r="4" fill="#9754dd" /><circle cx="589.5" cy="295.8" r="4" fill="#9754dd" /><circle cx="598.2" cy="295.9" r="4" fill="#9754dd" /><circle cx="606.8" cy="295.9" r="4" fill="#9754dd" /><circle cx="615.5" cy="295.9" r="4" fill="#9754dd" /><circle cx="624.1" cy="295.9" r="4" fill="#9754dd" /><circle cx="632.7" cy="295.9" r="4" fill="#9754dd" /><circle cx="641.4" cy="295.9" r="4" fill="#9754dd" /><circle cx="650.0" cy="295.9" r="4" fill="#9754dd" /><circle cx="658.6" cy="296.0" r="4" fill="#9754dd" /><circle cx="667.3" cy="296.4" r="4" fill="#9754dd" /><circle cx="675.9" cy="296.4" r="4" fill="#9754dd" /><circle cx="684.5" cy="296.4" r="4" fill="#9754dd" /><circle cx="693.2" cy="296.4" r="4" fill="#9754dd" /><circle cx="701.8" cy="296.4" r="4" fill="#9754dd" /><circle cx="710.5" cy="296.4" r="4" fill="#9754dd" /><circle cx="719.1" cy="296.4" r="4" fill="#9754dd" /><circle cx="727.7" cy="296.4" r="4" fill="#9754dd" /><circle cx="736.4" cy="296.4" r="4" fill="#9754dd" /><circle cx="745.0" cy="296.4" r="4" fill="#9754dd" /><circle cx="753.6" cy="296.5" r="4" fill="#9754dd" /><circle cx="762.3" cy="296.5" r="4" fill="#9754dd" /><circle cx="770.9" cy="296.5" r="4" fill="#9754dd" /><circle cx="779.5" cy="296.5" r="4" fill="#9754dd" /><circle cx="788.2" cy="296.5" r="4" fill="#9754dd" /><circle cx="796.8" cy="296.5" r="4" fill="#9754dd" /><circle cx="805.5" cy="296.5" r="4" fill="#9754dd" /><circle cx="814.1" cy="296.5" r="4" fill="#9754dd" /><circle cx="822.7" cy="296.5" r="4" fill="#9754dd" /><circle cx="831.4" cy="296.5" r="4" fill="#9754dd" /><circle cx="840.0" cy="296.5" r="4" fill="#9754dd" />
  <rect x="80" y="339" width="10" height="10" rx="2" ry="2" fill="#19e5a1" /><text x="96" y="348" class="legend-label">Stars</text><rect x="250" y="339" width="10" height="10" rx="2" ry="2" fill="#6eb6ec" /><text x="266" y="348" class="legend-label">Followers</text><rect x="420" y="339" width="10" height="10" rx="2" ry="2" fill="#5938e2" /><text x="436" y="348" class="legend-label">Following</text><rect x="590" y="339" width="10" height="10" rx="2" ry="2" fill="#60e5e0" /><text x="606" y="348" class="legend-label">Contributions</text><rect x="80" y="357" width="10" height="10" rx="2" ry="2" fill="#567de1" /><text x="96" y="366" class="legend-label">Pull Requests</text><rect x="250" y="357" width="10" height="10" rx="2" ry="2" fill="#9754dd" /><text x="266" y="366" class="legend-label">Issues</text>
</svg>
