<svg width="900" height="402" viewBox="0 0 900 402" xmlns="http://www.w3.org/2000/svg">
  <defs>
    <linearGradient id="history-gradient" x1="0%" y1="0%" x2="100%" y2="100%">
      <stop offset="0%" style="stop-color:#58a6ff;stop-opacity:1" />
      <stop offset="100%" style="stop-color:#a371f7;stop-opacity:1" />
    </linearGradient>
    <clipPath id="history-rounded">
      <rect x="0" y="0" width="900" height="402" rx="8" ry="8" />
    </clipPath>
  </defs>
  <style>
    .title {
      font-family: 'Segoe UI', Ubuntu, 'Helvetica Neue', sans-serif;
      font-size: 22px;
      font-weight: 700;
      fill: #58a6ff;
    }
    .subtitle {
      font-family: 'Segoe UI', Ubuntu, 'Helvetica Neue', sans-serif;
      font-size: 12px;
      font-weight: 500;
      fill: #8b949e;
    }
    .axis-label {
      font-family: 'Segoe UI', Ubuntu, 'Helvetica Neue', sans-serif;
      font-size: 10px;
      fill: #8b949e;
    }
    .grid-line {
      stroke: #30363d;
      stroke-width: 1;
      opacity: 0.3;
    }
    .legend-label {
      font-family: 'Segoe UI', Ubuntu, 'Helvetica Neue', sans-serif;
      font-size: 11px;
      fill: #c9d1d9;
      dominant-baseline: middle;
    }
  </style>
  <rect clip-path="url(#history-rounded)" width="100%" height="100%" fill="#0d1117" stroke="#30363d" stroke-width="1" />
  <rect x="0" y="396" width="900" height="6" fill="url(#history-gradient)" clip-path="url(#history-rounded)" />
  <text x="24" y="34" class="title">Leonardo Klein Stats History</text>
  <text x="24" y="54" class="subtitle">Period: 2026-02-20 to 2026-03-04</text>
  <text x="72" y="320.0" text-anchor="end" dominant-baseline="central" class="axis-label">0</text><text x="72" y="270.0" text-anchor="end" dominant-baseline="central" class="axis-label">400</text><text x="72" y="220.0" text-anchor="end" dominant-baseline="central" class="axis-label">800</text><text x="72" y="170.0" text-anchor="end" dominant-baseline="central" class="axis-label">1.2k</text><text x="72" y="120.0" text-anchor="end" dominant-baseline="central" class="axis-label">1.6k</text><text x="72" y="70.0" text-anchor="end" dominant-baseline="central" class="axis-label">2.0k</text>
  <text x="80.0" y="336" text-anchor="middle" class="axis-label">02-20</text><text x="154.8" y="336" text-anchor="middle" class="axis-label">02-21</text><text x="229.5" y="336" text-anchor="middle" class="axis-label">02-22</text><text x="304.3" y="336" text-anchor="middle" class="axis-label">02-24</text><text x="379.0" y="336" text-anchor="middle" class="axis-label">02-25</text><text x="453.8" y="336" text-anchor="middle" class="axis-label">02-26</text><text x="528.5" y="336" text-anchor="middle" class="axis-label">02-27</text><text x="603.3" y="336" text-anchor="middle" class="axis-label">02-28</text><text x="678.0" y="336" text-anchor="middle" class="axis-label">03-02</text><text x="752.8" y="336" text-anchor="middle" class="axis-label">03-03</text><text x="827.5" y="336" text-anchor="middle" class="axis-label">03-04</text><text x="840.0" y="336" text-anchor="middle" class="axis-label">03-04</text>
  <line x1="80" y1="320.0" x2="840" y2="320.0" class="grid-line" /><line x1="80" y1="270.0" x2="840" y2="270.0" class="grid-line" /><line x1="80" y1="220.0" x2="840" y2="220.0" class="grid-line" /><line x1="80" y1="170.0" x2="840" y2="170.0" class="grid-line" /><line x1="80" y1="120.0" x2="840" y2="120.0" class="grid-line" /><line x1="80" y1="70.0" x2="840" y2="70.0" class="grid-line" />
  <polyline points="80.0,317.0 92.5,317.0 104.9,317.0 117.4,317.0 129.8,317.0 142.3,317.0 154.8,317.0 167.2,317.0 179.7,317.0 192.1,317.0 204.6,317.0 217.0,317.0 229.5,317.0 242.0,317.0 254.4,317.0 266.9,317.0 279.3,317.0 291.8,317.0 304.3,317.0 316.7,317.0 329.2,317.0 341.6,317.0 354.1,317.0 366.6,317.0 379.0,317.0 391.5,317.0 403.9,317.0 416.4,317.0 428.9,317.0 441.3,317.0 453.8,317.0 466.2,317.0 478.7,317.0 491.1,317.0 503.6,317.0 516.1,317.0 528.5,317.0 541.0,317.0 553.4,317.0 565.9,317.0 578.4,317.0 590.8,317.0 603.3,317.0 615.7,317.0 628.2,317.0 640.7,317.0 653.1,317.0 665.6,317.0 678.0,317.0 690.5,317.0 703.0,317.0 715.4,317.0 727.9,317.0 740.3,317.0 752.8,317.0 765.2,317.0 777.7,317.0 790.2,317.0 802.6,317.0 815.1,317.0 827.5,317.0 840.0,317.0" fill="none" stroke="#19e5a1" stroke-width="2.5" stroke-linecap="round" stroke-linejoin="round" /><circle cx="80.0" cy="317.0" r="4" fill="#19e5a1" /><circle cx="92.5" cy="317.0" r="4" fill="#19e5a1" /><circle cx="104.9" cy="317.0" r="4" fill="#19e5a1" /><circle cx="117.4" cy="317.0" r="4" fill="#19e5a1" /><circle cx="129.8" cy="317.0" r="4" fill="#19e5a1" /><circle cx="142.3" cy="317.0" r="4" fill="#19e5a1" /><circle cx="154.8" cy="317.0" r="4" fill="#19e5a1" /><circle cx="167.2" cy="317.0" r="4" fill="#19e5a1" /><circle cx="179.7" cy="317.0" r="4" fill="#19e5a1" /><circle cx="192.1" cy="317.0" r="4" fill="#19e5a1" /><circle cx="204.6" cy="317.0" r="4" fill="#19e5a1" /><circle cx="217.0" cy="317.0" r="4" fill="#19e5a1" /><circle cx="229.5" cy="317.0" r="4" fill="#19e5a1" /><circle cx="242.0" cy="317.0" r="4" fill="#19e5a1" /><circle cx="254.4" cy="317.0" r="4" fill="#19e5a1" /><circle cx="266.9" cy="317.0" r="4" fill="#19e5a1" /><circle cx="279.3" cy="317.0" r="4" fill="#19e5a1" /><circle cx="291.8" cy="317.0" r="4" fill="#19e5a1" /><circle cx="304.3" cy="317.0" r="4" fill="#19e5a1" /><circle cx="316.7" cy="317.0" r="4" fill="#19e5a1" /><circle cx="329.2" cy="317.0" r="4" fill="#19e5a1" /><circle cx="341.6" cy="317.0" r="4" fill="#19e5a1" /><circle cx="354.1" cy="317.0" r="4" fill="#19e5a1" /><circle cx="366.6" cy="317.0" r="4" fill="#19e5a1" /><circle cx="379.0" cy="317.0" r="4" fill="#19e5a1" /><circle cx="391.5" cy="317.0" r="4" fill="#19e5a1" /><circle cx="403.9" cy="317.0" r="4" fill="#19e5a1" /><circle cx="416.4" cy="317.0" r="4" fill="#19e5a1" /><circle cx="428.9" cy="317.0" r="4" fill="#19e5a1" /><circle cx="441.3" cy="317.0" r="4" fill="#19e5a1" /><circle cx="453.8" cy="317.0" r="4" fill="#19e5a1" /><circle cx="466.2" cy="317.0" r="4" fill="#19e5a1" /><circle cx="478.7" cy="317.0" r="4" fill="#19e5a1" /><circle cx="491.1" cy="317.0" r="4" fill="#19e5a1" /><circle cx="503.6" cy="317.0" r="4" fill="#19e5a1" /><circle cx="516.1" cy="317.0" r="4" fill="#19e5a1" /><circle cx="528.5" cy="317.0" r="4" fill="#19e5a1" /><circle cx="541.0" cy="317.0" r="4" fill="#19e5a1" /><circle cx="553.4" cy="317.0" r="4" fill="#19e5a1" /><circle cx="565.9" cy="317.0" r="4" fill="#19e5a1" /><circle cx="578.4" cy="317.0" r="4" fill="#19e5a1" /><circle cx="590.8" cy="317.0" r="4" fill="#19e5a1" /><circle cx="603.3" cy="317.0" r="4" fill="#19e5a1" /><circle cx="615.7" cy="317.0" r="4" fill="#19e5a1" /><circle cx="628.2" cy="317.0" r="4" fill="#19e5a1" /><circle cx="640.7" cy="317.0" r="4" fill="#19e5a1" /><circle cx="653.1" cy="317.0" r="4" fill="#19e5a1" /><circle cx="665.6" cy="317.0" r="4" fill="#19e5a1" /><circle cx="678.0" cy="317.0" r="4" fill="#19e5a1" /><circle cx="690.5" cy="317.0" r="4" fill="#19e5a1" /><circle cx="703.0" cy="317.0" r="4" fill="#19e5a1" /><circle cx="715.4" cy="317.0" r="4" fill="#19e5a1" /><circle cx="727.9" cy="317.0" r="4" fill="#19e5a1" /><circle cx="740.3" cy="317.0" r="4" fill="#19e5a1" /><circle cx="752.8" cy="317.0" r="4" fill="#19e5a1" /><circle cx="765.2" cy="317.0" r="4" fill="#19e5a1" /><circle cx="777.7" cy="317.0" r="4" fill="#19e5a1" /><circle cx="790.2" cy="317.0" r="4" fill="#19e5a1" /><circle cx="802.6" cy="317.0" r="4" fill="#19e5a1" /><circle cx="815.1" cy="317.0" r="4" fill="#19e5a1" /><circle cx="827.5" cy="317.0" r="4" fill="#19e5a1" /><circle cx="840.0" cy="317.0" r="4" fill="#19e5a1" /><polyline points="80.0,313.2 92.5,312.2 104.9,312.1 117.4,312.4 129.8,312.4 142.3,312.4 154.8,312.1 167.2,312.0 179.7,311.9 192.1,311.9 204.6,311.8 217.0,311.8 229.5,311.5 242.0,311.5 254.4,311.5 266.9,311.2 279.3,311.2 291.8,311.1 304.3,311.1 316.7,311.1 329.2,310.9 341.6,311.0 354.1,310.8 366.6,310.8 379.0,310.8 391.5,310.8 403.9,310.4 416.4,310.2 428.9,310.4 441.3,310.4 453.8,310.4 466.2,310.4 478.7,310.4 491.1,310.2 503.6,310.2 516.1,310.1 528.5,310.1 541.0,309.8 553.4,309.6 565.9,309.6 578.4,309.6 590.8,309.6 603.3,309.5 615.7,309.4 628.2,309.4 640.7,309.4 653.1,309.4 665.6,309.2 678.0,309.2 690.5,309.2 703.0,309.4 715.4,309.4 727.9,309.5 740.3,309.2 752.8,309.2 765.2,309.4 777.7,309.2 790.2,309.2 802.6,309.2 815.1,309.2 827.5,309.2 840.0,309.1" fill="none" stroke="#6eb6ec" stroke-width="2.5" stroke-linecap="round" stroke-linejoin="round" /><circle cx="80.0" cy="313.2" r="4" fill="#6eb6ec" /><circle cx="92.5" cy="312.2" r="4" fill="#6eb6ec" /><circle cx="104.9" cy="312.1" r="4" fill="#6eb6ec" /><circle cx="117.4" cy="312.4" r="4" fill="#6eb6ec" /><circle cx="129.8" cy="312.4" r="4" fill="#6eb6ec" /><circle cx="142.3" cy="312.4" r="4" fill="#6eb6ec" /><circle cx="154.8" cy="312.1" r="4" fill="#6eb6ec" /><circle cx="167.2" cy="312.0" r="4" fill="#6eb6ec" /><circle cx="179.7" cy="311.9" r="4" fill="#6eb6ec" /><circle cx="192.1" cy="311.9" r="4" fill="#6eb6ec" /><circle cx="204.6" cy="311.8" r="4" fill="#6eb6ec" /><circle cx="217.0" cy="311.8" r="4" fill="#6eb6ec" /><circle cx="229.5" cy="311.5" r="4" fill="#6eb6ec" /><circle cx="242.0" cy="311.5" r="4" fill="#6eb6ec" /><circle cx="254.4" cy="311.5" r="4" fill="#6eb6ec" /><circle cx="266.9" cy="311.2" r="4" fill="#6eb6ec" /><circle cx="279.3" cy="311.2" r="4" fill="#6eb6ec" /><circle cx="291.8" cy="311.1" r="4" fill="#6eb6ec" /><circle cx="304.3" cy="311.1" r="4" fill="#6eb6ec" /><circle cx="316.7" cy="311.1" r="4" fill="#6eb6ec" /><circle cx="329.2" cy="310.9" r="4" fill="#6eb6ec" /><circle cx="341.6" cy="311.0" r="4" fill="#6eb6ec" /><circle cx="354.1" cy="310.8" r="4" fill="#6eb6ec" /><circle cx="366.6" cy="310.8" r="4" fill="#6eb6ec" /><circle cx="379.0" cy="310.8" r="4" fill="#6eb6ec" /><circle cx="391.5" cy="310.8" r="4" fill="#6eb6ec" /><circle cx="403.9" cy="310.4" r="4" fill="#6eb6ec" /><circle cx="416.4" cy="310.2" r="4" fill="#6eb6ec" /><circle cx="428.9" cy="310.4" r="4" fill="#6eb6ec" /><circle cx="441.3" cy="310.4" r="4" fill="#6eb6ec" /><circle cx="453.8" cy="310.4" r="4" fill="#6eb6ec" /><circle cx="466.2" cy="310.4" r="4" fill="#6eb6ec" /><circle cx="478.7" cy="310.4" r="4" fill="#6eb6ec" /><circle cx="491.1" cy="310.2" r="4" fill="#6eb6ec" /><circle cx="503.6" cy="310.2" r="4" fill="#6eb6ec" /><circle cx="516.1" cy="310.1" r="4" fill="#6eb6ec" /><circle cx="528.5" cy="310.1" r="4" fill="#6eb6ec" /><circle cx="541.0" cy="309.8" r="4" fill="#6eb6ec" /><circle cx="553.4" cy="309.6" r="4" fill="#6eb6ec" /><circle cx="565.9" cy="309.6" r="4" fill="#6eb6ec" /><circle cx="578.4" cy="309.6" r="4" fill="#6eb6ec" /><circle cx="590.8" cy="309.6" r="4" fill="#6eb6ec" /><circle cx="603.3" cy="309.5" r="4" fill="#6eb6ec" /><circle cx="615.7" cy="309.4" r="4" fill="#6eb6ec" /><circle cx="628.2" cy="309.4" r="4" fill="#6eb6ec" /><circle cx="640.7" cy="309.4" r="4" fill="#6eb6ec" /><circle cx="653.1" cy="309.4" r="4" fill="#6eb6ec" /><circle cx="665.6" cy="309.2" r="4" fill="#6eb6ec" /><circle cx="678.0" cy="309.2" r="4" fill="#6eb6ec" /><circle cx="690.5" cy="309.2" r="4" fill="#6eb6ec" /><circle cx="703.0" cy="309.4" r="4" fill="#6eb6ec" /><circle cx="715.4" cy="309.4" r="4" fill="#6eb6ec" /><circle cx="727.9" cy="309.5" r="4" fill="#6eb6ec" /><circle cx="740.3" cy="309.2" r="4" fill="#6eb6ec" /><circle cx="752.8" cy="309.2" r="4" fill="#6eb6ec" /><circle cx="765.2" cy="309.4" r="4" fill="#6eb6ec" /><circle cx="777.7" cy="309.2" r="4" fill="#6eb6ec" /><circle cx="790.2" cy="309.2" r="4" fill="#6eb6ec" /><circle cx="802.6" cy="309.2" r="4" fill="#6eb6ec" /><circle cx="815.1" cy="309.2" r="4" fill="#6eb6ec" /><circle cx="827.5" cy="309.2" r="4" fill="#6eb6ec" /><circle cx="840.0" cy="309.1" r="4" fill="#6eb6ec" /><polyline points="80.0,305.8 92.5,305.8 104.9,305.8 117.4,305.8 129.8,305.8 142.3,305.8 154.8,305.8 167.2,305.8 179.7,305.8 192.1,305.8 204.6,304.9 217.0,304.9 229.5,304.9 242.0,304.9 254.4,304.9 266.9,304.9 279.3,304.9 291.8,304.9 304.3,304.9 316.7,304.9 329.2,304.9 341.6,304.9 354.1,304.9 366.6,304.9 379.0,304.9 391.5,304.9 403.9,304.9 416.4,304.9 428.9,304.9 441.3,304.9 453.8,304.9 466.2,304.9 478.7,304.9 491.1,304.9 503.6,304.9 516.1,304.9 528.5,304.9 541.0,303.6 553.4,303.6 565.9,303.6 578.4,303.6 590.8,303.6 603.3,303.6 615.7,303.6 628.2,303.6 640.7,303.6 653.1,303.6 665.6,303.6 678.0,303.6 690.5,303.6 703.0,303.6 715.4,302.9 727.9,302.9 740.3,298.0 752.8,298.0 765.2,298.0 777.7,298.0 790.2,298.0 802.6,298.0 815.1,298.0 827.5,298.0 840.0,298.0" fill="none" stroke="#5938e2" stroke-width="2.5" stroke-linecap="round" stroke-linejoin="round" /><circle cx="80.0" cy="305.8" r="4" fill="#5938e2" /><circle cx="92.5" cy="305.8" r="4" fill="#5938e2" /><circle cx="104.9" cy="305.8" r="4" fill="#5938e2" /><circle cx="117.4" cy="305.8" r="4" fill="#5938e2" /><circle cx="129.8" cy="305.8" r="4" fill="#5938e2" /><circle cx="142.3" cy="305.8" r="4" fill="#5938e2" /><circle cx="154.8" cy="305.8" r="4" fill="#5938e2" /><circle cx="167.2" cy="305.8" r="4" fill="#5938e2" /><circle cx="179.7" cy="305.8" r="4" fill="#5938e2" /><circle cx="192.1" cy="305.8" r="4" fill="#5938e2" /><circle cx="204.6" cy="304.9" r="4" fill="#5938e2" /><circle cx="217.0" cy="304.9" r="4" fill="#5938e2" /><circle cx="229.5" cy="304.9" r="4" fill="#5938e2" /><circle cx="242.0" cy="304.9" r="4" fill="#5938e2" /><circle cx="254.4" cy="304.9" r="4" fill="#5938e2" /><circle cx="266.9" cy="304.9" r="4" fill="#5938e2" /><circle cx="279.3" cy="304.9" r="4" fill="#5938e2" /><circle cx="291.8" cy="304.9" r="4" fill="#5938e2" /><circle cx="304.3" cy="304.9" r="4" fill="#5938e2" /><circle cx="316.7" cy="304.9" r="4" fill="#5938e2" /><circle cx="329.2" cy="304.9" r="4" fill="#5938e2" /><circle cx="341.6" cy="304.9" r="4" fill="#5938e2" /><circle cx="354.1" cy="304.9" r="4" fill="#5938e2" /><circle cx="366.6" cy="304.9" r="4" fill="#5938e2" /><circle cx="379.0" cy="304.9" r="4" fill="#5938e2" /><circle cx="391.5" cy="304.9" r="4" fill="#5938e2" /><circle cx="403.9" cy="304.9" r="4" fill="#5938e2" /><circle cx="416.4" cy="304.9" r="4" fill="#5938e2" /><circle cx="428.9" cy="304.9" r="4" fill="#5938e2" /><circle cx="441.3" cy="304.9" r="4" fill="#5938e2" /><circle cx="453.8" cy="304.9" r="4" fill="#5938e2" /><circle cx="466.2" cy="304.9" r="4" fill="#5938e2" /><circle cx="478.7" cy="304.9" r="4" fill="#5938e2" /><circle cx="491.1" cy="304.9" r="4" fill="#5938e2" /><circle cx="503.6" cy="304.9" r="4" fill="#5938e2" /><circle cx="516.1" cy="304.9" r="4" fill="#5938e2" /><circle cx="528.5" cy="304.9" r="4" fill="#5938e2" /><circle cx="541.0" cy="303.6" r="4" fill="#5938e2" /><circle cx="553.4" cy="303.6" r="4" fill="#5938e2" /><circle cx="565.9" cy="303.6" r="4" fill="#5938e2" /><circle cx="578.4" cy="303.6" r="4" fill="#5938e2" /><circle cx="590.8" cy="303.6" r="4" fill="#5938e2" /><circle cx="603.3" cy="303.6" r="4" fill="#5938e2" /><circle cx="615.7" cy="303.6" r="4" fill="#5938e2" /><circle cx="628.2" cy="303.6" r="4" fill="#5938e2" /><circle cx="640.7" cy="303.6" r="4" fill="#5938e2" /><circle cx="653.1" cy="303.6" r="4" fill="#5938e2" /><circle cx="665.6" cy="303.6" r="4" fill="#5938e2" /><circle cx="678.0" cy="303.6" r="4" fill="#5938e2" /><circle cx="690.5" cy="303.6" r="4" fill="#5938e2" /><circle cx="703.0" cy="303.6" r="4" fill="#5938e2" /><circle cx="715.4" cy="302.9" r="4" fill="#5938e2" /><circle cx="727.9" cy="302.9" r="4" fill="#5938e2" /><circle cx="740.3" cy="298.0" r="4" fill="#5938e2" /><circle cx="752.8" cy="298.0" r="4" fill="#5938e2" /><circle cx="765.2" cy="298.0" r="4" fill="#5938e2" /><circle cx="777.7" cy="298.0" r="4" fill="#5938e2" /><circle cx="790.2" cy="298.0" r="4" fill="#5938e2" /><circle cx="802.6" cy="298.0" r="4" fill="#5938e2" /><circle cx="815.1" cy="298.0" r="4" fill="#5938e2" /><circle cx="827.5" cy="298.0" r="4" fill="#5938e2" /><circle cx="840.0" cy="298.0" r="4" fill="#5938e2" /><polyline points="80.0,144.6 92.5,140.1 104.9,139.9 117.4,139.8 129.8,139.8 142.3,139.6 154.8,139.6 167.2,139.6 179.7,139.6 192.1,139.6 204.6,138.4 217.0,138.4 229.5,138.4 242.0,138.4 254.4,138.4 266.9,138.4 279.3,138.4 291.8,137.4 304.3,137.4 316.7,137.4 329.2,137.4 341.6,137.4 354.1,137.4 366.6,137.4 379.0,137.4 391.5,137.4 403.9,137.4 416.4,137.4 428.9,131.2 441.3,131.2 453.8,130.8 466.2,130.4 478.7,126.9 491.1,126.9 503.6,126.9 516.1,126.9 528.5,126.9 541.0,126.9 553.4,126.9 565.9,126.9 578.4,126.9 590.8,126.8 603.3,122.1 615.7,120.4 628.2,120.4 640.7,120.4 653.1,120.4 665.6,120.4 678.0,119.4 690.5,119.4 703.0,119.4 715.4,119.4 727.9,119.1 740.3,118.8 752.8,118.8 765.2,117.8 777.7,117.8 790.2,117.8 802.6,115.8 815.1,115.8 827.5,115.0 840.0,115.0" fill="none" stroke="#60e5e0" stroke-width="2.5" stroke-linecap="round" stroke-linejoin="round" /><circle cx="80.0" cy="144.6" r="4" fill="#60e5e0" /><circle cx="92.5" cy="140.1" r="4" fill="#60e5e0" /><circle cx="104.9" cy="139.9" r="4" fill="#60e5e0" /><circle cx="117.4" cy="139.8" r="4" fill="#60e5e0" /><circle cx="129.8" cy="139.8" r="4" fill="#60e5e0" /><circle cx="142.3" cy="139.6" r="4" fill="#60e5e0" /><circle cx="154.8" cy="139.6" r="4" fill="#60e5e0" /><circle cx="167.2" cy="139.6" r="4" fill="#60e5e0" /><circle cx="179.7" cy="139.6" r="4" fill="#60e5e0" /><circle cx="192.1" cy="139.6" r="4" fill="#60e5e0" /><circle cx="204.6" cy="138.4" r="4" fill="#60e5e0" /><circle cx="217.0" cy="138.4" r="4" fill="#60e5e0" /><circle cx="229.5" cy="138.4" r="4" fill="#60e5e0" /><circle cx="242.0" cy="138.4" r="4" fill="#60e5e0" /><circle cx="254.4" cy="138.4" r="4" fill="#60e5e0" /><circle cx="266.9" cy="138.4" r="4" fill="#60e5e0" /><circle cx="279.3" cy="138.4" r="4" fill="#60e5e0" /><circle cx="291.8" cy="137.4" r="4" fill="#60e5e0" /><circle cx="304.3" cy="137.4" r="4" fill="#60e5e0" /><circle cx="316.7" cy="137.4" r="4" fill="#60e5e0" /><circle cx="329.2" cy="137.4" r="4" fill="#60e5e0" /><circle cx="341.6" cy="137.4" r="4" fill="#60e5e0" /><circle cx="354.1" cy="137.4" r="4" fill="#60e5e0" /><circle cx="366.6" cy="137.4" r="4" fill="#60e5e0" /><circle cx="379.0" cy="137.4" r="4" fill="#60e5e0" /><circle cx="391.5" cy="137.4" r="4" fill="#60e5e0" /><circle cx="403.9" cy="137.4" r="4" fill="#60e5e0" /><circle cx="416.4" cy="137.4" r="4" fill="#60e5e0" /><circle cx="428.9" cy="131.2" r="4" fill="#60e5e0" /><circle cx="441.3" cy="131.2" r="4" fill="#60e5e0" /><circle cx="453.8" cy="130.8" r="4" fill="#60e5e0" /><circle cx="466.2" cy="130.4" r="4" fill="#60e5e0" /><circle cx="478.7" cy="126.9" r="4" fill="#60e5e0" /><circle cx="491.1" cy="126.9" r="4" fill="#60e5e0" /><circle cx="503.6" cy="126.9" r="4" fill="#60e5e0" /><circle cx="516.1" cy="126.9" r="4" fill="#60e5e0" /><circle cx="528.5" cy="126.9" r="4" fill="#60e5e0" /><circle cx="541.0" cy="126.9" r="4" fill="#60e5e0" /><circle cx="553.4" cy="126.9" r="4" fill="#60e5e0" /><circle cx="565.9" cy="126.9" r="4" fill="#60e5e0" /><circle cx="578.4" cy="126.9" r="4" fill="#60e5e0" /><circle cx="590.8" cy="126.8" r="4" fill="#60e5e0" /><circle cx="603.3" cy="122.1" r="4" fill="#60e5e0" /><circle cx="615.7" cy="120.4" r="4" fill="#60e5e0" /><circle cx="628.2" cy="120.4" r="4" fill="#60e5e0" /><circle cx="640.7" cy="120.4" r="4" fill="#60e5e0" /><circle cx="653.1" cy="120.4" r="4" fill="#60e5e0" /><circle cx="665.6" cy="120.4" r="4" fill="#60e5e0" /><circle cx="678.0" cy="119.4" r="4" fill="#60e5e0" /><circle cx="690.5" cy="119.4" r="4" fill="#60e5e0" /><circle cx="703.0" cy="119.4" r="4" fill="#60e5e0" /><circle cx="715.4" cy="119.4" r="4" fill="#60e5e0" /><circle cx="727.9" cy="119.1" r="4" fill="#60e5e0" /><circle cx="740.3" cy="118.8" r="4" fill="#60e5e0" /><circle cx="752.8" cy="118.8" r="4" fill="#60e5e0" /><circle cx="765.2" cy="117.8" r="4" fill="#60e5e0" /><circle cx="777.7" cy="117.8" r="4" fill="#60e5e0" /><circle cx="790.2" cy="117.8" r="4" fill="#60e5e0" /><circle cx="802.6" cy="115.8" r="4" fill="#60e5e0" /><circle cx="815.1" cy="115.8" r="4" fill="#60e5e0" /><circle cx="827.5" cy="115.0" r="4" fill="#60e5e0" /><circle cx="840.0" cy="115.0" r="4" fill="#60e5e0" /><polyline points="80.0,314.6 92.5,314.4 104.9,314.2 117.4,314.2 129.8,314.2 142.3,314.1 154.8,314.1 167.2,314.1 179.7,314.1 192.1,314.1 204.6,314.0 217.0,314.0 229.5,314.0 242.0,314.0 254.4,314.0 266.9,314.0 279.3,314.0 291.8,314.0 304.3,314.0 316.7,314.0 329.2,314.0 341.6,314.0 354.1,314.0 366.6,314.0 379.0,314.0 391.5,314.0 403.9,314.0 416.4,314.0 428.9,314.0 441.3,314.0 453.8,314.0 466.2,314.0 478.7,314.0 491.1,314.0 503.6,314.0 516.1,314.0 528.5,314.0 541.0,314.0 553.4,314.0 565.9,314.0 578.4,314.0 590.8,313.9 603.3,313.6 615.7,313.4 628.2,313.4 640.7,313.4 653.1,313.4 665.6,313.4 678.0,313.1 690.5,313.1 703.0,313.1 715.4,313.1 727.9,313.1 740.3,313.0 752.8,313.0 765.2,312.9 777.7,312.9 790.2,312.9 802.6,312.8 815.1,312.8 827.5,312.6 840.0,312.6" fill="none" stroke="#567de1" stroke-width="2.5" stroke-linecap="round" stroke-linejoin="round" /><circle cx="80.0" cy="314.6" r="4" fill="#567de1" /><circle cx="92.5" cy="314.4" r="4" fill="#567de1" /><circle cx="104.9" cy="314.2" r="4" fill="#567de1" /><circle cx="117.4" cy="314.2" r="4" fill="#567de1" /><circle cx="129.8" cy="314.2" r="4" fill="#567de1" /><circle cx="142.3" cy="314.1" r="4" fill="#567de1" /><circle cx="154.8" cy="314.1" r="4" fill="#567de1" /><circle cx="167.2" cy="314.1" r="4" fill="#567de1" /><circle cx="179.7" cy="314.1" r="4" fill="#567de1" /><circle cx="192.1" cy="314.1" r="4" fill="#567de1" /><circle cx="204.6" cy="314.0" r="4" fill="#567de1" /><circle cx="217.0" cy="314.0" r="4" fill="#567de1" /><circle cx="229.5" cy="314.0" r="4" fill="#567de1" /><circle cx="242.0" cy="314.0" r="4" fill="#567de1" /><circle cx="254.4" cy="314.0" r="4" fill="#567de1" /><circle cx="266.9" cy="314.0" r="4" fill="#567de1" /><circle cx="279.3" cy="314.0" r="4" fill="#567de1" /><circle cx="291.8" cy="314.0" r="4" fill="#567de1" /><circle cx="304.3" cy="314.0" r="4" fill="#567de1" /><circle cx="316.7" cy="314.0" r="4" fill="#567de1" /><circle cx="329.2" cy="314.0" r="4" fill="#567de1" /><circle cx="341.6" cy="314.0" r="4" fill="#567de1" /><circle cx="354.1" cy="314.0" r="4" fill="#567de1" /><circle cx="366.6" cy="314.0" r="4" fill="#567de1" /><circle cx="379.0" cy="314.0" r="4" fill="#567de1" /><circle cx="391.5" cy="314.0" r="4" fill="#567de1" /><circle cx="403.9" cy="314.0" r="4" fill="#567de1" /><circle cx="416.4" cy="314.0" r="4" fill="#567de1" /><circle cx="428.9" cy="314.0" r="4" fill="#567de1" /><circle cx="441.3" cy="314.0" r="4" fill="#567de1" /><circle cx="453.8" cy="314.0" r="4" fill="#567de1" /><circle cx="466.2" cy="314.0" r="4" fill="#567de1" /><circle cx="478.7" cy="314.0" r="4" fill="#567de1" /><circle cx="491.1" cy="314.0" r="4" fill="#567de1" /><circle cx="503.6" cy="314.0" r="4" fill="#567de1" /><circle cx="516.1" cy="314.0" r="4" fill="#567de1" /><circle cx="528.5" cy="314.0" r="4" fill="#567de1" /><circle cx="541.0" cy="314.0" r="4" fill="#567de1" /><circle cx="553.4" cy="314.0" r="4" fill="#567de1" /><circle cx="565.9" cy="314.0" r="4" fill="#567de1" /><circle cx="578.4" cy="314.0" r="4" fill="#567de1" /><circle cx="590.8" cy="313.9" r="4" fill="#567de1" /><circle cx="603.3" cy="313.6" r="4" fill="#567de1" /><circle cx="615.7" cy="313.4" r="4" fill="#567de1" /><circle cx="628.2" cy="313.4" r="4" fill="#567de1" /><circle cx="640.7" cy="313.4" r="4" fill="#567de1" /><circle cx="653.1" cy="313.4" r="4" fill="#567de1" /><circle cx="665.6" cy="313.4" r="4" fill="#567de1" /><circle cx="678.0" cy="313.1" r="4" fill="#567de1" /><circle cx="690.5" cy="313.1" r="4" fill="#567de1" /><circle cx="703.0" cy="313.1" r="4" fill="#567de1" /><circle cx="715.4" cy="313.1" r="4" fill="#567de1" /><circle cx="727.9" cy="313.1" r="4" fill="#567de1" /><circle cx="740.3" cy="313.0" r="4" fill="#567de1" /><circle cx="752.8" cy="313.0" r="4" fill="#567de1" /><circle cx="765.2" cy="312.9" r="4" fill="#567de1" /><circle cx="777.7" cy="312.9" r="4" fill="#567de1" /><circle cx="790.2" cy="312.9" r="4" fill="#567de1" /><circle cx="802.6" cy="312.8" r="4" fill="#567de1" /><circle cx="815.1" cy="312.8" r="4" fill="#567de1" /><circle cx="827.5" cy="312.6" r="4" fill="#567de1" /><circle cx="840.0" cy="312.6" r="4" fill="#567de1" /><polyline points="80.0,303.9 92.5,304.2 104.9,304.4 117.4,304.4 129.8,304.4 142.3,304.4 154.8,304.4 167.2,304.4 179.7,304.4 192.1,304.4 204.6,304.4 217.0,304.4 229.5,304.4 242.0,304.4 254.4,304.4 266.9,304.4 279.3,304.4 291.8,304.4 304.3,304.4 316.7,304.4 329.2,304.4 341.6,304.4 354.1,304.4 366.6,304.4 379.0,304.4 391.5,304.4 403.9,304.4 416.4,304.4 428.9,299.1 441.3,299.1 453.8,299.1 466.2,298.9 478.7,295.6 491.1,295.6 503.6,295.6 516.1,295.6 528.5,295.6 541.0,295.6 553.4,295.6 565.9,295.6 578.4,295.6 590.8,295.8 603.3,295.9 615.7,295.9 628.2,295.9 640.7,295.9 653.1,295.9 665.6,295.9 678.0,295.9 690.5,295.9 703.0,295.9 715.4,295.9 727.9,295.9 740.3,295.9 752.8,295.9 765.2,295.9 777.7,295.9 790.2,295.9 802.6,295.8 815.1,295.8 827.5,295.9 840.0,295.9" fill="none" stroke="#9754dd" stroke-width="2.5" stroke-linecap="round" stroke-linejoin="round" /><circle cx="80.0" cy="303.9" r="4" fill="#9754dd" /><circle cx="92.5" cy="304.2" r="4" fill="#9754dd" /><circle cx="104.9" cy="304.4" r="4" fill="#9754dd" /><circle cx="117.4" cy="304.4" r="4" fill="#9754dd" /><circle cx="129.8" cy="304.4" r="4" fill="#9754dd" /><circle cx="142.3" cy="304.4" r="4" fill="#9754dd" /><circle cx="154.8" cy="304.4" r="4" fill="#9754dd" /><circle cx="167.2" cy="304.4" r="4" fill="#9754dd" /><circle cx="179.7" cy="304.4" r="4" fill="#9754dd" /><circle cx="192.1" cy="304.4" r="4" fill="#9754dd" /><circle cx="204.6" cy="304.4" r="4" fill="#9754dd" /><circle cx="217.0" cy="304.4" r="4" fill="#9754dd" /><circle cx="229.5" cy="304.4" r="4" fill="#9754dd" /><circle cx="242.0" cy="304.4" r="4" fill="#9754dd" /><circle cx="254.4" cy="304.4" r="4" fill="#9754dd" /><circle cx="266.9" cy="304.4" r="4" fill="#9754dd" /><circle cx="279.3" cy="304.4" r="4" fill="#9754dd" /><circle cx="291.8" cy="304.4" r="4" fill="#9754dd" /><circle cx="304.3" cy="304.4" r="4" fill="#9754dd" /><circle cx="316.7" cy="304.4" r="4" fill="#9754dd" /><circle cx="329.2" cy="304.4" r="4" fill="#9754dd" /><circle cx="341.6" cy="304.4" r="4" fill="#9754dd" /><circle cx="354.1" cy="304.4" r="4" fill="#9754dd" /><circle cx="366.6" cy="304.4" r="4" fill="#9754dd" /><circle cx="379.0" cy="304.4" r="4" fill="#9754dd" /><circle cx="391.5" cy="304.4" r="4" fill="#9754dd" /><circle cx="403.9" cy="304.4" r="4" fill="#9754dd" /><circle cx="416.4" cy="304.4" r="4" fill="#9754dd" /><circle cx="428.9" cy="299.1" r="4" fill="#9754dd" /><circle cx="441.3" cy="299.1" r="4" fill="#9754dd" /><circle cx="453.8" cy="299.1" r="4" fill="#9754dd" /><circle cx="466.2" cy="298.9" r="4" fill="#9754dd" /><circle cx="478.7" cy="295.6" r="4" fill="#9754dd" /><circle cx="491.1" cy="295.6" r="4" fill="#9754dd" /><circle cx="503.6" cy="295.6" r="4" fill="#9754dd" /><circle cx="516.1" cy="295.6" r="4" fill="#9754dd" /><circle cx="528.5" cy="295.6" r="4" fill="#9754dd" /><circle cx="541.0" cy="295.6" r="4" fill="#9754dd" /><circle cx="553.4" cy="295.6" r="4" fill="#9754dd" /><circle cx="565.9" cy="295.6" r="4" fill="#9754dd" /><circle cx="578.4" cy="295.6" r="4" fill="#9754dd" /><circle cx="590.8" cy="295.8" r="4" fill="#9754dd" /><circle cx="603.3" cy="295.9" r="4" fill="#9754dd" /><circle cx="615.7" cy="295.9" r="4" fill="#9754dd" /><circle cx="628.2" cy="295.9" r="4" fill="#9754dd" /><circle cx="640.7" cy="295.9" r="4" fill="#9754dd" /><circle cx="653.1" cy="295.9" r="4" fill="#9754dd" /><circle cx="665.6" cy="295.9" r="4" fill="#9754dd" /><circle cx="678.0" cy="295.9" r="4" fill="#9754dd" /><circle cx="690.5" cy="295.9" r="4" fill="#9754dd" /><circle cx="703.0" cy="295.9" r="4" fill="#9754dd" /><circle cx="715.4" cy="295.9" r="4" fill="#9754dd" /><circle cx="727.9" cy="295.9" r="4" fill="#9754dd" /><circle cx="740.3" cy="295.9" r="4" fill="#9754dd" /><circle cx="752.8" cy="295.9" r="4" fill="#9754dd" /><circle cx="765.2" cy="295.9" r="4" fill="#9754dd" /><circle cx="777.7" cy="295.9" r="4" fill="#9754dd" /><circle cx="790.2" cy="295.9" r="4" fill="#9754dd" /><circle cx="802.6" cy="295.8" r="4" fill="#9754dd" /><circle cx="815.1" cy="295.8" r="4" fill="#9754dd" /><circle cx="827.5" cy="295.9" r="4" fill="#9754dd" /><circle cx="840.0" cy="295.9" r="4" fill="#9754dd" />
  <rect x="80" y="339" width="10" height="10" rx="2" ry="2" fill="#19e5a1" /><text x="96" y="348" class="legend-label">Stars</text><rect x="250" y="339" width="10" height="10" rx="2" ry="2" fill="#6eb6ec" /><text x="266" y="348" class="legend-label">Followers</text><rect x="420" y="339" width="10" height="10" rx="2" ry="2" fill="#5938e2" /><text x="436" y="348" class="legend-label">Following</text><rect x="590" y="339" width="10" height="10" rx="2" ry="2" fill="#60e5e0" /><text x="606" y="348" class="legend-label">Contributions</text><rect x="80" y="357" width="10" height="10" rx="2" ry="2" fill="#567de1" /><text x="96" y="366" class="legend-label">Pull Requests</text><rect x="250" y="357" width="10" height="10" rx="2" ry="2" fill="#9754dd" /><text x="266" y="366" class="legend-label">Issues</text>
</svg>
