<svg width="900" height="402" viewBox="0 0 900 402" xmlns="http://www.w3.org/2000/svg">
  <defs>
    <linearGradient id="history-gradient" x1="0%" y1="0%" x2="100%" y2="100%">
      <stop offset="0%" style="stop-color:#58a6ff;stop-opacity:1" />
      <stop offset="100%" style="stop-color:#a371f7;stop-opacity:1" />
    </linearGradient>
    <clipPath id="history-rounded">
      <rect x="0" y="0" width="900" height="402" rx="8" ry="8" />
    </clipPath>
  </defs>
  <style>
    .title {
      font-family: 'Segoe UI', Ubuntu, 'Helvetica Neue', sans-serif;
      font-size: 22px;
      font-weight: 700;
      fill: #58a6ff;
    }
    .subtitle {
      font-family: 'Segoe UI', Ubuntu, 'Helvetica Neue', sans-serif;
      font-size: 12px;
      font-weight: 500;
      fill: #8b949e;
    }
    .axis-label {
      font-family: 'Segoe UI', Ubuntu, 'Helvetica Neue', sans-serif;
      font-size: 10px;
      fill: #8b949e;
    }
    .grid-line {
      stroke: #30363d;
      stroke-width: 1;
      opacity: 0.3;
    }
    .legend-label {
      font-family: 'Segoe UI', Ubuntu, 'Helvetica Neue', sans-serif;
      font-size: 11px;
      fill: #c9d1d9;
      dominant-baseline: middle;
    }
  </style>
  <rect clip-path="url(#history-rounded)" width="100%" height="100%" fill="#0d1117" stroke="#30363d" stroke-width="1" />
  <rect x="0" y="396" width="900" height="6" fill="url(#history-gradient)" clip-path="url(#history-rounded)" />
  <text x="24" y="34" class="title">Leonardo Klein Stats History</text>
  <text x="24" y="54" class="subtitle">Period: 2026-02-20 to 2026-03-11</text>
  <text x="72" y="320.0" text-anchor="end" dominant-baseline="central" class="axis-label">0</text><text x="72" y="270.0" text-anchor="end" dominant-baseline="central" class="axis-label">400</text><text x="72" y="220.0" text-anchor="end" dominant-baseline="central" class="axis-label">800</text><text x="72" y="170.0" text-anchor="end" dominant-baseline="central" class="axis-label">1.2k</text><text x="72" y="120.0" text-anchor="end" dominant-baseline="central" class="axis-label">1.6k</text><text x="72" y="70.0" text-anchor="end" dominant-baseline="central" class="axis-label">2.0k</text>
  <text x="80.0" y="336" text-anchor="middle" class="axis-label">02-20</text><text x="151.2" y="336" text-anchor="middle" class="axis-label">02-22</text><text x="222.5" y="336" text-anchor="middle" class="axis-label">02-24</text><text x="293.8" y="336" text-anchor="middle" class="axis-label">02-25</text><text x="365.0" y="336" text-anchor="middle" class="axis-label">02-27</text><text x="436.2" y="336" text-anchor="middle" class="axis-label">03-01</text><text x="507.5" y="336" text-anchor="middle" class="axis-label">03-03</text><text x="578.8" y="336" text-anchor="middle" class="axis-label">03-05</text><text x="650.0" y="336" text-anchor="middle" class="axis-label">03-06</text><text x="721.2" y="336" text-anchor="middle" class="axis-label">03-08</text><text x="792.5" y="336" text-anchor="middle" class="axis-label">03-10</text><text x="840.0" y="336" text-anchor="middle" class="axis-label">03-11</text>
  <line x1="80" y1="320.0" x2="840" y2="320.0" class="grid-line" /><line x1="80" y1="270.0" x2="840" y2="270.0" class="grid-line" /><line x1="80" y1="220.0" x2="840" y2="220.0" class="grid-line" /><line x1="80" y1="170.0" x2="840" y2="170.0" class="grid-line" /><line x1="80" y1="120.0" x2="840" y2="120.0" class="grid-line" /><line x1="80" y1="70.0" x2="840" y2="70.0" class="grid-line" />
  <polyline points="80.0,317.0 87.9,317.0 95.8,317.0 103.8,317.0 111.7,317.0 119.6,317.0 127.5,317.0 135.4,317.0 143.3,317.0 151.2,317.0 159.2,317.0 167.1,317.0 175.0,317.0 182.9,317.0 190.8,317.0 198.8,317.0 206.7,317.0 214.6,317.0 222.5,317.0 230.4,317.0 238.3,317.0 246.2,317.0 254.2,317.0 262.1,317.0 270.0,317.0 277.9,317.0 285.8,317.0 293.8,317.0 301.7,317.0 309.6,317.0 317.5,317.0 325.4,317.0 333.3,317.0 341.2,317.0 349.2,317.0 357.1,317.0 365.0,317.0 372.9,317.0 380.8,317.0 388.8,317.0 396.7,317.0 404.6,317.0 412.5,317.0 420.4,317.0 428.3,317.0 436.2,317.0 444.2,317.0 452.1,317.0 460.0,317.0 467.9,317.0 475.8,317.0 483.8,317.0 491.7,317.0 499.6,317.0 507.5,317.0 515.4,317.0 523.3,317.0 531.2,317.0 539.2,317.0 547.1,317.0 555.0,317.0 562.9,317.0 570.8,317.0 578.8,317.0 586.7,317.0 594.6,317.0 602.5,317.0 610.4,317.0 618.3,317.0 626.2,317.0 634.2,317.0 642.1,317.0 650.0,317.0 657.9,317.0 665.8,317.0 673.8,317.0 681.7,317.0 689.6,317.0 697.5,317.0 705.4,317.0 713.3,317.0 721.2,317.0 729.2,317.0 737.1,317.0 745.0,317.0 752.9,317.0 760.8,317.0 768.8,317.0 776.7,317.0 784.6,317.0 792.5,317.0 800.4,317.0 808.3,317.0 816.2,317.0 824.2,317.0 832.1,317.0 840.0,317.0" fill="none" stroke="#19e5a1" stroke-width="2.5" stroke-linecap="round" stroke-linejoin="round" /><circle cx="80.0" cy="317.0" r="4" fill="#19e5a1" /><circle cx="87.9" cy="317.0" r="4" fill="#19e5a1" /><circle cx="95.8" cy="317.0" r="4" fill="#19e5a1" /><circle cx="103.8" cy="317.0" r="4" fill="#19e5a1" /><circle cx="111.7" cy="317.0" r="4" fill="#19e5a1" /><circle cx="119.6" cy="317.0" r="4" fill="#19e5a1" /><circle cx="127.5" cy="317.0" r="4" fill="#19e5a1" /><circle cx="135.4" cy="317.0" r="4" fill="#19e5a1" /><circle cx="143.3" cy="317.0" r="4" fill="#19e5a1" /><circle cx="151.2" cy="317.0" r="4" fill="#19e5a1" /><circle cx="159.2" cy="317.0" r="4" fill="#19e5a1" /><circle cx="167.1" cy="317.0" r="4" fill="#19e5a1" /><circle cx="175.0" cy="317.0" r="4" fill="#19e5a1" /><circle cx="182.9" cy="317.0" r="4" fill="#19e5a1" /><circle cx="190.8" cy="317.0" r="4" fill="#19e5a1" /><circle cx="198.8" cy="317.0" r="4" fill="#19e5a1" /><circle cx="206.7" cy="317.0" r="4" fill="#19e5a1" /><circle cx="214.6" cy="317.0" r="4" fill="#19e5a1" /><circle cx="222.5" cy="317.0" r="4" fill="#19e5a1" /><circle cx="230.4" cy="317.0" r="4" fill="#19e5a1" /><circle cx="238.3" cy="317.0" r="4" fill="#19e5a1" /><circle cx="246.2" cy="317.0" r="4" fill="#19e5a1" /><circle cx="254.2" cy="317.0" r="4" fill="#19e5a1" /><circle cx="262.1" cy="317.0" r="4" fill="#19e5a1" /><circle cx="270.0" cy="317.0" r="4" fill="#19e5a1" /><circle cx="277.9" cy="317.0" r="4" fill="#19e5a1" /><circle cx="285.8" cy="317.0" r="4" fill="#19e5a1" /><circle cx="293.8" cy="317.0" r="4" fill="#19e5a1" /><circle cx="301.7" cy="317.0" r="4" fill="#19e5a1" /><circle cx="309.6" cy="317.0" r="4" fill="#19e5a1" /><circle cx="317.5" cy="317.0" r="4" fill="#19e5a1" /><circle cx="325.4" cy="317.0" r="4" fill="#19e5a1" /><circle cx="333.3" cy="317.0" r="4" fill="#19e5a1" /><circle cx="341.2" cy="317.0" r="4" fill="#19e5a1" /><circle cx="349.2" cy="317.0" r="4" fill="#19e5a1" /><circle cx="357.1" cy="317.0" r="4" fill="#19e5a1" /><circle cx="365.0" cy="317.0" r="4" fill="#19e5a1" /><circle cx="372.9" cy="317.0" r="4" fill="#19e5a1" /><circle cx="380.8" cy="317.0" r="4" fill="#19e5a1" /><circle cx="388.8" cy="317.0" r="4" fill="#19e5a1" /><circle cx="396.7" cy="317.0" r="4" fill="#19e5a1" /><circle cx="404.6" cy="317.0" r="4" fill="#19e5a1" /><circle cx="412.5" cy="317.0" r="4" fill="#19e5a1" /><circle cx="420.4" cy="317.0" r="4" fill="#19e5a1" /><circle cx="428.3" cy="317.0" r="4" fill="#19e5a1" /><circle cx="436.2" cy="317.0" r="4" fill="#19e5a1" /><circle cx="444.2" cy="317.0" r="4" fill="#19e5a1" /><circle cx="452.1" cy="317.0" r="4" fill="#19e5a1" /><circle cx="460.0" cy="317.0" r="4" fill="#19e5a1" /><circle cx="467.9" cy="317.0" r="4" fill="#19e5a1" /><circle cx="475.8" cy="317.0" r="4" fill="#19e5a1" /><circle cx="483.8" cy="317.0" r="4" fill="#19e5a1" /><circle cx="491.7" cy="317.0" r="4" fill="#19e5a1" /><circle cx="499.6" cy="317.0" r="4" fill="#19e5a1" /><circle cx="507.5" cy="317.0" r="4" fill="#19e5a1" /><circle cx="515.4" cy="317.0" r="4" fill="#19e5a1" /><circle cx="523.3" cy="317.0" r="4" fill="#19e5a1" /><circle cx="531.2" cy="317.0" r="4" fill="#19e5a1" /><circle cx="539.2" cy="317.0" r="4" fill="#19e5a1" /><circle cx="547.1" cy="317.0" r="4" fill="#19e5a1" /><circle cx="555.0" cy="317.0" r="4" fill="#19e5a1" /><circle cx="562.9" cy="317.0" r="4" fill="#19e5a1" /><circle cx="570.8" cy="317.0" r="4" fill="#19e5a1" /><circle cx="578.8" cy="317.0" r="4" fill="#19e5a1" /><circle cx="586.7" cy="317.0" r="4" fill="#19e5a1" /><circle cx="594.6" cy="317.0" r="4" fill="#19e5a1" /><circle cx="602.5" cy="317.0" r="4" fill="#19e5a1" /><circle cx="610.4" cy="317.0" r="4" fill="#19e5a1" /><circle cx="618.3" cy="317.0" r="4" fill="#19e5a1" /><circle cx="626.2" cy="317.0" r="4" fill="#19e5a1" /><circle cx="634.2" cy="317.0" r="4" fill="#19e5a1" /><circle cx="642.1" cy="317.0" r="4" fill="#19e5a1" /><circle cx="650.0" cy="317.0" r="4" fill="#19e5a1" /><circle cx="657.9" cy="317.0" r="4" fill="#19e5a1" /><circle cx="665.8" cy="317.0" r="4" fill="#19e5a1" /><circle cx="673.8" cy="317.0" r="4" fill="#19e5a1" /><circle cx="681.7" cy="317.0" r="4" fill="#19e5a1" /><circle cx="689.6" cy="317.0" r="4" fill="#19e5a1" /><circle cx="697.5" cy="317.0" r="4" fill="#19e5a1" /><circle cx="705.4" cy="317.0" r="4" fill="#19e5a1" /><circle cx="713.3" cy="317.0" r="4" fill="#19e5a1" /><circle cx="721.2" cy="317.0" r="4" fill="#19e5a1" /><circle cx="729.2" cy="317.0" r="4" fill="#19e5a1" /><circle cx="737.1" cy="317.0" r="4" fill="#19e5a1" /><circle cx="745.0" cy="317.0" r="4" fill="#19e5a1" /><circle cx="752.9" cy="317.0" r="4" fill="#19e5a1" /><circle cx="760.8" cy="317.0" r="4" fill="#19e5a1" /><circle cx="768.8" cy="317.0" r="4" fill="#19e5a1" /><circle cx="776.7" cy="317.0" r="4" fill="#19e5a1" /><circle cx="784.6" cy="317.0" r="4" fill="#19e5a1" /><circle cx="792.5" cy="317.0" r="4" fill="#19e5a1" /><circle cx="800.4" cy="317.0" r="4" fill="#19e5a1" /><circle cx="808.3" cy="317.0" r="4" fill="#19e5a1" /><circle cx="816.2" cy="317.0" r="4" fill="#19e5a1" /><circle cx="824.2" cy="317.0" r="4" fill="#19e5a1" /><circle cx="832.1" cy="317.0" r="4" fill="#19e5a1" /><circle cx="840.0" cy="317.0" r="4" fill="#19e5a1" /><polyline points="80.0,313.2 87.9,312.2 95.8,312.1 103.8,312.4 111.7,312.4 119.6,312.4 127.5,312.1 135.4,312.0 143.3,311.9 151.2,311.9 159.2,311.8 167.1,311.8 175.0,311.5 182.9,311.5 190.8,311.5 198.8,311.2 206.7,311.2 214.6,311.1 222.5,311.1 230.4,311.1 238.3,310.9 246.2,311.0 254.2,310.8 262.1,310.8 270.0,310.8 277.9,310.8 285.8,310.4 293.8,310.2 301.7,310.4 309.6,310.4 317.5,310.4 325.4,310.4 333.3,310.4 341.2,310.2 349.2,310.2 357.1,310.1 365.0,310.1 372.9,309.8 380.8,309.6 388.8,309.6 396.7,309.6 404.6,309.6 412.5,309.5 420.4,309.4 428.3,309.4 436.2,309.4 444.2,309.4 452.1,309.2 460.0,309.2 467.9,309.2 475.8,309.4 483.8,309.4 491.7,309.5 499.6,309.2 507.5,309.2 515.4,309.4 523.3,309.2 531.2,309.2 539.2,309.2 547.1,309.2 555.0,309.2 562.9,309.1 570.8,309.1 578.8,309.1 586.7,309.1 594.6,309.0 602.5,309.0 610.4,308.9 618.3,308.9 626.2,308.9 634.2,308.6 642.1,308.6 650.0,308.6 657.9,308.6 665.8,308.6 673.8,308.6 681.7,308.6 689.6,308.6 697.5,308.6 705.4,308.6 713.3,308.6 721.2,308.6 729.2,308.6 737.1,307.8 745.0,307.8 752.9,307.6 760.8,307.6 768.8,307.6 776.7,307.5 784.6,307.5 792.5,307.6 800.4,308.5 808.3,308.5 816.2,308.4 824.2,308.4 832.1,307.5 840.0,307.5" fill="none" stroke="#6eb6ec" stroke-width="2.5" stroke-linecap="round" stroke-linejoin="round" /><circle cx="80.0" cy="313.2" r="4" fill="#6eb6ec" /><circle cx="87.9" cy="312.2" r="4" fill="#6eb6ec" /><circle cx="95.8" cy="312.1" r="4" fill="#6eb6ec" /><circle cx="103.8" cy="312.4" r="4" fill="#6eb6ec" /><circle cx="111.7" cy="312.4" r="4" fill="#6eb6ec" /><circle cx="119.6" cy="312.4" r="4" fill="#6eb6ec" /><circle cx="127.5" cy="312.1" r="4" fill="#6eb6ec" /><circle cx="135.4" cy="312.0" r="4" fill="#6eb6ec" /><circle cx="143.3" cy="311.9" r="4" fill="#6eb6ec" /><circle cx="151.2" cy="311.9" r="4" fill="#6eb6ec" /><circle cx="159.2" cy="311.8" r="4" fill="#6eb6ec" /><circle cx="167.1" cy="311.8" r="4" fill="#6eb6ec" /><circle cx="175.0" cy="311.5" r="4" fill="#6eb6ec" /><circle cx="182.9" cy="311.5" r="4" fill="#6eb6ec" /><circle cx="190.8" cy="311.5" r="4" fill="#6eb6ec" /><circle cx="198.8" cy="311.2" r="4" fill="#6eb6ec" /><circle cx="206.7" cy="311.2" r="4" fill="#6eb6ec" /><circle cx="214.6" cy="311.1" r="4" fill="#6eb6ec" /><circle cx="222.5" cy="311.1" r="4" fill="#6eb6ec" /><circle cx="230.4" cy="311.1" r="4" fill="#6eb6ec" /><circle cx="238.3" cy="310.9" r="4" fill="#6eb6ec" /><circle cx="246.2" cy="311.0" r="4" fill="#6eb6ec" /><circle cx="254.2" cy="310.8" r="4" fill="#6eb6ec" /><circle cx="262.1" cy="310.8" r="4" fill="#6eb6ec" /><circle cx="270.0" cy="310.8" r="4" fill="#6eb6ec" /><circle cx="277.9" cy="310.8" r="4" fill="#6eb6ec" /><circle cx="285.8" cy="310.4" r="4" fill="#6eb6ec" /><circle cx="293.8" cy="310.2" r="4" fill="#6eb6ec" /><circle cx="301.7" cy="310.4" r="4" fill="#6eb6ec" /><circle cx="309.6" cy="310.4" r="4" fill="#6eb6ec" /><circle cx="317.5" cy="310.4" r="4" fill="#6eb6ec" /><circle cx="325.4" cy="310.4" r="4" fill="#6eb6ec" /><circle cx="333.3" cy="310.4" r="4" fill="#6eb6ec" /><circle cx="341.2" cy="310.2" r="4" fill="#6eb6ec" /><circle cx="349.2" cy="310.2" r="4" fill="#6eb6ec" /><circle cx="357.1" cy="310.1" r="4" fill="#6eb6ec" /><circle cx="365.0" cy="310.1" r="4" fill="#6eb6ec" /><circle cx="372.9" cy="309.8" r="4" fill="#6eb6ec" /><circle cx="380.8" cy="309.6" r="4" fill="#6eb6ec" /><circle cx="388.8" cy="309.6" r="4" fill="#6eb6ec" /><circle cx="396.7" cy="309.6" r="4" fill="#6eb6ec" /><circle cx="404.6" cy="309.6" r="4" fill="#6eb6ec" /><circle cx="412.5" cy="309.5" r="4" fill="#6eb6ec" /><circle cx="420.4" cy="309.4" r="4" fill="#6eb6ec" /><circle cx="428.3" cy="309.4" r="4" fill="#6eb6ec" /><circle cx="436.2" cy="309.4" r="4" fill="#6eb6ec" /><circle cx="444.2" cy="309.4" r="4" fill="#6eb6ec" /><circle cx="452.1" cy="309.2" r="4" fill="#6eb6ec" /><circle cx="460.0" cy="309.2" r="4" fill="#6eb6ec" /><circle cx="467.9" cy="309.2" r="4" fill="#6eb6ec" /><circle cx="475.8" cy="309.4" r="4" fill="#6eb6ec" /><circle cx="483.8" cy="309.4" r="4" fill="#6eb6ec" /><circle cx="491.7" cy="309.5" r="4" fill="#6eb6ec" /><circle cx="499.6" cy="309.2" r="4" fill="#6eb6ec" /><circle cx="507.5" cy="309.2" r="4" fill="#6eb6ec" /><circle cx="515.4" cy="309.4" r="4" fill="#6eb6ec" /><circle cx="523.3" cy="309.2" r="4" fill="#6eb6ec" /><circle cx="531.2" cy="309.2" r="4" fill="#6eb6ec" /><circle cx="539.2" cy="309.2" r="4" fill="#6eb6ec" /><circle cx="547.1" cy="309.2" r="4" fill="#6eb6ec" /><circle cx="555.0" cy="309.2" r="4" fill="#6eb6ec" /><circle cx="562.9" cy="309.1" r="4" fill="#6eb6ec" /><circle cx="570.8" cy="309.1" r="4" fill="#6eb6ec" /><circle cx="578.8" cy="309.1" r="4" fill="#6eb6ec" /><circle cx="586.7" cy="309.1" r="4" fill="#6eb6ec" /><circle cx="594.6" cy="309.0" r="4" fill="#6eb6ec" /><circle cx="602.5" cy="309.0" r="4" fill="#6eb6ec" /><circle cx="610.4" cy="308.9" r="4" fill="#6eb6ec" /><circle cx="618.3" cy="308.9" r="4" fill="#6eb6ec" /><circle cx="626.2" cy="308.9" r="4" fill="#6eb6ec" /><circle cx="634.2" cy="308.6" r="4" fill="#6eb6ec" /><circle cx="642.1" cy="308.6" r="4" fill="#6eb6ec" /><circle cx="650.0" cy="308.6" r="4" fill="#6eb6ec" /><circle cx="657.9" cy="308.6" r="4" fill="#6eb6ec" /><circle cx="665.8" cy="308.6" r="4" fill="#6eb6ec" /><circle cx="673.8" cy="308.6" r="4" fill="#6eb6ec" /><circle cx="681.7" cy="308.6" r="4" fill="#6eb6ec" /><circle cx="689.6" cy="308.6" r="4" fill="#6eb6ec" /><circle cx="697.5" cy="308.6" r="4" fill="#6eb6ec" /><circle cx="705.4" cy="308.6" r="4" fill="#6eb6ec" /><circle cx="713.3" cy="308.6" r="4" fill="#6eb6ec" /><circle cx="721.2" cy="308.6" r="4" fill="#6eb6ec" /><circle cx="729.2" cy="308.6" r="4" fill="#6eb6ec" /><circle cx="737.1" cy="307.8" r="4" fill="#6eb6ec" /><circle cx="745.0" cy="307.8" r="4" fill="#6eb6ec" /><circle cx="752.9" cy="307.6" r="4" fill="#6eb6ec" /><circle cx="760.8" cy="307.6" r="4" fill="#6eb6ec" /><circle cx="768.8" cy="307.6" r="4" fill="#6eb6ec" /><circle cx="776.7" cy="307.5" r="4" fill="#6eb6ec" /><circle cx="784.6" cy="307.5" r="4" fill="#6eb6ec" /><circle cx="792.5" cy="307.6" r="4" fill="#6eb6ec" /><circle cx="800.4" cy="308.5" r="4" fill="#6eb6ec" /><circle cx="808.3" cy="308.5" r="4" fill="#6eb6ec" /><circle cx="816.2" cy="308.4" r="4" fill="#6eb6ec" /><circle cx="824.2" cy="308.4" r="4" fill="#6eb6ec" /><circle cx="832.1" cy="307.5" r="4" fill="#6eb6ec" /><circle cx="840.0" cy="307.5" r="4" fill="#6eb6ec" /><polyline points="80.0,305.8 87.9,305.8 95.8,305.8 103.8,305.8 111.7,305.8 119.6,305.8 127.5,305.8 135.4,305.8 143.3,305.8 151.2,305.8 159.2,304.9 167.1,304.9 175.0,304.9 182.9,304.9 190.8,304.9 198.8,304.9 206.7,304.9 214.6,304.9 222.5,304.9 230.4,304.9 238.3,304.9 246.2,304.9 254.2,304.9 262.1,304.9 270.0,304.9 277.9,304.9 285.8,304.9 293.8,304.9 301.7,304.9 309.6,304.9 317.5,304.9 325.4,304.9 333.3,304.9 341.2,304.9 349.2,304.9 357.1,304.9 365.0,304.9 372.9,303.6 380.8,303.6 388.8,303.6 396.7,303.6 404.6,303.6 412.5,303.6 420.4,303.6 428.3,303.6 436.2,303.6 444.2,303.6 452.1,303.6 460.0,303.6 467.9,303.6 475.8,303.6 483.8,302.9 491.7,302.9 499.6,298.0 507.5,298.0 515.4,298.0 523.3,298.0 531.2,298.0 539.2,298.0 547.1,298.0 555.0,298.0 562.9,298.0 570.8,298.0 578.8,298.0 586.7,298.0 594.6,298.0 602.5,298.0 610.4,297.8 618.3,297.8 626.2,297.8 634.2,297.8 642.1,297.8 650.0,297.8 657.9,297.8 665.8,297.8 673.8,297.8 681.7,297.8 689.6,297.8 697.5,297.8 705.4,297.8 713.3,297.8 721.2,297.8 729.2,297.8 737.1,297.8 745.0,297.8 752.9,297.8 760.8,297.6 768.8,297.8 776.7,297.8 784.6,297.8 792.5,297.9 800.4,297.9 808.3,297.9 816.2,296.1 824.2,296.1 832.1,296.1 840.0,296.1" fill="none" stroke="#5938e2" stroke-width="2.5" stroke-linecap="round" stroke-linejoin="round" /><circle cx="80.0" cy="305.8" r="4" fill="#5938e2" /><circle cx="87.9" cy="305.8" r="4" fill="#5938e2" /><circle cx="95.8" cy="305.8" r="4" fill="#5938e2" /><circle cx="103.8" cy="305.8" r="4" fill="#5938e2" /><circle cx="111.7" cy="305.8" r="4" fill="#5938e2" /><circle cx="119.6" cy="305.8" r="4" fill="#5938e2" /><circle cx="127.5" cy="305.8" r="4" fill="#5938e2" /><circle cx="135.4" cy="305.8" r="4" fill="#5938e2" /><circle cx="143.3" cy="305.8" r="4" fill="#5938e2" /><circle cx="151.2" cy="305.8" r="4" fill="#5938e2" /><circle cx="159.2" cy="304.9" r="4" fill="#5938e2" /><circle cx="167.1" cy="304.9" r="4" fill="#5938e2" /><circle cx="175.0" cy="304.9" r="4" fill="#5938e2" /><circle cx="182.9" cy="304.9" r="4" fill="#5938e2" /><circle cx="190.8" cy="304.9" r="4" fill="#5938e2" /><circle cx="198.8" cy="304.9" r="4" fill="#5938e2" /><circle cx="206.7" cy="304.9" r="4" fill="#5938e2" /><circle cx="214.6" cy="304.9" r="4" fill="#5938e2" /><circle cx="222.5" cy="304.9" r="4" fill="#5938e2" /><circle cx="230.4" cy="304.9" r="4" fill="#5938e2" /><circle cx="238.3" cy="304.9" r="4" fill="#5938e2" /><circle cx="246.2" cy="304.9" r="4" fill="#5938e2" /><circle cx="254.2" cy="304.9" r="4" fill="#5938e2" /><circle cx="262.1" cy="304.9" r="4" fill="#5938e2" /><circle cx="270.0" cy="304.9" r="4" fill="#5938e2" /><circle cx="277.9" cy="304.9" r="4" fill="#5938e2" /><circle cx="285.8" cy="304.9" r="4" fill="#5938e2" /><circle cx="293.8" cy="304.9" r="4" fill="#5938e2" /><circle cx="301.7" cy="304.9" r="4" fill="#5938e2" /><circle cx="309.6" cy="304.9" r="4" fill="#5938e2" /><circle cx="317.5" cy="304.9" r="4" fill="#5938e2" /><circle cx="325.4" cy="304.9" r="4" fill="#5938e2" /><circle cx="333.3" cy="304.9" r="4" fill="#5938e2" /><circle cx="341.2" cy="304.9" r="4" fill="#5938e2" /><circle cx="349.2" cy="304.9" r="4" fill="#5938e2" /><circle cx="357.1" cy="304.9" r="4" fill="#5938e2" /><circle cx="365.0" cy="304.9" r="4" fill="#5938e2" /><circle cx="372.9" cy="303.6" r="4" fill="#5938e2" /><circle cx="380.8" cy="303.6" r="4" fill="#5938e2" /><circle cx="388.8" cy="303.6" r="4" fill="#5938e2" /><circle cx="396.7" cy="303.6" r="4" fill="#5938e2" /><circle cx="404.6" cy="303.6" r="4" fill="#5938e2" /><circle cx="412.5" cy="303.6" r="4" fill="#5938e2" /><circle cx="420.4" cy="303.6" r="4" fill="#5938e2" /><circle cx="428.3" cy="303.6" r="4" fill="#5938e2" /><circle cx="436.2" cy="303.6" r="4" fill="#5938e2" /><circle cx="444.2" cy="303.6" r="4" fill="#5938e2" /><circle cx="452.1" cy="303.6" r="4" fill="#5938e2" /><circle cx="460.0" cy="303.6" r="4" fill="#5938e2" /><circle cx="467.9" cy="303.6" r="4" fill="#5938e2" /><circle cx="475.8" cy="303.6" r="4" fill="#5938e2" /><circle cx="483.8" cy="302.9" r="4" fill="#5938e2" /><circle cx="491.7" cy="302.9" r="4" fill="#5938e2" /><circle cx="499.6" cy="298.0" r="4" fill="#5938e2" /><circle cx="507.5" cy="298.0" r="4" fill="#5938e2" /><circle cx="515.4" cy="298.0" r="4" fill="#5938e2" /><circle cx="523.3" cy="298.0" r="4" fill="#5938e2" /><circle cx="531.2" cy="298.0" r="4" fill="#5938e2" /><circle cx="539.2" cy="298.0" r="4" fill="#5938e2" /><circle cx="547.1" cy="298.0" r="4" fill="#5938e2" /><circle cx="555.0" cy="298.0" r="4" fill="#5938e2" /><circle cx="562.9" cy="298.0" r="4" fill="#5938e2" /><circle cx="570.8" cy="298.0" r="4" fill="#5938e2" /><circle cx="578.8" cy="298.0" r="4" fill="#5938e2" /><circle cx="586.7" cy="298.0" r="4" fill="#5938e2" /><circle cx="594.6" cy="298.0" r="4" fill="#5938e2" /><circle cx="602.5" cy="298.0" r="4" fill="#5938e2" /><circle cx="610.4" cy="297.8" r="4" fill="#5938e2" /><circle cx="618.3" cy="297.8" r="4" fill="#5938e2" /><circle cx="626.2" cy="297.8" r="4" fill="#5938e2" /><circle cx="634.2" cy="297.8" r="4" fill="#5938e2" /><circle cx="642.1" cy="297.8" r="4" fill="#5938e2" /><circle cx="650.0" cy="297.8" r="4" fill="#5938e2" /><circle cx="657.9" cy="297.8" r="4" fill="#5938e2" /><circle cx="665.8" cy="297.8" r="4" fill="#5938e2" /><circle cx="673.8" cy="297.8" r="4" fill="#5938e2" /><circle cx="681.7" cy="297.8" r="4" fill="#5938e2" /><circle cx="689.6" cy="297.8" r="4" fill="#5938e2" /><circle cx="697.5" cy="297.8" r="4" fill="#5938e2" /><circle cx="705.4" cy="297.8" r="4" fill="#5938e2" /><circle cx="713.3" cy="297.8" r="4" fill="#5938e2" /><circle cx="721.2" cy="297.8" r="4" fill="#5938e2" /><circle cx="729.2" cy="297.8" r="4" fill="#5938e2" /><circle cx="737.1" cy="297.8" r="4" fill="#5938e2" /><circle cx="745.0" cy="297.8" r="4" fill="#5938e2" /><circle cx="752.9" cy="297.8" r="4" fill="#5938e2" /><circle cx="760.8" cy="297.6" r="4" fill="#5938e2" /><circle cx="768.8" cy="297.8" r="4" fill="#5938e2" /><circle cx="776.7" cy="297.8" r="4" fill="#5938e2" /><circle cx="784.6" cy="297.8" r="4" fill="#5938e2" /><circle cx="792.5" cy="297.9" r="4" fill="#5938e2" /><circle cx="800.4" cy="297.9" r="4" fill="#5938e2" /><circle cx="808.3" cy="297.9" r="4" fill="#5938e2" /><circle cx="816.2" cy="296.1" r="4" fill="#5938e2" /><circle cx="824.2" cy="296.1" r="4" fill="#5938e2" /><circle cx="832.1" cy="296.1" r="4" fill="#5938e2" /><circle cx="840.0" cy="296.1" r="4" fill="#5938e2" /><polyline points="80.0,144.6 87.9,140.1 95.8,139.9 103.8,139.8 111.7,139.8 119.6,139.6 127.5,139.6 135.4,139.6 143.3,139.6 151.2,139.6 159.2,138.4 167.1,138.4 175.0,138.4 182.9,138.4 190.8,138.4 198.8,138.4 206.7,138.4 214.6,137.4 222.5,137.4 230.4,137.4 238.3,137.4 246.2,137.4 254.2,137.4 262.1,137.4 270.0,137.4 277.9,137.4 285.8,137.4 293.8,137.4 301.7,131.2 309.6,131.2 317.5,130.8 325.4,130.4 333.3,126.9 341.2,126.9 349.2,126.9 357.1,126.9 365.0,126.9 372.9,126.9 380.8,126.9 388.8,126.9 396.7,126.9 404.6,126.8 412.5,122.1 420.4,120.4 428.3,120.4 436.2,120.4 444.2,120.4 452.1,120.4 460.0,119.4 467.9,119.4 475.8,119.4 483.8,119.4 491.7,119.1 499.6,118.8 507.5,118.8 515.4,117.8 523.3,117.8 531.2,117.8 539.2,115.8 547.1,115.8 555.0,115.0 562.9,115.0 570.8,115.0 578.8,115.0 586.7,115.0 594.6,115.0 602.5,115.0 610.4,113.9 618.3,111.8 626.2,111.8 634.2,111.8 642.1,111.8 650.0,111.8 657.9,111.8 665.8,111.8 673.8,111.8 681.7,111.8 689.6,111.8 697.5,110.6 705.4,110.6 713.3,110.6 721.2,110.6 729.2,110.6 737.1,109.4 745.0,109.4 752.9,109.4 760.8,109.4 768.8,109.2 776.7,109.2 784.6,109.2 792.5,109.2 800.4,109.2 808.3,109.2 816.2,109.2 824.2,109.2 832.1,109.2 840.0,109.2" fill="none" stroke="#60e5e0" stroke-width="2.5" stroke-linecap="round" stroke-linejoin="round" /><circle cx="80.0" cy="144.6" r="4" fill="#60e5e0" /><circle cx="87.9" cy="140.1" r="4" fill="#60e5e0" /><circle cx="95.8" cy="139.9" r="4" fill="#60e5e0" /><circle cx="103.8" cy="139.8" r="4" fill="#60e5e0" /><circle cx="111.7" cy="139.8" r="4" fill="#60e5e0" /><circle cx="119.6" cy="139.6" r="4" fill="#60e5e0" /><circle cx="127.5" cy="139.6" r="4" fill="#60e5e0" /><circle cx="135.4" cy="139.6" r="4" fill="#60e5e0" /><circle cx="143.3" cy="139.6" r="4" fill="#60e5e0" /><circle cx="151.2" cy="139.6" r="4" fill="#60e5e0" /><circle cx="159.2" cy="138.4" r="4" fill="#60e5e0" /><circle cx="167.1" cy="138.4" r="4" fill="#60e5e0" /><circle cx="175.0" cy="138.4" r="4" fill="#60e5e0" /><circle cx="182.9" cy="138.4" r="4" fill="#60e5e0" /><circle cx="190.8" cy="138.4" r="4" fill="#60e5e0" /><circle cx="198.8" cy="138.4" r="4" fill="#60e5e0" /><circle cx="206.7" cy="138.4" r="4" fill="#60e5e0" /><circle cx="214.6" cy="137.4" r="4" fill="#60e5e0" /><circle cx="222.5" cy="137.4" r="4" fill="#60e5e0" /><circle cx="230.4" cy="137.4" r="4" fill="#60e5e0" /><circle cx="238.3" cy="137.4" r="4" fill="#60e5e0" /><circle cx="246.2" cy="137.4" r="4" fill="#60e5e0" /><circle cx="254.2" cy="137.4" r="4" fill="#60e5e0" /><circle cx="262.1" cy="137.4" r="4" fill="#60e5e0" /><circle cx="270.0" cy="137.4" r="4" fill="#60e5e0" /><circle cx="277.9" cy="137.4" r="4" fill="#60e5e0" /><circle cx="285.8" cy="137.4" r="4" fill="#60e5e0" /><circle cx="293.8" cy="137.4" r="4" fill="#60e5e0" /><circle cx="301.7" cy="131.2" r="4" fill="#60e5e0" /><circle cx="309.6" cy="131.2" r="4" fill="#60e5e0" /><circle cx="317.5" cy="130.8" r="4" fill="#60e5e0" /><circle cx="325.4" cy="130.4" r="4" fill="#60e5e0" /><circle cx="333.3" cy="126.9" r="4" fill="#60e5e0" /><circle cx="341.2" cy="126.9" r="4" fill="#60e5e0" /><circle cx="349.2" cy="126.9" r="4" fill="#60e5e0" /><circle cx="357.1" cy="126.9" r="4" fill="#60e5e0" /><circle cx="365.0" cy="126.9" r="4" fill="#60e5e0" /><circle cx="372.9" cy="126.9" r="4" fill="#60e5e0" /><circle cx="380.8" cy="126.9" r="4" fill="#60e5e0" /><circle cx="388.8" cy="126.9" r="4" fill="#60e5e0" /><circle cx="396.7" cy="126.9" r="4" fill="#60e5e0" /><circle cx="404.6" cy="126.8" r="4" fill="#60e5e0" /><circle cx="412.5" cy="122.1" r="4" fill="#60e5e0" /><circle cx="420.4" cy="120.4" r="4" fill="#60e5e0" /><circle cx="428.3" cy="120.4" r="4" fill="#60e5e0" /><circle cx="436.2" cy="120.4" r="4" fill="#60e5e0" /><circle cx="444.2" cy="120.4" r="4" fill="#60e5e0" /><circle cx="452.1" cy="120.4" r="4" fill="#60e5e0" /><circle cx="460.0" cy="119.4" r="4" fill="#60e5e0" /><circle cx="467.9" cy="119.4" r="4" fill="#60e5e0" /><circle cx="475.8" cy="119.4" r="4" fill="#60e5e0" /><circle cx="483.8" cy="119.4" r="4" fill="#60e5e0" /><circle cx="491.7" cy="119.1" r="4" fill="#60e5e0" /><circle cx="499.6" cy="118.8" r="4" fill="#60e5e0" /><circle cx="507.5" cy="118.8" r="4" fill="#60e5e0" /><circle cx="515.4" cy="117.8" r="4" fill="#60e5e0" /><circle cx="523.3" cy="117.8" r="4" fill="#60e5e0" /><circle cx="531.2" cy="117.8" r="4" fill="#60e5e0" /><circle cx="539.2" cy="115.8" r="4" fill="#60e5e0" /><circle cx="547.1" cy="115.8" r="4" fill="#60e5e0" /><circle cx="555.0" cy="115.0" r="4" fill="#60e5e0" /><circle cx="562.9" cy="115.0" r="4" fill="#60e5e0" /><circle cx="570.8" cy="115.0" r="4" fill="#60e5e0" /><circle cx="578.8" cy="115.0" r="4" fill="#60e5e0" /><circle cx="586.7" cy="115.0" r="4" fill="#60e5e0" /><circle cx="594.6" cy="115.0" r="4" fill="#60e5e0" /><circle cx="602.5" cy="115.0" r="4" fill="#60e5e0" /><circle cx="610.4" cy="113.9" r="4" fill="#60e5e0" /><circle cx="618.3" cy="111.8" r="4" fill="#60e5e0" /><circle cx="626.2" cy="111.8" r="4" fill="#60e5e0" /><circle cx="634.2" cy="111.8" r="4" fill="#60e5e0" /><circle cx="642.1" cy="111.8" r="4" fill="#60e5e0" /><circle cx="650.0" cy="111.8" r="4" fill="#60e5e0" /><circle cx="657.9" cy="111.8" r="4" fill="#60e5e0" /><circle cx="665.8" cy="111.8" r="4" fill="#60e5e0" /><circle cx="673.8" cy="111.8" r="4" fill="#60e5e0" /><circle cx="681.7" cy="111.8" r="4" fill="#60e5e0" /><circle cx="689.6" cy="111.8" r="4" fill="#60e5e0" /><circle cx="697.5" cy="110.6" r="4" fill="#60e5e0" /><circle cx="705.4" cy="110.6" r="4" fill="#60e5e0" /><circle cx="713.3" cy="110.6" r="4" fill="#60e5e0" /><circle cx="721.2" cy="110.6" r="4" fill="#60e5e0" /><circle cx="729.2" cy="110.6" r="4" fill="#60e5e0" /><circle cx="737.1" cy="109.4" r="4" fill="#60e5e0" /><circle cx="745.0" cy="109.4" r="4" fill="#60e5e0" /><circle cx="752.9" cy="109.4" r="4" fill="#60e5e0" /><circle cx="760.8" cy="109.4" r="4" fill="#60e5e0" /><circle cx="768.8" cy="109.2" r="4" fill="#60e5e0" /><circle cx="776.7" cy="109.2" r="4" fill="#60e5e0" /><circle cx="784.6" cy="109.2" r="4" fill="#60e5e0" /><circle cx="792.5" cy="109.2" r="4" fill="#60e5e0" /><circle cx="800.4" cy="109.2" r="4" fill="#60e5e0" /><circle cx="808.3" cy="109.2" r="4" fill="#60e5e0" /><circle cx="816.2" cy="109.2" r="4" fill="#60e5e0" /><circle cx="824.2" cy="109.2" r="4" fill="#60e5e0" /><circle cx="832.1" cy="109.2" r="4" fill="#60e5e0" /><circle cx="840.0" cy="109.2" r="4" fill="#60e5e0" /><polyline points="80.0,314.6 87.9,314.4 95.8,314.2 103.8,314.2 111.7,314.2 119.6,314.1 127.5,314.1 135.4,314.1 143.3,314.1 151.2,314.1 159.2,314.0 167.1,314.0 175.0,314.0 182.9,314.0 190.8,314.0 198.8,314.0 206.7,314.0 214.6,314.0 222.5,314.0 230.4,314.0 238.3,314.0 246.2,314.0 254.2,314.0 262.1,314.0 270.0,314.0 277.9,314.0 285.8,314.0 293.8,314.0 301.7,314.0 309.6,314.0 317.5,314.0 325.4,314.0 333.3,314.0 341.2,314.0 349.2,314.0 357.1,314.0 365.0,314.0 372.9,314.0 380.8,314.0 388.8,314.0 396.7,314.0 404.6,313.9 412.5,313.6 420.4,313.4 428.3,313.4 436.2,313.4 444.2,313.4 452.1,313.4 460.0,313.1 467.9,313.1 475.8,313.1 483.8,313.1 491.7,313.1 499.6,313.0 507.5,313.0 515.4,312.9 523.3,312.9 531.2,312.9 539.2,312.8 547.1,312.8 555.0,312.6 562.9,312.6 570.8,312.6 578.8,312.6 586.7,312.6 594.6,312.6 602.5,312.6 610.4,312.5 618.3,312.1 626.2,312.1 634.2,312.1 642.1,312.1 650.0,312.1 657.9,312.1 665.8,312.1 673.8,312.1 681.7,312.1 689.6,312.1 697.5,312.0 705.4,312.0 713.3,312.0 721.2,312.0 729.2,312.0 737.1,312.0 745.0,312.0 752.9,312.0 760.8,312.0 768.8,312.0 776.7,312.0 784.6,312.0 792.5,312.0 800.4,312.0 808.3,312.0 816.2,312.0 824.2,312.0 832.1,312.0 840.0,312.0" fill="none" stroke="#567de1" stroke-width="2.5" stroke-linecap="round" stroke-linejoin="round" /><circle cx="80.0" cy="314.6" r="4" fill="#567de1" /><circle cx="87.9" cy="314.4" r="4" fill="#567de1" /><circle cx="95.8" cy="314.2" r="4" fill="#567de1" /><circle cx="103.8" cy="314.2" r="4" fill="#567de1" /><circle cx="111.7" cy="314.2" r="4" fill="#567de1" /><circle cx="119.6" cy="314.1" r="4" fill="#567de1" /><circle cx="127.5" cy="314.1" r="4" fill="#567de1" /><circle cx="135.4" cy="314.1" r="4" fill="#567de1" /><circle cx="143.3" cy="314.1" r="4" fill="#567de1" /><circle cx="151.2" cy="314.1" r="4" fill="#567de1" /><circle cx="159.2" cy="314.0" r="4" fill="#567de1" /><circle cx="167.1" cy="314.0" r="4" fill="#567de1" /><circle cx="175.0" cy="314.0" r="4" fill="#567de1" /><circle cx="182.9" cy="314.0" r="4" fill="#567de1" /><circle cx="190.8" cy="314.0" r="4" fill="#567de1" /><circle cx="198.8" cy="314.0" r="4" fill="#567de1" /><circle cx="206.7" cy="314.0" r="4" fill="#567de1" /><circle cx="214.6" cy="314.0" r="4" fill="#567de1" /><circle cx="222.5" cy="314.0" r="4" fill="#567de1" /><circle cx="230.4" cy="314.0" r="4" fill="#567de1" /><circle cx="238.3" cy="314.0" r="4" fill="#567de1" /><circle cx="246.2" cy="314.0" r="4" fill="#567de1" /><circle cx="254.2" cy="314.0" r="4" fill="#567de1" /><circle cx="262.1" cy="314.0" r="4" fill="#567de1" /><circle cx="270.0" cy="314.0" r="4" fill="#567de1" /><circle cx="277.9" cy="314.0" r="4" fill="#567de1" /><circle cx="285.8" cy="314.0" r="4" fill="#567de1" /><circle cx="293.8" cy="314.0" r="4" fill="#567de1" /><circle cx="301.7" cy="314.0" r="4" fill="#567de1" /><circle cx="309.6" cy="314.0" r="4" fill="#567de1" /><circle cx="317.5" cy="314.0" r="4" fill="#567de1" /><circle cx="325.4" cy="314.0" r="4" fill="#567de1" /><circle cx="333.3" cy="314.0" r="4" fill="#567de1" /><circle cx="341.2" cy="314.0" r="4" fill="#567de1" /><circle cx="349.2" cy="314.0" r="4" fill="#567de1" /><circle cx="357.1" cy="314.0" r="4" fill="#567de1" /><circle cx="365.0" cy="314.0" r="4" fill="#567de1" /><circle cx="372.9" cy="314.0" r="4" fill="#567de1" /><circle cx="380.8" cy="314.0" r="4" fill="#567de1" /><circle cx="388.8" cy="314.0" r="4" fill="#567de1" /><circle cx="396.7" cy="314.0" r="4" fill="#567de1" /><circle cx="404.6" cy="313.9" r="4" fill="#567de1" /><circle cx="412.5" cy="313.6" r="4" fill="#567de1" /><circle cx="420.4" cy="313.4" r="4" fill="#567de1" /><circle cx="428.3" cy="313.4" r="4" fill="#567de1" /><circle cx="436.2" cy="313.4" r="4" fill="#567de1" /><circle cx="444.2" cy="313.4" r="4" fill="#567de1" /><circle cx="452.1" cy="313.4" r="4" fill="#567de1" /><circle cx="460.0" cy="313.1" r="4" fill="#567de1" /><circle cx="467.9" cy="313.1" r="4" fill="#567de1" /><circle cx="475.8" cy="313.1" r="4" fill="#567de1" /><circle cx="483.8" cy="313.1" r="4" fill="#567de1" /><circle cx="491.7" cy="313.1" r="4" fill="#567de1" /><circle cx="499.6" cy="313.0" r="4" fill="#567de1" /><circle cx="507.5" cy="313.0" r="4" fill="#567de1" /><circle cx="515.4" cy="312.9" r="4" fill="#567de1" /><circle cx="523.3" cy="312.9" r="4" fill="#567de1" /><circle cx="531.2" cy="312.9" r="4" fill="#567de1" /><circle cx="539.2" cy="312.8" r="4" fill="#567de1" /><circle cx="547.1" cy="312.8" r="4" fill="#567de1" /><circle cx="555.0" cy="312.6" r="4" fill="#567de1" /><circle cx="562.9" cy="312.6" r="4" fill="#567de1" /><circle cx="570.8" cy="312.6" r="4" fill="#567de1" /><circle cx="578.8" cy="312.6" r="4" fill="#567de1" /><circle cx="586.7" cy="312.6" r="4" fill="#567de1" /><circle cx="594.6" cy="312.6" r="4" fill="#567de1" /><circle cx="602.5" cy="312.6" r="4" fill="#567de1" /><circle cx="610.4" cy="312.5" r="4" fill="#567de1" /><circle cx="618.3" cy="312.1" r="4" fill="#567de1" /><circle cx="626.2" cy="312.1" r="4" fill="#567de1" /><circle cx="634.2" cy="312.1" r="4" fill="#567de1" /><circle cx="642.1" cy="312.1" r="4" fill="#567de1" /><circle cx="650.0" cy="312.1" r="4" fill="#567de1" /><circle cx="657.9" cy="312.1" r="4" fill="#567de1" /><circle cx="665.8" cy="312.1" r="4" fill="#567de1" /><circle cx="673.8" cy="312.1" r="4" fill="#567de1" /><circle cx="681.7" cy="312.1" r="4" fill="#567de1" /><circle cx="689.6" cy="312.1" r="4" fill="#567de1" /><circle cx="697.5" cy="312.0" r="4" fill="#567de1" /><circle cx="705.4" cy="312.0" r="4" fill="#567de1" /><circle cx="713.3" cy="312.0" r="4" fill="#567de1" /><circle cx="721.2" cy="312.0" r="4" fill="#567de1" /><circle cx="729.2" cy="312.0" r="4" fill="#567de1" /><circle cx="737.1" cy="312.0" r="4" fill="#567de1" /><circle cx="745.0" cy="312.0" r="4" fill="#567de1" /><circle cx="752.9" cy="312.0" r="4" fill="#567de1" /><circle cx="760.8" cy="312.0" r="4" fill="#567de1" /><circle cx="768.8" cy="312.0" r="4" fill="#567de1" /><circle cx="776.7" cy="312.0" r="4" fill="#567de1" /><circle cx="784.6" cy="312.0" r="4" fill="#567de1" /><circle cx="792.5" cy="312.0" r="4" fill="#567de1" /><circle cx="800.4" cy="312.0" r="4" fill="#567de1" /><circle cx="808.3" cy="312.0" r="4" fill="#567de1" /><circle cx="816.2" cy="312.0" r="4" fill="#567de1" /><circle cx="824.2" cy="312.0" r="4" fill="#567de1" /><circle cx="832.1" cy="312.0" r="4" fill="#567de1" /><circle cx="840.0" cy="312.0" r="4" fill="#567de1" /><polyline points="80.0,303.9 87.9,304.2 95.8,304.4 103.8,304.4 111.7,304.4 119.6,304.4 127.5,304.4 135.4,304.4 143.3,304.4 151.2,304.4 159.2,304.4 167.1,304.4 175.0,304.4 182.9,304.4 190.8,304.4 198.8,304.4 206.7,304.4 214.6,304.4 222.5,304.4 230.4,304.4 238.3,304.4 246.2,304.4 254.2,304.4 262.1,304.4 270.0,304.4 277.9,304.4 285.8,304.4 293.8,304.4 301.7,299.1 309.6,299.1 317.5,299.1 325.4,298.9 333.3,295.6 341.2,295.6 349.2,295.6 357.1,295.6 365.0,295.6 372.9,295.6 380.8,295.6 388.8,295.6 396.7,295.6 404.6,295.8 412.5,295.9 420.4,295.9 428.3,295.9 436.2,295.9 444.2,295.9 452.1,295.9 460.0,295.9 467.9,295.9 475.8,295.9 483.8,295.9 491.7,295.9 499.6,295.9 507.5,295.9 515.4,295.9 523.3,295.9 531.2,295.9 539.2,295.8 547.1,295.8 555.0,295.9 562.9,295.9 570.8,295.9 578.8,295.9 586.7,295.9 594.6,295.9 602.5,295.9 610.4,296.0 618.3,296.4 626.2,296.4 634.2,296.4 642.1,296.4 650.0,296.4 657.9,296.4 665.8,296.4 673.8,296.4 681.7,296.4 689.6,296.4 697.5,296.5 705.4,296.5 713.3,296.5 721.2,296.5 729.2,296.5 737.1,296.5 745.0,296.5 752.9,296.5 760.8,296.5 768.8,296.5 776.7,296.5 784.6,296.5 792.5,296.5 800.4,296.5 808.3,296.5 816.2,296.5 824.2,296.5 832.1,296.5 840.0,296.5" fill="none" stroke="#9754dd" stroke-width="2.5" stroke-linecap="round" stroke-linejoin="round" /><circle cx="80.0" cy="303.9" r="4" fill="#9754dd" /><circle cx="87.9" cy="304.2" r="4" fill="#9754dd" /><circle cx="95.8" cy="304.4" r="4" fill="#9754dd" /><circle cx="103.8" cy="304.4" r="4" fill="#9754dd" /><circle cx="111.7" cy="304.4" r="4" fill="#9754dd" /><circle cx="119.6" cy="304.4" r="4" fill="#9754dd" /><circle cx="127.5" cy="304.4" r="4" fill="#9754dd" /><circle cx="135.4" cy="304.4" r="4" fill="#9754dd" /><circle cx="143.3" cy="304.4" r="4" fill="#9754dd" /><circle cx="151.2" cy="304.4" r="4" fill="#9754dd" /><circle cx="159.2" cy="304.4" r="4" fill="#9754dd" /><circle cx="167.1" cy="304.4" r="4" fill="#9754dd" /><circle cx="175.0" cy="304.4" r="4" fill="#9754dd" /><circle cx="182.9" cy="304.4" r="4" fill="#9754dd" /><circle cx="190.8" cy="304.4" r="4" fill="#9754dd" /><circle cx="198.8" cy="304.4" r="4" fill="#9754dd" /><circle cx="206.7" cy="304.4" r="4" fill="#9754dd" /><circle cx="214.6" cy="304.4" r="4" fill="#9754dd" /><circle cx="222.5" cy="304.4" r="4" fill="#9754dd" /><circle cx="230.4" cy="304.4" r="4" fill="#9754dd" /><circle cx="238.3" cy="304.4" r="4" fill="#9754dd" /><circle cx="246.2" cy="304.4" r="4" fill="#9754dd" /><circle cx="254.2" cy="304.4" r="4" fill="#9754dd" /><circle cx="262.1" cy="304.4" r="4" fill="#9754dd" /><circle cx="270.0" cy="304.4" r="4" fill="#9754dd" /><circle cx="277.9" cy="304.4" r="4" fill="#9754dd" /><circle cx="285.8" cy="304.4" r="4" fill="#9754dd" /><circle cx="293.8" cy="304.4" r="4" fill="#9754dd" /><circle cx="301.7" cy="299.1" r="4" fill="#9754dd" /><circle cx="309.6" cy="299.1" r="4" fill="#9754dd" /><circle cx="317.5" cy="299.1" r="4" fill="#9754dd" /><circle cx="325.4" cy="298.9" r="4" fill="#9754dd" /><circle cx="333.3" cy="295.6" r="4" fill="#9754dd" /><circle cx="341.2" cy="295.6" r="4" fill="#9754dd" /><circle cx="349.2" cy="295.6" r="4" fill="#9754dd" /><circle cx="357.1" cy="295.6" r="4" fill="#9754dd" /><circle cx="365.0" cy="295.6" r="4" fill="#9754dd" /><circle cx="372.9" cy="295.6" r="4" fill="#9754dd" /><circle cx="380.8" cy="295.6" r="4" fill="#9754dd" /><circle cx="388.8" cy="295.6" r="4" fill="#9754dd" /><circle cx="396.7" cy="295.6" r="4" fill="#9754dd" /><circle cx="404.6" cy="295.8" r="4" fill="#9754dd" /><circle cx="412.5" cy="295.9" r="4" fill="#9754dd" /><circle cx="420.4" cy="295.9" r="4" fill="#9754dd" /><circle cx="428.3" cy="295.9" r="4" fill="#9754dd" /><circle cx="436.2" cy="295.9" r="4" fill="#9754dd" /><circle cx="444.2" cy="295.9" r="4" fill="#9754dd" /><circle cx="452.1" cy="295.9" r="4" fill="#9754dd" /><circle cx="460.0" cy="295.9" r="4" fill="#9754dd" /><circle cx="467.9" cy="295.9" r="4" fill="#9754dd" /><circle cx="475.8" cy="295.9" r="4" fill="#9754dd" /><circle cx="483.8" cy="295.9" r="4" fill="#9754dd" /><circle cx="491.7" cy="295.9" r="4" fill="#9754dd" /><circle cx="499.6" cy="295.9" r="4" fill="#9754dd" /><circle cx="507.5" cy="295.9" r="4" fill="#9754dd" /><circle cx="515.4" cy="295.9" r="4" fill="#9754dd" /><circle cx="523.3" cy="295.9" r="4" fill="#9754dd" /><circle cx="531.2" cy="295.9" r="4" fill="#9754dd" /><circle cx="539.2" cy="295.8" r="4" fill="#9754dd" /><circle cx="547.1" cy="295.8" r="4" fill="#9754dd" /><circle cx="555.0" cy="295.9" r="4" fill="#9754dd" /><circle cx="562.9" cy="295.9" r="4" fill="#9754dd" /><circle cx="570.8" cy="295.9" r="4" fill="#9754dd" /><circle cx="578.8" cy="295.9" r="4" fill="#9754dd" /><circle cx="586.7" cy="295.9" r="4" fill="#9754dd" /><circle cx="594.6" cy="295.9" r="4" fill="#9754dd" /><circle cx="602.5" cy="295.9" r="4" fill="#9754dd" /><circle cx="610.4" cy="296.0" r="4" fill="#9754dd" /><circle cx="618.3" cy="296.4" r="4" fill="#9754dd" /><circle cx="626.2" cy="296.4" r="4" fill="#9754dd" /><circle cx="634.2" cy="296.4" r="4" fill="#9754dd" /><circle cx="642.1" cy="296.4" r="4" fill="#9754dd" /><circle cx="650.0" cy="296.4" r="4" fill="#9754dd" /><circle cx="657.9" cy="296.4" r="4" fill="#9754dd" /><circle cx="665.8" cy="296.4" r="4" fill="#9754dd" /><circle cx="673.8" cy="296.4" r="4" fill="#9754dd" /><circle cx="681.7" cy="296.4" r="4" fill="#9754dd" /><circle cx="689.6" cy="296.4" r="4" fill="#9754dd" /><circle cx="697.5" cy="296.5" r="4" fill="#9754dd" /><circle cx="705.4" cy="296.5" r="4" fill="#9754dd" /><circle cx="713.3" cy="296.5" r="4" fill="#9754dd" /><circle cx="721.2" cy="296.5" r="4" fill="#9754dd" /><circle cx="729.2" cy="296.5" r="4" fill="#9754dd" /><circle cx="737.1" cy="296.5" r="4" fill="#9754dd" /><circle cx="745.0" cy="296.5" r="4" fill="#9754dd" /><circle cx="752.9" cy="296.5" r="4" fill="#9754dd" /><circle cx="760.8" cy="296.5" r="4" fill="#9754dd" /><circle cx="768.8" cy="296.5" r="4" fill="#9754dd" /><circle cx="776.7" cy="296.5" r="4" fill="#9754dd" /><circle cx="784.6" cy="296.5" r="4" fill="#9754dd" /><circle cx="792.5" cy="296.5" r="4" fill="#9754dd" /><circle cx="800.4" cy="296.5" r="4" fill="#9754dd" /><circle cx="808.3" cy="296.5" r="4" fill="#9754dd" /><circle cx="816.2" cy="296.5" r="4" fill="#9754dd" /><circle cx="824.2" cy="296.5" r="4" fill="#9754dd" /><circle cx="832.1" cy="296.5" r="4" fill="#9754dd" /><circle cx="840.0" cy="296.5" r="4" fill="#9754dd" />
  <rect x="80" y="339" width="10" height="10" rx="2" ry="2" fill="#19e5a1" /><text x="96" y="348" class="legend-label">Stars</text><rect x="250" y="339" width="10" height="10" rx="2" ry="2" fill="#6eb6ec" /><text x="266" y="348" class="legend-label">Followers</text><rect x="420" y="339" width="10" height="10" rx="2" ry="2" fill="#5938e2" /><text x="436" y="348" class="legend-label">Following</text><rect x="590" y="339" width="10" height="10" rx="2" ry="2" fill="#60e5e0" /><text x="606" y="348" class="legend-label">Contributions</text><rect x="80" y="357" width="10" height="10" rx="2" ry="2" fill="#567de1" /><text x="96" y="366" class="legend-label">Pull Requests</text><rect x="250" y="357" width="10" height="10" rx="2" ry="2" fill="#9754dd" /><text x="266" y="366" class="legend-label">Issues</text>
</svg>
