<svg width="900" height="402" viewBox="0 0 900 402" xmlns="http://www.w3.org/2000/svg">
  <defs>
    <linearGradient id="history-gradient" x1="0%" y1="0%" x2="100%" y2="100%">
      <stop offset="0%" style="stop-color:#58a6ff;stop-opacity:1" />
      <stop offset="100%" style="stop-color:#a371f7;stop-opacity:1" />
    </linearGradient>
    <clipPath id="history-rounded">
      <rect x="0" y="0" width="900" height="402" rx="8" ry="8" />
    </clipPath>
  </defs>
  <style>
    .title {
      font-family: 'Segoe UI', Ubuntu, 'Helvetica Neue', sans-serif;
      font-size: 22px;
      font-weight: 700;
      fill: #58a6ff;
    }
    .subtitle {
      font-family: 'Segoe UI', Ubuntu, 'Helvetica Neue', sans-serif;
      font-size: 12px;
      font-weight: 500;
      fill: #8b949e;
    }
    .axis-label {
      font-family: 'Segoe UI', Ubuntu, 'Helvetica Neue', sans-serif;
      font-size: 10px;
      fill: #8b949e;
    }
    .grid-line {
      stroke: #30363d;
      stroke-width: 1;
      opacity: 0.3;
    }
    .legend-label {
      font-family: 'Segoe UI', Ubuntu, 'Helvetica Neue', sans-serif;
      font-size: 11px;
      fill: #c9d1d9;
      dominant-baseline: middle;
    }
  </style>
  <rect clip-path="url(#history-rounded)" width="100%" height="100%" fill="#0d1117" stroke="#30363d" stroke-width="1" />
  <rect x="0" y="396" width="900" height="6" fill="url(#history-gradient)" clip-path="url(#history-rounded)" />
  <text x="24" y="34" class="title">Leonardo Klein Stats History</text>
  <text x="24" y="54" class="subtitle">Period: 2026-02-20 to 2026-03-10</text>
  <text x="72" y="320.0" text-anchor="end" dominant-baseline="central" class="axis-label">0</text><text x="72" y="270.0" text-anchor="end" dominant-baseline="central" class="axis-label">400</text><text x="72" y="220.0" text-anchor="end" dominant-baseline="central" class="axis-label">800</text><text x="72" y="170.0" text-anchor="end" dominant-baseline="central" class="axis-label">1.2k</text><text x="72" y="120.0" text-anchor="end" dominant-baseline="central" class="axis-label">1.6k</text><text x="72" y="70.0" text-anchor="end" dominant-baseline="central" class="axis-label">2.0k</text>
  <text x="80.0" y="336" text-anchor="middle" class="axis-label">02-20</text><text x="155.2" y="336" text-anchor="middle" class="axis-label">02-22</text><text x="230.3" y="336" text-anchor="middle" class="axis-label">02-24</text><text x="305.5" y="336" text-anchor="middle" class="axis-label">02-25</text><text x="380.7" y="336" text-anchor="middle" class="axis-label">02-27</text><text x="455.8" y="336" text-anchor="middle" class="axis-label">03-01</text><text x="531.0" y="336" text-anchor="middle" class="axis-label">03-03</text><text x="606.2" y="336" text-anchor="middle" class="axis-label">03-05</text><text x="681.3" y="336" text-anchor="middle" class="axis-label">03-06</text><text x="756.5" y="336" text-anchor="middle" class="axis-label">03-08</text><text x="831.6" y="336" text-anchor="middle" class="axis-label">03-10</text><text x="840.0" y="336" text-anchor="middle" class="axis-label">03-10</text>
  <line x1="80" y1="320.0" x2="840" y2="320.0" class="grid-line" /><line x1="80" y1="270.0" x2="840" y2="270.0" class="grid-line" /><line x1="80" y1="220.0" x2="840" y2="220.0" class="grid-line" /><line x1="80" y1="170.0" x2="840" y2="170.0" class="grid-line" /><line x1="80" y1="120.0" x2="840" y2="120.0" class="grid-line" /><line x1="80" y1="70.0" x2="840" y2="70.0" class="grid-line" />
  <polyline points="80.0,317.0 88.4,317.0 96.7,317.0 105.1,317.0 113.4,317.0 121.8,317.0 130.1,317.0 138.5,317.0 146.8,317.0 155.2,317.0 163.5,317.0 171.9,317.0 180.2,317.0 188.6,317.0 196.9,317.0 205.3,317.0 213.6,317.0 222.0,317.0 230.3,317.0 238.7,317.0 247.0,317.0 255.4,317.0 263.7,317.0 272.1,317.0 280.4,317.0 288.8,317.0 297.1,317.0 305.5,317.0 313.8,317.0 322.2,317.0 330.5,317.0 338.9,317.0 347.3,317.0 355.6,317.0 364.0,317.0 372.3,317.0 380.7,317.0 389.0,317.0 397.4,317.0 405.7,317.0 414.1,317.0 422.4,317.0 430.8,317.0 439.1,317.0 447.5,317.0 455.8,317.0 464.2,317.0 472.5,317.0 480.9,317.0 489.2,317.0 497.6,317.0 505.9,317.0 514.3,317.0 522.6,317.0 531.0,317.0 539.3,317.0 547.7,317.0 556.0,317.0 564.4,317.0 572.7,317.0 581.1,317.0 589.5,317.0 597.8,317.0 606.2,317.0 614.5,317.0 622.9,317.0 631.2,317.0 639.6,317.0 647.9,317.0 656.3,317.0 664.6,317.0 673.0,317.0 681.3,317.0 689.7,317.0 698.0,317.0 706.4,317.0 714.7,317.0 723.1,317.0 731.4,317.0 739.8,317.0 748.1,317.0 756.5,317.0 764.8,317.0 773.2,317.0 781.5,317.0 789.9,317.0 798.2,317.0 806.6,317.0 814.9,317.0 823.3,317.0 831.6,317.0 840.0,317.0" fill="none" stroke="#19e5a1" stroke-width="2.5" stroke-linecap="round" stroke-linejoin="round" /><circle cx="80.0" cy="317.0" r="4" fill="#19e5a1" /><circle cx="88.4" cy="317.0" r="4" fill="#19e5a1" /><circle cx="96.7" cy="317.0" r="4" fill="#19e5a1" /><circle cx="105.1" cy="317.0" r="4" fill="#19e5a1" /><circle cx="113.4" cy="317.0" r="4" fill="#19e5a1" /><circle cx="121.8" cy="317.0" r="4" fill="#19e5a1" /><circle cx="130.1" cy="317.0" r="4" fill="#19e5a1" /><circle cx="138.5" cy="317.0" r="4" fill="#19e5a1" /><circle cx="146.8" cy="317.0" r="4" fill="#19e5a1" /><circle cx="155.2" cy="317.0" r="4" fill="#19e5a1" /><circle cx="163.5" cy="317.0" r="4" fill="#19e5a1" /><circle cx="171.9" cy="317.0" r="4" fill="#19e5a1" /><circle cx="180.2" cy="317.0" r="4" fill="#19e5a1" /><circle cx="188.6" cy="317.0" r="4" fill="#19e5a1" /><circle cx="196.9" cy="317.0" r="4" fill="#19e5a1" /><circle cx="205.3" cy="317.0" r="4" fill="#19e5a1" /><circle cx="213.6" cy="317.0" r="4" fill="#19e5a1" /><circle cx="222.0" cy="317.0" r="4" fill="#19e5a1" /><circle cx="230.3" cy="317.0" r="4" fill="#19e5a1" /><circle cx="238.7" cy="317.0" r="4" fill="#19e5a1" /><circle cx="247.0" cy="317.0" r="4" fill="#19e5a1" /><circle cx="255.4" cy="317.0" r="4" fill="#19e5a1" /><circle cx="263.7" cy="317.0" r="4" fill="#19e5a1" /><circle cx="272.1" cy="317.0" r="4" fill="#19e5a1" /><circle cx="280.4" cy="317.0" r="4" fill="#19e5a1" /><circle cx="288.8" cy="317.0" r="4" fill="#19e5a1" /><circle cx="297.1" cy="317.0" r="4" fill="#19e5a1" /><circle cx="305.5" cy="317.0" r="4" fill="#19e5a1" /><circle cx="313.8" cy="317.0" r="4" fill="#19e5a1" /><circle cx="322.2" cy="317.0" r="4" fill="#19e5a1" /><circle cx="330.5" cy="317.0" r="4" fill="#19e5a1" /><circle cx="338.9" cy="317.0" r="4" fill="#19e5a1" /><circle cx="347.3" cy="317.0" r="4" fill="#19e5a1" /><circle cx="355.6" cy="317.0" r="4" fill="#19e5a1" /><circle cx="364.0" cy="317.0" r="4" fill="#19e5a1" /><circle cx="372.3" cy="317.0" r="4" fill="#19e5a1" /><circle cx="380.7" cy="317.0" r="4" fill="#19e5a1" /><circle cx="389.0" cy="317.0" r="4" fill="#19e5a1" /><circle cx="397.4" cy="317.0" r="4" fill="#19e5a1" /><circle cx="405.7" cy="317.0" r="4" fill="#19e5a1" /><circle cx="414.1" cy="317.0" r="4" fill="#19e5a1" /><circle cx="422.4" cy="317.0" r="4" fill="#19e5a1" /><circle cx="430.8" cy="317.0" r="4" fill="#19e5a1" /><circle cx="439.1" cy="317.0" r="4" fill="#19e5a1" /><circle cx="447.5" cy="317.0" r="4" fill="#19e5a1" /><circle cx="455.8" cy="317.0" r="4" fill="#19e5a1" /><circle cx="464.2" cy="317.0" r="4" fill="#19e5a1" /><circle cx="472.5" cy="317.0" r="4" fill="#19e5a1" /><circle cx="480.9" cy="317.0" r="4" fill="#19e5a1" /><circle cx="489.2" cy="317.0" r="4" fill="#19e5a1" /><circle cx="497.6" cy="317.0" r="4" fill="#19e5a1" /><circle cx="505.9" cy="317.0" r="4" fill="#19e5a1" /><circle cx="514.3" cy="317.0" r="4" fill="#19e5a1" /><circle cx="522.6" cy="317.0" r="4" fill="#19e5a1" /><circle cx="531.0" cy="317.0" r="4" fill="#19e5a1" /><circle cx="539.3" cy="317.0" r="4" fill="#19e5a1" /><circle cx="547.7" cy="317.0" r="4" fill="#19e5a1" /><circle cx="556.0" cy="317.0" r="4" fill="#19e5a1" /><circle cx="564.4" cy="317.0" r="4" fill="#19e5a1" /><circle cx="572.7" cy="317.0" r="4" fill="#19e5a1" /><circle cx="581.1" cy="317.0" r="4" fill="#19e5a1" /><circle cx="589.5" cy="317.0" r="4" fill="#19e5a1" /><circle cx="597.8" cy="317.0" r="4" fill="#19e5a1" /><circle cx="606.2" cy="317.0" r="4" fill="#19e5a1" /><circle cx="614.5" cy="317.0" r="4" fill="#19e5a1" /><circle cx="622.9" cy="317.0" r="4" fill="#19e5a1" /><circle cx="631.2" cy="317.0" r="4" fill="#19e5a1" /><circle cx="639.6" cy="317.0" r="4" fill="#19e5a1" /><circle cx="647.9" cy="317.0" r="4" fill="#19e5a1" /><circle cx="656.3" cy="317.0" r="4" fill="#19e5a1" /><circle cx="664.6" cy="317.0" r="4" fill="#19e5a1" /><circle cx="673.0" cy="317.0" r="4" fill="#19e5a1" /><circle cx="681.3" cy="317.0" r="4" fill="#19e5a1" /><circle cx="689.7" cy="317.0" r="4" fill="#19e5a1" /><circle cx="698.0" cy="317.0" r="4" fill="#19e5a1" /><circle cx="706.4" cy="317.0" r="4" fill="#19e5a1" /><circle cx="714.7" cy="317.0" r="4" fill="#19e5a1" /><circle cx="723.1" cy="317.0" r="4" fill="#19e5a1" /><circle cx="731.4" cy="317.0" r="4" fill="#19e5a1" /><circle cx="739.8" cy="317.0" r="4" fill="#19e5a1" /><circle cx="748.1" cy="317.0" r="4" fill="#19e5a1" /><circle cx="756.5" cy="317.0" r="4" fill="#19e5a1" /><circle cx="764.8" cy="317.0" r="4" fill="#19e5a1" /><circle cx="773.2" cy="317.0" r="4" fill="#19e5a1" /><circle cx="781.5" cy="317.0" r="4" fill="#19e5a1" /><circle cx="789.9" cy="317.0" r="4" fill="#19e5a1" /><circle cx="798.2" cy="317.0" r="4" fill="#19e5a1" /><circle cx="806.6" cy="317.0" r="4" fill="#19e5a1" /><circle cx="814.9" cy="317.0" r="4" fill="#19e5a1" /><circle cx="823.3" cy="317.0" r="4" fill="#19e5a1" /><circle cx="831.6" cy="317.0" r="4" fill="#19e5a1" /><circle cx="840.0" cy="317.0" r="4" fill="#19e5a1" /><polyline points="80.0,313.2 88.4,312.2 96.7,312.1 105.1,312.4 113.4,312.4 121.8,312.4 130.1,312.1 138.5,312.0 146.8,311.9 155.2,311.9 163.5,311.8 171.9,311.8 180.2,311.5 188.6,311.5 196.9,311.5 205.3,311.2 213.6,311.2 222.0,311.1 230.3,311.1 238.7,311.1 247.0,310.9 255.4,311.0 263.7,310.8 272.1,310.8 280.4,310.8 288.8,310.8 297.1,310.4 305.5,310.2 313.8,310.4 322.2,310.4 330.5,310.4 338.9,310.4 347.3,310.4 355.6,310.2 364.0,310.2 372.3,310.1 380.7,310.1 389.0,309.8 397.4,309.6 405.7,309.6 414.1,309.6 422.4,309.6 430.8,309.5 439.1,309.4 447.5,309.4 455.8,309.4 464.2,309.4 472.5,309.2 480.9,309.2 489.2,309.2 497.6,309.4 505.9,309.4 514.3,309.5 522.6,309.2 531.0,309.2 539.3,309.4 547.7,309.2 556.0,309.2 564.4,309.2 572.7,309.2 581.1,309.2 589.5,309.1 597.8,309.1 606.2,309.1 614.5,309.1 622.9,309.0 631.2,309.0 639.6,308.9 647.9,308.9 656.3,308.9 664.6,308.6 673.0,308.6 681.3,308.6 689.7,308.6 698.0,308.6 706.4,308.6 714.7,308.6 723.1,308.6 731.4,308.6 739.8,308.6 748.1,308.6 756.5,308.6 764.8,308.6 773.2,307.8 781.5,307.8 789.9,307.6 798.2,307.6 806.6,307.6 814.9,307.5 823.3,307.5 831.6,307.6 840.0,308.5" fill="none" stroke="#6eb6ec" stroke-width="2.5" stroke-linecap="round" stroke-linejoin="round" /><circle cx="80.0" cy="313.2" r="4" fill="#6eb6ec" /><circle cx="88.4" cy="312.2" r="4" fill="#6eb6ec" /><circle cx="96.7" cy="312.1" r="4" fill="#6eb6ec" /><circle cx="105.1" cy="312.4" r="4" fill="#6eb6ec" /><circle cx="113.4" cy="312.4" r="4" fill="#6eb6ec" /><circle cx="121.8" cy="312.4" r="4" fill="#6eb6ec" /><circle cx="130.1" cy="312.1" r="4" fill="#6eb6ec" /><circle cx="138.5" cy="312.0" r="4" fill="#6eb6ec" /><circle cx="146.8" cy="311.9" r="4" fill="#6eb6ec" /><circle cx="155.2" cy="311.9" r="4" fill="#6eb6ec" /><circle cx="163.5" cy="311.8" r="4" fill="#6eb6ec" /><circle cx="171.9" cy="311.8" r="4" fill="#6eb6ec" /><circle cx="180.2" cy="311.5" r="4" fill="#6eb6ec" /><circle cx="188.6" cy="311.5" r="4" fill="#6eb6ec" /><circle cx="196.9" cy="311.5" r="4" fill="#6eb6ec" /><circle cx="205.3" cy="311.2" r="4" fill="#6eb6ec" /><circle cx="213.6" cy="311.2" r="4" fill="#6eb6ec" /><circle cx="222.0" cy="311.1" r="4" fill="#6eb6ec" /><circle cx="230.3" cy="311.1" r="4" fill="#6eb6ec" /><circle cx="238.7" cy="311.1" r="4" fill="#6eb6ec" /><circle cx="247.0" cy="310.9" r="4" fill="#6eb6ec" /><circle cx="255.4" cy="311.0" r="4" fill="#6eb6ec" /><circle cx="263.7" cy="310.8" r="4" fill="#6eb6ec" /><circle cx="272.1" cy="310.8" r="4" fill="#6eb6ec" /><circle cx="280.4" cy="310.8" r="4" fill="#6eb6ec" /><circle cx="288.8" cy="310.8" r="4" fill="#6eb6ec" /><circle cx="297.1" cy="310.4" r="4" fill="#6eb6ec" /><circle cx="305.5" cy="310.2" r="4" fill="#6eb6ec" /><circle cx="313.8" cy="310.4" r="4" fill="#6eb6ec" /><circle cx="322.2" cy="310.4" r="4" fill="#6eb6ec" /><circle cx="330.5" cy="310.4" r="4" fill="#6eb6ec" /><circle cx="338.9" cy="310.4" r="4" fill="#6eb6ec" /><circle cx="347.3" cy="310.4" r="4" fill="#6eb6ec" /><circle cx="355.6" cy="310.2" r="4" fill="#6eb6ec" /><circle cx="364.0" cy="310.2" r="4" fill="#6eb6ec" /><circle cx="372.3" cy="310.1" r="4" fill="#6eb6ec" /><circle cx="380.7" cy="310.1" r="4" fill="#6eb6ec" /><circle cx="389.0" cy="309.8" r="4" fill="#6eb6ec" /><circle cx="397.4" cy="309.6" r="4" fill="#6eb6ec" /><circle cx="405.7" cy="309.6" r="4" fill="#6eb6ec" /><circle cx="414.1" cy="309.6" r="4" fill="#6eb6ec" /><circle cx="422.4" cy="309.6" r="4" fill="#6eb6ec" /><circle cx="430.8" cy="309.5" r="4" fill="#6eb6ec" /><circle cx="439.1" cy="309.4" r="4" fill="#6eb6ec" /><circle cx="447.5" cy="309.4" r="4" fill="#6eb6ec" /><circle cx="455.8" cy="309.4" r="4" fill="#6eb6ec" /><circle cx="464.2" cy="309.4" r="4" fill="#6eb6ec" /><circle cx="472.5" cy="309.2" r="4" fill="#6eb6ec" /><circle cx="480.9" cy="309.2" r="4" fill="#6eb6ec" /><circle cx="489.2" cy="309.2" r="4" fill="#6eb6ec" /><circle cx="497.6" cy="309.4" r="4" fill="#6eb6ec" /><circle cx="505.9" cy="309.4" r="4" fill="#6eb6ec" /><circle cx="514.3" cy="309.5" r="4" fill="#6eb6ec" /><circle cx="522.6" cy="309.2" r="4" fill="#6eb6ec" /><circle cx="531.0" cy="309.2" r="4" fill="#6eb6ec" /><circle cx="539.3" cy="309.4" r="4" fill="#6eb6ec" /><circle cx="547.7" cy="309.2" r="4" fill="#6eb6ec" /><circle cx="556.0" cy="309.2" r="4" fill="#6eb6ec" /><circle cx="564.4" cy="309.2" r="4" fill="#6eb6ec" /><circle cx="572.7" cy="309.2" r="4" fill="#6eb6ec" /><circle cx="581.1" cy="309.2" r="4" fill="#6eb6ec" /><circle cx="589.5" cy="309.1" r="4" fill="#6eb6ec" /><circle cx="597.8" cy="309.1" r="4" fill="#6eb6ec" /><circle cx="606.2" cy="309.1" r="4" fill="#6eb6ec" /><circle cx="614.5" cy="309.1" r="4" fill="#6eb6ec" /><circle cx="622.9" cy="309.0" r="4" fill="#6eb6ec" /><circle cx="631.2" cy="309.0" r="4" fill="#6eb6ec" /><circle cx="639.6" cy="308.9" r="4" fill="#6eb6ec" /><circle cx="647.9" cy="308.9" r="4" fill="#6eb6ec" /><circle cx="656.3" cy="308.9" r="4" fill="#6eb6ec" /><circle cx="664.6" cy="308.6" r="4" fill="#6eb6ec" /><circle cx="673.0" cy="308.6" r="4" fill="#6eb6ec" /><circle cx="681.3" cy="308.6" r="4" fill="#6eb6ec" /><circle cx="689.7" cy="308.6" r="4" fill="#6eb6ec" /><circle cx="698.0" cy="308.6" r="4" fill="#6eb6ec" /><circle cx="706.4" cy="308.6" r="4" fill="#6eb6ec" /><circle cx="714.7" cy="308.6" r="4" fill="#6eb6ec" /><circle cx="723.1" cy="308.6" r="4" fill="#6eb6ec" /><circle cx="731.4" cy="308.6" r="4" fill="#6eb6ec" /><circle cx="739.8" cy="308.6" r="4" fill="#6eb6ec" /><circle cx="748.1" cy="308.6" r="4" fill="#6eb6ec" /><circle cx="756.5" cy="308.6" r="4" fill="#6eb6ec" /><circle cx="764.8" cy="308.6" r="4" fill="#6eb6ec" /><circle cx="773.2" cy="307.8" r="4" fill="#6eb6ec" /><circle cx="781.5" cy="307.8" r="4" fill="#6eb6ec" /><circle cx="789.9" cy="307.6" r="4" fill="#6eb6ec" /><circle cx="798.2" cy="307.6" r="4" fill="#6eb6ec" /><circle cx="806.6" cy="307.6" r="4" fill="#6eb6ec" /><circle cx="814.9" cy="307.5" r="4" fill="#6eb6ec" /><circle cx="823.3" cy="307.5" r="4" fill="#6eb6ec" /><circle cx="831.6" cy="307.6" r="4" fill="#6eb6ec" /><circle cx="840.0" cy="308.5" r="4" fill="#6eb6ec" /><polyline points="80.0,305.8 88.4,305.8 96.7,305.8 105.1,305.8 113.4,305.8 121.8,305.8 130.1,305.8 138.5,305.8 146.8,305.8 155.2,305.8 163.5,304.9 171.9,304.9 180.2,304.9 188.6,304.9 196.9,304.9 205.3,304.9 213.6,304.9 222.0,304.9 230.3,304.9 238.7,304.9 247.0,304.9 255.4,304.9 263.7,304.9 272.1,304.9 280.4,304.9 288.8,304.9 297.1,304.9 305.5,304.9 313.8,304.9 322.2,304.9 330.5,304.9 338.9,304.9 347.3,304.9 355.6,304.9 364.0,304.9 372.3,304.9 380.7,304.9 389.0,303.6 397.4,303.6 405.7,303.6 414.1,303.6 422.4,303.6 430.8,303.6 439.1,303.6 447.5,303.6 455.8,303.6 464.2,303.6 472.5,303.6 480.9,303.6 489.2,303.6 497.6,303.6 505.9,302.9 514.3,302.9 522.6,298.0 531.0,298.0 539.3,298.0 547.7,298.0 556.0,298.0 564.4,298.0 572.7,298.0 581.1,298.0 589.5,298.0 597.8,298.0 606.2,298.0 614.5,298.0 622.9,298.0 631.2,298.0 639.6,297.8 647.9,297.8 656.3,297.8 664.6,297.8 673.0,297.8 681.3,297.8 689.7,297.8 698.0,297.8 706.4,297.8 714.7,297.8 723.1,297.8 731.4,297.8 739.8,297.8 748.1,297.8 756.5,297.8 764.8,297.8 773.2,297.8 781.5,297.8 789.9,297.8 798.2,297.6 806.6,297.8 814.9,297.8 823.3,297.8 831.6,297.9 840.0,297.9" fill="none" stroke="#5938e2" stroke-width="2.5" stroke-linecap="round" stroke-linejoin="round" /><circle cx="80.0" cy="305.8" r="4" fill="#5938e2" /><circle cx="88.4" cy="305.8" r="4" fill="#5938e2" /><circle cx="96.7" cy="305.8" r="4" fill="#5938e2" /><circle cx="105.1" cy="305.8" r="4" fill="#5938e2" /><circle cx="113.4" cy="305.8" r="4" fill="#5938e2" /><circle cx="121.8" cy="305.8" r="4" fill="#5938e2" /><circle cx="130.1" cy="305.8" r="4" fill="#5938e2" /><circle cx="138.5" cy="305.8" r="4" fill="#5938e2" /><circle cx="146.8" cy="305.8" r="4" fill="#5938e2" /><circle cx="155.2" cy="305.8" r="4" fill="#5938e2" /><circle cx="163.5" cy="304.9" r="4" fill="#5938e2" /><circle cx="171.9" cy="304.9" r="4" fill="#5938e2" /><circle cx="180.2" cy="304.9" r="4" fill="#5938e2" /><circle cx="188.6" cy="304.9" r="4" fill="#5938e2" /><circle cx="196.9" cy="304.9" r="4" fill="#5938e2" /><circle cx="205.3" cy="304.9" r="4" fill="#5938e2" /><circle cx="213.6" cy="304.9" r="4" fill="#5938e2" /><circle cx="222.0" cy="304.9" r="4" fill="#5938e2" /><circle cx="230.3" cy="304.9" r="4" fill="#5938e2" /><circle cx="238.7" cy="304.9" r="4" fill="#5938e2" /><circle cx="247.0" cy="304.9" r="4" fill="#5938e2" /><circle cx="255.4" cy="304.9" r="4" fill="#5938e2" /><circle cx="263.7" cy="304.9" r="4" fill="#5938e2" /><circle cx="272.1" cy="304.9" r="4" fill="#5938e2" /><circle cx="280.4" cy="304.9" r="4" fill="#5938e2" /><circle cx="288.8" cy="304.9" r="4" fill="#5938e2" /><circle cx="297.1" cy="304.9" r="4" fill="#5938e2" /><circle cx="305.5" cy="304.9" r="4" fill="#5938e2" /><circle cx="313.8" cy="304.9" r="4" fill="#5938e2" /><circle cx="322.2" cy="304.9" r="4" fill="#5938e2" /><circle cx="330.5" cy="304.9" r="4" fill="#5938e2" /><circle cx="338.9" cy="304.9" r="4" fill="#5938e2" /><circle cx="347.3" cy="304.9" r="4" fill="#5938e2" /><circle cx="355.6" cy="304.9" r="4" fill="#5938e2" /><circle cx="364.0" cy="304.9" r="4" fill="#5938e2" /><circle cx="372.3" cy="304.9" r="4" fill="#5938e2" /><circle cx="380.7" cy="304.9" r="4" fill="#5938e2" /><circle cx="389.0" cy="303.6" r="4" fill="#5938e2" /><circle cx="397.4" cy="303.6" r="4" fill="#5938e2" /><circle cx="405.7" cy="303.6" r="4" fill="#5938e2" /><circle cx="414.1" cy="303.6" r="4" fill="#5938e2" /><circle cx="422.4" cy="303.6" r="4" fill="#5938e2" /><circle cx="430.8" cy="303.6" r="4" fill="#5938e2" /><circle cx="439.1" cy="303.6" r="4" fill="#5938e2" /><circle cx="447.5" cy="303.6" r="4" fill="#5938e2" /><circle cx="455.8" cy="303.6" r="4" fill="#5938e2" /><circle cx="464.2" cy="303.6" r="4" fill="#5938e2" /><circle cx="472.5" cy="303.6" r="4" fill="#5938e2" /><circle cx="480.9" cy="303.6" r="4" fill="#5938e2" /><circle cx="489.2" cy="303.6" r="4" fill="#5938e2" /><circle cx="497.6" cy="303.6" r="4" fill="#5938e2" /><circle cx="505.9" cy="302.9" r="4" fill="#5938e2" /><circle cx="514.3" cy="302.9" r="4" fill="#5938e2" /><circle cx="522.6" cy="298.0" r="4" fill="#5938e2" /><circle cx="531.0" cy="298.0" r="4" fill="#5938e2" /><circle cx="539.3" cy="298.0" r="4" fill="#5938e2" /><circle cx="547.7" cy="298.0" r="4" fill="#5938e2" /><circle cx="556.0" cy="298.0" r="4" fill="#5938e2" /><circle cx="564.4" cy="298.0" r="4" fill="#5938e2" /><circle cx="572.7" cy="298.0" r="4" fill="#5938e2" /><circle cx="581.1" cy="298.0" r="4" fill="#5938e2" /><circle cx="589.5" cy="298.0" r="4" fill="#5938e2" /><circle cx="597.8" cy="298.0" r="4" fill="#5938e2" /><circle cx="606.2" cy="298.0" r="4" fill="#5938e2" /><circle cx="614.5" cy="298.0" r="4" fill="#5938e2" /><circle cx="622.9" cy="298.0" r="4" fill="#5938e2" /><circle cx="631.2" cy="298.0" r="4" fill="#5938e2" /><circle cx="639.6" cy="297.8" r="4" fill="#5938e2" /><circle cx="647.9" cy="297.8" r="4" fill="#5938e2" /><circle cx="656.3" cy="297.8" r="4" fill="#5938e2" /><circle cx="664.6" cy="297.8" r="4" fill="#5938e2" /><circle cx="673.0" cy="297.8" r="4" fill="#5938e2" /><circle cx="681.3" cy="297.8" r="4" fill="#5938e2" /><circle cx="689.7" cy="297.8" r="4" fill="#5938e2" /><circle cx="698.0" cy="297.8" r="4" fill="#5938e2" /><circle cx="706.4" cy="297.8" r="4" fill="#5938e2" /><circle cx="714.7" cy="297.8" r="4" fill="#5938e2" /><circle cx="723.1" cy="297.8" r="4" fill="#5938e2" /><circle cx="731.4" cy="297.8" r="4" fill="#5938e2" /><circle cx="739.8" cy="297.8" r="4" fill="#5938e2" /><circle cx="748.1" cy="297.8" r="4" fill="#5938e2" /><circle cx="756.5" cy="297.8" r="4" fill="#5938e2" /><circle cx="764.8" cy="297.8" r="4" fill="#5938e2" /><circle cx="773.2" cy="297.8" r="4" fill="#5938e2" /><circle cx="781.5" cy="297.8" r="4" fill="#5938e2" /><circle cx="789.9" cy="297.8" r="4" fill="#5938e2" /><circle cx="798.2" cy="297.6" r="4" fill="#5938e2" /><circle cx="806.6" cy="297.8" r="4" fill="#5938e2" /><circle cx="814.9" cy="297.8" r="4" fill="#5938e2" /><circle cx="823.3" cy="297.8" r="4" fill="#5938e2" /><circle cx="831.6" cy="297.9" r="4" fill="#5938e2" /><circle cx="840.0" cy="297.9" r="4" fill="#5938e2" /><polyline points="80.0,144.6 88.4,140.1 96.7,139.9 105.1,139.8 113.4,139.8 121.8,139.6 130.1,139.6 138.5,139.6 146.8,139.6 155.2,139.6 163.5,138.4 171.9,138.4 180.2,138.4 188.6,138.4 196.9,138.4 205.3,138.4 213.6,138.4 222.0,137.4 230.3,137.4 238.7,137.4 247.0,137.4 255.4,137.4 263.7,137.4 272.1,137.4 280.4,137.4 288.8,137.4 297.1,137.4 305.5,137.4 313.8,131.2 322.2,131.2 330.5,130.8 338.9,130.4 347.3,126.9 355.6,126.9 364.0,126.9 372.3,126.9 380.7,126.9 389.0,126.9 397.4,126.9 405.7,126.9 414.1,126.9 422.4,126.8 430.8,122.1 439.1,120.4 447.5,120.4 455.8,120.4 464.2,120.4 472.5,120.4 480.9,119.4 489.2,119.4 497.6,119.4 505.9,119.4 514.3,119.1 522.6,118.8 531.0,118.8 539.3,117.8 547.7,117.8 556.0,117.8 564.4,115.8 572.7,115.8 581.1,115.0 589.5,115.0 597.8,115.0 606.2,115.0 614.5,115.0 622.9,115.0 631.2,115.0 639.6,113.9 647.9,111.8 656.3,111.8 664.6,111.8 673.0,111.8 681.3,111.8 689.7,111.8 698.0,111.8 706.4,111.8 714.7,111.8 723.1,111.8 731.4,110.6 739.8,110.6 748.1,110.6 756.5,110.6 764.8,110.6 773.2,109.4 781.5,109.4 789.9,109.4 798.2,109.4 806.6,109.2 814.9,109.2 823.3,109.2 831.6,109.2 840.0,109.2" fill="none" stroke="#60e5e0" stroke-width="2.5" stroke-linecap="round" stroke-linejoin="round" /><circle cx="80.0" cy="144.6" r="4" fill="#60e5e0" /><circle cx="88.4" cy="140.1" r="4" fill="#60e5e0" /><circle cx="96.7" cy="139.9" r="4" fill="#60e5e0" /><circle cx="105.1" cy="139.8" r="4" fill="#60e5e0" /><circle cx="113.4" cy="139.8" r="4" fill="#60e5e0" /><circle cx="121.8" cy="139.6" r="4" fill="#60e5e0" /><circle cx="130.1" cy="139.6" r="4" fill="#60e5e0" /><circle cx="138.5" cy="139.6" r="4" fill="#60e5e0" /><circle cx="146.8" cy="139.6" r="4" fill="#60e5e0" /><circle cx="155.2" cy="139.6" r="4" fill="#60e5e0" /><circle cx="163.5" cy="138.4" r="4" fill="#60e5e0" /><circle cx="171.9" cy="138.4" r="4" fill="#60e5e0" /><circle cx="180.2" cy="138.4" r="4" fill="#60e5e0" /><circle cx="188.6" cy="138.4" r="4" fill="#60e5e0" /><circle cx="196.9" cy="138.4" r="4" fill="#60e5e0" /><circle cx="205.3" cy="138.4" r="4" fill="#60e5e0" /><circle cx="213.6" cy="138.4" r="4" fill="#60e5e0" /><circle cx="222.0" cy="137.4" r="4" fill="#60e5e0" /><circle cx="230.3" cy="137.4" r="4" fill="#60e5e0" /><circle cx="238.7" cy="137.4" r="4" fill="#60e5e0" /><circle cx="247.0" cy="137.4" r="4" fill="#60e5e0" /><circle cx="255.4" cy="137.4" r="4" fill="#60e5e0" /><circle cx="263.7" cy="137.4" r="4" fill="#60e5e0" /><circle cx="272.1" cy="137.4" r="4" fill="#60e5e0" /><circle cx="280.4" cy="137.4" r="4" fill="#60e5e0" /><circle cx="288.8" cy="137.4" r="4" fill="#60e5e0" /><circle cx="297.1" cy="137.4" r="4" fill="#60e5e0" /><circle cx="305.5" cy="137.4" r="4" fill="#60e5e0" /><circle cx="313.8" cy="131.2" r="4" fill="#60e5e0" /><circle cx="322.2" cy="131.2" r="4" fill="#60e5e0" /><circle cx="330.5" cy="130.8" r="4" fill="#60e5e0" /><circle cx="338.9" cy="130.4" r="4" fill="#60e5e0" /><circle cx="347.3" cy="126.9" r="4" fill="#60e5e0" /><circle cx="355.6" cy="126.9" r="4" fill="#60e5e0" /><circle cx="364.0" cy="126.9" r="4" fill="#60e5e0" /><circle cx="372.3" cy="126.9" r="4" fill="#60e5e0" /><circle cx="380.7" cy="126.9" r="4" fill="#60e5e0" /><circle cx="389.0" cy="126.9" r="4" fill="#60e5e0" /><circle cx="397.4" cy="126.9" r="4" fill="#60e5e0" /><circle cx="405.7" cy="126.9" r="4" fill="#60e5e0" /><circle cx="414.1" cy="126.9" r="4" fill="#60e5e0" /><circle cx="422.4" cy="126.8" r="4" fill="#60e5e0" /><circle cx="430.8" cy="122.1" r="4" fill="#60e5e0" /><circle cx="439.1" cy="120.4" r="4" fill="#60e5e0" /><circle cx="447.5" cy="120.4" r="4" fill="#60e5e0" /><circle cx="455.8" cy="120.4" r="4" fill="#60e5e0" /><circle cx="464.2" cy="120.4" r="4" fill="#60e5e0" /><circle cx="472.5" cy="120.4" r="4" fill="#60e5e0" /><circle cx="480.9" cy="119.4" r="4" fill="#60e5e0" /><circle cx="489.2" cy="119.4" r="4" fill="#60e5e0" /><circle cx="497.6" cy="119.4" r="4" fill="#60e5e0" /><circle cx="505.9" cy="119.4" r="4" fill="#60e5e0" /><circle cx="514.3" cy="119.1" r="4" fill="#60e5e0" /><circle cx="522.6" cy="118.8" r="4" fill="#60e5e0" /><circle cx="531.0" cy="118.8" r="4" fill="#60e5e0" /><circle cx="539.3" cy="117.8" r="4" fill="#60e5e0" /><circle cx="547.7" cy="117.8" r="4" fill="#60e5e0" /><circle cx="556.0" cy="117.8" r="4" fill="#60e5e0" /><circle cx="564.4" cy="115.8" r="4" fill="#60e5e0" /><circle cx="572.7" cy="115.8" r="4" fill="#60e5e0" /><circle cx="581.1" cy="115.0" r="4" fill="#60e5e0" /><circle cx="589.5" cy="115.0" r="4" fill="#60e5e0" /><circle cx="597.8" cy="115.0" r="4" fill="#60e5e0" /><circle cx="606.2" cy="115.0" r="4" fill="#60e5e0" /><circle cx="614.5" cy="115.0" r="4" fill="#60e5e0" /><circle cx="622.9" cy="115.0" r="4" fill="#60e5e0" /><circle cx="631.2" cy="115.0" r="4" fill="#60e5e0" /><circle cx="639.6" cy="113.9" r="4" fill="#60e5e0" /><circle cx="647.9" cy="111.8" r="4" fill="#60e5e0" /><circle cx="656.3" cy="111.8" r="4" fill="#60e5e0" /><circle cx="664.6" cy="111.8" r="4" fill="#60e5e0" /><circle cx="673.0" cy="111.8" r="4" fill="#60e5e0" /><circle cx="681.3" cy="111.8" r="4" fill="#60e5e0" /><circle cx="689.7" cy="111.8" r="4" fill="#60e5e0" /><circle cx="698.0" cy="111.8" r="4" fill="#60e5e0" /><circle cx="706.4" cy="111.8" r="4" fill="#60e5e0" /><circle cx="714.7" cy="111.8" r="4" fill="#60e5e0" /><circle cx="723.1" cy="111.8" r="4" fill="#60e5e0" /><circle cx="731.4" cy="110.6" r="4" fill="#60e5e0" /><circle cx="739.8" cy="110.6" r="4" fill="#60e5e0" /><circle cx="748.1" cy="110.6" r="4" fill="#60e5e0" /><circle cx="756.5" cy="110.6" r="4" fill="#60e5e0" /><circle cx="764.8" cy="110.6" r="4" fill="#60e5e0" /><circle cx="773.2" cy="109.4" r="4" fill="#60e5e0" /><circle cx="781.5" cy="109.4" r="4" fill="#60e5e0" /><circle cx="789.9" cy="109.4" r="4" fill="#60e5e0" /><circle cx="798.2" cy="109.4" r="4" fill="#60e5e0" /><circle cx="806.6" cy="109.2" r="4" fill="#60e5e0" /><circle cx="814.9" cy="109.2" r="4" fill="#60e5e0" /><circle cx="823.3" cy="109.2" r="4" fill="#60e5e0" /><circle cx="831.6" cy="109.2" r="4" fill="#60e5e0" /><circle cx="840.0" cy="109.2" r="4" fill="#60e5e0" /><polyline points="80.0,314.6 88.4,314.4 96.7,314.2 105.1,314.2 113.4,314.2 121.8,314.1 130.1,314.1 138.5,314.1 146.8,314.1 155.2,314.1 163.5,314.0 171.9,314.0 180.2,314.0 188.6,314.0 196.9,314.0 205.3,314.0 213.6,314.0 222.0,314.0 230.3,314.0 238.7,314.0 247.0,314.0 255.4,314.0 263.7,314.0 272.1,314.0 280.4,314.0 288.8,314.0 297.1,314.0 305.5,314.0 313.8,314.0 322.2,314.0 330.5,314.0 338.9,314.0 347.3,314.0 355.6,314.0 364.0,314.0 372.3,314.0 380.7,314.0 389.0,314.0 397.4,314.0 405.7,314.0 414.1,314.0 422.4,313.9 430.8,313.6 439.1,313.4 447.5,313.4 455.8,313.4 464.2,313.4 472.5,313.4 480.9,313.1 489.2,313.1 497.6,313.1 505.9,313.1 514.3,313.1 522.6,313.0 531.0,313.0 539.3,312.9 547.7,312.9 556.0,312.9 564.4,312.8 572.7,312.8 581.1,312.6 589.5,312.6 597.8,312.6 606.2,312.6 614.5,312.6 622.9,312.6 631.2,312.6 639.6,312.5 647.9,312.1 656.3,312.1 664.6,312.1 673.0,312.1 681.3,312.1 689.7,312.1 698.0,312.1 706.4,312.1 714.7,312.1 723.1,312.1 731.4,312.0 739.8,312.0 748.1,312.0 756.5,312.0 764.8,312.0 773.2,312.0 781.5,312.0 789.9,312.0 798.2,312.0 806.6,312.0 814.9,312.0 823.3,312.0 831.6,312.0 840.0,312.0" fill="none" stroke="#567de1" stroke-width="2.5" stroke-linecap="round" stroke-linejoin="round" /><circle cx="80.0" cy="314.6" r="4" fill="#567de1" /><circle cx="88.4" cy="314.4" r="4" fill="#567de1" /><circle cx="96.7" cy="314.2" r="4" fill="#567de1" /><circle cx="105.1" cy="314.2" r="4" fill="#567de1" /><circle cx="113.4" cy="314.2" r="4" fill="#567de1" /><circle cx="121.8" cy="314.1" r="4" fill="#567de1" /><circle cx="130.1" cy="314.1" r="4" fill="#567de1" /><circle cx="138.5" cy="314.1" r="4" fill="#567de1" /><circle cx="146.8" cy="314.1" r="4" fill="#567de1" /><circle cx="155.2" cy="314.1" r="4" fill="#567de1" /><circle cx="163.5" cy="314.0" r="4" fill="#567de1" /><circle cx="171.9" cy="314.0" r="4" fill="#567de1" /><circle cx="180.2" cy="314.0" r="4" fill="#567de1" /><circle cx="188.6" cy="314.0" r="4" fill="#567de1" /><circle cx="196.9" cy="314.0" r="4" fill="#567de1" /><circle cx="205.3" cy="314.0" r="4" fill="#567de1" /><circle cx="213.6" cy="314.0" r="4" fill="#567de1" /><circle cx="222.0" cy="314.0" r="4" fill="#567de1" /><circle cx="230.3" cy="314.0" r="4" fill="#567de1" /><circle cx="238.7" cy="314.0" r="4" fill="#567de1" /><circle cx="247.0" cy="314.0" r="4" fill="#567de1" /><circle cx="255.4" cy="314.0" r="4" fill="#567de1" /><circle cx="263.7" cy="314.0" r="4" fill="#567de1" /><circle cx="272.1" cy="314.0" r="4" fill="#567de1" /><circle cx="280.4" cy="314.0" r="4" fill="#567de1" /><circle cx="288.8" cy="314.0" r="4" fill="#567de1" /><circle cx="297.1" cy="314.0" r="4" fill="#567de1" /><circle cx="305.5" cy="314.0" r="4" fill="#567de1" /><circle cx="313.8" cy="314.0" r="4" fill="#567de1" /><circle cx="322.2" cy="314.0" r="4" fill="#567de1" /><circle cx="330.5" cy="314.0" r="4" fill="#567de1" /><circle cx="338.9" cy="314.0" r="4" fill="#567de1" /><circle cx="347.3" cy="314.0" r="4" fill="#567de1" /><circle cx="355.6" cy="314.0" r="4" fill="#567de1" /><circle cx="364.0" cy="314.0" r="4" fill="#567de1" /><circle cx="372.3" cy="314.0" r="4" fill="#567de1" /><circle cx="380.7" cy="314.0" r="4" fill="#567de1" /><circle cx="389.0" cy="314.0" r="4" fill="#567de1" /><circle cx="397.4" cy="314.0" r="4" fill="#567de1" /><circle cx="405.7" cy="314.0" r="4" fill="#567de1" /><circle cx="414.1" cy="314.0" r="4" fill="#567de1" /><circle cx="422.4" cy="313.9" r="4" fill="#567de1" /><circle cx="430.8" cy="313.6" r="4" fill="#567de1" /><circle cx="439.1" cy="313.4" r="4" fill="#567de1" /><circle cx="447.5" cy="313.4" r="4" fill="#567de1" /><circle cx="455.8" cy="313.4" r="4" fill="#567de1" /><circle cx="464.2" cy="313.4" r="4" fill="#567de1" /><circle cx="472.5" cy="313.4" r="4" fill="#567de1" /><circle cx="480.9" cy="313.1" r="4" fill="#567de1" /><circle cx="489.2" cy="313.1" r="4" fill="#567de1" /><circle cx="497.6" cy="313.1" r="4" fill="#567de1" /><circle cx="505.9" cy="313.1" r="4" fill="#567de1" /><circle cx="514.3" cy="313.1" r="4" fill="#567de1" /><circle cx="522.6" cy="313.0" r="4" fill="#567de1" /><circle cx="531.0" cy="313.0" r="4" fill="#567de1" /><circle cx="539.3" cy="312.9" r="4" fill="#567de1" /><circle cx="547.7" cy="312.9" r="4" fill="#567de1" /><circle cx="556.0" cy="312.9" r="4" fill="#567de1" /><circle cx="564.4" cy="312.8" r="4" fill="#567de1" /><circle cx="572.7" cy="312.8" r="4" fill="#567de1" /><circle cx="581.1" cy="312.6" r="4" fill="#567de1" /><circle cx="589.5" cy="312.6" r="4" fill="#567de1" /><circle cx="597.8" cy="312.6" r="4" fill="#567de1" /><circle cx="606.2" cy="312.6" r="4" fill="#567de1" /><circle cx="614.5" cy="312.6" r="4" fill="#567de1" /><circle cx="622.9" cy="312.6" r="4" fill="#567de1" /><circle cx="631.2" cy="312.6" r="4" fill="#567de1" /><circle cx="639.6" cy="312.5" r="4" fill="#567de1" /><circle cx="647.9" cy="312.1" r="4" fill="#567de1" /><circle cx="656.3" cy="312.1" r="4" fill="#567de1" /><circle cx="664.6" cy="312.1" r="4" fill="#567de1" /><circle cx="673.0" cy="312.1" r="4" fill="#567de1" /><circle cx="681.3" cy="312.1" r="4" fill="#567de1" /><circle cx="689.7" cy="312.1" r="4" fill="#567de1" /><circle cx="698.0" cy="312.1" r="4" fill="#567de1" /><circle cx="706.4" cy="312.1" r="4" fill="#567de1" /><circle cx="714.7" cy="312.1" r="4" fill="#567de1" /><circle cx="723.1" cy="312.1" r="4" fill="#567de1" /><circle cx="731.4" cy="312.0" r="4" fill="#567de1" /><circle cx="739.8" cy="312.0" r="4" fill="#567de1" /><circle cx="748.1" cy="312.0" r="4" fill="#567de1" /><circle cx="756.5" cy="312.0" r="4" fill="#567de1" /><circle cx="764.8" cy="312.0" r="4" fill="#567de1" /><circle cx="773.2" cy="312.0" r="4" fill="#567de1" /><circle cx="781.5" cy="312.0" r="4" fill="#567de1" /><circle cx="789.9" cy="312.0" r="4" fill="#567de1" /><circle cx="798.2" cy="312.0" r="4" fill="#567de1" /><circle cx="806.6" cy="312.0" r="4" fill="#567de1" /><circle cx="814.9" cy="312.0" r="4" fill="#567de1" /><circle cx="823.3" cy="312.0" r="4" fill="#567de1" /><circle cx="831.6" cy="312.0" r="4" fill="#567de1" /><circle cx="840.0" cy="312.0" r="4" fill="#567de1" /><polyline points="80.0,303.9 88.4,304.2 96.7,304.4 105.1,304.4 113.4,304.4 121.8,304.4 130.1,304.4 138.5,304.4 146.8,304.4 155.2,304.4 163.5,304.4 171.9,304.4 180.2,304.4 188.6,304.4 196.9,304.4 205.3,304.4 213.6,304.4 222.0,304.4 230.3,304.4 238.7,304.4 247.0,304.4 255.4,304.4 263.7,304.4 272.1,304.4 280.4,304.4 288.8,304.4 297.1,304.4 305.5,304.4 313.8,299.1 322.2,299.1 330.5,299.1 338.9,298.9 347.3,295.6 355.6,295.6 364.0,295.6 372.3,295.6 380.7,295.6 389.0,295.6 397.4,295.6 405.7,295.6 414.1,295.6 422.4,295.8 430.8,295.9 439.1,295.9 447.5,295.9 455.8,295.9 464.2,295.9 472.5,295.9 480.9,295.9 489.2,295.9 497.6,295.9 505.9,295.9 514.3,295.9 522.6,295.9 531.0,295.9 539.3,295.9 547.7,295.9 556.0,295.9 564.4,295.8 572.7,295.8 581.1,295.9 589.5,295.9 597.8,295.9 606.2,295.9 614.5,295.9 622.9,295.9 631.2,295.9 639.6,296.0 647.9,296.4 656.3,296.4 664.6,296.4 673.0,296.4 681.3,296.4 689.7,296.4 698.0,296.4 706.4,296.4 714.7,296.4 723.1,296.4 731.4,296.5 739.8,296.5 748.1,296.5 756.5,296.5 764.8,296.5 773.2,296.5 781.5,296.5 789.9,296.5 798.2,296.5 806.6,296.5 814.9,296.5 823.3,296.5 831.6,296.5 840.0,296.5" fill="none" stroke="#9754dd" stroke-width="2.5" stroke-linecap="round" stroke-linejoin="round" /><circle cx="80.0" cy="303.9" r="4" fill="#9754dd" /><circle cx="88.4" cy="304.2" r="4" fill="#9754dd" /><circle cx="96.7" cy="304.4" r="4" fill="#9754dd" /><circle cx="105.1" cy="304.4" r="4" fill="#9754dd" /><circle cx="113.4" cy="304.4" r="4" fill="#9754dd" /><circle cx="121.8" cy="304.4" r="4" fill="#9754dd" /><circle cx="130.1" cy="304.4" r="4" fill="#9754dd" /><circle cx="138.5" cy="304.4" r="4" fill="#9754dd" /><circle cx="146.8" cy="304.4" r="4" fill="#9754dd" /><circle cx="155.2" cy="304.4" r="4" fill="#9754dd" /><circle cx="163.5" cy="304.4" r="4" fill="#9754dd" /><circle cx="171.9" cy="304.4" r="4" fill="#9754dd" /><circle cx="180.2" cy="304.4" r="4" fill="#9754dd" /><circle cx="188.6" cy="304.4" r="4" fill="#9754dd" /><circle cx="196.9" cy="304.4" r="4" fill="#9754dd" /><circle cx="205.3" cy="304.4" r="4" fill="#9754dd" /><circle cx="213.6" cy="304.4" r="4" fill="#9754dd" /><circle cx="222.0" cy="304.4" r="4" fill="#9754dd" /><circle cx="230.3" cy="304.4" r="4" fill="#9754dd" /><circle cx="238.7" cy="304.4" r="4" fill="#9754dd" /><circle cx="247.0" cy="304.4" r="4" fill="#9754dd" /><circle cx="255.4" cy="304.4" r="4" fill="#9754dd" /><circle cx="263.7" cy="304.4" r="4" fill="#9754dd" /><circle cx="272.1" cy="304.4" r="4" fill="#9754dd" /><circle cx="280.4" cy="304.4" r="4" fill="#9754dd" /><circle cx="288.8" cy="304.4" r="4" fill="#9754dd" /><circle cx="297.1" cy="304.4" r="4" fill="#9754dd" /><circle cx="305.5" cy="304.4" r="4" fill="#9754dd" /><circle cx="313.8" cy="299.1" r="4" fill="#9754dd" /><circle cx="322.2" cy="299.1" r="4" fill="#9754dd" /><circle cx="330.5" cy="299.1" r="4" fill="#9754dd" /><circle cx="338.9" cy="298.9" r="4" fill="#9754dd" /><circle cx="347.3" cy="295.6" r="4" fill="#9754dd" /><circle cx="355.6" cy="295.6" r="4" fill="#9754dd" /><circle cx="364.0" cy="295.6" r="4" fill="#9754dd" /><circle cx="372.3" cy="295.6" r="4" fill="#9754dd" /><circle cx="380.7" cy="295.6" r="4" fill="#9754dd" /><circle cx="389.0" cy="295.6" r="4" fill="#9754dd" /><circle cx="397.4" cy="295.6" r="4" fill="#9754dd" /><circle cx="405.7" cy="295.6" r="4" fill="#9754dd" /><circle cx="414.1" cy="295.6" r="4" fill="#9754dd" /><circle cx="422.4" cy="295.8" r="4" fill="#9754dd" /><circle cx="430.8" cy="295.9" r="4" fill="#9754dd" /><circle cx="439.1" cy="295.9" r="4" fill="#9754dd" /><circle cx="447.5" cy="295.9" r="4" fill="#9754dd" /><circle cx="455.8" cy="295.9" r="4" fill="#9754dd" /><circle cx="464.2" cy="295.9" r="4" fill="#9754dd" /><circle cx="472.5" cy="295.9" r="4" fill="#9754dd" /><circle cx="480.9" cy="295.9" r="4" fill="#9754dd" /><circle cx="489.2" cy="295.9" r="4" fill="#9754dd" /><circle cx="497.6" cy="295.9" r="4" fill="#9754dd" /><circle cx="505.9" cy="295.9" r="4" fill="#9754dd" /><circle cx="514.3" cy="295.9" r="4" fill="#9754dd" /><circle cx="522.6" cy="295.9" r="4" fill="#9754dd" /><circle cx="531.0" cy="295.9" r="4" fill="#9754dd" /><circle cx="539.3" cy="295.9" r="4" fill="#9754dd" /><circle cx="547.7" cy="295.9" r="4" fill="#9754dd" /><circle cx="556.0" cy="295.9" r="4" fill="#9754dd" /><circle cx="564.4" cy="295.8" r="4" fill="#9754dd" /><circle cx="572.7" cy="295.8" r="4" fill="#9754dd" /><circle cx="581.1" cy="295.9" r="4" fill="#9754dd" /><circle cx="589.5" cy="295.9" r="4" fill="#9754dd" /><circle cx="597.8" cy="295.9" r="4" fill="#9754dd" /><circle cx="606.2" cy="295.9" r="4" fill="#9754dd" /><circle cx="614.5" cy="295.9" r="4" fill="#9754dd" /><circle cx="622.9" cy="295.9" r="4" fill="#9754dd" /><circle cx="631.2" cy="295.9" r="4" fill="#9754dd" /><circle cx="639.6" cy="296.0" r="4" fill="#9754dd" /><circle cx="647.9" cy="296.4" r="4" fill="#9754dd" /><circle cx="656.3" cy="296.4" r="4" fill="#9754dd" /><circle cx="664.6" cy="296.4" r="4" fill="#9754dd" /><circle cx="673.0" cy="296.4" r="4" fill="#9754dd" /><circle cx="681.3" cy="296.4" r="4" fill="#9754dd" /><circle cx="689.7" cy="296.4" r="4" fill="#9754dd" /><circle cx="698.0" cy="296.4" r="4" fill="#9754dd" /><circle cx="706.4" cy="296.4" r="4" fill="#9754dd" /><circle cx="714.7" cy="296.4" r="4" fill="#9754dd" /><circle cx="723.1" cy="296.4" r="4" fill="#9754dd" /><circle cx="731.4" cy="296.5" r="4" fill="#9754dd" /><circle cx="739.8" cy="296.5" r="4" fill="#9754dd" /><circle cx="748.1" cy="296.5" r="4" fill="#9754dd" /><circle cx="756.5" cy="296.5" r="4" fill="#9754dd" /><circle cx="764.8" cy="296.5" r="4" fill="#9754dd" /><circle cx="773.2" cy="296.5" r="4" fill="#9754dd" /><circle cx="781.5" cy="296.5" r="4" fill="#9754dd" /><circle cx="789.9" cy="296.5" r="4" fill="#9754dd" /><circle cx="798.2" cy="296.5" r="4" fill="#9754dd" /><circle cx="806.6" cy="296.5" r="4" fill="#9754dd" /><circle cx="814.9" cy="296.5" r="4" fill="#9754dd" /><circle cx="823.3" cy="296.5" r="4" fill="#9754dd" /><circle cx="831.6" cy="296.5" r="4" fill="#9754dd" /><circle cx="840.0" cy="296.5" r="4" fill="#9754dd" />
  <rect x="80" y="339" width="10" height="10" rx="2" ry="2" fill="#19e5a1" /><text x="96" y="348" class="legend-label">Stars</text><rect x="250" y="339" width="10" height="10" rx="2" ry="2" fill="#6eb6ec" /><text x="266" y="348" class="legend-label">Followers</text><rect x="420" y="339" width="10" height="10" rx="2" ry="2" fill="#5938e2" /><text x="436" y="348" class="legend-label">Following</text><rect x="590" y="339" width="10" height="10" rx="2" ry="2" fill="#60e5e0" /><text x="606" y="348" class="legend-label">Contributions</text><rect x="80" y="357" width="10" height="10" rx="2" ry="2" fill="#567de1" /><text x="96" y="366" class="legend-label">Pull Requests</text><rect x="250" y="357" width="10" height="10" rx="2" ry="2" fill="#9754dd" /><text x="266" y="366" class="legend-label">Issues</text>
</svg>
