<svg width="900" height="402" viewBox="0 0 900 402" xmlns="http://www.w3.org/2000/svg">
  <defs>
    <linearGradient id="history-gradient" x1="0%" y1="0%" x2="100%" y2="100%">
      <stop offset="0%" style="stop-color:#58a6ff;stop-opacity:1" />
      <stop offset="100%" style="stop-color:#a371f7;stop-opacity:1" />
    </linearGradient>
    <clipPath id="history-rounded">
      <rect x="0" y="0" width="900" height="402" rx="8" ry="8" />
    </clipPath>
  </defs>
  <style>
    .title {
      font-family: 'Segoe UI', Ubuntu, 'Helvetica Neue', sans-serif;
      font-size: 22px;
      font-weight: 700;
      fill: #58a6ff;
    }
    .subtitle {
      font-family: 'Segoe UI', Ubuntu, 'Helvetica Neue', sans-serif;
      font-size: 12px;
      font-weight: 500;
      fill: #8b949e;
    }
    .axis-label {
      font-family: 'Segoe UI', Ubuntu, 'Helvetica Neue', sans-serif;
      font-size: 10px;
      fill: #8b949e;
    }
    .grid-line {
      stroke: #30363d;
      stroke-width: 1;
      opacity: 0.3;
    }
    .legend-label {
      font-family: 'Segoe UI', Ubuntu, 'Helvetica Neue', sans-serif;
      font-size: 11px;
      fill: #c9d1d9;
      dominant-baseline: middle;
    }
  </style>
  <rect clip-path="url(#history-rounded)" width="100%" height="100%" fill="#0d1117" stroke="#30363d" stroke-width="1" />
  <rect x="0" y="396" width="900" height="6" fill="url(#history-gradient)" clip-path="url(#history-rounded)" />
  <text x="24" y="34" class="title">Leonardo Klein Stats History</text>
  <text x="24" y="54" class="subtitle">Period: 2026-02-20 to 2026-03-04</text>
  <text x="72" y="320.0" text-anchor="end" dominant-baseline="central" class="axis-label">0</text><text x="72" y="270.0" text-anchor="end" dominant-baseline="central" class="axis-label">400</text><text x="72" y="220.0" text-anchor="end" dominant-baseline="central" class="axis-label">800</text><text x="72" y="170.0" text-anchor="end" dominant-baseline="central" class="axis-label">1.2k</text><text x="72" y="120.0" text-anchor="end" dominant-baseline="central" class="axis-label">1.6k</text><text x="72" y="70.0" text-anchor="end" dominant-baseline="central" class="axis-label">2.0k</text>
  <text x="80.0" y="336" text-anchor="middle" class="axis-label">02-20</text><text x="145.5" y="336" text-anchor="middle" class="axis-label">02-21</text><text x="211.0" y="336" text-anchor="middle" class="axis-label">02-22</text><text x="276.6" y="336" text-anchor="middle" class="axis-label">02-23</text><text x="342.1" y="336" text-anchor="middle" class="axis-label">02-24</text><text x="407.6" y="336" text-anchor="middle" class="axis-label">02-25</text><text x="473.1" y="336" text-anchor="middle" class="axis-label">02-26</text><text x="538.6" y="336" text-anchor="middle" class="axis-label">02-27</text><text x="604.1" y="336" text-anchor="middle" class="axis-label">02-28</text><text x="669.7" y="336" text-anchor="middle" class="axis-label">03-01</text><text x="735.2" y="336" text-anchor="middle" class="axis-label">03-02</text><text x="800.7" y="336" text-anchor="middle" class="axis-label">03-03</text><text x="840.0" y="336" text-anchor="middle" class="axis-label">03-04</text>
  <line x1="80" y1="320.0" x2="840" y2="320.0" class="grid-line" /><line x1="80" y1="270.0" x2="840" y2="270.0" class="grid-line" /><line x1="80" y1="220.0" x2="840" y2="220.0" class="grid-line" /><line x1="80" y1="170.0" x2="840" y2="170.0" class="grid-line" /><line x1="80" y1="120.0" x2="840" y2="120.0" class="grid-line" /><line x1="80" y1="70.0" x2="840" y2="70.0" class="grid-line" />
  <polyline points="80.0,317.0 93.1,317.0 106.2,317.0 119.3,317.0 132.4,317.0 145.5,317.0 158.6,317.0 171.7,317.0 184.8,317.0 197.9,317.0 211.0,317.0 224.1,317.0 237.2,317.0 250.3,317.0 263.4,317.0 276.6,317.0 289.7,317.0 302.8,317.0 315.9,317.0 329.0,317.0 342.1,317.0 355.2,317.0 368.3,317.0 381.4,317.0 394.5,317.0 407.6,317.0 420.7,317.0 433.8,317.0 446.9,317.0 460.0,317.0 473.1,317.0 486.2,317.0 499.3,317.0 512.4,317.0 525.5,317.0 538.6,317.0 551.7,317.0 564.8,317.0 577.9,317.0 591.0,317.0 604.1,317.0 617.2,317.0 630.3,317.0 643.4,317.0 656.6,317.0 669.7,317.0 682.8,317.0 695.9,317.0 709.0,317.0 722.1,317.0 735.2,317.0 748.3,317.0 761.4,317.0 774.5,317.0 787.6,317.0 800.7,317.0 813.8,317.0 826.9,317.0 840.0,317.0" fill="none" stroke="#19e5a1" stroke-width="2.5" stroke-linecap="round" stroke-linejoin="round" /><circle cx="80.0" cy="317.0" r="4" fill="#19e5a1" /><circle cx="93.1" cy="317.0" r="4" fill="#19e5a1" /><circle cx="106.2" cy="317.0" r="4" fill="#19e5a1" /><circle cx="119.3" cy="317.0" r="4" fill="#19e5a1" /><circle cx="132.4" cy="317.0" r="4" fill="#19e5a1" /><circle cx="145.5" cy="317.0" r="4" fill="#19e5a1" /><circle cx="158.6" cy="317.0" r="4" fill="#19e5a1" /><circle cx="171.7" cy="317.0" r="4" fill="#19e5a1" /><circle cx="184.8" cy="317.0" r="4" fill="#19e5a1" /><circle cx="197.9" cy="317.0" r="4" fill="#19e5a1" /><circle cx="211.0" cy="317.0" r="4" fill="#19e5a1" /><circle cx="224.1" cy="317.0" r="4" fill="#19e5a1" /><circle cx="237.2" cy="317.0" r="4" fill="#19e5a1" /><circle cx="250.3" cy="317.0" r="4" fill="#19e5a1" /><circle cx="263.4" cy="317.0" r="4" fill="#19e5a1" /><circle cx="276.6" cy="317.0" r="4" fill="#19e5a1" /><circle cx="289.7" cy="317.0" r="4" fill="#19e5a1" /><circle cx="302.8" cy="317.0" r="4" fill="#19e5a1" /><circle cx="315.9" cy="317.0" r="4" fill="#19e5a1" /><circle cx="329.0" cy="317.0" r="4" fill="#19e5a1" /><circle cx="342.1" cy="317.0" r="4" fill="#19e5a1" /><circle cx="355.2" cy="317.0" r="4" fill="#19e5a1" /><circle cx="368.3" cy="317.0" r="4" fill="#19e5a1" /><circle cx="381.4" cy="317.0" r="4" fill="#19e5a1" /><circle cx="394.5" cy="317.0" r="4" fill="#19e5a1" /><circle cx="407.6" cy="317.0" r="4" fill="#19e5a1" /><circle cx="420.7" cy="317.0" r="4" fill="#19e5a1" /><circle cx="433.8" cy="317.0" r="4" fill="#19e5a1" /><circle cx="446.9" cy="317.0" r="4" fill="#19e5a1" /><circle cx="460.0" cy="317.0" r="4" fill="#19e5a1" /><circle cx="473.1" cy="317.0" r="4" fill="#19e5a1" /><circle cx="486.2" cy="317.0" r="4" fill="#19e5a1" /><circle cx="499.3" cy="317.0" r="4" fill="#19e5a1" /><circle cx="512.4" cy="317.0" r="4" fill="#19e5a1" /><circle cx="525.5" cy="317.0" r="4" fill="#19e5a1" /><circle cx="538.6" cy="317.0" r="4" fill="#19e5a1" /><circle cx="551.7" cy="317.0" r="4" fill="#19e5a1" /><circle cx="564.8" cy="317.0" r="4" fill="#19e5a1" /><circle cx="577.9" cy="317.0" r="4" fill="#19e5a1" /><circle cx="591.0" cy="317.0" r="4" fill="#19e5a1" /><circle cx="604.1" cy="317.0" r="4" fill="#19e5a1" /><circle cx="617.2" cy="317.0" r="4" fill="#19e5a1" /><circle cx="630.3" cy="317.0" r="4" fill="#19e5a1" /><circle cx="643.4" cy="317.0" r="4" fill="#19e5a1" /><circle cx="656.6" cy="317.0" r="4" fill="#19e5a1" /><circle cx="669.7" cy="317.0" r="4" fill="#19e5a1" /><circle cx="682.8" cy="317.0" r="4" fill="#19e5a1" /><circle cx="695.9" cy="317.0" r="4" fill="#19e5a1" /><circle cx="709.0" cy="317.0" r="4" fill="#19e5a1" /><circle cx="722.1" cy="317.0" r="4" fill="#19e5a1" /><circle cx="735.2" cy="317.0" r="4" fill="#19e5a1" /><circle cx="748.3" cy="317.0" r="4" fill="#19e5a1" /><circle cx="761.4" cy="317.0" r="4" fill="#19e5a1" /><circle cx="774.5" cy="317.0" r="4" fill="#19e5a1" /><circle cx="787.6" cy="317.0" r="4" fill="#19e5a1" /><circle cx="800.7" cy="317.0" r="4" fill="#19e5a1" /><circle cx="813.8" cy="317.0" r="4" fill="#19e5a1" /><circle cx="826.9" cy="317.0" r="4" fill="#19e5a1" /><circle cx="840.0" cy="317.0" r="4" fill="#19e5a1" /><polyline points="80.0,313.2 93.1,312.2 106.2,312.1 119.3,312.4 132.4,312.4 145.5,312.4 158.6,312.1 171.7,312.0 184.8,311.9 197.9,311.9 211.0,311.8 224.1,311.8 237.2,311.5 250.3,311.5 263.4,311.5 276.6,311.2 289.7,311.2 302.8,311.1 315.9,311.1 329.0,311.1 342.1,310.9 355.2,311.0 368.3,310.8 381.4,310.8 394.5,310.8 407.6,310.8 420.7,310.4 433.8,310.2 446.9,310.4 460.0,310.4 473.1,310.4 486.2,310.4 499.3,310.4 512.4,310.2 525.5,310.2 538.6,310.1 551.7,310.1 564.8,309.8 577.9,309.6 591.0,309.6 604.1,309.6 617.2,309.6 630.3,309.5 643.4,309.4 656.6,309.4 669.7,309.4 682.8,309.4 695.9,309.2 709.0,309.2 722.1,309.2 735.2,309.4 748.3,309.4 761.4,309.5 774.5,309.2 787.6,309.2 800.7,309.4 813.8,309.2 826.9,309.2 840.0,309.2" fill="none" stroke="#6eb6ec" stroke-width="2.5" stroke-linecap="round" stroke-linejoin="round" /><circle cx="80.0" cy="313.2" r="4" fill="#6eb6ec" /><circle cx="93.1" cy="312.2" r="4" fill="#6eb6ec" /><circle cx="106.2" cy="312.1" r="4" fill="#6eb6ec" /><circle cx="119.3" cy="312.4" r="4" fill="#6eb6ec" /><circle cx="132.4" cy="312.4" r="4" fill="#6eb6ec" /><circle cx="145.5" cy="312.4" r="4" fill="#6eb6ec" /><circle cx="158.6" cy="312.1" r="4" fill="#6eb6ec" /><circle cx="171.7" cy="312.0" r="4" fill="#6eb6ec" /><circle cx="184.8" cy="311.9" r="4" fill="#6eb6ec" /><circle cx="197.9" cy="311.9" r="4" fill="#6eb6ec" /><circle cx="211.0" cy="311.8" r="4" fill="#6eb6ec" /><circle cx="224.1" cy="311.8" r="4" fill="#6eb6ec" /><circle cx="237.2" cy="311.5" r="4" fill="#6eb6ec" /><circle cx="250.3" cy="311.5" r="4" fill="#6eb6ec" /><circle cx="263.4" cy="311.5" r="4" fill="#6eb6ec" /><circle cx="276.6" cy="311.2" r="4" fill="#6eb6ec" /><circle cx="289.7" cy="311.2" r="4" fill="#6eb6ec" /><circle cx="302.8" cy="311.1" r="4" fill="#6eb6ec" /><circle cx="315.9" cy="311.1" r="4" fill="#6eb6ec" /><circle cx="329.0" cy="311.1" r="4" fill="#6eb6ec" /><circle cx="342.1" cy="310.9" r="4" fill="#6eb6ec" /><circle cx="355.2" cy="311.0" r="4" fill="#6eb6ec" /><circle cx="368.3" cy="310.8" r="4" fill="#6eb6ec" /><circle cx="381.4" cy="310.8" r="4" fill="#6eb6ec" /><circle cx="394.5" cy="310.8" r="4" fill="#6eb6ec" /><circle cx="407.6" cy="310.8" r="4" fill="#6eb6ec" /><circle cx="420.7" cy="310.4" r="4" fill="#6eb6ec" /><circle cx="433.8" cy="310.2" r="4" fill="#6eb6ec" /><circle cx="446.9" cy="310.4" r="4" fill="#6eb6ec" /><circle cx="460.0" cy="310.4" r="4" fill="#6eb6ec" /><circle cx="473.1" cy="310.4" r="4" fill="#6eb6ec" /><circle cx="486.2" cy="310.4" r="4" fill="#6eb6ec" /><circle cx="499.3" cy="310.4" r="4" fill="#6eb6ec" /><circle cx="512.4" cy="310.2" r="4" fill="#6eb6ec" /><circle cx="525.5" cy="310.2" r="4" fill="#6eb6ec" /><circle cx="538.6" cy="310.1" r="4" fill="#6eb6ec" /><circle cx="551.7" cy="310.1" r="4" fill="#6eb6ec" /><circle cx="564.8" cy="309.8" r="4" fill="#6eb6ec" /><circle cx="577.9" cy="309.6" r="4" fill="#6eb6ec" /><circle cx="591.0" cy="309.6" r="4" fill="#6eb6ec" /><circle cx="604.1" cy="309.6" r="4" fill="#6eb6ec" /><circle cx="617.2" cy="309.6" r="4" fill="#6eb6ec" /><circle cx="630.3" cy="309.5" r="4" fill="#6eb6ec" /><circle cx="643.4" cy="309.4" r="4" fill="#6eb6ec" /><circle cx="656.6" cy="309.4" r="4" fill="#6eb6ec" /><circle cx="669.7" cy="309.4" r="4" fill="#6eb6ec" /><circle cx="682.8" cy="309.4" r="4" fill="#6eb6ec" /><circle cx="695.9" cy="309.2" r="4" fill="#6eb6ec" /><circle cx="709.0" cy="309.2" r="4" fill="#6eb6ec" /><circle cx="722.1" cy="309.2" r="4" fill="#6eb6ec" /><circle cx="735.2" cy="309.4" r="4" fill="#6eb6ec" /><circle cx="748.3" cy="309.4" r="4" fill="#6eb6ec" /><circle cx="761.4" cy="309.5" r="4" fill="#6eb6ec" /><circle cx="774.5" cy="309.2" r="4" fill="#6eb6ec" /><circle cx="787.6" cy="309.2" r="4" fill="#6eb6ec" /><circle cx="800.7" cy="309.4" r="4" fill="#6eb6ec" /><circle cx="813.8" cy="309.2" r="4" fill="#6eb6ec" /><circle cx="826.9" cy="309.2" r="4" fill="#6eb6ec" /><circle cx="840.0" cy="309.2" r="4" fill="#6eb6ec" /><polyline points="80.0,305.8 93.1,305.8 106.2,305.8 119.3,305.8 132.4,305.8 145.5,305.8 158.6,305.8 171.7,305.8 184.8,305.8 197.9,305.8 211.0,304.9 224.1,304.9 237.2,304.9 250.3,304.9 263.4,304.9 276.6,304.9 289.7,304.9 302.8,304.9 315.9,304.9 329.0,304.9 342.1,304.9 355.2,304.9 368.3,304.9 381.4,304.9 394.5,304.9 407.6,304.9 420.7,304.9 433.8,304.9 446.9,304.9 460.0,304.9 473.1,304.9 486.2,304.9 499.3,304.9 512.4,304.9 525.5,304.9 538.6,304.9 551.7,304.9 564.8,303.6 577.9,303.6 591.0,303.6 604.1,303.6 617.2,303.6 630.3,303.6 643.4,303.6 656.6,303.6 669.7,303.6 682.8,303.6 695.9,303.6 709.0,303.6 722.1,303.6 735.2,303.6 748.3,302.9 761.4,302.9 774.5,298.0 787.6,298.0 800.7,298.0 813.8,298.0 826.9,298.0 840.0,298.0" fill="none" stroke="#5938e2" stroke-width="2.5" stroke-linecap="round" stroke-linejoin="round" /><circle cx="80.0" cy="305.8" r="4" fill="#5938e2" /><circle cx="93.1" cy="305.8" r="4" fill="#5938e2" /><circle cx="106.2" cy="305.8" r="4" fill="#5938e2" /><circle cx="119.3" cy="305.8" r="4" fill="#5938e2" /><circle cx="132.4" cy="305.8" r="4" fill="#5938e2" /><circle cx="145.5" cy="305.8" r="4" fill="#5938e2" /><circle cx="158.6" cy="305.8" r="4" fill="#5938e2" /><circle cx="171.7" cy="305.8" r="4" fill="#5938e2" /><circle cx="184.8" cy="305.8" r="4" fill="#5938e2" /><circle cx="197.9" cy="305.8" r="4" fill="#5938e2" /><circle cx="211.0" cy="304.9" r="4" fill="#5938e2" /><circle cx="224.1" cy="304.9" r="4" fill="#5938e2" /><circle cx="237.2" cy="304.9" r="4" fill="#5938e2" /><circle cx="250.3" cy="304.9" r="4" fill="#5938e2" /><circle cx="263.4" cy="304.9" r="4" fill="#5938e2" /><circle cx="276.6" cy="304.9" r="4" fill="#5938e2" /><circle cx="289.7" cy="304.9" r="4" fill="#5938e2" /><circle cx="302.8" cy="304.9" r="4" fill="#5938e2" /><circle cx="315.9" cy="304.9" r="4" fill="#5938e2" /><circle cx="329.0" cy="304.9" r="4" fill="#5938e2" /><circle cx="342.1" cy="304.9" r="4" fill="#5938e2" /><circle cx="355.2" cy="304.9" r="4" fill="#5938e2" /><circle cx="368.3" cy="304.9" r="4" fill="#5938e2" /><circle cx="381.4" cy="304.9" r="4" fill="#5938e2" /><circle cx="394.5" cy="304.9" r="4" fill="#5938e2" /><circle cx="407.6" cy="304.9" r="4" fill="#5938e2" /><circle cx="420.7" cy="304.9" r="4" fill="#5938e2" /><circle cx="433.8" cy="304.9" r="4" fill="#5938e2" /><circle cx="446.9" cy="304.9" r="4" fill="#5938e2" /><circle cx="460.0" cy="304.9" r="4" fill="#5938e2" /><circle cx="473.1" cy="304.9" r="4" fill="#5938e2" /><circle cx="486.2" cy="304.9" r="4" fill="#5938e2" /><circle cx="499.3" cy="304.9" r="4" fill="#5938e2" /><circle cx="512.4" cy="304.9" r="4" fill="#5938e2" /><circle cx="525.5" cy="304.9" r="4" fill="#5938e2" /><circle cx="538.6" cy="304.9" r="4" fill="#5938e2" /><circle cx="551.7" cy="304.9" r="4" fill="#5938e2" /><circle cx="564.8" cy="303.6" r="4" fill="#5938e2" /><circle cx="577.9" cy="303.6" r="4" fill="#5938e2" /><circle cx="591.0" cy="303.6" r="4" fill="#5938e2" /><circle cx="604.1" cy="303.6" r="4" fill="#5938e2" /><circle cx="617.2" cy="303.6" r="4" fill="#5938e2" /><circle cx="630.3" cy="303.6" r="4" fill="#5938e2" /><circle cx="643.4" cy="303.6" r="4" fill="#5938e2" /><circle cx="656.6" cy="303.6" r="4" fill="#5938e2" /><circle cx="669.7" cy="303.6" r="4" fill="#5938e2" /><circle cx="682.8" cy="303.6" r="4" fill="#5938e2" /><circle cx="695.9" cy="303.6" r="4" fill="#5938e2" /><circle cx="709.0" cy="303.6" r="4" fill="#5938e2" /><circle cx="722.1" cy="303.6" r="4" fill="#5938e2" /><circle cx="735.2" cy="303.6" r="4" fill="#5938e2" /><circle cx="748.3" cy="302.9" r="4" fill="#5938e2" /><circle cx="761.4" cy="302.9" r="4" fill="#5938e2" /><circle cx="774.5" cy="298.0" r="4" fill="#5938e2" /><circle cx="787.6" cy="298.0" r="4" fill="#5938e2" /><circle cx="800.7" cy="298.0" r="4" fill="#5938e2" /><circle cx="813.8" cy="298.0" r="4" fill="#5938e2" /><circle cx="826.9" cy="298.0" r="4" fill="#5938e2" /><circle cx="840.0" cy="298.0" r="4" fill="#5938e2" /><polyline points="80.0,144.6 93.1,140.1 106.2,139.9 119.3,139.8 132.4,139.8 145.5,139.6 158.6,139.6 171.7,139.6 184.8,139.6 197.9,139.6 211.0,138.4 224.1,138.4 237.2,138.4 250.3,138.4 263.4,138.4 276.6,138.4 289.7,138.4 302.8,137.4 315.9,137.4 329.0,137.4 342.1,137.4 355.2,137.4 368.3,137.4 381.4,137.4 394.5,137.4 407.6,137.4 420.7,137.4 433.8,137.4 446.9,131.2 460.0,131.2 473.1,130.8 486.2,130.4 499.3,126.9 512.4,126.9 525.5,126.9 538.6,126.9 551.7,126.9 564.8,126.9 577.9,126.9 591.0,126.9 604.1,126.9 617.2,126.8 630.3,122.1 643.4,120.4 656.6,120.4 669.7,120.4 682.8,120.4 695.9,120.4 709.0,119.4 722.1,119.4 735.2,119.4 748.3,119.4 761.4,119.1 774.5,118.8 787.6,118.8 800.7,117.8 813.8,117.8 826.9,117.8 840.0,115.8" fill="none" stroke="#60e5e0" stroke-width="2.5" stroke-linecap="round" stroke-linejoin="round" /><circle cx="80.0" cy="144.6" r="4" fill="#60e5e0" /><circle cx="93.1" cy="140.1" r="4" fill="#60e5e0" /><circle cx="106.2" cy="139.9" r="4" fill="#60e5e0" /><circle cx="119.3" cy="139.8" r="4" fill="#60e5e0" /><circle cx="132.4" cy="139.8" r="4" fill="#60e5e0" /><circle cx="145.5" cy="139.6" r="4" fill="#60e5e0" /><circle cx="158.6" cy="139.6" r="4" fill="#60e5e0" /><circle cx="171.7" cy="139.6" r="4" fill="#60e5e0" /><circle cx="184.8" cy="139.6" r="4" fill="#60e5e0" /><circle cx="197.9" cy="139.6" r="4" fill="#60e5e0" /><circle cx="211.0" cy="138.4" r="4" fill="#60e5e0" /><circle cx="224.1" cy="138.4" r="4" fill="#60e5e0" /><circle cx="237.2" cy="138.4" r="4" fill="#60e5e0" /><circle cx="250.3" cy="138.4" r="4" fill="#60e5e0" /><circle cx="263.4" cy="138.4" r="4" fill="#60e5e0" /><circle cx="276.6" cy="138.4" r="4" fill="#60e5e0" /><circle cx="289.7" cy="138.4" r="4" fill="#60e5e0" /><circle cx="302.8" cy="137.4" r="4" fill="#60e5e0" /><circle cx="315.9" cy="137.4" r="4" fill="#60e5e0" /><circle cx="329.0" cy="137.4" r="4" fill="#60e5e0" /><circle cx="342.1" cy="137.4" r="4" fill="#60e5e0" /><circle cx="355.2" cy="137.4" r="4" fill="#60e5e0" /><circle cx="368.3" cy="137.4" r="4" fill="#60e5e0" /><circle cx="381.4" cy="137.4" r="4" fill="#60e5e0" /><circle cx="394.5" cy="137.4" r="4" fill="#60e5e0" /><circle cx="407.6" cy="137.4" r="4" fill="#60e5e0" /><circle cx="420.7" cy="137.4" r="4" fill="#60e5e0" /><circle cx="433.8" cy="137.4" r="4" fill="#60e5e0" /><circle cx="446.9" cy="131.2" r="4" fill="#60e5e0" /><circle cx="460.0" cy="131.2" r="4" fill="#60e5e0" /><circle cx="473.1" cy="130.8" r="4" fill="#60e5e0" /><circle cx="486.2" cy="130.4" r="4" fill="#60e5e0" /><circle cx="499.3" cy="126.9" r="4" fill="#60e5e0" /><circle cx="512.4" cy="126.9" r="4" fill="#60e5e0" /><circle cx="525.5" cy="126.9" r="4" fill="#60e5e0" /><circle cx="538.6" cy="126.9" r="4" fill="#60e5e0" /><circle cx="551.7" cy="126.9" r="4" fill="#60e5e0" /><circle cx="564.8" cy="126.9" r="4" fill="#60e5e0" /><circle cx="577.9" cy="126.9" r="4" fill="#60e5e0" /><circle cx="591.0" cy="126.9" r="4" fill="#60e5e0" /><circle cx="604.1" cy="126.9" r="4" fill="#60e5e0" /><circle cx="617.2" cy="126.8" r="4" fill="#60e5e0" /><circle cx="630.3" cy="122.1" r="4" fill="#60e5e0" /><circle cx="643.4" cy="120.4" r="4" fill="#60e5e0" /><circle cx="656.6" cy="120.4" r="4" fill="#60e5e0" /><circle cx="669.7" cy="120.4" r="4" fill="#60e5e0" /><circle cx="682.8" cy="120.4" r="4" fill="#60e5e0" /><circle cx="695.9" cy="120.4" r="4" fill="#60e5e0" /><circle cx="709.0" cy="119.4" r="4" fill="#60e5e0" /><circle cx="722.1" cy="119.4" r="4" fill="#60e5e0" /><circle cx="735.2" cy="119.4" r="4" fill="#60e5e0" /><circle cx="748.3" cy="119.4" r="4" fill="#60e5e0" /><circle cx="761.4" cy="119.1" r="4" fill="#60e5e0" /><circle cx="774.5" cy="118.8" r="4" fill="#60e5e0" /><circle cx="787.6" cy="118.8" r="4" fill="#60e5e0" /><circle cx="800.7" cy="117.8" r="4" fill="#60e5e0" /><circle cx="813.8" cy="117.8" r="4" fill="#60e5e0" /><circle cx="826.9" cy="117.8" r="4" fill="#60e5e0" /><circle cx="840.0" cy="115.8" r="4" fill="#60e5e0" /><polyline points="80.0,314.6 93.1,314.4 106.2,314.2 119.3,314.2 132.4,314.2 145.5,314.1 158.6,314.1 171.7,314.1 184.8,314.1 197.9,314.1 211.0,314.0 224.1,314.0 237.2,314.0 250.3,314.0 263.4,314.0 276.6,314.0 289.7,314.0 302.8,314.0 315.9,314.0 329.0,314.0 342.1,314.0 355.2,314.0 368.3,314.0 381.4,314.0 394.5,314.0 407.6,314.0 420.7,314.0 433.8,314.0 446.9,314.0 460.0,314.0 473.1,314.0 486.2,314.0 499.3,314.0 512.4,314.0 525.5,314.0 538.6,314.0 551.7,314.0 564.8,314.0 577.9,314.0 591.0,314.0 604.1,314.0 617.2,313.9 630.3,313.6 643.4,313.4 656.6,313.4 669.7,313.4 682.8,313.4 695.9,313.4 709.0,313.1 722.1,313.1 735.2,313.1 748.3,313.1 761.4,313.1 774.5,313.0 787.6,313.0 800.7,312.9 813.8,312.9 826.9,312.9 840.0,312.8" fill="none" stroke="#567de1" stroke-width="2.5" stroke-linecap="round" stroke-linejoin="round" /><circle cx="80.0" cy="314.6" r="4" fill="#567de1" /><circle cx="93.1" cy="314.4" r="4" fill="#567de1" /><circle cx="106.2" cy="314.2" r="4" fill="#567de1" /><circle cx="119.3" cy="314.2" r="4" fill="#567de1" /><circle cx="132.4" cy="314.2" r="4" fill="#567de1" /><circle cx="145.5" cy="314.1" r="4" fill="#567de1" /><circle cx="158.6" cy="314.1" r="4" fill="#567de1" /><circle cx="171.7" cy="314.1" r="4" fill="#567de1" /><circle cx="184.8" cy="314.1" r="4" fill="#567de1" /><circle cx="197.9" cy="314.1" r="4" fill="#567de1" /><circle cx="211.0" cy="314.0" r="4" fill="#567de1" /><circle cx="224.1" cy="314.0" r="4" fill="#567de1" /><circle cx="237.2" cy="314.0" r="4" fill="#567de1" /><circle cx="250.3" cy="314.0" r="4" fill="#567de1" /><circle cx="263.4" cy="314.0" r="4" fill="#567de1" /><circle cx="276.6" cy="314.0" r="4" fill="#567de1" /><circle cx="289.7" cy="314.0" r="4" fill="#567de1" /><circle cx="302.8" cy="314.0" r="4" fill="#567de1" /><circle cx="315.9" cy="314.0" r="4" fill="#567de1" /><circle cx="329.0" cy="314.0" r="4" fill="#567de1" /><circle cx="342.1" cy="314.0" r="4" fill="#567de1" /><circle cx="355.2" cy="314.0" r="4" fill="#567de1" /><circle cx="368.3" cy="314.0" r="4" fill="#567de1" /><circle cx="381.4" cy="314.0" r="4" fill="#567de1" /><circle cx="394.5" cy="314.0" r="4" fill="#567de1" /><circle cx="407.6" cy="314.0" r="4" fill="#567de1" /><circle cx="420.7" cy="314.0" r="4" fill="#567de1" /><circle cx="433.8" cy="314.0" r="4" fill="#567de1" /><circle cx="446.9" cy="314.0" r="4" fill="#567de1" /><circle cx="460.0" cy="314.0" r="4" fill="#567de1" /><circle cx="473.1" cy="314.0" r="4" fill="#567de1" /><circle cx="486.2" cy="314.0" r="4" fill="#567de1" /><circle cx="499.3" cy="314.0" r="4" fill="#567de1" /><circle cx="512.4" cy="314.0" r="4" fill="#567de1" /><circle cx="525.5" cy="314.0" r="4" fill="#567de1" /><circle cx="538.6" cy="314.0" r="4" fill="#567de1" /><circle cx="551.7" cy="314.0" r="4" fill="#567de1" /><circle cx="564.8" cy="314.0" r="4" fill="#567de1" /><circle cx="577.9" cy="314.0" r="4" fill="#567de1" /><circle cx="591.0" cy="314.0" r="4" fill="#567de1" /><circle cx="604.1" cy="314.0" r="4" fill="#567de1" /><circle cx="617.2" cy="313.9" r="4" fill="#567de1" /><circle cx="630.3" cy="313.6" r="4" fill="#567de1" /><circle cx="643.4" cy="313.4" r="4" fill="#567de1" /><circle cx="656.6" cy="313.4" r="4" fill="#567de1" /><circle cx="669.7" cy="313.4" r="4" fill="#567de1" /><circle cx="682.8" cy="313.4" r="4" fill="#567de1" /><circle cx="695.9" cy="313.4" r="4" fill="#567de1" /><circle cx="709.0" cy="313.1" r="4" fill="#567de1" /><circle cx="722.1" cy="313.1" r="4" fill="#567de1" /><circle cx="735.2" cy="313.1" r="4" fill="#567de1" /><circle cx="748.3" cy="313.1" r="4" fill="#567de1" /><circle cx="761.4" cy="313.1" r="4" fill="#567de1" /><circle cx="774.5" cy="313.0" r="4" fill="#567de1" /><circle cx="787.6" cy="313.0" r="4" fill="#567de1" /><circle cx="800.7" cy="312.9" r="4" fill="#567de1" /><circle cx="813.8" cy="312.9" r="4" fill="#567de1" /><circle cx="826.9" cy="312.9" r="4" fill="#567de1" /><circle cx="840.0" cy="312.8" r="4" fill="#567de1" /><polyline points="80.0,303.9 93.1,304.2 106.2,304.4 119.3,304.4 132.4,304.4 145.5,304.4 158.6,304.4 171.7,304.4 184.8,304.4 197.9,304.4 211.0,304.4 224.1,304.4 237.2,304.4 250.3,304.4 263.4,304.4 276.6,304.4 289.7,304.4 302.8,304.4 315.9,304.4 329.0,304.4 342.1,304.4 355.2,304.4 368.3,304.4 381.4,304.4 394.5,304.4 407.6,304.4 420.7,304.4 433.8,304.4 446.9,299.1 460.0,299.1 473.1,299.1 486.2,298.9 499.3,295.6 512.4,295.6 525.5,295.6 538.6,295.6 551.7,295.6 564.8,295.6 577.9,295.6 591.0,295.6 604.1,295.6 617.2,295.8 630.3,295.9 643.4,295.9 656.6,295.9 669.7,295.9 682.8,295.9 695.9,295.9 709.0,295.9 722.1,295.9 735.2,295.9 748.3,295.9 761.4,295.9 774.5,295.9 787.6,295.9 800.7,295.9 813.8,295.9 826.9,295.9 840.0,295.8" fill="none" stroke="#9754dd" stroke-width="2.5" stroke-linecap="round" stroke-linejoin="round" /><circle cx="80.0" cy="303.9" r="4" fill="#9754dd" /><circle cx="93.1" cy="304.2" r="4" fill="#9754dd" /><circle cx="106.2" cy="304.4" r="4" fill="#9754dd" /><circle cx="119.3" cy="304.4" r="4" fill="#9754dd" /><circle cx="132.4" cy="304.4" r="4" fill="#9754dd" /><circle cx="145.5" cy="304.4" r="4" fill="#9754dd" /><circle cx="158.6" cy="304.4" r="4" fill="#9754dd" /><circle cx="171.7" cy="304.4" r="4" fill="#9754dd" /><circle cx="184.8" cy="304.4" r="4" fill="#9754dd" /><circle cx="197.9" cy="304.4" r="4" fill="#9754dd" /><circle cx="211.0" cy="304.4" r="4" fill="#9754dd" /><circle cx="224.1" cy="304.4" r="4" fill="#9754dd" /><circle cx="237.2" cy="304.4" r="4" fill="#9754dd" /><circle cx="250.3" cy="304.4" r="4" fill="#9754dd" /><circle cx="263.4" cy="304.4" r="4" fill="#9754dd" /><circle cx="276.6" cy="304.4" r="4" fill="#9754dd" /><circle cx="289.7" cy="304.4" r="4" fill="#9754dd" /><circle cx="302.8" cy="304.4" r="4" fill="#9754dd" /><circle cx="315.9" cy="304.4" r="4" fill="#9754dd" /><circle cx="329.0" cy="304.4" r="4" fill="#9754dd" /><circle cx="342.1" cy="304.4" r="4" fill="#9754dd" /><circle cx="355.2" cy="304.4" r="4" fill="#9754dd" /><circle cx="368.3" cy="304.4" r="4" fill="#9754dd" /><circle cx="381.4" cy="304.4" r="4" fill="#9754dd" /><circle cx="394.5" cy="304.4" r="4" fill="#9754dd" /><circle cx="407.6" cy="304.4" r="4" fill="#9754dd" /><circle cx="420.7" cy="304.4" r="4" fill="#9754dd" /><circle cx="433.8" cy="304.4" r="4" fill="#9754dd" /><circle cx="446.9" cy="299.1" r="4" fill="#9754dd" /><circle cx="460.0" cy="299.1" r="4" fill="#9754dd" /><circle cx="473.1" cy="299.1" r="4" fill="#9754dd" /><circle cx="486.2" cy="298.9" r="4" fill="#9754dd" /><circle cx="499.3" cy="295.6" r="4" fill="#9754dd" /><circle cx="512.4" cy="295.6" r="4" fill="#9754dd" /><circle cx="525.5" cy="295.6" r="4" fill="#9754dd" /><circle cx="538.6" cy="295.6" r="4" fill="#9754dd" /><circle cx="551.7" cy="295.6" r="4" fill="#9754dd" /><circle cx="564.8" cy="295.6" r="4" fill="#9754dd" /><circle cx="577.9" cy="295.6" r="4" fill="#9754dd" /><circle cx="591.0" cy="295.6" r="4" fill="#9754dd" /><circle cx="604.1" cy="295.6" r="4" fill="#9754dd" /><circle cx="617.2" cy="295.8" r="4" fill="#9754dd" /><circle cx="630.3" cy="295.9" r="4" fill="#9754dd" /><circle cx="643.4" cy="295.9" r="4" fill="#9754dd" /><circle cx="656.6" cy="295.9" r="4" fill="#9754dd" /><circle cx="669.7" cy="295.9" r="4" fill="#9754dd" /><circle cx="682.8" cy="295.9" r="4" fill="#9754dd" /><circle cx="695.9" cy="295.9" r="4" fill="#9754dd" /><circle cx="709.0" cy="295.9" r="4" fill="#9754dd" /><circle cx="722.1" cy="295.9" r="4" fill="#9754dd" /><circle cx="735.2" cy="295.9" r="4" fill="#9754dd" /><circle cx="748.3" cy="295.9" r="4" fill="#9754dd" /><circle cx="761.4" cy="295.9" r="4" fill="#9754dd" /><circle cx="774.5" cy="295.9" r="4" fill="#9754dd" /><circle cx="787.6" cy="295.9" r="4" fill="#9754dd" /><circle cx="800.7" cy="295.9" r="4" fill="#9754dd" /><circle cx="813.8" cy="295.9" r="4" fill="#9754dd" /><circle cx="826.9" cy="295.9" r="4" fill="#9754dd" /><circle cx="840.0" cy="295.8" r="4" fill="#9754dd" />
  <rect x="80" y="339" width="10" height="10" rx="2" ry="2" fill="#19e5a1" /><text x="96" y="348" class="legend-label">Stars</text><rect x="250" y="339" width="10" height="10" rx="2" ry="2" fill="#6eb6ec" /><text x="266" y="348" class="legend-label">Followers</text><rect x="420" y="339" width="10" height="10" rx="2" ry="2" fill="#5938e2" /><text x="436" y="348" class="legend-label">Following</text><rect x="590" y="339" width="10" height="10" rx="2" ry="2" fill="#60e5e0" /><text x="606" y="348" class="legend-label">Contributions</text><rect x="80" y="357" width="10" height="10" rx="2" ry="2" fill="#567de1" /><text x="96" y="366" class="legend-label">Pull Requests</text><rect x="250" y="357" width="10" height="10" rx="2" ry="2" fill="#9754dd" /><text x="266" y="366" class="legend-label">Issues</text>
</svg>
