<svg width="900" height="402" viewBox="0 0 900 402" xmlns="http://www.w3.org/2000/svg">
  <defs>
    <linearGradient id="history-gradient" x1="0%" y1="0%" x2="100%" y2="100%">
      <stop offset="0%" style="stop-color:#58a6ff;stop-opacity:1" />
      <stop offset="100%" style="stop-color:#a371f7;stop-opacity:1" />
    </linearGradient>
    <clipPath id="history-rounded">
      <rect x="0" y="0" width="900" height="402" rx="8" ry="8" />
    </clipPath>
  </defs>
  <style>
    .title {
      font-family: 'Segoe UI', Ubuntu, 'Helvetica Neue', sans-serif;
      font-size: 22px;
      font-weight: 700;
      fill: #58a6ff;
    }
    .subtitle {
      font-family: 'Segoe UI', Ubuntu, 'Helvetica Neue', sans-serif;
      font-size: 12px;
      font-weight: 500;
      fill: #8b949e;
    }
    .axis-label {
      font-family: 'Segoe UI', Ubuntu, 'Helvetica Neue', sans-serif;
      font-size: 10px;
      fill: #8b949e;
    }
    .grid-line {
      stroke: #30363d;
      stroke-width: 1;
      opacity: 0.3;
    }
    .legend-label {
      font-family: 'Segoe UI', Ubuntu, 'Helvetica Neue', sans-serif;
      font-size: 11px;
      fill: #c9d1d9;
      dominant-baseline: middle;
    }
  </style>
  <rect clip-path="url(#history-rounded)" width="100%" height="100%" fill="#0d1117" stroke="#30363d" stroke-width="1" />
  <rect x="0" y="396" width="900" height="6" fill="url(#history-gradient)" clip-path="url(#history-rounded)" />
  <text x="24" y="34" class="title">Leonardo Klein Stats History</text>
  <text x="24" y="54" class="subtitle">Period: 2026-02-20 to 2026-03-11</text>
  <text x="72" y="320.0" text-anchor="end" dominant-baseline="central" class="axis-label">0</text><text x="72" y="270.0" text-anchor="end" dominant-baseline="central" class="axis-label">400</text><text x="72" y="220.0" text-anchor="end" dominant-baseline="central" class="axis-label">800</text><text x="72" y="170.0" text-anchor="end" dominant-baseline="central" class="axis-label">1.2k</text><text x="72" y="120.0" text-anchor="end" dominant-baseline="central" class="axis-label">1.6k</text><text x="72" y="70.0" text-anchor="end" dominant-baseline="central" class="axis-label">2.0k</text>
  <text x="80.0" y="336" text-anchor="middle" class="axis-label">02-20</text><text x="153.5" y="336" text-anchor="middle" class="axis-label">02-22</text><text x="227.1" y="336" text-anchor="middle" class="axis-label">02-24</text><text x="300.6" y="336" text-anchor="middle" class="axis-label">02-25</text><text x="374.2" y="336" text-anchor="middle" class="axis-label">02-27</text><text x="447.7" y="336" text-anchor="middle" class="axis-label">03-01</text><text x="521.3" y="336" text-anchor="middle" class="axis-label">03-03</text><text x="594.8" y="336" text-anchor="middle" class="axis-label">03-05</text><text x="668.4" y="336" text-anchor="middle" class="axis-label">03-06</text><text x="741.9" y="336" text-anchor="middle" class="axis-label">03-08</text><text x="815.5" y="336" text-anchor="middle" class="axis-label">03-10</text><text x="840.0" y="336" text-anchor="middle" class="axis-label">03-11</text>
  <line x1="80" y1="320.0" x2="840" y2="320.0" class="grid-line" /><line x1="80" y1="270.0" x2="840" y2="270.0" class="grid-line" /><line x1="80" y1="220.0" x2="840" y2="220.0" class="grid-line" /><line x1="80" y1="170.0" x2="840" y2="170.0" class="grid-line" /><line x1="80" y1="120.0" x2="840" y2="120.0" class="grid-line" /><line x1="80" y1="70.0" x2="840" y2="70.0" class="grid-line" />
  <polyline points="80.0,317.0 88.2,317.0 96.3,317.0 104.5,317.0 112.7,317.0 120.9,317.0 129.0,317.0 137.2,317.0 145.4,317.0 153.5,317.0 161.7,317.0 169.9,317.0 178.1,317.0 186.2,317.0 194.4,317.0 202.6,317.0 210.8,317.0 218.9,317.0 227.1,317.0 235.3,317.0 243.4,317.0 251.6,317.0 259.8,317.0 268.0,317.0 276.1,317.0 284.3,317.0 292.5,317.0 300.6,317.0 308.8,317.0 317.0,317.0 325.2,317.0 333.3,317.0 341.5,317.0 349.7,317.0 357.8,317.0 366.0,317.0 374.2,317.0 382.4,317.0 390.5,317.0 398.7,317.0 406.9,317.0 415.1,317.0 423.2,317.0 431.4,317.0 439.6,317.0 447.7,317.0 455.9,317.0 464.1,317.0 472.3,317.0 480.4,317.0 488.6,317.0 496.8,317.0 504.9,317.0 513.1,317.0 521.3,317.0 529.5,317.0 537.6,317.0 545.8,317.0 554.0,317.0 562.2,317.0 570.3,317.0 578.5,317.0 586.7,317.0 594.8,317.0 603.0,317.0 611.2,317.0 619.4,317.0 627.5,317.0 635.7,317.0 643.9,317.0 652.0,317.0 660.2,317.0 668.4,317.0 676.6,317.0 684.7,317.0 692.9,317.0 701.1,317.0 709.2,317.0 717.4,317.0 725.6,317.0 733.8,317.0 741.9,317.0 750.1,317.0 758.3,317.0 766.5,317.0 774.6,317.0 782.8,317.0 791.0,317.0 799.1,317.0 807.3,317.0 815.5,317.0 823.7,317.0 831.8,317.0 840.0,317.0" fill="none" stroke="#19e5a1" stroke-width="2.5" stroke-linecap="round" stroke-linejoin="round" /><circle cx="80.0" cy="317.0" r="4" fill="#19e5a1" /><circle cx="88.2" cy="317.0" r="4" fill="#19e5a1" /><circle cx="96.3" cy="317.0" r="4" fill="#19e5a1" /><circle cx="104.5" cy="317.0" r="4" fill="#19e5a1" /><circle cx="112.7" cy="317.0" r="4" fill="#19e5a1" /><circle cx="120.9" cy="317.0" r="4" fill="#19e5a1" /><circle cx="129.0" cy="317.0" r="4" fill="#19e5a1" /><circle cx="137.2" cy="317.0" r="4" fill="#19e5a1" /><circle cx="145.4" cy="317.0" r="4" fill="#19e5a1" /><circle cx="153.5" cy="317.0" r="4" fill="#19e5a1" /><circle cx="161.7" cy="317.0" r="4" fill="#19e5a1" /><circle cx="169.9" cy="317.0" r="4" fill="#19e5a1" /><circle cx="178.1" cy="317.0" r="4" fill="#19e5a1" /><circle cx="186.2" cy="317.0" r="4" fill="#19e5a1" /><circle cx="194.4" cy="317.0" r="4" fill="#19e5a1" /><circle cx="202.6" cy="317.0" r="4" fill="#19e5a1" /><circle cx="210.8" cy="317.0" r="4" fill="#19e5a1" /><circle cx="218.9" cy="317.0" r="4" fill="#19e5a1" /><circle cx="227.1" cy="317.0" r="4" fill="#19e5a1" /><circle cx="235.3" cy="317.0" r="4" fill="#19e5a1" /><circle cx="243.4" cy="317.0" r="4" fill="#19e5a1" /><circle cx="251.6" cy="317.0" r="4" fill="#19e5a1" /><circle cx="259.8" cy="317.0" r="4" fill="#19e5a1" /><circle cx="268.0" cy="317.0" r="4" fill="#19e5a1" /><circle cx="276.1" cy="317.0" r="4" fill="#19e5a1" /><circle cx="284.3" cy="317.0" r="4" fill="#19e5a1" /><circle cx="292.5" cy="317.0" r="4" fill="#19e5a1" /><circle cx="300.6" cy="317.0" r="4" fill="#19e5a1" /><circle cx="308.8" cy="317.0" r="4" fill="#19e5a1" /><circle cx="317.0" cy="317.0" r="4" fill="#19e5a1" /><circle cx="325.2" cy="317.0" r="4" fill="#19e5a1" /><circle cx="333.3" cy="317.0" r="4" fill="#19e5a1" /><circle cx="341.5" cy="317.0" r="4" fill="#19e5a1" /><circle cx="349.7" cy="317.0" r="4" fill="#19e5a1" /><circle cx="357.8" cy="317.0" r="4" fill="#19e5a1" /><circle cx="366.0" cy="317.0" r="4" fill="#19e5a1" /><circle cx="374.2" cy="317.0" r="4" fill="#19e5a1" /><circle cx="382.4" cy="317.0" r="4" fill="#19e5a1" /><circle cx="390.5" cy="317.0" r="4" fill="#19e5a1" /><circle cx="398.7" cy="317.0" r="4" fill="#19e5a1" /><circle cx="406.9" cy="317.0" r="4" fill="#19e5a1" /><circle cx="415.1" cy="317.0" r="4" fill="#19e5a1" /><circle cx="423.2" cy="317.0" r="4" fill="#19e5a1" /><circle cx="431.4" cy="317.0" r="4" fill="#19e5a1" /><circle cx="439.6" cy="317.0" r="4" fill="#19e5a1" /><circle cx="447.7" cy="317.0" r="4" fill="#19e5a1" /><circle cx="455.9" cy="317.0" r="4" fill="#19e5a1" /><circle cx="464.1" cy="317.0" r="4" fill="#19e5a1" /><circle cx="472.3" cy="317.0" r="4" fill="#19e5a1" /><circle cx="480.4" cy="317.0" r="4" fill="#19e5a1" /><circle cx="488.6" cy="317.0" r="4" fill="#19e5a1" /><circle cx="496.8" cy="317.0" r="4" fill="#19e5a1" /><circle cx="504.9" cy="317.0" r="4" fill="#19e5a1" /><circle cx="513.1" cy="317.0" r="4" fill="#19e5a1" /><circle cx="521.3" cy="317.0" r="4" fill="#19e5a1" /><circle cx="529.5" cy="317.0" r="4" fill="#19e5a1" /><circle cx="537.6" cy="317.0" r="4" fill="#19e5a1" /><circle cx="545.8" cy="317.0" r="4" fill="#19e5a1" /><circle cx="554.0" cy="317.0" r="4" fill="#19e5a1" /><circle cx="562.2" cy="317.0" r="4" fill="#19e5a1" /><circle cx="570.3" cy="317.0" r="4" fill="#19e5a1" /><circle cx="578.5" cy="317.0" r="4" fill="#19e5a1" /><circle cx="586.7" cy="317.0" r="4" fill="#19e5a1" /><circle cx="594.8" cy="317.0" r="4" fill="#19e5a1" /><circle cx="603.0" cy="317.0" r="4" fill="#19e5a1" /><circle cx="611.2" cy="317.0" r="4" fill="#19e5a1" /><circle cx="619.4" cy="317.0" r="4" fill="#19e5a1" /><circle cx="627.5" cy="317.0" r="4" fill="#19e5a1" /><circle cx="635.7" cy="317.0" r="4" fill="#19e5a1" /><circle cx="643.9" cy="317.0" r="4" fill="#19e5a1" /><circle cx="652.0" cy="317.0" r="4" fill="#19e5a1" /><circle cx="660.2" cy="317.0" r="4" fill="#19e5a1" /><circle cx="668.4" cy="317.0" r="4" fill="#19e5a1" /><circle cx="676.6" cy="317.0" r="4" fill="#19e5a1" /><circle cx="684.7" cy="317.0" r="4" fill="#19e5a1" /><circle cx="692.9" cy="317.0" r="4" fill="#19e5a1" /><circle cx="701.1" cy="317.0" r="4" fill="#19e5a1" /><circle cx="709.2" cy="317.0" r="4" fill="#19e5a1" /><circle cx="717.4" cy="317.0" r="4" fill="#19e5a1" /><circle cx="725.6" cy="317.0" r="4" fill="#19e5a1" /><circle cx="733.8" cy="317.0" r="4" fill="#19e5a1" /><circle cx="741.9" cy="317.0" r="4" fill="#19e5a1" /><circle cx="750.1" cy="317.0" r="4" fill="#19e5a1" /><circle cx="758.3" cy="317.0" r="4" fill="#19e5a1" /><circle cx="766.5" cy="317.0" r="4" fill="#19e5a1" /><circle cx="774.6" cy="317.0" r="4" fill="#19e5a1" /><circle cx="782.8" cy="317.0" r="4" fill="#19e5a1" /><circle cx="791.0" cy="317.0" r="4" fill="#19e5a1" /><circle cx="799.1" cy="317.0" r="4" fill="#19e5a1" /><circle cx="807.3" cy="317.0" r="4" fill="#19e5a1" /><circle cx="815.5" cy="317.0" r="4" fill="#19e5a1" /><circle cx="823.7" cy="317.0" r="4" fill="#19e5a1" /><circle cx="831.8" cy="317.0" r="4" fill="#19e5a1" /><circle cx="840.0" cy="317.0" r="4" fill="#19e5a1" /><polyline points="80.0,313.2 88.2,312.2 96.3,312.1 104.5,312.4 112.7,312.4 120.9,312.4 129.0,312.1 137.2,312.0 145.4,311.9 153.5,311.9 161.7,311.8 169.9,311.8 178.1,311.5 186.2,311.5 194.4,311.5 202.6,311.2 210.8,311.2 218.9,311.1 227.1,311.1 235.3,311.1 243.4,310.9 251.6,311.0 259.8,310.8 268.0,310.8 276.1,310.8 284.3,310.8 292.5,310.4 300.6,310.2 308.8,310.4 317.0,310.4 325.2,310.4 333.3,310.4 341.5,310.4 349.7,310.2 357.8,310.2 366.0,310.1 374.2,310.1 382.4,309.8 390.5,309.6 398.7,309.6 406.9,309.6 415.1,309.6 423.2,309.5 431.4,309.4 439.6,309.4 447.7,309.4 455.9,309.4 464.1,309.2 472.3,309.2 480.4,309.2 488.6,309.4 496.8,309.4 504.9,309.5 513.1,309.2 521.3,309.2 529.5,309.4 537.6,309.2 545.8,309.2 554.0,309.2 562.2,309.2 570.3,309.2 578.5,309.1 586.7,309.1 594.8,309.1 603.0,309.1 611.2,309.0 619.4,309.0 627.5,308.9 635.7,308.9 643.9,308.9 652.0,308.6 660.2,308.6 668.4,308.6 676.6,308.6 684.7,308.6 692.9,308.6 701.1,308.6 709.2,308.6 717.4,308.6 725.6,308.6 733.8,308.6 741.9,308.6 750.1,308.6 758.3,307.8 766.5,307.8 774.6,307.6 782.8,307.6 791.0,307.6 799.1,307.5 807.3,307.5 815.5,307.6 823.7,308.5 831.8,308.5 840.0,308.4" fill="none" stroke="#6eb6ec" stroke-width="2.5" stroke-linecap="round" stroke-linejoin="round" /><circle cx="80.0" cy="313.2" r="4" fill="#6eb6ec" /><circle cx="88.2" cy="312.2" r="4" fill="#6eb6ec" /><circle cx="96.3" cy="312.1" r="4" fill="#6eb6ec" /><circle cx="104.5" cy="312.4" r="4" fill="#6eb6ec" /><circle cx="112.7" cy="312.4" r="4" fill="#6eb6ec" /><circle cx="120.9" cy="312.4" r="4" fill="#6eb6ec" /><circle cx="129.0" cy="312.1" r="4" fill="#6eb6ec" /><circle cx="137.2" cy="312.0" r="4" fill="#6eb6ec" /><circle cx="145.4" cy="311.9" r="4" fill="#6eb6ec" /><circle cx="153.5" cy="311.9" r="4" fill="#6eb6ec" /><circle cx="161.7" cy="311.8" r="4" fill="#6eb6ec" /><circle cx="169.9" cy="311.8" r="4" fill="#6eb6ec" /><circle cx="178.1" cy="311.5" r="4" fill="#6eb6ec" /><circle cx="186.2" cy="311.5" r="4" fill="#6eb6ec" /><circle cx="194.4" cy="311.5" r="4" fill="#6eb6ec" /><circle cx="202.6" cy="311.2" r="4" fill="#6eb6ec" /><circle cx="210.8" cy="311.2" r="4" fill="#6eb6ec" /><circle cx="218.9" cy="311.1" r="4" fill="#6eb6ec" /><circle cx="227.1" cy="311.1" r="4" fill="#6eb6ec" /><circle cx="235.3" cy="311.1" r="4" fill="#6eb6ec" /><circle cx="243.4" cy="310.9" r="4" fill="#6eb6ec" /><circle cx="251.6" cy="311.0" r="4" fill="#6eb6ec" /><circle cx="259.8" cy="310.8" r="4" fill="#6eb6ec" /><circle cx="268.0" cy="310.8" r="4" fill="#6eb6ec" /><circle cx="276.1" cy="310.8" r="4" fill="#6eb6ec" /><circle cx="284.3" cy="310.8" r="4" fill="#6eb6ec" /><circle cx="292.5" cy="310.4" r="4" fill="#6eb6ec" /><circle cx="300.6" cy="310.2" r="4" fill="#6eb6ec" /><circle cx="308.8" cy="310.4" r="4" fill="#6eb6ec" /><circle cx="317.0" cy="310.4" r="4" fill="#6eb6ec" /><circle cx="325.2" cy="310.4" r="4" fill="#6eb6ec" /><circle cx="333.3" cy="310.4" r="4" fill="#6eb6ec" /><circle cx="341.5" cy="310.4" r="4" fill="#6eb6ec" /><circle cx="349.7" cy="310.2" r="4" fill="#6eb6ec" /><circle cx="357.8" cy="310.2" r="4" fill="#6eb6ec" /><circle cx="366.0" cy="310.1" r="4" fill="#6eb6ec" /><circle cx="374.2" cy="310.1" r="4" fill="#6eb6ec" /><circle cx="382.4" cy="309.8" r="4" fill="#6eb6ec" /><circle cx="390.5" cy="309.6" r="4" fill="#6eb6ec" /><circle cx="398.7" cy="309.6" r="4" fill="#6eb6ec" /><circle cx="406.9" cy="309.6" r="4" fill="#6eb6ec" /><circle cx="415.1" cy="309.6" r="4" fill="#6eb6ec" /><circle cx="423.2" cy="309.5" r="4" fill="#6eb6ec" /><circle cx="431.4" cy="309.4" r="4" fill="#6eb6ec" /><circle cx="439.6" cy="309.4" r="4" fill="#6eb6ec" /><circle cx="447.7" cy="309.4" r="4" fill="#6eb6ec" /><circle cx="455.9" cy="309.4" r="4" fill="#6eb6ec" /><circle cx="464.1" cy="309.2" r="4" fill="#6eb6ec" /><circle cx="472.3" cy="309.2" r="4" fill="#6eb6ec" /><circle cx="480.4" cy="309.2" r="4" fill="#6eb6ec" /><circle cx="488.6" cy="309.4" r="4" fill="#6eb6ec" /><circle cx="496.8" cy="309.4" r="4" fill="#6eb6ec" /><circle cx="504.9" cy="309.5" r="4" fill="#6eb6ec" /><circle cx="513.1" cy="309.2" r="4" fill="#6eb6ec" /><circle cx="521.3" cy="309.2" r="4" fill="#6eb6ec" /><circle cx="529.5" cy="309.4" r="4" fill="#6eb6ec" /><circle cx="537.6" cy="309.2" r="4" fill="#6eb6ec" /><circle cx="545.8" cy="309.2" r="4" fill="#6eb6ec" /><circle cx="554.0" cy="309.2" r="4" fill="#6eb6ec" /><circle cx="562.2" cy="309.2" r="4" fill="#6eb6ec" /><circle cx="570.3" cy="309.2" r="4" fill="#6eb6ec" /><circle cx="578.5" cy="309.1" r="4" fill="#6eb6ec" /><circle cx="586.7" cy="309.1" r="4" fill="#6eb6ec" /><circle cx="594.8" cy="309.1" r="4" fill="#6eb6ec" /><circle cx="603.0" cy="309.1" r="4" fill="#6eb6ec" /><circle cx="611.2" cy="309.0" r="4" fill="#6eb6ec" /><circle cx="619.4" cy="309.0" r="4" fill="#6eb6ec" /><circle cx="627.5" cy="308.9" r="4" fill="#6eb6ec" /><circle cx="635.7" cy="308.9" r="4" fill="#6eb6ec" /><circle cx="643.9" cy="308.9" r="4" fill="#6eb6ec" /><circle cx="652.0" cy="308.6" r="4" fill="#6eb6ec" /><circle cx="660.2" cy="308.6" r="4" fill="#6eb6ec" /><circle cx="668.4" cy="308.6" r="4" fill="#6eb6ec" /><circle cx="676.6" cy="308.6" r="4" fill="#6eb6ec" /><circle cx="684.7" cy="308.6" r="4" fill="#6eb6ec" /><circle cx="692.9" cy="308.6" r="4" fill="#6eb6ec" /><circle cx="701.1" cy="308.6" r="4" fill="#6eb6ec" /><circle cx="709.2" cy="308.6" r="4" fill="#6eb6ec" /><circle cx="717.4" cy="308.6" r="4" fill="#6eb6ec" /><circle cx="725.6" cy="308.6" r="4" fill="#6eb6ec" /><circle cx="733.8" cy="308.6" r="4" fill="#6eb6ec" /><circle cx="741.9" cy="308.6" r="4" fill="#6eb6ec" /><circle cx="750.1" cy="308.6" r="4" fill="#6eb6ec" /><circle cx="758.3" cy="307.8" r="4" fill="#6eb6ec" /><circle cx="766.5" cy="307.8" r="4" fill="#6eb6ec" /><circle cx="774.6" cy="307.6" r="4" fill="#6eb6ec" /><circle cx="782.8" cy="307.6" r="4" fill="#6eb6ec" /><circle cx="791.0" cy="307.6" r="4" fill="#6eb6ec" /><circle cx="799.1" cy="307.5" r="4" fill="#6eb6ec" /><circle cx="807.3" cy="307.5" r="4" fill="#6eb6ec" /><circle cx="815.5" cy="307.6" r="4" fill="#6eb6ec" /><circle cx="823.7" cy="308.5" r="4" fill="#6eb6ec" /><circle cx="831.8" cy="308.5" r="4" fill="#6eb6ec" /><circle cx="840.0" cy="308.4" r="4" fill="#6eb6ec" /><polyline points="80.0,305.8 88.2,305.8 96.3,305.8 104.5,305.8 112.7,305.8 120.9,305.8 129.0,305.8 137.2,305.8 145.4,305.8 153.5,305.8 161.7,304.9 169.9,304.9 178.1,304.9 186.2,304.9 194.4,304.9 202.6,304.9 210.8,304.9 218.9,304.9 227.1,304.9 235.3,304.9 243.4,304.9 251.6,304.9 259.8,304.9 268.0,304.9 276.1,304.9 284.3,304.9 292.5,304.9 300.6,304.9 308.8,304.9 317.0,304.9 325.2,304.9 333.3,304.9 341.5,304.9 349.7,304.9 357.8,304.9 366.0,304.9 374.2,304.9 382.4,303.6 390.5,303.6 398.7,303.6 406.9,303.6 415.1,303.6 423.2,303.6 431.4,303.6 439.6,303.6 447.7,303.6 455.9,303.6 464.1,303.6 472.3,303.6 480.4,303.6 488.6,303.6 496.8,302.9 504.9,302.9 513.1,298.0 521.3,298.0 529.5,298.0 537.6,298.0 545.8,298.0 554.0,298.0 562.2,298.0 570.3,298.0 578.5,298.0 586.7,298.0 594.8,298.0 603.0,298.0 611.2,298.0 619.4,298.0 627.5,297.8 635.7,297.8 643.9,297.8 652.0,297.8 660.2,297.8 668.4,297.8 676.6,297.8 684.7,297.8 692.9,297.8 701.1,297.8 709.2,297.8 717.4,297.8 725.6,297.8 733.8,297.8 741.9,297.8 750.1,297.8 758.3,297.8 766.5,297.8 774.6,297.8 782.8,297.6 791.0,297.8 799.1,297.8 807.3,297.8 815.5,297.9 823.7,297.9 831.8,297.9 840.0,296.1" fill="none" stroke="#5938e2" stroke-width="2.5" stroke-linecap="round" stroke-linejoin="round" /><circle cx="80.0" cy="305.8" r="4" fill="#5938e2" /><circle cx="88.2" cy="305.8" r="4" fill="#5938e2" /><circle cx="96.3" cy="305.8" r="4" fill="#5938e2" /><circle cx="104.5" cy="305.8" r="4" fill="#5938e2" /><circle cx="112.7" cy="305.8" r="4" fill="#5938e2" /><circle cx="120.9" cy="305.8" r="4" fill="#5938e2" /><circle cx="129.0" cy="305.8" r="4" fill="#5938e2" /><circle cx="137.2" cy="305.8" r="4" fill="#5938e2" /><circle cx="145.4" cy="305.8" r="4" fill="#5938e2" /><circle cx="153.5" cy="305.8" r="4" fill="#5938e2" /><circle cx="161.7" cy="304.9" r="4" fill="#5938e2" /><circle cx="169.9" cy="304.9" r="4" fill="#5938e2" /><circle cx="178.1" cy="304.9" r="4" fill="#5938e2" /><circle cx="186.2" cy="304.9" r="4" fill="#5938e2" /><circle cx="194.4" cy="304.9" r="4" fill="#5938e2" /><circle cx="202.6" cy="304.9" r="4" fill="#5938e2" /><circle cx="210.8" cy="304.9" r="4" fill="#5938e2" /><circle cx="218.9" cy="304.9" r="4" fill="#5938e2" /><circle cx="227.1" cy="304.9" r="4" fill="#5938e2" /><circle cx="235.3" cy="304.9" r="4" fill="#5938e2" /><circle cx="243.4" cy="304.9" r="4" fill="#5938e2" /><circle cx="251.6" cy="304.9" r="4" fill="#5938e2" /><circle cx="259.8" cy="304.9" r="4" fill="#5938e2" /><circle cx="268.0" cy="304.9" r="4" fill="#5938e2" /><circle cx="276.1" cy="304.9" r="4" fill="#5938e2" /><circle cx="284.3" cy="304.9" r="4" fill="#5938e2" /><circle cx="292.5" cy="304.9" r="4" fill="#5938e2" /><circle cx="300.6" cy="304.9" r="4" fill="#5938e2" /><circle cx="308.8" cy="304.9" r="4" fill="#5938e2" /><circle cx="317.0" cy="304.9" r="4" fill="#5938e2" /><circle cx="325.2" cy="304.9" r="4" fill="#5938e2" /><circle cx="333.3" cy="304.9" r="4" fill="#5938e2" /><circle cx="341.5" cy="304.9" r="4" fill="#5938e2" /><circle cx="349.7" cy="304.9" r="4" fill="#5938e2" /><circle cx="357.8" cy="304.9" r="4" fill="#5938e2" /><circle cx="366.0" cy="304.9" r="4" fill="#5938e2" /><circle cx="374.2" cy="304.9" r="4" fill="#5938e2" /><circle cx="382.4" cy="303.6" r="4" fill="#5938e2" /><circle cx="390.5" cy="303.6" r="4" fill="#5938e2" /><circle cx="398.7" cy="303.6" r="4" fill="#5938e2" /><circle cx="406.9" cy="303.6" r="4" fill="#5938e2" /><circle cx="415.1" cy="303.6" r="4" fill="#5938e2" /><circle cx="423.2" cy="303.6" r="4" fill="#5938e2" /><circle cx="431.4" cy="303.6" r="4" fill="#5938e2" /><circle cx="439.6" cy="303.6" r="4" fill="#5938e2" /><circle cx="447.7" cy="303.6" r="4" fill="#5938e2" /><circle cx="455.9" cy="303.6" r="4" fill="#5938e2" /><circle cx="464.1" cy="303.6" r="4" fill="#5938e2" /><circle cx="472.3" cy="303.6" r="4" fill="#5938e2" /><circle cx="480.4" cy="303.6" r="4" fill="#5938e2" /><circle cx="488.6" cy="303.6" r="4" fill="#5938e2" /><circle cx="496.8" cy="302.9" r="4" fill="#5938e2" /><circle cx="504.9" cy="302.9" r="4" fill="#5938e2" /><circle cx="513.1" cy="298.0" r="4" fill="#5938e2" /><circle cx="521.3" cy="298.0" r="4" fill="#5938e2" /><circle cx="529.5" cy="298.0" r="4" fill="#5938e2" /><circle cx="537.6" cy="298.0" r="4" fill="#5938e2" /><circle cx="545.8" cy="298.0" r="4" fill="#5938e2" /><circle cx="554.0" cy="298.0" r="4" fill="#5938e2" /><circle cx="562.2" cy="298.0" r="4" fill="#5938e2" /><circle cx="570.3" cy="298.0" r="4" fill="#5938e2" /><circle cx="578.5" cy="298.0" r="4" fill="#5938e2" /><circle cx="586.7" cy="298.0" r="4" fill="#5938e2" /><circle cx="594.8" cy="298.0" r="4" fill="#5938e2" /><circle cx="603.0" cy="298.0" r="4" fill="#5938e2" /><circle cx="611.2" cy="298.0" r="4" fill="#5938e2" /><circle cx="619.4" cy="298.0" r="4" fill="#5938e2" /><circle cx="627.5" cy="297.8" r="4" fill="#5938e2" /><circle cx="635.7" cy="297.8" r="4" fill="#5938e2" /><circle cx="643.9" cy="297.8" r="4" fill="#5938e2" /><circle cx="652.0" cy="297.8" r="4" fill="#5938e2" /><circle cx="660.2" cy="297.8" r="4" fill="#5938e2" /><circle cx="668.4" cy="297.8" r="4" fill="#5938e2" /><circle cx="676.6" cy="297.8" r="4" fill="#5938e2" /><circle cx="684.7" cy="297.8" r="4" fill="#5938e2" /><circle cx="692.9" cy="297.8" r="4" fill="#5938e2" /><circle cx="701.1" cy="297.8" r="4" fill="#5938e2" /><circle cx="709.2" cy="297.8" r="4" fill="#5938e2" /><circle cx="717.4" cy="297.8" r="4" fill="#5938e2" /><circle cx="725.6" cy="297.8" r="4" fill="#5938e2" /><circle cx="733.8" cy="297.8" r="4" fill="#5938e2" /><circle cx="741.9" cy="297.8" r="4" fill="#5938e2" /><circle cx="750.1" cy="297.8" r="4" fill="#5938e2" /><circle cx="758.3" cy="297.8" r="4" fill="#5938e2" /><circle cx="766.5" cy="297.8" r="4" fill="#5938e2" /><circle cx="774.6" cy="297.8" r="4" fill="#5938e2" /><circle cx="782.8" cy="297.6" r="4" fill="#5938e2" /><circle cx="791.0" cy="297.8" r="4" fill="#5938e2" /><circle cx="799.1" cy="297.8" r="4" fill="#5938e2" /><circle cx="807.3" cy="297.8" r="4" fill="#5938e2" /><circle cx="815.5" cy="297.9" r="4" fill="#5938e2" /><circle cx="823.7" cy="297.9" r="4" fill="#5938e2" /><circle cx="831.8" cy="297.9" r="4" fill="#5938e2" /><circle cx="840.0" cy="296.1" r="4" fill="#5938e2" /><polyline points="80.0,144.6 88.2,140.1 96.3,139.9 104.5,139.8 112.7,139.8 120.9,139.6 129.0,139.6 137.2,139.6 145.4,139.6 153.5,139.6 161.7,138.4 169.9,138.4 178.1,138.4 186.2,138.4 194.4,138.4 202.6,138.4 210.8,138.4 218.9,137.4 227.1,137.4 235.3,137.4 243.4,137.4 251.6,137.4 259.8,137.4 268.0,137.4 276.1,137.4 284.3,137.4 292.5,137.4 300.6,137.4 308.8,131.2 317.0,131.2 325.2,130.8 333.3,130.4 341.5,126.9 349.7,126.9 357.8,126.9 366.0,126.9 374.2,126.9 382.4,126.9 390.5,126.9 398.7,126.9 406.9,126.9 415.1,126.8 423.2,122.1 431.4,120.4 439.6,120.4 447.7,120.4 455.9,120.4 464.1,120.4 472.3,119.4 480.4,119.4 488.6,119.4 496.8,119.4 504.9,119.1 513.1,118.8 521.3,118.8 529.5,117.8 537.6,117.8 545.8,117.8 554.0,115.8 562.2,115.8 570.3,115.0 578.5,115.0 586.7,115.0 594.8,115.0 603.0,115.0 611.2,115.0 619.4,115.0 627.5,113.9 635.7,111.8 643.9,111.8 652.0,111.8 660.2,111.8 668.4,111.8 676.6,111.8 684.7,111.8 692.9,111.8 701.1,111.8 709.2,111.8 717.4,110.6 725.6,110.6 733.8,110.6 741.9,110.6 750.1,110.6 758.3,109.4 766.5,109.4 774.6,109.4 782.8,109.4 791.0,109.2 799.1,109.2 807.3,109.2 815.5,109.2 823.7,109.2 831.8,109.2 840.0,109.2" fill="none" stroke="#60e5e0" stroke-width="2.5" stroke-linecap="round" stroke-linejoin="round" /><circle cx="80.0" cy="144.6" r="4" fill="#60e5e0" /><circle cx="88.2" cy="140.1" r="4" fill="#60e5e0" /><circle cx="96.3" cy="139.9" r="4" fill="#60e5e0" /><circle cx="104.5" cy="139.8" r="4" fill="#60e5e0" /><circle cx="112.7" cy="139.8" r="4" fill="#60e5e0" /><circle cx="120.9" cy="139.6" r="4" fill="#60e5e0" /><circle cx="129.0" cy="139.6" r="4" fill="#60e5e0" /><circle cx="137.2" cy="139.6" r="4" fill="#60e5e0" /><circle cx="145.4" cy="139.6" r="4" fill="#60e5e0" /><circle cx="153.5" cy="139.6" r="4" fill="#60e5e0" /><circle cx="161.7" cy="138.4" r="4" fill="#60e5e0" /><circle cx="169.9" cy="138.4" r="4" fill="#60e5e0" /><circle cx="178.1" cy="138.4" r="4" fill="#60e5e0" /><circle cx="186.2" cy="138.4" r="4" fill="#60e5e0" /><circle cx="194.4" cy="138.4" r="4" fill="#60e5e0" /><circle cx="202.6" cy="138.4" r="4" fill="#60e5e0" /><circle cx="210.8" cy="138.4" r="4" fill="#60e5e0" /><circle cx="218.9" cy="137.4" r="4" fill="#60e5e0" /><circle cx="227.1" cy="137.4" r="4" fill="#60e5e0" /><circle cx="235.3" cy="137.4" r="4" fill="#60e5e0" /><circle cx="243.4" cy="137.4" r="4" fill="#60e5e0" /><circle cx="251.6" cy="137.4" r="4" fill="#60e5e0" /><circle cx="259.8" cy="137.4" r="4" fill="#60e5e0" /><circle cx="268.0" cy="137.4" r="4" fill="#60e5e0" /><circle cx="276.1" cy="137.4" r="4" fill="#60e5e0" /><circle cx="284.3" cy="137.4" r="4" fill="#60e5e0" /><circle cx="292.5" cy="137.4" r="4" fill="#60e5e0" /><circle cx="300.6" cy="137.4" r="4" fill="#60e5e0" /><circle cx="308.8" cy="131.2" r="4" fill="#60e5e0" /><circle cx="317.0" cy="131.2" r="4" fill="#60e5e0" /><circle cx="325.2" cy="130.8" r="4" fill="#60e5e0" /><circle cx="333.3" cy="130.4" r="4" fill="#60e5e0" /><circle cx="341.5" cy="126.9" r="4" fill="#60e5e0" /><circle cx="349.7" cy="126.9" r="4" fill="#60e5e0" /><circle cx="357.8" cy="126.9" r="4" fill="#60e5e0" /><circle cx="366.0" cy="126.9" r="4" fill="#60e5e0" /><circle cx="374.2" cy="126.9" r="4" fill="#60e5e0" /><circle cx="382.4" cy="126.9" r="4" fill="#60e5e0" /><circle cx="390.5" cy="126.9" r="4" fill="#60e5e0" /><circle cx="398.7" cy="126.9" r="4" fill="#60e5e0" /><circle cx="406.9" cy="126.9" r="4" fill="#60e5e0" /><circle cx="415.1" cy="126.8" r="4" fill="#60e5e0" /><circle cx="423.2" cy="122.1" r="4" fill="#60e5e0" /><circle cx="431.4" cy="120.4" r="4" fill="#60e5e0" /><circle cx="439.6" cy="120.4" r="4" fill="#60e5e0" /><circle cx="447.7" cy="120.4" r="4" fill="#60e5e0" /><circle cx="455.9" cy="120.4" r="4" fill="#60e5e0" /><circle cx="464.1" cy="120.4" r="4" fill="#60e5e0" /><circle cx="472.3" cy="119.4" r="4" fill="#60e5e0" /><circle cx="480.4" cy="119.4" r="4" fill="#60e5e0" /><circle cx="488.6" cy="119.4" r="4" fill="#60e5e0" /><circle cx="496.8" cy="119.4" r="4" fill="#60e5e0" /><circle cx="504.9" cy="119.1" r="4" fill="#60e5e0" /><circle cx="513.1" cy="118.8" r="4" fill="#60e5e0" /><circle cx="521.3" cy="118.8" r="4" fill="#60e5e0" /><circle cx="529.5" cy="117.8" r="4" fill="#60e5e0" /><circle cx="537.6" cy="117.8" r="4" fill="#60e5e0" /><circle cx="545.8" cy="117.8" r="4" fill="#60e5e0" /><circle cx="554.0" cy="115.8" r="4" fill="#60e5e0" /><circle cx="562.2" cy="115.8" r="4" fill="#60e5e0" /><circle cx="570.3" cy="115.0" r="4" fill="#60e5e0" /><circle cx="578.5" cy="115.0" r="4" fill="#60e5e0" /><circle cx="586.7" cy="115.0" r="4" fill="#60e5e0" /><circle cx="594.8" cy="115.0" r="4" fill="#60e5e0" /><circle cx="603.0" cy="115.0" r="4" fill="#60e5e0" /><circle cx="611.2" cy="115.0" r="4" fill="#60e5e0" /><circle cx="619.4" cy="115.0" r="4" fill="#60e5e0" /><circle cx="627.5" cy="113.9" r="4" fill="#60e5e0" /><circle cx="635.7" cy="111.8" r="4" fill="#60e5e0" /><circle cx="643.9" cy="111.8" r="4" fill="#60e5e0" /><circle cx="652.0" cy="111.8" r="4" fill="#60e5e0" /><circle cx="660.2" cy="111.8" r="4" fill="#60e5e0" /><circle cx="668.4" cy="111.8" r="4" fill="#60e5e0" /><circle cx="676.6" cy="111.8" r="4" fill="#60e5e0" /><circle cx="684.7" cy="111.8" r="4" fill="#60e5e0" /><circle cx="692.9" cy="111.8" r="4" fill="#60e5e0" /><circle cx="701.1" cy="111.8" r="4" fill="#60e5e0" /><circle cx="709.2" cy="111.8" r="4" fill="#60e5e0" /><circle cx="717.4" cy="110.6" r="4" fill="#60e5e0" /><circle cx="725.6" cy="110.6" r="4" fill="#60e5e0" /><circle cx="733.8" cy="110.6" r="4" fill="#60e5e0" /><circle cx="741.9" cy="110.6" r="4" fill="#60e5e0" /><circle cx="750.1" cy="110.6" r="4" fill="#60e5e0" /><circle cx="758.3" cy="109.4" r="4" fill="#60e5e0" /><circle cx="766.5" cy="109.4" r="4" fill="#60e5e0" /><circle cx="774.6" cy="109.4" r="4" fill="#60e5e0" /><circle cx="782.8" cy="109.4" r="4" fill="#60e5e0" /><circle cx="791.0" cy="109.2" r="4" fill="#60e5e0" /><circle cx="799.1" cy="109.2" r="4" fill="#60e5e0" /><circle cx="807.3" cy="109.2" r="4" fill="#60e5e0" /><circle cx="815.5" cy="109.2" r="4" fill="#60e5e0" /><circle cx="823.7" cy="109.2" r="4" fill="#60e5e0" /><circle cx="831.8" cy="109.2" r="4" fill="#60e5e0" /><circle cx="840.0" cy="109.2" r="4" fill="#60e5e0" /><polyline points="80.0,314.6 88.2,314.4 96.3,314.2 104.5,314.2 112.7,314.2 120.9,314.1 129.0,314.1 137.2,314.1 145.4,314.1 153.5,314.1 161.7,314.0 169.9,314.0 178.1,314.0 186.2,314.0 194.4,314.0 202.6,314.0 210.8,314.0 218.9,314.0 227.1,314.0 235.3,314.0 243.4,314.0 251.6,314.0 259.8,314.0 268.0,314.0 276.1,314.0 284.3,314.0 292.5,314.0 300.6,314.0 308.8,314.0 317.0,314.0 325.2,314.0 333.3,314.0 341.5,314.0 349.7,314.0 357.8,314.0 366.0,314.0 374.2,314.0 382.4,314.0 390.5,314.0 398.7,314.0 406.9,314.0 415.1,313.9 423.2,313.6 431.4,313.4 439.6,313.4 447.7,313.4 455.9,313.4 464.1,313.4 472.3,313.1 480.4,313.1 488.6,313.1 496.8,313.1 504.9,313.1 513.1,313.0 521.3,313.0 529.5,312.9 537.6,312.9 545.8,312.9 554.0,312.8 562.2,312.8 570.3,312.6 578.5,312.6 586.7,312.6 594.8,312.6 603.0,312.6 611.2,312.6 619.4,312.6 627.5,312.5 635.7,312.1 643.9,312.1 652.0,312.1 660.2,312.1 668.4,312.1 676.6,312.1 684.7,312.1 692.9,312.1 701.1,312.1 709.2,312.1 717.4,312.0 725.6,312.0 733.8,312.0 741.9,312.0 750.1,312.0 758.3,312.0 766.5,312.0 774.6,312.0 782.8,312.0 791.0,312.0 799.1,312.0 807.3,312.0 815.5,312.0 823.7,312.0 831.8,312.0 840.0,312.0" fill="none" stroke="#567de1" stroke-width="2.5" stroke-linecap="round" stroke-linejoin="round" /><circle cx="80.0" cy="314.6" r="4" fill="#567de1" /><circle cx="88.2" cy="314.4" r="4" fill="#567de1" /><circle cx="96.3" cy="314.2" r="4" fill="#567de1" /><circle cx="104.5" cy="314.2" r="4" fill="#567de1" /><circle cx="112.7" cy="314.2" r="4" fill="#567de1" /><circle cx="120.9" cy="314.1" r="4" fill="#567de1" /><circle cx="129.0" cy="314.1" r="4" fill="#567de1" /><circle cx="137.2" cy="314.1" r="4" fill="#567de1" /><circle cx="145.4" cy="314.1" r="4" fill="#567de1" /><circle cx="153.5" cy="314.1" r="4" fill="#567de1" /><circle cx="161.7" cy="314.0" r="4" fill="#567de1" /><circle cx="169.9" cy="314.0" r="4" fill="#567de1" /><circle cx="178.1" cy="314.0" r="4" fill="#567de1" /><circle cx="186.2" cy="314.0" r="4" fill="#567de1" /><circle cx="194.4" cy="314.0" r="4" fill="#567de1" /><circle cx="202.6" cy="314.0" r="4" fill="#567de1" /><circle cx="210.8" cy="314.0" r="4" fill="#567de1" /><circle cx="218.9" cy="314.0" r="4" fill="#567de1" /><circle cx="227.1" cy="314.0" r="4" fill="#567de1" /><circle cx="235.3" cy="314.0" r="4" fill="#567de1" /><circle cx="243.4" cy="314.0" r="4" fill="#567de1" /><circle cx="251.6" cy="314.0" r="4" fill="#567de1" /><circle cx="259.8" cy="314.0" r="4" fill="#567de1" /><circle cx="268.0" cy="314.0" r="4" fill="#567de1" /><circle cx="276.1" cy="314.0" r="4" fill="#567de1" /><circle cx="284.3" cy="314.0" r="4" fill="#567de1" /><circle cx="292.5" cy="314.0" r="4" fill="#567de1" /><circle cx="300.6" cy="314.0" r="4" fill="#567de1" /><circle cx="308.8" cy="314.0" r="4" fill="#567de1" /><circle cx="317.0" cy="314.0" r="4" fill="#567de1" /><circle cx="325.2" cy="314.0" r="4" fill="#567de1" /><circle cx="333.3" cy="314.0" r="4" fill="#567de1" /><circle cx="341.5" cy="314.0" r="4" fill="#567de1" /><circle cx="349.7" cy="314.0" r="4" fill="#567de1" /><circle cx="357.8" cy="314.0" r="4" fill="#567de1" /><circle cx="366.0" cy="314.0" r="4" fill="#567de1" /><circle cx="374.2" cy="314.0" r="4" fill="#567de1" /><circle cx="382.4" cy="314.0" r="4" fill="#567de1" /><circle cx="390.5" cy="314.0" r="4" fill="#567de1" /><circle cx="398.7" cy="314.0" r="4" fill="#567de1" /><circle cx="406.9" cy="314.0" r="4" fill="#567de1" /><circle cx="415.1" cy="313.9" r="4" fill="#567de1" /><circle cx="423.2" cy="313.6" r="4" fill="#567de1" /><circle cx="431.4" cy="313.4" r="4" fill="#567de1" /><circle cx="439.6" cy="313.4" r="4" fill="#567de1" /><circle cx="447.7" cy="313.4" r="4" fill="#567de1" /><circle cx="455.9" cy="313.4" r="4" fill="#567de1" /><circle cx="464.1" cy="313.4" r="4" fill="#567de1" /><circle cx="472.3" cy="313.1" r="4" fill="#567de1" /><circle cx="480.4" cy="313.1" r="4" fill="#567de1" /><circle cx="488.6" cy="313.1" r="4" fill="#567de1" /><circle cx="496.8" cy="313.1" r="4" fill="#567de1" /><circle cx="504.9" cy="313.1" r="4" fill="#567de1" /><circle cx="513.1" cy="313.0" r="4" fill="#567de1" /><circle cx="521.3" cy="313.0" r="4" fill="#567de1" /><circle cx="529.5" cy="312.9" r="4" fill="#567de1" /><circle cx="537.6" cy="312.9" r="4" fill="#567de1" /><circle cx="545.8" cy="312.9" r="4" fill="#567de1" /><circle cx="554.0" cy="312.8" r="4" fill="#567de1" /><circle cx="562.2" cy="312.8" r="4" fill="#567de1" /><circle cx="570.3" cy="312.6" r="4" fill="#567de1" /><circle cx="578.5" cy="312.6" r="4" fill="#567de1" /><circle cx="586.7" cy="312.6" r="4" fill="#567de1" /><circle cx="594.8" cy="312.6" r="4" fill="#567de1" /><circle cx="603.0" cy="312.6" r="4" fill="#567de1" /><circle cx="611.2" cy="312.6" r="4" fill="#567de1" /><circle cx="619.4" cy="312.6" r="4" fill="#567de1" /><circle cx="627.5" cy="312.5" r="4" fill="#567de1" /><circle cx="635.7" cy="312.1" r="4" fill="#567de1" /><circle cx="643.9" cy="312.1" r="4" fill="#567de1" /><circle cx="652.0" cy="312.1" r="4" fill="#567de1" /><circle cx="660.2" cy="312.1" r="4" fill="#567de1" /><circle cx="668.4" cy="312.1" r="4" fill="#567de1" /><circle cx="676.6" cy="312.1" r="4" fill="#567de1" /><circle cx="684.7" cy="312.1" r="4" fill="#567de1" /><circle cx="692.9" cy="312.1" r="4" fill="#567de1" /><circle cx="701.1" cy="312.1" r="4" fill="#567de1" /><circle cx="709.2" cy="312.1" r="4" fill="#567de1" /><circle cx="717.4" cy="312.0" r="4" fill="#567de1" /><circle cx="725.6" cy="312.0" r="4" fill="#567de1" /><circle cx="733.8" cy="312.0" r="4" fill="#567de1" /><circle cx="741.9" cy="312.0" r="4" fill="#567de1" /><circle cx="750.1" cy="312.0" r="4" fill="#567de1" /><circle cx="758.3" cy="312.0" r="4" fill="#567de1" /><circle cx="766.5" cy="312.0" r="4" fill="#567de1" /><circle cx="774.6" cy="312.0" r="4" fill="#567de1" /><circle cx="782.8" cy="312.0" r="4" fill="#567de1" /><circle cx="791.0" cy="312.0" r="4" fill="#567de1" /><circle cx="799.1" cy="312.0" r="4" fill="#567de1" /><circle cx="807.3" cy="312.0" r="4" fill="#567de1" /><circle cx="815.5" cy="312.0" r="4" fill="#567de1" /><circle cx="823.7" cy="312.0" r="4" fill="#567de1" /><circle cx="831.8" cy="312.0" r="4" fill="#567de1" /><circle cx="840.0" cy="312.0" r="4" fill="#567de1" /><polyline points="80.0,303.9 88.2,304.2 96.3,304.4 104.5,304.4 112.7,304.4 120.9,304.4 129.0,304.4 137.2,304.4 145.4,304.4 153.5,304.4 161.7,304.4 169.9,304.4 178.1,304.4 186.2,304.4 194.4,304.4 202.6,304.4 210.8,304.4 218.9,304.4 227.1,304.4 235.3,304.4 243.4,304.4 251.6,304.4 259.8,304.4 268.0,304.4 276.1,304.4 284.3,304.4 292.5,304.4 300.6,304.4 308.8,299.1 317.0,299.1 325.2,299.1 333.3,298.9 341.5,295.6 349.7,295.6 357.8,295.6 366.0,295.6 374.2,295.6 382.4,295.6 390.5,295.6 398.7,295.6 406.9,295.6 415.1,295.8 423.2,295.9 431.4,295.9 439.6,295.9 447.7,295.9 455.9,295.9 464.1,295.9 472.3,295.9 480.4,295.9 488.6,295.9 496.8,295.9 504.9,295.9 513.1,295.9 521.3,295.9 529.5,295.9 537.6,295.9 545.8,295.9 554.0,295.8 562.2,295.8 570.3,295.9 578.5,295.9 586.7,295.9 594.8,295.9 603.0,295.9 611.2,295.9 619.4,295.9 627.5,296.0 635.7,296.4 643.9,296.4 652.0,296.4 660.2,296.4 668.4,296.4 676.6,296.4 684.7,296.4 692.9,296.4 701.1,296.4 709.2,296.4 717.4,296.5 725.6,296.5 733.8,296.5 741.9,296.5 750.1,296.5 758.3,296.5 766.5,296.5 774.6,296.5 782.8,296.5 791.0,296.5 799.1,296.5 807.3,296.5 815.5,296.5 823.7,296.5 831.8,296.5 840.0,296.5" fill="none" stroke="#9754dd" stroke-width="2.5" stroke-linecap="round" stroke-linejoin="round" /><circle cx="80.0" cy="303.9" r="4" fill="#9754dd" /><circle cx="88.2" cy="304.2" r="4" fill="#9754dd" /><circle cx="96.3" cy="304.4" r="4" fill="#9754dd" /><circle cx="104.5" cy="304.4" r="4" fill="#9754dd" /><circle cx="112.7" cy="304.4" r="4" fill="#9754dd" /><circle cx="120.9" cy="304.4" r="4" fill="#9754dd" /><circle cx="129.0" cy="304.4" r="4" fill="#9754dd" /><circle cx="137.2" cy="304.4" r="4" fill="#9754dd" /><circle cx="145.4" cy="304.4" r="4" fill="#9754dd" /><circle cx="153.5" cy="304.4" r="4" fill="#9754dd" /><circle cx="161.7" cy="304.4" r="4" fill="#9754dd" /><circle cx="169.9" cy="304.4" r="4" fill="#9754dd" /><circle cx="178.1" cy="304.4" r="4" fill="#9754dd" /><circle cx="186.2" cy="304.4" r="4" fill="#9754dd" /><circle cx="194.4" cy="304.4" r="4" fill="#9754dd" /><circle cx="202.6" cy="304.4" r="4" fill="#9754dd" /><circle cx="210.8" cy="304.4" r="4" fill="#9754dd" /><circle cx="218.9" cy="304.4" r="4" fill="#9754dd" /><circle cx="227.1" cy="304.4" r="4" fill="#9754dd" /><circle cx="235.3" cy="304.4" r="4" fill="#9754dd" /><circle cx="243.4" cy="304.4" r="4" fill="#9754dd" /><circle cx="251.6" cy="304.4" r="4" fill="#9754dd" /><circle cx="259.8" cy="304.4" r="4" fill="#9754dd" /><circle cx="268.0" cy="304.4" r="4" fill="#9754dd" /><circle cx="276.1" cy="304.4" r="4" fill="#9754dd" /><circle cx="284.3" cy="304.4" r="4" fill="#9754dd" /><circle cx="292.5" cy="304.4" r="4" fill="#9754dd" /><circle cx="300.6" cy="304.4" r="4" fill="#9754dd" /><circle cx="308.8" cy="299.1" r="4" fill="#9754dd" /><circle cx="317.0" cy="299.1" r="4" fill="#9754dd" /><circle cx="325.2" cy="299.1" r="4" fill="#9754dd" /><circle cx="333.3" cy="298.9" r="4" fill="#9754dd" /><circle cx="341.5" cy="295.6" r="4" fill="#9754dd" /><circle cx="349.7" cy="295.6" r="4" fill="#9754dd" /><circle cx="357.8" cy="295.6" r="4" fill="#9754dd" /><circle cx="366.0" cy="295.6" r="4" fill="#9754dd" /><circle cx="374.2" cy="295.6" r="4" fill="#9754dd" /><circle cx="382.4" cy="295.6" r="4" fill="#9754dd" /><circle cx="390.5" cy="295.6" r="4" fill="#9754dd" /><circle cx="398.7" cy="295.6" r="4" fill="#9754dd" /><circle cx="406.9" cy="295.6" r="4" fill="#9754dd" /><circle cx="415.1" cy="295.8" r="4" fill="#9754dd" /><circle cx="423.2" cy="295.9" r="4" fill="#9754dd" /><circle cx="431.4" cy="295.9" r="4" fill="#9754dd" /><circle cx="439.6" cy="295.9" r="4" fill="#9754dd" /><circle cx="447.7" cy="295.9" r="4" fill="#9754dd" /><circle cx="455.9" cy="295.9" r="4" fill="#9754dd" /><circle cx="464.1" cy="295.9" r="4" fill="#9754dd" /><circle cx="472.3" cy="295.9" r="4" fill="#9754dd" /><circle cx="480.4" cy="295.9" r="4" fill="#9754dd" /><circle cx="488.6" cy="295.9" r="4" fill="#9754dd" /><circle cx="496.8" cy="295.9" r="4" fill="#9754dd" /><circle cx="504.9" cy="295.9" r="4" fill="#9754dd" /><circle cx="513.1" cy="295.9" r="4" fill="#9754dd" /><circle cx="521.3" cy="295.9" r="4" fill="#9754dd" /><circle cx="529.5" cy="295.9" r="4" fill="#9754dd" /><circle cx="537.6" cy="295.9" r="4" fill="#9754dd" /><circle cx="545.8" cy="295.9" r="4" fill="#9754dd" /><circle cx="554.0" cy="295.8" r="4" fill="#9754dd" /><circle cx="562.2" cy="295.8" r="4" fill="#9754dd" /><circle cx="570.3" cy="295.9" r="4" fill="#9754dd" /><circle cx="578.5" cy="295.9" r="4" fill="#9754dd" /><circle cx="586.7" cy="295.9" r="4" fill="#9754dd" /><circle cx="594.8" cy="295.9" r="4" fill="#9754dd" /><circle cx="603.0" cy="295.9" r="4" fill="#9754dd" /><circle cx="611.2" cy="295.9" r="4" fill="#9754dd" /><circle cx="619.4" cy="295.9" r="4" fill="#9754dd" /><circle cx="627.5" cy="296.0" r="4" fill="#9754dd" /><circle cx="635.7" cy="296.4" r="4" fill="#9754dd" /><circle cx="643.9" cy="296.4" r="4" fill="#9754dd" /><circle cx="652.0" cy="296.4" r="4" fill="#9754dd" /><circle cx="660.2" cy="296.4" r="4" fill="#9754dd" /><circle cx="668.4" cy="296.4" r="4" fill="#9754dd" /><circle cx="676.6" cy="296.4" r="4" fill="#9754dd" /><circle cx="684.7" cy="296.4" r="4" fill="#9754dd" /><circle cx="692.9" cy="296.4" r="4" fill="#9754dd" /><circle cx="701.1" cy="296.4" r="4" fill="#9754dd" /><circle cx="709.2" cy="296.4" r="4" fill="#9754dd" /><circle cx="717.4" cy="296.5" r="4" fill="#9754dd" /><circle cx="725.6" cy="296.5" r="4" fill="#9754dd" /><circle cx="733.8" cy="296.5" r="4" fill="#9754dd" /><circle cx="741.9" cy="296.5" r="4" fill="#9754dd" /><circle cx="750.1" cy="296.5" r="4" fill="#9754dd" /><circle cx="758.3" cy="296.5" r="4" fill="#9754dd" /><circle cx="766.5" cy="296.5" r="4" fill="#9754dd" /><circle cx="774.6" cy="296.5" r="4" fill="#9754dd" /><circle cx="782.8" cy="296.5" r="4" fill="#9754dd" /><circle cx="791.0" cy="296.5" r="4" fill="#9754dd" /><circle cx="799.1" cy="296.5" r="4" fill="#9754dd" /><circle cx="807.3" cy="296.5" r="4" fill="#9754dd" /><circle cx="815.5" cy="296.5" r="4" fill="#9754dd" /><circle cx="823.7" cy="296.5" r="4" fill="#9754dd" /><circle cx="831.8" cy="296.5" r="4" fill="#9754dd" /><circle cx="840.0" cy="296.5" r="4" fill="#9754dd" />
  <rect x="80" y="339" width="10" height="10" rx="2" ry="2" fill="#19e5a1" /><text x="96" y="348" class="legend-label">Stars</text><rect x="250" y="339" width="10" height="10" rx="2" ry="2" fill="#6eb6ec" /><text x="266" y="348" class="legend-label">Followers</text><rect x="420" y="339" width="10" height="10" rx="2" ry="2" fill="#5938e2" /><text x="436" y="348" class="legend-label">Following</text><rect x="590" y="339" width="10" height="10" rx="2" ry="2" fill="#60e5e0" /><text x="606" y="348" class="legend-label">Contributions</text><rect x="80" y="357" width="10" height="10" rx="2" ry="2" fill="#567de1" /><text x="96" y="366" class="legend-label">Pull Requests</text><rect x="250" y="357" width="10" height="10" rx="2" ry="2" fill="#9754dd" /><text x="266" y="366" class="legend-label">Issues</text>
</svg>
