<svg width="900" height="402" viewBox="0 0 900 402" xmlns="http://www.w3.org/2000/svg">
  <defs>
    <linearGradient id="history-gradient" x1="0%" y1="0%" x2="100%" y2="100%">
      <stop offset="0%" style="stop-color:#58a6ff;stop-opacity:1" />
      <stop offset="100%" style="stop-color:#a371f7;stop-opacity:1" />
    </linearGradient>
    <clipPath id="history-rounded">
      <rect x="0" y="0" width="900" height="402" rx="8" ry="8" />
    </clipPath>
  </defs>
  <style>
    .title {
      font-family: 'Segoe UI', Ubuntu, 'Helvetica Neue', sans-serif;
      font-size: 22px;
      font-weight: 700;
      fill: #58a6ff;
    }
    .subtitle {
      font-family: 'Segoe UI', Ubuntu, 'Helvetica Neue', sans-serif;
      font-size: 12px;
      font-weight: 500;
      fill: #8b949e;
    }
    .axis-label {
      font-family: 'Segoe UI', Ubuntu, 'Helvetica Neue', sans-serif;
      font-size: 10px;
      fill: #8b949e;
    }
    .grid-line {
      stroke: #30363d;
      stroke-width: 1;
      opacity: 0.3;
    }
    .legend-label {
      font-family: 'Segoe UI', Ubuntu, 'Helvetica Neue', sans-serif;
      font-size: 11px;
      fill: #c9d1d9;
      dominant-baseline: middle;
    }
  </style>
  <rect clip-path="url(#history-rounded)" width="100%" height="100%" fill="#0d1117" stroke="#30363d" stroke-width="1" />
  <rect x="0" y="396" width="900" height="6" fill="url(#history-gradient)" clip-path="url(#history-rounded)" />
  <text x="24" y="34" class="title">Leonardo Klein Stats History</text>
  <text x="24" y="54" class="subtitle">Period: 2026-02-20 to 2026-03-02</text>
  <text x="72" y="320.0" text-anchor="end" dominant-baseline="central" class="axis-label">0</text><text x="72" y="270.0" text-anchor="end" dominant-baseline="central" class="axis-label">400</text><text x="72" y="220.0" text-anchor="end" dominant-baseline="central" class="axis-label">800</text><text x="72" y="170.0" text-anchor="end" dominant-baseline="central" class="axis-label">1.2k</text><text x="72" y="120.0" text-anchor="end" dominant-baseline="central" class="axis-label">1.6k</text><text x="72" y="70.0" text-anchor="end" dominant-baseline="central" class="axis-label">2.0k</text>
  <text x="80.0" y="336" text-anchor="middle" class="axis-label">02-20</text><text x="156.0" y="336" text-anchor="middle" class="axis-label">02-21</text><text x="232.0" y="336" text-anchor="middle" class="axis-label">02-22</text><text x="308.0" y="336" text-anchor="middle" class="axis-label">02-23</text><text x="384.0" y="336" text-anchor="middle" class="axis-label">02-24</text><text x="460.0" y="336" text-anchor="middle" class="axis-label">02-25</text><text x="536.0" y="336" text-anchor="middle" class="axis-label">02-26</text><text x="612.0" y="336" text-anchor="middle" class="axis-label">02-27</text><text x="688.0" y="336" text-anchor="middle" class="axis-label">02-28</text><text x="764.0" y="336" text-anchor="middle" class="axis-label">03-01</text><text x="840.0" y="336" text-anchor="middle" class="axis-label">03-02</text>
  <line x1="80" y1="320.0" x2="840" y2="320.0" class="grid-line" /><line x1="80" y1="270.0" x2="840" y2="270.0" class="grid-line" /><line x1="80" y1="220.0" x2="840" y2="220.0" class="grid-line" /><line x1="80" y1="170.0" x2="840" y2="170.0" class="grid-line" /><line x1="80" y1="120.0" x2="840" y2="120.0" class="grid-line" /><line x1="80" y1="70.0" x2="840" y2="70.0" class="grid-line" />
  <polyline points="80.0,317.0 95.2,317.0 110.4,317.0 125.6,317.0 140.8,317.0 156.0,317.0 171.2,317.0 186.4,317.0 201.6,317.0 216.8,317.0 232.0,317.0 247.2,317.0 262.4,317.0 277.6,317.0 292.8,317.0 308.0,317.0 323.2,317.0 338.4,317.0 353.6,317.0 368.8,317.0 384.0,317.0 399.2,317.0 414.4,317.0 429.6,317.0 444.8,317.0 460.0,317.0 475.2,317.0 490.4,317.0 505.6,317.0 520.8,317.0 536.0,317.0 551.2,317.0 566.4,317.0 581.6,317.0 596.8,317.0 612.0,317.0 627.2,317.0 642.4,317.0 657.6,317.0 672.8,317.0 688.0,317.0 703.2,317.0 718.4,317.0 733.6,317.0 748.8,317.0 764.0,317.0 779.2,317.0 794.4,317.0 809.6,317.0 824.8,317.0 840.0,317.0" fill="none" stroke="#19e5a1" stroke-width="2.5" stroke-linecap="round" stroke-linejoin="round" /><circle cx="80.0" cy="317.0" r="4" fill="#19e5a1" /><circle cx="95.2" cy="317.0" r="4" fill="#19e5a1" /><circle cx="110.4" cy="317.0" r="4" fill="#19e5a1" /><circle cx="125.6" cy="317.0" r="4" fill="#19e5a1" /><circle cx="140.8" cy="317.0" r="4" fill="#19e5a1" /><circle cx="156.0" cy="317.0" r="4" fill="#19e5a1" /><circle cx="171.2" cy="317.0" r="4" fill="#19e5a1" /><circle cx="186.4" cy="317.0" r="4" fill="#19e5a1" /><circle cx="201.6" cy="317.0" r="4" fill="#19e5a1" /><circle cx="216.8" cy="317.0" r="4" fill="#19e5a1" /><circle cx="232.0" cy="317.0" r="4" fill="#19e5a1" /><circle cx="247.2" cy="317.0" r="4" fill="#19e5a1" /><circle cx="262.4" cy="317.0" r="4" fill="#19e5a1" /><circle cx="277.6" cy="317.0" r="4" fill="#19e5a1" /><circle cx="292.8" cy="317.0" r="4" fill="#19e5a1" /><circle cx="308.0" cy="317.0" r="4" fill="#19e5a1" /><circle cx="323.2" cy="317.0" r="4" fill="#19e5a1" /><circle cx="338.4" cy="317.0" r="4" fill="#19e5a1" /><circle cx="353.6" cy="317.0" r="4" fill="#19e5a1" /><circle cx="368.8" cy="317.0" r="4" fill="#19e5a1" /><circle cx="384.0" cy="317.0" r="4" fill="#19e5a1" /><circle cx="399.2" cy="317.0" r="4" fill="#19e5a1" /><circle cx="414.4" cy="317.0" r="4" fill="#19e5a1" /><circle cx="429.6" cy="317.0" r="4" fill="#19e5a1" /><circle cx="444.8" cy="317.0" r="4" fill="#19e5a1" /><circle cx="460.0" cy="317.0" r="4" fill="#19e5a1" /><circle cx="475.2" cy="317.0" r="4" fill="#19e5a1" /><circle cx="490.4" cy="317.0" r="4" fill="#19e5a1" /><circle cx="505.6" cy="317.0" r="4" fill="#19e5a1" /><circle cx="520.8" cy="317.0" r="4" fill="#19e5a1" /><circle cx="536.0" cy="317.0" r="4" fill="#19e5a1" /><circle cx="551.2" cy="317.0" r="4" fill="#19e5a1" /><circle cx="566.4" cy="317.0" r="4" fill="#19e5a1" /><circle cx="581.6" cy="317.0" r="4" fill="#19e5a1" /><circle cx="596.8" cy="317.0" r="4" fill="#19e5a1" /><circle cx="612.0" cy="317.0" r="4" fill="#19e5a1" /><circle cx="627.2" cy="317.0" r="4" fill="#19e5a1" /><circle cx="642.4" cy="317.0" r="4" fill="#19e5a1" /><circle cx="657.6" cy="317.0" r="4" fill="#19e5a1" /><circle cx="672.8" cy="317.0" r="4" fill="#19e5a1" /><circle cx="688.0" cy="317.0" r="4" fill="#19e5a1" /><circle cx="703.2" cy="317.0" r="4" fill="#19e5a1" /><circle cx="718.4" cy="317.0" r="4" fill="#19e5a1" /><circle cx="733.6" cy="317.0" r="4" fill="#19e5a1" /><circle cx="748.8" cy="317.0" r="4" fill="#19e5a1" /><circle cx="764.0" cy="317.0" r="4" fill="#19e5a1" /><circle cx="779.2" cy="317.0" r="4" fill="#19e5a1" /><circle cx="794.4" cy="317.0" r="4" fill="#19e5a1" /><circle cx="809.6" cy="317.0" r="4" fill="#19e5a1" /><circle cx="824.8" cy="317.0" r="4" fill="#19e5a1" /><circle cx="840.0" cy="317.0" r="4" fill="#19e5a1" /><polyline points="80.0,313.2 95.2,312.2 110.4,312.1 125.6,312.4 140.8,312.4 156.0,312.4 171.2,312.1 186.4,312.0 201.6,311.9 216.8,311.9 232.0,311.8 247.2,311.8 262.4,311.5 277.6,311.5 292.8,311.5 308.0,311.2 323.2,311.2 338.4,311.1 353.6,311.1 368.8,311.1 384.0,310.9 399.2,311.0 414.4,310.8 429.6,310.8 444.8,310.8 460.0,310.8 475.2,310.4 490.4,310.2 505.6,310.4 520.8,310.4 536.0,310.4 551.2,310.4 566.4,310.4 581.6,310.2 596.8,310.2 612.0,310.1 627.2,310.1 642.4,309.8 657.6,309.6 672.8,309.6 688.0,309.6 703.2,309.6 718.4,309.5 733.6,309.4 748.8,309.4 764.0,309.4 779.2,309.4 794.4,309.2 809.6,309.2 824.8,309.2 840.0,309.4" fill="none" stroke="#6eb6ec" stroke-width="2.5" stroke-linecap="round" stroke-linejoin="round" /><circle cx="80.0" cy="313.2" r="4" fill="#6eb6ec" /><circle cx="95.2" cy="312.2" r="4" fill="#6eb6ec" /><circle cx="110.4" cy="312.1" r="4" fill="#6eb6ec" /><circle cx="125.6" cy="312.4" r="4" fill="#6eb6ec" /><circle cx="140.8" cy="312.4" r="4" fill="#6eb6ec" /><circle cx="156.0" cy="312.4" r="4" fill="#6eb6ec" /><circle cx="171.2" cy="312.1" r="4" fill="#6eb6ec" /><circle cx="186.4" cy="312.0" r="4" fill="#6eb6ec" /><circle cx="201.6" cy="311.9" r="4" fill="#6eb6ec" /><circle cx="216.8" cy="311.9" r="4" fill="#6eb6ec" /><circle cx="232.0" cy="311.8" r="4" fill="#6eb6ec" /><circle cx="247.2" cy="311.8" r="4" fill="#6eb6ec" /><circle cx="262.4" cy="311.5" r="4" fill="#6eb6ec" /><circle cx="277.6" cy="311.5" r="4" fill="#6eb6ec" /><circle cx="292.8" cy="311.5" r="4" fill="#6eb6ec" /><circle cx="308.0" cy="311.2" r="4" fill="#6eb6ec" /><circle cx="323.2" cy="311.2" r="4" fill="#6eb6ec" /><circle cx="338.4" cy="311.1" r="4" fill="#6eb6ec" /><circle cx="353.6" cy="311.1" r="4" fill="#6eb6ec" /><circle cx="368.8" cy="311.1" r="4" fill="#6eb6ec" /><circle cx="384.0" cy="310.9" r="4" fill="#6eb6ec" /><circle cx="399.2" cy="311.0" r="4" fill="#6eb6ec" /><circle cx="414.4" cy="310.8" r="4" fill="#6eb6ec" /><circle cx="429.6" cy="310.8" r="4" fill="#6eb6ec" /><circle cx="444.8" cy="310.8" r="4" fill="#6eb6ec" /><circle cx="460.0" cy="310.8" r="4" fill="#6eb6ec" /><circle cx="475.2" cy="310.4" r="4" fill="#6eb6ec" /><circle cx="490.4" cy="310.2" r="4" fill="#6eb6ec" /><circle cx="505.6" cy="310.4" r="4" fill="#6eb6ec" /><circle cx="520.8" cy="310.4" r="4" fill="#6eb6ec" /><circle cx="536.0" cy="310.4" r="4" fill="#6eb6ec" /><circle cx="551.2" cy="310.4" r="4" fill="#6eb6ec" /><circle cx="566.4" cy="310.4" r="4" fill="#6eb6ec" /><circle cx="581.6" cy="310.2" r="4" fill="#6eb6ec" /><circle cx="596.8" cy="310.2" r="4" fill="#6eb6ec" /><circle cx="612.0" cy="310.1" r="4" fill="#6eb6ec" /><circle cx="627.2" cy="310.1" r="4" fill="#6eb6ec" /><circle cx="642.4" cy="309.8" r="4" fill="#6eb6ec" /><circle cx="657.6" cy="309.6" r="4" fill="#6eb6ec" /><circle cx="672.8" cy="309.6" r="4" fill="#6eb6ec" /><circle cx="688.0" cy="309.6" r="4" fill="#6eb6ec" /><circle cx="703.2" cy="309.6" r="4" fill="#6eb6ec" /><circle cx="718.4" cy="309.5" r="4" fill="#6eb6ec" /><circle cx="733.6" cy="309.4" r="4" fill="#6eb6ec" /><circle cx="748.8" cy="309.4" r="4" fill="#6eb6ec" /><circle cx="764.0" cy="309.4" r="4" fill="#6eb6ec" /><circle cx="779.2" cy="309.4" r="4" fill="#6eb6ec" /><circle cx="794.4" cy="309.2" r="4" fill="#6eb6ec" /><circle cx="809.6" cy="309.2" r="4" fill="#6eb6ec" /><circle cx="824.8" cy="309.2" r="4" fill="#6eb6ec" /><circle cx="840.0" cy="309.4" r="4" fill="#6eb6ec" /><polyline points="80.0,305.8 95.2,305.8 110.4,305.8 125.6,305.8 140.8,305.8 156.0,305.8 171.2,305.8 186.4,305.8 201.6,305.8 216.8,305.8 232.0,304.9 247.2,304.9 262.4,304.9 277.6,304.9 292.8,304.9 308.0,304.9 323.2,304.9 338.4,304.9 353.6,304.9 368.8,304.9 384.0,304.9 399.2,304.9 414.4,304.9 429.6,304.9 444.8,304.9 460.0,304.9 475.2,304.9 490.4,304.9 505.6,304.9 520.8,304.9 536.0,304.9 551.2,304.9 566.4,304.9 581.6,304.9 596.8,304.9 612.0,304.9 627.2,304.9 642.4,303.6 657.6,303.6 672.8,303.6 688.0,303.6 703.2,303.6 718.4,303.6 733.6,303.6 748.8,303.6 764.0,303.6 779.2,303.6 794.4,303.6 809.6,303.6 824.8,303.6 840.0,303.6" fill="none" stroke="#5938e2" stroke-width="2.5" stroke-linecap="round" stroke-linejoin="round" /><circle cx="80.0" cy="305.8" r="4" fill="#5938e2" /><circle cx="95.2" cy="305.8" r="4" fill="#5938e2" /><circle cx="110.4" cy="305.8" r="4" fill="#5938e2" /><circle cx="125.6" cy="305.8" r="4" fill="#5938e2" /><circle cx="140.8" cy="305.8" r="4" fill="#5938e2" /><circle cx="156.0" cy="305.8" r="4" fill="#5938e2" /><circle cx="171.2" cy="305.8" r="4" fill="#5938e2" /><circle cx="186.4" cy="305.8" r="4" fill="#5938e2" /><circle cx="201.6" cy="305.8" r="4" fill="#5938e2" /><circle cx="216.8" cy="305.8" r="4" fill="#5938e2" /><circle cx="232.0" cy="304.9" r="4" fill="#5938e2" /><circle cx="247.2" cy="304.9" r="4" fill="#5938e2" /><circle cx="262.4" cy="304.9" r="4" fill="#5938e2" /><circle cx="277.6" cy="304.9" r="4" fill="#5938e2" /><circle cx="292.8" cy="304.9" r="4" fill="#5938e2" /><circle cx="308.0" cy="304.9" r="4" fill="#5938e2" /><circle cx="323.2" cy="304.9" r="4" fill="#5938e2" /><circle cx="338.4" cy="304.9" r="4" fill="#5938e2" /><circle cx="353.6" cy="304.9" r="4" fill="#5938e2" /><circle cx="368.8" cy="304.9" r="4" fill="#5938e2" /><circle cx="384.0" cy="304.9" r="4" fill="#5938e2" /><circle cx="399.2" cy="304.9" r="4" fill="#5938e2" /><circle cx="414.4" cy="304.9" r="4" fill="#5938e2" /><circle cx="429.6" cy="304.9" r="4" fill="#5938e2" /><circle cx="444.8" cy="304.9" r="4" fill="#5938e2" /><circle cx="460.0" cy="304.9" r="4" fill="#5938e2" /><circle cx="475.2" cy="304.9" r="4" fill="#5938e2" /><circle cx="490.4" cy="304.9" r="4" fill="#5938e2" /><circle cx="505.6" cy="304.9" r="4" fill="#5938e2" /><circle cx="520.8" cy="304.9" r="4" fill="#5938e2" /><circle cx="536.0" cy="304.9" r="4" fill="#5938e2" /><circle cx="551.2" cy="304.9" r="4" fill="#5938e2" /><circle cx="566.4" cy="304.9" r="4" fill="#5938e2" /><circle cx="581.6" cy="304.9" r="4" fill="#5938e2" /><circle cx="596.8" cy="304.9" r="4" fill="#5938e2" /><circle cx="612.0" cy="304.9" r="4" fill="#5938e2" /><circle cx="627.2" cy="304.9" r="4" fill="#5938e2" /><circle cx="642.4" cy="303.6" r="4" fill="#5938e2" /><circle cx="657.6" cy="303.6" r="4" fill="#5938e2" /><circle cx="672.8" cy="303.6" r="4" fill="#5938e2" /><circle cx="688.0" cy="303.6" r="4" fill="#5938e2" /><circle cx="703.2" cy="303.6" r="4" fill="#5938e2" /><circle cx="718.4" cy="303.6" r="4" fill="#5938e2" /><circle cx="733.6" cy="303.6" r="4" fill="#5938e2" /><circle cx="748.8" cy="303.6" r="4" fill="#5938e2" /><circle cx="764.0" cy="303.6" r="4" fill="#5938e2" /><circle cx="779.2" cy="303.6" r="4" fill="#5938e2" /><circle cx="794.4" cy="303.6" r="4" fill="#5938e2" /><circle cx="809.6" cy="303.6" r="4" fill="#5938e2" /><circle cx="824.8" cy="303.6" r="4" fill="#5938e2" /><circle cx="840.0" cy="303.6" r="4" fill="#5938e2" /><polyline points="80.0,144.6 95.2,140.1 110.4,139.9 125.6,139.8 140.8,139.8 156.0,139.6 171.2,139.6 186.4,139.6 201.6,139.6 216.8,139.6 232.0,138.4 247.2,138.4 262.4,138.4 277.6,138.4 292.8,138.4 308.0,138.4 323.2,138.4 338.4,137.4 353.6,137.4 368.8,137.4 384.0,137.4 399.2,137.4 414.4,137.4 429.6,137.4 444.8,137.4 460.0,137.4 475.2,137.4 490.4,137.4 505.6,131.2 520.8,131.2 536.0,130.8 551.2,130.4 566.4,126.9 581.6,126.9 596.8,126.9 612.0,126.9 627.2,126.9 642.4,126.9 657.6,126.9 672.8,126.9 688.0,126.9 703.2,126.8 718.4,122.1 733.6,120.4 748.8,120.4 764.0,120.4 779.2,120.4 794.4,120.4 809.6,119.4 824.8,119.4 840.0,119.4" fill="none" stroke="#60e5e0" stroke-width="2.5" stroke-linecap="round" stroke-linejoin="round" /><circle cx="80.0" cy="144.6" r="4" fill="#60e5e0" /><circle cx="95.2" cy="140.1" r="4" fill="#60e5e0" /><circle cx="110.4" cy="139.9" r="4" fill="#60e5e0" /><circle cx="125.6" cy="139.8" r="4" fill="#60e5e0" /><circle cx="140.8" cy="139.8" r="4" fill="#60e5e0" /><circle cx="156.0" cy="139.6" r="4" fill="#60e5e0" /><circle cx="171.2" cy="139.6" r="4" fill="#60e5e0" /><circle cx="186.4" cy="139.6" r="4" fill="#60e5e0" /><circle cx="201.6" cy="139.6" r="4" fill="#60e5e0" /><circle cx="216.8" cy="139.6" r="4" fill="#60e5e0" /><circle cx="232.0" cy="138.4" r="4" fill="#60e5e0" /><circle cx="247.2" cy="138.4" r="4" fill="#60e5e0" /><circle cx="262.4" cy="138.4" r="4" fill="#60e5e0" /><circle cx="277.6" cy="138.4" r="4" fill="#60e5e0" /><circle cx="292.8" cy="138.4" r="4" fill="#60e5e0" /><circle cx="308.0" cy="138.4" r="4" fill="#60e5e0" /><circle cx="323.2" cy="138.4" r="4" fill="#60e5e0" /><circle cx="338.4" cy="137.4" r="4" fill="#60e5e0" /><circle cx="353.6" cy="137.4" r="4" fill="#60e5e0" /><circle cx="368.8" cy="137.4" r="4" fill="#60e5e0" /><circle cx="384.0" cy="137.4" r="4" fill="#60e5e0" /><circle cx="399.2" cy="137.4" r="4" fill="#60e5e0" /><circle cx="414.4" cy="137.4" r="4" fill="#60e5e0" /><circle cx="429.6" cy="137.4" r="4" fill="#60e5e0" /><circle cx="444.8" cy="137.4" r="4" fill="#60e5e0" /><circle cx="460.0" cy="137.4" r="4" fill="#60e5e0" /><circle cx="475.2" cy="137.4" r="4" fill="#60e5e0" /><circle cx="490.4" cy="137.4" r="4" fill="#60e5e0" /><circle cx="505.6" cy="131.2" r="4" fill="#60e5e0" /><circle cx="520.8" cy="131.2" r="4" fill="#60e5e0" /><circle cx="536.0" cy="130.8" r="4" fill="#60e5e0" /><circle cx="551.2" cy="130.4" r="4" fill="#60e5e0" /><circle cx="566.4" cy="126.9" r="4" fill="#60e5e0" /><circle cx="581.6" cy="126.9" r="4" fill="#60e5e0" /><circle cx="596.8" cy="126.9" r="4" fill="#60e5e0" /><circle cx="612.0" cy="126.9" r="4" fill="#60e5e0" /><circle cx="627.2" cy="126.9" r="4" fill="#60e5e0" /><circle cx="642.4" cy="126.9" r="4" fill="#60e5e0" /><circle cx="657.6" cy="126.9" r="4" fill="#60e5e0" /><circle cx="672.8" cy="126.9" r="4" fill="#60e5e0" /><circle cx="688.0" cy="126.9" r="4" fill="#60e5e0" /><circle cx="703.2" cy="126.8" r="4" fill="#60e5e0" /><circle cx="718.4" cy="122.1" r="4" fill="#60e5e0" /><circle cx="733.6" cy="120.4" r="4" fill="#60e5e0" /><circle cx="748.8" cy="120.4" r="4" fill="#60e5e0" /><circle cx="764.0" cy="120.4" r="4" fill="#60e5e0" /><circle cx="779.2" cy="120.4" r="4" fill="#60e5e0" /><circle cx="794.4" cy="120.4" r="4" fill="#60e5e0" /><circle cx="809.6" cy="119.4" r="4" fill="#60e5e0" /><circle cx="824.8" cy="119.4" r="4" fill="#60e5e0" /><circle cx="840.0" cy="119.4" r="4" fill="#60e5e0" /><polyline points="80.0,314.6 95.2,314.4 110.4,314.2 125.6,314.2 140.8,314.2 156.0,314.1 171.2,314.1 186.4,314.1 201.6,314.1 216.8,314.1 232.0,314.0 247.2,314.0 262.4,314.0 277.6,314.0 292.8,314.0 308.0,314.0 323.2,314.0 338.4,314.0 353.6,314.0 368.8,314.0 384.0,314.0 399.2,314.0 414.4,314.0 429.6,314.0 444.8,314.0 460.0,314.0 475.2,314.0 490.4,314.0 505.6,314.0 520.8,314.0 536.0,314.0 551.2,314.0 566.4,314.0 581.6,314.0 596.8,314.0 612.0,314.0 627.2,314.0 642.4,314.0 657.6,314.0 672.8,314.0 688.0,314.0 703.2,313.9 718.4,313.6 733.6,313.4 748.8,313.4 764.0,313.4 779.2,313.4 794.4,313.4 809.6,313.1 824.8,313.1 840.0,313.1" fill="none" stroke="#567de1" stroke-width="2.5" stroke-linecap="round" stroke-linejoin="round" /><circle cx="80.0" cy="314.6" r="4" fill="#567de1" /><circle cx="95.2" cy="314.4" r="4" fill="#567de1" /><circle cx="110.4" cy="314.2" r="4" fill="#567de1" /><circle cx="125.6" cy="314.2" r="4" fill="#567de1" /><circle cx="140.8" cy="314.2" r="4" fill="#567de1" /><circle cx="156.0" cy="314.1" r="4" fill="#567de1" /><circle cx="171.2" cy="314.1" r="4" fill="#567de1" /><circle cx="186.4" cy="314.1" r="4" fill="#567de1" /><circle cx="201.6" cy="314.1" r="4" fill="#567de1" /><circle cx="216.8" cy="314.1" r="4" fill="#567de1" /><circle cx="232.0" cy="314.0" r="4" fill="#567de1" /><circle cx="247.2" cy="314.0" r="4" fill="#567de1" /><circle cx="262.4" cy="314.0" r="4" fill="#567de1" /><circle cx="277.6" cy="314.0" r="4" fill="#567de1" /><circle cx="292.8" cy="314.0" r="4" fill="#567de1" /><circle cx="308.0" cy="314.0" r="4" fill="#567de1" /><circle cx="323.2" cy="314.0" r="4" fill="#567de1" /><circle cx="338.4" cy="314.0" r="4" fill="#567de1" /><circle cx="353.6" cy="314.0" r="4" fill="#567de1" /><circle cx="368.8" cy="314.0" r="4" fill="#567de1" /><circle cx="384.0" cy="314.0" r="4" fill="#567de1" /><circle cx="399.2" cy="314.0" r="4" fill="#567de1" /><circle cx="414.4" cy="314.0" r="4" fill="#567de1" /><circle cx="429.6" cy="314.0" r="4" fill="#567de1" /><circle cx="444.8" cy="314.0" r="4" fill="#567de1" /><circle cx="460.0" cy="314.0" r="4" fill="#567de1" /><circle cx="475.2" cy="314.0" r="4" fill="#567de1" /><circle cx="490.4" cy="314.0" r="4" fill="#567de1" /><circle cx="505.6" cy="314.0" r="4" fill="#567de1" /><circle cx="520.8" cy="314.0" r="4" fill="#567de1" /><circle cx="536.0" cy="314.0" r="4" fill="#567de1" /><circle cx="551.2" cy="314.0" r="4" fill="#567de1" /><circle cx="566.4" cy="314.0" r="4" fill="#567de1" /><circle cx="581.6" cy="314.0" r="4" fill="#567de1" /><circle cx="596.8" cy="314.0" r="4" fill="#567de1" /><circle cx="612.0" cy="314.0" r="4" fill="#567de1" /><circle cx="627.2" cy="314.0" r="4" fill="#567de1" /><circle cx="642.4" cy="314.0" r="4" fill="#567de1" /><circle cx="657.6" cy="314.0" r="4" fill="#567de1" /><circle cx="672.8" cy="314.0" r="4" fill="#567de1" /><circle cx="688.0" cy="314.0" r="4" fill="#567de1" /><circle cx="703.2" cy="313.9" r="4" fill="#567de1" /><circle cx="718.4" cy="313.6" r="4" fill="#567de1" /><circle cx="733.6" cy="313.4" r="4" fill="#567de1" /><circle cx="748.8" cy="313.4" r="4" fill="#567de1" /><circle cx="764.0" cy="313.4" r="4" fill="#567de1" /><circle cx="779.2" cy="313.4" r="4" fill="#567de1" /><circle cx="794.4" cy="313.4" r="4" fill="#567de1" /><circle cx="809.6" cy="313.1" r="4" fill="#567de1" /><circle cx="824.8" cy="313.1" r="4" fill="#567de1" /><circle cx="840.0" cy="313.1" r="4" fill="#567de1" /><polyline points="80.0,303.9 95.2,304.2 110.4,304.4 125.6,304.4 140.8,304.4 156.0,304.4 171.2,304.4 186.4,304.4 201.6,304.4 216.8,304.4 232.0,304.4 247.2,304.4 262.4,304.4 277.6,304.4 292.8,304.4 308.0,304.4 323.2,304.4 338.4,304.4 353.6,304.4 368.8,304.4 384.0,304.4 399.2,304.4 414.4,304.4 429.6,304.4 444.8,304.4 460.0,304.4 475.2,304.4 490.4,304.4 505.6,299.1 520.8,299.1 536.0,299.1 551.2,298.9 566.4,295.6 581.6,295.6 596.8,295.6 612.0,295.6 627.2,295.6 642.4,295.6 657.6,295.6 672.8,295.6 688.0,295.6 703.2,295.8 718.4,295.9 733.6,295.9 748.8,295.9 764.0,295.9 779.2,295.9 794.4,295.9 809.6,295.9 824.8,295.9 840.0,295.9" fill="none" stroke="#9754dd" stroke-width="2.5" stroke-linecap="round" stroke-linejoin="round" /><circle cx="80.0" cy="303.9" r="4" fill="#9754dd" /><circle cx="95.2" cy="304.2" r="4" fill="#9754dd" /><circle cx="110.4" cy="304.4" r="4" fill="#9754dd" /><circle cx="125.6" cy="304.4" r="4" fill="#9754dd" /><circle cx="140.8" cy="304.4" r="4" fill="#9754dd" /><circle cx="156.0" cy="304.4" r="4" fill="#9754dd" /><circle cx="171.2" cy="304.4" r="4" fill="#9754dd" /><circle cx="186.4" cy="304.4" r="4" fill="#9754dd" /><circle cx="201.6" cy="304.4" r="4" fill="#9754dd" /><circle cx="216.8" cy="304.4" r="4" fill="#9754dd" /><circle cx="232.0" cy="304.4" r="4" fill="#9754dd" /><circle cx="247.2" cy="304.4" r="4" fill="#9754dd" /><circle cx="262.4" cy="304.4" r="4" fill="#9754dd" /><circle cx="277.6" cy="304.4" r="4" fill="#9754dd" /><circle cx="292.8" cy="304.4" r="4" fill="#9754dd" /><circle cx="308.0" cy="304.4" r="4" fill="#9754dd" /><circle cx="323.2" cy="304.4" r="4" fill="#9754dd" /><circle cx="338.4" cy="304.4" r="4" fill="#9754dd" /><circle cx="353.6" cy="304.4" r="4" fill="#9754dd" /><circle cx="368.8" cy="304.4" r="4" fill="#9754dd" /><circle cx="384.0" cy="304.4" r="4" fill="#9754dd" /><circle cx="399.2" cy="304.4" r="4" fill="#9754dd" /><circle cx="414.4" cy="304.4" r="4" fill="#9754dd" /><circle cx="429.6" cy="304.4" r="4" fill="#9754dd" /><circle cx="444.8" cy="304.4" r="4" fill="#9754dd" /><circle cx="460.0" cy="304.4" r="4" fill="#9754dd" /><circle cx="475.2" cy="304.4" r="4" fill="#9754dd" /><circle cx="490.4" cy="304.4" r="4" fill="#9754dd" /><circle cx="505.6" cy="299.1" r="4" fill="#9754dd" /><circle cx="520.8" cy="299.1" r="4" fill="#9754dd" /><circle cx="536.0" cy="299.1" r="4" fill="#9754dd" /><circle cx="551.2" cy="298.9" r="4" fill="#9754dd" /><circle cx="566.4" cy="295.6" r="4" fill="#9754dd" /><circle cx="581.6" cy="295.6" r="4" fill="#9754dd" /><circle cx="596.8" cy="295.6" r="4" fill="#9754dd" /><circle cx="612.0" cy="295.6" r="4" fill="#9754dd" /><circle cx="627.2" cy="295.6" r="4" fill="#9754dd" /><circle cx="642.4" cy="295.6" r="4" fill="#9754dd" /><circle cx="657.6" cy="295.6" r="4" fill="#9754dd" /><circle cx="672.8" cy="295.6" r="4" fill="#9754dd" /><circle cx="688.0" cy="295.6" r="4" fill="#9754dd" /><circle cx="703.2" cy="295.8" r="4" fill="#9754dd" /><circle cx="718.4" cy="295.9" r="4" fill="#9754dd" /><circle cx="733.6" cy="295.9" r="4" fill="#9754dd" /><circle cx="748.8" cy="295.9" r="4" fill="#9754dd" /><circle cx="764.0" cy="295.9" r="4" fill="#9754dd" /><circle cx="779.2" cy="295.9" r="4" fill="#9754dd" /><circle cx="794.4" cy="295.9" r="4" fill="#9754dd" /><circle cx="809.6" cy="295.9" r="4" fill="#9754dd" /><circle cx="824.8" cy="295.9" r="4" fill="#9754dd" /><circle cx="840.0" cy="295.9" r="4" fill="#9754dd" />
  <rect x="80" y="339" width="10" height="10" rx="2" ry="2" fill="#19e5a1" /><text x="96" y="348" class="legend-label">Stars</text><rect x="250" y="339" width="10" height="10" rx="2" ry="2" fill="#6eb6ec" /><text x="266" y="348" class="legend-label">Followers</text><rect x="420" y="339" width="10" height="10" rx="2" ry="2" fill="#5938e2" /><text x="436" y="348" class="legend-label">Following</text><rect x="590" y="339" width="10" height="10" rx="2" ry="2" fill="#60e5e0" /><text x="606" y="348" class="legend-label">Contributions</text><rect x="80" y="357" width="10" height="10" rx="2" ry="2" fill="#567de1" /><text x="96" y="366" class="legend-label">Pull Requests</text><rect x="250" y="357" width="10" height="10" rx="2" ry="2" fill="#9754dd" /><text x="266" y="366" class="legend-label">Issues</text>
</svg>
