<svg width="900" height="402" viewBox="0 0 900 402" xmlns="http://www.w3.org/2000/svg">
  <defs>
    <linearGradient id="history-gradient" x1="0%" y1="0%" x2="100%" y2="100%">
      <stop offset="0%" style="stop-color:#58a6ff;stop-opacity:1" />
      <stop offset="100%" style="stop-color:#a371f7;stop-opacity:1" />
    </linearGradient>
    <clipPath id="history-rounded">
      <rect x="0" y="0" width="900" height="402" rx="8" ry="8" />
    </clipPath>
  </defs>
  <style>
    .title {
      font-family: 'Segoe UI', Ubuntu, 'Helvetica Neue', sans-serif;
      font-size: 22px;
      font-weight: 700;
      fill: #58a6ff;
    }
    .subtitle {
      font-family: 'Segoe UI', Ubuntu, 'Helvetica Neue', sans-serif;
      font-size: 12px;
      font-weight: 500;
      fill: #8b949e;
    }
    .axis-label {
      font-family: 'Segoe UI', Ubuntu, 'Helvetica Neue', sans-serif;
      font-size: 10px;
      fill: #8b949e;
    }
    .grid-line {
      stroke: #30363d;
      stroke-width: 1;
      opacity: 0.3;
    }
    .legend-label {
      font-family: 'Segoe UI', Ubuntu, 'Helvetica Neue', sans-serif;
      font-size: 11px;
      fill: #c9d1d9;
      dominant-baseline: middle;
    }
  </style>
  <rect clip-path="url(#history-rounded)" width="100%" height="100%" fill="#0d1117" stroke="#30363d" stroke-width="1" />
  <rect x="0" y="396" width="900" height="6" fill="url(#history-gradient)" clip-path="url(#history-rounded)" />
  <text x="24" y="34" class="title">Leonardo Klein Stats History</text>
  <text x="24" y="54" class="subtitle">Period: 2026-02-20 to 2026-02-25</text>
  <text x="72" y="320.0" text-anchor="end" dominant-baseline="central" class="axis-label">0</text><text x="72" y="270.0" text-anchor="end" dominant-baseline="central" class="axis-label">300</text><text x="72" y="220.0" text-anchor="end" dominant-baseline="central" class="axis-label">600</text><text x="72" y="170.0" text-anchor="end" dominant-baseline="central" class="axis-label">900</text><text x="72" y="120.0" text-anchor="end" dominant-baseline="central" class="axis-label">1.2k</text><text x="72" y="70.0" text-anchor="end" dominant-baseline="central" class="axis-label">1.5k</text>
  <text x="80.0" y="336" text-anchor="middle" class="axis-label">02-20</text><text x="146.1" y="336" text-anchor="middle" class="axis-label">02-20</text><text x="212.2" y="336" text-anchor="middle" class="axis-label">02-21</text><text x="278.3" y="336" text-anchor="middle" class="axis-label">02-21</text><text x="344.3" y="336" text-anchor="middle" class="axis-label">02-22</text><text x="410.4" y="336" text-anchor="middle" class="axis-label">02-22</text><text x="476.5" y="336" text-anchor="middle" class="axis-label">02-22</text><text x="542.6" y="336" text-anchor="middle" class="axis-label">02-23</text><text x="608.7" y="336" text-anchor="middle" class="axis-label">02-23</text><text x="674.8" y="336" text-anchor="middle" class="axis-label">02-24</text><text x="740.9" y="336" text-anchor="middle" class="axis-label">02-24</text><text x="807.0" y="336" text-anchor="middle" class="axis-label">02-24</text><text x="840.0" y="336" text-anchor="middle" class="axis-label">02-25</text>
  <line x1="80" y1="320.0" x2="840" y2="320.0" class="grid-line" /><line x1="80" y1="270.0" x2="840" y2="270.0" class="grid-line" /><line x1="80" y1="220.0" x2="840" y2="220.0" class="grid-line" /><line x1="80" y1="170.0" x2="840" y2="170.0" class="grid-line" /><line x1="80" y1="120.0" x2="840" y2="120.0" class="grid-line" /><line x1="80" y1="70.0" x2="840" y2="70.0" class="grid-line" />
  <polyline points="80.0,316.0 113.0,316.0 146.1,316.0 179.1,316.0 212.2,316.0 245.2,316.0 278.3,316.0 311.3,316.0 344.3,316.0 377.4,316.0 410.4,316.0 443.5,316.0 476.5,316.0 509.6,316.0 542.6,316.0 575.7,316.0 608.7,316.0 641.7,316.0 674.8,316.0 707.8,316.0 740.9,316.0 773.9,316.0 807.0,316.0 840.0,316.0" fill="none" stroke="#19e5a1" stroke-width="2.5" stroke-linecap="round" stroke-linejoin="round" /><circle cx="80.0" cy="316.0" r="4" fill="#19e5a1" /><circle cx="113.0" cy="316.0" r="4" fill="#19e5a1" /><circle cx="146.1" cy="316.0" r="4" fill="#19e5a1" /><circle cx="179.1" cy="316.0" r="4" fill="#19e5a1" /><circle cx="212.2" cy="316.0" r="4" fill="#19e5a1" /><circle cx="245.2" cy="316.0" r="4" fill="#19e5a1" /><circle cx="278.3" cy="316.0" r="4" fill="#19e5a1" /><circle cx="311.3" cy="316.0" r="4" fill="#19e5a1" /><circle cx="344.3" cy="316.0" r="4" fill="#19e5a1" /><circle cx="377.4" cy="316.0" r="4" fill="#19e5a1" /><circle cx="410.4" cy="316.0" r="4" fill="#19e5a1" /><circle cx="443.5" cy="316.0" r="4" fill="#19e5a1" /><circle cx="476.5" cy="316.0" r="4" fill="#19e5a1" /><circle cx="509.6" cy="316.0" r="4" fill="#19e5a1" /><circle cx="542.6" cy="316.0" r="4" fill="#19e5a1" /><circle cx="575.7" cy="316.0" r="4" fill="#19e5a1" /><circle cx="608.7" cy="316.0" r="4" fill="#19e5a1" /><circle cx="641.7" cy="316.0" r="4" fill="#19e5a1" /><circle cx="674.8" cy="316.0" r="4" fill="#19e5a1" /><circle cx="707.8" cy="316.0" r="4" fill="#19e5a1" /><circle cx="740.9" cy="316.0" r="4" fill="#19e5a1" /><circle cx="773.9" cy="316.0" r="4" fill="#19e5a1" /><circle cx="807.0" cy="316.0" r="4" fill="#19e5a1" /><circle cx="840.0" cy="316.0" r="4" fill="#19e5a1" /><polyline points="80.0,311.0 113.0,309.7 146.1,309.5 179.1,309.8 212.2,309.8 245.2,309.8 278.3,309.5 311.3,309.3 344.3,309.2 377.4,309.2 410.4,309.0 443.5,309.0 476.5,308.7 509.6,308.7 542.6,308.7 575.7,308.3 608.7,308.3 641.7,308.2 674.8,308.2 707.8,308.2 740.9,307.8 773.9,308.0 807.0,307.7 840.0,307.7" fill="none" stroke="#6eb6ec" stroke-width="2.5" stroke-linecap="round" stroke-linejoin="round" /><circle cx="80.0" cy="311.0" r="4" fill="#6eb6ec" /><circle cx="113.0" cy="309.7" r="4" fill="#6eb6ec" /><circle cx="146.1" cy="309.5" r="4" fill="#6eb6ec" /><circle cx="179.1" cy="309.8" r="4" fill="#6eb6ec" /><circle cx="212.2" cy="309.8" r="4" fill="#6eb6ec" /><circle cx="245.2" cy="309.8" r="4" fill="#6eb6ec" /><circle cx="278.3" cy="309.5" r="4" fill="#6eb6ec" /><circle cx="311.3" cy="309.3" r="4" fill="#6eb6ec" /><circle cx="344.3" cy="309.2" r="4" fill="#6eb6ec" /><circle cx="377.4" cy="309.2" r="4" fill="#6eb6ec" /><circle cx="410.4" cy="309.0" r="4" fill="#6eb6ec" /><circle cx="443.5" cy="309.0" r="4" fill="#6eb6ec" /><circle cx="476.5" cy="308.7" r="4" fill="#6eb6ec" /><circle cx="509.6" cy="308.7" r="4" fill="#6eb6ec" /><circle cx="542.6" cy="308.7" r="4" fill="#6eb6ec" /><circle cx="575.7" cy="308.3" r="4" fill="#6eb6ec" /><circle cx="608.7" cy="308.3" r="4" fill="#6eb6ec" /><circle cx="641.7" cy="308.2" r="4" fill="#6eb6ec" /><circle cx="674.8" cy="308.2" r="4" fill="#6eb6ec" /><circle cx="707.8" cy="308.2" r="4" fill="#6eb6ec" /><circle cx="740.9" cy="307.8" r="4" fill="#6eb6ec" /><circle cx="773.9" cy="308.0" r="4" fill="#6eb6ec" /><circle cx="807.0" cy="307.7" r="4" fill="#6eb6ec" /><circle cx="840.0" cy="307.7" r="4" fill="#6eb6ec" /><polyline points="80.0,301.0 113.0,301.0 146.1,301.0 179.1,301.0 212.2,301.0 245.2,301.0 278.3,301.0 311.3,301.0 344.3,301.0 377.4,301.0 410.4,299.8 443.5,299.8 476.5,299.8 509.6,299.8 542.6,299.8 575.7,299.8 608.7,299.8 641.7,299.8 674.8,299.8 707.8,299.8 740.9,299.8 773.9,299.8 807.0,299.8 840.0,299.8" fill="none" stroke="#5938e2" stroke-width="2.5" stroke-linecap="round" stroke-linejoin="round" /><circle cx="80.0" cy="301.0" r="4" fill="#5938e2" /><circle cx="113.0" cy="301.0" r="4" fill="#5938e2" /><circle cx="146.1" cy="301.0" r="4" fill="#5938e2" /><circle cx="179.1" cy="301.0" r="4" fill="#5938e2" /><circle cx="212.2" cy="301.0" r="4" fill="#5938e2" /><circle cx="245.2" cy="301.0" r="4" fill="#5938e2" /><circle cx="278.3" cy="301.0" r="4" fill="#5938e2" /><circle cx="311.3" cy="301.0" r="4" fill="#5938e2" /><circle cx="344.3" cy="301.0" r="4" fill="#5938e2" /><circle cx="377.4" cy="301.0" r="4" fill="#5938e2" /><circle cx="410.4" cy="299.8" r="4" fill="#5938e2" /><circle cx="443.5" cy="299.8" r="4" fill="#5938e2" /><circle cx="476.5" cy="299.8" r="4" fill="#5938e2" /><circle cx="509.6" cy="299.8" r="4" fill="#5938e2" /><circle cx="542.6" cy="299.8" r="4" fill="#5938e2" /><circle cx="575.7" cy="299.8" r="4" fill="#5938e2" /><circle cx="608.7" cy="299.8" r="4" fill="#5938e2" /><circle cx="641.7" cy="299.8" r="4" fill="#5938e2" /><circle cx="674.8" cy="299.8" r="4" fill="#5938e2" /><circle cx="707.8" cy="299.8" r="4" fill="#5938e2" /><circle cx="740.9" cy="299.8" r="4" fill="#5938e2" /><circle cx="773.9" cy="299.8" r="4" fill="#5938e2" /><circle cx="807.0" cy="299.8" r="4" fill="#5938e2" /><circle cx="840.0" cy="299.8" r="4" fill="#5938e2" /><polyline points="80.0,86.2 113.0,80.2 146.1,79.8 179.1,79.7 212.2,79.7 245.2,79.5 278.3,79.5 311.3,79.5 344.3,79.5 377.4,79.5 410.4,77.8 443.5,77.8 476.5,77.8 509.6,77.8 542.6,77.8 575.7,77.8 608.7,77.8 641.7,76.5 674.8,76.5 707.8,76.5 740.9,76.5 773.9,76.5 807.0,76.5 840.0,76.5" fill="none" stroke="#60e5e0" stroke-width="2.5" stroke-linecap="round" stroke-linejoin="round" /><circle cx="80.0" cy="86.2" r="4" fill="#60e5e0" /><circle cx="113.0" cy="80.2" r="4" fill="#60e5e0" /><circle cx="146.1" cy="79.8" r="4" fill="#60e5e0" /><circle cx="179.1" cy="79.7" r="4" fill="#60e5e0" /><circle cx="212.2" cy="79.7" r="4" fill="#60e5e0" /><circle cx="245.2" cy="79.5" r="4" fill="#60e5e0" /><circle cx="278.3" cy="79.5" r="4" fill="#60e5e0" /><circle cx="311.3" cy="79.5" r="4" fill="#60e5e0" /><circle cx="344.3" cy="79.5" r="4" fill="#60e5e0" /><circle cx="377.4" cy="79.5" r="4" fill="#60e5e0" /><circle cx="410.4" cy="77.8" r="4" fill="#60e5e0" /><circle cx="443.5" cy="77.8" r="4" fill="#60e5e0" /><circle cx="476.5" cy="77.8" r="4" fill="#60e5e0" /><circle cx="509.6" cy="77.8" r="4" fill="#60e5e0" /><circle cx="542.6" cy="77.8" r="4" fill="#60e5e0" /><circle cx="575.7" cy="77.8" r="4" fill="#60e5e0" /><circle cx="608.7" cy="77.8" r="4" fill="#60e5e0" /><circle cx="641.7" cy="76.5" r="4" fill="#60e5e0" /><circle cx="674.8" cy="76.5" r="4" fill="#60e5e0" /><circle cx="707.8" cy="76.5" r="4" fill="#60e5e0" /><circle cx="740.9" cy="76.5" r="4" fill="#60e5e0" /><circle cx="773.9" cy="76.5" r="4" fill="#60e5e0" /><circle cx="807.0" cy="76.5" r="4" fill="#60e5e0" /><circle cx="840.0" cy="76.5" r="4" fill="#60e5e0" /><polyline points="80.0,312.8 113.0,312.5 146.1,312.3 179.1,312.3 212.2,312.3 245.2,312.2 278.3,312.2 311.3,312.2 344.3,312.2 377.4,312.2 410.4,312.0 443.5,312.0 476.5,312.0 509.6,312.0 542.6,312.0 575.7,312.0 608.7,312.0 641.7,312.0 674.8,312.0 707.8,312.0 740.9,312.0 773.9,312.0 807.0,312.0 840.0,312.0" fill="none" stroke="#567de1" stroke-width="2.5" stroke-linecap="round" stroke-linejoin="round" /><circle cx="80.0" cy="312.8" r="4" fill="#567de1" /><circle cx="113.0" cy="312.5" r="4" fill="#567de1" /><circle cx="146.1" cy="312.3" r="4" fill="#567de1" /><circle cx="179.1" cy="312.3" r="4" fill="#567de1" /><circle cx="212.2" cy="312.3" r="4" fill="#567de1" /><circle cx="245.2" cy="312.2" r="4" fill="#567de1" /><circle cx="278.3" cy="312.2" r="4" fill="#567de1" /><circle cx="311.3" cy="312.2" r="4" fill="#567de1" /><circle cx="344.3" cy="312.2" r="4" fill="#567de1" /><circle cx="377.4" cy="312.2" r="4" fill="#567de1" /><circle cx="410.4" cy="312.0" r="4" fill="#567de1" /><circle cx="443.5" cy="312.0" r="4" fill="#567de1" /><circle cx="476.5" cy="312.0" r="4" fill="#567de1" /><circle cx="509.6" cy="312.0" r="4" fill="#567de1" /><circle cx="542.6" cy="312.0" r="4" fill="#567de1" /><circle cx="575.7" cy="312.0" r="4" fill="#567de1" /><circle cx="608.7" cy="312.0" r="4" fill="#567de1" /><circle cx="641.7" cy="312.0" r="4" fill="#567de1" /><circle cx="674.8" cy="312.0" r="4" fill="#567de1" /><circle cx="707.8" cy="312.0" r="4" fill="#567de1" /><circle cx="740.9" cy="312.0" r="4" fill="#567de1" /><circle cx="773.9" cy="312.0" r="4" fill="#567de1" /><circle cx="807.0" cy="312.0" r="4" fill="#567de1" /><circle cx="840.0" cy="312.0" r="4" fill="#567de1" /><polyline points="80.0,298.5 113.0,299.0 146.1,299.2 179.1,299.2 212.2,299.2 245.2,299.2 278.3,299.2 311.3,299.2 344.3,299.2 377.4,299.2 410.4,299.2 443.5,299.2 476.5,299.2 509.6,299.2 542.6,299.2 575.7,299.2 608.7,299.2 641.7,299.2 674.8,299.2 707.8,299.2 740.9,299.2 773.9,299.2 807.0,299.2 840.0,299.2" fill="none" stroke="#9754dd" stroke-width="2.5" stroke-linecap="round" stroke-linejoin="round" /><circle cx="80.0" cy="298.5" r="4" fill="#9754dd" /><circle cx="113.0" cy="299.0" r="4" fill="#9754dd" /><circle cx="146.1" cy="299.2" r="4" fill="#9754dd" /><circle cx="179.1" cy="299.2" r="4" fill="#9754dd" /><circle cx="212.2" cy="299.2" r="4" fill="#9754dd" /><circle cx="245.2" cy="299.2" r="4" fill="#9754dd" /><circle cx="278.3" cy="299.2" r="4" fill="#9754dd" /><circle cx="311.3" cy="299.2" r="4" fill="#9754dd" /><circle cx="344.3" cy="299.2" r="4" fill="#9754dd" /><circle cx="377.4" cy="299.2" r="4" fill="#9754dd" /><circle cx="410.4" cy="299.2" r="4" fill="#9754dd" /><circle cx="443.5" cy="299.2" r="4" fill="#9754dd" /><circle cx="476.5" cy="299.2" r="4" fill="#9754dd" /><circle cx="509.6" cy="299.2" r="4" fill="#9754dd" /><circle cx="542.6" cy="299.2" r="4" fill="#9754dd" /><circle cx="575.7" cy="299.2" r="4" fill="#9754dd" /><circle cx="608.7" cy="299.2" r="4" fill="#9754dd" /><circle cx="641.7" cy="299.2" r="4" fill="#9754dd" /><circle cx="674.8" cy="299.2" r="4" fill="#9754dd" /><circle cx="707.8" cy="299.2" r="4" fill="#9754dd" /><circle cx="740.9" cy="299.2" r="4" fill="#9754dd" /><circle cx="773.9" cy="299.2" r="4" fill="#9754dd" /><circle cx="807.0" cy="299.2" r="4" fill="#9754dd" /><circle cx="840.0" cy="299.2" r="4" fill="#9754dd" />
  <rect x="80" y="339" width="10" height="10" rx="2" ry="2" fill="#19e5a1" /><text x="96" y="348" class="legend-label">Stars</text><rect x="250" y="339" width="10" height="10" rx="2" ry="2" fill="#6eb6ec" /><text x="266" y="348" class="legend-label">Followers</text><rect x="420" y="339" width="10" height="10" rx="2" ry="2" fill="#5938e2" /><text x="436" y="348" class="legend-label">Following</text><rect x="590" y="339" width="10" height="10" rx="2" ry="2" fill="#60e5e0" /><text x="606" y="348" class="legend-label">Contributions</text><rect x="80" y="357" width="10" height="10" rx="2" ry="2" fill="#567de1" /><text x="96" y="366" class="legend-label">Pull Requests</text><rect x="250" y="357" width="10" height="10" rx="2" ry="2" fill="#9754dd" /><text x="266" y="366" class="legend-label">Issues</text>
</svg>
