<svg width="900" height="402" viewBox="0 0 900 402" xmlns="http://www.w3.org/2000/svg">
  <defs>
    <linearGradient id="history-gradient" x1="0%" y1="0%" x2="100%" y2="100%">
      <stop offset="0%" style="stop-color:#58a6ff;stop-opacity:1" />
      <stop offset="100%" style="stop-color:#a371f7;stop-opacity:1" />
    </linearGradient>
    <clipPath id="history-rounded">
      <rect x="0" y="0" width="900" height="402" rx="8" ry="8" />
    </clipPath>
  </defs>
  <style>
    .title {
      font-family: 'Segoe UI', Ubuntu, 'Helvetica Neue', sans-serif;
      font-size: 22px;
      font-weight: 700;
      fill: #58a6ff;
    }
    .subtitle {
      font-family: 'Segoe UI', Ubuntu, 'Helvetica Neue', sans-serif;
      font-size: 12px;
      font-weight: 500;
      fill: #8b949e;
    }
    .axis-label {
      font-family: 'Segoe UI', Ubuntu, 'Helvetica Neue', sans-serif;
      font-size: 10px;
      fill: #8b949e;
    }
    .grid-line {
      stroke: #30363d;
      stroke-width: 1;
      opacity: 0.3;
    }
    .legend-label {
      font-family: 'Segoe UI', Ubuntu, 'Helvetica Neue', sans-serif;
      font-size: 11px;
      fill: #c9d1d9;
      dominant-baseline: middle;
    }
  </style>
  <rect clip-path="url(#history-rounded)" width="100%" height="100%" fill="#0d1117" stroke="#30363d" stroke-width="1" />
  <rect x="0" y="396" width="900" height="6" fill="url(#history-gradient)" clip-path="url(#history-rounded)" />
  <text x="24" y="34" class="title">Leonardo Klein Stats History</text>
  <text x="24" y="54" class="subtitle">Period: 2026-02-20 to 2026-03-12</text>
  <text x="72" y="320.0" text-anchor="end" dominant-baseline="central" class="axis-label">0</text><text x="72" y="270.0" text-anchor="end" dominant-baseline="central" class="axis-label">400</text><text x="72" y="220.0" text-anchor="end" dominant-baseline="central" class="axis-label">800</text><text x="72" y="170.0" text-anchor="end" dominant-baseline="central" class="axis-label">1.2k</text><text x="72" y="120.0" text-anchor="end" dominant-baseline="central" class="axis-label">1.6k</text><text x="72" y="70.0" text-anchor="end" dominant-baseline="central" class="axis-label">2.0k</text>
  <text x="80.0" y="336" text-anchor="middle" class="axis-label">02-20</text><text x="156.0" y="336" text-anchor="middle" class="axis-label">02-22</text><text x="232.0" y="336" text-anchor="middle" class="axis-label">02-24</text><text x="308.0" y="336" text-anchor="middle" class="axis-label">02-26</text><text x="384.0" y="336" text-anchor="middle" class="axis-label">02-28</text><text x="460.0" y="336" text-anchor="middle" class="axis-label">03-02</text><text x="536.0" y="336" text-anchor="middle" class="axis-label">03-04</text><text x="612.0" y="336" text-anchor="middle" class="axis-label">03-06</text><text x="688.0" y="336" text-anchor="middle" class="axis-label">03-08</text><text x="764.0" y="336" text-anchor="middle" class="axis-label">03-10</text><text x="840.0" y="336" text-anchor="middle" class="axis-label">03-12</text>
  <line x1="80" y1="320.0" x2="840" y2="320.0" class="grid-line" /><line x1="80" y1="270.0" x2="840" y2="270.0" class="grid-line" /><line x1="80" y1="220.0" x2="840" y2="220.0" class="grid-line" /><line x1="80" y1="170.0" x2="840" y2="170.0" class="grid-line" /><line x1="80" y1="120.0" x2="840" y2="120.0" class="grid-line" /><line x1="80" y1="70.0" x2="840" y2="70.0" class="grid-line" />
  <polyline points="80.0,317.0 87.6,317.0 95.2,317.0 102.8,317.0 110.4,317.0 118.0,317.0 125.6,317.0 133.2,317.0 140.8,317.0 148.4,317.0 156.0,317.0 163.6,317.0 171.2,317.0 178.8,317.0 186.4,317.0 194.0,317.0 201.6,317.0 209.2,317.0 216.8,317.0 224.4,317.0 232.0,317.0 239.6,317.0 247.2,317.0 254.8,317.0 262.4,317.0 270.0,317.0 277.6,317.0 285.2,317.0 292.8,317.0 300.4,317.0 308.0,317.0 315.6,317.0 323.2,317.0 330.8,317.0 338.4,317.0 346.0,317.0 353.6,317.0 361.2,317.0 368.8,317.0 376.4,317.0 384.0,317.0 391.6,317.0 399.2,317.0 406.8,317.0 414.4,317.0 422.0,317.0 429.6,317.0 437.2,317.0 444.8,317.0 452.4,317.0 460.0,317.0 467.6,317.0 475.2,317.0 482.8,317.0 490.4,317.0 498.0,317.0 505.6,317.0 513.2,317.0 520.8,317.0 528.4,317.0 536.0,317.0 543.6,317.0 551.2,317.0 558.8,317.0 566.4,317.0 574.0,317.0 581.6,317.0 589.2,317.0 596.8,317.0 604.4,317.0 612.0,317.0 619.6,317.0 627.2,317.0 634.8,317.0 642.4,317.0 650.0,317.0 657.6,317.0 665.2,317.0 672.8,317.0 680.4,317.0 688.0,317.0 695.6,317.0 703.2,317.0 710.8,317.0 718.4,317.0 726.0,317.0 733.6,317.0 741.2,317.0 748.8,317.0 756.4,317.0 764.0,317.0 771.6,317.0 779.2,317.0 786.8,317.0 794.4,317.0 802.0,317.0 809.6,317.0 817.2,317.0 824.8,317.0 832.4,317.0 840.0,317.0" fill="none" stroke="#19e5a1" stroke-width="2.5" stroke-linecap="round" stroke-linejoin="round" /><circle cx="80.0" cy="317.0" r="4" fill="#19e5a1" /><circle cx="87.6" cy="317.0" r="4" fill="#19e5a1" /><circle cx="95.2" cy="317.0" r="4" fill="#19e5a1" /><circle cx="102.8" cy="317.0" r="4" fill="#19e5a1" /><circle cx="110.4" cy="317.0" r="4" fill="#19e5a1" /><circle cx="118.0" cy="317.0" r="4" fill="#19e5a1" /><circle cx="125.6" cy="317.0" r="4" fill="#19e5a1" /><circle cx="133.2" cy="317.0" r="4" fill="#19e5a1" /><circle cx="140.8" cy="317.0" r="4" fill="#19e5a1" /><circle cx="148.4" cy="317.0" r="4" fill="#19e5a1" /><circle cx="156.0" cy="317.0" r="4" fill="#19e5a1" /><circle cx="163.6" cy="317.0" r="4" fill="#19e5a1" /><circle cx="171.2" cy="317.0" r="4" fill="#19e5a1" /><circle cx="178.8" cy="317.0" r="4" fill="#19e5a1" /><circle cx="186.4" cy="317.0" r="4" fill="#19e5a1" /><circle cx="194.0" cy="317.0" r="4" fill="#19e5a1" /><circle cx="201.6" cy="317.0" r="4" fill="#19e5a1" /><circle cx="209.2" cy="317.0" r="4" fill="#19e5a1" /><circle cx="216.8" cy="317.0" r="4" fill="#19e5a1" /><circle cx="224.4" cy="317.0" r="4" fill="#19e5a1" /><circle cx="232.0" cy="317.0" r="4" fill="#19e5a1" /><circle cx="239.6" cy="317.0" r="4" fill="#19e5a1" /><circle cx="247.2" cy="317.0" r="4" fill="#19e5a1" /><circle cx="254.8" cy="317.0" r="4" fill="#19e5a1" /><circle cx="262.4" cy="317.0" r="4" fill="#19e5a1" /><circle cx="270.0" cy="317.0" r="4" fill="#19e5a1" /><circle cx="277.6" cy="317.0" r="4" fill="#19e5a1" /><circle cx="285.2" cy="317.0" r="4" fill="#19e5a1" /><circle cx="292.8" cy="317.0" r="4" fill="#19e5a1" /><circle cx="300.4" cy="317.0" r="4" fill="#19e5a1" /><circle cx="308.0" cy="317.0" r="4" fill="#19e5a1" /><circle cx="315.6" cy="317.0" r="4" fill="#19e5a1" /><circle cx="323.2" cy="317.0" r="4" fill="#19e5a1" /><circle cx="330.8" cy="317.0" r="4" fill="#19e5a1" /><circle cx="338.4" cy="317.0" r="4" fill="#19e5a1" /><circle cx="346.0" cy="317.0" r="4" fill="#19e5a1" /><circle cx="353.6" cy="317.0" r="4" fill="#19e5a1" /><circle cx="361.2" cy="317.0" r="4" fill="#19e5a1" /><circle cx="368.8" cy="317.0" r="4" fill="#19e5a1" /><circle cx="376.4" cy="317.0" r="4" fill="#19e5a1" /><circle cx="384.0" cy="317.0" r="4" fill="#19e5a1" /><circle cx="391.6" cy="317.0" r="4" fill="#19e5a1" /><circle cx="399.2" cy="317.0" r="4" fill="#19e5a1" /><circle cx="406.8" cy="317.0" r="4" fill="#19e5a1" /><circle cx="414.4" cy="317.0" r="4" fill="#19e5a1" /><circle cx="422.0" cy="317.0" r="4" fill="#19e5a1" /><circle cx="429.6" cy="317.0" r="4" fill="#19e5a1" /><circle cx="437.2" cy="317.0" r="4" fill="#19e5a1" /><circle cx="444.8" cy="317.0" r="4" fill="#19e5a1" /><circle cx="452.4" cy="317.0" r="4" fill="#19e5a1" /><circle cx="460.0" cy="317.0" r="4" fill="#19e5a1" /><circle cx="467.6" cy="317.0" r="4" fill="#19e5a1" /><circle cx="475.2" cy="317.0" r="4" fill="#19e5a1" /><circle cx="482.8" cy="317.0" r="4" fill="#19e5a1" /><circle cx="490.4" cy="317.0" r="4" fill="#19e5a1" /><circle cx="498.0" cy="317.0" r="4" fill="#19e5a1" /><circle cx="505.6" cy="317.0" r="4" fill="#19e5a1" /><circle cx="513.2" cy="317.0" r="4" fill="#19e5a1" /><circle cx="520.8" cy="317.0" r="4" fill="#19e5a1" /><circle cx="528.4" cy="317.0" r="4" fill="#19e5a1" /><circle cx="536.0" cy="317.0" r="4" fill="#19e5a1" /><circle cx="543.6" cy="317.0" r="4" fill="#19e5a1" /><circle cx="551.2" cy="317.0" r="4" fill="#19e5a1" /><circle cx="558.8" cy="317.0" r="4" fill="#19e5a1" /><circle cx="566.4" cy="317.0" r="4" fill="#19e5a1" /><circle cx="574.0" cy="317.0" r="4" fill="#19e5a1" /><circle cx="581.6" cy="317.0" r="4" fill="#19e5a1" /><circle cx="589.2" cy="317.0" r="4" fill="#19e5a1" /><circle cx="596.8" cy="317.0" r="4" fill="#19e5a1" /><circle cx="604.4" cy="317.0" r="4" fill="#19e5a1" /><circle cx="612.0" cy="317.0" r="4" fill="#19e5a1" /><circle cx="619.6" cy="317.0" r="4" fill="#19e5a1" /><circle cx="627.2" cy="317.0" r="4" fill="#19e5a1" /><circle cx="634.8" cy="317.0" r="4" fill="#19e5a1" /><circle cx="642.4" cy="317.0" r="4" fill="#19e5a1" /><circle cx="650.0" cy="317.0" r="4" fill="#19e5a1" /><circle cx="657.6" cy="317.0" r="4" fill="#19e5a1" /><circle cx="665.2" cy="317.0" r="4" fill="#19e5a1" /><circle cx="672.8" cy="317.0" r="4" fill="#19e5a1" /><circle cx="680.4" cy="317.0" r="4" fill="#19e5a1" /><circle cx="688.0" cy="317.0" r="4" fill="#19e5a1" /><circle cx="695.6" cy="317.0" r="4" fill="#19e5a1" /><circle cx="703.2" cy="317.0" r="4" fill="#19e5a1" /><circle cx="710.8" cy="317.0" r="4" fill="#19e5a1" /><circle cx="718.4" cy="317.0" r="4" fill="#19e5a1" /><circle cx="726.0" cy="317.0" r="4" fill="#19e5a1" /><circle cx="733.6" cy="317.0" r="4" fill="#19e5a1" /><circle cx="741.2" cy="317.0" r="4" fill="#19e5a1" /><circle cx="748.8" cy="317.0" r="4" fill="#19e5a1" /><circle cx="756.4" cy="317.0" r="4" fill="#19e5a1" /><circle cx="764.0" cy="317.0" r="4" fill="#19e5a1" /><circle cx="771.6" cy="317.0" r="4" fill="#19e5a1" /><circle cx="779.2" cy="317.0" r="4" fill="#19e5a1" /><circle cx="786.8" cy="317.0" r="4" fill="#19e5a1" /><circle cx="794.4" cy="317.0" r="4" fill="#19e5a1" /><circle cx="802.0" cy="317.0" r="4" fill="#19e5a1" /><circle cx="809.6" cy="317.0" r="4" fill="#19e5a1" /><circle cx="817.2" cy="317.0" r="4" fill="#19e5a1" /><circle cx="824.8" cy="317.0" r="4" fill="#19e5a1" /><circle cx="832.4" cy="317.0" r="4" fill="#19e5a1" /><circle cx="840.0" cy="317.0" r="4" fill="#19e5a1" /><polyline points="80.0,313.2 87.6,312.2 95.2,312.1 102.8,312.4 110.4,312.4 118.0,312.4 125.6,312.1 133.2,312.0 140.8,311.9 148.4,311.9 156.0,311.8 163.6,311.8 171.2,311.5 178.8,311.5 186.4,311.5 194.0,311.2 201.6,311.2 209.2,311.1 216.8,311.1 224.4,311.1 232.0,310.9 239.6,311.0 247.2,310.8 254.8,310.8 262.4,310.8 270.0,310.8 277.6,310.4 285.2,310.2 292.8,310.4 300.4,310.4 308.0,310.4 315.6,310.4 323.2,310.4 330.8,310.2 338.4,310.2 346.0,310.1 353.6,310.1 361.2,309.8 368.8,309.6 376.4,309.6 384.0,309.6 391.6,309.6 399.2,309.5 406.8,309.4 414.4,309.4 422.0,309.4 429.6,309.4 437.2,309.2 444.8,309.2 452.4,309.2 460.0,309.4 467.6,309.4 475.2,309.5 482.8,309.2 490.4,309.2 498.0,309.4 505.6,309.2 513.2,309.2 520.8,309.2 528.4,309.2 536.0,309.2 543.6,309.1 551.2,309.1 558.8,309.1 566.4,309.1 574.0,309.0 581.6,309.0 589.2,308.9 596.8,308.9 604.4,308.9 612.0,308.6 619.6,308.6 627.2,308.6 634.8,308.6 642.4,308.6 650.0,308.6 657.6,308.6 665.2,308.6 672.8,308.6 680.4,308.6 688.0,308.6 695.6,308.6 703.2,308.6 710.8,307.8 718.4,307.8 726.0,307.6 733.6,307.6 741.2,307.6 748.8,307.5 756.4,307.5 764.0,307.6 771.6,308.5 779.2,308.5 786.8,308.4 794.4,308.4 802.0,307.5 809.6,307.5 817.2,307.2 824.8,307.1 832.4,307.1 840.0,307.1" fill="none" stroke="#6eb6ec" stroke-width="2.5" stroke-linecap="round" stroke-linejoin="round" /><circle cx="80.0" cy="313.2" r="4" fill="#6eb6ec" /><circle cx="87.6" cy="312.2" r="4" fill="#6eb6ec" /><circle cx="95.2" cy="312.1" r="4" fill="#6eb6ec" /><circle cx="102.8" cy="312.4" r="4" fill="#6eb6ec" /><circle cx="110.4" cy="312.4" r="4" fill="#6eb6ec" /><circle cx="118.0" cy="312.4" r="4" fill="#6eb6ec" /><circle cx="125.6" cy="312.1" r="4" fill="#6eb6ec" /><circle cx="133.2" cy="312.0" r="4" fill="#6eb6ec" /><circle cx="140.8" cy="311.9" r="4" fill="#6eb6ec" /><circle cx="148.4" cy="311.9" r="4" fill="#6eb6ec" /><circle cx="156.0" cy="311.8" r="4" fill="#6eb6ec" /><circle cx="163.6" cy="311.8" r="4" fill="#6eb6ec" /><circle cx="171.2" cy="311.5" r="4" fill="#6eb6ec" /><circle cx="178.8" cy="311.5" r="4" fill="#6eb6ec" /><circle cx="186.4" cy="311.5" r="4" fill="#6eb6ec" /><circle cx="194.0" cy="311.2" r="4" fill="#6eb6ec" /><circle cx="201.6" cy="311.2" r="4" fill="#6eb6ec" /><circle cx="209.2" cy="311.1" r="4" fill="#6eb6ec" /><circle cx="216.8" cy="311.1" r="4" fill="#6eb6ec" /><circle cx="224.4" cy="311.1" r="4" fill="#6eb6ec" /><circle cx="232.0" cy="310.9" r="4" fill="#6eb6ec" /><circle cx="239.6" cy="311.0" r="4" fill="#6eb6ec" /><circle cx="247.2" cy="310.8" r="4" fill="#6eb6ec" /><circle cx="254.8" cy="310.8" r="4" fill="#6eb6ec" /><circle cx="262.4" cy="310.8" r="4" fill="#6eb6ec" /><circle cx="270.0" cy="310.8" r="4" fill="#6eb6ec" /><circle cx="277.6" cy="310.4" r="4" fill="#6eb6ec" /><circle cx="285.2" cy="310.2" r="4" fill="#6eb6ec" /><circle cx="292.8" cy="310.4" r="4" fill="#6eb6ec" /><circle cx="300.4" cy="310.4" r="4" fill="#6eb6ec" /><circle cx="308.0" cy="310.4" r="4" fill="#6eb6ec" /><circle cx="315.6" cy="310.4" r="4" fill="#6eb6ec" /><circle cx="323.2" cy="310.4" r="4" fill="#6eb6ec" /><circle cx="330.8" cy="310.2" r="4" fill="#6eb6ec" /><circle cx="338.4" cy="310.2" r="4" fill="#6eb6ec" /><circle cx="346.0" cy="310.1" r="4" fill="#6eb6ec" /><circle cx="353.6" cy="310.1" r="4" fill="#6eb6ec" /><circle cx="361.2" cy="309.8" r="4" fill="#6eb6ec" /><circle cx="368.8" cy="309.6" r="4" fill="#6eb6ec" /><circle cx="376.4" cy="309.6" r="4" fill="#6eb6ec" /><circle cx="384.0" cy="309.6" r="4" fill="#6eb6ec" /><circle cx="391.6" cy="309.6" r="4" fill="#6eb6ec" /><circle cx="399.2" cy="309.5" r="4" fill="#6eb6ec" /><circle cx="406.8" cy="309.4" r="4" fill="#6eb6ec" /><circle cx="414.4" cy="309.4" r="4" fill="#6eb6ec" /><circle cx="422.0" cy="309.4" r="4" fill="#6eb6ec" /><circle cx="429.6" cy="309.4" r="4" fill="#6eb6ec" /><circle cx="437.2" cy="309.2" r="4" fill="#6eb6ec" /><circle cx="444.8" cy="309.2" r="4" fill="#6eb6ec" /><circle cx="452.4" cy="309.2" r="4" fill="#6eb6ec" /><circle cx="460.0" cy="309.4" r="4" fill="#6eb6ec" /><circle cx="467.6" cy="309.4" r="4" fill="#6eb6ec" /><circle cx="475.2" cy="309.5" r="4" fill="#6eb6ec" /><circle cx="482.8" cy="309.2" r="4" fill="#6eb6ec" /><circle cx="490.4" cy="309.2" r="4" fill="#6eb6ec" /><circle cx="498.0" cy="309.4" r="4" fill="#6eb6ec" /><circle cx="505.6" cy="309.2" r="4" fill="#6eb6ec" /><circle cx="513.2" cy="309.2" r="4" fill="#6eb6ec" /><circle cx="520.8" cy="309.2" r="4" fill="#6eb6ec" /><circle cx="528.4" cy="309.2" r="4" fill="#6eb6ec" /><circle cx="536.0" cy="309.2" r="4" fill="#6eb6ec" /><circle cx="543.6" cy="309.1" r="4" fill="#6eb6ec" /><circle cx="551.2" cy="309.1" r="4" fill="#6eb6ec" /><circle cx="558.8" cy="309.1" r="4" fill="#6eb6ec" /><circle cx="566.4" cy="309.1" r="4" fill="#6eb6ec" /><circle cx="574.0" cy="309.0" r="4" fill="#6eb6ec" /><circle cx="581.6" cy="309.0" r="4" fill="#6eb6ec" /><circle cx="589.2" cy="308.9" r="4" fill="#6eb6ec" /><circle cx="596.8" cy="308.9" r="4" fill="#6eb6ec" /><circle cx="604.4" cy="308.9" r="4" fill="#6eb6ec" /><circle cx="612.0" cy="308.6" r="4" fill="#6eb6ec" /><circle cx="619.6" cy="308.6" r="4" fill="#6eb6ec" /><circle cx="627.2" cy="308.6" r="4" fill="#6eb6ec" /><circle cx="634.8" cy="308.6" r="4" fill="#6eb6ec" /><circle cx="642.4" cy="308.6" r="4" fill="#6eb6ec" /><circle cx="650.0" cy="308.6" r="4" fill="#6eb6ec" /><circle cx="657.6" cy="308.6" r="4" fill="#6eb6ec" /><circle cx="665.2" cy="308.6" r="4" fill="#6eb6ec" /><circle cx="672.8" cy="308.6" r="4" fill="#6eb6ec" /><circle cx="680.4" cy="308.6" r="4" fill="#6eb6ec" /><circle cx="688.0" cy="308.6" r="4" fill="#6eb6ec" /><circle cx="695.6" cy="308.6" r="4" fill="#6eb6ec" /><circle cx="703.2" cy="308.6" r="4" fill="#6eb6ec" /><circle cx="710.8" cy="307.8" r="4" fill="#6eb6ec" /><circle cx="718.4" cy="307.8" r="4" fill="#6eb6ec" /><circle cx="726.0" cy="307.6" r="4" fill="#6eb6ec" /><circle cx="733.6" cy="307.6" r="4" fill="#6eb6ec" /><circle cx="741.2" cy="307.6" r="4" fill="#6eb6ec" /><circle cx="748.8" cy="307.5" r="4" fill="#6eb6ec" /><circle cx="756.4" cy="307.5" r="4" fill="#6eb6ec" /><circle cx="764.0" cy="307.6" r="4" fill="#6eb6ec" /><circle cx="771.6" cy="308.5" r="4" fill="#6eb6ec" /><circle cx="779.2" cy="308.5" r="4" fill="#6eb6ec" /><circle cx="786.8" cy="308.4" r="4" fill="#6eb6ec" /><circle cx="794.4" cy="308.4" r="4" fill="#6eb6ec" /><circle cx="802.0" cy="307.5" r="4" fill="#6eb6ec" /><circle cx="809.6" cy="307.5" r="4" fill="#6eb6ec" /><circle cx="817.2" cy="307.2" r="4" fill="#6eb6ec" /><circle cx="824.8" cy="307.1" r="4" fill="#6eb6ec" /><circle cx="832.4" cy="307.1" r="4" fill="#6eb6ec" /><circle cx="840.0" cy="307.1" r="4" fill="#6eb6ec" /><polyline points="80.0,305.8 87.6,305.8 95.2,305.8 102.8,305.8 110.4,305.8 118.0,305.8 125.6,305.8 133.2,305.8 140.8,305.8 148.4,305.8 156.0,304.9 163.6,304.9 171.2,304.9 178.8,304.9 186.4,304.9 194.0,304.9 201.6,304.9 209.2,304.9 216.8,304.9 224.4,304.9 232.0,304.9 239.6,304.9 247.2,304.9 254.8,304.9 262.4,304.9 270.0,304.9 277.6,304.9 285.2,304.9 292.8,304.9 300.4,304.9 308.0,304.9 315.6,304.9 323.2,304.9 330.8,304.9 338.4,304.9 346.0,304.9 353.6,304.9 361.2,303.6 368.8,303.6 376.4,303.6 384.0,303.6 391.6,303.6 399.2,303.6 406.8,303.6 414.4,303.6 422.0,303.6 429.6,303.6 437.2,303.6 444.8,303.6 452.4,303.6 460.0,303.6 467.6,302.9 475.2,302.9 482.8,298.0 490.4,298.0 498.0,298.0 505.6,298.0 513.2,298.0 520.8,298.0 528.4,298.0 536.0,298.0 543.6,298.0 551.2,298.0 558.8,298.0 566.4,298.0 574.0,298.0 581.6,298.0 589.2,297.8 596.8,297.8 604.4,297.8 612.0,297.8 619.6,297.8 627.2,297.8 634.8,297.8 642.4,297.8 650.0,297.8 657.6,297.8 665.2,297.8 672.8,297.8 680.4,297.8 688.0,297.8 695.6,297.8 703.2,297.8 710.8,297.8 718.4,297.8 726.0,297.8 733.6,297.6 741.2,297.8 748.8,297.8 756.4,297.8 764.0,297.9 771.6,297.9 779.2,297.9 786.8,296.1 794.4,296.1 802.0,296.1 809.6,296.1 817.2,296.1 824.8,296.1 832.4,296.1 840.0,296.1" fill="none" stroke="#5938e2" stroke-width="2.5" stroke-linecap="round" stroke-linejoin="round" /><circle cx="80.0" cy="305.8" r="4" fill="#5938e2" /><circle cx="87.6" cy="305.8" r="4" fill="#5938e2" /><circle cx="95.2" cy="305.8" r="4" fill="#5938e2" /><circle cx="102.8" cy="305.8" r="4" fill="#5938e2" /><circle cx="110.4" cy="305.8" r="4" fill="#5938e2" /><circle cx="118.0" cy="305.8" r="4" fill="#5938e2" /><circle cx="125.6" cy="305.8" r="4" fill="#5938e2" /><circle cx="133.2" cy="305.8" r="4" fill="#5938e2" /><circle cx="140.8" cy="305.8" r="4" fill="#5938e2" /><circle cx="148.4" cy="305.8" r="4" fill="#5938e2" /><circle cx="156.0" cy="304.9" r="4" fill="#5938e2" /><circle cx="163.6" cy="304.9" r="4" fill="#5938e2" /><circle cx="171.2" cy="304.9" r="4" fill="#5938e2" /><circle cx="178.8" cy="304.9" r="4" fill="#5938e2" /><circle cx="186.4" cy="304.9" r="4" fill="#5938e2" /><circle cx="194.0" cy="304.9" r="4" fill="#5938e2" /><circle cx="201.6" cy="304.9" r="4" fill="#5938e2" /><circle cx="209.2" cy="304.9" r="4" fill="#5938e2" /><circle cx="216.8" cy="304.9" r="4" fill="#5938e2" /><circle cx="224.4" cy="304.9" r="4" fill="#5938e2" /><circle cx="232.0" cy="304.9" r="4" fill="#5938e2" /><circle cx="239.6" cy="304.9" r="4" fill="#5938e2" /><circle cx="247.2" cy="304.9" r="4" fill="#5938e2" /><circle cx="254.8" cy="304.9" r="4" fill="#5938e2" /><circle cx="262.4" cy="304.9" r="4" fill="#5938e2" /><circle cx="270.0" cy="304.9" r="4" fill="#5938e2" /><circle cx="277.6" cy="304.9" r="4" fill="#5938e2" /><circle cx="285.2" cy="304.9" r="4" fill="#5938e2" /><circle cx="292.8" cy="304.9" r="4" fill="#5938e2" /><circle cx="300.4" cy="304.9" r="4" fill="#5938e2" /><circle cx="308.0" cy="304.9" r="4" fill="#5938e2" /><circle cx="315.6" cy="304.9" r="4" fill="#5938e2" /><circle cx="323.2" cy="304.9" r="4" fill="#5938e2" /><circle cx="330.8" cy="304.9" r="4" fill="#5938e2" /><circle cx="338.4" cy="304.9" r="4" fill="#5938e2" /><circle cx="346.0" cy="304.9" r="4" fill="#5938e2" /><circle cx="353.6" cy="304.9" r="4" fill="#5938e2" /><circle cx="361.2" cy="303.6" r="4" fill="#5938e2" /><circle cx="368.8" cy="303.6" r="4" fill="#5938e2" /><circle cx="376.4" cy="303.6" r="4" fill="#5938e2" /><circle cx="384.0" cy="303.6" r="4" fill="#5938e2" /><circle cx="391.6" cy="303.6" r="4" fill="#5938e2" /><circle cx="399.2" cy="303.6" r="4" fill="#5938e2" /><circle cx="406.8" cy="303.6" r="4" fill="#5938e2" /><circle cx="414.4" cy="303.6" r="4" fill="#5938e2" /><circle cx="422.0" cy="303.6" r="4" fill="#5938e2" /><circle cx="429.6" cy="303.6" r="4" fill="#5938e2" /><circle cx="437.2" cy="303.6" r="4" fill="#5938e2" /><circle cx="444.8" cy="303.6" r="4" fill="#5938e2" /><circle cx="452.4" cy="303.6" r="4" fill="#5938e2" /><circle cx="460.0" cy="303.6" r="4" fill="#5938e2" /><circle cx="467.6" cy="302.9" r="4" fill="#5938e2" /><circle cx="475.2" cy="302.9" r="4" fill="#5938e2" /><circle cx="482.8" cy="298.0" r="4" fill="#5938e2" /><circle cx="490.4" cy="298.0" r="4" fill="#5938e2" /><circle cx="498.0" cy="298.0" r="4" fill="#5938e2" /><circle cx="505.6" cy="298.0" r="4" fill="#5938e2" /><circle cx="513.2" cy="298.0" r="4" fill="#5938e2" /><circle cx="520.8" cy="298.0" r="4" fill="#5938e2" /><circle cx="528.4" cy="298.0" r="4" fill="#5938e2" /><circle cx="536.0" cy="298.0" r="4" fill="#5938e2" /><circle cx="543.6" cy="298.0" r="4" fill="#5938e2" /><circle cx="551.2" cy="298.0" r="4" fill="#5938e2" /><circle cx="558.8" cy="298.0" r="4" fill="#5938e2" /><circle cx="566.4" cy="298.0" r="4" fill="#5938e2" /><circle cx="574.0" cy="298.0" r="4" fill="#5938e2" /><circle cx="581.6" cy="298.0" r="4" fill="#5938e2" /><circle cx="589.2" cy="297.8" r="4" fill="#5938e2" /><circle cx="596.8" cy="297.8" r="4" fill="#5938e2" /><circle cx="604.4" cy="297.8" r="4" fill="#5938e2" /><circle cx="612.0" cy="297.8" r="4" fill="#5938e2" /><circle cx="619.6" cy="297.8" r="4" fill="#5938e2" /><circle cx="627.2" cy="297.8" r="4" fill="#5938e2" /><circle cx="634.8" cy="297.8" r="4" fill="#5938e2" /><circle cx="642.4" cy="297.8" r="4" fill="#5938e2" /><circle cx="650.0" cy="297.8" r="4" fill="#5938e2" /><circle cx="657.6" cy="297.8" r="4" fill="#5938e2" /><circle cx="665.2" cy="297.8" r="4" fill="#5938e2" /><circle cx="672.8" cy="297.8" r="4" fill="#5938e2" /><circle cx="680.4" cy="297.8" r="4" fill="#5938e2" /><circle cx="688.0" cy="297.8" r="4" fill="#5938e2" /><circle cx="695.6" cy="297.8" r="4" fill="#5938e2" /><circle cx="703.2" cy="297.8" r="4" fill="#5938e2" /><circle cx="710.8" cy="297.8" r="4" fill="#5938e2" /><circle cx="718.4" cy="297.8" r="4" fill="#5938e2" /><circle cx="726.0" cy="297.8" r="4" fill="#5938e2" /><circle cx="733.6" cy="297.6" r="4" fill="#5938e2" /><circle cx="741.2" cy="297.8" r="4" fill="#5938e2" /><circle cx="748.8" cy="297.8" r="4" fill="#5938e2" /><circle cx="756.4" cy="297.8" r="4" fill="#5938e2" /><circle cx="764.0" cy="297.9" r="4" fill="#5938e2" /><circle cx="771.6" cy="297.9" r="4" fill="#5938e2" /><circle cx="779.2" cy="297.9" r="4" fill="#5938e2" /><circle cx="786.8" cy="296.1" r="4" fill="#5938e2" /><circle cx="794.4" cy="296.1" r="4" fill="#5938e2" /><circle cx="802.0" cy="296.1" r="4" fill="#5938e2" /><circle cx="809.6" cy="296.1" r="4" fill="#5938e2" /><circle cx="817.2" cy="296.1" r="4" fill="#5938e2" /><circle cx="824.8" cy="296.1" r="4" fill="#5938e2" /><circle cx="832.4" cy="296.1" r="4" fill="#5938e2" /><circle cx="840.0" cy="296.1" r="4" fill="#5938e2" /><polyline points="80.0,144.6 87.6,140.1 95.2,139.9 102.8,139.8 110.4,139.8 118.0,139.6 125.6,139.6 133.2,139.6 140.8,139.6 148.4,139.6 156.0,138.4 163.6,138.4 171.2,138.4 178.8,138.4 186.4,138.4 194.0,138.4 201.6,138.4 209.2,137.4 216.8,137.4 224.4,137.4 232.0,137.4 239.6,137.4 247.2,137.4 254.8,137.4 262.4,137.4 270.0,137.4 277.6,137.4 285.2,137.4 292.8,131.2 300.4,131.2 308.0,130.8 315.6,130.4 323.2,126.9 330.8,126.9 338.4,126.9 346.0,126.9 353.6,126.9 361.2,126.9 368.8,126.9 376.4,126.9 384.0,126.9 391.6,126.8 399.2,122.1 406.8,120.4 414.4,120.4 422.0,120.4 429.6,120.4 437.2,120.4 444.8,119.4 452.4,119.4 460.0,119.4 467.6,119.4 475.2,119.1 482.8,118.8 490.4,118.8 498.0,117.8 505.6,117.8 513.2,117.8 520.8,115.8 528.4,115.8 536.0,115.0 543.6,115.0 551.2,115.0 558.8,115.0 566.4,115.0 574.0,115.0 581.6,115.0 589.2,113.9 596.8,111.8 604.4,111.8 612.0,111.8 619.6,111.8 627.2,111.8 634.8,111.8 642.4,111.8 650.0,111.8 657.6,111.8 665.2,111.8 672.8,110.6 680.4,110.6 688.0,110.6 695.6,110.6 703.2,110.6 710.8,109.4 718.4,109.4 726.0,109.4 733.6,109.4 741.2,109.2 748.8,109.2 756.4,109.2 764.0,109.2 771.6,109.2 779.2,109.2 786.8,109.2 794.4,109.2 802.0,109.2 809.6,109.2 817.2,109.2 824.8,109.2 832.4,109.2 840.0,109.2" fill="none" stroke="#60e5e0" stroke-width="2.5" stroke-linecap="round" stroke-linejoin="round" /><circle cx="80.0" cy="144.6" r="4" fill="#60e5e0" /><circle cx="87.6" cy="140.1" r="4" fill="#60e5e0" /><circle cx="95.2" cy="139.9" r="4" fill="#60e5e0" /><circle cx="102.8" cy="139.8" r="4" fill="#60e5e0" /><circle cx="110.4" cy="139.8" r="4" fill="#60e5e0" /><circle cx="118.0" cy="139.6" r="4" fill="#60e5e0" /><circle cx="125.6" cy="139.6" r="4" fill="#60e5e0" /><circle cx="133.2" cy="139.6" r="4" fill="#60e5e0" /><circle cx="140.8" cy="139.6" r="4" fill="#60e5e0" /><circle cx="148.4" cy="139.6" r="4" fill="#60e5e0" /><circle cx="156.0" cy="138.4" r="4" fill="#60e5e0" /><circle cx="163.6" cy="138.4" r="4" fill="#60e5e0" /><circle cx="171.2" cy="138.4" r="4" fill="#60e5e0" /><circle cx="178.8" cy="138.4" r="4" fill="#60e5e0" /><circle cx="186.4" cy="138.4" r="4" fill="#60e5e0" /><circle cx="194.0" cy="138.4" r="4" fill="#60e5e0" /><circle cx="201.6" cy="138.4" r="4" fill="#60e5e0" /><circle cx="209.2" cy="137.4" r="4" fill="#60e5e0" /><circle cx="216.8" cy="137.4" r="4" fill="#60e5e0" /><circle cx="224.4" cy="137.4" r="4" fill="#60e5e0" /><circle cx="232.0" cy="137.4" r="4" fill="#60e5e0" /><circle cx="239.6" cy="137.4" r="4" fill="#60e5e0" /><circle cx="247.2" cy="137.4" r="4" fill="#60e5e0" /><circle cx="254.8" cy="137.4" r="4" fill="#60e5e0" /><circle cx="262.4" cy="137.4" r="4" fill="#60e5e0" /><circle cx="270.0" cy="137.4" r="4" fill="#60e5e0" /><circle cx="277.6" cy="137.4" r="4" fill="#60e5e0" /><circle cx="285.2" cy="137.4" r="4" fill="#60e5e0" /><circle cx="292.8" cy="131.2" r="4" fill="#60e5e0" /><circle cx="300.4" cy="131.2" r="4" fill="#60e5e0" /><circle cx="308.0" cy="130.8" r="4" fill="#60e5e0" /><circle cx="315.6" cy="130.4" r="4" fill="#60e5e0" /><circle cx="323.2" cy="126.9" r="4" fill="#60e5e0" /><circle cx="330.8" cy="126.9" r="4" fill="#60e5e0" /><circle cx="338.4" cy="126.9" r="4" fill="#60e5e0" /><circle cx="346.0" cy="126.9" r="4" fill="#60e5e0" /><circle cx="353.6" cy="126.9" r="4" fill="#60e5e0" /><circle cx="361.2" cy="126.9" r="4" fill="#60e5e0" /><circle cx="368.8" cy="126.9" r="4" fill="#60e5e0" /><circle cx="376.4" cy="126.9" r="4" fill="#60e5e0" /><circle cx="384.0" cy="126.9" r="4" fill="#60e5e0" /><circle cx="391.6" cy="126.8" r="4" fill="#60e5e0" /><circle cx="399.2" cy="122.1" r="4" fill="#60e5e0" /><circle cx="406.8" cy="120.4" r="4" fill="#60e5e0" /><circle cx="414.4" cy="120.4" r="4" fill="#60e5e0" /><circle cx="422.0" cy="120.4" r="4" fill="#60e5e0" /><circle cx="429.6" cy="120.4" r="4" fill="#60e5e0" /><circle cx="437.2" cy="120.4" r="4" fill="#60e5e0" /><circle cx="444.8" cy="119.4" r="4" fill="#60e5e0" /><circle cx="452.4" cy="119.4" r="4" fill="#60e5e0" /><circle cx="460.0" cy="119.4" r="4" fill="#60e5e0" /><circle cx="467.6" cy="119.4" r="4" fill="#60e5e0" /><circle cx="475.2" cy="119.1" r="4" fill="#60e5e0" /><circle cx="482.8" cy="118.8" r="4" fill="#60e5e0" /><circle cx="490.4" cy="118.8" r="4" fill="#60e5e0" /><circle cx="498.0" cy="117.8" r="4" fill="#60e5e0" /><circle cx="505.6" cy="117.8" r="4" fill="#60e5e0" /><circle cx="513.2" cy="117.8" r="4" fill="#60e5e0" /><circle cx="520.8" cy="115.8" r="4" fill="#60e5e0" /><circle cx="528.4" cy="115.8" r="4" fill="#60e5e0" /><circle cx="536.0" cy="115.0" r="4" fill="#60e5e0" /><circle cx="543.6" cy="115.0" r="4" fill="#60e5e0" /><circle cx="551.2" cy="115.0" r="4" fill="#60e5e0" /><circle cx="558.8" cy="115.0" r="4" fill="#60e5e0" /><circle cx="566.4" cy="115.0" r="4" fill="#60e5e0" /><circle cx="574.0" cy="115.0" r="4" fill="#60e5e0" /><circle cx="581.6" cy="115.0" r="4" fill="#60e5e0" /><circle cx="589.2" cy="113.9" r="4" fill="#60e5e0" /><circle cx="596.8" cy="111.8" r="4" fill="#60e5e0" /><circle cx="604.4" cy="111.8" r="4" fill="#60e5e0" /><circle cx="612.0" cy="111.8" r="4" fill="#60e5e0" /><circle cx="619.6" cy="111.8" r="4" fill="#60e5e0" /><circle cx="627.2" cy="111.8" r="4" fill="#60e5e0" /><circle cx="634.8" cy="111.8" r="4" fill="#60e5e0" /><circle cx="642.4" cy="111.8" r="4" fill="#60e5e0" /><circle cx="650.0" cy="111.8" r="4" fill="#60e5e0" /><circle cx="657.6" cy="111.8" r="4" fill="#60e5e0" /><circle cx="665.2" cy="111.8" r="4" fill="#60e5e0" /><circle cx="672.8" cy="110.6" r="4" fill="#60e5e0" /><circle cx="680.4" cy="110.6" r="4" fill="#60e5e0" /><circle cx="688.0" cy="110.6" r="4" fill="#60e5e0" /><circle cx="695.6" cy="110.6" r="4" fill="#60e5e0" /><circle cx="703.2" cy="110.6" r="4" fill="#60e5e0" /><circle cx="710.8" cy="109.4" r="4" fill="#60e5e0" /><circle cx="718.4" cy="109.4" r="4" fill="#60e5e0" /><circle cx="726.0" cy="109.4" r="4" fill="#60e5e0" /><circle cx="733.6" cy="109.4" r="4" fill="#60e5e0" /><circle cx="741.2" cy="109.2" r="4" fill="#60e5e0" /><circle cx="748.8" cy="109.2" r="4" fill="#60e5e0" /><circle cx="756.4" cy="109.2" r="4" fill="#60e5e0" /><circle cx="764.0" cy="109.2" r="4" fill="#60e5e0" /><circle cx="771.6" cy="109.2" r="4" fill="#60e5e0" /><circle cx="779.2" cy="109.2" r="4" fill="#60e5e0" /><circle cx="786.8" cy="109.2" r="4" fill="#60e5e0" /><circle cx="794.4" cy="109.2" r="4" fill="#60e5e0" /><circle cx="802.0" cy="109.2" r="4" fill="#60e5e0" /><circle cx="809.6" cy="109.2" r="4" fill="#60e5e0" /><circle cx="817.2" cy="109.2" r="4" fill="#60e5e0" /><circle cx="824.8" cy="109.2" r="4" fill="#60e5e0" /><circle cx="832.4" cy="109.2" r="4" fill="#60e5e0" /><circle cx="840.0" cy="109.2" r="4" fill="#60e5e0" /><polyline points="80.0,314.6 87.6,314.4 95.2,314.2 102.8,314.2 110.4,314.2 118.0,314.1 125.6,314.1 133.2,314.1 140.8,314.1 148.4,314.1 156.0,314.0 163.6,314.0 171.2,314.0 178.8,314.0 186.4,314.0 194.0,314.0 201.6,314.0 209.2,314.0 216.8,314.0 224.4,314.0 232.0,314.0 239.6,314.0 247.2,314.0 254.8,314.0 262.4,314.0 270.0,314.0 277.6,314.0 285.2,314.0 292.8,314.0 300.4,314.0 308.0,314.0 315.6,314.0 323.2,314.0 330.8,314.0 338.4,314.0 346.0,314.0 353.6,314.0 361.2,314.0 368.8,314.0 376.4,314.0 384.0,314.0 391.6,313.9 399.2,313.6 406.8,313.4 414.4,313.4 422.0,313.4 429.6,313.4 437.2,313.4 444.8,313.1 452.4,313.1 460.0,313.1 467.6,313.1 475.2,313.1 482.8,313.0 490.4,313.0 498.0,312.9 505.6,312.9 513.2,312.9 520.8,312.8 528.4,312.8 536.0,312.6 543.6,312.6 551.2,312.6 558.8,312.6 566.4,312.6 574.0,312.6 581.6,312.6 589.2,312.5 596.8,312.1 604.4,312.1 612.0,312.1 619.6,312.1 627.2,312.1 634.8,312.1 642.4,312.1 650.0,312.1 657.6,312.1 665.2,312.1 672.8,312.0 680.4,312.0 688.0,312.0 695.6,312.0 703.2,312.0 710.8,312.0 718.4,312.0 726.0,312.0 733.6,312.0 741.2,312.0 748.8,312.0 756.4,312.0 764.0,312.0 771.6,312.0 779.2,312.0 786.8,312.0 794.4,312.0 802.0,312.0 809.6,312.0 817.2,312.0 824.8,312.0 832.4,312.0 840.0,312.0" fill="none" stroke="#567de1" stroke-width="2.5" stroke-linecap="round" stroke-linejoin="round" /><circle cx="80.0" cy="314.6" r="4" fill="#567de1" /><circle cx="87.6" cy="314.4" r="4" fill="#567de1" /><circle cx="95.2" cy="314.2" r="4" fill="#567de1" /><circle cx="102.8" cy="314.2" r="4" fill="#567de1" /><circle cx="110.4" cy="314.2" r="4" fill="#567de1" /><circle cx="118.0" cy="314.1" r="4" fill="#567de1" /><circle cx="125.6" cy="314.1" r="4" fill="#567de1" /><circle cx="133.2" cy="314.1" r="4" fill="#567de1" /><circle cx="140.8" cy="314.1" r="4" fill="#567de1" /><circle cx="148.4" cy="314.1" r="4" fill="#567de1" /><circle cx="156.0" cy="314.0" r="4" fill="#567de1" /><circle cx="163.6" cy="314.0" r="4" fill="#567de1" /><circle cx="171.2" cy="314.0" r="4" fill="#567de1" /><circle cx="178.8" cy="314.0" r="4" fill="#567de1" /><circle cx="186.4" cy="314.0" r="4" fill="#567de1" /><circle cx="194.0" cy="314.0" r="4" fill="#567de1" /><circle cx="201.6" cy="314.0" r="4" fill="#567de1" /><circle cx="209.2" cy="314.0" r="4" fill="#567de1" /><circle cx="216.8" cy="314.0" r="4" fill="#567de1" /><circle cx="224.4" cy="314.0" r="4" fill="#567de1" /><circle cx="232.0" cy="314.0" r="4" fill="#567de1" /><circle cx="239.6" cy="314.0" r="4" fill="#567de1" /><circle cx="247.2" cy="314.0" r="4" fill="#567de1" /><circle cx="254.8" cy="314.0" r="4" fill="#567de1" /><circle cx="262.4" cy="314.0" r="4" fill="#567de1" /><circle cx="270.0" cy="314.0" r="4" fill="#567de1" /><circle cx="277.6" cy="314.0" r="4" fill="#567de1" /><circle cx="285.2" cy="314.0" r="4" fill="#567de1" /><circle cx="292.8" cy="314.0" r="4" fill="#567de1" /><circle cx="300.4" cy="314.0" r="4" fill="#567de1" /><circle cx="308.0" cy="314.0" r="4" fill="#567de1" /><circle cx="315.6" cy="314.0" r="4" fill="#567de1" /><circle cx="323.2" cy="314.0" r="4" fill="#567de1" /><circle cx="330.8" cy="314.0" r="4" fill="#567de1" /><circle cx="338.4" cy="314.0" r="4" fill="#567de1" /><circle cx="346.0" cy="314.0" r="4" fill="#567de1" /><circle cx="353.6" cy="314.0" r="4" fill="#567de1" /><circle cx="361.2" cy="314.0" r="4" fill="#567de1" /><circle cx="368.8" cy="314.0" r="4" fill="#567de1" /><circle cx="376.4" cy="314.0" r="4" fill="#567de1" /><circle cx="384.0" cy="314.0" r="4" fill="#567de1" /><circle cx="391.6" cy="313.9" r="4" fill="#567de1" /><circle cx="399.2" cy="313.6" r="4" fill="#567de1" /><circle cx="406.8" cy="313.4" r="4" fill="#567de1" /><circle cx="414.4" cy="313.4" r="4" fill="#567de1" /><circle cx="422.0" cy="313.4" r="4" fill="#567de1" /><circle cx="429.6" cy="313.4" r="4" fill="#567de1" /><circle cx="437.2" cy="313.4" r="4" fill="#567de1" /><circle cx="444.8" cy="313.1" r="4" fill="#567de1" /><circle cx="452.4" cy="313.1" r="4" fill="#567de1" /><circle cx="460.0" cy="313.1" r="4" fill="#567de1" /><circle cx="467.6" cy="313.1" r="4" fill="#567de1" /><circle cx="475.2" cy="313.1" r="4" fill="#567de1" /><circle cx="482.8" cy="313.0" r="4" fill="#567de1" /><circle cx="490.4" cy="313.0" r="4" fill="#567de1" /><circle cx="498.0" cy="312.9" r="4" fill="#567de1" /><circle cx="505.6" cy="312.9" r="4" fill="#567de1" /><circle cx="513.2" cy="312.9" r="4" fill="#567de1" /><circle cx="520.8" cy="312.8" r="4" fill="#567de1" /><circle cx="528.4" cy="312.8" r="4" fill="#567de1" /><circle cx="536.0" cy="312.6" r="4" fill="#567de1" /><circle cx="543.6" cy="312.6" r="4" fill="#567de1" /><circle cx="551.2" cy="312.6" r="4" fill="#567de1" /><circle cx="558.8" cy="312.6" r="4" fill="#567de1" /><circle cx="566.4" cy="312.6" r="4" fill="#567de1" /><circle cx="574.0" cy="312.6" r="4" fill="#567de1" /><circle cx="581.6" cy="312.6" r="4" fill="#567de1" /><circle cx="589.2" cy="312.5" r="4" fill="#567de1" /><circle cx="596.8" cy="312.1" r="4" fill="#567de1" /><circle cx="604.4" cy="312.1" r="4" fill="#567de1" /><circle cx="612.0" cy="312.1" r="4" fill="#567de1" /><circle cx="619.6" cy="312.1" r="4" fill="#567de1" /><circle cx="627.2" cy="312.1" r="4" fill="#567de1" /><circle cx="634.8" cy="312.1" r="4" fill="#567de1" /><circle cx="642.4" cy="312.1" r="4" fill="#567de1" /><circle cx="650.0" cy="312.1" r="4" fill="#567de1" /><circle cx="657.6" cy="312.1" r="4" fill="#567de1" /><circle cx="665.2" cy="312.1" r="4" fill="#567de1" /><circle cx="672.8" cy="312.0" r="4" fill="#567de1" /><circle cx="680.4" cy="312.0" r="4" fill="#567de1" /><circle cx="688.0" cy="312.0" r="4" fill="#567de1" /><circle cx="695.6" cy="312.0" r="4" fill="#567de1" /><circle cx="703.2" cy="312.0" r="4" fill="#567de1" /><circle cx="710.8" cy="312.0" r="4" fill="#567de1" /><circle cx="718.4" cy="312.0" r="4" fill="#567de1" /><circle cx="726.0" cy="312.0" r="4" fill="#567de1" /><circle cx="733.6" cy="312.0" r="4" fill="#567de1" /><circle cx="741.2" cy="312.0" r="4" fill="#567de1" /><circle cx="748.8" cy="312.0" r="4" fill="#567de1" /><circle cx="756.4" cy="312.0" r="4" fill="#567de1" /><circle cx="764.0" cy="312.0" r="4" fill="#567de1" /><circle cx="771.6" cy="312.0" r="4" fill="#567de1" /><circle cx="779.2" cy="312.0" r="4" fill="#567de1" /><circle cx="786.8" cy="312.0" r="4" fill="#567de1" /><circle cx="794.4" cy="312.0" r="4" fill="#567de1" /><circle cx="802.0" cy="312.0" r="4" fill="#567de1" /><circle cx="809.6" cy="312.0" r="4" fill="#567de1" /><circle cx="817.2" cy="312.0" r="4" fill="#567de1" /><circle cx="824.8" cy="312.0" r="4" fill="#567de1" /><circle cx="832.4" cy="312.0" r="4" fill="#567de1" /><circle cx="840.0" cy="312.0" r="4" fill="#567de1" /><polyline points="80.0,303.9 87.6,304.2 95.2,304.4 102.8,304.4 110.4,304.4 118.0,304.4 125.6,304.4 133.2,304.4 140.8,304.4 148.4,304.4 156.0,304.4 163.6,304.4 171.2,304.4 178.8,304.4 186.4,304.4 194.0,304.4 201.6,304.4 209.2,304.4 216.8,304.4 224.4,304.4 232.0,304.4 239.6,304.4 247.2,304.4 254.8,304.4 262.4,304.4 270.0,304.4 277.6,304.4 285.2,304.4 292.8,299.1 300.4,299.1 308.0,299.1 315.6,298.9 323.2,295.6 330.8,295.6 338.4,295.6 346.0,295.6 353.6,295.6 361.2,295.6 368.8,295.6 376.4,295.6 384.0,295.6 391.6,295.8 399.2,295.9 406.8,295.9 414.4,295.9 422.0,295.9 429.6,295.9 437.2,295.9 444.8,295.9 452.4,295.9 460.0,295.9 467.6,295.9 475.2,295.9 482.8,295.9 490.4,295.9 498.0,295.9 505.6,295.9 513.2,295.9 520.8,295.8 528.4,295.8 536.0,295.9 543.6,295.9 551.2,295.9 558.8,295.9 566.4,295.9 574.0,295.9 581.6,295.9 589.2,296.0 596.8,296.4 604.4,296.4 612.0,296.4 619.6,296.4 627.2,296.4 634.8,296.4 642.4,296.4 650.0,296.4 657.6,296.4 665.2,296.4 672.8,296.5 680.4,296.5 688.0,296.5 695.6,296.5 703.2,296.5 710.8,296.5 718.4,296.5 726.0,296.5 733.6,296.5 741.2,296.5 748.8,296.5 756.4,296.5 764.0,296.5 771.6,296.5 779.2,296.5 786.8,296.5 794.4,296.5 802.0,296.5 809.6,296.5 817.2,296.5 824.8,296.5 832.4,296.5 840.0,296.5" fill="none" stroke="#9754dd" stroke-width="2.5" stroke-linecap="round" stroke-linejoin="round" /><circle cx="80.0" cy="303.9" r="4" fill="#9754dd" /><circle cx="87.6" cy="304.2" r="4" fill="#9754dd" /><circle cx="95.2" cy="304.4" r="4" fill="#9754dd" /><circle cx="102.8" cy="304.4" r="4" fill="#9754dd" /><circle cx="110.4" cy="304.4" r="4" fill="#9754dd" /><circle cx="118.0" cy="304.4" r="4" fill="#9754dd" /><circle cx="125.6" cy="304.4" r="4" fill="#9754dd" /><circle cx="133.2" cy="304.4" r="4" fill="#9754dd" /><circle cx="140.8" cy="304.4" r="4" fill="#9754dd" /><circle cx="148.4" cy="304.4" r="4" fill="#9754dd" /><circle cx="156.0" cy="304.4" r="4" fill="#9754dd" /><circle cx="163.6" cy="304.4" r="4" fill="#9754dd" /><circle cx="171.2" cy="304.4" r="4" fill="#9754dd" /><circle cx="178.8" cy="304.4" r="4" fill="#9754dd" /><circle cx="186.4" cy="304.4" r="4" fill="#9754dd" /><circle cx="194.0" cy="304.4" r="4" fill="#9754dd" /><circle cx="201.6" cy="304.4" r="4" fill="#9754dd" /><circle cx="209.2" cy="304.4" r="4" fill="#9754dd" /><circle cx="216.8" cy="304.4" r="4" fill="#9754dd" /><circle cx="224.4" cy="304.4" r="4" fill="#9754dd" /><circle cx="232.0" cy="304.4" r="4" fill="#9754dd" /><circle cx="239.6" cy="304.4" r="4" fill="#9754dd" /><circle cx="247.2" cy="304.4" r="4" fill="#9754dd" /><circle cx="254.8" cy="304.4" r="4" fill="#9754dd" /><circle cx="262.4" cy="304.4" r="4" fill="#9754dd" /><circle cx="270.0" cy="304.4" r="4" fill="#9754dd" /><circle cx="277.6" cy="304.4" r="4" fill="#9754dd" /><circle cx="285.2" cy="304.4" r="4" fill="#9754dd" /><circle cx="292.8" cy="299.1" r="4" fill="#9754dd" /><circle cx="300.4" cy="299.1" r="4" fill="#9754dd" /><circle cx="308.0" cy="299.1" r="4" fill="#9754dd" /><circle cx="315.6" cy="298.9" r="4" fill="#9754dd" /><circle cx="323.2" cy="295.6" r="4" fill="#9754dd" /><circle cx="330.8" cy="295.6" r="4" fill="#9754dd" /><circle cx="338.4" cy="295.6" r="4" fill="#9754dd" /><circle cx="346.0" cy="295.6" r="4" fill="#9754dd" /><circle cx="353.6" cy="295.6" r="4" fill="#9754dd" /><circle cx="361.2" cy="295.6" r="4" fill="#9754dd" /><circle cx="368.8" cy="295.6" r="4" fill="#9754dd" /><circle cx="376.4" cy="295.6" r="4" fill="#9754dd" /><circle cx="384.0" cy="295.6" r="4" fill="#9754dd" /><circle cx="391.6" cy="295.8" r="4" fill="#9754dd" /><circle cx="399.2" cy="295.9" r="4" fill="#9754dd" /><circle cx="406.8" cy="295.9" r="4" fill="#9754dd" /><circle cx="414.4" cy="295.9" r="4" fill="#9754dd" /><circle cx="422.0" cy="295.9" r="4" fill="#9754dd" /><circle cx="429.6" cy="295.9" r="4" fill="#9754dd" /><circle cx="437.2" cy="295.9" r="4" fill="#9754dd" /><circle cx="444.8" cy="295.9" r="4" fill="#9754dd" /><circle cx="452.4" cy="295.9" r="4" fill="#9754dd" /><circle cx="460.0" cy="295.9" r="4" fill="#9754dd" /><circle cx="467.6" cy="295.9" r="4" fill="#9754dd" /><circle cx="475.2" cy="295.9" r="4" fill="#9754dd" /><circle cx="482.8" cy="295.9" r="4" fill="#9754dd" /><circle cx="490.4" cy="295.9" r="4" fill="#9754dd" /><circle cx="498.0" cy="295.9" r="4" fill="#9754dd" /><circle cx="505.6" cy="295.9" r="4" fill="#9754dd" /><circle cx="513.2" cy="295.9" r="4" fill="#9754dd" /><circle cx="520.8" cy="295.8" r="4" fill="#9754dd" /><circle cx="528.4" cy="295.8" r="4" fill="#9754dd" /><circle cx="536.0" cy="295.9" r="4" fill="#9754dd" /><circle cx="543.6" cy="295.9" r="4" fill="#9754dd" /><circle cx="551.2" cy="295.9" r="4" fill="#9754dd" /><circle cx="558.8" cy="295.9" r="4" fill="#9754dd" /><circle cx="566.4" cy="295.9" r="4" fill="#9754dd" /><circle cx="574.0" cy="295.9" r="4" fill="#9754dd" /><circle cx="581.6" cy="295.9" r="4" fill="#9754dd" /><circle cx="589.2" cy="296.0" r="4" fill="#9754dd" /><circle cx="596.8" cy="296.4" r="4" fill="#9754dd" /><circle cx="604.4" cy="296.4" r="4" fill="#9754dd" /><circle cx="612.0" cy="296.4" r="4" fill="#9754dd" /><circle cx="619.6" cy="296.4" r="4" fill="#9754dd" /><circle cx="627.2" cy="296.4" r="4" fill="#9754dd" /><circle cx="634.8" cy="296.4" r="4" fill="#9754dd" /><circle cx="642.4" cy="296.4" r="4" fill="#9754dd" /><circle cx="650.0" cy="296.4" r="4" fill="#9754dd" /><circle cx="657.6" cy="296.4" r="4" fill="#9754dd" /><circle cx="665.2" cy="296.4" r="4" fill="#9754dd" /><circle cx="672.8" cy="296.5" r="4" fill="#9754dd" /><circle cx="680.4" cy="296.5" r="4" fill="#9754dd" /><circle cx="688.0" cy="296.5" r="4" fill="#9754dd" /><circle cx="695.6" cy="296.5" r="4" fill="#9754dd" /><circle cx="703.2" cy="296.5" r="4" fill="#9754dd" /><circle cx="710.8" cy="296.5" r="4" fill="#9754dd" /><circle cx="718.4" cy="296.5" r="4" fill="#9754dd" /><circle cx="726.0" cy="296.5" r="4" fill="#9754dd" /><circle cx="733.6" cy="296.5" r="4" fill="#9754dd" /><circle cx="741.2" cy="296.5" r="4" fill="#9754dd" /><circle cx="748.8" cy="296.5" r="4" fill="#9754dd" /><circle cx="756.4" cy="296.5" r="4" fill="#9754dd" /><circle cx="764.0" cy="296.5" r="4" fill="#9754dd" /><circle cx="771.6" cy="296.5" r="4" fill="#9754dd" /><circle cx="779.2" cy="296.5" r="4" fill="#9754dd" /><circle cx="786.8" cy="296.5" r="4" fill="#9754dd" /><circle cx="794.4" cy="296.5" r="4" fill="#9754dd" /><circle cx="802.0" cy="296.5" r="4" fill="#9754dd" /><circle cx="809.6" cy="296.5" r="4" fill="#9754dd" /><circle cx="817.2" cy="296.5" r="4" fill="#9754dd" /><circle cx="824.8" cy="296.5" r="4" fill="#9754dd" /><circle cx="832.4" cy="296.5" r="4" fill="#9754dd" /><circle cx="840.0" cy="296.5" r="4" fill="#9754dd" />
  <rect x="80" y="339" width="10" height="10" rx="2" ry="2" fill="#19e5a1" /><text x="96" y="348" class="legend-label">Stars</text><rect x="250" y="339" width="10" height="10" rx="2" ry="2" fill="#6eb6ec" /><text x="266" y="348" class="legend-label">Followers</text><rect x="420" y="339" width="10" height="10" rx="2" ry="2" fill="#5938e2" /><text x="436" y="348" class="legend-label">Following</text><rect x="590" y="339" width="10" height="10" rx="2" ry="2" fill="#60e5e0" /><text x="606" y="348" class="legend-label">Contributions</text><rect x="80" y="357" width="10" height="10" rx="2" ry="2" fill="#567de1" /><text x="96" y="366" class="legend-label">Pull Requests</text><rect x="250" y="357" width="10" height="10" rx="2" ry="2" fill="#9754dd" /><text x="266" y="366" class="legend-label">Issues</text>
</svg>
