<svg width="900" height="402" viewBox="0 0 900 402" xmlns="http://www.w3.org/2000/svg">
  <defs>
    <linearGradient id="history-gradient" x1="0%" y1="0%" x2="100%" y2="100%">
      <stop offset="0%" style="stop-color:#58a6ff;stop-opacity:1" />
      <stop offset="100%" style="stop-color:#a371f7;stop-opacity:1" />
    </linearGradient>
    <clipPath id="history-rounded">
      <rect x="0" y="0" width="900" height="402" rx="8" ry="8" />
    </clipPath>
  </defs>
  <style>
    .title {
      font-family: 'Segoe UI', Ubuntu, 'Helvetica Neue', sans-serif;
      font-size: 22px;
      font-weight: 700;
      fill: #58a6ff;
    }
    .subtitle {
      font-family: 'Segoe UI', Ubuntu, 'Helvetica Neue', sans-serif;
      font-size: 12px;
      font-weight: 500;
      fill: #8b949e;
    }
    .axis-label {
      font-family: 'Segoe UI', Ubuntu, 'Helvetica Neue', sans-serif;
      font-size: 10px;
      fill: #8b949e;
    }
    .grid-line {
      stroke: #30363d;
      stroke-width: 1;
      opacity: 0.3;
    }
    .legend-label {
      font-family: 'Segoe UI', Ubuntu, 'Helvetica Neue', sans-serif;
      font-size: 11px;
      fill: #c9d1d9;
      dominant-baseline: middle;
    }
  </style>
  <rect clip-path="url(#history-rounded)" width="100%" height="100%" fill="#0d1117" stroke="#30363d" stroke-width="1" />
  <rect x="0" y="396" width="900" height="6" fill="url(#history-gradient)" clip-path="url(#history-rounded)" />
  <text x="24" y="34" class="title">Leonardo Klein Stats History</text>
  <text x="24" y="54" class="subtitle">Period: 2026-02-20 to 2026-03-01</text>
  <text x="72" y="320.0" text-anchor="end" dominant-baseline="central" class="axis-label">0</text><text x="72" y="270.0" text-anchor="end" dominant-baseline="central" class="axis-label">400</text><text x="72" y="220.0" text-anchor="end" dominant-baseline="central" class="axis-label">800</text><text x="72" y="170.0" text-anchor="end" dominant-baseline="central" class="axis-label">1.2k</text><text x="72" y="120.0" text-anchor="end" dominant-baseline="central" class="axis-label">1.6k</text><text x="72" y="70.0" text-anchor="end" dominant-baseline="central" class="axis-label">2.0k</text>
  <text x="80.0" y="336" text-anchor="middle" class="axis-label">02-20</text><text x="144.7" y="336" text-anchor="middle" class="axis-label">02-21</text><text x="209.4" y="336" text-anchor="middle" class="axis-label">02-22</text><text x="274.0" y="336" text-anchor="middle" class="axis-label">02-22</text><text x="338.7" y="336" text-anchor="middle" class="axis-label">02-23</text><text x="403.4" y="336" text-anchor="middle" class="axis-label">02-24</text><text x="468.1" y="336" text-anchor="middle" class="axis-label">02-25</text><text x="532.8" y="336" text-anchor="middle" class="axis-label">02-26</text><text x="597.4" y="336" text-anchor="middle" class="axis-label">02-26</text><text x="662.1" y="336" text-anchor="middle" class="axis-label">02-27</text><text x="726.8" y="336" text-anchor="middle" class="axis-label">02-28</text><text x="791.5" y="336" text-anchor="middle" class="axis-label">03-01</text><text x="840.0" y="336" text-anchor="middle" class="axis-label">03-01</text>
  <line x1="80" y1="320.0" x2="840" y2="320.0" class="grid-line" /><line x1="80" y1="270.0" x2="840" y2="270.0" class="grid-line" /><line x1="80" y1="220.0" x2="840" y2="220.0" class="grid-line" /><line x1="80" y1="170.0" x2="840" y2="170.0" class="grid-line" /><line x1="80" y1="120.0" x2="840" y2="120.0" class="grid-line" /><line x1="80" y1="70.0" x2="840" y2="70.0" class="grid-line" />
  <polyline points="80.0,317.0 96.2,317.0 112.3,317.0 128.5,317.0 144.7,317.0 160.9,317.0 177.0,317.0 193.2,317.0 209.4,317.0 225.5,317.0 241.7,317.0 257.9,317.0 274.0,317.0 290.2,317.0 306.4,317.0 322.6,317.0 338.7,317.0 354.9,317.0 371.1,317.0 387.2,317.0 403.4,317.0 419.6,317.0 435.7,317.0 451.9,317.0 468.1,317.0 484.3,317.0 500.4,317.0 516.6,317.0 532.8,317.0 548.9,317.0 565.1,317.0 581.3,317.0 597.4,317.0 613.6,317.0 629.8,317.0 646.0,317.0 662.1,317.0 678.3,317.0 694.5,317.0 710.6,317.0 726.8,317.0 743.0,317.0 759.1,317.0 775.3,317.0 791.5,317.0 807.7,317.0 823.8,317.0 840.0,317.0" fill="none" stroke="#19e5a1" stroke-width="2.5" stroke-linecap="round" stroke-linejoin="round" /><circle cx="80.0" cy="317.0" r="4" fill="#19e5a1" /><circle cx="96.2" cy="317.0" r="4" fill="#19e5a1" /><circle cx="112.3" cy="317.0" r="4" fill="#19e5a1" /><circle cx="128.5" cy="317.0" r="4" fill="#19e5a1" /><circle cx="144.7" cy="317.0" r="4" fill="#19e5a1" /><circle cx="160.9" cy="317.0" r="4" fill="#19e5a1" /><circle cx="177.0" cy="317.0" r="4" fill="#19e5a1" /><circle cx="193.2" cy="317.0" r="4" fill="#19e5a1" /><circle cx="209.4" cy="317.0" r="4" fill="#19e5a1" /><circle cx="225.5" cy="317.0" r="4" fill="#19e5a1" /><circle cx="241.7" cy="317.0" r="4" fill="#19e5a1" /><circle cx="257.9" cy="317.0" r="4" fill="#19e5a1" /><circle cx="274.0" cy="317.0" r="4" fill="#19e5a1" /><circle cx="290.2" cy="317.0" r="4" fill="#19e5a1" /><circle cx="306.4" cy="317.0" r="4" fill="#19e5a1" /><circle cx="322.6" cy="317.0" r="4" fill="#19e5a1" /><circle cx="338.7" cy="317.0" r="4" fill="#19e5a1" /><circle cx="354.9" cy="317.0" r="4" fill="#19e5a1" /><circle cx="371.1" cy="317.0" r="4" fill="#19e5a1" /><circle cx="387.2" cy="317.0" r="4" fill="#19e5a1" /><circle cx="403.4" cy="317.0" r="4" fill="#19e5a1" /><circle cx="419.6" cy="317.0" r="4" fill="#19e5a1" /><circle cx="435.7" cy="317.0" r="4" fill="#19e5a1" /><circle cx="451.9" cy="317.0" r="4" fill="#19e5a1" /><circle cx="468.1" cy="317.0" r="4" fill="#19e5a1" /><circle cx="484.3" cy="317.0" r="4" fill="#19e5a1" /><circle cx="500.4" cy="317.0" r="4" fill="#19e5a1" /><circle cx="516.6" cy="317.0" r="4" fill="#19e5a1" /><circle cx="532.8" cy="317.0" r="4" fill="#19e5a1" /><circle cx="548.9" cy="317.0" r="4" fill="#19e5a1" /><circle cx="565.1" cy="317.0" r="4" fill="#19e5a1" /><circle cx="581.3" cy="317.0" r="4" fill="#19e5a1" /><circle cx="597.4" cy="317.0" r="4" fill="#19e5a1" /><circle cx="613.6" cy="317.0" r="4" fill="#19e5a1" /><circle cx="629.8" cy="317.0" r="4" fill="#19e5a1" /><circle cx="646.0" cy="317.0" r="4" fill="#19e5a1" /><circle cx="662.1" cy="317.0" r="4" fill="#19e5a1" /><circle cx="678.3" cy="317.0" r="4" fill="#19e5a1" /><circle cx="694.5" cy="317.0" r="4" fill="#19e5a1" /><circle cx="710.6" cy="317.0" r="4" fill="#19e5a1" /><circle cx="726.8" cy="317.0" r="4" fill="#19e5a1" /><circle cx="743.0" cy="317.0" r="4" fill="#19e5a1" /><circle cx="759.1" cy="317.0" r="4" fill="#19e5a1" /><circle cx="775.3" cy="317.0" r="4" fill="#19e5a1" /><circle cx="791.5" cy="317.0" r="4" fill="#19e5a1" /><circle cx="807.7" cy="317.0" r="4" fill="#19e5a1" /><circle cx="823.8" cy="317.0" r="4" fill="#19e5a1" /><circle cx="840.0" cy="317.0" r="4" fill="#19e5a1" /><polyline points="80.0,313.2 96.2,312.2 112.3,312.1 128.5,312.4 144.7,312.4 160.9,312.4 177.0,312.1 193.2,312.0 209.4,311.9 225.5,311.9 241.7,311.8 257.9,311.8 274.0,311.5 290.2,311.5 306.4,311.5 322.6,311.2 338.7,311.2 354.9,311.1 371.1,311.1 387.2,311.1 403.4,310.9 419.6,311.0 435.7,310.8 451.9,310.8 468.1,310.8 484.3,310.8 500.4,310.4 516.6,310.2 532.8,310.4 548.9,310.4 565.1,310.4 581.3,310.4 597.4,310.4 613.6,310.2 629.8,310.2 646.0,310.1 662.1,310.1 678.3,309.8 694.5,309.6 710.6,309.6 726.8,309.6 743.0,309.6 759.1,309.5 775.3,309.4 791.5,309.4 807.7,309.4 823.8,309.4 840.0,309.2" fill="none" stroke="#6eb6ec" stroke-width="2.5" stroke-linecap="round" stroke-linejoin="round" /><circle cx="80.0" cy="313.2" r="4" fill="#6eb6ec" /><circle cx="96.2" cy="312.2" r="4" fill="#6eb6ec" /><circle cx="112.3" cy="312.1" r="4" fill="#6eb6ec" /><circle cx="128.5" cy="312.4" r="4" fill="#6eb6ec" /><circle cx="144.7" cy="312.4" r="4" fill="#6eb6ec" /><circle cx="160.9" cy="312.4" r="4" fill="#6eb6ec" /><circle cx="177.0" cy="312.1" r="4" fill="#6eb6ec" /><circle cx="193.2" cy="312.0" r="4" fill="#6eb6ec" /><circle cx="209.4" cy="311.9" r="4" fill="#6eb6ec" /><circle cx="225.5" cy="311.9" r="4" fill="#6eb6ec" /><circle cx="241.7" cy="311.8" r="4" fill="#6eb6ec" /><circle cx="257.9" cy="311.8" r="4" fill="#6eb6ec" /><circle cx="274.0" cy="311.5" r="4" fill="#6eb6ec" /><circle cx="290.2" cy="311.5" r="4" fill="#6eb6ec" /><circle cx="306.4" cy="311.5" r="4" fill="#6eb6ec" /><circle cx="322.6" cy="311.2" r="4" fill="#6eb6ec" /><circle cx="338.7" cy="311.2" r="4" fill="#6eb6ec" /><circle cx="354.9" cy="311.1" r="4" fill="#6eb6ec" /><circle cx="371.1" cy="311.1" r="4" fill="#6eb6ec" /><circle cx="387.2" cy="311.1" r="4" fill="#6eb6ec" /><circle cx="403.4" cy="310.9" r="4" fill="#6eb6ec" /><circle cx="419.6" cy="311.0" r="4" fill="#6eb6ec" /><circle cx="435.7" cy="310.8" r="4" fill="#6eb6ec" /><circle cx="451.9" cy="310.8" r="4" fill="#6eb6ec" /><circle cx="468.1" cy="310.8" r="4" fill="#6eb6ec" /><circle cx="484.3" cy="310.8" r="4" fill="#6eb6ec" /><circle cx="500.4" cy="310.4" r="4" fill="#6eb6ec" /><circle cx="516.6" cy="310.2" r="4" fill="#6eb6ec" /><circle cx="532.8" cy="310.4" r="4" fill="#6eb6ec" /><circle cx="548.9" cy="310.4" r="4" fill="#6eb6ec" /><circle cx="565.1" cy="310.4" r="4" fill="#6eb6ec" /><circle cx="581.3" cy="310.4" r="4" fill="#6eb6ec" /><circle cx="597.4" cy="310.4" r="4" fill="#6eb6ec" /><circle cx="613.6" cy="310.2" r="4" fill="#6eb6ec" /><circle cx="629.8" cy="310.2" r="4" fill="#6eb6ec" /><circle cx="646.0" cy="310.1" r="4" fill="#6eb6ec" /><circle cx="662.1" cy="310.1" r="4" fill="#6eb6ec" /><circle cx="678.3" cy="309.8" r="4" fill="#6eb6ec" /><circle cx="694.5" cy="309.6" r="4" fill="#6eb6ec" /><circle cx="710.6" cy="309.6" r="4" fill="#6eb6ec" /><circle cx="726.8" cy="309.6" r="4" fill="#6eb6ec" /><circle cx="743.0" cy="309.6" r="4" fill="#6eb6ec" /><circle cx="759.1" cy="309.5" r="4" fill="#6eb6ec" /><circle cx="775.3" cy="309.4" r="4" fill="#6eb6ec" /><circle cx="791.5" cy="309.4" r="4" fill="#6eb6ec" /><circle cx="807.7" cy="309.4" r="4" fill="#6eb6ec" /><circle cx="823.8" cy="309.4" r="4" fill="#6eb6ec" /><circle cx="840.0" cy="309.2" r="4" fill="#6eb6ec" /><polyline points="80.0,305.8 96.2,305.8 112.3,305.8 128.5,305.8 144.7,305.8 160.9,305.8 177.0,305.8 193.2,305.8 209.4,305.8 225.5,305.8 241.7,304.9 257.9,304.9 274.0,304.9 290.2,304.9 306.4,304.9 322.6,304.9 338.7,304.9 354.9,304.9 371.1,304.9 387.2,304.9 403.4,304.9 419.6,304.9 435.7,304.9 451.9,304.9 468.1,304.9 484.3,304.9 500.4,304.9 516.6,304.9 532.8,304.9 548.9,304.9 565.1,304.9 581.3,304.9 597.4,304.9 613.6,304.9 629.8,304.9 646.0,304.9 662.1,304.9 678.3,303.6 694.5,303.6 710.6,303.6 726.8,303.6 743.0,303.6 759.1,303.6 775.3,303.6 791.5,303.6 807.7,303.6 823.8,303.6 840.0,303.6" fill="none" stroke="#5938e2" stroke-width="2.5" stroke-linecap="round" stroke-linejoin="round" /><circle cx="80.0" cy="305.8" r="4" fill="#5938e2" /><circle cx="96.2" cy="305.8" r="4" fill="#5938e2" /><circle cx="112.3" cy="305.8" r="4" fill="#5938e2" /><circle cx="128.5" cy="305.8" r="4" fill="#5938e2" /><circle cx="144.7" cy="305.8" r="4" fill="#5938e2" /><circle cx="160.9" cy="305.8" r="4" fill="#5938e2" /><circle cx="177.0" cy="305.8" r="4" fill="#5938e2" /><circle cx="193.2" cy="305.8" r="4" fill="#5938e2" /><circle cx="209.4" cy="305.8" r="4" fill="#5938e2" /><circle cx="225.5" cy="305.8" r="4" fill="#5938e2" /><circle cx="241.7" cy="304.9" r="4" fill="#5938e2" /><circle cx="257.9" cy="304.9" r="4" fill="#5938e2" /><circle cx="274.0" cy="304.9" r="4" fill="#5938e2" /><circle cx="290.2" cy="304.9" r="4" fill="#5938e2" /><circle cx="306.4" cy="304.9" r="4" fill="#5938e2" /><circle cx="322.6" cy="304.9" r="4" fill="#5938e2" /><circle cx="338.7" cy="304.9" r="4" fill="#5938e2" /><circle cx="354.9" cy="304.9" r="4" fill="#5938e2" /><circle cx="371.1" cy="304.9" r="4" fill="#5938e2" /><circle cx="387.2" cy="304.9" r="4" fill="#5938e2" /><circle cx="403.4" cy="304.9" r="4" fill="#5938e2" /><circle cx="419.6" cy="304.9" r="4" fill="#5938e2" /><circle cx="435.7" cy="304.9" r="4" fill="#5938e2" /><circle cx="451.9" cy="304.9" r="4" fill="#5938e2" /><circle cx="468.1" cy="304.9" r="4" fill="#5938e2" /><circle cx="484.3" cy="304.9" r="4" fill="#5938e2" /><circle cx="500.4" cy="304.9" r="4" fill="#5938e2" /><circle cx="516.6" cy="304.9" r="4" fill="#5938e2" /><circle cx="532.8" cy="304.9" r="4" fill="#5938e2" /><circle cx="548.9" cy="304.9" r="4" fill="#5938e2" /><circle cx="565.1" cy="304.9" r="4" fill="#5938e2" /><circle cx="581.3" cy="304.9" r="4" fill="#5938e2" /><circle cx="597.4" cy="304.9" r="4" fill="#5938e2" /><circle cx="613.6" cy="304.9" r="4" fill="#5938e2" /><circle cx="629.8" cy="304.9" r="4" fill="#5938e2" /><circle cx="646.0" cy="304.9" r="4" fill="#5938e2" /><circle cx="662.1" cy="304.9" r="4" fill="#5938e2" /><circle cx="678.3" cy="303.6" r="4" fill="#5938e2" /><circle cx="694.5" cy="303.6" r="4" fill="#5938e2" /><circle cx="710.6" cy="303.6" r="4" fill="#5938e2" /><circle cx="726.8" cy="303.6" r="4" fill="#5938e2" /><circle cx="743.0" cy="303.6" r="4" fill="#5938e2" /><circle cx="759.1" cy="303.6" r="4" fill="#5938e2" /><circle cx="775.3" cy="303.6" r="4" fill="#5938e2" /><circle cx="791.5" cy="303.6" r="4" fill="#5938e2" /><circle cx="807.7" cy="303.6" r="4" fill="#5938e2" /><circle cx="823.8" cy="303.6" r="4" fill="#5938e2" /><circle cx="840.0" cy="303.6" r="4" fill="#5938e2" /><polyline points="80.0,144.6 96.2,140.1 112.3,139.9 128.5,139.8 144.7,139.8 160.9,139.6 177.0,139.6 193.2,139.6 209.4,139.6 225.5,139.6 241.7,138.4 257.9,138.4 274.0,138.4 290.2,138.4 306.4,138.4 322.6,138.4 338.7,138.4 354.9,137.4 371.1,137.4 387.2,137.4 403.4,137.4 419.6,137.4 435.7,137.4 451.9,137.4 468.1,137.4 484.3,137.4 500.4,137.4 516.6,137.4 532.8,131.2 548.9,131.2 565.1,130.8 581.3,130.4 597.4,126.9 613.6,126.9 629.8,126.9 646.0,126.9 662.1,126.9 678.3,126.9 694.5,126.9 710.6,126.9 726.8,126.9 743.0,126.8 759.1,122.1 775.3,120.4 791.5,120.4 807.7,120.4 823.8,120.4 840.0,120.4" fill="none" stroke="#60e5e0" stroke-width="2.5" stroke-linecap="round" stroke-linejoin="round" /><circle cx="80.0" cy="144.6" r="4" fill="#60e5e0" /><circle cx="96.2" cy="140.1" r="4" fill="#60e5e0" /><circle cx="112.3" cy="139.9" r="4" fill="#60e5e0" /><circle cx="128.5" cy="139.8" r="4" fill="#60e5e0" /><circle cx="144.7" cy="139.8" r="4" fill="#60e5e0" /><circle cx="160.9" cy="139.6" r="4" fill="#60e5e0" /><circle cx="177.0" cy="139.6" r="4" fill="#60e5e0" /><circle cx="193.2" cy="139.6" r="4" fill="#60e5e0" /><circle cx="209.4" cy="139.6" r="4" fill="#60e5e0" /><circle cx="225.5" cy="139.6" r="4" fill="#60e5e0" /><circle cx="241.7" cy="138.4" r="4" fill="#60e5e0" /><circle cx="257.9" cy="138.4" r="4" fill="#60e5e0" /><circle cx="274.0" cy="138.4" r="4" fill="#60e5e0" /><circle cx="290.2" cy="138.4" r="4" fill="#60e5e0" /><circle cx="306.4" cy="138.4" r="4" fill="#60e5e0" /><circle cx="322.6" cy="138.4" r="4" fill="#60e5e0" /><circle cx="338.7" cy="138.4" r="4" fill="#60e5e0" /><circle cx="354.9" cy="137.4" r="4" fill="#60e5e0" /><circle cx="371.1" cy="137.4" r="4" fill="#60e5e0" /><circle cx="387.2" cy="137.4" r="4" fill="#60e5e0" /><circle cx="403.4" cy="137.4" r="4" fill="#60e5e0" /><circle cx="419.6" cy="137.4" r="4" fill="#60e5e0" /><circle cx="435.7" cy="137.4" r="4" fill="#60e5e0" /><circle cx="451.9" cy="137.4" r="4" fill="#60e5e0" /><circle cx="468.1" cy="137.4" r="4" fill="#60e5e0" /><circle cx="484.3" cy="137.4" r="4" fill="#60e5e0" /><circle cx="500.4" cy="137.4" r="4" fill="#60e5e0" /><circle cx="516.6" cy="137.4" r="4" fill="#60e5e0" /><circle cx="532.8" cy="131.2" r="4" fill="#60e5e0" /><circle cx="548.9" cy="131.2" r="4" fill="#60e5e0" /><circle cx="565.1" cy="130.8" r="4" fill="#60e5e0" /><circle cx="581.3" cy="130.4" r="4" fill="#60e5e0" /><circle cx="597.4" cy="126.9" r="4" fill="#60e5e0" /><circle cx="613.6" cy="126.9" r="4" fill="#60e5e0" /><circle cx="629.8" cy="126.9" r="4" fill="#60e5e0" /><circle cx="646.0" cy="126.9" r="4" fill="#60e5e0" /><circle cx="662.1" cy="126.9" r="4" fill="#60e5e0" /><circle cx="678.3" cy="126.9" r="4" fill="#60e5e0" /><circle cx="694.5" cy="126.9" r="4" fill="#60e5e0" /><circle cx="710.6" cy="126.9" r="4" fill="#60e5e0" /><circle cx="726.8" cy="126.9" r="4" fill="#60e5e0" /><circle cx="743.0" cy="126.8" r="4" fill="#60e5e0" /><circle cx="759.1" cy="122.1" r="4" fill="#60e5e0" /><circle cx="775.3" cy="120.4" r="4" fill="#60e5e0" /><circle cx="791.5" cy="120.4" r="4" fill="#60e5e0" /><circle cx="807.7" cy="120.4" r="4" fill="#60e5e0" /><circle cx="823.8" cy="120.4" r="4" fill="#60e5e0" /><circle cx="840.0" cy="120.4" r="4" fill="#60e5e0" /><polyline points="80.0,314.6 96.2,314.4 112.3,314.2 128.5,314.2 144.7,314.2 160.9,314.1 177.0,314.1 193.2,314.1 209.4,314.1 225.5,314.1 241.7,314.0 257.9,314.0 274.0,314.0 290.2,314.0 306.4,314.0 322.6,314.0 338.7,314.0 354.9,314.0 371.1,314.0 387.2,314.0 403.4,314.0 419.6,314.0 435.7,314.0 451.9,314.0 468.1,314.0 484.3,314.0 500.4,314.0 516.6,314.0 532.8,314.0 548.9,314.0 565.1,314.0 581.3,314.0 597.4,314.0 613.6,314.0 629.8,314.0 646.0,314.0 662.1,314.0 678.3,314.0 694.5,314.0 710.6,314.0 726.8,314.0 743.0,313.9 759.1,313.6 775.3,313.4 791.5,313.4 807.7,313.4 823.8,313.4 840.0,313.4" fill="none" stroke="#567de1" stroke-width="2.5" stroke-linecap="round" stroke-linejoin="round" /><circle cx="80.0" cy="314.6" r="4" fill="#567de1" /><circle cx="96.2" cy="314.4" r="4" fill="#567de1" /><circle cx="112.3" cy="314.2" r="4" fill="#567de1" /><circle cx="128.5" cy="314.2" r="4" fill="#567de1" /><circle cx="144.7" cy="314.2" r="4" fill="#567de1" /><circle cx="160.9" cy="314.1" r="4" fill="#567de1" /><circle cx="177.0" cy="314.1" r="4" fill="#567de1" /><circle cx="193.2" cy="314.1" r="4" fill="#567de1" /><circle cx="209.4" cy="314.1" r="4" fill="#567de1" /><circle cx="225.5" cy="314.1" r="4" fill="#567de1" /><circle cx="241.7" cy="314.0" r="4" fill="#567de1" /><circle cx="257.9" cy="314.0" r="4" fill="#567de1" /><circle cx="274.0" cy="314.0" r="4" fill="#567de1" /><circle cx="290.2" cy="314.0" r="4" fill="#567de1" /><circle cx="306.4" cy="314.0" r="4" fill="#567de1" /><circle cx="322.6" cy="314.0" r="4" fill="#567de1" /><circle cx="338.7" cy="314.0" r="4" fill="#567de1" /><circle cx="354.9" cy="314.0" r="4" fill="#567de1" /><circle cx="371.1" cy="314.0" r="4" fill="#567de1" /><circle cx="387.2" cy="314.0" r="4" fill="#567de1" /><circle cx="403.4" cy="314.0" r="4" fill="#567de1" /><circle cx="419.6" cy="314.0" r="4" fill="#567de1" /><circle cx="435.7" cy="314.0" r="4" fill="#567de1" /><circle cx="451.9" cy="314.0" r="4" fill="#567de1" /><circle cx="468.1" cy="314.0" r="4" fill="#567de1" /><circle cx="484.3" cy="314.0" r="4" fill="#567de1" /><circle cx="500.4" cy="314.0" r="4" fill="#567de1" /><circle cx="516.6" cy="314.0" r="4" fill="#567de1" /><circle cx="532.8" cy="314.0" r="4" fill="#567de1" /><circle cx="548.9" cy="314.0" r="4" fill="#567de1" /><circle cx="565.1" cy="314.0" r="4" fill="#567de1" /><circle cx="581.3" cy="314.0" r="4" fill="#567de1" /><circle cx="597.4" cy="314.0" r="4" fill="#567de1" /><circle cx="613.6" cy="314.0" r="4" fill="#567de1" /><circle cx="629.8" cy="314.0" r="4" fill="#567de1" /><circle cx="646.0" cy="314.0" r="4" fill="#567de1" /><circle cx="662.1" cy="314.0" r="4" fill="#567de1" /><circle cx="678.3" cy="314.0" r="4" fill="#567de1" /><circle cx="694.5" cy="314.0" r="4" fill="#567de1" /><circle cx="710.6" cy="314.0" r="4" fill="#567de1" /><circle cx="726.8" cy="314.0" r="4" fill="#567de1" /><circle cx="743.0" cy="313.9" r="4" fill="#567de1" /><circle cx="759.1" cy="313.6" r="4" fill="#567de1" /><circle cx="775.3" cy="313.4" r="4" fill="#567de1" /><circle cx="791.5" cy="313.4" r="4" fill="#567de1" /><circle cx="807.7" cy="313.4" r="4" fill="#567de1" /><circle cx="823.8" cy="313.4" r="4" fill="#567de1" /><circle cx="840.0" cy="313.4" r="4" fill="#567de1" /><polyline points="80.0,303.9 96.2,304.2 112.3,304.4 128.5,304.4 144.7,304.4 160.9,304.4 177.0,304.4 193.2,304.4 209.4,304.4 225.5,304.4 241.7,304.4 257.9,304.4 274.0,304.4 290.2,304.4 306.4,304.4 322.6,304.4 338.7,304.4 354.9,304.4 371.1,304.4 387.2,304.4 403.4,304.4 419.6,304.4 435.7,304.4 451.9,304.4 468.1,304.4 484.3,304.4 500.4,304.4 516.6,304.4 532.8,299.1 548.9,299.1 565.1,299.1 581.3,298.9 597.4,295.6 613.6,295.6 629.8,295.6 646.0,295.6 662.1,295.6 678.3,295.6 694.5,295.6 710.6,295.6 726.8,295.6 743.0,295.8 759.1,295.9 775.3,295.9 791.5,295.9 807.7,295.9 823.8,295.9 840.0,295.9" fill="none" stroke="#9754dd" stroke-width="2.5" stroke-linecap="round" stroke-linejoin="round" /><circle cx="80.0" cy="303.9" r="4" fill="#9754dd" /><circle cx="96.2" cy="304.2" r="4" fill="#9754dd" /><circle cx="112.3" cy="304.4" r="4" fill="#9754dd" /><circle cx="128.5" cy="304.4" r="4" fill="#9754dd" /><circle cx="144.7" cy="304.4" r="4" fill="#9754dd" /><circle cx="160.9" cy="304.4" r="4" fill="#9754dd" /><circle cx="177.0" cy="304.4" r="4" fill="#9754dd" /><circle cx="193.2" cy="304.4" r="4" fill="#9754dd" /><circle cx="209.4" cy="304.4" r="4" fill="#9754dd" /><circle cx="225.5" cy="304.4" r="4" fill="#9754dd" /><circle cx="241.7" cy="304.4" r="4" fill="#9754dd" /><circle cx="257.9" cy="304.4" r="4" fill="#9754dd" /><circle cx="274.0" cy="304.4" r="4" fill="#9754dd" /><circle cx="290.2" cy="304.4" r="4" fill="#9754dd" /><circle cx="306.4" cy="304.4" r="4" fill="#9754dd" /><circle cx="322.6" cy="304.4" r="4" fill="#9754dd" /><circle cx="338.7" cy="304.4" r="4" fill="#9754dd" /><circle cx="354.9" cy="304.4" r="4" fill="#9754dd" /><circle cx="371.1" cy="304.4" r="4" fill="#9754dd" /><circle cx="387.2" cy="304.4" r="4" fill="#9754dd" /><circle cx="403.4" cy="304.4" r="4" fill="#9754dd" /><circle cx="419.6" cy="304.4" r="4" fill="#9754dd" /><circle cx="435.7" cy="304.4" r="4" fill="#9754dd" /><circle cx="451.9" cy="304.4" r="4" fill="#9754dd" /><circle cx="468.1" cy="304.4" r="4" fill="#9754dd" /><circle cx="484.3" cy="304.4" r="4" fill="#9754dd" /><circle cx="500.4" cy="304.4" r="4" fill="#9754dd" /><circle cx="516.6" cy="304.4" r="4" fill="#9754dd" /><circle cx="532.8" cy="299.1" r="4" fill="#9754dd" /><circle cx="548.9" cy="299.1" r="4" fill="#9754dd" /><circle cx="565.1" cy="299.1" r="4" fill="#9754dd" /><circle cx="581.3" cy="298.9" r="4" fill="#9754dd" /><circle cx="597.4" cy="295.6" r="4" fill="#9754dd" /><circle cx="613.6" cy="295.6" r="4" fill="#9754dd" /><circle cx="629.8" cy="295.6" r="4" fill="#9754dd" /><circle cx="646.0" cy="295.6" r="4" fill="#9754dd" /><circle cx="662.1" cy="295.6" r="4" fill="#9754dd" /><circle cx="678.3" cy="295.6" r="4" fill="#9754dd" /><circle cx="694.5" cy="295.6" r="4" fill="#9754dd" /><circle cx="710.6" cy="295.6" r="4" fill="#9754dd" /><circle cx="726.8" cy="295.6" r="4" fill="#9754dd" /><circle cx="743.0" cy="295.8" r="4" fill="#9754dd" /><circle cx="759.1" cy="295.9" r="4" fill="#9754dd" /><circle cx="775.3" cy="295.9" r="4" fill="#9754dd" /><circle cx="791.5" cy="295.9" r="4" fill="#9754dd" /><circle cx="807.7" cy="295.9" r="4" fill="#9754dd" /><circle cx="823.8" cy="295.9" r="4" fill="#9754dd" /><circle cx="840.0" cy="295.9" r="4" fill="#9754dd" />
  <rect x="80" y="339" width="10" height="10" rx="2" ry="2" fill="#19e5a1" /><text x="96" y="348" class="legend-label">Stars</text><rect x="250" y="339" width="10" height="10" rx="2" ry="2" fill="#6eb6ec" /><text x="266" y="348" class="legend-label">Followers</text><rect x="420" y="339" width="10" height="10" rx="2" ry="2" fill="#5938e2" /><text x="436" y="348" class="legend-label">Following</text><rect x="590" y="339" width="10" height="10" rx="2" ry="2" fill="#60e5e0" /><text x="606" y="348" class="legend-label">Contributions</text><rect x="80" y="357" width="10" height="10" rx="2" ry="2" fill="#567de1" /><text x="96" y="366" class="legend-label">Pull Requests</text><rect x="250" y="357" width="10" height="10" rx="2" ry="2" fill="#9754dd" /><text x="266" y="366" class="legend-label">Issues</text>
</svg>
