<svg width="900" height="402" viewBox="0 0 900 402" xmlns="http://www.w3.org/2000/svg">
  <defs>
    <linearGradient id="history-gradient" x1="0%" y1="0%" x2="100%" y2="100%">
      <stop offset="0%" style="stop-color:#58a6ff;stop-opacity:1" />
      <stop offset="100%" style="stop-color:#a371f7;stop-opacity:1" />
    </linearGradient>
    <clipPath id="history-rounded">
      <rect x="0" y="0" width="900" height="402" rx="8" ry="8" />
    </clipPath>
  </defs>
  <style>
    .title {
      font-family: 'Segoe UI', Ubuntu, 'Helvetica Neue', sans-serif;
      font-size: 22px;
      font-weight: 700;
      fill: #58a6ff;
    }
    .subtitle {
      font-family: 'Segoe UI', Ubuntu, 'Helvetica Neue', sans-serif;
      font-size: 12px;
      font-weight: 500;
      fill: #8b949e;
    }
    .axis-label {
      font-family: 'Segoe UI', Ubuntu, 'Helvetica Neue', sans-serif;
      font-size: 10px;
      fill: #8b949e;
    }
    .grid-line {
      stroke: #30363d;
      stroke-width: 1;
      opacity: 0.3;
    }
    .legend-label {
      font-family: 'Segoe UI', Ubuntu, 'Helvetica Neue', sans-serif;
      font-size: 11px;
      fill: #c9d1d9;
      dominant-baseline: middle;
    }
  </style>
  <rect clip-path="url(#history-rounded)" width="100%" height="100%" fill="#0d1117" stroke="#30363d" stroke-width="1" />
  <rect x="0" y="396" width="900" height="6" fill="url(#history-gradient)" clip-path="url(#history-rounded)" />
  <text x="24" y="34" class="title">Leonardo Klein Stats History</text>
  <text x="24" y="54" class="subtitle">Period: 2026-02-20 to 2026-03-01</text>
  <text x="72" y="320.0" text-anchor="end" dominant-baseline="central" class="axis-label">0</text><text x="72" y="270.0" text-anchor="end" dominant-baseline="central" class="axis-label">400</text><text x="72" y="220.0" text-anchor="end" dominant-baseline="central" class="axis-label">800</text><text x="72" y="170.0" text-anchor="end" dominant-baseline="central" class="axis-label">1.2k</text><text x="72" y="120.0" text-anchor="end" dominant-baseline="central" class="axis-label">1.6k</text><text x="72" y="70.0" text-anchor="end" dominant-baseline="central" class="axis-label">2.0k</text>
  <text x="80.0" y="336" text-anchor="middle" class="axis-label">02-20</text><text x="150.7" y="336" text-anchor="middle" class="axis-label">02-21</text><text x="221.4" y="336" text-anchor="middle" class="axis-label">02-22</text><text x="292.1" y="336" text-anchor="middle" class="axis-label">02-22</text><text x="362.8" y="336" text-anchor="middle" class="axis-label">02-23</text><text x="433.5" y="336" text-anchor="middle" class="axis-label">02-24</text><text x="504.2" y="336" text-anchor="middle" class="axis-label">02-25</text><text x="574.9" y="336" text-anchor="middle" class="axis-label">02-26</text><text x="645.6" y="336" text-anchor="middle" class="axis-label">02-26</text><text x="716.3" y="336" text-anchor="middle" class="axis-label">02-27</text><text x="787.0" y="336" text-anchor="middle" class="axis-label">02-28</text><text x="840.0" y="336" text-anchor="middle" class="axis-label">03-01</text>
  <line x1="80" y1="320.0" x2="840" y2="320.0" class="grid-line" /><line x1="80" y1="270.0" x2="840" y2="270.0" class="grid-line" /><line x1="80" y1="220.0" x2="840" y2="220.0" class="grid-line" /><line x1="80" y1="170.0" x2="840" y2="170.0" class="grid-line" /><line x1="80" y1="120.0" x2="840" y2="120.0" class="grid-line" /><line x1="80" y1="70.0" x2="840" y2="70.0" class="grid-line" />
  <polyline points="80.0,317.0 97.7,317.0 115.3,317.0 133.0,317.0 150.7,317.0 168.4,317.0 186.0,317.0 203.7,317.0 221.4,317.0 239.1,317.0 256.7,317.0 274.4,317.0 292.1,317.0 309.8,317.0 327.4,317.0 345.1,317.0 362.8,317.0 380.5,317.0 398.1,317.0 415.8,317.0 433.5,317.0 451.2,317.0 468.8,317.0 486.5,317.0 504.2,317.0 521.9,317.0 539.5,317.0 557.2,317.0 574.9,317.0 592.6,317.0 610.2,317.0 627.9,317.0 645.6,317.0 663.3,317.0 680.9,317.0 698.6,317.0 716.3,317.0 734.0,317.0 751.6,317.0 769.3,317.0 787.0,317.0 804.7,317.0 822.3,317.0 840.0,317.0" fill="none" stroke="#19e5a1" stroke-width="2.5" stroke-linecap="round" stroke-linejoin="round" /><circle cx="80.0" cy="317.0" r="4" fill="#19e5a1" /><circle cx="97.7" cy="317.0" r="4" fill="#19e5a1" /><circle cx="115.3" cy="317.0" r="4" fill="#19e5a1" /><circle cx="133.0" cy="317.0" r="4" fill="#19e5a1" /><circle cx="150.7" cy="317.0" r="4" fill="#19e5a1" /><circle cx="168.4" cy="317.0" r="4" fill="#19e5a1" /><circle cx="186.0" cy="317.0" r="4" fill="#19e5a1" /><circle cx="203.7" cy="317.0" r="4" fill="#19e5a1" /><circle cx="221.4" cy="317.0" r="4" fill="#19e5a1" /><circle cx="239.1" cy="317.0" r="4" fill="#19e5a1" /><circle cx="256.7" cy="317.0" r="4" fill="#19e5a1" /><circle cx="274.4" cy="317.0" r="4" fill="#19e5a1" /><circle cx="292.1" cy="317.0" r="4" fill="#19e5a1" /><circle cx="309.8" cy="317.0" r="4" fill="#19e5a1" /><circle cx="327.4" cy="317.0" r="4" fill="#19e5a1" /><circle cx="345.1" cy="317.0" r="4" fill="#19e5a1" /><circle cx="362.8" cy="317.0" r="4" fill="#19e5a1" /><circle cx="380.5" cy="317.0" r="4" fill="#19e5a1" /><circle cx="398.1" cy="317.0" r="4" fill="#19e5a1" /><circle cx="415.8" cy="317.0" r="4" fill="#19e5a1" /><circle cx="433.5" cy="317.0" r="4" fill="#19e5a1" /><circle cx="451.2" cy="317.0" r="4" fill="#19e5a1" /><circle cx="468.8" cy="317.0" r="4" fill="#19e5a1" /><circle cx="486.5" cy="317.0" r="4" fill="#19e5a1" /><circle cx="504.2" cy="317.0" r="4" fill="#19e5a1" /><circle cx="521.9" cy="317.0" r="4" fill="#19e5a1" /><circle cx="539.5" cy="317.0" r="4" fill="#19e5a1" /><circle cx="557.2" cy="317.0" r="4" fill="#19e5a1" /><circle cx="574.9" cy="317.0" r="4" fill="#19e5a1" /><circle cx="592.6" cy="317.0" r="4" fill="#19e5a1" /><circle cx="610.2" cy="317.0" r="4" fill="#19e5a1" /><circle cx="627.9" cy="317.0" r="4" fill="#19e5a1" /><circle cx="645.6" cy="317.0" r="4" fill="#19e5a1" /><circle cx="663.3" cy="317.0" r="4" fill="#19e5a1" /><circle cx="680.9" cy="317.0" r="4" fill="#19e5a1" /><circle cx="698.6" cy="317.0" r="4" fill="#19e5a1" /><circle cx="716.3" cy="317.0" r="4" fill="#19e5a1" /><circle cx="734.0" cy="317.0" r="4" fill="#19e5a1" /><circle cx="751.6" cy="317.0" r="4" fill="#19e5a1" /><circle cx="769.3" cy="317.0" r="4" fill="#19e5a1" /><circle cx="787.0" cy="317.0" r="4" fill="#19e5a1" /><circle cx="804.7" cy="317.0" r="4" fill="#19e5a1" /><circle cx="822.3" cy="317.0" r="4" fill="#19e5a1" /><circle cx="840.0" cy="317.0" r="4" fill="#19e5a1" /><polyline points="80.0,313.2 97.7,312.2 115.3,312.1 133.0,312.4 150.7,312.4 168.4,312.4 186.0,312.1 203.7,312.0 221.4,311.9 239.1,311.9 256.7,311.8 274.4,311.8 292.1,311.5 309.8,311.5 327.4,311.5 345.1,311.2 362.8,311.2 380.5,311.1 398.1,311.1 415.8,311.1 433.5,310.9 451.2,311.0 468.8,310.8 486.5,310.8 504.2,310.8 521.9,310.8 539.5,310.4 557.2,310.2 574.9,310.4 592.6,310.4 610.2,310.4 627.9,310.4 645.6,310.4 663.3,310.2 680.9,310.2 698.6,310.1 716.3,310.1 734.0,309.8 751.6,309.6 769.3,309.6 787.0,309.6 804.7,309.6 822.3,309.5 840.0,309.4" fill="none" stroke="#6eb6ec" stroke-width="2.5" stroke-linecap="round" stroke-linejoin="round" /><circle cx="80.0" cy="313.2" r="4" fill="#6eb6ec" /><circle cx="97.7" cy="312.2" r="4" fill="#6eb6ec" /><circle cx="115.3" cy="312.1" r="4" fill="#6eb6ec" /><circle cx="133.0" cy="312.4" r="4" fill="#6eb6ec" /><circle cx="150.7" cy="312.4" r="4" fill="#6eb6ec" /><circle cx="168.4" cy="312.4" r="4" fill="#6eb6ec" /><circle cx="186.0" cy="312.1" r="4" fill="#6eb6ec" /><circle cx="203.7" cy="312.0" r="4" fill="#6eb6ec" /><circle cx="221.4" cy="311.9" r="4" fill="#6eb6ec" /><circle cx="239.1" cy="311.9" r="4" fill="#6eb6ec" /><circle cx="256.7" cy="311.8" r="4" fill="#6eb6ec" /><circle cx="274.4" cy="311.8" r="4" fill="#6eb6ec" /><circle cx="292.1" cy="311.5" r="4" fill="#6eb6ec" /><circle cx="309.8" cy="311.5" r="4" fill="#6eb6ec" /><circle cx="327.4" cy="311.5" r="4" fill="#6eb6ec" /><circle cx="345.1" cy="311.2" r="4" fill="#6eb6ec" /><circle cx="362.8" cy="311.2" r="4" fill="#6eb6ec" /><circle cx="380.5" cy="311.1" r="4" fill="#6eb6ec" /><circle cx="398.1" cy="311.1" r="4" fill="#6eb6ec" /><circle cx="415.8" cy="311.1" r="4" fill="#6eb6ec" /><circle cx="433.5" cy="310.9" r="4" fill="#6eb6ec" /><circle cx="451.2" cy="311.0" r="4" fill="#6eb6ec" /><circle cx="468.8" cy="310.8" r="4" fill="#6eb6ec" /><circle cx="486.5" cy="310.8" r="4" fill="#6eb6ec" /><circle cx="504.2" cy="310.8" r="4" fill="#6eb6ec" /><circle cx="521.9" cy="310.8" r="4" fill="#6eb6ec" /><circle cx="539.5" cy="310.4" r="4" fill="#6eb6ec" /><circle cx="557.2" cy="310.2" r="4" fill="#6eb6ec" /><circle cx="574.9" cy="310.4" r="4" fill="#6eb6ec" /><circle cx="592.6" cy="310.4" r="4" fill="#6eb6ec" /><circle cx="610.2" cy="310.4" r="4" fill="#6eb6ec" /><circle cx="627.9" cy="310.4" r="4" fill="#6eb6ec" /><circle cx="645.6" cy="310.4" r="4" fill="#6eb6ec" /><circle cx="663.3" cy="310.2" r="4" fill="#6eb6ec" /><circle cx="680.9" cy="310.2" r="4" fill="#6eb6ec" /><circle cx="698.6" cy="310.1" r="4" fill="#6eb6ec" /><circle cx="716.3" cy="310.1" r="4" fill="#6eb6ec" /><circle cx="734.0" cy="309.8" r="4" fill="#6eb6ec" /><circle cx="751.6" cy="309.6" r="4" fill="#6eb6ec" /><circle cx="769.3" cy="309.6" r="4" fill="#6eb6ec" /><circle cx="787.0" cy="309.6" r="4" fill="#6eb6ec" /><circle cx="804.7" cy="309.6" r="4" fill="#6eb6ec" /><circle cx="822.3" cy="309.5" r="4" fill="#6eb6ec" /><circle cx="840.0" cy="309.4" r="4" fill="#6eb6ec" /><polyline points="80.0,305.8 97.7,305.8 115.3,305.8 133.0,305.8 150.7,305.8 168.4,305.8 186.0,305.8 203.7,305.8 221.4,305.8 239.1,305.8 256.7,304.9 274.4,304.9 292.1,304.9 309.8,304.9 327.4,304.9 345.1,304.9 362.8,304.9 380.5,304.9 398.1,304.9 415.8,304.9 433.5,304.9 451.2,304.9 468.8,304.9 486.5,304.9 504.2,304.9 521.9,304.9 539.5,304.9 557.2,304.9 574.9,304.9 592.6,304.9 610.2,304.9 627.9,304.9 645.6,304.9 663.3,304.9 680.9,304.9 698.6,304.9 716.3,304.9 734.0,303.6 751.6,303.6 769.3,303.6 787.0,303.6 804.7,303.6 822.3,303.6 840.0,303.6" fill="none" stroke="#5938e2" stroke-width="2.5" stroke-linecap="round" stroke-linejoin="round" /><circle cx="80.0" cy="305.8" r="4" fill="#5938e2" /><circle cx="97.7" cy="305.8" r="4" fill="#5938e2" /><circle cx="115.3" cy="305.8" r="4" fill="#5938e2" /><circle cx="133.0" cy="305.8" r="4" fill="#5938e2" /><circle cx="150.7" cy="305.8" r="4" fill="#5938e2" /><circle cx="168.4" cy="305.8" r="4" fill="#5938e2" /><circle cx="186.0" cy="305.8" r="4" fill="#5938e2" /><circle cx="203.7" cy="305.8" r="4" fill="#5938e2" /><circle cx="221.4" cy="305.8" r="4" fill="#5938e2" /><circle cx="239.1" cy="305.8" r="4" fill="#5938e2" /><circle cx="256.7" cy="304.9" r="4" fill="#5938e2" /><circle cx="274.4" cy="304.9" r="4" fill="#5938e2" /><circle cx="292.1" cy="304.9" r="4" fill="#5938e2" /><circle cx="309.8" cy="304.9" r="4" fill="#5938e2" /><circle cx="327.4" cy="304.9" r="4" fill="#5938e2" /><circle cx="345.1" cy="304.9" r="4" fill="#5938e2" /><circle cx="362.8" cy="304.9" r="4" fill="#5938e2" /><circle cx="380.5" cy="304.9" r="4" fill="#5938e2" /><circle cx="398.1" cy="304.9" r="4" fill="#5938e2" /><circle cx="415.8" cy="304.9" r="4" fill="#5938e2" /><circle cx="433.5" cy="304.9" r="4" fill="#5938e2" /><circle cx="451.2" cy="304.9" r="4" fill="#5938e2" /><circle cx="468.8" cy="304.9" r="4" fill="#5938e2" /><circle cx="486.5" cy="304.9" r="4" fill="#5938e2" /><circle cx="504.2" cy="304.9" r="4" fill="#5938e2" /><circle cx="521.9" cy="304.9" r="4" fill="#5938e2" /><circle cx="539.5" cy="304.9" r="4" fill="#5938e2" /><circle cx="557.2" cy="304.9" r="4" fill="#5938e2" /><circle cx="574.9" cy="304.9" r="4" fill="#5938e2" /><circle cx="592.6" cy="304.9" r="4" fill="#5938e2" /><circle cx="610.2" cy="304.9" r="4" fill="#5938e2" /><circle cx="627.9" cy="304.9" r="4" fill="#5938e2" /><circle cx="645.6" cy="304.9" r="4" fill="#5938e2" /><circle cx="663.3" cy="304.9" r="4" fill="#5938e2" /><circle cx="680.9" cy="304.9" r="4" fill="#5938e2" /><circle cx="698.6" cy="304.9" r="4" fill="#5938e2" /><circle cx="716.3" cy="304.9" r="4" fill="#5938e2" /><circle cx="734.0" cy="303.6" r="4" fill="#5938e2" /><circle cx="751.6" cy="303.6" r="4" fill="#5938e2" /><circle cx="769.3" cy="303.6" r="4" fill="#5938e2" /><circle cx="787.0" cy="303.6" r="4" fill="#5938e2" /><circle cx="804.7" cy="303.6" r="4" fill="#5938e2" /><circle cx="822.3" cy="303.6" r="4" fill="#5938e2" /><circle cx="840.0" cy="303.6" r="4" fill="#5938e2" /><polyline points="80.0,144.6 97.7,140.1 115.3,139.9 133.0,139.8 150.7,139.8 168.4,139.6 186.0,139.6 203.7,139.6 221.4,139.6 239.1,139.6 256.7,138.4 274.4,138.4 292.1,138.4 309.8,138.4 327.4,138.4 345.1,138.4 362.8,138.4 380.5,137.4 398.1,137.4 415.8,137.4 433.5,137.4 451.2,137.4 468.8,137.4 486.5,137.4 504.2,137.4 521.9,137.4 539.5,137.4 557.2,137.4 574.9,131.2 592.6,131.2 610.2,130.8 627.9,130.4 645.6,126.9 663.3,126.9 680.9,126.9 698.6,126.9 716.3,126.9 734.0,126.9 751.6,126.9 769.3,126.9 787.0,126.9 804.7,126.8 822.3,122.1 840.0,120.4" fill="none" stroke="#60e5e0" stroke-width="2.5" stroke-linecap="round" stroke-linejoin="round" /><circle cx="80.0" cy="144.6" r="4" fill="#60e5e0" /><circle cx="97.7" cy="140.1" r="4" fill="#60e5e0" /><circle cx="115.3" cy="139.9" r="4" fill="#60e5e0" /><circle cx="133.0" cy="139.8" r="4" fill="#60e5e0" /><circle cx="150.7" cy="139.8" r="4" fill="#60e5e0" /><circle cx="168.4" cy="139.6" r="4" fill="#60e5e0" /><circle cx="186.0" cy="139.6" r="4" fill="#60e5e0" /><circle cx="203.7" cy="139.6" r="4" fill="#60e5e0" /><circle cx="221.4" cy="139.6" r="4" fill="#60e5e0" /><circle cx="239.1" cy="139.6" r="4" fill="#60e5e0" /><circle cx="256.7" cy="138.4" r="4" fill="#60e5e0" /><circle cx="274.4" cy="138.4" r="4" fill="#60e5e0" /><circle cx="292.1" cy="138.4" r="4" fill="#60e5e0" /><circle cx="309.8" cy="138.4" r="4" fill="#60e5e0" /><circle cx="327.4" cy="138.4" r="4" fill="#60e5e0" /><circle cx="345.1" cy="138.4" r="4" fill="#60e5e0" /><circle cx="362.8" cy="138.4" r="4" fill="#60e5e0" /><circle cx="380.5" cy="137.4" r="4" fill="#60e5e0" /><circle cx="398.1" cy="137.4" r="4" fill="#60e5e0" /><circle cx="415.8" cy="137.4" r="4" fill="#60e5e0" /><circle cx="433.5" cy="137.4" r="4" fill="#60e5e0" /><circle cx="451.2" cy="137.4" r="4" fill="#60e5e0" /><circle cx="468.8" cy="137.4" r="4" fill="#60e5e0" /><circle cx="486.5" cy="137.4" r="4" fill="#60e5e0" /><circle cx="504.2" cy="137.4" r="4" fill="#60e5e0" /><circle cx="521.9" cy="137.4" r="4" fill="#60e5e0" /><circle cx="539.5" cy="137.4" r="4" fill="#60e5e0" /><circle cx="557.2" cy="137.4" r="4" fill="#60e5e0" /><circle cx="574.9" cy="131.2" r="4" fill="#60e5e0" /><circle cx="592.6" cy="131.2" r="4" fill="#60e5e0" /><circle cx="610.2" cy="130.8" r="4" fill="#60e5e0" /><circle cx="627.9" cy="130.4" r="4" fill="#60e5e0" /><circle cx="645.6" cy="126.9" r="4" fill="#60e5e0" /><circle cx="663.3" cy="126.9" r="4" fill="#60e5e0" /><circle cx="680.9" cy="126.9" r="4" fill="#60e5e0" /><circle cx="698.6" cy="126.9" r="4" fill="#60e5e0" /><circle cx="716.3" cy="126.9" r="4" fill="#60e5e0" /><circle cx="734.0" cy="126.9" r="4" fill="#60e5e0" /><circle cx="751.6" cy="126.9" r="4" fill="#60e5e0" /><circle cx="769.3" cy="126.9" r="4" fill="#60e5e0" /><circle cx="787.0" cy="126.9" r="4" fill="#60e5e0" /><circle cx="804.7" cy="126.8" r="4" fill="#60e5e0" /><circle cx="822.3" cy="122.1" r="4" fill="#60e5e0" /><circle cx="840.0" cy="120.4" r="4" fill="#60e5e0" /><polyline points="80.0,314.6 97.7,314.4 115.3,314.2 133.0,314.2 150.7,314.2 168.4,314.1 186.0,314.1 203.7,314.1 221.4,314.1 239.1,314.1 256.7,314.0 274.4,314.0 292.1,314.0 309.8,314.0 327.4,314.0 345.1,314.0 362.8,314.0 380.5,314.0 398.1,314.0 415.8,314.0 433.5,314.0 451.2,314.0 468.8,314.0 486.5,314.0 504.2,314.0 521.9,314.0 539.5,314.0 557.2,314.0 574.9,314.0 592.6,314.0 610.2,314.0 627.9,314.0 645.6,314.0 663.3,314.0 680.9,314.0 698.6,314.0 716.3,314.0 734.0,314.0 751.6,314.0 769.3,314.0 787.0,314.0 804.7,313.9 822.3,313.6 840.0,313.4" fill="none" stroke="#567de1" stroke-width="2.5" stroke-linecap="round" stroke-linejoin="round" /><circle cx="80.0" cy="314.6" r="4" fill="#567de1" /><circle cx="97.7" cy="314.4" r="4" fill="#567de1" /><circle cx="115.3" cy="314.2" r="4" fill="#567de1" /><circle cx="133.0" cy="314.2" r="4" fill="#567de1" /><circle cx="150.7" cy="314.2" r="4" fill="#567de1" /><circle cx="168.4" cy="314.1" r="4" fill="#567de1" /><circle cx="186.0" cy="314.1" r="4" fill="#567de1" /><circle cx="203.7" cy="314.1" r="4" fill="#567de1" /><circle cx="221.4" cy="314.1" r="4" fill="#567de1" /><circle cx="239.1" cy="314.1" r="4" fill="#567de1" /><circle cx="256.7" cy="314.0" r="4" fill="#567de1" /><circle cx="274.4" cy="314.0" r="4" fill="#567de1" /><circle cx="292.1" cy="314.0" r="4" fill="#567de1" /><circle cx="309.8" cy="314.0" r="4" fill="#567de1" /><circle cx="327.4" cy="314.0" r="4" fill="#567de1" /><circle cx="345.1" cy="314.0" r="4" fill="#567de1" /><circle cx="362.8" cy="314.0" r="4" fill="#567de1" /><circle cx="380.5" cy="314.0" r="4" fill="#567de1" /><circle cx="398.1" cy="314.0" r="4" fill="#567de1" /><circle cx="415.8" cy="314.0" r="4" fill="#567de1" /><circle cx="433.5" cy="314.0" r="4" fill="#567de1" /><circle cx="451.2" cy="314.0" r="4" fill="#567de1" /><circle cx="468.8" cy="314.0" r="4" fill="#567de1" /><circle cx="486.5" cy="314.0" r="4" fill="#567de1" /><circle cx="504.2" cy="314.0" r="4" fill="#567de1" /><circle cx="521.9" cy="314.0" r="4" fill="#567de1" /><circle cx="539.5" cy="314.0" r="4" fill="#567de1" /><circle cx="557.2" cy="314.0" r="4" fill="#567de1" /><circle cx="574.9" cy="314.0" r="4" fill="#567de1" /><circle cx="592.6" cy="314.0" r="4" fill="#567de1" /><circle cx="610.2" cy="314.0" r="4" fill="#567de1" /><circle cx="627.9" cy="314.0" r="4" fill="#567de1" /><circle cx="645.6" cy="314.0" r="4" fill="#567de1" /><circle cx="663.3" cy="314.0" r="4" fill="#567de1" /><circle cx="680.9" cy="314.0" r="4" fill="#567de1" /><circle cx="698.6" cy="314.0" r="4" fill="#567de1" /><circle cx="716.3" cy="314.0" r="4" fill="#567de1" /><circle cx="734.0" cy="314.0" r="4" fill="#567de1" /><circle cx="751.6" cy="314.0" r="4" fill="#567de1" /><circle cx="769.3" cy="314.0" r="4" fill="#567de1" /><circle cx="787.0" cy="314.0" r="4" fill="#567de1" /><circle cx="804.7" cy="313.9" r="4" fill="#567de1" /><circle cx="822.3" cy="313.6" r="4" fill="#567de1" /><circle cx="840.0" cy="313.4" r="4" fill="#567de1" /><polyline points="80.0,303.9 97.7,304.2 115.3,304.4 133.0,304.4 150.7,304.4 168.4,304.4 186.0,304.4 203.7,304.4 221.4,304.4 239.1,304.4 256.7,304.4 274.4,304.4 292.1,304.4 309.8,304.4 327.4,304.4 345.1,304.4 362.8,304.4 380.5,304.4 398.1,304.4 415.8,304.4 433.5,304.4 451.2,304.4 468.8,304.4 486.5,304.4 504.2,304.4 521.9,304.4 539.5,304.4 557.2,304.4 574.9,299.1 592.6,299.1 610.2,299.1 627.9,298.9 645.6,295.6 663.3,295.6 680.9,295.6 698.6,295.6 716.3,295.6 734.0,295.6 751.6,295.6 769.3,295.6 787.0,295.6 804.7,295.8 822.3,295.9 840.0,295.9" fill="none" stroke="#9754dd" stroke-width="2.5" stroke-linecap="round" stroke-linejoin="round" /><circle cx="80.0" cy="303.9" r="4" fill="#9754dd" /><circle cx="97.7" cy="304.2" r="4" fill="#9754dd" /><circle cx="115.3" cy="304.4" r="4" fill="#9754dd" /><circle cx="133.0" cy="304.4" r="4" fill="#9754dd" /><circle cx="150.7" cy="304.4" r="4" fill="#9754dd" /><circle cx="168.4" cy="304.4" r="4" fill="#9754dd" /><circle cx="186.0" cy="304.4" r="4" fill="#9754dd" /><circle cx="203.7" cy="304.4" r="4" fill="#9754dd" /><circle cx="221.4" cy="304.4" r="4" fill="#9754dd" /><circle cx="239.1" cy="304.4" r="4" fill="#9754dd" /><circle cx="256.7" cy="304.4" r="4" fill="#9754dd" /><circle cx="274.4" cy="304.4" r="4" fill="#9754dd" /><circle cx="292.1" cy="304.4" r="4" fill="#9754dd" /><circle cx="309.8" cy="304.4" r="4" fill="#9754dd" /><circle cx="327.4" cy="304.4" r="4" fill="#9754dd" /><circle cx="345.1" cy="304.4" r="4" fill="#9754dd" /><circle cx="362.8" cy="304.4" r="4" fill="#9754dd" /><circle cx="380.5" cy="304.4" r="4" fill="#9754dd" /><circle cx="398.1" cy="304.4" r="4" fill="#9754dd" /><circle cx="415.8" cy="304.4" r="4" fill="#9754dd" /><circle cx="433.5" cy="304.4" r="4" fill="#9754dd" /><circle cx="451.2" cy="304.4" r="4" fill="#9754dd" /><circle cx="468.8" cy="304.4" r="4" fill="#9754dd" /><circle cx="486.5" cy="304.4" r="4" fill="#9754dd" /><circle cx="504.2" cy="304.4" r="4" fill="#9754dd" /><circle cx="521.9" cy="304.4" r="4" fill="#9754dd" /><circle cx="539.5" cy="304.4" r="4" fill="#9754dd" /><circle cx="557.2" cy="304.4" r="4" fill="#9754dd" /><circle cx="574.9" cy="299.1" r="4" fill="#9754dd" /><circle cx="592.6" cy="299.1" r="4" fill="#9754dd" /><circle cx="610.2" cy="299.1" r="4" fill="#9754dd" /><circle cx="627.9" cy="298.9" r="4" fill="#9754dd" /><circle cx="645.6" cy="295.6" r="4" fill="#9754dd" /><circle cx="663.3" cy="295.6" r="4" fill="#9754dd" /><circle cx="680.9" cy="295.6" r="4" fill="#9754dd" /><circle cx="698.6" cy="295.6" r="4" fill="#9754dd" /><circle cx="716.3" cy="295.6" r="4" fill="#9754dd" /><circle cx="734.0" cy="295.6" r="4" fill="#9754dd" /><circle cx="751.6" cy="295.6" r="4" fill="#9754dd" /><circle cx="769.3" cy="295.6" r="4" fill="#9754dd" /><circle cx="787.0" cy="295.6" r="4" fill="#9754dd" /><circle cx="804.7" cy="295.8" r="4" fill="#9754dd" /><circle cx="822.3" cy="295.9" r="4" fill="#9754dd" /><circle cx="840.0" cy="295.9" r="4" fill="#9754dd" />
  <rect x="80" y="339" width="10" height="10" rx="2" ry="2" fill="#19e5a1" /><text x="96" y="348" class="legend-label">Stars</text><rect x="250" y="339" width="10" height="10" rx="2" ry="2" fill="#6eb6ec" /><text x="266" y="348" class="legend-label">Followers</text><rect x="420" y="339" width="10" height="10" rx="2" ry="2" fill="#5938e2" /><text x="436" y="348" class="legend-label">Following</text><rect x="590" y="339" width="10" height="10" rx="2" ry="2" fill="#60e5e0" /><text x="606" y="348" class="legend-label">Contributions</text><rect x="80" y="357" width="10" height="10" rx="2" ry="2" fill="#567de1" /><text x="96" y="366" class="legend-label">Pull Requests</text><rect x="250" y="357" width="10" height="10" rx="2" ry="2" fill="#9754dd" /><text x="266" y="366" class="legend-label">Issues</text>
</svg>
