<svg width="900" height="402" viewBox="0 0 900 402" xmlns="http://www.w3.org/2000/svg">
  <defs>
    <linearGradient id="history-gradient" x1="0%" y1="0%" x2="100%" y2="100%">
      <stop offset="0%" style="stop-color:#58a6ff;stop-opacity:1" />
      <stop offset="100%" style="stop-color:#a371f7;stop-opacity:1" />
    </linearGradient>
    <clipPath id="history-rounded">
      <rect x="0" y="0" width="900" height="402" rx="8" ry="8" />
    </clipPath>
  </defs>
  <style>
    .title {
      font-family: 'Segoe UI', Ubuntu, 'Helvetica Neue', sans-serif;
      font-size: 22px;
      font-weight: 700;
      fill: #58a6ff;
    }
    .subtitle {
      font-family: 'Segoe UI', Ubuntu, 'Helvetica Neue', sans-serif;
      font-size: 12px;
      font-weight: 500;
      fill: #8b949e;
    }
    .axis-label {
      font-family: 'Segoe UI', Ubuntu, 'Helvetica Neue', sans-serif;
      font-size: 10px;
      fill: #8b949e;
    }
    .grid-line {
      stroke: #30363d;
      stroke-width: 1;
      opacity: 0.3;
    }
    .legend-label {
      font-family: 'Segoe UI', Ubuntu, 'Helvetica Neue', sans-serif;
      font-size: 11px;
      fill: #c9d1d9;
      dominant-baseline: middle;
    }
  </style>
  <rect clip-path="url(#history-rounded)" width="100%" height="100%" fill="#0d1117" stroke="#30363d" stroke-width="1" />
  <rect x="0" y="396" width="900" height="6" fill="url(#history-gradient)" clip-path="url(#history-rounded)" />
  <text x="24" y="34" class="title">Leonardo Klein Stats History</text>
  <text x="24" y="54" class="subtitle">Period: 2026-02-20 to 2026-03-13</text>
  <text x="72" y="320.0" text-anchor="end" dominant-baseline="central" class="axis-label">0</text><text x="72" y="270.0" text-anchor="end" dominant-baseline="central" class="axis-label">400</text><text x="72" y="220.0" text-anchor="end" dominant-baseline="central" class="axis-label">800</text><text x="72" y="170.0" text-anchor="end" dominant-baseline="central" class="axis-label">1.2k</text><text x="72" y="120.0" text-anchor="end" dominant-baseline="central" class="axis-label">1.6k</text><text x="72" y="70.0" text-anchor="end" dominant-baseline="central" class="axis-label">2.0k</text>
  <text x="80.0" y="336" text-anchor="middle" class="axis-label">02-20</text><text x="151.7" y="336" text-anchor="middle" class="axis-label">02-22</text><text x="223.4" y="336" text-anchor="middle" class="axis-label">02-24</text><text x="295.1" y="336" text-anchor="middle" class="axis-label">02-26</text><text x="366.8" y="336" text-anchor="middle" class="axis-label">02-28</text><text x="438.5" y="336" text-anchor="middle" class="axis-label">03-02</text><text x="510.2" y="336" text-anchor="middle" class="axis-label">03-04</text><text x="581.9" y="336" text-anchor="middle" class="axis-label">03-06</text><text x="653.6" y="336" text-anchor="middle" class="axis-label">03-08</text><text x="725.3" y="336" text-anchor="middle" class="axis-label">03-10</text><text x="797.0" y="336" text-anchor="middle" class="axis-label">03-12</text><text x="840.0" y="336" text-anchor="middle" class="axis-label">03-13</text>
  <line x1="80" y1="320.0" x2="840" y2="320.0" class="grid-line" /><line x1="80" y1="270.0" x2="840" y2="270.0" class="grid-line" /><line x1="80" y1="220.0" x2="840" y2="220.0" class="grid-line" /><line x1="80" y1="170.0" x2="840" y2="170.0" class="grid-line" /><line x1="80" y1="120.0" x2="840" y2="120.0" class="grid-line" /><line x1="80" y1="70.0" x2="840" y2="70.0" class="grid-line" />
  <polyline points="80.0,317.0 87.2,317.0 94.3,317.0 101.5,317.0 108.7,317.0 115.8,317.0 123.0,317.0 130.2,317.0 137.4,317.0 144.5,317.0 151.7,317.0 158.9,317.0 166.0,317.0 173.2,317.0 180.4,317.0 187.5,317.0 194.7,317.0 201.9,317.0 209.1,317.0 216.2,317.0 223.4,317.0 230.6,317.0 237.7,317.0 244.9,317.0 252.1,317.0 259.2,317.0 266.4,317.0 273.6,317.0 280.8,317.0 287.9,317.0 295.1,317.0 302.3,317.0 309.4,317.0 316.6,317.0 323.8,317.0 330.9,317.0 338.1,317.0 345.3,317.0 352.5,317.0 359.6,317.0 366.8,317.0 374.0,317.0 381.1,317.0 388.3,317.0 395.5,317.0 402.6,317.0 409.8,317.0 417.0,317.0 424.2,317.0 431.3,317.0 438.5,317.0 445.7,317.0 452.8,317.0 460.0,317.0 467.2,317.0 474.3,317.0 481.5,317.0 488.7,317.0 495.8,317.0 503.0,317.0 510.2,317.0 517.4,317.0 524.5,317.0 531.7,317.0 538.9,317.0 546.0,317.0 553.2,317.0 560.4,317.0 567.5,317.0 574.7,317.0 581.9,317.0 589.1,317.0 596.2,317.0 603.4,317.0 610.6,317.0 617.7,317.0 624.9,317.0 632.1,317.0 639.2,317.0 646.4,317.0 653.6,317.0 660.8,317.0 667.9,317.0 675.1,317.0 682.3,317.0 689.4,317.0 696.6,317.0 703.8,317.0 710.9,317.0 718.1,317.0 725.3,317.0 732.5,317.0 739.6,317.0 746.8,317.0 754.0,317.0 761.1,317.0 768.3,317.0 775.5,317.0 782.6,317.0 789.8,317.0 797.0,317.0 804.2,317.0 811.3,317.0 818.5,317.0 825.7,317.0 832.8,317.0 840.0,317.0" fill="none" stroke="#19e5a1" stroke-width="2.5" stroke-linecap="round" stroke-linejoin="round" /><circle cx="80.0" cy="317.0" r="4" fill="#19e5a1" /><circle cx="87.2" cy="317.0" r="4" fill="#19e5a1" /><circle cx="94.3" cy="317.0" r="4" fill="#19e5a1" /><circle cx="101.5" cy="317.0" r="4" fill="#19e5a1" /><circle cx="108.7" cy="317.0" r="4" fill="#19e5a1" /><circle cx="115.8" cy="317.0" r="4" fill="#19e5a1" /><circle cx="123.0" cy="317.0" r="4" fill="#19e5a1" /><circle cx="130.2" cy="317.0" r="4" fill="#19e5a1" /><circle cx="137.4" cy="317.0" r="4" fill="#19e5a1" /><circle cx="144.5" cy="317.0" r="4" fill="#19e5a1" /><circle cx="151.7" cy="317.0" r="4" fill="#19e5a1" /><circle cx="158.9" cy="317.0" r="4" fill="#19e5a1" /><circle cx="166.0" cy="317.0" r="4" fill="#19e5a1" /><circle cx="173.2" cy="317.0" r="4" fill="#19e5a1" /><circle cx="180.4" cy="317.0" r="4" fill="#19e5a1" /><circle cx="187.5" cy="317.0" r="4" fill="#19e5a1" /><circle cx="194.7" cy="317.0" r="4" fill="#19e5a1" /><circle cx="201.9" cy="317.0" r="4" fill="#19e5a1" /><circle cx="209.1" cy="317.0" r="4" fill="#19e5a1" /><circle cx="216.2" cy="317.0" r="4" fill="#19e5a1" /><circle cx="223.4" cy="317.0" r="4" fill="#19e5a1" /><circle cx="230.6" cy="317.0" r="4" fill="#19e5a1" /><circle cx="237.7" cy="317.0" r="4" fill="#19e5a1" /><circle cx="244.9" cy="317.0" r="4" fill="#19e5a1" /><circle cx="252.1" cy="317.0" r="4" fill="#19e5a1" /><circle cx="259.2" cy="317.0" r="4" fill="#19e5a1" /><circle cx="266.4" cy="317.0" r="4" fill="#19e5a1" /><circle cx="273.6" cy="317.0" r="4" fill="#19e5a1" /><circle cx="280.8" cy="317.0" r="4" fill="#19e5a1" /><circle cx="287.9" cy="317.0" r="4" fill="#19e5a1" /><circle cx="295.1" cy="317.0" r="4" fill="#19e5a1" /><circle cx="302.3" cy="317.0" r="4" fill="#19e5a1" /><circle cx="309.4" cy="317.0" r="4" fill="#19e5a1" /><circle cx="316.6" cy="317.0" r="4" fill="#19e5a1" /><circle cx="323.8" cy="317.0" r="4" fill="#19e5a1" /><circle cx="330.9" cy="317.0" r="4" fill="#19e5a1" /><circle cx="338.1" cy="317.0" r="4" fill="#19e5a1" /><circle cx="345.3" cy="317.0" r="4" fill="#19e5a1" /><circle cx="352.5" cy="317.0" r="4" fill="#19e5a1" /><circle cx="359.6" cy="317.0" r="4" fill="#19e5a1" /><circle cx="366.8" cy="317.0" r="4" fill="#19e5a1" /><circle cx="374.0" cy="317.0" r="4" fill="#19e5a1" /><circle cx="381.1" cy="317.0" r="4" fill="#19e5a1" /><circle cx="388.3" cy="317.0" r="4" fill="#19e5a1" /><circle cx="395.5" cy="317.0" r="4" fill="#19e5a1" /><circle cx="402.6" cy="317.0" r="4" fill="#19e5a1" /><circle cx="409.8" cy="317.0" r="4" fill="#19e5a1" /><circle cx="417.0" cy="317.0" r="4" fill="#19e5a1" /><circle cx="424.2" cy="317.0" r="4" fill="#19e5a1" /><circle cx="431.3" cy="317.0" r="4" fill="#19e5a1" /><circle cx="438.5" cy="317.0" r="4" fill="#19e5a1" /><circle cx="445.7" cy="317.0" r="4" fill="#19e5a1" /><circle cx="452.8" cy="317.0" r="4" fill="#19e5a1" /><circle cx="460.0" cy="317.0" r="4" fill="#19e5a1" /><circle cx="467.2" cy="317.0" r="4" fill="#19e5a1" /><circle cx="474.3" cy="317.0" r="4" fill="#19e5a1" /><circle cx="481.5" cy="317.0" r="4" fill="#19e5a1" /><circle cx="488.7" cy="317.0" r="4" fill="#19e5a1" /><circle cx="495.8" cy="317.0" r="4" fill="#19e5a1" /><circle cx="503.0" cy="317.0" r="4" fill="#19e5a1" /><circle cx="510.2" cy="317.0" r="4" fill="#19e5a1" /><circle cx="517.4" cy="317.0" r="4" fill="#19e5a1" /><circle cx="524.5" cy="317.0" r="4" fill="#19e5a1" /><circle cx="531.7" cy="317.0" r="4" fill="#19e5a1" /><circle cx="538.9" cy="317.0" r="4" fill="#19e5a1" /><circle cx="546.0" cy="317.0" r="4" fill="#19e5a1" /><circle cx="553.2" cy="317.0" r="4" fill="#19e5a1" /><circle cx="560.4" cy="317.0" r="4" fill="#19e5a1" /><circle cx="567.5" cy="317.0" r="4" fill="#19e5a1" /><circle cx="574.7" cy="317.0" r="4" fill="#19e5a1" /><circle cx="581.9" cy="317.0" r="4" fill="#19e5a1" /><circle cx="589.1" cy="317.0" r="4" fill="#19e5a1" /><circle cx="596.2" cy="317.0" r="4" fill="#19e5a1" /><circle cx="603.4" cy="317.0" r="4" fill="#19e5a1" /><circle cx="610.6" cy="317.0" r="4" fill="#19e5a1" /><circle cx="617.7" cy="317.0" r="4" fill="#19e5a1" /><circle cx="624.9" cy="317.0" r="4" fill="#19e5a1" /><circle cx="632.1" cy="317.0" r="4" fill="#19e5a1" /><circle cx="639.2" cy="317.0" r="4" fill="#19e5a1" /><circle cx="646.4" cy="317.0" r="4" fill="#19e5a1" /><circle cx="653.6" cy="317.0" r="4" fill="#19e5a1" /><circle cx="660.8" cy="317.0" r="4" fill="#19e5a1" /><circle cx="667.9" cy="317.0" r="4" fill="#19e5a1" /><circle cx="675.1" cy="317.0" r="4" fill="#19e5a1" /><circle cx="682.3" cy="317.0" r="4" fill="#19e5a1" /><circle cx="689.4" cy="317.0" r="4" fill="#19e5a1" /><circle cx="696.6" cy="317.0" r="4" fill="#19e5a1" /><circle cx="703.8" cy="317.0" r="4" fill="#19e5a1" /><circle cx="710.9" cy="317.0" r="4" fill="#19e5a1" /><circle cx="718.1" cy="317.0" r="4" fill="#19e5a1" /><circle cx="725.3" cy="317.0" r="4" fill="#19e5a1" /><circle cx="732.5" cy="317.0" r="4" fill="#19e5a1" /><circle cx="739.6" cy="317.0" r="4" fill="#19e5a1" /><circle cx="746.8" cy="317.0" r="4" fill="#19e5a1" /><circle cx="754.0" cy="317.0" r="4" fill="#19e5a1" /><circle cx="761.1" cy="317.0" r="4" fill="#19e5a1" /><circle cx="768.3" cy="317.0" r="4" fill="#19e5a1" /><circle cx="775.5" cy="317.0" r="4" fill="#19e5a1" /><circle cx="782.6" cy="317.0" r="4" fill="#19e5a1" /><circle cx="789.8" cy="317.0" r="4" fill="#19e5a1" /><circle cx="797.0" cy="317.0" r="4" fill="#19e5a1" /><circle cx="804.2" cy="317.0" r="4" fill="#19e5a1" /><circle cx="811.3" cy="317.0" r="4" fill="#19e5a1" /><circle cx="818.5" cy="317.0" r="4" fill="#19e5a1" /><circle cx="825.7" cy="317.0" r="4" fill="#19e5a1" /><circle cx="832.8" cy="317.0" r="4" fill="#19e5a1" /><circle cx="840.0" cy="317.0" r="4" fill="#19e5a1" /><polyline points="80.0,313.2 87.2,312.2 94.3,312.1 101.5,312.4 108.7,312.4 115.8,312.4 123.0,312.1 130.2,312.0 137.4,311.9 144.5,311.9 151.7,311.8 158.9,311.8 166.0,311.5 173.2,311.5 180.4,311.5 187.5,311.2 194.7,311.2 201.9,311.1 209.1,311.1 216.2,311.1 223.4,310.9 230.6,311.0 237.7,310.8 244.9,310.8 252.1,310.8 259.2,310.8 266.4,310.4 273.6,310.2 280.8,310.4 287.9,310.4 295.1,310.4 302.3,310.4 309.4,310.4 316.6,310.2 323.8,310.2 330.9,310.1 338.1,310.1 345.3,309.8 352.5,309.6 359.6,309.6 366.8,309.6 374.0,309.6 381.1,309.5 388.3,309.4 395.5,309.4 402.6,309.4 409.8,309.4 417.0,309.2 424.2,309.2 431.3,309.2 438.5,309.4 445.7,309.4 452.8,309.5 460.0,309.2 467.2,309.2 474.3,309.4 481.5,309.2 488.7,309.2 495.8,309.2 503.0,309.2 510.2,309.2 517.4,309.1 524.5,309.1 531.7,309.1 538.9,309.1 546.0,309.0 553.2,309.0 560.4,308.9 567.5,308.9 574.7,308.9 581.9,308.6 589.1,308.6 596.2,308.6 603.4,308.6 610.6,308.6 617.7,308.6 624.9,308.6 632.1,308.6 639.2,308.6 646.4,308.6 653.6,308.6 660.8,308.6 667.9,308.6 675.1,307.8 682.3,307.8 689.4,307.6 696.6,307.6 703.8,307.6 710.9,307.5 718.1,307.5 725.3,307.6 732.5,308.5 739.6,308.5 746.8,308.4 754.0,308.4 761.1,307.5 768.3,307.5 775.5,307.2 782.6,307.1 789.8,307.1 797.0,307.1 804.2,307.0 811.3,306.8 818.5,306.6 825.7,306.6 832.8,306.5 840.0,306.5" fill="none" stroke="#6eb6ec" stroke-width="2.5" stroke-linecap="round" stroke-linejoin="round" /><circle cx="80.0" cy="313.2" r="4" fill="#6eb6ec" /><circle cx="87.2" cy="312.2" r="4" fill="#6eb6ec" /><circle cx="94.3" cy="312.1" r="4" fill="#6eb6ec" /><circle cx="101.5" cy="312.4" r="4" fill="#6eb6ec" /><circle cx="108.7" cy="312.4" r="4" fill="#6eb6ec" /><circle cx="115.8" cy="312.4" r="4" fill="#6eb6ec" /><circle cx="123.0" cy="312.1" r="4" fill="#6eb6ec" /><circle cx="130.2" cy="312.0" r="4" fill="#6eb6ec" /><circle cx="137.4" cy="311.9" r="4" fill="#6eb6ec" /><circle cx="144.5" cy="311.9" r="4" fill="#6eb6ec" /><circle cx="151.7" cy="311.8" r="4" fill="#6eb6ec" /><circle cx="158.9" cy="311.8" r="4" fill="#6eb6ec" /><circle cx="166.0" cy="311.5" r="4" fill="#6eb6ec" /><circle cx="173.2" cy="311.5" r="4" fill="#6eb6ec" /><circle cx="180.4" cy="311.5" r="4" fill="#6eb6ec" /><circle cx="187.5" cy="311.2" r="4" fill="#6eb6ec" /><circle cx="194.7" cy="311.2" r="4" fill="#6eb6ec" /><circle cx="201.9" cy="311.1" r="4" fill="#6eb6ec" /><circle cx="209.1" cy="311.1" r="4" fill="#6eb6ec" /><circle cx="216.2" cy="311.1" r="4" fill="#6eb6ec" /><circle cx="223.4" cy="310.9" r="4" fill="#6eb6ec" /><circle cx="230.6" cy="311.0" r="4" fill="#6eb6ec" /><circle cx="237.7" cy="310.8" r="4" fill="#6eb6ec" /><circle cx="244.9" cy="310.8" r="4" fill="#6eb6ec" /><circle cx="252.1" cy="310.8" r="4" fill="#6eb6ec" /><circle cx="259.2" cy="310.8" r="4" fill="#6eb6ec" /><circle cx="266.4" cy="310.4" r="4" fill="#6eb6ec" /><circle cx="273.6" cy="310.2" r="4" fill="#6eb6ec" /><circle cx="280.8" cy="310.4" r="4" fill="#6eb6ec" /><circle cx="287.9" cy="310.4" r="4" fill="#6eb6ec" /><circle cx="295.1" cy="310.4" r="4" fill="#6eb6ec" /><circle cx="302.3" cy="310.4" r="4" fill="#6eb6ec" /><circle cx="309.4" cy="310.4" r="4" fill="#6eb6ec" /><circle cx="316.6" cy="310.2" r="4" fill="#6eb6ec" /><circle cx="323.8" cy="310.2" r="4" fill="#6eb6ec" /><circle cx="330.9" cy="310.1" r="4" fill="#6eb6ec" /><circle cx="338.1" cy="310.1" r="4" fill="#6eb6ec" /><circle cx="345.3" cy="309.8" r="4" fill="#6eb6ec" /><circle cx="352.5" cy="309.6" r="4" fill="#6eb6ec" /><circle cx="359.6" cy="309.6" r="4" fill="#6eb6ec" /><circle cx="366.8" cy="309.6" r="4" fill="#6eb6ec" /><circle cx="374.0" cy="309.6" r="4" fill="#6eb6ec" /><circle cx="381.1" cy="309.5" r="4" fill="#6eb6ec" /><circle cx="388.3" cy="309.4" r="4" fill="#6eb6ec" /><circle cx="395.5" cy="309.4" r="4" fill="#6eb6ec" /><circle cx="402.6" cy="309.4" r="4" fill="#6eb6ec" /><circle cx="409.8" cy="309.4" r="4" fill="#6eb6ec" /><circle cx="417.0" cy="309.2" r="4" fill="#6eb6ec" /><circle cx="424.2" cy="309.2" r="4" fill="#6eb6ec" /><circle cx="431.3" cy="309.2" r="4" fill="#6eb6ec" /><circle cx="438.5" cy="309.4" r="4" fill="#6eb6ec" /><circle cx="445.7" cy="309.4" r="4" fill="#6eb6ec" /><circle cx="452.8" cy="309.5" r="4" fill="#6eb6ec" /><circle cx="460.0" cy="309.2" r="4" fill="#6eb6ec" /><circle cx="467.2" cy="309.2" r="4" fill="#6eb6ec" /><circle cx="474.3" cy="309.4" r="4" fill="#6eb6ec" /><circle cx="481.5" cy="309.2" r="4" fill="#6eb6ec" /><circle cx="488.7" cy="309.2" r="4" fill="#6eb6ec" /><circle cx="495.8" cy="309.2" r="4" fill="#6eb6ec" /><circle cx="503.0" cy="309.2" r="4" fill="#6eb6ec" /><circle cx="510.2" cy="309.2" r="4" fill="#6eb6ec" /><circle cx="517.4" cy="309.1" r="4" fill="#6eb6ec" /><circle cx="524.5" cy="309.1" r="4" fill="#6eb6ec" /><circle cx="531.7" cy="309.1" r="4" fill="#6eb6ec" /><circle cx="538.9" cy="309.1" r="4" fill="#6eb6ec" /><circle cx="546.0" cy="309.0" r="4" fill="#6eb6ec" /><circle cx="553.2" cy="309.0" r="4" fill="#6eb6ec" /><circle cx="560.4" cy="308.9" r="4" fill="#6eb6ec" /><circle cx="567.5" cy="308.9" r="4" fill="#6eb6ec" /><circle cx="574.7" cy="308.9" r="4" fill="#6eb6ec" /><circle cx="581.9" cy="308.6" r="4" fill="#6eb6ec" /><circle cx="589.1" cy="308.6" r="4" fill="#6eb6ec" /><circle cx="596.2" cy="308.6" r="4" fill="#6eb6ec" /><circle cx="603.4" cy="308.6" r="4" fill="#6eb6ec" /><circle cx="610.6" cy="308.6" r="4" fill="#6eb6ec" /><circle cx="617.7" cy="308.6" r="4" fill="#6eb6ec" /><circle cx="624.9" cy="308.6" r="4" fill="#6eb6ec" /><circle cx="632.1" cy="308.6" r="4" fill="#6eb6ec" /><circle cx="639.2" cy="308.6" r="4" fill="#6eb6ec" /><circle cx="646.4" cy="308.6" r="4" fill="#6eb6ec" /><circle cx="653.6" cy="308.6" r="4" fill="#6eb6ec" /><circle cx="660.8" cy="308.6" r="4" fill="#6eb6ec" /><circle cx="667.9" cy="308.6" r="4" fill="#6eb6ec" /><circle cx="675.1" cy="307.8" r="4" fill="#6eb6ec" /><circle cx="682.3" cy="307.8" r="4" fill="#6eb6ec" /><circle cx="689.4" cy="307.6" r="4" fill="#6eb6ec" /><circle cx="696.6" cy="307.6" r="4" fill="#6eb6ec" /><circle cx="703.8" cy="307.6" r="4" fill="#6eb6ec" /><circle cx="710.9" cy="307.5" r="4" fill="#6eb6ec" /><circle cx="718.1" cy="307.5" r="4" fill="#6eb6ec" /><circle cx="725.3" cy="307.6" r="4" fill="#6eb6ec" /><circle cx="732.5" cy="308.5" r="4" fill="#6eb6ec" /><circle cx="739.6" cy="308.5" r="4" fill="#6eb6ec" /><circle cx="746.8" cy="308.4" r="4" fill="#6eb6ec" /><circle cx="754.0" cy="308.4" r="4" fill="#6eb6ec" /><circle cx="761.1" cy="307.5" r="4" fill="#6eb6ec" /><circle cx="768.3" cy="307.5" r="4" fill="#6eb6ec" /><circle cx="775.5" cy="307.2" r="4" fill="#6eb6ec" /><circle cx="782.6" cy="307.1" r="4" fill="#6eb6ec" /><circle cx="789.8" cy="307.1" r="4" fill="#6eb6ec" /><circle cx="797.0" cy="307.1" r="4" fill="#6eb6ec" /><circle cx="804.2" cy="307.0" r="4" fill="#6eb6ec" /><circle cx="811.3" cy="306.8" r="4" fill="#6eb6ec" /><circle cx="818.5" cy="306.6" r="4" fill="#6eb6ec" /><circle cx="825.7" cy="306.6" r="4" fill="#6eb6ec" /><circle cx="832.8" cy="306.5" r="4" fill="#6eb6ec" /><circle cx="840.0" cy="306.5" r="4" fill="#6eb6ec" /><polyline points="80.0,305.8 87.2,305.8 94.3,305.8 101.5,305.8 108.7,305.8 115.8,305.8 123.0,305.8 130.2,305.8 137.4,305.8 144.5,305.8 151.7,304.9 158.9,304.9 166.0,304.9 173.2,304.9 180.4,304.9 187.5,304.9 194.7,304.9 201.9,304.9 209.1,304.9 216.2,304.9 223.4,304.9 230.6,304.9 237.7,304.9 244.9,304.9 252.1,304.9 259.2,304.9 266.4,304.9 273.6,304.9 280.8,304.9 287.9,304.9 295.1,304.9 302.3,304.9 309.4,304.9 316.6,304.9 323.8,304.9 330.9,304.9 338.1,304.9 345.3,303.6 352.5,303.6 359.6,303.6 366.8,303.6 374.0,303.6 381.1,303.6 388.3,303.6 395.5,303.6 402.6,303.6 409.8,303.6 417.0,303.6 424.2,303.6 431.3,303.6 438.5,303.6 445.7,302.9 452.8,302.9 460.0,298.0 467.2,298.0 474.3,298.0 481.5,298.0 488.7,298.0 495.8,298.0 503.0,298.0 510.2,298.0 517.4,298.0 524.5,298.0 531.7,298.0 538.9,298.0 546.0,298.0 553.2,298.0 560.4,297.8 567.5,297.8 574.7,297.8 581.9,297.8 589.1,297.8 596.2,297.8 603.4,297.8 610.6,297.8 617.7,297.8 624.9,297.8 632.1,297.8 639.2,297.8 646.4,297.8 653.6,297.8 660.8,297.8 667.9,297.8 675.1,297.8 682.3,297.8 689.4,297.8 696.6,297.6 703.8,297.8 710.9,297.8 718.1,297.8 725.3,297.9 732.5,297.9 739.6,297.9 746.8,296.1 754.0,296.1 761.1,296.1 768.3,296.1 775.5,296.1 782.6,296.1 789.8,296.1 797.0,296.1 804.2,296.1 811.3,296.1 818.5,295.0 825.7,295.0 832.8,295.0 840.0,295.0" fill="none" stroke="#5938e2" stroke-width="2.5" stroke-linecap="round" stroke-linejoin="round" /><circle cx="80.0" cy="305.8" r="4" fill="#5938e2" /><circle cx="87.2" cy="305.8" r="4" fill="#5938e2" /><circle cx="94.3" cy="305.8" r="4" fill="#5938e2" /><circle cx="101.5" cy="305.8" r="4" fill="#5938e2" /><circle cx="108.7" cy="305.8" r="4" fill="#5938e2" /><circle cx="115.8" cy="305.8" r="4" fill="#5938e2" /><circle cx="123.0" cy="305.8" r="4" fill="#5938e2" /><circle cx="130.2" cy="305.8" r="4" fill="#5938e2" /><circle cx="137.4" cy="305.8" r="4" fill="#5938e2" /><circle cx="144.5" cy="305.8" r="4" fill="#5938e2" /><circle cx="151.7" cy="304.9" r="4" fill="#5938e2" /><circle cx="158.9" cy="304.9" r="4" fill="#5938e2" /><circle cx="166.0" cy="304.9" r="4" fill="#5938e2" /><circle cx="173.2" cy="304.9" r="4" fill="#5938e2" /><circle cx="180.4" cy="304.9" r="4" fill="#5938e2" /><circle cx="187.5" cy="304.9" r="4" fill="#5938e2" /><circle cx="194.7" cy="304.9" r="4" fill="#5938e2" /><circle cx="201.9" cy="304.9" r="4" fill="#5938e2" /><circle cx="209.1" cy="304.9" r="4" fill="#5938e2" /><circle cx="216.2" cy="304.9" r="4" fill="#5938e2" /><circle cx="223.4" cy="304.9" r="4" fill="#5938e2" /><circle cx="230.6" cy="304.9" r="4" fill="#5938e2" /><circle cx="237.7" cy="304.9" r="4" fill="#5938e2" /><circle cx="244.9" cy="304.9" r="4" fill="#5938e2" /><circle cx="252.1" cy="304.9" r="4" fill="#5938e2" /><circle cx="259.2" cy="304.9" r="4" fill="#5938e2" /><circle cx="266.4" cy="304.9" r="4" fill="#5938e2" /><circle cx="273.6" cy="304.9" r="4" fill="#5938e2" /><circle cx="280.8" cy="304.9" r="4" fill="#5938e2" /><circle cx="287.9" cy="304.9" r="4" fill="#5938e2" /><circle cx="295.1" cy="304.9" r="4" fill="#5938e2" /><circle cx="302.3" cy="304.9" r="4" fill="#5938e2" /><circle cx="309.4" cy="304.9" r="4" fill="#5938e2" /><circle cx="316.6" cy="304.9" r="4" fill="#5938e2" /><circle cx="323.8" cy="304.9" r="4" fill="#5938e2" /><circle cx="330.9" cy="304.9" r="4" fill="#5938e2" /><circle cx="338.1" cy="304.9" r="4" fill="#5938e2" /><circle cx="345.3" cy="303.6" r="4" fill="#5938e2" /><circle cx="352.5" cy="303.6" r="4" fill="#5938e2" /><circle cx="359.6" cy="303.6" r="4" fill="#5938e2" /><circle cx="366.8" cy="303.6" r="4" fill="#5938e2" /><circle cx="374.0" cy="303.6" r="4" fill="#5938e2" /><circle cx="381.1" cy="303.6" r="4" fill="#5938e2" /><circle cx="388.3" cy="303.6" r="4" fill="#5938e2" /><circle cx="395.5" cy="303.6" r="4" fill="#5938e2" /><circle cx="402.6" cy="303.6" r="4" fill="#5938e2" /><circle cx="409.8" cy="303.6" r="4" fill="#5938e2" /><circle cx="417.0" cy="303.6" r="4" fill="#5938e2" /><circle cx="424.2" cy="303.6" r="4" fill="#5938e2" /><circle cx="431.3" cy="303.6" r="4" fill="#5938e2" /><circle cx="438.5" cy="303.6" r="4" fill="#5938e2" /><circle cx="445.7" cy="302.9" r="4" fill="#5938e2" /><circle cx="452.8" cy="302.9" r="4" fill="#5938e2" /><circle cx="460.0" cy="298.0" r="4" fill="#5938e2" /><circle cx="467.2" cy="298.0" r="4" fill="#5938e2" /><circle cx="474.3" cy="298.0" r="4" fill="#5938e2" /><circle cx="481.5" cy="298.0" r="4" fill="#5938e2" /><circle cx="488.7" cy="298.0" r="4" fill="#5938e2" /><circle cx="495.8" cy="298.0" r="4" fill="#5938e2" /><circle cx="503.0" cy="298.0" r="4" fill="#5938e2" /><circle cx="510.2" cy="298.0" r="4" fill="#5938e2" /><circle cx="517.4" cy="298.0" r="4" fill="#5938e2" /><circle cx="524.5" cy="298.0" r="4" fill="#5938e2" /><circle cx="531.7" cy="298.0" r="4" fill="#5938e2" /><circle cx="538.9" cy="298.0" r="4" fill="#5938e2" /><circle cx="546.0" cy="298.0" r="4" fill="#5938e2" /><circle cx="553.2" cy="298.0" r="4" fill="#5938e2" /><circle cx="560.4" cy="297.8" r="4" fill="#5938e2" /><circle cx="567.5" cy="297.8" r="4" fill="#5938e2" /><circle cx="574.7" cy="297.8" r="4" fill="#5938e2" /><circle cx="581.9" cy="297.8" r="4" fill="#5938e2" /><circle cx="589.1" cy="297.8" r="4" fill="#5938e2" /><circle cx="596.2" cy="297.8" r="4" fill="#5938e2" /><circle cx="603.4" cy="297.8" r="4" fill="#5938e2" /><circle cx="610.6" cy="297.8" r="4" fill="#5938e2" /><circle cx="617.7" cy="297.8" r="4" fill="#5938e2" /><circle cx="624.9" cy="297.8" r="4" fill="#5938e2" /><circle cx="632.1" cy="297.8" r="4" fill="#5938e2" /><circle cx="639.2" cy="297.8" r="4" fill="#5938e2" /><circle cx="646.4" cy="297.8" r="4" fill="#5938e2" /><circle cx="653.6" cy="297.8" r="4" fill="#5938e2" /><circle cx="660.8" cy="297.8" r="4" fill="#5938e2" /><circle cx="667.9" cy="297.8" r="4" fill="#5938e2" /><circle cx="675.1" cy="297.8" r="4" fill="#5938e2" /><circle cx="682.3" cy="297.8" r="4" fill="#5938e2" /><circle cx="689.4" cy="297.8" r="4" fill="#5938e2" /><circle cx="696.6" cy="297.6" r="4" fill="#5938e2" /><circle cx="703.8" cy="297.8" r="4" fill="#5938e2" /><circle cx="710.9" cy="297.8" r="4" fill="#5938e2" /><circle cx="718.1" cy="297.8" r="4" fill="#5938e2" /><circle cx="725.3" cy="297.9" r="4" fill="#5938e2" /><circle cx="732.5" cy="297.9" r="4" fill="#5938e2" /><circle cx="739.6" cy="297.9" r="4" fill="#5938e2" /><circle cx="746.8" cy="296.1" r="4" fill="#5938e2" /><circle cx="754.0" cy="296.1" r="4" fill="#5938e2" /><circle cx="761.1" cy="296.1" r="4" fill="#5938e2" /><circle cx="768.3" cy="296.1" r="4" fill="#5938e2" /><circle cx="775.5" cy="296.1" r="4" fill="#5938e2" /><circle cx="782.6" cy="296.1" r="4" fill="#5938e2" /><circle cx="789.8" cy="296.1" r="4" fill="#5938e2" /><circle cx="797.0" cy="296.1" r="4" fill="#5938e2" /><circle cx="804.2" cy="296.1" r="4" fill="#5938e2" /><circle cx="811.3" cy="296.1" r="4" fill="#5938e2" /><circle cx="818.5" cy="295.0" r="4" fill="#5938e2" /><circle cx="825.7" cy="295.0" r="4" fill="#5938e2" /><circle cx="832.8" cy="295.0" r="4" fill="#5938e2" /><circle cx="840.0" cy="295.0" r="4" fill="#5938e2" /><polyline points="80.0,144.6 87.2,140.1 94.3,139.9 101.5,139.8 108.7,139.8 115.8,139.6 123.0,139.6 130.2,139.6 137.4,139.6 144.5,139.6 151.7,138.4 158.9,138.4 166.0,138.4 173.2,138.4 180.4,138.4 187.5,138.4 194.7,138.4 201.9,137.4 209.1,137.4 216.2,137.4 223.4,137.4 230.6,137.4 237.7,137.4 244.9,137.4 252.1,137.4 259.2,137.4 266.4,137.4 273.6,137.4 280.8,131.2 287.9,131.2 295.1,130.8 302.3,130.4 309.4,126.9 316.6,126.9 323.8,126.9 330.9,126.9 338.1,126.9 345.3,126.9 352.5,126.9 359.6,126.9 366.8,126.9 374.0,126.8 381.1,122.1 388.3,120.4 395.5,120.4 402.6,120.4 409.8,120.4 417.0,120.4 424.2,119.4 431.3,119.4 438.5,119.4 445.7,119.4 452.8,119.1 460.0,118.8 467.2,118.8 474.3,117.8 481.5,117.8 488.7,117.8 495.8,115.8 503.0,115.8 510.2,115.0 517.4,115.0 524.5,115.0 531.7,115.0 538.9,115.0 546.0,115.0 553.2,115.0 560.4,113.9 567.5,111.8 574.7,111.8 581.9,111.8 589.1,111.8 596.2,111.8 603.4,111.8 610.6,111.8 617.7,111.8 624.9,111.8 632.1,111.8 639.2,110.6 646.4,110.6 653.6,110.6 660.8,110.6 667.9,110.6 675.1,109.4 682.3,109.4 689.4,109.4 696.6,109.4 703.8,109.2 710.9,109.2 718.1,109.2 725.3,109.2 732.5,109.2 739.6,109.2 746.8,109.2 754.0,109.2 761.1,109.2 768.3,109.2 775.5,109.2 782.6,109.2 789.8,109.2 797.0,109.2 804.2,109.2 811.3,109.1 818.5,103.5 825.7,103.5 832.8,103.5 840.0,101.5" fill="none" stroke="#60e5e0" stroke-width="2.5" stroke-linecap="round" stroke-linejoin="round" /><circle cx="80.0" cy="144.6" r="4" fill="#60e5e0" /><circle cx="87.2" cy="140.1" r="4" fill="#60e5e0" /><circle cx="94.3" cy="139.9" r="4" fill="#60e5e0" /><circle cx="101.5" cy="139.8" r="4" fill="#60e5e0" /><circle cx="108.7" cy="139.8" r="4" fill="#60e5e0" /><circle cx="115.8" cy="139.6" r="4" fill="#60e5e0" /><circle cx="123.0" cy="139.6" r="4" fill="#60e5e0" /><circle cx="130.2" cy="139.6" r="4" fill="#60e5e0" /><circle cx="137.4" cy="139.6" r="4" fill="#60e5e0" /><circle cx="144.5" cy="139.6" r="4" fill="#60e5e0" /><circle cx="151.7" cy="138.4" r="4" fill="#60e5e0" /><circle cx="158.9" cy="138.4" r="4" fill="#60e5e0" /><circle cx="166.0" cy="138.4" r="4" fill="#60e5e0" /><circle cx="173.2" cy="138.4" r="4" fill="#60e5e0" /><circle cx="180.4" cy="138.4" r="4" fill="#60e5e0" /><circle cx="187.5" cy="138.4" r="4" fill="#60e5e0" /><circle cx="194.7" cy="138.4" r="4" fill="#60e5e0" /><circle cx="201.9" cy="137.4" r="4" fill="#60e5e0" /><circle cx="209.1" cy="137.4" r="4" fill="#60e5e0" /><circle cx="216.2" cy="137.4" r="4" fill="#60e5e0" /><circle cx="223.4" cy="137.4" r="4" fill="#60e5e0" /><circle cx="230.6" cy="137.4" r="4" fill="#60e5e0" /><circle cx="237.7" cy="137.4" r="4" fill="#60e5e0" /><circle cx="244.9" cy="137.4" r="4" fill="#60e5e0" /><circle cx="252.1" cy="137.4" r="4" fill="#60e5e0" /><circle cx="259.2" cy="137.4" r="4" fill="#60e5e0" /><circle cx="266.4" cy="137.4" r="4" fill="#60e5e0" /><circle cx="273.6" cy="137.4" r="4" fill="#60e5e0" /><circle cx="280.8" cy="131.2" r="4" fill="#60e5e0" /><circle cx="287.9" cy="131.2" r="4" fill="#60e5e0" /><circle cx="295.1" cy="130.8" r="4" fill="#60e5e0" /><circle cx="302.3" cy="130.4" r="4" fill="#60e5e0" /><circle cx="309.4" cy="126.9" r="4" fill="#60e5e0" /><circle cx="316.6" cy="126.9" r="4" fill="#60e5e0" /><circle cx="323.8" cy="126.9" r="4" fill="#60e5e0" /><circle cx="330.9" cy="126.9" r="4" fill="#60e5e0" /><circle cx="338.1" cy="126.9" r="4" fill="#60e5e0" /><circle cx="345.3" cy="126.9" r="4" fill="#60e5e0" /><circle cx="352.5" cy="126.9" r="4" fill="#60e5e0" /><circle cx="359.6" cy="126.9" r="4" fill="#60e5e0" /><circle cx="366.8" cy="126.9" r="4" fill="#60e5e0" /><circle cx="374.0" cy="126.8" r="4" fill="#60e5e0" /><circle cx="381.1" cy="122.1" r="4" fill="#60e5e0" /><circle cx="388.3" cy="120.4" r="4" fill="#60e5e0" /><circle cx="395.5" cy="120.4" r="4" fill="#60e5e0" /><circle cx="402.6" cy="120.4" r="4" fill="#60e5e0" /><circle cx="409.8" cy="120.4" r="4" fill="#60e5e0" /><circle cx="417.0" cy="120.4" r="4" fill="#60e5e0" /><circle cx="424.2" cy="119.4" r="4" fill="#60e5e0" /><circle cx="431.3" cy="119.4" r="4" fill="#60e5e0" /><circle cx="438.5" cy="119.4" r="4" fill="#60e5e0" /><circle cx="445.7" cy="119.4" r="4" fill="#60e5e0" /><circle cx="452.8" cy="119.1" r="4" fill="#60e5e0" /><circle cx="460.0" cy="118.8" r="4" fill="#60e5e0" /><circle cx="467.2" cy="118.8" r="4" fill="#60e5e0" /><circle cx="474.3" cy="117.8" r="4" fill="#60e5e0" /><circle cx="481.5" cy="117.8" r="4" fill="#60e5e0" /><circle cx="488.7" cy="117.8" r="4" fill="#60e5e0" /><circle cx="495.8" cy="115.8" r="4" fill="#60e5e0" /><circle cx="503.0" cy="115.8" r="4" fill="#60e5e0" /><circle cx="510.2" cy="115.0" r="4" fill="#60e5e0" /><circle cx="517.4" cy="115.0" r="4" fill="#60e5e0" /><circle cx="524.5" cy="115.0" r="4" fill="#60e5e0" /><circle cx="531.7" cy="115.0" r="4" fill="#60e5e0" /><circle cx="538.9" cy="115.0" r="4" fill="#60e5e0" /><circle cx="546.0" cy="115.0" r="4" fill="#60e5e0" /><circle cx="553.2" cy="115.0" r="4" fill="#60e5e0" /><circle cx="560.4" cy="113.9" r="4" fill="#60e5e0" /><circle cx="567.5" cy="111.8" r="4" fill="#60e5e0" /><circle cx="574.7" cy="111.8" r="4" fill="#60e5e0" /><circle cx="581.9" cy="111.8" r="4" fill="#60e5e0" /><circle cx="589.1" cy="111.8" r="4" fill="#60e5e0" /><circle cx="596.2" cy="111.8" r="4" fill="#60e5e0" /><circle cx="603.4" cy="111.8" r="4" fill="#60e5e0" /><circle cx="610.6" cy="111.8" r="4" fill="#60e5e0" /><circle cx="617.7" cy="111.8" r="4" fill="#60e5e0" /><circle cx="624.9" cy="111.8" r="4" fill="#60e5e0" /><circle cx="632.1" cy="111.8" r="4" fill="#60e5e0" /><circle cx="639.2" cy="110.6" r="4" fill="#60e5e0" /><circle cx="646.4" cy="110.6" r="4" fill="#60e5e0" /><circle cx="653.6" cy="110.6" r="4" fill="#60e5e0" /><circle cx="660.8" cy="110.6" r="4" fill="#60e5e0" /><circle cx="667.9" cy="110.6" r="4" fill="#60e5e0" /><circle cx="675.1" cy="109.4" r="4" fill="#60e5e0" /><circle cx="682.3" cy="109.4" r="4" fill="#60e5e0" /><circle cx="689.4" cy="109.4" r="4" fill="#60e5e0" /><circle cx="696.6" cy="109.4" r="4" fill="#60e5e0" /><circle cx="703.8" cy="109.2" r="4" fill="#60e5e0" /><circle cx="710.9" cy="109.2" r="4" fill="#60e5e0" /><circle cx="718.1" cy="109.2" r="4" fill="#60e5e0" /><circle cx="725.3" cy="109.2" r="4" fill="#60e5e0" /><circle cx="732.5" cy="109.2" r="4" fill="#60e5e0" /><circle cx="739.6" cy="109.2" r="4" fill="#60e5e0" /><circle cx="746.8" cy="109.2" r="4" fill="#60e5e0" /><circle cx="754.0" cy="109.2" r="4" fill="#60e5e0" /><circle cx="761.1" cy="109.2" r="4" fill="#60e5e0" /><circle cx="768.3" cy="109.2" r="4" fill="#60e5e0" /><circle cx="775.5" cy="109.2" r="4" fill="#60e5e0" /><circle cx="782.6" cy="109.2" r="4" fill="#60e5e0" /><circle cx="789.8" cy="109.2" r="4" fill="#60e5e0" /><circle cx="797.0" cy="109.2" r="4" fill="#60e5e0" /><circle cx="804.2" cy="109.2" r="4" fill="#60e5e0" /><circle cx="811.3" cy="109.1" r="4" fill="#60e5e0" /><circle cx="818.5" cy="103.5" r="4" fill="#60e5e0" /><circle cx="825.7" cy="103.5" r="4" fill="#60e5e0" /><circle cx="832.8" cy="103.5" r="4" fill="#60e5e0" /><circle cx="840.0" cy="101.5" r="4" fill="#60e5e0" /><polyline points="80.0,314.6 87.2,314.4 94.3,314.2 101.5,314.2 108.7,314.2 115.8,314.1 123.0,314.1 130.2,314.1 137.4,314.1 144.5,314.1 151.7,314.0 158.9,314.0 166.0,314.0 173.2,314.0 180.4,314.0 187.5,314.0 194.7,314.0 201.9,314.0 209.1,314.0 216.2,314.0 223.4,314.0 230.6,314.0 237.7,314.0 244.9,314.0 252.1,314.0 259.2,314.0 266.4,314.0 273.6,314.0 280.8,314.0 287.9,314.0 295.1,314.0 302.3,314.0 309.4,314.0 316.6,314.0 323.8,314.0 330.9,314.0 338.1,314.0 345.3,314.0 352.5,314.0 359.6,314.0 366.8,314.0 374.0,313.9 381.1,313.6 388.3,313.4 395.5,313.4 402.6,313.4 409.8,313.4 417.0,313.4 424.2,313.1 431.3,313.1 438.5,313.1 445.7,313.1 452.8,313.1 460.0,313.0 467.2,313.0 474.3,312.9 481.5,312.9 488.7,312.9 495.8,312.8 503.0,312.8 510.2,312.6 517.4,312.6 524.5,312.6 531.7,312.6 538.9,312.6 546.0,312.6 553.2,312.6 560.4,312.5 567.5,312.1 574.7,312.1 581.9,312.1 589.1,312.1 596.2,312.1 603.4,312.1 610.6,312.1 617.7,312.1 624.9,312.1 632.1,312.1 639.2,312.0 646.4,312.0 653.6,312.0 660.8,312.0 667.9,312.0 675.1,312.0 682.3,312.0 689.4,312.0 696.6,312.0 703.8,312.0 710.9,312.0 718.1,312.0 725.3,312.0 732.5,312.0 739.6,312.0 746.8,312.0 754.0,312.0 761.1,312.0 768.3,312.0 775.5,312.0 782.6,312.0 789.8,312.0 797.0,312.0 804.2,312.0 811.3,312.0 818.5,311.9 825.7,311.9 832.8,311.9 840.0,311.8" fill="none" stroke="#567de1" stroke-width="2.5" stroke-linecap="round" stroke-linejoin="round" /><circle cx="80.0" cy="314.6" r="4" fill="#567de1" /><circle cx="87.2" cy="314.4" r="4" fill="#567de1" /><circle cx="94.3" cy="314.2" r="4" fill="#567de1" /><circle cx="101.5" cy="314.2" r="4" fill="#567de1" /><circle cx="108.7" cy="314.2" r="4" fill="#567de1" /><circle cx="115.8" cy="314.1" r="4" fill="#567de1" /><circle cx="123.0" cy="314.1" r="4" fill="#567de1" /><circle cx="130.2" cy="314.1" r="4" fill="#567de1" /><circle cx="137.4" cy="314.1" r="4" fill="#567de1" /><circle cx="144.5" cy="314.1" r="4" fill="#567de1" /><circle cx="151.7" cy="314.0" r="4" fill="#567de1" /><circle cx="158.9" cy="314.0" r="4" fill="#567de1" /><circle cx="166.0" cy="314.0" r="4" fill="#567de1" /><circle cx="173.2" cy="314.0" r="4" fill="#567de1" /><circle cx="180.4" cy="314.0" r="4" fill="#567de1" /><circle cx="187.5" cy="314.0" r="4" fill="#567de1" /><circle cx="194.7" cy="314.0" r="4" fill="#567de1" /><circle cx="201.9" cy="314.0" r="4" fill="#567de1" /><circle cx="209.1" cy="314.0" r="4" fill="#567de1" /><circle cx="216.2" cy="314.0" r="4" fill="#567de1" /><circle cx="223.4" cy="314.0" r="4" fill="#567de1" /><circle cx="230.6" cy="314.0" r="4" fill="#567de1" /><circle cx="237.7" cy="314.0" r="4" fill="#567de1" /><circle cx="244.9" cy="314.0" r="4" fill="#567de1" /><circle cx="252.1" cy="314.0" r="4" fill="#567de1" /><circle cx="259.2" cy="314.0" r="4" fill="#567de1" /><circle cx="266.4" cy="314.0" r="4" fill="#567de1" /><circle cx="273.6" cy="314.0" r="4" fill="#567de1" /><circle cx="280.8" cy="314.0" r="4" fill="#567de1" /><circle cx="287.9" cy="314.0" r="4" fill="#567de1" /><circle cx="295.1" cy="314.0" r="4" fill="#567de1" /><circle cx="302.3" cy="314.0" r="4" fill="#567de1" /><circle cx="309.4" cy="314.0" r="4" fill="#567de1" /><circle cx="316.6" cy="314.0" r="4" fill="#567de1" /><circle cx="323.8" cy="314.0" r="4" fill="#567de1" /><circle cx="330.9" cy="314.0" r="4" fill="#567de1" /><circle cx="338.1" cy="314.0" r="4" fill="#567de1" /><circle cx="345.3" cy="314.0" r="4" fill="#567de1" /><circle cx="352.5" cy="314.0" r="4" fill="#567de1" /><circle cx="359.6" cy="314.0" r="4" fill="#567de1" /><circle cx="366.8" cy="314.0" r="4" fill="#567de1" /><circle cx="374.0" cy="313.9" r="4" fill="#567de1" /><circle cx="381.1" cy="313.6" r="4" fill="#567de1" /><circle cx="388.3" cy="313.4" r="4" fill="#567de1" /><circle cx="395.5" cy="313.4" r="4" fill="#567de1" /><circle cx="402.6" cy="313.4" r="4" fill="#567de1" /><circle cx="409.8" cy="313.4" r="4" fill="#567de1" /><circle cx="417.0" cy="313.4" r="4" fill="#567de1" /><circle cx="424.2" cy="313.1" r="4" fill="#567de1" /><circle cx="431.3" cy="313.1" r="4" fill="#567de1" /><circle cx="438.5" cy="313.1" r="4" fill="#567de1" /><circle cx="445.7" cy="313.1" r="4" fill="#567de1" /><circle cx="452.8" cy="313.1" r="4" fill="#567de1" /><circle cx="460.0" cy="313.0" r="4" fill="#567de1" /><circle cx="467.2" cy="313.0" r="4" fill="#567de1" /><circle cx="474.3" cy="312.9" r="4" fill="#567de1" /><circle cx="481.5" cy="312.9" r="4" fill="#567de1" /><circle cx="488.7" cy="312.9" r="4" fill="#567de1" /><circle cx="495.8" cy="312.8" r="4" fill="#567de1" /><circle cx="503.0" cy="312.8" r="4" fill="#567de1" /><circle cx="510.2" cy="312.6" r="4" fill="#567de1" /><circle cx="517.4" cy="312.6" r="4" fill="#567de1" /><circle cx="524.5" cy="312.6" r="4" fill="#567de1" /><circle cx="531.7" cy="312.6" r="4" fill="#567de1" /><circle cx="538.9" cy="312.6" r="4" fill="#567de1" /><circle cx="546.0" cy="312.6" r="4" fill="#567de1" /><circle cx="553.2" cy="312.6" r="4" fill="#567de1" /><circle cx="560.4" cy="312.5" r="4" fill="#567de1" /><circle cx="567.5" cy="312.1" r="4" fill="#567de1" /><circle cx="574.7" cy="312.1" r="4" fill="#567de1" /><circle cx="581.9" cy="312.1" r="4" fill="#567de1" /><circle cx="589.1" cy="312.1" r="4" fill="#567de1" /><circle cx="596.2" cy="312.1" r="4" fill="#567de1" /><circle cx="603.4" cy="312.1" r="4" fill="#567de1" /><circle cx="610.6" cy="312.1" r="4" fill="#567de1" /><circle cx="617.7" cy="312.1" r="4" fill="#567de1" /><circle cx="624.9" cy="312.1" r="4" fill="#567de1" /><circle cx="632.1" cy="312.1" r="4" fill="#567de1" /><circle cx="639.2" cy="312.0" r="4" fill="#567de1" /><circle cx="646.4" cy="312.0" r="4" fill="#567de1" /><circle cx="653.6" cy="312.0" r="4" fill="#567de1" /><circle cx="660.8" cy="312.0" r="4" fill="#567de1" /><circle cx="667.9" cy="312.0" r="4" fill="#567de1" /><circle cx="675.1" cy="312.0" r="4" fill="#567de1" /><circle cx="682.3" cy="312.0" r="4" fill="#567de1" /><circle cx="689.4" cy="312.0" r="4" fill="#567de1" /><circle cx="696.6" cy="312.0" r="4" fill="#567de1" /><circle cx="703.8" cy="312.0" r="4" fill="#567de1" /><circle cx="710.9" cy="312.0" r="4" fill="#567de1" /><circle cx="718.1" cy="312.0" r="4" fill="#567de1" /><circle cx="725.3" cy="312.0" r="4" fill="#567de1" /><circle cx="732.5" cy="312.0" r="4" fill="#567de1" /><circle cx="739.6" cy="312.0" r="4" fill="#567de1" /><circle cx="746.8" cy="312.0" r="4" fill="#567de1" /><circle cx="754.0" cy="312.0" r="4" fill="#567de1" /><circle cx="761.1" cy="312.0" r="4" fill="#567de1" /><circle cx="768.3" cy="312.0" r="4" fill="#567de1" /><circle cx="775.5" cy="312.0" r="4" fill="#567de1" /><circle cx="782.6" cy="312.0" r="4" fill="#567de1" /><circle cx="789.8" cy="312.0" r="4" fill="#567de1" /><circle cx="797.0" cy="312.0" r="4" fill="#567de1" /><circle cx="804.2" cy="312.0" r="4" fill="#567de1" /><circle cx="811.3" cy="312.0" r="4" fill="#567de1" /><circle cx="818.5" cy="311.9" r="4" fill="#567de1" /><circle cx="825.7" cy="311.9" r="4" fill="#567de1" /><circle cx="832.8" cy="311.9" r="4" fill="#567de1" /><circle cx="840.0" cy="311.8" r="4" fill="#567de1" /><polyline points="80.0,303.9 87.2,304.2 94.3,304.4 101.5,304.4 108.7,304.4 115.8,304.4 123.0,304.4 130.2,304.4 137.4,304.4 144.5,304.4 151.7,304.4 158.9,304.4 166.0,304.4 173.2,304.4 180.4,304.4 187.5,304.4 194.7,304.4 201.9,304.4 209.1,304.4 216.2,304.4 223.4,304.4 230.6,304.4 237.7,304.4 244.9,304.4 252.1,304.4 259.2,304.4 266.4,304.4 273.6,304.4 280.8,299.1 287.9,299.1 295.1,299.1 302.3,298.9 309.4,295.6 316.6,295.6 323.8,295.6 330.9,295.6 338.1,295.6 345.3,295.6 352.5,295.6 359.6,295.6 366.8,295.6 374.0,295.8 381.1,295.9 388.3,295.9 395.5,295.9 402.6,295.9 409.8,295.9 417.0,295.9 424.2,295.9 431.3,295.9 438.5,295.9 445.7,295.9 452.8,295.9 460.0,295.9 467.2,295.9 474.3,295.9 481.5,295.9 488.7,295.9 495.8,295.8 503.0,295.8 510.2,295.9 517.4,295.9 524.5,295.9 531.7,295.9 538.9,295.9 546.0,295.9 553.2,295.9 560.4,296.0 567.5,296.4 574.7,296.4 581.9,296.4 589.1,296.4 596.2,296.4 603.4,296.4 610.6,296.4 617.7,296.4 624.9,296.4 632.1,296.4 639.2,296.5 646.4,296.5 653.6,296.5 660.8,296.5 667.9,296.5 675.1,296.5 682.3,296.5 689.4,296.5 696.6,296.5 703.8,296.5 710.9,296.5 718.1,296.5 725.3,296.5 732.5,296.5 739.6,296.5 746.8,296.5 754.0,296.5 761.1,296.5 768.3,296.5 775.5,296.5 782.6,296.5 789.8,296.5 797.0,296.5 804.2,296.5 811.3,296.5 818.5,295.0 825.7,295.0 832.8,295.0 840.0,295.1" fill="none" stroke="#9754dd" stroke-width="2.5" stroke-linecap="round" stroke-linejoin="round" /><circle cx="80.0" cy="303.9" r="4" fill="#9754dd" /><circle cx="87.2" cy="304.2" r="4" fill="#9754dd" /><circle cx="94.3" cy="304.4" r="4" fill="#9754dd" /><circle cx="101.5" cy="304.4" r="4" fill="#9754dd" /><circle cx="108.7" cy="304.4" r="4" fill="#9754dd" /><circle cx="115.8" cy="304.4" r="4" fill="#9754dd" /><circle cx="123.0" cy="304.4" r="4" fill="#9754dd" /><circle cx="130.2" cy="304.4" r="4" fill="#9754dd" /><circle cx="137.4" cy="304.4" r="4" fill="#9754dd" /><circle cx="144.5" cy="304.4" r="4" fill="#9754dd" /><circle cx="151.7" cy="304.4" r="4" fill="#9754dd" /><circle cx="158.9" cy="304.4" r="4" fill="#9754dd" /><circle cx="166.0" cy="304.4" r="4" fill="#9754dd" /><circle cx="173.2" cy="304.4" r="4" fill="#9754dd" /><circle cx="180.4" cy="304.4" r="4" fill="#9754dd" /><circle cx="187.5" cy="304.4" r="4" fill="#9754dd" /><circle cx="194.7" cy="304.4" r="4" fill="#9754dd" /><circle cx="201.9" cy="304.4" r="4" fill="#9754dd" /><circle cx="209.1" cy="304.4" r="4" fill="#9754dd" /><circle cx="216.2" cy="304.4" r="4" fill="#9754dd" /><circle cx="223.4" cy="304.4" r="4" fill="#9754dd" /><circle cx="230.6" cy="304.4" r="4" fill="#9754dd" /><circle cx="237.7" cy="304.4" r="4" fill="#9754dd" /><circle cx="244.9" cy="304.4" r="4" fill="#9754dd" /><circle cx="252.1" cy="304.4" r="4" fill="#9754dd" /><circle cx="259.2" cy="304.4" r="4" fill="#9754dd" /><circle cx="266.4" cy="304.4" r="4" fill="#9754dd" /><circle cx="273.6" cy="304.4" r="4" fill="#9754dd" /><circle cx="280.8" cy="299.1" r="4" fill="#9754dd" /><circle cx="287.9" cy="299.1" r="4" fill="#9754dd" /><circle cx="295.1" cy="299.1" r="4" fill="#9754dd" /><circle cx="302.3" cy="298.9" r="4" fill="#9754dd" /><circle cx="309.4" cy="295.6" r="4" fill="#9754dd" /><circle cx="316.6" cy="295.6" r="4" fill="#9754dd" /><circle cx="323.8" cy="295.6" r="4" fill="#9754dd" /><circle cx="330.9" cy="295.6" r="4" fill="#9754dd" /><circle cx="338.1" cy="295.6" r="4" fill="#9754dd" /><circle cx="345.3" cy="295.6" r="4" fill="#9754dd" /><circle cx="352.5" cy="295.6" r="4" fill="#9754dd" /><circle cx="359.6" cy="295.6" r="4" fill="#9754dd" /><circle cx="366.8" cy="295.6" r="4" fill="#9754dd" /><circle cx="374.0" cy="295.8" r="4" fill="#9754dd" /><circle cx="381.1" cy="295.9" r="4" fill="#9754dd" /><circle cx="388.3" cy="295.9" r="4" fill="#9754dd" /><circle cx="395.5" cy="295.9" r="4" fill="#9754dd" /><circle cx="402.6" cy="295.9" r="4" fill="#9754dd" /><circle cx="409.8" cy="295.9" r="4" fill="#9754dd" /><circle cx="417.0" cy="295.9" r="4" fill="#9754dd" /><circle cx="424.2" cy="295.9" r="4" fill="#9754dd" /><circle cx="431.3" cy="295.9" r="4" fill="#9754dd" /><circle cx="438.5" cy="295.9" r="4" fill="#9754dd" /><circle cx="445.7" cy="295.9" r="4" fill="#9754dd" /><circle cx="452.8" cy="295.9" r="4" fill="#9754dd" /><circle cx="460.0" cy="295.9" r="4" fill="#9754dd" /><circle cx="467.2" cy="295.9" r="4" fill="#9754dd" /><circle cx="474.3" cy="295.9" r="4" fill="#9754dd" /><circle cx="481.5" cy="295.9" r="4" fill="#9754dd" /><circle cx="488.7" cy="295.9" r="4" fill="#9754dd" /><circle cx="495.8" cy="295.8" r="4" fill="#9754dd" /><circle cx="503.0" cy="295.8" r="4" fill="#9754dd" /><circle cx="510.2" cy="295.9" r="4" fill="#9754dd" /><circle cx="517.4" cy="295.9" r="4" fill="#9754dd" /><circle cx="524.5" cy="295.9" r="4" fill="#9754dd" /><circle cx="531.7" cy="295.9" r="4" fill="#9754dd" /><circle cx="538.9" cy="295.9" r="4" fill="#9754dd" /><circle cx="546.0" cy="295.9" r="4" fill="#9754dd" /><circle cx="553.2" cy="295.9" r="4" fill="#9754dd" /><circle cx="560.4" cy="296.0" r="4" fill="#9754dd" /><circle cx="567.5" cy="296.4" r="4" fill="#9754dd" /><circle cx="574.7" cy="296.4" r="4" fill="#9754dd" /><circle cx="581.9" cy="296.4" r="4" fill="#9754dd" /><circle cx="589.1" cy="296.4" r="4" fill="#9754dd" /><circle cx="596.2" cy="296.4" r="4" fill="#9754dd" /><circle cx="603.4" cy="296.4" r="4" fill="#9754dd" /><circle cx="610.6" cy="296.4" r="4" fill="#9754dd" /><circle cx="617.7" cy="296.4" r="4" fill="#9754dd" /><circle cx="624.9" cy="296.4" r="4" fill="#9754dd" /><circle cx="632.1" cy="296.4" r="4" fill="#9754dd" /><circle cx="639.2" cy="296.5" r="4" fill="#9754dd" /><circle cx="646.4" cy="296.5" r="4" fill="#9754dd" /><circle cx="653.6" cy="296.5" r="4" fill="#9754dd" /><circle cx="660.8" cy="296.5" r="4" fill="#9754dd" /><circle cx="667.9" cy="296.5" r="4" fill="#9754dd" /><circle cx="675.1" cy="296.5" r="4" fill="#9754dd" /><circle cx="682.3" cy="296.5" r="4" fill="#9754dd" /><circle cx="689.4" cy="296.5" r="4" fill="#9754dd" /><circle cx="696.6" cy="296.5" r="4" fill="#9754dd" /><circle cx="703.8" cy="296.5" r="4" fill="#9754dd" /><circle cx="710.9" cy="296.5" r="4" fill="#9754dd" /><circle cx="718.1" cy="296.5" r="4" fill="#9754dd" /><circle cx="725.3" cy="296.5" r="4" fill="#9754dd" /><circle cx="732.5" cy="296.5" r="4" fill="#9754dd" /><circle cx="739.6" cy="296.5" r="4" fill="#9754dd" /><circle cx="746.8" cy="296.5" r="4" fill="#9754dd" /><circle cx="754.0" cy="296.5" r="4" fill="#9754dd" /><circle cx="761.1" cy="296.5" r="4" fill="#9754dd" /><circle cx="768.3" cy="296.5" r="4" fill="#9754dd" /><circle cx="775.5" cy="296.5" r="4" fill="#9754dd" /><circle cx="782.6" cy="296.5" r="4" fill="#9754dd" /><circle cx="789.8" cy="296.5" r="4" fill="#9754dd" /><circle cx="797.0" cy="296.5" r="4" fill="#9754dd" /><circle cx="804.2" cy="296.5" r="4" fill="#9754dd" /><circle cx="811.3" cy="296.5" r="4" fill="#9754dd" /><circle cx="818.5" cy="295.0" r="4" fill="#9754dd" /><circle cx="825.7" cy="295.0" r="4" fill="#9754dd" /><circle cx="832.8" cy="295.0" r="4" fill="#9754dd" /><circle cx="840.0" cy="295.1" r="4" fill="#9754dd" />
  <rect x="80" y="339" width="10" height="10" rx="2" ry="2" fill="#19e5a1" /><text x="96" y="348" class="legend-label">Stars</text><rect x="250" y="339" width="10" height="10" rx="2" ry="2" fill="#6eb6ec" /><text x="266" y="348" class="legend-label">Followers</text><rect x="420" y="339" width="10" height="10" rx="2" ry="2" fill="#5938e2" /><text x="436" y="348" class="legend-label">Following</text><rect x="590" y="339" width="10" height="10" rx="2" ry="2" fill="#60e5e0" /><text x="606" y="348" class="legend-label">Contributions</text><rect x="80" y="357" width="10" height="10" rx="2" ry="2" fill="#567de1" /><text x="96" y="366" class="legend-label">Pull Requests</text><rect x="250" y="357" width="10" height="10" rx="2" ry="2" fill="#9754dd" /><text x="266" y="366" class="legend-label">Issues</text>
</svg>
