<svg width="900" height="402" viewBox="0 0 900 402" xmlns="http://www.w3.org/2000/svg">
  <defs>
    <linearGradient id="history-gradient" x1="0%" y1="0%" x2="100%" y2="100%">
      <stop offset="0%" style="stop-color:#58a6ff;stop-opacity:1" />
      <stop offset="100%" style="stop-color:#a371f7;stop-opacity:1" />
    </linearGradient>
    <clipPath id="history-rounded">
      <rect x="0" y="0" width="900" height="402" rx="8" ry="8" />
    </clipPath>
  </defs>
  <style>
    .title {
      font-family: 'Segoe UI', Ubuntu, 'Helvetica Neue', sans-serif;
      font-size: 22px;
      font-weight: 700;
      fill: #58a6ff;
    }
    .subtitle {
      font-family: 'Segoe UI', Ubuntu, 'Helvetica Neue', sans-serif;
      font-size: 12px;
      font-weight: 500;
      fill: #8b949e;
    }
    .axis-label {
      font-family: 'Segoe UI', Ubuntu, 'Helvetica Neue', sans-serif;
      font-size: 10px;
      fill: #8b949e;
    }
    .grid-line {
      stroke: #30363d;
      stroke-width: 1;
      opacity: 0.3;
    }
    .legend-label {
      font-family: 'Segoe UI', Ubuntu, 'Helvetica Neue', sans-serif;
      font-size: 11px;
      fill: #c9d1d9;
      dominant-baseline: middle;
    }
  </style>
  <rect clip-path="url(#history-rounded)" width="100%" height="100%" fill="#0d1117" stroke="#30363d" stroke-width="1" />
  <rect x="0" y="396" width="900" height="6" fill="url(#history-gradient)" clip-path="url(#history-rounded)" />
  <text x="24" y="34" class="title">Leonardo Klein Stats History</text>
  <text x="24" y="54" class="subtitle">Period: 2026-02-20 to 2026-03-03</text>
  <text x="72" y="320.0" text-anchor="end" dominant-baseline="central" class="axis-label">0</text><text x="72" y="270.0" text-anchor="end" dominant-baseline="central" class="axis-label">400</text><text x="72" y="220.0" text-anchor="end" dominant-baseline="central" class="axis-label">800</text><text x="72" y="170.0" text-anchor="end" dominant-baseline="central" class="axis-label">1.2k</text><text x="72" y="120.0" text-anchor="end" dominant-baseline="central" class="axis-label">1.6k</text><text x="72" y="70.0" text-anchor="end" dominant-baseline="central" class="axis-label">2.0k</text>
  <text x="80.0" y="336" text-anchor="middle" class="axis-label">02-20</text><text x="147.9" y="336" text-anchor="middle" class="axis-label">02-21</text><text x="215.7" y="336" text-anchor="middle" class="axis-label">02-22</text><text x="283.6" y="336" text-anchor="middle" class="axis-label">02-23</text><text x="351.4" y="336" text-anchor="middle" class="axis-label">02-24</text><text x="419.3" y="336" text-anchor="middle" class="axis-label">02-25</text><text x="487.1" y="336" text-anchor="middle" class="axis-label">02-26</text><text x="555.0" y="336" text-anchor="middle" class="axis-label">02-27</text><text x="622.9" y="336" text-anchor="middle" class="axis-label">02-28</text><text x="690.7" y="336" text-anchor="middle" class="axis-label">03-01</text><text x="758.6" y="336" text-anchor="middle" class="axis-label">03-02</text><text x="826.4" y="336" text-anchor="middle" class="axis-label">03-03</text><text x="840.0" y="336" text-anchor="middle" class="axis-label">03-03</text>
  <line x1="80" y1="320.0" x2="840" y2="320.0" class="grid-line" /><line x1="80" y1="270.0" x2="840" y2="270.0" class="grid-line" /><line x1="80" y1="220.0" x2="840" y2="220.0" class="grid-line" /><line x1="80" y1="170.0" x2="840" y2="170.0" class="grid-line" /><line x1="80" y1="120.0" x2="840" y2="120.0" class="grid-line" /><line x1="80" y1="70.0" x2="840" y2="70.0" class="grid-line" />
  <polyline points="80.0,317.0 93.6,317.0 107.1,317.0 120.7,317.0 134.3,317.0 147.9,317.0 161.4,317.0 175.0,317.0 188.6,317.0 202.1,317.0 215.7,317.0 229.3,317.0 242.9,317.0 256.4,317.0 270.0,317.0 283.6,317.0 297.1,317.0 310.7,317.0 324.3,317.0 337.9,317.0 351.4,317.0 365.0,317.0 378.6,317.0 392.1,317.0 405.7,317.0 419.3,317.0 432.9,317.0 446.4,317.0 460.0,317.0 473.6,317.0 487.1,317.0 500.7,317.0 514.3,317.0 527.9,317.0 541.4,317.0 555.0,317.0 568.6,317.0 582.1,317.0 595.7,317.0 609.3,317.0 622.9,317.0 636.4,317.0 650.0,317.0 663.6,317.0 677.1,317.0 690.7,317.0 704.3,317.0 717.9,317.0 731.4,317.0 745.0,317.0 758.6,317.0 772.1,317.0 785.7,317.0 799.3,317.0 812.9,317.0 826.4,317.0 840.0,317.0" fill="none" stroke="#19e5a1" stroke-width="2.5" stroke-linecap="round" stroke-linejoin="round" /><circle cx="80.0" cy="317.0" r="4" fill="#19e5a1" /><circle cx="93.6" cy="317.0" r="4" fill="#19e5a1" /><circle cx="107.1" cy="317.0" r="4" fill="#19e5a1" /><circle cx="120.7" cy="317.0" r="4" fill="#19e5a1" /><circle cx="134.3" cy="317.0" r="4" fill="#19e5a1" /><circle cx="147.9" cy="317.0" r="4" fill="#19e5a1" /><circle cx="161.4" cy="317.0" r="4" fill="#19e5a1" /><circle cx="175.0" cy="317.0" r="4" fill="#19e5a1" /><circle cx="188.6" cy="317.0" r="4" fill="#19e5a1" /><circle cx="202.1" cy="317.0" r="4" fill="#19e5a1" /><circle cx="215.7" cy="317.0" r="4" fill="#19e5a1" /><circle cx="229.3" cy="317.0" r="4" fill="#19e5a1" /><circle cx="242.9" cy="317.0" r="4" fill="#19e5a1" /><circle cx="256.4" cy="317.0" r="4" fill="#19e5a1" /><circle cx="270.0" cy="317.0" r="4" fill="#19e5a1" /><circle cx="283.6" cy="317.0" r="4" fill="#19e5a1" /><circle cx="297.1" cy="317.0" r="4" fill="#19e5a1" /><circle cx="310.7" cy="317.0" r="4" fill="#19e5a1" /><circle cx="324.3" cy="317.0" r="4" fill="#19e5a1" /><circle cx="337.9" cy="317.0" r="4" fill="#19e5a1" /><circle cx="351.4" cy="317.0" r="4" fill="#19e5a1" /><circle cx="365.0" cy="317.0" r="4" fill="#19e5a1" /><circle cx="378.6" cy="317.0" r="4" fill="#19e5a1" /><circle cx="392.1" cy="317.0" r="4" fill="#19e5a1" /><circle cx="405.7" cy="317.0" r="4" fill="#19e5a1" /><circle cx="419.3" cy="317.0" r="4" fill="#19e5a1" /><circle cx="432.9" cy="317.0" r="4" fill="#19e5a1" /><circle cx="446.4" cy="317.0" r="4" fill="#19e5a1" /><circle cx="460.0" cy="317.0" r="4" fill="#19e5a1" /><circle cx="473.6" cy="317.0" r="4" fill="#19e5a1" /><circle cx="487.1" cy="317.0" r="4" fill="#19e5a1" /><circle cx="500.7" cy="317.0" r="4" fill="#19e5a1" /><circle cx="514.3" cy="317.0" r="4" fill="#19e5a1" /><circle cx="527.9" cy="317.0" r="4" fill="#19e5a1" /><circle cx="541.4" cy="317.0" r="4" fill="#19e5a1" /><circle cx="555.0" cy="317.0" r="4" fill="#19e5a1" /><circle cx="568.6" cy="317.0" r="4" fill="#19e5a1" /><circle cx="582.1" cy="317.0" r="4" fill="#19e5a1" /><circle cx="595.7" cy="317.0" r="4" fill="#19e5a1" /><circle cx="609.3" cy="317.0" r="4" fill="#19e5a1" /><circle cx="622.9" cy="317.0" r="4" fill="#19e5a1" /><circle cx="636.4" cy="317.0" r="4" fill="#19e5a1" /><circle cx="650.0" cy="317.0" r="4" fill="#19e5a1" /><circle cx="663.6" cy="317.0" r="4" fill="#19e5a1" /><circle cx="677.1" cy="317.0" r="4" fill="#19e5a1" /><circle cx="690.7" cy="317.0" r="4" fill="#19e5a1" /><circle cx="704.3" cy="317.0" r="4" fill="#19e5a1" /><circle cx="717.9" cy="317.0" r="4" fill="#19e5a1" /><circle cx="731.4" cy="317.0" r="4" fill="#19e5a1" /><circle cx="745.0" cy="317.0" r="4" fill="#19e5a1" /><circle cx="758.6" cy="317.0" r="4" fill="#19e5a1" /><circle cx="772.1" cy="317.0" r="4" fill="#19e5a1" /><circle cx="785.7" cy="317.0" r="4" fill="#19e5a1" /><circle cx="799.3" cy="317.0" r="4" fill="#19e5a1" /><circle cx="812.9" cy="317.0" r="4" fill="#19e5a1" /><circle cx="826.4" cy="317.0" r="4" fill="#19e5a1" /><circle cx="840.0" cy="317.0" r="4" fill="#19e5a1" /><polyline points="80.0,313.2 93.6,312.2 107.1,312.1 120.7,312.4 134.3,312.4 147.9,312.4 161.4,312.1 175.0,312.0 188.6,311.9 202.1,311.9 215.7,311.8 229.3,311.8 242.9,311.5 256.4,311.5 270.0,311.5 283.6,311.2 297.1,311.2 310.7,311.1 324.3,311.1 337.9,311.1 351.4,310.9 365.0,311.0 378.6,310.8 392.1,310.8 405.7,310.8 419.3,310.8 432.9,310.4 446.4,310.2 460.0,310.4 473.6,310.4 487.1,310.4 500.7,310.4 514.3,310.4 527.9,310.2 541.4,310.2 555.0,310.1 568.6,310.1 582.1,309.8 595.7,309.6 609.3,309.6 622.9,309.6 636.4,309.6 650.0,309.5 663.6,309.4 677.1,309.4 690.7,309.4 704.3,309.4 717.9,309.2 731.4,309.2 745.0,309.2 758.6,309.4 772.1,309.4 785.7,309.5 799.3,309.2 812.9,309.2 826.4,309.4 840.0,309.2" fill="none" stroke="#6eb6ec" stroke-width="2.5" stroke-linecap="round" stroke-linejoin="round" /><circle cx="80.0" cy="313.2" r="4" fill="#6eb6ec" /><circle cx="93.6" cy="312.2" r="4" fill="#6eb6ec" /><circle cx="107.1" cy="312.1" r="4" fill="#6eb6ec" /><circle cx="120.7" cy="312.4" r="4" fill="#6eb6ec" /><circle cx="134.3" cy="312.4" r="4" fill="#6eb6ec" /><circle cx="147.9" cy="312.4" r="4" fill="#6eb6ec" /><circle cx="161.4" cy="312.1" r="4" fill="#6eb6ec" /><circle cx="175.0" cy="312.0" r="4" fill="#6eb6ec" /><circle cx="188.6" cy="311.9" r="4" fill="#6eb6ec" /><circle cx="202.1" cy="311.9" r="4" fill="#6eb6ec" /><circle cx="215.7" cy="311.8" r="4" fill="#6eb6ec" /><circle cx="229.3" cy="311.8" r="4" fill="#6eb6ec" /><circle cx="242.9" cy="311.5" r="4" fill="#6eb6ec" /><circle cx="256.4" cy="311.5" r="4" fill="#6eb6ec" /><circle cx="270.0" cy="311.5" r="4" fill="#6eb6ec" /><circle cx="283.6" cy="311.2" r="4" fill="#6eb6ec" /><circle cx="297.1" cy="311.2" r="4" fill="#6eb6ec" /><circle cx="310.7" cy="311.1" r="4" fill="#6eb6ec" /><circle cx="324.3" cy="311.1" r="4" fill="#6eb6ec" /><circle cx="337.9" cy="311.1" r="4" fill="#6eb6ec" /><circle cx="351.4" cy="310.9" r="4" fill="#6eb6ec" /><circle cx="365.0" cy="311.0" r="4" fill="#6eb6ec" /><circle cx="378.6" cy="310.8" r="4" fill="#6eb6ec" /><circle cx="392.1" cy="310.8" r="4" fill="#6eb6ec" /><circle cx="405.7" cy="310.8" r="4" fill="#6eb6ec" /><circle cx="419.3" cy="310.8" r="4" fill="#6eb6ec" /><circle cx="432.9" cy="310.4" r="4" fill="#6eb6ec" /><circle cx="446.4" cy="310.2" r="4" fill="#6eb6ec" /><circle cx="460.0" cy="310.4" r="4" fill="#6eb6ec" /><circle cx="473.6" cy="310.4" r="4" fill="#6eb6ec" /><circle cx="487.1" cy="310.4" r="4" fill="#6eb6ec" /><circle cx="500.7" cy="310.4" r="4" fill="#6eb6ec" /><circle cx="514.3" cy="310.4" r="4" fill="#6eb6ec" /><circle cx="527.9" cy="310.2" r="4" fill="#6eb6ec" /><circle cx="541.4" cy="310.2" r="4" fill="#6eb6ec" /><circle cx="555.0" cy="310.1" r="4" fill="#6eb6ec" /><circle cx="568.6" cy="310.1" r="4" fill="#6eb6ec" /><circle cx="582.1" cy="309.8" r="4" fill="#6eb6ec" /><circle cx="595.7" cy="309.6" r="4" fill="#6eb6ec" /><circle cx="609.3" cy="309.6" r="4" fill="#6eb6ec" /><circle cx="622.9" cy="309.6" r="4" fill="#6eb6ec" /><circle cx="636.4" cy="309.6" r="4" fill="#6eb6ec" /><circle cx="650.0" cy="309.5" r="4" fill="#6eb6ec" /><circle cx="663.6" cy="309.4" r="4" fill="#6eb6ec" /><circle cx="677.1" cy="309.4" r="4" fill="#6eb6ec" /><circle cx="690.7" cy="309.4" r="4" fill="#6eb6ec" /><circle cx="704.3" cy="309.4" r="4" fill="#6eb6ec" /><circle cx="717.9" cy="309.2" r="4" fill="#6eb6ec" /><circle cx="731.4" cy="309.2" r="4" fill="#6eb6ec" /><circle cx="745.0" cy="309.2" r="4" fill="#6eb6ec" /><circle cx="758.6" cy="309.4" r="4" fill="#6eb6ec" /><circle cx="772.1" cy="309.4" r="4" fill="#6eb6ec" /><circle cx="785.7" cy="309.5" r="4" fill="#6eb6ec" /><circle cx="799.3" cy="309.2" r="4" fill="#6eb6ec" /><circle cx="812.9" cy="309.2" r="4" fill="#6eb6ec" /><circle cx="826.4" cy="309.4" r="4" fill="#6eb6ec" /><circle cx="840.0" cy="309.2" r="4" fill="#6eb6ec" /><polyline points="80.0,305.8 93.6,305.8 107.1,305.8 120.7,305.8 134.3,305.8 147.9,305.8 161.4,305.8 175.0,305.8 188.6,305.8 202.1,305.8 215.7,304.9 229.3,304.9 242.9,304.9 256.4,304.9 270.0,304.9 283.6,304.9 297.1,304.9 310.7,304.9 324.3,304.9 337.9,304.9 351.4,304.9 365.0,304.9 378.6,304.9 392.1,304.9 405.7,304.9 419.3,304.9 432.9,304.9 446.4,304.9 460.0,304.9 473.6,304.9 487.1,304.9 500.7,304.9 514.3,304.9 527.9,304.9 541.4,304.9 555.0,304.9 568.6,304.9 582.1,303.6 595.7,303.6 609.3,303.6 622.9,303.6 636.4,303.6 650.0,303.6 663.6,303.6 677.1,303.6 690.7,303.6 704.3,303.6 717.9,303.6 731.4,303.6 745.0,303.6 758.6,303.6 772.1,302.9 785.7,302.9 799.3,298.0 812.9,298.0 826.4,298.0 840.0,298.0" fill="none" stroke="#5938e2" stroke-width="2.5" stroke-linecap="round" stroke-linejoin="round" /><circle cx="80.0" cy="305.8" r="4" fill="#5938e2" /><circle cx="93.6" cy="305.8" r="4" fill="#5938e2" /><circle cx="107.1" cy="305.8" r="4" fill="#5938e2" /><circle cx="120.7" cy="305.8" r="4" fill="#5938e2" /><circle cx="134.3" cy="305.8" r="4" fill="#5938e2" /><circle cx="147.9" cy="305.8" r="4" fill="#5938e2" /><circle cx="161.4" cy="305.8" r="4" fill="#5938e2" /><circle cx="175.0" cy="305.8" r="4" fill="#5938e2" /><circle cx="188.6" cy="305.8" r="4" fill="#5938e2" /><circle cx="202.1" cy="305.8" r="4" fill="#5938e2" /><circle cx="215.7" cy="304.9" r="4" fill="#5938e2" /><circle cx="229.3" cy="304.9" r="4" fill="#5938e2" /><circle cx="242.9" cy="304.9" r="4" fill="#5938e2" /><circle cx="256.4" cy="304.9" r="4" fill="#5938e2" /><circle cx="270.0" cy="304.9" r="4" fill="#5938e2" /><circle cx="283.6" cy="304.9" r="4" fill="#5938e2" /><circle cx="297.1" cy="304.9" r="4" fill="#5938e2" /><circle cx="310.7" cy="304.9" r="4" fill="#5938e2" /><circle cx="324.3" cy="304.9" r="4" fill="#5938e2" /><circle cx="337.9" cy="304.9" r="4" fill="#5938e2" /><circle cx="351.4" cy="304.9" r="4" fill="#5938e2" /><circle cx="365.0" cy="304.9" r="4" fill="#5938e2" /><circle cx="378.6" cy="304.9" r="4" fill="#5938e2" /><circle cx="392.1" cy="304.9" r="4" fill="#5938e2" /><circle cx="405.7" cy="304.9" r="4" fill="#5938e2" /><circle cx="419.3" cy="304.9" r="4" fill="#5938e2" /><circle cx="432.9" cy="304.9" r="4" fill="#5938e2" /><circle cx="446.4" cy="304.9" r="4" fill="#5938e2" /><circle cx="460.0" cy="304.9" r="4" fill="#5938e2" /><circle cx="473.6" cy="304.9" r="4" fill="#5938e2" /><circle cx="487.1" cy="304.9" r="4" fill="#5938e2" /><circle cx="500.7" cy="304.9" r="4" fill="#5938e2" /><circle cx="514.3" cy="304.9" r="4" fill="#5938e2" /><circle cx="527.9" cy="304.9" r="4" fill="#5938e2" /><circle cx="541.4" cy="304.9" r="4" fill="#5938e2" /><circle cx="555.0" cy="304.9" r="4" fill="#5938e2" /><circle cx="568.6" cy="304.9" r="4" fill="#5938e2" /><circle cx="582.1" cy="303.6" r="4" fill="#5938e2" /><circle cx="595.7" cy="303.6" r="4" fill="#5938e2" /><circle cx="609.3" cy="303.6" r="4" fill="#5938e2" /><circle cx="622.9" cy="303.6" r="4" fill="#5938e2" /><circle cx="636.4" cy="303.6" r="4" fill="#5938e2" /><circle cx="650.0" cy="303.6" r="4" fill="#5938e2" /><circle cx="663.6" cy="303.6" r="4" fill="#5938e2" /><circle cx="677.1" cy="303.6" r="4" fill="#5938e2" /><circle cx="690.7" cy="303.6" r="4" fill="#5938e2" /><circle cx="704.3" cy="303.6" r="4" fill="#5938e2" /><circle cx="717.9" cy="303.6" r="4" fill="#5938e2" /><circle cx="731.4" cy="303.6" r="4" fill="#5938e2" /><circle cx="745.0" cy="303.6" r="4" fill="#5938e2" /><circle cx="758.6" cy="303.6" r="4" fill="#5938e2" /><circle cx="772.1" cy="302.9" r="4" fill="#5938e2" /><circle cx="785.7" cy="302.9" r="4" fill="#5938e2" /><circle cx="799.3" cy="298.0" r="4" fill="#5938e2" /><circle cx="812.9" cy="298.0" r="4" fill="#5938e2" /><circle cx="826.4" cy="298.0" r="4" fill="#5938e2" /><circle cx="840.0" cy="298.0" r="4" fill="#5938e2" /><polyline points="80.0,144.6 93.6,140.1 107.1,139.9 120.7,139.8 134.3,139.8 147.9,139.6 161.4,139.6 175.0,139.6 188.6,139.6 202.1,139.6 215.7,138.4 229.3,138.4 242.9,138.4 256.4,138.4 270.0,138.4 283.6,138.4 297.1,138.4 310.7,137.4 324.3,137.4 337.9,137.4 351.4,137.4 365.0,137.4 378.6,137.4 392.1,137.4 405.7,137.4 419.3,137.4 432.9,137.4 446.4,137.4 460.0,131.2 473.6,131.2 487.1,130.8 500.7,130.4 514.3,126.9 527.9,126.9 541.4,126.9 555.0,126.9 568.6,126.9 582.1,126.9 595.7,126.9 609.3,126.9 622.9,126.9 636.4,126.8 650.0,122.1 663.6,120.4 677.1,120.4 690.7,120.4 704.3,120.4 717.9,120.4 731.4,119.4 745.0,119.4 758.6,119.4 772.1,119.4 785.7,119.1 799.3,118.8 812.9,118.8 826.4,117.8 840.0,117.8" fill="none" stroke="#60e5e0" stroke-width="2.5" stroke-linecap="round" stroke-linejoin="round" /><circle cx="80.0" cy="144.6" r="4" fill="#60e5e0" /><circle cx="93.6" cy="140.1" r="4" fill="#60e5e0" /><circle cx="107.1" cy="139.9" r="4" fill="#60e5e0" /><circle cx="120.7" cy="139.8" r="4" fill="#60e5e0" /><circle cx="134.3" cy="139.8" r="4" fill="#60e5e0" /><circle cx="147.9" cy="139.6" r="4" fill="#60e5e0" /><circle cx="161.4" cy="139.6" r="4" fill="#60e5e0" /><circle cx="175.0" cy="139.6" r="4" fill="#60e5e0" /><circle cx="188.6" cy="139.6" r="4" fill="#60e5e0" /><circle cx="202.1" cy="139.6" r="4" fill="#60e5e0" /><circle cx="215.7" cy="138.4" r="4" fill="#60e5e0" /><circle cx="229.3" cy="138.4" r="4" fill="#60e5e0" /><circle cx="242.9" cy="138.4" r="4" fill="#60e5e0" /><circle cx="256.4" cy="138.4" r="4" fill="#60e5e0" /><circle cx="270.0" cy="138.4" r="4" fill="#60e5e0" /><circle cx="283.6" cy="138.4" r="4" fill="#60e5e0" /><circle cx="297.1" cy="138.4" r="4" fill="#60e5e0" /><circle cx="310.7" cy="137.4" r="4" fill="#60e5e0" /><circle cx="324.3" cy="137.4" r="4" fill="#60e5e0" /><circle cx="337.9" cy="137.4" r="4" fill="#60e5e0" /><circle cx="351.4" cy="137.4" r="4" fill="#60e5e0" /><circle cx="365.0" cy="137.4" r="4" fill="#60e5e0" /><circle cx="378.6" cy="137.4" r="4" fill="#60e5e0" /><circle cx="392.1" cy="137.4" r="4" fill="#60e5e0" /><circle cx="405.7" cy="137.4" r="4" fill="#60e5e0" /><circle cx="419.3" cy="137.4" r="4" fill="#60e5e0" /><circle cx="432.9" cy="137.4" r="4" fill="#60e5e0" /><circle cx="446.4" cy="137.4" r="4" fill="#60e5e0" /><circle cx="460.0" cy="131.2" r="4" fill="#60e5e0" /><circle cx="473.6" cy="131.2" r="4" fill="#60e5e0" /><circle cx="487.1" cy="130.8" r="4" fill="#60e5e0" /><circle cx="500.7" cy="130.4" r="4" fill="#60e5e0" /><circle cx="514.3" cy="126.9" r="4" fill="#60e5e0" /><circle cx="527.9" cy="126.9" r="4" fill="#60e5e0" /><circle cx="541.4" cy="126.9" r="4" fill="#60e5e0" /><circle cx="555.0" cy="126.9" r="4" fill="#60e5e0" /><circle cx="568.6" cy="126.9" r="4" fill="#60e5e0" /><circle cx="582.1" cy="126.9" r="4" fill="#60e5e0" /><circle cx="595.7" cy="126.9" r="4" fill="#60e5e0" /><circle cx="609.3" cy="126.9" r="4" fill="#60e5e0" /><circle cx="622.9" cy="126.9" r="4" fill="#60e5e0" /><circle cx="636.4" cy="126.8" r="4" fill="#60e5e0" /><circle cx="650.0" cy="122.1" r="4" fill="#60e5e0" /><circle cx="663.6" cy="120.4" r="4" fill="#60e5e0" /><circle cx="677.1" cy="120.4" r="4" fill="#60e5e0" /><circle cx="690.7" cy="120.4" r="4" fill="#60e5e0" /><circle cx="704.3" cy="120.4" r="4" fill="#60e5e0" /><circle cx="717.9" cy="120.4" r="4" fill="#60e5e0" /><circle cx="731.4" cy="119.4" r="4" fill="#60e5e0" /><circle cx="745.0" cy="119.4" r="4" fill="#60e5e0" /><circle cx="758.6" cy="119.4" r="4" fill="#60e5e0" /><circle cx="772.1" cy="119.4" r="4" fill="#60e5e0" /><circle cx="785.7" cy="119.1" r="4" fill="#60e5e0" /><circle cx="799.3" cy="118.8" r="4" fill="#60e5e0" /><circle cx="812.9" cy="118.8" r="4" fill="#60e5e0" /><circle cx="826.4" cy="117.8" r="4" fill="#60e5e0" /><circle cx="840.0" cy="117.8" r="4" fill="#60e5e0" /><polyline points="80.0,314.6 93.6,314.4 107.1,314.2 120.7,314.2 134.3,314.2 147.9,314.1 161.4,314.1 175.0,314.1 188.6,314.1 202.1,314.1 215.7,314.0 229.3,314.0 242.9,314.0 256.4,314.0 270.0,314.0 283.6,314.0 297.1,314.0 310.7,314.0 324.3,314.0 337.9,314.0 351.4,314.0 365.0,314.0 378.6,314.0 392.1,314.0 405.7,314.0 419.3,314.0 432.9,314.0 446.4,314.0 460.0,314.0 473.6,314.0 487.1,314.0 500.7,314.0 514.3,314.0 527.9,314.0 541.4,314.0 555.0,314.0 568.6,314.0 582.1,314.0 595.7,314.0 609.3,314.0 622.9,314.0 636.4,313.9 650.0,313.6 663.6,313.4 677.1,313.4 690.7,313.4 704.3,313.4 717.9,313.4 731.4,313.1 745.0,313.1 758.6,313.1 772.1,313.1 785.7,313.1 799.3,313.0 812.9,313.0 826.4,312.9 840.0,312.9" fill="none" stroke="#567de1" stroke-width="2.5" stroke-linecap="round" stroke-linejoin="round" /><circle cx="80.0" cy="314.6" r="4" fill="#567de1" /><circle cx="93.6" cy="314.4" r="4" fill="#567de1" /><circle cx="107.1" cy="314.2" r="4" fill="#567de1" /><circle cx="120.7" cy="314.2" r="4" fill="#567de1" /><circle cx="134.3" cy="314.2" r="4" fill="#567de1" /><circle cx="147.9" cy="314.1" r="4" fill="#567de1" /><circle cx="161.4" cy="314.1" r="4" fill="#567de1" /><circle cx="175.0" cy="314.1" r="4" fill="#567de1" /><circle cx="188.6" cy="314.1" r="4" fill="#567de1" /><circle cx="202.1" cy="314.1" r="4" fill="#567de1" /><circle cx="215.7" cy="314.0" r="4" fill="#567de1" /><circle cx="229.3" cy="314.0" r="4" fill="#567de1" /><circle cx="242.9" cy="314.0" r="4" fill="#567de1" /><circle cx="256.4" cy="314.0" r="4" fill="#567de1" /><circle cx="270.0" cy="314.0" r="4" fill="#567de1" /><circle cx="283.6" cy="314.0" r="4" fill="#567de1" /><circle cx="297.1" cy="314.0" r="4" fill="#567de1" /><circle cx="310.7" cy="314.0" r="4" fill="#567de1" /><circle cx="324.3" cy="314.0" r="4" fill="#567de1" /><circle cx="337.9" cy="314.0" r="4" fill="#567de1" /><circle cx="351.4" cy="314.0" r="4" fill="#567de1" /><circle cx="365.0" cy="314.0" r="4" fill="#567de1" /><circle cx="378.6" cy="314.0" r="4" fill="#567de1" /><circle cx="392.1" cy="314.0" r="4" fill="#567de1" /><circle cx="405.7" cy="314.0" r="4" fill="#567de1" /><circle cx="419.3" cy="314.0" r="4" fill="#567de1" /><circle cx="432.9" cy="314.0" r="4" fill="#567de1" /><circle cx="446.4" cy="314.0" r="4" fill="#567de1" /><circle cx="460.0" cy="314.0" r="4" fill="#567de1" /><circle cx="473.6" cy="314.0" r="4" fill="#567de1" /><circle cx="487.1" cy="314.0" r="4" fill="#567de1" /><circle cx="500.7" cy="314.0" r="4" fill="#567de1" /><circle cx="514.3" cy="314.0" r="4" fill="#567de1" /><circle cx="527.9" cy="314.0" r="4" fill="#567de1" /><circle cx="541.4" cy="314.0" r="4" fill="#567de1" /><circle cx="555.0" cy="314.0" r="4" fill="#567de1" /><circle cx="568.6" cy="314.0" r="4" fill="#567de1" /><circle cx="582.1" cy="314.0" r="4" fill="#567de1" /><circle cx="595.7" cy="314.0" r="4" fill="#567de1" /><circle cx="609.3" cy="314.0" r="4" fill="#567de1" /><circle cx="622.9" cy="314.0" r="4" fill="#567de1" /><circle cx="636.4" cy="313.9" r="4" fill="#567de1" /><circle cx="650.0" cy="313.6" r="4" fill="#567de1" /><circle cx="663.6" cy="313.4" r="4" fill="#567de1" /><circle cx="677.1" cy="313.4" r="4" fill="#567de1" /><circle cx="690.7" cy="313.4" r="4" fill="#567de1" /><circle cx="704.3" cy="313.4" r="4" fill="#567de1" /><circle cx="717.9" cy="313.4" r="4" fill="#567de1" /><circle cx="731.4" cy="313.1" r="4" fill="#567de1" /><circle cx="745.0" cy="313.1" r="4" fill="#567de1" /><circle cx="758.6" cy="313.1" r="4" fill="#567de1" /><circle cx="772.1" cy="313.1" r="4" fill="#567de1" /><circle cx="785.7" cy="313.1" r="4" fill="#567de1" /><circle cx="799.3" cy="313.0" r="4" fill="#567de1" /><circle cx="812.9" cy="313.0" r="4" fill="#567de1" /><circle cx="826.4" cy="312.9" r="4" fill="#567de1" /><circle cx="840.0" cy="312.9" r="4" fill="#567de1" /><polyline points="80.0,303.9 93.6,304.2 107.1,304.4 120.7,304.4 134.3,304.4 147.9,304.4 161.4,304.4 175.0,304.4 188.6,304.4 202.1,304.4 215.7,304.4 229.3,304.4 242.9,304.4 256.4,304.4 270.0,304.4 283.6,304.4 297.1,304.4 310.7,304.4 324.3,304.4 337.9,304.4 351.4,304.4 365.0,304.4 378.6,304.4 392.1,304.4 405.7,304.4 419.3,304.4 432.9,304.4 446.4,304.4 460.0,299.1 473.6,299.1 487.1,299.1 500.7,298.9 514.3,295.6 527.9,295.6 541.4,295.6 555.0,295.6 568.6,295.6 582.1,295.6 595.7,295.6 609.3,295.6 622.9,295.6 636.4,295.8 650.0,295.9 663.6,295.9 677.1,295.9 690.7,295.9 704.3,295.9 717.9,295.9 731.4,295.9 745.0,295.9 758.6,295.9 772.1,295.9 785.7,295.9 799.3,295.9 812.9,295.9 826.4,295.9 840.0,295.9" fill="none" stroke="#9754dd" stroke-width="2.5" stroke-linecap="round" stroke-linejoin="round" /><circle cx="80.0" cy="303.9" r="4" fill="#9754dd" /><circle cx="93.6" cy="304.2" r="4" fill="#9754dd" /><circle cx="107.1" cy="304.4" r="4" fill="#9754dd" /><circle cx="120.7" cy="304.4" r="4" fill="#9754dd" /><circle cx="134.3" cy="304.4" r="4" fill="#9754dd" /><circle cx="147.9" cy="304.4" r="4" fill="#9754dd" /><circle cx="161.4" cy="304.4" r="4" fill="#9754dd" /><circle cx="175.0" cy="304.4" r="4" fill="#9754dd" /><circle cx="188.6" cy="304.4" r="4" fill="#9754dd" /><circle cx="202.1" cy="304.4" r="4" fill="#9754dd" /><circle cx="215.7" cy="304.4" r="4" fill="#9754dd" /><circle cx="229.3" cy="304.4" r="4" fill="#9754dd" /><circle cx="242.9" cy="304.4" r="4" fill="#9754dd" /><circle cx="256.4" cy="304.4" r="4" fill="#9754dd" /><circle cx="270.0" cy="304.4" r="4" fill="#9754dd" /><circle cx="283.6" cy="304.4" r="4" fill="#9754dd" /><circle cx="297.1" cy="304.4" r="4" fill="#9754dd" /><circle cx="310.7" cy="304.4" r="4" fill="#9754dd" /><circle cx="324.3" cy="304.4" r="4" fill="#9754dd" /><circle cx="337.9" cy="304.4" r="4" fill="#9754dd" /><circle cx="351.4" cy="304.4" r="4" fill="#9754dd" /><circle cx="365.0" cy="304.4" r="4" fill="#9754dd" /><circle cx="378.6" cy="304.4" r="4" fill="#9754dd" /><circle cx="392.1" cy="304.4" r="4" fill="#9754dd" /><circle cx="405.7" cy="304.4" r="4" fill="#9754dd" /><circle cx="419.3" cy="304.4" r="4" fill="#9754dd" /><circle cx="432.9" cy="304.4" r="4" fill="#9754dd" /><circle cx="446.4" cy="304.4" r="4" fill="#9754dd" /><circle cx="460.0" cy="299.1" r="4" fill="#9754dd" /><circle cx="473.6" cy="299.1" r="4" fill="#9754dd" /><circle cx="487.1" cy="299.1" r="4" fill="#9754dd" /><circle cx="500.7" cy="298.9" r="4" fill="#9754dd" /><circle cx="514.3" cy="295.6" r="4" fill="#9754dd" /><circle cx="527.9" cy="295.6" r="4" fill="#9754dd" /><circle cx="541.4" cy="295.6" r="4" fill="#9754dd" /><circle cx="555.0" cy="295.6" r="4" fill="#9754dd" /><circle cx="568.6" cy="295.6" r="4" fill="#9754dd" /><circle cx="582.1" cy="295.6" r="4" fill="#9754dd" /><circle cx="595.7" cy="295.6" r="4" fill="#9754dd" /><circle cx="609.3" cy="295.6" r="4" fill="#9754dd" /><circle cx="622.9" cy="295.6" r="4" fill="#9754dd" /><circle cx="636.4" cy="295.8" r="4" fill="#9754dd" /><circle cx="650.0" cy="295.9" r="4" fill="#9754dd" /><circle cx="663.6" cy="295.9" r="4" fill="#9754dd" /><circle cx="677.1" cy="295.9" r="4" fill="#9754dd" /><circle cx="690.7" cy="295.9" r="4" fill="#9754dd" /><circle cx="704.3" cy="295.9" r="4" fill="#9754dd" /><circle cx="717.9" cy="295.9" r="4" fill="#9754dd" /><circle cx="731.4" cy="295.9" r="4" fill="#9754dd" /><circle cx="745.0" cy="295.9" r="4" fill="#9754dd" /><circle cx="758.6" cy="295.9" r="4" fill="#9754dd" /><circle cx="772.1" cy="295.9" r="4" fill="#9754dd" /><circle cx="785.7" cy="295.9" r="4" fill="#9754dd" /><circle cx="799.3" cy="295.9" r="4" fill="#9754dd" /><circle cx="812.9" cy="295.9" r="4" fill="#9754dd" /><circle cx="826.4" cy="295.9" r="4" fill="#9754dd" /><circle cx="840.0" cy="295.9" r="4" fill="#9754dd" />
  <rect x="80" y="339" width="10" height="10" rx="2" ry="2" fill="#19e5a1" /><text x="96" y="348" class="legend-label">Stars</text><rect x="250" y="339" width="10" height="10" rx="2" ry="2" fill="#6eb6ec" /><text x="266" y="348" class="legend-label">Followers</text><rect x="420" y="339" width="10" height="10" rx="2" ry="2" fill="#5938e2" /><text x="436" y="348" class="legend-label">Following</text><rect x="590" y="339" width="10" height="10" rx="2" ry="2" fill="#60e5e0" /><text x="606" y="348" class="legend-label">Contributions</text><rect x="80" y="357" width="10" height="10" rx="2" ry="2" fill="#567de1" /><text x="96" y="366" class="legend-label">Pull Requests</text><rect x="250" y="357" width="10" height="10" rx="2" ry="2" fill="#9754dd" /><text x="266" y="366" class="legend-label">Issues</text>
</svg>
