<svg width="900" height="402" viewBox="0 0 900 402" xmlns="http://www.w3.org/2000/svg">
  <defs>
    <linearGradient id="history-gradient" x1="0%" y1="0%" x2="100%" y2="100%">
      <stop offset="0%" style="stop-color:#58a6ff;stop-opacity:1" />
      <stop offset="100%" style="stop-color:#a371f7;stop-opacity:1" />
    </linearGradient>
    <clipPath id="history-rounded">
      <rect x="0" y="0" width="900" height="402" rx="8" ry="8" />
    </clipPath>
  </defs>
  <style>
    .title {
      font-family: 'Segoe UI', Ubuntu, 'Helvetica Neue', sans-serif;
      font-size: 22px;
      font-weight: 700;
      fill: #58a6ff;
    }
    .subtitle {
      font-family: 'Segoe UI', Ubuntu, 'Helvetica Neue', sans-serif;
      font-size: 12px;
      font-weight: 500;
      fill: #8b949e;
    }
    .axis-label {
      font-family: 'Segoe UI', Ubuntu, 'Helvetica Neue', sans-serif;
      font-size: 10px;
      fill: #8b949e;
    }
    .grid-line {
      stroke: #30363d;
      stroke-width: 1;
      opacity: 0.3;
    }
    .legend-label {
      font-family: 'Segoe UI', Ubuntu, 'Helvetica Neue', sans-serif;
      font-size: 11px;
      fill: #c9d1d9;
      dominant-baseline: middle;
    }
  </style>
  <rect clip-path="url(#history-rounded)" width="100%" height="100%" fill="#0d1117" stroke="#30363d" stroke-width="1" />
  <rect x="0" y="396" width="900" height="6" fill="url(#history-gradient)" clip-path="url(#history-rounded)" />
  <text x="24" y="34" class="title">Leonardo Klein Stats History</text>
  <text x="24" y="54" class="subtitle">Period: 2026-02-20 to 2026-02-26</text>
  <text x="72" y="320.0" text-anchor="end" dominant-baseline="central" class="axis-label">0</text><text x="72" y="270.0" text-anchor="end" dominant-baseline="central" class="axis-label">400</text><text x="72" y="220.0" text-anchor="end" dominant-baseline="central" class="axis-label">800</text><text x="72" y="170.0" text-anchor="end" dominant-baseline="central" class="axis-label">1.2k</text><text x="72" y="120.0" text-anchor="end" dominant-baseline="central" class="axis-label">1.6k</text><text x="72" y="70.0" text-anchor="end" dominant-baseline="central" class="axis-label">2.0k</text>
  <text x="80.0" y="336" text-anchor="middle" class="axis-label">02-20</text><text x="153.5" y="336" text-anchor="middle" class="axis-label">02-21</text><text x="227.1" y="336" text-anchor="middle" class="axis-label">02-21</text><text x="300.6" y="336" text-anchor="middle" class="axis-label">02-22</text><text x="374.2" y="336" text-anchor="middle" class="axis-label">02-22</text><text x="447.7" y="336" text-anchor="middle" class="axis-label">02-23</text><text x="521.3" y="336" text-anchor="middle" class="axis-label">02-24</text><text x="594.8" y="336" text-anchor="middle" class="axis-label">02-24</text><text x="668.4" y="336" text-anchor="middle" class="axis-label">02-25</text><text x="741.9" y="336" text-anchor="middle" class="axis-label">02-25</text><text x="815.5" y="336" text-anchor="middle" class="axis-label">02-26</text><text x="840.0" y="336" text-anchor="middle" class="axis-label">02-26</text>
  <line x1="80" y1="320.0" x2="840" y2="320.0" class="grid-line" /><line x1="80" y1="270.0" x2="840" y2="270.0" class="grid-line" /><line x1="80" y1="220.0" x2="840" y2="220.0" class="grid-line" /><line x1="80" y1="170.0" x2="840" y2="170.0" class="grid-line" /><line x1="80" y1="120.0" x2="840" y2="120.0" class="grid-line" /><line x1="80" y1="70.0" x2="840" y2="70.0" class="grid-line" />
  <polyline points="80.0,317.0 104.5,317.0 129.0,317.0 153.5,317.0 178.1,317.0 202.6,317.0 227.1,317.0 251.6,317.0 276.1,317.0 300.6,317.0 325.2,317.0 349.7,317.0 374.2,317.0 398.7,317.0 423.2,317.0 447.7,317.0 472.3,317.0 496.8,317.0 521.3,317.0 545.8,317.0 570.3,317.0 594.8,317.0 619.4,317.0 643.9,317.0 668.4,317.0 692.9,317.0 717.4,317.0 741.9,317.0 766.5,317.0 791.0,317.0 815.5,317.0 840.0,317.0" fill="none" stroke="#19e5a1" stroke-width="2.5" stroke-linecap="round" stroke-linejoin="round" /><circle cx="80.0" cy="317.0" r="4" fill="#19e5a1" /><circle cx="104.5" cy="317.0" r="4" fill="#19e5a1" /><circle cx="129.0" cy="317.0" r="4" fill="#19e5a1" /><circle cx="153.5" cy="317.0" r="4" fill="#19e5a1" /><circle cx="178.1" cy="317.0" r="4" fill="#19e5a1" /><circle cx="202.6" cy="317.0" r="4" fill="#19e5a1" /><circle cx="227.1" cy="317.0" r="4" fill="#19e5a1" /><circle cx="251.6" cy="317.0" r="4" fill="#19e5a1" /><circle cx="276.1" cy="317.0" r="4" fill="#19e5a1" /><circle cx="300.6" cy="317.0" r="4" fill="#19e5a1" /><circle cx="325.2" cy="317.0" r="4" fill="#19e5a1" /><circle cx="349.7" cy="317.0" r="4" fill="#19e5a1" /><circle cx="374.2" cy="317.0" r="4" fill="#19e5a1" /><circle cx="398.7" cy="317.0" r="4" fill="#19e5a1" /><circle cx="423.2" cy="317.0" r="4" fill="#19e5a1" /><circle cx="447.7" cy="317.0" r="4" fill="#19e5a1" /><circle cx="472.3" cy="317.0" r="4" fill="#19e5a1" /><circle cx="496.8" cy="317.0" r="4" fill="#19e5a1" /><circle cx="521.3" cy="317.0" r="4" fill="#19e5a1" /><circle cx="545.8" cy="317.0" r="4" fill="#19e5a1" /><circle cx="570.3" cy="317.0" r="4" fill="#19e5a1" /><circle cx="594.8" cy="317.0" r="4" fill="#19e5a1" /><circle cx="619.4" cy="317.0" r="4" fill="#19e5a1" /><circle cx="643.9" cy="317.0" r="4" fill="#19e5a1" /><circle cx="668.4" cy="317.0" r="4" fill="#19e5a1" /><circle cx="692.9" cy="317.0" r="4" fill="#19e5a1" /><circle cx="717.4" cy="317.0" r="4" fill="#19e5a1" /><circle cx="741.9" cy="317.0" r="4" fill="#19e5a1" /><circle cx="766.5" cy="317.0" r="4" fill="#19e5a1" /><circle cx="791.0" cy="317.0" r="4" fill="#19e5a1" /><circle cx="815.5" cy="317.0" r="4" fill="#19e5a1" /><circle cx="840.0" cy="317.0" r="4" fill="#19e5a1" /><polyline points="80.0,313.2 104.5,312.2 129.0,312.1 153.5,312.4 178.1,312.4 202.6,312.4 227.1,312.1 251.6,312.0 276.1,311.9 300.6,311.9 325.2,311.8 349.7,311.8 374.2,311.5 398.7,311.5 423.2,311.5 447.7,311.2 472.3,311.2 496.8,311.1 521.3,311.1 545.8,311.1 570.3,310.9 594.8,311.0 619.4,310.8 643.9,310.8 668.4,310.8 692.9,310.8 717.4,310.4 741.9,310.2 766.5,310.4 791.0,310.4 815.5,310.4 840.0,310.4" fill="none" stroke="#6eb6ec" stroke-width="2.5" stroke-linecap="round" stroke-linejoin="round" /><circle cx="80.0" cy="313.2" r="4" fill="#6eb6ec" /><circle cx="104.5" cy="312.2" r="4" fill="#6eb6ec" /><circle cx="129.0" cy="312.1" r="4" fill="#6eb6ec" /><circle cx="153.5" cy="312.4" r="4" fill="#6eb6ec" /><circle cx="178.1" cy="312.4" r="4" fill="#6eb6ec" /><circle cx="202.6" cy="312.4" r="4" fill="#6eb6ec" /><circle cx="227.1" cy="312.1" r="4" fill="#6eb6ec" /><circle cx="251.6" cy="312.0" r="4" fill="#6eb6ec" /><circle cx="276.1" cy="311.9" r="4" fill="#6eb6ec" /><circle cx="300.6" cy="311.9" r="4" fill="#6eb6ec" /><circle cx="325.2" cy="311.8" r="4" fill="#6eb6ec" /><circle cx="349.7" cy="311.8" r="4" fill="#6eb6ec" /><circle cx="374.2" cy="311.5" r="4" fill="#6eb6ec" /><circle cx="398.7" cy="311.5" r="4" fill="#6eb6ec" /><circle cx="423.2" cy="311.5" r="4" fill="#6eb6ec" /><circle cx="447.7" cy="311.2" r="4" fill="#6eb6ec" /><circle cx="472.3" cy="311.2" r="4" fill="#6eb6ec" /><circle cx="496.8" cy="311.1" r="4" fill="#6eb6ec" /><circle cx="521.3" cy="311.1" r="4" fill="#6eb6ec" /><circle cx="545.8" cy="311.1" r="4" fill="#6eb6ec" /><circle cx="570.3" cy="310.9" r="4" fill="#6eb6ec" /><circle cx="594.8" cy="311.0" r="4" fill="#6eb6ec" /><circle cx="619.4" cy="310.8" r="4" fill="#6eb6ec" /><circle cx="643.9" cy="310.8" r="4" fill="#6eb6ec" /><circle cx="668.4" cy="310.8" r="4" fill="#6eb6ec" /><circle cx="692.9" cy="310.8" r="4" fill="#6eb6ec" /><circle cx="717.4" cy="310.4" r="4" fill="#6eb6ec" /><circle cx="741.9" cy="310.2" r="4" fill="#6eb6ec" /><circle cx="766.5" cy="310.4" r="4" fill="#6eb6ec" /><circle cx="791.0" cy="310.4" r="4" fill="#6eb6ec" /><circle cx="815.5" cy="310.4" r="4" fill="#6eb6ec" /><circle cx="840.0" cy="310.4" r="4" fill="#6eb6ec" /><polyline points="80.0,305.8 104.5,305.8 129.0,305.8 153.5,305.8 178.1,305.8 202.6,305.8 227.1,305.8 251.6,305.8 276.1,305.8 300.6,305.8 325.2,304.9 349.7,304.9 374.2,304.9 398.7,304.9 423.2,304.9 447.7,304.9 472.3,304.9 496.8,304.9 521.3,304.9 545.8,304.9 570.3,304.9 594.8,304.9 619.4,304.9 643.9,304.9 668.4,304.9 692.9,304.9 717.4,304.9 741.9,304.9 766.5,304.9 791.0,304.9 815.5,304.9 840.0,304.9" fill="none" stroke="#5938e2" stroke-width="2.5" stroke-linecap="round" stroke-linejoin="round" /><circle cx="80.0" cy="305.8" r="4" fill="#5938e2" /><circle cx="104.5" cy="305.8" r="4" fill="#5938e2" /><circle cx="129.0" cy="305.8" r="4" fill="#5938e2" /><circle cx="153.5" cy="305.8" r="4" fill="#5938e2" /><circle cx="178.1" cy="305.8" r="4" fill="#5938e2" /><circle cx="202.6" cy="305.8" r="4" fill="#5938e2" /><circle cx="227.1" cy="305.8" r="4" fill="#5938e2" /><circle cx="251.6" cy="305.8" r="4" fill="#5938e2" /><circle cx="276.1" cy="305.8" r="4" fill="#5938e2" /><circle cx="300.6" cy="305.8" r="4" fill="#5938e2" /><circle cx="325.2" cy="304.9" r="4" fill="#5938e2" /><circle cx="349.7" cy="304.9" r="4" fill="#5938e2" /><circle cx="374.2" cy="304.9" r="4" fill="#5938e2" /><circle cx="398.7" cy="304.9" r="4" fill="#5938e2" /><circle cx="423.2" cy="304.9" r="4" fill="#5938e2" /><circle cx="447.7" cy="304.9" r="4" fill="#5938e2" /><circle cx="472.3" cy="304.9" r="4" fill="#5938e2" /><circle cx="496.8" cy="304.9" r="4" fill="#5938e2" /><circle cx="521.3" cy="304.9" r="4" fill="#5938e2" /><circle cx="545.8" cy="304.9" r="4" fill="#5938e2" /><circle cx="570.3" cy="304.9" r="4" fill="#5938e2" /><circle cx="594.8" cy="304.9" r="4" fill="#5938e2" /><circle cx="619.4" cy="304.9" r="4" fill="#5938e2" /><circle cx="643.9" cy="304.9" r="4" fill="#5938e2" /><circle cx="668.4" cy="304.9" r="4" fill="#5938e2" /><circle cx="692.9" cy="304.9" r="4" fill="#5938e2" /><circle cx="717.4" cy="304.9" r="4" fill="#5938e2" /><circle cx="741.9" cy="304.9" r="4" fill="#5938e2" /><circle cx="766.5" cy="304.9" r="4" fill="#5938e2" /><circle cx="791.0" cy="304.9" r="4" fill="#5938e2" /><circle cx="815.5" cy="304.9" r="4" fill="#5938e2" /><circle cx="840.0" cy="304.9" r="4" fill="#5938e2" /><polyline points="80.0,144.6 104.5,140.1 129.0,139.9 153.5,139.8 178.1,139.8 202.6,139.6 227.1,139.6 251.6,139.6 276.1,139.6 300.6,139.6 325.2,138.4 349.7,138.4 374.2,138.4 398.7,138.4 423.2,138.4 447.7,138.4 472.3,138.4 496.8,137.4 521.3,137.4 545.8,137.4 570.3,137.4 594.8,137.4 619.4,137.4 643.9,137.4 668.4,137.4 692.9,137.4 717.4,137.4 741.9,137.4 766.5,131.2 791.0,131.2 815.5,130.8 840.0,130.4" fill="none" stroke="#60e5e0" stroke-width="2.5" stroke-linecap="round" stroke-linejoin="round" /><circle cx="80.0" cy="144.6" r="4" fill="#60e5e0" /><circle cx="104.5" cy="140.1" r="4" fill="#60e5e0" /><circle cx="129.0" cy="139.9" r="4" fill="#60e5e0" /><circle cx="153.5" cy="139.8" r="4" fill="#60e5e0" /><circle cx="178.1" cy="139.8" r="4" fill="#60e5e0" /><circle cx="202.6" cy="139.6" r="4" fill="#60e5e0" /><circle cx="227.1" cy="139.6" r="4" fill="#60e5e0" /><circle cx="251.6" cy="139.6" r="4" fill="#60e5e0" /><circle cx="276.1" cy="139.6" r="4" fill="#60e5e0" /><circle cx="300.6" cy="139.6" r="4" fill="#60e5e0" /><circle cx="325.2" cy="138.4" r="4" fill="#60e5e0" /><circle cx="349.7" cy="138.4" r="4" fill="#60e5e0" /><circle cx="374.2" cy="138.4" r="4" fill="#60e5e0" /><circle cx="398.7" cy="138.4" r="4" fill="#60e5e0" /><circle cx="423.2" cy="138.4" r="4" fill="#60e5e0" /><circle cx="447.7" cy="138.4" r="4" fill="#60e5e0" /><circle cx="472.3" cy="138.4" r="4" fill="#60e5e0" /><circle cx="496.8" cy="137.4" r="4" fill="#60e5e0" /><circle cx="521.3" cy="137.4" r="4" fill="#60e5e0" /><circle cx="545.8" cy="137.4" r="4" fill="#60e5e0" /><circle cx="570.3" cy="137.4" r="4" fill="#60e5e0" /><circle cx="594.8" cy="137.4" r="4" fill="#60e5e0" /><circle cx="619.4" cy="137.4" r="4" fill="#60e5e0" /><circle cx="643.9" cy="137.4" r="4" fill="#60e5e0" /><circle cx="668.4" cy="137.4" r="4" fill="#60e5e0" /><circle cx="692.9" cy="137.4" r="4" fill="#60e5e0" /><circle cx="717.4" cy="137.4" r="4" fill="#60e5e0" /><circle cx="741.9" cy="137.4" r="4" fill="#60e5e0" /><circle cx="766.5" cy="131.2" r="4" fill="#60e5e0" /><circle cx="791.0" cy="131.2" r="4" fill="#60e5e0" /><circle cx="815.5" cy="130.8" r="4" fill="#60e5e0" /><circle cx="840.0" cy="130.4" r="4" fill="#60e5e0" /><polyline points="80.0,314.6 104.5,314.4 129.0,314.2 153.5,314.2 178.1,314.2 202.6,314.1 227.1,314.1 251.6,314.1 276.1,314.1 300.6,314.1 325.2,314.0 349.7,314.0 374.2,314.0 398.7,314.0 423.2,314.0 447.7,314.0 472.3,314.0 496.8,314.0 521.3,314.0 545.8,314.0 570.3,314.0 594.8,314.0 619.4,314.0 643.9,314.0 668.4,314.0 692.9,314.0 717.4,314.0 741.9,314.0 766.5,314.0 791.0,314.0 815.5,314.0 840.0,314.0" fill="none" stroke="#567de1" stroke-width="2.5" stroke-linecap="round" stroke-linejoin="round" /><circle cx="80.0" cy="314.6" r="4" fill="#567de1" /><circle cx="104.5" cy="314.4" r="4" fill="#567de1" /><circle cx="129.0" cy="314.2" r="4" fill="#567de1" /><circle cx="153.5" cy="314.2" r="4" fill="#567de1" /><circle cx="178.1" cy="314.2" r="4" fill="#567de1" /><circle cx="202.6" cy="314.1" r="4" fill="#567de1" /><circle cx="227.1" cy="314.1" r="4" fill="#567de1" /><circle cx="251.6" cy="314.1" r="4" fill="#567de1" /><circle cx="276.1" cy="314.1" r="4" fill="#567de1" /><circle cx="300.6" cy="314.1" r="4" fill="#567de1" /><circle cx="325.2" cy="314.0" r="4" fill="#567de1" /><circle cx="349.7" cy="314.0" r="4" fill="#567de1" /><circle cx="374.2" cy="314.0" r="4" fill="#567de1" /><circle cx="398.7" cy="314.0" r="4" fill="#567de1" /><circle cx="423.2" cy="314.0" r="4" fill="#567de1" /><circle cx="447.7" cy="314.0" r="4" fill="#567de1" /><circle cx="472.3" cy="314.0" r="4" fill="#567de1" /><circle cx="496.8" cy="314.0" r="4" fill="#567de1" /><circle cx="521.3" cy="314.0" r="4" fill="#567de1" /><circle cx="545.8" cy="314.0" r="4" fill="#567de1" /><circle cx="570.3" cy="314.0" r="4" fill="#567de1" /><circle cx="594.8" cy="314.0" r="4" fill="#567de1" /><circle cx="619.4" cy="314.0" r="4" fill="#567de1" /><circle cx="643.9" cy="314.0" r="4" fill="#567de1" /><circle cx="668.4" cy="314.0" r="4" fill="#567de1" /><circle cx="692.9" cy="314.0" r="4" fill="#567de1" /><circle cx="717.4" cy="314.0" r="4" fill="#567de1" /><circle cx="741.9" cy="314.0" r="4" fill="#567de1" /><circle cx="766.5" cy="314.0" r="4" fill="#567de1" /><circle cx="791.0" cy="314.0" r="4" fill="#567de1" /><circle cx="815.5" cy="314.0" r="4" fill="#567de1" /><circle cx="840.0" cy="314.0" r="4" fill="#567de1" /><polyline points="80.0,303.9 104.5,304.2 129.0,304.4 153.5,304.4 178.1,304.4 202.6,304.4 227.1,304.4 251.6,304.4 276.1,304.4 300.6,304.4 325.2,304.4 349.7,304.4 374.2,304.4 398.7,304.4 423.2,304.4 447.7,304.4 472.3,304.4 496.8,304.4 521.3,304.4 545.8,304.4 570.3,304.4 594.8,304.4 619.4,304.4 643.9,304.4 668.4,304.4 692.9,304.4 717.4,304.4 741.9,304.4 766.5,299.1 791.0,299.1 815.5,299.1 840.0,298.9" fill="none" stroke="#9754dd" stroke-width="2.5" stroke-linecap="round" stroke-linejoin="round" /><circle cx="80.0" cy="303.9" r="4" fill="#9754dd" /><circle cx="104.5" cy="304.2" r="4" fill="#9754dd" /><circle cx="129.0" cy="304.4" r="4" fill="#9754dd" /><circle cx="153.5" cy="304.4" r="4" fill="#9754dd" /><circle cx="178.1" cy="304.4" r="4" fill="#9754dd" /><circle cx="202.6" cy="304.4" r="4" fill="#9754dd" /><circle cx="227.1" cy="304.4" r="4" fill="#9754dd" /><circle cx="251.6" cy="304.4" r="4" fill="#9754dd" /><circle cx="276.1" cy="304.4" r="4" fill="#9754dd" /><circle cx="300.6" cy="304.4" r="4" fill="#9754dd" /><circle cx="325.2" cy="304.4" r="4" fill="#9754dd" /><circle cx="349.7" cy="304.4" r="4" fill="#9754dd" /><circle cx="374.2" cy="304.4" r="4" fill="#9754dd" /><circle cx="398.7" cy="304.4" r="4" fill="#9754dd" /><circle cx="423.2" cy="304.4" r="4" fill="#9754dd" /><circle cx="447.7" cy="304.4" r="4" fill="#9754dd" /><circle cx="472.3" cy="304.4" r="4" fill="#9754dd" /><circle cx="496.8" cy="304.4" r="4" fill="#9754dd" /><circle cx="521.3" cy="304.4" r="4" fill="#9754dd" /><circle cx="545.8" cy="304.4" r="4" fill="#9754dd" /><circle cx="570.3" cy="304.4" r="4" fill="#9754dd" /><circle cx="594.8" cy="304.4" r="4" fill="#9754dd" /><circle cx="619.4" cy="304.4" r="4" fill="#9754dd" /><circle cx="643.9" cy="304.4" r="4" fill="#9754dd" /><circle cx="668.4" cy="304.4" r="4" fill="#9754dd" /><circle cx="692.9" cy="304.4" r="4" fill="#9754dd" /><circle cx="717.4" cy="304.4" r="4" fill="#9754dd" /><circle cx="741.9" cy="304.4" r="4" fill="#9754dd" /><circle cx="766.5" cy="299.1" r="4" fill="#9754dd" /><circle cx="791.0" cy="299.1" r="4" fill="#9754dd" /><circle cx="815.5" cy="299.1" r="4" fill="#9754dd" /><circle cx="840.0" cy="298.9" r="4" fill="#9754dd" />
  <rect x="80" y="339" width="10" height="10" rx="2" ry="2" fill="#19e5a1" /><text x="96" y="348" class="legend-label">Stars</text><rect x="250" y="339" width="10" height="10" rx="2" ry="2" fill="#6eb6ec" /><text x="266" y="348" class="legend-label">Followers</text><rect x="420" y="339" width="10" height="10" rx="2" ry="2" fill="#5938e2" /><text x="436" y="348" class="legend-label">Following</text><rect x="590" y="339" width="10" height="10" rx="2" ry="2" fill="#60e5e0" /><text x="606" y="348" class="legend-label">Contributions</text><rect x="80" y="357" width="10" height="10" rx="2" ry="2" fill="#567de1" /><text x="96" y="366" class="legend-label">Pull Requests</text><rect x="250" y="357" width="10" height="10" rx="2" ry="2" fill="#9754dd" /><text x="266" y="366" class="legend-label">Issues</text>
</svg>
