<svg width="900" height="402" viewBox="0 0 900 402" xmlns="http://www.w3.org/2000/svg">
  <defs>
    <linearGradient id="history-gradient" x1="0%" y1="0%" x2="100%" y2="100%">
      <stop offset="0%" style="stop-color:#58a6ff;stop-opacity:1" />
      <stop offset="100%" style="stop-color:#a371f7;stop-opacity:1" />
    </linearGradient>
    <clipPath id="history-rounded">
      <rect x="0" y="0" width="900" height="402" rx="8" ry="8" />
    </clipPath>
  </defs>
  <style>
    .title {
      font-family: 'Segoe UI', Ubuntu, 'Helvetica Neue', sans-serif;
      font-size: 22px;
      font-weight: 700;
      fill: #58a6ff;
    }
    .subtitle {
      font-family: 'Segoe UI', Ubuntu, 'Helvetica Neue', sans-serif;
      font-size: 12px;
      font-weight: 500;
      fill: #8b949e;
    }
    .axis-label {
      font-family: 'Segoe UI', Ubuntu, 'Helvetica Neue', sans-serif;
      font-size: 10px;
      fill: #8b949e;
    }
    .grid-line {
      stroke: #30363d;
      stroke-width: 1;
      opacity: 0.3;
    }
    .legend-label {
      font-family: 'Segoe UI', Ubuntu, 'Helvetica Neue', sans-serif;
      font-size: 11px;
      fill: #c9d1d9;
      dominant-baseline: middle;
    }
  </style>
  <rect clip-path="url(#history-rounded)" width="100%" height="100%" fill="#0d1117" stroke="#30363d" stroke-width="1" />
  <rect x="0" y="396" width="900" height="6" fill="url(#history-gradient)" clip-path="url(#history-rounded)" />
  <text x="24" y="34" class="title">Leonardo Klein Stats History</text>
  <text x="24" y="54" class="subtitle">Period: 2026-02-20 to 2026-02-26</text>
  <text x="72" y="320.0" text-anchor="end" dominant-baseline="central" class="axis-label">0</text><text x="72" y="270.0" text-anchor="end" dominant-baseline="central" class="axis-label">400</text><text x="72" y="220.0" text-anchor="end" dominant-baseline="central" class="axis-label">800</text><text x="72" y="170.0" text-anchor="end" dominant-baseline="central" class="axis-label">1.2k</text><text x="72" y="120.0" text-anchor="end" dominant-baseline="central" class="axis-label">1.6k</text><text x="72" y="70.0" text-anchor="end" dominant-baseline="central" class="axis-label">2.0k</text>
  <text x="80.0" y="336" text-anchor="middle" class="axis-label">02-20</text><text x="134.3" y="336" text-anchor="middle" class="axis-label">02-20</text><text x="188.6" y="336" text-anchor="middle" class="axis-label">02-21</text><text x="242.9" y="336" text-anchor="middle" class="axis-label">02-21</text><text x="297.1" y="336" text-anchor="middle" class="axis-label">02-22</text><text x="351.4" y="336" text-anchor="middle" class="axis-label">02-22</text><text x="405.7" y="336" text-anchor="middle" class="axis-label">02-22</text><text x="460.0" y="336" text-anchor="middle" class="axis-label">02-23</text><text x="514.3" y="336" text-anchor="middle" class="axis-label">02-23</text><text x="568.6" y="336" text-anchor="middle" class="axis-label">02-24</text><text x="622.9" y="336" text-anchor="middle" class="axis-label">02-24</text><text x="677.1" y="336" text-anchor="middle" class="axis-label">02-24</text><text x="731.4" y="336" text-anchor="middle" class="axis-label">02-25</text><text x="785.7" y="336" text-anchor="middle" class="axis-label">02-25</text><text x="840.0" y="336" text-anchor="middle" class="axis-label">02-26</text>
  <line x1="80" y1="320.0" x2="840" y2="320.0" class="grid-line" /><line x1="80" y1="270.0" x2="840" y2="270.0" class="grid-line" /><line x1="80" y1="220.0" x2="840" y2="220.0" class="grid-line" /><line x1="80" y1="170.0" x2="840" y2="170.0" class="grid-line" /><line x1="80" y1="120.0" x2="840" y2="120.0" class="grid-line" /><line x1="80" y1="70.0" x2="840" y2="70.0" class="grid-line" />
  <polyline points="80.0,317.0 107.1,317.0 134.3,317.0 161.4,317.0 188.6,317.0 215.7,317.0 242.9,317.0 270.0,317.0 297.1,317.0 324.3,317.0 351.4,317.0 378.6,317.0 405.7,317.0 432.9,317.0 460.0,317.0 487.1,317.0 514.3,317.0 541.4,317.0 568.6,317.0 595.7,317.0 622.9,317.0 650.0,317.0 677.1,317.0 704.3,317.0 731.4,317.0 758.6,317.0 785.7,317.0 812.9,317.0 840.0,317.0" fill="none" stroke="#19e5a1" stroke-width="2.5" stroke-linecap="round" stroke-linejoin="round" /><circle cx="80.0" cy="317.0" r="4" fill="#19e5a1" /><circle cx="107.1" cy="317.0" r="4" fill="#19e5a1" /><circle cx="134.3" cy="317.0" r="4" fill="#19e5a1" /><circle cx="161.4" cy="317.0" r="4" fill="#19e5a1" /><circle cx="188.6" cy="317.0" r="4" fill="#19e5a1" /><circle cx="215.7" cy="317.0" r="4" fill="#19e5a1" /><circle cx="242.9" cy="317.0" r="4" fill="#19e5a1" /><circle cx="270.0" cy="317.0" r="4" fill="#19e5a1" /><circle cx="297.1" cy="317.0" r="4" fill="#19e5a1" /><circle cx="324.3" cy="317.0" r="4" fill="#19e5a1" /><circle cx="351.4" cy="317.0" r="4" fill="#19e5a1" /><circle cx="378.6" cy="317.0" r="4" fill="#19e5a1" /><circle cx="405.7" cy="317.0" r="4" fill="#19e5a1" /><circle cx="432.9" cy="317.0" r="4" fill="#19e5a1" /><circle cx="460.0" cy="317.0" r="4" fill="#19e5a1" /><circle cx="487.1" cy="317.0" r="4" fill="#19e5a1" /><circle cx="514.3" cy="317.0" r="4" fill="#19e5a1" /><circle cx="541.4" cy="317.0" r="4" fill="#19e5a1" /><circle cx="568.6" cy="317.0" r="4" fill="#19e5a1" /><circle cx="595.7" cy="317.0" r="4" fill="#19e5a1" /><circle cx="622.9" cy="317.0" r="4" fill="#19e5a1" /><circle cx="650.0" cy="317.0" r="4" fill="#19e5a1" /><circle cx="677.1" cy="317.0" r="4" fill="#19e5a1" /><circle cx="704.3" cy="317.0" r="4" fill="#19e5a1" /><circle cx="731.4" cy="317.0" r="4" fill="#19e5a1" /><circle cx="758.6" cy="317.0" r="4" fill="#19e5a1" /><circle cx="785.7" cy="317.0" r="4" fill="#19e5a1" /><circle cx="812.9" cy="317.0" r="4" fill="#19e5a1" /><circle cx="840.0" cy="317.0" r="4" fill="#19e5a1" /><polyline points="80.0,313.2 107.1,312.2 134.3,312.1 161.4,312.4 188.6,312.4 215.7,312.4 242.9,312.1 270.0,312.0 297.1,311.9 324.3,311.9 351.4,311.8 378.6,311.8 405.7,311.5 432.9,311.5 460.0,311.5 487.1,311.2 514.3,311.2 541.4,311.1 568.6,311.1 595.7,311.1 622.9,310.9 650.0,311.0 677.1,310.8 704.3,310.8 731.4,310.8 758.6,310.8 785.7,310.4 812.9,310.2 840.0,310.4" fill="none" stroke="#6eb6ec" stroke-width="2.5" stroke-linecap="round" stroke-linejoin="round" /><circle cx="80.0" cy="313.2" r="4" fill="#6eb6ec" /><circle cx="107.1" cy="312.2" r="4" fill="#6eb6ec" /><circle cx="134.3" cy="312.1" r="4" fill="#6eb6ec" /><circle cx="161.4" cy="312.4" r="4" fill="#6eb6ec" /><circle cx="188.6" cy="312.4" r="4" fill="#6eb6ec" /><circle cx="215.7" cy="312.4" r="4" fill="#6eb6ec" /><circle cx="242.9" cy="312.1" r="4" fill="#6eb6ec" /><circle cx="270.0" cy="312.0" r="4" fill="#6eb6ec" /><circle cx="297.1" cy="311.9" r="4" fill="#6eb6ec" /><circle cx="324.3" cy="311.9" r="4" fill="#6eb6ec" /><circle cx="351.4" cy="311.8" r="4" fill="#6eb6ec" /><circle cx="378.6" cy="311.8" r="4" fill="#6eb6ec" /><circle cx="405.7" cy="311.5" r="4" fill="#6eb6ec" /><circle cx="432.9" cy="311.5" r="4" fill="#6eb6ec" /><circle cx="460.0" cy="311.5" r="4" fill="#6eb6ec" /><circle cx="487.1" cy="311.2" r="4" fill="#6eb6ec" /><circle cx="514.3" cy="311.2" r="4" fill="#6eb6ec" /><circle cx="541.4" cy="311.1" r="4" fill="#6eb6ec" /><circle cx="568.6" cy="311.1" r="4" fill="#6eb6ec" /><circle cx="595.7" cy="311.1" r="4" fill="#6eb6ec" /><circle cx="622.9" cy="310.9" r="4" fill="#6eb6ec" /><circle cx="650.0" cy="311.0" r="4" fill="#6eb6ec" /><circle cx="677.1" cy="310.8" r="4" fill="#6eb6ec" /><circle cx="704.3" cy="310.8" r="4" fill="#6eb6ec" /><circle cx="731.4" cy="310.8" r="4" fill="#6eb6ec" /><circle cx="758.6" cy="310.8" r="4" fill="#6eb6ec" /><circle cx="785.7" cy="310.4" r="4" fill="#6eb6ec" /><circle cx="812.9" cy="310.2" r="4" fill="#6eb6ec" /><circle cx="840.0" cy="310.4" r="4" fill="#6eb6ec" /><polyline points="80.0,305.8 107.1,305.8 134.3,305.8 161.4,305.8 188.6,305.8 215.7,305.8 242.9,305.8 270.0,305.8 297.1,305.8 324.3,305.8 351.4,304.9 378.6,304.9 405.7,304.9 432.9,304.9 460.0,304.9 487.1,304.9 514.3,304.9 541.4,304.9 568.6,304.9 595.7,304.9 622.9,304.9 650.0,304.9 677.1,304.9 704.3,304.9 731.4,304.9 758.6,304.9 785.7,304.9 812.9,304.9 840.0,304.9" fill="none" stroke="#5938e2" stroke-width="2.5" stroke-linecap="round" stroke-linejoin="round" /><circle cx="80.0" cy="305.8" r="4" fill="#5938e2" /><circle cx="107.1" cy="305.8" r="4" fill="#5938e2" /><circle cx="134.3" cy="305.8" r="4" fill="#5938e2" /><circle cx="161.4" cy="305.8" r="4" fill="#5938e2" /><circle cx="188.6" cy="305.8" r="4" fill="#5938e2" /><circle cx="215.7" cy="305.8" r="4" fill="#5938e2" /><circle cx="242.9" cy="305.8" r="4" fill="#5938e2" /><circle cx="270.0" cy="305.8" r="4" fill="#5938e2" /><circle cx="297.1" cy="305.8" r="4" fill="#5938e2" /><circle cx="324.3" cy="305.8" r="4" fill="#5938e2" /><circle cx="351.4" cy="304.9" r="4" fill="#5938e2" /><circle cx="378.6" cy="304.9" r="4" fill="#5938e2" /><circle cx="405.7" cy="304.9" r="4" fill="#5938e2" /><circle cx="432.9" cy="304.9" r="4" fill="#5938e2" /><circle cx="460.0" cy="304.9" r="4" fill="#5938e2" /><circle cx="487.1" cy="304.9" r="4" fill="#5938e2" /><circle cx="514.3" cy="304.9" r="4" fill="#5938e2" /><circle cx="541.4" cy="304.9" r="4" fill="#5938e2" /><circle cx="568.6" cy="304.9" r="4" fill="#5938e2" /><circle cx="595.7" cy="304.9" r="4" fill="#5938e2" /><circle cx="622.9" cy="304.9" r="4" fill="#5938e2" /><circle cx="650.0" cy="304.9" r="4" fill="#5938e2" /><circle cx="677.1" cy="304.9" r="4" fill="#5938e2" /><circle cx="704.3" cy="304.9" r="4" fill="#5938e2" /><circle cx="731.4" cy="304.9" r="4" fill="#5938e2" /><circle cx="758.6" cy="304.9" r="4" fill="#5938e2" /><circle cx="785.7" cy="304.9" r="4" fill="#5938e2" /><circle cx="812.9" cy="304.9" r="4" fill="#5938e2" /><circle cx="840.0" cy="304.9" r="4" fill="#5938e2" /><polyline points="80.0,144.6 107.1,140.1 134.3,139.9 161.4,139.8 188.6,139.8 215.7,139.6 242.9,139.6 270.0,139.6 297.1,139.6 324.3,139.6 351.4,138.4 378.6,138.4 405.7,138.4 432.9,138.4 460.0,138.4 487.1,138.4 514.3,138.4 541.4,137.4 568.6,137.4 595.7,137.4 622.9,137.4 650.0,137.4 677.1,137.4 704.3,137.4 731.4,137.4 758.6,137.4 785.7,137.4 812.9,137.4 840.0,131.2" fill="none" stroke="#60e5e0" stroke-width="2.5" stroke-linecap="round" stroke-linejoin="round" /><circle cx="80.0" cy="144.6" r="4" fill="#60e5e0" /><circle cx="107.1" cy="140.1" r="4" fill="#60e5e0" /><circle cx="134.3" cy="139.9" r="4" fill="#60e5e0" /><circle cx="161.4" cy="139.8" r="4" fill="#60e5e0" /><circle cx="188.6" cy="139.8" r="4" fill="#60e5e0" /><circle cx="215.7" cy="139.6" r="4" fill="#60e5e0" /><circle cx="242.9" cy="139.6" r="4" fill="#60e5e0" /><circle cx="270.0" cy="139.6" r="4" fill="#60e5e0" /><circle cx="297.1" cy="139.6" r="4" fill="#60e5e0" /><circle cx="324.3" cy="139.6" r="4" fill="#60e5e0" /><circle cx="351.4" cy="138.4" r="4" fill="#60e5e0" /><circle cx="378.6" cy="138.4" r="4" fill="#60e5e0" /><circle cx="405.7" cy="138.4" r="4" fill="#60e5e0" /><circle cx="432.9" cy="138.4" r="4" fill="#60e5e0" /><circle cx="460.0" cy="138.4" r="4" fill="#60e5e0" /><circle cx="487.1" cy="138.4" r="4" fill="#60e5e0" /><circle cx="514.3" cy="138.4" r="4" fill="#60e5e0" /><circle cx="541.4" cy="137.4" r="4" fill="#60e5e0" /><circle cx="568.6" cy="137.4" r="4" fill="#60e5e0" /><circle cx="595.7" cy="137.4" r="4" fill="#60e5e0" /><circle cx="622.9" cy="137.4" r="4" fill="#60e5e0" /><circle cx="650.0" cy="137.4" r="4" fill="#60e5e0" /><circle cx="677.1" cy="137.4" r="4" fill="#60e5e0" /><circle cx="704.3" cy="137.4" r="4" fill="#60e5e0" /><circle cx="731.4" cy="137.4" r="4" fill="#60e5e0" /><circle cx="758.6" cy="137.4" r="4" fill="#60e5e0" /><circle cx="785.7" cy="137.4" r="4" fill="#60e5e0" /><circle cx="812.9" cy="137.4" r="4" fill="#60e5e0" /><circle cx="840.0" cy="131.2" r="4" fill="#60e5e0" /><polyline points="80.0,314.6 107.1,314.4 134.3,314.2 161.4,314.2 188.6,314.2 215.7,314.1 242.9,314.1 270.0,314.1 297.1,314.1 324.3,314.1 351.4,314.0 378.6,314.0 405.7,314.0 432.9,314.0 460.0,314.0 487.1,314.0 514.3,314.0 541.4,314.0 568.6,314.0 595.7,314.0 622.9,314.0 650.0,314.0 677.1,314.0 704.3,314.0 731.4,314.0 758.6,314.0 785.7,314.0 812.9,314.0 840.0,314.0" fill="none" stroke="#567de1" stroke-width="2.5" stroke-linecap="round" stroke-linejoin="round" /><circle cx="80.0" cy="314.6" r="4" fill="#567de1" /><circle cx="107.1" cy="314.4" r="4" fill="#567de1" /><circle cx="134.3" cy="314.2" r="4" fill="#567de1" /><circle cx="161.4" cy="314.2" r="4" fill="#567de1" /><circle cx="188.6" cy="314.2" r="4" fill="#567de1" /><circle cx="215.7" cy="314.1" r="4" fill="#567de1" /><circle cx="242.9" cy="314.1" r="4" fill="#567de1" /><circle cx="270.0" cy="314.1" r="4" fill="#567de1" /><circle cx="297.1" cy="314.1" r="4" fill="#567de1" /><circle cx="324.3" cy="314.1" r="4" fill="#567de1" /><circle cx="351.4" cy="314.0" r="4" fill="#567de1" /><circle cx="378.6" cy="314.0" r="4" fill="#567de1" /><circle cx="405.7" cy="314.0" r="4" fill="#567de1" /><circle cx="432.9" cy="314.0" r="4" fill="#567de1" /><circle cx="460.0" cy="314.0" r="4" fill="#567de1" /><circle cx="487.1" cy="314.0" r="4" fill="#567de1" /><circle cx="514.3" cy="314.0" r="4" fill="#567de1" /><circle cx="541.4" cy="314.0" r="4" fill="#567de1" /><circle cx="568.6" cy="314.0" r="4" fill="#567de1" /><circle cx="595.7" cy="314.0" r="4" fill="#567de1" /><circle cx="622.9" cy="314.0" r="4" fill="#567de1" /><circle cx="650.0" cy="314.0" r="4" fill="#567de1" /><circle cx="677.1" cy="314.0" r="4" fill="#567de1" /><circle cx="704.3" cy="314.0" r="4" fill="#567de1" /><circle cx="731.4" cy="314.0" r="4" fill="#567de1" /><circle cx="758.6" cy="314.0" r="4" fill="#567de1" /><circle cx="785.7" cy="314.0" r="4" fill="#567de1" /><circle cx="812.9" cy="314.0" r="4" fill="#567de1" /><circle cx="840.0" cy="314.0" r="4" fill="#567de1" /><polyline points="80.0,303.9 107.1,304.2 134.3,304.4 161.4,304.4 188.6,304.4 215.7,304.4 242.9,304.4 270.0,304.4 297.1,304.4 324.3,304.4 351.4,304.4 378.6,304.4 405.7,304.4 432.9,304.4 460.0,304.4 487.1,304.4 514.3,304.4 541.4,304.4 568.6,304.4 595.7,304.4 622.9,304.4 650.0,304.4 677.1,304.4 704.3,304.4 731.4,304.4 758.6,304.4 785.7,304.4 812.9,304.4 840.0,299.1" fill="none" stroke="#9754dd" stroke-width="2.5" stroke-linecap="round" stroke-linejoin="round" /><circle cx="80.0" cy="303.9" r="4" fill="#9754dd" /><circle cx="107.1" cy="304.2" r="4" fill="#9754dd" /><circle cx="134.3" cy="304.4" r="4" fill="#9754dd" /><circle cx="161.4" cy="304.4" r="4" fill="#9754dd" /><circle cx="188.6" cy="304.4" r="4" fill="#9754dd" /><circle cx="215.7" cy="304.4" r="4" fill="#9754dd" /><circle cx="242.9" cy="304.4" r="4" fill="#9754dd" /><circle cx="270.0" cy="304.4" r="4" fill="#9754dd" /><circle cx="297.1" cy="304.4" r="4" fill="#9754dd" /><circle cx="324.3" cy="304.4" r="4" fill="#9754dd" /><circle cx="351.4" cy="304.4" r="4" fill="#9754dd" /><circle cx="378.6" cy="304.4" r="4" fill="#9754dd" /><circle cx="405.7" cy="304.4" r="4" fill="#9754dd" /><circle cx="432.9" cy="304.4" r="4" fill="#9754dd" /><circle cx="460.0" cy="304.4" r="4" fill="#9754dd" /><circle cx="487.1" cy="304.4" r="4" fill="#9754dd" /><circle cx="514.3" cy="304.4" r="4" fill="#9754dd" /><circle cx="541.4" cy="304.4" r="4" fill="#9754dd" /><circle cx="568.6" cy="304.4" r="4" fill="#9754dd" /><circle cx="595.7" cy="304.4" r="4" fill="#9754dd" /><circle cx="622.9" cy="304.4" r="4" fill="#9754dd" /><circle cx="650.0" cy="304.4" r="4" fill="#9754dd" /><circle cx="677.1" cy="304.4" r="4" fill="#9754dd" /><circle cx="704.3" cy="304.4" r="4" fill="#9754dd" /><circle cx="731.4" cy="304.4" r="4" fill="#9754dd" /><circle cx="758.6" cy="304.4" r="4" fill="#9754dd" /><circle cx="785.7" cy="304.4" r="4" fill="#9754dd" /><circle cx="812.9" cy="304.4" r="4" fill="#9754dd" /><circle cx="840.0" cy="299.1" r="4" fill="#9754dd" />
  <rect x="80" y="339" width="10" height="10" rx="2" ry="2" fill="#19e5a1" /><text x="96" y="348" class="legend-label">Stars</text><rect x="250" y="339" width="10" height="10" rx="2" ry="2" fill="#6eb6ec" /><text x="266" y="348" class="legend-label">Followers</text><rect x="420" y="339" width="10" height="10" rx="2" ry="2" fill="#5938e2" /><text x="436" y="348" class="legend-label">Following</text><rect x="590" y="339" width="10" height="10" rx="2" ry="2" fill="#60e5e0" /><text x="606" y="348" class="legend-label">Contributions</text><rect x="80" y="357" width="10" height="10" rx="2" ry="2" fill="#567de1" /><text x="96" y="366" class="legend-label">Pull Requests</text><rect x="250" y="357" width="10" height="10" rx="2" ry="2" fill="#9754dd" /><text x="266" y="366" class="legend-label">Issues</text>
</svg>
