<svg width="900" height="402" viewBox="0 0 900 402" xmlns="http://www.w3.org/2000/svg">
  <defs>
    <linearGradient id="history-gradient" x1="0%" y1="0%" x2="100%" y2="100%">
      <stop offset="0%" style="stop-color:#58a6ff;stop-opacity:1" />
      <stop offset="100%" style="stop-color:#a371f7;stop-opacity:1" />
    </linearGradient>
    <clipPath id="history-rounded">
      <rect x="0" y="0" width="900" height="402" rx="8" ry="8" />
    </clipPath>
  </defs>
  <style>
    .title {
      font-family: 'Segoe UI', Ubuntu, 'Helvetica Neue', sans-serif;
      font-size: 22px;
      font-weight: 700;
      fill: #58a6ff;
    }
    .subtitle {
      font-family: 'Segoe UI', Ubuntu, 'Helvetica Neue', sans-serif;
      font-size: 12px;
      font-weight: 500;
      fill: #8b949e;
    }
    .axis-label {
      font-family: 'Segoe UI', Ubuntu, 'Helvetica Neue', sans-serif;
      font-size: 10px;
      fill: #8b949e;
    }
    .grid-line {
      stroke: #30363d;
      stroke-width: 1;
      opacity: 0.3;
    }
    .legend-label {
      font-family: 'Segoe UI', Ubuntu, 'Helvetica Neue', sans-serif;
      font-size: 11px;
      fill: #c9d1d9;
      dominant-baseline: middle;
    }
  </style>
  <rect clip-path="url(#history-rounded)" width="100%" height="100%" fill="#0d1117" stroke="#30363d" stroke-width="1" />
  <rect x="0" y="396" width="900" height="6" fill="url(#history-gradient)" clip-path="url(#history-rounded)" />
  <text x="24" y="34" class="title">Leonardo Klein Stats History</text>
  <text x="24" y="54" class="subtitle">Period: 2026-02-20 to 2026-03-13</text>
  <text x="72" y="320.0" text-anchor="end" dominant-baseline="central" class="axis-label">0</text><text x="72" y="270.0" text-anchor="end" dominant-baseline="central" class="axis-label">400</text><text x="72" y="220.0" text-anchor="end" dominant-baseline="central" class="axis-label">800</text><text x="72" y="170.0" text-anchor="end" dominant-baseline="central" class="axis-label">1.2k</text><text x="72" y="120.0" text-anchor="end" dominant-baseline="central" class="axis-label">1.6k</text><text x="72" y="70.0" text-anchor="end" dominant-baseline="central" class="axis-label">2.0k</text>
  <text x="80.0" y="336" text-anchor="middle" class="axis-label">02-20</text><text x="153.8" y="336" text-anchor="middle" class="axis-label">02-22</text><text x="227.6" y="336" text-anchor="middle" class="axis-label">02-24</text><text x="301.4" y="336" text-anchor="middle" class="axis-label">02-26</text><text x="375.1" y="336" text-anchor="middle" class="axis-label">02-28</text><text x="448.9" y="336" text-anchor="middle" class="axis-label">03-02</text><text x="522.7" y="336" text-anchor="middle" class="axis-label">03-04</text><text x="596.5" y="336" text-anchor="middle" class="axis-label">03-06</text><text x="670.3" y="336" text-anchor="middle" class="axis-label">03-08</text><text x="744.1" y="336" text-anchor="middle" class="axis-label">03-10</text><text x="817.9" y="336" text-anchor="middle" class="axis-label">03-12</text><text x="840.0" y="336" text-anchor="middle" class="axis-label">03-13</text>
  <line x1="80" y1="320.0" x2="840" y2="320.0" class="grid-line" /><line x1="80" y1="270.0" x2="840" y2="270.0" class="grid-line" /><line x1="80" y1="220.0" x2="840" y2="220.0" class="grid-line" /><line x1="80" y1="170.0" x2="840" y2="170.0" class="grid-line" /><line x1="80" y1="120.0" x2="840" y2="120.0" class="grid-line" /><line x1="80" y1="70.0" x2="840" y2="70.0" class="grid-line" />
  <polyline points="80.0,317.0 87.4,317.0 94.8,317.0 102.1,317.0 109.5,317.0 116.9,317.0 124.3,317.0 131.7,317.0 139.0,317.0 146.4,317.0 153.8,317.0 161.2,317.0 168.5,317.0 175.9,317.0 183.3,317.0 190.7,317.0 198.1,317.0 205.4,317.0 212.8,317.0 220.2,317.0 227.6,317.0 235.0,317.0 242.3,317.0 249.7,317.0 257.1,317.0 264.5,317.0 271.8,317.0 279.2,317.0 286.6,317.0 294.0,317.0 301.4,317.0 308.7,317.0 316.1,317.0 323.5,317.0 330.9,317.0 338.3,317.0 345.6,317.0 353.0,317.0 360.4,317.0 367.8,317.0 375.1,317.0 382.5,317.0 389.9,317.0 397.3,317.0 404.7,317.0 412.0,317.0 419.4,317.0 426.8,317.0 434.2,317.0 441.6,317.0 448.9,317.0 456.3,317.0 463.7,317.0 471.1,317.0 478.4,317.0 485.8,317.0 493.2,317.0 500.6,317.0 508.0,317.0 515.3,317.0 522.7,317.0 530.1,317.0 537.5,317.0 544.9,317.0 552.2,317.0 559.6,317.0 567.0,317.0 574.4,317.0 581.7,317.0 589.1,317.0 596.5,317.0 603.9,317.0 611.3,317.0 618.6,317.0 626.0,317.0 633.4,317.0 640.8,317.0 648.2,317.0 655.5,317.0 662.9,317.0 670.3,317.0 677.7,317.0 685.0,317.0 692.4,317.0 699.8,317.0 707.2,317.0 714.6,317.0 721.9,317.0 729.3,317.0 736.7,317.0 744.1,317.0 751.5,317.0 758.8,317.0 766.2,317.0 773.6,317.0 781.0,317.0 788.3,317.0 795.7,317.0 803.1,317.0 810.5,317.0 817.9,317.0 825.2,317.0 832.6,317.0 840.0,317.0" fill="none" stroke="#19e5a1" stroke-width="2.5" stroke-linecap="round" stroke-linejoin="round" /><circle cx="80.0" cy="317.0" r="4" fill="#19e5a1" /><circle cx="87.4" cy="317.0" r="4" fill="#19e5a1" /><circle cx="94.8" cy="317.0" r="4" fill="#19e5a1" /><circle cx="102.1" cy="317.0" r="4" fill="#19e5a1" /><circle cx="109.5" cy="317.0" r="4" fill="#19e5a1" /><circle cx="116.9" cy="317.0" r="4" fill="#19e5a1" /><circle cx="124.3" cy="317.0" r="4" fill="#19e5a1" /><circle cx="131.7" cy="317.0" r="4" fill="#19e5a1" /><circle cx="139.0" cy="317.0" r="4" fill="#19e5a1" /><circle cx="146.4" cy="317.0" r="4" fill="#19e5a1" /><circle cx="153.8" cy="317.0" r="4" fill="#19e5a1" /><circle cx="161.2" cy="317.0" r="4" fill="#19e5a1" /><circle cx="168.5" cy="317.0" r="4" fill="#19e5a1" /><circle cx="175.9" cy="317.0" r="4" fill="#19e5a1" /><circle cx="183.3" cy="317.0" r="4" fill="#19e5a1" /><circle cx="190.7" cy="317.0" r="4" fill="#19e5a1" /><circle cx="198.1" cy="317.0" r="4" fill="#19e5a1" /><circle cx="205.4" cy="317.0" r="4" fill="#19e5a1" /><circle cx="212.8" cy="317.0" r="4" fill="#19e5a1" /><circle cx="220.2" cy="317.0" r="4" fill="#19e5a1" /><circle cx="227.6" cy="317.0" r="4" fill="#19e5a1" /><circle cx="235.0" cy="317.0" r="4" fill="#19e5a1" /><circle cx="242.3" cy="317.0" r="4" fill="#19e5a1" /><circle cx="249.7" cy="317.0" r="4" fill="#19e5a1" /><circle cx="257.1" cy="317.0" r="4" fill="#19e5a1" /><circle cx="264.5" cy="317.0" r="4" fill="#19e5a1" /><circle cx="271.8" cy="317.0" r="4" fill="#19e5a1" /><circle cx="279.2" cy="317.0" r="4" fill="#19e5a1" /><circle cx="286.6" cy="317.0" r="4" fill="#19e5a1" /><circle cx="294.0" cy="317.0" r="4" fill="#19e5a1" /><circle cx="301.4" cy="317.0" r="4" fill="#19e5a1" /><circle cx="308.7" cy="317.0" r="4" fill="#19e5a1" /><circle cx="316.1" cy="317.0" r="4" fill="#19e5a1" /><circle cx="323.5" cy="317.0" r="4" fill="#19e5a1" /><circle cx="330.9" cy="317.0" r="4" fill="#19e5a1" /><circle cx="338.3" cy="317.0" r="4" fill="#19e5a1" /><circle cx="345.6" cy="317.0" r="4" fill="#19e5a1" /><circle cx="353.0" cy="317.0" r="4" fill="#19e5a1" /><circle cx="360.4" cy="317.0" r="4" fill="#19e5a1" /><circle cx="367.8" cy="317.0" r="4" fill="#19e5a1" /><circle cx="375.1" cy="317.0" r="4" fill="#19e5a1" /><circle cx="382.5" cy="317.0" r="4" fill="#19e5a1" /><circle cx="389.9" cy="317.0" r="4" fill="#19e5a1" /><circle cx="397.3" cy="317.0" r="4" fill="#19e5a1" /><circle cx="404.7" cy="317.0" r="4" fill="#19e5a1" /><circle cx="412.0" cy="317.0" r="4" fill="#19e5a1" /><circle cx="419.4" cy="317.0" r="4" fill="#19e5a1" /><circle cx="426.8" cy="317.0" r="4" fill="#19e5a1" /><circle cx="434.2" cy="317.0" r="4" fill="#19e5a1" /><circle cx="441.6" cy="317.0" r="4" fill="#19e5a1" /><circle cx="448.9" cy="317.0" r="4" fill="#19e5a1" /><circle cx="456.3" cy="317.0" r="4" fill="#19e5a1" /><circle cx="463.7" cy="317.0" r="4" fill="#19e5a1" /><circle cx="471.1" cy="317.0" r="4" fill="#19e5a1" /><circle cx="478.4" cy="317.0" r="4" fill="#19e5a1" /><circle cx="485.8" cy="317.0" r="4" fill="#19e5a1" /><circle cx="493.2" cy="317.0" r="4" fill="#19e5a1" /><circle cx="500.6" cy="317.0" r="4" fill="#19e5a1" /><circle cx="508.0" cy="317.0" r="4" fill="#19e5a1" /><circle cx="515.3" cy="317.0" r="4" fill="#19e5a1" /><circle cx="522.7" cy="317.0" r="4" fill="#19e5a1" /><circle cx="530.1" cy="317.0" r="4" fill="#19e5a1" /><circle cx="537.5" cy="317.0" r="4" fill="#19e5a1" /><circle cx="544.9" cy="317.0" r="4" fill="#19e5a1" /><circle cx="552.2" cy="317.0" r="4" fill="#19e5a1" /><circle cx="559.6" cy="317.0" r="4" fill="#19e5a1" /><circle cx="567.0" cy="317.0" r="4" fill="#19e5a1" /><circle cx="574.4" cy="317.0" r="4" fill="#19e5a1" /><circle cx="581.7" cy="317.0" r="4" fill="#19e5a1" /><circle cx="589.1" cy="317.0" r="4" fill="#19e5a1" /><circle cx="596.5" cy="317.0" r="4" fill="#19e5a1" /><circle cx="603.9" cy="317.0" r="4" fill="#19e5a1" /><circle cx="611.3" cy="317.0" r="4" fill="#19e5a1" /><circle cx="618.6" cy="317.0" r="4" fill="#19e5a1" /><circle cx="626.0" cy="317.0" r="4" fill="#19e5a1" /><circle cx="633.4" cy="317.0" r="4" fill="#19e5a1" /><circle cx="640.8" cy="317.0" r="4" fill="#19e5a1" /><circle cx="648.2" cy="317.0" r="4" fill="#19e5a1" /><circle cx="655.5" cy="317.0" r="4" fill="#19e5a1" /><circle cx="662.9" cy="317.0" r="4" fill="#19e5a1" /><circle cx="670.3" cy="317.0" r="4" fill="#19e5a1" /><circle cx="677.7" cy="317.0" r="4" fill="#19e5a1" /><circle cx="685.0" cy="317.0" r="4" fill="#19e5a1" /><circle cx="692.4" cy="317.0" r="4" fill="#19e5a1" /><circle cx="699.8" cy="317.0" r="4" fill="#19e5a1" /><circle cx="707.2" cy="317.0" r="4" fill="#19e5a1" /><circle cx="714.6" cy="317.0" r="4" fill="#19e5a1" /><circle cx="721.9" cy="317.0" r="4" fill="#19e5a1" /><circle cx="729.3" cy="317.0" r="4" fill="#19e5a1" /><circle cx="736.7" cy="317.0" r="4" fill="#19e5a1" /><circle cx="744.1" cy="317.0" r="4" fill="#19e5a1" /><circle cx="751.5" cy="317.0" r="4" fill="#19e5a1" /><circle cx="758.8" cy="317.0" r="4" fill="#19e5a1" /><circle cx="766.2" cy="317.0" r="4" fill="#19e5a1" /><circle cx="773.6" cy="317.0" r="4" fill="#19e5a1" /><circle cx="781.0" cy="317.0" r="4" fill="#19e5a1" /><circle cx="788.3" cy="317.0" r="4" fill="#19e5a1" /><circle cx="795.7" cy="317.0" r="4" fill="#19e5a1" /><circle cx="803.1" cy="317.0" r="4" fill="#19e5a1" /><circle cx="810.5" cy="317.0" r="4" fill="#19e5a1" /><circle cx="817.9" cy="317.0" r="4" fill="#19e5a1" /><circle cx="825.2" cy="317.0" r="4" fill="#19e5a1" /><circle cx="832.6" cy="317.0" r="4" fill="#19e5a1" /><circle cx="840.0" cy="317.0" r="4" fill="#19e5a1" /><polyline points="80.0,313.2 87.4,312.2 94.8,312.1 102.1,312.4 109.5,312.4 116.9,312.4 124.3,312.1 131.7,312.0 139.0,311.9 146.4,311.9 153.8,311.8 161.2,311.8 168.5,311.5 175.9,311.5 183.3,311.5 190.7,311.2 198.1,311.2 205.4,311.1 212.8,311.1 220.2,311.1 227.6,310.9 235.0,311.0 242.3,310.8 249.7,310.8 257.1,310.8 264.5,310.8 271.8,310.4 279.2,310.2 286.6,310.4 294.0,310.4 301.4,310.4 308.7,310.4 316.1,310.4 323.5,310.2 330.9,310.2 338.3,310.1 345.6,310.1 353.0,309.8 360.4,309.6 367.8,309.6 375.1,309.6 382.5,309.6 389.9,309.5 397.3,309.4 404.7,309.4 412.0,309.4 419.4,309.4 426.8,309.2 434.2,309.2 441.6,309.2 448.9,309.4 456.3,309.4 463.7,309.5 471.1,309.2 478.4,309.2 485.8,309.4 493.2,309.2 500.6,309.2 508.0,309.2 515.3,309.2 522.7,309.2 530.1,309.1 537.5,309.1 544.9,309.1 552.2,309.1 559.6,309.0 567.0,309.0 574.4,308.9 581.7,308.9 589.1,308.9 596.5,308.6 603.9,308.6 611.3,308.6 618.6,308.6 626.0,308.6 633.4,308.6 640.8,308.6 648.2,308.6 655.5,308.6 662.9,308.6 670.3,308.6 677.7,308.6 685.0,308.6 692.4,307.8 699.8,307.8 707.2,307.6 714.6,307.6 721.9,307.6 729.3,307.5 736.7,307.5 744.1,307.6 751.5,308.5 758.8,308.5 766.2,308.4 773.6,308.4 781.0,307.5 788.3,307.5 795.7,307.2 803.1,307.1 810.5,307.1 817.9,307.1 825.2,307.0 832.6,306.8 840.0,306.6" fill="none" stroke="#6eb6ec" stroke-width="2.5" stroke-linecap="round" stroke-linejoin="round" /><circle cx="80.0" cy="313.2" r="4" fill="#6eb6ec" /><circle cx="87.4" cy="312.2" r="4" fill="#6eb6ec" /><circle cx="94.8" cy="312.1" r="4" fill="#6eb6ec" /><circle cx="102.1" cy="312.4" r="4" fill="#6eb6ec" /><circle cx="109.5" cy="312.4" r="4" fill="#6eb6ec" /><circle cx="116.9" cy="312.4" r="4" fill="#6eb6ec" /><circle cx="124.3" cy="312.1" r="4" fill="#6eb6ec" /><circle cx="131.7" cy="312.0" r="4" fill="#6eb6ec" /><circle cx="139.0" cy="311.9" r="4" fill="#6eb6ec" /><circle cx="146.4" cy="311.9" r="4" fill="#6eb6ec" /><circle cx="153.8" cy="311.8" r="4" fill="#6eb6ec" /><circle cx="161.2" cy="311.8" r="4" fill="#6eb6ec" /><circle cx="168.5" cy="311.5" r="4" fill="#6eb6ec" /><circle cx="175.9" cy="311.5" r="4" fill="#6eb6ec" /><circle cx="183.3" cy="311.5" r="4" fill="#6eb6ec" /><circle cx="190.7" cy="311.2" r="4" fill="#6eb6ec" /><circle cx="198.1" cy="311.2" r="4" fill="#6eb6ec" /><circle cx="205.4" cy="311.1" r="4" fill="#6eb6ec" /><circle cx="212.8" cy="311.1" r="4" fill="#6eb6ec" /><circle cx="220.2" cy="311.1" r="4" fill="#6eb6ec" /><circle cx="227.6" cy="310.9" r="4" fill="#6eb6ec" /><circle cx="235.0" cy="311.0" r="4" fill="#6eb6ec" /><circle cx="242.3" cy="310.8" r="4" fill="#6eb6ec" /><circle cx="249.7" cy="310.8" r="4" fill="#6eb6ec" /><circle cx="257.1" cy="310.8" r="4" fill="#6eb6ec" /><circle cx="264.5" cy="310.8" r="4" fill="#6eb6ec" /><circle cx="271.8" cy="310.4" r="4" fill="#6eb6ec" /><circle cx="279.2" cy="310.2" r="4" fill="#6eb6ec" /><circle cx="286.6" cy="310.4" r="4" fill="#6eb6ec" /><circle cx="294.0" cy="310.4" r="4" fill="#6eb6ec" /><circle cx="301.4" cy="310.4" r="4" fill="#6eb6ec" /><circle cx="308.7" cy="310.4" r="4" fill="#6eb6ec" /><circle cx="316.1" cy="310.4" r="4" fill="#6eb6ec" /><circle cx="323.5" cy="310.2" r="4" fill="#6eb6ec" /><circle cx="330.9" cy="310.2" r="4" fill="#6eb6ec" /><circle cx="338.3" cy="310.1" r="4" fill="#6eb6ec" /><circle cx="345.6" cy="310.1" r="4" fill="#6eb6ec" /><circle cx="353.0" cy="309.8" r="4" fill="#6eb6ec" /><circle cx="360.4" cy="309.6" r="4" fill="#6eb6ec" /><circle cx="367.8" cy="309.6" r="4" fill="#6eb6ec" /><circle cx="375.1" cy="309.6" r="4" fill="#6eb6ec" /><circle cx="382.5" cy="309.6" r="4" fill="#6eb6ec" /><circle cx="389.9" cy="309.5" r="4" fill="#6eb6ec" /><circle cx="397.3" cy="309.4" r="4" fill="#6eb6ec" /><circle cx="404.7" cy="309.4" r="4" fill="#6eb6ec" /><circle cx="412.0" cy="309.4" r="4" fill="#6eb6ec" /><circle cx="419.4" cy="309.4" r="4" fill="#6eb6ec" /><circle cx="426.8" cy="309.2" r="4" fill="#6eb6ec" /><circle cx="434.2" cy="309.2" r="4" fill="#6eb6ec" /><circle cx="441.6" cy="309.2" r="4" fill="#6eb6ec" /><circle cx="448.9" cy="309.4" r="4" fill="#6eb6ec" /><circle cx="456.3" cy="309.4" r="4" fill="#6eb6ec" /><circle cx="463.7" cy="309.5" r="4" fill="#6eb6ec" /><circle cx="471.1" cy="309.2" r="4" fill="#6eb6ec" /><circle cx="478.4" cy="309.2" r="4" fill="#6eb6ec" /><circle cx="485.8" cy="309.4" r="4" fill="#6eb6ec" /><circle cx="493.2" cy="309.2" r="4" fill="#6eb6ec" /><circle cx="500.6" cy="309.2" r="4" fill="#6eb6ec" /><circle cx="508.0" cy="309.2" r="4" fill="#6eb6ec" /><circle cx="515.3" cy="309.2" r="4" fill="#6eb6ec" /><circle cx="522.7" cy="309.2" r="4" fill="#6eb6ec" /><circle cx="530.1" cy="309.1" r="4" fill="#6eb6ec" /><circle cx="537.5" cy="309.1" r="4" fill="#6eb6ec" /><circle cx="544.9" cy="309.1" r="4" fill="#6eb6ec" /><circle cx="552.2" cy="309.1" r="4" fill="#6eb6ec" /><circle cx="559.6" cy="309.0" r="4" fill="#6eb6ec" /><circle cx="567.0" cy="309.0" r="4" fill="#6eb6ec" /><circle cx="574.4" cy="308.9" r="4" fill="#6eb6ec" /><circle cx="581.7" cy="308.9" r="4" fill="#6eb6ec" /><circle cx="589.1" cy="308.9" r="4" fill="#6eb6ec" /><circle cx="596.5" cy="308.6" r="4" fill="#6eb6ec" /><circle cx="603.9" cy="308.6" r="4" fill="#6eb6ec" /><circle cx="611.3" cy="308.6" r="4" fill="#6eb6ec" /><circle cx="618.6" cy="308.6" r="4" fill="#6eb6ec" /><circle cx="626.0" cy="308.6" r="4" fill="#6eb6ec" /><circle cx="633.4" cy="308.6" r="4" fill="#6eb6ec" /><circle cx="640.8" cy="308.6" r="4" fill="#6eb6ec" /><circle cx="648.2" cy="308.6" r="4" fill="#6eb6ec" /><circle cx="655.5" cy="308.6" r="4" fill="#6eb6ec" /><circle cx="662.9" cy="308.6" r="4" fill="#6eb6ec" /><circle cx="670.3" cy="308.6" r="4" fill="#6eb6ec" /><circle cx="677.7" cy="308.6" r="4" fill="#6eb6ec" /><circle cx="685.0" cy="308.6" r="4" fill="#6eb6ec" /><circle cx="692.4" cy="307.8" r="4" fill="#6eb6ec" /><circle cx="699.8" cy="307.8" r="4" fill="#6eb6ec" /><circle cx="707.2" cy="307.6" r="4" fill="#6eb6ec" /><circle cx="714.6" cy="307.6" r="4" fill="#6eb6ec" /><circle cx="721.9" cy="307.6" r="4" fill="#6eb6ec" /><circle cx="729.3" cy="307.5" r="4" fill="#6eb6ec" /><circle cx="736.7" cy="307.5" r="4" fill="#6eb6ec" /><circle cx="744.1" cy="307.6" r="4" fill="#6eb6ec" /><circle cx="751.5" cy="308.5" r="4" fill="#6eb6ec" /><circle cx="758.8" cy="308.5" r="4" fill="#6eb6ec" /><circle cx="766.2" cy="308.4" r="4" fill="#6eb6ec" /><circle cx="773.6" cy="308.4" r="4" fill="#6eb6ec" /><circle cx="781.0" cy="307.5" r="4" fill="#6eb6ec" /><circle cx="788.3" cy="307.5" r="4" fill="#6eb6ec" /><circle cx="795.7" cy="307.2" r="4" fill="#6eb6ec" /><circle cx="803.1" cy="307.1" r="4" fill="#6eb6ec" /><circle cx="810.5" cy="307.1" r="4" fill="#6eb6ec" /><circle cx="817.9" cy="307.1" r="4" fill="#6eb6ec" /><circle cx="825.2" cy="307.0" r="4" fill="#6eb6ec" /><circle cx="832.6" cy="306.8" r="4" fill="#6eb6ec" /><circle cx="840.0" cy="306.6" r="4" fill="#6eb6ec" /><polyline points="80.0,305.8 87.4,305.8 94.8,305.8 102.1,305.8 109.5,305.8 116.9,305.8 124.3,305.8 131.7,305.8 139.0,305.8 146.4,305.8 153.8,304.9 161.2,304.9 168.5,304.9 175.9,304.9 183.3,304.9 190.7,304.9 198.1,304.9 205.4,304.9 212.8,304.9 220.2,304.9 227.6,304.9 235.0,304.9 242.3,304.9 249.7,304.9 257.1,304.9 264.5,304.9 271.8,304.9 279.2,304.9 286.6,304.9 294.0,304.9 301.4,304.9 308.7,304.9 316.1,304.9 323.5,304.9 330.9,304.9 338.3,304.9 345.6,304.9 353.0,303.6 360.4,303.6 367.8,303.6 375.1,303.6 382.5,303.6 389.9,303.6 397.3,303.6 404.7,303.6 412.0,303.6 419.4,303.6 426.8,303.6 434.2,303.6 441.6,303.6 448.9,303.6 456.3,302.9 463.7,302.9 471.1,298.0 478.4,298.0 485.8,298.0 493.2,298.0 500.6,298.0 508.0,298.0 515.3,298.0 522.7,298.0 530.1,298.0 537.5,298.0 544.9,298.0 552.2,298.0 559.6,298.0 567.0,298.0 574.4,297.8 581.7,297.8 589.1,297.8 596.5,297.8 603.9,297.8 611.3,297.8 618.6,297.8 626.0,297.8 633.4,297.8 640.8,297.8 648.2,297.8 655.5,297.8 662.9,297.8 670.3,297.8 677.7,297.8 685.0,297.8 692.4,297.8 699.8,297.8 707.2,297.8 714.6,297.6 721.9,297.8 729.3,297.8 736.7,297.8 744.1,297.9 751.5,297.9 758.8,297.9 766.2,296.1 773.6,296.1 781.0,296.1 788.3,296.1 795.7,296.1 803.1,296.1 810.5,296.1 817.9,296.1 825.2,296.1 832.6,296.1 840.0,295.0" fill="none" stroke="#5938e2" stroke-width="2.5" stroke-linecap="round" stroke-linejoin="round" /><circle cx="80.0" cy="305.8" r="4" fill="#5938e2" /><circle cx="87.4" cy="305.8" r="4" fill="#5938e2" /><circle cx="94.8" cy="305.8" r="4" fill="#5938e2" /><circle cx="102.1" cy="305.8" r="4" fill="#5938e2" /><circle cx="109.5" cy="305.8" r="4" fill="#5938e2" /><circle cx="116.9" cy="305.8" r="4" fill="#5938e2" /><circle cx="124.3" cy="305.8" r="4" fill="#5938e2" /><circle cx="131.7" cy="305.8" r="4" fill="#5938e2" /><circle cx="139.0" cy="305.8" r="4" fill="#5938e2" /><circle cx="146.4" cy="305.8" r="4" fill="#5938e2" /><circle cx="153.8" cy="304.9" r="4" fill="#5938e2" /><circle cx="161.2" cy="304.9" r="4" fill="#5938e2" /><circle cx="168.5" cy="304.9" r="4" fill="#5938e2" /><circle cx="175.9" cy="304.9" r="4" fill="#5938e2" /><circle cx="183.3" cy="304.9" r="4" fill="#5938e2" /><circle cx="190.7" cy="304.9" r="4" fill="#5938e2" /><circle cx="198.1" cy="304.9" r="4" fill="#5938e2" /><circle cx="205.4" cy="304.9" r="4" fill="#5938e2" /><circle cx="212.8" cy="304.9" r="4" fill="#5938e2" /><circle cx="220.2" cy="304.9" r="4" fill="#5938e2" /><circle cx="227.6" cy="304.9" r="4" fill="#5938e2" /><circle cx="235.0" cy="304.9" r="4" fill="#5938e2" /><circle cx="242.3" cy="304.9" r="4" fill="#5938e2" /><circle cx="249.7" cy="304.9" r="4" fill="#5938e2" /><circle cx="257.1" cy="304.9" r="4" fill="#5938e2" /><circle cx="264.5" cy="304.9" r="4" fill="#5938e2" /><circle cx="271.8" cy="304.9" r="4" fill="#5938e2" /><circle cx="279.2" cy="304.9" r="4" fill="#5938e2" /><circle cx="286.6" cy="304.9" r="4" fill="#5938e2" /><circle cx="294.0" cy="304.9" r="4" fill="#5938e2" /><circle cx="301.4" cy="304.9" r="4" fill="#5938e2" /><circle cx="308.7" cy="304.9" r="4" fill="#5938e2" /><circle cx="316.1" cy="304.9" r="4" fill="#5938e2" /><circle cx="323.5" cy="304.9" r="4" fill="#5938e2" /><circle cx="330.9" cy="304.9" r="4" fill="#5938e2" /><circle cx="338.3" cy="304.9" r="4" fill="#5938e2" /><circle cx="345.6" cy="304.9" r="4" fill="#5938e2" /><circle cx="353.0" cy="303.6" r="4" fill="#5938e2" /><circle cx="360.4" cy="303.6" r="4" fill="#5938e2" /><circle cx="367.8" cy="303.6" r="4" fill="#5938e2" /><circle cx="375.1" cy="303.6" r="4" fill="#5938e2" /><circle cx="382.5" cy="303.6" r="4" fill="#5938e2" /><circle cx="389.9" cy="303.6" r="4" fill="#5938e2" /><circle cx="397.3" cy="303.6" r="4" fill="#5938e2" /><circle cx="404.7" cy="303.6" r="4" fill="#5938e2" /><circle cx="412.0" cy="303.6" r="4" fill="#5938e2" /><circle cx="419.4" cy="303.6" r="4" fill="#5938e2" /><circle cx="426.8" cy="303.6" r="4" fill="#5938e2" /><circle cx="434.2" cy="303.6" r="4" fill="#5938e2" /><circle cx="441.6" cy="303.6" r="4" fill="#5938e2" /><circle cx="448.9" cy="303.6" r="4" fill="#5938e2" /><circle cx="456.3" cy="302.9" r="4" fill="#5938e2" /><circle cx="463.7" cy="302.9" r="4" fill="#5938e2" /><circle cx="471.1" cy="298.0" r="4" fill="#5938e2" /><circle cx="478.4" cy="298.0" r="4" fill="#5938e2" /><circle cx="485.8" cy="298.0" r="4" fill="#5938e2" /><circle cx="493.2" cy="298.0" r="4" fill="#5938e2" /><circle cx="500.6" cy="298.0" r="4" fill="#5938e2" /><circle cx="508.0" cy="298.0" r="4" fill="#5938e2" /><circle cx="515.3" cy="298.0" r="4" fill="#5938e2" /><circle cx="522.7" cy="298.0" r="4" fill="#5938e2" /><circle cx="530.1" cy="298.0" r="4" fill="#5938e2" /><circle cx="537.5" cy="298.0" r="4" fill="#5938e2" /><circle cx="544.9" cy="298.0" r="4" fill="#5938e2" /><circle cx="552.2" cy="298.0" r="4" fill="#5938e2" /><circle cx="559.6" cy="298.0" r="4" fill="#5938e2" /><circle cx="567.0" cy="298.0" r="4" fill="#5938e2" /><circle cx="574.4" cy="297.8" r="4" fill="#5938e2" /><circle cx="581.7" cy="297.8" r="4" fill="#5938e2" /><circle cx="589.1" cy="297.8" r="4" fill="#5938e2" /><circle cx="596.5" cy="297.8" r="4" fill="#5938e2" /><circle cx="603.9" cy="297.8" r="4" fill="#5938e2" /><circle cx="611.3" cy="297.8" r="4" fill="#5938e2" /><circle cx="618.6" cy="297.8" r="4" fill="#5938e2" /><circle cx="626.0" cy="297.8" r="4" fill="#5938e2" /><circle cx="633.4" cy="297.8" r="4" fill="#5938e2" /><circle cx="640.8" cy="297.8" r="4" fill="#5938e2" /><circle cx="648.2" cy="297.8" r="4" fill="#5938e2" /><circle cx="655.5" cy="297.8" r="4" fill="#5938e2" /><circle cx="662.9" cy="297.8" r="4" fill="#5938e2" /><circle cx="670.3" cy="297.8" r="4" fill="#5938e2" /><circle cx="677.7" cy="297.8" r="4" fill="#5938e2" /><circle cx="685.0" cy="297.8" r="4" fill="#5938e2" /><circle cx="692.4" cy="297.8" r="4" fill="#5938e2" /><circle cx="699.8" cy="297.8" r="4" fill="#5938e2" /><circle cx="707.2" cy="297.8" r="4" fill="#5938e2" /><circle cx="714.6" cy="297.6" r="4" fill="#5938e2" /><circle cx="721.9" cy="297.8" r="4" fill="#5938e2" /><circle cx="729.3" cy="297.8" r="4" fill="#5938e2" /><circle cx="736.7" cy="297.8" r="4" fill="#5938e2" /><circle cx="744.1" cy="297.9" r="4" fill="#5938e2" /><circle cx="751.5" cy="297.9" r="4" fill="#5938e2" /><circle cx="758.8" cy="297.9" r="4" fill="#5938e2" /><circle cx="766.2" cy="296.1" r="4" fill="#5938e2" /><circle cx="773.6" cy="296.1" r="4" fill="#5938e2" /><circle cx="781.0" cy="296.1" r="4" fill="#5938e2" /><circle cx="788.3" cy="296.1" r="4" fill="#5938e2" /><circle cx="795.7" cy="296.1" r="4" fill="#5938e2" /><circle cx="803.1" cy="296.1" r="4" fill="#5938e2" /><circle cx="810.5" cy="296.1" r="4" fill="#5938e2" /><circle cx="817.9" cy="296.1" r="4" fill="#5938e2" /><circle cx="825.2" cy="296.1" r="4" fill="#5938e2" /><circle cx="832.6" cy="296.1" r="4" fill="#5938e2" /><circle cx="840.0" cy="295.0" r="4" fill="#5938e2" /><polyline points="80.0,144.6 87.4,140.1 94.8,139.9 102.1,139.8 109.5,139.8 116.9,139.6 124.3,139.6 131.7,139.6 139.0,139.6 146.4,139.6 153.8,138.4 161.2,138.4 168.5,138.4 175.9,138.4 183.3,138.4 190.7,138.4 198.1,138.4 205.4,137.4 212.8,137.4 220.2,137.4 227.6,137.4 235.0,137.4 242.3,137.4 249.7,137.4 257.1,137.4 264.5,137.4 271.8,137.4 279.2,137.4 286.6,131.2 294.0,131.2 301.4,130.8 308.7,130.4 316.1,126.9 323.5,126.9 330.9,126.9 338.3,126.9 345.6,126.9 353.0,126.9 360.4,126.9 367.8,126.9 375.1,126.9 382.5,126.8 389.9,122.1 397.3,120.4 404.7,120.4 412.0,120.4 419.4,120.4 426.8,120.4 434.2,119.4 441.6,119.4 448.9,119.4 456.3,119.4 463.7,119.1 471.1,118.8 478.4,118.8 485.8,117.8 493.2,117.8 500.6,117.8 508.0,115.8 515.3,115.8 522.7,115.0 530.1,115.0 537.5,115.0 544.9,115.0 552.2,115.0 559.6,115.0 567.0,115.0 574.4,113.9 581.7,111.8 589.1,111.8 596.5,111.8 603.9,111.8 611.3,111.8 618.6,111.8 626.0,111.8 633.4,111.8 640.8,111.8 648.2,111.8 655.5,110.6 662.9,110.6 670.3,110.6 677.7,110.6 685.0,110.6 692.4,109.4 699.8,109.4 707.2,109.4 714.6,109.4 721.9,109.2 729.3,109.2 736.7,109.2 744.1,109.2 751.5,109.2 758.8,109.2 766.2,109.2 773.6,109.2 781.0,109.2 788.3,109.2 795.7,109.2 803.1,109.2 810.5,109.2 817.9,109.2 825.2,109.2 832.6,109.1 840.0,103.5" fill="none" stroke="#60e5e0" stroke-width="2.5" stroke-linecap="round" stroke-linejoin="round" /><circle cx="80.0" cy="144.6" r="4" fill="#60e5e0" /><circle cx="87.4" cy="140.1" r="4" fill="#60e5e0" /><circle cx="94.8" cy="139.9" r="4" fill="#60e5e0" /><circle cx="102.1" cy="139.8" r="4" fill="#60e5e0" /><circle cx="109.5" cy="139.8" r="4" fill="#60e5e0" /><circle cx="116.9" cy="139.6" r="4" fill="#60e5e0" /><circle cx="124.3" cy="139.6" r="4" fill="#60e5e0" /><circle cx="131.7" cy="139.6" r="4" fill="#60e5e0" /><circle cx="139.0" cy="139.6" r="4" fill="#60e5e0" /><circle cx="146.4" cy="139.6" r="4" fill="#60e5e0" /><circle cx="153.8" cy="138.4" r="4" fill="#60e5e0" /><circle cx="161.2" cy="138.4" r="4" fill="#60e5e0" /><circle cx="168.5" cy="138.4" r="4" fill="#60e5e0" /><circle cx="175.9" cy="138.4" r="4" fill="#60e5e0" /><circle cx="183.3" cy="138.4" r="4" fill="#60e5e0" /><circle cx="190.7" cy="138.4" r="4" fill="#60e5e0" /><circle cx="198.1" cy="138.4" r="4" fill="#60e5e0" /><circle cx="205.4" cy="137.4" r="4" fill="#60e5e0" /><circle cx="212.8" cy="137.4" r="4" fill="#60e5e0" /><circle cx="220.2" cy="137.4" r="4" fill="#60e5e0" /><circle cx="227.6" cy="137.4" r="4" fill="#60e5e0" /><circle cx="235.0" cy="137.4" r="4" fill="#60e5e0" /><circle cx="242.3" cy="137.4" r="4" fill="#60e5e0" /><circle cx="249.7" cy="137.4" r="4" fill="#60e5e0" /><circle cx="257.1" cy="137.4" r="4" fill="#60e5e0" /><circle cx="264.5" cy="137.4" r="4" fill="#60e5e0" /><circle cx="271.8" cy="137.4" r="4" fill="#60e5e0" /><circle cx="279.2" cy="137.4" r="4" fill="#60e5e0" /><circle cx="286.6" cy="131.2" r="4" fill="#60e5e0" /><circle cx="294.0" cy="131.2" r="4" fill="#60e5e0" /><circle cx="301.4" cy="130.8" r="4" fill="#60e5e0" /><circle cx="308.7" cy="130.4" r="4" fill="#60e5e0" /><circle cx="316.1" cy="126.9" r="4" fill="#60e5e0" /><circle cx="323.5" cy="126.9" r="4" fill="#60e5e0" /><circle cx="330.9" cy="126.9" r="4" fill="#60e5e0" /><circle cx="338.3" cy="126.9" r="4" fill="#60e5e0" /><circle cx="345.6" cy="126.9" r="4" fill="#60e5e0" /><circle cx="353.0" cy="126.9" r="4" fill="#60e5e0" /><circle cx="360.4" cy="126.9" r="4" fill="#60e5e0" /><circle cx="367.8" cy="126.9" r="4" fill="#60e5e0" /><circle cx="375.1" cy="126.9" r="4" fill="#60e5e0" /><circle cx="382.5" cy="126.8" r="4" fill="#60e5e0" /><circle cx="389.9" cy="122.1" r="4" fill="#60e5e0" /><circle cx="397.3" cy="120.4" r="4" fill="#60e5e0" /><circle cx="404.7" cy="120.4" r="4" fill="#60e5e0" /><circle cx="412.0" cy="120.4" r="4" fill="#60e5e0" /><circle cx="419.4" cy="120.4" r="4" fill="#60e5e0" /><circle cx="426.8" cy="120.4" r="4" fill="#60e5e0" /><circle cx="434.2" cy="119.4" r="4" fill="#60e5e0" /><circle cx="441.6" cy="119.4" r="4" fill="#60e5e0" /><circle cx="448.9" cy="119.4" r="4" fill="#60e5e0" /><circle cx="456.3" cy="119.4" r="4" fill="#60e5e0" /><circle cx="463.7" cy="119.1" r="4" fill="#60e5e0" /><circle cx="471.1" cy="118.8" r="4" fill="#60e5e0" /><circle cx="478.4" cy="118.8" r="4" fill="#60e5e0" /><circle cx="485.8" cy="117.8" r="4" fill="#60e5e0" /><circle cx="493.2" cy="117.8" r="4" fill="#60e5e0" /><circle cx="500.6" cy="117.8" r="4" fill="#60e5e0" /><circle cx="508.0" cy="115.8" r="4" fill="#60e5e0" /><circle cx="515.3" cy="115.8" r="4" fill="#60e5e0" /><circle cx="522.7" cy="115.0" r="4" fill="#60e5e0" /><circle cx="530.1" cy="115.0" r="4" fill="#60e5e0" /><circle cx="537.5" cy="115.0" r="4" fill="#60e5e0" /><circle cx="544.9" cy="115.0" r="4" fill="#60e5e0" /><circle cx="552.2" cy="115.0" r="4" fill="#60e5e0" /><circle cx="559.6" cy="115.0" r="4" fill="#60e5e0" /><circle cx="567.0" cy="115.0" r="4" fill="#60e5e0" /><circle cx="574.4" cy="113.9" r="4" fill="#60e5e0" /><circle cx="581.7" cy="111.8" r="4" fill="#60e5e0" /><circle cx="589.1" cy="111.8" r="4" fill="#60e5e0" /><circle cx="596.5" cy="111.8" r="4" fill="#60e5e0" /><circle cx="603.9" cy="111.8" r="4" fill="#60e5e0" /><circle cx="611.3" cy="111.8" r="4" fill="#60e5e0" /><circle cx="618.6" cy="111.8" r="4" fill="#60e5e0" /><circle cx="626.0" cy="111.8" r="4" fill="#60e5e0" /><circle cx="633.4" cy="111.8" r="4" fill="#60e5e0" /><circle cx="640.8" cy="111.8" r="4" fill="#60e5e0" /><circle cx="648.2" cy="111.8" r="4" fill="#60e5e0" /><circle cx="655.5" cy="110.6" r="4" fill="#60e5e0" /><circle cx="662.9" cy="110.6" r="4" fill="#60e5e0" /><circle cx="670.3" cy="110.6" r="4" fill="#60e5e0" /><circle cx="677.7" cy="110.6" r="4" fill="#60e5e0" /><circle cx="685.0" cy="110.6" r="4" fill="#60e5e0" /><circle cx="692.4" cy="109.4" r="4" fill="#60e5e0" /><circle cx="699.8" cy="109.4" r="4" fill="#60e5e0" /><circle cx="707.2" cy="109.4" r="4" fill="#60e5e0" /><circle cx="714.6" cy="109.4" r="4" fill="#60e5e0" /><circle cx="721.9" cy="109.2" r="4" fill="#60e5e0" /><circle cx="729.3" cy="109.2" r="4" fill="#60e5e0" /><circle cx="736.7" cy="109.2" r="4" fill="#60e5e0" /><circle cx="744.1" cy="109.2" r="4" fill="#60e5e0" /><circle cx="751.5" cy="109.2" r="4" fill="#60e5e0" /><circle cx="758.8" cy="109.2" r="4" fill="#60e5e0" /><circle cx="766.2" cy="109.2" r="4" fill="#60e5e0" /><circle cx="773.6" cy="109.2" r="4" fill="#60e5e0" /><circle cx="781.0" cy="109.2" r="4" fill="#60e5e0" /><circle cx="788.3" cy="109.2" r="4" fill="#60e5e0" /><circle cx="795.7" cy="109.2" r="4" fill="#60e5e0" /><circle cx="803.1" cy="109.2" r="4" fill="#60e5e0" /><circle cx="810.5" cy="109.2" r="4" fill="#60e5e0" /><circle cx="817.9" cy="109.2" r="4" fill="#60e5e0" /><circle cx="825.2" cy="109.2" r="4" fill="#60e5e0" /><circle cx="832.6" cy="109.1" r="4" fill="#60e5e0" /><circle cx="840.0" cy="103.5" r="4" fill="#60e5e0" /><polyline points="80.0,314.6 87.4,314.4 94.8,314.2 102.1,314.2 109.5,314.2 116.9,314.1 124.3,314.1 131.7,314.1 139.0,314.1 146.4,314.1 153.8,314.0 161.2,314.0 168.5,314.0 175.9,314.0 183.3,314.0 190.7,314.0 198.1,314.0 205.4,314.0 212.8,314.0 220.2,314.0 227.6,314.0 235.0,314.0 242.3,314.0 249.7,314.0 257.1,314.0 264.5,314.0 271.8,314.0 279.2,314.0 286.6,314.0 294.0,314.0 301.4,314.0 308.7,314.0 316.1,314.0 323.5,314.0 330.9,314.0 338.3,314.0 345.6,314.0 353.0,314.0 360.4,314.0 367.8,314.0 375.1,314.0 382.5,313.9 389.9,313.6 397.3,313.4 404.7,313.4 412.0,313.4 419.4,313.4 426.8,313.4 434.2,313.1 441.6,313.1 448.9,313.1 456.3,313.1 463.7,313.1 471.1,313.0 478.4,313.0 485.8,312.9 493.2,312.9 500.6,312.9 508.0,312.8 515.3,312.8 522.7,312.6 530.1,312.6 537.5,312.6 544.9,312.6 552.2,312.6 559.6,312.6 567.0,312.6 574.4,312.5 581.7,312.1 589.1,312.1 596.5,312.1 603.9,312.1 611.3,312.1 618.6,312.1 626.0,312.1 633.4,312.1 640.8,312.1 648.2,312.1 655.5,312.0 662.9,312.0 670.3,312.0 677.7,312.0 685.0,312.0 692.4,312.0 699.8,312.0 707.2,312.0 714.6,312.0 721.9,312.0 729.3,312.0 736.7,312.0 744.1,312.0 751.5,312.0 758.8,312.0 766.2,312.0 773.6,312.0 781.0,312.0 788.3,312.0 795.7,312.0 803.1,312.0 810.5,312.0 817.9,312.0 825.2,312.0 832.6,312.0 840.0,311.9" fill="none" stroke="#567de1" stroke-width="2.5" stroke-linecap="round" stroke-linejoin="round" /><circle cx="80.0" cy="314.6" r="4" fill="#567de1" /><circle cx="87.4" cy="314.4" r="4" fill="#567de1" /><circle cx="94.8" cy="314.2" r="4" fill="#567de1" /><circle cx="102.1" cy="314.2" r="4" fill="#567de1" /><circle cx="109.5" cy="314.2" r="4" fill="#567de1" /><circle cx="116.9" cy="314.1" r="4" fill="#567de1" /><circle cx="124.3" cy="314.1" r="4" fill="#567de1" /><circle cx="131.7" cy="314.1" r="4" fill="#567de1" /><circle cx="139.0" cy="314.1" r="4" fill="#567de1" /><circle cx="146.4" cy="314.1" r="4" fill="#567de1" /><circle cx="153.8" cy="314.0" r="4" fill="#567de1" /><circle cx="161.2" cy="314.0" r="4" fill="#567de1" /><circle cx="168.5" cy="314.0" r="4" fill="#567de1" /><circle cx="175.9" cy="314.0" r="4" fill="#567de1" /><circle cx="183.3" cy="314.0" r="4" fill="#567de1" /><circle cx="190.7" cy="314.0" r="4" fill="#567de1" /><circle cx="198.1" cy="314.0" r="4" fill="#567de1" /><circle cx="205.4" cy="314.0" r="4" fill="#567de1" /><circle cx="212.8" cy="314.0" r="4" fill="#567de1" /><circle cx="220.2" cy="314.0" r="4" fill="#567de1" /><circle cx="227.6" cy="314.0" r="4" fill="#567de1" /><circle cx="235.0" cy="314.0" r="4" fill="#567de1" /><circle cx="242.3" cy="314.0" r="4" fill="#567de1" /><circle cx="249.7" cy="314.0" r="4" fill="#567de1" /><circle cx="257.1" cy="314.0" r="4" fill="#567de1" /><circle cx="264.5" cy="314.0" r="4" fill="#567de1" /><circle cx="271.8" cy="314.0" r="4" fill="#567de1" /><circle cx="279.2" cy="314.0" r="4" fill="#567de1" /><circle cx="286.6" cy="314.0" r="4" fill="#567de1" /><circle cx="294.0" cy="314.0" r="4" fill="#567de1" /><circle cx="301.4" cy="314.0" r="4" fill="#567de1" /><circle cx="308.7" cy="314.0" r="4" fill="#567de1" /><circle cx="316.1" cy="314.0" r="4" fill="#567de1" /><circle cx="323.5" cy="314.0" r="4" fill="#567de1" /><circle cx="330.9" cy="314.0" r="4" fill="#567de1" /><circle cx="338.3" cy="314.0" r="4" fill="#567de1" /><circle cx="345.6" cy="314.0" r="4" fill="#567de1" /><circle cx="353.0" cy="314.0" r="4" fill="#567de1" /><circle cx="360.4" cy="314.0" r="4" fill="#567de1" /><circle cx="367.8" cy="314.0" r="4" fill="#567de1" /><circle cx="375.1" cy="314.0" r="4" fill="#567de1" /><circle cx="382.5" cy="313.9" r="4" fill="#567de1" /><circle cx="389.9" cy="313.6" r="4" fill="#567de1" /><circle cx="397.3" cy="313.4" r="4" fill="#567de1" /><circle cx="404.7" cy="313.4" r="4" fill="#567de1" /><circle cx="412.0" cy="313.4" r="4" fill="#567de1" /><circle cx="419.4" cy="313.4" r="4" fill="#567de1" /><circle cx="426.8" cy="313.4" r="4" fill="#567de1" /><circle cx="434.2" cy="313.1" r="4" fill="#567de1" /><circle cx="441.6" cy="313.1" r="4" fill="#567de1" /><circle cx="448.9" cy="313.1" r="4" fill="#567de1" /><circle cx="456.3" cy="313.1" r="4" fill="#567de1" /><circle cx="463.7" cy="313.1" r="4" fill="#567de1" /><circle cx="471.1" cy="313.0" r="4" fill="#567de1" /><circle cx="478.4" cy="313.0" r="4" fill="#567de1" /><circle cx="485.8" cy="312.9" r="4" fill="#567de1" /><circle cx="493.2" cy="312.9" r="4" fill="#567de1" /><circle cx="500.6" cy="312.9" r="4" fill="#567de1" /><circle cx="508.0" cy="312.8" r="4" fill="#567de1" /><circle cx="515.3" cy="312.8" r="4" fill="#567de1" /><circle cx="522.7" cy="312.6" r="4" fill="#567de1" /><circle cx="530.1" cy="312.6" r="4" fill="#567de1" /><circle cx="537.5" cy="312.6" r="4" fill="#567de1" /><circle cx="544.9" cy="312.6" r="4" fill="#567de1" /><circle cx="552.2" cy="312.6" r="4" fill="#567de1" /><circle cx="559.6" cy="312.6" r="4" fill="#567de1" /><circle cx="567.0" cy="312.6" r="4" fill="#567de1" /><circle cx="574.4" cy="312.5" r="4" fill="#567de1" /><circle cx="581.7" cy="312.1" r="4" fill="#567de1" /><circle cx="589.1" cy="312.1" r="4" fill="#567de1" /><circle cx="596.5" cy="312.1" r="4" fill="#567de1" /><circle cx="603.9" cy="312.1" r="4" fill="#567de1" /><circle cx="611.3" cy="312.1" r="4" fill="#567de1" /><circle cx="618.6" cy="312.1" r="4" fill="#567de1" /><circle cx="626.0" cy="312.1" r="4" fill="#567de1" /><circle cx="633.4" cy="312.1" r="4" fill="#567de1" /><circle cx="640.8" cy="312.1" r="4" fill="#567de1" /><circle cx="648.2" cy="312.1" r="4" fill="#567de1" /><circle cx="655.5" cy="312.0" r="4" fill="#567de1" /><circle cx="662.9" cy="312.0" r="4" fill="#567de1" /><circle cx="670.3" cy="312.0" r="4" fill="#567de1" /><circle cx="677.7" cy="312.0" r="4" fill="#567de1" /><circle cx="685.0" cy="312.0" r="4" fill="#567de1" /><circle cx="692.4" cy="312.0" r="4" fill="#567de1" /><circle cx="699.8" cy="312.0" r="4" fill="#567de1" /><circle cx="707.2" cy="312.0" r="4" fill="#567de1" /><circle cx="714.6" cy="312.0" r="4" fill="#567de1" /><circle cx="721.9" cy="312.0" r="4" fill="#567de1" /><circle cx="729.3" cy="312.0" r="4" fill="#567de1" /><circle cx="736.7" cy="312.0" r="4" fill="#567de1" /><circle cx="744.1" cy="312.0" r="4" fill="#567de1" /><circle cx="751.5" cy="312.0" r="4" fill="#567de1" /><circle cx="758.8" cy="312.0" r="4" fill="#567de1" /><circle cx="766.2" cy="312.0" r="4" fill="#567de1" /><circle cx="773.6" cy="312.0" r="4" fill="#567de1" /><circle cx="781.0" cy="312.0" r="4" fill="#567de1" /><circle cx="788.3" cy="312.0" r="4" fill="#567de1" /><circle cx="795.7" cy="312.0" r="4" fill="#567de1" /><circle cx="803.1" cy="312.0" r="4" fill="#567de1" /><circle cx="810.5" cy="312.0" r="4" fill="#567de1" /><circle cx="817.9" cy="312.0" r="4" fill="#567de1" /><circle cx="825.2" cy="312.0" r="4" fill="#567de1" /><circle cx="832.6" cy="312.0" r="4" fill="#567de1" /><circle cx="840.0" cy="311.9" r="4" fill="#567de1" /><polyline points="80.0,303.9 87.4,304.2 94.8,304.4 102.1,304.4 109.5,304.4 116.9,304.4 124.3,304.4 131.7,304.4 139.0,304.4 146.4,304.4 153.8,304.4 161.2,304.4 168.5,304.4 175.9,304.4 183.3,304.4 190.7,304.4 198.1,304.4 205.4,304.4 212.8,304.4 220.2,304.4 227.6,304.4 235.0,304.4 242.3,304.4 249.7,304.4 257.1,304.4 264.5,304.4 271.8,304.4 279.2,304.4 286.6,299.1 294.0,299.1 301.4,299.1 308.7,298.9 316.1,295.6 323.5,295.6 330.9,295.6 338.3,295.6 345.6,295.6 353.0,295.6 360.4,295.6 367.8,295.6 375.1,295.6 382.5,295.8 389.9,295.9 397.3,295.9 404.7,295.9 412.0,295.9 419.4,295.9 426.8,295.9 434.2,295.9 441.6,295.9 448.9,295.9 456.3,295.9 463.7,295.9 471.1,295.9 478.4,295.9 485.8,295.9 493.2,295.9 500.6,295.9 508.0,295.8 515.3,295.8 522.7,295.9 530.1,295.9 537.5,295.9 544.9,295.9 552.2,295.9 559.6,295.9 567.0,295.9 574.4,296.0 581.7,296.4 589.1,296.4 596.5,296.4 603.9,296.4 611.3,296.4 618.6,296.4 626.0,296.4 633.4,296.4 640.8,296.4 648.2,296.4 655.5,296.5 662.9,296.5 670.3,296.5 677.7,296.5 685.0,296.5 692.4,296.5 699.8,296.5 707.2,296.5 714.6,296.5 721.9,296.5 729.3,296.5 736.7,296.5 744.1,296.5 751.5,296.5 758.8,296.5 766.2,296.5 773.6,296.5 781.0,296.5 788.3,296.5 795.7,296.5 803.1,296.5 810.5,296.5 817.9,296.5 825.2,296.5 832.6,296.5 840.0,295.0" fill="none" stroke="#9754dd" stroke-width="2.5" stroke-linecap="round" stroke-linejoin="round" /><circle cx="80.0" cy="303.9" r="4" fill="#9754dd" /><circle cx="87.4" cy="304.2" r="4" fill="#9754dd" /><circle cx="94.8" cy="304.4" r="4" fill="#9754dd" /><circle cx="102.1" cy="304.4" r="4" fill="#9754dd" /><circle cx="109.5" cy="304.4" r="4" fill="#9754dd" /><circle cx="116.9" cy="304.4" r="4" fill="#9754dd" /><circle cx="124.3" cy="304.4" r="4" fill="#9754dd" /><circle cx="131.7" cy="304.4" r="4" fill="#9754dd" /><circle cx="139.0" cy="304.4" r="4" fill="#9754dd" /><circle cx="146.4" cy="304.4" r="4" fill="#9754dd" /><circle cx="153.8" cy="304.4" r="4" fill="#9754dd" /><circle cx="161.2" cy="304.4" r="4" fill="#9754dd" /><circle cx="168.5" cy="304.4" r="4" fill="#9754dd" /><circle cx="175.9" cy="304.4" r="4" fill="#9754dd" /><circle cx="183.3" cy="304.4" r="4" fill="#9754dd" /><circle cx="190.7" cy="304.4" r="4" fill="#9754dd" /><circle cx="198.1" cy="304.4" r="4" fill="#9754dd" /><circle cx="205.4" cy="304.4" r="4" fill="#9754dd" /><circle cx="212.8" cy="304.4" r="4" fill="#9754dd" /><circle cx="220.2" cy="304.4" r="4" fill="#9754dd" /><circle cx="227.6" cy="304.4" r="4" fill="#9754dd" /><circle cx="235.0" cy="304.4" r="4" fill="#9754dd" /><circle cx="242.3" cy="304.4" r="4" fill="#9754dd" /><circle cx="249.7" cy="304.4" r="4" fill="#9754dd" /><circle cx="257.1" cy="304.4" r="4" fill="#9754dd" /><circle cx="264.5" cy="304.4" r="4" fill="#9754dd" /><circle cx="271.8" cy="304.4" r="4" fill="#9754dd" /><circle cx="279.2" cy="304.4" r="4" fill="#9754dd" /><circle cx="286.6" cy="299.1" r="4" fill="#9754dd" /><circle cx="294.0" cy="299.1" r="4" fill="#9754dd" /><circle cx="301.4" cy="299.1" r="4" fill="#9754dd" /><circle cx="308.7" cy="298.9" r="4" fill="#9754dd" /><circle cx="316.1" cy="295.6" r="4" fill="#9754dd" /><circle cx="323.5" cy="295.6" r="4" fill="#9754dd" /><circle cx="330.9" cy="295.6" r="4" fill="#9754dd" /><circle cx="338.3" cy="295.6" r="4" fill="#9754dd" /><circle cx="345.6" cy="295.6" r="4" fill="#9754dd" /><circle cx="353.0" cy="295.6" r="4" fill="#9754dd" /><circle cx="360.4" cy="295.6" r="4" fill="#9754dd" /><circle cx="367.8" cy="295.6" r="4" fill="#9754dd" /><circle cx="375.1" cy="295.6" r="4" fill="#9754dd" /><circle cx="382.5" cy="295.8" r="4" fill="#9754dd" /><circle cx="389.9" cy="295.9" r="4" fill="#9754dd" /><circle cx="397.3" cy="295.9" r="4" fill="#9754dd" /><circle cx="404.7" cy="295.9" r="4" fill="#9754dd" /><circle cx="412.0" cy="295.9" r="4" fill="#9754dd" /><circle cx="419.4" cy="295.9" r="4" fill="#9754dd" /><circle cx="426.8" cy="295.9" r="4" fill="#9754dd" /><circle cx="434.2" cy="295.9" r="4" fill="#9754dd" /><circle cx="441.6" cy="295.9" r="4" fill="#9754dd" /><circle cx="448.9" cy="295.9" r="4" fill="#9754dd" /><circle cx="456.3" cy="295.9" r="4" fill="#9754dd" /><circle cx="463.7" cy="295.9" r="4" fill="#9754dd" /><circle cx="471.1" cy="295.9" r="4" fill="#9754dd" /><circle cx="478.4" cy="295.9" r="4" fill="#9754dd" /><circle cx="485.8" cy="295.9" r="4" fill="#9754dd" /><circle cx="493.2" cy="295.9" r="4" fill="#9754dd" /><circle cx="500.6" cy="295.9" r="4" fill="#9754dd" /><circle cx="508.0" cy="295.8" r="4" fill="#9754dd" /><circle cx="515.3" cy="295.8" r="4" fill="#9754dd" /><circle cx="522.7" cy="295.9" r="4" fill="#9754dd" /><circle cx="530.1" cy="295.9" r="4" fill="#9754dd" /><circle cx="537.5" cy="295.9" r="4" fill="#9754dd" /><circle cx="544.9" cy="295.9" r="4" fill="#9754dd" /><circle cx="552.2" cy="295.9" r="4" fill="#9754dd" /><circle cx="559.6" cy="295.9" r="4" fill="#9754dd" /><circle cx="567.0" cy="295.9" r="4" fill="#9754dd" /><circle cx="574.4" cy="296.0" r="4" fill="#9754dd" /><circle cx="581.7" cy="296.4" r="4" fill="#9754dd" /><circle cx="589.1" cy="296.4" r="4" fill="#9754dd" /><circle cx="596.5" cy="296.4" r="4" fill="#9754dd" /><circle cx="603.9" cy="296.4" r="4" fill="#9754dd" /><circle cx="611.3" cy="296.4" r="4" fill="#9754dd" /><circle cx="618.6" cy="296.4" r="4" fill="#9754dd" /><circle cx="626.0" cy="296.4" r="4" fill="#9754dd" /><circle cx="633.4" cy="296.4" r="4" fill="#9754dd" /><circle cx="640.8" cy="296.4" r="4" fill="#9754dd" /><circle cx="648.2" cy="296.4" r="4" fill="#9754dd" /><circle cx="655.5" cy="296.5" r="4" fill="#9754dd" /><circle cx="662.9" cy="296.5" r="4" fill="#9754dd" /><circle cx="670.3" cy="296.5" r="4" fill="#9754dd" /><circle cx="677.7" cy="296.5" r="4" fill="#9754dd" /><circle cx="685.0" cy="296.5" r="4" fill="#9754dd" /><circle cx="692.4" cy="296.5" r="4" fill="#9754dd" /><circle cx="699.8" cy="296.5" r="4" fill="#9754dd" /><circle cx="707.2" cy="296.5" r="4" fill="#9754dd" /><circle cx="714.6" cy="296.5" r="4" fill="#9754dd" /><circle cx="721.9" cy="296.5" r="4" fill="#9754dd" /><circle cx="729.3" cy="296.5" r="4" fill="#9754dd" /><circle cx="736.7" cy="296.5" r="4" fill="#9754dd" /><circle cx="744.1" cy="296.5" r="4" fill="#9754dd" /><circle cx="751.5" cy="296.5" r="4" fill="#9754dd" /><circle cx="758.8" cy="296.5" r="4" fill="#9754dd" /><circle cx="766.2" cy="296.5" r="4" fill="#9754dd" /><circle cx="773.6" cy="296.5" r="4" fill="#9754dd" /><circle cx="781.0" cy="296.5" r="4" fill="#9754dd" /><circle cx="788.3" cy="296.5" r="4" fill="#9754dd" /><circle cx="795.7" cy="296.5" r="4" fill="#9754dd" /><circle cx="803.1" cy="296.5" r="4" fill="#9754dd" /><circle cx="810.5" cy="296.5" r="4" fill="#9754dd" /><circle cx="817.9" cy="296.5" r="4" fill="#9754dd" /><circle cx="825.2" cy="296.5" r="4" fill="#9754dd" /><circle cx="832.6" cy="296.5" r="4" fill="#9754dd" /><circle cx="840.0" cy="295.0" r="4" fill="#9754dd" />
  <rect x="80" y="339" width="10" height="10" rx="2" ry="2" fill="#19e5a1" /><text x="96" y="348" class="legend-label">Stars</text><rect x="250" y="339" width="10" height="10" rx="2" ry="2" fill="#6eb6ec" /><text x="266" y="348" class="legend-label">Followers</text><rect x="420" y="339" width="10" height="10" rx="2" ry="2" fill="#5938e2" /><text x="436" y="348" class="legend-label">Following</text><rect x="590" y="339" width="10" height="10" rx="2" ry="2" fill="#60e5e0" /><text x="606" y="348" class="legend-label">Contributions</text><rect x="80" y="357" width="10" height="10" rx="2" ry="2" fill="#567de1" /><text x="96" y="366" class="legend-label">Pull Requests</text><rect x="250" y="357" width="10" height="10" rx="2" ry="2" fill="#9754dd" /><text x="266" y="366" class="legend-label">Issues</text>
</svg>
