<svg width="900" height="402" viewBox="0 0 900 402" xmlns="http://www.w3.org/2000/svg">
  <defs>
    <linearGradient id="history-gradient" x1="0%" y1="0%" x2="100%" y2="100%">
      <stop offset="0%" style="stop-color:#58a6ff;stop-opacity:1" />
      <stop offset="100%" style="stop-color:#a371f7;stop-opacity:1" />
    </linearGradient>
    <clipPath id="history-rounded">
      <rect x="0" y="0" width="900" height="402" rx="8" ry="8" />
    </clipPath>
  </defs>
  <style>
    .title {
      font-family: 'Segoe UI', Ubuntu, 'Helvetica Neue', sans-serif;
      font-size: 22px;
      font-weight: 700;
      fill: #58a6ff;
    }
    .subtitle {
      font-family: 'Segoe UI', Ubuntu, 'Helvetica Neue', sans-serif;
      font-size: 12px;
      font-weight: 500;
      fill: #8b949e;
    }
    .axis-label {
      font-family: 'Segoe UI', Ubuntu, 'Helvetica Neue', sans-serif;
      font-size: 10px;
      fill: #8b949e;
    }
    .grid-line {
      stroke: #30363d;
      stroke-width: 1;
      opacity: 0.3;
    }
    .legend-label {
      font-family: 'Segoe UI', Ubuntu, 'Helvetica Neue', sans-serif;
      font-size: 11px;
      fill: #c9d1d9;
      dominant-baseline: middle;
    }
  </style>
  <rect clip-path="url(#history-rounded)" width="100%" height="100%" fill="#0d1117" stroke="#30363d" stroke-width="1" />
  <rect x="0" y="396" width="900" height="6" fill="url(#history-gradient)" clip-path="url(#history-rounded)" />
  <text x="24" y="34" class="title">Leonardo Klein Stats History</text>
  <text x="24" y="54" class="subtitle">Period: 2026-02-20 to 2026-03-14</text>
  <text x="72" y="320.0" text-anchor="end" dominant-baseline="central" class="axis-label">0</text><text x="72" y="270.0" text-anchor="end" dominant-baseline="central" class="axis-label">400</text><text x="72" y="220.0" text-anchor="end" dominant-baseline="central" class="axis-label">800</text><text x="72" y="170.0" text-anchor="end" dominant-baseline="central" class="axis-label">1.2k</text><text x="72" y="120.0" text-anchor="end" dominant-baseline="central" class="axis-label">1.6k</text><text x="72" y="70.0" text-anchor="end" dominant-baseline="central" class="axis-label">2.0k</text>
  <text x="80.0" y="336" text-anchor="middle" class="axis-label">02-20</text><text x="150.4" y="336" text-anchor="middle" class="axis-label">02-22</text><text x="220.7" y="336" text-anchor="middle" class="axis-label">02-24</text><text x="291.1" y="336" text-anchor="middle" class="axis-label">02-26</text><text x="361.5" y="336" text-anchor="middle" class="axis-label">02-28</text><text x="431.9" y="336" text-anchor="middle" class="axis-label">03-02</text><text x="502.2" y="336" text-anchor="middle" class="axis-label">03-04</text><text x="572.6" y="336" text-anchor="middle" class="axis-label">03-06</text><text x="643.0" y="336" text-anchor="middle" class="axis-label">03-08</text><text x="713.3" y="336" text-anchor="middle" class="axis-label">03-10</text><text x="783.7" y="336" text-anchor="middle" class="axis-label">03-12</text><text x="840.0" y="336" text-anchor="middle" class="axis-label">03-14</text>
  <line x1="80" y1="320.0" x2="840" y2="320.0" class="grid-line" /><line x1="80" y1="270.0" x2="840" y2="270.0" class="grid-line" /><line x1="80" y1="220.0" x2="840" y2="220.0" class="grid-line" /><line x1="80" y1="170.0" x2="840" y2="170.0" class="grid-line" /><line x1="80" y1="120.0" x2="840" y2="120.0" class="grid-line" /><line x1="80" y1="70.0" x2="840" y2="70.0" class="grid-line" />
  <polyline points="80.0,317.0 87.0,317.0 94.1,317.0 101.1,317.0 108.1,317.0 115.2,317.0 122.2,317.0 129.3,317.0 136.3,317.0 143.3,317.0 150.4,317.0 157.4,317.0 164.4,317.0 171.5,317.0 178.5,317.0 185.6,317.0 192.6,317.0 199.6,317.0 206.7,317.0 213.7,317.0 220.7,317.0 227.8,317.0 234.8,317.0 241.9,317.0 248.9,317.0 255.9,317.0 263.0,317.0 270.0,317.0 277.0,317.0 284.1,317.0 291.1,317.0 298.1,317.0 305.2,317.0 312.2,317.0 319.3,317.0 326.3,317.0 333.3,317.0 340.4,317.0 347.4,317.0 354.4,317.0 361.5,317.0 368.5,317.0 375.6,317.0 382.6,317.0 389.6,317.0 396.7,317.0 403.7,317.0 410.7,317.0 417.8,317.0 424.8,317.0 431.9,317.0 438.9,317.0 445.9,317.0 453.0,317.0 460.0,317.0 467.0,317.0 474.1,317.0 481.1,317.0 488.1,317.0 495.2,317.0 502.2,317.0 509.3,317.0 516.3,317.0 523.3,317.0 530.4,317.0 537.4,317.0 544.4,317.0 551.5,317.0 558.5,317.0 565.6,317.0 572.6,317.0 579.6,317.0 586.7,317.0 593.7,317.0 600.7,317.0 607.8,317.0 614.8,317.0 621.9,317.0 628.9,317.0 635.9,317.0 643.0,317.0 650.0,317.0 657.0,317.0 664.1,317.0 671.1,317.0 678.1,317.0 685.2,317.0 692.2,317.0 699.3,317.0 706.3,317.0 713.3,317.0 720.4,317.0 727.4,317.0 734.4,317.0 741.5,317.0 748.5,317.0 755.6,317.0 762.6,317.0 769.6,317.0 776.7,317.0 783.7,317.0 790.7,317.0 797.8,317.0 804.8,317.0 811.9,317.0 818.9,317.0 825.9,317.0 833.0,317.0 840.0,317.0" fill="none" stroke="#19e5a1" stroke-width="2.5" stroke-linecap="round" stroke-linejoin="round" /><circle cx="80.0" cy="317.0" r="4" fill="#19e5a1" /><circle cx="87.0" cy="317.0" r="4" fill="#19e5a1" /><circle cx="94.1" cy="317.0" r="4" fill="#19e5a1" /><circle cx="101.1" cy="317.0" r="4" fill="#19e5a1" /><circle cx="108.1" cy="317.0" r="4" fill="#19e5a1" /><circle cx="115.2" cy="317.0" r="4" fill="#19e5a1" /><circle cx="122.2" cy="317.0" r="4" fill="#19e5a1" /><circle cx="129.3" cy="317.0" r="4" fill="#19e5a1" /><circle cx="136.3" cy="317.0" r="4" fill="#19e5a1" /><circle cx="143.3" cy="317.0" r="4" fill="#19e5a1" /><circle cx="150.4" cy="317.0" r="4" fill="#19e5a1" /><circle cx="157.4" cy="317.0" r="4" fill="#19e5a1" /><circle cx="164.4" cy="317.0" r="4" fill="#19e5a1" /><circle cx="171.5" cy="317.0" r="4" fill="#19e5a1" /><circle cx="178.5" cy="317.0" r="4" fill="#19e5a1" /><circle cx="185.6" cy="317.0" r="4" fill="#19e5a1" /><circle cx="192.6" cy="317.0" r="4" fill="#19e5a1" /><circle cx="199.6" cy="317.0" r="4" fill="#19e5a1" /><circle cx="206.7" cy="317.0" r="4" fill="#19e5a1" /><circle cx="213.7" cy="317.0" r="4" fill="#19e5a1" /><circle cx="220.7" cy="317.0" r="4" fill="#19e5a1" /><circle cx="227.8" cy="317.0" r="4" fill="#19e5a1" /><circle cx="234.8" cy="317.0" r="4" fill="#19e5a1" /><circle cx="241.9" cy="317.0" r="4" fill="#19e5a1" /><circle cx="248.9" cy="317.0" r="4" fill="#19e5a1" /><circle cx="255.9" cy="317.0" r="4" fill="#19e5a1" /><circle cx="263.0" cy="317.0" r="4" fill="#19e5a1" /><circle cx="270.0" cy="317.0" r="4" fill="#19e5a1" /><circle cx="277.0" cy="317.0" r="4" fill="#19e5a1" /><circle cx="284.1" cy="317.0" r="4" fill="#19e5a1" /><circle cx="291.1" cy="317.0" r="4" fill="#19e5a1" /><circle cx="298.1" cy="317.0" r="4" fill="#19e5a1" /><circle cx="305.2" cy="317.0" r="4" fill="#19e5a1" /><circle cx="312.2" cy="317.0" r="4" fill="#19e5a1" /><circle cx="319.3" cy="317.0" r="4" fill="#19e5a1" /><circle cx="326.3" cy="317.0" r="4" fill="#19e5a1" /><circle cx="333.3" cy="317.0" r="4" fill="#19e5a1" /><circle cx="340.4" cy="317.0" r="4" fill="#19e5a1" /><circle cx="347.4" cy="317.0" r="4" fill="#19e5a1" /><circle cx="354.4" cy="317.0" r="4" fill="#19e5a1" /><circle cx="361.5" cy="317.0" r="4" fill="#19e5a1" /><circle cx="368.5" cy="317.0" r="4" fill="#19e5a1" /><circle cx="375.6" cy="317.0" r="4" fill="#19e5a1" /><circle cx="382.6" cy="317.0" r="4" fill="#19e5a1" /><circle cx="389.6" cy="317.0" r="4" fill="#19e5a1" /><circle cx="396.7" cy="317.0" r="4" fill="#19e5a1" /><circle cx="403.7" cy="317.0" r="4" fill="#19e5a1" /><circle cx="410.7" cy="317.0" r="4" fill="#19e5a1" /><circle cx="417.8" cy="317.0" r="4" fill="#19e5a1" /><circle cx="424.8" cy="317.0" r="4" fill="#19e5a1" /><circle cx="431.9" cy="317.0" r="4" fill="#19e5a1" /><circle cx="438.9" cy="317.0" r="4" fill="#19e5a1" /><circle cx="445.9" cy="317.0" r="4" fill="#19e5a1" /><circle cx="453.0" cy="317.0" r="4" fill="#19e5a1" /><circle cx="460.0" cy="317.0" r="4" fill="#19e5a1" /><circle cx="467.0" cy="317.0" r="4" fill="#19e5a1" /><circle cx="474.1" cy="317.0" r="4" fill="#19e5a1" /><circle cx="481.1" cy="317.0" r="4" fill="#19e5a1" /><circle cx="488.1" cy="317.0" r="4" fill="#19e5a1" /><circle cx="495.2" cy="317.0" r="4" fill="#19e5a1" /><circle cx="502.2" cy="317.0" r="4" fill="#19e5a1" /><circle cx="509.3" cy="317.0" r="4" fill="#19e5a1" /><circle cx="516.3" cy="317.0" r="4" fill="#19e5a1" /><circle cx="523.3" cy="317.0" r="4" fill="#19e5a1" /><circle cx="530.4" cy="317.0" r="4" fill="#19e5a1" /><circle cx="537.4" cy="317.0" r="4" fill="#19e5a1" /><circle cx="544.4" cy="317.0" r="4" fill="#19e5a1" /><circle cx="551.5" cy="317.0" r="4" fill="#19e5a1" /><circle cx="558.5" cy="317.0" r="4" fill="#19e5a1" /><circle cx="565.6" cy="317.0" r="4" fill="#19e5a1" /><circle cx="572.6" cy="317.0" r="4" fill="#19e5a1" /><circle cx="579.6" cy="317.0" r="4" fill="#19e5a1" /><circle cx="586.7" cy="317.0" r="4" fill="#19e5a1" /><circle cx="593.7" cy="317.0" r="4" fill="#19e5a1" /><circle cx="600.7" cy="317.0" r="4" fill="#19e5a1" /><circle cx="607.8" cy="317.0" r="4" fill="#19e5a1" /><circle cx="614.8" cy="317.0" r="4" fill="#19e5a1" /><circle cx="621.9" cy="317.0" r="4" fill="#19e5a1" /><circle cx="628.9" cy="317.0" r="4" fill="#19e5a1" /><circle cx="635.9" cy="317.0" r="4" fill="#19e5a1" /><circle cx="643.0" cy="317.0" r="4" fill="#19e5a1" /><circle cx="650.0" cy="317.0" r="4" fill="#19e5a1" /><circle cx="657.0" cy="317.0" r="4" fill="#19e5a1" /><circle cx="664.1" cy="317.0" r="4" fill="#19e5a1" /><circle cx="671.1" cy="317.0" r="4" fill="#19e5a1" /><circle cx="678.1" cy="317.0" r="4" fill="#19e5a1" /><circle cx="685.2" cy="317.0" r="4" fill="#19e5a1" /><circle cx="692.2" cy="317.0" r="4" fill="#19e5a1" /><circle cx="699.3" cy="317.0" r="4" fill="#19e5a1" /><circle cx="706.3" cy="317.0" r="4" fill="#19e5a1" /><circle cx="713.3" cy="317.0" r="4" fill="#19e5a1" /><circle cx="720.4" cy="317.0" r="4" fill="#19e5a1" /><circle cx="727.4" cy="317.0" r="4" fill="#19e5a1" /><circle cx="734.4" cy="317.0" r="4" fill="#19e5a1" /><circle cx="741.5" cy="317.0" r="4" fill="#19e5a1" /><circle cx="748.5" cy="317.0" r="4" fill="#19e5a1" /><circle cx="755.6" cy="317.0" r="4" fill="#19e5a1" /><circle cx="762.6" cy="317.0" r="4" fill="#19e5a1" /><circle cx="769.6" cy="317.0" r="4" fill="#19e5a1" /><circle cx="776.7" cy="317.0" r="4" fill="#19e5a1" /><circle cx="783.7" cy="317.0" r="4" fill="#19e5a1" /><circle cx="790.7" cy="317.0" r="4" fill="#19e5a1" /><circle cx="797.8" cy="317.0" r="4" fill="#19e5a1" /><circle cx="804.8" cy="317.0" r="4" fill="#19e5a1" /><circle cx="811.9" cy="317.0" r="4" fill="#19e5a1" /><circle cx="818.9" cy="317.0" r="4" fill="#19e5a1" /><circle cx="825.9" cy="317.0" r="4" fill="#19e5a1" /><circle cx="833.0" cy="317.0" r="4" fill="#19e5a1" /><circle cx="840.0" cy="317.0" r="4" fill="#19e5a1" /><polyline points="80.0,313.2 87.0,312.2 94.1,312.1 101.1,312.4 108.1,312.4 115.2,312.4 122.2,312.1 129.3,312.0 136.3,311.9 143.3,311.9 150.4,311.8 157.4,311.8 164.4,311.5 171.5,311.5 178.5,311.5 185.6,311.2 192.6,311.2 199.6,311.1 206.7,311.1 213.7,311.1 220.7,310.9 227.8,311.0 234.8,310.8 241.9,310.8 248.9,310.8 255.9,310.8 263.0,310.4 270.0,310.2 277.0,310.4 284.1,310.4 291.1,310.4 298.1,310.4 305.2,310.4 312.2,310.2 319.3,310.2 326.3,310.1 333.3,310.1 340.4,309.8 347.4,309.6 354.4,309.6 361.5,309.6 368.5,309.6 375.6,309.5 382.6,309.4 389.6,309.4 396.7,309.4 403.7,309.4 410.7,309.2 417.8,309.2 424.8,309.2 431.9,309.4 438.9,309.4 445.9,309.5 453.0,309.2 460.0,309.2 467.0,309.4 474.1,309.2 481.1,309.2 488.1,309.2 495.2,309.2 502.2,309.2 509.3,309.1 516.3,309.1 523.3,309.1 530.4,309.1 537.4,309.0 544.4,309.0 551.5,308.9 558.5,308.9 565.6,308.9 572.6,308.6 579.6,308.6 586.7,308.6 593.7,308.6 600.7,308.6 607.8,308.6 614.8,308.6 621.9,308.6 628.9,308.6 635.9,308.6 643.0,308.6 650.0,308.6 657.0,308.6 664.1,307.8 671.1,307.8 678.1,307.6 685.2,307.6 692.2,307.6 699.3,307.5 706.3,307.5 713.3,307.6 720.4,308.5 727.4,308.5 734.4,308.4 741.5,308.4 748.5,307.5 755.6,307.5 762.6,307.2 769.6,307.1 776.7,307.1 783.7,307.1 790.7,307.0 797.8,306.8 804.8,306.6 811.9,306.6 818.9,306.5 825.9,306.5 833.0,306.5 840.0,306.5" fill="none" stroke="#6eb6ec" stroke-width="2.5" stroke-linecap="round" stroke-linejoin="round" /><circle cx="80.0" cy="313.2" r="4" fill="#6eb6ec" /><circle cx="87.0" cy="312.2" r="4" fill="#6eb6ec" /><circle cx="94.1" cy="312.1" r="4" fill="#6eb6ec" /><circle cx="101.1" cy="312.4" r="4" fill="#6eb6ec" /><circle cx="108.1" cy="312.4" r="4" fill="#6eb6ec" /><circle cx="115.2" cy="312.4" r="4" fill="#6eb6ec" /><circle cx="122.2" cy="312.1" r="4" fill="#6eb6ec" /><circle cx="129.3" cy="312.0" r="4" fill="#6eb6ec" /><circle cx="136.3" cy="311.9" r="4" fill="#6eb6ec" /><circle cx="143.3" cy="311.9" r="4" fill="#6eb6ec" /><circle cx="150.4" cy="311.8" r="4" fill="#6eb6ec" /><circle cx="157.4" cy="311.8" r="4" fill="#6eb6ec" /><circle cx="164.4" cy="311.5" r="4" fill="#6eb6ec" /><circle cx="171.5" cy="311.5" r="4" fill="#6eb6ec" /><circle cx="178.5" cy="311.5" r="4" fill="#6eb6ec" /><circle cx="185.6" cy="311.2" r="4" fill="#6eb6ec" /><circle cx="192.6" cy="311.2" r="4" fill="#6eb6ec" /><circle cx="199.6" cy="311.1" r="4" fill="#6eb6ec" /><circle cx="206.7" cy="311.1" r="4" fill="#6eb6ec" /><circle cx="213.7" cy="311.1" r="4" fill="#6eb6ec" /><circle cx="220.7" cy="310.9" r="4" fill="#6eb6ec" /><circle cx="227.8" cy="311.0" r="4" fill="#6eb6ec" /><circle cx="234.8" cy="310.8" r="4" fill="#6eb6ec" /><circle cx="241.9" cy="310.8" r="4" fill="#6eb6ec" /><circle cx="248.9" cy="310.8" r="4" fill="#6eb6ec" /><circle cx="255.9" cy="310.8" r="4" fill="#6eb6ec" /><circle cx="263.0" cy="310.4" r="4" fill="#6eb6ec" /><circle cx="270.0" cy="310.2" r="4" fill="#6eb6ec" /><circle cx="277.0" cy="310.4" r="4" fill="#6eb6ec" /><circle cx="284.1" cy="310.4" r="4" fill="#6eb6ec" /><circle cx="291.1" cy="310.4" r="4" fill="#6eb6ec" /><circle cx="298.1" cy="310.4" r="4" fill="#6eb6ec" /><circle cx="305.2" cy="310.4" r="4" fill="#6eb6ec" /><circle cx="312.2" cy="310.2" r="4" fill="#6eb6ec" /><circle cx="319.3" cy="310.2" r="4" fill="#6eb6ec" /><circle cx="326.3" cy="310.1" r="4" fill="#6eb6ec" /><circle cx="333.3" cy="310.1" r="4" fill="#6eb6ec" /><circle cx="340.4" cy="309.8" r="4" fill="#6eb6ec" /><circle cx="347.4" cy="309.6" r="4" fill="#6eb6ec" /><circle cx="354.4" cy="309.6" r="4" fill="#6eb6ec" /><circle cx="361.5" cy="309.6" r="4" fill="#6eb6ec" /><circle cx="368.5" cy="309.6" r="4" fill="#6eb6ec" /><circle cx="375.6" cy="309.5" r="4" fill="#6eb6ec" /><circle cx="382.6" cy="309.4" r="4" fill="#6eb6ec" /><circle cx="389.6" cy="309.4" r="4" fill="#6eb6ec" /><circle cx="396.7" cy="309.4" r="4" fill="#6eb6ec" /><circle cx="403.7" cy="309.4" r="4" fill="#6eb6ec" /><circle cx="410.7" cy="309.2" r="4" fill="#6eb6ec" /><circle cx="417.8" cy="309.2" r="4" fill="#6eb6ec" /><circle cx="424.8" cy="309.2" r="4" fill="#6eb6ec" /><circle cx="431.9" cy="309.4" r="4" fill="#6eb6ec" /><circle cx="438.9" cy="309.4" r="4" fill="#6eb6ec" /><circle cx="445.9" cy="309.5" r="4" fill="#6eb6ec" /><circle cx="453.0" cy="309.2" r="4" fill="#6eb6ec" /><circle cx="460.0" cy="309.2" r="4" fill="#6eb6ec" /><circle cx="467.0" cy="309.4" r="4" fill="#6eb6ec" /><circle cx="474.1" cy="309.2" r="4" fill="#6eb6ec" /><circle cx="481.1" cy="309.2" r="4" fill="#6eb6ec" /><circle cx="488.1" cy="309.2" r="4" fill="#6eb6ec" /><circle cx="495.2" cy="309.2" r="4" fill="#6eb6ec" /><circle cx="502.2" cy="309.2" r="4" fill="#6eb6ec" /><circle cx="509.3" cy="309.1" r="4" fill="#6eb6ec" /><circle cx="516.3" cy="309.1" r="4" fill="#6eb6ec" /><circle cx="523.3" cy="309.1" r="4" fill="#6eb6ec" /><circle cx="530.4" cy="309.1" r="4" fill="#6eb6ec" /><circle cx="537.4" cy="309.0" r="4" fill="#6eb6ec" /><circle cx="544.4" cy="309.0" r="4" fill="#6eb6ec" /><circle cx="551.5" cy="308.9" r="4" fill="#6eb6ec" /><circle cx="558.5" cy="308.9" r="4" fill="#6eb6ec" /><circle cx="565.6" cy="308.9" r="4" fill="#6eb6ec" /><circle cx="572.6" cy="308.6" r="4" fill="#6eb6ec" /><circle cx="579.6" cy="308.6" r="4" fill="#6eb6ec" /><circle cx="586.7" cy="308.6" r="4" fill="#6eb6ec" /><circle cx="593.7" cy="308.6" r="4" fill="#6eb6ec" /><circle cx="600.7" cy="308.6" r="4" fill="#6eb6ec" /><circle cx="607.8" cy="308.6" r="4" fill="#6eb6ec" /><circle cx="614.8" cy="308.6" r="4" fill="#6eb6ec" /><circle cx="621.9" cy="308.6" r="4" fill="#6eb6ec" /><circle cx="628.9" cy="308.6" r="4" fill="#6eb6ec" /><circle cx="635.9" cy="308.6" r="4" fill="#6eb6ec" /><circle cx="643.0" cy="308.6" r="4" fill="#6eb6ec" /><circle cx="650.0" cy="308.6" r="4" fill="#6eb6ec" /><circle cx="657.0" cy="308.6" r="4" fill="#6eb6ec" /><circle cx="664.1" cy="307.8" r="4" fill="#6eb6ec" /><circle cx="671.1" cy="307.8" r="4" fill="#6eb6ec" /><circle cx="678.1" cy="307.6" r="4" fill="#6eb6ec" /><circle cx="685.2" cy="307.6" r="4" fill="#6eb6ec" /><circle cx="692.2" cy="307.6" r="4" fill="#6eb6ec" /><circle cx="699.3" cy="307.5" r="4" fill="#6eb6ec" /><circle cx="706.3" cy="307.5" r="4" fill="#6eb6ec" /><circle cx="713.3" cy="307.6" r="4" fill="#6eb6ec" /><circle cx="720.4" cy="308.5" r="4" fill="#6eb6ec" /><circle cx="727.4" cy="308.5" r="4" fill="#6eb6ec" /><circle cx="734.4" cy="308.4" r="4" fill="#6eb6ec" /><circle cx="741.5" cy="308.4" r="4" fill="#6eb6ec" /><circle cx="748.5" cy="307.5" r="4" fill="#6eb6ec" /><circle cx="755.6" cy="307.5" r="4" fill="#6eb6ec" /><circle cx="762.6" cy="307.2" r="4" fill="#6eb6ec" /><circle cx="769.6" cy="307.1" r="4" fill="#6eb6ec" /><circle cx="776.7" cy="307.1" r="4" fill="#6eb6ec" /><circle cx="783.7" cy="307.1" r="4" fill="#6eb6ec" /><circle cx="790.7" cy="307.0" r="4" fill="#6eb6ec" /><circle cx="797.8" cy="306.8" r="4" fill="#6eb6ec" /><circle cx="804.8" cy="306.6" r="4" fill="#6eb6ec" /><circle cx="811.9" cy="306.6" r="4" fill="#6eb6ec" /><circle cx="818.9" cy="306.5" r="4" fill="#6eb6ec" /><circle cx="825.9" cy="306.5" r="4" fill="#6eb6ec" /><circle cx="833.0" cy="306.5" r="4" fill="#6eb6ec" /><circle cx="840.0" cy="306.5" r="4" fill="#6eb6ec" /><polyline points="80.0,305.8 87.0,305.8 94.1,305.8 101.1,305.8 108.1,305.8 115.2,305.8 122.2,305.8 129.3,305.8 136.3,305.8 143.3,305.8 150.4,304.9 157.4,304.9 164.4,304.9 171.5,304.9 178.5,304.9 185.6,304.9 192.6,304.9 199.6,304.9 206.7,304.9 213.7,304.9 220.7,304.9 227.8,304.9 234.8,304.9 241.9,304.9 248.9,304.9 255.9,304.9 263.0,304.9 270.0,304.9 277.0,304.9 284.1,304.9 291.1,304.9 298.1,304.9 305.2,304.9 312.2,304.9 319.3,304.9 326.3,304.9 333.3,304.9 340.4,303.6 347.4,303.6 354.4,303.6 361.5,303.6 368.5,303.6 375.6,303.6 382.6,303.6 389.6,303.6 396.7,303.6 403.7,303.6 410.7,303.6 417.8,303.6 424.8,303.6 431.9,303.6 438.9,302.9 445.9,302.9 453.0,298.0 460.0,298.0 467.0,298.0 474.1,298.0 481.1,298.0 488.1,298.0 495.2,298.0 502.2,298.0 509.3,298.0 516.3,298.0 523.3,298.0 530.4,298.0 537.4,298.0 544.4,298.0 551.5,297.8 558.5,297.8 565.6,297.8 572.6,297.8 579.6,297.8 586.7,297.8 593.7,297.8 600.7,297.8 607.8,297.8 614.8,297.8 621.9,297.8 628.9,297.8 635.9,297.8 643.0,297.8 650.0,297.8 657.0,297.8 664.1,297.8 671.1,297.8 678.1,297.8 685.2,297.6 692.2,297.8 699.3,297.8 706.3,297.8 713.3,297.9 720.4,297.9 727.4,297.9 734.4,296.1 741.5,296.1 748.5,296.1 755.6,296.1 762.6,296.1 769.6,296.1 776.7,296.1 783.7,296.1 790.7,296.1 797.8,296.1 804.8,295.0 811.9,295.0 818.9,295.0 825.9,295.0 833.0,295.0 840.0,295.0" fill="none" stroke="#5938e2" stroke-width="2.5" stroke-linecap="round" stroke-linejoin="round" /><circle cx="80.0" cy="305.8" r="4" fill="#5938e2" /><circle cx="87.0" cy="305.8" r="4" fill="#5938e2" /><circle cx="94.1" cy="305.8" r="4" fill="#5938e2" /><circle cx="101.1" cy="305.8" r="4" fill="#5938e2" /><circle cx="108.1" cy="305.8" r="4" fill="#5938e2" /><circle cx="115.2" cy="305.8" r="4" fill="#5938e2" /><circle cx="122.2" cy="305.8" r="4" fill="#5938e2" /><circle cx="129.3" cy="305.8" r="4" fill="#5938e2" /><circle cx="136.3" cy="305.8" r="4" fill="#5938e2" /><circle cx="143.3" cy="305.8" r="4" fill="#5938e2" /><circle cx="150.4" cy="304.9" r="4" fill="#5938e2" /><circle cx="157.4" cy="304.9" r="4" fill="#5938e2" /><circle cx="164.4" cy="304.9" r="4" fill="#5938e2" /><circle cx="171.5" cy="304.9" r="4" fill="#5938e2" /><circle cx="178.5" cy="304.9" r="4" fill="#5938e2" /><circle cx="185.6" cy="304.9" r="4" fill="#5938e2" /><circle cx="192.6" cy="304.9" r="4" fill="#5938e2" /><circle cx="199.6" cy="304.9" r="4" fill="#5938e2" /><circle cx="206.7" cy="304.9" r="4" fill="#5938e2" /><circle cx="213.7" cy="304.9" r="4" fill="#5938e2" /><circle cx="220.7" cy="304.9" r="4" fill="#5938e2" /><circle cx="227.8" cy="304.9" r="4" fill="#5938e2" /><circle cx="234.8" cy="304.9" r="4" fill="#5938e2" /><circle cx="241.9" cy="304.9" r="4" fill="#5938e2" /><circle cx="248.9" cy="304.9" r="4" fill="#5938e2" /><circle cx="255.9" cy="304.9" r="4" fill="#5938e2" /><circle cx="263.0" cy="304.9" r="4" fill="#5938e2" /><circle cx="270.0" cy="304.9" r="4" fill="#5938e2" /><circle cx="277.0" cy="304.9" r="4" fill="#5938e2" /><circle cx="284.1" cy="304.9" r="4" fill="#5938e2" /><circle cx="291.1" cy="304.9" r="4" fill="#5938e2" /><circle cx="298.1" cy="304.9" r="4" fill="#5938e2" /><circle cx="305.2" cy="304.9" r="4" fill="#5938e2" /><circle cx="312.2" cy="304.9" r="4" fill="#5938e2" /><circle cx="319.3" cy="304.9" r="4" fill="#5938e2" /><circle cx="326.3" cy="304.9" r="4" fill="#5938e2" /><circle cx="333.3" cy="304.9" r="4" fill="#5938e2" /><circle cx="340.4" cy="303.6" r="4" fill="#5938e2" /><circle cx="347.4" cy="303.6" r="4" fill="#5938e2" /><circle cx="354.4" cy="303.6" r="4" fill="#5938e2" /><circle cx="361.5" cy="303.6" r="4" fill="#5938e2" /><circle cx="368.5" cy="303.6" r="4" fill="#5938e2" /><circle cx="375.6" cy="303.6" r="4" fill="#5938e2" /><circle cx="382.6" cy="303.6" r="4" fill="#5938e2" /><circle cx="389.6" cy="303.6" r="4" fill="#5938e2" /><circle cx="396.7" cy="303.6" r="4" fill="#5938e2" /><circle cx="403.7" cy="303.6" r="4" fill="#5938e2" /><circle cx="410.7" cy="303.6" r="4" fill="#5938e2" /><circle cx="417.8" cy="303.6" r="4" fill="#5938e2" /><circle cx="424.8" cy="303.6" r="4" fill="#5938e2" /><circle cx="431.9" cy="303.6" r="4" fill="#5938e2" /><circle cx="438.9" cy="302.9" r="4" fill="#5938e2" /><circle cx="445.9" cy="302.9" r="4" fill="#5938e2" /><circle cx="453.0" cy="298.0" r="4" fill="#5938e2" /><circle cx="460.0" cy="298.0" r="4" fill="#5938e2" /><circle cx="467.0" cy="298.0" r="4" fill="#5938e2" /><circle cx="474.1" cy="298.0" r="4" fill="#5938e2" /><circle cx="481.1" cy="298.0" r="4" fill="#5938e2" /><circle cx="488.1" cy="298.0" r="4" fill="#5938e2" /><circle cx="495.2" cy="298.0" r="4" fill="#5938e2" /><circle cx="502.2" cy="298.0" r="4" fill="#5938e2" /><circle cx="509.3" cy="298.0" r="4" fill="#5938e2" /><circle cx="516.3" cy="298.0" r="4" fill="#5938e2" /><circle cx="523.3" cy="298.0" r="4" fill="#5938e2" /><circle cx="530.4" cy="298.0" r="4" fill="#5938e2" /><circle cx="537.4" cy="298.0" r="4" fill="#5938e2" /><circle cx="544.4" cy="298.0" r="4" fill="#5938e2" /><circle cx="551.5" cy="297.8" r="4" fill="#5938e2" /><circle cx="558.5" cy="297.8" r="4" fill="#5938e2" /><circle cx="565.6" cy="297.8" r="4" fill="#5938e2" /><circle cx="572.6" cy="297.8" r="4" fill="#5938e2" /><circle cx="579.6" cy="297.8" r="4" fill="#5938e2" /><circle cx="586.7" cy="297.8" r="4" fill="#5938e2" /><circle cx="593.7" cy="297.8" r="4" fill="#5938e2" /><circle cx="600.7" cy="297.8" r="4" fill="#5938e2" /><circle cx="607.8" cy="297.8" r="4" fill="#5938e2" /><circle cx="614.8" cy="297.8" r="4" fill="#5938e2" /><circle cx="621.9" cy="297.8" r="4" fill="#5938e2" /><circle cx="628.9" cy="297.8" r="4" fill="#5938e2" /><circle cx="635.9" cy="297.8" r="4" fill="#5938e2" /><circle cx="643.0" cy="297.8" r="4" fill="#5938e2" /><circle cx="650.0" cy="297.8" r="4" fill="#5938e2" /><circle cx="657.0" cy="297.8" r="4" fill="#5938e2" /><circle cx="664.1" cy="297.8" r="4" fill="#5938e2" /><circle cx="671.1" cy="297.8" r="4" fill="#5938e2" /><circle cx="678.1" cy="297.8" r="4" fill="#5938e2" /><circle cx="685.2" cy="297.6" r="4" fill="#5938e2" /><circle cx="692.2" cy="297.8" r="4" fill="#5938e2" /><circle cx="699.3" cy="297.8" r="4" fill="#5938e2" /><circle cx="706.3" cy="297.8" r="4" fill="#5938e2" /><circle cx="713.3" cy="297.9" r="4" fill="#5938e2" /><circle cx="720.4" cy="297.9" r="4" fill="#5938e2" /><circle cx="727.4" cy="297.9" r="4" fill="#5938e2" /><circle cx="734.4" cy="296.1" r="4" fill="#5938e2" /><circle cx="741.5" cy="296.1" r="4" fill="#5938e2" /><circle cx="748.5" cy="296.1" r="4" fill="#5938e2" /><circle cx="755.6" cy="296.1" r="4" fill="#5938e2" /><circle cx="762.6" cy="296.1" r="4" fill="#5938e2" /><circle cx="769.6" cy="296.1" r="4" fill="#5938e2" /><circle cx="776.7" cy="296.1" r="4" fill="#5938e2" /><circle cx="783.7" cy="296.1" r="4" fill="#5938e2" /><circle cx="790.7" cy="296.1" r="4" fill="#5938e2" /><circle cx="797.8" cy="296.1" r="4" fill="#5938e2" /><circle cx="804.8" cy="295.0" r="4" fill="#5938e2" /><circle cx="811.9" cy="295.0" r="4" fill="#5938e2" /><circle cx="818.9" cy="295.0" r="4" fill="#5938e2" /><circle cx="825.9" cy="295.0" r="4" fill="#5938e2" /><circle cx="833.0" cy="295.0" r="4" fill="#5938e2" /><circle cx="840.0" cy="295.0" r="4" fill="#5938e2" /><polyline points="80.0,144.6 87.0,140.1 94.1,139.9 101.1,139.8 108.1,139.8 115.2,139.6 122.2,139.6 129.3,139.6 136.3,139.6 143.3,139.6 150.4,138.4 157.4,138.4 164.4,138.4 171.5,138.4 178.5,138.4 185.6,138.4 192.6,138.4 199.6,137.4 206.7,137.4 213.7,137.4 220.7,137.4 227.8,137.4 234.8,137.4 241.9,137.4 248.9,137.4 255.9,137.4 263.0,137.4 270.0,137.4 277.0,131.2 284.1,131.2 291.1,130.8 298.1,130.4 305.2,126.9 312.2,126.9 319.3,126.9 326.3,126.9 333.3,126.9 340.4,126.9 347.4,126.9 354.4,126.9 361.5,126.9 368.5,126.8 375.6,122.1 382.6,120.4 389.6,120.4 396.7,120.4 403.7,120.4 410.7,120.4 417.8,119.4 424.8,119.4 431.9,119.4 438.9,119.4 445.9,119.1 453.0,118.8 460.0,118.8 467.0,117.8 474.1,117.8 481.1,117.8 488.1,115.8 495.2,115.8 502.2,115.0 509.3,115.0 516.3,115.0 523.3,115.0 530.4,115.0 537.4,115.0 544.4,115.0 551.5,113.9 558.5,111.8 565.6,111.8 572.6,111.8 579.6,111.8 586.7,111.8 593.7,111.8 600.7,111.8 607.8,111.8 614.8,111.8 621.9,111.8 628.9,110.6 635.9,110.6 643.0,110.6 650.0,110.6 657.0,110.6 664.1,109.4 671.1,109.4 678.1,109.4 685.2,109.4 692.2,109.2 699.3,109.2 706.3,109.2 713.3,109.2 720.4,109.2 727.4,109.2 734.4,109.2 741.5,109.2 748.5,109.2 755.6,109.2 762.6,109.2 769.6,109.2 776.7,109.2 783.7,109.2 790.7,109.2 797.8,109.1 804.8,103.5 811.9,103.5 818.9,103.5 825.9,101.5 833.0,101.5 840.0,101.5" fill="none" stroke="#60e5e0" stroke-width="2.5" stroke-linecap="round" stroke-linejoin="round" /><circle cx="80.0" cy="144.6" r="4" fill="#60e5e0" /><circle cx="87.0" cy="140.1" r="4" fill="#60e5e0" /><circle cx="94.1" cy="139.9" r="4" fill="#60e5e0" /><circle cx="101.1" cy="139.8" r="4" fill="#60e5e0" /><circle cx="108.1" cy="139.8" r="4" fill="#60e5e0" /><circle cx="115.2" cy="139.6" r="4" fill="#60e5e0" /><circle cx="122.2" cy="139.6" r="4" fill="#60e5e0" /><circle cx="129.3" cy="139.6" r="4" fill="#60e5e0" /><circle cx="136.3" cy="139.6" r="4" fill="#60e5e0" /><circle cx="143.3" cy="139.6" r="4" fill="#60e5e0" /><circle cx="150.4" cy="138.4" r="4" fill="#60e5e0" /><circle cx="157.4" cy="138.4" r="4" fill="#60e5e0" /><circle cx="164.4" cy="138.4" r="4" fill="#60e5e0" /><circle cx="171.5" cy="138.4" r="4" fill="#60e5e0" /><circle cx="178.5" cy="138.4" r="4" fill="#60e5e0" /><circle cx="185.6" cy="138.4" r="4" fill="#60e5e0" /><circle cx="192.6" cy="138.4" r="4" fill="#60e5e0" /><circle cx="199.6" cy="137.4" r="4" fill="#60e5e0" /><circle cx="206.7" cy="137.4" r="4" fill="#60e5e0" /><circle cx="213.7" cy="137.4" r="4" fill="#60e5e0" /><circle cx="220.7" cy="137.4" r="4" fill="#60e5e0" /><circle cx="227.8" cy="137.4" r="4" fill="#60e5e0" /><circle cx="234.8" cy="137.4" r="4" fill="#60e5e0" /><circle cx="241.9" cy="137.4" r="4" fill="#60e5e0" /><circle cx="248.9" cy="137.4" r="4" fill="#60e5e0" /><circle cx="255.9" cy="137.4" r="4" fill="#60e5e0" /><circle cx="263.0" cy="137.4" r="4" fill="#60e5e0" /><circle cx="270.0" cy="137.4" r="4" fill="#60e5e0" /><circle cx="277.0" cy="131.2" r="4" fill="#60e5e0" /><circle cx="284.1" cy="131.2" r="4" fill="#60e5e0" /><circle cx="291.1" cy="130.8" r="4" fill="#60e5e0" /><circle cx="298.1" cy="130.4" r="4" fill="#60e5e0" /><circle cx="305.2" cy="126.9" r="4" fill="#60e5e0" /><circle cx="312.2" cy="126.9" r="4" fill="#60e5e0" /><circle cx="319.3" cy="126.9" r="4" fill="#60e5e0" /><circle cx="326.3" cy="126.9" r="4" fill="#60e5e0" /><circle cx="333.3" cy="126.9" r="4" fill="#60e5e0" /><circle cx="340.4" cy="126.9" r="4" fill="#60e5e0" /><circle cx="347.4" cy="126.9" r="4" fill="#60e5e0" /><circle cx="354.4" cy="126.9" r="4" fill="#60e5e0" /><circle cx="361.5" cy="126.9" r="4" fill="#60e5e0" /><circle cx="368.5" cy="126.8" r="4" fill="#60e5e0" /><circle cx="375.6" cy="122.1" r="4" fill="#60e5e0" /><circle cx="382.6" cy="120.4" r="4" fill="#60e5e0" /><circle cx="389.6" cy="120.4" r="4" fill="#60e5e0" /><circle cx="396.7" cy="120.4" r="4" fill="#60e5e0" /><circle cx="403.7" cy="120.4" r="4" fill="#60e5e0" /><circle cx="410.7" cy="120.4" r="4" fill="#60e5e0" /><circle cx="417.8" cy="119.4" r="4" fill="#60e5e0" /><circle cx="424.8" cy="119.4" r="4" fill="#60e5e0" /><circle cx="431.9" cy="119.4" r="4" fill="#60e5e0" /><circle cx="438.9" cy="119.4" r="4" fill="#60e5e0" /><circle cx="445.9" cy="119.1" r="4" fill="#60e5e0" /><circle cx="453.0" cy="118.8" r="4" fill="#60e5e0" /><circle cx="460.0" cy="118.8" r="4" fill="#60e5e0" /><circle cx="467.0" cy="117.8" r="4" fill="#60e5e0" /><circle cx="474.1" cy="117.8" r="4" fill="#60e5e0" /><circle cx="481.1" cy="117.8" r="4" fill="#60e5e0" /><circle cx="488.1" cy="115.8" r="4" fill="#60e5e0" /><circle cx="495.2" cy="115.8" r="4" fill="#60e5e0" /><circle cx="502.2" cy="115.0" r="4" fill="#60e5e0" /><circle cx="509.3" cy="115.0" r="4" fill="#60e5e0" /><circle cx="516.3" cy="115.0" r="4" fill="#60e5e0" /><circle cx="523.3" cy="115.0" r="4" fill="#60e5e0" /><circle cx="530.4" cy="115.0" r="4" fill="#60e5e0" /><circle cx="537.4" cy="115.0" r="4" fill="#60e5e0" /><circle cx="544.4" cy="115.0" r="4" fill="#60e5e0" /><circle cx="551.5" cy="113.9" r="4" fill="#60e5e0" /><circle cx="558.5" cy="111.8" r="4" fill="#60e5e0" /><circle cx="565.6" cy="111.8" r="4" fill="#60e5e0" /><circle cx="572.6" cy="111.8" r="4" fill="#60e5e0" /><circle cx="579.6" cy="111.8" r="4" fill="#60e5e0" /><circle cx="586.7" cy="111.8" r="4" fill="#60e5e0" /><circle cx="593.7" cy="111.8" r="4" fill="#60e5e0" /><circle cx="600.7" cy="111.8" r="4" fill="#60e5e0" /><circle cx="607.8" cy="111.8" r="4" fill="#60e5e0" /><circle cx="614.8" cy="111.8" r="4" fill="#60e5e0" /><circle cx="621.9" cy="111.8" r="4" fill="#60e5e0" /><circle cx="628.9" cy="110.6" r="4" fill="#60e5e0" /><circle cx="635.9" cy="110.6" r="4" fill="#60e5e0" /><circle cx="643.0" cy="110.6" r="4" fill="#60e5e0" /><circle cx="650.0" cy="110.6" r="4" fill="#60e5e0" /><circle cx="657.0" cy="110.6" r="4" fill="#60e5e0" /><circle cx="664.1" cy="109.4" r="4" fill="#60e5e0" /><circle cx="671.1" cy="109.4" r="4" fill="#60e5e0" /><circle cx="678.1" cy="109.4" r="4" fill="#60e5e0" /><circle cx="685.2" cy="109.4" r="4" fill="#60e5e0" /><circle cx="692.2" cy="109.2" r="4" fill="#60e5e0" /><circle cx="699.3" cy="109.2" r="4" fill="#60e5e0" /><circle cx="706.3" cy="109.2" r="4" fill="#60e5e0" /><circle cx="713.3" cy="109.2" r="4" fill="#60e5e0" /><circle cx="720.4" cy="109.2" r="4" fill="#60e5e0" /><circle cx="727.4" cy="109.2" r="4" fill="#60e5e0" /><circle cx="734.4" cy="109.2" r="4" fill="#60e5e0" /><circle cx="741.5" cy="109.2" r="4" fill="#60e5e0" /><circle cx="748.5" cy="109.2" r="4" fill="#60e5e0" /><circle cx="755.6" cy="109.2" r="4" fill="#60e5e0" /><circle cx="762.6" cy="109.2" r="4" fill="#60e5e0" /><circle cx="769.6" cy="109.2" r="4" fill="#60e5e0" /><circle cx="776.7" cy="109.2" r="4" fill="#60e5e0" /><circle cx="783.7" cy="109.2" r="4" fill="#60e5e0" /><circle cx="790.7" cy="109.2" r="4" fill="#60e5e0" /><circle cx="797.8" cy="109.1" r="4" fill="#60e5e0" /><circle cx="804.8" cy="103.5" r="4" fill="#60e5e0" /><circle cx="811.9" cy="103.5" r="4" fill="#60e5e0" /><circle cx="818.9" cy="103.5" r="4" fill="#60e5e0" /><circle cx="825.9" cy="101.5" r="4" fill="#60e5e0" /><circle cx="833.0" cy="101.5" r="4" fill="#60e5e0" /><circle cx="840.0" cy="101.5" r="4" fill="#60e5e0" /><polyline points="80.0,314.6 87.0,314.4 94.1,314.2 101.1,314.2 108.1,314.2 115.2,314.1 122.2,314.1 129.3,314.1 136.3,314.1 143.3,314.1 150.4,314.0 157.4,314.0 164.4,314.0 171.5,314.0 178.5,314.0 185.6,314.0 192.6,314.0 199.6,314.0 206.7,314.0 213.7,314.0 220.7,314.0 227.8,314.0 234.8,314.0 241.9,314.0 248.9,314.0 255.9,314.0 263.0,314.0 270.0,314.0 277.0,314.0 284.1,314.0 291.1,314.0 298.1,314.0 305.2,314.0 312.2,314.0 319.3,314.0 326.3,314.0 333.3,314.0 340.4,314.0 347.4,314.0 354.4,314.0 361.5,314.0 368.5,313.9 375.6,313.6 382.6,313.4 389.6,313.4 396.7,313.4 403.7,313.4 410.7,313.4 417.8,313.1 424.8,313.1 431.9,313.1 438.9,313.1 445.9,313.1 453.0,313.0 460.0,313.0 467.0,312.9 474.1,312.9 481.1,312.9 488.1,312.8 495.2,312.8 502.2,312.6 509.3,312.6 516.3,312.6 523.3,312.6 530.4,312.6 537.4,312.6 544.4,312.6 551.5,312.5 558.5,312.1 565.6,312.1 572.6,312.1 579.6,312.1 586.7,312.1 593.7,312.1 600.7,312.1 607.8,312.1 614.8,312.1 621.9,312.1 628.9,312.0 635.9,312.0 643.0,312.0 650.0,312.0 657.0,312.0 664.1,312.0 671.1,312.0 678.1,312.0 685.2,312.0 692.2,312.0 699.3,312.0 706.3,312.0 713.3,312.0 720.4,312.0 727.4,312.0 734.4,312.0 741.5,312.0 748.5,312.0 755.6,312.0 762.6,312.0 769.6,312.0 776.7,312.0 783.7,312.0 790.7,312.0 797.8,312.0 804.8,311.9 811.9,311.9 818.9,311.9 825.9,311.8 833.0,311.8 840.0,311.8" fill="none" stroke="#567de1" stroke-width="2.5" stroke-linecap="round" stroke-linejoin="round" /><circle cx="80.0" cy="314.6" r="4" fill="#567de1" /><circle cx="87.0" cy="314.4" r="4" fill="#567de1" /><circle cx="94.1" cy="314.2" r="4" fill="#567de1" /><circle cx="101.1" cy="314.2" r="4" fill="#567de1" /><circle cx="108.1" cy="314.2" r="4" fill="#567de1" /><circle cx="115.2" cy="314.1" r="4" fill="#567de1" /><circle cx="122.2" cy="314.1" r="4" fill="#567de1" /><circle cx="129.3" cy="314.1" r="4" fill="#567de1" /><circle cx="136.3" cy="314.1" r="4" fill="#567de1" /><circle cx="143.3" cy="314.1" r="4" fill="#567de1" /><circle cx="150.4" cy="314.0" r="4" fill="#567de1" /><circle cx="157.4" cy="314.0" r="4" fill="#567de1" /><circle cx="164.4" cy="314.0" r="4" fill="#567de1" /><circle cx="171.5" cy="314.0" r="4" fill="#567de1" /><circle cx="178.5" cy="314.0" r="4" fill="#567de1" /><circle cx="185.6" cy="314.0" r="4" fill="#567de1" /><circle cx="192.6" cy="314.0" r="4" fill="#567de1" /><circle cx="199.6" cy="314.0" r="4" fill="#567de1" /><circle cx="206.7" cy="314.0" r="4" fill="#567de1" /><circle cx="213.7" cy="314.0" r="4" fill="#567de1" /><circle cx="220.7" cy="314.0" r="4" fill="#567de1" /><circle cx="227.8" cy="314.0" r="4" fill="#567de1" /><circle cx="234.8" cy="314.0" r="4" fill="#567de1" /><circle cx="241.9" cy="314.0" r="4" fill="#567de1" /><circle cx="248.9" cy="314.0" r="4" fill="#567de1" /><circle cx="255.9" cy="314.0" r="4" fill="#567de1" /><circle cx="263.0" cy="314.0" r="4" fill="#567de1" /><circle cx="270.0" cy="314.0" r="4" fill="#567de1" /><circle cx="277.0" cy="314.0" r="4" fill="#567de1" /><circle cx="284.1" cy="314.0" r="4" fill="#567de1" /><circle cx="291.1" cy="314.0" r="4" fill="#567de1" /><circle cx="298.1" cy="314.0" r="4" fill="#567de1" /><circle cx="305.2" cy="314.0" r="4" fill="#567de1" /><circle cx="312.2" cy="314.0" r="4" fill="#567de1" /><circle cx="319.3" cy="314.0" r="4" fill="#567de1" /><circle cx="326.3" cy="314.0" r="4" fill="#567de1" /><circle cx="333.3" cy="314.0" r="4" fill="#567de1" /><circle cx="340.4" cy="314.0" r="4" fill="#567de1" /><circle cx="347.4" cy="314.0" r="4" fill="#567de1" /><circle cx="354.4" cy="314.0" r="4" fill="#567de1" /><circle cx="361.5" cy="314.0" r="4" fill="#567de1" /><circle cx="368.5" cy="313.9" r="4" fill="#567de1" /><circle cx="375.6" cy="313.6" r="4" fill="#567de1" /><circle cx="382.6" cy="313.4" r="4" fill="#567de1" /><circle cx="389.6" cy="313.4" r="4" fill="#567de1" /><circle cx="396.7" cy="313.4" r="4" fill="#567de1" /><circle cx="403.7" cy="313.4" r="4" fill="#567de1" /><circle cx="410.7" cy="313.4" r="4" fill="#567de1" /><circle cx="417.8" cy="313.1" r="4" fill="#567de1" /><circle cx="424.8" cy="313.1" r="4" fill="#567de1" /><circle cx="431.9" cy="313.1" r="4" fill="#567de1" /><circle cx="438.9" cy="313.1" r="4" fill="#567de1" /><circle cx="445.9" cy="313.1" r="4" fill="#567de1" /><circle cx="453.0" cy="313.0" r="4" fill="#567de1" /><circle cx="460.0" cy="313.0" r="4" fill="#567de1" /><circle cx="467.0" cy="312.9" r="4" fill="#567de1" /><circle cx="474.1" cy="312.9" r="4" fill="#567de1" /><circle cx="481.1" cy="312.9" r="4" fill="#567de1" /><circle cx="488.1" cy="312.8" r="4" fill="#567de1" /><circle cx="495.2" cy="312.8" r="4" fill="#567de1" /><circle cx="502.2" cy="312.6" r="4" fill="#567de1" /><circle cx="509.3" cy="312.6" r="4" fill="#567de1" /><circle cx="516.3" cy="312.6" r="4" fill="#567de1" /><circle cx="523.3" cy="312.6" r="4" fill="#567de1" /><circle cx="530.4" cy="312.6" r="4" fill="#567de1" /><circle cx="537.4" cy="312.6" r="4" fill="#567de1" /><circle cx="544.4" cy="312.6" r="4" fill="#567de1" /><circle cx="551.5" cy="312.5" r="4" fill="#567de1" /><circle cx="558.5" cy="312.1" r="4" fill="#567de1" /><circle cx="565.6" cy="312.1" r="4" fill="#567de1" /><circle cx="572.6" cy="312.1" r="4" fill="#567de1" /><circle cx="579.6" cy="312.1" r="4" fill="#567de1" /><circle cx="586.7" cy="312.1" r="4" fill="#567de1" /><circle cx="593.7" cy="312.1" r="4" fill="#567de1" /><circle cx="600.7" cy="312.1" r="4" fill="#567de1" /><circle cx="607.8" cy="312.1" r="4" fill="#567de1" /><circle cx="614.8" cy="312.1" r="4" fill="#567de1" /><circle cx="621.9" cy="312.1" r="4" fill="#567de1" /><circle cx="628.9" cy="312.0" r="4" fill="#567de1" /><circle cx="635.9" cy="312.0" r="4" fill="#567de1" /><circle cx="643.0" cy="312.0" r="4" fill="#567de1" /><circle cx="650.0" cy="312.0" r="4" fill="#567de1" /><circle cx="657.0" cy="312.0" r="4" fill="#567de1" /><circle cx="664.1" cy="312.0" r="4" fill="#567de1" /><circle cx="671.1" cy="312.0" r="4" fill="#567de1" /><circle cx="678.1" cy="312.0" r="4" fill="#567de1" /><circle cx="685.2" cy="312.0" r="4" fill="#567de1" /><circle cx="692.2" cy="312.0" r="4" fill="#567de1" /><circle cx="699.3" cy="312.0" r="4" fill="#567de1" /><circle cx="706.3" cy="312.0" r="4" fill="#567de1" /><circle cx="713.3" cy="312.0" r="4" fill="#567de1" /><circle cx="720.4" cy="312.0" r="4" fill="#567de1" /><circle cx="727.4" cy="312.0" r="4" fill="#567de1" /><circle cx="734.4" cy="312.0" r="4" fill="#567de1" /><circle cx="741.5" cy="312.0" r="4" fill="#567de1" /><circle cx="748.5" cy="312.0" r="4" fill="#567de1" /><circle cx="755.6" cy="312.0" r="4" fill="#567de1" /><circle cx="762.6" cy="312.0" r="4" fill="#567de1" /><circle cx="769.6" cy="312.0" r="4" fill="#567de1" /><circle cx="776.7" cy="312.0" r="4" fill="#567de1" /><circle cx="783.7" cy="312.0" r="4" fill="#567de1" /><circle cx="790.7" cy="312.0" r="4" fill="#567de1" /><circle cx="797.8" cy="312.0" r="4" fill="#567de1" /><circle cx="804.8" cy="311.9" r="4" fill="#567de1" /><circle cx="811.9" cy="311.9" r="4" fill="#567de1" /><circle cx="818.9" cy="311.9" r="4" fill="#567de1" /><circle cx="825.9" cy="311.8" r="4" fill="#567de1" /><circle cx="833.0" cy="311.8" r="4" fill="#567de1" /><circle cx="840.0" cy="311.8" r="4" fill="#567de1" /><polyline points="80.0,303.9 87.0,304.2 94.1,304.4 101.1,304.4 108.1,304.4 115.2,304.4 122.2,304.4 129.3,304.4 136.3,304.4 143.3,304.4 150.4,304.4 157.4,304.4 164.4,304.4 171.5,304.4 178.5,304.4 185.6,304.4 192.6,304.4 199.6,304.4 206.7,304.4 213.7,304.4 220.7,304.4 227.8,304.4 234.8,304.4 241.9,304.4 248.9,304.4 255.9,304.4 263.0,304.4 270.0,304.4 277.0,299.1 284.1,299.1 291.1,299.1 298.1,298.9 305.2,295.6 312.2,295.6 319.3,295.6 326.3,295.6 333.3,295.6 340.4,295.6 347.4,295.6 354.4,295.6 361.5,295.6 368.5,295.8 375.6,295.9 382.6,295.9 389.6,295.9 396.7,295.9 403.7,295.9 410.7,295.9 417.8,295.9 424.8,295.9 431.9,295.9 438.9,295.9 445.9,295.9 453.0,295.9 460.0,295.9 467.0,295.9 474.1,295.9 481.1,295.9 488.1,295.8 495.2,295.8 502.2,295.9 509.3,295.9 516.3,295.9 523.3,295.9 530.4,295.9 537.4,295.9 544.4,295.9 551.5,296.0 558.5,296.4 565.6,296.4 572.6,296.4 579.6,296.4 586.7,296.4 593.7,296.4 600.7,296.4 607.8,296.4 614.8,296.4 621.9,296.4 628.9,296.5 635.9,296.5 643.0,296.5 650.0,296.5 657.0,296.5 664.1,296.5 671.1,296.5 678.1,296.5 685.2,296.5 692.2,296.5 699.3,296.5 706.3,296.5 713.3,296.5 720.4,296.5 727.4,296.5 734.4,296.5 741.5,296.5 748.5,296.5 755.6,296.5 762.6,296.5 769.6,296.5 776.7,296.5 783.7,296.5 790.7,296.5 797.8,296.5 804.8,295.0 811.9,295.0 818.9,295.0 825.9,295.1 833.0,295.1 840.0,295.1" fill="none" stroke="#9754dd" stroke-width="2.5" stroke-linecap="round" stroke-linejoin="round" /><circle cx="80.0" cy="303.9" r="4" fill="#9754dd" /><circle cx="87.0" cy="304.2" r="4" fill="#9754dd" /><circle cx="94.1" cy="304.4" r="4" fill="#9754dd" /><circle cx="101.1" cy="304.4" r="4" fill="#9754dd" /><circle cx="108.1" cy="304.4" r="4" fill="#9754dd" /><circle cx="115.2" cy="304.4" r="4" fill="#9754dd" /><circle cx="122.2" cy="304.4" r="4" fill="#9754dd" /><circle cx="129.3" cy="304.4" r="4" fill="#9754dd" /><circle cx="136.3" cy="304.4" r="4" fill="#9754dd" /><circle cx="143.3" cy="304.4" r="4" fill="#9754dd" /><circle cx="150.4" cy="304.4" r="4" fill="#9754dd" /><circle cx="157.4" cy="304.4" r="4" fill="#9754dd" /><circle cx="164.4" cy="304.4" r="4" fill="#9754dd" /><circle cx="171.5" cy="304.4" r="4" fill="#9754dd" /><circle cx="178.5" cy="304.4" r="4" fill="#9754dd" /><circle cx="185.6" cy="304.4" r="4" fill="#9754dd" /><circle cx="192.6" cy="304.4" r="4" fill="#9754dd" /><circle cx="199.6" cy="304.4" r="4" fill="#9754dd" /><circle cx="206.7" cy="304.4" r="4" fill="#9754dd" /><circle cx="213.7" cy="304.4" r="4" fill="#9754dd" /><circle cx="220.7" cy="304.4" r="4" fill="#9754dd" /><circle cx="227.8" cy="304.4" r="4" fill="#9754dd" /><circle cx="234.8" cy="304.4" r="4" fill="#9754dd" /><circle cx="241.9" cy="304.4" r="4" fill="#9754dd" /><circle cx="248.9" cy="304.4" r="4" fill="#9754dd" /><circle cx="255.9" cy="304.4" r="4" fill="#9754dd" /><circle cx="263.0" cy="304.4" r="4" fill="#9754dd" /><circle cx="270.0" cy="304.4" r="4" fill="#9754dd" /><circle cx="277.0" cy="299.1" r="4" fill="#9754dd" /><circle cx="284.1" cy="299.1" r="4" fill="#9754dd" /><circle cx="291.1" cy="299.1" r="4" fill="#9754dd" /><circle cx="298.1" cy="298.9" r="4" fill="#9754dd" /><circle cx="305.2" cy="295.6" r="4" fill="#9754dd" /><circle cx="312.2" cy="295.6" r="4" fill="#9754dd" /><circle cx="319.3" cy="295.6" r="4" fill="#9754dd" /><circle cx="326.3" cy="295.6" r="4" fill="#9754dd" /><circle cx="333.3" cy="295.6" r="4" fill="#9754dd" /><circle cx="340.4" cy="295.6" r="4" fill="#9754dd" /><circle cx="347.4" cy="295.6" r="4" fill="#9754dd" /><circle cx="354.4" cy="295.6" r="4" fill="#9754dd" /><circle cx="361.5" cy="295.6" r="4" fill="#9754dd" /><circle cx="368.5" cy="295.8" r="4" fill="#9754dd" /><circle cx="375.6" cy="295.9" r="4" fill="#9754dd" /><circle cx="382.6" cy="295.9" r="4" fill="#9754dd" /><circle cx="389.6" cy="295.9" r="4" fill="#9754dd" /><circle cx="396.7" cy="295.9" r="4" fill="#9754dd" /><circle cx="403.7" cy="295.9" r="4" fill="#9754dd" /><circle cx="410.7" cy="295.9" r="4" fill="#9754dd" /><circle cx="417.8" cy="295.9" r="4" fill="#9754dd" /><circle cx="424.8" cy="295.9" r="4" fill="#9754dd" /><circle cx="431.9" cy="295.9" r="4" fill="#9754dd" /><circle cx="438.9" cy="295.9" r="4" fill="#9754dd" /><circle cx="445.9" cy="295.9" r="4" fill="#9754dd" /><circle cx="453.0" cy="295.9" r="4" fill="#9754dd" /><circle cx="460.0" cy="295.9" r="4" fill="#9754dd" /><circle cx="467.0" cy="295.9" r="4" fill="#9754dd" /><circle cx="474.1" cy="295.9" r="4" fill="#9754dd" /><circle cx="481.1" cy="295.9" r="4" fill="#9754dd" /><circle cx="488.1" cy="295.8" r="4" fill="#9754dd" /><circle cx="495.2" cy="295.8" r="4" fill="#9754dd" /><circle cx="502.2" cy="295.9" r="4" fill="#9754dd" /><circle cx="509.3" cy="295.9" r="4" fill="#9754dd" /><circle cx="516.3" cy="295.9" r="4" fill="#9754dd" /><circle cx="523.3" cy="295.9" r="4" fill="#9754dd" /><circle cx="530.4" cy="295.9" r="4" fill="#9754dd" /><circle cx="537.4" cy="295.9" r="4" fill="#9754dd" /><circle cx="544.4" cy="295.9" r="4" fill="#9754dd" /><circle cx="551.5" cy="296.0" r="4" fill="#9754dd" /><circle cx="558.5" cy="296.4" r="4" fill="#9754dd" /><circle cx="565.6" cy="296.4" r="4" fill="#9754dd" /><circle cx="572.6" cy="296.4" r="4" fill="#9754dd" /><circle cx="579.6" cy="296.4" r="4" fill="#9754dd" /><circle cx="586.7" cy="296.4" r="4" fill="#9754dd" /><circle cx="593.7" cy="296.4" r="4" fill="#9754dd" /><circle cx="600.7" cy="296.4" r="4" fill="#9754dd" /><circle cx="607.8" cy="296.4" r="4" fill="#9754dd" /><circle cx="614.8" cy="296.4" r="4" fill="#9754dd" /><circle cx="621.9" cy="296.4" r="4" fill="#9754dd" /><circle cx="628.9" cy="296.5" r="4" fill="#9754dd" /><circle cx="635.9" cy="296.5" r="4" fill="#9754dd" /><circle cx="643.0" cy="296.5" r="4" fill="#9754dd" /><circle cx="650.0" cy="296.5" r="4" fill="#9754dd" /><circle cx="657.0" cy="296.5" r="4" fill="#9754dd" /><circle cx="664.1" cy="296.5" r="4" fill="#9754dd" /><circle cx="671.1" cy="296.5" r="4" fill="#9754dd" /><circle cx="678.1" cy="296.5" r="4" fill="#9754dd" /><circle cx="685.2" cy="296.5" r="4" fill="#9754dd" /><circle cx="692.2" cy="296.5" r="4" fill="#9754dd" /><circle cx="699.3" cy="296.5" r="4" fill="#9754dd" /><circle cx="706.3" cy="296.5" r="4" fill="#9754dd" /><circle cx="713.3" cy="296.5" r="4" fill="#9754dd" /><circle cx="720.4" cy="296.5" r="4" fill="#9754dd" /><circle cx="727.4" cy="296.5" r="4" fill="#9754dd" /><circle cx="734.4" cy="296.5" r="4" fill="#9754dd" /><circle cx="741.5" cy="296.5" r="4" fill="#9754dd" /><circle cx="748.5" cy="296.5" r="4" fill="#9754dd" /><circle cx="755.6" cy="296.5" r="4" fill="#9754dd" /><circle cx="762.6" cy="296.5" r="4" fill="#9754dd" /><circle cx="769.6" cy="296.5" r="4" fill="#9754dd" /><circle cx="776.7" cy="296.5" r="4" fill="#9754dd" /><circle cx="783.7" cy="296.5" r="4" fill="#9754dd" /><circle cx="790.7" cy="296.5" r="4" fill="#9754dd" /><circle cx="797.8" cy="296.5" r="4" fill="#9754dd" /><circle cx="804.8" cy="295.0" r="4" fill="#9754dd" /><circle cx="811.9" cy="295.0" r="4" fill="#9754dd" /><circle cx="818.9" cy="295.0" r="4" fill="#9754dd" /><circle cx="825.9" cy="295.1" r="4" fill="#9754dd" /><circle cx="833.0" cy="295.1" r="4" fill="#9754dd" /><circle cx="840.0" cy="295.1" r="4" fill="#9754dd" />
  <rect x="80" y="339" width="10" height="10" rx="2" ry="2" fill="#19e5a1" /><text x="96" y="348" class="legend-label">Stars</text><rect x="250" y="339" width="10" height="10" rx="2" ry="2" fill="#6eb6ec" /><text x="266" y="348" class="legend-label">Followers</text><rect x="420" y="339" width="10" height="10" rx="2" ry="2" fill="#5938e2" /><text x="436" y="348" class="legend-label">Following</text><rect x="590" y="339" width="10" height="10" rx="2" ry="2" fill="#60e5e0" /><text x="606" y="348" class="legend-label">Contributions</text><rect x="80" y="357" width="10" height="10" rx="2" ry="2" fill="#567de1" /><text x="96" y="366" class="legend-label">Pull Requests</text><rect x="250" y="357" width="10" height="10" rx="2" ry="2" fill="#9754dd" /><text x="266" y="366" class="legend-label">Issues</text>
</svg>
