<svg width="900" height="402" viewBox="0 0 900 402" xmlns="http://www.w3.org/2000/svg">
  <defs>
    <linearGradient id="history-gradient" x1="0%" y1="0%" x2="100%" y2="100%">
      <stop offset="0%" style="stop-color:#58a6ff;stop-opacity:1" />
      <stop offset="100%" style="stop-color:#a371f7;stop-opacity:1" />
    </linearGradient>
    <clipPath id="history-rounded">
      <rect x="0" y="0" width="900" height="402" rx="8" ry="8" />
    </clipPath>
  </defs>
  <style>
    .title {
      font-family: 'Segoe UI', Ubuntu, 'Helvetica Neue', sans-serif;
      font-size: 22px;
      font-weight: 700;
      fill: #58a6ff;
    }
    .subtitle {
      font-family: 'Segoe UI', Ubuntu, 'Helvetica Neue', sans-serif;
      font-size: 12px;
      font-weight: 500;
      fill: #8b949e;
    }
    .axis-label {
      font-family: 'Segoe UI', Ubuntu, 'Helvetica Neue', sans-serif;
      font-size: 10px;
      fill: #8b949e;
    }
    .grid-line {
      stroke: #30363d;
      stroke-width: 1;
      opacity: 0.3;
    }
    .legend-label {
      font-family: 'Segoe UI', Ubuntu, 'Helvetica Neue', sans-serif;
      font-size: 11px;
      fill: #c9d1d9;
      dominant-baseline: middle;
    }
  </style>
  <rect clip-path="url(#history-rounded)" width="100%" height="100%" fill="#0d1117" stroke="#30363d" stroke-width="1" />
  <rect x="0" y="396" width="900" height="6" fill="url(#history-gradient)" clip-path="url(#history-rounded)" />
  <text x="24" y="34" class="title">Leonardo Klein Stats History</text>
  <text x="24" y="54" class="subtitle">Period: 2026-02-20 to 2026-03-05</text>
  <text x="72" y="320.0" text-anchor="end" dominant-baseline="central" class="axis-label">0</text><text x="72" y="270.0" text-anchor="end" dominant-baseline="central" class="axis-label">400</text><text x="72" y="220.0" text-anchor="end" dominant-baseline="central" class="axis-label">800</text><text x="72" y="170.0" text-anchor="end" dominant-baseline="central" class="axis-label">1.2k</text><text x="72" y="120.0" text-anchor="end" dominant-baseline="central" class="axis-label">1.6k</text><text x="72" y="70.0" text-anchor="end" dominant-baseline="central" class="axis-label">2.0k</text>
  <text x="80.0" y="336" text-anchor="middle" class="axis-label">02-20</text><text x="152.4" y="336" text-anchor="middle" class="axis-label">02-21</text><text x="224.8" y="336" text-anchor="middle" class="axis-label">02-22</text><text x="297.1" y="336" text-anchor="middle" class="axis-label">02-24</text><text x="369.5" y="336" text-anchor="middle" class="axis-label">02-25</text><text x="441.9" y="336" text-anchor="middle" class="axis-label">02-26</text><text x="514.3" y="336" text-anchor="middle" class="axis-label">02-27</text><text x="586.7" y="336" text-anchor="middle" class="axis-label">02-28</text><text x="659.0" y="336" text-anchor="middle" class="axis-label">03-02</text><text x="731.4" y="336" text-anchor="middle" class="axis-label">03-03</text><text x="803.8" y="336" text-anchor="middle" class="axis-label">03-04</text><text x="840.0" y="336" text-anchor="middle" class="axis-label">03-05</text>
  <line x1="80" y1="320.0" x2="840" y2="320.0" class="grid-line" /><line x1="80" y1="270.0" x2="840" y2="270.0" class="grid-line" /><line x1="80" y1="220.0" x2="840" y2="220.0" class="grid-line" /><line x1="80" y1="170.0" x2="840" y2="170.0" class="grid-line" /><line x1="80" y1="120.0" x2="840" y2="120.0" class="grid-line" /><line x1="80" y1="70.0" x2="840" y2="70.0" class="grid-line" />
  <polyline points="80.0,317.0 92.1,317.0 104.1,317.0 116.2,317.0 128.3,317.0 140.3,317.0 152.4,317.0 164.4,317.0 176.5,317.0 188.6,317.0 200.6,317.0 212.7,317.0 224.8,317.0 236.8,317.0 248.9,317.0 261.0,317.0 273.0,317.0 285.1,317.0 297.1,317.0 309.2,317.0 321.3,317.0 333.3,317.0 345.4,317.0 357.5,317.0 369.5,317.0 381.6,317.0 393.7,317.0 405.7,317.0 417.8,317.0 429.8,317.0 441.9,317.0 454.0,317.0 466.0,317.0 478.1,317.0 490.2,317.0 502.2,317.0 514.3,317.0 526.3,317.0 538.4,317.0 550.5,317.0 562.5,317.0 574.6,317.0 586.7,317.0 598.7,317.0 610.8,317.0 622.9,317.0 634.9,317.0 647.0,317.0 659.0,317.0 671.1,317.0 683.2,317.0 695.2,317.0 707.3,317.0 719.4,317.0 731.4,317.0 743.5,317.0 755.6,317.0 767.6,317.0 779.7,317.0 791.7,317.0 803.8,317.0 815.9,317.0 827.9,317.0 840.0,317.0" fill="none" stroke="#19e5a1" stroke-width="2.5" stroke-linecap="round" stroke-linejoin="round" /><circle cx="80.0" cy="317.0" r="4" fill="#19e5a1" /><circle cx="92.1" cy="317.0" r="4" fill="#19e5a1" /><circle cx="104.1" cy="317.0" r="4" fill="#19e5a1" /><circle cx="116.2" cy="317.0" r="4" fill="#19e5a1" /><circle cx="128.3" cy="317.0" r="4" fill="#19e5a1" /><circle cx="140.3" cy="317.0" r="4" fill="#19e5a1" /><circle cx="152.4" cy="317.0" r="4" fill="#19e5a1" /><circle cx="164.4" cy="317.0" r="4" fill="#19e5a1" /><circle cx="176.5" cy="317.0" r="4" fill="#19e5a1" /><circle cx="188.6" cy="317.0" r="4" fill="#19e5a1" /><circle cx="200.6" cy="317.0" r="4" fill="#19e5a1" /><circle cx="212.7" cy="317.0" r="4" fill="#19e5a1" /><circle cx="224.8" cy="317.0" r="4" fill="#19e5a1" /><circle cx="236.8" cy="317.0" r="4" fill="#19e5a1" /><circle cx="248.9" cy="317.0" r="4" fill="#19e5a1" /><circle cx="261.0" cy="317.0" r="4" fill="#19e5a1" /><circle cx="273.0" cy="317.0" r="4" fill="#19e5a1" /><circle cx="285.1" cy="317.0" r="4" fill="#19e5a1" /><circle cx="297.1" cy="317.0" r="4" fill="#19e5a1" /><circle cx="309.2" cy="317.0" r="4" fill="#19e5a1" /><circle cx="321.3" cy="317.0" r="4" fill="#19e5a1" /><circle cx="333.3" cy="317.0" r="4" fill="#19e5a1" /><circle cx="345.4" cy="317.0" r="4" fill="#19e5a1" /><circle cx="357.5" cy="317.0" r="4" fill="#19e5a1" /><circle cx="369.5" cy="317.0" r="4" fill="#19e5a1" /><circle cx="381.6" cy="317.0" r="4" fill="#19e5a1" /><circle cx="393.7" cy="317.0" r="4" fill="#19e5a1" /><circle cx="405.7" cy="317.0" r="4" fill="#19e5a1" /><circle cx="417.8" cy="317.0" r="4" fill="#19e5a1" /><circle cx="429.8" cy="317.0" r="4" fill="#19e5a1" /><circle cx="441.9" cy="317.0" r="4" fill="#19e5a1" /><circle cx="454.0" cy="317.0" r="4" fill="#19e5a1" /><circle cx="466.0" cy="317.0" r="4" fill="#19e5a1" /><circle cx="478.1" cy="317.0" r="4" fill="#19e5a1" /><circle cx="490.2" cy="317.0" r="4" fill="#19e5a1" /><circle cx="502.2" cy="317.0" r="4" fill="#19e5a1" /><circle cx="514.3" cy="317.0" r="4" fill="#19e5a1" /><circle cx="526.3" cy="317.0" r="4" fill="#19e5a1" /><circle cx="538.4" cy="317.0" r="4" fill="#19e5a1" /><circle cx="550.5" cy="317.0" r="4" fill="#19e5a1" /><circle cx="562.5" cy="317.0" r="4" fill="#19e5a1" /><circle cx="574.6" cy="317.0" r="4" fill="#19e5a1" /><circle cx="586.7" cy="317.0" r="4" fill="#19e5a1" /><circle cx="598.7" cy="317.0" r="4" fill="#19e5a1" /><circle cx="610.8" cy="317.0" r="4" fill="#19e5a1" /><circle cx="622.9" cy="317.0" r="4" fill="#19e5a1" /><circle cx="634.9" cy="317.0" r="4" fill="#19e5a1" /><circle cx="647.0" cy="317.0" r="4" fill="#19e5a1" /><circle cx="659.0" cy="317.0" r="4" fill="#19e5a1" /><circle cx="671.1" cy="317.0" r="4" fill="#19e5a1" /><circle cx="683.2" cy="317.0" r="4" fill="#19e5a1" /><circle cx="695.2" cy="317.0" r="4" fill="#19e5a1" /><circle cx="707.3" cy="317.0" r="4" fill="#19e5a1" /><circle cx="719.4" cy="317.0" r="4" fill="#19e5a1" /><circle cx="731.4" cy="317.0" r="4" fill="#19e5a1" /><circle cx="743.5" cy="317.0" r="4" fill="#19e5a1" /><circle cx="755.6" cy="317.0" r="4" fill="#19e5a1" /><circle cx="767.6" cy="317.0" r="4" fill="#19e5a1" /><circle cx="779.7" cy="317.0" r="4" fill="#19e5a1" /><circle cx="791.7" cy="317.0" r="4" fill="#19e5a1" /><circle cx="803.8" cy="317.0" r="4" fill="#19e5a1" /><circle cx="815.9" cy="317.0" r="4" fill="#19e5a1" /><circle cx="827.9" cy="317.0" r="4" fill="#19e5a1" /><circle cx="840.0" cy="317.0" r="4" fill="#19e5a1" /><polyline points="80.0,313.2 92.1,312.2 104.1,312.1 116.2,312.4 128.3,312.4 140.3,312.4 152.4,312.1 164.4,312.0 176.5,311.9 188.6,311.9 200.6,311.8 212.7,311.8 224.8,311.5 236.8,311.5 248.9,311.5 261.0,311.2 273.0,311.2 285.1,311.1 297.1,311.1 309.2,311.1 321.3,310.9 333.3,311.0 345.4,310.8 357.5,310.8 369.5,310.8 381.6,310.8 393.7,310.4 405.7,310.2 417.8,310.4 429.8,310.4 441.9,310.4 454.0,310.4 466.0,310.4 478.1,310.2 490.2,310.2 502.2,310.1 514.3,310.1 526.3,309.8 538.4,309.6 550.5,309.6 562.5,309.6 574.6,309.6 586.7,309.5 598.7,309.4 610.8,309.4 622.9,309.4 634.9,309.4 647.0,309.2 659.0,309.2 671.1,309.2 683.2,309.4 695.2,309.4 707.3,309.5 719.4,309.2 731.4,309.2 743.5,309.4 755.6,309.2 767.6,309.2 779.7,309.2 791.7,309.2 803.8,309.2 815.9,309.1 827.9,309.1 840.0,309.1" fill="none" stroke="#6eb6ec" stroke-width="2.5" stroke-linecap="round" stroke-linejoin="round" /><circle cx="80.0" cy="313.2" r="4" fill="#6eb6ec" /><circle cx="92.1" cy="312.2" r="4" fill="#6eb6ec" /><circle cx="104.1" cy="312.1" r="4" fill="#6eb6ec" /><circle cx="116.2" cy="312.4" r="4" fill="#6eb6ec" /><circle cx="128.3" cy="312.4" r="4" fill="#6eb6ec" /><circle cx="140.3" cy="312.4" r="4" fill="#6eb6ec" /><circle cx="152.4" cy="312.1" r="4" fill="#6eb6ec" /><circle cx="164.4" cy="312.0" r="4" fill="#6eb6ec" /><circle cx="176.5" cy="311.9" r="4" fill="#6eb6ec" /><circle cx="188.6" cy="311.9" r="4" fill="#6eb6ec" /><circle cx="200.6" cy="311.8" r="4" fill="#6eb6ec" /><circle cx="212.7" cy="311.8" r="4" fill="#6eb6ec" /><circle cx="224.8" cy="311.5" r="4" fill="#6eb6ec" /><circle cx="236.8" cy="311.5" r="4" fill="#6eb6ec" /><circle cx="248.9" cy="311.5" r="4" fill="#6eb6ec" /><circle cx="261.0" cy="311.2" r="4" fill="#6eb6ec" /><circle cx="273.0" cy="311.2" r="4" fill="#6eb6ec" /><circle cx="285.1" cy="311.1" r="4" fill="#6eb6ec" /><circle cx="297.1" cy="311.1" r="4" fill="#6eb6ec" /><circle cx="309.2" cy="311.1" r="4" fill="#6eb6ec" /><circle cx="321.3" cy="310.9" r="4" fill="#6eb6ec" /><circle cx="333.3" cy="311.0" r="4" fill="#6eb6ec" /><circle cx="345.4" cy="310.8" r="4" fill="#6eb6ec" /><circle cx="357.5" cy="310.8" r="4" fill="#6eb6ec" /><circle cx="369.5" cy="310.8" r="4" fill="#6eb6ec" /><circle cx="381.6" cy="310.8" r="4" fill="#6eb6ec" /><circle cx="393.7" cy="310.4" r="4" fill="#6eb6ec" /><circle cx="405.7" cy="310.2" r="4" fill="#6eb6ec" /><circle cx="417.8" cy="310.4" r="4" fill="#6eb6ec" /><circle cx="429.8" cy="310.4" r="4" fill="#6eb6ec" /><circle cx="441.9" cy="310.4" r="4" fill="#6eb6ec" /><circle cx="454.0" cy="310.4" r="4" fill="#6eb6ec" /><circle cx="466.0" cy="310.4" r="4" fill="#6eb6ec" /><circle cx="478.1" cy="310.2" r="4" fill="#6eb6ec" /><circle cx="490.2" cy="310.2" r="4" fill="#6eb6ec" /><circle cx="502.2" cy="310.1" r="4" fill="#6eb6ec" /><circle cx="514.3" cy="310.1" r="4" fill="#6eb6ec" /><circle cx="526.3" cy="309.8" r="4" fill="#6eb6ec" /><circle cx="538.4" cy="309.6" r="4" fill="#6eb6ec" /><circle cx="550.5" cy="309.6" r="4" fill="#6eb6ec" /><circle cx="562.5" cy="309.6" r="4" fill="#6eb6ec" /><circle cx="574.6" cy="309.6" r="4" fill="#6eb6ec" /><circle cx="586.7" cy="309.5" r="4" fill="#6eb6ec" /><circle cx="598.7" cy="309.4" r="4" fill="#6eb6ec" /><circle cx="610.8" cy="309.4" r="4" fill="#6eb6ec" /><circle cx="622.9" cy="309.4" r="4" fill="#6eb6ec" /><circle cx="634.9" cy="309.4" r="4" fill="#6eb6ec" /><circle cx="647.0" cy="309.2" r="4" fill="#6eb6ec" /><circle cx="659.0" cy="309.2" r="4" fill="#6eb6ec" /><circle cx="671.1" cy="309.2" r="4" fill="#6eb6ec" /><circle cx="683.2" cy="309.4" r="4" fill="#6eb6ec" /><circle cx="695.2" cy="309.4" r="4" fill="#6eb6ec" /><circle cx="707.3" cy="309.5" r="4" fill="#6eb6ec" /><circle cx="719.4" cy="309.2" r="4" fill="#6eb6ec" /><circle cx="731.4" cy="309.2" r="4" fill="#6eb6ec" /><circle cx="743.5" cy="309.4" r="4" fill="#6eb6ec" /><circle cx="755.6" cy="309.2" r="4" fill="#6eb6ec" /><circle cx="767.6" cy="309.2" r="4" fill="#6eb6ec" /><circle cx="779.7" cy="309.2" r="4" fill="#6eb6ec" /><circle cx="791.7" cy="309.2" r="4" fill="#6eb6ec" /><circle cx="803.8" cy="309.2" r="4" fill="#6eb6ec" /><circle cx="815.9" cy="309.1" r="4" fill="#6eb6ec" /><circle cx="827.9" cy="309.1" r="4" fill="#6eb6ec" /><circle cx="840.0" cy="309.1" r="4" fill="#6eb6ec" /><polyline points="80.0,305.8 92.1,305.8 104.1,305.8 116.2,305.8 128.3,305.8 140.3,305.8 152.4,305.8 164.4,305.8 176.5,305.8 188.6,305.8 200.6,304.9 212.7,304.9 224.8,304.9 236.8,304.9 248.9,304.9 261.0,304.9 273.0,304.9 285.1,304.9 297.1,304.9 309.2,304.9 321.3,304.9 333.3,304.9 345.4,304.9 357.5,304.9 369.5,304.9 381.6,304.9 393.7,304.9 405.7,304.9 417.8,304.9 429.8,304.9 441.9,304.9 454.0,304.9 466.0,304.9 478.1,304.9 490.2,304.9 502.2,304.9 514.3,304.9 526.3,303.6 538.4,303.6 550.5,303.6 562.5,303.6 574.6,303.6 586.7,303.6 598.7,303.6 610.8,303.6 622.9,303.6 634.9,303.6 647.0,303.6 659.0,303.6 671.1,303.6 683.2,303.6 695.2,302.9 707.3,302.9 719.4,298.0 731.4,298.0 743.5,298.0 755.6,298.0 767.6,298.0 779.7,298.0 791.7,298.0 803.8,298.0 815.9,298.0 827.9,298.0 840.0,298.0" fill="none" stroke="#5938e2" stroke-width="2.5" stroke-linecap="round" stroke-linejoin="round" /><circle cx="80.0" cy="305.8" r="4" fill="#5938e2" /><circle cx="92.1" cy="305.8" r="4" fill="#5938e2" /><circle cx="104.1" cy="305.8" r="4" fill="#5938e2" /><circle cx="116.2" cy="305.8" r="4" fill="#5938e2" /><circle cx="128.3" cy="305.8" r="4" fill="#5938e2" /><circle cx="140.3" cy="305.8" r="4" fill="#5938e2" /><circle cx="152.4" cy="305.8" r="4" fill="#5938e2" /><circle cx="164.4" cy="305.8" r="4" fill="#5938e2" /><circle cx="176.5" cy="305.8" r="4" fill="#5938e2" /><circle cx="188.6" cy="305.8" r="4" fill="#5938e2" /><circle cx="200.6" cy="304.9" r="4" fill="#5938e2" /><circle cx="212.7" cy="304.9" r="4" fill="#5938e2" /><circle cx="224.8" cy="304.9" r="4" fill="#5938e2" /><circle cx="236.8" cy="304.9" r="4" fill="#5938e2" /><circle cx="248.9" cy="304.9" r="4" fill="#5938e2" /><circle cx="261.0" cy="304.9" r="4" fill="#5938e2" /><circle cx="273.0" cy="304.9" r="4" fill="#5938e2" /><circle cx="285.1" cy="304.9" r="4" fill="#5938e2" /><circle cx="297.1" cy="304.9" r="4" fill="#5938e2" /><circle cx="309.2" cy="304.9" r="4" fill="#5938e2" /><circle cx="321.3" cy="304.9" r="4" fill="#5938e2" /><circle cx="333.3" cy="304.9" r="4" fill="#5938e2" /><circle cx="345.4" cy="304.9" r="4" fill="#5938e2" /><circle cx="357.5" cy="304.9" r="4" fill="#5938e2" /><circle cx="369.5" cy="304.9" r="4" fill="#5938e2" /><circle cx="381.6" cy="304.9" r="4" fill="#5938e2" /><circle cx="393.7" cy="304.9" r="4" fill="#5938e2" /><circle cx="405.7" cy="304.9" r="4" fill="#5938e2" /><circle cx="417.8" cy="304.9" r="4" fill="#5938e2" /><circle cx="429.8" cy="304.9" r="4" fill="#5938e2" /><circle cx="441.9" cy="304.9" r="4" fill="#5938e2" /><circle cx="454.0" cy="304.9" r="4" fill="#5938e2" /><circle cx="466.0" cy="304.9" r="4" fill="#5938e2" /><circle cx="478.1" cy="304.9" r="4" fill="#5938e2" /><circle cx="490.2" cy="304.9" r="4" fill="#5938e2" /><circle cx="502.2" cy="304.9" r="4" fill="#5938e2" /><circle cx="514.3" cy="304.9" r="4" fill="#5938e2" /><circle cx="526.3" cy="303.6" r="4" fill="#5938e2" /><circle cx="538.4" cy="303.6" r="4" fill="#5938e2" /><circle cx="550.5" cy="303.6" r="4" fill="#5938e2" /><circle cx="562.5" cy="303.6" r="4" fill="#5938e2" /><circle cx="574.6" cy="303.6" r="4" fill="#5938e2" /><circle cx="586.7" cy="303.6" r="4" fill="#5938e2" /><circle cx="598.7" cy="303.6" r="4" fill="#5938e2" /><circle cx="610.8" cy="303.6" r="4" fill="#5938e2" /><circle cx="622.9" cy="303.6" r="4" fill="#5938e2" /><circle cx="634.9" cy="303.6" r="4" fill="#5938e2" /><circle cx="647.0" cy="303.6" r="4" fill="#5938e2" /><circle cx="659.0" cy="303.6" r="4" fill="#5938e2" /><circle cx="671.1" cy="303.6" r="4" fill="#5938e2" /><circle cx="683.2" cy="303.6" r="4" fill="#5938e2" /><circle cx="695.2" cy="302.9" r="4" fill="#5938e2" /><circle cx="707.3" cy="302.9" r="4" fill="#5938e2" /><circle cx="719.4" cy="298.0" r="4" fill="#5938e2" /><circle cx="731.4" cy="298.0" r="4" fill="#5938e2" /><circle cx="743.5" cy="298.0" r="4" fill="#5938e2" /><circle cx="755.6" cy="298.0" r="4" fill="#5938e2" /><circle cx="767.6" cy="298.0" r="4" fill="#5938e2" /><circle cx="779.7" cy="298.0" r="4" fill="#5938e2" /><circle cx="791.7" cy="298.0" r="4" fill="#5938e2" /><circle cx="803.8" cy="298.0" r="4" fill="#5938e2" /><circle cx="815.9" cy="298.0" r="4" fill="#5938e2" /><circle cx="827.9" cy="298.0" r="4" fill="#5938e2" /><circle cx="840.0" cy="298.0" r="4" fill="#5938e2" /><polyline points="80.0,144.6 92.1,140.1 104.1,139.9 116.2,139.8 128.3,139.8 140.3,139.6 152.4,139.6 164.4,139.6 176.5,139.6 188.6,139.6 200.6,138.4 212.7,138.4 224.8,138.4 236.8,138.4 248.9,138.4 261.0,138.4 273.0,138.4 285.1,137.4 297.1,137.4 309.2,137.4 321.3,137.4 333.3,137.4 345.4,137.4 357.5,137.4 369.5,137.4 381.6,137.4 393.7,137.4 405.7,137.4 417.8,131.2 429.8,131.2 441.9,130.8 454.0,130.4 466.0,126.9 478.1,126.9 490.2,126.9 502.2,126.9 514.3,126.9 526.3,126.9 538.4,126.9 550.5,126.9 562.5,126.9 574.6,126.8 586.7,122.1 598.7,120.4 610.8,120.4 622.9,120.4 634.9,120.4 647.0,120.4 659.0,119.4 671.1,119.4 683.2,119.4 695.2,119.4 707.3,119.1 719.4,118.8 731.4,118.8 743.5,117.8 755.6,117.8 767.6,117.8 779.7,115.8 791.7,115.8 803.8,115.0 815.9,115.0 827.9,115.0 840.0,115.0" fill="none" stroke="#60e5e0" stroke-width="2.5" stroke-linecap="round" stroke-linejoin="round" /><circle cx="80.0" cy="144.6" r="4" fill="#60e5e0" /><circle cx="92.1" cy="140.1" r="4" fill="#60e5e0" /><circle cx="104.1" cy="139.9" r="4" fill="#60e5e0" /><circle cx="116.2" cy="139.8" r="4" fill="#60e5e0" /><circle cx="128.3" cy="139.8" r="4" fill="#60e5e0" /><circle cx="140.3" cy="139.6" r="4" fill="#60e5e0" /><circle cx="152.4" cy="139.6" r="4" fill="#60e5e0" /><circle cx="164.4" cy="139.6" r="4" fill="#60e5e0" /><circle cx="176.5" cy="139.6" r="4" fill="#60e5e0" /><circle cx="188.6" cy="139.6" r="4" fill="#60e5e0" /><circle cx="200.6" cy="138.4" r="4" fill="#60e5e0" /><circle cx="212.7" cy="138.4" r="4" fill="#60e5e0" /><circle cx="224.8" cy="138.4" r="4" fill="#60e5e0" /><circle cx="236.8" cy="138.4" r="4" fill="#60e5e0" /><circle cx="248.9" cy="138.4" r="4" fill="#60e5e0" /><circle cx="261.0" cy="138.4" r="4" fill="#60e5e0" /><circle cx="273.0" cy="138.4" r="4" fill="#60e5e0" /><circle cx="285.1" cy="137.4" r="4" fill="#60e5e0" /><circle cx="297.1" cy="137.4" r="4" fill="#60e5e0" /><circle cx="309.2" cy="137.4" r="4" fill="#60e5e0" /><circle cx="321.3" cy="137.4" r="4" fill="#60e5e0" /><circle cx="333.3" cy="137.4" r="4" fill="#60e5e0" /><circle cx="345.4" cy="137.4" r="4" fill="#60e5e0" /><circle cx="357.5" cy="137.4" r="4" fill="#60e5e0" /><circle cx="369.5" cy="137.4" r="4" fill="#60e5e0" /><circle cx="381.6" cy="137.4" r="4" fill="#60e5e0" /><circle cx="393.7" cy="137.4" r="4" fill="#60e5e0" /><circle cx="405.7" cy="137.4" r="4" fill="#60e5e0" /><circle cx="417.8" cy="131.2" r="4" fill="#60e5e0" /><circle cx="429.8" cy="131.2" r="4" fill="#60e5e0" /><circle cx="441.9" cy="130.8" r="4" fill="#60e5e0" /><circle cx="454.0" cy="130.4" r="4" fill="#60e5e0" /><circle cx="466.0" cy="126.9" r="4" fill="#60e5e0" /><circle cx="478.1" cy="126.9" r="4" fill="#60e5e0" /><circle cx="490.2" cy="126.9" r="4" fill="#60e5e0" /><circle cx="502.2" cy="126.9" r="4" fill="#60e5e0" /><circle cx="514.3" cy="126.9" r="4" fill="#60e5e0" /><circle cx="526.3" cy="126.9" r="4" fill="#60e5e0" /><circle cx="538.4" cy="126.9" r="4" fill="#60e5e0" /><circle cx="550.5" cy="126.9" r="4" fill="#60e5e0" /><circle cx="562.5" cy="126.9" r="4" fill="#60e5e0" /><circle cx="574.6" cy="126.8" r="4" fill="#60e5e0" /><circle cx="586.7" cy="122.1" r="4" fill="#60e5e0" /><circle cx="598.7" cy="120.4" r="4" fill="#60e5e0" /><circle cx="610.8" cy="120.4" r="4" fill="#60e5e0" /><circle cx="622.9" cy="120.4" r="4" fill="#60e5e0" /><circle cx="634.9" cy="120.4" r="4" fill="#60e5e0" /><circle cx="647.0" cy="120.4" r="4" fill="#60e5e0" /><circle cx="659.0" cy="119.4" r="4" fill="#60e5e0" /><circle cx="671.1" cy="119.4" r="4" fill="#60e5e0" /><circle cx="683.2" cy="119.4" r="4" fill="#60e5e0" /><circle cx="695.2" cy="119.4" r="4" fill="#60e5e0" /><circle cx="707.3" cy="119.1" r="4" fill="#60e5e0" /><circle cx="719.4" cy="118.8" r="4" fill="#60e5e0" /><circle cx="731.4" cy="118.8" r="4" fill="#60e5e0" /><circle cx="743.5" cy="117.8" r="4" fill="#60e5e0" /><circle cx="755.6" cy="117.8" r="4" fill="#60e5e0" /><circle cx="767.6" cy="117.8" r="4" fill="#60e5e0" /><circle cx="779.7" cy="115.8" r="4" fill="#60e5e0" /><circle cx="791.7" cy="115.8" r="4" fill="#60e5e0" /><circle cx="803.8" cy="115.0" r="4" fill="#60e5e0" /><circle cx="815.9" cy="115.0" r="4" fill="#60e5e0" /><circle cx="827.9" cy="115.0" r="4" fill="#60e5e0" /><circle cx="840.0" cy="115.0" r="4" fill="#60e5e0" /><polyline points="80.0,314.6 92.1,314.4 104.1,314.2 116.2,314.2 128.3,314.2 140.3,314.1 152.4,314.1 164.4,314.1 176.5,314.1 188.6,314.1 200.6,314.0 212.7,314.0 224.8,314.0 236.8,314.0 248.9,314.0 261.0,314.0 273.0,314.0 285.1,314.0 297.1,314.0 309.2,314.0 321.3,314.0 333.3,314.0 345.4,314.0 357.5,314.0 369.5,314.0 381.6,314.0 393.7,314.0 405.7,314.0 417.8,314.0 429.8,314.0 441.9,314.0 454.0,314.0 466.0,314.0 478.1,314.0 490.2,314.0 502.2,314.0 514.3,314.0 526.3,314.0 538.4,314.0 550.5,314.0 562.5,314.0 574.6,313.9 586.7,313.6 598.7,313.4 610.8,313.4 622.9,313.4 634.9,313.4 647.0,313.4 659.0,313.1 671.1,313.1 683.2,313.1 695.2,313.1 707.3,313.1 719.4,313.0 731.4,313.0 743.5,312.9 755.6,312.9 767.6,312.9 779.7,312.8 791.7,312.8 803.8,312.6 815.9,312.6 827.9,312.6 840.0,312.6" fill="none" stroke="#567de1" stroke-width="2.5" stroke-linecap="round" stroke-linejoin="round" /><circle cx="80.0" cy="314.6" r="4" fill="#567de1" /><circle cx="92.1" cy="314.4" r="4" fill="#567de1" /><circle cx="104.1" cy="314.2" r="4" fill="#567de1" /><circle cx="116.2" cy="314.2" r="4" fill="#567de1" /><circle cx="128.3" cy="314.2" r="4" fill="#567de1" /><circle cx="140.3" cy="314.1" r="4" fill="#567de1" /><circle cx="152.4" cy="314.1" r="4" fill="#567de1" /><circle cx="164.4" cy="314.1" r="4" fill="#567de1" /><circle cx="176.5" cy="314.1" r="4" fill="#567de1" /><circle cx="188.6" cy="314.1" r="4" fill="#567de1" /><circle cx="200.6" cy="314.0" r="4" fill="#567de1" /><circle cx="212.7" cy="314.0" r="4" fill="#567de1" /><circle cx="224.8" cy="314.0" r="4" fill="#567de1" /><circle cx="236.8" cy="314.0" r="4" fill="#567de1" /><circle cx="248.9" cy="314.0" r="4" fill="#567de1" /><circle cx="261.0" cy="314.0" r="4" fill="#567de1" /><circle cx="273.0" cy="314.0" r="4" fill="#567de1" /><circle cx="285.1" cy="314.0" r="4" fill="#567de1" /><circle cx="297.1" cy="314.0" r="4" fill="#567de1" /><circle cx="309.2" cy="314.0" r="4" fill="#567de1" /><circle cx="321.3" cy="314.0" r="4" fill="#567de1" /><circle cx="333.3" cy="314.0" r="4" fill="#567de1" /><circle cx="345.4" cy="314.0" r="4" fill="#567de1" /><circle cx="357.5" cy="314.0" r="4" fill="#567de1" /><circle cx="369.5" cy="314.0" r="4" fill="#567de1" /><circle cx="381.6" cy="314.0" r="4" fill="#567de1" /><circle cx="393.7" cy="314.0" r="4" fill="#567de1" /><circle cx="405.7" cy="314.0" r="4" fill="#567de1" /><circle cx="417.8" cy="314.0" r="4" fill="#567de1" /><circle cx="429.8" cy="314.0" r="4" fill="#567de1" /><circle cx="441.9" cy="314.0" r="4" fill="#567de1" /><circle cx="454.0" cy="314.0" r="4" fill="#567de1" /><circle cx="466.0" cy="314.0" r="4" fill="#567de1" /><circle cx="478.1" cy="314.0" r="4" fill="#567de1" /><circle cx="490.2" cy="314.0" r="4" fill="#567de1" /><circle cx="502.2" cy="314.0" r="4" fill="#567de1" /><circle cx="514.3" cy="314.0" r="4" fill="#567de1" /><circle cx="526.3" cy="314.0" r="4" fill="#567de1" /><circle cx="538.4" cy="314.0" r="4" fill="#567de1" /><circle cx="550.5" cy="314.0" r="4" fill="#567de1" /><circle cx="562.5" cy="314.0" r="4" fill="#567de1" /><circle cx="574.6" cy="313.9" r="4" fill="#567de1" /><circle cx="586.7" cy="313.6" r="4" fill="#567de1" /><circle cx="598.7" cy="313.4" r="4" fill="#567de1" /><circle cx="610.8" cy="313.4" r="4" fill="#567de1" /><circle cx="622.9" cy="313.4" r="4" fill="#567de1" /><circle cx="634.9" cy="313.4" r="4" fill="#567de1" /><circle cx="647.0" cy="313.4" r="4" fill="#567de1" /><circle cx="659.0" cy="313.1" r="4" fill="#567de1" /><circle cx="671.1" cy="313.1" r="4" fill="#567de1" /><circle cx="683.2" cy="313.1" r="4" fill="#567de1" /><circle cx="695.2" cy="313.1" r="4" fill="#567de1" /><circle cx="707.3" cy="313.1" r="4" fill="#567de1" /><circle cx="719.4" cy="313.0" r="4" fill="#567de1" /><circle cx="731.4" cy="313.0" r="4" fill="#567de1" /><circle cx="743.5" cy="312.9" r="4" fill="#567de1" /><circle cx="755.6" cy="312.9" r="4" fill="#567de1" /><circle cx="767.6" cy="312.9" r="4" fill="#567de1" /><circle cx="779.7" cy="312.8" r="4" fill="#567de1" /><circle cx="791.7" cy="312.8" r="4" fill="#567de1" /><circle cx="803.8" cy="312.6" r="4" fill="#567de1" /><circle cx="815.9" cy="312.6" r="4" fill="#567de1" /><circle cx="827.9" cy="312.6" r="4" fill="#567de1" /><circle cx="840.0" cy="312.6" r="4" fill="#567de1" /><polyline points="80.0,303.9 92.1,304.2 104.1,304.4 116.2,304.4 128.3,304.4 140.3,304.4 152.4,304.4 164.4,304.4 176.5,304.4 188.6,304.4 200.6,304.4 212.7,304.4 224.8,304.4 236.8,304.4 248.9,304.4 261.0,304.4 273.0,304.4 285.1,304.4 297.1,304.4 309.2,304.4 321.3,304.4 333.3,304.4 345.4,304.4 357.5,304.4 369.5,304.4 381.6,304.4 393.7,304.4 405.7,304.4 417.8,299.1 429.8,299.1 441.9,299.1 454.0,298.9 466.0,295.6 478.1,295.6 490.2,295.6 502.2,295.6 514.3,295.6 526.3,295.6 538.4,295.6 550.5,295.6 562.5,295.6 574.6,295.8 586.7,295.9 598.7,295.9 610.8,295.9 622.9,295.9 634.9,295.9 647.0,295.9 659.0,295.9 671.1,295.9 683.2,295.9 695.2,295.9 707.3,295.9 719.4,295.9 731.4,295.9 743.5,295.9 755.6,295.9 767.6,295.9 779.7,295.8 791.7,295.8 803.8,295.9 815.9,295.9 827.9,295.9 840.0,295.9" fill="none" stroke="#9754dd" stroke-width="2.5" stroke-linecap="round" stroke-linejoin="round" /><circle cx="80.0" cy="303.9" r="4" fill="#9754dd" /><circle cx="92.1" cy="304.2" r="4" fill="#9754dd" /><circle cx="104.1" cy="304.4" r="4" fill="#9754dd" /><circle cx="116.2" cy="304.4" r="4" fill="#9754dd" /><circle cx="128.3" cy="304.4" r="4" fill="#9754dd" /><circle cx="140.3" cy="304.4" r="4" fill="#9754dd" /><circle cx="152.4" cy="304.4" r="4" fill="#9754dd" /><circle cx="164.4" cy="304.4" r="4" fill="#9754dd" /><circle cx="176.5" cy="304.4" r="4" fill="#9754dd" /><circle cx="188.6" cy="304.4" r="4" fill="#9754dd" /><circle cx="200.6" cy="304.4" r="4" fill="#9754dd" /><circle cx="212.7" cy="304.4" r="4" fill="#9754dd" /><circle cx="224.8" cy="304.4" r="4" fill="#9754dd" /><circle cx="236.8" cy="304.4" r="4" fill="#9754dd" /><circle cx="248.9" cy="304.4" r="4" fill="#9754dd" /><circle cx="261.0" cy="304.4" r="4" fill="#9754dd" /><circle cx="273.0" cy="304.4" r="4" fill="#9754dd" /><circle cx="285.1" cy="304.4" r="4" fill="#9754dd" /><circle cx="297.1" cy="304.4" r="4" fill="#9754dd" /><circle cx="309.2" cy="304.4" r="4" fill="#9754dd" /><circle cx="321.3" cy="304.4" r="4" fill="#9754dd" /><circle cx="333.3" cy="304.4" r="4" fill="#9754dd" /><circle cx="345.4" cy="304.4" r="4" fill="#9754dd" /><circle cx="357.5" cy="304.4" r="4" fill="#9754dd" /><circle cx="369.5" cy="304.4" r="4" fill="#9754dd" /><circle cx="381.6" cy="304.4" r="4" fill="#9754dd" /><circle cx="393.7" cy="304.4" r="4" fill="#9754dd" /><circle cx="405.7" cy="304.4" r="4" fill="#9754dd" /><circle cx="417.8" cy="299.1" r="4" fill="#9754dd" /><circle cx="429.8" cy="299.1" r="4" fill="#9754dd" /><circle cx="441.9" cy="299.1" r="4" fill="#9754dd" /><circle cx="454.0" cy="298.9" r="4" fill="#9754dd" /><circle cx="466.0" cy="295.6" r="4" fill="#9754dd" /><circle cx="478.1" cy="295.6" r="4" fill="#9754dd" /><circle cx="490.2" cy="295.6" r="4" fill="#9754dd" /><circle cx="502.2" cy="295.6" r="4" fill="#9754dd" /><circle cx="514.3" cy="295.6" r="4" fill="#9754dd" /><circle cx="526.3" cy="295.6" r="4" fill="#9754dd" /><circle cx="538.4" cy="295.6" r="4" fill="#9754dd" /><circle cx="550.5" cy="295.6" r="4" fill="#9754dd" /><circle cx="562.5" cy="295.6" r="4" fill="#9754dd" /><circle cx="574.6" cy="295.8" r="4" fill="#9754dd" /><circle cx="586.7" cy="295.9" r="4" fill="#9754dd" /><circle cx="598.7" cy="295.9" r="4" fill="#9754dd" /><circle cx="610.8" cy="295.9" r="4" fill="#9754dd" /><circle cx="622.9" cy="295.9" r="4" fill="#9754dd" /><circle cx="634.9" cy="295.9" r="4" fill="#9754dd" /><circle cx="647.0" cy="295.9" r="4" fill="#9754dd" /><circle cx="659.0" cy="295.9" r="4" fill="#9754dd" /><circle cx="671.1" cy="295.9" r="4" fill="#9754dd" /><circle cx="683.2" cy="295.9" r="4" fill="#9754dd" /><circle cx="695.2" cy="295.9" r="4" fill="#9754dd" /><circle cx="707.3" cy="295.9" r="4" fill="#9754dd" /><circle cx="719.4" cy="295.9" r="4" fill="#9754dd" /><circle cx="731.4" cy="295.9" r="4" fill="#9754dd" /><circle cx="743.5" cy="295.9" r="4" fill="#9754dd" /><circle cx="755.6" cy="295.9" r="4" fill="#9754dd" /><circle cx="767.6" cy="295.9" r="4" fill="#9754dd" /><circle cx="779.7" cy="295.8" r="4" fill="#9754dd" /><circle cx="791.7" cy="295.8" r="4" fill="#9754dd" /><circle cx="803.8" cy="295.9" r="4" fill="#9754dd" /><circle cx="815.9" cy="295.9" r="4" fill="#9754dd" /><circle cx="827.9" cy="295.9" r="4" fill="#9754dd" /><circle cx="840.0" cy="295.9" r="4" fill="#9754dd" />
  <rect x="80" y="339" width="10" height="10" rx="2" ry="2" fill="#19e5a1" /><text x="96" y="348" class="legend-label">Stars</text><rect x="250" y="339" width="10" height="10" rx="2" ry="2" fill="#6eb6ec" /><text x="266" y="348" class="legend-label">Followers</text><rect x="420" y="339" width="10" height="10" rx="2" ry="2" fill="#5938e2" /><text x="436" y="348" class="legend-label">Following</text><rect x="590" y="339" width="10" height="10" rx="2" ry="2" fill="#60e5e0" /><text x="606" y="348" class="legend-label">Contributions</text><rect x="80" y="357" width="10" height="10" rx="2" ry="2" fill="#567de1" /><text x="96" y="366" class="legend-label">Pull Requests</text><rect x="250" y="357" width="10" height="10" rx="2" ry="2" fill="#9754dd" /><text x="266" y="366" class="legend-label">Issues</text>
</svg>
