<svg width="900" height="402" viewBox="0 0 900 402" xmlns="http://www.w3.org/2000/svg">
  <defs>
    <linearGradient id="history-gradient" x1="0%" y1="0%" x2="100%" y2="100%">
      <stop offset="0%" style="stop-color:#58a6ff;stop-opacity:1" />
      <stop offset="100%" style="stop-color:#a371f7;stop-opacity:1" />
    </linearGradient>
    <clipPath id="history-rounded">
      <rect x="0" y="0" width="900" height="402" rx="8" ry="8" />
    </clipPath>
  </defs>
  <style>
    .title {
      font-family: 'Segoe UI', Ubuntu, 'Helvetica Neue', sans-serif;
      font-size: 22px;
      font-weight: 700;
      fill: #58a6ff;
    }
    .subtitle {
      font-family: 'Segoe UI', Ubuntu, 'Helvetica Neue', sans-serif;
      font-size: 12px;
      font-weight: 500;
      fill: #8b949e;
    }
    .axis-label {
      font-family: 'Segoe UI', Ubuntu, 'Helvetica Neue', sans-serif;
      font-size: 10px;
      fill: #8b949e;
    }
    .grid-line {
      stroke: #30363d;
      stroke-width: 1;
      opacity: 0.3;
    }
    .legend-label {
      font-family: 'Segoe UI', Ubuntu, 'Helvetica Neue', sans-serif;
      font-size: 11px;
      fill: #c9d1d9;
      dominant-baseline: middle;
    }
  </style>
  <rect clip-path="url(#history-rounded)" width="100%" height="100%" fill="#0d1117" stroke="#30363d" stroke-width="1" />
  <rect x="0" y="396" width="900" height="6" fill="url(#history-gradient)" clip-path="url(#history-rounded)" />
  <text x="24" y="34" class="title">Leonardo Klein Stats History</text>
  <text x="24" y="54" class="subtitle">Period: 2026-02-20 to 2026-02-28</text>
  <text x="72" y="320.0" text-anchor="end" dominant-baseline="central" class="axis-label">0</text><text x="72" y="270.0" text-anchor="end" dominant-baseline="central" class="axis-label">400</text><text x="72" y="220.0" text-anchor="end" dominant-baseline="central" class="axis-label">800</text><text x="72" y="170.0" text-anchor="end" dominant-baseline="central" class="axis-label">1.2k</text><text x="72" y="120.0" text-anchor="end" dominant-baseline="central" class="axis-label">1.6k</text><text x="72" y="70.0" text-anchor="end" dominant-baseline="central" class="axis-label">2.0k</text>
  <text x="80.0" y="336" text-anchor="middle" class="axis-label">02-20</text><text x="156.0" y="336" text-anchor="middle" class="axis-label">02-21</text><text x="232.0" y="336" text-anchor="middle" class="axis-label">02-22</text><text x="308.0" y="336" text-anchor="middle" class="axis-label">02-22</text><text x="384.0" y="336" text-anchor="middle" class="axis-label">02-23</text><text x="460.0" y="336" text-anchor="middle" class="axis-label">02-24</text><text x="536.0" y="336" text-anchor="middle" class="axis-label">02-25</text><text x="612.0" y="336" text-anchor="middle" class="axis-label">02-26</text><text x="688.0" y="336" text-anchor="middle" class="axis-label">02-26</text><text x="764.0" y="336" text-anchor="middle" class="axis-label">02-27</text><text x="840.0" y="336" text-anchor="middle" class="axis-label">02-28</text>
  <line x1="80" y1="320.0" x2="840" y2="320.0" class="grid-line" /><line x1="80" y1="270.0" x2="840" y2="270.0" class="grid-line" /><line x1="80" y1="220.0" x2="840" y2="220.0" class="grid-line" /><line x1="80" y1="170.0" x2="840" y2="170.0" class="grid-line" /><line x1="80" y1="120.0" x2="840" y2="120.0" class="grid-line" /><line x1="80" y1="70.0" x2="840" y2="70.0" class="grid-line" />
  <polyline points="80.0,317.0 99.0,317.0 118.0,317.0 137.0,317.0 156.0,317.0 175.0,317.0 194.0,317.0 213.0,317.0 232.0,317.0 251.0,317.0 270.0,317.0 289.0,317.0 308.0,317.0 327.0,317.0 346.0,317.0 365.0,317.0 384.0,317.0 403.0,317.0 422.0,317.0 441.0,317.0 460.0,317.0 479.0,317.0 498.0,317.0 517.0,317.0 536.0,317.0 555.0,317.0 574.0,317.0 593.0,317.0 612.0,317.0 631.0,317.0 650.0,317.0 669.0,317.0 688.0,317.0 707.0,317.0 726.0,317.0 745.0,317.0 764.0,317.0 783.0,317.0 802.0,317.0 821.0,317.0 840.0,317.0" fill="none" stroke="#19e5a1" stroke-width="2.5" stroke-linecap="round" stroke-linejoin="round" /><circle cx="80.0" cy="317.0" r="4" fill="#19e5a1" /><circle cx="99.0" cy="317.0" r="4" fill="#19e5a1" /><circle cx="118.0" cy="317.0" r="4" fill="#19e5a1" /><circle cx="137.0" cy="317.0" r="4" fill="#19e5a1" /><circle cx="156.0" cy="317.0" r="4" fill="#19e5a1" /><circle cx="175.0" cy="317.0" r="4" fill="#19e5a1" /><circle cx="194.0" cy="317.0" r="4" fill="#19e5a1" /><circle cx="213.0" cy="317.0" r="4" fill="#19e5a1" /><circle cx="232.0" cy="317.0" r="4" fill="#19e5a1" /><circle cx="251.0" cy="317.0" r="4" fill="#19e5a1" /><circle cx="270.0" cy="317.0" r="4" fill="#19e5a1" /><circle cx="289.0" cy="317.0" r="4" fill="#19e5a1" /><circle cx="308.0" cy="317.0" r="4" fill="#19e5a1" /><circle cx="327.0" cy="317.0" r="4" fill="#19e5a1" /><circle cx="346.0" cy="317.0" r="4" fill="#19e5a1" /><circle cx="365.0" cy="317.0" r="4" fill="#19e5a1" /><circle cx="384.0" cy="317.0" r="4" fill="#19e5a1" /><circle cx="403.0" cy="317.0" r="4" fill="#19e5a1" /><circle cx="422.0" cy="317.0" r="4" fill="#19e5a1" /><circle cx="441.0" cy="317.0" r="4" fill="#19e5a1" /><circle cx="460.0" cy="317.0" r="4" fill="#19e5a1" /><circle cx="479.0" cy="317.0" r="4" fill="#19e5a1" /><circle cx="498.0" cy="317.0" r="4" fill="#19e5a1" /><circle cx="517.0" cy="317.0" r="4" fill="#19e5a1" /><circle cx="536.0" cy="317.0" r="4" fill="#19e5a1" /><circle cx="555.0" cy="317.0" r="4" fill="#19e5a1" /><circle cx="574.0" cy="317.0" r="4" fill="#19e5a1" /><circle cx="593.0" cy="317.0" r="4" fill="#19e5a1" /><circle cx="612.0" cy="317.0" r="4" fill="#19e5a1" /><circle cx="631.0" cy="317.0" r="4" fill="#19e5a1" /><circle cx="650.0" cy="317.0" r="4" fill="#19e5a1" /><circle cx="669.0" cy="317.0" r="4" fill="#19e5a1" /><circle cx="688.0" cy="317.0" r="4" fill="#19e5a1" /><circle cx="707.0" cy="317.0" r="4" fill="#19e5a1" /><circle cx="726.0" cy="317.0" r="4" fill="#19e5a1" /><circle cx="745.0" cy="317.0" r="4" fill="#19e5a1" /><circle cx="764.0" cy="317.0" r="4" fill="#19e5a1" /><circle cx="783.0" cy="317.0" r="4" fill="#19e5a1" /><circle cx="802.0" cy="317.0" r="4" fill="#19e5a1" /><circle cx="821.0" cy="317.0" r="4" fill="#19e5a1" /><circle cx="840.0" cy="317.0" r="4" fill="#19e5a1" /><polyline points="80.0,313.2 99.0,312.2 118.0,312.1 137.0,312.4 156.0,312.4 175.0,312.4 194.0,312.1 213.0,312.0 232.0,311.9 251.0,311.9 270.0,311.8 289.0,311.8 308.0,311.5 327.0,311.5 346.0,311.5 365.0,311.2 384.0,311.2 403.0,311.1 422.0,311.1 441.0,311.1 460.0,310.9 479.0,311.0 498.0,310.8 517.0,310.8 536.0,310.8 555.0,310.8 574.0,310.4 593.0,310.2 612.0,310.4 631.0,310.4 650.0,310.4 669.0,310.4 688.0,310.4 707.0,310.2 726.0,310.2 745.0,310.1 764.0,310.1 783.0,309.8 802.0,309.6 821.0,309.6 840.0,309.6" fill="none" stroke="#6eb6ec" stroke-width="2.5" stroke-linecap="round" stroke-linejoin="round" /><circle cx="80.0" cy="313.2" r="4" fill="#6eb6ec" /><circle cx="99.0" cy="312.2" r="4" fill="#6eb6ec" /><circle cx="118.0" cy="312.1" r="4" fill="#6eb6ec" /><circle cx="137.0" cy="312.4" r="4" fill="#6eb6ec" /><circle cx="156.0" cy="312.4" r="4" fill="#6eb6ec" /><circle cx="175.0" cy="312.4" r="4" fill="#6eb6ec" /><circle cx="194.0" cy="312.1" r="4" fill="#6eb6ec" /><circle cx="213.0" cy="312.0" r="4" fill="#6eb6ec" /><circle cx="232.0" cy="311.9" r="4" fill="#6eb6ec" /><circle cx="251.0" cy="311.9" r="4" fill="#6eb6ec" /><circle cx="270.0" cy="311.8" r="4" fill="#6eb6ec" /><circle cx="289.0" cy="311.8" r="4" fill="#6eb6ec" /><circle cx="308.0" cy="311.5" r="4" fill="#6eb6ec" /><circle cx="327.0" cy="311.5" r="4" fill="#6eb6ec" /><circle cx="346.0" cy="311.5" r="4" fill="#6eb6ec" /><circle cx="365.0" cy="311.2" r="4" fill="#6eb6ec" /><circle cx="384.0" cy="311.2" r="4" fill="#6eb6ec" /><circle cx="403.0" cy="311.1" r="4" fill="#6eb6ec" /><circle cx="422.0" cy="311.1" r="4" fill="#6eb6ec" /><circle cx="441.0" cy="311.1" r="4" fill="#6eb6ec" /><circle cx="460.0" cy="310.9" r="4" fill="#6eb6ec" /><circle cx="479.0" cy="311.0" r="4" fill="#6eb6ec" /><circle cx="498.0" cy="310.8" r="4" fill="#6eb6ec" /><circle cx="517.0" cy="310.8" r="4" fill="#6eb6ec" /><circle cx="536.0" cy="310.8" r="4" fill="#6eb6ec" /><circle cx="555.0" cy="310.8" r="4" fill="#6eb6ec" /><circle cx="574.0" cy="310.4" r="4" fill="#6eb6ec" /><circle cx="593.0" cy="310.2" r="4" fill="#6eb6ec" /><circle cx="612.0" cy="310.4" r="4" fill="#6eb6ec" /><circle cx="631.0" cy="310.4" r="4" fill="#6eb6ec" /><circle cx="650.0" cy="310.4" r="4" fill="#6eb6ec" /><circle cx="669.0" cy="310.4" r="4" fill="#6eb6ec" /><circle cx="688.0" cy="310.4" r="4" fill="#6eb6ec" /><circle cx="707.0" cy="310.2" r="4" fill="#6eb6ec" /><circle cx="726.0" cy="310.2" r="4" fill="#6eb6ec" /><circle cx="745.0" cy="310.1" r="4" fill="#6eb6ec" /><circle cx="764.0" cy="310.1" r="4" fill="#6eb6ec" /><circle cx="783.0" cy="309.8" r="4" fill="#6eb6ec" /><circle cx="802.0" cy="309.6" r="4" fill="#6eb6ec" /><circle cx="821.0" cy="309.6" r="4" fill="#6eb6ec" /><circle cx="840.0" cy="309.6" r="4" fill="#6eb6ec" /><polyline points="80.0,305.8 99.0,305.8 118.0,305.8 137.0,305.8 156.0,305.8 175.0,305.8 194.0,305.8 213.0,305.8 232.0,305.8 251.0,305.8 270.0,304.9 289.0,304.9 308.0,304.9 327.0,304.9 346.0,304.9 365.0,304.9 384.0,304.9 403.0,304.9 422.0,304.9 441.0,304.9 460.0,304.9 479.0,304.9 498.0,304.9 517.0,304.9 536.0,304.9 555.0,304.9 574.0,304.9 593.0,304.9 612.0,304.9 631.0,304.9 650.0,304.9 669.0,304.9 688.0,304.9 707.0,304.9 726.0,304.9 745.0,304.9 764.0,304.9 783.0,303.6 802.0,303.6 821.0,303.6 840.0,303.6" fill="none" stroke="#5938e2" stroke-width="2.5" stroke-linecap="round" stroke-linejoin="round" /><circle cx="80.0" cy="305.8" r="4" fill="#5938e2" /><circle cx="99.0" cy="305.8" r="4" fill="#5938e2" /><circle cx="118.0" cy="305.8" r="4" fill="#5938e2" /><circle cx="137.0" cy="305.8" r="4" fill="#5938e2" /><circle cx="156.0" cy="305.8" r="4" fill="#5938e2" /><circle cx="175.0" cy="305.8" r="4" fill="#5938e2" /><circle cx="194.0" cy="305.8" r="4" fill="#5938e2" /><circle cx="213.0" cy="305.8" r="4" fill="#5938e2" /><circle cx="232.0" cy="305.8" r="4" fill="#5938e2" /><circle cx="251.0" cy="305.8" r="4" fill="#5938e2" /><circle cx="270.0" cy="304.9" r="4" fill="#5938e2" /><circle cx="289.0" cy="304.9" r="4" fill="#5938e2" /><circle cx="308.0" cy="304.9" r="4" fill="#5938e2" /><circle cx="327.0" cy="304.9" r="4" fill="#5938e2" /><circle cx="346.0" cy="304.9" r="4" fill="#5938e2" /><circle cx="365.0" cy="304.9" r="4" fill="#5938e2" /><circle cx="384.0" cy="304.9" r="4" fill="#5938e2" /><circle cx="403.0" cy="304.9" r="4" fill="#5938e2" /><circle cx="422.0" cy="304.9" r="4" fill="#5938e2" /><circle cx="441.0" cy="304.9" r="4" fill="#5938e2" /><circle cx="460.0" cy="304.9" r="4" fill="#5938e2" /><circle cx="479.0" cy="304.9" r="4" fill="#5938e2" /><circle cx="498.0" cy="304.9" r="4" fill="#5938e2" /><circle cx="517.0" cy="304.9" r="4" fill="#5938e2" /><circle cx="536.0" cy="304.9" r="4" fill="#5938e2" /><circle cx="555.0" cy="304.9" r="4" fill="#5938e2" /><circle cx="574.0" cy="304.9" r="4" fill="#5938e2" /><circle cx="593.0" cy="304.9" r="4" fill="#5938e2" /><circle cx="612.0" cy="304.9" r="4" fill="#5938e2" /><circle cx="631.0" cy="304.9" r="4" fill="#5938e2" /><circle cx="650.0" cy="304.9" r="4" fill="#5938e2" /><circle cx="669.0" cy="304.9" r="4" fill="#5938e2" /><circle cx="688.0" cy="304.9" r="4" fill="#5938e2" /><circle cx="707.0" cy="304.9" r="4" fill="#5938e2" /><circle cx="726.0" cy="304.9" r="4" fill="#5938e2" /><circle cx="745.0" cy="304.9" r="4" fill="#5938e2" /><circle cx="764.0" cy="304.9" r="4" fill="#5938e2" /><circle cx="783.0" cy="303.6" r="4" fill="#5938e2" /><circle cx="802.0" cy="303.6" r="4" fill="#5938e2" /><circle cx="821.0" cy="303.6" r="4" fill="#5938e2" /><circle cx="840.0" cy="303.6" r="4" fill="#5938e2" /><polyline points="80.0,144.6 99.0,140.1 118.0,139.9 137.0,139.8 156.0,139.8 175.0,139.6 194.0,139.6 213.0,139.6 232.0,139.6 251.0,139.6 270.0,138.4 289.0,138.4 308.0,138.4 327.0,138.4 346.0,138.4 365.0,138.4 384.0,138.4 403.0,137.4 422.0,137.4 441.0,137.4 460.0,137.4 479.0,137.4 498.0,137.4 517.0,137.4 536.0,137.4 555.0,137.4 574.0,137.4 593.0,137.4 612.0,131.2 631.0,131.2 650.0,130.8 669.0,130.4 688.0,126.9 707.0,126.9 726.0,126.9 745.0,126.9 764.0,126.9 783.0,126.9 802.0,126.9 821.0,126.9 840.0,126.9" fill="none" stroke="#60e5e0" stroke-width="2.5" stroke-linecap="round" stroke-linejoin="round" /><circle cx="80.0" cy="144.6" r="4" fill="#60e5e0" /><circle cx="99.0" cy="140.1" r="4" fill="#60e5e0" /><circle cx="118.0" cy="139.9" r="4" fill="#60e5e0" /><circle cx="137.0" cy="139.8" r="4" fill="#60e5e0" /><circle cx="156.0" cy="139.8" r="4" fill="#60e5e0" /><circle cx="175.0" cy="139.6" r="4" fill="#60e5e0" /><circle cx="194.0" cy="139.6" r="4" fill="#60e5e0" /><circle cx="213.0" cy="139.6" r="4" fill="#60e5e0" /><circle cx="232.0" cy="139.6" r="4" fill="#60e5e0" /><circle cx="251.0" cy="139.6" r="4" fill="#60e5e0" /><circle cx="270.0" cy="138.4" r="4" fill="#60e5e0" /><circle cx="289.0" cy="138.4" r="4" fill="#60e5e0" /><circle cx="308.0" cy="138.4" r="4" fill="#60e5e0" /><circle cx="327.0" cy="138.4" r="4" fill="#60e5e0" /><circle cx="346.0" cy="138.4" r="4" fill="#60e5e0" /><circle cx="365.0" cy="138.4" r="4" fill="#60e5e0" /><circle cx="384.0" cy="138.4" r="4" fill="#60e5e0" /><circle cx="403.0" cy="137.4" r="4" fill="#60e5e0" /><circle cx="422.0" cy="137.4" r="4" fill="#60e5e0" /><circle cx="441.0" cy="137.4" r="4" fill="#60e5e0" /><circle cx="460.0" cy="137.4" r="4" fill="#60e5e0" /><circle cx="479.0" cy="137.4" r="4" fill="#60e5e0" /><circle cx="498.0" cy="137.4" r="4" fill="#60e5e0" /><circle cx="517.0" cy="137.4" r="4" fill="#60e5e0" /><circle cx="536.0" cy="137.4" r="4" fill="#60e5e0" /><circle cx="555.0" cy="137.4" r="4" fill="#60e5e0" /><circle cx="574.0" cy="137.4" r="4" fill="#60e5e0" /><circle cx="593.0" cy="137.4" r="4" fill="#60e5e0" /><circle cx="612.0" cy="131.2" r="4" fill="#60e5e0" /><circle cx="631.0" cy="131.2" r="4" fill="#60e5e0" /><circle cx="650.0" cy="130.8" r="4" fill="#60e5e0" /><circle cx="669.0" cy="130.4" r="4" fill="#60e5e0" /><circle cx="688.0" cy="126.9" r="4" fill="#60e5e0" /><circle cx="707.0" cy="126.9" r="4" fill="#60e5e0" /><circle cx="726.0" cy="126.9" r="4" fill="#60e5e0" /><circle cx="745.0" cy="126.9" r="4" fill="#60e5e0" /><circle cx="764.0" cy="126.9" r="4" fill="#60e5e0" /><circle cx="783.0" cy="126.9" r="4" fill="#60e5e0" /><circle cx="802.0" cy="126.9" r="4" fill="#60e5e0" /><circle cx="821.0" cy="126.9" r="4" fill="#60e5e0" /><circle cx="840.0" cy="126.9" r="4" fill="#60e5e0" /><polyline points="80.0,314.6 99.0,314.4 118.0,314.2 137.0,314.2 156.0,314.2 175.0,314.1 194.0,314.1 213.0,314.1 232.0,314.1 251.0,314.1 270.0,314.0 289.0,314.0 308.0,314.0 327.0,314.0 346.0,314.0 365.0,314.0 384.0,314.0 403.0,314.0 422.0,314.0 441.0,314.0 460.0,314.0 479.0,314.0 498.0,314.0 517.0,314.0 536.0,314.0 555.0,314.0 574.0,314.0 593.0,314.0 612.0,314.0 631.0,314.0 650.0,314.0 669.0,314.0 688.0,314.0 707.0,314.0 726.0,314.0 745.0,314.0 764.0,314.0 783.0,314.0 802.0,314.0 821.0,314.0 840.0,314.0" fill="none" stroke="#567de1" stroke-width="2.5" stroke-linecap="round" stroke-linejoin="round" /><circle cx="80.0" cy="314.6" r="4" fill="#567de1" /><circle cx="99.0" cy="314.4" r="4" fill="#567de1" /><circle cx="118.0" cy="314.2" r="4" fill="#567de1" /><circle cx="137.0" cy="314.2" r="4" fill="#567de1" /><circle cx="156.0" cy="314.2" r="4" fill="#567de1" /><circle cx="175.0" cy="314.1" r="4" fill="#567de1" /><circle cx="194.0" cy="314.1" r="4" fill="#567de1" /><circle cx="213.0" cy="314.1" r="4" fill="#567de1" /><circle cx="232.0" cy="314.1" r="4" fill="#567de1" /><circle cx="251.0" cy="314.1" r="4" fill="#567de1" /><circle cx="270.0" cy="314.0" r="4" fill="#567de1" /><circle cx="289.0" cy="314.0" r="4" fill="#567de1" /><circle cx="308.0" cy="314.0" r="4" fill="#567de1" /><circle cx="327.0" cy="314.0" r="4" fill="#567de1" /><circle cx="346.0" cy="314.0" r="4" fill="#567de1" /><circle cx="365.0" cy="314.0" r="4" fill="#567de1" /><circle cx="384.0" cy="314.0" r="4" fill="#567de1" /><circle cx="403.0" cy="314.0" r="4" fill="#567de1" /><circle cx="422.0" cy="314.0" r="4" fill="#567de1" /><circle cx="441.0" cy="314.0" r="4" fill="#567de1" /><circle cx="460.0" cy="314.0" r="4" fill="#567de1" /><circle cx="479.0" cy="314.0" r="4" fill="#567de1" /><circle cx="498.0" cy="314.0" r="4" fill="#567de1" /><circle cx="517.0" cy="314.0" r="4" fill="#567de1" /><circle cx="536.0" cy="314.0" r="4" fill="#567de1" /><circle cx="555.0" cy="314.0" r="4" fill="#567de1" /><circle cx="574.0" cy="314.0" r="4" fill="#567de1" /><circle cx="593.0" cy="314.0" r="4" fill="#567de1" /><circle cx="612.0" cy="314.0" r="4" fill="#567de1" /><circle cx="631.0" cy="314.0" r="4" fill="#567de1" /><circle cx="650.0" cy="314.0" r="4" fill="#567de1" /><circle cx="669.0" cy="314.0" r="4" fill="#567de1" /><circle cx="688.0" cy="314.0" r="4" fill="#567de1" /><circle cx="707.0" cy="314.0" r="4" fill="#567de1" /><circle cx="726.0" cy="314.0" r="4" fill="#567de1" /><circle cx="745.0" cy="314.0" r="4" fill="#567de1" /><circle cx="764.0" cy="314.0" r="4" fill="#567de1" /><circle cx="783.0" cy="314.0" r="4" fill="#567de1" /><circle cx="802.0" cy="314.0" r="4" fill="#567de1" /><circle cx="821.0" cy="314.0" r="4" fill="#567de1" /><circle cx="840.0" cy="314.0" r="4" fill="#567de1" /><polyline points="80.0,303.9 99.0,304.2 118.0,304.4 137.0,304.4 156.0,304.4 175.0,304.4 194.0,304.4 213.0,304.4 232.0,304.4 251.0,304.4 270.0,304.4 289.0,304.4 308.0,304.4 327.0,304.4 346.0,304.4 365.0,304.4 384.0,304.4 403.0,304.4 422.0,304.4 441.0,304.4 460.0,304.4 479.0,304.4 498.0,304.4 517.0,304.4 536.0,304.4 555.0,304.4 574.0,304.4 593.0,304.4 612.0,299.1 631.0,299.1 650.0,299.1 669.0,298.9 688.0,295.6 707.0,295.6 726.0,295.6 745.0,295.6 764.0,295.6 783.0,295.6 802.0,295.6 821.0,295.6 840.0,295.6" fill="none" stroke="#9754dd" stroke-width="2.5" stroke-linecap="round" stroke-linejoin="round" /><circle cx="80.0" cy="303.9" r="4" fill="#9754dd" /><circle cx="99.0" cy="304.2" r="4" fill="#9754dd" /><circle cx="118.0" cy="304.4" r="4" fill="#9754dd" /><circle cx="137.0" cy="304.4" r="4" fill="#9754dd" /><circle cx="156.0" cy="304.4" r="4" fill="#9754dd" /><circle cx="175.0" cy="304.4" r="4" fill="#9754dd" /><circle cx="194.0" cy="304.4" r="4" fill="#9754dd" /><circle cx="213.0" cy="304.4" r="4" fill="#9754dd" /><circle cx="232.0" cy="304.4" r="4" fill="#9754dd" /><circle cx="251.0" cy="304.4" r="4" fill="#9754dd" /><circle cx="270.0" cy="304.4" r="4" fill="#9754dd" /><circle cx="289.0" cy="304.4" r="4" fill="#9754dd" /><circle cx="308.0" cy="304.4" r="4" fill="#9754dd" /><circle cx="327.0" cy="304.4" r="4" fill="#9754dd" /><circle cx="346.0" cy="304.4" r="4" fill="#9754dd" /><circle cx="365.0" cy="304.4" r="4" fill="#9754dd" /><circle cx="384.0" cy="304.4" r="4" fill="#9754dd" /><circle cx="403.0" cy="304.4" r="4" fill="#9754dd" /><circle cx="422.0" cy="304.4" r="4" fill="#9754dd" /><circle cx="441.0" cy="304.4" r="4" fill="#9754dd" /><circle cx="460.0" cy="304.4" r="4" fill="#9754dd" /><circle cx="479.0" cy="304.4" r="4" fill="#9754dd" /><circle cx="498.0" cy="304.4" r="4" fill="#9754dd" /><circle cx="517.0" cy="304.4" r="4" fill="#9754dd" /><circle cx="536.0" cy="304.4" r="4" fill="#9754dd" /><circle cx="555.0" cy="304.4" r="4" fill="#9754dd" /><circle cx="574.0" cy="304.4" r="4" fill="#9754dd" /><circle cx="593.0" cy="304.4" r="4" fill="#9754dd" /><circle cx="612.0" cy="299.1" r="4" fill="#9754dd" /><circle cx="631.0" cy="299.1" r="4" fill="#9754dd" /><circle cx="650.0" cy="299.1" r="4" fill="#9754dd" /><circle cx="669.0" cy="298.9" r="4" fill="#9754dd" /><circle cx="688.0" cy="295.6" r="4" fill="#9754dd" /><circle cx="707.0" cy="295.6" r="4" fill="#9754dd" /><circle cx="726.0" cy="295.6" r="4" fill="#9754dd" /><circle cx="745.0" cy="295.6" r="4" fill="#9754dd" /><circle cx="764.0" cy="295.6" r="4" fill="#9754dd" /><circle cx="783.0" cy="295.6" r="4" fill="#9754dd" /><circle cx="802.0" cy="295.6" r="4" fill="#9754dd" /><circle cx="821.0" cy="295.6" r="4" fill="#9754dd" /><circle cx="840.0" cy="295.6" r="4" fill="#9754dd" />
  <rect x="80" y="339" width="10" height="10" rx="2" ry="2" fill="#19e5a1" /><text x="96" y="348" class="legend-label">Stars</text><rect x="250" y="339" width="10" height="10" rx="2" ry="2" fill="#6eb6ec" /><text x="266" y="348" class="legend-label">Followers</text><rect x="420" y="339" width="10" height="10" rx="2" ry="2" fill="#5938e2" /><text x="436" y="348" class="legend-label">Following</text><rect x="590" y="339" width="10" height="10" rx="2" ry="2" fill="#60e5e0" /><text x="606" y="348" class="legend-label">Contributions</text><rect x="80" y="357" width="10" height="10" rx="2" ry="2" fill="#567de1" /><text x="96" y="366" class="legend-label">Pull Requests</text><rect x="250" y="357" width="10" height="10" rx="2" ry="2" fill="#9754dd" /><text x="266" y="366" class="legend-label">Issues</text>
</svg>
