<svg width="900" height="402" viewBox="0 0 900 402" xmlns="http://www.w3.org/2000/svg">
  <defs>
    <linearGradient id="history-gradient" x1="0%" y1="0%" x2="100%" y2="100%">
      <stop offset="0%" style="stop-color:#58a6ff;stop-opacity:1" />
      <stop offset="100%" style="stop-color:#a371f7;stop-opacity:1" />
    </linearGradient>
    <clipPath id="history-rounded">
      <rect x="0" y="0" width="900" height="402" rx="8" ry="8" />
    </clipPath>
  </defs>
  <style>
    .title {
      font-family: 'Segoe UI', Ubuntu, 'Helvetica Neue', sans-serif;
      font-size: 22px;
      font-weight: 700;
      fill: #58a6ff;
    }
    .subtitle {
      font-family: 'Segoe UI', Ubuntu, 'Helvetica Neue', sans-serif;
      font-size: 12px;
      font-weight: 500;
      fill: #8b949e;
    }
    .axis-label {
      font-family: 'Segoe UI', Ubuntu, 'Helvetica Neue', sans-serif;
      font-size: 10px;
      fill: #8b949e;
    }
    .grid-line {
      stroke: #30363d;
      stroke-width: 1;
      opacity: 0.3;
    }
    .legend-label {
      font-family: 'Segoe UI', Ubuntu, 'Helvetica Neue', sans-serif;
      font-size: 11px;
      fill: #c9d1d9;
      dominant-baseline: middle;
    }
  </style>
  <rect clip-path="url(#history-rounded)" width="100%" height="100%" fill="#0d1117" stroke="#30363d" stroke-width="1" />
  <rect x="0" y="396" width="900" height="6" fill="url(#history-gradient)" clip-path="url(#history-rounded)" />
  <text x="24" y="34" class="title">Leonardo Klein Stats History</text>
  <text x="24" y="54" class="subtitle">Period: 2026-02-20 to 2026-03-08</text>
  <text x="72" y="320.0" text-anchor="end" dominant-baseline="central" class="axis-label">0</text><text x="72" y="270.0" text-anchor="end" dominant-baseline="central" class="axis-label">400</text><text x="72" y="220.0" text-anchor="end" dominant-baseline="central" class="axis-label">800</text><text x="72" y="170.0" text-anchor="end" dominant-baseline="central" class="axis-label">1.2k</text><text x="72" y="120.0" text-anchor="end" dominant-baseline="central" class="axis-label">1.6k</text><text x="72" y="70.0" text-anchor="end" dominant-baseline="central" class="axis-label">2.0k</text>
  <text x="80.0" y="336" text-anchor="middle" class="axis-label">02-20</text><text x="156.0" y="336" text-anchor="middle" class="axis-label">02-22</text><text x="232.0" y="336" text-anchor="middle" class="axis-label">02-23</text><text x="308.0" y="336" text-anchor="middle" class="axis-label">02-25</text><text x="384.0" y="336" text-anchor="middle" class="axis-label">02-26</text><text x="460.0" y="336" text-anchor="middle" class="axis-label">02-28</text><text x="536.0" y="336" text-anchor="middle" class="axis-label">03-02</text><text x="612.0" y="336" text-anchor="middle" class="axis-label">03-03</text><text x="688.0" y="336" text-anchor="middle" class="axis-label">03-05</text><text x="764.0" y="336" text-anchor="middle" class="axis-label">03-06</text><text x="840.0" y="336" text-anchor="middle" class="axis-label">03-08</text>
  <line x1="80" y1="320.0" x2="840" y2="320.0" class="grid-line" /><line x1="80" y1="270.0" x2="840" y2="270.0" class="grid-line" /><line x1="80" y1="220.0" x2="840" y2="220.0" class="grid-line" /><line x1="80" y1="170.0" x2="840" y2="170.0" class="grid-line" /><line x1="80" y1="120.0" x2="840" y2="120.0" class="grid-line" /><line x1="80" y1="70.0" x2="840" y2="70.0" class="grid-line" />
  <polyline points="80.0,317.0 89.5,317.0 99.0,317.0 108.5,317.0 118.0,317.0 127.5,317.0 137.0,317.0 146.5,317.0 156.0,317.0 165.5,317.0 175.0,317.0 184.5,317.0 194.0,317.0 203.5,317.0 213.0,317.0 222.5,317.0 232.0,317.0 241.5,317.0 251.0,317.0 260.5,317.0 270.0,317.0 279.5,317.0 289.0,317.0 298.5,317.0 308.0,317.0 317.5,317.0 327.0,317.0 336.5,317.0 346.0,317.0 355.5,317.0 365.0,317.0 374.5,317.0 384.0,317.0 393.5,317.0 403.0,317.0 412.5,317.0 422.0,317.0 431.5,317.0 441.0,317.0 450.5,317.0 460.0,317.0 469.5,317.0 479.0,317.0 488.5,317.0 498.0,317.0 507.5,317.0 517.0,317.0 526.5,317.0 536.0,317.0 545.5,317.0 555.0,317.0 564.5,317.0 574.0,317.0 583.5,317.0 593.0,317.0 602.5,317.0 612.0,317.0 621.5,317.0 631.0,317.0 640.5,317.0 650.0,317.0 659.5,317.0 669.0,317.0 678.5,317.0 688.0,317.0 697.5,317.0 707.0,317.0 716.5,317.0 726.0,317.0 735.5,317.0 745.0,317.0 754.5,317.0 764.0,317.0 773.5,317.0 783.0,317.0 792.5,317.0 802.0,317.0 811.5,317.0 821.0,317.0 830.5,317.0 840.0,317.0" fill="none" stroke="#19e5a1" stroke-width="2.5" stroke-linecap="round" stroke-linejoin="round" /><circle cx="80.0" cy="317.0" r="4" fill="#19e5a1" /><circle cx="89.5" cy="317.0" r="4" fill="#19e5a1" /><circle cx="99.0" cy="317.0" r="4" fill="#19e5a1" /><circle cx="108.5" cy="317.0" r="4" fill="#19e5a1" /><circle cx="118.0" cy="317.0" r="4" fill="#19e5a1" /><circle cx="127.5" cy="317.0" r="4" fill="#19e5a1" /><circle cx="137.0" cy="317.0" r="4" fill="#19e5a1" /><circle cx="146.5" cy="317.0" r="4" fill="#19e5a1" /><circle cx="156.0" cy="317.0" r="4" fill="#19e5a1" /><circle cx="165.5" cy="317.0" r="4" fill="#19e5a1" /><circle cx="175.0" cy="317.0" r="4" fill="#19e5a1" /><circle cx="184.5" cy="317.0" r="4" fill="#19e5a1" /><circle cx="194.0" cy="317.0" r="4" fill="#19e5a1" /><circle cx="203.5" cy="317.0" r="4" fill="#19e5a1" /><circle cx="213.0" cy="317.0" r="4" fill="#19e5a1" /><circle cx="222.5" cy="317.0" r="4" fill="#19e5a1" /><circle cx="232.0" cy="317.0" r="4" fill="#19e5a1" /><circle cx="241.5" cy="317.0" r="4" fill="#19e5a1" /><circle cx="251.0" cy="317.0" r="4" fill="#19e5a1" /><circle cx="260.5" cy="317.0" r="4" fill="#19e5a1" /><circle cx="270.0" cy="317.0" r="4" fill="#19e5a1" /><circle cx="279.5" cy="317.0" r="4" fill="#19e5a1" /><circle cx="289.0" cy="317.0" r="4" fill="#19e5a1" /><circle cx="298.5" cy="317.0" r="4" fill="#19e5a1" /><circle cx="308.0" cy="317.0" r="4" fill="#19e5a1" /><circle cx="317.5" cy="317.0" r="4" fill="#19e5a1" /><circle cx="327.0" cy="317.0" r="4" fill="#19e5a1" /><circle cx="336.5" cy="317.0" r="4" fill="#19e5a1" /><circle cx="346.0" cy="317.0" r="4" fill="#19e5a1" /><circle cx="355.5" cy="317.0" r="4" fill="#19e5a1" /><circle cx="365.0" cy="317.0" r="4" fill="#19e5a1" /><circle cx="374.5" cy="317.0" r="4" fill="#19e5a1" /><circle cx="384.0" cy="317.0" r="4" fill="#19e5a1" /><circle cx="393.5" cy="317.0" r="4" fill="#19e5a1" /><circle cx="403.0" cy="317.0" r="4" fill="#19e5a1" /><circle cx="412.5" cy="317.0" r="4" fill="#19e5a1" /><circle cx="422.0" cy="317.0" r="4" fill="#19e5a1" /><circle cx="431.5" cy="317.0" r="4" fill="#19e5a1" /><circle cx="441.0" cy="317.0" r="4" fill="#19e5a1" /><circle cx="450.5" cy="317.0" r="4" fill="#19e5a1" /><circle cx="460.0" cy="317.0" r="4" fill="#19e5a1" /><circle cx="469.5" cy="317.0" r="4" fill="#19e5a1" /><circle cx="479.0" cy="317.0" r="4" fill="#19e5a1" /><circle cx="488.5" cy="317.0" r="4" fill="#19e5a1" /><circle cx="498.0" cy="317.0" r="4" fill="#19e5a1" /><circle cx="507.5" cy="317.0" r="4" fill="#19e5a1" /><circle cx="517.0" cy="317.0" r="4" fill="#19e5a1" /><circle cx="526.5" cy="317.0" r="4" fill="#19e5a1" /><circle cx="536.0" cy="317.0" r="4" fill="#19e5a1" /><circle cx="545.5" cy="317.0" r="4" fill="#19e5a1" /><circle cx="555.0" cy="317.0" r="4" fill="#19e5a1" /><circle cx="564.5" cy="317.0" r="4" fill="#19e5a1" /><circle cx="574.0" cy="317.0" r="4" fill="#19e5a1" /><circle cx="583.5" cy="317.0" r="4" fill="#19e5a1" /><circle cx="593.0" cy="317.0" r="4" fill="#19e5a1" /><circle cx="602.5" cy="317.0" r="4" fill="#19e5a1" /><circle cx="612.0" cy="317.0" r="4" fill="#19e5a1" /><circle cx="621.5" cy="317.0" r="4" fill="#19e5a1" /><circle cx="631.0" cy="317.0" r="4" fill="#19e5a1" /><circle cx="640.5" cy="317.0" r="4" fill="#19e5a1" /><circle cx="650.0" cy="317.0" r="4" fill="#19e5a1" /><circle cx="659.5" cy="317.0" r="4" fill="#19e5a1" /><circle cx="669.0" cy="317.0" r="4" fill="#19e5a1" /><circle cx="678.5" cy="317.0" r="4" fill="#19e5a1" /><circle cx="688.0" cy="317.0" r="4" fill="#19e5a1" /><circle cx="697.5" cy="317.0" r="4" fill="#19e5a1" /><circle cx="707.0" cy="317.0" r="4" fill="#19e5a1" /><circle cx="716.5" cy="317.0" r="4" fill="#19e5a1" /><circle cx="726.0" cy="317.0" r="4" fill="#19e5a1" /><circle cx="735.5" cy="317.0" r="4" fill="#19e5a1" /><circle cx="745.0" cy="317.0" r="4" fill="#19e5a1" /><circle cx="754.5" cy="317.0" r="4" fill="#19e5a1" /><circle cx="764.0" cy="317.0" r="4" fill="#19e5a1" /><circle cx="773.5" cy="317.0" r="4" fill="#19e5a1" /><circle cx="783.0" cy="317.0" r="4" fill="#19e5a1" /><circle cx="792.5" cy="317.0" r="4" fill="#19e5a1" /><circle cx="802.0" cy="317.0" r="4" fill="#19e5a1" /><circle cx="811.5" cy="317.0" r="4" fill="#19e5a1" /><circle cx="821.0" cy="317.0" r="4" fill="#19e5a1" /><circle cx="830.5" cy="317.0" r="4" fill="#19e5a1" /><circle cx="840.0" cy="317.0" r="4" fill="#19e5a1" /><polyline points="80.0,313.2 89.5,312.2 99.0,312.1 108.5,312.4 118.0,312.4 127.5,312.4 137.0,312.1 146.5,312.0 156.0,311.9 165.5,311.9 175.0,311.8 184.5,311.8 194.0,311.5 203.5,311.5 213.0,311.5 222.5,311.2 232.0,311.2 241.5,311.1 251.0,311.1 260.5,311.1 270.0,310.9 279.5,311.0 289.0,310.8 298.5,310.8 308.0,310.8 317.5,310.8 327.0,310.4 336.5,310.2 346.0,310.4 355.5,310.4 365.0,310.4 374.5,310.4 384.0,310.4 393.5,310.2 403.0,310.2 412.5,310.1 422.0,310.1 431.5,309.8 441.0,309.6 450.5,309.6 460.0,309.6 469.5,309.6 479.0,309.5 488.5,309.4 498.0,309.4 507.5,309.4 517.0,309.4 526.5,309.2 536.0,309.2 545.5,309.2 555.0,309.4 564.5,309.4 574.0,309.5 583.5,309.2 593.0,309.2 602.5,309.4 612.0,309.2 621.5,309.2 631.0,309.2 640.5,309.2 650.0,309.2 659.5,309.1 669.0,309.1 678.5,309.1 688.0,309.1 697.5,309.0 707.0,309.0 716.5,308.9 726.0,308.9 735.5,308.9 745.0,308.6 754.5,308.6 764.0,308.6 773.5,308.6 783.0,308.6 792.5,308.6 802.0,308.6 811.5,308.6 821.0,308.6 830.5,308.6 840.0,308.6" fill="none" stroke="#6eb6ec" stroke-width="2.5" stroke-linecap="round" stroke-linejoin="round" /><circle cx="80.0" cy="313.2" r="4" fill="#6eb6ec" /><circle cx="89.5" cy="312.2" r="4" fill="#6eb6ec" /><circle cx="99.0" cy="312.1" r="4" fill="#6eb6ec" /><circle cx="108.5" cy="312.4" r="4" fill="#6eb6ec" /><circle cx="118.0" cy="312.4" r="4" fill="#6eb6ec" /><circle cx="127.5" cy="312.4" r="4" fill="#6eb6ec" /><circle cx="137.0" cy="312.1" r="4" fill="#6eb6ec" /><circle cx="146.5" cy="312.0" r="4" fill="#6eb6ec" /><circle cx="156.0" cy="311.9" r="4" fill="#6eb6ec" /><circle cx="165.5" cy="311.9" r="4" fill="#6eb6ec" /><circle cx="175.0" cy="311.8" r="4" fill="#6eb6ec" /><circle cx="184.5" cy="311.8" r="4" fill="#6eb6ec" /><circle cx="194.0" cy="311.5" r="4" fill="#6eb6ec" /><circle cx="203.5" cy="311.5" r="4" fill="#6eb6ec" /><circle cx="213.0" cy="311.5" r="4" fill="#6eb6ec" /><circle cx="222.5" cy="311.2" r="4" fill="#6eb6ec" /><circle cx="232.0" cy="311.2" r="4" fill="#6eb6ec" /><circle cx="241.5" cy="311.1" r="4" fill="#6eb6ec" /><circle cx="251.0" cy="311.1" r="4" fill="#6eb6ec" /><circle cx="260.5" cy="311.1" r="4" fill="#6eb6ec" /><circle cx="270.0" cy="310.9" r="4" fill="#6eb6ec" /><circle cx="279.5" cy="311.0" r="4" fill="#6eb6ec" /><circle cx="289.0" cy="310.8" r="4" fill="#6eb6ec" /><circle cx="298.5" cy="310.8" r="4" fill="#6eb6ec" /><circle cx="308.0" cy="310.8" r="4" fill="#6eb6ec" /><circle cx="317.5" cy="310.8" r="4" fill="#6eb6ec" /><circle cx="327.0" cy="310.4" r="4" fill="#6eb6ec" /><circle cx="336.5" cy="310.2" r="4" fill="#6eb6ec" /><circle cx="346.0" cy="310.4" r="4" fill="#6eb6ec" /><circle cx="355.5" cy="310.4" r="4" fill="#6eb6ec" /><circle cx="365.0" cy="310.4" r="4" fill="#6eb6ec" /><circle cx="374.5" cy="310.4" r="4" fill="#6eb6ec" /><circle cx="384.0" cy="310.4" r="4" fill="#6eb6ec" /><circle cx="393.5" cy="310.2" r="4" fill="#6eb6ec" /><circle cx="403.0" cy="310.2" r="4" fill="#6eb6ec" /><circle cx="412.5" cy="310.1" r="4" fill="#6eb6ec" /><circle cx="422.0" cy="310.1" r="4" fill="#6eb6ec" /><circle cx="431.5" cy="309.8" r="4" fill="#6eb6ec" /><circle cx="441.0" cy="309.6" r="4" fill="#6eb6ec" /><circle cx="450.5" cy="309.6" r="4" fill="#6eb6ec" /><circle cx="460.0" cy="309.6" r="4" fill="#6eb6ec" /><circle cx="469.5" cy="309.6" r="4" fill="#6eb6ec" /><circle cx="479.0" cy="309.5" r="4" fill="#6eb6ec" /><circle cx="488.5" cy="309.4" r="4" fill="#6eb6ec" /><circle cx="498.0" cy="309.4" r="4" fill="#6eb6ec" /><circle cx="507.5" cy="309.4" r="4" fill="#6eb6ec" /><circle cx="517.0" cy="309.4" r="4" fill="#6eb6ec" /><circle cx="526.5" cy="309.2" r="4" fill="#6eb6ec" /><circle cx="536.0" cy="309.2" r="4" fill="#6eb6ec" /><circle cx="545.5" cy="309.2" r="4" fill="#6eb6ec" /><circle cx="555.0" cy="309.4" r="4" fill="#6eb6ec" /><circle cx="564.5" cy="309.4" r="4" fill="#6eb6ec" /><circle cx="574.0" cy="309.5" r="4" fill="#6eb6ec" /><circle cx="583.5" cy="309.2" r="4" fill="#6eb6ec" /><circle cx="593.0" cy="309.2" r="4" fill="#6eb6ec" /><circle cx="602.5" cy="309.4" r="4" fill="#6eb6ec" /><circle cx="612.0" cy="309.2" r="4" fill="#6eb6ec" /><circle cx="621.5" cy="309.2" r="4" fill="#6eb6ec" /><circle cx="631.0" cy="309.2" r="4" fill="#6eb6ec" /><circle cx="640.5" cy="309.2" r="4" fill="#6eb6ec" /><circle cx="650.0" cy="309.2" r="4" fill="#6eb6ec" /><circle cx="659.5" cy="309.1" r="4" fill="#6eb6ec" /><circle cx="669.0" cy="309.1" r="4" fill="#6eb6ec" /><circle cx="678.5" cy="309.1" r="4" fill="#6eb6ec" /><circle cx="688.0" cy="309.1" r="4" fill="#6eb6ec" /><circle cx="697.5" cy="309.0" r="4" fill="#6eb6ec" /><circle cx="707.0" cy="309.0" r="4" fill="#6eb6ec" /><circle cx="716.5" cy="308.9" r="4" fill="#6eb6ec" /><circle cx="726.0" cy="308.9" r="4" fill="#6eb6ec" /><circle cx="735.5" cy="308.9" r="4" fill="#6eb6ec" /><circle cx="745.0" cy="308.6" r="4" fill="#6eb6ec" /><circle cx="754.5" cy="308.6" r="4" fill="#6eb6ec" /><circle cx="764.0" cy="308.6" r="4" fill="#6eb6ec" /><circle cx="773.5" cy="308.6" r="4" fill="#6eb6ec" /><circle cx="783.0" cy="308.6" r="4" fill="#6eb6ec" /><circle cx="792.5" cy="308.6" r="4" fill="#6eb6ec" /><circle cx="802.0" cy="308.6" r="4" fill="#6eb6ec" /><circle cx="811.5" cy="308.6" r="4" fill="#6eb6ec" /><circle cx="821.0" cy="308.6" r="4" fill="#6eb6ec" /><circle cx="830.5" cy="308.6" r="4" fill="#6eb6ec" /><circle cx="840.0" cy="308.6" r="4" fill="#6eb6ec" /><polyline points="80.0,305.8 89.5,305.8 99.0,305.8 108.5,305.8 118.0,305.8 127.5,305.8 137.0,305.8 146.5,305.8 156.0,305.8 165.5,305.8 175.0,304.9 184.5,304.9 194.0,304.9 203.5,304.9 213.0,304.9 222.5,304.9 232.0,304.9 241.5,304.9 251.0,304.9 260.5,304.9 270.0,304.9 279.5,304.9 289.0,304.9 298.5,304.9 308.0,304.9 317.5,304.9 327.0,304.9 336.5,304.9 346.0,304.9 355.5,304.9 365.0,304.9 374.5,304.9 384.0,304.9 393.5,304.9 403.0,304.9 412.5,304.9 422.0,304.9 431.5,303.6 441.0,303.6 450.5,303.6 460.0,303.6 469.5,303.6 479.0,303.6 488.5,303.6 498.0,303.6 507.5,303.6 517.0,303.6 526.5,303.6 536.0,303.6 545.5,303.6 555.0,303.6 564.5,302.9 574.0,302.9 583.5,298.0 593.0,298.0 602.5,298.0 612.0,298.0 621.5,298.0 631.0,298.0 640.5,298.0 650.0,298.0 659.5,298.0 669.0,298.0 678.5,298.0 688.0,298.0 697.5,298.0 707.0,298.0 716.5,297.8 726.0,297.8 735.5,297.8 745.0,297.8 754.5,297.8 764.0,297.8 773.5,297.8 783.0,297.8 792.5,297.8 802.0,297.8 811.5,297.8 821.0,297.8 830.5,297.8 840.0,297.8" fill="none" stroke="#5938e2" stroke-width="2.5" stroke-linecap="round" stroke-linejoin="round" /><circle cx="80.0" cy="305.8" r="4" fill="#5938e2" /><circle cx="89.5" cy="305.8" r="4" fill="#5938e2" /><circle cx="99.0" cy="305.8" r="4" fill="#5938e2" /><circle cx="108.5" cy="305.8" r="4" fill="#5938e2" /><circle cx="118.0" cy="305.8" r="4" fill="#5938e2" /><circle cx="127.5" cy="305.8" r="4" fill="#5938e2" /><circle cx="137.0" cy="305.8" r="4" fill="#5938e2" /><circle cx="146.5" cy="305.8" r="4" fill="#5938e2" /><circle cx="156.0" cy="305.8" r="4" fill="#5938e2" /><circle cx="165.5" cy="305.8" r="4" fill="#5938e2" /><circle cx="175.0" cy="304.9" r="4" fill="#5938e2" /><circle cx="184.5" cy="304.9" r="4" fill="#5938e2" /><circle cx="194.0" cy="304.9" r="4" fill="#5938e2" /><circle cx="203.5" cy="304.9" r="4" fill="#5938e2" /><circle cx="213.0" cy="304.9" r="4" fill="#5938e2" /><circle cx="222.5" cy="304.9" r="4" fill="#5938e2" /><circle cx="232.0" cy="304.9" r="4" fill="#5938e2" /><circle cx="241.5" cy="304.9" r="4" fill="#5938e2" /><circle cx="251.0" cy="304.9" r="4" fill="#5938e2" /><circle cx="260.5" cy="304.9" r="4" fill="#5938e2" /><circle cx="270.0" cy="304.9" r="4" fill="#5938e2" /><circle cx="279.5" cy="304.9" r="4" fill="#5938e2" /><circle cx="289.0" cy="304.9" r="4" fill="#5938e2" /><circle cx="298.5" cy="304.9" r="4" fill="#5938e2" /><circle cx="308.0" cy="304.9" r="4" fill="#5938e2" /><circle cx="317.5" cy="304.9" r="4" fill="#5938e2" /><circle cx="327.0" cy="304.9" r="4" fill="#5938e2" /><circle cx="336.5" cy="304.9" r="4" fill="#5938e2" /><circle cx="346.0" cy="304.9" r="4" fill="#5938e2" /><circle cx="355.5" cy="304.9" r="4" fill="#5938e2" /><circle cx="365.0" cy="304.9" r="4" fill="#5938e2" /><circle cx="374.5" cy="304.9" r="4" fill="#5938e2" /><circle cx="384.0" cy="304.9" r="4" fill="#5938e2" /><circle cx="393.5" cy="304.9" r="4" fill="#5938e2" /><circle cx="403.0" cy="304.9" r="4" fill="#5938e2" /><circle cx="412.5" cy="304.9" r="4" fill="#5938e2" /><circle cx="422.0" cy="304.9" r="4" fill="#5938e2" /><circle cx="431.5" cy="303.6" r="4" fill="#5938e2" /><circle cx="441.0" cy="303.6" r="4" fill="#5938e2" /><circle cx="450.5" cy="303.6" r="4" fill="#5938e2" /><circle cx="460.0" cy="303.6" r="4" fill="#5938e2" /><circle cx="469.5" cy="303.6" r="4" fill="#5938e2" /><circle cx="479.0" cy="303.6" r="4" fill="#5938e2" /><circle cx="488.5" cy="303.6" r="4" fill="#5938e2" /><circle cx="498.0" cy="303.6" r="4" fill="#5938e2" /><circle cx="507.5" cy="303.6" r="4" fill="#5938e2" /><circle cx="517.0" cy="303.6" r="4" fill="#5938e2" /><circle cx="526.5" cy="303.6" r="4" fill="#5938e2" /><circle cx="536.0" cy="303.6" r="4" fill="#5938e2" /><circle cx="545.5" cy="303.6" r="4" fill="#5938e2" /><circle cx="555.0" cy="303.6" r="4" fill="#5938e2" /><circle cx="564.5" cy="302.9" r="4" fill="#5938e2" /><circle cx="574.0" cy="302.9" r="4" fill="#5938e2" /><circle cx="583.5" cy="298.0" r="4" fill="#5938e2" /><circle cx="593.0" cy="298.0" r="4" fill="#5938e2" /><circle cx="602.5" cy="298.0" r="4" fill="#5938e2" /><circle cx="612.0" cy="298.0" r="4" fill="#5938e2" /><circle cx="621.5" cy="298.0" r="4" fill="#5938e2" /><circle cx="631.0" cy="298.0" r="4" fill="#5938e2" /><circle cx="640.5" cy="298.0" r="4" fill="#5938e2" /><circle cx="650.0" cy="298.0" r="4" fill="#5938e2" /><circle cx="659.5" cy="298.0" r="4" fill="#5938e2" /><circle cx="669.0" cy="298.0" r="4" fill="#5938e2" /><circle cx="678.5" cy="298.0" r="4" fill="#5938e2" /><circle cx="688.0" cy="298.0" r="4" fill="#5938e2" /><circle cx="697.5" cy="298.0" r="4" fill="#5938e2" /><circle cx="707.0" cy="298.0" r="4" fill="#5938e2" /><circle cx="716.5" cy="297.8" r="4" fill="#5938e2" /><circle cx="726.0" cy="297.8" r="4" fill="#5938e2" /><circle cx="735.5" cy="297.8" r="4" fill="#5938e2" /><circle cx="745.0" cy="297.8" r="4" fill="#5938e2" /><circle cx="754.5" cy="297.8" r="4" fill="#5938e2" /><circle cx="764.0" cy="297.8" r="4" fill="#5938e2" /><circle cx="773.5" cy="297.8" r="4" fill="#5938e2" /><circle cx="783.0" cy="297.8" r="4" fill="#5938e2" /><circle cx="792.5" cy="297.8" r="4" fill="#5938e2" /><circle cx="802.0" cy="297.8" r="4" fill="#5938e2" /><circle cx="811.5" cy="297.8" r="4" fill="#5938e2" /><circle cx="821.0" cy="297.8" r="4" fill="#5938e2" /><circle cx="830.5" cy="297.8" r="4" fill="#5938e2" /><circle cx="840.0" cy="297.8" r="4" fill="#5938e2" /><polyline points="80.0,144.6 89.5,140.1 99.0,139.9 108.5,139.8 118.0,139.8 127.5,139.6 137.0,139.6 146.5,139.6 156.0,139.6 165.5,139.6 175.0,138.4 184.5,138.4 194.0,138.4 203.5,138.4 213.0,138.4 222.5,138.4 232.0,138.4 241.5,137.4 251.0,137.4 260.5,137.4 270.0,137.4 279.5,137.4 289.0,137.4 298.5,137.4 308.0,137.4 317.5,137.4 327.0,137.4 336.5,137.4 346.0,131.2 355.5,131.2 365.0,130.8 374.5,130.4 384.0,126.9 393.5,126.9 403.0,126.9 412.5,126.9 422.0,126.9 431.5,126.9 441.0,126.9 450.5,126.9 460.0,126.9 469.5,126.8 479.0,122.1 488.5,120.4 498.0,120.4 507.5,120.4 517.0,120.4 526.5,120.4 536.0,119.4 545.5,119.4 555.0,119.4 564.5,119.4 574.0,119.1 583.5,118.8 593.0,118.8 602.5,117.8 612.0,117.8 621.5,117.8 631.0,115.8 640.5,115.8 650.0,115.0 659.5,115.0 669.0,115.0 678.5,115.0 688.0,115.0 697.5,115.0 707.0,115.0 716.5,113.9 726.0,111.8 735.5,111.8 745.0,111.8 754.5,111.8 764.0,111.8 773.5,111.8 783.0,111.8 792.5,111.8 802.0,111.8 811.5,111.8 821.0,110.6 830.5,110.6 840.0,110.6" fill="none" stroke="#60e5e0" stroke-width="2.5" stroke-linecap="round" stroke-linejoin="round" /><circle cx="80.0" cy="144.6" r="4" fill="#60e5e0" /><circle cx="89.5" cy="140.1" r="4" fill="#60e5e0" /><circle cx="99.0" cy="139.9" r="4" fill="#60e5e0" /><circle cx="108.5" cy="139.8" r="4" fill="#60e5e0" /><circle cx="118.0" cy="139.8" r="4" fill="#60e5e0" /><circle cx="127.5" cy="139.6" r="4" fill="#60e5e0" /><circle cx="137.0" cy="139.6" r="4" fill="#60e5e0" /><circle cx="146.5" cy="139.6" r="4" fill="#60e5e0" /><circle cx="156.0" cy="139.6" r="4" fill="#60e5e0" /><circle cx="165.5" cy="139.6" r="4" fill="#60e5e0" /><circle cx="175.0" cy="138.4" r="4" fill="#60e5e0" /><circle cx="184.5" cy="138.4" r="4" fill="#60e5e0" /><circle cx="194.0" cy="138.4" r="4" fill="#60e5e0" /><circle cx="203.5" cy="138.4" r="4" fill="#60e5e0" /><circle cx="213.0" cy="138.4" r="4" fill="#60e5e0" /><circle cx="222.5" cy="138.4" r="4" fill="#60e5e0" /><circle cx="232.0" cy="138.4" r="4" fill="#60e5e0" /><circle cx="241.5" cy="137.4" r="4" fill="#60e5e0" /><circle cx="251.0" cy="137.4" r="4" fill="#60e5e0" /><circle cx="260.5" cy="137.4" r="4" fill="#60e5e0" /><circle cx="270.0" cy="137.4" r="4" fill="#60e5e0" /><circle cx="279.5" cy="137.4" r="4" fill="#60e5e0" /><circle cx="289.0" cy="137.4" r="4" fill="#60e5e0" /><circle cx="298.5" cy="137.4" r="4" fill="#60e5e0" /><circle cx="308.0" cy="137.4" r="4" fill="#60e5e0" /><circle cx="317.5" cy="137.4" r="4" fill="#60e5e0" /><circle cx="327.0" cy="137.4" r="4" fill="#60e5e0" /><circle cx="336.5" cy="137.4" r="4" fill="#60e5e0" /><circle cx="346.0" cy="131.2" r="4" fill="#60e5e0" /><circle cx="355.5" cy="131.2" r="4" fill="#60e5e0" /><circle cx="365.0" cy="130.8" r="4" fill="#60e5e0" /><circle cx="374.5" cy="130.4" r="4" fill="#60e5e0" /><circle cx="384.0" cy="126.9" r="4" fill="#60e5e0" /><circle cx="393.5" cy="126.9" r="4" fill="#60e5e0" /><circle cx="403.0" cy="126.9" r="4" fill="#60e5e0" /><circle cx="412.5" cy="126.9" r="4" fill="#60e5e0" /><circle cx="422.0" cy="126.9" r="4" fill="#60e5e0" /><circle cx="431.5" cy="126.9" r="4" fill="#60e5e0" /><circle cx="441.0" cy="126.9" r="4" fill="#60e5e0" /><circle cx="450.5" cy="126.9" r="4" fill="#60e5e0" /><circle cx="460.0" cy="126.9" r="4" fill="#60e5e0" /><circle cx="469.5" cy="126.8" r="4" fill="#60e5e0" /><circle cx="479.0" cy="122.1" r="4" fill="#60e5e0" /><circle cx="488.5" cy="120.4" r="4" fill="#60e5e0" /><circle cx="498.0" cy="120.4" r="4" fill="#60e5e0" /><circle cx="507.5" cy="120.4" r="4" fill="#60e5e0" /><circle cx="517.0" cy="120.4" r="4" fill="#60e5e0" /><circle cx="526.5" cy="120.4" r="4" fill="#60e5e0" /><circle cx="536.0" cy="119.4" r="4" fill="#60e5e0" /><circle cx="545.5" cy="119.4" r="4" fill="#60e5e0" /><circle cx="555.0" cy="119.4" r="4" fill="#60e5e0" /><circle cx="564.5" cy="119.4" r="4" fill="#60e5e0" /><circle cx="574.0" cy="119.1" r="4" fill="#60e5e0" /><circle cx="583.5" cy="118.8" r="4" fill="#60e5e0" /><circle cx="593.0" cy="118.8" r="4" fill="#60e5e0" /><circle cx="602.5" cy="117.8" r="4" fill="#60e5e0" /><circle cx="612.0" cy="117.8" r="4" fill="#60e5e0" /><circle cx="621.5" cy="117.8" r="4" fill="#60e5e0" /><circle cx="631.0" cy="115.8" r="4" fill="#60e5e0" /><circle cx="640.5" cy="115.8" r="4" fill="#60e5e0" /><circle cx="650.0" cy="115.0" r="4" fill="#60e5e0" /><circle cx="659.5" cy="115.0" r="4" fill="#60e5e0" /><circle cx="669.0" cy="115.0" r="4" fill="#60e5e0" /><circle cx="678.5" cy="115.0" r="4" fill="#60e5e0" /><circle cx="688.0" cy="115.0" r="4" fill="#60e5e0" /><circle cx="697.5" cy="115.0" r="4" fill="#60e5e0" /><circle cx="707.0" cy="115.0" r="4" fill="#60e5e0" /><circle cx="716.5" cy="113.9" r="4" fill="#60e5e0" /><circle cx="726.0" cy="111.8" r="4" fill="#60e5e0" /><circle cx="735.5" cy="111.8" r="4" fill="#60e5e0" /><circle cx="745.0" cy="111.8" r="4" fill="#60e5e0" /><circle cx="754.5" cy="111.8" r="4" fill="#60e5e0" /><circle cx="764.0" cy="111.8" r="4" fill="#60e5e0" /><circle cx="773.5" cy="111.8" r="4" fill="#60e5e0" /><circle cx="783.0" cy="111.8" r="4" fill="#60e5e0" /><circle cx="792.5" cy="111.8" r="4" fill="#60e5e0" /><circle cx="802.0" cy="111.8" r="4" fill="#60e5e0" /><circle cx="811.5" cy="111.8" r="4" fill="#60e5e0" /><circle cx="821.0" cy="110.6" r="4" fill="#60e5e0" /><circle cx="830.5" cy="110.6" r="4" fill="#60e5e0" /><circle cx="840.0" cy="110.6" r="4" fill="#60e5e0" /><polyline points="80.0,314.6 89.5,314.4 99.0,314.2 108.5,314.2 118.0,314.2 127.5,314.1 137.0,314.1 146.5,314.1 156.0,314.1 165.5,314.1 175.0,314.0 184.5,314.0 194.0,314.0 203.5,314.0 213.0,314.0 222.5,314.0 232.0,314.0 241.5,314.0 251.0,314.0 260.5,314.0 270.0,314.0 279.5,314.0 289.0,314.0 298.5,314.0 308.0,314.0 317.5,314.0 327.0,314.0 336.5,314.0 346.0,314.0 355.5,314.0 365.0,314.0 374.5,314.0 384.0,314.0 393.5,314.0 403.0,314.0 412.5,314.0 422.0,314.0 431.5,314.0 441.0,314.0 450.5,314.0 460.0,314.0 469.5,313.9 479.0,313.6 488.5,313.4 498.0,313.4 507.5,313.4 517.0,313.4 526.5,313.4 536.0,313.1 545.5,313.1 555.0,313.1 564.5,313.1 574.0,313.1 583.5,313.0 593.0,313.0 602.5,312.9 612.0,312.9 621.5,312.9 631.0,312.8 640.5,312.8 650.0,312.6 659.5,312.6 669.0,312.6 678.5,312.6 688.0,312.6 697.5,312.6 707.0,312.6 716.5,312.5 726.0,312.1 735.5,312.1 745.0,312.1 754.5,312.1 764.0,312.1 773.5,312.1 783.0,312.1 792.5,312.1 802.0,312.1 811.5,312.1 821.0,312.0 830.5,312.0 840.0,312.0" fill="none" stroke="#567de1" stroke-width="2.5" stroke-linecap="round" stroke-linejoin="round" /><circle cx="80.0" cy="314.6" r="4" fill="#567de1" /><circle cx="89.5" cy="314.4" r="4" fill="#567de1" /><circle cx="99.0" cy="314.2" r="4" fill="#567de1" /><circle cx="108.5" cy="314.2" r="4" fill="#567de1" /><circle cx="118.0" cy="314.2" r="4" fill="#567de1" /><circle cx="127.5" cy="314.1" r="4" fill="#567de1" /><circle cx="137.0" cy="314.1" r="4" fill="#567de1" /><circle cx="146.5" cy="314.1" r="4" fill="#567de1" /><circle cx="156.0" cy="314.1" r="4" fill="#567de1" /><circle cx="165.5" cy="314.1" r="4" fill="#567de1" /><circle cx="175.0" cy="314.0" r="4" fill="#567de1" /><circle cx="184.5" cy="314.0" r="4" fill="#567de1" /><circle cx="194.0" cy="314.0" r="4" fill="#567de1" /><circle cx="203.5" cy="314.0" r="4" fill="#567de1" /><circle cx="213.0" cy="314.0" r="4" fill="#567de1" /><circle cx="222.5" cy="314.0" r="4" fill="#567de1" /><circle cx="232.0" cy="314.0" r="4" fill="#567de1" /><circle cx="241.5" cy="314.0" r="4" fill="#567de1" /><circle cx="251.0" cy="314.0" r="4" fill="#567de1" /><circle cx="260.5" cy="314.0" r="4" fill="#567de1" /><circle cx="270.0" cy="314.0" r="4" fill="#567de1" /><circle cx="279.5" cy="314.0" r="4" fill="#567de1" /><circle cx="289.0" cy="314.0" r="4" fill="#567de1" /><circle cx="298.5" cy="314.0" r="4" fill="#567de1" /><circle cx="308.0" cy="314.0" r="4" fill="#567de1" /><circle cx="317.5" cy="314.0" r="4" fill="#567de1" /><circle cx="327.0" cy="314.0" r="4" fill="#567de1" /><circle cx="336.5" cy="314.0" r="4" fill="#567de1" /><circle cx="346.0" cy="314.0" r="4" fill="#567de1" /><circle cx="355.5" cy="314.0" r="4" fill="#567de1" /><circle cx="365.0" cy="314.0" r="4" fill="#567de1" /><circle cx="374.5" cy="314.0" r="4" fill="#567de1" /><circle cx="384.0" cy="314.0" r="4" fill="#567de1" /><circle cx="393.5" cy="314.0" r="4" fill="#567de1" /><circle cx="403.0" cy="314.0" r="4" fill="#567de1" /><circle cx="412.5" cy="314.0" r="4" fill="#567de1" /><circle cx="422.0" cy="314.0" r="4" fill="#567de1" /><circle cx="431.5" cy="314.0" r="4" fill="#567de1" /><circle cx="441.0" cy="314.0" r="4" fill="#567de1" /><circle cx="450.5" cy="314.0" r="4" fill="#567de1" /><circle cx="460.0" cy="314.0" r="4" fill="#567de1" /><circle cx="469.5" cy="313.9" r="4" fill="#567de1" /><circle cx="479.0" cy="313.6" r="4" fill="#567de1" /><circle cx="488.5" cy="313.4" r="4" fill="#567de1" /><circle cx="498.0" cy="313.4" r="4" fill="#567de1" /><circle cx="507.5" cy="313.4" r="4" fill="#567de1" /><circle cx="517.0" cy="313.4" r="4" fill="#567de1" /><circle cx="526.5" cy="313.4" r="4" fill="#567de1" /><circle cx="536.0" cy="313.1" r="4" fill="#567de1" /><circle cx="545.5" cy="313.1" r="4" fill="#567de1" /><circle cx="555.0" cy="313.1" r="4" fill="#567de1" /><circle cx="564.5" cy="313.1" r="4" fill="#567de1" /><circle cx="574.0" cy="313.1" r="4" fill="#567de1" /><circle cx="583.5" cy="313.0" r="4" fill="#567de1" /><circle cx="593.0" cy="313.0" r="4" fill="#567de1" /><circle cx="602.5" cy="312.9" r="4" fill="#567de1" /><circle cx="612.0" cy="312.9" r="4" fill="#567de1" /><circle cx="621.5" cy="312.9" r="4" fill="#567de1" /><circle cx="631.0" cy="312.8" r="4" fill="#567de1" /><circle cx="640.5" cy="312.8" r="4" fill="#567de1" /><circle cx="650.0" cy="312.6" r="4" fill="#567de1" /><circle cx="659.5" cy="312.6" r="4" fill="#567de1" /><circle cx="669.0" cy="312.6" r="4" fill="#567de1" /><circle cx="678.5" cy="312.6" r="4" fill="#567de1" /><circle cx="688.0" cy="312.6" r="4" fill="#567de1" /><circle cx="697.5" cy="312.6" r="4" fill="#567de1" /><circle cx="707.0" cy="312.6" r="4" fill="#567de1" /><circle cx="716.5" cy="312.5" r="4" fill="#567de1" /><circle cx="726.0" cy="312.1" r="4" fill="#567de1" /><circle cx="735.5" cy="312.1" r="4" fill="#567de1" /><circle cx="745.0" cy="312.1" r="4" fill="#567de1" /><circle cx="754.5" cy="312.1" r="4" fill="#567de1" /><circle cx="764.0" cy="312.1" r="4" fill="#567de1" /><circle cx="773.5" cy="312.1" r="4" fill="#567de1" /><circle cx="783.0" cy="312.1" r="4" fill="#567de1" /><circle cx="792.5" cy="312.1" r="4" fill="#567de1" /><circle cx="802.0" cy="312.1" r="4" fill="#567de1" /><circle cx="811.5" cy="312.1" r="4" fill="#567de1" /><circle cx="821.0" cy="312.0" r="4" fill="#567de1" /><circle cx="830.5" cy="312.0" r="4" fill="#567de1" /><circle cx="840.0" cy="312.0" r="4" fill="#567de1" /><polyline points="80.0,303.9 89.5,304.2 99.0,304.4 108.5,304.4 118.0,304.4 127.5,304.4 137.0,304.4 146.5,304.4 156.0,304.4 165.5,304.4 175.0,304.4 184.5,304.4 194.0,304.4 203.5,304.4 213.0,304.4 222.5,304.4 232.0,304.4 241.5,304.4 251.0,304.4 260.5,304.4 270.0,304.4 279.5,304.4 289.0,304.4 298.5,304.4 308.0,304.4 317.5,304.4 327.0,304.4 336.5,304.4 346.0,299.1 355.5,299.1 365.0,299.1 374.5,298.9 384.0,295.6 393.5,295.6 403.0,295.6 412.5,295.6 422.0,295.6 431.5,295.6 441.0,295.6 450.5,295.6 460.0,295.6 469.5,295.8 479.0,295.9 488.5,295.9 498.0,295.9 507.5,295.9 517.0,295.9 526.5,295.9 536.0,295.9 545.5,295.9 555.0,295.9 564.5,295.9 574.0,295.9 583.5,295.9 593.0,295.9 602.5,295.9 612.0,295.9 621.5,295.9 631.0,295.8 640.5,295.8 650.0,295.9 659.5,295.9 669.0,295.9 678.5,295.9 688.0,295.9 697.5,295.9 707.0,295.9 716.5,296.0 726.0,296.4 735.5,296.4 745.0,296.4 754.5,296.4 764.0,296.4 773.5,296.4 783.0,296.4 792.5,296.4 802.0,296.4 811.5,296.4 821.0,296.5 830.5,296.5 840.0,296.5" fill="none" stroke="#9754dd" stroke-width="2.5" stroke-linecap="round" stroke-linejoin="round" /><circle cx="80.0" cy="303.9" r="4" fill="#9754dd" /><circle cx="89.5" cy="304.2" r="4" fill="#9754dd" /><circle cx="99.0" cy="304.4" r="4" fill="#9754dd" /><circle cx="108.5" cy="304.4" r="4" fill="#9754dd" /><circle cx="118.0" cy="304.4" r="4" fill="#9754dd" /><circle cx="127.5" cy="304.4" r="4" fill="#9754dd" /><circle cx="137.0" cy="304.4" r="4" fill="#9754dd" /><circle cx="146.5" cy="304.4" r="4" fill="#9754dd" /><circle cx="156.0" cy="304.4" r="4" fill="#9754dd" /><circle cx="165.5" cy="304.4" r="4" fill="#9754dd" /><circle cx="175.0" cy="304.4" r="4" fill="#9754dd" /><circle cx="184.5" cy="304.4" r="4" fill="#9754dd" /><circle cx="194.0" cy="304.4" r="4" fill="#9754dd" /><circle cx="203.5" cy="304.4" r="4" fill="#9754dd" /><circle cx="213.0" cy="304.4" r="4" fill="#9754dd" /><circle cx="222.5" cy="304.4" r="4" fill="#9754dd" /><circle cx="232.0" cy="304.4" r="4" fill="#9754dd" /><circle cx="241.5" cy="304.4" r="4" fill="#9754dd" /><circle cx="251.0" cy="304.4" r="4" fill="#9754dd" /><circle cx="260.5" cy="304.4" r="4" fill="#9754dd" /><circle cx="270.0" cy="304.4" r="4" fill="#9754dd" /><circle cx="279.5" cy="304.4" r="4" fill="#9754dd" /><circle cx="289.0" cy="304.4" r="4" fill="#9754dd" /><circle cx="298.5" cy="304.4" r="4" fill="#9754dd" /><circle cx="308.0" cy="304.4" r="4" fill="#9754dd" /><circle cx="317.5" cy="304.4" r="4" fill="#9754dd" /><circle cx="327.0" cy="304.4" r="4" fill="#9754dd" /><circle cx="336.5" cy="304.4" r="4" fill="#9754dd" /><circle cx="346.0" cy="299.1" r="4" fill="#9754dd" /><circle cx="355.5" cy="299.1" r="4" fill="#9754dd" /><circle cx="365.0" cy="299.1" r="4" fill="#9754dd" /><circle cx="374.5" cy="298.9" r="4" fill="#9754dd" /><circle cx="384.0" cy="295.6" r="4" fill="#9754dd" /><circle cx="393.5" cy="295.6" r="4" fill="#9754dd" /><circle cx="403.0" cy="295.6" r="4" fill="#9754dd" /><circle cx="412.5" cy="295.6" r="4" fill="#9754dd" /><circle cx="422.0" cy="295.6" r="4" fill="#9754dd" /><circle cx="431.5" cy="295.6" r="4" fill="#9754dd" /><circle cx="441.0" cy="295.6" r="4" fill="#9754dd" /><circle cx="450.5" cy="295.6" r="4" fill="#9754dd" /><circle cx="460.0" cy="295.6" r="4" fill="#9754dd" /><circle cx="469.5" cy="295.8" r="4" fill="#9754dd" /><circle cx="479.0" cy="295.9" r="4" fill="#9754dd" /><circle cx="488.5" cy="295.9" r="4" fill="#9754dd" /><circle cx="498.0" cy="295.9" r="4" fill="#9754dd" /><circle cx="507.5" cy="295.9" r="4" fill="#9754dd" /><circle cx="517.0" cy="295.9" r="4" fill="#9754dd" /><circle cx="526.5" cy="295.9" r="4" fill="#9754dd" /><circle cx="536.0" cy="295.9" r="4" fill="#9754dd" /><circle cx="545.5" cy="295.9" r="4" fill="#9754dd" /><circle cx="555.0" cy="295.9" r="4" fill="#9754dd" /><circle cx="564.5" cy="295.9" r="4" fill="#9754dd" /><circle cx="574.0" cy="295.9" r="4" fill="#9754dd" /><circle cx="583.5" cy="295.9" r="4" fill="#9754dd" /><circle cx="593.0" cy="295.9" r="4" fill="#9754dd" /><circle cx="602.5" cy="295.9" r="4" fill="#9754dd" /><circle cx="612.0" cy="295.9" r="4" fill="#9754dd" /><circle cx="621.5" cy="295.9" r="4" fill="#9754dd" /><circle cx="631.0" cy="295.8" r="4" fill="#9754dd" /><circle cx="640.5" cy="295.8" r="4" fill="#9754dd" /><circle cx="650.0" cy="295.9" r="4" fill="#9754dd" /><circle cx="659.5" cy="295.9" r="4" fill="#9754dd" /><circle cx="669.0" cy="295.9" r="4" fill="#9754dd" /><circle cx="678.5" cy="295.9" r="4" fill="#9754dd" /><circle cx="688.0" cy="295.9" r="4" fill="#9754dd" /><circle cx="697.5" cy="295.9" r="4" fill="#9754dd" /><circle cx="707.0" cy="295.9" r="4" fill="#9754dd" /><circle cx="716.5" cy="296.0" r="4" fill="#9754dd" /><circle cx="726.0" cy="296.4" r="4" fill="#9754dd" /><circle cx="735.5" cy="296.4" r="4" fill="#9754dd" /><circle cx="745.0" cy="296.4" r="4" fill="#9754dd" /><circle cx="754.5" cy="296.4" r="4" fill="#9754dd" /><circle cx="764.0" cy="296.4" r="4" fill="#9754dd" /><circle cx="773.5" cy="296.4" r="4" fill="#9754dd" /><circle cx="783.0" cy="296.4" r="4" fill="#9754dd" /><circle cx="792.5" cy="296.4" r="4" fill="#9754dd" /><circle cx="802.0" cy="296.4" r="4" fill="#9754dd" /><circle cx="811.5" cy="296.4" r="4" fill="#9754dd" /><circle cx="821.0" cy="296.5" r="4" fill="#9754dd" /><circle cx="830.5" cy="296.5" r="4" fill="#9754dd" /><circle cx="840.0" cy="296.5" r="4" fill="#9754dd" />
  <rect x="80" y="339" width="10" height="10" rx="2" ry="2" fill="#19e5a1" /><text x="96" y="348" class="legend-label">Stars</text><rect x="250" y="339" width="10" height="10" rx="2" ry="2" fill="#6eb6ec" /><text x="266" y="348" class="legend-label">Followers</text><rect x="420" y="339" width="10" height="10" rx="2" ry="2" fill="#5938e2" /><text x="436" y="348" class="legend-label">Following</text><rect x="590" y="339" width="10" height="10" rx="2" ry="2" fill="#60e5e0" /><text x="606" y="348" class="legend-label">Contributions</text><rect x="80" y="357" width="10" height="10" rx="2" ry="2" fill="#567de1" /><text x="96" y="366" class="legend-label">Pull Requests</text><rect x="250" y="357" width="10" height="10" rx="2" ry="2" fill="#9754dd" /><text x="266" y="366" class="legend-label">Issues</text>
</svg>
