<svg width="900" height="402" viewBox="0 0 900 402" xmlns="http://www.w3.org/2000/svg">
  <defs>
    <linearGradient id="history-gradient" x1="0%" y1="0%" x2="100%" y2="100%">
      <stop offset="0%" style="stop-color:#58a6ff;stop-opacity:1" />
      <stop offset="100%" style="stop-color:#a371f7;stop-opacity:1" />
    </linearGradient>
    <clipPath id="history-rounded">
      <rect x="0" y="0" width="900" height="402" rx="8" ry="8" />
    </clipPath>
  </defs>
  <style>
    .title {
      font-family: 'Segoe UI', Ubuntu, 'Helvetica Neue', sans-serif;
      font-size: 22px;
      font-weight: 700;
      fill: #58a6ff;
    }
    .subtitle {
      font-family: 'Segoe UI', Ubuntu, 'Helvetica Neue', sans-serif;
      font-size: 12px;
      font-weight: 500;
      fill: #8b949e;
    }
    .axis-label {
      font-family: 'Segoe UI', Ubuntu, 'Helvetica Neue', sans-serif;
      font-size: 10px;
      fill: #8b949e;
    }
    .grid-line {
      stroke: #30363d;
      stroke-width: 1;
      opacity: 0.3;
    }
    .legend-label {
      font-family: 'Segoe UI', Ubuntu, 'Helvetica Neue', sans-serif;
      font-size: 11px;
      fill: #c9d1d9;
      dominant-baseline: middle;
    }
  </style>
  <rect clip-path="url(#history-rounded)" width="100%" height="100%" fill="#0d1117" stroke="#30363d" stroke-width="1" />
  <rect x="0" y="396" width="900" height="6" fill="url(#history-gradient)" clip-path="url(#history-rounded)" />
  <text x="24" y="34" class="title">Leonardo Klein Stats History</text>
  <text x="24" y="54" class="subtitle">Period: 2026-02-20 to 2026-03-06</text>
  <text x="72" y="320.0" text-anchor="end" dominant-baseline="central" class="axis-label">0</text><text x="72" y="270.0" text-anchor="end" dominant-baseline="central" class="axis-label">400</text><text x="72" y="220.0" text-anchor="end" dominant-baseline="central" class="axis-label">800</text><text x="72" y="170.0" text-anchor="end" dominant-baseline="central" class="axis-label">1.2k</text><text x="72" y="120.0" text-anchor="end" dominant-baseline="central" class="axis-label">1.6k</text><text x="72" y="70.0" text-anchor="end" dominant-baseline="central" class="axis-label">2.0k</text>
  <text x="80.0" y="336" text-anchor="middle" class="axis-label">02-20</text><text x="156.0" y="336" text-anchor="middle" class="axis-label">02-21</text><text x="232.0" y="336" text-anchor="middle" class="axis-label">02-23</text><text x="308.0" y="336" text-anchor="middle" class="axis-label">02-24</text><text x="384.0" y="336" text-anchor="middle" class="axis-label">02-26</text><text x="460.0" y="336" text-anchor="middle" class="axis-label">02-27</text><text x="536.0" y="336" text-anchor="middle" class="axis-label">02-28</text><text x="612.0" y="336" text-anchor="middle" class="axis-label">03-02</text><text x="688.0" y="336" text-anchor="middle" class="axis-label">03-03</text><text x="764.0" y="336" text-anchor="middle" class="axis-label">03-05</text><text x="840.0" y="336" text-anchor="middle" class="axis-label">03-06</text>
  <line x1="80" y1="320.0" x2="840" y2="320.0" class="grid-line" /><line x1="80" y1="270.0" x2="840" y2="270.0" class="grid-line" /><line x1="80" y1="220.0" x2="840" y2="220.0" class="grid-line" /><line x1="80" y1="170.0" x2="840" y2="170.0" class="grid-line" /><line x1="80" y1="120.0" x2="840" y2="120.0" class="grid-line" /><line x1="80" y1="70.0" x2="840" y2="70.0" class="grid-line" />
  <polyline points="80.0,317.0 90.9,317.0 101.7,317.0 112.6,317.0 123.4,317.0 134.3,317.0 145.1,317.0 156.0,317.0 166.9,317.0 177.7,317.0 188.6,317.0 199.4,317.0 210.3,317.0 221.1,317.0 232.0,317.0 242.9,317.0 253.7,317.0 264.6,317.0 275.4,317.0 286.3,317.0 297.1,317.0 308.0,317.0 318.9,317.0 329.7,317.0 340.6,317.0 351.4,317.0 362.3,317.0 373.1,317.0 384.0,317.0 394.9,317.0 405.7,317.0 416.6,317.0 427.4,317.0 438.3,317.0 449.1,317.0 460.0,317.0 470.9,317.0 481.7,317.0 492.6,317.0 503.4,317.0 514.3,317.0 525.1,317.0 536.0,317.0 546.9,317.0 557.7,317.0 568.6,317.0 579.4,317.0 590.3,317.0 601.1,317.0 612.0,317.0 622.9,317.0 633.7,317.0 644.6,317.0 655.4,317.0 666.3,317.0 677.1,317.0 688.0,317.0 698.9,317.0 709.7,317.0 720.6,317.0 731.4,317.0 742.3,317.0 753.1,317.0 764.0,317.0 774.9,317.0 785.7,317.0 796.6,317.0 807.4,317.0 818.3,317.0 829.1,317.0 840.0,317.0" fill="none" stroke="#19e5a1" stroke-width="2.5" stroke-linecap="round" stroke-linejoin="round" /><circle cx="80.0" cy="317.0" r="4" fill="#19e5a1" /><circle cx="90.9" cy="317.0" r="4" fill="#19e5a1" /><circle cx="101.7" cy="317.0" r="4" fill="#19e5a1" /><circle cx="112.6" cy="317.0" r="4" fill="#19e5a1" /><circle cx="123.4" cy="317.0" r="4" fill="#19e5a1" /><circle cx="134.3" cy="317.0" r="4" fill="#19e5a1" /><circle cx="145.1" cy="317.0" r="4" fill="#19e5a1" /><circle cx="156.0" cy="317.0" r="4" fill="#19e5a1" /><circle cx="166.9" cy="317.0" r="4" fill="#19e5a1" /><circle cx="177.7" cy="317.0" r="4" fill="#19e5a1" /><circle cx="188.6" cy="317.0" r="4" fill="#19e5a1" /><circle cx="199.4" cy="317.0" r="4" fill="#19e5a1" /><circle cx="210.3" cy="317.0" r="4" fill="#19e5a1" /><circle cx="221.1" cy="317.0" r="4" fill="#19e5a1" /><circle cx="232.0" cy="317.0" r="4" fill="#19e5a1" /><circle cx="242.9" cy="317.0" r="4" fill="#19e5a1" /><circle cx="253.7" cy="317.0" r="4" fill="#19e5a1" /><circle cx="264.6" cy="317.0" r="4" fill="#19e5a1" /><circle cx="275.4" cy="317.0" r="4" fill="#19e5a1" /><circle cx="286.3" cy="317.0" r="4" fill="#19e5a1" /><circle cx="297.1" cy="317.0" r="4" fill="#19e5a1" /><circle cx="308.0" cy="317.0" r="4" fill="#19e5a1" /><circle cx="318.9" cy="317.0" r="4" fill="#19e5a1" /><circle cx="329.7" cy="317.0" r="4" fill="#19e5a1" /><circle cx="340.6" cy="317.0" r="4" fill="#19e5a1" /><circle cx="351.4" cy="317.0" r="4" fill="#19e5a1" /><circle cx="362.3" cy="317.0" r="4" fill="#19e5a1" /><circle cx="373.1" cy="317.0" r="4" fill="#19e5a1" /><circle cx="384.0" cy="317.0" r="4" fill="#19e5a1" /><circle cx="394.9" cy="317.0" r="4" fill="#19e5a1" /><circle cx="405.7" cy="317.0" r="4" fill="#19e5a1" /><circle cx="416.6" cy="317.0" r="4" fill="#19e5a1" /><circle cx="427.4" cy="317.0" r="4" fill="#19e5a1" /><circle cx="438.3" cy="317.0" r="4" fill="#19e5a1" /><circle cx="449.1" cy="317.0" r="4" fill="#19e5a1" /><circle cx="460.0" cy="317.0" r="4" fill="#19e5a1" /><circle cx="470.9" cy="317.0" r="4" fill="#19e5a1" /><circle cx="481.7" cy="317.0" r="4" fill="#19e5a1" /><circle cx="492.6" cy="317.0" r="4" fill="#19e5a1" /><circle cx="503.4" cy="317.0" r="4" fill="#19e5a1" /><circle cx="514.3" cy="317.0" r="4" fill="#19e5a1" /><circle cx="525.1" cy="317.0" r="4" fill="#19e5a1" /><circle cx="536.0" cy="317.0" r="4" fill="#19e5a1" /><circle cx="546.9" cy="317.0" r="4" fill="#19e5a1" /><circle cx="557.7" cy="317.0" r="4" fill="#19e5a1" /><circle cx="568.6" cy="317.0" r="4" fill="#19e5a1" /><circle cx="579.4" cy="317.0" r="4" fill="#19e5a1" /><circle cx="590.3" cy="317.0" r="4" fill="#19e5a1" /><circle cx="601.1" cy="317.0" r="4" fill="#19e5a1" /><circle cx="612.0" cy="317.0" r="4" fill="#19e5a1" /><circle cx="622.9" cy="317.0" r="4" fill="#19e5a1" /><circle cx="633.7" cy="317.0" r="4" fill="#19e5a1" /><circle cx="644.6" cy="317.0" r="4" fill="#19e5a1" /><circle cx="655.4" cy="317.0" r="4" fill="#19e5a1" /><circle cx="666.3" cy="317.0" r="4" fill="#19e5a1" /><circle cx="677.1" cy="317.0" r="4" fill="#19e5a1" /><circle cx="688.0" cy="317.0" r="4" fill="#19e5a1" /><circle cx="698.9" cy="317.0" r="4" fill="#19e5a1" /><circle cx="709.7" cy="317.0" r="4" fill="#19e5a1" /><circle cx="720.6" cy="317.0" r="4" fill="#19e5a1" /><circle cx="731.4" cy="317.0" r="4" fill="#19e5a1" /><circle cx="742.3" cy="317.0" r="4" fill="#19e5a1" /><circle cx="753.1" cy="317.0" r="4" fill="#19e5a1" /><circle cx="764.0" cy="317.0" r="4" fill="#19e5a1" /><circle cx="774.9" cy="317.0" r="4" fill="#19e5a1" /><circle cx="785.7" cy="317.0" r="4" fill="#19e5a1" /><circle cx="796.6" cy="317.0" r="4" fill="#19e5a1" /><circle cx="807.4" cy="317.0" r="4" fill="#19e5a1" /><circle cx="818.3" cy="317.0" r="4" fill="#19e5a1" /><circle cx="829.1" cy="317.0" r="4" fill="#19e5a1" /><circle cx="840.0" cy="317.0" r="4" fill="#19e5a1" /><polyline points="80.0,313.2 90.9,312.2 101.7,312.1 112.6,312.4 123.4,312.4 134.3,312.4 145.1,312.1 156.0,312.0 166.9,311.9 177.7,311.9 188.6,311.8 199.4,311.8 210.3,311.5 221.1,311.5 232.0,311.5 242.9,311.2 253.7,311.2 264.6,311.1 275.4,311.1 286.3,311.1 297.1,310.9 308.0,311.0 318.9,310.8 329.7,310.8 340.6,310.8 351.4,310.8 362.3,310.4 373.1,310.2 384.0,310.4 394.9,310.4 405.7,310.4 416.6,310.4 427.4,310.4 438.3,310.2 449.1,310.2 460.0,310.1 470.9,310.1 481.7,309.8 492.6,309.6 503.4,309.6 514.3,309.6 525.1,309.6 536.0,309.5 546.9,309.4 557.7,309.4 568.6,309.4 579.4,309.4 590.3,309.2 601.1,309.2 612.0,309.2 622.9,309.4 633.7,309.4 644.6,309.5 655.4,309.2 666.3,309.2 677.1,309.4 688.0,309.2 698.9,309.2 709.7,309.2 720.6,309.2 731.4,309.2 742.3,309.1 753.1,309.1 764.0,309.1 774.9,309.1 785.7,309.0 796.6,309.0 807.4,308.9 818.3,308.9 829.1,308.9 840.0,308.6" fill="none" stroke="#6eb6ec" stroke-width="2.5" stroke-linecap="round" stroke-linejoin="round" /><circle cx="80.0" cy="313.2" r="4" fill="#6eb6ec" /><circle cx="90.9" cy="312.2" r="4" fill="#6eb6ec" /><circle cx="101.7" cy="312.1" r="4" fill="#6eb6ec" /><circle cx="112.6" cy="312.4" r="4" fill="#6eb6ec" /><circle cx="123.4" cy="312.4" r="4" fill="#6eb6ec" /><circle cx="134.3" cy="312.4" r="4" fill="#6eb6ec" /><circle cx="145.1" cy="312.1" r="4" fill="#6eb6ec" /><circle cx="156.0" cy="312.0" r="4" fill="#6eb6ec" /><circle cx="166.9" cy="311.9" r="4" fill="#6eb6ec" /><circle cx="177.7" cy="311.9" r="4" fill="#6eb6ec" /><circle cx="188.6" cy="311.8" r="4" fill="#6eb6ec" /><circle cx="199.4" cy="311.8" r="4" fill="#6eb6ec" /><circle cx="210.3" cy="311.5" r="4" fill="#6eb6ec" /><circle cx="221.1" cy="311.5" r="4" fill="#6eb6ec" /><circle cx="232.0" cy="311.5" r="4" fill="#6eb6ec" /><circle cx="242.9" cy="311.2" r="4" fill="#6eb6ec" /><circle cx="253.7" cy="311.2" r="4" fill="#6eb6ec" /><circle cx="264.6" cy="311.1" r="4" fill="#6eb6ec" /><circle cx="275.4" cy="311.1" r="4" fill="#6eb6ec" /><circle cx="286.3" cy="311.1" r="4" fill="#6eb6ec" /><circle cx="297.1" cy="310.9" r="4" fill="#6eb6ec" /><circle cx="308.0" cy="311.0" r="4" fill="#6eb6ec" /><circle cx="318.9" cy="310.8" r="4" fill="#6eb6ec" /><circle cx="329.7" cy="310.8" r="4" fill="#6eb6ec" /><circle cx="340.6" cy="310.8" r="4" fill="#6eb6ec" /><circle cx="351.4" cy="310.8" r="4" fill="#6eb6ec" /><circle cx="362.3" cy="310.4" r="4" fill="#6eb6ec" /><circle cx="373.1" cy="310.2" r="4" fill="#6eb6ec" /><circle cx="384.0" cy="310.4" r="4" fill="#6eb6ec" /><circle cx="394.9" cy="310.4" r="4" fill="#6eb6ec" /><circle cx="405.7" cy="310.4" r="4" fill="#6eb6ec" /><circle cx="416.6" cy="310.4" r="4" fill="#6eb6ec" /><circle cx="427.4" cy="310.4" r="4" fill="#6eb6ec" /><circle cx="438.3" cy="310.2" r="4" fill="#6eb6ec" /><circle cx="449.1" cy="310.2" r="4" fill="#6eb6ec" /><circle cx="460.0" cy="310.1" r="4" fill="#6eb6ec" /><circle cx="470.9" cy="310.1" r="4" fill="#6eb6ec" /><circle cx="481.7" cy="309.8" r="4" fill="#6eb6ec" /><circle cx="492.6" cy="309.6" r="4" fill="#6eb6ec" /><circle cx="503.4" cy="309.6" r="4" fill="#6eb6ec" /><circle cx="514.3" cy="309.6" r="4" fill="#6eb6ec" /><circle cx="525.1" cy="309.6" r="4" fill="#6eb6ec" /><circle cx="536.0" cy="309.5" r="4" fill="#6eb6ec" /><circle cx="546.9" cy="309.4" r="4" fill="#6eb6ec" /><circle cx="557.7" cy="309.4" r="4" fill="#6eb6ec" /><circle cx="568.6" cy="309.4" r="4" fill="#6eb6ec" /><circle cx="579.4" cy="309.4" r="4" fill="#6eb6ec" /><circle cx="590.3" cy="309.2" r="4" fill="#6eb6ec" /><circle cx="601.1" cy="309.2" r="4" fill="#6eb6ec" /><circle cx="612.0" cy="309.2" r="4" fill="#6eb6ec" /><circle cx="622.9" cy="309.4" r="4" fill="#6eb6ec" /><circle cx="633.7" cy="309.4" r="4" fill="#6eb6ec" /><circle cx="644.6" cy="309.5" r="4" fill="#6eb6ec" /><circle cx="655.4" cy="309.2" r="4" fill="#6eb6ec" /><circle cx="666.3" cy="309.2" r="4" fill="#6eb6ec" /><circle cx="677.1" cy="309.4" r="4" fill="#6eb6ec" /><circle cx="688.0" cy="309.2" r="4" fill="#6eb6ec" /><circle cx="698.9" cy="309.2" r="4" fill="#6eb6ec" /><circle cx="709.7" cy="309.2" r="4" fill="#6eb6ec" /><circle cx="720.6" cy="309.2" r="4" fill="#6eb6ec" /><circle cx="731.4" cy="309.2" r="4" fill="#6eb6ec" /><circle cx="742.3" cy="309.1" r="4" fill="#6eb6ec" /><circle cx="753.1" cy="309.1" r="4" fill="#6eb6ec" /><circle cx="764.0" cy="309.1" r="4" fill="#6eb6ec" /><circle cx="774.9" cy="309.1" r="4" fill="#6eb6ec" /><circle cx="785.7" cy="309.0" r="4" fill="#6eb6ec" /><circle cx="796.6" cy="309.0" r="4" fill="#6eb6ec" /><circle cx="807.4" cy="308.9" r="4" fill="#6eb6ec" /><circle cx="818.3" cy="308.9" r="4" fill="#6eb6ec" /><circle cx="829.1" cy="308.9" r="4" fill="#6eb6ec" /><circle cx="840.0" cy="308.6" r="4" fill="#6eb6ec" /><polyline points="80.0,305.8 90.9,305.8 101.7,305.8 112.6,305.8 123.4,305.8 134.3,305.8 145.1,305.8 156.0,305.8 166.9,305.8 177.7,305.8 188.6,304.9 199.4,304.9 210.3,304.9 221.1,304.9 232.0,304.9 242.9,304.9 253.7,304.9 264.6,304.9 275.4,304.9 286.3,304.9 297.1,304.9 308.0,304.9 318.9,304.9 329.7,304.9 340.6,304.9 351.4,304.9 362.3,304.9 373.1,304.9 384.0,304.9 394.9,304.9 405.7,304.9 416.6,304.9 427.4,304.9 438.3,304.9 449.1,304.9 460.0,304.9 470.9,304.9 481.7,303.6 492.6,303.6 503.4,303.6 514.3,303.6 525.1,303.6 536.0,303.6 546.9,303.6 557.7,303.6 568.6,303.6 579.4,303.6 590.3,303.6 601.1,303.6 612.0,303.6 622.9,303.6 633.7,302.9 644.6,302.9 655.4,298.0 666.3,298.0 677.1,298.0 688.0,298.0 698.9,298.0 709.7,298.0 720.6,298.0 731.4,298.0 742.3,298.0 753.1,298.0 764.0,298.0 774.9,298.0 785.7,298.0 796.6,298.0 807.4,297.8 818.3,297.8 829.1,297.8 840.0,297.8" fill="none" stroke="#5938e2" stroke-width="2.5" stroke-linecap="round" stroke-linejoin="round" /><circle cx="80.0" cy="305.8" r="4" fill="#5938e2" /><circle cx="90.9" cy="305.8" r="4" fill="#5938e2" /><circle cx="101.7" cy="305.8" r="4" fill="#5938e2" /><circle cx="112.6" cy="305.8" r="4" fill="#5938e2" /><circle cx="123.4" cy="305.8" r="4" fill="#5938e2" /><circle cx="134.3" cy="305.8" r="4" fill="#5938e2" /><circle cx="145.1" cy="305.8" r="4" fill="#5938e2" /><circle cx="156.0" cy="305.8" r="4" fill="#5938e2" /><circle cx="166.9" cy="305.8" r="4" fill="#5938e2" /><circle cx="177.7" cy="305.8" r="4" fill="#5938e2" /><circle cx="188.6" cy="304.9" r="4" fill="#5938e2" /><circle cx="199.4" cy="304.9" r="4" fill="#5938e2" /><circle cx="210.3" cy="304.9" r="4" fill="#5938e2" /><circle cx="221.1" cy="304.9" r="4" fill="#5938e2" /><circle cx="232.0" cy="304.9" r="4" fill="#5938e2" /><circle cx="242.9" cy="304.9" r="4" fill="#5938e2" /><circle cx="253.7" cy="304.9" r="4" fill="#5938e2" /><circle cx="264.6" cy="304.9" r="4" fill="#5938e2" /><circle cx="275.4" cy="304.9" r="4" fill="#5938e2" /><circle cx="286.3" cy="304.9" r="4" fill="#5938e2" /><circle cx="297.1" cy="304.9" r="4" fill="#5938e2" /><circle cx="308.0" cy="304.9" r="4" fill="#5938e2" /><circle cx="318.9" cy="304.9" r="4" fill="#5938e2" /><circle cx="329.7" cy="304.9" r="4" fill="#5938e2" /><circle cx="340.6" cy="304.9" r="4" fill="#5938e2" /><circle cx="351.4" cy="304.9" r="4" fill="#5938e2" /><circle cx="362.3" cy="304.9" r="4" fill="#5938e2" /><circle cx="373.1" cy="304.9" r="4" fill="#5938e2" /><circle cx="384.0" cy="304.9" r="4" fill="#5938e2" /><circle cx="394.9" cy="304.9" r="4" fill="#5938e2" /><circle cx="405.7" cy="304.9" r="4" fill="#5938e2" /><circle cx="416.6" cy="304.9" r="4" fill="#5938e2" /><circle cx="427.4" cy="304.9" r="4" fill="#5938e2" /><circle cx="438.3" cy="304.9" r="4" fill="#5938e2" /><circle cx="449.1" cy="304.9" r="4" fill="#5938e2" /><circle cx="460.0" cy="304.9" r="4" fill="#5938e2" /><circle cx="470.9" cy="304.9" r="4" fill="#5938e2" /><circle cx="481.7" cy="303.6" r="4" fill="#5938e2" /><circle cx="492.6" cy="303.6" r="4" fill="#5938e2" /><circle cx="503.4" cy="303.6" r="4" fill="#5938e2" /><circle cx="514.3" cy="303.6" r="4" fill="#5938e2" /><circle cx="525.1" cy="303.6" r="4" fill="#5938e2" /><circle cx="536.0" cy="303.6" r="4" fill="#5938e2" /><circle cx="546.9" cy="303.6" r="4" fill="#5938e2" /><circle cx="557.7" cy="303.6" r="4" fill="#5938e2" /><circle cx="568.6" cy="303.6" r="4" fill="#5938e2" /><circle cx="579.4" cy="303.6" r="4" fill="#5938e2" /><circle cx="590.3" cy="303.6" r="4" fill="#5938e2" /><circle cx="601.1" cy="303.6" r="4" fill="#5938e2" /><circle cx="612.0" cy="303.6" r="4" fill="#5938e2" /><circle cx="622.9" cy="303.6" r="4" fill="#5938e2" /><circle cx="633.7" cy="302.9" r="4" fill="#5938e2" /><circle cx="644.6" cy="302.9" r="4" fill="#5938e2" /><circle cx="655.4" cy="298.0" r="4" fill="#5938e2" /><circle cx="666.3" cy="298.0" r="4" fill="#5938e2" /><circle cx="677.1" cy="298.0" r="4" fill="#5938e2" /><circle cx="688.0" cy="298.0" r="4" fill="#5938e2" /><circle cx="698.9" cy="298.0" r="4" fill="#5938e2" /><circle cx="709.7" cy="298.0" r="4" fill="#5938e2" /><circle cx="720.6" cy="298.0" r="4" fill="#5938e2" /><circle cx="731.4" cy="298.0" r="4" fill="#5938e2" /><circle cx="742.3" cy="298.0" r="4" fill="#5938e2" /><circle cx="753.1" cy="298.0" r="4" fill="#5938e2" /><circle cx="764.0" cy="298.0" r="4" fill="#5938e2" /><circle cx="774.9" cy="298.0" r="4" fill="#5938e2" /><circle cx="785.7" cy="298.0" r="4" fill="#5938e2" /><circle cx="796.6" cy="298.0" r="4" fill="#5938e2" /><circle cx="807.4" cy="297.8" r="4" fill="#5938e2" /><circle cx="818.3" cy="297.8" r="4" fill="#5938e2" /><circle cx="829.1" cy="297.8" r="4" fill="#5938e2" /><circle cx="840.0" cy="297.8" r="4" fill="#5938e2" /><polyline points="80.0,144.6 90.9,140.1 101.7,139.9 112.6,139.8 123.4,139.8 134.3,139.6 145.1,139.6 156.0,139.6 166.9,139.6 177.7,139.6 188.6,138.4 199.4,138.4 210.3,138.4 221.1,138.4 232.0,138.4 242.9,138.4 253.7,138.4 264.6,137.4 275.4,137.4 286.3,137.4 297.1,137.4 308.0,137.4 318.9,137.4 329.7,137.4 340.6,137.4 351.4,137.4 362.3,137.4 373.1,137.4 384.0,131.2 394.9,131.2 405.7,130.8 416.6,130.4 427.4,126.9 438.3,126.9 449.1,126.9 460.0,126.9 470.9,126.9 481.7,126.9 492.6,126.9 503.4,126.9 514.3,126.9 525.1,126.8 536.0,122.1 546.9,120.4 557.7,120.4 568.6,120.4 579.4,120.4 590.3,120.4 601.1,119.4 612.0,119.4 622.9,119.4 633.7,119.4 644.6,119.1 655.4,118.8 666.3,118.8 677.1,117.8 688.0,117.8 698.9,117.8 709.7,115.8 720.6,115.8 731.4,115.0 742.3,115.0 753.1,115.0 764.0,115.0 774.9,115.0 785.7,115.0 796.6,115.0 807.4,113.9 818.3,111.8 829.1,111.8 840.0,111.8" fill="none" stroke="#60e5e0" stroke-width="2.5" stroke-linecap="round" stroke-linejoin="round" /><circle cx="80.0" cy="144.6" r="4" fill="#60e5e0" /><circle cx="90.9" cy="140.1" r="4" fill="#60e5e0" /><circle cx="101.7" cy="139.9" r="4" fill="#60e5e0" /><circle cx="112.6" cy="139.8" r="4" fill="#60e5e0" /><circle cx="123.4" cy="139.8" r="4" fill="#60e5e0" /><circle cx="134.3" cy="139.6" r="4" fill="#60e5e0" /><circle cx="145.1" cy="139.6" r="4" fill="#60e5e0" /><circle cx="156.0" cy="139.6" r="4" fill="#60e5e0" /><circle cx="166.9" cy="139.6" r="4" fill="#60e5e0" /><circle cx="177.7" cy="139.6" r="4" fill="#60e5e0" /><circle cx="188.6" cy="138.4" r="4" fill="#60e5e0" /><circle cx="199.4" cy="138.4" r="4" fill="#60e5e0" /><circle cx="210.3" cy="138.4" r="4" fill="#60e5e0" /><circle cx="221.1" cy="138.4" r="4" fill="#60e5e0" /><circle cx="232.0" cy="138.4" r="4" fill="#60e5e0" /><circle cx="242.9" cy="138.4" r="4" fill="#60e5e0" /><circle cx="253.7" cy="138.4" r="4" fill="#60e5e0" /><circle cx="264.6" cy="137.4" r="4" fill="#60e5e0" /><circle cx="275.4" cy="137.4" r="4" fill="#60e5e0" /><circle cx="286.3" cy="137.4" r="4" fill="#60e5e0" /><circle cx="297.1" cy="137.4" r="4" fill="#60e5e0" /><circle cx="308.0" cy="137.4" r="4" fill="#60e5e0" /><circle cx="318.9" cy="137.4" r="4" fill="#60e5e0" /><circle cx="329.7" cy="137.4" r="4" fill="#60e5e0" /><circle cx="340.6" cy="137.4" r="4" fill="#60e5e0" /><circle cx="351.4" cy="137.4" r="4" fill="#60e5e0" /><circle cx="362.3" cy="137.4" r="4" fill="#60e5e0" /><circle cx="373.1" cy="137.4" r="4" fill="#60e5e0" /><circle cx="384.0" cy="131.2" r="4" fill="#60e5e0" /><circle cx="394.9" cy="131.2" r="4" fill="#60e5e0" /><circle cx="405.7" cy="130.8" r="4" fill="#60e5e0" /><circle cx="416.6" cy="130.4" r="4" fill="#60e5e0" /><circle cx="427.4" cy="126.9" r="4" fill="#60e5e0" /><circle cx="438.3" cy="126.9" r="4" fill="#60e5e0" /><circle cx="449.1" cy="126.9" r="4" fill="#60e5e0" /><circle cx="460.0" cy="126.9" r="4" fill="#60e5e0" /><circle cx="470.9" cy="126.9" r="4" fill="#60e5e0" /><circle cx="481.7" cy="126.9" r="4" fill="#60e5e0" /><circle cx="492.6" cy="126.9" r="4" fill="#60e5e0" /><circle cx="503.4" cy="126.9" r="4" fill="#60e5e0" /><circle cx="514.3" cy="126.9" r="4" fill="#60e5e0" /><circle cx="525.1" cy="126.8" r="4" fill="#60e5e0" /><circle cx="536.0" cy="122.1" r="4" fill="#60e5e0" /><circle cx="546.9" cy="120.4" r="4" fill="#60e5e0" /><circle cx="557.7" cy="120.4" r="4" fill="#60e5e0" /><circle cx="568.6" cy="120.4" r="4" fill="#60e5e0" /><circle cx="579.4" cy="120.4" r="4" fill="#60e5e0" /><circle cx="590.3" cy="120.4" r="4" fill="#60e5e0" /><circle cx="601.1" cy="119.4" r="4" fill="#60e5e0" /><circle cx="612.0" cy="119.4" r="4" fill="#60e5e0" /><circle cx="622.9" cy="119.4" r="4" fill="#60e5e0" /><circle cx="633.7" cy="119.4" r="4" fill="#60e5e0" /><circle cx="644.6" cy="119.1" r="4" fill="#60e5e0" /><circle cx="655.4" cy="118.8" r="4" fill="#60e5e0" /><circle cx="666.3" cy="118.8" r="4" fill="#60e5e0" /><circle cx="677.1" cy="117.8" r="4" fill="#60e5e0" /><circle cx="688.0" cy="117.8" r="4" fill="#60e5e0" /><circle cx="698.9" cy="117.8" r="4" fill="#60e5e0" /><circle cx="709.7" cy="115.8" r="4" fill="#60e5e0" /><circle cx="720.6" cy="115.8" r="4" fill="#60e5e0" /><circle cx="731.4" cy="115.0" r="4" fill="#60e5e0" /><circle cx="742.3" cy="115.0" r="4" fill="#60e5e0" /><circle cx="753.1" cy="115.0" r="4" fill="#60e5e0" /><circle cx="764.0" cy="115.0" r="4" fill="#60e5e0" /><circle cx="774.9" cy="115.0" r="4" fill="#60e5e0" /><circle cx="785.7" cy="115.0" r="4" fill="#60e5e0" /><circle cx="796.6" cy="115.0" r="4" fill="#60e5e0" /><circle cx="807.4" cy="113.9" r="4" fill="#60e5e0" /><circle cx="818.3" cy="111.8" r="4" fill="#60e5e0" /><circle cx="829.1" cy="111.8" r="4" fill="#60e5e0" /><circle cx="840.0" cy="111.8" r="4" fill="#60e5e0" /><polyline points="80.0,314.6 90.9,314.4 101.7,314.2 112.6,314.2 123.4,314.2 134.3,314.1 145.1,314.1 156.0,314.1 166.9,314.1 177.7,314.1 188.6,314.0 199.4,314.0 210.3,314.0 221.1,314.0 232.0,314.0 242.9,314.0 253.7,314.0 264.6,314.0 275.4,314.0 286.3,314.0 297.1,314.0 308.0,314.0 318.9,314.0 329.7,314.0 340.6,314.0 351.4,314.0 362.3,314.0 373.1,314.0 384.0,314.0 394.9,314.0 405.7,314.0 416.6,314.0 427.4,314.0 438.3,314.0 449.1,314.0 460.0,314.0 470.9,314.0 481.7,314.0 492.6,314.0 503.4,314.0 514.3,314.0 525.1,313.9 536.0,313.6 546.9,313.4 557.7,313.4 568.6,313.4 579.4,313.4 590.3,313.4 601.1,313.1 612.0,313.1 622.9,313.1 633.7,313.1 644.6,313.1 655.4,313.0 666.3,313.0 677.1,312.9 688.0,312.9 698.9,312.9 709.7,312.8 720.6,312.8 731.4,312.6 742.3,312.6 753.1,312.6 764.0,312.6 774.9,312.6 785.7,312.6 796.6,312.6 807.4,312.5 818.3,312.1 829.1,312.1 840.0,312.1" fill="none" stroke="#567de1" stroke-width="2.5" stroke-linecap="round" stroke-linejoin="round" /><circle cx="80.0" cy="314.6" r="4" fill="#567de1" /><circle cx="90.9" cy="314.4" r="4" fill="#567de1" /><circle cx="101.7" cy="314.2" r="4" fill="#567de1" /><circle cx="112.6" cy="314.2" r="4" fill="#567de1" /><circle cx="123.4" cy="314.2" r="4" fill="#567de1" /><circle cx="134.3" cy="314.1" r="4" fill="#567de1" /><circle cx="145.1" cy="314.1" r="4" fill="#567de1" /><circle cx="156.0" cy="314.1" r="4" fill="#567de1" /><circle cx="166.9" cy="314.1" r="4" fill="#567de1" /><circle cx="177.7" cy="314.1" r="4" fill="#567de1" /><circle cx="188.6" cy="314.0" r="4" fill="#567de1" /><circle cx="199.4" cy="314.0" r="4" fill="#567de1" /><circle cx="210.3" cy="314.0" r="4" fill="#567de1" /><circle cx="221.1" cy="314.0" r="4" fill="#567de1" /><circle cx="232.0" cy="314.0" r="4" fill="#567de1" /><circle cx="242.9" cy="314.0" r="4" fill="#567de1" /><circle cx="253.7" cy="314.0" r="4" fill="#567de1" /><circle cx="264.6" cy="314.0" r="4" fill="#567de1" /><circle cx="275.4" cy="314.0" r="4" fill="#567de1" /><circle cx="286.3" cy="314.0" r="4" fill="#567de1" /><circle cx="297.1" cy="314.0" r="4" fill="#567de1" /><circle cx="308.0" cy="314.0" r="4" fill="#567de1" /><circle cx="318.9" cy="314.0" r="4" fill="#567de1" /><circle cx="329.7" cy="314.0" r="4" fill="#567de1" /><circle cx="340.6" cy="314.0" r="4" fill="#567de1" /><circle cx="351.4" cy="314.0" r="4" fill="#567de1" /><circle cx="362.3" cy="314.0" r="4" fill="#567de1" /><circle cx="373.1" cy="314.0" r="4" fill="#567de1" /><circle cx="384.0" cy="314.0" r="4" fill="#567de1" /><circle cx="394.9" cy="314.0" r="4" fill="#567de1" /><circle cx="405.7" cy="314.0" r="4" fill="#567de1" /><circle cx="416.6" cy="314.0" r="4" fill="#567de1" /><circle cx="427.4" cy="314.0" r="4" fill="#567de1" /><circle cx="438.3" cy="314.0" r="4" fill="#567de1" /><circle cx="449.1" cy="314.0" r="4" fill="#567de1" /><circle cx="460.0" cy="314.0" r="4" fill="#567de1" /><circle cx="470.9" cy="314.0" r="4" fill="#567de1" /><circle cx="481.7" cy="314.0" r="4" fill="#567de1" /><circle cx="492.6" cy="314.0" r="4" fill="#567de1" /><circle cx="503.4" cy="314.0" r="4" fill="#567de1" /><circle cx="514.3" cy="314.0" r="4" fill="#567de1" /><circle cx="525.1" cy="313.9" r="4" fill="#567de1" /><circle cx="536.0" cy="313.6" r="4" fill="#567de1" /><circle cx="546.9" cy="313.4" r="4" fill="#567de1" /><circle cx="557.7" cy="313.4" r="4" fill="#567de1" /><circle cx="568.6" cy="313.4" r="4" fill="#567de1" /><circle cx="579.4" cy="313.4" r="4" fill="#567de1" /><circle cx="590.3" cy="313.4" r="4" fill="#567de1" /><circle cx="601.1" cy="313.1" r="4" fill="#567de1" /><circle cx="612.0" cy="313.1" r="4" fill="#567de1" /><circle cx="622.9" cy="313.1" r="4" fill="#567de1" /><circle cx="633.7" cy="313.1" r="4" fill="#567de1" /><circle cx="644.6" cy="313.1" r="4" fill="#567de1" /><circle cx="655.4" cy="313.0" r="4" fill="#567de1" /><circle cx="666.3" cy="313.0" r="4" fill="#567de1" /><circle cx="677.1" cy="312.9" r="4" fill="#567de1" /><circle cx="688.0" cy="312.9" r="4" fill="#567de1" /><circle cx="698.9" cy="312.9" r="4" fill="#567de1" /><circle cx="709.7" cy="312.8" r="4" fill="#567de1" /><circle cx="720.6" cy="312.8" r="4" fill="#567de1" /><circle cx="731.4" cy="312.6" r="4" fill="#567de1" /><circle cx="742.3" cy="312.6" r="4" fill="#567de1" /><circle cx="753.1" cy="312.6" r="4" fill="#567de1" /><circle cx="764.0" cy="312.6" r="4" fill="#567de1" /><circle cx="774.9" cy="312.6" r="4" fill="#567de1" /><circle cx="785.7" cy="312.6" r="4" fill="#567de1" /><circle cx="796.6" cy="312.6" r="4" fill="#567de1" /><circle cx="807.4" cy="312.5" r="4" fill="#567de1" /><circle cx="818.3" cy="312.1" r="4" fill="#567de1" /><circle cx="829.1" cy="312.1" r="4" fill="#567de1" /><circle cx="840.0" cy="312.1" r="4" fill="#567de1" /><polyline points="80.0,303.9 90.9,304.2 101.7,304.4 112.6,304.4 123.4,304.4 134.3,304.4 145.1,304.4 156.0,304.4 166.9,304.4 177.7,304.4 188.6,304.4 199.4,304.4 210.3,304.4 221.1,304.4 232.0,304.4 242.9,304.4 253.7,304.4 264.6,304.4 275.4,304.4 286.3,304.4 297.1,304.4 308.0,304.4 318.9,304.4 329.7,304.4 340.6,304.4 351.4,304.4 362.3,304.4 373.1,304.4 384.0,299.1 394.9,299.1 405.7,299.1 416.6,298.9 427.4,295.6 438.3,295.6 449.1,295.6 460.0,295.6 470.9,295.6 481.7,295.6 492.6,295.6 503.4,295.6 514.3,295.6 525.1,295.8 536.0,295.9 546.9,295.9 557.7,295.9 568.6,295.9 579.4,295.9 590.3,295.9 601.1,295.9 612.0,295.9 622.9,295.9 633.7,295.9 644.6,295.9 655.4,295.9 666.3,295.9 677.1,295.9 688.0,295.9 698.9,295.9 709.7,295.8 720.6,295.8 731.4,295.9 742.3,295.9 753.1,295.9 764.0,295.9 774.9,295.9 785.7,295.9 796.6,295.9 807.4,296.0 818.3,296.4 829.1,296.4 840.0,296.4" fill="none" stroke="#9754dd" stroke-width="2.5" stroke-linecap="round" stroke-linejoin="round" /><circle cx="80.0" cy="303.9" r="4" fill="#9754dd" /><circle cx="90.9" cy="304.2" r="4" fill="#9754dd" /><circle cx="101.7" cy="304.4" r="4" fill="#9754dd" /><circle cx="112.6" cy="304.4" r="4" fill="#9754dd" /><circle cx="123.4" cy="304.4" r="4" fill="#9754dd" /><circle cx="134.3" cy="304.4" r="4" fill="#9754dd" /><circle cx="145.1" cy="304.4" r="4" fill="#9754dd" /><circle cx="156.0" cy="304.4" r="4" fill="#9754dd" /><circle cx="166.9" cy="304.4" r="4" fill="#9754dd" /><circle cx="177.7" cy="304.4" r="4" fill="#9754dd" /><circle cx="188.6" cy="304.4" r="4" fill="#9754dd" /><circle cx="199.4" cy="304.4" r="4" fill="#9754dd" /><circle cx="210.3" cy="304.4" r="4" fill="#9754dd" /><circle cx="221.1" cy="304.4" r="4" fill="#9754dd" /><circle cx="232.0" cy="304.4" r="4" fill="#9754dd" /><circle cx="242.9" cy="304.4" r="4" fill="#9754dd" /><circle cx="253.7" cy="304.4" r="4" fill="#9754dd" /><circle cx="264.6" cy="304.4" r="4" fill="#9754dd" /><circle cx="275.4" cy="304.4" r="4" fill="#9754dd" /><circle cx="286.3" cy="304.4" r="4" fill="#9754dd" /><circle cx="297.1" cy="304.4" r="4" fill="#9754dd" /><circle cx="308.0" cy="304.4" r="4" fill="#9754dd" /><circle cx="318.9" cy="304.4" r="4" fill="#9754dd" /><circle cx="329.7" cy="304.4" r="4" fill="#9754dd" /><circle cx="340.6" cy="304.4" r="4" fill="#9754dd" /><circle cx="351.4" cy="304.4" r="4" fill="#9754dd" /><circle cx="362.3" cy="304.4" r="4" fill="#9754dd" /><circle cx="373.1" cy="304.4" r="4" fill="#9754dd" /><circle cx="384.0" cy="299.1" r="4" fill="#9754dd" /><circle cx="394.9" cy="299.1" r="4" fill="#9754dd" /><circle cx="405.7" cy="299.1" r="4" fill="#9754dd" /><circle cx="416.6" cy="298.9" r="4" fill="#9754dd" /><circle cx="427.4" cy="295.6" r="4" fill="#9754dd" /><circle cx="438.3" cy="295.6" r="4" fill="#9754dd" /><circle cx="449.1" cy="295.6" r="4" fill="#9754dd" /><circle cx="460.0" cy="295.6" r="4" fill="#9754dd" /><circle cx="470.9" cy="295.6" r="4" fill="#9754dd" /><circle cx="481.7" cy="295.6" r="4" fill="#9754dd" /><circle cx="492.6" cy="295.6" r="4" fill="#9754dd" /><circle cx="503.4" cy="295.6" r="4" fill="#9754dd" /><circle cx="514.3" cy="295.6" r="4" fill="#9754dd" /><circle cx="525.1" cy="295.8" r="4" fill="#9754dd" /><circle cx="536.0" cy="295.9" r="4" fill="#9754dd" /><circle cx="546.9" cy="295.9" r="4" fill="#9754dd" /><circle cx="557.7" cy="295.9" r="4" fill="#9754dd" /><circle cx="568.6" cy="295.9" r="4" fill="#9754dd" /><circle cx="579.4" cy="295.9" r="4" fill="#9754dd" /><circle cx="590.3" cy="295.9" r="4" fill="#9754dd" /><circle cx="601.1" cy="295.9" r="4" fill="#9754dd" /><circle cx="612.0" cy="295.9" r="4" fill="#9754dd" /><circle cx="622.9" cy="295.9" r="4" fill="#9754dd" /><circle cx="633.7" cy="295.9" r="4" fill="#9754dd" /><circle cx="644.6" cy="295.9" r="4" fill="#9754dd" /><circle cx="655.4" cy="295.9" r="4" fill="#9754dd" /><circle cx="666.3" cy="295.9" r="4" fill="#9754dd" /><circle cx="677.1" cy="295.9" r="4" fill="#9754dd" /><circle cx="688.0" cy="295.9" r="4" fill="#9754dd" /><circle cx="698.9" cy="295.9" r="4" fill="#9754dd" /><circle cx="709.7" cy="295.8" r="4" fill="#9754dd" /><circle cx="720.6" cy="295.8" r="4" fill="#9754dd" /><circle cx="731.4" cy="295.9" r="4" fill="#9754dd" /><circle cx="742.3" cy="295.9" r="4" fill="#9754dd" /><circle cx="753.1" cy="295.9" r="4" fill="#9754dd" /><circle cx="764.0" cy="295.9" r="4" fill="#9754dd" /><circle cx="774.9" cy="295.9" r="4" fill="#9754dd" /><circle cx="785.7" cy="295.9" r="4" fill="#9754dd" /><circle cx="796.6" cy="295.9" r="4" fill="#9754dd" /><circle cx="807.4" cy="296.0" r="4" fill="#9754dd" /><circle cx="818.3" cy="296.4" r="4" fill="#9754dd" /><circle cx="829.1" cy="296.4" r="4" fill="#9754dd" /><circle cx="840.0" cy="296.4" r="4" fill="#9754dd" />
  <rect x="80" y="339" width="10" height="10" rx="2" ry="2" fill="#19e5a1" /><text x="96" y="348" class="legend-label">Stars</text><rect x="250" y="339" width="10" height="10" rx="2" ry="2" fill="#6eb6ec" /><text x="266" y="348" class="legend-label">Followers</text><rect x="420" y="339" width="10" height="10" rx="2" ry="2" fill="#5938e2" /><text x="436" y="348" class="legend-label">Following</text><rect x="590" y="339" width="10" height="10" rx="2" ry="2" fill="#60e5e0" /><text x="606" y="348" class="legend-label">Contributions</text><rect x="80" y="357" width="10" height="10" rx="2" ry="2" fill="#567de1" /><text x="96" y="366" class="legend-label">Pull Requests</text><rect x="250" y="357" width="10" height="10" rx="2" ry="2" fill="#9754dd" /><text x="266" y="366" class="legend-label">Issues</text>
</svg>
