<svg width="900" height="402" viewBox="0 0 900 402" xmlns="http://www.w3.org/2000/svg">
  <defs>
    <linearGradient id="history-gradient" x1="0%" y1="0%" x2="100%" y2="100%">
      <stop offset="0%" style="stop-color:#58a6ff;stop-opacity:1" />
      <stop offset="100%" style="stop-color:#a371f7;stop-opacity:1" />
    </linearGradient>
    <clipPath id="history-rounded">
      <rect x="0" y="0" width="900" height="402" rx="8" ry="8" />
    </clipPath>
  </defs>
  <style>
    .title {
      font-family: 'Segoe UI', Ubuntu, 'Helvetica Neue', sans-serif;
      font-size: 22px;
      font-weight: 700;
      fill: #58a6ff;
    }
    .subtitle {
      font-family: 'Segoe UI', Ubuntu, 'Helvetica Neue', sans-serif;
      font-size: 12px;
      font-weight: 500;
      fill: #8b949e;
    }
    .axis-label {
      font-family: 'Segoe UI', Ubuntu, 'Helvetica Neue', sans-serif;
      font-size: 10px;
      fill: #8b949e;
    }
    .grid-line {
      stroke: #30363d;
      stroke-width: 1;
      opacity: 0.3;
    }
    .legend-label {
      font-family: 'Segoe UI', Ubuntu, 'Helvetica Neue', sans-serif;
      font-size: 11px;
      fill: #c9d1d9;
      dominant-baseline: middle;
    }
  </style>
  <rect clip-path="url(#history-rounded)" width="100%" height="100%" fill="#0d1117" stroke="#30363d" stroke-width="1" />
  <rect x="0" y="396" width="900" height="6" fill="url(#history-gradient)" clip-path="url(#history-rounded)" />
  <text x="24" y="34" class="title">Leonardo Klein Stats History</text>
  <text x="24" y="54" class="subtitle">Period: 2026-02-20 to 2026-03-08</text>
  <text x="72" y="320.0" text-anchor="end" dominant-baseline="central" class="axis-label">0</text><text x="72" y="270.0" text-anchor="end" dominant-baseline="central" class="axis-label">400</text><text x="72" y="220.0" text-anchor="end" dominant-baseline="central" class="axis-label">800</text><text x="72" y="170.0" text-anchor="end" dominant-baseline="central" class="axis-label">1.2k</text><text x="72" y="120.0" text-anchor="end" dominant-baseline="central" class="axis-label">1.6k</text><text x="72" y="70.0" text-anchor="end" dominant-baseline="central" class="axis-label">2.0k</text>
  <text x="80.0" y="336" text-anchor="middle" class="axis-label">02-20</text><text x="155.1" y="336" text-anchor="middle" class="axis-label">02-22</text><text x="230.1" y="336" text-anchor="middle" class="axis-label">02-23</text><text x="305.2" y="336" text-anchor="middle" class="axis-label">02-25</text><text x="380.2" y="336" text-anchor="middle" class="axis-label">02-26</text><text x="455.3" y="336" text-anchor="middle" class="axis-label">02-28</text><text x="530.4" y="336" text-anchor="middle" class="axis-label">03-02</text><text x="605.4" y="336" text-anchor="middle" class="axis-label">03-03</text><text x="680.5" y="336" text-anchor="middle" class="axis-label">03-05</text><text x="755.6" y="336" text-anchor="middle" class="axis-label">03-06</text><text x="830.6" y="336" text-anchor="middle" class="axis-label">03-08</text><text x="840.0" y="336" text-anchor="middle" class="axis-label">03-08</text>
  <line x1="80" y1="320.0" x2="840" y2="320.0" class="grid-line" /><line x1="80" y1="270.0" x2="840" y2="270.0" class="grid-line" /><line x1="80" y1="220.0" x2="840" y2="220.0" class="grid-line" /><line x1="80" y1="170.0" x2="840" y2="170.0" class="grid-line" /><line x1="80" y1="120.0" x2="840" y2="120.0" class="grid-line" /><line x1="80" y1="70.0" x2="840" y2="70.0" class="grid-line" />
  <polyline points="80.0,317.0 89.4,317.0 98.8,317.0 108.1,317.0 117.5,317.0 126.9,317.0 136.3,317.0 145.7,317.0 155.1,317.0 164.4,317.0 173.8,317.0 183.2,317.0 192.6,317.0 202.0,317.0 211.4,317.0 220.7,317.0 230.1,317.0 239.5,317.0 248.9,317.0 258.3,317.0 267.7,317.0 277.0,317.0 286.4,317.0 295.8,317.0 305.2,317.0 314.6,317.0 324.0,317.0 333.3,317.0 342.7,317.0 352.1,317.0 361.5,317.0 370.9,317.0 380.2,317.0 389.6,317.0 399.0,317.0 408.4,317.0 417.8,317.0 427.2,317.0 436.5,317.0 445.9,317.0 455.3,317.0 464.7,317.0 474.1,317.0 483.5,317.0 492.8,317.0 502.2,317.0 511.6,317.0 521.0,317.0 530.4,317.0 539.8,317.0 549.1,317.0 558.5,317.0 567.9,317.0 577.3,317.0 586.7,317.0 596.0,317.0 605.4,317.0 614.8,317.0 624.2,317.0 633.6,317.0 643.0,317.0 652.3,317.0 661.7,317.0 671.1,317.0 680.5,317.0 689.9,317.0 699.3,317.0 708.6,317.0 718.0,317.0 727.4,317.0 736.8,317.0 746.2,317.0 755.6,317.0 764.9,317.0 774.3,317.0 783.7,317.0 793.1,317.0 802.5,317.0 811.9,317.0 821.2,317.0 830.6,317.0 840.0,317.0" fill="none" stroke="#19e5a1" stroke-width="2.5" stroke-linecap="round" stroke-linejoin="round" /><circle cx="80.0" cy="317.0" r="4" fill="#19e5a1" /><circle cx="89.4" cy="317.0" r="4" fill="#19e5a1" /><circle cx="98.8" cy="317.0" r="4" fill="#19e5a1" /><circle cx="108.1" cy="317.0" r="4" fill="#19e5a1" /><circle cx="117.5" cy="317.0" r="4" fill="#19e5a1" /><circle cx="126.9" cy="317.0" r="4" fill="#19e5a1" /><circle cx="136.3" cy="317.0" r="4" fill="#19e5a1" /><circle cx="145.7" cy="317.0" r="4" fill="#19e5a1" /><circle cx="155.1" cy="317.0" r="4" fill="#19e5a1" /><circle cx="164.4" cy="317.0" r="4" fill="#19e5a1" /><circle cx="173.8" cy="317.0" r="4" fill="#19e5a1" /><circle cx="183.2" cy="317.0" r="4" fill="#19e5a1" /><circle cx="192.6" cy="317.0" r="4" fill="#19e5a1" /><circle cx="202.0" cy="317.0" r="4" fill="#19e5a1" /><circle cx="211.4" cy="317.0" r="4" fill="#19e5a1" /><circle cx="220.7" cy="317.0" r="4" fill="#19e5a1" /><circle cx="230.1" cy="317.0" r="4" fill="#19e5a1" /><circle cx="239.5" cy="317.0" r="4" fill="#19e5a1" /><circle cx="248.9" cy="317.0" r="4" fill="#19e5a1" /><circle cx="258.3" cy="317.0" r="4" fill="#19e5a1" /><circle cx="267.7" cy="317.0" r="4" fill="#19e5a1" /><circle cx="277.0" cy="317.0" r="4" fill="#19e5a1" /><circle cx="286.4" cy="317.0" r="4" fill="#19e5a1" /><circle cx="295.8" cy="317.0" r="4" fill="#19e5a1" /><circle cx="305.2" cy="317.0" r="4" fill="#19e5a1" /><circle cx="314.6" cy="317.0" r="4" fill="#19e5a1" /><circle cx="324.0" cy="317.0" r="4" fill="#19e5a1" /><circle cx="333.3" cy="317.0" r="4" fill="#19e5a1" /><circle cx="342.7" cy="317.0" r="4" fill="#19e5a1" /><circle cx="352.1" cy="317.0" r="4" fill="#19e5a1" /><circle cx="361.5" cy="317.0" r="4" fill="#19e5a1" /><circle cx="370.9" cy="317.0" r="4" fill="#19e5a1" /><circle cx="380.2" cy="317.0" r="4" fill="#19e5a1" /><circle cx="389.6" cy="317.0" r="4" fill="#19e5a1" /><circle cx="399.0" cy="317.0" r="4" fill="#19e5a1" /><circle cx="408.4" cy="317.0" r="4" fill="#19e5a1" /><circle cx="417.8" cy="317.0" r="4" fill="#19e5a1" /><circle cx="427.2" cy="317.0" r="4" fill="#19e5a1" /><circle cx="436.5" cy="317.0" r="4" fill="#19e5a1" /><circle cx="445.9" cy="317.0" r="4" fill="#19e5a1" /><circle cx="455.3" cy="317.0" r="4" fill="#19e5a1" /><circle cx="464.7" cy="317.0" r="4" fill="#19e5a1" /><circle cx="474.1" cy="317.0" r="4" fill="#19e5a1" /><circle cx="483.5" cy="317.0" r="4" fill="#19e5a1" /><circle cx="492.8" cy="317.0" r="4" fill="#19e5a1" /><circle cx="502.2" cy="317.0" r="4" fill="#19e5a1" /><circle cx="511.6" cy="317.0" r="4" fill="#19e5a1" /><circle cx="521.0" cy="317.0" r="4" fill="#19e5a1" /><circle cx="530.4" cy="317.0" r="4" fill="#19e5a1" /><circle cx="539.8" cy="317.0" r="4" fill="#19e5a1" /><circle cx="549.1" cy="317.0" r="4" fill="#19e5a1" /><circle cx="558.5" cy="317.0" r="4" fill="#19e5a1" /><circle cx="567.9" cy="317.0" r="4" fill="#19e5a1" /><circle cx="577.3" cy="317.0" r="4" fill="#19e5a1" /><circle cx="586.7" cy="317.0" r="4" fill="#19e5a1" /><circle cx="596.0" cy="317.0" r="4" fill="#19e5a1" /><circle cx="605.4" cy="317.0" r="4" fill="#19e5a1" /><circle cx="614.8" cy="317.0" r="4" fill="#19e5a1" /><circle cx="624.2" cy="317.0" r="4" fill="#19e5a1" /><circle cx="633.6" cy="317.0" r="4" fill="#19e5a1" /><circle cx="643.0" cy="317.0" r="4" fill="#19e5a1" /><circle cx="652.3" cy="317.0" r="4" fill="#19e5a1" /><circle cx="661.7" cy="317.0" r="4" fill="#19e5a1" /><circle cx="671.1" cy="317.0" r="4" fill="#19e5a1" /><circle cx="680.5" cy="317.0" r="4" fill="#19e5a1" /><circle cx="689.9" cy="317.0" r="4" fill="#19e5a1" /><circle cx="699.3" cy="317.0" r="4" fill="#19e5a1" /><circle cx="708.6" cy="317.0" r="4" fill="#19e5a1" /><circle cx="718.0" cy="317.0" r="4" fill="#19e5a1" /><circle cx="727.4" cy="317.0" r="4" fill="#19e5a1" /><circle cx="736.8" cy="317.0" r="4" fill="#19e5a1" /><circle cx="746.2" cy="317.0" r="4" fill="#19e5a1" /><circle cx="755.6" cy="317.0" r="4" fill="#19e5a1" /><circle cx="764.9" cy="317.0" r="4" fill="#19e5a1" /><circle cx="774.3" cy="317.0" r="4" fill="#19e5a1" /><circle cx="783.7" cy="317.0" r="4" fill="#19e5a1" /><circle cx="793.1" cy="317.0" r="4" fill="#19e5a1" /><circle cx="802.5" cy="317.0" r="4" fill="#19e5a1" /><circle cx="811.9" cy="317.0" r="4" fill="#19e5a1" /><circle cx="821.2" cy="317.0" r="4" fill="#19e5a1" /><circle cx="830.6" cy="317.0" r="4" fill="#19e5a1" /><circle cx="840.0" cy="317.0" r="4" fill="#19e5a1" /><polyline points="80.0,313.2 89.4,312.2 98.8,312.1 108.1,312.4 117.5,312.4 126.9,312.4 136.3,312.1 145.7,312.0 155.1,311.9 164.4,311.9 173.8,311.8 183.2,311.8 192.6,311.5 202.0,311.5 211.4,311.5 220.7,311.2 230.1,311.2 239.5,311.1 248.9,311.1 258.3,311.1 267.7,310.9 277.0,311.0 286.4,310.8 295.8,310.8 305.2,310.8 314.6,310.8 324.0,310.4 333.3,310.2 342.7,310.4 352.1,310.4 361.5,310.4 370.9,310.4 380.2,310.4 389.6,310.2 399.0,310.2 408.4,310.1 417.8,310.1 427.2,309.8 436.5,309.6 445.9,309.6 455.3,309.6 464.7,309.6 474.1,309.5 483.5,309.4 492.8,309.4 502.2,309.4 511.6,309.4 521.0,309.2 530.4,309.2 539.8,309.2 549.1,309.4 558.5,309.4 567.9,309.5 577.3,309.2 586.7,309.2 596.0,309.4 605.4,309.2 614.8,309.2 624.2,309.2 633.6,309.2 643.0,309.2 652.3,309.1 661.7,309.1 671.1,309.1 680.5,309.1 689.9,309.0 699.3,309.0 708.6,308.9 718.0,308.9 727.4,308.9 736.8,308.6 746.2,308.6 755.6,308.6 764.9,308.6 774.3,308.6 783.7,308.6 793.1,308.6 802.5,308.6 811.9,308.6 821.2,308.6 830.6,308.6 840.0,308.6" fill="none" stroke="#6eb6ec" stroke-width="2.5" stroke-linecap="round" stroke-linejoin="round" /><circle cx="80.0" cy="313.2" r="4" fill="#6eb6ec" /><circle cx="89.4" cy="312.2" r="4" fill="#6eb6ec" /><circle cx="98.8" cy="312.1" r="4" fill="#6eb6ec" /><circle cx="108.1" cy="312.4" r="4" fill="#6eb6ec" /><circle cx="117.5" cy="312.4" r="4" fill="#6eb6ec" /><circle cx="126.9" cy="312.4" r="4" fill="#6eb6ec" /><circle cx="136.3" cy="312.1" r="4" fill="#6eb6ec" /><circle cx="145.7" cy="312.0" r="4" fill="#6eb6ec" /><circle cx="155.1" cy="311.9" r="4" fill="#6eb6ec" /><circle cx="164.4" cy="311.9" r="4" fill="#6eb6ec" /><circle cx="173.8" cy="311.8" r="4" fill="#6eb6ec" /><circle cx="183.2" cy="311.8" r="4" fill="#6eb6ec" /><circle cx="192.6" cy="311.5" r="4" fill="#6eb6ec" /><circle cx="202.0" cy="311.5" r="4" fill="#6eb6ec" /><circle cx="211.4" cy="311.5" r="4" fill="#6eb6ec" /><circle cx="220.7" cy="311.2" r="4" fill="#6eb6ec" /><circle cx="230.1" cy="311.2" r="4" fill="#6eb6ec" /><circle cx="239.5" cy="311.1" r="4" fill="#6eb6ec" /><circle cx="248.9" cy="311.1" r="4" fill="#6eb6ec" /><circle cx="258.3" cy="311.1" r="4" fill="#6eb6ec" /><circle cx="267.7" cy="310.9" r="4" fill="#6eb6ec" /><circle cx="277.0" cy="311.0" r="4" fill="#6eb6ec" /><circle cx="286.4" cy="310.8" r="4" fill="#6eb6ec" /><circle cx="295.8" cy="310.8" r="4" fill="#6eb6ec" /><circle cx="305.2" cy="310.8" r="4" fill="#6eb6ec" /><circle cx="314.6" cy="310.8" r="4" fill="#6eb6ec" /><circle cx="324.0" cy="310.4" r="4" fill="#6eb6ec" /><circle cx="333.3" cy="310.2" r="4" fill="#6eb6ec" /><circle cx="342.7" cy="310.4" r="4" fill="#6eb6ec" /><circle cx="352.1" cy="310.4" r="4" fill="#6eb6ec" /><circle cx="361.5" cy="310.4" r="4" fill="#6eb6ec" /><circle cx="370.9" cy="310.4" r="4" fill="#6eb6ec" /><circle cx="380.2" cy="310.4" r="4" fill="#6eb6ec" /><circle cx="389.6" cy="310.2" r="4" fill="#6eb6ec" /><circle cx="399.0" cy="310.2" r="4" fill="#6eb6ec" /><circle cx="408.4" cy="310.1" r="4" fill="#6eb6ec" /><circle cx="417.8" cy="310.1" r="4" fill="#6eb6ec" /><circle cx="427.2" cy="309.8" r="4" fill="#6eb6ec" /><circle cx="436.5" cy="309.6" r="4" fill="#6eb6ec" /><circle cx="445.9" cy="309.6" r="4" fill="#6eb6ec" /><circle cx="455.3" cy="309.6" r="4" fill="#6eb6ec" /><circle cx="464.7" cy="309.6" r="4" fill="#6eb6ec" /><circle cx="474.1" cy="309.5" r="4" fill="#6eb6ec" /><circle cx="483.5" cy="309.4" r="4" fill="#6eb6ec" /><circle cx="492.8" cy="309.4" r="4" fill="#6eb6ec" /><circle cx="502.2" cy="309.4" r="4" fill="#6eb6ec" /><circle cx="511.6" cy="309.4" r="4" fill="#6eb6ec" /><circle cx="521.0" cy="309.2" r="4" fill="#6eb6ec" /><circle cx="530.4" cy="309.2" r="4" fill="#6eb6ec" /><circle cx="539.8" cy="309.2" r="4" fill="#6eb6ec" /><circle cx="549.1" cy="309.4" r="4" fill="#6eb6ec" /><circle cx="558.5" cy="309.4" r="4" fill="#6eb6ec" /><circle cx="567.9" cy="309.5" r="4" fill="#6eb6ec" /><circle cx="577.3" cy="309.2" r="4" fill="#6eb6ec" /><circle cx="586.7" cy="309.2" r="4" fill="#6eb6ec" /><circle cx="596.0" cy="309.4" r="4" fill="#6eb6ec" /><circle cx="605.4" cy="309.2" r="4" fill="#6eb6ec" /><circle cx="614.8" cy="309.2" r="4" fill="#6eb6ec" /><circle cx="624.2" cy="309.2" r="4" fill="#6eb6ec" /><circle cx="633.6" cy="309.2" r="4" fill="#6eb6ec" /><circle cx="643.0" cy="309.2" r="4" fill="#6eb6ec" /><circle cx="652.3" cy="309.1" r="4" fill="#6eb6ec" /><circle cx="661.7" cy="309.1" r="4" fill="#6eb6ec" /><circle cx="671.1" cy="309.1" r="4" fill="#6eb6ec" /><circle cx="680.5" cy="309.1" r="4" fill="#6eb6ec" /><circle cx="689.9" cy="309.0" r="4" fill="#6eb6ec" /><circle cx="699.3" cy="309.0" r="4" fill="#6eb6ec" /><circle cx="708.6" cy="308.9" r="4" fill="#6eb6ec" /><circle cx="718.0" cy="308.9" r="4" fill="#6eb6ec" /><circle cx="727.4" cy="308.9" r="4" fill="#6eb6ec" /><circle cx="736.8" cy="308.6" r="4" fill="#6eb6ec" /><circle cx="746.2" cy="308.6" r="4" fill="#6eb6ec" /><circle cx="755.6" cy="308.6" r="4" fill="#6eb6ec" /><circle cx="764.9" cy="308.6" r="4" fill="#6eb6ec" /><circle cx="774.3" cy="308.6" r="4" fill="#6eb6ec" /><circle cx="783.7" cy="308.6" r="4" fill="#6eb6ec" /><circle cx="793.1" cy="308.6" r="4" fill="#6eb6ec" /><circle cx="802.5" cy="308.6" r="4" fill="#6eb6ec" /><circle cx="811.9" cy="308.6" r="4" fill="#6eb6ec" /><circle cx="821.2" cy="308.6" r="4" fill="#6eb6ec" /><circle cx="830.6" cy="308.6" r="4" fill="#6eb6ec" /><circle cx="840.0" cy="308.6" r="4" fill="#6eb6ec" /><polyline points="80.0,305.8 89.4,305.8 98.8,305.8 108.1,305.8 117.5,305.8 126.9,305.8 136.3,305.8 145.7,305.8 155.1,305.8 164.4,305.8 173.8,304.9 183.2,304.9 192.6,304.9 202.0,304.9 211.4,304.9 220.7,304.9 230.1,304.9 239.5,304.9 248.9,304.9 258.3,304.9 267.7,304.9 277.0,304.9 286.4,304.9 295.8,304.9 305.2,304.9 314.6,304.9 324.0,304.9 333.3,304.9 342.7,304.9 352.1,304.9 361.5,304.9 370.9,304.9 380.2,304.9 389.6,304.9 399.0,304.9 408.4,304.9 417.8,304.9 427.2,303.6 436.5,303.6 445.9,303.6 455.3,303.6 464.7,303.6 474.1,303.6 483.5,303.6 492.8,303.6 502.2,303.6 511.6,303.6 521.0,303.6 530.4,303.6 539.8,303.6 549.1,303.6 558.5,302.9 567.9,302.9 577.3,298.0 586.7,298.0 596.0,298.0 605.4,298.0 614.8,298.0 624.2,298.0 633.6,298.0 643.0,298.0 652.3,298.0 661.7,298.0 671.1,298.0 680.5,298.0 689.9,298.0 699.3,298.0 708.6,297.8 718.0,297.8 727.4,297.8 736.8,297.8 746.2,297.8 755.6,297.8 764.9,297.8 774.3,297.8 783.7,297.8 793.1,297.8 802.5,297.8 811.9,297.8 821.2,297.8 830.6,297.8 840.0,297.8" fill="none" stroke="#5938e2" stroke-width="2.5" stroke-linecap="round" stroke-linejoin="round" /><circle cx="80.0" cy="305.8" r="4" fill="#5938e2" /><circle cx="89.4" cy="305.8" r="4" fill="#5938e2" /><circle cx="98.8" cy="305.8" r="4" fill="#5938e2" /><circle cx="108.1" cy="305.8" r="4" fill="#5938e2" /><circle cx="117.5" cy="305.8" r="4" fill="#5938e2" /><circle cx="126.9" cy="305.8" r="4" fill="#5938e2" /><circle cx="136.3" cy="305.8" r="4" fill="#5938e2" /><circle cx="145.7" cy="305.8" r="4" fill="#5938e2" /><circle cx="155.1" cy="305.8" r="4" fill="#5938e2" /><circle cx="164.4" cy="305.8" r="4" fill="#5938e2" /><circle cx="173.8" cy="304.9" r="4" fill="#5938e2" /><circle cx="183.2" cy="304.9" r="4" fill="#5938e2" /><circle cx="192.6" cy="304.9" r="4" fill="#5938e2" /><circle cx="202.0" cy="304.9" r="4" fill="#5938e2" /><circle cx="211.4" cy="304.9" r="4" fill="#5938e2" /><circle cx="220.7" cy="304.9" r="4" fill="#5938e2" /><circle cx="230.1" cy="304.9" r="4" fill="#5938e2" /><circle cx="239.5" cy="304.9" r="4" fill="#5938e2" /><circle cx="248.9" cy="304.9" r="4" fill="#5938e2" /><circle cx="258.3" cy="304.9" r="4" fill="#5938e2" /><circle cx="267.7" cy="304.9" r="4" fill="#5938e2" /><circle cx="277.0" cy="304.9" r="4" fill="#5938e2" /><circle cx="286.4" cy="304.9" r="4" fill="#5938e2" /><circle cx="295.8" cy="304.9" r="4" fill="#5938e2" /><circle cx="305.2" cy="304.9" r="4" fill="#5938e2" /><circle cx="314.6" cy="304.9" r="4" fill="#5938e2" /><circle cx="324.0" cy="304.9" r="4" fill="#5938e2" /><circle cx="333.3" cy="304.9" r="4" fill="#5938e2" /><circle cx="342.7" cy="304.9" r="4" fill="#5938e2" /><circle cx="352.1" cy="304.9" r="4" fill="#5938e2" /><circle cx="361.5" cy="304.9" r="4" fill="#5938e2" /><circle cx="370.9" cy="304.9" r="4" fill="#5938e2" /><circle cx="380.2" cy="304.9" r="4" fill="#5938e2" /><circle cx="389.6" cy="304.9" r="4" fill="#5938e2" /><circle cx="399.0" cy="304.9" r="4" fill="#5938e2" /><circle cx="408.4" cy="304.9" r="4" fill="#5938e2" /><circle cx="417.8" cy="304.9" r="4" fill="#5938e2" /><circle cx="427.2" cy="303.6" r="4" fill="#5938e2" /><circle cx="436.5" cy="303.6" r="4" fill="#5938e2" /><circle cx="445.9" cy="303.6" r="4" fill="#5938e2" /><circle cx="455.3" cy="303.6" r="4" fill="#5938e2" /><circle cx="464.7" cy="303.6" r="4" fill="#5938e2" /><circle cx="474.1" cy="303.6" r="4" fill="#5938e2" /><circle cx="483.5" cy="303.6" r="4" fill="#5938e2" /><circle cx="492.8" cy="303.6" r="4" fill="#5938e2" /><circle cx="502.2" cy="303.6" r="4" fill="#5938e2" /><circle cx="511.6" cy="303.6" r="4" fill="#5938e2" /><circle cx="521.0" cy="303.6" r="4" fill="#5938e2" /><circle cx="530.4" cy="303.6" r="4" fill="#5938e2" /><circle cx="539.8" cy="303.6" r="4" fill="#5938e2" /><circle cx="549.1" cy="303.6" r="4" fill="#5938e2" /><circle cx="558.5" cy="302.9" r="4" fill="#5938e2" /><circle cx="567.9" cy="302.9" r="4" fill="#5938e2" /><circle cx="577.3" cy="298.0" r="4" fill="#5938e2" /><circle cx="586.7" cy="298.0" r="4" fill="#5938e2" /><circle cx="596.0" cy="298.0" r="4" fill="#5938e2" /><circle cx="605.4" cy="298.0" r="4" fill="#5938e2" /><circle cx="614.8" cy="298.0" r="4" fill="#5938e2" /><circle cx="624.2" cy="298.0" r="4" fill="#5938e2" /><circle cx="633.6" cy="298.0" r="4" fill="#5938e2" /><circle cx="643.0" cy="298.0" r="4" fill="#5938e2" /><circle cx="652.3" cy="298.0" r="4" fill="#5938e2" /><circle cx="661.7" cy="298.0" r="4" fill="#5938e2" /><circle cx="671.1" cy="298.0" r="4" fill="#5938e2" /><circle cx="680.5" cy="298.0" r="4" fill="#5938e2" /><circle cx="689.9" cy="298.0" r="4" fill="#5938e2" /><circle cx="699.3" cy="298.0" r="4" fill="#5938e2" /><circle cx="708.6" cy="297.8" r="4" fill="#5938e2" /><circle cx="718.0" cy="297.8" r="4" fill="#5938e2" /><circle cx="727.4" cy="297.8" r="4" fill="#5938e2" /><circle cx="736.8" cy="297.8" r="4" fill="#5938e2" /><circle cx="746.2" cy="297.8" r="4" fill="#5938e2" /><circle cx="755.6" cy="297.8" r="4" fill="#5938e2" /><circle cx="764.9" cy="297.8" r="4" fill="#5938e2" /><circle cx="774.3" cy="297.8" r="4" fill="#5938e2" /><circle cx="783.7" cy="297.8" r="4" fill="#5938e2" /><circle cx="793.1" cy="297.8" r="4" fill="#5938e2" /><circle cx="802.5" cy="297.8" r="4" fill="#5938e2" /><circle cx="811.9" cy="297.8" r="4" fill="#5938e2" /><circle cx="821.2" cy="297.8" r="4" fill="#5938e2" /><circle cx="830.6" cy="297.8" r="4" fill="#5938e2" /><circle cx="840.0" cy="297.8" r="4" fill="#5938e2" /><polyline points="80.0,144.6 89.4,140.1 98.8,139.9 108.1,139.8 117.5,139.8 126.9,139.6 136.3,139.6 145.7,139.6 155.1,139.6 164.4,139.6 173.8,138.4 183.2,138.4 192.6,138.4 202.0,138.4 211.4,138.4 220.7,138.4 230.1,138.4 239.5,137.4 248.9,137.4 258.3,137.4 267.7,137.4 277.0,137.4 286.4,137.4 295.8,137.4 305.2,137.4 314.6,137.4 324.0,137.4 333.3,137.4 342.7,131.2 352.1,131.2 361.5,130.8 370.9,130.4 380.2,126.9 389.6,126.9 399.0,126.9 408.4,126.9 417.8,126.9 427.2,126.9 436.5,126.9 445.9,126.9 455.3,126.9 464.7,126.8 474.1,122.1 483.5,120.4 492.8,120.4 502.2,120.4 511.6,120.4 521.0,120.4 530.4,119.4 539.8,119.4 549.1,119.4 558.5,119.4 567.9,119.1 577.3,118.8 586.7,118.8 596.0,117.8 605.4,117.8 614.8,117.8 624.2,115.8 633.6,115.8 643.0,115.0 652.3,115.0 661.7,115.0 671.1,115.0 680.5,115.0 689.9,115.0 699.3,115.0 708.6,113.9 718.0,111.8 727.4,111.8 736.8,111.8 746.2,111.8 755.6,111.8 764.9,111.8 774.3,111.8 783.7,111.8 793.1,111.8 802.5,111.8 811.9,110.6 821.2,110.6 830.6,110.6 840.0,110.6" fill="none" stroke="#60e5e0" stroke-width="2.5" stroke-linecap="round" stroke-linejoin="round" /><circle cx="80.0" cy="144.6" r="4" fill="#60e5e0" /><circle cx="89.4" cy="140.1" r="4" fill="#60e5e0" /><circle cx="98.8" cy="139.9" r="4" fill="#60e5e0" /><circle cx="108.1" cy="139.8" r="4" fill="#60e5e0" /><circle cx="117.5" cy="139.8" r="4" fill="#60e5e0" /><circle cx="126.9" cy="139.6" r="4" fill="#60e5e0" /><circle cx="136.3" cy="139.6" r="4" fill="#60e5e0" /><circle cx="145.7" cy="139.6" r="4" fill="#60e5e0" /><circle cx="155.1" cy="139.6" r="4" fill="#60e5e0" /><circle cx="164.4" cy="139.6" r="4" fill="#60e5e0" /><circle cx="173.8" cy="138.4" r="4" fill="#60e5e0" /><circle cx="183.2" cy="138.4" r="4" fill="#60e5e0" /><circle cx="192.6" cy="138.4" r="4" fill="#60e5e0" /><circle cx="202.0" cy="138.4" r="4" fill="#60e5e0" /><circle cx="211.4" cy="138.4" r="4" fill="#60e5e0" /><circle cx="220.7" cy="138.4" r="4" fill="#60e5e0" /><circle cx="230.1" cy="138.4" r="4" fill="#60e5e0" /><circle cx="239.5" cy="137.4" r="4" fill="#60e5e0" /><circle cx="248.9" cy="137.4" r="4" fill="#60e5e0" /><circle cx="258.3" cy="137.4" r="4" fill="#60e5e0" /><circle cx="267.7" cy="137.4" r="4" fill="#60e5e0" /><circle cx="277.0" cy="137.4" r="4" fill="#60e5e0" /><circle cx="286.4" cy="137.4" r="4" fill="#60e5e0" /><circle cx="295.8" cy="137.4" r="4" fill="#60e5e0" /><circle cx="305.2" cy="137.4" r="4" fill="#60e5e0" /><circle cx="314.6" cy="137.4" r="4" fill="#60e5e0" /><circle cx="324.0" cy="137.4" r="4" fill="#60e5e0" /><circle cx="333.3" cy="137.4" r="4" fill="#60e5e0" /><circle cx="342.7" cy="131.2" r="4" fill="#60e5e0" /><circle cx="352.1" cy="131.2" r="4" fill="#60e5e0" /><circle cx="361.5" cy="130.8" r="4" fill="#60e5e0" /><circle cx="370.9" cy="130.4" r="4" fill="#60e5e0" /><circle cx="380.2" cy="126.9" r="4" fill="#60e5e0" /><circle cx="389.6" cy="126.9" r="4" fill="#60e5e0" /><circle cx="399.0" cy="126.9" r="4" fill="#60e5e0" /><circle cx="408.4" cy="126.9" r="4" fill="#60e5e0" /><circle cx="417.8" cy="126.9" r="4" fill="#60e5e0" /><circle cx="427.2" cy="126.9" r="4" fill="#60e5e0" /><circle cx="436.5" cy="126.9" r="4" fill="#60e5e0" /><circle cx="445.9" cy="126.9" r="4" fill="#60e5e0" /><circle cx="455.3" cy="126.9" r="4" fill="#60e5e0" /><circle cx="464.7" cy="126.8" r="4" fill="#60e5e0" /><circle cx="474.1" cy="122.1" r="4" fill="#60e5e0" /><circle cx="483.5" cy="120.4" r="4" fill="#60e5e0" /><circle cx="492.8" cy="120.4" r="4" fill="#60e5e0" /><circle cx="502.2" cy="120.4" r="4" fill="#60e5e0" /><circle cx="511.6" cy="120.4" r="4" fill="#60e5e0" /><circle cx="521.0" cy="120.4" r="4" fill="#60e5e0" /><circle cx="530.4" cy="119.4" r="4" fill="#60e5e0" /><circle cx="539.8" cy="119.4" r="4" fill="#60e5e0" /><circle cx="549.1" cy="119.4" r="4" fill="#60e5e0" /><circle cx="558.5" cy="119.4" r="4" fill="#60e5e0" /><circle cx="567.9" cy="119.1" r="4" fill="#60e5e0" /><circle cx="577.3" cy="118.8" r="4" fill="#60e5e0" /><circle cx="586.7" cy="118.8" r="4" fill="#60e5e0" /><circle cx="596.0" cy="117.8" r="4" fill="#60e5e0" /><circle cx="605.4" cy="117.8" r="4" fill="#60e5e0" /><circle cx="614.8" cy="117.8" r="4" fill="#60e5e0" /><circle cx="624.2" cy="115.8" r="4" fill="#60e5e0" /><circle cx="633.6" cy="115.8" r="4" fill="#60e5e0" /><circle cx="643.0" cy="115.0" r="4" fill="#60e5e0" /><circle cx="652.3" cy="115.0" r="4" fill="#60e5e0" /><circle cx="661.7" cy="115.0" r="4" fill="#60e5e0" /><circle cx="671.1" cy="115.0" r="4" fill="#60e5e0" /><circle cx="680.5" cy="115.0" r="4" fill="#60e5e0" /><circle cx="689.9" cy="115.0" r="4" fill="#60e5e0" /><circle cx="699.3" cy="115.0" r="4" fill="#60e5e0" /><circle cx="708.6" cy="113.9" r="4" fill="#60e5e0" /><circle cx="718.0" cy="111.8" r="4" fill="#60e5e0" /><circle cx="727.4" cy="111.8" r="4" fill="#60e5e0" /><circle cx="736.8" cy="111.8" r="4" fill="#60e5e0" /><circle cx="746.2" cy="111.8" r="4" fill="#60e5e0" /><circle cx="755.6" cy="111.8" r="4" fill="#60e5e0" /><circle cx="764.9" cy="111.8" r="4" fill="#60e5e0" /><circle cx="774.3" cy="111.8" r="4" fill="#60e5e0" /><circle cx="783.7" cy="111.8" r="4" fill="#60e5e0" /><circle cx="793.1" cy="111.8" r="4" fill="#60e5e0" /><circle cx="802.5" cy="111.8" r="4" fill="#60e5e0" /><circle cx="811.9" cy="110.6" r="4" fill="#60e5e0" /><circle cx="821.2" cy="110.6" r="4" fill="#60e5e0" /><circle cx="830.6" cy="110.6" r="4" fill="#60e5e0" /><circle cx="840.0" cy="110.6" r="4" fill="#60e5e0" /><polyline points="80.0,314.6 89.4,314.4 98.8,314.2 108.1,314.2 117.5,314.2 126.9,314.1 136.3,314.1 145.7,314.1 155.1,314.1 164.4,314.1 173.8,314.0 183.2,314.0 192.6,314.0 202.0,314.0 211.4,314.0 220.7,314.0 230.1,314.0 239.5,314.0 248.9,314.0 258.3,314.0 267.7,314.0 277.0,314.0 286.4,314.0 295.8,314.0 305.2,314.0 314.6,314.0 324.0,314.0 333.3,314.0 342.7,314.0 352.1,314.0 361.5,314.0 370.9,314.0 380.2,314.0 389.6,314.0 399.0,314.0 408.4,314.0 417.8,314.0 427.2,314.0 436.5,314.0 445.9,314.0 455.3,314.0 464.7,313.9 474.1,313.6 483.5,313.4 492.8,313.4 502.2,313.4 511.6,313.4 521.0,313.4 530.4,313.1 539.8,313.1 549.1,313.1 558.5,313.1 567.9,313.1 577.3,313.0 586.7,313.0 596.0,312.9 605.4,312.9 614.8,312.9 624.2,312.8 633.6,312.8 643.0,312.6 652.3,312.6 661.7,312.6 671.1,312.6 680.5,312.6 689.9,312.6 699.3,312.6 708.6,312.5 718.0,312.1 727.4,312.1 736.8,312.1 746.2,312.1 755.6,312.1 764.9,312.1 774.3,312.1 783.7,312.1 793.1,312.1 802.5,312.1 811.9,312.0 821.2,312.0 830.6,312.0 840.0,312.0" fill="none" stroke="#567de1" stroke-width="2.5" stroke-linecap="round" stroke-linejoin="round" /><circle cx="80.0" cy="314.6" r="4" fill="#567de1" /><circle cx="89.4" cy="314.4" r="4" fill="#567de1" /><circle cx="98.8" cy="314.2" r="4" fill="#567de1" /><circle cx="108.1" cy="314.2" r="4" fill="#567de1" /><circle cx="117.5" cy="314.2" r="4" fill="#567de1" /><circle cx="126.9" cy="314.1" r="4" fill="#567de1" /><circle cx="136.3" cy="314.1" r="4" fill="#567de1" /><circle cx="145.7" cy="314.1" r="4" fill="#567de1" /><circle cx="155.1" cy="314.1" r="4" fill="#567de1" /><circle cx="164.4" cy="314.1" r="4" fill="#567de1" /><circle cx="173.8" cy="314.0" r="4" fill="#567de1" /><circle cx="183.2" cy="314.0" r="4" fill="#567de1" /><circle cx="192.6" cy="314.0" r="4" fill="#567de1" /><circle cx="202.0" cy="314.0" r="4" fill="#567de1" /><circle cx="211.4" cy="314.0" r="4" fill="#567de1" /><circle cx="220.7" cy="314.0" r="4" fill="#567de1" /><circle cx="230.1" cy="314.0" r="4" fill="#567de1" /><circle cx="239.5" cy="314.0" r="4" fill="#567de1" /><circle cx="248.9" cy="314.0" r="4" fill="#567de1" /><circle cx="258.3" cy="314.0" r="4" fill="#567de1" /><circle cx="267.7" cy="314.0" r="4" fill="#567de1" /><circle cx="277.0" cy="314.0" r="4" fill="#567de1" /><circle cx="286.4" cy="314.0" r="4" fill="#567de1" /><circle cx="295.8" cy="314.0" r="4" fill="#567de1" /><circle cx="305.2" cy="314.0" r="4" fill="#567de1" /><circle cx="314.6" cy="314.0" r="4" fill="#567de1" /><circle cx="324.0" cy="314.0" r="4" fill="#567de1" /><circle cx="333.3" cy="314.0" r="4" fill="#567de1" /><circle cx="342.7" cy="314.0" r="4" fill="#567de1" /><circle cx="352.1" cy="314.0" r="4" fill="#567de1" /><circle cx="361.5" cy="314.0" r="4" fill="#567de1" /><circle cx="370.9" cy="314.0" r="4" fill="#567de1" /><circle cx="380.2" cy="314.0" r="4" fill="#567de1" /><circle cx="389.6" cy="314.0" r="4" fill="#567de1" /><circle cx="399.0" cy="314.0" r="4" fill="#567de1" /><circle cx="408.4" cy="314.0" r="4" fill="#567de1" /><circle cx="417.8" cy="314.0" r="4" fill="#567de1" /><circle cx="427.2" cy="314.0" r="4" fill="#567de1" /><circle cx="436.5" cy="314.0" r="4" fill="#567de1" /><circle cx="445.9" cy="314.0" r="4" fill="#567de1" /><circle cx="455.3" cy="314.0" r="4" fill="#567de1" /><circle cx="464.7" cy="313.9" r="4" fill="#567de1" /><circle cx="474.1" cy="313.6" r="4" fill="#567de1" /><circle cx="483.5" cy="313.4" r="4" fill="#567de1" /><circle cx="492.8" cy="313.4" r="4" fill="#567de1" /><circle cx="502.2" cy="313.4" r="4" fill="#567de1" /><circle cx="511.6" cy="313.4" r="4" fill="#567de1" /><circle cx="521.0" cy="313.4" r="4" fill="#567de1" /><circle cx="530.4" cy="313.1" r="4" fill="#567de1" /><circle cx="539.8" cy="313.1" r="4" fill="#567de1" /><circle cx="549.1" cy="313.1" r="4" fill="#567de1" /><circle cx="558.5" cy="313.1" r="4" fill="#567de1" /><circle cx="567.9" cy="313.1" r="4" fill="#567de1" /><circle cx="577.3" cy="313.0" r="4" fill="#567de1" /><circle cx="586.7" cy="313.0" r="4" fill="#567de1" /><circle cx="596.0" cy="312.9" r="4" fill="#567de1" /><circle cx="605.4" cy="312.9" r="4" fill="#567de1" /><circle cx="614.8" cy="312.9" r="4" fill="#567de1" /><circle cx="624.2" cy="312.8" r="4" fill="#567de1" /><circle cx="633.6" cy="312.8" r="4" fill="#567de1" /><circle cx="643.0" cy="312.6" r="4" fill="#567de1" /><circle cx="652.3" cy="312.6" r="4" fill="#567de1" /><circle cx="661.7" cy="312.6" r="4" fill="#567de1" /><circle cx="671.1" cy="312.6" r="4" fill="#567de1" /><circle cx="680.5" cy="312.6" r="4" fill="#567de1" /><circle cx="689.9" cy="312.6" r="4" fill="#567de1" /><circle cx="699.3" cy="312.6" r="4" fill="#567de1" /><circle cx="708.6" cy="312.5" r="4" fill="#567de1" /><circle cx="718.0" cy="312.1" r="4" fill="#567de1" /><circle cx="727.4" cy="312.1" r="4" fill="#567de1" /><circle cx="736.8" cy="312.1" r="4" fill="#567de1" /><circle cx="746.2" cy="312.1" r="4" fill="#567de1" /><circle cx="755.6" cy="312.1" r="4" fill="#567de1" /><circle cx="764.9" cy="312.1" r="4" fill="#567de1" /><circle cx="774.3" cy="312.1" r="4" fill="#567de1" /><circle cx="783.7" cy="312.1" r="4" fill="#567de1" /><circle cx="793.1" cy="312.1" r="4" fill="#567de1" /><circle cx="802.5" cy="312.1" r="4" fill="#567de1" /><circle cx="811.9" cy="312.0" r="4" fill="#567de1" /><circle cx="821.2" cy="312.0" r="4" fill="#567de1" /><circle cx="830.6" cy="312.0" r="4" fill="#567de1" /><circle cx="840.0" cy="312.0" r="4" fill="#567de1" /><polyline points="80.0,303.9 89.4,304.2 98.8,304.4 108.1,304.4 117.5,304.4 126.9,304.4 136.3,304.4 145.7,304.4 155.1,304.4 164.4,304.4 173.8,304.4 183.2,304.4 192.6,304.4 202.0,304.4 211.4,304.4 220.7,304.4 230.1,304.4 239.5,304.4 248.9,304.4 258.3,304.4 267.7,304.4 277.0,304.4 286.4,304.4 295.8,304.4 305.2,304.4 314.6,304.4 324.0,304.4 333.3,304.4 342.7,299.1 352.1,299.1 361.5,299.1 370.9,298.9 380.2,295.6 389.6,295.6 399.0,295.6 408.4,295.6 417.8,295.6 427.2,295.6 436.5,295.6 445.9,295.6 455.3,295.6 464.7,295.8 474.1,295.9 483.5,295.9 492.8,295.9 502.2,295.9 511.6,295.9 521.0,295.9 530.4,295.9 539.8,295.9 549.1,295.9 558.5,295.9 567.9,295.9 577.3,295.9 586.7,295.9 596.0,295.9 605.4,295.9 614.8,295.9 624.2,295.8 633.6,295.8 643.0,295.9 652.3,295.9 661.7,295.9 671.1,295.9 680.5,295.9 689.9,295.9 699.3,295.9 708.6,296.0 718.0,296.4 727.4,296.4 736.8,296.4 746.2,296.4 755.6,296.4 764.9,296.4 774.3,296.4 783.7,296.4 793.1,296.4 802.5,296.4 811.9,296.5 821.2,296.5 830.6,296.5 840.0,296.5" fill="none" stroke="#9754dd" stroke-width="2.5" stroke-linecap="round" stroke-linejoin="round" /><circle cx="80.0" cy="303.9" r="4" fill="#9754dd" /><circle cx="89.4" cy="304.2" r="4" fill="#9754dd" /><circle cx="98.8" cy="304.4" r="4" fill="#9754dd" /><circle cx="108.1" cy="304.4" r="4" fill="#9754dd" /><circle cx="117.5" cy="304.4" r="4" fill="#9754dd" /><circle cx="126.9" cy="304.4" r="4" fill="#9754dd" /><circle cx="136.3" cy="304.4" r="4" fill="#9754dd" /><circle cx="145.7" cy="304.4" r="4" fill="#9754dd" /><circle cx="155.1" cy="304.4" r="4" fill="#9754dd" /><circle cx="164.4" cy="304.4" r="4" fill="#9754dd" /><circle cx="173.8" cy="304.4" r="4" fill="#9754dd" /><circle cx="183.2" cy="304.4" r="4" fill="#9754dd" /><circle cx="192.6" cy="304.4" r="4" fill="#9754dd" /><circle cx="202.0" cy="304.4" r="4" fill="#9754dd" /><circle cx="211.4" cy="304.4" r="4" fill="#9754dd" /><circle cx="220.7" cy="304.4" r="4" fill="#9754dd" /><circle cx="230.1" cy="304.4" r="4" fill="#9754dd" /><circle cx="239.5" cy="304.4" r="4" fill="#9754dd" /><circle cx="248.9" cy="304.4" r="4" fill="#9754dd" /><circle cx="258.3" cy="304.4" r="4" fill="#9754dd" /><circle cx="267.7" cy="304.4" r="4" fill="#9754dd" /><circle cx="277.0" cy="304.4" r="4" fill="#9754dd" /><circle cx="286.4" cy="304.4" r="4" fill="#9754dd" /><circle cx="295.8" cy="304.4" r="4" fill="#9754dd" /><circle cx="305.2" cy="304.4" r="4" fill="#9754dd" /><circle cx="314.6" cy="304.4" r="4" fill="#9754dd" /><circle cx="324.0" cy="304.4" r="4" fill="#9754dd" /><circle cx="333.3" cy="304.4" r="4" fill="#9754dd" /><circle cx="342.7" cy="299.1" r="4" fill="#9754dd" /><circle cx="352.1" cy="299.1" r="4" fill="#9754dd" /><circle cx="361.5" cy="299.1" r="4" fill="#9754dd" /><circle cx="370.9" cy="298.9" r="4" fill="#9754dd" /><circle cx="380.2" cy="295.6" r="4" fill="#9754dd" /><circle cx="389.6" cy="295.6" r="4" fill="#9754dd" /><circle cx="399.0" cy="295.6" r="4" fill="#9754dd" /><circle cx="408.4" cy="295.6" r="4" fill="#9754dd" /><circle cx="417.8" cy="295.6" r="4" fill="#9754dd" /><circle cx="427.2" cy="295.6" r="4" fill="#9754dd" /><circle cx="436.5" cy="295.6" r="4" fill="#9754dd" /><circle cx="445.9" cy="295.6" r="4" fill="#9754dd" /><circle cx="455.3" cy="295.6" r="4" fill="#9754dd" /><circle cx="464.7" cy="295.8" r="4" fill="#9754dd" /><circle cx="474.1" cy="295.9" r="4" fill="#9754dd" /><circle cx="483.5" cy="295.9" r="4" fill="#9754dd" /><circle cx="492.8" cy="295.9" r="4" fill="#9754dd" /><circle cx="502.2" cy="295.9" r="4" fill="#9754dd" /><circle cx="511.6" cy="295.9" r="4" fill="#9754dd" /><circle cx="521.0" cy="295.9" r="4" fill="#9754dd" /><circle cx="530.4" cy="295.9" r="4" fill="#9754dd" /><circle cx="539.8" cy="295.9" r="4" fill="#9754dd" /><circle cx="549.1" cy="295.9" r="4" fill="#9754dd" /><circle cx="558.5" cy="295.9" r="4" fill="#9754dd" /><circle cx="567.9" cy="295.9" r="4" fill="#9754dd" /><circle cx="577.3" cy="295.9" r="4" fill="#9754dd" /><circle cx="586.7" cy="295.9" r="4" fill="#9754dd" /><circle cx="596.0" cy="295.9" r="4" fill="#9754dd" /><circle cx="605.4" cy="295.9" r="4" fill="#9754dd" /><circle cx="614.8" cy="295.9" r="4" fill="#9754dd" /><circle cx="624.2" cy="295.8" r="4" fill="#9754dd" /><circle cx="633.6" cy="295.8" r="4" fill="#9754dd" /><circle cx="643.0" cy="295.9" r="4" fill="#9754dd" /><circle cx="652.3" cy="295.9" r="4" fill="#9754dd" /><circle cx="661.7" cy="295.9" r="4" fill="#9754dd" /><circle cx="671.1" cy="295.9" r="4" fill="#9754dd" /><circle cx="680.5" cy="295.9" r="4" fill="#9754dd" /><circle cx="689.9" cy="295.9" r="4" fill="#9754dd" /><circle cx="699.3" cy="295.9" r="4" fill="#9754dd" /><circle cx="708.6" cy="296.0" r="4" fill="#9754dd" /><circle cx="718.0" cy="296.4" r="4" fill="#9754dd" /><circle cx="727.4" cy="296.4" r="4" fill="#9754dd" /><circle cx="736.8" cy="296.4" r="4" fill="#9754dd" /><circle cx="746.2" cy="296.4" r="4" fill="#9754dd" /><circle cx="755.6" cy="296.4" r="4" fill="#9754dd" /><circle cx="764.9" cy="296.4" r="4" fill="#9754dd" /><circle cx="774.3" cy="296.4" r="4" fill="#9754dd" /><circle cx="783.7" cy="296.4" r="4" fill="#9754dd" /><circle cx="793.1" cy="296.4" r="4" fill="#9754dd" /><circle cx="802.5" cy="296.4" r="4" fill="#9754dd" /><circle cx="811.9" cy="296.5" r="4" fill="#9754dd" /><circle cx="821.2" cy="296.5" r="4" fill="#9754dd" /><circle cx="830.6" cy="296.5" r="4" fill="#9754dd" /><circle cx="840.0" cy="296.5" r="4" fill="#9754dd" />
  <rect x="80" y="339" width="10" height="10" rx="2" ry="2" fill="#19e5a1" /><text x="96" y="348" class="legend-label">Stars</text><rect x="250" y="339" width="10" height="10" rx="2" ry="2" fill="#6eb6ec" /><text x="266" y="348" class="legend-label">Followers</text><rect x="420" y="339" width="10" height="10" rx="2" ry="2" fill="#5938e2" /><text x="436" y="348" class="legend-label">Following</text><rect x="590" y="339" width="10" height="10" rx="2" ry="2" fill="#60e5e0" /><text x="606" y="348" class="legend-label">Contributions</text><rect x="80" y="357" width="10" height="10" rx="2" ry="2" fill="#567de1" /><text x="96" y="366" class="legend-label">Pull Requests</text><rect x="250" y="357" width="10" height="10" rx="2" ry="2" fill="#9754dd" /><text x="266" y="366" class="legend-label">Issues</text>
</svg>
