<svg width="900" height="402" viewBox="0 0 900 402" xmlns="http://www.w3.org/2000/svg">
  <defs>
    <linearGradient id="history-gradient" x1="0%" y1="0%" x2="100%" y2="100%">
      <stop offset="0%" style="stop-color:#58a6ff;stop-opacity:1" />
      <stop offset="100%" style="stop-color:#a371f7;stop-opacity:1" />
    </linearGradient>
    <clipPath id="history-rounded">
      <rect x="0" y="0" width="900" height="402" rx="8" ry="8" />
    </clipPath>
  </defs>
  <style>
    .title {
      font-family: 'Segoe UI', Ubuntu, 'Helvetica Neue', sans-serif;
      font-size: 22px;
      font-weight: 700;
      fill: #58a6ff;
    }
    .subtitle {
      font-family: 'Segoe UI', Ubuntu, 'Helvetica Neue', sans-serif;
      font-size: 12px;
      font-weight: 500;
      fill: #8b949e;
    }
    .axis-label {
      font-family: 'Segoe UI', Ubuntu, 'Helvetica Neue', sans-serif;
      font-size: 10px;
      fill: #8b949e;
    }
    .grid-line {
      stroke: #30363d;
      stroke-width: 1;
      opacity: 0.3;
    }
    .legend-label {
      font-family: 'Segoe UI', Ubuntu, 'Helvetica Neue', sans-serif;
      font-size: 11px;
      fill: #c9d1d9;
      dominant-baseline: middle;
    }
  </style>
  <rect clip-path="url(#history-rounded)" width="100%" height="100%" fill="#0d1117" stroke="#30363d" stroke-width="1" />
  <rect x="0" y="396" width="900" height="6" fill="url(#history-gradient)" clip-path="url(#history-rounded)" />
  <text x="24" y="34" class="title">Leonardo Klein Stats History</text>
  <text x="24" y="54" class="subtitle">Period: 2026-02-20 to 2026-03-07</text>
  <text x="72" y="320.0" text-anchor="end" dominant-baseline="central" class="axis-label">0</text><text x="72" y="270.0" text-anchor="end" dominant-baseline="central" class="axis-label">400</text><text x="72" y="220.0" text-anchor="end" dominant-baseline="central" class="axis-label">800</text><text x="72" y="170.0" text-anchor="end" dominant-baseline="central" class="axis-label">1.2k</text><text x="72" y="120.0" text-anchor="end" dominant-baseline="central" class="axis-label">1.6k</text><text x="72" y="70.0" text-anchor="end" dominant-baseline="central" class="axis-label">2.0k</text>
  <text x="80.0" y="336" text-anchor="middle" class="axis-label">02-20</text><text x="150.0" y="336" text-anchor="middle" class="axis-label">02-21</text><text x="220.0" y="336" text-anchor="middle" class="axis-label">02-23</text><text x="290.0" y="336" text-anchor="middle" class="axis-label">02-24</text><text x="360.0" y="336" text-anchor="middle" class="axis-label">02-26</text><text x="430.0" y="336" text-anchor="middle" class="axis-label">02-27</text><text x="500.0" y="336" text-anchor="middle" class="axis-label">02-28</text><text x="570.0" y="336" text-anchor="middle" class="axis-label">03-02</text><text x="640.0" y="336" text-anchor="middle" class="axis-label">03-03</text><text x="710.0" y="336" text-anchor="middle" class="axis-label">03-05</text><text x="780.0" y="336" text-anchor="middle" class="axis-label">03-06</text><text x="840.0" y="336" text-anchor="middle" class="axis-label">03-07</text>
  <line x1="80" y1="320.0" x2="840" y2="320.0" class="grid-line" /><line x1="80" y1="270.0" x2="840" y2="270.0" class="grid-line" /><line x1="80" y1="220.0" x2="840" y2="220.0" class="grid-line" /><line x1="80" y1="170.0" x2="840" y2="170.0" class="grid-line" /><line x1="80" y1="120.0" x2="840" y2="120.0" class="grid-line" /><line x1="80" y1="70.0" x2="840" y2="70.0" class="grid-line" />
  <polyline points="80.0,317.0 90.0,317.0 100.0,317.0 110.0,317.0 120.0,317.0 130.0,317.0 140.0,317.0 150.0,317.0 160.0,317.0 170.0,317.0 180.0,317.0 190.0,317.0 200.0,317.0 210.0,317.0 220.0,317.0 230.0,317.0 240.0,317.0 250.0,317.0 260.0,317.0 270.0,317.0 280.0,317.0 290.0,317.0 300.0,317.0 310.0,317.0 320.0,317.0 330.0,317.0 340.0,317.0 350.0,317.0 360.0,317.0 370.0,317.0 380.0,317.0 390.0,317.0 400.0,317.0 410.0,317.0 420.0,317.0 430.0,317.0 440.0,317.0 450.0,317.0 460.0,317.0 470.0,317.0 480.0,317.0 490.0,317.0 500.0,317.0 510.0,317.0 520.0,317.0 530.0,317.0 540.0,317.0 550.0,317.0 560.0,317.0 570.0,317.0 580.0,317.0 590.0,317.0 600.0,317.0 610.0,317.0 620.0,317.0 630.0,317.0 640.0,317.0 650.0,317.0 660.0,317.0 670.0,317.0 680.0,317.0 690.0,317.0 700.0,317.0 710.0,317.0 720.0,317.0 730.0,317.0 740.0,317.0 750.0,317.0 760.0,317.0 770.0,317.0 780.0,317.0 790.0,317.0 800.0,317.0 810.0,317.0 820.0,317.0 830.0,317.0 840.0,317.0" fill="none" stroke="#19e5a1" stroke-width="2.5" stroke-linecap="round" stroke-linejoin="round" /><circle cx="80.0" cy="317.0" r="4" fill="#19e5a1" /><circle cx="90.0" cy="317.0" r="4" fill="#19e5a1" /><circle cx="100.0" cy="317.0" r="4" fill="#19e5a1" /><circle cx="110.0" cy="317.0" r="4" fill="#19e5a1" /><circle cx="120.0" cy="317.0" r="4" fill="#19e5a1" /><circle cx="130.0" cy="317.0" r="4" fill="#19e5a1" /><circle cx="140.0" cy="317.0" r="4" fill="#19e5a1" /><circle cx="150.0" cy="317.0" r="4" fill="#19e5a1" /><circle cx="160.0" cy="317.0" r="4" fill="#19e5a1" /><circle cx="170.0" cy="317.0" r="4" fill="#19e5a1" /><circle cx="180.0" cy="317.0" r="4" fill="#19e5a1" /><circle cx="190.0" cy="317.0" r="4" fill="#19e5a1" /><circle cx="200.0" cy="317.0" r="4" fill="#19e5a1" /><circle cx="210.0" cy="317.0" r="4" fill="#19e5a1" /><circle cx="220.0" cy="317.0" r="4" fill="#19e5a1" /><circle cx="230.0" cy="317.0" r="4" fill="#19e5a1" /><circle cx="240.0" cy="317.0" r="4" fill="#19e5a1" /><circle cx="250.0" cy="317.0" r="4" fill="#19e5a1" /><circle cx="260.0" cy="317.0" r="4" fill="#19e5a1" /><circle cx="270.0" cy="317.0" r="4" fill="#19e5a1" /><circle cx="280.0" cy="317.0" r="4" fill="#19e5a1" /><circle cx="290.0" cy="317.0" r="4" fill="#19e5a1" /><circle cx="300.0" cy="317.0" r="4" fill="#19e5a1" /><circle cx="310.0" cy="317.0" r="4" fill="#19e5a1" /><circle cx="320.0" cy="317.0" r="4" fill="#19e5a1" /><circle cx="330.0" cy="317.0" r="4" fill="#19e5a1" /><circle cx="340.0" cy="317.0" r="4" fill="#19e5a1" /><circle cx="350.0" cy="317.0" r="4" fill="#19e5a1" /><circle cx="360.0" cy="317.0" r="4" fill="#19e5a1" /><circle cx="370.0" cy="317.0" r="4" fill="#19e5a1" /><circle cx="380.0" cy="317.0" r="4" fill="#19e5a1" /><circle cx="390.0" cy="317.0" r="4" fill="#19e5a1" /><circle cx="400.0" cy="317.0" r="4" fill="#19e5a1" /><circle cx="410.0" cy="317.0" r="4" fill="#19e5a1" /><circle cx="420.0" cy="317.0" r="4" fill="#19e5a1" /><circle cx="430.0" cy="317.0" r="4" fill="#19e5a1" /><circle cx="440.0" cy="317.0" r="4" fill="#19e5a1" /><circle cx="450.0" cy="317.0" r="4" fill="#19e5a1" /><circle cx="460.0" cy="317.0" r="4" fill="#19e5a1" /><circle cx="470.0" cy="317.0" r="4" fill="#19e5a1" /><circle cx="480.0" cy="317.0" r="4" fill="#19e5a1" /><circle cx="490.0" cy="317.0" r="4" fill="#19e5a1" /><circle cx="500.0" cy="317.0" r="4" fill="#19e5a1" /><circle cx="510.0" cy="317.0" r="4" fill="#19e5a1" /><circle cx="520.0" cy="317.0" r="4" fill="#19e5a1" /><circle cx="530.0" cy="317.0" r="4" fill="#19e5a1" /><circle cx="540.0" cy="317.0" r="4" fill="#19e5a1" /><circle cx="550.0" cy="317.0" r="4" fill="#19e5a1" /><circle cx="560.0" cy="317.0" r="4" fill="#19e5a1" /><circle cx="570.0" cy="317.0" r="4" fill="#19e5a1" /><circle cx="580.0" cy="317.0" r="4" fill="#19e5a1" /><circle cx="590.0" cy="317.0" r="4" fill="#19e5a1" /><circle cx="600.0" cy="317.0" r="4" fill="#19e5a1" /><circle cx="610.0" cy="317.0" r="4" fill="#19e5a1" /><circle cx="620.0" cy="317.0" r="4" fill="#19e5a1" /><circle cx="630.0" cy="317.0" r="4" fill="#19e5a1" /><circle cx="640.0" cy="317.0" r="4" fill="#19e5a1" /><circle cx="650.0" cy="317.0" r="4" fill="#19e5a1" /><circle cx="660.0" cy="317.0" r="4" fill="#19e5a1" /><circle cx="670.0" cy="317.0" r="4" fill="#19e5a1" /><circle cx="680.0" cy="317.0" r="4" fill="#19e5a1" /><circle cx="690.0" cy="317.0" r="4" fill="#19e5a1" /><circle cx="700.0" cy="317.0" r="4" fill="#19e5a1" /><circle cx="710.0" cy="317.0" r="4" fill="#19e5a1" /><circle cx="720.0" cy="317.0" r="4" fill="#19e5a1" /><circle cx="730.0" cy="317.0" r="4" fill="#19e5a1" /><circle cx="740.0" cy="317.0" r="4" fill="#19e5a1" /><circle cx="750.0" cy="317.0" r="4" fill="#19e5a1" /><circle cx="760.0" cy="317.0" r="4" fill="#19e5a1" /><circle cx="770.0" cy="317.0" r="4" fill="#19e5a1" /><circle cx="780.0" cy="317.0" r="4" fill="#19e5a1" /><circle cx="790.0" cy="317.0" r="4" fill="#19e5a1" /><circle cx="800.0" cy="317.0" r="4" fill="#19e5a1" /><circle cx="810.0" cy="317.0" r="4" fill="#19e5a1" /><circle cx="820.0" cy="317.0" r="4" fill="#19e5a1" /><circle cx="830.0" cy="317.0" r="4" fill="#19e5a1" /><circle cx="840.0" cy="317.0" r="4" fill="#19e5a1" /><polyline points="80.0,313.2 90.0,312.2 100.0,312.1 110.0,312.4 120.0,312.4 130.0,312.4 140.0,312.1 150.0,312.0 160.0,311.9 170.0,311.9 180.0,311.8 190.0,311.8 200.0,311.5 210.0,311.5 220.0,311.5 230.0,311.2 240.0,311.2 250.0,311.1 260.0,311.1 270.0,311.1 280.0,310.9 290.0,311.0 300.0,310.8 310.0,310.8 320.0,310.8 330.0,310.8 340.0,310.4 350.0,310.2 360.0,310.4 370.0,310.4 380.0,310.4 390.0,310.4 400.0,310.4 410.0,310.2 420.0,310.2 430.0,310.1 440.0,310.1 450.0,309.8 460.0,309.6 470.0,309.6 480.0,309.6 490.0,309.6 500.0,309.5 510.0,309.4 520.0,309.4 530.0,309.4 540.0,309.4 550.0,309.2 560.0,309.2 570.0,309.2 580.0,309.4 590.0,309.4 600.0,309.5 610.0,309.2 620.0,309.2 630.0,309.4 640.0,309.2 650.0,309.2 660.0,309.2 670.0,309.2 680.0,309.2 690.0,309.1 700.0,309.1 710.0,309.1 720.0,309.1 730.0,309.0 740.0,309.0 750.0,308.9 760.0,308.9 770.0,308.9 780.0,308.6 790.0,308.6 800.0,308.6 810.0,308.6 820.0,308.6 830.0,308.6 840.0,308.6" fill="none" stroke="#6eb6ec" stroke-width="2.5" stroke-linecap="round" stroke-linejoin="round" /><circle cx="80.0" cy="313.2" r="4" fill="#6eb6ec" /><circle cx="90.0" cy="312.2" r="4" fill="#6eb6ec" /><circle cx="100.0" cy="312.1" r="4" fill="#6eb6ec" /><circle cx="110.0" cy="312.4" r="4" fill="#6eb6ec" /><circle cx="120.0" cy="312.4" r="4" fill="#6eb6ec" /><circle cx="130.0" cy="312.4" r="4" fill="#6eb6ec" /><circle cx="140.0" cy="312.1" r="4" fill="#6eb6ec" /><circle cx="150.0" cy="312.0" r="4" fill="#6eb6ec" /><circle cx="160.0" cy="311.9" r="4" fill="#6eb6ec" /><circle cx="170.0" cy="311.9" r="4" fill="#6eb6ec" /><circle cx="180.0" cy="311.8" r="4" fill="#6eb6ec" /><circle cx="190.0" cy="311.8" r="4" fill="#6eb6ec" /><circle cx="200.0" cy="311.5" r="4" fill="#6eb6ec" /><circle cx="210.0" cy="311.5" r="4" fill="#6eb6ec" /><circle cx="220.0" cy="311.5" r="4" fill="#6eb6ec" /><circle cx="230.0" cy="311.2" r="4" fill="#6eb6ec" /><circle cx="240.0" cy="311.2" r="4" fill="#6eb6ec" /><circle cx="250.0" cy="311.1" r="4" fill="#6eb6ec" /><circle cx="260.0" cy="311.1" r="4" fill="#6eb6ec" /><circle cx="270.0" cy="311.1" r="4" fill="#6eb6ec" /><circle cx="280.0" cy="310.9" r="4" fill="#6eb6ec" /><circle cx="290.0" cy="311.0" r="4" fill="#6eb6ec" /><circle cx="300.0" cy="310.8" r="4" fill="#6eb6ec" /><circle cx="310.0" cy="310.8" r="4" fill="#6eb6ec" /><circle cx="320.0" cy="310.8" r="4" fill="#6eb6ec" /><circle cx="330.0" cy="310.8" r="4" fill="#6eb6ec" /><circle cx="340.0" cy="310.4" r="4" fill="#6eb6ec" /><circle cx="350.0" cy="310.2" r="4" fill="#6eb6ec" /><circle cx="360.0" cy="310.4" r="4" fill="#6eb6ec" /><circle cx="370.0" cy="310.4" r="4" fill="#6eb6ec" /><circle cx="380.0" cy="310.4" r="4" fill="#6eb6ec" /><circle cx="390.0" cy="310.4" r="4" fill="#6eb6ec" /><circle cx="400.0" cy="310.4" r="4" fill="#6eb6ec" /><circle cx="410.0" cy="310.2" r="4" fill="#6eb6ec" /><circle cx="420.0" cy="310.2" r="4" fill="#6eb6ec" /><circle cx="430.0" cy="310.1" r="4" fill="#6eb6ec" /><circle cx="440.0" cy="310.1" r="4" fill="#6eb6ec" /><circle cx="450.0" cy="309.8" r="4" fill="#6eb6ec" /><circle cx="460.0" cy="309.6" r="4" fill="#6eb6ec" /><circle cx="470.0" cy="309.6" r="4" fill="#6eb6ec" /><circle cx="480.0" cy="309.6" r="4" fill="#6eb6ec" /><circle cx="490.0" cy="309.6" r="4" fill="#6eb6ec" /><circle cx="500.0" cy="309.5" r="4" fill="#6eb6ec" /><circle cx="510.0" cy="309.4" r="4" fill="#6eb6ec" /><circle cx="520.0" cy="309.4" r="4" fill="#6eb6ec" /><circle cx="530.0" cy="309.4" r="4" fill="#6eb6ec" /><circle cx="540.0" cy="309.4" r="4" fill="#6eb6ec" /><circle cx="550.0" cy="309.2" r="4" fill="#6eb6ec" /><circle cx="560.0" cy="309.2" r="4" fill="#6eb6ec" /><circle cx="570.0" cy="309.2" r="4" fill="#6eb6ec" /><circle cx="580.0" cy="309.4" r="4" fill="#6eb6ec" /><circle cx="590.0" cy="309.4" r="4" fill="#6eb6ec" /><circle cx="600.0" cy="309.5" r="4" fill="#6eb6ec" /><circle cx="610.0" cy="309.2" r="4" fill="#6eb6ec" /><circle cx="620.0" cy="309.2" r="4" fill="#6eb6ec" /><circle cx="630.0" cy="309.4" r="4" fill="#6eb6ec" /><circle cx="640.0" cy="309.2" r="4" fill="#6eb6ec" /><circle cx="650.0" cy="309.2" r="4" fill="#6eb6ec" /><circle cx="660.0" cy="309.2" r="4" fill="#6eb6ec" /><circle cx="670.0" cy="309.2" r="4" fill="#6eb6ec" /><circle cx="680.0" cy="309.2" r="4" fill="#6eb6ec" /><circle cx="690.0" cy="309.1" r="4" fill="#6eb6ec" /><circle cx="700.0" cy="309.1" r="4" fill="#6eb6ec" /><circle cx="710.0" cy="309.1" r="4" fill="#6eb6ec" /><circle cx="720.0" cy="309.1" r="4" fill="#6eb6ec" /><circle cx="730.0" cy="309.0" r="4" fill="#6eb6ec" /><circle cx="740.0" cy="309.0" r="4" fill="#6eb6ec" /><circle cx="750.0" cy="308.9" r="4" fill="#6eb6ec" /><circle cx="760.0" cy="308.9" r="4" fill="#6eb6ec" /><circle cx="770.0" cy="308.9" r="4" fill="#6eb6ec" /><circle cx="780.0" cy="308.6" r="4" fill="#6eb6ec" /><circle cx="790.0" cy="308.6" r="4" fill="#6eb6ec" /><circle cx="800.0" cy="308.6" r="4" fill="#6eb6ec" /><circle cx="810.0" cy="308.6" r="4" fill="#6eb6ec" /><circle cx="820.0" cy="308.6" r="4" fill="#6eb6ec" /><circle cx="830.0" cy="308.6" r="4" fill="#6eb6ec" /><circle cx="840.0" cy="308.6" r="4" fill="#6eb6ec" /><polyline points="80.0,305.8 90.0,305.8 100.0,305.8 110.0,305.8 120.0,305.8 130.0,305.8 140.0,305.8 150.0,305.8 160.0,305.8 170.0,305.8 180.0,304.9 190.0,304.9 200.0,304.9 210.0,304.9 220.0,304.9 230.0,304.9 240.0,304.9 250.0,304.9 260.0,304.9 270.0,304.9 280.0,304.9 290.0,304.9 300.0,304.9 310.0,304.9 320.0,304.9 330.0,304.9 340.0,304.9 350.0,304.9 360.0,304.9 370.0,304.9 380.0,304.9 390.0,304.9 400.0,304.9 410.0,304.9 420.0,304.9 430.0,304.9 440.0,304.9 450.0,303.6 460.0,303.6 470.0,303.6 480.0,303.6 490.0,303.6 500.0,303.6 510.0,303.6 520.0,303.6 530.0,303.6 540.0,303.6 550.0,303.6 560.0,303.6 570.0,303.6 580.0,303.6 590.0,302.9 600.0,302.9 610.0,298.0 620.0,298.0 630.0,298.0 640.0,298.0 650.0,298.0 660.0,298.0 670.0,298.0 680.0,298.0 690.0,298.0 700.0,298.0 710.0,298.0 720.0,298.0 730.0,298.0 740.0,298.0 750.0,297.8 760.0,297.8 770.0,297.8 780.0,297.8 790.0,297.8 800.0,297.8 810.0,297.8 820.0,297.8 830.0,297.8 840.0,297.8" fill="none" stroke="#5938e2" stroke-width="2.5" stroke-linecap="round" stroke-linejoin="round" /><circle cx="80.0" cy="305.8" r="4" fill="#5938e2" /><circle cx="90.0" cy="305.8" r="4" fill="#5938e2" /><circle cx="100.0" cy="305.8" r="4" fill="#5938e2" /><circle cx="110.0" cy="305.8" r="4" fill="#5938e2" /><circle cx="120.0" cy="305.8" r="4" fill="#5938e2" /><circle cx="130.0" cy="305.8" r="4" fill="#5938e2" /><circle cx="140.0" cy="305.8" r="4" fill="#5938e2" /><circle cx="150.0" cy="305.8" r="4" fill="#5938e2" /><circle cx="160.0" cy="305.8" r="4" fill="#5938e2" /><circle cx="170.0" cy="305.8" r="4" fill="#5938e2" /><circle cx="180.0" cy="304.9" r="4" fill="#5938e2" /><circle cx="190.0" cy="304.9" r="4" fill="#5938e2" /><circle cx="200.0" cy="304.9" r="4" fill="#5938e2" /><circle cx="210.0" cy="304.9" r="4" fill="#5938e2" /><circle cx="220.0" cy="304.9" r="4" fill="#5938e2" /><circle cx="230.0" cy="304.9" r="4" fill="#5938e2" /><circle cx="240.0" cy="304.9" r="4" fill="#5938e2" /><circle cx="250.0" cy="304.9" r="4" fill="#5938e2" /><circle cx="260.0" cy="304.9" r="4" fill="#5938e2" /><circle cx="270.0" cy="304.9" r="4" fill="#5938e2" /><circle cx="280.0" cy="304.9" r="4" fill="#5938e2" /><circle cx="290.0" cy="304.9" r="4" fill="#5938e2" /><circle cx="300.0" cy="304.9" r="4" fill="#5938e2" /><circle cx="310.0" cy="304.9" r="4" fill="#5938e2" /><circle cx="320.0" cy="304.9" r="4" fill="#5938e2" /><circle cx="330.0" cy="304.9" r="4" fill="#5938e2" /><circle cx="340.0" cy="304.9" r="4" fill="#5938e2" /><circle cx="350.0" cy="304.9" r="4" fill="#5938e2" /><circle cx="360.0" cy="304.9" r="4" fill="#5938e2" /><circle cx="370.0" cy="304.9" r="4" fill="#5938e2" /><circle cx="380.0" cy="304.9" r="4" fill="#5938e2" /><circle cx="390.0" cy="304.9" r="4" fill="#5938e2" /><circle cx="400.0" cy="304.9" r="4" fill="#5938e2" /><circle cx="410.0" cy="304.9" r="4" fill="#5938e2" /><circle cx="420.0" cy="304.9" r="4" fill="#5938e2" /><circle cx="430.0" cy="304.9" r="4" fill="#5938e2" /><circle cx="440.0" cy="304.9" r="4" fill="#5938e2" /><circle cx="450.0" cy="303.6" r="4" fill="#5938e2" /><circle cx="460.0" cy="303.6" r="4" fill="#5938e2" /><circle cx="470.0" cy="303.6" r="4" fill="#5938e2" /><circle cx="480.0" cy="303.6" r="4" fill="#5938e2" /><circle cx="490.0" cy="303.6" r="4" fill="#5938e2" /><circle cx="500.0" cy="303.6" r="4" fill="#5938e2" /><circle cx="510.0" cy="303.6" r="4" fill="#5938e2" /><circle cx="520.0" cy="303.6" r="4" fill="#5938e2" /><circle cx="530.0" cy="303.6" r="4" fill="#5938e2" /><circle cx="540.0" cy="303.6" r="4" fill="#5938e2" /><circle cx="550.0" cy="303.6" r="4" fill="#5938e2" /><circle cx="560.0" cy="303.6" r="4" fill="#5938e2" /><circle cx="570.0" cy="303.6" r="4" fill="#5938e2" /><circle cx="580.0" cy="303.6" r="4" fill="#5938e2" /><circle cx="590.0" cy="302.9" r="4" fill="#5938e2" /><circle cx="600.0" cy="302.9" r="4" fill="#5938e2" /><circle cx="610.0" cy="298.0" r="4" fill="#5938e2" /><circle cx="620.0" cy="298.0" r="4" fill="#5938e2" /><circle cx="630.0" cy="298.0" r="4" fill="#5938e2" /><circle cx="640.0" cy="298.0" r="4" fill="#5938e2" /><circle cx="650.0" cy="298.0" r="4" fill="#5938e2" /><circle cx="660.0" cy="298.0" r="4" fill="#5938e2" /><circle cx="670.0" cy="298.0" r="4" fill="#5938e2" /><circle cx="680.0" cy="298.0" r="4" fill="#5938e2" /><circle cx="690.0" cy="298.0" r="4" fill="#5938e2" /><circle cx="700.0" cy="298.0" r="4" fill="#5938e2" /><circle cx="710.0" cy="298.0" r="4" fill="#5938e2" /><circle cx="720.0" cy="298.0" r="4" fill="#5938e2" /><circle cx="730.0" cy="298.0" r="4" fill="#5938e2" /><circle cx="740.0" cy="298.0" r="4" fill="#5938e2" /><circle cx="750.0" cy="297.8" r="4" fill="#5938e2" /><circle cx="760.0" cy="297.8" r="4" fill="#5938e2" /><circle cx="770.0" cy="297.8" r="4" fill="#5938e2" /><circle cx="780.0" cy="297.8" r="4" fill="#5938e2" /><circle cx="790.0" cy="297.8" r="4" fill="#5938e2" /><circle cx="800.0" cy="297.8" r="4" fill="#5938e2" /><circle cx="810.0" cy="297.8" r="4" fill="#5938e2" /><circle cx="820.0" cy="297.8" r="4" fill="#5938e2" /><circle cx="830.0" cy="297.8" r="4" fill="#5938e2" /><circle cx="840.0" cy="297.8" r="4" fill="#5938e2" /><polyline points="80.0,144.6 90.0,140.1 100.0,139.9 110.0,139.8 120.0,139.8 130.0,139.6 140.0,139.6 150.0,139.6 160.0,139.6 170.0,139.6 180.0,138.4 190.0,138.4 200.0,138.4 210.0,138.4 220.0,138.4 230.0,138.4 240.0,138.4 250.0,137.4 260.0,137.4 270.0,137.4 280.0,137.4 290.0,137.4 300.0,137.4 310.0,137.4 320.0,137.4 330.0,137.4 340.0,137.4 350.0,137.4 360.0,131.2 370.0,131.2 380.0,130.8 390.0,130.4 400.0,126.9 410.0,126.9 420.0,126.9 430.0,126.9 440.0,126.9 450.0,126.9 460.0,126.9 470.0,126.9 480.0,126.9 490.0,126.8 500.0,122.1 510.0,120.4 520.0,120.4 530.0,120.4 540.0,120.4 550.0,120.4 560.0,119.4 570.0,119.4 580.0,119.4 590.0,119.4 600.0,119.1 610.0,118.8 620.0,118.8 630.0,117.8 640.0,117.8 650.0,117.8 660.0,115.8 670.0,115.8 680.0,115.0 690.0,115.0 700.0,115.0 710.0,115.0 720.0,115.0 730.0,115.0 740.0,115.0 750.0,113.9 760.0,111.8 770.0,111.8 780.0,111.8 790.0,111.8 800.0,111.8 810.0,111.8 820.0,111.8 830.0,111.8 840.0,111.8" fill="none" stroke="#60e5e0" stroke-width="2.5" stroke-linecap="round" stroke-linejoin="round" /><circle cx="80.0" cy="144.6" r="4" fill="#60e5e0" /><circle cx="90.0" cy="140.1" r="4" fill="#60e5e0" /><circle cx="100.0" cy="139.9" r="4" fill="#60e5e0" /><circle cx="110.0" cy="139.8" r="4" fill="#60e5e0" /><circle cx="120.0" cy="139.8" r="4" fill="#60e5e0" /><circle cx="130.0" cy="139.6" r="4" fill="#60e5e0" /><circle cx="140.0" cy="139.6" r="4" fill="#60e5e0" /><circle cx="150.0" cy="139.6" r="4" fill="#60e5e0" /><circle cx="160.0" cy="139.6" r="4" fill="#60e5e0" /><circle cx="170.0" cy="139.6" r="4" fill="#60e5e0" /><circle cx="180.0" cy="138.4" r="4" fill="#60e5e0" /><circle cx="190.0" cy="138.4" r="4" fill="#60e5e0" /><circle cx="200.0" cy="138.4" r="4" fill="#60e5e0" /><circle cx="210.0" cy="138.4" r="4" fill="#60e5e0" /><circle cx="220.0" cy="138.4" r="4" fill="#60e5e0" /><circle cx="230.0" cy="138.4" r="4" fill="#60e5e0" /><circle cx="240.0" cy="138.4" r="4" fill="#60e5e0" /><circle cx="250.0" cy="137.4" r="4" fill="#60e5e0" /><circle cx="260.0" cy="137.4" r="4" fill="#60e5e0" /><circle cx="270.0" cy="137.4" r="4" fill="#60e5e0" /><circle cx="280.0" cy="137.4" r="4" fill="#60e5e0" /><circle cx="290.0" cy="137.4" r="4" fill="#60e5e0" /><circle cx="300.0" cy="137.4" r="4" fill="#60e5e0" /><circle cx="310.0" cy="137.4" r="4" fill="#60e5e0" /><circle cx="320.0" cy="137.4" r="4" fill="#60e5e0" /><circle cx="330.0" cy="137.4" r="4" fill="#60e5e0" /><circle cx="340.0" cy="137.4" r="4" fill="#60e5e0" /><circle cx="350.0" cy="137.4" r="4" fill="#60e5e0" /><circle cx="360.0" cy="131.2" r="4" fill="#60e5e0" /><circle cx="370.0" cy="131.2" r="4" fill="#60e5e0" /><circle cx="380.0" cy="130.8" r="4" fill="#60e5e0" /><circle cx="390.0" cy="130.4" r="4" fill="#60e5e0" /><circle cx="400.0" cy="126.9" r="4" fill="#60e5e0" /><circle cx="410.0" cy="126.9" r="4" fill="#60e5e0" /><circle cx="420.0" cy="126.9" r="4" fill="#60e5e0" /><circle cx="430.0" cy="126.9" r="4" fill="#60e5e0" /><circle cx="440.0" cy="126.9" r="4" fill="#60e5e0" /><circle cx="450.0" cy="126.9" r="4" fill="#60e5e0" /><circle cx="460.0" cy="126.9" r="4" fill="#60e5e0" /><circle cx="470.0" cy="126.9" r="4" fill="#60e5e0" /><circle cx="480.0" cy="126.9" r="4" fill="#60e5e0" /><circle cx="490.0" cy="126.8" r="4" fill="#60e5e0" /><circle cx="500.0" cy="122.1" r="4" fill="#60e5e0" /><circle cx="510.0" cy="120.4" r="4" fill="#60e5e0" /><circle cx="520.0" cy="120.4" r="4" fill="#60e5e0" /><circle cx="530.0" cy="120.4" r="4" fill="#60e5e0" /><circle cx="540.0" cy="120.4" r="4" fill="#60e5e0" /><circle cx="550.0" cy="120.4" r="4" fill="#60e5e0" /><circle cx="560.0" cy="119.4" r="4" fill="#60e5e0" /><circle cx="570.0" cy="119.4" r="4" fill="#60e5e0" /><circle cx="580.0" cy="119.4" r="4" fill="#60e5e0" /><circle cx="590.0" cy="119.4" r="4" fill="#60e5e0" /><circle cx="600.0" cy="119.1" r="4" fill="#60e5e0" /><circle cx="610.0" cy="118.8" r="4" fill="#60e5e0" /><circle cx="620.0" cy="118.8" r="4" fill="#60e5e0" /><circle cx="630.0" cy="117.8" r="4" fill="#60e5e0" /><circle cx="640.0" cy="117.8" r="4" fill="#60e5e0" /><circle cx="650.0" cy="117.8" r="4" fill="#60e5e0" /><circle cx="660.0" cy="115.8" r="4" fill="#60e5e0" /><circle cx="670.0" cy="115.8" r="4" fill="#60e5e0" /><circle cx="680.0" cy="115.0" r="4" fill="#60e5e0" /><circle cx="690.0" cy="115.0" r="4" fill="#60e5e0" /><circle cx="700.0" cy="115.0" r="4" fill="#60e5e0" /><circle cx="710.0" cy="115.0" r="4" fill="#60e5e0" /><circle cx="720.0" cy="115.0" r="4" fill="#60e5e0" /><circle cx="730.0" cy="115.0" r="4" fill="#60e5e0" /><circle cx="740.0" cy="115.0" r="4" fill="#60e5e0" /><circle cx="750.0" cy="113.9" r="4" fill="#60e5e0" /><circle cx="760.0" cy="111.8" r="4" fill="#60e5e0" /><circle cx="770.0" cy="111.8" r="4" fill="#60e5e0" /><circle cx="780.0" cy="111.8" r="4" fill="#60e5e0" /><circle cx="790.0" cy="111.8" r="4" fill="#60e5e0" /><circle cx="800.0" cy="111.8" r="4" fill="#60e5e0" /><circle cx="810.0" cy="111.8" r="4" fill="#60e5e0" /><circle cx="820.0" cy="111.8" r="4" fill="#60e5e0" /><circle cx="830.0" cy="111.8" r="4" fill="#60e5e0" /><circle cx="840.0" cy="111.8" r="4" fill="#60e5e0" /><polyline points="80.0,314.6 90.0,314.4 100.0,314.2 110.0,314.2 120.0,314.2 130.0,314.1 140.0,314.1 150.0,314.1 160.0,314.1 170.0,314.1 180.0,314.0 190.0,314.0 200.0,314.0 210.0,314.0 220.0,314.0 230.0,314.0 240.0,314.0 250.0,314.0 260.0,314.0 270.0,314.0 280.0,314.0 290.0,314.0 300.0,314.0 310.0,314.0 320.0,314.0 330.0,314.0 340.0,314.0 350.0,314.0 360.0,314.0 370.0,314.0 380.0,314.0 390.0,314.0 400.0,314.0 410.0,314.0 420.0,314.0 430.0,314.0 440.0,314.0 450.0,314.0 460.0,314.0 470.0,314.0 480.0,314.0 490.0,313.9 500.0,313.6 510.0,313.4 520.0,313.4 530.0,313.4 540.0,313.4 550.0,313.4 560.0,313.1 570.0,313.1 580.0,313.1 590.0,313.1 600.0,313.1 610.0,313.0 620.0,313.0 630.0,312.9 640.0,312.9 650.0,312.9 660.0,312.8 670.0,312.8 680.0,312.6 690.0,312.6 700.0,312.6 710.0,312.6 720.0,312.6 730.0,312.6 740.0,312.6 750.0,312.5 760.0,312.1 770.0,312.1 780.0,312.1 790.0,312.1 800.0,312.1 810.0,312.1 820.0,312.1 830.0,312.1 840.0,312.1" fill="none" stroke="#567de1" stroke-width="2.5" stroke-linecap="round" stroke-linejoin="round" /><circle cx="80.0" cy="314.6" r="4" fill="#567de1" /><circle cx="90.0" cy="314.4" r="4" fill="#567de1" /><circle cx="100.0" cy="314.2" r="4" fill="#567de1" /><circle cx="110.0" cy="314.2" r="4" fill="#567de1" /><circle cx="120.0" cy="314.2" r="4" fill="#567de1" /><circle cx="130.0" cy="314.1" r="4" fill="#567de1" /><circle cx="140.0" cy="314.1" r="4" fill="#567de1" /><circle cx="150.0" cy="314.1" r="4" fill="#567de1" /><circle cx="160.0" cy="314.1" r="4" fill="#567de1" /><circle cx="170.0" cy="314.1" r="4" fill="#567de1" /><circle cx="180.0" cy="314.0" r="4" fill="#567de1" /><circle cx="190.0" cy="314.0" r="4" fill="#567de1" /><circle cx="200.0" cy="314.0" r="4" fill="#567de1" /><circle cx="210.0" cy="314.0" r="4" fill="#567de1" /><circle cx="220.0" cy="314.0" r="4" fill="#567de1" /><circle cx="230.0" cy="314.0" r="4" fill="#567de1" /><circle cx="240.0" cy="314.0" r="4" fill="#567de1" /><circle cx="250.0" cy="314.0" r="4" fill="#567de1" /><circle cx="260.0" cy="314.0" r="4" fill="#567de1" /><circle cx="270.0" cy="314.0" r="4" fill="#567de1" /><circle cx="280.0" cy="314.0" r="4" fill="#567de1" /><circle cx="290.0" cy="314.0" r="4" fill="#567de1" /><circle cx="300.0" cy="314.0" r="4" fill="#567de1" /><circle cx="310.0" cy="314.0" r="4" fill="#567de1" /><circle cx="320.0" cy="314.0" r="4" fill="#567de1" /><circle cx="330.0" cy="314.0" r="4" fill="#567de1" /><circle cx="340.0" cy="314.0" r="4" fill="#567de1" /><circle cx="350.0" cy="314.0" r="4" fill="#567de1" /><circle cx="360.0" cy="314.0" r="4" fill="#567de1" /><circle cx="370.0" cy="314.0" r="4" fill="#567de1" /><circle cx="380.0" cy="314.0" r="4" fill="#567de1" /><circle cx="390.0" cy="314.0" r="4" fill="#567de1" /><circle cx="400.0" cy="314.0" r="4" fill="#567de1" /><circle cx="410.0" cy="314.0" r="4" fill="#567de1" /><circle cx="420.0" cy="314.0" r="4" fill="#567de1" /><circle cx="430.0" cy="314.0" r="4" fill="#567de1" /><circle cx="440.0" cy="314.0" r="4" fill="#567de1" /><circle cx="450.0" cy="314.0" r="4" fill="#567de1" /><circle cx="460.0" cy="314.0" r="4" fill="#567de1" /><circle cx="470.0" cy="314.0" r="4" fill="#567de1" /><circle cx="480.0" cy="314.0" r="4" fill="#567de1" /><circle cx="490.0" cy="313.9" r="4" fill="#567de1" /><circle cx="500.0" cy="313.6" r="4" fill="#567de1" /><circle cx="510.0" cy="313.4" r="4" fill="#567de1" /><circle cx="520.0" cy="313.4" r="4" fill="#567de1" /><circle cx="530.0" cy="313.4" r="4" fill="#567de1" /><circle cx="540.0" cy="313.4" r="4" fill="#567de1" /><circle cx="550.0" cy="313.4" r="4" fill="#567de1" /><circle cx="560.0" cy="313.1" r="4" fill="#567de1" /><circle cx="570.0" cy="313.1" r="4" fill="#567de1" /><circle cx="580.0" cy="313.1" r="4" fill="#567de1" /><circle cx="590.0" cy="313.1" r="4" fill="#567de1" /><circle cx="600.0" cy="313.1" r="4" fill="#567de1" /><circle cx="610.0" cy="313.0" r="4" fill="#567de1" /><circle cx="620.0" cy="313.0" r="4" fill="#567de1" /><circle cx="630.0" cy="312.9" r="4" fill="#567de1" /><circle cx="640.0" cy="312.9" r="4" fill="#567de1" /><circle cx="650.0" cy="312.9" r="4" fill="#567de1" /><circle cx="660.0" cy="312.8" r="4" fill="#567de1" /><circle cx="670.0" cy="312.8" r="4" fill="#567de1" /><circle cx="680.0" cy="312.6" r="4" fill="#567de1" /><circle cx="690.0" cy="312.6" r="4" fill="#567de1" /><circle cx="700.0" cy="312.6" r="4" fill="#567de1" /><circle cx="710.0" cy="312.6" r="4" fill="#567de1" /><circle cx="720.0" cy="312.6" r="4" fill="#567de1" /><circle cx="730.0" cy="312.6" r="4" fill="#567de1" /><circle cx="740.0" cy="312.6" r="4" fill="#567de1" /><circle cx="750.0" cy="312.5" r="4" fill="#567de1" /><circle cx="760.0" cy="312.1" r="4" fill="#567de1" /><circle cx="770.0" cy="312.1" r="4" fill="#567de1" /><circle cx="780.0" cy="312.1" r="4" fill="#567de1" /><circle cx="790.0" cy="312.1" r="4" fill="#567de1" /><circle cx="800.0" cy="312.1" r="4" fill="#567de1" /><circle cx="810.0" cy="312.1" r="4" fill="#567de1" /><circle cx="820.0" cy="312.1" r="4" fill="#567de1" /><circle cx="830.0" cy="312.1" r="4" fill="#567de1" /><circle cx="840.0" cy="312.1" r="4" fill="#567de1" /><polyline points="80.0,303.9 90.0,304.2 100.0,304.4 110.0,304.4 120.0,304.4 130.0,304.4 140.0,304.4 150.0,304.4 160.0,304.4 170.0,304.4 180.0,304.4 190.0,304.4 200.0,304.4 210.0,304.4 220.0,304.4 230.0,304.4 240.0,304.4 250.0,304.4 260.0,304.4 270.0,304.4 280.0,304.4 290.0,304.4 300.0,304.4 310.0,304.4 320.0,304.4 330.0,304.4 340.0,304.4 350.0,304.4 360.0,299.1 370.0,299.1 380.0,299.1 390.0,298.9 400.0,295.6 410.0,295.6 420.0,295.6 430.0,295.6 440.0,295.6 450.0,295.6 460.0,295.6 470.0,295.6 480.0,295.6 490.0,295.8 500.0,295.9 510.0,295.9 520.0,295.9 530.0,295.9 540.0,295.9 550.0,295.9 560.0,295.9 570.0,295.9 580.0,295.9 590.0,295.9 600.0,295.9 610.0,295.9 620.0,295.9 630.0,295.9 640.0,295.9 650.0,295.9 660.0,295.8 670.0,295.8 680.0,295.9 690.0,295.9 700.0,295.9 710.0,295.9 720.0,295.9 730.0,295.9 740.0,295.9 750.0,296.0 760.0,296.4 770.0,296.4 780.0,296.4 790.0,296.4 800.0,296.4 810.0,296.4 820.0,296.4 830.0,296.4 840.0,296.4" fill="none" stroke="#9754dd" stroke-width="2.5" stroke-linecap="round" stroke-linejoin="round" /><circle cx="80.0" cy="303.9" r="4" fill="#9754dd" /><circle cx="90.0" cy="304.2" r="4" fill="#9754dd" /><circle cx="100.0" cy="304.4" r="4" fill="#9754dd" /><circle cx="110.0" cy="304.4" r="4" fill="#9754dd" /><circle cx="120.0" cy="304.4" r="4" fill="#9754dd" /><circle cx="130.0" cy="304.4" r="4" fill="#9754dd" /><circle cx="140.0" cy="304.4" r="4" fill="#9754dd" /><circle cx="150.0" cy="304.4" r="4" fill="#9754dd" /><circle cx="160.0" cy="304.4" r="4" fill="#9754dd" /><circle cx="170.0" cy="304.4" r="4" fill="#9754dd" /><circle cx="180.0" cy="304.4" r="4" fill="#9754dd" /><circle cx="190.0" cy="304.4" r="4" fill="#9754dd" /><circle cx="200.0" cy="304.4" r="4" fill="#9754dd" /><circle cx="210.0" cy="304.4" r="4" fill="#9754dd" /><circle cx="220.0" cy="304.4" r="4" fill="#9754dd" /><circle cx="230.0" cy="304.4" r="4" fill="#9754dd" /><circle cx="240.0" cy="304.4" r="4" fill="#9754dd" /><circle cx="250.0" cy="304.4" r="4" fill="#9754dd" /><circle cx="260.0" cy="304.4" r="4" fill="#9754dd" /><circle cx="270.0" cy="304.4" r="4" fill="#9754dd" /><circle cx="280.0" cy="304.4" r="4" fill="#9754dd" /><circle cx="290.0" cy="304.4" r="4" fill="#9754dd" /><circle cx="300.0" cy="304.4" r="4" fill="#9754dd" /><circle cx="310.0" cy="304.4" r="4" fill="#9754dd" /><circle cx="320.0" cy="304.4" r="4" fill="#9754dd" /><circle cx="330.0" cy="304.4" r="4" fill="#9754dd" /><circle cx="340.0" cy="304.4" r="4" fill="#9754dd" /><circle cx="350.0" cy="304.4" r="4" fill="#9754dd" /><circle cx="360.0" cy="299.1" r="4" fill="#9754dd" /><circle cx="370.0" cy="299.1" r="4" fill="#9754dd" /><circle cx="380.0" cy="299.1" r="4" fill="#9754dd" /><circle cx="390.0" cy="298.9" r="4" fill="#9754dd" /><circle cx="400.0" cy="295.6" r="4" fill="#9754dd" /><circle cx="410.0" cy="295.6" r="4" fill="#9754dd" /><circle cx="420.0" cy="295.6" r="4" fill="#9754dd" /><circle cx="430.0" cy="295.6" r="4" fill="#9754dd" /><circle cx="440.0" cy="295.6" r="4" fill="#9754dd" /><circle cx="450.0" cy="295.6" r="4" fill="#9754dd" /><circle cx="460.0" cy="295.6" r="4" fill="#9754dd" /><circle cx="470.0" cy="295.6" r="4" fill="#9754dd" /><circle cx="480.0" cy="295.6" r="4" fill="#9754dd" /><circle cx="490.0" cy="295.8" r="4" fill="#9754dd" /><circle cx="500.0" cy="295.9" r="4" fill="#9754dd" /><circle cx="510.0" cy="295.9" r="4" fill="#9754dd" /><circle cx="520.0" cy="295.9" r="4" fill="#9754dd" /><circle cx="530.0" cy="295.9" r="4" fill="#9754dd" /><circle cx="540.0" cy="295.9" r="4" fill="#9754dd" /><circle cx="550.0" cy="295.9" r="4" fill="#9754dd" /><circle cx="560.0" cy="295.9" r="4" fill="#9754dd" /><circle cx="570.0" cy="295.9" r="4" fill="#9754dd" /><circle cx="580.0" cy="295.9" r="4" fill="#9754dd" /><circle cx="590.0" cy="295.9" r="4" fill="#9754dd" /><circle cx="600.0" cy="295.9" r="4" fill="#9754dd" /><circle cx="610.0" cy="295.9" r="4" fill="#9754dd" /><circle cx="620.0" cy="295.9" r="4" fill="#9754dd" /><circle cx="630.0" cy="295.9" r="4" fill="#9754dd" /><circle cx="640.0" cy="295.9" r="4" fill="#9754dd" /><circle cx="650.0" cy="295.9" r="4" fill="#9754dd" /><circle cx="660.0" cy="295.8" r="4" fill="#9754dd" /><circle cx="670.0" cy="295.8" r="4" fill="#9754dd" /><circle cx="680.0" cy="295.9" r="4" fill="#9754dd" /><circle cx="690.0" cy="295.9" r="4" fill="#9754dd" /><circle cx="700.0" cy="295.9" r="4" fill="#9754dd" /><circle cx="710.0" cy="295.9" r="4" fill="#9754dd" /><circle cx="720.0" cy="295.9" r="4" fill="#9754dd" /><circle cx="730.0" cy="295.9" r="4" fill="#9754dd" /><circle cx="740.0" cy="295.9" r="4" fill="#9754dd" /><circle cx="750.0" cy="296.0" r="4" fill="#9754dd" /><circle cx="760.0" cy="296.4" r="4" fill="#9754dd" /><circle cx="770.0" cy="296.4" r="4" fill="#9754dd" /><circle cx="780.0" cy="296.4" r="4" fill="#9754dd" /><circle cx="790.0" cy="296.4" r="4" fill="#9754dd" /><circle cx="800.0" cy="296.4" r="4" fill="#9754dd" /><circle cx="810.0" cy="296.4" r="4" fill="#9754dd" /><circle cx="820.0" cy="296.4" r="4" fill="#9754dd" /><circle cx="830.0" cy="296.4" r="4" fill="#9754dd" /><circle cx="840.0" cy="296.4" r="4" fill="#9754dd" />
  <rect x="80" y="339" width="10" height="10" rx="2" ry="2" fill="#19e5a1" /><text x="96" y="348" class="legend-label">Stars</text><rect x="250" y="339" width="10" height="10" rx="2" ry="2" fill="#6eb6ec" /><text x="266" y="348" class="legend-label">Followers</text><rect x="420" y="339" width="10" height="10" rx="2" ry="2" fill="#5938e2" /><text x="436" y="348" class="legend-label">Following</text><rect x="590" y="339" width="10" height="10" rx="2" ry="2" fill="#60e5e0" /><text x="606" y="348" class="legend-label">Contributions</text><rect x="80" y="357" width="10" height="10" rx="2" ry="2" fill="#567de1" /><text x="96" y="366" class="legend-label">Pull Requests</text><rect x="250" y="357" width="10" height="10" rx="2" ry="2" fill="#9754dd" /><text x="266" y="366" class="legend-label">Issues</text>
</svg>
