<svg width="900" height="402" viewBox="0 0 900 402" xmlns="http://www.w3.org/2000/svg">
  <defs>
    <linearGradient id="history-gradient" x1="0%" y1="0%" x2="100%" y2="100%">
      <stop offset="0%" style="stop-color:#58a6ff;stop-opacity:1" />
      <stop offset="100%" style="stop-color:#a371f7;stop-opacity:1" />
    </linearGradient>
    <clipPath id="history-rounded">
      <rect x="0" y="0" width="900" height="402" rx="8" ry="8" />
    </clipPath>
  </defs>
  <style>
    .title {
      font-family: 'Segoe UI', Ubuntu, 'Helvetica Neue', sans-serif;
      font-size: 22px;
      font-weight: 700;
      fill: #58a6ff;
    }
    .subtitle {
      font-family: 'Segoe UI', Ubuntu, 'Helvetica Neue', sans-serif;
      font-size: 12px;
      font-weight: 500;
      fill: #8b949e;
    }
    .axis-label {
      font-family: 'Segoe UI', Ubuntu, 'Helvetica Neue', sans-serif;
      font-size: 10px;
      fill: #8b949e;
    }
    .grid-line {
      stroke: #30363d;
      stroke-width: 1;
      opacity: 0.3;
    }
    .legend-label {
      font-family: 'Segoe UI', Ubuntu, 'Helvetica Neue', sans-serif;
      font-size: 11px;
      fill: #c9d1d9;
      dominant-baseline: middle;
    }
  </style>
  <rect clip-path="url(#history-rounded)" width="100%" height="100%" fill="#0d1117" stroke="#30363d" stroke-width="1" />
  <rect x="0" y="396" width="900" height="6" fill="url(#history-gradient)" clip-path="url(#history-rounded)" />
  <text x="24" y="34" class="title">Leonardo Klein Stats History</text>
  <text x="24" y="54" class="subtitle">Period: 2026-02-20 to 2026-03-05</text>
  <text x="72" y="320.0" text-anchor="end" dominant-baseline="central" class="axis-label">0</text><text x="72" y="270.0" text-anchor="end" dominant-baseline="central" class="axis-label">400</text><text x="72" y="220.0" text-anchor="end" dominant-baseline="central" class="axis-label">800</text><text x="72" y="170.0" text-anchor="end" dominant-baseline="central" class="axis-label">1.2k</text><text x="72" y="120.0" text-anchor="end" dominant-baseline="central" class="axis-label">1.6k</text><text x="72" y="70.0" text-anchor="end" dominant-baseline="central" class="axis-label">2.0k</text>
  <text x="80.0" y="336" text-anchor="middle" class="axis-label">02-20</text><text x="149.1" y="336" text-anchor="middle" class="axis-label">02-21</text><text x="218.2" y="336" text-anchor="middle" class="axis-label">02-22</text><text x="287.3" y="336" text-anchor="middle" class="axis-label">02-24</text><text x="356.4" y="336" text-anchor="middle" class="axis-label">02-25</text><text x="425.5" y="336" text-anchor="middle" class="axis-label">02-26</text><text x="494.5" y="336" text-anchor="middle" class="axis-label">02-27</text><text x="563.6" y="336" text-anchor="middle" class="axis-label">02-28</text><text x="632.7" y="336" text-anchor="middle" class="axis-label">03-02</text><text x="701.8" y="336" text-anchor="middle" class="axis-label">03-03</text><text x="770.9" y="336" text-anchor="middle" class="axis-label">03-04</text><text x="840.0" y="336" text-anchor="middle" class="axis-label">03-05</text>
  <line x1="80" y1="320.0" x2="840" y2="320.0" class="grid-line" /><line x1="80" y1="270.0" x2="840" y2="270.0" class="grid-line" /><line x1="80" y1="220.0" x2="840" y2="220.0" class="grid-line" /><line x1="80" y1="170.0" x2="840" y2="170.0" class="grid-line" /><line x1="80" y1="120.0" x2="840" y2="120.0" class="grid-line" /><line x1="80" y1="70.0" x2="840" y2="70.0" class="grid-line" />
  <polyline points="80.0,317.0 91.5,317.0 103.0,317.0 114.5,317.0 126.1,317.0 137.6,317.0 149.1,317.0 160.6,317.0 172.1,317.0 183.6,317.0 195.2,317.0 206.7,317.0 218.2,317.0 229.7,317.0 241.2,317.0 252.7,317.0 264.2,317.0 275.8,317.0 287.3,317.0 298.8,317.0 310.3,317.0 321.8,317.0 333.3,317.0 344.8,317.0 356.4,317.0 367.9,317.0 379.4,317.0 390.9,317.0 402.4,317.0 413.9,317.0 425.5,317.0 437.0,317.0 448.5,317.0 460.0,317.0 471.5,317.0 483.0,317.0 494.5,317.0 506.1,317.0 517.6,317.0 529.1,317.0 540.6,317.0 552.1,317.0 563.6,317.0 575.2,317.0 586.7,317.0 598.2,317.0 609.7,317.0 621.2,317.0 632.7,317.0 644.2,317.0 655.8,317.0 667.3,317.0 678.8,317.0 690.3,317.0 701.8,317.0 713.3,317.0 724.8,317.0 736.4,317.0 747.9,317.0 759.4,317.0 770.9,317.0 782.4,317.0 793.9,317.0 805.5,317.0 817.0,317.0 828.5,317.0 840.0,317.0" fill="none" stroke="#19e5a1" stroke-width="2.5" stroke-linecap="round" stroke-linejoin="round" /><circle cx="80.0" cy="317.0" r="4" fill="#19e5a1" /><circle cx="91.5" cy="317.0" r="4" fill="#19e5a1" /><circle cx="103.0" cy="317.0" r="4" fill="#19e5a1" /><circle cx="114.5" cy="317.0" r="4" fill="#19e5a1" /><circle cx="126.1" cy="317.0" r="4" fill="#19e5a1" /><circle cx="137.6" cy="317.0" r="4" fill="#19e5a1" /><circle cx="149.1" cy="317.0" r="4" fill="#19e5a1" /><circle cx="160.6" cy="317.0" r="4" fill="#19e5a1" /><circle cx="172.1" cy="317.0" r="4" fill="#19e5a1" /><circle cx="183.6" cy="317.0" r="4" fill="#19e5a1" /><circle cx="195.2" cy="317.0" r="4" fill="#19e5a1" /><circle cx="206.7" cy="317.0" r="4" fill="#19e5a1" /><circle cx="218.2" cy="317.0" r="4" fill="#19e5a1" /><circle cx="229.7" cy="317.0" r="4" fill="#19e5a1" /><circle cx="241.2" cy="317.0" r="4" fill="#19e5a1" /><circle cx="252.7" cy="317.0" r="4" fill="#19e5a1" /><circle cx="264.2" cy="317.0" r="4" fill="#19e5a1" /><circle cx="275.8" cy="317.0" r="4" fill="#19e5a1" /><circle cx="287.3" cy="317.0" r="4" fill="#19e5a1" /><circle cx="298.8" cy="317.0" r="4" fill="#19e5a1" /><circle cx="310.3" cy="317.0" r="4" fill="#19e5a1" /><circle cx="321.8" cy="317.0" r="4" fill="#19e5a1" /><circle cx="333.3" cy="317.0" r="4" fill="#19e5a1" /><circle cx="344.8" cy="317.0" r="4" fill="#19e5a1" /><circle cx="356.4" cy="317.0" r="4" fill="#19e5a1" /><circle cx="367.9" cy="317.0" r="4" fill="#19e5a1" /><circle cx="379.4" cy="317.0" r="4" fill="#19e5a1" /><circle cx="390.9" cy="317.0" r="4" fill="#19e5a1" /><circle cx="402.4" cy="317.0" r="4" fill="#19e5a1" /><circle cx="413.9" cy="317.0" r="4" fill="#19e5a1" /><circle cx="425.5" cy="317.0" r="4" fill="#19e5a1" /><circle cx="437.0" cy="317.0" r="4" fill="#19e5a1" /><circle cx="448.5" cy="317.0" r="4" fill="#19e5a1" /><circle cx="460.0" cy="317.0" r="4" fill="#19e5a1" /><circle cx="471.5" cy="317.0" r="4" fill="#19e5a1" /><circle cx="483.0" cy="317.0" r="4" fill="#19e5a1" /><circle cx="494.5" cy="317.0" r="4" fill="#19e5a1" /><circle cx="506.1" cy="317.0" r="4" fill="#19e5a1" /><circle cx="517.6" cy="317.0" r="4" fill="#19e5a1" /><circle cx="529.1" cy="317.0" r="4" fill="#19e5a1" /><circle cx="540.6" cy="317.0" r="4" fill="#19e5a1" /><circle cx="552.1" cy="317.0" r="4" fill="#19e5a1" /><circle cx="563.6" cy="317.0" r="4" fill="#19e5a1" /><circle cx="575.2" cy="317.0" r="4" fill="#19e5a1" /><circle cx="586.7" cy="317.0" r="4" fill="#19e5a1" /><circle cx="598.2" cy="317.0" r="4" fill="#19e5a1" /><circle cx="609.7" cy="317.0" r="4" fill="#19e5a1" /><circle cx="621.2" cy="317.0" r="4" fill="#19e5a1" /><circle cx="632.7" cy="317.0" r="4" fill="#19e5a1" /><circle cx="644.2" cy="317.0" r="4" fill="#19e5a1" /><circle cx="655.8" cy="317.0" r="4" fill="#19e5a1" /><circle cx="667.3" cy="317.0" r="4" fill="#19e5a1" /><circle cx="678.8" cy="317.0" r="4" fill="#19e5a1" /><circle cx="690.3" cy="317.0" r="4" fill="#19e5a1" /><circle cx="701.8" cy="317.0" r="4" fill="#19e5a1" /><circle cx="713.3" cy="317.0" r="4" fill="#19e5a1" /><circle cx="724.8" cy="317.0" r="4" fill="#19e5a1" /><circle cx="736.4" cy="317.0" r="4" fill="#19e5a1" /><circle cx="747.9" cy="317.0" r="4" fill="#19e5a1" /><circle cx="759.4" cy="317.0" r="4" fill="#19e5a1" /><circle cx="770.9" cy="317.0" r="4" fill="#19e5a1" /><circle cx="782.4" cy="317.0" r="4" fill="#19e5a1" /><circle cx="793.9" cy="317.0" r="4" fill="#19e5a1" /><circle cx="805.5" cy="317.0" r="4" fill="#19e5a1" /><circle cx="817.0" cy="317.0" r="4" fill="#19e5a1" /><circle cx="828.5" cy="317.0" r="4" fill="#19e5a1" /><circle cx="840.0" cy="317.0" r="4" fill="#19e5a1" /><polyline points="80.0,313.2 91.5,312.2 103.0,312.1 114.5,312.4 126.1,312.4 137.6,312.4 149.1,312.1 160.6,312.0 172.1,311.9 183.6,311.9 195.2,311.8 206.7,311.8 218.2,311.5 229.7,311.5 241.2,311.5 252.7,311.2 264.2,311.2 275.8,311.1 287.3,311.1 298.8,311.1 310.3,310.9 321.8,311.0 333.3,310.8 344.8,310.8 356.4,310.8 367.9,310.8 379.4,310.4 390.9,310.2 402.4,310.4 413.9,310.4 425.5,310.4 437.0,310.4 448.5,310.4 460.0,310.2 471.5,310.2 483.0,310.1 494.5,310.1 506.1,309.8 517.6,309.6 529.1,309.6 540.6,309.6 552.1,309.6 563.6,309.5 575.2,309.4 586.7,309.4 598.2,309.4 609.7,309.4 621.2,309.2 632.7,309.2 644.2,309.2 655.8,309.4 667.3,309.4 678.8,309.5 690.3,309.2 701.8,309.2 713.3,309.4 724.8,309.2 736.4,309.2 747.9,309.2 759.4,309.2 770.9,309.2 782.4,309.1 793.9,309.1 805.5,309.1 817.0,309.1 828.5,309.0 840.0,309.0" fill="none" stroke="#6eb6ec" stroke-width="2.5" stroke-linecap="round" stroke-linejoin="round" /><circle cx="80.0" cy="313.2" r="4" fill="#6eb6ec" /><circle cx="91.5" cy="312.2" r="4" fill="#6eb6ec" /><circle cx="103.0" cy="312.1" r="4" fill="#6eb6ec" /><circle cx="114.5" cy="312.4" r="4" fill="#6eb6ec" /><circle cx="126.1" cy="312.4" r="4" fill="#6eb6ec" /><circle cx="137.6" cy="312.4" r="4" fill="#6eb6ec" /><circle cx="149.1" cy="312.1" r="4" fill="#6eb6ec" /><circle cx="160.6" cy="312.0" r="4" fill="#6eb6ec" /><circle cx="172.1" cy="311.9" r="4" fill="#6eb6ec" /><circle cx="183.6" cy="311.9" r="4" fill="#6eb6ec" /><circle cx="195.2" cy="311.8" r="4" fill="#6eb6ec" /><circle cx="206.7" cy="311.8" r="4" fill="#6eb6ec" /><circle cx="218.2" cy="311.5" r="4" fill="#6eb6ec" /><circle cx="229.7" cy="311.5" r="4" fill="#6eb6ec" /><circle cx="241.2" cy="311.5" r="4" fill="#6eb6ec" /><circle cx="252.7" cy="311.2" r="4" fill="#6eb6ec" /><circle cx="264.2" cy="311.2" r="4" fill="#6eb6ec" /><circle cx="275.8" cy="311.1" r="4" fill="#6eb6ec" /><circle cx="287.3" cy="311.1" r="4" fill="#6eb6ec" /><circle cx="298.8" cy="311.1" r="4" fill="#6eb6ec" /><circle cx="310.3" cy="310.9" r="4" fill="#6eb6ec" /><circle cx="321.8" cy="311.0" r="4" fill="#6eb6ec" /><circle cx="333.3" cy="310.8" r="4" fill="#6eb6ec" /><circle cx="344.8" cy="310.8" r="4" fill="#6eb6ec" /><circle cx="356.4" cy="310.8" r="4" fill="#6eb6ec" /><circle cx="367.9" cy="310.8" r="4" fill="#6eb6ec" /><circle cx="379.4" cy="310.4" r="4" fill="#6eb6ec" /><circle cx="390.9" cy="310.2" r="4" fill="#6eb6ec" /><circle cx="402.4" cy="310.4" r="4" fill="#6eb6ec" /><circle cx="413.9" cy="310.4" r="4" fill="#6eb6ec" /><circle cx="425.5" cy="310.4" r="4" fill="#6eb6ec" /><circle cx="437.0" cy="310.4" r="4" fill="#6eb6ec" /><circle cx="448.5" cy="310.4" r="4" fill="#6eb6ec" /><circle cx="460.0" cy="310.2" r="4" fill="#6eb6ec" /><circle cx="471.5" cy="310.2" r="4" fill="#6eb6ec" /><circle cx="483.0" cy="310.1" r="4" fill="#6eb6ec" /><circle cx="494.5" cy="310.1" r="4" fill="#6eb6ec" /><circle cx="506.1" cy="309.8" r="4" fill="#6eb6ec" /><circle cx="517.6" cy="309.6" r="4" fill="#6eb6ec" /><circle cx="529.1" cy="309.6" r="4" fill="#6eb6ec" /><circle cx="540.6" cy="309.6" r="4" fill="#6eb6ec" /><circle cx="552.1" cy="309.6" r="4" fill="#6eb6ec" /><circle cx="563.6" cy="309.5" r="4" fill="#6eb6ec" /><circle cx="575.2" cy="309.4" r="4" fill="#6eb6ec" /><circle cx="586.7" cy="309.4" r="4" fill="#6eb6ec" /><circle cx="598.2" cy="309.4" r="4" fill="#6eb6ec" /><circle cx="609.7" cy="309.4" r="4" fill="#6eb6ec" /><circle cx="621.2" cy="309.2" r="4" fill="#6eb6ec" /><circle cx="632.7" cy="309.2" r="4" fill="#6eb6ec" /><circle cx="644.2" cy="309.2" r="4" fill="#6eb6ec" /><circle cx="655.8" cy="309.4" r="4" fill="#6eb6ec" /><circle cx="667.3" cy="309.4" r="4" fill="#6eb6ec" /><circle cx="678.8" cy="309.5" r="4" fill="#6eb6ec" /><circle cx="690.3" cy="309.2" r="4" fill="#6eb6ec" /><circle cx="701.8" cy="309.2" r="4" fill="#6eb6ec" /><circle cx="713.3" cy="309.4" r="4" fill="#6eb6ec" /><circle cx="724.8" cy="309.2" r="4" fill="#6eb6ec" /><circle cx="736.4" cy="309.2" r="4" fill="#6eb6ec" /><circle cx="747.9" cy="309.2" r="4" fill="#6eb6ec" /><circle cx="759.4" cy="309.2" r="4" fill="#6eb6ec" /><circle cx="770.9" cy="309.2" r="4" fill="#6eb6ec" /><circle cx="782.4" cy="309.1" r="4" fill="#6eb6ec" /><circle cx="793.9" cy="309.1" r="4" fill="#6eb6ec" /><circle cx="805.5" cy="309.1" r="4" fill="#6eb6ec" /><circle cx="817.0" cy="309.1" r="4" fill="#6eb6ec" /><circle cx="828.5" cy="309.0" r="4" fill="#6eb6ec" /><circle cx="840.0" cy="309.0" r="4" fill="#6eb6ec" /><polyline points="80.0,305.8 91.5,305.8 103.0,305.8 114.5,305.8 126.1,305.8 137.6,305.8 149.1,305.8 160.6,305.8 172.1,305.8 183.6,305.8 195.2,304.9 206.7,304.9 218.2,304.9 229.7,304.9 241.2,304.9 252.7,304.9 264.2,304.9 275.8,304.9 287.3,304.9 298.8,304.9 310.3,304.9 321.8,304.9 333.3,304.9 344.8,304.9 356.4,304.9 367.9,304.9 379.4,304.9 390.9,304.9 402.4,304.9 413.9,304.9 425.5,304.9 437.0,304.9 448.5,304.9 460.0,304.9 471.5,304.9 483.0,304.9 494.5,304.9 506.1,303.6 517.6,303.6 529.1,303.6 540.6,303.6 552.1,303.6 563.6,303.6 575.2,303.6 586.7,303.6 598.2,303.6 609.7,303.6 621.2,303.6 632.7,303.6 644.2,303.6 655.8,303.6 667.3,302.9 678.8,302.9 690.3,298.0 701.8,298.0 713.3,298.0 724.8,298.0 736.4,298.0 747.9,298.0 759.4,298.0 770.9,298.0 782.4,298.0 793.9,298.0 805.5,298.0 817.0,298.0 828.5,298.0 840.0,298.0" fill="none" stroke="#5938e2" stroke-width="2.5" stroke-linecap="round" stroke-linejoin="round" /><circle cx="80.0" cy="305.8" r="4" fill="#5938e2" /><circle cx="91.5" cy="305.8" r="4" fill="#5938e2" /><circle cx="103.0" cy="305.8" r="4" fill="#5938e2" /><circle cx="114.5" cy="305.8" r="4" fill="#5938e2" /><circle cx="126.1" cy="305.8" r="4" fill="#5938e2" /><circle cx="137.6" cy="305.8" r="4" fill="#5938e2" /><circle cx="149.1" cy="305.8" r="4" fill="#5938e2" /><circle cx="160.6" cy="305.8" r="4" fill="#5938e2" /><circle cx="172.1" cy="305.8" r="4" fill="#5938e2" /><circle cx="183.6" cy="305.8" r="4" fill="#5938e2" /><circle cx="195.2" cy="304.9" r="4" fill="#5938e2" /><circle cx="206.7" cy="304.9" r="4" fill="#5938e2" /><circle cx="218.2" cy="304.9" r="4" fill="#5938e2" /><circle cx="229.7" cy="304.9" r="4" fill="#5938e2" /><circle cx="241.2" cy="304.9" r="4" fill="#5938e2" /><circle cx="252.7" cy="304.9" r="4" fill="#5938e2" /><circle cx="264.2" cy="304.9" r="4" fill="#5938e2" /><circle cx="275.8" cy="304.9" r="4" fill="#5938e2" /><circle cx="287.3" cy="304.9" r="4" fill="#5938e2" /><circle cx="298.8" cy="304.9" r="4" fill="#5938e2" /><circle cx="310.3" cy="304.9" r="4" fill="#5938e2" /><circle cx="321.8" cy="304.9" r="4" fill="#5938e2" /><circle cx="333.3" cy="304.9" r="4" fill="#5938e2" /><circle cx="344.8" cy="304.9" r="4" fill="#5938e2" /><circle cx="356.4" cy="304.9" r="4" fill="#5938e2" /><circle cx="367.9" cy="304.9" r="4" fill="#5938e2" /><circle cx="379.4" cy="304.9" r="4" fill="#5938e2" /><circle cx="390.9" cy="304.9" r="4" fill="#5938e2" /><circle cx="402.4" cy="304.9" r="4" fill="#5938e2" /><circle cx="413.9" cy="304.9" r="4" fill="#5938e2" /><circle cx="425.5" cy="304.9" r="4" fill="#5938e2" /><circle cx="437.0" cy="304.9" r="4" fill="#5938e2" /><circle cx="448.5" cy="304.9" r="4" fill="#5938e2" /><circle cx="460.0" cy="304.9" r="4" fill="#5938e2" /><circle cx="471.5" cy="304.9" r="4" fill="#5938e2" /><circle cx="483.0" cy="304.9" r="4" fill="#5938e2" /><circle cx="494.5" cy="304.9" r="4" fill="#5938e2" /><circle cx="506.1" cy="303.6" r="4" fill="#5938e2" /><circle cx="517.6" cy="303.6" r="4" fill="#5938e2" /><circle cx="529.1" cy="303.6" r="4" fill="#5938e2" /><circle cx="540.6" cy="303.6" r="4" fill="#5938e2" /><circle cx="552.1" cy="303.6" r="4" fill="#5938e2" /><circle cx="563.6" cy="303.6" r="4" fill="#5938e2" /><circle cx="575.2" cy="303.6" r="4" fill="#5938e2" /><circle cx="586.7" cy="303.6" r="4" fill="#5938e2" /><circle cx="598.2" cy="303.6" r="4" fill="#5938e2" /><circle cx="609.7" cy="303.6" r="4" fill="#5938e2" /><circle cx="621.2" cy="303.6" r="4" fill="#5938e2" /><circle cx="632.7" cy="303.6" r="4" fill="#5938e2" /><circle cx="644.2" cy="303.6" r="4" fill="#5938e2" /><circle cx="655.8" cy="303.6" r="4" fill="#5938e2" /><circle cx="667.3" cy="302.9" r="4" fill="#5938e2" /><circle cx="678.8" cy="302.9" r="4" fill="#5938e2" /><circle cx="690.3" cy="298.0" r="4" fill="#5938e2" /><circle cx="701.8" cy="298.0" r="4" fill="#5938e2" /><circle cx="713.3" cy="298.0" r="4" fill="#5938e2" /><circle cx="724.8" cy="298.0" r="4" fill="#5938e2" /><circle cx="736.4" cy="298.0" r="4" fill="#5938e2" /><circle cx="747.9" cy="298.0" r="4" fill="#5938e2" /><circle cx="759.4" cy="298.0" r="4" fill="#5938e2" /><circle cx="770.9" cy="298.0" r="4" fill="#5938e2" /><circle cx="782.4" cy="298.0" r="4" fill="#5938e2" /><circle cx="793.9" cy="298.0" r="4" fill="#5938e2" /><circle cx="805.5" cy="298.0" r="4" fill="#5938e2" /><circle cx="817.0" cy="298.0" r="4" fill="#5938e2" /><circle cx="828.5" cy="298.0" r="4" fill="#5938e2" /><circle cx="840.0" cy="298.0" r="4" fill="#5938e2" /><polyline points="80.0,144.6 91.5,140.1 103.0,139.9 114.5,139.8 126.1,139.8 137.6,139.6 149.1,139.6 160.6,139.6 172.1,139.6 183.6,139.6 195.2,138.4 206.7,138.4 218.2,138.4 229.7,138.4 241.2,138.4 252.7,138.4 264.2,138.4 275.8,137.4 287.3,137.4 298.8,137.4 310.3,137.4 321.8,137.4 333.3,137.4 344.8,137.4 356.4,137.4 367.9,137.4 379.4,137.4 390.9,137.4 402.4,131.2 413.9,131.2 425.5,130.8 437.0,130.4 448.5,126.9 460.0,126.9 471.5,126.9 483.0,126.9 494.5,126.9 506.1,126.9 517.6,126.9 529.1,126.9 540.6,126.9 552.1,126.8 563.6,122.1 575.2,120.4 586.7,120.4 598.2,120.4 609.7,120.4 621.2,120.4 632.7,119.4 644.2,119.4 655.8,119.4 667.3,119.4 678.8,119.1 690.3,118.8 701.8,118.8 713.3,117.8 724.8,117.8 736.4,117.8 747.9,115.8 759.4,115.8 770.9,115.0 782.4,115.0 793.9,115.0 805.5,115.0 817.0,115.0 828.5,115.0 840.0,115.0" fill="none" stroke="#60e5e0" stroke-width="2.5" stroke-linecap="round" stroke-linejoin="round" /><circle cx="80.0" cy="144.6" r="4" fill="#60e5e0" /><circle cx="91.5" cy="140.1" r="4" fill="#60e5e0" /><circle cx="103.0" cy="139.9" r="4" fill="#60e5e0" /><circle cx="114.5" cy="139.8" r="4" fill="#60e5e0" /><circle cx="126.1" cy="139.8" r="4" fill="#60e5e0" /><circle cx="137.6" cy="139.6" r="4" fill="#60e5e0" /><circle cx="149.1" cy="139.6" r="4" fill="#60e5e0" /><circle cx="160.6" cy="139.6" r="4" fill="#60e5e0" /><circle cx="172.1" cy="139.6" r="4" fill="#60e5e0" /><circle cx="183.6" cy="139.6" r="4" fill="#60e5e0" /><circle cx="195.2" cy="138.4" r="4" fill="#60e5e0" /><circle cx="206.7" cy="138.4" r="4" fill="#60e5e0" /><circle cx="218.2" cy="138.4" r="4" fill="#60e5e0" /><circle cx="229.7" cy="138.4" r="4" fill="#60e5e0" /><circle cx="241.2" cy="138.4" r="4" fill="#60e5e0" /><circle cx="252.7" cy="138.4" r="4" fill="#60e5e0" /><circle cx="264.2" cy="138.4" r="4" fill="#60e5e0" /><circle cx="275.8" cy="137.4" r="4" fill="#60e5e0" /><circle cx="287.3" cy="137.4" r="4" fill="#60e5e0" /><circle cx="298.8" cy="137.4" r="4" fill="#60e5e0" /><circle cx="310.3" cy="137.4" r="4" fill="#60e5e0" /><circle cx="321.8" cy="137.4" r="4" fill="#60e5e0" /><circle cx="333.3" cy="137.4" r="4" fill="#60e5e0" /><circle cx="344.8" cy="137.4" r="4" fill="#60e5e0" /><circle cx="356.4" cy="137.4" r="4" fill="#60e5e0" /><circle cx="367.9" cy="137.4" r="4" fill="#60e5e0" /><circle cx="379.4" cy="137.4" r="4" fill="#60e5e0" /><circle cx="390.9" cy="137.4" r="4" fill="#60e5e0" /><circle cx="402.4" cy="131.2" r="4" fill="#60e5e0" /><circle cx="413.9" cy="131.2" r="4" fill="#60e5e0" /><circle cx="425.5" cy="130.8" r="4" fill="#60e5e0" /><circle cx="437.0" cy="130.4" r="4" fill="#60e5e0" /><circle cx="448.5" cy="126.9" r="4" fill="#60e5e0" /><circle cx="460.0" cy="126.9" r="4" fill="#60e5e0" /><circle cx="471.5" cy="126.9" r="4" fill="#60e5e0" /><circle cx="483.0" cy="126.9" r="4" fill="#60e5e0" /><circle cx="494.5" cy="126.9" r="4" fill="#60e5e0" /><circle cx="506.1" cy="126.9" r="4" fill="#60e5e0" /><circle cx="517.6" cy="126.9" r="4" fill="#60e5e0" /><circle cx="529.1" cy="126.9" r="4" fill="#60e5e0" /><circle cx="540.6" cy="126.9" r="4" fill="#60e5e0" /><circle cx="552.1" cy="126.8" r="4" fill="#60e5e0" /><circle cx="563.6" cy="122.1" r="4" fill="#60e5e0" /><circle cx="575.2" cy="120.4" r="4" fill="#60e5e0" /><circle cx="586.7" cy="120.4" r="4" fill="#60e5e0" /><circle cx="598.2" cy="120.4" r="4" fill="#60e5e0" /><circle cx="609.7" cy="120.4" r="4" fill="#60e5e0" /><circle cx="621.2" cy="120.4" r="4" fill="#60e5e0" /><circle cx="632.7" cy="119.4" r="4" fill="#60e5e0" /><circle cx="644.2" cy="119.4" r="4" fill="#60e5e0" /><circle cx="655.8" cy="119.4" r="4" fill="#60e5e0" /><circle cx="667.3" cy="119.4" r="4" fill="#60e5e0" /><circle cx="678.8" cy="119.1" r="4" fill="#60e5e0" /><circle cx="690.3" cy="118.8" r="4" fill="#60e5e0" /><circle cx="701.8" cy="118.8" r="4" fill="#60e5e0" /><circle cx="713.3" cy="117.8" r="4" fill="#60e5e0" /><circle cx="724.8" cy="117.8" r="4" fill="#60e5e0" /><circle cx="736.4" cy="117.8" r="4" fill="#60e5e0" /><circle cx="747.9" cy="115.8" r="4" fill="#60e5e0" /><circle cx="759.4" cy="115.8" r="4" fill="#60e5e0" /><circle cx="770.9" cy="115.0" r="4" fill="#60e5e0" /><circle cx="782.4" cy="115.0" r="4" fill="#60e5e0" /><circle cx="793.9" cy="115.0" r="4" fill="#60e5e0" /><circle cx="805.5" cy="115.0" r="4" fill="#60e5e0" /><circle cx="817.0" cy="115.0" r="4" fill="#60e5e0" /><circle cx="828.5" cy="115.0" r="4" fill="#60e5e0" /><circle cx="840.0" cy="115.0" r="4" fill="#60e5e0" /><polyline points="80.0,314.6 91.5,314.4 103.0,314.2 114.5,314.2 126.1,314.2 137.6,314.1 149.1,314.1 160.6,314.1 172.1,314.1 183.6,314.1 195.2,314.0 206.7,314.0 218.2,314.0 229.7,314.0 241.2,314.0 252.7,314.0 264.2,314.0 275.8,314.0 287.3,314.0 298.8,314.0 310.3,314.0 321.8,314.0 333.3,314.0 344.8,314.0 356.4,314.0 367.9,314.0 379.4,314.0 390.9,314.0 402.4,314.0 413.9,314.0 425.5,314.0 437.0,314.0 448.5,314.0 460.0,314.0 471.5,314.0 483.0,314.0 494.5,314.0 506.1,314.0 517.6,314.0 529.1,314.0 540.6,314.0 552.1,313.9 563.6,313.6 575.2,313.4 586.7,313.4 598.2,313.4 609.7,313.4 621.2,313.4 632.7,313.1 644.2,313.1 655.8,313.1 667.3,313.1 678.8,313.1 690.3,313.0 701.8,313.0 713.3,312.9 724.8,312.9 736.4,312.9 747.9,312.8 759.4,312.8 770.9,312.6 782.4,312.6 793.9,312.6 805.5,312.6 817.0,312.6 828.5,312.6 840.0,312.6" fill="none" stroke="#567de1" stroke-width="2.5" stroke-linecap="round" stroke-linejoin="round" /><circle cx="80.0" cy="314.6" r="4" fill="#567de1" /><circle cx="91.5" cy="314.4" r="4" fill="#567de1" /><circle cx="103.0" cy="314.2" r="4" fill="#567de1" /><circle cx="114.5" cy="314.2" r="4" fill="#567de1" /><circle cx="126.1" cy="314.2" r="4" fill="#567de1" /><circle cx="137.6" cy="314.1" r="4" fill="#567de1" /><circle cx="149.1" cy="314.1" r="4" fill="#567de1" /><circle cx="160.6" cy="314.1" r="4" fill="#567de1" /><circle cx="172.1" cy="314.1" r="4" fill="#567de1" /><circle cx="183.6" cy="314.1" r="4" fill="#567de1" /><circle cx="195.2" cy="314.0" r="4" fill="#567de1" /><circle cx="206.7" cy="314.0" r="4" fill="#567de1" /><circle cx="218.2" cy="314.0" r="4" fill="#567de1" /><circle cx="229.7" cy="314.0" r="4" fill="#567de1" /><circle cx="241.2" cy="314.0" r="4" fill="#567de1" /><circle cx="252.7" cy="314.0" r="4" fill="#567de1" /><circle cx="264.2" cy="314.0" r="4" fill="#567de1" /><circle cx="275.8" cy="314.0" r="4" fill="#567de1" /><circle cx="287.3" cy="314.0" r="4" fill="#567de1" /><circle cx="298.8" cy="314.0" r="4" fill="#567de1" /><circle cx="310.3" cy="314.0" r="4" fill="#567de1" /><circle cx="321.8" cy="314.0" r="4" fill="#567de1" /><circle cx="333.3" cy="314.0" r="4" fill="#567de1" /><circle cx="344.8" cy="314.0" r="4" fill="#567de1" /><circle cx="356.4" cy="314.0" r="4" fill="#567de1" /><circle cx="367.9" cy="314.0" r="4" fill="#567de1" /><circle cx="379.4" cy="314.0" r="4" fill="#567de1" /><circle cx="390.9" cy="314.0" r="4" fill="#567de1" /><circle cx="402.4" cy="314.0" r="4" fill="#567de1" /><circle cx="413.9" cy="314.0" r="4" fill="#567de1" /><circle cx="425.5" cy="314.0" r="4" fill="#567de1" /><circle cx="437.0" cy="314.0" r="4" fill="#567de1" /><circle cx="448.5" cy="314.0" r="4" fill="#567de1" /><circle cx="460.0" cy="314.0" r="4" fill="#567de1" /><circle cx="471.5" cy="314.0" r="4" fill="#567de1" /><circle cx="483.0" cy="314.0" r="4" fill="#567de1" /><circle cx="494.5" cy="314.0" r="4" fill="#567de1" /><circle cx="506.1" cy="314.0" r="4" fill="#567de1" /><circle cx="517.6" cy="314.0" r="4" fill="#567de1" /><circle cx="529.1" cy="314.0" r="4" fill="#567de1" /><circle cx="540.6" cy="314.0" r="4" fill="#567de1" /><circle cx="552.1" cy="313.9" r="4" fill="#567de1" /><circle cx="563.6" cy="313.6" r="4" fill="#567de1" /><circle cx="575.2" cy="313.4" r="4" fill="#567de1" /><circle cx="586.7" cy="313.4" r="4" fill="#567de1" /><circle cx="598.2" cy="313.4" r="4" fill="#567de1" /><circle cx="609.7" cy="313.4" r="4" fill="#567de1" /><circle cx="621.2" cy="313.4" r="4" fill="#567de1" /><circle cx="632.7" cy="313.1" r="4" fill="#567de1" /><circle cx="644.2" cy="313.1" r="4" fill="#567de1" /><circle cx="655.8" cy="313.1" r="4" fill="#567de1" /><circle cx="667.3" cy="313.1" r="4" fill="#567de1" /><circle cx="678.8" cy="313.1" r="4" fill="#567de1" /><circle cx="690.3" cy="313.0" r="4" fill="#567de1" /><circle cx="701.8" cy="313.0" r="4" fill="#567de1" /><circle cx="713.3" cy="312.9" r="4" fill="#567de1" /><circle cx="724.8" cy="312.9" r="4" fill="#567de1" /><circle cx="736.4" cy="312.9" r="4" fill="#567de1" /><circle cx="747.9" cy="312.8" r="4" fill="#567de1" /><circle cx="759.4" cy="312.8" r="4" fill="#567de1" /><circle cx="770.9" cy="312.6" r="4" fill="#567de1" /><circle cx="782.4" cy="312.6" r="4" fill="#567de1" /><circle cx="793.9" cy="312.6" r="4" fill="#567de1" /><circle cx="805.5" cy="312.6" r="4" fill="#567de1" /><circle cx="817.0" cy="312.6" r="4" fill="#567de1" /><circle cx="828.5" cy="312.6" r="4" fill="#567de1" /><circle cx="840.0" cy="312.6" r="4" fill="#567de1" /><polyline points="80.0,303.9 91.5,304.2 103.0,304.4 114.5,304.4 126.1,304.4 137.6,304.4 149.1,304.4 160.6,304.4 172.1,304.4 183.6,304.4 195.2,304.4 206.7,304.4 218.2,304.4 229.7,304.4 241.2,304.4 252.7,304.4 264.2,304.4 275.8,304.4 287.3,304.4 298.8,304.4 310.3,304.4 321.8,304.4 333.3,304.4 344.8,304.4 356.4,304.4 367.9,304.4 379.4,304.4 390.9,304.4 402.4,299.1 413.9,299.1 425.5,299.1 437.0,298.9 448.5,295.6 460.0,295.6 471.5,295.6 483.0,295.6 494.5,295.6 506.1,295.6 517.6,295.6 529.1,295.6 540.6,295.6 552.1,295.8 563.6,295.9 575.2,295.9 586.7,295.9 598.2,295.9 609.7,295.9 621.2,295.9 632.7,295.9 644.2,295.9 655.8,295.9 667.3,295.9 678.8,295.9 690.3,295.9 701.8,295.9 713.3,295.9 724.8,295.9 736.4,295.9 747.9,295.8 759.4,295.8 770.9,295.9 782.4,295.9 793.9,295.9 805.5,295.9 817.0,295.9 828.5,295.9 840.0,295.9" fill="none" stroke="#9754dd" stroke-width="2.5" stroke-linecap="round" stroke-linejoin="round" /><circle cx="80.0" cy="303.9" r="4" fill="#9754dd" /><circle cx="91.5" cy="304.2" r="4" fill="#9754dd" /><circle cx="103.0" cy="304.4" r="4" fill="#9754dd" /><circle cx="114.5" cy="304.4" r="4" fill="#9754dd" /><circle cx="126.1" cy="304.4" r="4" fill="#9754dd" /><circle cx="137.6" cy="304.4" r="4" fill="#9754dd" /><circle cx="149.1" cy="304.4" r="4" fill="#9754dd" /><circle cx="160.6" cy="304.4" r="4" fill="#9754dd" /><circle cx="172.1" cy="304.4" r="4" fill="#9754dd" /><circle cx="183.6" cy="304.4" r="4" fill="#9754dd" /><circle cx="195.2" cy="304.4" r="4" fill="#9754dd" /><circle cx="206.7" cy="304.4" r="4" fill="#9754dd" /><circle cx="218.2" cy="304.4" r="4" fill="#9754dd" /><circle cx="229.7" cy="304.4" r="4" fill="#9754dd" /><circle cx="241.2" cy="304.4" r="4" fill="#9754dd" /><circle cx="252.7" cy="304.4" r="4" fill="#9754dd" /><circle cx="264.2" cy="304.4" r="4" fill="#9754dd" /><circle cx="275.8" cy="304.4" r="4" fill="#9754dd" /><circle cx="287.3" cy="304.4" r="4" fill="#9754dd" /><circle cx="298.8" cy="304.4" r="4" fill="#9754dd" /><circle cx="310.3" cy="304.4" r="4" fill="#9754dd" /><circle cx="321.8" cy="304.4" r="4" fill="#9754dd" /><circle cx="333.3" cy="304.4" r="4" fill="#9754dd" /><circle cx="344.8" cy="304.4" r="4" fill="#9754dd" /><circle cx="356.4" cy="304.4" r="4" fill="#9754dd" /><circle cx="367.9" cy="304.4" r="4" fill="#9754dd" /><circle cx="379.4" cy="304.4" r="4" fill="#9754dd" /><circle cx="390.9" cy="304.4" r="4" fill="#9754dd" /><circle cx="402.4" cy="299.1" r="4" fill="#9754dd" /><circle cx="413.9" cy="299.1" r="4" fill="#9754dd" /><circle cx="425.5" cy="299.1" r="4" fill="#9754dd" /><circle cx="437.0" cy="298.9" r="4" fill="#9754dd" /><circle cx="448.5" cy="295.6" r="4" fill="#9754dd" /><circle cx="460.0" cy="295.6" r="4" fill="#9754dd" /><circle cx="471.5" cy="295.6" r="4" fill="#9754dd" /><circle cx="483.0" cy="295.6" r="4" fill="#9754dd" /><circle cx="494.5" cy="295.6" r="4" fill="#9754dd" /><circle cx="506.1" cy="295.6" r="4" fill="#9754dd" /><circle cx="517.6" cy="295.6" r="4" fill="#9754dd" /><circle cx="529.1" cy="295.6" r="4" fill="#9754dd" /><circle cx="540.6" cy="295.6" r="4" fill="#9754dd" /><circle cx="552.1" cy="295.8" r="4" fill="#9754dd" /><circle cx="563.6" cy="295.9" r="4" fill="#9754dd" /><circle cx="575.2" cy="295.9" r="4" fill="#9754dd" /><circle cx="586.7" cy="295.9" r="4" fill="#9754dd" /><circle cx="598.2" cy="295.9" r="4" fill="#9754dd" /><circle cx="609.7" cy="295.9" r="4" fill="#9754dd" /><circle cx="621.2" cy="295.9" r="4" fill="#9754dd" /><circle cx="632.7" cy="295.9" r="4" fill="#9754dd" /><circle cx="644.2" cy="295.9" r="4" fill="#9754dd" /><circle cx="655.8" cy="295.9" r="4" fill="#9754dd" /><circle cx="667.3" cy="295.9" r="4" fill="#9754dd" /><circle cx="678.8" cy="295.9" r="4" fill="#9754dd" /><circle cx="690.3" cy="295.9" r="4" fill="#9754dd" /><circle cx="701.8" cy="295.9" r="4" fill="#9754dd" /><circle cx="713.3" cy="295.9" r="4" fill="#9754dd" /><circle cx="724.8" cy="295.9" r="4" fill="#9754dd" /><circle cx="736.4" cy="295.9" r="4" fill="#9754dd" /><circle cx="747.9" cy="295.8" r="4" fill="#9754dd" /><circle cx="759.4" cy="295.8" r="4" fill="#9754dd" /><circle cx="770.9" cy="295.9" r="4" fill="#9754dd" /><circle cx="782.4" cy="295.9" r="4" fill="#9754dd" /><circle cx="793.9" cy="295.9" r="4" fill="#9754dd" /><circle cx="805.5" cy="295.9" r="4" fill="#9754dd" /><circle cx="817.0" cy="295.9" r="4" fill="#9754dd" /><circle cx="828.5" cy="295.9" r="4" fill="#9754dd" /><circle cx="840.0" cy="295.9" r="4" fill="#9754dd" />
  <rect x="80" y="339" width="10" height="10" rx="2" ry="2" fill="#19e5a1" /><text x="96" y="348" class="legend-label">Stars</text><rect x="250" y="339" width="10" height="10" rx="2" ry="2" fill="#6eb6ec" /><text x="266" y="348" class="legend-label">Followers</text><rect x="420" y="339" width="10" height="10" rx="2" ry="2" fill="#5938e2" /><text x="436" y="348" class="legend-label">Following</text><rect x="590" y="339" width="10" height="10" rx="2" ry="2" fill="#60e5e0" /><text x="606" y="348" class="legend-label">Contributions</text><rect x="80" y="357" width="10" height="10" rx="2" ry="2" fill="#567de1" /><text x="96" y="366" class="legend-label">Pull Requests</text><rect x="250" y="357" width="10" height="10" rx="2" ry="2" fill="#9754dd" /><text x="266" y="366" class="legend-label">Issues</text>
</svg>
