<svg width="900" height="402" viewBox="0 0 900 402" xmlns="http://www.w3.org/2000/svg">
  <defs>
    <linearGradient id="history-gradient" x1="0%" y1="0%" x2="100%" y2="100%">
      <stop offset="0%" style="stop-color:#58a6ff;stop-opacity:1" />
      <stop offset="100%" style="stop-color:#a371f7;stop-opacity:1" />
    </linearGradient>
    <clipPath id="history-rounded">
      <rect x="0" y="0" width="900" height="402" rx="8" ry="8" />
    </clipPath>
  </defs>
  <style>
    .title {
      font-family: 'Segoe UI', Ubuntu, 'Helvetica Neue', sans-serif;
      font-size: 22px;
      font-weight: 700;
      fill: #58a6ff;
    }
    .subtitle {
      font-family: 'Segoe UI', Ubuntu, 'Helvetica Neue', sans-serif;
      font-size: 12px;
      font-weight: 500;
      fill: #8b949e;
    }
    .axis-label {
      font-family: 'Segoe UI', Ubuntu, 'Helvetica Neue', sans-serif;
      font-size: 10px;
      fill: #8b949e;
    }
    .grid-line {
      stroke: #30363d;
      stroke-width: 1;
      opacity: 0.3;
    }
    .legend-label {
      font-family: 'Segoe UI', Ubuntu, 'Helvetica Neue', sans-serif;
      font-size: 11px;
      fill: #c9d1d9;
      dominant-baseline: middle;
    }
  </style>
  <rect clip-path="url(#history-rounded)" width="100%" height="100%" fill="#0d1117" stroke="#30363d" stroke-width="1" />
  <rect x="0" y="396" width="900" height="6" fill="url(#history-gradient)" clip-path="url(#history-rounded)" />
  <text x="24" y="34" class="title">Leonardo Klein Stats History</text>
  <text x="24" y="54" class="subtitle">Period: 2026-02-20 to 2026-03-12</text>
  <text x="72" y="320.0" text-anchor="end" dominant-baseline="central" class="axis-label">0</text><text x="72" y="270.0" text-anchor="end" dominant-baseline="central" class="axis-label">400</text><text x="72" y="220.0" text-anchor="end" dominant-baseline="central" class="axis-label">800</text><text x="72" y="170.0" text-anchor="end" dominant-baseline="central" class="axis-label">1.2k</text><text x="72" y="120.0" text-anchor="end" dominant-baseline="central" class="axis-label">1.6k</text><text x="72" y="70.0" text-anchor="end" dominant-baseline="central" class="axis-label">2.0k</text>
  <text x="80.0" y="336" text-anchor="middle" class="axis-label">02-20</text><text x="154.5" y="336" text-anchor="middle" class="axis-label">02-22</text><text x="229.0" y="336" text-anchor="middle" class="axis-label">02-24</text><text x="303.5" y="336" text-anchor="middle" class="axis-label">02-26</text><text x="378.0" y="336" text-anchor="middle" class="axis-label">02-28</text><text x="452.5" y="336" text-anchor="middle" class="axis-label">03-02</text><text x="527.1" y="336" text-anchor="middle" class="axis-label">03-04</text><text x="601.6" y="336" text-anchor="middle" class="axis-label">03-06</text><text x="676.1" y="336" text-anchor="middle" class="axis-label">03-08</text><text x="750.6" y="336" text-anchor="middle" class="axis-label">03-10</text><text x="825.1" y="336" text-anchor="middle" class="axis-label">03-12</text><text x="840.0" y="336" text-anchor="middle" class="axis-label">03-12</text>
  <line x1="80" y1="320.0" x2="840" y2="320.0" class="grid-line" /><line x1="80" y1="270.0" x2="840" y2="270.0" class="grid-line" /><line x1="80" y1="220.0" x2="840" y2="220.0" class="grid-line" /><line x1="80" y1="170.0" x2="840" y2="170.0" class="grid-line" /><line x1="80" y1="120.0" x2="840" y2="120.0" class="grid-line" /><line x1="80" y1="70.0" x2="840" y2="70.0" class="grid-line" />
  <polyline points="80.0,317.0 87.5,317.0 94.9,317.0 102.4,317.0 109.8,317.0 117.3,317.0 124.7,317.0 132.2,317.0 139.6,317.0 147.1,317.0 154.5,317.0 162.0,317.0 169.4,317.0 176.9,317.0 184.3,317.0 191.8,317.0 199.2,317.0 206.7,317.0 214.1,317.0 221.6,317.0 229.0,317.0 236.5,317.0 243.9,317.0 251.4,317.0 258.8,317.0 266.3,317.0 273.7,317.0 281.2,317.0 288.6,317.0 296.1,317.0 303.5,317.0 311.0,317.0 318.4,317.0 325.9,317.0 333.3,317.0 340.8,317.0 348.2,317.0 355.7,317.0 363.1,317.0 370.6,317.0 378.0,317.0 385.5,317.0 392.9,317.0 400.4,317.0 407.8,317.0 415.3,317.0 422.7,317.0 430.2,317.0 437.6,317.0 445.1,317.0 452.5,317.0 460.0,317.0 467.5,317.0 474.9,317.0 482.4,317.0 489.8,317.0 497.3,317.0 504.7,317.0 512.2,317.0 519.6,317.0 527.1,317.0 534.5,317.0 542.0,317.0 549.4,317.0 556.9,317.0 564.3,317.0 571.8,317.0 579.2,317.0 586.7,317.0 594.1,317.0 601.6,317.0 609.0,317.0 616.5,317.0 623.9,317.0 631.4,317.0 638.8,317.0 646.3,317.0 653.7,317.0 661.2,317.0 668.6,317.0 676.1,317.0 683.5,317.0 691.0,317.0 698.4,317.0 705.9,317.0 713.3,317.0 720.8,317.0 728.2,317.0 735.7,317.0 743.1,317.0 750.6,317.0 758.0,317.0 765.5,317.0 772.9,317.0 780.4,317.0 787.8,317.0 795.3,317.0 802.7,317.0 810.2,317.0 817.6,317.0 825.1,317.0 832.5,317.0 840.0,317.0" fill="none" stroke="#19e5a1" stroke-width="2.5" stroke-linecap="round" stroke-linejoin="round" /><circle cx="80.0" cy="317.0" r="4" fill="#19e5a1" /><circle cx="87.5" cy="317.0" r="4" fill="#19e5a1" /><circle cx="94.9" cy="317.0" r="4" fill="#19e5a1" /><circle cx="102.4" cy="317.0" r="4" fill="#19e5a1" /><circle cx="109.8" cy="317.0" r="4" fill="#19e5a1" /><circle cx="117.3" cy="317.0" r="4" fill="#19e5a1" /><circle cx="124.7" cy="317.0" r="4" fill="#19e5a1" /><circle cx="132.2" cy="317.0" r="4" fill="#19e5a1" /><circle cx="139.6" cy="317.0" r="4" fill="#19e5a1" /><circle cx="147.1" cy="317.0" r="4" fill="#19e5a1" /><circle cx="154.5" cy="317.0" r="4" fill="#19e5a1" /><circle cx="162.0" cy="317.0" r="4" fill="#19e5a1" /><circle cx="169.4" cy="317.0" r="4" fill="#19e5a1" /><circle cx="176.9" cy="317.0" r="4" fill="#19e5a1" /><circle cx="184.3" cy="317.0" r="4" fill="#19e5a1" /><circle cx="191.8" cy="317.0" r="4" fill="#19e5a1" /><circle cx="199.2" cy="317.0" r="4" fill="#19e5a1" /><circle cx="206.7" cy="317.0" r="4" fill="#19e5a1" /><circle cx="214.1" cy="317.0" r="4" fill="#19e5a1" /><circle cx="221.6" cy="317.0" r="4" fill="#19e5a1" /><circle cx="229.0" cy="317.0" r="4" fill="#19e5a1" /><circle cx="236.5" cy="317.0" r="4" fill="#19e5a1" /><circle cx="243.9" cy="317.0" r="4" fill="#19e5a1" /><circle cx="251.4" cy="317.0" r="4" fill="#19e5a1" /><circle cx="258.8" cy="317.0" r="4" fill="#19e5a1" /><circle cx="266.3" cy="317.0" r="4" fill="#19e5a1" /><circle cx="273.7" cy="317.0" r="4" fill="#19e5a1" /><circle cx="281.2" cy="317.0" r="4" fill="#19e5a1" /><circle cx="288.6" cy="317.0" r="4" fill="#19e5a1" /><circle cx="296.1" cy="317.0" r="4" fill="#19e5a1" /><circle cx="303.5" cy="317.0" r="4" fill="#19e5a1" /><circle cx="311.0" cy="317.0" r="4" fill="#19e5a1" /><circle cx="318.4" cy="317.0" r="4" fill="#19e5a1" /><circle cx="325.9" cy="317.0" r="4" fill="#19e5a1" /><circle cx="333.3" cy="317.0" r="4" fill="#19e5a1" /><circle cx="340.8" cy="317.0" r="4" fill="#19e5a1" /><circle cx="348.2" cy="317.0" r="4" fill="#19e5a1" /><circle cx="355.7" cy="317.0" r="4" fill="#19e5a1" /><circle cx="363.1" cy="317.0" r="4" fill="#19e5a1" /><circle cx="370.6" cy="317.0" r="4" fill="#19e5a1" /><circle cx="378.0" cy="317.0" r="4" fill="#19e5a1" /><circle cx="385.5" cy="317.0" r="4" fill="#19e5a1" /><circle cx="392.9" cy="317.0" r="4" fill="#19e5a1" /><circle cx="400.4" cy="317.0" r="4" fill="#19e5a1" /><circle cx="407.8" cy="317.0" r="4" fill="#19e5a1" /><circle cx="415.3" cy="317.0" r="4" fill="#19e5a1" /><circle cx="422.7" cy="317.0" r="4" fill="#19e5a1" /><circle cx="430.2" cy="317.0" r="4" fill="#19e5a1" /><circle cx="437.6" cy="317.0" r="4" fill="#19e5a1" /><circle cx="445.1" cy="317.0" r="4" fill="#19e5a1" /><circle cx="452.5" cy="317.0" r="4" fill="#19e5a1" /><circle cx="460.0" cy="317.0" r="4" fill="#19e5a1" /><circle cx="467.5" cy="317.0" r="4" fill="#19e5a1" /><circle cx="474.9" cy="317.0" r="4" fill="#19e5a1" /><circle cx="482.4" cy="317.0" r="4" fill="#19e5a1" /><circle cx="489.8" cy="317.0" r="4" fill="#19e5a1" /><circle cx="497.3" cy="317.0" r="4" fill="#19e5a1" /><circle cx="504.7" cy="317.0" r="4" fill="#19e5a1" /><circle cx="512.2" cy="317.0" r="4" fill="#19e5a1" /><circle cx="519.6" cy="317.0" r="4" fill="#19e5a1" /><circle cx="527.1" cy="317.0" r="4" fill="#19e5a1" /><circle cx="534.5" cy="317.0" r="4" fill="#19e5a1" /><circle cx="542.0" cy="317.0" r="4" fill="#19e5a1" /><circle cx="549.4" cy="317.0" r="4" fill="#19e5a1" /><circle cx="556.9" cy="317.0" r="4" fill="#19e5a1" /><circle cx="564.3" cy="317.0" r="4" fill="#19e5a1" /><circle cx="571.8" cy="317.0" r="4" fill="#19e5a1" /><circle cx="579.2" cy="317.0" r="4" fill="#19e5a1" /><circle cx="586.7" cy="317.0" r="4" fill="#19e5a1" /><circle cx="594.1" cy="317.0" r="4" fill="#19e5a1" /><circle cx="601.6" cy="317.0" r="4" fill="#19e5a1" /><circle cx="609.0" cy="317.0" r="4" fill="#19e5a1" /><circle cx="616.5" cy="317.0" r="4" fill="#19e5a1" /><circle cx="623.9" cy="317.0" r="4" fill="#19e5a1" /><circle cx="631.4" cy="317.0" r="4" fill="#19e5a1" /><circle cx="638.8" cy="317.0" r="4" fill="#19e5a1" /><circle cx="646.3" cy="317.0" r="4" fill="#19e5a1" /><circle cx="653.7" cy="317.0" r="4" fill="#19e5a1" /><circle cx="661.2" cy="317.0" r="4" fill="#19e5a1" /><circle cx="668.6" cy="317.0" r="4" fill="#19e5a1" /><circle cx="676.1" cy="317.0" r="4" fill="#19e5a1" /><circle cx="683.5" cy="317.0" r="4" fill="#19e5a1" /><circle cx="691.0" cy="317.0" r="4" fill="#19e5a1" /><circle cx="698.4" cy="317.0" r="4" fill="#19e5a1" /><circle cx="705.9" cy="317.0" r="4" fill="#19e5a1" /><circle cx="713.3" cy="317.0" r="4" fill="#19e5a1" /><circle cx="720.8" cy="317.0" r="4" fill="#19e5a1" /><circle cx="728.2" cy="317.0" r="4" fill="#19e5a1" /><circle cx="735.7" cy="317.0" r="4" fill="#19e5a1" /><circle cx="743.1" cy="317.0" r="4" fill="#19e5a1" /><circle cx="750.6" cy="317.0" r="4" fill="#19e5a1" /><circle cx="758.0" cy="317.0" r="4" fill="#19e5a1" /><circle cx="765.5" cy="317.0" r="4" fill="#19e5a1" /><circle cx="772.9" cy="317.0" r="4" fill="#19e5a1" /><circle cx="780.4" cy="317.0" r="4" fill="#19e5a1" /><circle cx="787.8" cy="317.0" r="4" fill="#19e5a1" /><circle cx="795.3" cy="317.0" r="4" fill="#19e5a1" /><circle cx="802.7" cy="317.0" r="4" fill="#19e5a1" /><circle cx="810.2" cy="317.0" r="4" fill="#19e5a1" /><circle cx="817.6" cy="317.0" r="4" fill="#19e5a1" /><circle cx="825.1" cy="317.0" r="4" fill="#19e5a1" /><circle cx="832.5" cy="317.0" r="4" fill="#19e5a1" /><circle cx="840.0" cy="317.0" r="4" fill="#19e5a1" /><polyline points="80.0,313.2 87.5,312.2 94.9,312.1 102.4,312.4 109.8,312.4 117.3,312.4 124.7,312.1 132.2,312.0 139.6,311.9 147.1,311.9 154.5,311.8 162.0,311.8 169.4,311.5 176.9,311.5 184.3,311.5 191.8,311.2 199.2,311.2 206.7,311.1 214.1,311.1 221.6,311.1 229.0,310.9 236.5,311.0 243.9,310.8 251.4,310.8 258.8,310.8 266.3,310.8 273.7,310.4 281.2,310.2 288.6,310.4 296.1,310.4 303.5,310.4 311.0,310.4 318.4,310.4 325.9,310.2 333.3,310.2 340.8,310.1 348.2,310.1 355.7,309.8 363.1,309.6 370.6,309.6 378.0,309.6 385.5,309.6 392.9,309.5 400.4,309.4 407.8,309.4 415.3,309.4 422.7,309.4 430.2,309.2 437.6,309.2 445.1,309.2 452.5,309.4 460.0,309.4 467.5,309.5 474.9,309.2 482.4,309.2 489.8,309.4 497.3,309.2 504.7,309.2 512.2,309.2 519.6,309.2 527.1,309.2 534.5,309.1 542.0,309.1 549.4,309.1 556.9,309.1 564.3,309.0 571.8,309.0 579.2,308.9 586.7,308.9 594.1,308.9 601.6,308.6 609.0,308.6 616.5,308.6 623.9,308.6 631.4,308.6 638.8,308.6 646.3,308.6 653.7,308.6 661.2,308.6 668.6,308.6 676.1,308.6 683.5,308.6 691.0,308.6 698.4,307.8 705.9,307.8 713.3,307.6 720.8,307.6 728.2,307.6 735.7,307.5 743.1,307.5 750.6,307.6 758.0,308.5 765.5,308.5 772.9,308.4 780.4,308.4 787.8,307.5 795.3,307.5 802.7,307.2 810.2,307.1 817.6,307.1 825.1,307.1 832.5,307.0 840.0,306.8" fill="none" stroke="#6eb6ec" stroke-width="2.5" stroke-linecap="round" stroke-linejoin="round" /><circle cx="80.0" cy="313.2" r="4" fill="#6eb6ec" /><circle cx="87.5" cy="312.2" r="4" fill="#6eb6ec" /><circle cx="94.9" cy="312.1" r="4" fill="#6eb6ec" /><circle cx="102.4" cy="312.4" r="4" fill="#6eb6ec" /><circle cx="109.8" cy="312.4" r="4" fill="#6eb6ec" /><circle cx="117.3" cy="312.4" r="4" fill="#6eb6ec" /><circle cx="124.7" cy="312.1" r="4" fill="#6eb6ec" /><circle cx="132.2" cy="312.0" r="4" fill="#6eb6ec" /><circle cx="139.6" cy="311.9" r="4" fill="#6eb6ec" /><circle cx="147.1" cy="311.9" r="4" fill="#6eb6ec" /><circle cx="154.5" cy="311.8" r="4" fill="#6eb6ec" /><circle cx="162.0" cy="311.8" r="4" fill="#6eb6ec" /><circle cx="169.4" cy="311.5" r="4" fill="#6eb6ec" /><circle cx="176.9" cy="311.5" r="4" fill="#6eb6ec" /><circle cx="184.3" cy="311.5" r="4" fill="#6eb6ec" /><circle cx="191.8" cy="311.2" r="4" fill="#6eb6ec" /><circle cx="199.2" cy="311.2" r="4" fill="#6eb6ec" /><circle cx="206.7" cy="311.1" r="4" fill="#6eb6ec" /><circle cx="214.1" cy="311.1" r="4" fill="#6eb6ec" /><circle cx="221.6" cy="311.1" r="4" fill="#6eb6ec" /><circle cx="229.0" cy="310.9" r="4" fill="#6eb6ec" /><circle cx="236.5" cy="311.0" r="4" fill="#6eb6ec" /><circle cx="243.9" cy="310.8" r="4" fill="#6eb6ec" /><circle cx="251.4" cy="310.8" r="4" fill="#6eb6ec" /><circle cx="258.8" cy="310.8" r="4" fill="#6eb6ec" /><circle cx="266.3" cy="310.8" r="4" fill="#6eb6ec" /><circle cx="273.7" cy="310.4" r="4" fill="#6eb6ec" /><circle cx="281.2" cy="310.2" r="4" fill="#6eb6ec" /><circle cx="288.6" cy="310.4" r="4" fill="#6eb6ec" /><circle cx="296.1" cy="310.4" r="4" fill="#6eb6ec" /><circle cx="303.5" cy="310.4" r="4" fill="#6eb6ec" /><circle cx="311.0" cy="310.4" r="4" fill="#6eb6ec" /><circle cx="318.4" cy="310.4" r="4" fill="#6eb6ec" /><circle cx="325.9" cy="310.2" r="4" fill="#6eb6ec" /><circle cx="333.3" cy="310.2" r="4" fill="#6eb6ec" /><circle cx="340.8" cy="310.1" r="4" fill="#6eb6ec" /><circle cx="348.2" cy="310.1" r="4" fill="#6eb6ec" /><circle cx="355.7" cy="309.8" r="4" fill="#6eb6ec" /><circle cx="363.1" cy="309.6" r="4" fill="#6eb6ec" /><circle cx="370.6" cy="309.6" r="4" fill="#6eb6ec" /><circle cx="378.0" cy="309.6" r="4" fill="#6eb6ec" /><circle cx="385.5" cy="309.6" r="4" fill="#6eb6ec" /><circle cx="392.9" cy="309.5" r="4" fill="#6eb6ec" /><circle cx="400.4" cy="309.4" r="4" fill="#6eb6ec" /><circle cx="407.8" cy="309.4" r="4" fill="#6eb6ec" /><circle cx="415.3" cy="309.4" r="4" fill="#6eb6ec" /><circle cx="422.7" cy="309.4" r="4" fill="#6eb6ec" /><circle cx="430.2" cy="309.2" r="4" fill="#6eb6ec" /><circle cx="437.6" cy="309.2" r="4" fill="#6eb6ec" /><circle cx="445.1" cy="309.2" r="4" fill="#6eb6ec" /><circle cx="452.5" cy="309.4" r="4" fill="#6eb6ec" /><circle cx="460.0" cy="309.4" r="4" fill="#6eb6ec" /><circle cx="467.5" cy="309.5" r="4" fill="#6eb6ec" /><circle cx="474.9" cy="309.2" r="4" fill="#6eb6ec" /><circle cx="482.4" cy="309.2" r="4" fill="#6eb6ec" /><circle cx="489.8" cy="309.4" r="4" fill="#6eb6ec" /><circle cx="497.3" cy="309.2" r="4" fill="#6eb6ec" /><circle cx="504.7" cy="309.2" r="4" fill="#6eb6ec" /><circle cx="512.2" cy="309.2" r="4" fill="#6eb6ec" /><circle cx="519.6" cy="309.2" r="4" fill="#6eb6ec" /><circle cx="527.1" cy="309.2" r="4" fill="#6eb6ec" /><circle cx="534.5" cy="309.1" r="4" fill="#6eb6ec" /><circle cx="542.0" cy="309.1" r="4" fill="#6eb6ec" /><circle cx="549.4" cy="309.1" r="4" fill="#6eb6ec" /><circle cx="556.9" cy="309.1" r="4" fill="#6eb6ec" /><circle cx="564.3" cy="309.0" r="4" fill="#6eb6ec" /><circle cx="571.8" cy="309.0" r="4" fill="#6eb6ec" /><circle cx="579.2" cy="308.9" r="4" fill="#6eb6ec" /><circle cx="586.7" cy="308.9" r="4" fill="#6eb6ec" /><circle cx="594.1" cy="308.9" r="4" fill="#6eb6ec" /><circle cx="601.6" cy="308.6" r="4" fill="#6eb6ec" /><circle cx="609.0" cy="308.6" r="4" fill="#6eb6ec" /><circle cx="616.5" cy="308.6" r="4" fill="#6eb6ec" /><circle cx="623.9" cy="308.6" r="4" fill="#6eb6ec" /><circle cx="631.4" cy="308.6" r="4" fill="#6eb6ec" /><circle cx="638.8" cy="308.6" r="4" fill="#6eb6ec" /><circle cx="646.3" cy="308.6" r="4" fill="#6eb6ec" /><circle cx="653.7" cy="308.6" r="4" fill="#6eb6ec" /><circle cx="661.2" cy="308.6" r="4" fill="#6eb6ec" /><circle cx="668.6" cy="308.6" r="4" fill="#6eb6ec" /><circle cx="676.1" cy="308.6" r="4" fill="#6eb6ec" /><circle cx="683.5" cy="308.6" r="4" fill="#6eb6ec" /><circle cx="691.0" cy="308.6" r="4" fill="#6eb6ec" /><circle cx="698.4" cy="307.8" r="4" fill="#6eb6ec" /><circle cx="705.9" cy="307.8" r="4" fill="#6eb6ec" /><circle cx="713.3" cy="307.6" r="4" fill="#6eb6ec" /><circle cx="720.8" cy="307.6" r="4" fill="#6eb6ec" /><circle cx="728.2" cy="307.6" r="4" fill="#6eb6ec" /><circle cx="735.7" cy="307.5" r="4" fill="#6eb6ec" /><circle cx="743.1" cy="307.5" r="4" fill="#6eb6ec" /><circle cx="750.6" cy="307.6" r="4" fill="#6eb6ec" /><circle cx="758.0" cy="308.5" r="4" fill="#6eb6ec" /><circle cx="765.5" cy="308.5" r="4" fill="#6eb6ec" /><circle cx="772.9" cy="308.4" r="4" fill="#6eb6ec" /><circle cx="780.4" cy="308.4" r="4" fill="#6eb6ec" /><circle cx="787.8" cy="307.5" r="4" fill="#6eb6ec" /><circle cx="795.3" cy="307.5" r="4" fill="#6eb6ec" /><circle cx="802.7" cy="307.2" r="4" fill="#6eb6ec" /><circle cx="810.2" cy="307.1" r="4" fill="#6eb6ec" /><circle cx="817.6" cy="307.1" r="4" fill="#6eb6ec" /><circle cx="825.1" cy="307.1" r="4" fill="#6eb6ec" /><circle cx="832.5" cy="307.0" r="4" fill="#6eb6ec" /><circle cx="840.0" cy="306.8" r="4" fill="#6eb6ec" /><polyline points="80.0,305.8 87.5,305.8 94.9,305.8 102.4,305.8 109.8,305.8 117.3,305.8 124.7,305.8 132.2,305.8 139.6,305.8 147.1,305.8 154.5,304.9 162.0,304.9 169.4,304.9 176.9,304.9 184.3,304.9 191.8,304.9 199.2,304.9 206.7,304.9 214.1,304.9 221.6,304.9 229.0,304.9 236.5,304.9 243.9,304.9 251.4,304.9 258.8,304.9 266.3,304.9 273.7,304.9 281.2,304.9 288.6,304.9 296.1,304.9 303.5,304.9 311.0,304.9 318.4,304.9 325.9,304.9 333.3,304.9 340.8,304.9 348.2,304.9 355.7,303.6 363.1,303.6 370.6,303.6 378.0,303.6 385.5,303.6 392.9,303.6 400.4,303.6 407.8,303.6 415.3,303.6 422.7,303.6 430.2,303.6 437.6,303.6 445.1,303.6 452.5,303.6 460.0,302.9 467.5,302.9 474.9,298.0 482.4,298.0 489.8,298.0 497.3,298.0 504.7,298.0 512.2,298.0 519.6,298.0 527.1,298.0 534.5,298.0 542.0,298.0 549.4,298.0 556.9,298.0 564.3,298.0 571.8,298.0 579.2,297.8 586.7,297.8 594.1,297.8 601.6,297.8 609.0,297.8 616.5,297.8 623.9,297.8 631.4,297.8 638.8,297.8 646.3,297.8 653.7,297.8 661.2,297.8 668.6,297.8 676.1,297.8 683.5,297.8 691.0,297.8 698.4,297.8 705.9,297.8 713.3,297.8 720.8,297.6 728.2,297.8 735.7,297.8 743.1,297.8 750.6,297.9 758.0,297.9 765.5,297.9 772.9,296.1 780.4,296.1 787.8,296.1 795.3,296.1 802.7,296.1 810.2,296.1 817.6,296.1 825.1,296.1 832.5,296.1 840.0,296.1" fill="none" stroke="#5938e2" stroke-width="2.5" stroke-linecap="round" stroke-linejoin="round" /><circle cx="80.0" cy="305.8" r="4" fill="#5938e2" /><circle cx="87.5" cy="305.8" r="4" fill="#5938e2" /><circle cx="94.9" cy="305.8" r="4" fill="#5938e2" /><circle cx="102.4" cy="305.8" r="4" fill="#5938e2" /><circle cx="109.8" cy="305.8" r="4" fill="#5938e2" /><circle cx="117.3" cy="305.8" r="4" fill="#5938e2" /><circle cx="124.7" cy="305.8" r="4" fill="#5938e2" /><circle cx="132.2" cy="305.8" r="4" fill="#5938e2" /><circle cx="139.6" cy="305.8" r="4" fill="#5938e2" /><circle cx="147.1" cy="305.8" r="4" fill="#5938e2" /><circle cx="154.5" cy="304.9" r="4" fill="#5938e2" /><circle cx="162.0" cy="304.9" r="4" fill="#5938e2" /><circle cx="169.4" cy="304.9" r="4" fill="#5938e2" /><circle cx="176.9" cy="304.9" r="4" fill="#5938e2" /><circle cx="184.3" cy="304.9" r="4" fill="#5938e2" /><circle cx="191.8" cy="304.9" r="4" fill="#5938e2" /><circle cx="199.2" cy="304.9" r="4" fill="#5938e2" /><circle cx="206.7" cy="304.9" r="4" fill="#5938e2" /><circle cx="214.1" cy="304.9" r="4" fill="#5938e2" /><circle cx="221.6" cy="304.9" r="4" fill="#5938e2" /><circle cx="229.0" cy="304.9" r="4" fill="#5938e2" /><circle cx="236.5" cy="304.9" r="4" fill="#5938e2" /><circle cx="243.9" cy="304.9" r="4" fill="#5938e2" /><circle cx="251.4" cy="304.9" r="4" fill="#5938e2" /><circle cx="258.8" cy="304.9" r="4" fill="#5938e2" /><circle cx="266.3" cy="304.9" r="4" fill="#5938e2" /><circle cx="273.7" cy="304.9" r="4" fill="#5938e2" /><circle cx="281.2" cy="304.9" r="4" fill="#5938e2" /><circle cx="288.6" cy="304.9" r="4" fill="#5938e2" /><circle cx="296.1" cy="304.9" r="4" fill="#5938e2" /><circle cx="303.5" cy="304.9" r="4" fill="#5938e2" /><circle cx="311.0" cy="304.9" r="4" fill="#5938e2" /><circle cx="318.4" cy="304.9" r="4" fill="#5938e2" /><circle cx="325.9" cy="304.9" r="4" fill="#5938e2" /><circle cx="333.3" cy="304.9" r="4" fill="#5938e2" /><circle cx="340.8" cy="304.9" r="4" fill="#5938e2" /><circle cx="348.2" cy="304.9" r="4" fill="#5938e2" /><circle cx="355.7" cy="303.6" r="4" fill="#5938e2" /><circle cx="363.1" cy="303.6" r="4" fill="#5938e2" /><circle cx="370.6" cy="303.6" r="4" fill="#5938e2" /><circle cx="378.0" cy="303.6" r="4" fill="#5938e2" /><circle cx="385.5" cy="303.6" r="4" fill="#5938e2" /><circle cx="392.9" cy="303.6" r="4" fill="#5938e2" /><circle cx="400.4" cy="303.6" r="4" fill="#5938e2" /><circle cx="407.8" cy="303.6" r="4" fill="#5938e2" /><circle cx="415.3" cy="303.6" r="4" fill="#5938e2" /><circle cx="422.7" cy="303.6" r="4" fill="#5938e2" /><circle cx="430.2" cy="303.6" r="4" fill="#5938e2" /><circle cx="437.6" cy="303.6" r="4" fill="#5938e2" /><circle cx="445.1" cy="303.6" r="4" fill="#5938e2" /><circle cx="452.5" cy="303.6" r="4" fill="#5938e2" /><circle cx="460.0" cy="302.9" r="4" fill="#5938e2" /><circle cx="467.5" cy="302.9" r="4" fill="#5938e2" /><circle cx="474.9" cy="298.0" r="4" fill="#5938e2" /><circle cx="482.4" cy="298.0" r="4" fill="#5938e2" /><circle cx="489.8" cy="298.0" r="4" fill="#5938e2" /><circle cx="497.3" cy="298.0" r="4" fill="#5938e2" /><circle cx="504.7" cy="298.0" r="4" fill="#5938e2" /><circle cx="512.2" cy="298.0" r="4" fill="#5938e2" /><circle cx="519.6" cy="298.0" r="4" fill="#5938e2" /><circle cx="527.1" cy="298.0" r="4" fill="#5938e2" /><circle cx="534.5" cy="298.0" r="4" fill="#5938e2" /><circle cx="542.0" cy="298.0" r="4" fill="#5938e2" /><circle cx="549.4" cy="298.0" r="4" fill="#5938e2" /><circle cx="556.9" cy="298.0" r="4" fill="#5938e2" /><circle cx="564.3" cy="298.0" r="4" fill="#5938e2" /><circle cx="571.8" cy="298.0" r="4" fill="#5938e2" /><circle cx="579.2" cy="297.8" r="4" fill="#5938e2" /><circle cx="586.7" cy="297.8" r="4" fill="#5938e2" /><circle cx="594.1" cy="297.8" r="4" fill="#5938e2" /><circle cx="601.6" cy="297.8" r="4" fill="#5938e2" /><circle cx="609.0" cy="297.8" r="4" fill="#5938e2" /><circle cx="616.5" cy="297.8" r="4" fill="#5938e2" /><circle cx="623.9" cy="297.8" r="4" fill="#5938e2" /><circle cx="631.4" cy="297.8" r="4" fill="#5938e2" /><circle cx="638.8" cy="297.8" r="4" fill="#5938e2" /><circle cx="646.3" cy="297.8" r="4" fill="#5938e2" /><circle cx="653.7" cy="297.8" r="4" fill="#5938e2" /><circle cx="661.2" cy="297.8" r="4" fill="#5938e2" /><circle cx="668.6" cy="297.8" r="4" fill="#5938e2" /><circle cx="676.1" cy="297.8" r="4" fill="#5938e2" /><circle cx="683.5" cy="297.8" r="4" fill="#5938e2" /><circle cx="691.0" cy="297.8" r="4" fill="#5938e2" /><circle cx="698.4" cy="297.8" r="4" fill="#5938e2" /><circle cx="705.9" cy="297.8" r="4" fill="#5938e2" /><circle cx="713.3" cy="297.8" r="4" fill="#5938e2" /><circle cx="720.8" cy="297.6" r="4" fill="#5938e2" /><circle cx="728.2" cy="297.8" r="4" fill="#5938e2" /><circle cx="735.7" cy="297.8" r="4" fill="#5938e2" /><circle cx="743.1" cy="297.8" r="4" fill="#5938e2" /><circle cx="750.6" cy="297.9" r="4" fill="#5938e2" /><circle cx="758.0" cy="297.9" r="4" fill="#5938e2" /><circle cx="765.5" cy="297.9" r="4" fill="#5938e2" /><circle cx="772.9" cy="296.1" r="4" fill="#5938e2" /><circle cx="780.4" cy="296.1" r="4" fill="#5938e2" /><circle cx="787.8" cy="296.1" r="4" fill="#5938e2" /><circle cx="795.3" cy="296.1" r="4" fill="#5938e2" /><circle cx="802.7" cy="296.1" r="4" fill="#5938e2" /><circle cx="810.2" cy="296.1" r="4" fill="#5938e2" /><circle cx="817.6" cy="296.1" r="4" fill="#5938e2" /><circle cx="825.1" cy="296.1" r="4" fill="#5938e2" /><circle cx="832.5" cy="296.1" r="4" fill="#5938e2" /><circle cx="840.0" cy="296.1" r="4" fill="#5938e2" /><polyline points="80.0,144.6 87.5,140.1 94.9,139.9 102.4,139.8 109.8,139.8 117.3,139.6 124.7,139.6 132.2,139.6 139.6,139.6 147.1,139.6 154.5,138.4 162.0,138.4 169.4,138.4 176.9,138.4 184.3,138.4 191.8,138.4 199.2,138.4 206.7,137.4 214.1,137.4 221.6,137.4 229.0,137.4 236.5,137.4 243.9,137.4 251.4,137.4 258.8,137.4 266.3,137.4 273.7,137.4 281.2,137.4 288.6,131.2 296.1,131.2 303.5,130.8 311.0,130.4 318.4,126.9 325.9,126.9 333.3,126.9 340.8,126.9 348.2,126.9 355.7,126.9 363.1,126.9 370.6,126.9 378.0,126.9 385.5,126.8 392.9,122.1 400.4,120.4 407.8,120.4 415.3,120.4 422.7,120.4 430.2,120.4 437.6,119.4 445.1,119.4 452.5,119.4 460.0,119.4 467.5,119.1 474.9,118.8 482.4,118.8 489.8,117.8 497.3,117.8 504.7,117.8 512.2,115.8 519.6,115.8 527.1,115.0 534.5,115.0 542.0,115.0 549.4,115.0 556.9,115.0 564.3,115.0 571.8,115.0 579.2,113.9 586.7,111.8 594.1,111.8 601.6,111.8 609.0,111.8 616.5,111.8 623.9,111.8 631.4,111.8 638.8,111.8 646.3,111.8 653.7,111.8 661.2,110.6 668.6,110.6 676.1,110.6 683.5,110.6 691.0,110.6 698.4,109.4 705.9,109.4 713.3,109.4 720.8,109.4 728.2,109.2 735.7,109.2 743.1,109.2 750.6,109.2 758.0,109.2 765.5,109.2 772.9,109.2 780.4,109.2 787.8,109.2 795.3,109.2 802.7,109.2 810.2,109.2 817.6,109.2 825.1,109.2 832.5,109.2 840.0,109.1" fill="none" stroke="#60e5e0" stroke-width="2.5" stroke-linecap="round" stroke-linejoin="round" /><circle cx="80.0" cy="144.6" r="4" fill="#60e5e0" /><circle cx="87.5" cy="140.1" r="4" fill="#60e5e0" /><circle cx="94.9" cy="139.9" r="4" fill="#60e5e0" /><circle cx="102.4" cy="139.8" r="4" fill="#60e5e0" /><circle cx="109.8" cy="139.8" r="4" fill="#60e5e0" /><circle cx="117.3" cy="139.6" r="4" fill="#60e5e0" /><circle cx="124.7" cy="139.6" r="4" fill="#60e5e0" /><circle cx="132.2" cy="139.6" r="4" fill="#60e5e0" /><circle cx="139.6" cy="139.6" r="4" fill="#60e5e0" /><circle cx="147.1" cy="139.6" r="4" fill="#60e5e0" /><circle cx="154.5" cy="138.4" r="4" fill="#60e5e0" /><circle cx="162.0" cy="138.4" r="4" fill="#60e5e0" /><circle cx="169.4" cy="138.4" r="4" fill="#60e5e0" /><circle cx="176.9" cy="138.4" r="4" fill="#60e5e0" /><circle cx="184.3" cy="138.4" r="4" fill="#60e5e0" /><circle cx="191.8" cy="138.4" r="4" fill="#60e5e0" /><circle cx="199.2" cy="138.4" r="4" fill="#60e5e0" /><circle cx="206.7" cy="137.4" r="4" fill="#60e5e0" /><circle cx="214.1" cy="137.4" r="4" fill="#60e5e0" /><circle cx="221.6" cy="137.4" r="4" fill="#60e5e0" /><circle cx="229.0" cy="137.4" r="4" fill="#60e5e0" /><circle cx="236.5" cy="137.4" r="4" fill="#60e5e0" /><circle cx="243.9" cy="137.4" r="4" fill="#60e5e0" /><circle cx="251.4" cy="137.4" r="4" fill="#60e5e0" /><circle cx="258.8" cy="137.4" r="4" fill="#60e5e0" /><circle cx="266.3" cy="137.4" r="4" fill="#60e5e0" /><circle cx="273.7" cy="137.4" r="4" fill="#60e5e0" /><circle cx="281.2" cy="137.4" r="4" fill="#60e5e0" /><circle cx="288.6" cy="131.2" r="4" fill="#60e5e0" /><circle cx="296.1" cy="131.2" r="4" fill="#60e5e0" /><circle cx="303.5" cy="130.8" r="4" fill="#60e5e0" /><circle cx="311.0" cy="130.4" r="4" fill="#60e5e0" /><circle cx="318.4" cy="126.9" r="4" fill="#60e5e0" /><circle cx="325.9" cy="126.9" r="4" fill="#60e5e0" /><circle cx="333.3" cy="126.9" r="4" fill="#60e5e0" /><circle cx="340.8" cy="126.9" r="4" fill="#60e5e0" /><circle cx="348.2" cy="126.9" r="4" fill="#60e5e0" /><circle cx="355.7" cy="126.9" r="4" fill="#60e5e0" /><circle cx="363.1" cy="126.9" r="4" fill="#60e5e0" /><circle cx="370.6" cy="126.9" r="4" fill="#60e5e0" /><circle cx="378.0" cy="126.9" r="4" fill="#60e5e0" /><circle cx="385.5" cy="126.8" r="4" fill="#60e5e0" /><circle cx="392.9" cy="122.1" r="4" fill="#60e5e0" /><circle cx="400.4" cy="120.4" r="4" fill="#60e5e0" /><circle cx="407.8" cy="120.4" r="4" fill="#60e5e0" /><circle cx="415.3" cy="120.4" r="4" fill="#60e5e0" /><circle cx="422.7" cy="120.4" r="4" fill="#60e5e0" /><circle cx="430.2" cy="120.4" r="4" fill="#60e5e0" /><circle cx="437.6" cy="119.4" r="4" fill="#60e5e0" /><circle cx="445.1" cy="119.4" r="4" fill="#60e5e0" /><circle cx="452.5" cy="119.4" r="4" fill="#60e5e0" /><circle cx="460.0" cy="119.4" r="4" fill="#60e5e0" /><circle cx="467.5" cy="119.1" r="4" fill="#60e5e0" /><circle cx="474.9" cy="118.8" r="4" fill="#60e5e0" /><circle cx="482.4" cy="118.8" r="4" fill="#60e5e0" /><circle cx="489.8" cy="117.8" r="4" fill="#60e5e0" /><circle cx="497.3" cy="117.8" r="4" fill="#60e5e0" /><circle cx="504.7" cy="117.8" r="4" fill="#60e5e0" /><circle cx="512.2" cy="115.8" r="4" fill="#60e5e0" /><circle cx="519.6" cy="115.8" r="4" fill="#60e5e0" /><circle cx="527.1" cy="115.0" r="4" fill="#60e5e0" /><circle cx="534.5" cy="115.0" r="4" fill="#60e5e0" /><circle cx="542.0" cy="115.0" r="4" fill="#60e5e0" /><circle cx="549.4" cy="115.0" r="4" fill="#60e5e0" /><circle cx="556.9" cy="115.0" r="4" fill="#60e5e0" /><circle cx="564.3" cy="115.0" r="4" fill="#60e5e0" /><circle cx="571.8" cy="115.0" r="4" fill="#60e5e0" /><circle cx="579.2" cy="113.9" r="4" fill="#60e5e0" /><circle cx="586.7" cy="111.8" r="4" fill="#60e5e0" /><circle cx="594.1" cy="111.8" r="4" fill="#60e5e0" /><circle cx="601.6" cy="111.8" r="4" fill="#60e5e0" /><circle cx="609.0" cy="111.8" r="4" fill="#60e5e0" /><circle cx="616.5" cy="111.8" r="4" fill="#60e5e0" /><circle cx="623.9" cy="111.8" r="4" fill="#60e5e0" /><circle cx="631.4" cy="111.8" r="4" fill="#60e5e0" /><circle cx="638.8" cy="111.8" r="4" fill="#60e5e0" /><circle cx="646.3" cy="111.8" r="4" fill="#60e5e0" /><circle cx="653.7" cy="111.8" r="4" fill="#60e5e0" /><circle cx="661.2" cy="110.6" r="4" fill="#60e5e0" /><circle cx="668.6" cy="110.6" r="4" fill="#60e5e0" /><circle cx="676.1" cy="110.6" r="4" fill="#60e5e0" /><circle cx="683.5" cy="110.6" r="4" fill="#60e5e0" /><circle cx="691.0" cy="110.6" r="4" fill="#60e5e0" /><circle cx="698.4" cy="109.4" r="4" fill="#60e5e0" /><circle cx="705.9" cy="109.4" r="4" fill="#60e5e0" /><circle cx="713.3" cy="109.4" r="4" fill="#60e5e0" /><circle cx="720.8" cy="109.4" r="4" fill="#60e5e0" /><circle cx="728.2" cy="109.2" r="4" fill="#60e5e0" /><circle cx="735.7" cy="109.2" r="4" fill="#60e5e0" /><circle cx="743.1" cy="109.2" r="4" fill="#60e5e0" /><circle cx="750.6" cy="109.2" r="4" fill="#60e5e0" /><circle cx="758.0" cy="109.2" r="4" fill="#60e5e0" /><circle cx="765.5" cy="109.2" r="4" fill="#60e5e0" /><circle cx="772.9" cy="109.2" r="4" fill="#60e5e0" /><circle cx="780.4" cy="109.2" r="4" fill="#60e5e0" /><circle cx="787.8" cy="109.2" r="4" fill="#60e5e0" /><circle cx="795.3" cy="109.2" r="4" fill="#60e5e0" /><circle cx="802.7" cy="109.2" r="4" fill="#60e5e0" /><circle cx="810.2" cy="109.2" r="4" fill="#60e5e0" /><circle cx="817.6" cy="109.2" r="4" fill="#60e5e0" /><circle cx="825.1" cy="109.2" r="4" fill="#60e5e0" /><circle cx="832.5" cy="109.2" r="4" fill="#60e5e0" /><circle cx="840.0" cy="109.1" r="4" fill="#60e5e0" /><polyline points="80.0,314.6 87.5,314.4 94.9,314.2 102.4,314.2 109.8,314.2 117.3,314.1 124.7,314.1 132.2,314.1 139.6,314.1 147.1,314.1 154.5,314.0 162.0,314.0 169.4,314.0 176.9,314.0 184.3,314.0 191.8,314.0 199.2,314.0 206.7,314.0 214.1,314.0 221.6,314.0 229.0,314.0 236.5,314.0 243.9,314.0 251.4,314.0 258.8,314.0 266.3,314.0 273.7,314.0 281.2,314.0 288.6,314.0 296.1,314.0 303.5,314.0 311.0,314.0 318.4,314.0 325.9,314.0 333.3,314.0 340.8,314.0 348.2,314.0 355.7,314.0 363.1,314.0 370.6,314.0 378.0,314.0 385.5,313.9 392.9,313.6 400.4,313.4 407.8,313.4 415.3,313.4 422.7,313.4 430.2,313.4 437.6,313.1 445.1,313.1 452.5,313.1 460.0,313.1 467.5,313.1 474.9,313.0 482.4,313.0 489.8,312.9 497.3,312.9 504.7,312.9 512.2,312.8 519.6,312.8 527.1,312.6 534.5,312.6 542.0,312.6 549.4,312.6 556.9,312.6 564.3,312.6 571.8,312.6 579.2,312.5 586.7,312.1 594.1,312.1 601.6,312.1 609.0,312.1 616.5,312.1 623.9,312.1 631.4,312.1 638.8,312.1 646.3,312.1 653.7,312.1 661.2,312.0 668.6,312.0 676.1,312.0 683.5,312.0 691.0,312.0 698.4,312.0 705.9,312.0 713.3,312.0 720.8,312.0 728.2,312.0 735.7,312.0 743.1,312.0 750.6,312.0 758.0,312.0 765.5,312.0 772.9,312.0 780.4,312.0 787.8,312.0 795.3,312.0 802.7,312.0 810.2,312.0 817.6,312.0 825.1,312.0 832.5,312.0 840.0,312.0" fill="none" stroke="#567de1" stroke-width="2.5" stroke-linecap="round" stroke-linejoin="round" /><circle cx="80.0" cy="314.6" r="4" fill="#567de1" /><circle cx="87.5" cy="314.4" r="4" fill="#567de1" /><circle cx="94.9" cy="314.2" r="4" fill="#567de1" /><circle cx="102.4" cy="314.2" r="4" fill="#567de1" /><circle cx="109.8" cy="314.2" r="4" fill="#567de1" /><circle cx="117.3" cy="314.1" r="4" fill="#567de1" /><circle cx="124.7" cy="314.1" r="4" fill="#567de1" /><circle cx="132.2" cy="314.1" r="4" fill="#567de1" /><circle cx="139.6" cy="314.1" r="4" fill="#567de1" /><circle cx="147.1" cy="314.1" r="4" fill="#567de1" /><circle cx="154.5" cy="314.0" r="4" fill="#567de1" /><circle cx="162.0" cy="314.0" r="4" fill="#567de1" /><circle cx="169.4" cy="314.0" r="4" fill="#567de1" /><circle cx="176.9" cy="314.0" r="4" fill="#567de1" /><circle cx="184.3" cy="314.0" r="4" fill="#567de1" /><circle cx="191.8" cy="314.0" r="4" fill="#567de1" /><circle cx="199.2" cy="314.0" r="4" fill="#567de1" /><circle cx="206.7" cy="314.0" r="4" fill="#567de1" /><circle cx="214.1" cy="314.0" r="4" fill="#567de1" /><circle cx="221.6" cy="314.0" r="4" fill="#567de1" /><circle cx="229.0" cy="314.0" r="4" fill="#567de1" /><circle cx="236.5" cy="314.0" r="4" fill="#567de1" /><circle cx="243.9" cy="314.0" r="4" fill="#567de1" /><circle cx="251.4" cy="314.0" r="4" fill="#567de1" /><circle cx="258.8" cy="314.0" r="4" fill="#567de1" /><circle cx="266.3" cy="314.0" r="4" fill="#567de1" /><circle cx="273.7" cy="314.0" r="4" fill="#567de1" /><circle cx="281.2" cy="314.0" r="4" fill="#567de1" /><circle cx="288.6" cy="314.0" r="4" fill="#567de1" /><circle cx="296.1" cy="314.0" r="4" fill="#567de1" /><circle cx="303.5" cy="314.0" r="4" fill="#567de1" /><circle cx="311.0" cy="314.0" r="4" fill="#567de1" /><circle cx="318.4" cy="314.0" r="4" fill="#567de1" /><circle cx="325.9" cy="314.0" r="4" fill="#567de1" /><circle cx="333.3" cy="314.0" r="4" fill="#567de1" /><circle cx="340.8" cy="314.0" r="4" fill="#567de1" /><circle cx="348.2" cy="314.0" r="4" fill="#567de1" /><circle cx="355.7" cy="314.0" r="4" fill="#567de1" /><circle cx="363.1" cy="314.0" r="4" fill="#567de1" /><circle cx="370.6" cy="314.0" r="4" fill="#567de1" /><circle cx="378.0" cy="314.0" r="4" fill="#567de1" /><circle cx="385.5" cy="313.9" r="4" fill="#567de1" /><circle cx="392.9" cy="313.6" r="4" fill="#567de1" /><circle cx="400.4" cy="313.4" r="4" fill="#567de1" /><circle cx="407.8" cy="313.4" r="4" fill="#567de1" /><circle cx="415.3" cy="313.4" r="4" fill="#567de1" /><circle cx="422.7" cy="313.4" r="4" fill="#567de1" /><circle cx="430.2" cy="313.4" r="4" fill="#567de1" /><circle cx="437.6" cy="313.1" r="4" fill="#567de1" /><circle cx="445.1" cy="313.1" r="4" fill="#567de1" /><circle cx="452.5" cy="313.1" r="4" fill="#567de1" /><circle cx="460.0" cy="313.1" r="4" fill="#567de1" /><circle cx="467.5" cy="313.1" r="4" fill="#567de1" /><circle cx="474.9" cy="313.0" r="4" fill="#567de1" /><circle cx="482.4" cy="313.0" r="4" fill="#567de1" /><circle cx="489.8" cy="312.9" r="4" fill="#567de1" /><circle cx="497.3" cy="312.9" r="4" fill="#567de1" /><circle cx="504.7" cy="312.9" r="4" fill="#567de1" /><circle cx="512.2" cy="312.8" r="4" fill="#567de1" /><circle cx="519.6" cy="312.8" r="4" fill="#567de1" /><circle cx="527.1" cy="312.6" r="4" fill="#567de1" /><circle cx="534.5" cy="312.6" r="4" fill="#567de1" /><circle cx="542.0" cy="312.6" r="4" fill="#567de1" /><circle cx="549.4" cy="312.6" r="4" fill="#567de1" /><circle cx="556.9" cy="312.6" r="4" fill="#567de1" /><circle cx="564.3" cy="312.6" r="4" fill="#567de1" /><circle cx="571.8" cy="312.6" r="4" fill="#567de1" /><circle cx="579.2" cy="312.5" r="4" fill="#567de1" /><circle cx="586.7" cy="312.1" r="4" fill="#567de1" /><circle cx="594.1" cy="312.1" r="4" fill="#567de1" /><circle cx="601.6" cy="312.1" r="4" fill="#567de1" /><circle cx="609.0" cy="312.1" r="4" fill="#567de1" /><circle cx="616.5" cy="312.1" r="4" fill="#567de1" /><circle cx="623.9" cy="312.1" r="4" fill="#567de1" /><circle cx="631.4" cy="312.1" r="4" fill="#567de1" /><circle cx="638.8" cy="312.1" r="4" fill="#567de1" /><circle cx="646.3" cy="312.1" r="4" fill="#567de1" /><circle cx="653.7" cy="312.1" r="4" fill="#567de1" /><circle cx="661.2" cy="312.0" r="4" fill="#567de1" /><circle cx="668.6" cy="312.0" r="4" fill="#567de1" /><circle cx="676.1" cy="312.0" r="4" fill="#567de1" /><circle cx="683.5" cy="312.0" r="4" fill="#567de1" /><circle cx="691.0" cy="312.0" r="4" fill="#567de1" /><circle cx="698.4" cy="312.0" r="4" fill="#567de1" /><circle cx="705.9" cy="312.0" r="4" fill="#567de1" /><circle cx="713.3" cy="312.0" r="4" fill="#567de1" /><circle cx="720.8" cy="312.0" r="4" fill="#567de1" /><circle cx="728.2" cy="312.0" r="4" fill="#567de1" /><circle cx="735.7" cy="312.0" r="4" fill="#567de1" /><circle cx="743.1" cy="312.0" r="4" fill="#567de1" /><circle cx="750.6" cy="312.0" r="4" fill="#567de1" /><circle cx="758.0" cy="312.0" r="4" fill="#567de1" /><circle cx="765.5" cy="312.0" r="4" fill="#567de1" /><circle cx="772.9" cy="312.0" r="4" fill="#567de1" /><circle cx="780.4" cy="312.0" r="4" fill="#567de1" /><circle cx="787.8" cy="312.0" r="4" fill="#567de1" /><circle cx="795.3" cy="312.0" r="4" fill="#567de1" /><circle cx="802.7" cy="312.0" r="4" fill="#567de1" /><circle cx="810.2" cy="312.0" r="4" fill="#567de1" /><circle cx="817.6" cy="312.0" r="4" fill="#567de1" /><circle cx="825.1" cy="312.0" r="4" fill="#567de1" /><circle cx="832.5" cy="312.0" r="4" fill="#567de1" /><circle cx="840.0" cy="312.0" r="4" fill="#567de1" /><polyline points="80.0,303.9 87.5,304.2 94.9,304.4 102.4,304.4 109.8,304.4 117.3,304.4 124.7,304.4 132.2,304.4 139.6,304.4 147.1,304.4 154.5,304.4 162.0,304.4 169.4,304.4 176.9,304.4 184.3,304.4 191.8,304.4 199.2,304.4 206.7,304.4 214.1,304.4 221.6,304.4 229.0,304.4 236.5,304.4 243.9,304.4 251.4,304.4 258.8,304.4 266.3,304.4 273.7,304.4 281.2,304.4 288.6,299.1 296.1,299.1 303.5,299.1 311.0,298.9 318.4,295.6 325.9,295.6 333.3,295.6 340.8,295.6 348.2,295.6 355.7,295.6 363.1,295.6 370.6,295.6 378.0,295.6 385.5,295.8 392.9,295.9 400.4,295.9 407.8,295.9 415.3,295.9 422.7,295.9 430.2,295.9 437.6,295.9 445.1,295.9 452.5,295.9 460.0,295.9 467.5,295.9 474.9,295.9 482.4,295.9 489.8,295.9 497.3,295.9 504.7,295.9 512.2,295.8 519.6,295.8 527.1,295.9 534.5,295.9 542.0,295.9 549.4,295.9 556.9,295.9 564.3,295.9 571.8,295.9 579.2,296.0 586.7,296.4 594.1,296.4 601.6,296.4 609.0,296.4 616.5,296.4 623.9,296.4 631.4,296.4 638.8,296.4 646.3,296.4 653.7,296.4 661.2,296.5 668.6,296.5 676.1,296.5 683.5,296.5 691.0,296.5 698.4,296.5 705.9,296.5 713.3,296.5 720.8,296.5 728.2,296.5 735.7,296.5 743.1,296.5 750.6,296.5 758.0,296.5 765.5,296.5 772.9,296.5 780.4,296.5 787.8,296.5 795.3,296.5 802.7,296.5 810.2,296.5 817.6,296.5 825.1,296.5 832.5,296.5 840.0,296.5" fill="none" stroke="#9754dd" stroke-width="2.5" stroke-linecap="round" stroke-linejoin="round" /><circle cx="80.0" cy="303.9" r="4" fill="#9754dd" /><circle cx="87.5" cy="304.2" r="4" fill="#9754dd" /><circle cx="94.9" cy="304.4" r="4" fill="#9754dd" /><circle cx="102.4" cy="304.4" r="4" fill="#9754dd" /><circle cx="109.8" cy="304.4" r="4" fill="#9754dd" /><circle cx="117.3" cy="304.4" r="4" fill="#9754dd" /><circle cx="124.7" cy="304.4" r="4" fill="#9754dd" /><circle cx="132.2" cy="304.4" r="4" fill="#9754dd" /><circle cx="139.6" cy="304.4" r="4" fill="#9754dd" /><circle cx="147.1" cy="304.4" r="4" fill="#9754dd" /><circle cx="154.5" cy="304.4" r="4" fill="#9754dd" /><circle cx="162.0" cy="304.4" r="4" fill="#9754dd" /><circle cx="169.4" cy="304.4" r="4" fill="#9754dd" /><circle cx="176.9" cy="304.4" r="4" fill="#9754dd" /><circle cx="184.3" cy="304.4" r="4" fill="#9754dd" /><circle cx="191.8" cy="304.4" r="4" fill="#9754dd" /><circle cx="199.2" cy="304.4" r="4" fill="#9754dd" /><circle cx="206.7" cy="304.4" r="4" fill="#9754dd" /><circle cx="214.1" cy="304.4" r="4" fill="#9754dd" /><circle cx="221.6" cy="304.4" r="4" fill="#9754dd" /><circle cx="229.0" cy="304.4" r="4" fill="#9754dd" /><circle cx="236.5" cy="304.4" r="4" fill="#9754dd" /><circle cx="243.9" cy="304.4" r="4" fill="#9754dd" /><circle cx="251.4" cy="304.4" r="4" fill="#9754dd" /><circle cx="258.8" cy="304.4" r="4" fill="#9754dd" /><circle cx="266.3" cy="304.4" r="4" fill="#9754dd" /><circle cx="273.7" cy="304.4" r="4" fill="#9754dd" /><circle cx="281.2" cy="304.4" r="4" fill="#9754dd" /><circle cx="288.6" cy="299.1" r="4" fill="#9754dd" /><circle cx="296.1" cy="299.1" r="4" fill="#9754dd" /><circle cx="303.5" cy="299.1" r="4" fill="#9754dd" /><circle cx="311.0" cy="298.9" r="4" fill="#9754dd" /><circle cx="318.4" cy="295.6" r="4" fill="#9754dd" /><circle cx="325.9" cy="295.6" r="4" fill="#9754dd" /><circle cx="333.3" cy="295.6" r="4" fill="#9754dd" /><circle cx="340.8" cy="295.6" r="4" fill="#9754dd" /><circle cx="348.2" cy="295.6" r="4" fill="#9754dd" /><circle cx="355.7" cy="295.6" r="4" fill="#9754dd" /><circle cx="363.1" cy="295.6" r="4" fill="#9754dd" /><circle cx="370.6" cy="295.6" r="4" fill="#9754dd" /><circle cx="378.0" cy="295.6" r="4" fill="#9754dd" /><circle cx="385.5" cy="295.8" r="4" fill="#9754dd" /><circle cx="392.9" cy="295.9" r="4" fill="#9754dd" /><circle cx="400.4" cy="295.9" r="4" fill="#9754dd" /><circle cx="407.8" cy="295.9" r="4" fill="#9754dd" /><circle cx="415.3" cy="295.9" r="4" fill="#9754dd" /><circle cx="422.7" cy="295.9" r="4" fill="#9754dd" /><circle cx="430.2" cy="295.9" r="4" fill="#9754dd" /><circle cx="437.6" cy="295.9" r="4" fill="#9754dd" /><circle cx="445.1" cy="295.9" r="4" fill="#9754dd" /><circle cx="452.5" cy="295.9" r="4" fill="#9754dd" /><circle cx="460.0" cy="295.9" r="4" fill="#9754dd" /><circle cx="467.5" cy="295.9" r="4" fill="#9754dd" /><circle cx="474.9" cy="295.9" r="4" fill="#9754dd" /><circle cx="482.4" cy="295.9" r="4" fill="#9754dd" /><circle cx="489.8" cy="295.9" r="4" fill="#9754dd" /><circle cx="497.3" cy="295.9" r="4" fill="#9754dd" /><circle cx="504.7" cy="295.9" r="4" fill="#9754dd" /><circle cx="512.2" cy="295.8" r="4" fill="#9754dd" /><circle cx="519.6" cy="295.8" r="4" fill="#9754dd" /><circle cx="527.1" cy="295.9" r="4" fill="#9754dd" /><circle cx="534.5" cy="295.9" r="4" fill="#9754dd" /><circle cx="542.0" cy="295.9" r="4" fill="#9754dd" /><circle cx="549.4" cy="295.9" r="4" fill="#9754dd" /><circle cx="556.9" cy="295.9" r="4" fill="#9754dd" /><circle cx="564.3" cy="295.9" r="4" fill="#9754dd" /><circle cx="571.8" cy="295.9" r="4" fill="#9754dd" /><circle cx="579.2" cy="296.0" r="4" fill="#9754dd" /><circle cx="586.7" cy="296.4" r="4" fill="#9754dd" /><circle cx="594.1" cy="296.4" r="4" fill="#9754dd" /><circle cx="601.6" cy="296.4" r="4" fill="#9754dd" /><circle cx="609.0" cy="296.4" r="4" fill="#9754dd" /><circle cx="616.5" cy="296.4" r="4" fill="#9754dd" /><circle cx="623.9" cy="296.4" r="4" fill="#9754dd" /><circle cx="631.4" cy="296.4" r="4" fill="#9754dd" /><circle cx="638.8" cy="296.4" r="4" fill="#9754dd" /><circle cx="646.3" cy="296.4" r="4" fill="#9754dd" /><circle cx="653.7" cy="296.4" r="4" fill="#9754dd" /><circle cx="661.2" cy="296.5" r="4" fill="#9754dd" /><circle cx="668.6" cy="296.5" r="4" fill="#9754dd" /><circle cx="676.1" cy="296.5" r="4" fill="#9754dd" /><circle cx="683.5" cy="296.5" r="4" fill="#9754dd" /><circle cx="691.0" cy="296.5" r="4" fill="#9754dd" /><circle cx="698.4" cy="296.5" r="4" fill="#9754dd" /><circle cx="705.9" cy="296.5" r="4" fill="#9754dd" /><circle cx="713.3" cy="296.5" r="4" fill="#9754dd" /><circle cx="720.8" cy="296.5" r="4" fill="#9754dd" /><circle cx="728.2" cy="296.5" r="4" fill="#9754dd" /><circle cx="735.7" cy="296.5" r="4" fill="#9754dd" /><circle cx="743.1" cy="296.5" r="4" fill="#9754dd" /><circle cx="750.6" cy="296.5" r="4" fill="#9754dd" /><circle cx="758.0" cy="296.5" r="4" fill="#9754dd" /><circle cx="765.5" cy="296.5" r="4" fill="#9754dd" /><circle cx="772.9" cy="296.5" r="4" fill="#9754dd" /><circle cx="780.4" cy="296.5" r="4" fill="#9754dd" /><circle cx="787.8" cy="296.5" r="4" fill="#9754dd" /><circle cx="795.3" cy="296.5" r="4" fill="#9754dd" /><circle cx="802.7" cy="296.5" r="4" fill="#9754dd" /><circle cx="810.2" cy="296.5" r="4" fill="#9754dd" /><circle cx="817.6" cy="296.5" r="4" fill="#9754dd" /><circle cx="825.1" cy="296.5" r="4" fill="#9754dd" /><circle cx="832.5" cy="296.5" r="4" fill="#9754dd" /><circle cx="840.0" cy="296.5" r="4" fill="#9754dd" />
  <rect x="80" y="339" width="10" height="10" rx="2" ry="2" fill="#19e5a1" /><text x="96" y="348" class="legend-label">Stars</text><rect x="250" y="339" width="10" height="10" rx="2" ry="2" fill="#6eb6ec" /><text x="266" y="348" class="legend-label">Followers</text><rect x="420" y="339" width="10" height="10" rx="2" ry="2" fill="#5938e2" /><text x="436" y="348" class="legend-label">Following</text><rect x="590" y="339" width="10" height="10" rx="2" ry="2" fill="#60e5e0" /><text x="606" y="348" class="legend-label">Contributions</text><rect x="80" y="357" width="10" height="10" rx="2" ry="2" fill="#567de1" /><text x="96" y="366" class="legend-label">Pull Requests</text><rect x="250" y="357" width="10" height="10" rx="2" ry="2" fill="#9754dd" /><text x="266" y="366" class="legend-label">Issues</text>
</svg>
