<svg width="900" height="402" viewBox="0 0 900 402" xmlns="http://www.w3.org/2000/svg">
  <defs>
    <linearGradient id="history-gradient" x1="0%" y1="0%" x2="100%" y2="100%">
      <stop offset="0%" style="stop-color:#58a6ff;stop-opacity:1" />
      <stop offset="100%" style="stop-color:#a371f7;stop-opacity:1" />
    </linearGradient>
    <clipPath id="history-rounded">
      <rect x="0" y="0" width="900" height="402" rx="8" ry="8" />
    </clipPath>
  </defs>
  <style>
    .title {
      font-family: 'Segoe UI', Ubuntu, 'Helvetica Neue', sans-serif;
      font-size: 22px;
      font-weight: 700;
      fill: #58a6ff;
    }
    .subtitle {
      font-family: 'Segoe UI', Ubuntu, 'Helvetica Neue', sans-serif;
      font-size: 12px;
      font-weight: 500;
      fill: #8b949e;
    }
    .axis-label {
      font-family: 'Segoe UI', Ubuntu, 'Helvetica Neue', sans-serif;
      font-size: 10px;
      fill: #8b949e;
    }
    .grid-line {
      stroke: #30363d;
      stroke-width: 1;
      opacity: 0.3;
    }
    .legend-label {
      font-family: 'Segoe UI', Ubuntu, 'Helvetica Neue', sans-serif;
      font-size: 11px;
      fill: #c9d1d9;
      dominant-baseline: middle;
    }
  </style>
  <rect clip-path="url(#history-rounded)" width="100%" height="100%" fill="#0d1117" stroke="#30363d" stroke-width="1" />
  <rect x="0" y="396" width="900" height="6" fill="url(#history-gradient)" clip-path="url(#history-rounded)" />
  <text x="24" y="34" class="title">Leonardo Klein Stats History</text>
  <text x="24" y="54" class="subtitle">Period: 2026-02-20 to 2026-03-13</text>
  <text x="72" y="320.0" text-anchor="end" dominant-baseline="central" class="axis-label">0</text><text x="72" y="270.0" text-anchor="end" dominant-baseline="central" class="axis-label">400</text><text x="72" y="220.0" text-anchor="end" dominant-baseline="central" class="axis-label">800</text><text x="72" y="170.0" text-anchor="end" dominant-baseline="central" class="axis-label">1.2k</text><text x="72" y="120.0" text-anchor="end" dominant-baseline="central" class="axis-label">1.6k</text><text x="72" y="70.0" text-anchor="end" dominant-baseline="central" class="axis-label">2.0k</text>
  <text x="80.0" y="336" text-anchor="middle" class="axis-label">02-20</text><text x="152.4" y="336" text-anchor="middle" class="axis-label">02-22</text><text x="224.8" y="336" text-anchor="middle" class="axis-label">02-24</text><text x="297.1" y="336" text-anchor="middle" class="axis-label">02-26</text><text x="369.5" y="336" text-anchor="middle" class="axis-label">02-28</text><text x="441.9" y="336" text-anchor="middle" class="axis-label">03-02</text><text x="514.3" y="336" text-anchor="middle" class="axis-label">03-04</text><text x="586.7" y="336" text-anchor="middle" class="axis-label">03-06</text><text x="659.0" y="336" text-anchor="middle" class="axis-label">03-08</text><text x="731.4" y="336" text-anchor="middle" class="axis-label">03-10</text><text x="803.8" y="336" text-anchor="middle" class="axis-label">03-12</text><text x="840.0" y="336" text-anchor="middle" class="axis-label">03-13</text>
  <line x1="80" y1="320.0" x2="840" y2="320.0" class="grid-line" /><line x1="80" y1="270.0" x2="840" y2="270.0" class="grid-line" /><line x1="80" y1="220.0" x2="840" y2="220.0" class="grid-line" /><line x1="80" y1="170.0" x2="840" y2="170.0" class="grid-line" /><line x1="80" y1="120.0" x2="840" y2="120.0" class="grid-line" /><line x1="80" y1="70.0" x2="840" y2="70.0" class="grid-line" />
  <polyline points="80.0,317.0 87.2,317.0 94.5,317.0 101.7,317.0 109.0,317.0 116.2,317.0 123.4,317.0 130.7,317.0 137.9,317.0 145.1,317.0 152.4,317.0 159.6,317.0 166.9,317.0 174.1,317.0 181.3,317.0 188.6,317.0 195.8,317.0 203.0,317.0 210.3,317.0 217.5,317.0 224.8,317.0 232.0,317.0 239.2,317.0 246.5,317.0 253.7,317.0 261.0,317.0 268.2,317.0 275.4,317.0 282.7,317.0 289.9,317.0 297.1,317.0 304.4,317.0 311.6,317.0 318.9,317.0 326.1,317.0 333.3,317.0 340.6,317.0 347.8,317.0 355.0,317.0 362.3,317.0 369.5,317.0 376.8,317.0 384.0,317.0 391.2,317.0 398.5,317.0 405.7,317.0 413.0,317.0 420.2,317.0 427.4,317.0 434.7,317.0 441.9,317.0 449.1,317.0 456.4,317.0 463.6,317.0 470.9,317.0 478.1,317.0 485.3,317.0 492.6,317.0 499.8,317.0 507.0,317.0 514.3,317.0 521.5,317.0 528.8,317.0 536.0,317.0 543.2,317.0 550.5,317.0 557.7,317.0 565.0,317.0 572.2,317.0 579.4,317.0 586.7,317.0 593.9,317.0 601.1,317.0 608.4,317.0 615.6,317.0 622.9,317.0 630.1,317.0 637.3,317.0 644.6,317.0 651.8,317.0 659.0,317.0 666.3,317.0 673.5,317.0 680.8,317.0 688.0,317.0 695.2,317.0 702.5,317.0 709.7,317.0 717.0,317.0 724.2,317.0 731.4,317.0 738.7,317.0 745.9,317.0 753.1,317.0 760.4,317.0 767.6,317.0 774.9,317.0 782.1,317.0 789.3,317.0 796.6,317.0 803.8,317.0 811.0,317.0 818.3,317.0 825.5,317.0 832.8,317.0 840.0,317.0" fill="none" stroke="#19e5a1" stroke-width="2.5" stroke-linecap="round" stroke-linejoin="round" /><circle cx="80.0" cy="317.0" r="4" fill="#19e5a1" /><circle cx="87.2" cy="317.0" r="4" fill="#19e5a1" /><circle cx="94.5" cy="317.0" r="4" fill="#19e5a1" /><circle cx="101.7" cy="317.0" r="4" fill="#19e5a1" /><circle cx="109.0" cy="317.0" r="4" fill="#19e5a1" /><circle cx="116.2" cy="317.0" r="4" fill="#19e5a1" /><circle cx="123.4" cy="317.0" r="4" fill="#19e5a1" /><circle cx="130.7" cy="317.0" r="4" fill="#19e5a1" /><circle cx="137.9" cy="317.0" r="4" fill="#19e5a1" /><circle cx="145.1" cy="317.0" r="4" fill="#19e5a1" /><circle cx="152.4" cy="317.0" r="4" fill="#19e5a1" /><circle cx="159.6" cy="317.0" r="4" fill="#19e5a1" /><circle cx="166.9" cy="317.0" r="4" fill="#19e5a1" /><circle cx="174.1" cy="317.0" r="4" fill="#19e5a1" /><circle cx="181.3" cy="317.0" r="4" fill="#19e5a1" /><circle cx="188.6" cy="317.0" r="4" fill="#19e5a1" /><circle cx="195.8" cy="317.0" r="4" fill="#19e5a1" /><circle cx="203.0" cy="317.0" r="4" fill="#19e5a1" /><circle cx="210.3" cy="317.0" r="4" fill="#19e5a1" /><circle cx="217.5" cy="317.0" r="4" fill="#19e5a1" /><circle cx="224.8" cy="317.0" r="4" fill="#19e5a1" /><circle cx="232.0" cy="317.0" r="4" fill="#19e5a1" /><circle cx="239.2" cy="317.0" r="4" fill="#19e5a1" /><circle cx="246.5" cy="317.0" r="4" fill="#19e5a1" /><circle cx="253.7" cy="317.0" r="4" fill="#19e5a1" /><circle cx="261.0" cy="317.0" r="4" fill="#19e5a1" /><circle cx="268.2" cy="317.0" r="4" fill="#19e5a1" /><circle cx="275.4" cy="317.0" r="4" fill="#19e5a1" /><circle cx="282.7" cy="317.0" r="4" fill="#19e5a1" /><circle cx="289.9" cy="317.0" r="4" fill="#19e5a1" /><circle cx="297.1" cy="317.0" r="4" fill="#19e5a1" /><circle cx="304.4" cy="317.0" r="4" fill="#19e5a1" /><circle cx="311.6" cy="317.0" r="4" fill="#19e5a1" /><circle cx="318.9" cy="317.0" r="4" fill="#19e5a1" /><circle cx="326.1" cy="317.0" r="4" fill="#19e5a1" /><circle cx="333.3" cy="317.0" r="4" fill="#19e5a1" /><circle cx="340.6" cy="317.0" r="4" fill="#19e5a1" /><circle cx="347.8" cy="317.0" r="4" fill="#19e5a1" /><circle cx="355.0" cy="317.0" r="4" fill="#19e5a1" /><circle cx="362.3" cy="317.0" r="4" fill="#19e5a1" /><circle cx="369.5" cy="317.0" r="4" fill="#19e5a1" /><circle cx="376.8" cy="317.0" r="4" fill="#19e5a1" /><circle cx="384.0" cy="317.0" r="4" fill="#19e5a1" /><circle cx="391.2" cy="317.0" r="4" fill="#19e5a1" /><circle cx="398.5" cy="317.0" r="4" fill="#19e5a1" /><circle cx="405.7" cy="317.0" r="4" fill="#19e5a1" /><circle cx="413.0" cy="317.0" r="4" fill="#19e5a1" /><circle cx="420.2" cy="317.0" r="4" fill="#19e5a1" /><circle cx="427.4" cy="317.0" r="4" fill="#19e5a1" /><circle cx="434.7" cy="317.0" r="4" fill="#19e5a1" /><circle cx="441.9" cy="317.0" r="4" fill="#19e5a1" /><circle cx="449.1" cy="317.0" r="4" fill="#19e5a1" /><circle cx="456.4" cy="317.0" r="4" fill="#19e5a1" /><circle cx="463.6" cy="317.0" r="4" fill="#19e5a1" /><circle cx="470.9" cy="317.0" r="4" fill="#19e5a1" /><circle cx="478.1" cy="317.0" r="4" fill="#19e5a1" /><circle cx="485.3" cy="317.0" r="4" fill="#19e5a1" /><circle cx="492.6" cy="317.0" r="4" fill="#19e5a1" /><circle cx="499.8" cy="317.0" r="4" fill="#19e5a1" /><circle cx="507.0" cy="317.0" r="4" fill="#19e5a1" /><circle cx="514.3" cy="317.0" r="4" fill="#19e5a1" /><circle cx="521.5" cy="317.0" r="4" fill="#19e5a1" /><circle cx="528.8" cy="317.0" r="4" fill="#19e5a1" /><circle cx="536.0" cy="317.0" r="4" fill="#19e5a1" /><circle cx="543.2" cy="317.0" r="4" fill="#19e5a1" /><circle cx="550.5" cy="317.0" r="4" fill="#19e5a1" /><circle cx="557.7" cy="317.0" r="4" fill="#19e5a1" /><circle cx="565.0" cy="317.0" r="4" fill="#19e5a1" /><circle cx="572.2" cy="317.0" r="4" fill="#19e5a1" /><circle cx="579.4" cy="317.0" r="4" fill="#19e5a1" /><circle cx="586.7" cy="317.0" r="4" fill="#19e5a1" /><circle cx="593.9" cy="317.0" r="4" fill="#19e5a1" /><circle cx="601.1" cy="317.0" r="4" fill="#19e5a1" /><circle cx="608.4" cy="317.0" r="4" fill="#19e5a1" /><circle cx="615.6" cy="317.0" r="4" fill="#19e5a1" /><circle cx="622.9" cy="317.0" r="4" fill="#19e5a1" /><circle cx="630.1" cy="317.0" r="4" fill="#19e5a1" /><circle cx="637.3" cy="317.0" r="4" fill="#19e5a1" /><circle cx="644.6" cy="317.0" r="4" fill="#19e5a1" /><circle cx="651.8" cy="317.0" r="4" fill="#19e5a1" /><circle cx="659.0" cy="317.0" r="4" fill="#19e5a1" /><circle cx="666.3" cy="317.0" r="4" fill="#19e5a1" /><circle cx="673.5" cy="317.0" r="4" fill="#19e5a1" /><circle cx="680.8" cy="317.0" r="4" fill="#19e5a1" /><circle cx="688.0" cy="317.0" r="4" fill="#19e5a1" /><circle cx="695.2" cy="317.0" r="4" fill="#19e5a1" /><circle cx="702.5" cy="317.0" r="4" fill="#19e5a1" /><circle cx="709.7" cy="317.0" r="4" fill="#19e5a1" /><circle cx="717.0" cy="317.0" r="4" fill="#19e5a1" /><circle cx="724.2" cy="317.0" r="4" fill="#19e5a1" /><circle cx="731.4" cy="317.0" r="4" fill="#19e5a1" /><circle cx="738.7" cy="317.0" r="4" fill="#19e5a1" /><circle cx="745.9" cy="317.0" r="4" fill="#19e5a1" /><circle cx="753.1" cy="317.0" r="4" fill="#19e5a1" /><circle cx="760.4" cy="317.0" r="4" fill="#19e5a1" /><circle cx="767.6" cy="317.0" r="4" fill="#19e5a1" /><circle cx="774.9" cy="317.0" r="4" fill="#19e5a1" /><circle cx="782.1" cy="317.0" r="4" fill="#19e5a1" /><circle cx="789.3" cy="317.0" r="4" fill="#19e5a1" /><circle cx="796.6" cy="317.0" r="4" fill="#19e5a1" /><circle cx="803.8" cy="317.0" r="4" fill="#19e5a1" /><circle cx="811.0" cy="317.0" r="4" fill="#19e5a1" /><circle cx="818.3" cy="317.0" r="4" fill="#19e5a1" /><circle cx="825.5" cy="317.0" r="4" fill="#19e5a1" /><circle cx="832.8" cy="317.0" r="4" fill="#19e5a1" /><circle cx="840.0" cy="317.0" r="4" fill="#19e5a1" /><polyline points="80.0,313.2 87.2,312.2 94.5,312.1 101.7,312.4 109.0,312.4 116.2,312.4 123.4,312.1 130.7,312.0 137.9,311.9 145.1,311.9 152.4,311.8 159.6,311.8 166.9,311.5 174.1,311.5 181.3,311.5 188.6,311.2 195.8,311.2 203.0,311.1 210.3,311.1 217.5,311.1 224.8,310.9 232.0,311.0 239.2,310.8 246.5,310.8 253.7,310.8 261.0,310.8 268.2,310.4 275.4,310.2 282.7,310.4 289.9,310.4 297.1,310.4 304.4,310.4 311.6,310.4 318.9,310.2 326.1,310.2 333.3,310.1 340.6,310.1 347.8,309.8 355.0,309.6 362.3,309.6 369.5,309.6 376.8,309.6 384.0,309.5 391.2,309.4 398.5,309.4 405.7,309.4 413.0,309.4 420.2,309.2 427.4,309.2 434.7,309.2 441.9,309.4 449.1,309.4 456.4,309.5 463.6,309.2 470.9,309.2 478.1,309.4 485.3,309.2 492.6,309.2 499.8,309.2 507.0,309.2 514.3,309.2 521.5,309.1 528.8,309.1 536.0,309.1 543.2,309.1 550.5,309.0 557.7,309.0 565.0,308.9 572.2,308.9 579.4,308.9 586.7,308.6 593.9,308.6 601.1,308.6 608.4,308.6 615.6,308.6 622.9,308.6 630.1,308.6 637.3,308.6 644.6,308.6 651.8,308.6 659.0,308.6 666.3,308.6 673.5,308.6 680.8,307.8 688.0,307.8 695.2,307.6 702.5,307.6 709.7,307.6 717.0,307.5 724.2,307.5 731.4,307.6 738.7,308.5 745.9,308.5 753.1,308.4 760.4,308.4 767.6,307.5 774.9,307.5 782.1,307.2 789.3,307.1 796.6,307.1 803.8,307.1 811.0,307.0 818.3,306.8 825.5,306.6 832.8,306.6 840.0,306.5" fill="none" stroke="#6eb6ec" stroke-width="2.5" stroke-linecap="round" stroke-linejoin="round" /><circle cx="80.0" cy="313.2" r="4" fill="#6eb6ec" /><circle cx="87.2" cy="312.2" r="4" fill="#6eb6ec" /><circle cx="94.5" cy="312.1" r="4" fill="#6eb6ec" /><circle cx="101.7" cy="312.4" r="4" fill="#6eb6ec" /><circle cx="109.0" cy="312.4" r="4" fill="#6eb6ec" /><circle cx="116.2" cy="312.4" r="4" fill="#6eb6ec" /><circle cx="123.4" cy="312.1" r="4" fill="#6eb6ec" /><circle cx="130.7" cy="312.0" r="4" fill="#6eb6ec" /><circle cx="137.9" cy="311.9" r="4" fill="#6eb6ec" /><circle cx="145.1" cy="311.9" r="4" fill="#6eb6ec" /><circle cx="152.4" cy="311.8" r="4" fill="#6eb6ec" /><circle cx="159.6" cy="311.8" r="4" fill="#6eb6ec" /><circle cx="166.9" cy="311.5" r="4" fill="#6eb6ec" /><circle cx="174.1" cy="311.5" r="4" fill="#6eb6ec" /><circle cx="181.3" cy="311.5" r="4" fill="#6eb6ec" /><circle cx="188.6" cy="311.2" r="4" fill="#6eb6ec" /><circle cx="195.8" cy="311.2" r="4" fill="#6eb6ec" /><circle cx="203.0" cy="311.1" r="4" fill="#6eb6ec" /><circle cx="210.3" cy="311.1" r="4" fill="#6eb6ec" /><circle cx="217.5" cy="311.1" r="4" fill="#6eb6ec" /><circle cx="224.8" cy="310.9" r="4" fill="#6eb6ec" /><circle cx="232.0" cy="311.0" r="4" fill="#6eb6ec" /><circle cx="239.2" cy="310.8" r="4" fill="#6eb6ec" /><circle cx="246.5" cy="310.8" r="4" fill="#6eb6ec" /><circle cx="253.7" cy="310.8" r="4" fill="#6eb6ec" /><circle cx="261.0" cy="310.8" r="4" fill="#6eb6ec" /><circle cx="268.2" cy="310.4" r="4" fill="#6eb6ec" /><circle cx="275.4" cy="310.2" r="4" fill="#6eb6ec" /><circle cx="282.7" cy="310.4" r="4" fill="#6eb6ec" /><circle cx="289.9" cy="310.4" r="4" fill="#6eb6ec" /><circle cx="297.1" cy="310.4" r="4" fill="#6eb6ec" /><circle cx="304.4" cy="310.4" r="4" fill="#6eb6ec" /><circle cx="311.6" cy="310.4" r="4" fill="#6eb6ec" /><circle cx="318.9" cy="310.2" r="4" fill="#6eb6ec" /><circle cx="326.1" cy="310.2" r="4" fill="#6eb6ec" /><circle cx="333.3" cy="310.1" r="4" fill="#6eb6ec" /><circle cx="340.6" cy="310.1" r="4" fill="#6eb6ec" /><circle cx="347.8" cy="309.8" r="4" fill="#6eb6ec" /><circle cx="355.0" cy="309.6" r="4" fill="#6eb6ec" /><circle cx="362.3" cy="309.6" r="4" fill="#6eb6ec" /><circle cx="369.5" cy="309.6" r="4" fill="#6eb6ec" /><circle cx="376.8" cy="309.6" r="4" fill="#6eb6ec" /><circle cx="384.0" cy="309.5" r="4" fill="#6eb6ec" /><circle cx="391.2" cy="309.4" r="4" fill="#6eb6ec" /><circle cx="398.5" cy="309.4" r="4" fill="#6eb6ec" /><circle cx="405.7" cy="309.4" r="4" fill="#6eb6ec" /><circle cx="413.0" cy="309.4" r="4" fill="#6eb6ec" /><circle cx="420.2" cy="309.2" r="4" fill="#6eb6ec" /><circle cx="427.4" cy="309.2" r="4" fill="#6eb6ec" /><circle cx="434.7" cy="309.2" r="4" fill="#6eb6ec" /><circle cx="441.9" cy="309.4" r="4" fill="#6eb6ec" /><circle cx="449.1" cy="309.4" r="4" fill="#6eb6ec" /><circle cx="456.4" cy="309.5" r="4" fill="#6eb6ec" /><circle cx="463.6" cy="309.2" r="4" fill="#6eb6ec" /><circle cx="470.9" cy="309.2" r="4" fill="#6eb6ec" /><circle cx="478.1" cy="309.4" r="4" fill="#6eb6ec" /><circle cx="485.3" cy="309.2" r="4" fill="#6eb6ec" /><circle cx="492.6" cy="309.2" r="4" fill="#6eb6ec" /><circle cx="499.8" cy="309.2" r="4" fill="#6eb6ec" /><circle cx="507.0" cy="309.2" r="4" fill="#6eb6ec" /><circle cx="514.3" cy="309.2" r="4" fill="#6eb6ec" /><circle cx="521.5" cy="309.1" r="4" fill="#6eb6ec" /><circle cx="528.8" cy="309.1" r="4" fill="#6eb6ec" /><circle cx="536.0" cy="309.1" r="4" fill="#6eb6ec" /><circle cx="543.2" cy="309.1" r="4" fill="#6eb6ec" /><circle cx="550.5" cy="309.0" r="4" fill="#6eb6ec" /><circle cx="557.7" cy="309.0" r="4" fill="#6eb6ec" /><circle cx="565.0" cy="308.9" r="4" fill="#6eb6ec" /><circle cx="572.2" cy="308.9" r="4" fill="#6eb6ec" /><circle cx="579.4" cy="308.9" r="4" fill="#6eb6ec" /><circle cx="586.7" cy="308.6" r="4" fill="#6eb6ec" /><circle cx="593.9" cy="308.6" r="4" fill="#6eb6ec" /><circle cx="601.1" cy="308.6" r="4" fill="#6eb6ec" /><circle cx="608.4" cy="308.6" r="4" fill="#6eb6ec" /><circle cx="615.6" cy="308.6" r="4" fill="#6eb6ec" /><circle cx="622.9" cy="308.6" r="4" fill="#6eb6ec" /><circle cx="630.1" cy="308.6" r="4" fill="#6eb6ec" /><circle cx="637.3" cy="308.6" r="4" fill="#6eb6ec" /><circle cx="644.6" cy="308.6" r="4" fill="#6eb6ec" /><circle cx="651.8" cy="308.6" r="4" fill="#6eb6ec" /><circle cx="659.0" cy="308.6" r="4" fill="#6eb6ec" /><circle cx="666.3" cy="308.6" r="4" fill="#6eb6ec" /><circle cx="673.5" cy="308.6" r="4" fill="#6eb6ec" /><circle cx="680.8" cy="307.8" r="4" fill="#6eb6ec" /><circle cx="688.0" cy="307.8" r="4" fill="#6eb6ec" /><circle cx="695.2" cy="307.6" r="4" fill="#6eb6ec" /><circle cx="702.5" cy="307.6" r="4" fill="#6eb6ec" /><circle cx="709.7" cy="307.6" r="4" fill="#6eb6ec" /><circle cx="717.0" cy="307.5" r="4" fill="#6eb6ec" /><circle cx="724.2" cy="307.5" r="4" fill="#6eb6ec" /><circle cx="731.4" cy="307.6" r="4" fill="#6eb6ec" /><circle cx="738.7" cy="308.5" r="4" fill="#6eb6ec" /><circle cx="745.9" cy="308.5" r="4" fill="#6eb6ec" /><circle cx="753.1" cy="308.4" r="4" fill="#6eb6ec" /><circle cx="760.4" cy="308.4" r="4" fill="#6eb6ec" /><circle cx="767.6" cy="307.5" r="4" fill="#6eb6ec" /><circle cx="774.9" cy="307.5" r="4" fill="#6eb6ec" /><circle cx="782.1" cy="307.2" r="4" fill="#6eb6ec" /><circle cx="789.3" cy="307.1" r="4" fill="#6eb6ec" /><circle cx="796.6" cy="307.1" r="4" fill="#6eb6ec" /><circle cx="803.8" cy="307.1" r="4" fill="#6eb6ec" /><circle cx="811.0" cy="307.0" r="4" fill="#6eb6ec" /><circle cx="818.3" cy="306.8" r="4" fill="#6eb6ec" /><circle cx="825.5" cy="306.6" r="4" fill="#6eb6ec" /><circle cx="832.8" cy="306.6" r="4" fill="#6eb6ec" /><circle cx="840.0" cy="306.5" r="4" fill="#6eb6ec" /><polyline points="80.0,305.8 87.2,305.8 94.5,305.8 101.7,305.8 109.0,305.8 116.2,305.8 123.4,305.8 130.7,305.8 137.9,305.8 145.1,305.8 152.4,304.9 159.6,304.9 166.9,304.9 174.1,304.9 181.3,304.9 188.6,304.9 195.8,304.9 203.0,304.9 210.3,304.9 217.5,304.9 224.8,304.9 232.0,304.9 239.2,304.9 246.5,304.9 253.7,304.9 261.0,304.9 268.2,304.9 275.4,304.9 282.7,304.9 289.9,304.9 297.1,304.9 304.4,304.9 311.6,304.9 318.9,304.9 326.1,304.9 333.3,304.9 340.6,304.9 347.8,303.6 355.0,303.6 362.3,303.6 369.5,303.6 376.8,303.6 384.0,303.6 391.2,303.6 398.5,303.6 405.7,303.6 413.0,303.6 420.2,303.6 427.4,303.6 434.7,303.6 441.9,303.6 449.1,302.9 456.4,302.9 463.6,298.0 470.9,298.0 478.1,298.0 485.3,298.0 492.6,298.0 499.8,298.0 507.0,298.0 514.3,298.0 521.5,298.0 528.8,298.0 536.0,298.0 543.2,298.0 550.5,298.0 557.7,298.0 565.0,297.8 572.2,297.8 579.4,297.8 586.7,297.8 593.9,297.8 601.1,297.8 608.4,297.8 615.6,297.8 622.9,297.8 630.1,297.8 637.3,297.8 644.6,297.8 651.8,297.8 659.0,297.8 666.3,297.8 673.5,297.8 680.8,297.8 688.0,297.8 695.2,297.8 702.5,297.6 709.7,297.8 717.0,297.8 724.2,297.8 731.4,297.9 738.7,297.9 745.9,297.9 753.1,296.1 760.4,296.1 767.6,296.1 774.9,296.1 782.1,296.1 789.3,296.1 796.6,296.1 803.8,296.1 811.0,296.1 818.3,296.1 825.5,295.0 832.8,295.0 840.0,295.0" fill="none" stroke="#5938e2" stroke-width="2.5" stroke-linecap="round" stroke-linejoin="round" /><circle cx="80.0" cy="305.8" r="4" fill="#5938e2" /><circle cx="87.2" cy="305.8" r="4" fill="#5938e2" /><circle cx="94.5" cy="305.8" r="4" fill="#5938e2" /><circle cx="101.7" cy="305.8" r="4" fill="#5938e2" /><circle cx="109.0" cy="305.8" r="4" fill="#5938e2" /><circle cx="116.2" cy="305.8" r="4" fill="#5938e2" /><circle cx="123.4" cy="305.8" r="4" fill="#5938e2" /><circle cx="130.7" cy="305.8" r="4" fill="#5938e2" /><circle cx="137.9" cy="305.8" r="4" fill="#5938e2" /><circle cx="145.1" cy="305.8" r="4" fill="#5938e2" /><circle cx="152.4" cy="304.9" r="4" fill="#5938e2" /><circle cx="159.6" cy="304.9" r="4" fill="#5938e2" /><circle cx="166.9" cy="304.9" r="4" fill="#5938e2" /><circle cx="174.1" cy="304.9" r="4" fill="#5938e2" /><circle cx="181.3" cy="304.9" r="4" fill="#5938e2" /><circle cx="188.6" cy="304.9" r="4" fill="#5938e2" /><circle cx="195.8" cy="304.9" r="4" fill="#5938e2" /><circle cx="203.0" cy="304.9" r="4" fill="#5938e2" /><circle cx="210.3" cy="304.9" r="4" fill="#5938e2" /><circle cx="217.5" cy="304.9" r="4" fill="#5938e2" /><circle cx="224.8" cy="304.9" r="4" fill="#5938e2" /><circle cx="232.0" cy="304.9" r="4" fill="#5938e2" /><circle cx="239.2" cy="304.9" r="4" fill="#5938e2" /><circle cx="246.5" cy="304.9" r="4" fill="#5938e2" /><circle cx="253.7" cy="304.9" r="4" fill="#5938e2" /><circle cx="261.0" cy="304.9" r="4" fill="#5938e2" /><circle cx="268.2" cy="304.9" r="4" fill="#5938e2" /><circle cx="275.4" cy="304.9" r="4" fill="#5938e2" /><circle cx="282.7" cy="304.9" r="4" fill="#5938e2" /><circle cx="289.9" cy="304.9" r="4" fill="#5938e2" /><circle cx="297.1" cy="304.9" r="4" fill="#5938e2" /><circle cx="304.4" cy="304.9" r="4" fill="#5938e2" /><circle cx="311.6" cy="304.9" r="4" fill="#5938e2" /><circle cx="318.9" cy="304.9" r="4" fill="#5938e2" /><circle cx="326.1" cy="304.9" r="4" fill="#5938e2" /><circle cx="333.3" cy="304.9" r="4" fill="#5938e2" /><circle cx="340.6" cy="304.9" r="4" fill="#5938e2" /><circle cx="347.8" cy="303.6" r="4" fill="#5938e2" /><circle cx="355.0" cy="303.6" r="4" fill="#5938e2" /><circle cx="362.3" cy="303.6" r="4" fill="#5938e2" /><circle cx="369.5" cy="303.6" r="4" fill="#5938e2" /><circle cx="376.8" cy="303.6" r="4" fill="#5938e2" /><circle cx="384.0" cy="303.6" r="4" fill="#5938e2" /><circle cx="391.2" cy="303.6" r="4" fill="#5938e2" /><circle cx="398.5" cy="303.6" r="4" fill="#5938e2" /><circle cx="405.7" cy="303.6" r="4" fill="#5938e2" /><circle cx="413.0" cy="303.6" r="4" fill="#5938e2" /><circle cx="420.2" cy="303.6" r="4" fill="#5938e2" /><circle cx="427.4" cy="303.6" r="4" fill="#5938e2" /><circle cx="434.7" cy="303.6" r="4" fill="#5938e2" /><circle cx="441.9" cy="303.6" r="4" fill="#5938e2" /><circle cx="449.1" cy="302.9" r="4" fill="#5938e2" /><circle cx="456.4" cy="302.9" r="4" fill="#5938e2" /><circle cx="463.6" cy="298.0" r="4" fill="#5938e2" /><circle cx="470.9" cy="298.0" r="4" fill="#5938e2" /><circle cx="478.1" cy="298.0" r="4" fill="#5938e2" /><circle cx="485.3" cy="298.0" r="4" fill="#5938e2" /><circle cx="492.6" cy="298.0" r="4" fill="#5938e2" /><circle cx="499.8" cy="298.0" r="4" fill="#5938e2" /><circle cx="507.0" cy="298.0" r="4" fill="#5938e2" /><circle cx="514.3" cy="298.0" r="4" fill="#5938e2" /><circle cx="521.5" cy="298.0" r="4" fill="#5938e2" /><circle cx="528.8" cy="298.0" r="4" fill="#5938e2" /><circle cx="536.0" cy="298.0" r="4" fill="#5938e2" /><circle cx="543.2" cy="298.0" r="4" fill="#5938e2" /><circle cx="550.5" cy="298.0" r="4" fill="#5938e2" /><circle cx="557.7" cy="298.0" r="4" fill="#5938e2" /><circle cx="565.0" cy="297.8" r="4" fill="#5938e2" /><circle cx="572.2" cy="297.8" r="4" fill="#5938e2" /><circle cx="579.4" cy="297.8" r="4" fill="#5938e2" /><circle cx="586.7" cy="297.8" r="4" fill="#5938e2" /><circle cx="593.9" cy="297.8" r="4" fill="#5938e2" /><circle cx="601.1" cy="297.8" r="4" fill="#5938e2" /><circle cx="608.4" cy="297.8" r="4" fill="#5938e2" /><circle cx="615.6" cy="297.8" r="4" fill="#5938e2" /><circle cx="622.9" cy="297.8" r="4" fill="#5938e2" /><circle cx="630.1" cy="297.8" r="4" fill="#5938e2" /><circle cx="637.3" cy="297.8" r="4" fill="#5938e2" /><circle cx="644.6" cy="297.8" r="4" fill="#5938e2" /><circle cx="651.8" cy="297.8" r="4" fill="#5938e2" /><circle cx="659.0" cy="297.8" r="4" fill="#5938e2" /><circle cx="666.3" cy="297.8" r="4" fill="#5938e2" /><circle cx="673.5" cy="297.8" r="4" fill="#5938e2" /><circle cx="680.8" cy="297.8" r="4" fill="#5938e2" /><circle cx="688.0" cy="297.8" r="4" fill="#5938e2" /><circle cx="695.2" cy="297.8" r="4" fill="#5938e2" /><circle cx="702.5" cy="297.6" r="4" fill="#5938e2" /><circle cx="709.7" cy="297.8" r="4" fill="#5938e2" /><circle cx="717.0" cy="297.8" r="4" fill="#5938e2" /><circle cx="724.2" cy="297.8" r="4" fill="#5938e2" /><circle cx="731.4" cy="297.9" r="4" fill="#5938e2" /><circle cx="738.7" cy="297.9" r="4" fill="#5938e2" /><circle cx="745.9" cy="297.9" r="4" fill="#5938e2" /><circle cx="753.1" cy="296.1" r="4" fill="#5938e2" /><circle cx="760.4" cy="296.1" r="4" fill="#5938e2" /><circle cx="767.6" cy="296.1" r="4" fill="#5938e2" /><circle cx="774.9" cy="296.1" r="4" fill="#5938e2" /><circle cx="782.1" cy="296.1" r="4" fill="#5938e2" /><circle cx="789.3" cy="296.1" r="4" fill="#5938e2" /><circle cx="796.6" cy="296.1" r="4" fill="#5938e2" /><circle cx="803.8" cy="296.1" r="4" fill="#5938e2" /><circle cx="811.0" cy="296.1" r="4" fill="#5938e2" /><circle cx="818.3" cy="296.1" r="4" fill="#5938e2" /><circle cx="825.5" cy="295.0" r="4" fill="#5938e2" /><circle cx="832.8" cy="295.0" r="4" fill="#5938e2" /><circle cx="840.0" cy="295.0" r="4" fill="#5938e2" /><polyline points="80.0,144.6 87.2,140.1 94.5,139.9 101.7,139.8 109.0,139.8 116.2,139.6 123.4,139.6 130.7,139.6 137.9,139.6 145.1,139.6 152.4,138.4 159.6,138.4 166.9,138.4 174.1,138.4 181.3,138.4 188.6,138.4 195.8,138.4 203.0,137.4 210.3,137.4 217.5,137.4 224.8,137.4 232.0,137.4 239.2,137.4 246.5,137.4 253.7,137.4 261.0,137.4 268.2,137.4 275.4,137.4 282.7,131.2 289.9,131.2 297.1,130.8 304.4,130.4 311.6,126.9 318.9,126.9 326.1,126.9 333.3,126.9 340.6,126.9 347.8,126.9 355.0,126.9 362.3,126.9 369.5,126.9 376.8,126.8 384.0,122.1 391.2,120.4 398.5,120.4 405.7,120.4 413.0,120.4 420.2,120.4 427.4,119.4 434.7,119.4 441.9,119.4 449.1,119.4 456.4,119.1 463.6,118.8 470.9,118.8 478.1,117.8 485.3,117.8 492.6,117.8 499.8,115.8 507.0,115.8 514.3,115.0 521.5,115.0 528.8,115.0 536.0,115.0 543.2,115.0 550.5,115.0 557.7,115.0 565.0,113.9 572.2,111.8 579.4,111.8 586.7,111.8 593.9,111.8 601.1,111.8 608.4,111.8 615.6,111.8 622.9,111.8 630.1,111.8 637.3,111.8 644.6,110.6 651.8,110.6 659.0,110.6 666.3,110.6 673.5,110.6 680.8,109.4 688.0,109.4 695.2,109.4 702.5,109.4 709.7,109.2 717.0,109.2 724.2,109.2 731.4,109.2 738.7,109.2 745.9,109.2 753.1,109.2 760.4,109.2 767.6,109.2 774.9,109.2 782.1,109.2 789.3,109.2 796.6,109.2 803.8,109.2 811.0,109.2 818.3,109.1 825.5,103.5 832.8,103.5 840.0,103.5" fill="none" stroke="#60e5e0" stroke-width="2.5" stroke-linecap="round" stroke-linejoin="round" /><circle cx="80.0" cy="144.6" r="4" fill="#60e5e0" /><circle cx="87.2" cy="140.1" r="4" fill="#60e5e0" /><circle cx="94.5" cy="139.9" r="4" fill="#60e5e0" /><circle cx="101.7" cy="139.8" r="4" fill="#60e5e0" /><circle cx="109.0" cy="139.8" r="4" fill="#60e5e0" /><circle cx="116.2" cy="139.6" r="4" fill="#60e5e0" /><circle cx="123.4" cy="139.6" r="4" fill="#60e5e0" /><circle cx="130.7" cy="139.6" r="4" fill="#60e5e0" /><circle cx="137.9" cy="139.6" r="4" fill="#60e5e0" /><circle cx="145.1" cy="139.6" r="4" fill="#60e5e0" /><circle cx="152.4" cy="138.4" r="4" fill="#60e5e0" /><circle cx="159.6" cy="138.4" r="4" fill="#60e5e0" /><circle cx="166.9" cy="138.4" r="4" fill="#60e5e0" /><circle cx="174.1" cy="138.4" r="4" fill="#60e5e0" /><circle cx="181.3" cy="138.4" r="4" fill="#60e5e0" /><circle cx="188.6" cy="138.4" r="4" fill="#60e5e0" /><circle cx="195.8" cy="138.4" r="4" fill="#60e5e0" /><circle cx="203.0" cy="137.4" r="4" fill="#60e5e0" /><circle cx="210.3" cy="137.4" r="4" fill="#60e5e0" /><circle cx="217.5" cy="137.4" r="4" fill="#60e5e0" /><circle cx="224.8" cy="137.4" r="4" fill="#60e5e0" /><circle cx="232.0" cy="137.4" r="4" fill="#60e5e0" /><circle cx="239.2" cy="137.4" r="4" fill="#60e5e0" /><circle cx="246.5" cy="137.4" r="4" fill="#60e5e0" /><circle cx="253.7" cy="137.4" r="4" fill="#60e5e0" /><circle cx="261.0" cy="137.4" r="4" fill="#60e5e0" /><circle cx="268.2" cy="137.4" r="4" fill="#60e5e0" /><circle cx="275.4" cy="137.4" r="4" fill="#60e5e0" /><circle cx="282.7" cy="131.2" r="4" fill="#60e5e0" /><circle cx="289.9" cy="131.2" r="4" fill="#60e5e0" /><circle cx="297.1" cy="130.8" r="4" fill="#60e5e0" /><circle cx="304.4" cy="130.4" r="4" fill="#60e5e0" /><circle cx="311.6" cy="126.9" r="4" fill="#60e5e0" /><circle cx="318.9" cy="126.9" r="4" fill="#60e5e0" /><circle cx="326.1" cy="126.9" r="4" fill="#60e5e0" /><circle cx="333.3" cy="126.9" r="4" fill="#60e5e0" /><circle cx="340.6" cy="126.9" r="4" fill="#60e5e0" /><circle cx="347.8" cy="126.9" r="4" fill="#60e5e0" /><circle cx="355.0" cy="126.9" r="4" fill="#60e5e0" /><circle cx="362.3" cy="126.9" r="4" fill="#60e5e0" /><circle cx="369.5" cy="126.9" r="4" fill="#60e5e0" /><circle cx="376.8" cy="126.8" r="4" fill="#60e5e0" /><circle cx="384.0" cy="122.1" r="4" fill="#60e5e0" /><circle cx="391.2" cy="120.4" r="4" fill="#60e5e0" /><circle cx="398.5" cy="120.4" r="4" fill="#60e5e0" /><circle cx="405.7" cy="120.4" r="4" fill="#60e5e0" /><circle cx="413.0" cy="120.4" r="4" fill="#60e5e0" /><circle cx="420.2" cy="120.4" r="4" fill="#60e5e0" /><circle cx="427.4" cy="119.4" r="4" fill="#60e5e0" /><circle cx="434.7" cy="119.4" r="4" fill="#60e5e0" /><circle cx="441.9" cy="119.4" r="4" fill="#60e5e0" /><circle cx="449.1" cy="119.4" r="4" fill="#60e5e0" /><circle cx="456.4" cy="119.1" r="4" fill="#60e5e0" /><circle cx="463.6" cy="118.8" r="4" fill="#60e5e0" /><circle cx="470.9" cy="118.8" r="4" fill="#60e5e0" /><circle cx="478.1" cy="117.8" r="4" fill="#60e5e0" /><circle cx="485.3" cy="117.8" r="4" fill="#60e5e0" /><circle cx="492.6" cy="117.8" r="4" fill="#60e5e0" /><circle cx="499.8" cy="115.8" r="4" fill="#60e5e0" /><circle cx="507.0" cy="115.8" r="4" fill="#60e5e0" /><circle cx="514.3" cy="115.0" r="4" fill="#60e5e0" /><circle cx="521.5" cy="115.0" r="4" fill="#60e5e0" /><circle cx="528.8" cy="115.0" r="4" fill="#60e5e0" /><circle cx="536.0" cy="115.0" r="4" fill="#60e5e0" /><circle cx="543.2" cy="115.0" r="4" fill="#60e5e0" /><circle cx="550.5" cy="115.0" r="4" fill="#60e5e0" /><circle cx="557.7" cy="115.0" r="4" fill="#60e5e0" /><circle cx="565.0" cy="113.9" r="4" fill="#60e5e0" /><circle cx="572.2" cy="111.8" r="4" fill="#60e5e0" /><circle cx="579.4" cy="111.8" r="4" fill="#60e5e0" /><circle cx="586.7" cy="111.8" r="4" fill="#60e5e0" /><circle cx="593.9" cy="111.8" r="4" fill="#60e5e0" /><circle cx="601.1" cy="111.8" r="4" fill="#60e5e0" /><circle cx="608.4" cy="111.8" r="4" fill="#60e5e0" /><circle cx="615.6" cy="111.8" r="4" fill="#60e5e0" /><circle cx="622.9" cy="111.8" r="4" fill="#60e5e0" /><circle cx="630.1" cy="111.8" r="4" fill="#60e5e0" /><circle cx="637.3" cy="111.8" r="4" fill="#60e5e0" /><circle cx="644.6" cy="110.6" r="4" fill="#60e5e0" /><circle cx="651.8" cy="110.6" r="4" fill="#60e5e0" /><circle cx="659.0" cy="110.6" r="4" fill="#60e5e0" /><circle cx="666.3" cy="110.6" r="4" fill="#60e5e0" /><circle cx="673.5" cy="110.6" r="4" fill="#60e5e0" /><circle cx="680.8" cy="109.4" r="4" fill="#60e5e0" /><circle cx="688.0" cy="109.4" r="4" fill="#60e5e0" /><circle cx="695.2" cy="109.4" r="4" fill="#60e5e0" /><circle cx="702.5" cy="109.4" r="4" fill="#60e5e0" /><circle cx="709.7" cy="109.2" r="4" fill="#60e5e0" /><circle cx="717.0" cy="109.2" r="4" fill="#60e5e0" /><circle cx="724.2" cy="109.2" r="4" fill="#60e5e0" /><circle cx="731.4" cy="109.2" r="4" fill="#60e5e0" /><circle cx="738.7" cy="109.2" r="4" fill="#60e5e0" /><circle cx="745.9" cy="109.2" r="4" fill="#60e5e0" /><circle cx="753.1" cy="109.2" r="4" fill="#60e5e0" /><circle cx="760.4" cy="109.2" r="4" fill="#60e5e0" /><circle cx="767.6" cy="109.2" r="4" fill="#60e5e0" /><circle cx="774.9" cy="109.2" r="4" fill="#60e5e0" /><circle cx="782.1" cy="109.2" r="4" fill="#60e5e0" /><circle cx="789.3" cy="109.2" r="4" fill="#60e5e0" /><circle cx="796.6" cy="109.2" r="4" fill="#60e5e0" /><circle cx="803.8" cy="109.2" r="4" fill="#60e5e0" /><circle cx="811.0" cy="109.2" r="4" fill="#60e5e0" /><circle cx="818.3" cy="109.1" r="4" fill="#60e5e0" /><circle cx="825.5" cy="103.5" r="4" fill="#60e5e0" /><circle cx="832.8" cy="103.5" r="4" fill="#60e5e0" /><circle cx="840.0" cy="103.5" r="4" fill="#60e5e0" /><polyline points="80.0,314.6 87.2,314.4 94.5,314.2 101.7,314.2 109.0,314.2 116.2,314.1 123.4,314.1 130.7,314.1 137.9,314.1 145.1,314.1 152.4,314.0 159.6,314.0 166.9,314.0 174.1,314.0 181.3,314.0 188.6,314.0 195.8,314.0 203.0,314.0 210.3,314.0 217.5,314.0 224.8,314.0 232.0,314.0 239.2,314.0 246.5,314.0 253.7,314.0 261.0,314.0 268.2,314.0 275.4,314.0 282.7,314.0 289.9,314.0 297.1,314.0 304.4,314.0 311.6,314.0 318.9,314.0 326.1,314.0 333.3,314.0 340.6,314.0 347.8,314.0 355.0,314.0 362.3,314.0 369.5,314.0 376.8,313.9 384.0,313.6 391.2,313.4 398.5,313.4 405.7,313.4 413.0,313.4 420.2,313.4 427.4,313.1 434.7,313.1 441.9,313.1 449.1,313.1 456.4,313.1 463.6,313.0 470.9,313.0 478.1,312.9 485.3,312.9 492.6,312.9 499.8,312.8 507.0,312.8 514.3,312.6 521.5,312.6 528.8,312.6 536.0,312.6 543.2,312.6 550.5,312.6 557.7,312.6 565.0,312.5 572.2,312.1 579.4,312.1 586.7,312.1 593.9,312.1 601.1,312.1 608.4,312.1 615.6,312.1 622.9,312.1 630.1,312.1 637.3,312.1 644.6,312.0 651.8,312.0 659.0,312.0 666.3,312.0 673.5,312.0 680.8,312.0 688.0,312.0 695.2,312.0 702.5,312.0 709.7,312.0 717.0,312.0 724.2,312.0 731.4,312.0 738.7,312.0 745.9,312.0 753.1,312.0 760.4,312.0 767.6,312.0 774.9,312.0 782.1,312.0 789.3,312.0 796.6,312.0 803.8,312.0 811.0,312.0 818.3,312.0 825.5,311.9 832.8,311.9 840.0,311.9" fill="none" stroke="#567de1" stroke-width="2.5" stroke-linecap="round" stroke-linejoin="round" /><circle cx="80.0" cy="314.6" r="4" fill="#567de1" /><circle cx="87.2" cy="314.4" r="4" fill="#567de1" /><circle cx="94.5" cy="314.2" r="4" fill="#567de1" /><circle cx="101.7" cy="314.2" r="4" fill="#567de1" /><circle cx="109.0" cy="314.2" r="4" fill="#567de1" /><circle cx="116.2" cy="314.1" r="4" fill="#567de1" /><circle cx="123.4" cy="314.1" r="4" fill="#567de1" /><circle cx="130.7" cy="314.1" r="4" fill="#567de1" /><circle cx="137.9" cy="314.1" r="4" fill="#567de1" /><circle cx="145.1" cy="314.1" r="4" fill="#567de1" /><circle cx="152.4" cy="314.0" r="4" fill="#567de1" /><circle cx="159.6" cy="314.0" r="4" fill="#567de1" /><circle cx="166.9" cy="314.0" r="4" fill="#567de1" /><circle cx="174.1" cy="314.0" r="4" fill="#567de1" /><circle cx="181.3" cy="314.0" r="4" fill="#567de1" /><circle cx="188.6" cy="314.0" r="4" fill="#567de1" /><circle cx="195.8" cy="314.0" r="4" fill="#567de1" /><circle cx="203.0" cy="314.0" r="4" fill="#567de1" /><circle cx="210.3" cy="314.0" r="4" fill="#567de1" /><circle cx="217.5" cy="314.0" r="4" fill="#567de1" /><circle cx="224.8" cy="314.0" r="4" fill="#567de1" /><circle cx="232.0" cy="314.0" r="4" fill="#567de1" /><circle cx="239.2" cy="314.0" r="4" fill="#567de1" /><circle cx="246.5" cy="314.0" r="4" fill="#567de1" /><circle cx="253.7" cy="314.0" r="4" fill="#567de1" /><circle cx="261.0" cy="314.0" r="4" fill="#567de1" /><circle cx="268.2" cy="314.0" r="4" fill="#567de1" /><circle cx="275.4" cy="314.0" r="4" fill="#567de1" /><circle cx="282.7" cy="314.0" r="4" fill="#567de1" /><circle cx="289.9" cy="314.0" r="4" fill="#567de1" /><circle cx="297.1" cy="314.0" r="4" fill="#567de1" /><circle cx="304.4" cy="314.0" r="4" fill="#567de1" /><circle cx="311.6" cy="314.0" r="4" fill="#567de1" /><circle cx="318.9" cy="314.0" r="4" fill="#567de1" /><circle cx="326.1" cy="314.0" r="4" fill="#567de1" /><circle cx="333.3" cy="314.0" r="4" fill="#567de1" /><circle cx="340.6" cy="314.0" r="4" fill="#567de1" /><circle cx="347.8" cy="314.0" r="4" fill="#567de1" /><circle cx="355.0" cy="314.0" r="4" fill="#567de1" /><circle cx="362.3" cy="314.0" r="4" fill="#567de1" /><circle cx="369.5" cy="314.0" r="4" fill="#567de1" /><circle cx="376.8" cy="313.9" r="4" fill="#567de1" /><circle cx="384.0" cy="313.6" r="4" fill="#567de1" /><circle cx="391.2" cy="313.4" r="4" fill="#567de1" /><circle cx="398.5" cy="313.4" r="4" fill="#567de1" /><circle cx="405.7" cy="313.4" r="4" fill="#567de1" /><circle cx="413.0" cy="313.4" r="4" fill="#567de1" /><circle cx="420.2" cy="313.4" r="4" fill="#567de1" /><circle cx="427.4" cy="313.1" r="4" fill="#567de1" /><circle cx="434.7" cy="313.1" r="4" fill="#567de1" /><circle cx="441.9" cy="313.1" r="4" fill="#567de1" /><circle cx="449.1" cy="313.1" r="4" fill="#567de1" /><circle cx="456.4" cy="313.1" r="4" fill="#567de1" /><circle cx="463.6" cy="313.0" r="4" fill="#567de1" /><circle cx="470.9" cy="313.0" r="4" fill="#567de1" /><circle cx="478.1" cy="312.9" r="4" fill="#567de1" /><circle cx="485.3" cy="312.9" r="4" fill="#567de1" /><circle cx="492.6" cy="312.9" r="4" fill="#567de1" /><circle cx="499.8" cy="312.8" r="4" fill="#567de1" /><circle cx="507.0" cy="312.8" r="4" fill="#567de1" /><circle cx="514.3" cy="312.6" r="4" fill="#567de1" /><circle cx="521.5" cy="312.6" r="4" fill="#567de1" /><circle cx="528.8" cy="312.6" r="4" fill="#567de1" /><circle cx="536.0" cy="312.6" r="4" fill="#567de1" /><circle cx="543.2" cy="312.6" r="4" fill="#567de1" /><circle cx="550.5" cy="312.6" r="4" fill="#567de1" /><circle cx="557.7" cy="312.6" r="4" fill="#567de1" /><circle cx="565.0" cy="312.5" r="4" fill="#567de1" /><circle cx="572.2" cy="312.1" r="4" fill="#567de1" /><circle cx="579.4" cy="312.1" r="4" fill="#567de1" /><circle cx="586.7" cy="312.1" r="4" fill="#567de1" /><circle cx="593.9" cy="312.1" r="4" fill="#567de1" /><circle cx="601.1" cy="312.1" r="4" fill="#567de1" /><circle cx="608.4" cy="312.1" r="4" fill="#567de1" /><circle cx="615.6" cy="312.1" r="4" fill="#567de1" /><circle cx="622.9" cy="312.1" r="4" fill="#567de1" /><circle cx="630.1" cy="312.1" r="4" fill="#567de1" /><circle cx="637.3" cy="312.1" r="4" fill="#567de1" /><circle cx="644.6" cy="312.0" r="4" fill="#567de1" /><circle cx="651.8" cy="312.0" r="4" fill="#567de1" /><circle cx="659.0" cy="312.0" r="4" fill="#567de1" /><circle cx="666.3" cy="312.0" r="4" fill="#567de1" /><circle cx="673.5" cy="312.0" r="4" fill="#567de1" /><circle cx="680.8" cy="312.0" r="4" fill="#567de1" /><circle cx="688.0" cy="312.0" r="4" fill="#567de1" /><circle cx="695.2" cy="312.0" r="4" fill="#567de1" /><circle cx="702.5" cy="312.0" r="4" fill="#567de1" /><circle cx="709.7" cy="312.0" r="4" fill="#567de1" /><circle cx="717.0" cy="312.0" r="4" fill="#567de1" /><circle cx="724.2" cy="312.0" r="4" fill="#567de1" /><circle cx="731.4" cy="312.0" r="4" fill="#567de1" /><circle cx="738.7" cy="312.0" r="4" fill="#567de1" /><circle cx="745.9" cy="312.0" r="4" fill="#567de1" /><circle cx="753.1" cy="312.0" r="4" fill="#567de1" /><circle cx="760.4" cy="312.0" r="4" fill="#567de1" /><circle cx="767.6" cy="312.0" r="4" fill="#567de1" /><circle cx="774.9" cy="312.0" r="4" fill="#567de1" /><circle cx="782.1" cy="312.0" r="4" fill="#567de1" /><circle cx="789.3" cy="312.0" r="4" fill="#567de1" /><circle cx="796.6" cy="312.0" r="4" fill="#567de1" /><circle cx="803.8" cy="312.0" r="4" fill="#567de1" /><circle cx="811.0" cy="312.0" r="4" fill="#567de1" /><circle cx="818.3" cy="312.0" r="4" fill="#567de1" /><circle cx="825.5" cy="311.9" r="4" fill="#567de1" /><circle cx="832.8" cy="311.9" r="4" fill="#567de1" /><circle cx="840.0" cy="311.9" r="4" fill="#567de1" /><polyline points="80.0,303.9 87.2,304.2 94.5,304.4 101.7,304.4 109.0,304.4 116.2,304.4 123.4,304.4 130.7,304.4 137.9,304.4 145.1,304.4 152.4,304.4 159.6,304.4 166.9,304.4 174.1,304.4 181.3,304.4 188.6,304.4 195.8,304.4 203.0,304.4 210.3,304.4 217.5,304.4 224.8,304.4 232.0,304.4 239.2,304.4 246.5,304.4 253.7,304.4 261.0,304.4 268.2,304.4 275.4,304.4 282.7,299.1 289.9,299.1 297.1,299.1 304.4,298.9 311.6,295.6 318.9,295.6 326.1,295.6 333.3,295.6 340.6,295.6 347.8,295.6 355.0,295.6 362.3,295.6 369.5,295.6 376.8,295.8 384.0,295.9 391.2,295.9 398.5,295.9 405.7,295.9 413.0,295.9 420.2,295.9 427.4,295.9 434.7,295.9 441.9,295.9 449.1,295.9 456.4,295.9 463.6,295.9 470.9,295.9 478.1,295.9 485.3,295.9 492.6,295.9 499.8,295.8 507.0,295.8 514.3,295.9 521.5,295.9 528.8,295.9 536.0,295.9 543.2,295.9 550.5,295.9 557.7,295.9 565.0,296.0 572.2,296.4 579.4,296.4 586.7,296.4 593.9,296.4 601.1,296.4 608.4,296.4 615.6,296.4 622.9,296.4 630.1,296.4 637.3,296.4 644.6,296.5 651.8,296.5 659.0,296.5 666.3,296.5 673.5,296.5 680.8,296.5 688.0,296.5 695.2,296.5 702.5,296.5 709.7,296.5 717.0,296.5 724.2,296.5 731.4,296.5 738.7,296.5 745.9,296.5 753.1,296.5 760.4,296.5 767.6,296.5 774.9,296.5 782.1,296.5 789.3,296.5 796.6,296.5 803.8,296.5 811.0,296.5 818.3,296.5 825.5,295.0 832.8,295.0 840.0,295.0" fill="none" stroke="#9754dd" stroke-width="2.5" stroke-linecap="round" stroke-linejoin="round" /><circle cx="80.0" cy="303.9" r="4" fill="#9754dd" /><circle cx="87.2" cy="304.2" r="4" fill="#9754dd" /><circle cx="94.5" cy="304.4" r="4" fill="#9754dd" /><circle cx="101.7" cy="304.4" r="4" fill="#9754dd" /><circle cx="109.0" cy="304.4" r="4" fill="#9754dd" /><circle cx="116.2" cy="304.4" r="4" fill="#9754dd" /><circle cx="123.4" cy="304.4" r="4" fill="#9754dd" /><circle cx="130.7" cy="304.4" r="4" fill="#9754dd" /><circle cx="137.9" cy="304.4" r="4" fill="#9754dd" /><circle cx="145.1" cy="304.4" r="4" fill="#9754dd" /><circle cx="152.4" cy="304.4" r="4" fill="#9754dd" /><circle cx="159.6" cy="304.4" r="4" fill="#9754dd" /><circle cx="166.9" cy="304.4" r="4" fill="#9754dd" /><circle cx="174.1" cy="304.4" r="4" fill="#9754dd" /><circle cx="181.3" cy="304.4" r="4" fill="#9754dd" /><circle cx="188.6" cy="304.4" r="4" fill="#9754dd" /><circle cx="195.8" cy="304.4" r="4" fill="#9754dd" /><circle cx="203.0" cy="304.4" r="4" fill="#9754dd" /><circle cx="210.3" cy="304.4" r="4" fill="#9754dd" /><circle cx="217.5" cy="304.4" r="4" fill="#9754dd" /><circle cx="224.8" cy="304.4" r="4" fill="#9754dd" /><circle cx="232.0" cy="304.4" r="4" fill="#9754dd" /><circle cx="239.2" cy="304.4" r="4" fill="#9754dd" /><circle cx="246.5" cy="304.4" r="4" fill="#9754dd" /><circle cx="253.7" cy="304.4" r="4" fill="#9754dd" /><circle cx="261.0" cy="304.4" r="4" fill="#9754dd" /><circle cx="268.2" cy="304.4" r="4" fill="#9754dd" /><circle cx="275.4" cy="304.4" r="4" fill="#9754dd" /><circle cx="282.7" cy="299.1" r="4" fill="#9754dd" /><circle cx="289.9" cy="299.1" r="4" fill="#9754dd" /><circle cx="297.1" cy="299.1" r="4" fill="#9754dd" /><circle cx="304.4" cy="298.9" r="4" fill="#9754dd" /><circle cx="311.6" cy="295.6" r="4" fill="#9754dd" /><circle cx="318.9" cy="295.6" r="4" fill="#9754dd" /><circle cx="326.1" cy="295.6" r="4" fill="#9754dd" /><circle cx="333.3" cy="295.6" r="4" fill="#9754dd" /><circle cx="340.6" cy="295.6" r="4" fill="#9754dd" /><circle cx="347.8" cy="295.6" r="4" fill="#9754dd" /><circle cx="355.0" cy="295.6" r="4" fill="#9754dd" /><circle cx="362.3" cy="295.6" r="4" fill="#9754dd" /><circle cx="369.5" cy="295.6" r="4" fill="#9754dd" /><circle cx="376.8" cy="295.8" r="4" fill="#9754dd" /><circle cx="384.0" cy="295.9" r="4" fill="#9754dd" /><circle cx="391.2" cy="295.9" r="4" fill="#9754dd" /><circle cx="398.5" cy="295.9" r="4" fill="#9754dd" /><circle cx="405.7" cy="295.9" r="4" fill="#9754dd" /><circle cx="413.0" cy="295.9" r="4" fill="#9754dd" /><circle cx="420.2" cy="295.9" r="4" fill="#9754dd" /><circle cx="427.4" cy="295.9" r="4" fill="#9754dd" /><circle cx="434.7" cy="295.9" r="4" fill="#9754dd" /><circle cx="441.9" cy="295.9" r="4" fill="#9754dd" /><circle cx="449.1" cy="295.9" r="4" fill="#9754dd" /><circle cx="456.4" cy="295.9" r="4" fill="#9754dd" /><circle cx="463.6" cy="295.9" r="4" fill="#9754dd" /><circle cx="470.9" cy="295.9" r="4" fill="#9754dd" /><circle cx="478.1" cy="295.9" r="4" fill="#9754dd" /><circle cx="485.3" cy="295.9" r="4" fill="#9754dd" /><circle cx="492.6" cy="295.9" r="4" fill="#9754dd" /><circle cx="499.8" cy="295.8" r="4" fill="#9754dd" /><circle cx="507.0" cy="295.8" r="4" fill="#9754dd" /><circle cx="514.3" cy="295.9" r="4" fill="#9754dd" /><circle cx="521.5" cy="295.9" r="4" fill="#9754dd" /><circle cx="528.8" cy="295.9" r="4" fill="#9754dd" /><circle cx="536.0" cy="295.9" r="4" fill="#9754dd" /><circle cx="543.2" cy="295.9" r="4" fill="#9754dd" /><circle cx="550.5" cy="295.9" r="4" fill="#9754dd" /><circle cx="557.7" cy="295.9" r="4" fill="#9754dd" /><circle cx="565.0" cy="296.0" r="4" fill="#9754dd" /><circle cx="572.2" cy="296.4" r="4" fill="#9754dd" /><circle cx="579.4" cy="296.4" r="4" fill="#9754dd" /><circle cx="586.7" cy="296.4" r="4" fill="#9754dd" /><circle cx="593.9" cy="296.4" r="4" fill="#9754dd" /><circle cx="601.1" cy="296.4" r="4" fill="#9754dd" /><circle cx="608.4" cy="296.4" r="4" fill="#9754dd" /><circle cx="615.6" cy="296.4" r="4" fill="#9754dd" /><circle cx="622.9" cy="296.4" r="4" fill="#9754dd" /><circle cx="630.1" cy="296.4" r="4" fill="#9754dd" /><circle cx="637.3" cy="296.4" r="4" fill="#9754dd" /><circle cx="644.6" cy="296.5" r="4" fill="#9754dd" /><circle cx="651.8" cy="296.5" r="4" fill="#9754dd" /><circle cx="659.0" cy="296.5" r="4" fill="#9754dd" /><circle cx="666.3" cy="296.5" r="4" fill="#9754dd" /><circle cx="673.5" cy="296.5" r="4" fill="#9754dd" /><circle cx="680.8" cy="296.5" r="4" fill="#9754dd" /><circle cx="688.0" cy="296.5" r="4" fill="#9754dd" /><circle cx="695.2" cy="296.5" r="4" fill="#9754dd" /><circle cx="702.5" cy="296.5" r="4" fill="#9754dd" /><circle cx="709.7" cy="296.5" r="4" fill="#9754dd" /><circle cx="717.0" cy="296.5" r="4" fill="#9754dd" /><circle cx="724.2" cy="296.5" r="4" fill="#9754dd" /><circle cx="731.4" cy="296.5" r="4" fill="#9754dd" /><circle cx="738.7" cy="296.5" r="4" fill="#9754dd" /><circle cx="745.9" cy="296.5" r="4" fill="#9754dd" /><circle cx="753.1" cy="296.5" r="4" fill="#9754dd" /><circle cx="760.4" cy="296.5" r="4" fill="#9754dd" /><circle cx="767.6" cy="296.5" r="4" fill="#9754dd" /><circle cx="774.9" cy="296.5" r="4" fill="#9754dd" /><circle cx="782.1" cy="296.5" r="4" fill="#9754dd" /><circle cx="789.3" cy="296.5" r="4" fill="#9754dd" /><circle cx="796.6" cy="296.5" r="4" fill="#9754dd" /><circle cx="803.8" cy="296.5" r="4" fill="#9754dd" /><circle cx="811.0" cy="296.5" r="4" fill="#9754dd" /><circle cx="818.3" cy="296.5" r="4" fill="#9754dd" /><circle cx="825.5" cy="295.0" r="4" fill="#9754dd" /><circle cx="832.8" cy="295.0" r="4" fill="#9754dd" /><circle cx="840.0" cy="295.0" r="4" fill="#9754dd" />
  <rect x="80" y="339" width="10" height="10" rx="2" ry="2" fill="#19e5a1" /><text x="96" y="348" class="legend-label">Stars</text><rect x="250" y="339" width="10" height="10" rx="2" ry="2" fill="#6eb6ec" /><text x="266" y="348" class="legend-label">Followers</text><rect x="420" y="339" width="10" height="10" rx="2" ry="2" fill="#5938e2" /><text x="436" y="348" class="legend-label">Following</text><rect x="590" y="339" width="10" height="10" rx="2" ry="2" fill="#60e5e0" /><text x="606" y="348" class="legend-label">Contributions</text><rect x="80" y="357" width="10" height="10" rx="2" ry="2" fill="#567de1" /><text x="96" y="366" class="legend-label">Pull Requests</text><rect x="250" y="357" width="10" height="10" rx="2" ry="2" fill="#9754dd" /><text x="266" y="366" class="legend-label">Issues</text>
</svg>
