<svg width="900" height="402" viewBox="0 0 900 402" xmlns="http://www.w3.org/2000/svg">
  <defs>
    <linearGradient id="history-gradient" x1="0%" y1="0%" x2="100%" y2="100%">
      <stop offset="0%" style="stop-color:#58a6ff;stop-opacity:1" />
      <stop offset="100%" style="stop-color:#a371f7;stop-opacity:1" />
    </linearGradient>
    <clipPath id="history-rounded">
      <rect x="0" y="0" width="900" height="402" rx="8" ry="8" />
    </clipPath>
  </defs>
  <style>
    .title {
      font-family: 'Segoe UI', Ubuntu, 'Helvetica Neue', sans-serif;
      font-size: 22px;
      font-weight: 700;
      fill: #58a6ff;
    }
    .subtitle {
      font-family: 'Segoe UI', Ubuntu, 'Helvetica Neue', sans-serif;
      font-size: 12px;
      font-weight: 500;
      fill: #8b949e;
    }
    .axis-label {
      font-family: 'Segoe UI', Ubuntu, 'Helvetica Neue', sans-serif;
      font-size: 10px;
      fill: #8b949e;
    }
    .grid-line {
      stroke: #30363d;
      stroke-width: 1;
      opacity: 0.3;
    }
    .legend-label {
      font-family: 'Segoe UI', Ubuntu, 'Helvetica Neue', sans-serif;
      font-size: 11px;
      fill: #c9d1d9;
      dominant-baseline: middle;
    }
  </style>
  <rect clip-path="url(#history-rounded)" width="100%" height="100%" fill="#0d1117" stroke="#30363d" stroke-width="1" />
  <rect x="0" y="396" width="900" height="6" fill="url(#history-gradient)" clip-path="url(#history-rounded)" />
  <text x="24" y="34" class="title">Leonardo Klein Stats History</text>
  <text x="24" y="54" class="subtitle">Period: 2026-02-20 to 2026-03-02</text>
  <text x="72" y="320.0" text-anchor="end" dominant-baseline="central" class="axis-label">0</text><text x="72" y="270.0" text-anchor="end" dominant-baseline="central" class="axis-label">400</text><text x="72" y="220.0" text-anchor="end" dominant-baseline="central" class="axis-label">800</text><text x="72" y="170.0" text-anchor="end" dominant-baseline="central" class="axis-label">1.2k</text><text x="72" y="120.0" text-anchor="end" dominant-baseline="central" class="axis-label">1.6k</text><text x="72" y="70.0" text-anchor="end" dominant-baseline="central" class="axis-label">2.0k</text>
  <text x="80.0" y="336" text-anchor="middle" class="axis-label">02-20</text><text x="153.1" y="336" text-anchor="middle" class="axis-label">02-21</text><text x="226.2" y="336" text-anchor="middle" class="axis-label">02-22</text><text x="299.2" y="336" text-anchor="middle" class="axis-label">02-23</text><text x="372.3" y="336" text-anchor="middle" class="axis-label">02-24</text><text x="445.4" y="336" text-anchor="middle" class="axis-label">02-25</text><text x="518.5" y="336" text-anchor="middle" class="axis-label">02-26</text><text x="591.5" y="336" text-anchor="middle" class="axis-label">02-27</text><text x="664.6" y="336" text-anchor="middle" class="axis-label">02-28</text><text x="737.7" y="336" text-anchor="middle" class="axis-label">03-01</text><text x="810.8" y="336" text-anchor="middle" class="axis-label">03-02</text><text x="840.0" y="336" text-anchor="middle" class="axis-label">03-02</text>
  <line x1="80" y1="320.0" x2="840" y2="320.0" class="grid-line" /><line x1="80" y1="270.0" x2="840" y2="270.0" class="grid-line" /><line x1="80" y1="220.0" x2="840" y2="220.0" class="grid-line" /><line x1="80" y1="170.0" x2="840" y2="170.0" class="grid-line" /><line x1="80" y1="120.0" x2="840" y2="120.0" class="grid-line" /><line x1="80" y1="70.0" x2="840" y2="70.0" class="grid-line" />
  <polyline points="80.0,317.0 94.6,317.0 109.2,317.0 123.8,317.0 138.5,317.0 153.1,317.0 167.7,317.0 182.3,317.0 196.9,317.0 211.5,317.0 226.2,317.0 240.8,317.0 255.4,317.0 270.0,317.0 284.6,317.0 299.2,317.0 313.8,317.0 328.5,317.0 343.1,317.0 357.7,317.0 372.3,317.0 386.9,317.0 401.5,317.0 416.2,317.0 430.8,317.0 445.4,317.0 460.0,317.0 474.6,317.0 489.2,317.0 503.8,317.0 518.5,317.0 533.1,317.0 547.7,317.0 562.3,317.0 576.9,317.0 591.5,317.0 606.2,317.0 620.8,317.0 635.4,317.0 650.0,317.0 664.6,317.0 679.2,317.0 693.8,317.0 708.5,317.0 723.1,317.0 737.7,317.0 752.3,317.0 766.9,317.0 781.5,317.0 796.2,317.0 810.8,317.0 825.4,317.0 840.0,317.0" fill="none" stroke="#19e5a1" stroke-width="2.5" stroke-linecap="round" stroke-linejoin="round" /><circle cx="80.0" cy="317.0" r="4" fill="#19e5a1" /><circle cx="94.6" cy="317.0" r="4" fill="#19e5a1" /><circle cx="109.2" cy="317.0" r="4" fill="#19e5a1" /><circle cx="123.8" cy="317.0" r="4" fill="#19e5a1" /><circle cx="138.5" cy="317.0" r="4" fill="#19e5a1" /><circle cx="153.1" cy="317.0" r="4" fill="#19e5a1" /><circle cx="167.7" cy="317.0" r="4" fill="#19e5a1" /><circle cx="182.3" cy="317.0" r="4" fill="#19e5a1" /><circle cx="196.9" cy="317.0" r="4" fill="#19e5a1" /><circle cx="211.5" cy="317.0" r="4" fill="#19e5a1" /><circle cx="226.2" cy="317.0" r="4" fill="#19e5a1" /><circle cx="240.8" cy="317.0" r="4" fill="#19e5a1" /><circle cx="255.4" cy="317.0" r="4" fill="#19e5a1" /><circle cx="270.0" cy="317.0" r="4" fill="#19e5a1" /><circle cx="284.6" cy="317.0" r="4" fill="#19e5a1" /><circle cx="299.2" cy="317.0" r="4" fill="#19e5a1" /><circle cx="313.8" cy="317.0" r="4" fill="#19e5a1" /><circle cx="328.5" cy="317.0" r="4" fill="#19e5a1" /><circle cx="343.1" cy="317.0" r="4" fill="#19e5a1" /><circle cx="357.7" cy="317.0" r="4" fill="#19e5a1" /><circle cx="372.3" cy="317.0" r="4" fill="#19e5a1" /><circle cx="386.9" cy="317.0" r="4" fill="#19e5a1" /><circle cx="401.5" cy="317.0" r="4" fill="#19e5a1" /><circle cx="416.2" cy="317.0" r="4" fill="#19e5a1" /><circle cx="430.8" cy="317.0" r="4" fill="#19e5a1" /><circle cx="445.4" cy="317.0" r="4" fill="#19e5a1" /><circle cx="460.0" cy="317.0" r="4" fill="#19e5a1" /><circle cx="474.6" cy="317.0" r="4" fill="#19e5a1" /><circle cx="489.2" cy="317.0" r="4" fill="#19e5a1" /><circle cx="503.8" cy="317.0" r="4" fill="#19e5a1" /><circle cx="518.5" cy="317.0" r="4" fill="#19e5a1" /><circle cx="533.1" cy="317.0" r="4" fill="#19e5a1" /><circle cx="547.7" cy="317.0" r="4" fill="#19e5a1" /><circle cx="562.3" cy="317.0" r="4" fill="#19e5a1" /><circle cx="576.9" cy="317.0" r="4" fill="#19e5a1" /><circle cx="591.5" cy="317.0" r="4" fill="#19e5a1" /><circle cx="606.2" cy="317.0" r="4" fill="#19e5a1" /><circle cx="620.8" cy="317.0" r="4" fill="#19e5a1" /><circle cx="635.4" cy="317.0" r="4" fill="#19e5a1" /><circle cx="650.0" cy="317.0" r="4" fill="#19e5a1" /><circle cx="664.6" cy="317.0" r="4" fill="#19e5a1" /><circle cx="679.2" cy="317.0" r="4" fill="#19e5a1" /><circle cx="693.8" cy="317.0" r="4" fill="#19e5a1" /><circle cx="708.5" cy="317.0" r="4" fill="#19e5a1" /><circle cx="723.1" cy="317.0" r="4" fill="#19e5a1" /><circle cx="737.7" cy="317.0" r="4" fill="#19e5a1" /><circle cx="752.3" cy="317.0" r="4" fill="#19e5a1" /><circle cx="766.9" cy="317.0" r="4" fill="#19e5a1" /><circle cx="781.5" cy="317.0" r="4" fill="#19e5a1" /><circle cx="796.2" cy="317.0" r="4" fill="#19e5a1" /><circle cx="810.8" cy="317.0" r="4" fill="#19e5a1" /><circle cx="825.4" cy="317.0" r="4" fill="#19e5a1" /><circle cx="840.0" cy="317.0" r="4" fill="#19e5a1" /><polyline points="80.0,313.2 94.6,312.2 109.2,312.1 123.8,312.4 138.5,312.4 153.1,312.4 167.7,312.1 182.3,312.0 196.9,311.9 211.5,311.9 226.2,311.8 240.8,311.8 255.4,311.5 270.0,311.5 284.6,311.5 299.2,311.2 313.8,311.2 328.5,311.1 343.1,311.1 357.7,311.1 372.3,310.9 386.9,311.0 401.5,310.8 416.2,310.8 430.8,310.8 445.4,310.8 460.0,310.4 474.6,310.2 489.2,310.4 503.8,310.4 518.5,310.4 533.1,310.4 547.7,310.4 562.3,310.2 576.9,310.2 591.5,310.1 606.2,310.1 620.8,309.8 635.4,309.6 650.0,309.6 664.6,309.6 679.2,309.6 693.8,309.5 708.5,309.4 723.1,309.4 737.7,309.4 752.3,309.4 766.9,309.2 781.5,309.2 796.2,309.2 810.8,309.4 825.4,309.4 840.0,309.5" fill="none" stroke="#6eb6ec" stroke-width="2.5" stroke-linecap="round" stroke-linejoin="round" /><circle cx="80.0" cy="313.2" r="4" fill="#6eb6ec" /><circle cx="94.6" cy="312.2" r="4" fill="#6eb6ec" /><circle cx="109.2" cy="312.1" r="4" fill="#6eb6ec" /><circle cx="123.8" cy="312.4" r="4" fill="#6eb6ec" /><circle cx="138.5" cy="312.4" r="4" fill="#6eb6ec" /><circle cx="153.1" cy="312.4" r="4" fill="#6eb6ec" /><circle cx="167.7" cy="312.1" r="4" fill="#6eb6ec" /><circle cx="182.3" cy="312.0" r="4" fill="#6eb6ec" /><circle cx="196.9" cy="311.9" r="4" fill="#6eb6ec" /><circle cx="211.5" cy="311.9" r="4" fill="#6eb6ec" /><circle cx="226.2" cy="311.8" r="4" fill="#6eb6ec" /><circle cx="240.8" cy="311.8" r="4" fill="#6eb6ec" /><circle cx="255.4" cy="311.5" r="4" fill="#6eb6ec" /><circle cx="270.0" cy="311.5" r="4" fill="#6eb6ec" /><circle cx="284.6" cy="311.5" r="4" fill="#6eb6ec" /><circle cx="299.2" cy="311.2" r="4" fill="#6eb6ec" /><circle cx="313.8" cy="311.2" r="4" fill="#6eb6ec" /><circle cx="328.5" cy="311.1" r="4" fill="#6eb6ec" /><circle cx="343.1" cy="311.1" r="4" fill="#6eb6ec" /><circle cx="357.7" cy="311.1" r="4" fill="#6eb6ec" /><circle cx="372.3" cy="310.9" r="4" fill="#6eb6ec" /><circle cx="386.9" cy="311.0" r="4" fill="#6eb6ec" /><circle cx="401.5" cy="310.8" r="4" fill="#6eb6ec" /><circle cx="416.2" cy="310.8" r="4" fill="#6eb6ec" /><circle cx="430.8" cy="310.8" r="4" fill="#6eb6ec" /><circle cx="445.4" cy="310.8" r="4" fill="#6eb6ec" /><circle cx="460.0" cy="310.4" r="4" fill="#6eb6ec" /><circle cx="474.6" cy="310.2" r="4" fill="#6eb6ec" /><circle cx="489.2" cy="310.4" r="4" fill="#6eb6ec" /><circle cx="503.8" cy="310.4" r="4" fill="#6eb6ec" /><circle cx="518.5" cy="310.4" r="4" fill="#6eb6ec" /><circle cx="533.1" cy="310.4" r="4" fill="#6eb6ec" /><circle cx="547.7" cy="310.4" r="4" fill="#6eb6ec" /><circle cx="562.3" cy="310.2" r="4" fill="#6eb6ec" /><circle cx="576.9" cy="310.2" r="4" fill="#6eb6ec" /><circle cx="591.5" cy="310.1" r="4" fill="#6eb6ec" /><circle cx="606.2" cy="310.1" r="4" fill="#6eb6ec" /><circle cx="620.8" cy="309.8" r="4" fill="#6eb6ec" /><circle cx="635.4" cy="309.6" r="4" fill="#6eb6ec" /><circle cx="650.0" cy="309.6" r="4" fill="#6eb6ec" /><circle cx="664.6" cy="309.6" r="4" fill="#6eb6ec" /><circle cx="679.2" cy="309.6" r="4" fill="#6eb6ec" /><circle cx="693.8" cy="309.5" r="4" fill="#6eb6ec" /><circle cx="708.5" cy="309.4" r="4" fill="#6eb6ec" /><circle cx="723.1" cy="309.4" r="4" fill="#6eb6ec" /><circle cx="737.7" cy="309.4" r="4" fill="#6eb6ec" /><circle cx="752.3" cy="309.4" r="4" fill="#6eb6ec" /><circle cx="766.9" cy="309.2" r="4" fill="#6eb6ec" /><circle cx="781.5" cy="309.2" r="4" fill="#6eb6ec" /><circle cx="796.2" cy="309.2" r="4" fill="#6eb6ec" /><circle cx="810.8" cy="309.4" r="4" fill="#6eb6ec" /><circle cx="825.4" cy="309.4" r="4" fill="#6eb6ec" /><circle cx="840.0" cy="309.5" r="4" fill="#6eb6ec" /><polyline points="80.0,305.8 94.6,305.8 109.2,305.8 123.8,305.8 138.5,305.8 153.1,305.8 167.7,305.8 182.3,305.8 196.9,305.8 211.5,305.8 226.2,304.9 240.8,304.9 255.4,304.9 270.0,304.9 284.6,304.9 299.2,304.9 313.8,304.9 328.5,304.9 343.1,304.9 357.7,304.9 372.3,304.9 386.9,304.9 401.5,304.9 416.2,304.9 430.8,304.9 445.4,304.9 460.0,304.9 474.6,304.9 489.2,304.9 503.8,304.9 518.5,304.9 533.1,304.9 547.7,304.9 562.3,304.9 576.9,304.9 591.5,304.9 606.2,304.9 620.8,303.6 635.4,303.6 650.0,303.6 664.6,303.6 679.2,303.6 693.8,303.6 708.5,303.6 723.1,303.6 737.7,303.6 752.3,303.6 766.9,303.6 781.5,303.6 796.2,303.6 810.8,303.6 825.4,302.9 840.0,302.9" fill="none" stroke="#5938e2" stroke-width="2.5" stroke-linecap="round" stroke-linejoin="round" /><circle cx="80.0" cy="305.8" r="4" fill="#5938e2" /><circle cx="94.6" cy="305.8" r="4" fill="#5938e2" /><circle cx="109.2" cy="305.8" r="4" fill="#5938e2" /><circle cx="123.8" cy="305.8" r="4" fill="#5938e2" /><circle cx="138.5" cy="305.8" r="4" fill="#5938e2" /><circle cx="153.1" cy="305.8" r="4" fill="#5938e2" /><circle cx="167.7" cy="305.8" r="4" fill="#5938e2" /><circle cx="182.3" cy="305.8" r="4" fill="#5938e2" /><circle cx="196.9" cy="305.8" r="4" fill="#5938e2" /><circle cx="211.5" cy="305.8" r="4" fill="#5938e2" /><circle cx="226.2" cy="304.9" r="4" fill="#5938e2" /><circle cx="240.8" cy="304.9" r="4" fill="#5938e2" /><circle cx="255.4" cy="304.9" r="4" fill="#5938e2" /><circle cx="270.0" cy="304.9" r="4" fill="#5938e2" /><circle cx="284.6" cy="304.9" r="4" fill="#5938e2" /><circle cx="299.2" cy="304.9" r="4" fill="#5938e2" /><circle cx="313.8" cy="304.9" r="4" fill="#5938e2" /><circle cx="328.5" cy="304.9" r="4" fill="#5938e2" /><circle cx="343.1" cy="304.9" r="4" fill="#5938e2" /><circle cx="357.7" cy="304.9" r="4" fill="#5938e2" /><circle cx="372.3" cy="304.9" r="4" fill="#5938e2" /><circle cx="386.9" cy="304.9" r="4" fill="#5938e2" /><circle cx="401.5" cy="304.9" r="4" fill="#5938e2" /><circle cx="416.2" cy="304.9" r="4" fill="#5938e2" /><circle cx="430.8" cy="304.9" r="4" fill="#5938e2" /><circle cx="445.4" cy="304.9" r="4" fill="#5938e2" /><circle cx="460.0" cy="304.9" r="4" fill="#5938e2" /><circle cx="474.6" cy="304.9" r="4" fill="#5938e2" /><circle cx="489.2" cy="304.9" r="4" fill="#5938e2" /><circle cx="503.8" cy="304.9" r="4" fill="#5938e2" /><circle cx="518.5" cy="304.9" r="4" fill="#5938e2" /><circle cx="533.1" cy="304.9" r="4" fill="#5938e2" /><circle cx="547.7" cy="304.9" r="4" fill="#5938e2" /><circle cx="562.3" cy="304.9" r="4" fill="#5938e2" /><circle cx="576.9" cy="304.9" r="4" fill="#5938e2" /><circle cx="591.5" cy="304.9" r="4" fill="#5938e2" /><circle cx="606.2" cy="304.9" r="4" fill="#5938e2" /><circle cx="620.8" cy="303.6" r="4" fill="#5938e2" /><circle cx="635.4" cy="303.6" r="4" fill="#5938e2" /><circle cx="650.0" cy="303.6" r="4" fill="#5938e2" /><circle cx="664.6" cy="303.6" r="4" fill="#5938e2" /><circle cx="679.2" cy="303.6" r="4" fill="#5938e2" /><circle cx="693.8" cy="303.6" r="4" fill="#5938e2" /><circle cx="708.5" cy="303.6" r="4" fill="#5938e2" /><circle cx="723.1" cy="303.6" r="4" fill="#5938e2" /><circle cx="737.7" cy="303.6" r="4" fill="#5938e2" /><circle cx="752.3" cy="303.6" r="4" fill="#5938e2" /><circle cx="766.9" cy="303.6" r="4" fill="#5938e2" /><circle cx="781.5" cy="303.6" r="4" fill="#5938e2" /><circle cx="796.2" cy="303.6" r="4" fill="#5938e2" /><circle cx="810.8" cy="303.6" r="4" fill="#5938e2" /><circle cx="825.4" cy="302.9" r="4" fill="#5938e2" /><circle cx="840.0" cy="302.9" r="4" fill="#5938e2" /><polyline points="80.0,144.6 94.6,140.1 109.2,139.9 123.8,139.8 138.5,139.8 153.1,139.6 167.7,139.6 182.3,139.6 196.9,139.6 211.5,139.6 226.2,138.4 240.8,138.4 255.4,138.4 270.0,138.4 284.6,138.4 299.2,138.4 313.8,138.4 328.5,137.4 343.1,137.4 357.7,137.4 372.3,137.4 386.9,137.4 401.5,137.4 416.2,137.4 430.8,137.4 445.4,137.4 460.0,137.4 474.6,137.4 489.2,131.2 503.8,131.2 518.5,130.8 533.1,130.4 547.7,126.9 562.3,126.9 576.9,126.9 591.5,126.9 606.2,126.9 620.8,126.9 635.4,126.9 650.0,126.9 664.6,126.9 679.2,126.8 693.8,122.1 708.5,120.4 723.1,120.4 737.7,120.4 752.3,120.4 766.9,120.4 781.5,119.4 796.2,119.4 810.8,119.4 825.4,119.4 840.0,119.1" fill="none" stroke="#60e5e0" stroke-width="2.5" stroke-linecap="round" stroke-linejoin="round" /><circle cx="80.0" cy="144.6" r="4" fill="#60e5e0" /><circle cx="94.6" cy="140.1" r="4" fill="#60e5e0" /><circle cx="109.2" cy="139.9" r="4" fill="#60e5e0" /><circle cx="123.8" cy="139.8" r="4" fill="#60e5e0" /><circle cx="138.5" cy="139.8" r="4" fill="#60e5e0" /><circle cx="153.1" cy="139.6" r="4" fill="#60e5e0" /><circle cx="167.7" cy="139.6" r="4" fill="#60e5e0" /><circle cx="182.3" cy="139.6" r="4" fill="#60e5e0" /><circle cx="196.9" cy="139.6" r="4" fill="#60e5e0" /><circle cx="211.5" cy="139.6" r="4" fill="#60e5e0" /><circle cx="226.2" cy="138.4" r="4" fill="#60e5e0" /><circle cx="240.8" cy="138.4" r="4" fill="#60e5e0" /><circle cx="255.4" cy="138.4" r="4" fill="#60e5e0" /><circle cx="270.0" cy="138.4" r="4" fill="#60e5e0" /><circle cx="284.6" cy="138.4" r="4" fill="#60e5e0" /><circle cx="299.2" cy="138.4" r="4" fill="#60e5e0" /><circle cx="313.8" cy="138.4" r="4" fill="#60e5e0" /><circle cx="328.5" cy="137.4" r="4" fill="#60e5e0" /><circle cx="343.1" cy="137.4" r="4" fill="#60e5e0" /><circle cx="357.7" cy="137.4" r="4" fill="#60e5e0" /><circle cx="372.3" cy="137.4" r="4" fill="#60e5e0" /><circle cx="386.9" cy="137.4" r="4" fill="#60e5e0" /><circle cx="401.5" cy="137.4" r="4" fill="#60e5e0" /><circle cx="416.2" cy="137.4" r="4" fill="#60e5e0" /><circle cx="430.8" cy="137.4" r="4" fill="#60e5e0" /><circle cx="445.4" cy="137.4" r="4" fill="#60e5e0" /><circle cx="460.0" cy="137.4" r="4" fill="#60e5e0" /><circle cx="474.6" cy="137.4" r="4" fill="#60e5e0" /><circle cx="489.2" cy="131.2" r="4" fill="#60e5e0" /><circle cx="503.8" cy="131.2" r="4" fill="#60e5e0" /><circle cx="518.5" cy="130.8" r="4" fill="#60e5e0" /><circle cx="533.1" cy="130.4" r="4" fill="#60e5e0" /><circle cx="547.7" cy="126.9" r="4" fill="#60e5e0" /><circle cx="562.3" cy="126.9" r="4" fill="#60e5e0" /><circle cx="576.9" cy="126.9" r="4" fill="#60e5e0" /><circle cx="591.5" cy="126.9" r="4" fill="#60e5e0" /><circle cx="606.2" cy="126.9" r="4" fill="#60e5e0" /><circle cx="620.8" cy="126.9" r="4" fill="#60e5e0" /><circle cx="635.4" cy="126.9" r="4" fill="#60e5e0" /><circle cx="650.0" cy="126.9" r="4" fill="#60e5e0" /><circle cx="664.6" cy="126.9" r="4" fill="#60e5e0" /><circle cx="679.2" cy="126.8" r="4" fill="#60e5e0" /><circle cx="693.8" cy="122.1" r="4" fill="#60e5e0" /><circle cx="708.5" cy="120.4" r="4" fill="#60e5e0" /><circle cx="723.1" cy="120.4" r="4" fill="#60e5e0" /><circle cx="737.7" cy="120.4" r="4" fill="#60e5e0" /><circle cx="752.3" cy="120.4" r="4" fill="#60e5e0" /><circle cx="766.9" cy="120.4" r="4" fill="#60e5e0" /><circle cx="781.5" cy="119.4" r="4" fill="#60e5e0" /><circle cx="796.2" cy="119.4" r="4" fill="#60e5e0" /><circle cx="810.8" cy="119.4" r="4" fill="#60e5e0" /><circle cx="825.4" cy="119.4" r="4" fill="#60e5e0" /><circle cx="840.0" cy="119.1" r="4" fill="#60e5e0" /><polyline points="80.0,314.6 94.6,314.4 109.2,314.2 123.8,314.2 138.5,314.2 153.1,314.1 167.7,314.1 182.3,314.1 196.9,314.1 211.5,314.1 226.2,314.0 240.8,314.0 255.4,314.0 270.0,314.0 284.6,314.0 299.2,314.0 313.8,314.0 328.5,314.0 343.1,314.0 357.7,314.0 372.3,314.0 386.9,314.0 401.5,314.0 416.2,314.0 430.8,314.0 445.4,314.0 460.0,314.0 474.6,314.0 489.2,314.0 503.8,314.0 518.5,314.0 533.1,314.0 547.7,314.0 562.3,314.0 576.9,314.0 591.5,314.0 606.2,314.0 620.8,314.0 635.4,314.0 650.0,314.0 664.6,314.0 679.2,313.9 693.8,313.6 708.5,313.4 723.1,313.4 737.7,313.4 752.3,313.4 766.9,313.4 781.5,313.1 796.2,313.1 810.8,313.1 825.4,313.1 840.0,313.1" fill="none" stroke="#567de1" stroke-width="2.5" stroke-linecap="round" stroke-linejoin="round" /><circle cx="80.0" cy="314.6" r="4" fill="#567de1" /><circle cx="94.6" cy="314.4" r="4" fill="#567de1" /><circle cx="109.2" cy="314.2" r="4" fill="#567de1" /><circle cx="123.8" cy="314.2" r="4" fill="#567de1" /><circle cx="138.5" cy="314.2" r="4" fill="#567de1" /><circle cx="153.1" cy="314.1" r="4" fill="#567de1" /><circle cx="167.7" cy="314.1" r="4" fill="#567de1" /><circle cx="182.3" cy="314.1" r="4" fill="#567de1" /><circle cx="196.9" cy="314.1" r="4" fill="#567de1" /><circle cx="211.5" cy="314.1" r="4" fill="#567de1" /><circle cx="226.2" cy="314.0" r="4" fill="#567de1" /><circle cx="240.8" cy="314.0" r="4" fill="#567de1" /><circle cx="255.4" cy="314.0" r="4" fill="#567de1" /><circle cx="270.0" cy="314.0" r="4" fill="#567de1" /><circle cx="284.6" cy="314.0" r="4" fill="#567de1" /><circle cx="299.2" cy="314.0" r="4" fill="#567de1" /><circle cx="313.8" cy="314.0" r="4" fill="#567de1" /><circle cx="328.5" cy="314.0" r="4" fill="#567de1" /><circle cx="343.1" cy="314.0" r="4" fill="#567de1" /><circle cx="357.7" cy="314.0" r="4" fill="#567de1" /><circle cx="372.3" cy="314.0" r="4" fill="#567de1" /><circle cx="386.9" cy="314.0" r="4" fill="#567de1" /><circle cx="401.5" cy="314.0" r="4" fill="#567de1" /><circle cx="416.2" cy="314.0" r="4" fill="#567de1" /><circle cx="430.8" cy="314.0" r="4" fill="#567de1" /><circle cx="445.4" cy="314.0" r="4" fill="#567de1" /><circle cx="460.0" cy="314.0" r="4" fill="#567de1" /><circle cx="474.6" cy="314.0" r="4" fill="#567de1" /><circle cx="489.2" cy="314.0" r="4" fill="#567de1" /><circle cx="503.8" cy="314.0" r="4" fill="#567de1" /><circle cx="518.5" cy="314.0" r="4" fill="#567de1" /><circle cx="533.1" cy="314.0" r="4" fill="#567de1" /><circle cx="547.7" cy="314.0" r="4" fill="#567de1" /><circle cx="562.3" cy="314.0" r="4" fill="#567de1" /><circle cx="576.9" cy="314.0" r="4" fill="#567de1" /><circle cx="591.5" cy="314.0" r="4" fill="#567de1" /><circle cx="606.2" cy="314.0" r="4" fill="#567de1" /><circle cx="620.8" cy="314.0" r="4" fill="#567de1" /><circle cx="635.4" cy="314.0" r="4" fill="#567de1" /><circle cx="650.0" cy="314.0" r="4" fill="#567de1" /><circle cx="664.6" cy="314.0" r="4" fill="#567de1" /><circle cx="679.2" cy="313.9" r="4" fill="#567de1" /><circle cx="693.8" cy="313.6" r="4" fill="#567de1" /><circle cx="708.5" cy="313.4" r="4" fill="#567de1" /><circle cx="723.1" cy="313.4" r="4" fill="#567de1" /><circle cx="737.7" cy="313.4" r="4" fill="#567de1" /><circle cx="752.3" cy="313.4" r="4" fill="#567de1" /><circle cx="766.9" cy="313.4" r="4" fill="#567de1" /><circle cx="781.5" cy="313.1" r="4" fill="#567de1" /><circle cx="796.2" cy="313.1" r="4" fill="#567de1" /><circle cx="810.8" cy="313.1" r="4" fill="#567de1" /><circle cx="825.4" cy="313.1" r="4" fill="#567de1" /><circle cx="840.0" cy="313.1" r="4" fill="#567de1" /><polyline points="80.0,303.9 94.6,304.2 109.2,304.4 123.8,304.4 138.5,304.4 153.1,304.4 167.7,304.4 182.3,304.4 196.9,304.4 211.5,304.4 226.2,304.4 240.8,304.4 255.4,304.4 270.0,304.4 284.6,304.4 299.2,304.4 313.8,304.4 328.5,304.4 343.1,304.4 357.7,304.4 372.3,304.4 386.9,304.4 401.5,304.4 416.2,304.4 430.8,304.4 445.4,304.4 460.0,304.4 474.6,304.4 489.2,299.1 503.8,299.1 518.5,299.1 533.1,298.9 547.7,295.6 562.3,295.6 576.9,295.6 591.5,295.6 606.2,295.6 620.8,295.6 635.4,295.6 650.0,295.6 664.6,295.6 679.2,295.8 693.8,295.9 708.5,295.9 723.1,295.9 737.7,295.9 752.3,295.9 766.9,295.9 781.5,295.9 796.2,295.9 810.8,295.9 825.4,295.9 840.0,295.9" fill="none" stroke="#9754dd" stroke-width="2.5" stroke-linecap="round" stroke-linejoin="round" /><circle cx="80.0" cy="303.9" r="4" fill="#9754dd" /><circle cx="94.6" cy="304.2" r="4" fill="#9754dd" /><circle cx="109.2" cy="304.4" r="4" fill="#9754dd" /><circle cx="123.8" cy="304.4" r="4" fill="#9754dd" /><circle cx="138.5" cy="304.4" r="4" fill="#9754dd" /><circle cx="153.1" cy="304.4" r="4" fill="#9754dd" /><circle cx="167.7" cy="304.4" r="4" fill="#9754dd" /><circle cx="182.3" cy="304.4" r="4" fill="#9754dd" /><circle cx="196.9" cy="304.4" r="4" fill="#9754dd" /><circle cx="211.5" cy="304.4" r="4" fill="#9754dd" /><circle cx="226.2" cy="304.4" r="4" fill="#9754dd" /><circle cx="240.8" cy="304.4" r="4" fill="#9754dd" /><circle cx="255.4" cy="304.4" r="4" fill="#9754dd" /><circle cx="270.0" cy="304.4" r="4" fill="#9754dd" /><circle cx="284.6" cy="304.4" r="4" fill="#9754dd" /><circle cx="299.2" cy="304.4" r="4" fill="#9754dd" /><circle cx="313.8" cy="304.4" r="4" fill="#9754dd" /><circle cx="328.5" cy="304.4" r="4" fill="#9754dd" /><circle cx="343.1" cy="304.4" r="4" fill="#9754dd" /><circle cx="357.7" cy="304.4" r="4" fill="#9754dd" /><circle cx="372.3" cy="304.4" r="4" fill="#9754dd" /><circle cx="386.9" cy="304.4" r="4" fill="#9754dd" /><circle cx="401.5" cy="304.4" r="4" fill="#9754dd" /><circle cx="416.2" cy="304.4" r="4" fill="#9754dd" /><circle cx="430.8" cy="304.4" r="4" fill="#9754dd" /><circle cx="445.4" cy="304.4" r="4" fill="#9754dd" /><circle cx="460.0" cy="304.4" r="4" fill="#9754dd" /><circle cx="474.6" cy="304.4" r="4" fill="#9754dd" /><circle cx="489.2" cy="299.1" r="4" fill="#9754dd" /><circle cx="503.8" cy="299.1" r="4" fill="#9754dd" /><circle cx="518.5" cy="299.1" r="4" fill="#9754dd" /><circle cx="533.1" cy="298.9" r="4" fill="#9754dd" /><circle cx="547.7" cy="295.6" r="4" fill="#9754dd" /><circle cx="562.3" cy="295.6" r="4" fill="#9754dd" /><circle cx="576.9" cy="295.6" r="4" fill="#9754dd" /><circle cx="591.5" cy="295.6" r="4" fill="#9754dd" /><circle cx="606.2" cy="295.6" r="4" fill="#9754dd" /><circle cx="620.8" cy="295.6" r="4" fill="#9754dd" /><circle cx="635.4" cy="295.6" r="4" fill="#9754dd" /><circle cx="650.0" cy="295.6" r="4" fill="#9754dd" /><circle cx="664.6" cy="295.6" r="4" fill="#9754dd" /><circle cx="679.2" cy="295.8" r="4" fill="#9754dd" /><circle cx="693.8" cy="295.9" r="4" fill="#9754dd" /><circle cx="708.5" cy="295.9" r="4" fill="#9754dd" /><circle cx="723.1" cy="295.9" r="4" fill="#9754dd" /><circle cx="737.7" cy="295.9" r="4" fill="#9754dd" /><circle cx="752.3" cy="295.9" r="4" fill="#9754dd" /><circle cx="766.9" cy="295.9" r="4" fill="#9754dd" /><circle cx="781.5" cy="295.9" r="4" fill="#9754dd" /><circle cx="796.2" cy="295.9" r="4" fill="#9754dd" /><circle cx="810.8" cy="295.9" r="4" fill="#9754dd" /><circle cx="825.4" cy="295.9" r="4" fill="#9754dd" /><circle cx="840.0" cy="295.9" r="4" fill="#9754dd" />
  <rect x="80" y="339" width="10" height="10" rx="2" ry="2" fill="#19e5a1" /><text x="96" y="348" class="legend-label">Stars</text><rect x="250" y="339" width="10" height="10" rx="2" ry="2" fill="#6eb6ec" /><text x="266" y="348" class="legend-label">Followers</text><rect x="420" y="339" width="10" height="10" rx="2" ry="2" fill="#5938e2" /><text x="436" y="348" class="legend-label">Following</text><rect x="590" y="339" width="10" height="10" rx="2" ry="2" fill="#60e5e0" /><text x="606" y="348" class="legend-label">Contributions</text><rect x="80" y="357" width="10" height="10" rx="2" ry="2" fill="#567de1" /><text x="96" y="366" class="legend-label">Pull Requests</text><rect x="250" y="357" width="10" height="10" rx="2" ry="2" fill="#9754dd" /><text x="266" y="366" class="legend-label">Issues</text>
</svg>
