<svg width="900" height="402" viewBox="0 0 900 402" xmlns="http://www.w3.org/2000/svg">
  <defs>
    <linearGradient id="history-gradient" x1="0%" y1="0%" x2="100%" y2="100%">
      <stop offset="0%" style="stop-color:#58a6ff;stop-opacity:1" />
      <stop offset="100%" style="stop-color:#a371f7;stop-opacity:1" />
    </linearGradient>
    <clipPath id="history-rounded">
      <rect x="0" y="0" width="900" height="402" rx="8" ry="8" />
    </clipPath>
  </defs>
  <style>
    .title {
      font-family: 'Segoe UI', Ubuntu, 'Helvetica Neue', sans-serif;
      font-size: 22px;
      font-weight: 700;
      fill: #58a6ff;
    }
    .subtitle {
      font-family: 'Segoe UI', Ubuntu, 'Helvetica Neue', sans-serif;
      font-size: 12px;
      font-weight: 500;
      fill: #8b949e;
    }
    .axis-label {
      font-family: 'Segoe UI', Ubuntu, 'Helvetica Neue', sans-serif;
      font-size: 10px;
      fill: #8b949e;
    }
    .grid-line {
      stroke: #30363d;
      stroke-width: 1;
      opacity: 0.3;
    }
    .legend-label {
      font-family: 'Segoe UI', Ubuntu, 'Helvetica Neue', sans-serif;
      font-size: 11px;
      fill: #c9d1d9;
      dominant-baseline: middle;
    }
  </style>
  <rect clip-path="url(#history-rounded)" width="100%" height="100%" fill="#0d1117" stroke="#30363d" stroke-width="1" />
  <rect x="0" y="396" width="900" height="6" fill="url(#history-gradient)" clip-path="url(#history-rounded)" />
  <text x="24" y="34" class="title">Leonardo Klein Stats History</text>
  <text x="24" y="54" class="subtitle">Period: 2026-02-20 to 2026-02-23</text>
  <text x="72" y="320.0" text-anchor="end" dominant-baseline="central" class="axis-label">0</text><text x="72" y="270.0" text-anchor="end" dominant-baseline="central" class="axis-label">300</text><text x="72" y="220.0" text-anchor="end" dominant-baseline="central" class="axis-label">600</text><text x="72" y="170.0" text-anchor="end" dominant-baseline="central" class="axis-label">900</text><text x="72" y="120.0" text-anchor="end" dominant-baseline="central" class="axis-label">1.2k</text><text x="72" y="70.0" text-anchor="end" dominant-baseline="central" class="axis-label">1.5k</text>
  <text x="80.0" y="336" text-anchor="middle" class="axis-label">02-20</text><text x="124.7" y="336" text-anchor="middle" class="axis-label">02-20</text><text x="169.4" y="336" text-anchor="middle" class="axis-label">02-20</text><text x="214.1" y="336" text-anchor="middle" class="axis-label">02-21</text><text x="258.8" y="336" text-anchor="middle" class="axis-label">02-21</text><text x="303.5" y="336" text-anchor="middle" class="axis-label">02-21</text><text x="348.2" y="336" text-anchor="middle" class="axis-label">02-21</text><text x="392.9" y="336" text-anchor="middle" class="axis-label">02-21</text><text x="437.6" y="336" text-anchor="middle" class="axis-label">02-22</text><text x="482.4" y="336" text-anchor="middle" class="axis-label">02-22</text><text x="527.1" y="336" text-anchor="middle" class="axis-label">02-22</text><text x="571.8" y="336" text-anchor="middle" class="axis-label">02-22</text><text x="616.5" y="336" text-anchor="middle" class="axis-label">02-22</text><text x="661.2" y="336" text-anchor="middle" class="axis-label">02-23</text><text x="705.9" y="336" text-anchor="middle" class="axis-label">02-23</text><text x="750.6" y="336" text-anchor="middle" class="axis-label">02-23</text><text x="795.3" y="336" text-anchor="middle" class="axis-label">02-23</text><text x="840.0" y="336" text-anchor="middle" class="axis-label">02-23</text>
  <line x1="80" y1="320.0" x2="840" y2="320.0" class="grid-line" /><line x1="80" y1="270.0" x2="840" y2="270.0" class="grid-line" /><line x1="80" y1="220.0" x2="840" y2="220.0" class="grid-line" /><line x1="80" y1="170.0" x2="840" y2="170.0" class="grid-line" /><line x1="80" y1="120.0" x2="840" y2="120.0" class="grid-line" /><line x1="80" y1="70.0" x2="840" y2="70.0" class="grid-line" />
  <polyline points="80.0,316.0 124.7,316.0 169.4,316.0 214.1,316.0 258.8,316.0 303.5,316.0 348.2,316.0 392.9,316.0 437.6,316.0 482.4,316.0 527.1,316.0 571.8,316.0 616.5,316.0 661.2,316.0 705.9,316.0 750.6,316.0 795.3,316.0 840.0,316.0" fill="none" stroke="#19e5a1" stroke-width="2.5" stroke-linecap="round" stroke-linejoin="round" /><circle cx="80.0" cy="316.0" r="4" fill="#19e5a1" /><circle cx="124.7" cy="316.0" r="4" fill="#19e5a1" /><circle cx="169.4" cy="316.0" r="4" fill="#19e5a1" /><circle cx="214.1" cy="316.0" r="4" fill="#19e5a1" /><circle cx="258.8" cy="316.0" r="4" fill="#19e5a1" /><circle cx="303.5" cy="316.0" r="4" fill="#19e5a1" /><circle cx="348.2" cy="316.0" r="4" fill="#19e5a1" /><circle cx="392.9" cy="316.0" r="4" fill="#19e5a1" /><circle cx="437.6" cy="316.0" r="4" fill="#19e5a1" /><circle cx="482.4" cy="316.0" r="4" fill="#19e5a1" /><circle cx="527.1" cy="316.0" r="4" fill="#19e5a1" /><circle cx="571.8" cy="316.0" r="4" fill="#19e5a1" /><circle cx="616.5" cy="316.0" r="4" fill="#19e5a1" /><circle cx="661.2" cy="316.0" r="4" fill="#19e5a1" /><circle cx="705.9" cy="316.0" r="4" fill="#19e5a1" /><circle cx="750.6" cy="316.0" r="4" fill="#19e5a1" /><circle cx="795.3" cy="316.0" r="4" fill="#19e5a1" /><circle cx="840.0" cy="316.0" r="4" fill="#19e5a1" /><polyline points="80.0,311.0 124.7,309.7 169.4,309.5 214.1,309.8 258.8,309.8 303.5,309.8 348.2,309.5 392.9,309.3 437.6,309.2 482.4,309.2 527.1,309.0 571.8,309.0 616.5,308.7 661.2,308.7 705.9,308.7 750.6,308.3 795.3,308.3 840.0,308.2" fill="none" stroke="#6eb6ec" stroke-width="2.5" stroke-linecap="round" stroke-linejoin="round" /><circle cx="80.0" cy="311.0" r="4" fill="#6eb6ec" /><circle cx="124.7" cy="309.7" r="4" fill="#6eb6ec" /><circle cx="169.4" cy="309.5" r="4" fill="#6eb6ec" /><circle cx="214.1" cy="309.8" r="4" fill="#6eb6ec" /><circle cx="258.8" cy="309.8" r="4" fill="#6eb6ec" /><circle cx="303.5" cy="309.8" r="4" fill="#6eb6ec" /><circle cx="348.2" cy="309.5" r="4" fill="#6eb6ec" /><circle cx="392.9" cy="309.3" r="4" fill="#6eb6ec" /><circle cx="437.6" cy="309.2" r="4" fill="#6eb6ec" /><circle cx="482.4" cy="309.2" r="4" fill="#6eb6ec" /><circle cx="527.1" cy="309.0" r="4" fill="#6eb6ec" /><circle cx="571.8" cy="309.0" r="4" fill="#6eb6ec" /><circle cx="616.5" cy="308.7" r="4" fill="#6eb6ec" /><circle cx="661.2" cy="308.7" r="4" fill="#6eb6ec" /><circle cx="705.9" cy="308.7" r="4" fill="#6eb6ec" /><circle cx="750.6" cy="308.3" r="4" fill="#6eb6ec" /><circle cx="795.3" cy="308.3" r="4" fill="#6eb6ec" /><circle cx="840.0" cy="308.2" r="4" fill="#6eb6ec" /><polyline points="80.0,301.0 124.7,301.0 169.4,301.0 214.1,301.0 258.8,301.0 303.5,301.0 348.2,301.0 392.9,301.0 437.6,301.0 482.4,301.0 527.1,299.8 571.8,299.8 616.5,299.8 661.2,299.8 705.9,299.8 750.6,299.8 795.3,299.8 840.0,299.8" fill="none" stroke="#5938e2" stroke-width="2.5" stroke-linecap="round" stroke-linejoin="round" /><circle cx="80.0" cy="301.0" r="4" fill="#5938e2" /><circle cx="124.7" cy="301.0" r="4" fill="#5938e2" /><circle cx="169.4" cy="301.0" r="4" fill="#5938e2" /><circle cx="214.1" cy="301.0" r="4" fill="#5938e2" /><circle cx="258.8" cy="301.0" r="4" fill="#5938e2" /><circle cx="303.5" cy="301.0" r="4" fill="#5938e2" /><circle cx="348.2" cy="301.0" r="4" fill="#5938e2" /><circle cx="392.9" cy="301.0" r="4" fill="#5938e2" /><circle cx="437.6" cy="301.0" r="4" fill="#5938e2" /><circle cx="482.4" cy="301.0" r="4" fill="#5938e2" /><circle cx="527.1" cy="299.8" r="4" fill="#5938e2" /><circle cx="571.8" cy="299.8" r="4" fill="#5938e2" /><circle cx="616.5" cy="299.8" r="4" fill="#5938e2" /><circle cx="661.2" cy="299.8" r="4" fill="#5938e2" /><circle cx="705.9" cy="299.8" r="4" fill="#5938e2" /><circle cx="750.6" cy="299.8" r="4" fill="#5938e2" /><circle cx="795.3" cy="299.8" r="4" fill="#5938e2" /><circle cx="840.0" cy="299.8" r="4" fill="#5938e2" /><polyline points="80.0,86.2 124.7,80.2 169.4,79.8 214.1,79.7 258.8,79.7 303.5,79.5 348.2,79.5 392.9,79.5 437.6,79.5 482.4,79.5 527.1,77.8 571.8,77.8 616.5,77.8 661.2,77.8 705.9,77.8 750.6,77.8 795.3,77.8 840.0,76.5" fill="none" stroke="#60e5e0" stroke-width="2.5" stroke-linecap="round" stroke-linejoin="round" /><circle cx="80.0" cy="86.2" r="4" fill="#60e5e0" /><circle cx="124.7" cy="80.2" r="4" fill="#60e5e0" /><circle cx="169.4" cy="79.8" r="4" fill="#60e5e0" /><circle cx="214.1" cy="79.7" r="4" fill="#60e5e0" /><circle cx="258.8" cy="79.7" r="4" fill="#60e5e0" /><circle cx="303.5" cy="79.5" r="4" fill="#60e5e0" /><circle cx="348.2" cy="79.5" r="4" fill="#60e5e0" /><circle cx="392.9" cy="79.5" r="4" fill="#60e5e0" /><circle cx="437.6" cy="79.5" r="4" fill="#60e5e0" /><circle cx="482.4" cy="79.5" r="4" fill="#60e5e0" /><circle cx="527.1" cy="77.8" r="4" fill="#60e5e0" /><circle cx="571.8" cy="77.8" r="4" fill="#60e5e0" /><circle cx="616.5" cy="77.8" r="4" fill="#60e5e0" /><circle cx="661.2" cy="77.8" r="4" fill="#60e5e0" /><circle cx="705.9" cy="77.8" r="4" fill="#60e5e0" /><circle cx="750.6" cy="77.8" r="4" fill="#60e5e0" /><circle cx="795.3" cy="77.8" r="4" fill="#60e5e0" /><circle cx="840.0" cy="76.5" r="4" fill="#60e5e0" /><polyline points="80.0,312.8 124.7,312.5 169.4,312.3 214.1,312.3 258.8,312.3 303.5,312.2 348.2,312.2 392.9,312.2 437.6,312.2 482.4,312.2 527.1,312.0 571.8,312.0 616.5,312.0 661.2,312.0 705.9,312.0 750.6,312.0 795.3,312.0 840.0,312.0" fill="none" stroke="#567de1" stroke-width="2.5" stroke-linecap="round" stroke-linejoin="round" /><circle cx="80.0" cy="312.8" r="4" fill="#567de1" /><circle cx="124.7" cy="312.5" r="4" fill="#567de1" /><circle cx="169.4" cy="312.3" r="4" fill="#567de1" /><circle cx="214.1" cy="312.3" r="4" fill="#567de1" /><circle cx="258.8" cy="312.3" r="4" fill="#567de1" /><circle cx="303.5" cy="312.2" r="4" fill="#567de1" /><circle cx="348.2" cy="312.2" r="4" fill="#567de1" /><circle cx="392.9" cy="312.2" r="4" fill="#567de1" /><circle cx="437.6" cy="312.2" r="4" fill="#567de1" /><circle cx="482.4" cy="312.2" r="4" fill="#567de1" /><circle cx="527.1" cy="312.0" r="4" fill="#567de1" /><circle cx="571.8" cy="312.0" r="4" fill="#567de1" /><circle cx="616.5" cy="312.0" r="4" fill="#567de1" /><circle cx="661.2" cy="312.0" r="4" fill="#567de1" /><circle cx="705.9" cy="312.0" r="4" fill="#567de1" /><circle cx="750.6" cy="312.0" r="4" fill="#567de1" /><circle cx="795.3" cy="312.0" r="4" fill="#567de1" /><circle cx="840.0" cy="312.0" r="4" fill="#567de1" /><polyline points="80.0,298.5 124.7,299.0 169.4,299.2 214.1,299.2 258.8,299.2 303.5,299.2 348.2,299.2 392.9,299.2 437.6,299.2 482.4,299.2 527.1,299.2 571.8,299.2 616.5,299.2 661.2,299.2 705.9,299.2 750.6,299.2 795.3,299.2 840.0,299.2" fill="none" stroke="#9754dd" stroke-width="2.5" stroke-linecap="round" stroke-linejoin="round" /><circle cx="80.0" cy="298.5" r="4" fill="#9754dd" /><circle cx="124.7" cy="299.0" r="4" fill="#9754dd" /><circle cx="169.4" cy="299.2" r="4" fill="#9754dd" /><circle cx="214.1" cy="299.2" r="4" fill="#9754dd" /><circle cx="258.8" cy="299.2" r="4" fill="#9754dd" /><circle cx="303.5" cy="299.2" r="4" fill="#9754dd" /><circle cx="348.2" cy="299.2" r="4" fill="#9754dd" /><circle cx="392.9" cy="299.2" r="4" fill="#9754dd" /><circle cx="437.6" cy="299.2" r="4" fill="#9754dd" /><circle cx="482.4" cy="299.2" r="4" fill="#9754dd" /><circle cx="527.1" cy="299.2" r="4" fill="#9754dd" /><circle cx="571.8" cy="299.2" r="4" fill="#9754dd" /><circle cx="616.5" cy="299.2" r="4" fill="#9754dd" /><circle cx="661.2" cy="299.2" r="4" fill="#9754dd" /><circle cx="705.9" cy="299.2" r="4" fill="#9754dd" /><circle cx="750.6" cy="299.2" r="4" fill="#9754dd" /><circle cx="795.3" cy="299.2" r="4" fill="#9754dd" /><circle cx="840.0" cy="299.2" r="4" fill="#9754dd" />
  <rect x="80" y="339" width="10" height="10" rx="2" ry="2" fill="#19e5a1" /><text x="96" y="348" class="legend-label">Stars</text><rect x="250" y="339" width="10" height="10" rx="2" ry="2" fill="#6eb6ec" /><text x="266" y="348" class="legend-label">Followers</text><rect x="420" y="339" width="10" height="10" rx="2" ry="2" fill="#5938e2" /><text x="436" y="348" class="legend-label">Following</text><rect x="590" y="339" width="10" height="10" rx="2" ry="2" fill="#60e5e0" /><text x="606" y="348" class="legend-label">Contributions</text><rect x="80" y="357" width="10" height="10" rx="2" ry="2" fill="#567de1" /><text x="96" y="366" class="legend-label">Pull Requests</text><rect x="250" y="357" width="10" height="10" rx="2" ry="2" fill="#9754dd" /><text x="266" y="366" class="legend-label">Issues</text>
</svg>
