<svg width="900" height="402" viewBox="0 0 900 402" xmlns="http://www.w3.org/2000/svg">
  <defs>
    <linearGradient id="history-gradient" x1="0%" y1="0%" x2="100%" y2="100%">
      <stop offset="0%" style="stop-color:#58a6ff;stop-opacity:1" />
      <stop offset="100%" style="stop-color:#a371f7;stop-opacity:1" />
    </linearGradient>
    <clipPath id="history-rounded">
      <rect x="0" y="0" width="900" height="402" rx="8" ry="8" />
    </clipPath>
  </defs>
  <style>
    .title {
      font-family: 'Segoe UI', Ubuntu, 'Helvetica Neue', sans-serif;
      font-size: 22px;
      font-weight: 700;
      fill: #58a6ff;
    }
    .subtitle {
      font-family: 'Segoe UI', Ubuntu, 'Helvetica Neue', sans-serif;
      font-size: 12px;
      font-weight: 500;
      fill: #8b949e;
    }
    .axis-label {
      font-family: 'Segoe UI', Ubuntu, 'Helvetica Neue', sans-serif;
      font-size: 10px;
      fill: #8b949e;
    }
    .grid-line {
      stroke: #30363d;
      stroke-width: 1;
      opacity: 0.3;
    }
    .legend-label {
      font-family: 'Segoe UI', Ubuntu, 'Helvetica Neue', sans-serif;
      font-size: 11px;
      fill: #c9d1d9;
      dominant-baseline: middle;
    }
  </style>
  <rect clip-path="url(#history-rounded)" width="100%" height="100%" fill="#0d1117" stroke="#30363d" stroke-width="1" />
  <rect x="0" y="396" width="900" height="6" fill="url(#history-gradient)" clip-path="url(#history-rounded)" />
  <text x="24" y="34" class="title">Leonardo Klein Stats History</text>
  <text x="24" y="54" class="subtitle">Period: 2026-02-20 to 2026-03-07</text>
  <text x="72" y="320.0" text-anchor="end" dominant-baseline="central" class="axis-label">0</text><text x="72" y="270.0" text-anchor="end" dominant-baseline="central" class="axis-label">400</text><text x="72" y="220.0" text-anchor="end" dominant-baseline="central" class="axis-label">800</text><text x="72" y="170.0" text-anchor="end" dominant-baseline="central" class="axis-label">1.2k</text><text x="72" y="120.0" text-anchor="end" dominant-baseline="central" class="axis-label">1.6k</text><text x="72" y="70.0" text-anchor="end" dominant-baseline="central" class="axis-label">2.0k</text>
  <text x="80.0" y="336" text-anchor="middle" class="axis-label">02-20</text><text x="149.1" y="336" text-anchor="middle" class="axis-label">02-21</text><text x="218.2" y="336" text-anchor="middle" class="axis-label">02-23</text><text x="287.3" y="336" text-anchor="middle" class="axis-label">02-24</text><text x="356.4" y="336" text-anchor="middle" class="axis-label">02-26</text><text x="425.5" y="336" text-anchor="middle" class="axis-label">02-27</text><text x="494.5" y="336" text-anchor="middle" class="axis-label">02-28</text><text x="563.6" y="336" text-anchor="middle" class="axis-label">03-02</text><text x="632.7" y="336" text-anchor="middle" class="axis-label">03-03</text><text x="701.8" y="336" text-anchor="middle" class="axis-label">03-05</text><text x="770.9" y="336" text-anchor="middle" class="axis-label">03-06</text><text x="840.0" y="336" text-anchor="middle" class="axis-label">03-07</text>
  <line x1="80" y1="320.0" x2="840" y2="320.0" class="grid-line" /><line x1="80" y1="270.0" x2="840" y2="270.0" class="grid-line" /><line x1="80" y1="220.0" x2="840" y2="220.0" class="grid-line" /><line x1="80" y1="170.0" x2="840" y2="170.0" class="grid-line" /><line x1="80" y1="120.0" x2="840" y2="120.0" class="grid-line" /><line x1="80" y1="70.0" x2="840" y2="70.0" class="grid-line" />
  <polyline points="80.0,317.0 89.9,317.0 99.7,317.0 109.6,317.0 119.5,317.0 129.4,317.0 139.2,317.0 149.1,317.0 159.0,317.0 168.8,317.0 178.7,317.0 188.6,317.0 198.4,317.0 208.3,317.0 218.2,317.0 228.1,317.0 237.9,317.0 247.8,317.0 257.7,317.0 267.5,317.0 277.4,317.0 287.3,317.0 297.1,317.0 307.0,317.0 316.9,317.0 326.8,317.0 336.6,317.0 346.5,317.0 356.4,317.0 366.2,317.0 376.1,317.0 386.0,317.0 395.8,317.0 405.7,317.0 415.6,317.0 425.5,317.0 435.3,317.0 445.2,317.0 455.1,317.0 464.9,317.0 474.8,317.0 484.7,317.0 494.5,317.0 504.4,317.0 514.3,317.0 524.2,317.0 534.0,317.0 543.9,317.0 553.8,317.0 563.6,317.0 573.5,317.0 583.4,317.0 593.2,317.0 603.1,317.0 613.0,317.0 622.9,317.0 632.7,317.0 642.6,317.0 652.5,317.0 662.3,317.0 672.2,317.0 682.1,317.0 691.9,317.0 701.8,317.0 711.7,317.0 721.6,317.0 731.4,317.0 741.3,317.0 751.2,317.0 761.0,317.0 770.9,317.0 780.8,317.0 790.6,317.0 800.5,317.0 810.4,317.0 820.3,317.0 830.1,317.0 840.0,317.0" fill="none" stroke="#19e5a1" stroke-width="2.5" stroke-linecap="round" stroke-linejoin="round" /><circle cx="80.0" cy="317.0" r="4" fill="#19e5a1" /><circle cx="89.9" cy="317.0" r="4" fill="#19e5a1" /><circle cx="99.7" cy="317.0" r="4" fill="#19e5a1" /><circle cx="109.6" cy="317.0" r="4" fill="#19e5a1" /><circle cx="119.5" cy="317.0" r="4" fill="#19e5a1" /><circle cx="129.4" cy="317.0" r="4" fill="#19e5a1" /><circle cx="139.2" cy="317.0" r="4" fill="#19e5a1" /><circle cx="149.1" cy="317.0" r="4" fill="#19e5a1" /><circle cx="159.0" cy="317.0" r="4" fill="#19e5a1" /><circle cx="168.8" cy="317.0" r="4" fill="#19e5a1" /><circle cx="178.7" cy="317.0" r="4" fill="#19e5a1" /><circle cx="188.6" cy="317.0" r="4" fill="#19e5a1" /><circle cx="198.4" cy="317.0" r="4" fill="#19e5a1" /><circle cx="208.3" cy="317.0" r="4" fill="#19e5a1" /><circle cx="218.2" cy="317.0" r="4" fill="#19e5a1" /><circle cx="228.1" cy="317.0" r="4" fill="#19e5a1" /><circle cx="237.9" cy="317.0" r="4" fill="#19e5a1" /><circle cx="247.8" cy="317.0" r="4" fill="#19e5a1" /><circle cx="257.7" cy="317.0" r="4" fill="#19e5a1" /><circle cx="267.5" cy="317.0" r="4" fill="#19e5a1" /><circle cx="277.4" cy="317.0" r="4" fill="#19e5a1" /><circle cx="287.3" cy="317.0" r="4" fill="#19e5a1" /><circle cx="297.1" cy="317.0" r="4" fill="#19e5a1" /><circle cx="307.0" cy="317.0" r="4" fill="#19e5a1" /><circle cx="316.9" cy="317.0" r="4" fill="#19e5a1" /><circle cx="326.8" cy="317.0" r="4" fill="#19e5a1" /><circle cx="336.6" cy="317.0" r="4" fill="#19e5a1" /><circle cx="346.5" cy="317.0" r="4" fill="#19e5a1" /><circle cx="356.4" cy="317.0" r="4" fill="#19e5a1" /><circle cx="366.2" cy="317.0" r="4" fill="#19e5a1" /><circle cx="376.1" cy="317.0" r="4" fill="#19e5a1" /><circle cx="386.0" cy="317.0" r="4" fill="#19e5a1" /><circle cx="395.8" cy="317.0" r="4" fill="#19e5a1" /><circle cx="405.7" cy="317.0" r="4" fill="#19e5a1" /><circle cx="415.6" cy="317.0" r="4" fill="#19e5a1" /><circle cx="425.5" cy="317.0" r="4" fill="#19e5a1" /><circle cx="435.3" cy="317.0" r="4" fill="#19e5a1" /><circle cx="445.2" cy="317.0" r="4" fill="#19e5a1" /><circle cx="455.1" cy="317.0" r="4" fill="#19e5a1" /><circle cx="464.9" cy="317.0" r="4" fill="#19e5a1" /><circle cx="474.8" cy="317.0" r="4" fill="#19e5a1" /><circle cx="484.7" cy="317.0" r="4" fill="#19e5a1" /><circle cx="494.5" cy="317.0" r="4" fill="#19e5a1" /><circle cx="504.4" cy="317.0" r="4" fill="#19e5a1" /><circle cx="514.3" cy="317.0" r="4" fill="#19e5a1" /><circle cx="524.2" cy="317.0" r="4" fill="#19e5a1" /><circle cx="534.0" cy="317.0" r="4" fill="#19e5a1" /><circle cx="543.9" cy="317.0" r="4" fill="#19e5a1" /><circle cx="553.8" cy="317.0" r="4" fill="#19e5a1" /><circle cx="563.6" cy="317.0" r="4" fill="#19e5a1" /><circle cx="573.5" cy="317.0" r="4" fill="#19e5a1" /><circle cx="583.4" cy="317.0" r="4" fill="#19e5a1" /><circle cx="593.2" cy="317.0" r="4" fill="#19e5a1" /><circle cx="603.1" cy="317.0" r="4" fill="#19e5a1" /><circle cx="613.0" cy="317.0" r="4" fill="#19e5a1" /><circle cx="622.9" cy="317.0" r="4" fill="#19e5a1" /><circle cx="632.7" cy="317.0" r="4" fill="#19e5a1" /><circle cx="642.6" cy="317.0" r="4" fill="#19e5a1" /><circle cx="652.5" cy="317.0" r="4" fill="#19e5a1" /><circle cx="662.3" cy="317.0" r="4" fill="#19e5a1" /><circle cx="672.2" cy="317.0" r="4" fill="#19e5a1" /><circle cx="682.1" cy="317.0" r="4" fill="#19e5a1" /><circle cx="691.9" cy="317.0" r="4" fill="#19e5a1" /><circle cx="701.8" cy="317.0" r="4" fill="#19e5a1" /><circle cx="711.7" cy="317.0" r="4" fill="#19e5a1" /><circle cx="721.6" cy="317.0" r="4" fill="#19e5a1" /><circle cx="731.4" cy="317.0" r="4" fill="#19e5a1" /><circle cx="741.3" cy="317.0" r="4" fill="#19e5a1" /><circle cx="751.2" cy="317.0" r="4" fill="#19e5a1" /><circle cx="761.0" cy="317.0" r="4" fill="#19e5a1" /><circle cx="770.9" cy="317.0" r="4" fill="#19e5a1" /><circle cx="780.8" cy="317.0" r="4" fill="#19e5a1" /><circle cx="790.6" cy="317.0" r="4" fill="#19e5a1" /><circle cx="800.5" cy="317.0" r="4" fill="#19e5a1" /><circle cx="810.4" cy="317.0" r="4" fill="#19e5a1" /><circle cx="820.3" cy="317.0" r="4" fill="#19e5a1" /><circle cx="830.1" cy="317.0" r="4" fill="#19e5a1" /><circle cx="840.0" cy="317.0" r="4" fill="#19e5a1" /><polyline points="80.0,313.2 89.9,312.2 99.7,312.1 109.6,312.4 119.5,312.4 129.4,312.4 139.2,312.1 149.1,312.0 159.0,311.9 168.8,311.9 178.7,311.8 188.6,311.8 198.4,311.5 208.3,311.5 218.2,311.5 228.1,311.2 237.9,311.2 247.8,311.1 257.7,311.1 267.5,311.1 277.4,310.9 287.3,311.0 297.1,310.8 307.0,310.8 316.9,310.8 326.8,310.8 336.6,310.4 346.5,310.2 356.4,310.4 366.2,310.4 376.1,310.4 386.0,310.4 395.8,310.4 405.7,310.2 415.6,310.2 425.5,310.1 435.3,310.1 445.2,309.8 455.1,309.6 464.9,309.6 474.8,309.6 484.7,309.6 494.5,309.5 504.4,309.4 514.3,309.4 524.2,309.4 534.0,309.4 543.9,309.2 553.8,309.2 563.6,309.2 573.5,309.4 583.4,309.4 593.2,309.5 603.1,309.2 613.0,309.2 622.9,309.4 632.7,309.2 642.6,309.2 652.5,309.2 662.3,309.2 672.2,309.2 682.1,309.1 691.9,309.1 701.8,309.1 711.7,309.1 721.6,309.0 731.4,309.0 741.3,308.9 751.2,308.9 761.0,308.9 770.9,308.6 780.8,308.6 790.6,308.6 800.5,308.6 810.4,308.6 820.3,308.6 830.1,308.6 840.0,308.6" fill="none" stroke="#6eb6ec" stroke-width="2.5" stroke-linecap="round" stroke-linejoin="round" /><circle cx="80.0" cy="313.2" r="4" fill="#6eb6ec" /><circle cx="89.9" cy="312.2" r="4" fill="#6eb6ec" /><circle cx="99.7" cy="312.1" r="4" fill="#6eb6ec" /><circle cx="109.6" cy="312.4" r="4" fill="#6eb6ec" /><circle cx="119.5" cy="312.4" r="4" fill="#6eb6ec" /><circle cx="129.4" cy="312.4" r="4" fill="#6eb6ec" /><circle cx="139.2" cy="312.1" r="4" fill="#6eb6ec" /><circle cx="149.1" cy="312.0" r="4" fill="#6eb6ec" /><circle cx="159.0" cy="311.9" r="4" fill="#6eb6ec" /><circle cx="168.8" cy="311.9" r="4" fill="#6eb6ec" /><circle cx="178.7" cy="311.8" r="4" fill="#6eb6ec" /><circle cx="188.6" cy="311.8" r="4" fill="#6eb6ec" /><circle cx="198.4" cy="311.5" r="4" fill="#6eb6ec" /><circle cx="208.3" cy="311.5" r="4" fill="#6eb6ec" /><circle cx="218.2" cy="311.5" r="4" fill="#6eb6ec" /><circle cx="228.1" cy="311.2" r="4" fill="#6eb6ec" /><circle cx="237.9" cy="311.2" r="4" fill="#6eb6ec" /><circle cx="247.8" cy="311.1" r="4" fill="#6eb6ec" /><circle cx="257.7" cy="311.1" r="4" fill="#6eb6ec" /><circle cx="267.5" cy="311.1" r="4" fill="#6eb6ec" /><circle cx="277.4" cy="310.9" r="4" fill="#6eb6ec" /><circle cx="287.3" cy="311.0" r="4" fill="#6eb6ec" /><circle cx="297.1" cy="310.8" r="4" fill="#6eb6ec" /><circle cx="307.0" cy="310.8" r="4" fill="#6eb6ec" /><circle cx="316.9" cy="310.8" r="4" fill="#6eb6ec" /><circle cx="326.8" cy="310.8" r="4" fill="#6eb6ec" /><circle cx="336.6" cy="310.4" r="4" fill="#6eb6ec" /><circle cx="346.5" cy="310.2" r="4" fill="#6eb6ec" /><circle cx="356.4" cy="310.4" r="4" fill="#6eb6ec" /><circle cx="366.2" cy="310.4" r="4" fill="#6eb6ec" /><circle cx="376.1" cy="310.4" r="4" fill="#6eb6ec" /><circle cx="386.0" cy="310.4" r="4" fill="#6eb6ec" /><circle cx="395.8" cy="310.4" r="4" fill="#6eb6ec" /><circle cx="405.7" cy="310.2" r="4" fill="#6eb6ec" /><circle cx="415.6" cy="310.2" r="4" fill="#6eb6ec" /><circle cx="425.5" cy="310.1" r="4" fill="#6eb6ec" /><circle cx="435.3" cy="310.1" r="4" fill="#6eb6ec" /><circle cx="445.2" cy="309.8" r="4" fill="#6eb6ec" /><circle cx="455.1" cy="309.6" r="4" fill="#6eb6ec" /><circle cx="464.9" cy="309.6" r="4" fill="#6eb6ec" /><circle cx="474.8" cy="309.6" r="4" fill="#6eb6ec" /><circle cx="484.7" cy="309.6" r="4" fill="#6eb6ec" /><circle cx="494.5" cy="309.5" r="4" fill="#6eb6ec" /><circle cx="504.4" cy="309.4" r="4" fill="#6eb6ec" /><circle cx="514.3" cy="309.4" r="4" fill="#6eb6ec" /><circle cx="524.2" cy="309.4" r="4" fill="#6eb6ec" /><circle cx="534.0" cy="309.4" r="4" fill="#6eb6ec" /><circle cx="543.9" cy="309.2" r="4" fill="#6eb6ec" /><circle cx="553.8" cy="309.2" r="4" fill="#6eb6ec" /><circle cx="563.6" cy="309.2" r="4" fill="#6eb6ec" /><circle cx="573.5" cy="309.4" r="4" fill="#6eb6ec" /><circle cx="583.4" cy="309.4" r="4" fill="#6eb6ec" /><circle cx="593.2" cy="309.5" r="4" fill="#6eb6ec" /><circle cx="603.1" cy="309.2" r="4" fill="#6eb6ec" /><circle cx="613.0" cy="309.2" r="4" fill="#6eb6ec" /><circle cx="622.9" cy="309.4" r="4" fill="#6eb6ec" /><circle cx="632.7" cy="309.2" r="4" fill="#6eb6ec" /><circle cx="642.6" cy="309.2" r="4" fill="#6eb6ec" /><circle cx="652.5" cy="309.2" r="4" fill="#6eb6ec" /><circle cx="662.3" cy="309.2" r="4" fill="#6eb6ec" /><circle cx="672.2" cy="309.2" r="4" fill="#6eb6ec" /><circle cx="682.1" cy="309.1" r="4" fill="#6eb6ec" /><circle cx="691.9" cy="309.1" r="4" fill="#6eb6ec" /><circle cx="701.8" cy="309.1" r="4" fill="#6eb6ec" /><circle cx="711.7" cy="309.1" r="4" fill="#6eb6ec" /><circle cx="721.6" cy="309.0" r="4" fill="#6eb6ec" /><circle cx="731.4" cy="309.0" r="4" fill="#6eb6ec" /><circle cx="741.3" cy="308.9" r="4" fill="#6eb6ec" /><circle cx="751.2" cy="308.9" r="4" fill="#6eb6ec" /><circle cx="761.0" cy="308.9" r="4" fill="#6eb6ec" /><circle cx="770.9" cy="308.6" r="4" fill="#6eb6ec" /><circle cx="780.8" cy="308.6" r="4" fill="#6eb6ec" /><circle cx="790.6" cy="308.6" r="4" fill="#6eb6ec" /><circle cx="800.5" cy="308.6" r="4" fill="#6eb6ec" /><circle cx="810.4" cy="308.6" r="4" fill="#6eb6ec" /><circle cx="820.3" cy="308.6" r="4" fill="#6eb6ec" /><circle cx="830.1" cy="308.6" r="4" fill="#6eb6ec" /><circle cx="840.0" cy="308.6" r="4" fill="#6eb6ec" /><polyline points="80.0,305.8 89.9,305.8 99.7,305.8 109.6,305.8 119.5,305.8 129.4,305.8 139.2,305.8 149.1,305.8 159.0,305.8 168.8,305.8 178.7,304.9 188.6,304.9 198.4,304.9 208.3,304.9 218.2,304.9 228.1,304.9 237.9,304.9 247.8,304.9 257.7,304.9 267.5,304.9 277.4,304.9 287.3,304.9 297.1,304.9 307.0,304.9 316.9,304.9 326.8,304.9 336.6,304.9 346.5,304.9 356.4,304.9 366.2,304.9 376.1,304.9 386.0,304.9 395.8,304.9 405.7,304.9 415.6,304.9 425.5,304.9 435.3,304.9 445.2,303.6 455.1,303.6 464.9,303.6 474.8,303.6 484.7,303.6 494.5,303.6 504.4,303.6 514.3,303.6 524.2,303.6 534.0,303.6 543.9,303.6 553.8,303.6 563.6,303.6 573.5,303.6 583.4,302.9 593.2,302.9 603.1,298.0 613.0,298.0 622.9,298.0 632.7,298.0 642.6,298.0 652.5,298.0 662.3,298.0 672.2,298.0 682.1,298.0 691.9,298.0 701.8,298.0 711.7,298.0 721.6,298.0 731.4,298.0 741.3,297.8 751.2,297.8 761.0,297.8 770.9,297.8 780.8,297.8 790.6,297.8 800.5,297.8 810.4,297.8 820.3,297.8 830.1,297.8 840.0,297.8" fill="none" stroke="#5938e2" stroke-width="2.5" stroke-linecap="round" stroke-linejoin="round" /><circle cx="80.0" cy="305.8" r="4" fill="#5938e2" /><circle cx="89.9" cy="305.8" r="4" fill="#5938e2" /><circle cx="99.7" cy="305.8" r="4" fill="#5938e2" /><circle cx="109.6" cy="305.8" r="4" fill="#5938e2" /><circle cx="119.5" cy="305.8" r="4" fill="#5938e2" /><circle cx="129.4" cy="305.8" r="4" fill="#5938e2" /><circle cx="139.2" cy="305.8" r="4" fill="#5938e2" /><circle cx="149.1" cy="305.8" r="4" fill="#5938e2" /><circle cx="159.0" cy="305.8" r="4" fill="#5938e2" /><circle cx="168.8" cy="305.8" r="4" fill="#5938e2" /><circle cx="178.7" cy="304.9" r="4" fill="#5938e2" /><circle cx="188.6" cy="304.9" r="4" fill="#5938e2" /><circle cx="198.4" cy="304.9" r="4" fill="#5938e2" /><circle cx="208.3" cy="304.9" r="4" fill="#5938e2" /><circle cx="218.2" cy="304.9" r="4" fill="#5938e2" /><circle cx="228.1" cy="304.9" r="4" fill="#5938e2" /><circle cx="237.9" cy="304.9" r="4" fill="#5938e2" /><circle cx="247.8" cy="304.9" r="4" fill="#5938e2" /><circle cx="257.7" cy="304.9" r="4" fill="#5938e2" /><circle cx="267.5" cy="304.9" r="4" fill="#5938e2" /><circle cx="277.4" cy="304.9" r="4" fill="#5938e2" /><circle cx="287.3" cy="304.9" r="4" fill="#5938e2" /><circle cx="297.1" cy="304.9" r="4" fill="#5938e2" /><circle cx="307.0" cy="304.9" r="4" fill="#5938e2" /><circle cx="316.9" cy="304.9" r="4" fill="#5938e2" /><circle cx="326.8" cy="304.9" r="4" fill="#5938e2" /><circle cx="336.6" cy="304.9" r="4" fill="#5938e2" /><circle cx="346.5" cy="304.9" r="4" fill="#5938e2" /><circle cx="356.4" cy="304.9" r="4" fill="#5938e2" /><circle cx="366.2" cy="304.9" r="4" fill="#5938e2" /><circle cx="376.1" cy="304.9" r="4" fill="#5938e2" /><circle cx="386.0" cy="304.9" r="4" fill="#5938e2" /><circle cx="395.8" cy="304.9" r="4" fill="#5938e2" /><circle cx="405.7" cy="304.9" r="4" fill="#5938e2" /><circle cx="415.6" cy="304.9" r="4" fill="#5938e2" /><circle cx="425.5" cy="304.9" r="4" fill="#5938e2" /><circle cx="435.3" cy="304.9" r="4" fill="#5938e2" /><circle cx="445.2" cy="303.6" r="4" fill="#5938e2" /><circle cx="455.1" cy="303.6" r="4" fill="#5938e2" /><circle cx="464.9" cy="303.6" r="4" fill="#5938e2" /><circle cx="474.8" cy="303.6" r="4" fill="#5938e2" /><circle cx="484.7" cy="303.6" r="4" fill="#5938e2" /><circle cx="494.5" cy="303.6" r="4" fill="#5938e2" /><circle cx="504.4" cy="303.6" r="4" fill="#5938e2" /><circle cx="514.3" cy="303.6" r="4" fill="#5938e2" /><circle cx="524.2" cy="303.6" r="4" fill="#5938e2" /><circle cx="534.0" cy="303.6" r="4" fill="#5938e2" /><circle cx="543.9" cy="303.6" r="4" fill="#5938e2" /><circle cx="553.8" cy="303.6" r="4" fill="#5938e2" /><circle cx="563.6" cy="303.6" r="4" fill="#5938e2" /><circle cx="573.5" cy="303.6" r="4" fill="#5938e2" /><circle cx="583.4" cy="302.9" r="4" fill="#5938e2" /><circle cx="593.2" cy="302.9" r="4" fill="#5938e2" /><circle cx="603.1" cy="298.0" r="4" fill="#5938e2" /><circle cx="613.0" cy="298.0" r="4" fill="#5938e2" /><circle cx="622.9" cy="298.0" r="4" fill="#5938e2" /><circle cx="632.7" cy="298.0" r="4" fill="#5938e2" /><circle cx="642.6" cy="298.0" r="4" fill="#5938e2" /><circle cx="652.5" cy="298.0" r="4" fill="#5938e2" /><circle cx="662.3" cy="298.0" r="4" fill="#5938e2" /><circle cx="672.2" cy="298.0" r="4" fill="#5938e2" /><circle cx="682.1" cy="298.0" r="4" fill="#5938e2" /><circle cx="691.9" cy="298.0" r="4" fill="#5938e2" /><circle cx="701.8" cy="298.0" r="4" fill="#5938e2" /><circle cx="711.7" cy="298.0" r="4" fill="#5938e2" /><circle cx="721.6" cy="298.0" r="4" fill="#5938e2" /><circle cx="731.4" cy="298.0" r="4" fill="#5938e2" /><circle cx="741.3" cy="297.8" r="4" fill="#5938e2" /><circle cx="751.2" cy="297.8" r="4" fill="#5938e2" /><circle cx="761.0" cy="297.8" r="4" fill="#5938e2" /><circle cx="770.9" cy="297.8" r="4" fill="#5938e2" /><circle cx="780.8" cy="297.8" r="4" fill="#5938e2" /><circle cx="790.6" cy="297.8" r="4" fill="#5938e2" /><circle cx="800.5" cy="297.8" r="4" fill="#5938e2" /><circle cx="810.4" cy="297.8" r="4" fill="#5938e2" /><circle cx="820.3" cy="297.8" r="4" fill="#5938e2" /><circle cx="830.1" cy="297.8" r="4" fill="#5938e2" /><circle cx="840.0" cy="297.8" r="4" fill="#5938e2" /><polyline points="80.0,144.6 89.9,140.1 99.7,139.9 109.6,139.8 119.5,139.8 129.4,139.6 139.2,139.6 149.1,139.6 159.0,139.6 168.8,139.6 178.7,138.4 188.6,138.4 198.4,138.4 208.3,138.4 218.2,138.4 228.1,138.4 237.9,138.4 247.8,137.4 257.7,137.4 267.5,137.4 277.4,137.4 287.3,137.4 297.1,137.4 307.0,137.4 316.9,137.4 326.8,137.4 336.6,137.4 346.5,137.4 356.4,131.2 366.2,131.2 376.1,130.8 386.0,130.4 395.8,126.9 405.7,126.9 415.6,126.9 425.5,126.9 435.3,126.9 445.2,126.9 455.1,126.9 464.9,126.9 474.8,126.9 484.7,126.8 494.5,122.1 504.4,120.4 514.3,120.4 524.2,120.4 534.0,120.4 543.9,120.4 553.8,119.4 563.6,119.4 573.5,119.4 583.4,119.4 593.2,119.1 603.1,118.8 613.0,118.8 622.9,117.8 632.7,117.8 642.6,117.8 652.5,115.8 662.3,115.8 672.2,115.0 682.1,115.0 691.9,115.0 701.8,115.0 711.7,115.0 721.6,115.0 731.4,115.0 741.3,113.9 751.2,111.8 761.0,111.8 770.9,111.8 780.8,111.8 790.6,111.8 800.5,111.8 810.4,111.8 820.3,111.8 830.1,111.8 840.0,111.8" fill="none" stroke="#60e5e0" stroke-width="2.5" stroke-linecap="round" stroke-linejoin="round" /><circle cx="80.0" cy="144.6" r="4" fill="#60e5e0" /><circle cx="89.9" cy="140.1" r="4" fill="#60e5e0" /><circle cx="99.7" cy="139.9" r="4" fill="#60e5e0" /><circle cx="109.6" cy="139.8" r="4" fill="#60e5e0" /><circle cx="119.5" cy="139.8" r="4" fill="#60e5e0" /><circle cx="129.4" cy="139.6" r="4" fill="#60e5e0" /><circle cx="139.2" cy="139.6" r="4" fill="#60e5e0" /><circle cx="149.1" cy="139.6" r="4" fill="#60e5e0" /><circle cx="159.0" cy="139.6" r="4" fill="#60e5e0" /><circle cx="168.8" cy="139.6" r="4" fill="#60e5e0" /><circle cx="178.7" cy="138.4" r="4" fill="#60e5e0" /><circle cx="188.6" cy="138.4" r="4" fill="#60e5e0" /><circle cx="198.4" cy="138.4" r="4" fill="#60e5e0" /><circle cx="208.3" cy="138.4" r="4" fill="#60e5e0" /><circle cx="218.2" cy="138.4" r="4" fill="#60e5e0" /><circle cx="228.1" cy="138.4" r="4" fill="#60e5e0" /><circle cx="237.9" cy="138.4" r="4" fill="#60e5e0" /><circle cx="247.8" cy="137.4" r="4" fill="#60e5e0" /><circle cx="257.7" cy="137.4" r="4" fill="#60e5e0" /><circle cx="267.5" cy="137.4" r="4" fill="#60e5e0" /><circle cx="277.4" cy="137.4" r="4" fill="#60e5e0" /><circle cx="287.3" cy="137.4" r="4" fill="#60e5e0" /><circle cx="297.1" cy="137.4" r="4" fill="#60e5e0" /><circle cx="307.0" cy="137.4" r="4" fill="#60e5e0" /><circle cx="316.9" cy="137.4" r="4" fill="#60e5e0" /><circle cx="326.8" cy="137.4" r="4" fill="#60e5e0" /><circle cx="336.6" cy="137.4" r="4" fill="#60e5e0" /><circle cx="346.5" cy="137.4" r="4" fill="#60e5e0" /><circle cx="356.4" cy="131.2" r="4" fill="#60e5e0" /><circle cx="366.2" cy="131.2" r="4" fill="#60e5e0" /><circle cx="376.1" cy="130.8" r="4" fill="#60e5e0" /><circle cx="386.0" cy="130.4" r="4" fill="#60e5e0" /><circle cx="395.8" cy="126.9" r="4" fill="#60e5e0" /><circle cx="405.7" cy="126.9" r="4" fill="#60e5e0" /><circle cx="415.6" cy="126.9" r="4" fill="#60e5e0" /><circle cx="425.5" cy="126.9" r="4" fill="#60e5e0" /><circle cx="435.3" cy="126.9" r="4" fill="#60e5e0" /><circle cx="445.2" cy="126.9" r="4" fill="#60e5e0" /><circle cx="455.1" cy="126.9" r="4" fill="#60e5e0" /><circle cx="464.9" cy="126.9" r="4" fill="#60e5e0" /><circle cx="474.8" cy="126.9" r="4" fill="#60e5e0" /><circle cx="484.7" cy="126.8" r="4" fill="#60e5e0" /><circle cx="494.5" cy="122.1" r="4" fill="#60e5e0" /><circle cx="504.4" cy="120.4" r="4" fill="#60e5e0" /><circle cx="514.3" cy="120.4" r="4" fill="#60e5e0" /><circle cx="524.2" cy="120.4" r="4" fill="#60e5e0" /><circle cx="534.0" cy="120.4" r="4" fill="#60e5e0" /><circle cx="543.9" cy="120.4" r="4" fill="#60e5e0" /><circle cx="553.8" cy="119.4" r="4" fill="#60e5e0" /><circle cx="563.6" cy="119.4" r="4" fill="#60e5e0" /><circle cx="573.5" cy="119.4" r="4" fill="#60e5e0" /><circle cx="583.4" cy="119.4" r="4" fill="#60e5e0" /><circle cx="593.2" cy="119.1" r="4" fill="#60e5e0" /><circle cx="603.1" cy="118.8" r="4" fill="#60e5e0" /><circle cx="613.0" cy="118.8" r="4" fill="#60e5e0" /><circle cx="622.9" cy="117.8" r="4" fill="#60e5e0" /><circle cx="632.7" cy="117.8" r="4" fill="#60e5e0" /><circle cx="642.6" cy="117.8" r="4" fill="#60e5e0" /><circle cx="652.5" cy="115.8" r="4" fill="#60e5e0" /><circle cx="662.3" cy="115.8" r="4" fill="#60e5e0" /><circle cx="672.2" cy="115.0" r="4" fill="#60e5e0" /><circle cx="682.1" cy="115.0" r="4" fill="#60e5e0" /><circle cx="691.9" cy="115.0" r="4" fill="#60e5e0" /><circle cx="701.8" cy="115.0" r="4" fill="#60e5e0" /><circle cx="711.7" cy="115.0" r="4" fill="#60e5e0" /><circle cx="721.6" cy="115.0" r="4" fill="#60e5e0" /><circle cx="731.4" cy="115.0" r="4" fill="#60e5e0" /><circle cx="741.3" cy="113.9" r="4" fill="#60e5e0" /><circle cx="751.2" cy="111.8" r="4" fill="#60e5e0" /><circle cx="761.0" cy="111.8" r="4" fill="#60e5e0" /><circle cx="770.9" cy="111.8" r="4" fill="#60e5e0" /><circle cx="780.8" cy="111.8" r="4" fill="#60e5e0" /><circle cx="790.6" cy="111.8" r="4" fill="#60e5e0" /><circle cx="800.5" cy="111.8" r="4" fill="#60e5e0" /><circle cx="810.4" cy="111.8" r="4" fill="#60e5e0" /><circle cx="820.3" cy="111.8" r="4" fill="#60e5e0" /><circle cx="830.1" cy="111.8" r="4" fill="#60e5e0" /><circle cx="840.0" cy="111.8" r="4" fill="#60e5e0" /><polyline points="80.0,314.6 89.9,314.4 99.7,314.2 109.6,314.2 119.5,314.2 129.4,314.1 139.2,314.1 149.1,314.1 159.0,314.1 168.8,314.1 178.7,314.0 188.6,314.0 198.4,314.0 208.3,314.0 218.2,314.0 228.1,314.0 237.9,314.0 247.8,314.0 257.7,314.0 267.5,314.0 277.4,314.0 287.3,314.0 297.1,314.0 307.0,314.0 316.9,314.0 326.8,314.0 336.6,314.0 346.5,314.0 356.4,314.0 366.2,314.0 376.1,314.0 386.0,314.0 395.8,314.0 405.7,314.0 415.6,314.0 425.5,314.0 435.3,314.0 445.2,314.0 455.1,314.0 464.9,314.0 474.8,314.0 484.7,313.9 494.5,313.6 504.4,313.4 514.3,313.4 524.2,313.4 534.0,313.4 543.9,313.4 553.8,313.1 563.6,313.1 573.5,313.1 583.4,313.1 593.2,313.1 603.1,313.0 613.0,313.0 622.9,312.9 632.7,312.9 642.6,312.9 652.5,312.8 662.3,312.8 672.2,312.6 682.1,312.6 691.9,312.6 701.8,312.6 711.7,312.6 721.6,312.6 731.4,312.6 741.3,312.5 751.2,312.1 761.0,312.1 770.9,312.1 780.8,312.1 790.6,312.1 800.5,312.1 810.4,312.1 820.3,312.1 830.1,312.1 840.0,312.1" fill="none" stroke="#567de1" stroke-width="2.5" stroke-linecap="round" stroke-linejoin="round" /><circle cx="80.0" cy="314.6" r="4" fill="#567de1" /><circle cx="89.9" cy="314.4" r="4" fill="#567de1" /><circle cx="99.7" cy="314.2" r="4" fill="#567de1" /><circle cx="109.6" cy="314.2" r="4" fill="#567de1" /><circle cx="119.5" cy="314.2" r="4" fill="#567de1" /><circle cx="129.4" cy="314.1" r="4" fill="#567de1" /><circle cx="139.2" cy="314.1" r="4" fill="#567de1" /><circle cx="149.1" cy="314.1" r="4" fill="#567de1" /><circle cx="159.0" cy="314.1" r="4" fill="#567de1" /><circle cx="168.8" cy="314.1" r="4" fill="#567de1" /><circle cx="178.7" cy="314.0" r="4" fill="#567de1" /><circle cx="188.6" cy="314.0" r="4" fill="#567de1" /><circle cx="198.4" cy="314.0" r="4" fill="#567de1" /><circle cx="208.3" cy="314.0" r="4" fill="#567de1" /><circle cx="218.2" cy="314.0" r="4" fill="#567de1" /><circle cx="228.1" cy="314.0" r="4" fill="#567de1" /><circle cx="237.9" cy="314.0" r="4" fill="#567de1" /><circle cx="247.8" cy="314.0" r="4" fill="#567de1" /><circle cx="257.7" cy="314.0" r="4" fill="#567de1" /><circle cx="267.5" cy="314.0" r="4" fill="#567de1" /><circle cx="277.4" cy="314.0" r="4" fill="#567de1" /><circle cx="287.3" cy="314.0" r="4" fill="#567de1" /><circle cx="297.1" cy="314.0" r="4" fill="#567de1" /><circle cx="307.0" cy="314.0" r="4" fill="#567de1" /><circle cx="316.9" cy="314.0" r="4" fill="#567de1" /><circle cx="326.8" cy="314.0" r="4" fill="#567de1" /><circle cx="336.6" cy="314.0" r="4" fill="#567de1" /><circle cx="346.5" cy="314.0" r="4" fill="#567de1" /><circle cx="356.4" cy="314.0" r="4" fill="#567de1" /><circle cx="366.2" cy="314.0" r="4" fill="#567de1" /><circle cx="376.1" cy="314.0" r="4" fill="#567de1" /><circle cx="386.0" cy="314.0" r="4" fill="#567de1" /><circle cx="395.8" cy="314.0" r="4" fill="#567de1" /><circle cx="405.7" cy="314.0" r="4" fill="#567de1" /><circle cx="415.6" cy="314.0" r="4" fill="#567de1" /><circle cx="425.5" cy="314.0" r="4" fill="#567de1" /><circle cx="435.3" cy="314.0" r="4" fill="#567de1" /><circle cx="445.2" cy="314.0" r="4" fill="#567de1" /><circle cx="455.1" cy="314.0" r="4" fill="#567de1" /><circle cx="464.9" cy="314.0" r="4" fill="#567de1" /><circle cx="474.8" cy="314.0" r="4" fill="#567de1" /><circle cx="484.7" cy="313.9" r="4" fill="#567de1" /><circle cx="494.5" cy="313.6" r="4" fill="#567de1" /><circle cx="504.4" cy="313.4" r="4" fill="#567de1" /><circle cx="514.3" cy="313.4" r="4" fill="#567de1" /><circle cx="524.2" cy="313.4" r="4" fill="#567de1" /><circle cx="534.0" cy="313.4" r="4" fill="#567de1" /><circle cx="543.9" cy="313.4" r="4" fill="#567de1" /><circle cx="553.8" cy="313.1" r="4" fill="#567de1" /><circle cx="563.6" cy="313.1" r="4" fill="#567de1" /><circle cx="573.5" cy="313.1" r="4" fill="#567de1" /><circle cx="583.4" cy="313.1" r="4" fill="#567de1" /><circle cx="593.2" cy="313.1" r="4" fill="#567de1" /><circle cx="603.1" cy="313.0" r="4" fill="#567de1" /><circle cx="613.0" cy="313.0" r="4" fill="#567de1" /><circle cx="622.9" cy="312.9" r="4" fill="#567de1" /><circle cx="632.7" cy="312.9" r="4" fill="#567de1" /><circle cx="642.6" cy="312.9" r="4" fill="#567de1" /><circle cx="652.5" cy="312.8" r="4" fill="#567de1" /><circle cx="662.3" cy="312.8" r="4" fill="#567de1" /><circle cx="672.2" cy="312.6" r="4" fill="#567de1" /><circle cx="682.1" cy="312.6" r="4" fill="#567de1" /><circle cx="691.9" cy="312.6" r="4" fill="#567de1" /><circle cx="701.8" cy="312.6" r="4" fill="#567de1" /><circle cx="711.7" cy="312.6" r="4" fill="#567de1" /><circle cx="721.6" cy="312.6" r="4" fill="#567de1" /><circle cx="731.4" cy="312.6" r="4" fill="#567de1" /><circle cx="741.3" cy="312.5" r="4" fill="#567de1" /><circle cx="751.2" cy="312.1" r="4" fill="#567de1" /><circle cx="761.0" cy="312.1" r="4" fill="#567de1" /><circle cx="770.9" cy="312.1" r="4" fill="#567de1" /><circle cx="780.8" cy="312.1" r="4" fill="#567de1" /><circle cx="790.6" cy="312.1" r="4" fill="#567de1" /><circle cx="800.5" cy="312.1" r="4" fill="#567de1" /><circle cx="810.4" cy="312.1" r="4" fill="#567de1" /><circle cx="820.3" cy="312.1" r="4" fill="#567de1" /><circle cx="830.1" cy="312.1" r="4" fill="#567de1" /><circle cx="840.0" cy="312.1" r="4" fill="#567de1" /><polyline points="80.0,303.9 89.9,304.2 99.7,304.4 109.6,304.4 119.5,304.4 129.4,304.4 139.2,304.4 149.1,304.4 159.0,304.4 168.8,304.4 178.7,304.4 188.6,304.4 198.4,304.4 208.3,304.4 218.2,304.4 228.1,304.4 237.9,304.4 247.8,304.4 257.7,304.4 267.5,304.4 277.4,304.4 287.3,304.4 297.1,304.4 307.0,304.4 316.9,304.4 326.8,304.4 336.6,304.4 346.5,304.4 356.4,299.1 366.2,299.1 376.1,299.1 386.0,298.9 395.8,295.6 405.7,295.6 415.6,295.6 425.5,295.6 435.3,295.6 445.2,295.6 455.1,295.6 464.9,295.6 474.8,295.6 484.7,295.8 494.5,295.9 504.4,295.9 514.3,295.9 524.2,295.9 534.0,295.9 543.9,295.9 553.8,295.9 563.6,295.9 573.5,295.9 583.4,295.9 593.2,295.9 603.1,295.9 613.0,295.9 622.9,295.9 632.7,295.9 642.6,295.9 652.5,295.8 662.3,295.8 672.2,295.9 682.1,295.9 691.9,295.9 701.8,295.9 711.7,295.9 721.6,295.9 731.4,295.9 741.3,296.0 751.2,296.4 761.0,296.4 770.9,296.4 780.8,296.4 790.6,296.4 800.5,296.4 810.4,296.4 820.3,296.4 830.1,296.4 840.0,296.4" fill="none" stroke="#9754dd" stroke-width="2.5" stroke-linecap="round" stroke-linejoin="round" /><circle cx="80.0" cy="303.9" r="4" fill="#9754dd" /><circle cx="89.9" cy="304.2" r="4" fill="#9754dd" /><circle cx="99.7" cy="304.4" r="4" fill="#9754dd" /><circle cx="109.6" cy="304.4" r="4" fill="#9754dd" /><circle cx="119.5" cy="304.4" r="4" fill="#9754dd" /><circle cx="129.4" cy="304.4" r="4" fill="#9754dd" /><circle cx="139.2" cy="304.4" r="4" fill="#9754dd" /><circle cx="149.1" cy="304.4" r="4" fill="#9754dd" /><circle cx="159.0" cy="304.4" r="4" fill="#9754dd" /><circle cx="168.8" cy="304.4" r="4" fill="#9754dd" /><circle cx="178.7" cy="304.4" r="4" fill="#9754dd" /><circle cx="188.6" cy="304.4" r="4" fill="#9754dd" /><circle cx="198.4" cy="304.4" r="4" fill="#9754dd" /><circle cx="208.3" cy="304.4" r="4" fill="#9754dd" /><circle cx="218.2" cy="304.4" r="4" fill="#9754dd" /><circle cx="228.1" cy="304.4" r="4" fill="#9754dd" /><circle cx="237.9" cy="304.4" r="4" fill="#9754dd" /><circle cx="247.8" cy="304.4" r="4" fill="#9754dd" /><circle cx="257.7" cy="304.4" r="4" fill="#9754dd" /><circle cx="267.5" cy="304.4" r="4" fill="#9754dd" /><circle cx="277.4" cy="304.4" r="4" fill="#9754dd" /><circle cx="287.3" cy="304.4" r="4" fill="#9754dd" /><circle cx="297.1" cy="304.4" r="4" fill="#9754dd" /><circle cx="307.0" cy="304.4" r="4" fill="#9754dd" /><circle cx="316.9" cy="304.4" r="4" fill="#9754dd" /><circle cx="326.8" cy="304.4" r="4" fill="#9754dd" /><circle cx="336.6" cy="304.4" r="4" fill="#9754dd" /><circle cx="346.5" cy="304.4" r="4" fill="#9754dd" /><circle cx="356.4" cy="299.1" r="4" fill="#9754dd" /><circle cx="366.2" cy="299.1" r="4" fill="#9754dd" /><circle cx="376.1" cy="299.1" r="4" fill="#9754dd" /><circle cx="386.0" cy="298.9" r="4" fill="#9754dd" /><circle cx="395.8" cy="295.6" r="4" fill="#9754dd" /><circle cx="405.7" cy="295.6" r="4" fill="#9754dd" /><circle cx="415.6" cy="295.6" r="4" fill="#9754dd" /><circle cx="425.5" cy="295.6" r="4" fill="#9754dd" /><circle cx="435.3" cy="295.6" r="4" fill="#9754dd" /><circle cx="445.2" cy="295.6" r="4" fill="#9754dd" /><circle cx="455.1" cy="295.6" r="4" fill="#9754dd" /><circle cx="464.9" cy="295.6" r="4" fill="#9754dd" /><circle cx="474.8" cy="295.6" r="4" fill="#9754dd" /><circle cx="484.7" cy="295.8" r="4" fill="#9754dd" /><circle cx="494.5" cy="295.9" r="4" fill="#9754dd" /><circle cx="504.4" cy="295.9" r="4" fill="#9754dd" /><circle cx="514.3" cy="295.9" r="4" fill="#9754dd" /><circle cx="524.2" cy="295.9" r="4" fill="#9754dd" /><circle cx="534.0" cy="295.9" r="4" fill="#9754dd" /><circle cx="543.9" cy="295.9" r="4" fill="#9754dd" /><circle cx="553.8" cy="295.9" r="4" fill="#9754dd" /><circle cx="563.6" cy="295.9" r="4" fill="#9754dd" /><circle cx="573.5" cy="295.9" r="4" fill="#9754dd" /><circle cx="583.4" cy="295.9" r="4" fill="#9754dd" /><circle cx="593.2" cy="295.9" r="4" fill="#9754dd" /><circle cx="603.1" cy="295.9" r="4" fill="#9754dd" /><circle cx="613.0" cy="295.9" r="4" fill="#9754dd" /><circle cx="622.9" cy="295.9" r="4" fill="#9754dd" /><circle cx="632.7" cy="295.9" r="4" fill="#9754dd" /><circle cx="642.6" cy="295.9" r="4" fill="#9754dd" /><circle cx="652.5" cy="295.8" r="4" fill="#9754dd" /><circle cx="662.3" cy="295.8" r="4" fill="#9754dd" /><circle cx="672.2" cy="295.9" r="4" fill="#9754dd" /><circle cx="682.1" cy="295.9" r="4" fill="#9754dd" /><circle cx="691.9" cy="295.9" r="4" fill="#9754dd" /><circle cx="701.8" cy="295.9" r="4" fill="#9754dd" /><circle cx="711.7" cy="295.9" r="4" fill="#9754dd" /><circle cx="721.6" cy="295.9" r="4" fill="#9754dd" /><circle cx="731.4" cy="295.9" r="4" fill="#9754dd" /><circle cx="741.3" cy="296.0" r="4" fill="#9754dd" /><circle cx="751.2" cy="296.4" r="4" fill="#9754dd" /><circle cx="761.0" cy="296.4" r="4" fill="#9754dd" /><circle cx="770.9" cy="296.4" r="4" fill="#9754dd" /><circle cx="780.8" cy="296.4" r="4" fill="#9754dd" /><circle cx="790.6" cy="296.4" r="4" fill="#9754dd" /><circle cx="800.5" cy="296.4" r="4" fill="#9754dd" /><circle cx="810.4" cy="296.4" r="4" fill="#9754dd" /><circle cx="820.3" cy="296.4" r="4" fill="#9754dd" /><circle cx="830.1" cy="296.4" r="4" fill="#9754dd" /><circle cx="840.0" cy="296.4" r="4" fill="#9754dd" />
  <rect x="80" y="339" width="10" height="10" rx="2" ry="2" fill="#19e5a1" /><text x="96" y="348" class="legend-label">Stars</text><rect x="250" y="339" width="10" height="10" rx="2" ry="2" fill="#6eb6ec" /><text x="266" y="348" class="legend-label">Followers</text><rect x="420" y="339" width="10" height="10" rx="2" ry="2" fill="#5938e2" /><text x="436" y="348" class="legend-label">Following</text><rect x="590" y="339" width="10" height="10" rx="2" ry="2" fill="#60e5e0" /><text x="606" y="348" class="legend-label">Contributions</text><rect x="80" y="357" width="10" height="10" rx="2" ry="2" fill="#567de1" /><text x="96" y="366" class="legend-label">Pull Requests</text><rect x="250" y="357" width="10" height="10" rx="2" ry="2" fill="#9754dd" /><text x="266" y="366" class="legend-label">Issues</text>
</svg>
