<svg width="900" height="402" viewBox="0 0 900 402" xmlns="http://www.w3.org/2000/svg">
  <defs>
    <linearGradient id="history-gradient" x1="0%" y1="0%" x2="100%" y2="100%">
      <stop offset="0%" style="stop-color:#58a6ff;stop-opacity:1" />
      <stop offset="100%" style="stop-color:#a371f7;stop-opacity:1" />
    </linearGradient>
    <clipPath id="history-rounded">
      <rect x="0" y="0" width="900" height="402" rx="8" ry="8" />
    </clipPath>
  </defs>
  <style>
    .title {
      font-family: 'Segoe UI', Ubuntu, 'Helvetica Neue', sans-serif;
      font-size: 22px;
      font-weight: 700;
      fill: #58a6ff;
    }
    .subtitle {
      font-family: 'Segoe UI', Ubuntu, 'Helvetica Neue', sans-serif;
      font-size: 12px;
      font-weight: 500;
      fill: #8b949e;
    }
    .axis-label {
      font-family: 'Segoe UI', Ubuntu, 'Helvetica Neue', sans-serif;
      font-size: 10px;
      fill: #8b949e;
    }
    .grid-line {
      stroke: #30363d;
      stroke-width: 1;
      opacity: 0.3;
    }
    .legend-label {
      font-family: 'Segoe UI', Ubuntu, 'Helvetica Neue', sans-serif;
      font-size: 11px;
      fill: #c9d1d9;
      dominant-baseline: middle;
    }
  </style>
  <rect clip-path="url(#history-rounded)" width="100%" height="100%" fill="#0d1117" stroke="#30363d" stroke-width="1" />
  <rect x="0" y="396" width="900" height="6" fill="url(#history-gradient)" clip-path="url(#history-rounded)" />
  <text x="24" y="34" class="title">Leonardo Klein Stats History</text>
  <text x="24" y="54" class="subtitle">Period: 2026-02-20 to 2026-03-07</text>
  <text x="72" y="320.0" text-anchor="end" dominant-baseline="central" class="axis-label">0</text><text x="72" y="270.0" text-anchor="end" dominant-baseline="central" class="axis-label">400</text><text x="72" y="220.0" text-anchor="end" dominant-baseline="central" class="axis-label">800</text><text x="72" y="170.0" text-anchor="end" dominant-baseline="central" class="axis-label">1.2k</text><text x="72" y="120.0" text-anchor="end" dominant-baseline="central" class="axis-label">1.6k</text><text x="72" y="70.0" text-anchor="end" dominant-baseline="central" class="axis-label">2.0k</text>
  <text x="80.0" y="336" text-anchor="middle" class="axis-label">02-20</text><text x="152.9" y="336" text-anchor="middle" class="axis-label">02-21</text><text x="225.8" y="336" text-anchor="middle" class="axis-label">02-23</text><text x="298.6" y="336" text-anchor="middle" class="axis-label">02-24</text><text x="371.5" y="336" text-anchor="middle" class="axis-label">02-26</text><text x="444.4" y="336" text-anchor="middle" class="axis-label">02-27</text><text x="517.3" y="336" text-anchor="middle" class="axis-label">02-28</text><text x="590.1" y="336" text-anchor="middle" class="axis-label">03-02</text><text x="663.0" y="336" text-anchor="middle" class="axis-label">03-03</text><text x="735.9" y="336" text-anchor="middle" class="axis-label">03-05</text><text x="808.8" y="336" text-anchor="middle" class="axis-label">03-06</text><text x="840.0" y="336" text-anchor="middle" class="axis-label">03-07</text>
  <line x1="80" y1="320.0" x2="840" y2="320.0" class="grid-line" /><line x1="80" y1="270.0" x2="840" y2="270.0" class="grid-line" /><line x1="80" y1="220.0" x2="840" y2="220.0" class="grid-line" /><line x1="80" y1="170.0" x2="840" y2="170.0" class="grid-line" /><line x1="80" y1="120.0" x2="840" y2="120.0" class="grid-line" /><line x1="80" y1="70.0" x2="840" y2="70.0" class="grid-line" />
  <polyline points="80.0,317.0 90.4,317.0 100.8,317.0 111.2,317.0 121.6,317.0 132.1,317.0 142.5,317.0 152.9,317.0 163.3,317.0 173.7,317.0 184.1,317.0 194.5,317.0 204.9,317.0 215.3,317.0 225.8,317.0 236.2,317.0 246.6,317.0 257.0,317.0 267.4,317.0 277.8,317.0 288.2,317.0 298.6,317.0 309.0,317.0 319.5,317.0 329.9,317.0 340.3,317.0 350.7,317.0 361.1,317.0 371.5,317.0 381.9,317.0 392.3,317.0 402.7,317.0 413.2,317.0 423.6,317.0 434.0,317.0 444.4,317.0 454.8,317.0 465.2,317.0 475.6,317.0 486.0,317.0 496.4,317.0 506.8,317.0 517.3,317.0 527.7,317.0 538.1,317.0 548.5,317.0 558.9,317.0 569.3,317.0 579.7,317.0 590.1,317.0 600.5,317.0 611.0,317.0 621.4,317.0 631.8,317.0 642.2,317.0 652.6,317.0 663.0,317.0 673.4,317.0 683.8,317.0 694.2,317.0 704.7,317.0 715.1,317.0 725.5,317.0 735.9,317.0 746.3,317.0 756.7,317.0 767.1,317.0 777.5,317.0 787.9,317.0 798.4,317.0 808.8,317.0 819.2,317.0 829.6,317.0 840.0,317.0" fill="none" stroke="#19e5a1" stroke-width="2.5" stroke-linecap="round" stroke-linejoin="round" /><circle cx="80.0" cy="317.0" r="4" fill="#19e5a1" /><circle cx="90.4" cy="317.0" r="4" fill="#19e5a1" /><circle cx="100.8" cy="317.0" r="4" fill="#19e5a1" /><circle cx="111.2" cy="317.0" r="4" fill="#19e5a1" /><circle cx="121.6" cy="317.0" r="4" fill="#19e5a1" /><circle cx="132.1" cy="317.0" r="4" fill="#19e5a1" /><circle cx="142.5" cy="317.0" r="4" fill="#19e5a1" /><circle cx="152.9" cy="317.0" r="4" fill="#19e5a1" /><circle cx="163.3" cy="317.0" r="4" fill="#19e5a1" /><circle cx="173.7" cy="317.0" r="4" fill="#19e5a1" /><circle cx="184.1" cy="317.0" r="4" fill="#19e5a1" /><circle cx="194.5" cy="317.0" r="4" fill="#19e5a1" /><circle cx="204.9" cy="317.0" r="4" fill="#19e5a1" /><circle cx="215.3" cy="317.0" r="4" fill="#19e5a1" /><circle cx="225.8" cy="317.0" r="4" fill="#19e5a1" /><circle cx="236.2" cy="317.0" r="4" fill="#19e5a1" /><circle cx="246.6" cy="317.0" r="4" fill="#19e5a1" /><circle cx="257.0" cy="317.0" r="4" fill="#19e5a1" /><circle cx="267.4" cy="317.0" r="4" fill="#19e5a1" /><circle cx="277.8" cy="317.0" r="4" fill="#19e5a1" /><circle cx="288.2" cy="317.0" r="4" fill="#19e5a1" /><circle cx="298.6" cy="317.0" r="4" fill="#19e5a1" /><circle cx="309.0" cy="317.0" r="4" fill="#19e5a1" /><circle cx="319.5" cy="317.0" r="4" fill="#19e5a1" /><circle cx="329.9" cy="317.0" r="4" fill="#19e5a1" /><circle cx="340.3" cy="317.0" r="4" fill="#19e5a1" /><circle cx="350.7" cy="317.0" r="4" fill="#19e5a1" /><circle cx="361.1" cy="317.0" r="4" fill="#19e5a1" /><circle cx="371.5" cy="317.0" r="4" fill="#19e5a1" /><circle cx="381.9" cy="317.0" r="4" fill="#19e5a1" /><circle cx="392.3" cy="317.0" r="4" fill="#19e5a1" /><circle cx="402.7" cy="317.0" r="4" fill="#19e5a1" /><circle cx="413.2" cy="317.0" r="4" fill="#19e5a1" /><circle cx="423.6" cy="317.0" r="4" fill="#19e5a1" /><circle cx="434.0" cy="317.0" r="4" fill="#19e5a1" /><circle cx="444.4" cy="317.0" r="4" fill="#19e5a1" /><circle cx="454.8" cy="317.0" r="4" fill="#19e5a1" /><circle cx="465.2" cy="317.0" r="4" fill="#19e5a1" /><circle cx="475.6" cy="317.0" r="4" fill="#19e5a1" /><circle cx="486.0" cy="317.0" r="4" fill="#19e5a1" /><circle cx="496.4" cy="317.0" r="4" fill="#19e5a1" /><circle cx="506.8" cy="317.0" r="4" fill="#19e5a1" /><circle cx="517.3" cy="317.0" r="4" fill="#19e5a1" /><circle cx="527.7" cy="317.0" r="4" fill="#19e5a1" /><circle cx="538.1" cy="317.0" r="4" fill="#19e5a1" /><circle cx="548.5" cy="317.0" r="4" fill="#19e5a1" /><circle cx="558.9" cy="317.0" r="4" fill="#19e5a1" /><circle cx="569.3" cy="317.0" r="4" fill="#19e5a1" /><circle cx="579.7" cy="317.0" r="4" fill="#19e5a1" /><circle cx="590.1" cy="317.0" r="4" fill="#19e5a1" /><circle cx="600.5" cy="317.0" r="4" fill="#19e5a1" /><circle cx="611.0" cy="317.0" r="4" fill="#19e5a1" /><circle cx="621.4" cy="317.0" r="4" fill="#19e5a1" /><circle cx="631.8" cy="317.0" r="4" fill="#19e5a1" /><circle cx="642.2" cy="317.0" r="4" fill="#19e5a1" /><circle cx="652.6" cy="317.0" r="4" fill="#19e5a1" /><circle cx="663.0" cy="317.0" r="4" fill="#19e5a1" /><circle cx="673.4" cy="317.0" r="4" fill="#19e5a1" /><circle cx="683.8" cy="317.0" r="4" fill="#19e5a1" /><circle cx="694.2" cy="317.0" r="4" fill="#19e5a1" /><circle cx="704.7" cy="317.0" r="4" fill="#19e5a1" /><circle cx="715.1" cy="317.0" r="4" fill="#19e5a1" /><circle cx="725.5" cy="317.0" r="4" fill="#19e5a1" /><circle cx="735.9" cy="317.0" r="4" fill="#19e5a1" /><circle cx="746.3" cy="317.0" r="4" fill="#19e5a1" /><circle cx="756.7" cy="317.0" r="4" fill="#19e5a1" /><circle cx="767.1" cy="317.0" r="4" fill="#19e5a1" /><circle cx="777.5" cy="317.0" r="4" fill="#19e5a1" /><circle cx="787.9" cy="317.0" r="4" fill="#19e5a1" /><circle cx="798.4" cy="317.0" r="4" fill="#19e5a1" /><circle cx="808.8" cy="317.0" r="4" fill="#19e5a1" /><circle cx="819.2" cy="317.0" r="4" fill="#19e5a1" /><circle cx="829.6" cy="317.0" r="4" fill="#19e5a1" /><circle cx="840.0" cy="317.0" r="4" fill="#19e5a1" /><polyline points="80.0,313.2 90.4,312.2 100.8,312.1 111.2,312.4 121.6,312.4 132.1,312.4 142.5,312.1 152.9,312.0 163.3,311.9 173.7,311.9 184.1,311.8 194.5,311.8 204.9,311.5 215.3,311.5 225.8,311.5 236.2,311.2 246.6,311.2 257.0,311.1 267.4,311.1 277.8,311.1 288.2,310.9 298.6,311.0 309.0,310.8 319.5,310.8 329.9,310.8 340.3,310.8 350.7,310.4 361.1,310.2 371.5,310.4 381.9,310.4 392.3,310.4 402.7,310.4 413.2,310.4 423.6,310.2 434.0,310.2 444.4,310.1 454.8,310.1 465.2,309.8 475.6,309.6 486.0,309.6 496.4,309.6 506.8,309.6 517.3,309.5 527.7,309.4 538.1,309.4 548.5,309.4 558.9,309.4 569.3,309.2 579.7,309.2 590.1,309.2 600.5,309.4 611.0,309.4 621.4,309.5 631.8,309.2 642.2,309.2 652.6,309.4 663.0,309.2 673.4,309.2 683.8,309.2 694.2,309.2 704.7,309.2 715.1,309.1 725.5,309.1 735.9,309.1 746.3,309.1 756.7,309.0 767.1,309.0 777.5,308.9 787.9,308.9 798.4,308.9 808.8,308.6 819.2,308.6 829.6,308.6 840.0,308.6" fill="none" stroke="#6eb6ec" stroke-width="2.5" stroke-linecap="round" stroke-linejoin="round" /><circle cx="80.0" cy="313.2" r="4" fill="#6eb6ec" /><circle cx="90.4" cy="312.2" r="4" fill="#6eb6ec" /><circle cx="100.8" cy="312.1" r="4" fill="#6eb6ec" /><circle cx="111.2" cy="312.4" r="4" fill="#6eb6ec" /><circle cx="121.6" cy="312.4" r="4" fill="#6eb6ec" /><circle cx="132.1" cy="312.4" r="4" fill="#6eb6ec" /><circle cx="142.5" cy="312.1" r="4" fill="#6eb6ec" /><circle cx="152.9" cy="312.0" r="4" fill="#6eb6ec" /><circle cx="163.3" cy="311.9" r="4" fill="#6eb6ec" /><circle cx="173.7" cy="311.9" r="4" fill="#6eb6ec" /><circle cx="184.1" cy="311.8" r="4" fill="#6eb6ec" /><circle cx="194.5" cy="311.8" r="4" fill="#6eb6ec" /><circle cx="204.9" cy="311.5" r="4" fill="#6eb6ec" /><circle cx="215.3" cy="311.5" r="4" fill="#6eb6ec" /><circle cx="225.8" cy="311.5" r="4" fill="#6eb6ec" /><circle cx="236.2" cy="311.2" r="4" fill="#6eb6ec" /><circle cx="246.6" cy="311.2" r="4" fill="#6eb6ec" /><circle cx="257.0" cy="311.1" r="4" fill="#6eb6ec" /><circle cx="267.4" cy="311.1" r="4" fill="#6eb6ec" /><circle cx="277.8" cy="311.1" r="4" fill="#6eb6ec" /><circle cx="288.2" cy="310.9" r="4" fill="#6eb6ec" /><circle cx="298.6" cy="311.0" r="4" fill="#6eb6ec" /><circle cx="309.0" cy="310.8" r="4" fill="#6eb6ec" /><circle cx="319.5" cy="310.8" r="4" fill="#6eb6ec" /><circle cx="329.9" cy="310.8" r="4" fill="#6eb6ec" /><circle cx="340.3" cy="310.8" r="4" fill="#6eb6ec" /><circle cx="350.7" cy="310.4" r="4" fill="#6eb6ec" /><circle cx="361.1" cy="310.2" r="4" fill="#6eb6ec" /><circle cx="371.5" cy="310.4" r="4" fill="#6eb6ec" /><circle cx="381.9" cy="310.4" r="4" fill="#6eb6ec" /><circle cx="392.3" cy="310.4" r="4" fill="#6eb6ec" /><circle cx="402.7" cy="310.4" r="4" fill="#6eb6ec" /><circle cx="413.2" cy="310.4" r="4" fill="#6eb6ec" /><circle cx="423.6" cy="310.2" r="4" fill="#6eb6ec" /><circle cx="434.0" cy="310.2" r="4" fill="#6eb6ec" /><circle cx="444.4" cy="310.1" r="4" fill="#6eb6ec" /><circle cx="454.8" cy="310.1" r="4" fill="#6eb6ec" /><circle cx="465.2" cy="309.8" r="4" fill="#6eb6ec" /><circle cx="475.6" cy="309.6" r="4" fill="#6eb6ec" /><circle cx="486.0" cy="309.6" r="4" fill="#6eb6ec" /><circle cx="496.4" cy="309.6" r="4" fill="#6eb6ec" /><circle cx="506.8" cy="309.6" r="4" fill="#6eb6ec" /><circle cx="517.3" cy="309.5" r="4" fill="#6eb6ec" /><circle cx="527.7" cy="309.4" r="4" fill="#6eb6ec" /><circle cx="538.1" cy="309.4" r="4" fill="#6eb6ec" /><circle cx="548.5" cy="309.4" r="4" fill="#6eb6ec" /><circle cx="558.9" cy="309.4" r="4" fill="#6eb6ec" /><circle cx="569.3" cy="309.2" r="4" fill="#6eb6ec" /><circle cx="579.7" cy="309.2" r="4" fill="#6eb6ec" /><circle cx="590.1" cy="309.2" r="4" fill="#6eb6ec" /><circle cx="600.5" cy="309.4" r="4" fill="#6eb6ec" /><circle cx="611.0" cy="309.4" r="4" fill="#6eb6ec" /><circle cx="621.4" cy="309.5" r="4" fill="#6eb6ec" /><circle cx="631.8" cy="309.2" r="4" fill="#6eb6ec" /><circle cx="642.2" cy="309.2" r="4" fill="#6eb6ec" /><circle cx="652.6" cy="309.4" r="4" fill="#6eb6ec" /><circle cx="663.0" cy="309.2" r="4" fill="#6eb6ec" /><circle cx="673.4" cy="309.2" r="4" fill="#6eb6ec" /><circle cx="683.8" cy="309.2" r="4" fill="#6eb6ec" /><circle cx="694.2" cy="309.2" r="4" fill="#6eb6ec" /><circle cx="704.7" cy="309.2" r="4" fill="#6eb6ec" /><circle cx="715.1" cy="309.1" r="4" fill="#6eb6ec" /><circle cx="725.5" cy="309.1" r="4" fill="#6eb6ec" /><circle cx="735.9" cy="309.1" r="4" fill="#6eb6ec" /><circle cx="746.3" cy="309.1" r="4" fill="#6eb6ec" /><circle cx="756.7" cy="309.0" r="4" fill="#6eb6ec" /><circle cx="767.1" cy="309.0" r="4" fill="#6eb6ec" /><circle cx="777.5" cy="308.9" r="4" fill="#6eb6ec" /><circle cx="787.9" cy="308.9" r="4" fill="#6eb6ec" /><circle cx="798.4" cy="308.9" r="4" fill="#6eb6ec" /><circle cx="808.8" cy="308.6" r="4" fill="#6eb6ec" /><circle cx="819.2" cy="308.6" r="4" fill="#6eb6ec" /><circle cx="829.6" cy="308.6" r="4" fill="#6eb6ec" /><circle cx="840.0" cy="308.6" r="4" fill="#6eb6ec" /><polyline points="80.0,305.8 90.4,305.8 100.8,305.8 111.2,305.8 121.6,305.8 132.1,305.8 142.5,305.8 152.9,305.8 163.3,305.8 173.7,305.8 184.1,304.9 194.5,304.9 204.9,304.9 215.3,304.9 225.8,304.9 236.2,304.9 246.6,304.9 257.0,304.9 267.4,304.9 277.8,304.9 288.2,304.9 298.6,304.9 309.0,304.9 319.5,304.9 329.9,304.9 340.3,304.9 350.7,304.9 361.1,304.9 371.5,304.9 381.9,304.9 392.3,304.9 402.7,304.9 413.2,304.9 423.6,304.9 434.0,304.9 444.4,304.9 454.8,304.9 465.2,303.6 475.6,303.6 486.0,303.6 496.4,303.6 506.8,303.6 517.3,303.6 527.7,303.6 538.1,303.6 548.5,303.6 558.9,303.6 569.3,303.6 579.7,303.6 590.1,303.6 600.5,303.6 611.0,302.9 621.4,302.9 631.8,298.0 642.2,298.0 652.6,298.0 663.0,298.0 673.4,298.0 683.8,298.0 694.2,298.0 704.7,298.0 715.1,298.0 725.5,298.0 735.9,298.0 746.3,298.0 756.7,298.0 767.1,298.0 777.5,297.8 787.9,297.8 798.4,297.8 808.8,297.8 819.2,297.8 829.6,297.8 840.0,297.8" fill="none" stroke="#5938e2" stroke-width="2.5" stroke-linecap="round" stroke-linejoin="round" /><circle cx="80.0" cy="305.8" r="4" fill="#5938e2" /><circle cx="90.4" cy="305.8" r="4" fill="#5938e2" /><circle cx="100.8" cy="305.8" r="4" fill="#5938e2" /><circle cx="111.2" cy="305.8" r="4" fill="#5938e2" /><circle cx="121.6" cy="305.8" r="4" fill="#5938e2" /><circle cx="132.1" cy="305.8" r="4" fill="#5938e2" /><circle cx="142.5" cy="305.8" r="4" fill="#5938e2" /><circle cx="152.9" cy="305.8" r="4" fill="#5938e2" /><circle cx="163.3" cy="305.8" r="4" fill="#5938e2" /><circle cx="173.7" cy="305.8" r="4" fill="#5938e2" /><circle cx="184.1" cy="304.9" r="4" fill="#5938e2" /><circle cx="194.5" cy="304.9" r="4" fill="#5938e2" /><circle cx="204.9" cy="304.9" r="4" fill="#5938e2" /><circle cx="215.3" cy="304.9" r="4" fill="#5938e2" /><circle cx="225.8" cy="304.9" r="4" fill="#5938e2" /><circle cx="236.2" cy="304.9" r="4" fill="#5938e2" /><circle cx="246.6" cy="304.9" r="4" fill="#5938e2" /><circle cx="257.0" cy="304.9" r="4" fill="#5938e2" /><circle cx="267.4" cy="304.9" r="4" fill="#5938e2" /><circle cx="277.8" cy="304.9" r="4" fill="#5938e2" /><circle cx="288.2" cy="304.9" r="4" fill="#5938e2" /><circle cx="298.6" cy="304.9" r="4" fill="#5938e2" /><circle cx="309.0" cy="304.9" r="4" fill="#5938e2" /><circle cx="319.5" cy="304.9" r="4" fill="#5938e2" /><circle cx="329.9" cy="304.9" r="4" fill="#5938e2" /><circle cx="340.3" cy="304.9" r="4" fill="#5938e2" /><circle cx="350.7" cy="304.9" r="4" fill="#5938e2" /><circle cx="361.1" cy="304.9" r="4" fill="#5938e2" /><circle cx="371.5" cy="304.9" r="4" fill="#5938e2" /><circle cx="381.9" cy="304.9" r="4" fill="#5938e2" /><circle cx="392.3" cy="304.9" r="4" fill="#5938e2" /><circle cx="402.7" cy="304.9" r="4" fill="#5938e2" /><circle cx="413.2" cy="304.9" r="4" fill="#5938e2" /><circle cx="423.6" cy="304.9" r="4" fill="#5938e2" /><circle cx="434.0" cy="304.9" r="4" fill="#5938e2" /><circle cx="444.4" cy="304.9" r="4" fill="#5938e2" /><circle cx="454.8" cy="304.9" r="4" fill="#5938e2" /><circle cx="465.2" cy="303.6" r="4" fill="#5938e2" /><circle cx="475.6" cy="303.6" r="4" fill="#5938e2" /><circle cx="486.0" cy="303.6" r="4" fill="#5938e2" /><circle cx="496.4" cy="303.6" r="4" fill="#5938e2" /><circle cx="506.8" cy="303.6" r="4" fill="#5938e2" /><circle cx="517.3" cy="303.6" r="4" fill="#5938e2" /><circle cx="527.7" cy="303.6" r="4" fill="#5938e2" /><circle cx="538.1" cy="303.6" r="4" fill="#5938e2" /><circle cx="548.5" cy="303.6" r="4" fill="#5938e2" /><circle cx="558.9" cy="303.6" r="4" fill="#5938e2" /><circle cx="569.3" cy="303.6" r="4" fill="#5938e2" /><circle cx="579.7" cy="303.6" r="4" fill="#5938e2" /><circle cx="590.1" cy="303.6" r="4" fill="#5938e2" /><circle cx="600.5" cy="303.6" r="4" fill="#5938e2" /><circle cx="611.0" cy="302.9" r="4" fill="#5938e2" /><circle cx="621.4" cy="302.9" r="4" fill="#5938e2" /><circle cx="631.8" cy="298.0" r="4" fill="#5938e2" /><circle cx="642.2" cy="298.0" r="4" fill="#5938e2" /><circle cx="652.6" cy="298.0" r="4" fill="#5938e2" /><circle cx="663.0" cy="298.0" r="4" fill="#5938e2" /><circle cx="673.4" cy="298.0" r="4" fill="#5938e2" /><circle cx="683.8" cy="298.0" r="4" fill="#5938e2" /><circle cx="694.2" cy="298.0" r="4" fill="#5938e2" /><circle cx="704.7" cy="298.0" r="4" fill="#5938e2" /><circle cx="715.1" cy="298.0" r="4" fill="#5938e2" /><circle cx="725.5" cy="298.0" r="4" fill="#5938e2" /><circle cx="735.9" cy="298.0" r="4" fill="#5938e2" /><circle cx="746.3" cy="298.0" r="4" fill="#5938e2" /><circle cx="756.7" cy="298.0" r="4" fill="#5938e2" /><circle cx="767.1" cy="298.0" r="4" fill="#5938e2" /><circle cx="777.5" cy="297.8" r="4" fill="#5938e2" /><circle cx="787.9" cy="297.8" r="4" fill="#5938e2" /><circle cx="798.4" cy="297.8" r="4" fill="#5938e2" /><circle cx="808.8" cy="297.8" r="4" fill="#5938e2" /><circle cx="819.2" cy="297.8" r="4" fill="#5938e2" /><circle cx="829.6" cy="297.8" r="4" fill="#5938e2" /><circle cx="840.0" cy="297.8" r="4" fill="#5938e2" /><polyline points="80.0,144.6 90.4,140.1 100.8,139.9 111.2,139.8 121.6,139.8 132.1,139.6 142.5,139.6 152.9,139.6 163.3,139.6 173.7,139.6 184.1,138.4 194.5,138.4 204.9,138.4 215.3,138.4 225.8,138.4 236.2,138.4 246.6,138.4 257.0,137.4 267.4,137.4 277.8,137.4 288.2,137.4 298.6,137.4 309.0,137.4 319.5,137.4 329.9,137.4 340.3,137.4 350.7,137.4 361.1,137.4 371.5,131.2 381.9,131.2 392.3,130.8 402.7,130.4 413.2,126.9 423.6,126.9 434.0,126.9 444.4,126.9 454.8,126.9 465.2,126.9 475.6,126.9 486.0,126.9 496.4,126.9 506.8,126.8 517.3,122.1 527.7,120.4 538.1,120.4 548.5,120.4 558.9,120.4 569.3,120.4 579.7,119.4 590.1,119.4 600.5,119.4 611.0,119.4 621.4,119.1 631.8,118.8 642.2,118.8 652.6,117.8 663.0,117.8 673.4,117.8 683.8,115.8 694.2,115.8 704.7,115.0 715.1,115.0 725.5,115.0 735.9,115.0 746.3,115.0 756.7,115.0 767.1,115.0 777.5,113.9 787.9,111.8 798.4,111.8 808.8,111.8 819.2,111.8 829.6,111.8 840.0,111.8" fill="none" stroke="#60e5e0" stroke-width="2.5" stroke-linecap="round" stroke-linejoin="round" /><circle cx="80.0" cy="144.6" r="4" fill="#60e5e0" /><circle cx="90.4" cy="140.1" r="4" fill="#60e5e0" /><circle cx="100.8" cy="139.9" r="4" fill="#60e5e0" /><circle cx="111.2" cy="139.8" r="4" fill="#60e5e0" /><circle cx="121.6" cy="139.8" r="4" fill="#60e5e0" /><circle cx="132.1" cy="139.6" r="4" fill="#60e5e0" /><circle cx="142.5" cy="139.6" r="4" fill="#60e5e0" /><circle cx="152.9" cy="139.6" r="4" fill="#60e5e0" /><circle cx="163.3" cy="139.6" r="4" fill="#60e5e0" /><circle cx="173.7" cy="139.6" r="4" fill="#60e5e0" /><circle cx="184.1" cy="138.4" r="4" fill="#60e5e0" /><circle cx="194.5" cy="138.4" r="4" fill="#60e5e0" /><circle cx="204.9" cy="138.4" r="4" fill="#60e5e0" /><circle cx="215.3" cy="138.4" r="4" fill="#60e5e0" /><circle cx="225.8" cy="138.4" r="4" fill="#60e5e0" /><circle cx="236.2" cy="138.4" r="4" fill="#60e5e0" /><circle cx="246.6" cy="138.4" r="4" fill="#60e5e0" /><circle cx="257.0" cy="137.4" r="4" fill="#60e5e0" /><circle cx="267.4" cy="137.4" r="4" fill="#60e5e0" /><circle cx="277.8" cy="137.4" r="4" fill="#60e5e0" /><circle cx="288.2" cy="137.4" r="4" fill="#60e5e0" /><circle cx="298.6" cy="137.4" r="4" fill="#60e5e0" /><circle cx="309.0" cy="137.4" r="4" fill="#60e5e0" /><circle cx="319.5" cy="137.4" r="4" fill="#60e5e0" /><circle cx="329.9" cy="137.4" r="4" fill="#60e5e0" /><circle cx="340.3" cy="137.4" r="4" fill="#60e5e0" /><circle cx="350.7" cy="137.4" r="4" fill="#60e5e0" /><circle cx="361.1" cy="137.4" r="4" fill="#60e5e0" /><circle cx="371.5" cy="131.2" r="4" fill="#60e5e0" /><circle cx="381.9" cy="131.2" r="4" fill="#60e5e0" /><circle cx="392.3" cy="130.8" r="4" fill="#60e5e0" /><circle cx="402.7" cy="130.4" r="4" fill="#60e5e0" /><circle cx="413.2" cy="126.9" r="4" fill="#60e5e0" /><circle cx="423.6" cy="126.9" r="4" fill="#60e5e0" /><circle cx="434.0" cy="126.9" r="4" fill="#60e5e0" /><circle cx="444.4" cy="126.9" r="4" fill="#60e5e0" /><circle cx="454.8" cy="126.9" r="4" fill="#60e5e0" /><circle cx="465.2" cy="126.9" r="4" fill="#60e5e0" /><circle cx="475.6" cy="126.9" r="4" fill="#60e5e0" /><circle cx="486.0" cy="126.9" r="4" fill="#60e5e0" /><circle cx="496.4" cy="126.9" r="4" fill="#60e5e0" /><circle cx="506.8" cy="126.8" r="4" fill="#60e5e0" /><circle cx="517.3" cy="122.1" r="4" fill="#60e5e0" /><circle cx="527.7" cy="120.4" r="4" fill="#60e5e0" /><circle cx="538.1" cy="120.4" r="4" fill="#60e5e0" /><circle cx="548.5" cy="120.4" r="4" fill="#60e5e0" /><circle cx="558.9" cy="120.4" r="4" fill="#60e5e0" /><circle cx="569.3" cy="120.4" r="4" fill="#60e5e0" /><circle cx="579.7" cy="119.4" r="4" fill="#60e5e0" /><circle cx="590.1" cy="119.4" r="4" fill="#60e5e0" /><circle cx="600.5" cy="119.4" r="4" fill="#60e5e0" /><circle cx="611.0" cy="119.4" r="4" fill="#60e5e0" /><circle cx="621.4" cy="119.1" r="4" fill="#60e5e0" /><circle cx="631.8" cy="118.8" r="4" fill="#60e5e0" /><circle cx="642.2" cy="118.8" r="4" fill="#60e5e0" /><circle cx="652.6" cy="117.8" r="4" fill="#60e5e0" /><circle cx="663.0" cy="117.8" r="4" fill="#60e5e0" /><circle cx="673.4" cy="117.8" r="4" fill="#60e5e0" /><circle cx="683.8" cy="115.8" r="4" fill="#60e5e0" /><circle cx="694.2" cy="115.8" r="4" fill="#60e5e0" /><circle cx="704.7" cy="115.0" r="4" fill="#60e5e0" /><circle cx="715.1" cy="115.0" r="4" fill="#60e5e0" /><circle cx="725.5" cy="115.0" r="4" fill="#60e5e0" /><circle cx="735.9" cy="115.0" r="4" fill="#60e5e0" /><circle cx="746.3" cy="115.0" r="4" fill="#60e5e0" /><circle cx="756.7" cy="115.0" r="4" fill="#60e5e0" /><circle cx="767.1" cy="115.0" r="4" fill="#60e5e0" /><circle cx="777.5" cy="113.9" r="4" fill="#60e5e0" /><circle cx="787.9" cy="111.8" r="4" fill="#60e5e0" /><circle cx="798.4" cy="111.8" r="4" fill="#60e5e0" /><circle cx="808.8" cy="111.8" r="4" fill="#60e5e0" /><circle cx="819.2" cy="111.8" r="4" fill="#60e5e0" /><circle cx="829.6" cy="111.8" r="4" fill="#60e5e0" /><circle cx="840.0" cy="111.8" r="4" fill="#60e5e0" /><polyline points="80.0,314.6 90.4,314.4 100.8,314.2 111.2,314.2 121.6,314.2 132.1,314.1 142.5,314.1 152.9,314.1 163.3,314.1 173.7,314.1 184.1,314.0 194.5,314.0 204.9,314.0 215.3,314.0 225.8,314.0 236.2,314.0 246.6,314.0 257.0,314.0 267.4,314.0 277.8,314.0 288.2,314.0 298.6,314.0 309.0,314.0 319.5,314.0 329.9,314.0 340.3,314.0 350.7,314.0 361.1,314.0 371.5,314.0 381.9,314.0 392.3,314.0 402.7,314.0 413.2,314.0 423.6,314.0 434.0,314.0 444.4,314.0 454.8,314.0 465.2,314.0 475.6,314.0 486.0,314.0 496.4,314.0 506.8,313.9 517.3,313.6 527.7,313.4 538.1,313.4 548.5,313.4 558.9,313.4 569.3,313.4 579.7,313.1 590.1,313.1 600.5,313.1 611.0,313.1 621.4,313.1 631.8,313.0 642.2,313.0 652.6,312.9 663.0,312.9 673.4,312.9 683.8,312.8 694.2,312.8 704.7,312.6 715.1,312.6 725.5,312.6 735.9,312.6 746.3,312.6 756.7,312.6 767.1,312.6 777.5,312.5 787.9,312.1 798.4,312.1 808.8,312.1 819.2,312.1 829.6,312.1 840.0,312.1" fill="none" stroke="#567de1" stroke-width="2.5" stroke-linecap="round" stroke-linejoin="round" /><circle cx="80.0" cy="314.6" r="4" fill="#567de1" /><circle cx="90.4" cy="314.4" r="4" fill="#567de1" /><circle cx="100.8" cy="314.2" r="4" fill="#567de1" /><circle cx="111.2" cy="314.2" r="4" fill="#567de1" /><circle cx="121.6" cy="314.2" r="4" fill="#567de1" /><circle cx="132.1" cy="314.1" r="4" fill="#567de1" /><circle cx="142.5" cy="314.1" r="4" fill="#567de1" /><circle cx="152.9" cy="314.1" r="4" fill="#567de1" /><circle cx="163.3" cy="314.1" r="4" fill="#567de1" /><circle cx="173.7" cy="314.1" r="4" fill="#567de1" /><circle cx="184.1" cy="314.0" r="4" fill="#567de1" /><circle cx="194.5" cy="314.0" r="4" fill="#567de1" /><circle cx="204.9" cy="314.0" r="4" fill="#567de1" /><circle cx="215.3" cy="314.0" r="4" fill="#567de1" /><circle cx="225.8" cy="314.0" r="4" fill="#567de1" /><circle cx="236.2" cy="314.0" r="4" fill="#567de1" /><circle cx="246.6" cy="314.0" r="4" fill="#567de1" /><circle cx="257.0" cy="314.0" r="4" fill="#567de1" /><circle cx="267.4" cy="314.0" r="4" fill="#567de1" /><circle cx="277.8" cy="314.0" r="4" fill="#567de1" /><circle cx="288.2" cy="314.0" r="4" fill="#567de1" /><circle cx="298.6" cy="314.0" r="4" fill="#567de1" /><circle cx="309.0" cy="314.0" r="4" fill="#567de1" /><circle cx="319.5" cy="314.0" r="4" fill="#567de1" /><circle cx="329.9" cy="314.0" r="4" fill="#567de1" /><circle cx="340.3" cy="314.0" r="4" fill="#567de1" /><circle cx="350.7" cy="314.0" r="4" fill="#567de1" /><circle cx="361.1" cy="314.0" r="4" fill="#567de1" /><circle cx="371.5" cy="314.0" r="4" fill="#567de1" /><circle cx="381.9" cy="314.0" r="4" fill="#567de1" /><circle cx="392.3" cy="314.0" r="4" fill="#567de1" /><circle cx="402.7" cy="314.0" r="4" fill="#567de1" /><circle cx="413.2" cy="314.0" r="4" fill="#567de1" /><circle cx="423.6" cy="314.0" r="4" fill="#567de1" /><circle cx="434.0" cy="314.0" r="4" fill="#567de1" /><circle cx="444.4" cy="314.0" r="4" fill="#567de1" /><circle cx="454.8" cy="314.0" r="4" fill="#567de1" /><circle cx="465.2" cy="314.0" r="4" fill="#567de1" /><circle cx="475.6" cy="314.0" r="4" fill="#567de1" /><circle cx="486.0" cy="314.0" r="4" fill="#567de1" /><circle cx="496.4" cy="314.0" r="4" fill="#567de1" /><circle cx="506.8" cy="313.9" r="4" fill="#567de1" /><circle cx="517.3" cy="313.6" r="4" fill="#567de1" /><circle cx="527.7" cy="313.4" r="4" fill="#567de1" /><circle cx="538.1" cy="313.4" r="4" fill="#567de1" /><circle cx="548.5" cy="313.4" r="4" fill="#567de1" /><circle cx="558.9" cy="313.4" r="4" fill="#567de1" /><circle cx="569.3" cy="313.4" r="4" fill="#567de1" /><circle cx="579.7" cy="313.1" r="4" fill="#567de1" /><circle cx="590.1" cy="313.1" r="4" fill="#567de1" /><circle cx="600.5" cy="313.1" r="4" fill="#567de1" /><circle cx="611.0" cy="313.1" r="4" fill="#567de1" /><circle cx="621.4" cy="313.1" r="4" fill="#567de1" /><circle cx="631.8" cy="313.0" r="4" fill="#567de1" /><circle cx="642.2" cy="313.0" r="4" fill="#567de1" /><circle cx="652.6" cy="312.9" r="4" fill="#567de1" /><circle cx="663.0" cy="312.9" r="4" fill="#567de1" /><circle cx="673.4" cy="312.9" r="4" fill="#567de1" /><circle cx="683.8" cy="312.8" r="4" fill="#567de1" /><circle cx="694.2" cy="312.8" r="4" fill="#567de1" /><circle cx="704.7" cy="312.6" r="4" fill="#567de1" /><circle cx="715.1" cy="312.6" r="4" fill="#567de1" /><circle cx="725.5" cy="312.6" r="4" fill="#567de1" /><circle cx="735.9" cy="312.6" r="4" fill="#567de1" /><circle cx="746.3" cy="312.6" r="4" fill="#567de1" /><circle cx="756.7" cy="312.6" r="4" fill="#567de1" /><circle cx="767.1" cy="312.6" r="4" fill="#567de1" /><circle cx="777.5" cy="312.5" r="4" fill="#567de1" /><circle cx="787.9" cy="312.1" r="4" fill="#567de1" /><circle cx="798.4" cy="312.1" r="4" fill="#567de1" /><circle cx="808.8" cy="312.1" r="4" fill="#567de1" /><circle cx="819.2" cy="312.1" r="4" fill="#567de1" /><circle cx="829.6" cy="312.1" r="4" fill="#567de1" /><circle cx="840.0" cy="312.1" r="4" fill="#567de1" /><polyline points="80.0,303.9 90.4,304.2 100.8,304.4 111.2,304.4 121.6,304.4 132.1,304.4 142.5,304.4 152.9,304.4 163.3,304.4 173.7,304.4 184.1,304.4 194.5,304.4 204.9,304.4 215.3,304.4 225.8,304.4 236.2,304.4 246.6,304.4 257.0,304.4 267.4,304.4 277.8,304.4 288.2,304.4 298.6,304.4 309.0,304.4 319.5,304.4 329.9,304.4 340.3,304.4 350.7,304.4 361.1,304.4 371.5,299.1 381.9,299.1 392.3,299.1 402.7,298.9 413.2,295.6 423.6,295.6 434.0,295.6 444.4,295.6 454.8,295.6 465.2,295.6 475.6,295.6 486.0,295.6 496.4,295.6 506.8,295.8 517.3,295.9 527.7,295.9 538.1,295.9 548.5,295.9 558.9,295.9 569.3,295.9 579.7,295.9 590.1,295.9 600.5,295.9 611.0,295.9 621.4,295.9 631.8,295.9 642.2,295.9 652.6,295.9 663.0,295.9 673.4,295.9 683.8,295.8 694.2,295.8 704.7,295.9 715.1,295.9 725.5,295.9 735.9,295.9 746.3,295.9 756.7,295.9 767.1,295.9 777.5,296.0 787.9,296.4 798.4,296.4 808.8,296.4 819.2,296.4 829.6,296.4 840.0,296.4" fill="none" stroke="#9754dd" stroke-width="2.5" stroke-linecap="round" stroke-linejoin="round" /><circle cx="80.0" cy="303.9" r="4" fill="#9754dd" /><circle cx="90.4" cy="304.2" r="4" fill="#9754dd" /><circle cx="100.8" cy="304.4" r="4" fill="#9754dd" /><circle cx="111.2" cy="304.4" r="4" fill="#9754dd" /><circle cx="121.6" cy="304.4" r="4" fill="#9754dd" /><circle cx="132.1" cy="304.4" r="4" fill="#9754dd" /><circle cx="142.5" cy="304.4" r="4" fill="#9754dd" /><circle cx="152.9" cy="304.4" r="4" fill="#9754dd" /><circle cx="163.3" cy="304.4" r="4" fill="#9754dd" /><circle cx="173.7" cy="304.4" r="4" fill="#9754dd" /><circle cx="184.1" cy="304.4" r="4" fill="#9754dd" /><circle cx="194.5" cy="304.4" r="4" fill="#9754dd" /><circle cx="204.9" cy="304.4" r="4" fill="#9754dd" /><circle cx="215.3" cy="304.4" r="4" fill="#9754dd" /><circle cx="225.8" cy="304.4" r="4" fill="#9754dd" /><circle cx="236.2" cy="304.4" r="4" fill="#9754dd" /><circle cx="246.6" cy="304.4" r="4" fill="#9754dd" /><circle cx="257.0" cy="304.4" r="4" fill="#9754dd" /><circle cx="267.4" cy="304.4" r="4" fill="#9754dd" /><circle cx="277.8" cy="304.4" r="4" fill="#9754dd" /><circle cx="288.2" cy="304.4" r="4" fill="#9754dd" /><circle cx="298.6" cy="304.4" r="4" fill="#9754dd" /><circle cx="309.0" cy="304.4" r="4" fill="#9754dd" /><circle cx="319.5" cy="304.4" r="4" fill="#9754dd" /><circle cx="329.9" cy="304.4" r="4" fill="#9754dd" /><circle cx="340.3" cy="304.4" r="4" fill="#9754dd" /><circle cx="350.7" cy="304.4" r="4" fill="#9754dd" /><circle cx="361.1" cy="304.4" r="4" fill="#9754dd" /><circle cx="371.5" cy="299.1" r="4" fill="#9754dd" /><circle cx="381.9" cy="299.1" r="4" fill="#9754dd" /><circle cx="392.3" cy="299.1" r="4" fill="#9754dd" /><circle cx="402.7" cy="298.9" r="4" fill="#9754dd" /><circle cx="413.2" cy="295.6" r="4" fill="#9754dd" /><circle cx="423.6" cy="295.6" r="4" fill="#9754dd" /><circle cx="434.0" cy="295.6" r="4" fill="#9754dd" /><circle cx="444.4" cy="295.6" r="4" fill="#9754dd" /><circle cx="454.8" cy="295.6" r="4" fill="#9754dd" /><circle cx="465.2" cy="295.6" r="4" fill="#9754dd" /><circle cx="475.6" cy="295.6" r="4" fill="#9754dd" /><circle cx="486.0" cy="295.6" r="4" fill="#9754dd" /><circle cx="496.4" cy="295.6" r="4" fill="#9754dd" /><circle cx="506.8" cy="295.8" r="4" fill="#9754dd" /><circle cx="517.3" cy="295.9" r="4" fill="#9754dd" /><circle cx="527.7" cy="295.9" r="4" fill="#9754dd" /><circle cx="538.1" cy="295.9" r="4" fill="#9754dd" /><circle cx="548.5" cy="295.9" r="4" fill="#9754dd" /><circle cx="558.9" cy="295.9" r="4" fill="#9754dd" /><circle cx="569.3" cy="295.9" r="4" fill="#9754dd" /><circle cx="579.7" cy="295.9" r="4" fill="#9754dd" /><circle cx="590.1" cy="295.9" r="4" fill="#9754dd" /><circle cx="600.5" cy="295.9" r="4" fill="#9754dd" /><circle cx="611.0" cy="295.9" r="4" fill="#9754dd" /><circle cx="621.4" cy="295.9" r="4" fill="#9754dd" /><circle cx="631.8" cy="295.9" r="4" fill="#9754dd" /><circle cx="642.2" cy="295.9" r="4" fill="#9754dd" /><circle cx="652.6" cy="295.9" r="4" fill="#9754dd" /><circle cx="663.0" cy="295.9" r="4" fill="#9754dd" /><circle cx="673.4" cy="295.9" r="4" fill="#9754dd" /><circle cx="683.8" cy="295.8" r="4" fill="#9754dd" /><circle cx="694.2" cy="295.8" r="4" fill="#9754dd" /><circle cx="704.7" cy="295.9" r="4" fill="#9754dd" /><circle cx="715.1" cy="295.9" r="4" fill="#9754dd" /><circle cx="725.5" cy="295.9" r="4" fill="#9754dd" /><circle cx="735.9" cy="295.9" r="4" fill="#9754dd" /><circle cx="746.3" cy="295.9" r="4" fill="#9754dd" /><circle cx="756.7" cy="295.9" r="4" fill="#9754dd" /><circle cx="767.1" cy="295.9" r="4" fill="#9754dd" /><circle cx="777.5" cy="296.0" r="4" fill="#9754dd" /><circle cx="787.9" cy="296.4" r="4" fill="#9754dd" /><circle cx="798.4" cy="296.4" r="4" fill="#9754dd" /><circle cx="808.8" cy="296.4" r="4" fill="#9754dd" /><circle cx="819.2" cy="296.4" r="4" fill="#9754dd" /><circle cx="829.6" cy="296.4" r="4" fill="#9754dd" /><circle cx="840.0" cy="296.4" r="4" fill="#9754dd" />
  <rect x="80" y="339" width="10" height="10" rx="2" ry="2" fill="#19e5a1" /><text x="96" y="348" class="legend-label">Stars</text><rect x="250" y="339" width="10" height="10" rx="2" ry="2" fill="#6eb6ec" /><text x="266" y="348" class="legend-label">Followers</text><rect x="420" y="339" width="10" height="10" rx="2" ry="2" fill="#5938e2" /><text x="436" y="348" class="legend-label">Following</text><rect x="590" y="339" width="10" height="10" rx="2" ry="2" fill="#60e5e0" /><text x="606" y="348" class="legend-label">Contributions</text><rect x="80" y="357" width="10" height="10" rx="2" ry="2" fill="#567de1" /><text x="96" y="366" class="legend-label">Pull Requests</text><rect x="250" y="357" width="10" height="10" rx="2" ry="2" fill="#9754dd" /><text x="266" y="366" class="legend-label">Issues</text>
</svg>
