<svg width="900" height="402" viewBox="0 0 900 402" xmlns="http://www.w3.org/2000/svg">
  <defs>
    <linearGradient id="history-gradient" x1="0%" y1="0%" x2="100%" y2="100%">
      <stop offset="0%" style="stop-color:#58a6ff;stop-opacity:1" />
      <stop offset="100%" style="stop-color:#a371f7;stop-opacity:1" />
    </linearGradient>
    <clipPath id="history-rounded">
      <rect x="0" y="0" width="900" height="402" rx="8" ry="8" />
    </clipPath>
  </defs>
  <style>
    .title {
      font-family: 'Segoe UI', Ubuntu, 'Helvetica Neue', sans-serif;
      font-size: 22px;
      font-weight: 700;
      fill: #58a6ff;
    }
    .subtitle {
      font-family: 'Segoe UI', Ubuntu, 'Helvetica Neue', sans-serif;
      font-size: 12px;
      font-weight: 500;
      fill: #8b949e;
    }
    .axis-label {
      font-family: 'Segoe UI', Ubuntu, 'Helvetica Neue', sans-serif;
      font-size: 10px;
      fill: #8b949e;
    }
    .grid-line {
      stroke: #30363d;
      stroke-width: 1;
      opacity: 0.3;
    }
    .legend-label {
      font-family: 'Segoe UI', Ubuntu, 'Helvetica Neue', sans-serif;
      font-size: 11px;
      fill: #c9d1d9;
      dominant-baseline: middle;
    }
  </style>
  <rect clip-path="url(#history-rounded)" width="100%" height="100%" fill="#0d1117" stroke="#30363d" stroke-width="1" />
  <rect x="0" y="396" width="900" height="6" fill="url(#history-gradient)" clip-path="url(#history-rounded)" />
  <text x="24" y="34" class="title">Leonardo Klein Stats History</text>
  <text x="24" y="54" class="subtitle">Period: 2026-02-20 to 2026-03-06</text>
  <text x="72" y="320.0" text-anchor="end" dominant-baseline="central" class="axis-label">0</text><text x="72" y="270.0" text-anchor="end" dominant-baseline="central" class="axis-label">400</text><text x="72" y="220.0" text-anchor="end" dominant-baseline="central" class="axis-label">800</text><text x="72" y="170.0" text-anchor="end" dominant-baseline="central" class="axis-label">1.2k</text><text x="72" y="120.0" text-anchor="end" dominant-baseline="central" class="axis-label">1.6k</text><text x="72" y="70.0" text-anchor="end" dominant-baseline="central" class="axis-label">2.0k</text>
  <text x="80.0" y="336" text-anchor="middle" class="axis-label">02-20</text><text x="153.9" y="336" text-anchor="middle" class="axis-label">02-21</text><text x="227.8" y="336" text-anchor="middle" class="axis-label">02-23</text><text x="301.7" y="336" text-anchor="middle" class="axis-label">02-24</text><text x="375.6" y="336" text-anchor="middle" class="axis-label">02-26</text><text x="449.4" y="336" text-anchor="middle" class="axis-label">02-27</text><text x="523.3" y="336" text-anchor="middle" class="axis-label">02-28</text><text x="597.2" y="336" text-anchor="middle" class="axis-label">03-02</text><text x="671.1" y="336" text-anchor="middle" class="axis-label">03-03</text><text x="745.0" y="336" text-anchor="middle" class="axis-label">03-05</text><text x="818.9" y="336" text-anchor="middle" class="axis-label">03-06</text><text x="840.0" y="336" text-anchor="middle" class="axis-label">03-06</text>
  <line x1="80" y1="320.0" x2="840" y2="320.0" class="grid-line" /><line x1="80" y1="270.0" x2="840" y2="270.0" class="grid-line" /><line x1="80" y1="220.0" x2="840" y2="220.0" class="grid-line" /><line x1="80" y1="170.0" x2="840" y2="170.0" class="grid-line" /><line x1="80" y1="120.0" x2="840" y2="120.0" class="grid-line" /><line x1="80" y1="70.0" x2="840" y2="70.0" class="grid-line" />
  <polyline points="80.0,317.0 90.6,317.0 101.1,317.0 111.7,317.0 122.2,317.0 132.8,317.0 143.3,317.0 153.9,317.0 164.4,317.0 175.0,317.0 185.6,317.0 196.1,317.0 206.7,317.0 217.2,317.0 227.8,317.0 238.3,317.0 248.9,317.0 259.4,317.0 270.0,317.0 280.6,317.0 291.1,317.0 301.7,317.0 312.2,317.0 322.8,317.0 333.3,317.0 343.9,317.0 354.4,317.0 365.0,317.0 375.6,317.0 386.1,317.0 396.7,317.0 407.2,317.0 417.8,317.0 428.3,317.0 438.9,317.0 449.4,317.0 460.0,317.0 470.6,317.0 481.1,317.0 491.7,317.0 502.2,317.0 512.8,317.0 523.3,317.0 533.9,317.0 544.4,317.0 555.0,317.0 565.6,317.0 576.1,317.0 586.7,317.0 597.2,317.0 607.8,317.0 618.3,317.0 628.9,317.0 639.4,317.0 650.0,317.0 660.6,317.0 671.1,317.0 681.7,317.0 692.2,317.0 702.8,317.0 713.3,317.0 723.9,317.0 734.4,317.0 745.0,317.0 755.6,317.0 766.1,317.0 776.7,317.0 787.2,317.0 797.8,317.0 808.3,317.0 818.9,317.0 829.4,317.0 840.0,317.0" fill="none" stroke="#19e5a1" stroke-width="2.5" stroke-linecap="round" stroke-linejoin="round" /><circle cx="80.0" cy="317.0" r="4" fill="#19e5a1" /><circle cx="90.6" cy="317.0" r="4" fill="#19e5a1" /><circle cx="101.1" cy="317.0" r="4" fill="#19e5a1" /><circle cx="111.7" cy="317.0" r="4" fill="#19e5a1" /><circle cx="122.2" cy="317.0" r="4" fill="#19e5a1" /><circle cx="132.8" cy="317.0" r="4" fill="#19e5a1" /><circle cx="143.3" cy="317.0" r="4" fill="#19e5a1" /><circle cx="153.9" cy="317.0" r="4" fill="#19e5a1" /><circle cx="164.4" cy="317.0" r="4" fill="#19e5a1" /><circle cx="175.0" cy="317.0" r="4" fill="#19e5a1" /><circle cx="185.6" cy="317.0" r="4" fill="#19e5a1" /><circle cx="196.1" cy="317.0" r="4" fill="#19e5a1" /><circle cx="206.7" cy="317.0" r="4" fill="#19e5a1" /><circle cx="217.2" cy="317.0" r="4" fill="#19e5a1" /><circle cx="227.8" cy="317.0" r="4" fill="#19e5a1" /><circle cx="238.3" cy="317.0" r="4" fill="#19e5a1" /><circle cx="248.9" cy="317.0" r="4" fill="#19e5a1" /><circle cx="259.4" cy="317.0" r="4" fill="#19e5a1" /><circle cx="270.0" cy="317.0" r="4" fill="#19e5a1" /><circle cx="280.6" cy="317.0" r="4" fill="#19e5a1" /><circle cx="291.1" cy="317.0" r="4" fill="#19e5a1" /><circle cx="301.7" cy="317.0" r="4" fill="#19e5a1" /><circle cx="312.2" cy="317.0" r="4" fill="#19e5a1" /><circle cx="322.8" cy="317.0" r="4" fill="#19e5a1" /><circle cx="333.3" cy="317.0" r="4" fill="#19e5a1" /><circle cx="343.9" cy="317.0" r="4" fill="#19e5a1" /><circle cx="354.4" cy="317.0" r="4" fill="#19e5a1" /><circle cx="365.0" cy="317.0" r="4" fill="#19e5a1" /><circle cx="375.6" cy="317.0" r="4" fill="#19e5a1" /><circle cx="386.1" cy="317.0" r="4" fill="#19e5a1" /><circle cx="396.7" cy="317.0" r="4" fill="#19e5a1" /><circle cx="407.2" cy="317.0" r="4" fill="#19e5a1" /><circle cx="417.8" cy="317.0" r="4" fill="#19e5a1" /><circle cx="428.3" cy="317.0" r="4" fill="#19e5a1" /><circle cx="438.9" cy="317.0" r="4" fill="#19e5a1" /><circle cx="449.4" cy="317.0" r="4" fill="#19e5a1" /><circle cx="460.0" cy="317.0" r="4" fill="#19e5a1" /><circle cx="470.6" cy="317.0" r="4" fill="#19e5a1" /><circle cx="481.1" cy="317.0" r="4" fill="#19e5a1" /><circle cx="491.7" cy="317.0" r="4" fill="#19e5a1" /><circle cx="502.2" cy="317.0" r="4" fill="#19e5a1" /><circle cx="512.8" cy="317.0" r="4" fill="#19e5a1" /><circle cx="523.3" cy="317.0" r="4" fill="#19e5a1" /><circle cx="533.9" cy="317.0" r="4" fill="#19e5a1" /><circle cx="544.4" cy="317.0" r="4" fill="#19e5a1" /><circle cx="555.0" cy="317.0" r="4" fill="#19e5a1" /><circle cx="565.6" cy="317.0" r="4" fill="#19e5a1" /><circle cx="576.1" cy="317.0" r="4" fill="#19e5a1" /><circle cx="586.7" cy="317.0" r="4" fill="#19e5a1" /><circle cx="597.2" cy="317.0" r="4" fill="#19e5a1" /><circle cx="607.8" cy="317.0" r="4" fill="#19e5a1" /><circle cx="618.3" cy="317.0" r="4" fill="#19e5a1" /><circle cx="628.9" cy="317.0" r="4" fill="#19e5a1" /><circle cx="639.4" cy="317.0" r="4" fill="#19e5a1" /><circle cx="650.0" cy="317.0" r="4" fill="#19e5a1" /><circle cx="660.6" cy="317.0" r="4" fill="#19e5a1" /><circle cx="671.1" cy="317.0" r="4" fill="#19e5a1" /><circle cx="681.7" cy="317.0" r="4" fill="#19e5a1" /><circle cx="692.2" cy="317.0" r="4" fill="#19e5a1" /><circle cx="702.8" cy="317.0" r="4" fill="#19e5a1" /><circle cx="713.3" cy="317.0" r="4" fill="#19e5a1" /><circle cx="723.9" cy="317.0" r="4" fill="#19e5a1" /><circle cx="734.4" cy="317.0" r="4" fill="#19e5a1" /><circle cx="745.0" cy="317.0" r="4" fill="#19e5a1" /><circle cx="755.6" cy="317.0" r="4" fill="#19e5a1" /><circle cx="766.1" cy="317.0" r="4" fill="#19e5a1" /><circle cx="776.7" cy="317.0" r="4" fill="#19e5a1" /><circle cx="787.2" cy="317.0" r="4" fill="#19e5a1" /><circle cx="797.8" cy="317.0" r="4" fill="#19e5a1" /><circle cx="808.3" cy="317.0" r="4" fill="#19e5a1" /><circle cx="818.9" cy="317.0" r="4" fill="#19e5a1" /><circle cx="829.4" cy="317.0" r="4" fill="#19e5a1" /><circle cx="840.0" cy="317.0" r="4" fill="#19e5a1" /><polyline points="80.0,313.2 90.6,312.2 101.1,312.1 111.7,312.4 122.2,312.4 132.8,312.4 143.3,312.1 153.9,312.0 164.4,311.9 175.0,311.9 185.6,311.8 196.1,311.8 206.7,311.5 217.2,311.5 227.8,311.5 238.3,311.2 248.9,311.2 259.4,311.1 270.0,311.1 280.6,311.1 291.1,310.9 301.7,311.0 312.2,310.8 322.8,310.8 333.3,310.8 343.9,310.8 354.4,310.4 365.0,310.2 375.6,310.4 386.1,310.4 396.7,310.4 407.2,310.4 417.8,310.4 428.3,310.2 438.9,310.2 449.4,310.1 460.0,310.1 470.6,309.8 481.1,309.6 491.7,309.6 502.2,309.6 512.8,309.6 523.3,309.5 533.9,309.4 544.4,309.4 555.0,309.4 565.6,309.4 576.1,309.2 586.7,309.2 597.2,309.2 607.8,309.4 618.3,309.4 628.9,309.5 639.4,309.2 650.0,309.2 660.6,309.4 671.1,309.2 681.7,309.2 692.2,309.2 702.8,309.2 713.3,309.2 723.9,309.1 734.4,309.1 745.0,309.1 755.6,309.1 766.1,309.0 776.7,309.0 787.2,308.9 797.8,308.9 808.3,308.9 818.9,308.6 829.4,308.6 840.0,308.6" fill="none" stroke="#6eb6ec" stroke-width="2.5" stroke-linecap="round" stroke-linejoin="round" /><circle cx="80.0" cy="313.2" r="4" fill="#6eb6ec" /><circle cx="90.6" cy="312.2" r="4" fill="#6eb6ec" /><circle cx="101.1" cy="312.1" r="4" fill="#6eb6ec" /><circle cx="111.7" cy="312.4" r="4" fill="#6eb6ec" /><circle cx="122.2" cy="312.4" r="4" fill="#6eb6ec" /><circle cx="132.8" cy="312.4" r="4" fill="#6eb6ec" /><circle cx="143.3" cy="312.1" r="4" fill="#6eb6ec" /><circle cx="153.9" cy="312.0" r="4" fill="#6eb6ec" /><circle cx="164.4" cy="311.9" r="4" fill="#6eb6ec" /><circle cx="175.0" cy="311.9" r="4" fill="#6eb6ec" /><circle cx="185.6" cy="311.8" r="4" fill="#6eb6ec" /><circle cx="196.1" cy="311.8" r="4" fill="#6eb6ec" /><circle cx="206.7" cy="311.5" r="4" fill="#6eb6ec" /><circle cx="217.2" cy="311.5" r="4" fill="#6eb6ec" /><circle cx="227.8" cy="311.5" r="4" fill="#6eb6ec" /><circle cx="238.3" cy="311.2" r="4" fill="#6eb6ec" /><circle cx="248.9" cy="311.2" r="4" fill="#6eb6ec" /><circle cx="259.4" cy="311.1" r="4" fill="#6eb6ec" /><circle cx="270.0" cy="311.1" r="4" fill="#6eb6ec" /><circle cx="280.6" cy="311.1" r="4" fill="#6eb6ec" /><circle cx="291.1" cy="310.9" r="4" fill="#6eb6ec" /><circle cx="301.7" cy="311.0" r="4" fill="#6eb6ec" /><circle cx="312.2" cy="310.8" r="4" fill="#6eb6ec" /><circle cx="322.8" cy="310.8" r="4" fill="#6eb6ec" /><circle cx="333.3" cy="310.8" r="4" fill="#6eb6ec" /><circle cx="343.9" cy="310.8" r="4" fill="#6eb6ec" /><circle cx="354.4" cy="310.4" r="4" fill="#6eb6ec" /><circle cx="365.0" cy="310.2" r="4" fill="#6eb6ec" /><circle cx="375.6" cy="310.4" r="4" fill="#6eb6ec" /><circle cx="386.1" cy="310.4" r="4" fill="#6eb6ec" /><circle cx="396.7" cy="310.4" r="4" fill="#6eb6ec" /><circle cx="407.2" cy="310.4" r="4" fill="#6eb6ec" /><circle cx="417.8" cy="310.4" r="4" fill="#6eb6ec" /><circle cx="428.3" cy="310.2" r="4" fill="#6eb6ec" /><circle cx="438.9" cy="310.2" r="4" fill="#6eb6ec" /><circle cx="449.4" cy="310.1" r="4" fill="#6eb6ec" /><circle cx="460.0" cy="310.1" r="4" fill="#6eb6ec" /><circle cx="470.6" cy="309.8" r="4" fill="#6eb6ec" /><circle cx="481.1" cy="309.6" r="4" fill="#6eb6ec" /><circle cx="491.7" cy="309.6" r="4" fill="#6eb6ec" /><circle cx="502.2" cy="309.6" r="4" fill="#6eb6ec" /><circle cx="512.8" cy="309.6" r="4" fill="#6eb6ec" /><circle cx="523.3" cy="309.5" r="4" fill="#6eb6ec" /><circle cx="533.9" cy="309.4" r="4" fill="#6eb6ec" /><circle cx="544.4" cy="309.4" r="4" fill="#6eb6ec" /><circle cx="555.0" cy="309.4" r="4" fill="#6eb6ec" /><circle cx="565.6" cy="309.4" r="4" fill="#6eb6ec" /><circle cx="576.1" cy="309.2" r="4" fill="#6eb6ec" /><circle cx="586.7" cy="309.2" r="4" fill="#6eb6ec" /><circle cx="597.2" cy="309.2" r="4" fill="#6eb6ec" /><circle cx="607.8" cy="309.4" r="4" fill="#6eb6ec" /><circle cx="618.3" cy="309.4" r="4" fill="#6eb6ec" /><circle cx="628.9" cy="309.5" r="4" fill="#6eb6ec" /><circle cx="639.4" cy="309.2" r="4" fill="#6eb6ec" /><circle cx="650.0" cy="309.2" r="4" fill="#6eb6ec" /><circle cx="660.6" cy="309.4" r="4" fill="#6eb6ec" /><circle cx="671.1" cy="309.2" r="4" fill="#6eb6ec" /><circle cx="681.7" cy="309.2" r="4" fill="#6eb6ec" /><circle cx="692.2" cy="309.2" r="4" fill="#6eb6ec" /><circle cx="702.8" cy="309.2" r="4" fill="#6eb6ec" /><circle cx="713.3" cy="309.2" r="4" fill="#6eb6ec" /><circle cx="723.9" cy="309.1" r="4" fill="#6eb6ec" /><circle cx="734.4" cy="309.1" r="4" fill="#6eb6ec" /><circle cx="745.0" cy="309.1" r="4" fill="#6eb6ec" /><circle cx="755.6" cy="309.1" r="4" fill="#6eb6ec" /><circle cx="766.1" cy="309.0" r="4" fill="#6eb6ec" /><circle cx="776.7" cy="309.0" r="4" fill="#6eb6ec" /><circle cx="787.2" cy="308.9" r="4" fill="#6eb6ec" /><circle cx="797.8" cy="308.9" r="4" fill="#6eb6ec" /><circle cx="808.3" cy="308.9" r="4" fill="#6eb6ec" /><circle cx="818.9" cy="308.6" r="4" fill="#6eb6ec" /><circle cx="829.4" cy="308.6" r="4" fill="#6eb6ec" /><circle cx="840.0" cy="308.6" r="4" fill="#6eb6ec" /><polyline points="80.0,305.8 90.6,305.8 101.1,305.8 111.7,305.8 122.2,305.8 132.8,305.8 143.3,305.8 153.9,305.8 164.4,305.8 175.0,305.8 185.6,304.9 196.1,304.9 206.7,304.9 217.2,304.9 227.8,304.9 238.3,304.9 248.9,304.9 259.4,304.9 270.0,304.9 280.6,304.9 291.1,304.9 301.7,304.9 312.2,304.9 322.8,304.9 333.3,304.9 343.9,304.9 354.4,304.9 365.0,304.9 375.6,304.9 386.1,304.9 396.7,304.9 407.2,304.9 417.8,304.9 428.3,304.9 438.9,304.9 449.4,304.9 460.0,304.9 470.6,303.6 481.1,303.6 491.7,303.6 502.2,303.6 512.8,303.6 523.3,303.6 533.9,303.6 544.4,303.6 555.0,303.6 565.6,303.6 576.1,303.6 586.7,303.6 597.2,303.6 607.8,303.6 618.3,302.9 628.9,302.9 639.4,298.0 650.0,298.0 660.6,298.0 671.1,298.0 681.7,298.0 692.2,298.0 702.8,298.0 713.3,298.0 723.9,298.0 734.4,298.0 745.0,298.0 755.6,298.0 766.1,298.0 776.7,298.0 787.2,297.8 797.8,297.8 808.3,297.8 818.9,297.8 829.4,297.8 840.0,297.8" fill="none" stroke="#5938e2" stroke-width="2.5" stroke-linecap="round" stroke-linejoin="round" /><circle cx="80.0" cy="305.8" r="4" fill="#5938e2" /><circle cx="90.6" cy="305.8" r="4" fill="#5938e2" /><circle cx="101.1" cy="305.8" r="4" fill="#5938e2" /><circle cx="111.7" cy="305.8" r="4" fill="#5938e2" /><circle cx="122.2" cy="305.8" r="4" fill="#5938e2" /><circle cx="132.8" cy="305.8" r="4" fill="#5938e2" /><circle cx="143.3" cy="305.8" r="4" fill="#5938e2" /><circle cx="153.9" cy="305.8" r="4" fill="#5938e2" /><circle cx="164.4" cy="305.8" r="4" fill="#5938e2" /><circle cx="175.0" cy="305.8" r="4" fill="#5938e2" /><circle cx="185.6" cy="304.9" r="4" fill="#5938e2" /><circle cx="196.1" cy="304.9" r="4" fill="#5938e2" /><circle cx="206.7" cy="304.9" r="4" fill="#5938e2" /><circle cx="217.2" cy="304.9" r="4" fill="#5938e2" /><circle cx="227.8" cy="304.9" r="4" fill="#5938e2" /><circle cx="238.3" cy="304.9" r="4" fill="#5938e2" /><circle cx="248.9" cy="304.9" r="4" fill="#5938e2" /><circle cx="259.4" cy="304.9" r="4" fill="#5938e2" /><circle cx="270.0" cy="304.9" r="4" fill="#5938e2" /><circle cx="280.6" cy="304.9" r="4" fill="#5938e2" /><circle cx="291.1" cy="304.9" r="4" fill="#5938e2" /><circle cx="301.7" cy="304.9" r="4" fill="#5938e2" /><circle cx="312.2" cy="304.9" r="4" fill="#5938e2" /><circle cx="322.8" cy="304.9" r="4" fill="#5938e2" /><circle cx="333.3" cy="304.9" r="4" fill="#5938e2" /><circle cx="343.9" cy="304.9" r="4" fill="#5938e2" /><circle cx="354.4" cy="304.9" r="4" fill="#5938e2" /><circle cx="365.0" cy="304.9" r="4" fill="#5938e2" /><circle cx="375.6" cy="304.9" r="4" fill="#5938e2" /><circle cx="386.1" cy="304.9" r="4" fill="#5938e2" /><circle cx="396.7" cy="304.9" r="4" fill="#5938e2" /><circle cx="407.2" cy="304.9" r="4" fill="#5938e2" /><circle cx="417.8" cy="304.9" r="4" fill="#5938e2" /><circle cx="428.3" cy="304.9" r="4" fill="#5938e2" /><circle cx="438.9" cy="304.9" r="4" fill="#5938e2" /><circle cx="449.4" cy="304.9" r="4" fill="#5938e2" /><circle cx="460.0" cy="304.9" r="4" fill="#5938e2" /><circle cx="470.6" cy="303.6" r="4" fill="#5938e2" /><circle cx="481.1" cy="303.6" r="4" fill="#5938e2" /><circle cx="491.7" cy="303.6" r="4" fill="#5938e2" /><circle cx="502.2" cy="303.6" r="4" fill="#5938e2" /><circle cx="512.8" cy="303.6" r="4" fill="#5938e2" /><circle cx="523.3" cy="303.6" r="4" fill="#5938e2" /><circle cx="533.9" cy="303.6" r="4" fill="#5938e2" /><circle cx="544.4" cy="303.6" r="4" fill="#5938e2" /><circle cx="555.0" cy="303.6" r="4" fill="#5938e2" /><circle cx="565.6" cy="303.6" r="4" fill="#5938e2" /><circle cx="576.1" cy="303.6" r="4" fill="#5938e2" /><circle cx="586.7" cy="303.6" r="4" fill="#5938e2" /><circle cx="597.2" cy="303.6" r="4" fill="#5938e2" /><circle cx="607.8" cy="303.6" r="4" fill="#5938e2" /><circle cx="618.3" cy="302.9" r="4" fill="#5938e2" /><circle cx="628.9" cy="302.9" r="4" fill="#5938e2" /><circle cx="639.4" cy="298.0" r="4" fill="#5938e2" /><circle cx="650.0" cy="298.0" r="4" fill="#5938e2" /><circle cx="660.6" cy="298.0" r="4" fill="#5938e2" /><circle cx="671.1" cy="298.0" r="4" fill="#5938e2" /><circle cx="681.7" cy="298.0" r="4" fill="#5938e2" /><circle cx="692.2" cy="298.0" r="4" fill="#5938e2" /><circle cx="702.8" cy="298.0" r="4" fill="#5938e2" /><circle cx="713.3" cy="298.0" r="4" fill="#5938e2" /><circle cx="723.9" cy="298.0" r="4" fill="#5938e2" /><circle cx="734.4" cy="298.0" r="4" fill="#5938e2" /><circle cx="745.0" cy="298.0" r="4" fill="#5938e2" /><circle cx="755.6" cy="298.0" r="4" fill="#5938e2" /><circle cx="766.1" cy="298.0" r="4" fill="#5938e2" /><circle cx="776.7" cy="298.0" r="4" fill="#5938e2" /><circle cx="787.2" cy="297.8" r="4" fill="#5938e2" /><circle cx="797.8" cy="297.8" r="4" fill="#5938e2" /><circle cx="808.3" cy="297.8" r="4" fill="#5938e2" /><circle cx="818.9" cy="297.8" r="4" fill="#5938e2" /><circle cx="829.4" cy="297.8" r="4" fill="#5938e2" /><circle cx="840.0" cy="297.8" r="4" fill="#5938e2" /><polyline points="80.0,144.6 90.6,140.1 101.1,139.9 111.7,139.8 122.2,139.8 132.8,139.6 143.3,139.6 153.9,139.6 164.4,139.6 175.0,139.6 185.6,138.4 196.1,138.4 206.7,138.4 217.2,138.4 227.8,138.4 238.3,138.4 248.9,138.4 259.4,137.4 270.0,137.4 280.6,137.4 291.1,137.4 301.7,137.4 312.2,137.4 322.8,137.4 333.3,137.4 343.9,137.4 354.4,137.4 365.0,137.4 375.6,131.2 386.1,131.2 396.7,130.8 407.2,130.4 417.8,126.9 428.3,126.9 438.9,126.9 449.4,126.9 460.0,126.9 470.6,126.9 481.1,126.9 491.7,126.9 502.2,126.9 512.8,126.8 523.3,122.1 533.9,120.4 544.4,120.4 555.0,120.4 565.6,120.4 576.1,120.4 586.7,119.4 597.2,119.4 607.8,119.4 618.3,119.4 628.9,119.1 639.4,118.8 650.0,118.8 660.6,117.8 671.1,117.8 681.7,117.8 692.2,115.8 702.8,115.8 713.3,115.0 723.9,115.0 734.4,115.0 745.0,115.0 755.6,115.0 766.1,115.0 776.7,115.0 787.2,113.9 797.8,111.8 808.3,111.8 818.9,111.8 829.4,111.8 840.0,111.8" fill="none" stroke="#60e5e0" stroke-width="2.5" stroke-linecap="round" stroke-linejoin="round" /><circle cx="80.0" cy="144.6" r="4" fill="#60e5e0" /><circle cx="90.6" cy="140.1" r="4" fill="#60e5e0" /><circle cx="101.1" cy="139.9" r="4" fill="#60e5e0" /><circle cx="111.7" cy="139.8" r="4" fill="#60e5e0" /><circle cx="122.2" cy="139.8" r="4" fill="#60e5e0" /><circle cx="132.8" cy="139.6" r="4" fill="#60e5e0" /><circle cx="143.3" cy="139.6" r="4" fill="#60e5e0" /><circle cx="153.9" cy="139.6" r="4" fill="#60e5e0" /><circle cx="164.4" cy="139.6" r="4" fill="#60e5e0" /><circle cx="175.0" cy="139.6" r="4" fill="#60e5e0" /><circle cx="185.6" cy="138.4" r="4" fill="#60e5e0" /><circle cx="196.1" cy="138.4" r="4" fill="#60e5e0" /><circle cx="206.7" cy="138.4" r="4" fill="#60e5e0" /><circle cx="217.2" cy="138.4" r="4" fill="#60e5e0" /><circle cx="227.8" cy="138.4" r="4" fill="#60e5e0" /><circle cx="238.3" cy="138.4" r="4" fill="#60e5e0" /><circle cx="248.9" cy="138.4" r="4" fill="#60e5e0" /><circle cx="259.4" cy="137.4" r="4" fill="#60e5e0" /><circle cx="270.0" cy="137.4" r="4" fill="#60e5e0" /><circle cx="280.6" cy="137.4" r="4" fill="#60e5e0" /><circle cx="291.1" cy="137.4" r="4" fill="#60e5e0" /><circle cx="301.7" cy="137.4" r="4" fill="#60e5e0" /><circle cx="312.2" cy="137.4" r="4" fill="#60e5e0" /><circle cx="322.8" cy="137.4" r="4" fill="#60e5e0" /><circle cx="333.3" cy="137.4" r="4" fill="#60e5e0" /><circle cx="343.9" cy="137.4" r="4" fill="#60e5e0" /><circle cx="354.4" cy="137.4" r="4" fill="#60e5e0" /><circle cx="365.0" cy="137.4" r="4" fill="#60e5e0" /><circle cx="375.6" cy="131.2" r="4" fill="#60e5e0" /><circle cx="386.1" cy="131.2" r="4" fill="#60e5e0" /><circle cx="396.7" cy="130.8" r="4" fill="#60e5e0" /><circle cx="407.2" cy="130.4" r="4" fill="#60e5e0" /><circle cx="417.8" cy="126.9" r="4" fill="#60e5e0" /><circle cx="428.3" cy="126.9" r="4" fill="#60e5e0" /><circle cx="438.9" cy="126.9" r="4" fill="#60e5e0" /><circle cx="449.4" cy="126.9" r="4" fill="#60e5e0" /><circle cx="460.0" cy="126.9" r="4" fill="#60e5e0" /><circle cx="470.6" cy="126.9" r="4" fill="#60e5e0" /><circle cx="481.1" cy="126.9" r="4" fill="#60e5e0" /><circle cx="491.7" cy="126.9" r="4" fill="#60e5e0" /><circle cx="502.2" cy="126.9" r="4" fill="#60e5e0" /><circle cx="512.8" cy="126.8" r="4" fill="#60e5e0" /><circle cx="523.3" cy="122.1" r="4" fill="#60e5e0" /><circle cx="533.9" cy="120.4" r="4" fill="#60e5e0" /><circle cx="544.4" cy="120.4" r="4" fill="#60e5e0" /><circle cx="555.0" cy="120.4" r="4" fill="#60e5e0" /><circle cx="565.6" cy="120.4" r="4" fill="#60e5e0" /><circle cx="576.1" cy="120.4" r="4" fill="#60e5e0" /><circle cx="586.7" cy="119.4" r="4" fill="#60e5e0" /><circle cx="597.2" cy="119.4" r="4" fill="#60e5e0" /><circle cx="607.8" cy="119.4" r="4" fill="#60e5e0" /><circle cx="618.3" cy="119.4" r="4" fill="#60e5e0" /><circle cx="628.9" cy="119.1" r="4" fill="#60e5e0" /><circle cx="639.4" cy="118.8" r="4" fill="#60e5e0" /><circle cx="650.0" cy="118.8" r="4" fill="#60e5e0" /><circle cx="660.6" cy="117.8" r="4" fill="#60e5e0" /><circle cx="671.1" cy="117.8" r="4" fill="#60e5e0" /><circle cx="681.7" cy="117.8" r="4" fill="#60e5e0" /><circle cx="692.2" cy="115.8" r="4" fill="#60e5e0" /><circle cx="702.8" cy="115.8" r="4" fill="#60e5e0" /><circle cx="713.3" cy="115.0" r="4" fill="#60e5e0" /><circle cx="723.9" cy="115.0" r="4" fill="#60e5e0" /><circle cx="734.4" cy="115.0" r="4" fill="#60e5e0" /><circle cx="745.0" cy="115.0" r="4" fill="#60e5e0" /><circle cx="755.6" cy="115.0" r="4" fill="#60e5e0" /><circle cx="766.1" cy="115.0" r="4" fill="#60e5e0" /><circle cx="776.7" cy="115.0" r="4" fill="#60e5e0" /><circle cx="787.2" cy="113.9" r="4" fill="#60e5e0" /><circle cx="797.8" cy="111.8" r="4" fill="#60e5e0" /><circle cx="808.3" cy="111.8" r="4" fill="#60e5e0" /><circle cx="818.9" cy="111.8" r="4" fill="#60e5e0" /><circle cx="829.4" cy="111.8" r="4" fill="#60e5e0" /><circle cx="840.0" cy="111.8" r="4" fill="#60e5e0" /><polyline points="80.0,314.6 90.6,314.4 101.1,314.2 111.7,314.2 122.2,314.2 132.8,314.1 143.3,314.1 153.9,314.1 164.4,314.1 175.0,314.1 185.6,314.0 196.1,314.0 206.7,314.0 217.2,314.0 227.8,314.0 238.3,314.0 248.9,314.0 259.4,314.0 270.0,314.0 280.6,314.0 291.1,314.0 301.7,314.0 312.2,314.0 322.8,314.0 333.3,314.0 343.9,314.0 354.4,314.0 365.0,314.0 375.6,314.0 386.1,314.0 396.7,314.0 407.2,314.0 417.8,314.0 428.3,314.0 438.9,314.0 449.4,314.0 460.0,314.0 470.6,314.0 481.1,314.0 491.7,314.0 502.2,314.0 512.8,313.9 523.3,313.6 533.9,313.4 544.4,313.4 555.0,313.4 565.6,313.4 576.1,313.4 586.7,313.1 597.2,313.1 607.8,313.1 618.3,313.1 628.9,313.1 639.4,313.0 650.0,313.0 660.6,312.9 671.1,312.9 681.7,312.9 692.2,312.8 702.8,312.8 713.3,312.6 723.9,312.6 734.4,312.6 745.0,312.6 755.6,312.6 766.1,312.6 776.7,312.6 787.2,312.5 797.8,312.1 808.3,312.1 818.9,312.1 829.4,312.1 840.0,312.1" fill="none" stroke="#567de1" stroke-width="2.5" stroke-linecap="round" stroke-linejoin="round" /><circle cx="80.0" cy="314.6" r="4" fill="#567de1" /><circle cx="90.6" cy="314.4" r="4" fill="#567de1" /><circle cx="101.1" cy="314.2" r="4" fill="#567de1" /><circle cx="111.7" cy="314.2" r="4" fill="#567de1" /><circle cx="122.2" cy="314.2" r="4" fill="#567de1" /><circle cx="132.8" cy="314.1" r="4" fill="#567de1" /><circle cx="143.3" cy="314.1" r="4" fill="#567de1" /><circle cx="153.9" cy="314.1" r="4" fill="#567de1" /><circle cx="164.4" cy="314.1" r="4" fill="#567de1" /><circle cx="175.0" cy="314.1" r="4" fill="#567de1" /><circle cx="185.6" cy="314.0" r="4" fill="#567de1" /><circle cx="196.1" cy="314.0" r="4" fill="#567de1" /><circle cx="206.7" cy="314.0" r="4" fill="#567de1" /><circle cx="217.2" cy="314.0" r="4" fill="#567de1" /><circle cx="227.8" cy="314.0" r="4" fill="#567de1" /><circle cx="238.3" cy="314.0" r="4" fill="#567de1" /><circle cx="248.9" cy="314.0" r="4" fill="#567de1" /><circle cx="259.4" cy="314.0" r="4" fill="#567de1" /><circle cx="270.0" cy="314.0" r="4" fill="#567de1" /><circle cx="280.6" cy="314.0" r="4" fill="#567de1" /><circle cx="291.1" cy="314.0" r="4" fill="#567de1" /><circle cx="301.7" cy="314.0" r="4" fill="#567de1" /><circle cx="312.2" cy="314.0" r="4" fill="#567de1" /><circle cx="322.8" cy="314.0" r="4" fill="#567de1" /><circle cx="333.3" cy="314.0" r="4" fill="#567de1" /><circle cx="343.9" cy="314.0" r="4" fill="#567de1" /><circle cx="354.4" cy="314.0" r="4" fill="#567de1" /><circle cx="365.0" cy="314.0" r="4" fill="#567de1" /><circle cx="375.6" cy="314.0" r="4" fill="#567de1" /><circle cx="386.1" cy="314.0" r="4" fill="#567de1" /><circle cx="396.7" cy="314.0" r="4" fill="#567de1" /><circle cx="407.2" cy="314.0" r="4" fill="#567de1" /><circle cx="417.8" cy="314.0" r="4" fill="#567de1" /><circle cx="428.3" cy="314.0" r="4" fill="#567de1" /><circle cx="438.9" cy="314.0" r="4" fill="#567de1" /><circle cx="449.4" cy="314.0" r="4" fill="#567de1" /><circle cx="460.0" cy="314.0" r="4" fill="#567de1" /><circle cx="470.6" cy="314.0" r="4" fill="#567de1" /><circle cx="481.1" cy="314.0" r="4" fill="#567de1" /><circle cx="491.7" cy="314.0" r="4" fill="#567de1" /><circle cx="502.2" cy="314.0" r="4" fill="#567de1" /><circle cx="512.8" cy="313.9" r="4" fill="#567de1" /><circle cx="523.3" cy="313.6" r="4" fill="#567de1" /><circle cx="533.9" cy="313.4" r="4" fill="#567de1" /><circle cx="544.4" cy="313.4" r="4" fill="#567de1" /><circle cx="555.0" cy="313.4" r="4" fill="#567de1" /><circle cx="565.6" cy="313.4" r="4" fill="#567de1" /><circle cx="576.1" cy="313.4" r="4" fill="#567de1" /><circle cx="586.7" cy="313.1" r="4" fill="#567de1" /><circle cx="597.2" cy="313.1" r="4" fill="#567de1" /><circle cx="607.8" cy="313.1" r="4" fill="#567de1" /><circle cx="618.3" cy="313.1" r="4" fill="#567de1" /><circle cx="628.9" cy="313.1" r="4" fill="#567de1" /><circle cx="639.4" cy="313.0" r="4" fill="#567de1" /><circle cx="650.0" cy="313.0" r="4" fill="#567de1" /><circle cx="660.6" cy="312.9" r="4" fill="#567de1" /><circle cx="671.1" cy="312.9" r="4" fill="#567de1" /><circle cx="681.7" cy="312.9" r="4" fill="#567de1" /><circle cx="692.2" cy="312.8" r="4" fill="#567de1" /><circle cx="702.8" cy="312.8" r="4" fill="#567de1" /><circle cx="713.3" cy="312.6" r="4" fill="#567de1" /><circle cx="723.9" cy="312.6" r="4" fill="#567de1" /><circle cx="734.4" cy="312.6" r="4" fill="#567de1" /><circle cx="745.0" cy="312.6" r="4" fill="#567de1" /><circle cx="755.6" cy="312.6" r="4" fill="#567de1" /><circle cx="766.1" cy="312.6" r="4" fill="#567de1" /><circle cx="776.7" cy="312.6" r="4" fill="#567de1" /><circle cx="787.2" cy="312.5" r="4" fill="#567de1" /><circle cx="797.8" cy="312.1" r="4" fill="#567de1" /><circle cx="808.3" cy="312.1" r="4" fill="#567de1" /><circle cx="818.9" cy="312.1" r="4" fill="#567de1" /><circle cx="829.4" cy="312.1" r="4" fill="#567de1" /><circle cx="840.0" cy="312.1" r="4" fill="#567de1" /><polyline points="80.0,303.9 90.6,304.2 101.1,304.4 111.7,304.4 122.2,304.4 132.8,304.4 143.3,304.4 153.9,304.4 164.4,304.4 175.0,304.4 185.6,304.4 196.1,304.4 206.7,304.4 217.2,304.4 227.8,304.4 238.3,304.4 248.9,304.4 259.4,304.4 270.0,304.4 280.6,304.4 291.1,304.4 301.7,304.4 312.2,304.4 322.8,304.4 333.3,304.4 343.9,304.4 354.4,304.4 365.0,304.4 375.6,299.1 386.1,299.1 396.7,299.1 407.2,298.9 417.8,295.6 428.3,295.6 438.9,295.6 449.4,295.6 460.0,295.6 470.6,295.6 481.1,295.6 491.7,295.6 502.2,295.6 512.8,295.8 523.3,295.9 533.9,295.9 544.4,295.9 555.0,295.9 565.6,295.9 576.1,295.9 586.7,295.9 597.2,295.9 607.8,295.9 618.3,295.9 628.9,295.9 639.4,295.9 650.0,295.9 660.6,295.9 671.1,295.9 681.7,295.9 692.2,295.8 702.8,295.8 713.3,295.9 723.9,295.9 734.4,295.9 745.0,295.9 755.6,295.9 766.1,295.9 776.7,295.9 787.2,296.0 797.8,296.4 808.3,296.4 818.9,296.4 829.4,296.4 840.0,296.4" fill="none" stroke="#9754dd" stroke-width="2.5" stroke-linecap="round" stroke-linejoin="round" /><circle cx="80.0" cy="303.9" r="4" fill="#9754dd" /><circle cx="90.6" cy="304.2" r="4" fill="#9754dd" /><circle cx="101.1" cy="304.4" r="4" fill="#9754dd" /><circle cx="111.7" cy="304.4" r="4" fill="#9754dd" /><circle cx="122.2" cy="304.4" r="4" fill="#9754dd" /><circle cx="132.8" cy="304.4" r="4" fill="#9754dd" /><circle cx="143.3" cy="304.4" r="4" fill="#9754dd" /><circle cx="153.9" cy="304.4" r="4" fill="#9754dd" /><circle cx="164.4" cy="304.4" r="4" fill="#9754dd" /><circle cx="175.0" cy="304.4" r="4" fill="#9754dd" /><circle cx="185.6" cy="304.4" r="4" fill="#9754dd" /><circle cx="196.1" cy="304.4" r="4" fill="#9754dd" /><circle cx="206.7" cy="304.4" r="4" fill="#9754dd" /><circle cx="217.2" cy="304.4" r="4" fill="#9754dd" /><circle cx="227.8" cy="304.4" r="4" fill="#9754dd" /><circle cx="238.3" cy="304.4" r="4" fill="#9754dd" /><circle cx="248.9" cy="304.4" r="4" fill="#9754dd" /><circle cx="259.4" cy="304.4" r="4" fill="#9754dd" /><circle cx="270.0" cy="304.4" r="4" fill="#9754dd" /><circle cx="280.6" cy="304.4" r="4" fill="#9754dd" /><circle cx="291.1" cy="304.4" r="4" fill="#9754dd" /><circle cx="301.7" cy="304.4" r="4" fill="#9754dd" /><circle cx="312.2" cy="304.4" r="4" fill="#9754dd" /><circle cx="322.8" cy="304.4" r="4" fill="#9754dd" /><circle cx="333.3" cy="304.4" r="4" fill="#9754dd" /><circle cx="343.9" cy="304.4" r="4" fill="#9754dd" /><circle cx="354.4" cy="304.4" r="4" fill="#9754dd" /><circle cx="365.0" cy="304.4" r="4" fill="#9754dd" /><circle cx="375.6" cy="299.1" r="4" fill="#9754dd" /><circle cx="386.1" cy="299.1" r="4" fill="#9754dd" /><circle cx="396.7" cy="299.1" r="4" fill="#9754dd" /><circle cx="407.2" cy="298.9" r="4" fill="#9754dd" /><circle cx="417.8" cy="295.6" r="4" fill="#9754dd" /><circle cx="428.3" cy="295.6" r="4" fill="#9754dd" /><circle cx="438.9" cy="295.6" r="4" fill="#9754dd" /><circle cx="449.4" cy="295.6" r="4" fill="#9754dd" /><circle cx="460.0" cy="295.6" r="4" fill="#9754dd" /><circle cx="470.6" cy="295.6" r="4" fill="#9754dd" /><circle cx="481.1" cy="295.6" r="4" fill="#9754dd" /><circle cx="491.7" cy="295.6" r="4" fill="#9754dd" /><circle cx="502.2" cy="295.6" r="4" fill="#9754dd" /><circle cx="512.8" cy="295.8" r="4" fill="#9754dd" /><circle cx="523.3" cy="295.9" r="4" fill="#9754dd" /><circle cx="533.9" cy="295.9" r="4" fill="#9754dd" /><circle cx="544.4" cy="295.9" r="4" fill="#9754dd" /><circle cx="555.0" cy="295.9" r="4" fill="#9754dd" /><circle cx="565.6" cy="295.9" r="4" fill="#9754dd" /><circle cx="576.1" cy="295.9" r="4" fill="#9754dd" /><circle cx="586.7" cy="295.9" r="4" fill="#9754dd" /><circle cx="597.2" cy="295.9" r="4" fill="#9754dd" /><circle cx="607.8" cy="295.9" r="4" fill="#9754dd" /><circle cx="618.3" cy="295.9" r="4" fill="#9754dd" /><circle cx="628.9" cy="295.9" r="4" fill="#9754dd" /><circle cx="639.4" cy="295.9" r="4" fill="#9754dd" /><circle cx="650.0" cy="295.9" r="4" fill="#9754dd" /><circle cx="660.6" cy="295.9" r="4" fill="#9754dd" /><circle cx="671.1" cy="295.9" r="4" fill="#9754dd" /><circle cx="681.7" cy="295.9" r="4" fill="#9754dd" /><circle cx="692.2" cy="295.8" r="4" fill="#9754dd" /><circle cx="702.8" cy="295.8" r="4" fill="#9754dd" /><circle cx="713.3" cy="295.9" r="4" fill="#9754dd" /><circle cx="723.9" cy="295.9" r="4" fill="#9754dd" /><circle cx="734.4" cy="295.9" r="4" fill="#9754dd" /><circle cx="745.0" cy="295.9" r="4" fill="#9754dd" /><circle cx="755.6" cy="295.9" r="4" fill="#9754dd" /><circle cx="766.1" cy="295.9" r="4" fill="#9754dd" /><circle cx="776.7" cy="295.9" r="4" fill="#9754dd" /><circle cx="787.2" cy="296.0" r="4" fill="#9754dd" /><circle cx="797.8" cy="296.4" r="4" fill="#9754dd" /><circle cx="808.3" cy="296.4" r="4" fill="#9754dd" /><circle cx="818.9" cy="296.4" r="4" fill="#9754dd" /><circle cx="829.4" cy="296.4" r="4" fill="#9754dd" /><circle cx="840.0" cy="296.4" r="4" fill="#9754dd" />
  <rect x="80" y="339" width="10" height="10" rx="2" ry="2" fill="#19e5a1" /><text x="96" y="348" class="legend-label">Stars</text><rect x="250" y="339" width="10" height="10" rx="2" ry="2" fill="#6eb6ec" /><text x="266" y="348" class="legend-label">Followers</text><rect x="420" y="339" width="10" height="10" rx="2" ry="2" fill="#5938e2" /><text x="436" y="348" class="legend-label">Following</text><rect x="590" y="339" width="10" height="10" rx="2" ry="2" fill="#60e5e0" /><text x="606" y="348" class="legend-label">Contributions</text><rect x="80" y="357" width="10" height="10" rx="2" ry="2" fill="#567de1" /><text x="96" y="366" class="legend-label">Pull Requests</text><rect x="250" y="357" width="10" height="10" rx="2" ry="2" fill="#9754dd" /><text x="266" y="366" class="legend-label">Issues</text>
</svg>
