<svg width="900" height="402" viewBox="0 0 900 402" xmlns="http://www.w3.org/2000/svg">
  <defs>
    <linearGradient id="history-gradient" x1="0%" y1="0%" x2="100%" y2="100%">
      <stop offset="0%" style="stop-color:#58a6ff;stop-opacity:1" />
      <stop offset="100%" style="stop-color:#a371f7;stop-opacity:1" />
    </linearGradient>
    <clipPath id="history-rounded">
      <rect x="0" y="0" width="900" height="402" rx="8" ry="8" />
    </clipPath>
  </defs>
  <style>
    .title {
      font-family: 'Segoe UI', Ubuntu, 'Helvetica Neue', sans-serif;
      font-size: 22px;
      font-weight: 700;
      fill: #58a6ff;
    }
    .subtitle {
      font-family: 'Segoe UI', Ubuntu, 'Helvetica Neue', sans-serif;
      font-size: 12px;
      font-weight: 500;
      fill: #8b949e;
    }
    .axis-label {
      font-family: 'Segoe UI', Ubuntu, 'Helvetica Neue', sans-serif;
      font-size: 10px;
      fill: #8b949e;
    }
    .grid-line {
      stroke: #30363d;
      stroke-width: 1;
      opacity: 0.3;
    }
    .legend-label {
      font-family: 'Segoe UI', Ubuntu, 'Helvetica Neue', sans-serif;
      font-size: 11px;
      fill: #c9d1d9;
      dominant-baseline: middle;
    }
  </style>
  <rect clip-path="url(#history-rounded)" width="100%" height="100%" fill="#0d1117" stroke="#30363d" stroke-width="1" />
  <rect x="0" y="396" width="900" height="6" fill="url(#history-gradient)" clip-path="url(#history-rounded)" />
  <text x="24" y="34" class="title">Leonardo Klein Stats History</text>
  <text x="24" y="54" class="subtitle">Period: 2026-02-20 to 2026-03-14</text>
  <text x="72" y="320.0" text-anchor="end" dominant-baseline="central" class="axis-label">0</text><text x="72" y="270.0" text-anchor="end" dominant-baseline="central" class="axis-label">400</text><text x="72" y="220.0" text-anchor="end" dominant-baseline="central" class="axis-label">800</text><text x="72" y="170.0" text-anchor="end" dominant-baseline="central" class="axis-label">1.2k</text><text x="72" y="120.0" text-anchor="end" dominant-baseline="central" class="axis-label">1.6k</text><text x="72" y="70.0" text-anchor="end" dominant-baseline="central" class="axis-label">2.0k</text>
  <text x="80.0" y="336" text-anchor="middle" class="axis-label">02-20</text><text x="156.0" y="336" text-anchor="middle" class="axis-label">02-22</text><text x="232.0" y="336" text-anchor="middle" class="axis-label">02-24</text><text x="308.0" y="336" text-anchor="middle" class="axis-label">02-27</text><text x="384.0" y="336" text-anchor="middle" class="axis-label">03-01</text><text x="460.0" y="336" text-anchor="middle" class="axis-label">03-03</text><text x="536.0" y="336" text-anchor="middle" class="axis-label">03-05</text><text x="612.0" y="336" text-anchor="middle" class="axis-label">03-07</text><text x="688.0" y="336" text-anchor="middle" class="axis-label">03-10</text><text x="764.0" y="336" text-anchor="middle" class="axis-label">03-12</text><text x="840.0" y="336" text-anchor="middle" class="axis-label">03-14</text>
  <line x1="80" y1="320.0" x2="840" y2="320.0" class="grid-line" /><line x1="80" y1="270.0" x2="840" y2="270.0" class="grid-line" /><line x1="80" y1="220.0" x2="840" y2="220.0" class="grid-line" /><line x1="80" y1="170.0" x2="840" y2="170.0" class="grid-line" /><line x1="80" y1="120.0" x2="840" y2="120.0" class="grid-line" /><line x1="80" y1="70.0" x2="840" y2="70.0" class="grid-line" />
  <polyline points="80.0,317.0 86.9,317.0 93.8,317.0 100.7,317.0 107.6,317.0 114.5,317.0 121.5,317.0 128.4,317.0 135.3,317.0 142.2,317.0 149.1,317.0 156.0,317.0 162.9,317.0 169.8,317.0 176.7,317.0 183.6,317.0 190.5,317.0 197.5,317.0 204.4,317.0 211.3,317.0 218.2,317.0 225.1,317.0 232.0,317.0 238.9,317.0 245.8,317.0 252.7,317.0 259.6,317.0 266.5,317.0 273.5,317.0 280.4,317.0 287.3,317.0 294.2,317.0 301.1,317.0 308.0,317.0 314.9,317.0 321.8,317.0 328.7,317.0 335.6,317.0 342.5,317.0 349.5,317.0 356.4,317.0 363.3,317.0 370.2,317.0 377.1,317.0 384.0,317.0 390.9,317.0 397.8,317.0 404.7,317.0 411.6,317.0 418.5,317.0 425.5,317.0 432.4,317.0 439.3,317.0 446.2,317.0 453.1,317.0 460.0,317.0 466.9,317.0 473.8,317.0 480.7,317.0 487.6,317.0 494.5,317.0 501.5,317.0 508.4,317.0 515.3,317.0 522.2,317.0 529.1,317.0 536.0,317.0 542.9,317.0 549.8,317.0 556.7,317.0 563.6,317.0 570.5,317.0 577.5,317.0 584.4,317.0 591.3,317.0 598.2,317.0 605.1,317.0 612.0,317.0 618.9,317.0 625.8,317.0 632.7,317.0 639.6,317.0 646.5,317.0 653.5,317.0 660.4,317.0 667.3,317.0 674.2,317.0 681.1,317.0 688.0,317.0 694.9,317.0 701.8,317.0 708.7,317.0 715.6,317.0 722.5,317.0 729.5,317.0 736.4,317.0 743.3,317.0 750.2,317.0 757.1,317.0 764.0,317.0 770.9,317.0 777.8,317.0 784.7,317.0 791.6,317.0 798.5,317.0 805.5,317.0 812.4,317.0 819.3,317.0 826.2,317.0 833.1,317.0 840.0,317.0" fill="none" stroke="#19e5a1" stroke-width="2.5" stroke-linecap="round" stroke-linejoin="round" /><circle cx="80.0" cy="317.0" r="4" fill="#19e5a1" /><circle cx="86.9" cy="317.0" r="4" fill="#19e5a1" /><circle cx="93.8" cy="317.0" r="4" fill="#19e5a1" /><circle cx="100.7" cy="317.0" r="4" fill="#19e5a1" /><circle cx="107.6" cy="317.0" r="4" fill="#19e5a1" /><circle cx="114.5" cy="317.0" r="4" fill="#19e5a1" /><circle cx="121.5" cy="317.0" r="4" fill="#19e5a1" /><circle cx="128.4" cy="317.0" r="4" fill="#19e5a1" /><circle cx="135.3" cy="317.0" r="4" fill="#19e5a1" /><circle cx="142.2" cy="317.0" r="4" fill="#19e5a1" /><circle cx="149.1" cy="317.0" r="4" fill="#19e5a1" /><circle cx="156.0" cy="317.0" r="4" fill="#19e5a1" /><circle cx="162.9" cy="317.0" r="4" fill="#19e5a1" /><circle cx="169.8" cy="317.0" r="4" fill="#19e5a1" /><circle cx="176.7" cy="317.0" r="4" fill="#19e5a1" /><circle cx="183.6" cy="317.0" r="4" fill="#19e5a1" /><circle cx="190.5" cy="317.0" r="4" fill="#19e5a1" /><circle cx="197.5" cy="317.0" r="4" fill="#19e5a1" /><circle cx="204.4" cy="317.0" r="4" fill="#19e5a1" /><circle cx="211.3" cy="317.0" r="4" fill="#19e5a1" /><circle cx="218.2" cy="317.0" r="4" fill="#19e5a1" /><circle cx="225.1" cy="317.0" r="4" fill="#19e5a1" /><circle cx="232.0" cy="317.0" r="4" fill="#19e5a1" /><circle cx="238.9" cy="317.0" r="4" fill="#19e5a1" /><circle cx="245.8" cy="317.0" r="4" fill="#19e5a1" /><circle cx="252.7" cy="317.0" r="4" fill="#19e5a1" /><circle cx="259.6" cy="317.0" r="4" fill="#19e5a1" /><circle cx="266.5" cy="317.0" r="4" fill="#19e5a1" /><circle cx="273.5" cy="317.0" r="4" fill="#19e5a1" /><circle cx="280.4" cy="317.0" r="4" fill="#19e5a1" /><circle cx="287.3" cy="317.0" r="4" fill="#19e5a1" /><circle cx="294.2" cy="317.0" r="4" fill="#19e5a1" /><circle cx="301.1" cy="317.0" r="4" fill="#19e5a1" /><circle cx="308.0" cy="317.0" r="4" fill="#19e5a1" /><circle cx="314.9" cy="317.0" r="4" fill="#19e5a1" /><circle cx="321.8" cy="317.0" r="4" fill="#19e5a1" /><circle cx="328.7" cy="317.0" r="4" fill="#19e5a1" /><circle cx="335.6" cy="317.0" r="4" fill="#19e5a1" /><circle cx="342.5" cy="317.0" r="4" fill="#19e5a1" /><circle cx="349.5" cy="317.0" r="4" fill="#19e5a1" /><circle cx="356.4" cy="317.0" r="4" fill="#19e5a1" /><circle cx="363.3" cy="317.0" r="4" fill="#19e5a1" /><circle cx="370.2" cy="317.0" r="4" fill="#19e5a1" /><circle cx="377.1" cy="317.0" r="4" fill="#19e5a1" /><circle cx="384.0" cy="317.0" r="4" fill="#19e5a1" /><circle cx="390.9" cy="317.0" r="4" fill="#19e5a1" /><circle cx="397.8" cy="317.0" r="4" fill="#19e5a1" /><circle cx="404.7" cy="317.0" r="4" fill="#19e5a1" /><circle cx="411.6" cy="317.0" r="4" fill="#19e5a1" /><circle cx="418.5" cy="317.0" r="4" fill="#19e5a1" /><circle cx="425.5" cy="317.0" r="4" fill="#19e5a1" /><circle cx="432.4" cy="317.0" r="4" fill="#19e5a1" /><circle cx="439.3" cy="317.0" r="4" fill="#19e5a1" /><circle cx="446.2" cy="317.0" r="4" fill="#19e5a1" /><circle cx="453.1" cy="317.0" r="4" fill="#19e5a1" /><circle cx="460.0" cy="317.0" r="4" fill="#19e5a1" /><circle cx="466.9" cy="317.0" r="4" fill="#19e5a1" /><circle cx="473.8" cy="317.0" r="4" fill="#19e5a1" /><circle cx="480.7" cy="317.0" r="4" fill="#19e5a1" /><circle cx="487.6" cy="317.0" r="4" fill="#19e5a1" /><circle cx="494.5" cy="317.0" r="4" fill="#19e5a1" /><circle cx="501.5" cy="317.0" r="4" fill="#19e5a1" /><circle cx="508.4" cy="317.0" r="4" fill="#19e5a1" /><circle cx="515.3" cy="317.0" r="4" fill="#19e5a1" /><circle cx="522.2" cy="317.0" r="4" fill="#19e5a1" /><circle cx="529.1" cy="317.0" r="4" fill="#19e5a1" /><circle cx="536.0" cy="317.0" r="4" fill="#19e5a1" /><circle cx="542.9" cy="317.0" r="4" fill="#19e5a1" /><circle cx="549.8" cy="317.0" r="4" fill="#19e5a1" /><circle cx="556.7" cy="317.0" r="4" fill="#19e5a1" /><circle cx="563.6" cy="317.0" r="4" fill="#19e5a1" /><circle cx="570.5" cy="317.0" r="4" fill="#19e5a1" /><circle cx="577.5" cy="317.0" r="4" fill="#19e5a1" /><circle cx="584.4" cy="317.0" r="4" fill="#19e5a1" /><circle cx="591.3" cy="317.0" r="4" fill="#19e5a1" /><circle cx="598.2" cy="317.0" r="4" fill="#19e5a1" /><circle cx="605.1" cy="317.0" r="4" fill="#19e5a1" /><circle cx="612.0" cy="317.0" r="4" fill="#19e5a1" /><circle cx="618.9" cy="317.0" r="4" fill="#19e5a1" /><circle cx="625.8" cy="317.0" r="4" fill="#19e5a1" /><circle cx="632.7" cy="317.0" r="4" fill="#19e5a1" /><circle cx="639.6" cy="317.0" r="4" fill="#19e5a1" /><circle cx="646.5" cy="317.0" r="4" fill="#19e5a1" /><circle cx="653.5" cy="317.0" r="4" fill="#19e5a1" /><circle cx="660.4" cy="317.0" r="4" fill="#19e5a1" /><circle cx="667.3" cy="317.0" r="4" fill="#19e5a1" /><circle cx="674.2" cy="317.0" r="4" fill="#19e5a1" /><circle cx="681.1" cy="317.0" r="4" fill="#19e5a1" /><circle cx="688.0" cy="317.0" r="4" fill="#19e5a1" /><circle cx="694.9" cy="317.0" r="4" fill="#19e5a1" /><circle cx="701.8" cy="317.0" r="4" fill="#19e5a1" /><circle cx="708.7" cy="317.0" r="4" fill="#19e5a1" /><circle cx="715.6" cy="317.0" r="4" fill="#19e5a1" /><circle cx="722.5" cy="317.0" r="4" fill="#19e5a1" /><circle cx="729.5" cy="317.0" r="4" fill="#19e5a1" /><circle cx="736.4" cy="317.0" r="4" fill="#19e5a1" /><circle cx="743.3" cy="317.0" r="4" fill="#19e5a1" /><circle cx="750.2" cy="317.0" r="4" fill="#19e5a1" /><circle cx="757.1" cy="317.0" r="4" fill="#19e5a1" /><circle cx="764.0" cy="317.0" r="4" fill="#19e5a1" /><circle cx="770.9" cy="317.0" r="4" fill="#19e5a1" /><circle cx="777.8" cy="317.0" r="4" fill="#19e5a1" /><circle cx="784.7" cy="317.0" r="4" fill="#19e5a1" /><circle cx="791.6" cy="317.0" r="4" fill="#19e5a1" /><circle cx="798.5" cy="317.0" r="4" fill="#19e5a1" /><circle cx="805.5" cy="317.0" r="4" fill="#19e5a1" /><circle cx="812.4" cy="317.0" r="4" fill="#19e5a1" /><circle cx="819.3" cy="317.0" r="4" fill="#19e5a1" /><circle cx="826.2" cy="317.0" r="4" fill="#19e5a1" /><circle cx="833.1" cy="317.0" r="4" fill="#19e5a1" /><circle cx="840.0" cy="317.0" r="4" fill="#19e5a1" /><polyline points="80.0,313.2 86.9,312.2 93.8,312.1 100.7,312.4 107.6,312.4 114.5,312.4 121.5,312.1 128.4,312.0 135.3,311.9 142.2,311.9 149.1,311.8 156.0,311.8 162.9,311.5 169.8,311.5 176.7,311.5 183.6,311.2 190.5,311.2 197.5,311.1 204.4,311.1 211.3,311.1 218.2,310.9 225.1,311.0 232.0,310.8 238.9,310.8 245.8,310.8 252.7,310.8 259.6,310.4 266.5,310.2 273.5,310.4 280.4,310.4 287.3,310.4 294.2,310.4 301.1,310.4 308.0,310.2 314.9,310.2 321.8,310.1 328.7,310.1 335.6,309.8 342.5,309.6 349.5,309.6 356.4,309.6 363.3,309.6 370.2,309.5 377.1,309.4 384.0,309.4 390.9,309.4 397.8,309.4 404.7,309.2 411.6,309.2 418.5,309.2 425.5,309.4 432.4,309.4 439.3,309.5 446.2,309.2 453.1,309.2 460.0,309.4 466.9,309.2 473.8,309.2 480.7,309.2 487.6,309.2 494.5,309.2 501.5,309.1 508.4,309.1 515.3,309.1 522.2,309.1 529.1,309.0 536.0,309.0 542.9,308.9 549.8,308.9 556.7,308.9 563.6,308.6 570.5,308.6 577.5,308.6 584.4,308.6 591.3,308.6 598.2,308.6 605.1,308.6 612.0,308.6 618.9,308.6 625.8,308.6 632.7,308.6 639.6,308.6 646.5,308.6 653.5,307.8 660.4,307.8 667.3,307.6 674.2,307.6 681.1,307.6 688.0,307.5 694.9,307.5 701.8,307.6 708.7,308.5 715.6,308.5 722.5,308.4 729.5,308.4 736.4,307.5 743.3,307.5 750.2,307.2 757.1,307.1 764.0,307.1 770.9,307.1 777.8,307.0 784.7,306.8 791.6,306.6 798.5,306.6 805.5,306.5 812.4,306.5 819.3,306.5 826.2,306.5 833.1,306.5 840.0,306.4" fill="none" stroke="#6eb6ec" stroke-width="2.5" stroke-linecap="round" stroke-linejoin="round" /><circle cx="80.0" cy="313.2" r="4" fill="#6eb6ec" /><circle cx="86.9" cy="312.2" r="4" fill="#6eb6ec" /><circle cx="93.8" cy="312.1" r="4" fill="#6eb6ec" /><circle cx="100.7" cy="312.4" r="4" fill="#6eb6ec" /><circle cx="107.6" cy="312.4" r="4" fill="#6eb6ec" /><circle cx="114.5" cy="312.4" r="4" fill="#6eb6ec" /><circle cx="121.5" cy="312.1" r="4" fill="#6eb6ec" /><circle cx="128.4" cy="312.0" r="4" fill="#6eb6ec" /><circle cx="135.3" cy="311.9" r="4" fill="#6eb6ec" /><circle cx="142.2" cy="311.9" r="4" fill="#6eb6ec" /><circle cx="149.1" cy="311.8" r="4" fill="#6eb6ec" /><circle cx="156.0" cy="311.8" r="4" fill="#6eb6ec" /><circle cx="162.9" cy="311.5" r="4" fill="#6eb6ec" /><circle cx="169.8" cy="311.5" r="4" fill="#6eb6ec" /><circle cx="176.7" cy="311.5" r="4" fill="#6eb6ec" /><circle cx="183.6" cy="311.2" r="4" fill="#6eb6ec" /><circle cx="190.5" cy="311.2" r="4" fill="#6eb6ec" /><circle cx="197.5" cy="311.1" r="4" fill="#6eb6ec" /><circle cx="204.4" cy="311.1" r="4" fill="#6eb6ec" /><circle cx="211.3" cy="311.1" r="4" fill="#6eb6ec" /><circle cx="218.2" cy="310.9" r="4" fill="#6eb6ec" /><circle cx="225.1" cy="311.0" r="4" fill="#6eb6ec" /><circle cx="232.0" cy="310.8" r="4" fill="#6eb6ec" /><circle cx="238.9" cy="310.8" r="4" fill="#6eb6ec" /><circle cx="245.8" cy="310.8" r="4" fill="#6eb6ec" /><circle cx="252.7" cy="310.8" r="4" fill="#6eb6ec" /><circle cx="259.6" cy="310.4" r="4" fill="#6eb6ec" /><circle cx="266.5" cy="310.2" r="4" fill="#6eb6ec" /><circle cx="273.5" cy="310.4" r="4" fill="#6eb6ec" /><circle cx="280.4" cy="310.4" r="4" fill="#6eb6ec" /><circle cx="287.3" cy="310.4" r="4" fill="#6eb6ec" /><circle cx="294.2" cy="310.4" r="4" fill="#6eb6ec" /><circle cx="301.1" cy="310.4" r="4" fill="#6eb6ec" /><circle cx="308.0" cy="310.2" r="4" fill="#6eb6ec" /><circle cx="314.9" cy="310.2" r="4" fill="#6eb6ec" /><circle cx="321.8" cy="310.1" r="4" fill="#6eb6ec" /><circle cx="328.7" cy="310.1" r="4" fill="#6eb6ec" /><circle cx="335.6" cy="309.8" r="4" fill="#6eb6ec" /><circle cx="342.5" cy="309.6" r="4" fill="#6eb6ec" /><circle cx="349.5" cy="309.6" r="4" fill="#6eb6ec" /><circle cx="356.4" cy="309.6" r="4" fill="#6eb6ec" /><circle cx="363.3" cy="309.6" r="4" fill="#6eb6ec" /><circle cx="370.2" cy="309.5" r="4" fill="#6eb6ec" /><circle cx="377.1" cy="309.4" r="4" fill="#6eb6ec" /><circle cx="384.0" cy="309.4" r="4" fill="#6eb6ec" /><circle cx="390.9" cy="309.4" r="4" fill="#6eb6ec" /><circle cx="397.8" cy="309.4" r="4" fill="#6eb6ec" /><circle cx="404.7" cy="309.2" r="4" fill="#6eb6ec" /><circle cx="411.6" cy="309.2" r="4" fill="#6eb6ec" /><circle cx="418.5" cy="309.2" r="4" fill="#6eb6ec" /><circle cx="425.5" cy="309.4" r="4" fill="#6eb6ec" /><circle cx="432.4" cy="309.4" r="4" fill="#6eb6ec" /><circle cx="439.3" cy="309.5" r="4" fill="#6eb6ec" /><circle cx="446.2" cy="309.2" r="4" fill="#6eb6ec" /><circle cx="453.1" cy="309.2" r="4" fill="#6eb6ec" /><circle cx="460.0" cy="309.4" r="4" fill="#6eb6ec" /><circle cx="466.9" cy="309.2" r="4" fill="#6eb6ec" /><circle cx="473.8" cy="309.2" r="4" fill="#6eb6ec" /><circle cx="480.7" cy="309.2" r="4" fill="#6eb6ec" /><circle cx="487.6" cy="309.2" r="4" fill="#6eb6ec" /><circle cx="494.5" cy="309.2" r="4" fill="#6eb6ec" /><circle cx="501.5" cy="309.1" r="4" fill="#6eb6ec" /><circle cx="508.4" cy="309.1" r="4" fill="#6eb6ec" /><circle cx="515.3" cy="309.1" r="4" fill="#6eb6ec" /><circle cx="522.2" cy="309.1" r="4" fill="#6eb6ec" /><circle cx="529.1" cy="309.0" r="4" fill="#6eb6ec" /><circle cx="536.0" cy="309.0" r="4" fill="#6eb6ec" /><circle cx="542.9" cy="308.9" r="4" fill="#6eb6ec" /><circle cx="549.8" cy="308.9" r="4" fill="#6eb6ec" /><circle cx="556.7" cy="308.9" r="4" fill="#6eb6ec" /><circle cx="563.6" cy="308.6" r="4" fill="#6eb6ec" /><circle cx="570.5" cy="308.6" r="4" fill="#6eb6ec" /><circle cx="577.5" cy="308.6" r="4" fill="#6eb6ec" /><circle cx="584.4" cy="308.6" r="4" fill="#6eb6ec" /><circle cx="591.3" cy="308.6" r="4" fill="#6eb6ec" /><circle cx="598.2" cy="308.6" r="4" fill="#6eb6ec" /><circle cx="605.1" cy="308.6" r="4" fill="#6eb6ec" /><circle cx="612.0" cy="308.6" r="4" fill="#6eb6ec" /><circle cx="618.9" cy="308.6" r="4" fill="#6eb6ec" /><circle cx="625.8" cy="308.6" r="4" fill="#6eb6ec" /><circle cx="632.7" cy="308.6" r="4" fill="#6eb6ec" /><circle cx="639.6" cy="308.6" r="4" fill="#6eb6ec" /><circle cx="646.5" cy="308.6" r="4" fill="#6eb6ec" /><circle cx="653.5" cy="307.8" r="4" fill="#6eb6ec" /><circle cx="660.4" cy="307.8" r="4" fill="#6eb6ec" /><circle cx="667.3" cy="307.6" r="4" fill="#6eb6ec" /><circle cx="674.2" cy="307.6" r="4" fill="#6eb6ec" /><circle cx="681.1" cy="307.6" r="4" fill="#6eb6ec" /><circle cx="688.0" cy="307.5" r="4" fill="#6eb6ec" /><circle cx="694.9" cy="307.5" r="4" fill="#6eb6ec" /><circle cx="701.8" cy="307.6" r="4" fill="#6eb6ec" /><circle cx="708.7" cy="308.5" r="4" fill="#6eb6ec" /><circle cx="715.6" cy="308.5" r="4" fill="#6eb6ec" /><circle cx="722.5" cy="308.4" r="4" fill="#6eb6ec" /><circle cx="729.5" cy="308.4" r="4" fill="#6eb6ec" /><circle cx="736.4" cy="307.5" r="4" fill="#6eb6ec" /><circle cx="743.3" cy="307.5" r="4" fill="#6eb6ec" /><circle cx="750.2" cy="307.2" r="4" fill="#6eb6ec" /><circle cx="757.1" cy="307.1" r="4" fill="#6eb6ec" /><circle cx="764.0" cy="307.1" r="4" fill="#6eb6ec" /><circle cx="770.9" cy="307.1" r="4" fill="#6eb6ec" /><circle cx="777.8" cy="307.0" r="4" fill="#6eb6ec" /><circle cx="784.7" cy="306.8" r="4" fill="#6eb6ec" /><circle cx="791.6" cy="306.6" r="4" fill="#6eb6ec" /><circle cx="798.5" cy="306.6" r="4" fill="#6eb6ec" /><circle cx="805.5" cy="306.5" r="4" fill="#6eb6ec" /><circle cx="812.4" cy="306.5" r="4" fill="#6eb6ec" /><circle cx="819.3" cy="306.5" r="4" fill="#6eb6ec" /><circle cx="826.2" cy="306.5" r="4" fill="#6eb6ec" /><circle cx="833.1" cy="306.5" r="4" fill="#6eb6ec" /><circle cx="840.0" cy="306.4" r="4" fill="#6eb6ec" /><polyline points="80.0,305.8 86.9,305.8 93.8,305.8 100.7,305.8 107.6,305.8 114.5,305.8 121.5,305.8 128.4,305.8 135.3,305.8 142.2,305.8 149.1,304.9 156.0,304.9 162.9,304.9 169.8,304.9 176.7,304.9 183.6,304.9 190.5,304.9 197.5,304.9 204.4,304.9 211.3,304.9 218.2,304.9 225.1,304.9 232.0,304.9 238.9,304.9 245.8,304.9 252.7,304.9 259.6,304.9 266.5,304.9 273.5,304.9 280.4,304.9 287.3,304.9 294.2,304.9 301.1,304.9 308.0,304.9 314.9,304.9 321.8,304.9 328.7,304.9 335.6,303.6 342.5,303.6 349.5,303.6 356.4,303.6 363.3,303.6 370.2,303.6 377.1,303.6 384.0,303.6 390.9,303.6 397.8,303.6 404.7,303.6 411.6,303.6 418.5,303.6 425.5,303.6 432.4,302.9 439.3,302.9 446.2,298.0 453.1,298.0 460.0,298.0 466.9,298.0 473.8,298.0 480.7,298.0 487.6,298.0 494.5,298.0 501.5,298.0 508.4,298.0 515.3,298.0 522.2,298.0 529.1,298.0 536.0,298.0 542.9,297.8 549.8,297.8 556.7,297.8 563.6,297.8 570.5,297.8 577.5,297.8 584.4,297.8 591.3,297.8 598.2,297.8 605.1,297.8 612.0,297.8 618.9,297.8 625.8,297.8 632.7,297.8 639.6,297.8 646.5,297.8 653.5,297.8 660.4,297.8 667.3,297.8 674.2,297.6 681.1,297.8 688.0,297.8 694.9,297.8 701.8,297.9 708.7,297.9 715.6,297.9 722.5,296.1 729.5,296.1 736.4,296.1 743.3,296.1 750.2,296.1 757.1,296.1 764.0,296.1 770.9,296.1 777.8,296.1 784.7,296.1 791.6,295.0 798.5,295.0 805.5,295.0 812.4,295.0 819.3,295.0 826.2,295.0 833.1,295.0 840.0,295.0" fill="none" stroke="#5938e2" stroke-width="2.5" stroke-linecap="round" stroke-linejoin="round" /><circle cx="80.0" cy="305.8" r="4" fill="#5938e2" /><circle cx="86.9" cy="305.8" r="4" fill="#5938e2" /><circle cx="93.8" cy="305.8" r="4" fill="#5938e2" /><circle cx="100.7" cy="305.8" r="4" fill="#5938e2" /><circle cx="107.6" cy="305.8" r="4" fill="#5938e2" /><circle cx="114.5" cy="305.8" r="4" fill="#5938e2" /><circle cx="121.5" cy="305.8" r="4" fill="#5938e2" /><circle cx="128.4" cy="305.8" r="4" fill="#5938e2" /><circle cx="135.3" cy="305.8" r="4" fill="#5938e2" /><circle cx="142.2" cy="305.8" r="4" fill="#5938e2" /><circle cx="149.1" cy="304.9" r="4" fill="#5938e2" /><circle cx="156.0" cy="304.9" r="4" fill="#5938e2" /><circle cx="162.9" cy="304.9" r="4" fill="#5938e2" /><circle cx="169.8" cy="304.9" r="4" fill="#5938e2" /><circle cx="176.7" cy="304.9" r="4" fill="#5938e2" /><circle cx="183.6" cy="304.9" r="4" fill="#5938e2" /><circle cx="190.5" cy="304.9" r="4" fill="#5938e2" /><circle cx="197.5" cy="304.9" r="4" fill="#5938e2" /><circle cx="204.4" cy="304.9" r="4" fill="#5938e2" /><circle cx="211.3" cy="304.9" r="4" fill="#5938e2" /><circle cx="218.2" cy="304.9" r="4" fill="#5938e2" /><circle cx="225.1" cy="304.9" r="4" fill="#5938e2" /><circle cx="232.0" cy="304.9" r="4" fill="#5938e2" /><circle cx="238.9" cy="304.9" r="4" fill="#5938e2" /><circle cx="245.8" cy="304.9" r="4" fill="#5938e2" /><circle cx="252.7" cy="304.9" r="4" fill="#5938e2" /><circle cx="259.6" cy="304.9" r="4" fill="#5938e2" /><circle cx="266.5" cy="304.9" r="4" fill="#5938e2" /><circle cx="273.5" cy="304.9" r="4" fill="#5938e2" /><circle cx="280.4" cy="304.9" r="4" fill="#5938e2" /><circle cx="287.3" cy="304.9" r="4" fill="#5938e2" /><circle cx="294.2" cy="304.9" r="4" fill="#5938e2" /><circle cx="301.1" cy="304.9" r="4" fill="#5938e2" /><circle cx="308.0" cy="304.9" r="4" fill="#5938e2" /><circle cx="314.9" cy="304.9" r="4" fill="#5938e2" /><circle cx="321.8" cy="304.9" r="4" fill="#5938e2" /><circle cx="328.7" cy="304.9" r="4" fill="#5938e2" /><circle cx="335.6" cy="303.6" r="4" fill="#5938e2" /><circle cx="342.5" cy="303.6" r="4" fill="#5938e2" /><circle cx="349.5" cy="303.6" r="4" fill="#5938e2" /><circle cx="356.4" cy="303.6" r="4" fill="#5938e2" /><circle cx="363.3" cy="303.6" r="4" fill="#5938e2" /><circle cx="370.2" cy="303.6" r="4" fill="#5938e2" /><circle cx="377.1" cy="303.6" r="4" fill="#5938e2" /><circle cx="384.0" cy="303.6" r="4" fill="#5938e2" /><circle cx="390.9" cy="303.6" r="4" fill="#5938e2" /><circle cx="397.8" cy="303.6" r="4" fill="#5938e2" /><circle cx="404.7" cy="303.6" r="4" fill="#5938e2" /><circle cx="411.6" cy="303.6" r="4" fill="#5938e2" /><circle cx="418.5" cy="303.6" r="4" fill="#5938e2" /><circle cx="425.5" cy="303.6" r="4" fill="#5938e2" /><circle cx="432.4" cy="302.9" r="4" fill="#5938e2" /><circle cx="439.3" cy="302.9" r="4" fill="#5938e2" /><circle cx="446.2" cy="298.0" r="4" fill="#5938e2" /><circle cx="453.1" cy="298.0" r="4" fill="#5938e2" /><circle cx="460.0" cy="298.0" r="4" fill="#5938e2" /><circle cx="466.9" cy="298.0" r="4" fill="#5938e2" /><circle cx="473.8" cy="298.0" r="4" fill="#5938e2" /><circle cx="480.7" cy="298.0" r="4" fill="#5938e2" /><circle cx="487.6" cy="298.0" r="4" fill="#5938e2" /><circle cx="494.5" cy="298.0" r="4" fill="#5938e2" /><circle cx="501.5" cy="298.0" r="4" fill="#5938e2" /><circle cx="508.4" cy="298.0" r="4" fill="#5938e2" /><circle cx="515.3" cy="298.0" r="4" fill="#5938e2" /><circle cx="522.2" cy="298.0" r="4" fill="#5938e2" /><circle cx="529.1" cy="298.0" r="4" fill="#5938e2" /><circle cx="536.0" cy="298.0" r="4" fill="#5938e2" /><circle cx="542.9" cy="297.8" r="4" fill="#5938e2" /><circle cx="549.8" cy="297.8" r="4" fill="#5938e2" /><circle cx="556.7" cy="297.8" r="4" fill="#5938e2" /><circle cx="563.6" cy="297.8" r="4" fill="#5938e2" /><circle cx="570.5" cy="297.8" r="4" fill="#5938e2" /><circle cx="577.5" cy="297.8" r="4" fill="#5938e2" /><circle cx="584.4" cy="297.8" r="4" fill="#5938e2" /><circle cx="591.3" cy="297.8" r="4" fill="#5938e2" /><circle cx="598.2" cy="297.8" r="4" fill="#5938e2" /><circle cx="605.1" cy="297.8" r="4" fill="#5938e2" /><circle cx="612.0" cy="297.8" r="4" fill="#5938e2" /><circle cx="618.9" cy="297.8" r="4" fill="#5938e2" /><circle cx="625.8" cy="297.8" r="4" fill="#5938e2" /><circle cx="632.7" cy="297.8" r="4" fill="#5938e2" /><circle cx="639.6" cy="297.8" r="4" fill="#5938e2" /><circle cx="646.5" cy="297.8" r="4" fill="#5938e2" /><circle cx="653.5" cy="297.8" r="4" fill="#5938e2" /><circle cx="660.4" cy="297.8" r="4" fill="#5938e2" /><circle cx="667.3" cy="297.8" r="4" fill="#5938e2" /><circle cx="674.2" cy="297.6" r="4" fill="#5938e2" /><circle cx="681.1" cy="297.8" r="4" fill="#5938e2" /><circle cx="688.0" cy="297.8" r="4" fill="#5938e2" /><circle cx="694.9" cy="297.8" r="4" fill="#5938e2" /><circle cx="701.8" cy="297.9" r="4" fill="#5938e2" /><circle cx="708.7" cy="297.9" r="4" fill="#5938e2" /><circle cx="715.6" cy="297.9" r="4" fill="#5938e2" /><circle cx="722.5" cy="296.1" r="4" fill="#5938e2" /><circle cx="729.5" cy="296.1" r="4" fill="#5938e2" /><circle cx="736.4" cy="296.1" r="4" fill="#5938e2" /><circle cx="743.3" cy="296.1" r="4" fill="#5938e2" /><circle cx="750.2" cy="296.1" r="4" fill="#5938e2" /><circle cx="757.1" cy="296.1" r="4" fill="#5938e2" /><circle cx="764.0" cy="296.1" r="4" fill="#5938e2" /><circle cx="770.9" cy="296.1" r="4" fill="#5938e2" /><circle cx="777.8" cy="296.1" r="4" fill="#5938e2" /><circle cx="784.7" cy="296.1" r="4" fill="#5938e2" /><circle cx="791.6" cy="295.0" r="4" fill="#5938e2" /><circle cx="798.5" cy="295.0" r="4" fill="#5938e2" /><circle cx="805.5" cy="295.0" r="4" fill="#5938e2" /><circle cx="812.4" cy="295.0" r="4" fill="#5938e2" /><circle cx="819.3" cy="295.0" r="4" fill="#5938e2" /><circle cx="826.2" cy="295.0" r="4" fill="#5938e2" /><circle cx="833.1" cy="295.0" r="4" fill="#5938e2" /><circle cx="840.0" cy="295.0" r="4" fill="#5938e2" /><polyline points="80.0,144.6 86.9,140.1 93.8,139.9 100.7,139.8 107.6,139.8 114.5,139.6 121.5,139.6 128.4,139.6 135.3,139.6 142.2,139.6 149.1,138.4 156.0,138.4 162.9,138.4 169.8,138.4 176.7,138.4 183.6,138.4 190.5,138.4 197.5,137.4 204.4,137.4 211.3,137.4 218.2,137.4 225.1,137.4 232.0,137.4 238.9,137.4 245.8,137.4 252.7,137.4 259.6,137.4 266.5,137.4 273.5,131.2 280.4,131.2 287.3,130.8 294.2,130.4 301.1,126.9 308.0,126.9 314.9,126.9 321.8,126.9 328.7,126.9 335.6,126.9 342.5,126.9 349.5,126.9 356.4,126.9 363.3,126.8 370.2,122.1 377.1,120.4 384.0,120.4 390.9,120.4 397.8,120.4 404.7,120.4 411.6,119.4 418.5,119.4 425.5,119.4 432.4,119.4 439.3,119.1 446.2,118.8 453.1,118.8 460.0,117.8 466.9,117.8 473.8,117.8 480.7,115.8 487.6,115.8 494.5,115.0 501.5,115.0 508.4,115.0 515.3,115.0 522.2,115.0 529.1,115.0 536.0,115.0 542.9,113.9 549.8,111.8 556.7,111.8 563.6,111.8 570.5,111.8 577.5,111.8 584.4,111.8 591.3,111.8 598.2,111.8 605.1,111.8 612.0,111.8 618.9,110.6 625.8,110.6 632.7,110.6 639.6,110.6 646.5,110.6 653.5,109.4 660.4,109.4 667.3,109.4 674.2,109.4 681.1,109.2 688.0,109.2 694.9,109.2 701.8,109.2 708.7,109.2 715.6,109.2 722.5,109.2 729.5,109.2 736.4,109.2 743.3,109.2 750.2,109.2 757.1,109.2 764.0,109.2 770.9,109.2 777.8,109.2 784.7,109.1 791.6,103.5 798.5,103.5 805.5,103.5 812.4,101.5 819.3,101.5 826.2,101.5 833.1,101.5 840.0,101.5" fill="none" stroke="#60e5e0" stroke-width="2.5" stroke-linecap="round" stroke-linejoin="round" /><circle cx="80.0" cy="144.6" r="4" fill="#60e5e0" /><circle cx="86.9" cy="140.1" r="4" fill="#60e5e0" /><circle cx="93.8" cy="139.9" r="4" fill="#60e5e0" /><circle cx="100.7" cy="139.8" r="4" fill="#60e5e0" /><circle cx="107.6" cy="139.8" r="4" fill="#60e5e0" /><circle cx="114.5" cy="139.6" r="4" fill="#60e5e0" /><circle cx="121.5" cy="139.6" r="4" fill="#60e5e0" /><circle cx="128.4" cy="139.6" r="4" fill="#60e5e0" /><circle cx="135.3" cy="139.6" r="4" fill="#60e5e0" /><circle cx="142.2" cy="139.6" r="4" fill="#60e5e0" /><circle cx="149.1" cy="138.4" r="4" fill="#60e5e0" /><circle cx="156.0" cy="138.4" r="4" fill="#60e5e0" /><circle cx="162.9" cy="138.4" r="4" fill="#60e5e0" /><circle cx="169.8" cy="138.4" r="4" fill="#60e5e0" /><circle cx="176.7" cy="138.4" r="4" fill="#60e5e0" /><circle cx="183.6" cy="138.4" r="4" fill="#60e5e0" /><circle cx="190.5" cy="138.4" r="4" fill="#60e5e0" /><circle cx="197.5" cy="137.4" r="4" fill="#60e5e0" /><circle cx="204.4" cy="137.4" r="4" fill="#60e5e0" /><circle cx="211.3" cy="137.4" r="4" fill="#60e5e0" /><circle cx="218.2" cy="137.4" r="4" fill="#60e5e0" /><circle cx="225.1" cy="137.4" r="4" fill="#60e5e0" /><circle cx="232.0" cy="137.4" r="4" fill="#60e5e0" /><circle cx="238.9" cy="137.4" r="4" fill="#60e5e0" /><circle cx="245.8" cy="137.4" r="4" fill="#60e5e0" /><circle cx="252.7" cy="137.4" r="4" fill="#60e5e0" /><circle cx="259.6" cy="137.4" r="4" fill="#60e5e0" /><circle cx="266.5" cy="137.4" r="4" fill="#60e5e0" /><circle cx="273.5" cy="131.2" r="4" fill="#60e5e0" /><circle cx="280.4" cy="131.2" r="4" fill="#60e5e0" /><circle cx="287.3" cy="130.8" r="4" fill="#60e5e0" /><circle cx="294.2" cy="130.4" r="4" fill="#60e5e0" /><circle cx="301.1" cy="126.9" r="4" fill="#60e5e0" /><circle cx="308.0" cy="126.9" r="4" fill="#60e5e0" /><circle cx="314.9" cy="126.9" r="4" fill="#60e5e0" /><circle cx="321.8" cy="126.9" r="4" fill="#60e5e0" /><circle cx="328.7" cy="126.9" r="4" fill="#60e5e0" /><circle cx="335.6" cy="126.9" r="4" fill="#60e5e0" /><circle cx="342.5" cy="126.9" r="4" fill="#60e5e0" /><circle cx="349.5" cy="126.9" r="4" fill="#60e5e0" /><circle cx="356.4" cy="126.9" r="4" fill="#60e5e0" /><circle cx="363.3" cy="126.8" r="4" fill="#60e5e0" /><circle cx="370.2" cy="122.1" r="4" fill="#60e5e0" /><circle cx="377.1" cy="120.4" r="4" fill="#60e5e0" /><circle cx="384.0" cy="120.4" r="4" fill="#60e5e0" /><circle cx="390.9" cy="120.4" r="4" fill="#60e5e0" /><circle cx="397.8" cy="120.4" r="4" fill="#60e5e0" /><circle cx="404.7" cy="120.4" r="4" fill="#60e5e0" /><circle cx="411.6" cy="119.4" r="4" fill="#60e5e0" /><circle cx="418.5" cy="119.4" r="4" fill="#60e5e0" /><circle cx="425.5" cy="119.4" r="4" fill="#60e5e0" /><circle cx="432.4" cy="119.4" r="4" fill="#60e5e0" /><circle cx="439.3" cy="119.1" r="4" fill="#60e5e0" /><circle cx="446.2" cy="118.8" r="4" fill="#60e5e0" /><circle cx="453.1" cy="118.8" r="4" fill="#60e5e0" /><circle cx="460.0" cy="117.8" r="4" fill="#60e5e0" /><circle cx="466.9" cy="117.8" r="4" fill="#60e5e0" /><circle cx="473.8" cy="117.8" r="4" fill="#60e5e0" /><circle cx="480.7" cy="115.8" r="4" fill="#60e5e0" /><circle cx="487.6" cy="115.8" r="4" fill="#60e5e0" /><circle cx="494.5" cy="115.0" r="4" fill="#60e5e0" /><circle cx="501.5" cy="115.0" r="4" fill="#60e5e0" /><circle cx="508.4" cy="115.0" r="4" fill="#60e5e0" /><circle cx="515.3" cy="115.0" r="4" fill="#60e5e0" /><circle cx="522.2" cy="115.0" r="4" fill="#60e5e0" /><circle cx="529.1" cy="115.0" r="4" fill="#60e5e0" /><circle cx="536.0" cy="115.0" r="4" fill="#60e5e0" /><circle cx="542.9" cy="113.9" r="4" fill="#60e5e0" /><circle cx="549.8" cy="111.8" r="4" fill="#60e5e0" /><circle cx="556.7" cy="111.8" r="4" fill="#60e5e0" /><circle cx="563.6" cy="111.8" r="4" fill="#60e5e0" /><circle cx="570.5" cy="111.8" r="4" fill="#60e5e0" /><circle cx="577.5" cy="111.8" r="4" fill="#60e5e0" /><circle cx="584.4" cy="111.8" r="4" fill="#60e5e0" /><circle cx="591.3" cy="111.8" r="4" fill="#60e5e0" /><circle cx="598.2" cy="111.8" r="4" fill="#60e5e0" /><circle cx="605.1" cy="111.8" r="4" fill="#60e5e0" /><circle cx="612.0" cy="111.8" r="4" fill="#60e5e0" /><circle cx="618.9" cy="110.6" r="4" fill="#60e5e0" /><circle cx="625.8" cy="110.6" r="4" fill="#60e5e0" /><circle cx="632.7" cy="110.6" r="4" fill="#60e5e0" /><circle cx="639.6" cy="110.6" r="4" fill="#60e5e0" /><circle cx="646.5" cy="110.6" r="4" fill="#60e5e0" /><circle cx="653.5" cy="109.4" r="4" fill="#60e5e0" /><circle cx="660.4" cy="109.4" r="4" fill="#60e5e0" /><circle cx="667.3" cy="109.4" r="4" fill="#60e5e0" /><circle cx="674.2" cy="109.4" r="4" fill="#60e5e0" /><circle cx="681.1" cy="109.2" r="4" fill="#60e5e0" /><circle cx="688.0" cy="109.2" r="4" fill="#60e5e0" /><circle cx="694.9" cy="109.2" r="4" fill="#60e5e0" /><circle cx="701.8" cy="109.2" r="4" fill="#60e5e0" /><circle cx="708.7" cy="109.2" r="4" fill="#60e5e0" /><circle cx="715.6" cy="109.2" r="4" fill="#60e5e0" /><circle cx="722.5" cy="109.2" r="4" fill="#60e5e0" /><circle cx="729.5" cy="109.2" r="4" fill="#60e5e0" /><circle cx="736.4" cy="109.2" r="4" fill="#60e5e0" /><circle cx="743.3" cy="109.2" r="4" fill="#60e5e0" /><circle cx="750.2" cy="109.2" r="4" fill="#60e5e0" /><circle cx="757.1" cy="109.2" r="4" fill="#60e5e0" /><circle cx="764.0" cy="109.2" r="4" fill="#60e5e0" /><circle cx="770.9" cy="109.2" r="4" fill="#60e5e0" /><circle cx="777.8" cy="109.2" r="4" fill="#60e5e0" /><circle cx="784.7" cy="109.1" r="4" fill="#60e5e0" /><circle cx="791.6" cy="103.5" r="4" fill="#60e5e0" /><circle cx="798.5" cy="103.5" r="4" fill="#60e5e0" /><circle cx="805.5" cy="103.5" r="4" fill="#60e5e0" /><circle cx="812.4" cy="101.5" r="4" fill="#60e5e0" /><circle cx="819.3" cy="101.5" r="4" fill="#60e5e0" /><circle cx="826.2" cy="101.5" r="4" fill="#60e5e0" /><circle cx="833.1" cy="101.5" r="4" fill="#60e5e0" /><circle cx="840.0" cy="101.5" r="4" fill="#60e5e0" /><polyline points="80.0,314.6 86.9,314.4 93.8,314.2 100.7,314.2 107.6,314.2 114.5,314.1 121.5,314.1 128.4,314.1 135.3,314.1 142.2,314.1 149.1,314.0 156.0,314.0 162.9,314.0 169.8,314.0 176.7,314.0 183.6,314.0 190.5,314.0 197.5,314.0 204.4,314.0 211.3,314.0 218.2,314.0 225.1,314.0 232.0,314.0 238.9,314.0 245.8,314.0 252.7,314.0 259.6,314.0 266.5,314.0 273.5,314.0 280.4,314.0 287.3,314.0 294.2,314.0 301.1,314.0 308.0,314.0 314.9,314.0 321.8,314.0 328.7,314.0 335.6,314.0 342.5,314.0 349.5,314.0 356.4,314.0 363.3,313.9 370.2,313.6 377.1,313.4 384.0,313.4 390.9,313.4 397.8,313.4 404.7,313.4 411.6,313.1 418.5,313.1 425.5,313.1 432.4,313.1 439.3,313.1 446.2,313.0 453.1,313.0 460.0,312.9 466.9,312.9 473.8,312.9 480.7,312.8 487.6,312.8 494.5,312.6 501.5,312.6 508.4,312.6 515.3,312.6 522.2,312.6 529.1,312.6 536.0,312.6 542.9,312.5 549.8,312.1 556.7,312.1 563.6,312.1 570.5,312.1 577.5,312.1 584.4,312.1 591.3,312.1 598.2,312.1 605.1,312.1 612.0,312.1 618.9,312.0 625.8,312.0 632.7,312.0 639.6,312.0 646.5,312.0 653.5,312.0 660.4,312.0 667.3,312.0 674.2,312.0 681.1,312.0 688.0,312.0 694.9,312.0 701.8,312.0 708.7,312.0 715.6,312.0 722.5,312.0 729.5,312.0 736.4,312.0 743.3,312.0 750.2,312.0 757.1,312.0 764.0,312.0 770.9,312.0 777.8,312.0 784.7,312.0 791.6,311.9 798.5,311.9 805.5,311.9 812.4,311.8 819.3,311.8 826.2,311.8 833.1,311.8 840.0,311.8" fill="none" stroke="#567de1" stroke-width="2.5" stroke-linecap="round" stroke-linejoin="round" /><circle cx="80.0" cy="314.6" r="4" fill="#567de1" /><circle cx="86.9" cy="314.4" r="4" fill="#567de1" /><circle cx="93.8" cy="314.2" r="4" fill="#567de1" /><circle cx="100.7" cy="314.2" r="4" fill="#567de1" /><circle cx="107.6" cy="314.2" r="4" fill="#567de1" /><circle cx="114.5" cy="314.1" r="4" fill="#567de1" /><circle cx="121.5" cy="314.1" r="4" fill="#567de1" /><circle cx="128.4" cy="314.1" r="4" fill="#567de1" /><circle cx="135.3" cy="314.1" r="4" fill="#567de1" /><circle cx="142.2" cy="314.1" r="4" fill="#567de1" /><circle cx="149.1" cy="314.0" r="4" fill="#567de1" /><circle cx="156.0" cy="314.0" r="4" fill="#567de1" /><circle cx="162.9" cy="314.0" r="4" fill="#567de1" /><circle cx="169.8" cy="314.0" r="4" fill="#567de1" /><circle cx="176.7" cy="314.0" r="4" fill="#567de1" /><circle cx="183.6" cy="314.0" r="4" fill="#567de1" /><circle cx="190.5" cy="314.0" r="4" fill="#567de1" /><circle cx="197.5" cy="314.0" r="4" fill="#567de1" /><circle cx="204.4" cy="314.0" r="4" fill="#567de1" /><circle cx="211.3" cy="314.0" r="4" fill="#567de1" /><circle cx="218.2" cy="314.0" r="4" fill="#567de1" /><circle cx="225.1" cy="314.0" r="4" fill="#567de1" /><circle cx="232.0" cy="314.0" r="4" fill="#567de1" /><circle cx="238.9" cy="314.0" r="4" fill="#567de1" /><circle cx="245.8" cy="314.0" r="4" fill="#567de1" /><circle cx="252.7" cy="314.0" r="4" fill="#567de1" /><circle cx="259.6" cy="314.0" r="4" fill="#567de1" /><circle cx="266.5" cy="314.0" r="4" fill="#567de1" /><circle cx="273.5" cy="314.0" r="4" fill="#567de1" /><circle cx="280.4" cy="314.0" r="4" fill="#567de1" /><circle cx="287.3" cy="314.0" r="4" fill="#567de1" /><circle cx="294.2" cy="314.0" r="4" fill="#567de1" /><circle cx="301.1" cy="314.0" r="4" fill="#567de1" /><circle cx="308.0" cy="314.0" r="4" fill="#567de1" /><circle cx="314.9" cy="314.0" r="4" fill="#567de1" /><circle cx="321.8" cy="314.0" r="4" fill="#567de1" /><circle cx="328.7" cy="314.0" r="4" fill="#567de1" /><circle cx="335.6" cy="314.0" r="4" fill="#567de1" /><circle cx="342.5" cy="314.0" r="4" fill="#567de1" /><circle cx="349.5" cy="314.0" r="4" fill="#567de1" /><circle cx="356.4" cy="314.0" r="4" fill="#567de1" /><circle cx="363.3" cy="313.9" r="4" fill="#567de1" /><circle cx="370.2" cy="313.6" r="4" fill="#567de1" /><circle cx="377.1" cy="313.4" r="4" fill="#567de1" /><circle cx="384.0" cy="313.4" r="4" fill="#567de1" /><circle cx="390.9" cy="313.4" r="4" fill="#567de1" /><circle cx="397.8" cy="313.4" r="4" fill="#567de1" /><circle cx="404.7" cy="313.4" r="4" fill="#567de1" /><circle cx="411.6" cy="313.1" r="4" fill="#567de1" /><circle cx="418.5" cy="313.1" r="4" fill="#567de1" /><circle cx="425.5" cy="313.1" r="4" fill="#567de1" /><circle cx="432.4" cy="313.1" r="4" fill="#567de1" /><circle cx="439.3" cy="313.1" r="4" fill="#567de1" /><circle cx="446.2" cy="313.0" r="4" fill="#567de1" /><circle cx="453.1" cy="313.0" r="4" fill="#567de1" /><circle cx="460.0" cy="312.9" r="4" fill="#567de1" /><circle cx="466.9" cy="312.9" r="4" fill="#567de1" /><circle cx="473.8" cy="312.9" r="4" fill="#567de1" /><circle cx="480.7" cy="312.8" r="4" fill="#567de1" /><circle cx="487.6" cy="312.8" r="4" fill="#567de1" /><circle cx="494.5" cy="312.6" r="4" fill="#567de1" /><circle cx="501.5" cy="312.6" r="4" fill="#567de1" /><circle cx="508.4" cy="312.6" r="4" fill="#567de1" /><circle cx="515.3" cy="312.6" r="4" fill="#567de1" /><circle cx="522.2" cy="312.6" r="4" fill="#567de1" /><circle cx="529.1" cy="312.6" r="4" fill="#567de1" /><circle cx="536.0" cy="312.6" r="4" fill="#567de1" /><circle cx="542.9" cy="312.5" r="4" fill="#567de1" /><circle cx="549.8" cy="312.1" r="4" fill="#567de1" /><circle cx="556.7" cy="312.1" r="4" fill="#567de1" /><circle cx="563.6" cy="312.1" r="4" fill="#567de1" /><circle cx="570.5" cy="312.1" r="4" fill="#567de1" /><circle cx="577.5" cy="312.1" r="4" fill="#567de1" /><circle cx="584.4" cy="312.1" r="4" fill="#567de1" /><circle cx="591.3" cy="312.1" r="4" fill="#567de1" /><circle cx="598.2" cy="312.1" r="4" fill="#567de1" /><circle cx="605.1" cy="312.1" r="4" fill="#567de1" /><circle cx="612.0" cy="312.1" r="4" fill="#567de1" /><circle cx="618.9" cy="312.0" r="4" fill="#567de1" /><circle cx="625.8" cy="312.0" r="4" fill="#567de1" /><circle cx="632.7" cy="312.0" r="4" fill="#567de1" /><circle cx="639.6" cy="312.0" r="4" fill="#567de1" /><circle cx="646.5" cy="312.0" r="4" fill="#567de1" /><circle cx="653.5" cy="312.0" r="4" fill="#567de1" /><circle cx="660.4" cy="312.0" r="4" fill="#567de1" /><circle cx="667.3" cy="312.0" r="4" fill="#567de1" /><circle cx="674.2" cy="312.0" r="4" fill="#567de1" /><circle cx="681.1" cy="312.0" r="4" fill="#567de1" /><circle cx="688.0" cy="312.0" r="4" fill="#567de1" /><circle cx="694.9" cy="312.0" r="4" fill="#567de1" /><circle cx="701.8" cy="312.0" r="4" fill="#567de1" /><circle cx="708.7" cy="312.0" r="4" fill="#567de1" /><circle cx="715.6" cy="312.0" r="4" fill="#567de1" /><circle cx="722.5" cy="312.0" r="4" fill="#567de1" /><circle cx="729.5" cy="312.0" r="4" fill="#567de1" /><circle cx="736.4" cy="312.0" r="4" fill="#567de1" /><circle cx="743.3" cy="312.0" r="4" fill="#567de1" /><circle cx="750.2" cy="312.0" r="4" fill="#567de1" /><circle cx="757.1" cy="312.0" r="4" fill="#567de1" /><circle cx="764.0" cy="312.0" r="4" fill="#567de1" /><circle cx="770.9" cy="312.0" r="4" fill="#567de1" /><circle cx="777.8" cy="312.0" r="4" fill="#567de1" /><circle cx="784.7" cy="312.0" r="4" fill="#567de1" /><circle cx="791.6" cy="311.9" r="4" fill="#567de1" /><circle cx="798.5" cy="311.9" r="4" fill="#567de1" /><circle cx="805.5" cy="311.9" r="4" fill="#567de1" /><circle cx="812.4" cy="311.8" r="4" fill="#567de1" /><circle cx="819.3" cy="311.8" r="4" fill="#567de1" /><circle cx="826.2" cy="311.8" r="4" fill="#567de1" /><circle cx="833.1" cy="311.8" r="4" fill="#567de1" /><circle cx="840.0" cy="311.8" r="4" fill="#567de1" /><polyline points="80.0,303.9 86.9,304.2 93.8,304.4 100.7,304.4 107.6,304.4 114.5,304.4 121.5,304.4 128.4,304.4 135.3,304.4 142.2,304.4 149.1,304.4 156.0,304.4 162.9,304.4 169.8,304.4 176.7,304.4 183.6,304.4 190.5,304.4 197.5,304.4 204.4,304.4 211.3,304.4 218.2,304.4 225.1,304.4 232.0,304.4 238.9,304.4 245.8,304.4 252.7,304.4 259.6,304.4 266.5,304.4 273.5,299.1 280.4,299.1 287.3,299.1 294.2,298.9 301.1,295.6 308.0,295.6 314.9,295.6 321.8,295.6 328.7,295.6 335.6,295.6 342.5,295.6 349.5,295.6 356.4,295.6 363.3,295.8 370.2,295.9 377.1,295.9 384.0,295.9 390.9,295.9 397.8,295.9 404.7,295.9 411.6,295.9 418.5,295.9 425.5,295.9 432.4,295.9 439.3,295.9 446.2,295.9 453.1,295.9 460.0,295.9 466.9,295.9 473.8,295.9 480.7,295.8 487.6,295.8 494.5,295.9 501.5,295.9 508.4,295.9 515.3,295.9 522.2,295.9 529.1,295.9 536.0,295.9 542.9,296.0 549.8,296.4 556.7,296.4 563.6,296.4 570.5,296.4 577.5,296.4 584.4,296.4 591.3,296.4 598.2,296.4 605.1,296.4 612.0,296.4 618.9,296.5 625.8,296.5 632.7,296.5 639.6,296.5 646.5,296.5 653.5,296.5 660.4,296.5 667.3,296.5 674.2,296.5 681.1,296.5 688.0,296.5 694.9,296.5 701.8,296.5 708.7,296.5 715.6,296.5 722.5,296.5 729.5,296.5 736.4,296.5 743.3,296.5 750.2,296.5 757.1,296.5 764.0,296.5 770.9,296.5 777.8,296.5 784.7,296.5 791.6,295.0 798.5,295.0 805.5,295.0 812.4,295.1 819.3,295.1 826.2,295.1 833.1,295.1 840.0,295.1" fill="none" stroke="#9754dd" stroke-width="2.5" stroke-linecap="round" stroke-linejoin="round" /><circle cx="80.0" cy="303.9" r="4" fill="#9754dd" /><circle cx="86.9" cy="304.2" r="4" fill="#9754dd" /><circle cx="93.8" cy="304.4" r="4" fill="#9754dd" /><circle cx="100.7" cy="304.4" r="4" fill="#9754dd" /><circle cx="107.6" cy="304.4" r="4" fill="#9754dd" /><circle cx="114.5" cy="304.4" r="4" fill="#9754dd" /><circle cx="121.5" cy="304.4" r="4" fill="#9754dd" /><circle cx="128.4" cy="304.4" r="4" fill="#9754dd" /><circle cx="135.3" cy="304.4" r="4" fill="#9754dd" /><circle cx="142.2" cy="304.4" r="4" fill="#9754dd" /><circle cx="149.1" cy="304.4" r="4" fill="#9754dd" /><circle cx="156.0" cy="304.4" r="4" fill="#9754dd" /><circle cx="162.9" cy="304.4" r="4" fill="#9754dd" /><circle cx="169.8" cy="304.4" r="4" fill="#9754dd" /><circle cx="176.7" cy="304.4" r="4" fill="#9754dd" /><circle cx="183.6" cy="304.4" r="4" fill="#9754dd" /><circle cx="190.5" cy="304.4" r="4" fill="#9754dd" /><circle cx="197.5" cy="304.4" r="4" fill="#9754dd" /><circle cx="204.4" cy="304.4" r="4" fill="#9754dd" /><circle cx="211.3" cy="304.4" r="4" fill="#9754dd" /><circle cx="218.2" cy="304.4" r="4" fill="#9754dd" /><circle cx="225.1" cy="304.4" r="4" fill="#9754dd" /><circle cx="232.0" cy="304.4" r="4" fill="#9754dd" /><circle cx="238.9" cy="304.4" r="4" fill="#9754dd" /><circle cx="245.8" cy="304.4" r="4" fill="#9754dd" /><circle cx="252.7" cy="304.4" r="4" fill="#9754dd" /><circle cx="259.6" cy="304.4" r="4" fill="#9754dd" /><circle cx="266.5" cy="304.4" r="4" fill="#9754dd" /><circle cx="273.5" cy="299.1" r="4" fill="#9754dd" /><circle cx="280.4" cy="299.1" r="4" fill="#9754dd" /><circle cx="287.3" cy="299.1" r="4" fill="#9754dd" /><circle cx="294.2" cy="298.9" r="4" fill="#9754dd" /><circle cx="301.1" cy="295.6" r="4" fill="#9754dd" /><circle cx="308.0" cy="295.6" r="4" fill="#9754dd" /><circle cx="314.9" cy="295.6" r="4" fill="#9754dd" /><circle cx="321.8" cy="295.6" r="4" fill="#9754dd" /><circle cx="328.7" cy="295.6" r="4" fill="#9754dd" /><circle cx="335.6" cy="295.6" r="4" fill="#9754dd" /><circle cx="342.5" cy="295.6" r="4" fill="#9754dd" /><circle cx="349.5" cy="295.6" r="4" fill="#9754dd" /><circle cx="356.4" cy="295.6" r="4" fill="#9754dd" /><circle cx="363.3" cy="295.8" r="4" fill="#9754dd" /><circle cx="370.2" cy="295.9" r="4" fill="#9754dd" /><circle cx="377.1" cy="295.9" r="4" fill="#9754dd" /><circle cx="384.0" cy="295.9" r="4" fill="#9754dd" /><circle cx="390.9" cy="295.9" r="4" fill="#9754dd" /><circle cx="397.8" cy="295.9" r="4" fill="#9754dd" /><circle cx="404.7" cy="295.9" r="4" fill="#9754dd" /><circle cx="411.6" cy="295.9" r="4" fill="#9754dd" /><circle cx="418.5" cy="295.9" r="4" fill="#9754dd" /><circle cx="425.5" cy="295.9" r="4" fill="#9754dd" /><circle cx="432.4" cy="295.9" r="4" fill="#9754dd" /><circle cx="439.3" cy="295.9" r="4" fill="#9754dd" /><circle cx="446.2" cy="295.9" r="4" fill="#9754dd" /><circle cx="453.1" cy="295.9" r="4" fill="#9754dd" /><circle cx="460.0" cy="295.9" r="4" fill="#9754dd" /><circle cx="466.9" cy="295.9" r="4" fill="#9754dd" /><circle cx="473.8" cy="295.9" r="4" fill="#9754dd" /><circle cx="480.7" cy="295.8" r="4" fill="#9754dd" /><circle cx="487.6" cy="295.8" r="4" fill="#9754dd" /><circle cx="494.5" cy="295.9" r="4" fill="#9754dd" /><circle cx="501.5" cy="295.9" r="4" fill="#9754dd" /><circle cx="508.4" cy="295.9" r="4" fill="#9754dd" /><circle cx="515.3" cy="295.9" r="4" fill="#9754dd" /><circle cx="522.2" cy="295.9" r="4" fill="#9754dd" /><circle cx="529.1" cy="295.9" r="4" fill="#9754dd" /><circle cx="536.0" cy="295.9" r="4" fill="#9754dd" /><circle cx="542.9" cy="296.0" r="4" fill="#9754dd" /><circle cx="549.8" cy="296.4" r="4" fill="#9754dd" /><circle cx="556.7" cy="296.4" r="4" fill="#9754dd" /><circle cx="563.6" cy="296.4" r="4" fill="#9754dd" /><circle cx="570.5" cy="296.4" r="4" fill="#9754dd" /><circle cx="577.5" cy="296.4" r="4" fill="#9754dd" /><circle cx="584.4" cy="296.4" r="4" fill="#9754dd" /><circle cx="591.3" cy="296.4" r="4" fill="#9754dd" /><circle cx="598.2" cy="296.4" r="4" fill="#9754dd" /><circle cx="605.1" cy="296.4" r="4" fill="#9754dd" /><circle cx="612.0" cy="296.4" r="4" fill="#9754dd" /><circle cx="618.9" cy="296.5" r="4" fill="#9754dd" /><circle cx="625.8" cy="296.5" r="4" fill="#9754dd" /><circle cx="632.7" cy="296.5" r="4" fill="#9754dd" /><circle cx="639.6" cy="296.5" r="4" fill="#9754dd" /><circle cx="646.5" cy="296.5" r="4" fill="#9754dd" /><circle cx="653.5" cy="296.5" r="4" fill="#9754dd" /><circle cx="660.4" cy="296.5" r="4" fill="#9754dd" /><circle cx="667.3" cy="296.5" r="4" fill="#9754dd" /><circle cx="674.2" cy="296.5" r="4" fill="#9754dd" /><circle cx="681.1" cy="296.5" r="4" fill="#9754dd" /><circle cx="688.0" cy="296.5" r="4" fill="#9754dd" /><circle cx="694.9" cy="296.5" r="4" fill="#9754dd" /><circle cx="701.8" cy="296.5" r="4" fill="#9754dd" /><circle cx="708.7" cy="296.5" r="4" fill="#9754dd" /><circle cx="715.6" cy="296.5" r="4" fill="#9754dd" /><circle cx="722.5" cy="296.5" r="4" fill="#9754dd" /><circle cx="729.5" cy="296.5" r="4" fill="#9754dd" /><circle cx="736.4" cy="296.5" r="4" fill="#9754dd" /><circle cx="743.3" cy="296.5" r="4" fill="#9754dd" /><circle cx="750.2" cy="296.5" r="4" fill="#9754dd" /><circle cx="757.1" cy="296.5" r="4" fill="#9754dd" /><circle cx="764.0" cy="296.5" r="4" fill="#9754dd" /><circle cx="770.9" cy="296.5" r="4" fill="#9754dd" /><circle cx="777.8" cy="296.5" r="4" fill="#9754dd" /><circle cx="784.7" cy="296.5" r="4" fill="#9754dd" /><circle cx="791.6" cy="295.0" r="4" fill="#9754dd" /><circle cx="798.5" cy="295.0" r="4" fill="#9754dd" /><circle cx="805.5" cy="295.0" r="4" fill="#9754dd" /><circle cx="812.4" cy="295.1" r="4" fill="#9754dd" /><circle cx="819.3" cy="295.1" r="4" fill="#9754dd" /><circle cx="826.2" cy="295.1" r="4" fill="#9754dd" /><circle cx="833.1" cy="295.1" r="4" fill="#9754dd" /><circle cx="840.0" cy="295.1" r="4" fill="#9754dd" />
  <rect x="80" y="339" width="10" height="10" rx="2" ry="2" fill="#19e5a1" /><text x="96" y="348" class="legend-label">Stars</text><rect x="250" y="339" width="10" height="10" rx="2" ry="2" fill="#6eb6ec" /><text x="266" y="348" class="legend-label">Followers</text><rect x="420" y="339" width="10" height="10" rx="2" ry="2" fill="#5938e2" /><text x="436" y="348" class="legend-label">Following</text><rect x="590" y="339" width="10" height="10" rx="2" ry="2" fill="#60e5e0" /><text x="606" y="348" class="legend-label">Contributions</text><rect x="80" y="357" width="10" height="10" rx="2" ry="2" fill="#567de1" /><text x="96" y="366" class="legend-label">Pull Requests</text><rect x="250" y="357" width="10" height="10" rx="2" ry="2" fill="#9754dd" /><text x="266" y="366" class="legend-label">Issues</text>
</svg>
