<svg width="900" height="402" viewBox="0 0 900 402" xmlns="http://www.w3.org/2000/svg">
  <defs>
    <linearGradient id="history-gradient" x1="0%" y1="0%" x2="100%" y2="100%">
      <stop offset="0%" style="stop-color:#58a6ff;stop-opacity:1" />
      <stop offset="100%" style="stop-color:#a371f7;stop-opacity:1" />
    </linearGradient>
    <clipPath id="history-rounded">
      <rect x="0" y="0" width="900" height="402" rx="8" ry="8" />
    </clipPath>
  </defs>
  <style>
    .title {
      font-family: 'Segoe UI', Ubuntu, 'Helvetica Neue', sans-serif;
      font-size: 22px;
      font-weight: 700;
      fill: #58a6ff;
    }
    .subtitle {
      font-family: 'Segoe UI', Ubuntu, 'Helvetica Neue', sans-serif;
      font-size: 12px;
      font-weight: 500;
      fill: #8b949e;
    }
    .axis-label {
      font-family: 'Segoe UI', Ubuntu, 'Helvetica Neue', sans-serif;
      font-size: 10px;
      fill: #8b949e;
    }
    .grid-line {
      stroke: #30363d;
      stroke-width: 1;
      opacity: 0.3;
    }
    .legend-label {
      font-family: 'Segoe UI', Ubuntu, 'Helvetica Neue', sans-serif;
      font-size: 11px;
      fill: #c9d1d9;
      dominant-baseline: middle;
    }
  </style>
  <rect clip-path="url(#history-rounded)" width="100%" height="100%" fill="#0d1117" stroke="#30363d" stroke-width="1" />
  <rect x="0" y="396" width="900" height="6" fill="url(#history-gradient)" clip-path="url(#history-rounded)" />
  <text x="24" y="34" class="title">Leonardo Klein Stats History</text>
  <text x="24" y="54" class="subtitle">Period: 2026-02-20 to 2026-03-03</text>
  <text x="72" y="320.0" text-anchor="end" dominant-baseline="central" class="axis-label">0</text><text x="72" y="270.0" text-anchor="end" dominant-baseline="central" class="axis-label">400</text><text x="72" y="220.0" text-anchor="end" dominant-baseline="central" class="axis-label">800</text><text x="72" y="170.0" text-anchor="end" dominant-baseline="central" class="axis-label">1.2k</text><text x="72" y="120.0" text-anchor="end" dominant-baseline="central" class="axis-label">1.6k</text><text x="72" y="70.0" text-anchor="end" dominant-baseline="central" class="axis-label">2.0k</text>
  <text x="80.0" y="336" text-anchor="middle" class="axis-label">02-20</text><text x="146.7" y="336" text-anchor="middle" class="axis-label">02-21</text><text x="213.3" y="336" text-anchor="middle" class="axis-label">02-22</text><text x="280.0" y="336" text-anchor="middle" class="axis-label">02-23</text><text x="346.7" y="336" text-anchor="middle" class="axis-label">02-24</text><text x="413.3" y="336" text-anchor="middle" class="axis-label">02-25</text><text x="480.0" y="336" text-anchor="middle" class="axis-label">02-26</text><text x="546.7" y="336" text-anchor="middle" class="axis-label">02-27</text><text x="613.3" y="336" text-anchor="middle" class="axis-label">02-28</text><text x="680.0" y="336" text-anchor="middle" class="axis-label">03-01</text><text x="746.7" y="336" text-anchor="middle" class="axis-label">03-02</text><text x="813.3" y="336" text-anchor="middle" class="axis-label">03-03</text><text x="840.0" y="336" text-anchor="middle" class="axis-label">03-03</text>
  <line x1="80" y1="320.0" x2="840" y2="320.0" class="grid-line" /><line x1="80" y1="270.0" x2="840" y2="270.0" class="grid-line" /><line x1="80" y1="220.0" x2="840" y2="220.0" class="grid-line" /><line x1="80" y1="170.0" x2="840" y2="170.0" class="grid-line" /><line x1="80" y1="120.0" x2="840" y2="120.0" class="grid-line" /><line x1="80" y1="70.0" x2="840" y2="70.0" class="grid-line" />
  <polyline points="80.0,317.0 93.3,317.0 106.7,317.0 120.0,317.0 133.3,317.0 146.7,317.0 160.0,317.0 173.3,317.0 186.7,317.0 200.0,317.0 213.3,317.0 226.7,317.0 240.0,317.0 253.3,317.0 266.7,317.0 280.0,317.0 293.3,317.0 306.7,317.0 320.0,317.0 333.3,317.0 346.7,317.0 360.0,317.0 373.3,317.0 386.7,317.0 400.0,317.0 413.3,317.0 426.7,317.0 440.0,317.0 453.3,317.0 466.7,317.0 480.0,317.0 493.3,317.0 506.7,317.0 520.0,317.0 533.3,317.0 546.7,317.0 560.0,317.0 573.3,317.0 586.7,317.0 600.0,317.0 613.3,317.0 626.7,317.0 640.0,317.0 653.3,317.0 666.7,317.0 680.0,317.0 693.3,317.0 706.7,317.0 720.0,317.0 733.3,317.0 746.7,317.0 760.0,317.0 773.3,317.0 786.7,317.0 800.0,317.0 813.3,317.0 826.7,317.0 840.0,317.0" fill="none" stroke="#19e5a1" stroke-width="2.5" stroke-linecap="round" stroke-linejoin="round" /><circle cx="80.0" cy="317.0" r="4" fill="#19e5a1" /><circle cx="93.3" cy="317.0" r="4" fill="#19e5a1" /><circle cx="106.7" cy="317.0" r="4" fill="#19e5a1" /><circle cx="120.0" cy="317.0" r="4" fill="#19e5a1" /><circle cx="133.3" cy="317.0" r="4" fill="#19e5a1" /><circle cx="146.7" cy="317.0" r="4" fill="#19e5a1" /><circle cx="160.0" cy="317.0" r="4" fill="#19e5a1" /><circle cx="173.3" cy="317.0" r="4" fill="#19e5a1" /><circle cx="186.7" cy="317.0" r="4" fill="#19e5a1" /><circle cx="200.0" cy="317.0" r="4" fill="#19e5a1" /><circle cx="213.3" cy="317.0" r="4" fill="#19e5a1" /><circle cx="226.7" cy="317.0" r="4" fill="#19e5a1" /><circle cx="240.0" cy="317.0" r="4" fill="#19e5a1" /><circle cx="253.3" cy="317.0" r="4" fill="#19e5a1" /><circle cx="266.7" cy="317.0" r="4" fill="#19e5a1" /><circle cx="280.0" cy="317.0" r="4" fill="#19e5a1" /><circle cx="293.3" cy="317.0" r="4" fill="#19e5a1" /><circle cx="306.7" cy="317.0" r="4" fill="#19e5a1" /><circle cx="320.0" cy="317.0" r="4" fill="#19e5a1" /><circle cx="333.3" cy="317.0" r="4" fill="#19e5a1" /><circle cx="346.7" cy="317.0" r="4" fill="#19e5a1" /><circle cx="360.0" cy="317.0" r="4" fill="#19e5a1" /><circle cx="373.3" cy="317.0" r="4" fill="#19e5a1" /><circle cx="386.7" cy="317.0" r="4" fill="#19e5a1" /><circle cx="400.0" cy="317.0" r="4" fill="#19e5a1" /><circle cx="413.3" cy="317.0" r="4" fill="#19e5a1" /><circle cx="426.7" cy="317.0" r="4" fill="#19e5a1" /><circle cx="440.0" cy="317.0" r="4" fill="#19e5a1" /><circle cx="453.3" cy="317.0" r="4" fill="#19e5a1" /><circle cx="466.7" cy="317.0" r="4" fill="#19e5a1" /><circle cx="480.0" cy="317.0" r="4" fill="#19e5a1" /><circle cx="493.3" cy="317.0" r="4" fill="#19e5a1" /><circle cx="506.7" cy="317.0" r="4" fill="#19e5a1" /><circle cx="520.0" cy="317.0" r="4" fill="#19e5a1" /><circle cx="533.3" cy="317.0" r="4" fill="#19e5a1" /><circle cx="546.7" cy="317.0" r="4" fill="#19e5a1" /><circle cx="560.0" cy="317.0" r="4" fill="#19e5a1" /><circle cx="573.3" cy="317.0" r="4" fill="#19e5a1" /><circle cx="586.7" cy="317.0" r="4" fill="#19e5a1" /><circle cx="600.0" cy="317.0" r="4" fill="#19e5a1" /><circle cx="613.3" cy="317.0" r="4" fill="#19e5a1" /><circle cx="626.7" cy="317.0" r="4" fill="#19e5a1" /><circle cx="640.0" cy="317.0" r="4" fill="#19e5a1" /><circle cx="653.3" cy="317.0" r="4" fill="#19e5a1" /><circle cx="666.7" cy="317.0" r="4" fill="#19e5a1" /><circle cx="680.0" cy="317.0" r="4" fill="#19e5a1" /><circle cx="693.3" cy="317.0" r="4" fill="#19e5a1" /><circle cx="706.7" cy="317.0" r="4" fill="#19e5a1" /><circle cx="720.0" cy="317.0" r="4" fill="#19e5a1" /><circle cx="733.3" cy="317.0" r="4" fill="#19e5a1" /><circle cx="746.7" cy="317.0" r="4" fill="#19e5a1" /><circle cx="760.0" cy="317.0" r="4" fill="#19e5a1" /><circle cx="773.3" cy="317.0" r="4" fill="#19e5a1" /><circle cx="786.7" cy="317.0" r="4" fill="#19e5a1" /><circle cx="800.0" cy="317.0" r="4" fill="#19e5a1" /><circle cx="813.3" cy="317.0" r="4" fill="#19e5a1" /><circle cx="826.7" cy="317.0" r="4" fill="#19e5a1" /><circle cx="840.0" cy="317.0" r="4" fill="#19e5a1" /><polyline points="80.0,313.2 93.3,312.2 106.7,312.1 120.0,312.4 133.3,312.4 146.7,312.4 160.0,312.1 173.3,312.0 186.7,311.9 200.0,311.9 213.3,311.8 226.7,311.8 240.0,311.5 253.3,311.5 266.7,311.5 280.0,311.2 293.3,311.2 306.7,311.1 320.0,311.1 333.3,311.1 346.7,310.9 360.0,311.0 373.3,310.8 386.7,310.8 400.0,310.8 413.3,310.8 426.7,310.4 440.0,310.2 453.3,310.4 466.7,310.4 480.0,310.4 493.3,310.4 506.7,310.4 520.0,310.2 533.3,310.2 546.7,310.1 560.0,310.1 573.3,309.8 586.7,309.6 600.0,309.6 613.3,309.6 626.7,309.6 640.0,309.5 653.3,309.4 666.7,309.4 680.0,309.4 693.3,309.4 706.7,309.2 720.0,309.2 733.3,309.2 746.7,309.4 760.0,309.4 773.3,309.5 786.7,309.2 800.0,309.2 813.3,309.4 826.7,309.2 840.0,309.2" fill="none" stroke="#6eb6ec" stroke-width="2.5" stroke-linecap="round" stroke-linejoin="round" /><circle cx="80.0" cy="313.2" r="4" fill="#6eb6ec" /><circle cx="93.3" cy="312.2" r="4" fill="#6eb6ec" /><circle cx="106.7" cy="312.1" r="4" fill="#6eb6ec" /><circle cx="120.0" cy="312.4" r="4" fill="#6eb6ec" /><circle cx="133.3" cy="312.4" r="4" fill="#6eb6ec" /><circle cx="146.7" cy="312.4" r="4" fill="#6eb6ec" /><circle cx="160.0" cy="312.1" r="4" fill="#6eb6ec" /><circle cx="173.3" cy="312.0" r="4" fill="#6eb6ec" /><circle cx="186.7" cy="311.9" r="4" fill="#6eb6ec" /><circle cx="200.0" cy="311.9" r="4" fill="#6eb6ec" /><circle cx="213.3" cy="311.8" r="4" fill="#6eb6ec" /><circle cx="226.7" cy="311.8" r="4" fill="#6eb6ec" /><circle cx="240.0" cy="311.5" r="4" fill="#6eb6ec" /><circle cx="253.3" cy="311.5" r="4" fill="#6eb6ec" /><circle cx="266.7" cy="311.5" r="4" fill="#6eb6ec" /><circle cx="280.0" cy="311.2" r="4" fill="#6eb6ec" /><circle cx="293.3" cy="311.2" r="4" fill="#6eb6ec" /><circle cx="306.7" cy="311.1" r="4" fill="#6eb6ec" /><circle cx="320.0" cy="311.1" r="4" fill="#6eb6ec" /><circle cx="333.3" cy="311.1" r="4" fill="#6eb6ec" /><circle cx="346.7" cy="310.9" r="4" fill="#6eb6ec" /><circle cx="360.0" cy="311.0" r="4" fill="#6eb6ec" /><circle cx="373.3" cy="310.8" r="4" fill="#6eb6ec" /><circle cx="386.7" cy="310.8" r="4" fill="#6eb6ec" /><circle cx="400.0" cy="310.8" r="4" fill="#6eb6ec" /><circle cx="413.3" cy="310.8" r="4" fill="#6eb6ec" /><circle cx="426.7" cy="310.4" r="4" fill="#6eb6ec" /><circle cx="440.0" cy="310.2" r="4" fill="#6eb6ec" /><circle cx="453.3" cy="310.4" r="4" fill="#6eb6ec" /><circle cx="466.7" cy="310.4" r="4" fill="#6eb6ec" /><circle cx="480.0" cy="310.4" r="4" fill="#6eb6ec" /><circle cx="493.3" cy="310.4" r="4" fill="#6eb6ec" /><circle cx="506.7" cy="310.4" r="4" fill="#6eb6ec" /><circle cx="520.0" cy="310.2" r="4" fill="#6eb6ec" /><circle cx="533.3" cy="310.2" r="4" fill="#6eb6ec" /><circle cx="546.7" cy="310.1" r="4" fill="#6eb6ec" /><circle cx="560.0" cy="310.1" r="4" fill="#6eb6ec" /><circle cx="573.3" cy="309.8" r="4" fill="#6eb6ec" /><circle cx="586.7" cy="309.6" r="4" fill="#6eb6ec" /><circle cx="600.0" cy="309.6" r="4" fill="#6eb6ec" /><circle cx="613.3" cy="309.6" r="4" fill="#6eb6ec" /><circle cx="626.7" cy="309.6" r="4" fill="#6eb6ec" /><circle cx="640.0" cy="309.5" r="4" fill="#6eb6ec" /><circle cx="653.3" cy="309.4" r="4" fill="#6eb6ec" /><circle cx="666.7" cy="309.4" r="4" fill="#6eb6ec" /><circle cx="680.0" cy="309.4" r="4" fill="#6eb6ec" /><circle cx="693.3" cy="309.4" r="4" fill="#6eb6ec" /><circle cx="706.7" cy="309.2" r="4" fill="#6eb6ec" /><circle cx="720.0" cy="309.2" r="4" fill="#6eb6ec" /><circle cx="733.3" cy="309.2" r="4" fill="#6eb6ec" /><circle cx="746.7" cy="309.4" r="4" fill="#6eb6ec" /><circle cx="760.0" cy="309.4" r="4" fill="#6eb6ec" /><circle cx="773.3" cy="309.5" r="4" fill="#6eb6ec" /><circle cx="786.7" cy="309.2" r="4" fill="#6eb6ec" /><circle cx="800.0" cy="309.2" r="4" fill="#6eb6ec" /><circle cx="813.3" cy="309.4" r="4" fill="#6eb6ec" /><circle cx="826.7" cy="309.2" r="4" fill="#6eb6ec" /><circle cx="840.0" cy="309.2" r="4" fill="#6eb6ec" /><polyline points="80.0,305.8 93.3,305.8 106.7,305.8 120.0,305.8 133.3,305.8 146.7,305.8 160.0,305.8 173.3,305.8 186.7,305.8 200.0,305.8 213.3,304.9 226.7,304.9 240.0,304.9 253.3,304.9 266.7,304.9 280.0,304.9 293.3,304.9 306.7,304.9 320.0,304.9 333.3,304.9 346.7,304.9 360.0,304.9 373.3,304.9 386.7,304.9 400.0,304.9 413.3,304.9 426.7,304.9 440.0,304.9 453.3,304.9 466.7,304.9 480.0,304.9 493.3,304.9 506.7,304.9 520.0,304.9 533.3,304.9 546.7,304.9 560.0,304.9 573.3,303.6 586.7,303.6 600.0,303.6 613.3,303.6 626.7,303.6 640.0,303.6 653.3,303.6 666.7,303.6 680.0,303.6 693.3,303.6 706.7,303.6 720.0,303.6 733.3,303.6 746.7,303.6 760.0,302.9 773.3,302.9 786.7,298.0 800.0,298.0 813.3,298.0 826.7,298.0 840.0,298.0" fill="none" stroke="#5938e2" stroke-width="2.5" stroke-linecap="round" stroke-linejoin="round" /><circle cx="80.0" cy="305.8" r="4" fill="#5938e2" /><circle cx="93.3" cy="305.8" r="4" fill="#5938e2" /><circle cx="106.7" cy="305.8" r="4" fill="#5938e2" /><circle cx="120.0" cy="305.8" r="4" fill="#5938e2" /><circle cx="133.3" cy="305.8" r="4" fill="#5938e2" /><circle cx="146.7" cy="305.8" r="4" fill="#5938e2" /><circle cx="160.0" cy="305.8" r="4" fill="#5938e2" /><circle cx="173.3" cy="305.8" r="4" fill="#5938e2" /><circle cx="186.7" cy="305.8" r="4" fill="#5938e2" /><circle cx="200.0" cy="305.8" r="4" fill="#5938e2" /><circle cx="213.3" cy="304.9" r="4" fill="#5938e2" /><circle cx="226.7" cy="304.9" r="4" fill="#5938e2" /><circle cx="240.0" cy="304.9" r="4" fill="#5938e2" /><circle cx="253.3" cy="304.9" r="4" fill="#5938e2" /><circle cx="266.7" cy="304.9" r="4" fill="#5938e2" /><circle cx="280.0" cy="304.9" r="4" fill="#5938e2" /><circle cx="293.3" cy="304.9" r="4" fill="#5938e2" /><circle cx="306.7" cy="304.9" r="4" fill="#5938e2" /><circle cx="320.0" cy="304.9" r="4" fill="#5938e2" /><circle cx="333.3" cy="304.9" r="4" fill="#5938e2" /><circle cx="346.7" cy="304.9" r="4" fill="#5938e2" /><circle cx="360.0" cy="304.9" r="4" fill="#5938e2" /><circle cx="373.3" cy="304.9" r="4" fill="#5938e2" /><circle cx="386.7" cy="304.9" r="4" fill="#5938e2" /><circle cx="400.0" cy="304.9" r="4" fill="#5938e2" /><circle cx="413.3" cy="304.9" r="4" fill="#5938e2" /><circle cx="426.7" cy="304.9" r="4" fill="#5938e2" /><circle cx="440.0" cy="304.9" r="4" fill="#5938e2" /><circle cx="453.3" cy="304.9" r="4" fill="#5938e2" /><circle cx="466.7" cy="304.9" r="4" fill="#5938e2" /><circle cx="480.0" cy="304.9" r="4" fill="#5938e2" /><circle cx="493.3" cy="304.9" r="4" fill="#5938e2" /><circle cx="506.7" cy="304.9" r="4" fill="#5938e2" /><circle cx="520.0" cy="304.9" r="4" fill="#5938e2" /><circle cx="533.3" cy="304.9" r="4" fill="#5938e2" /><circle cx="546.7" cy="304.9" r="4" fill="#5938e2" /><circle cx="560.0" cy="304.9" r="4" fill="#5938e2" /><circle cx="573.3" cy="303.6" r="4" fill="#5938e2" /><circle cx="586.7" cy="303.6" r="4" fill="#5938e2" /><circle cx="600.0" cy="303.6" r="4" fill="#5938e2" /><circle cx="613.3" cy="303.6" r="4" fill="#5938e2" /><circle cx="626.7" cy="303.6" r="4" fill="#5938e2" /><circle cx="640.0" cy="303.6" r="4" fill="#5938e2" /><circle cx="653.3" cy="303.6" r="4" fill="#5938e2" /><circle cx="666.7" cy="303.6" r="4" fill="#5938e2" /><circle cx="680.0" cy="303.6" r="4" fill="#5938e2" /><circle cx="693.3" cy="303.6" r="4" fill="#5938e2" /><circle cx="706.7" cy="303.6" r="4" fill="#5938e2" /><circle cx="720.0" cy="303.6" r="4" fill="#5938e2" /><circle cx="733.3" cy="303.6" r="4" fill="#5938e2" /><circle cx="746.7" cy="303.6" r="4" fill="#5938e2" /><circle cx="760.0" cy="302.9" r="4" fill="#5938e2" /><circle cx="773.3" cy="302.9" r="4" fill="#5938e2" /><circle cx="786.7" cy="298.0" r="4" fill="#5938e2" /><circle cx="800.0" cy="298.0" r="4" fill="#5938e2" /><circle cx="813.3" cy="298.0" r="4" fill="#5938e2" /><circle cx="826.7" cy="298.0" r="4" fill="#5938e2" /><circle cx="840.0" cy="298.0" r="4" fill="#5938e2" /><polyline points="80.0,144.6 93.3,140.1 106.7,139.9 120.0,139.8 133.3,139.8 146.7,139.6 160.0,139.6 173.3,139.6 186.7,139.6 200.0,139.6 213.3,138.4 226.7,138.4 240.0,138.4 253.3,138.4 266.7,138.4 280.0,138.4 293.3,138.4 306.7,137.4 320.0,137.4 333.3,137.4 346.7,137.4 360.0,137.4 373.3,137.4 386.7,137.4 400.0,137.4 413.3,137.4 426.7,137.4 440.0,137.4 453.3,131.2 466.7,131.2 480.0,130.8 493.3,130.4 506.7,126.9 520.0,126.9 533.3,126.9 546.7,126.9 560.0,126.9 573.3,126.9 586.7,126.9 600.0,126.9 613.3,126.9 626.7,126.8 640.0,122.1 653.3,120.4 666.7,120.4 680.0,120.4 693.3,120.4 706.7,120.4 720.0,119.4 733.3,119.4 746.7,119.4 760.0,119.4 773.3,119.1 786.7,118.8 800.0,118.8 813.3,117.8 826.7,117.8 840.0,117.8" fill="none" stroke="#60e5e0" stroke-width="2.5" stroke-linecap="round" stroke-linejoin="round" /><circle cx="80.0" cy="144.6" r="4" fill="#60e5e0" /><circle cx="93.3" cy="140.1" r="4" fill="#60e5e0" /><circle cx="106.7" cy="139.9" r="4" fill="#60e5e0" /><circle cx="120.0" cy="139.8" r="4" fill="#60e5e0" /><circle cx="133.3" cy="139.8" r="4" fill="#60e5e0" /><circle cx="146.7" cy="139.6" r="4" fill="#60e5e0" /><circle cx="160.0" cy="139.6" r="4" fill="#60e5e0" /><circle cx="173.3" cy="139.6" r="4" fill="#60e5e0" /><circle cx="186.7" cy="139.6" r="4" fill="#60e5e0" /><circle cx="200.0" cy="139.6" r="4" fill="#60e5e0" /><circle cx="213.3" cy="138.4" r="4" fill="#60e5e0" /><circle cx="226.7" cy="138.4" r="4" fill="#60e5e0" /><circle cx="240.0" cy="138.4" r="4" fill="#60e5e0" /><circle cx="253.3" cy="138.4" r="4" fill="#60e5e0" /><circle cx="266.7" cy="138.4" r="4" fill="#60e5e0" /><circle cx="280.0" cy="138.4" r="4" fill="#60e5e0" /><circle cx="293.3" cy="138.4" r="4" fill="#60e5e0" /><circle cx="306.7" cy="137.4" r="4" fill="#60e5e0" /><circle cx="320.0" cy="137.4" r="4" fill="#60e5e0" /><circle cx="333.3" cy="137.4" r="4" fill="#60e5e0" /><circle cx="346.7" cy="137.4" r="4" fill="#60e5e0" /><circle cx="360.0" cy="137.4" r="4" fill="#60e5e0" /><circle cx="373.3" cy="137.4" r="4" fill="#60e5e0" /><circle cx="386.7" cy="137.4" r="4" fill="#60e5e0" /><circle cx="400.0" cy="137.4" r="4" fill="#60e5e0" /><circle cx="413.3" cy="137.4" r="4" fill="#60e5e0" /><circle cx="426.7" cy="137.4" r="4" fill="#60e5e0" /><circle cx="440.0" cy="137.4" r="4" fill="#60e5e0" /><circle cx="453.3" cy="131.2" r="4" fill="#60e5e0" /><circle cx="466.7" cy="131.2" r="4" fill="#60e5e0" /><circle cx="480.0" cy="130.8" r="4" fill="#60e5e0" /><circle cx="493.3" cy="130.4" r="4" fill="#60e5e0" /><circle cx="506.7" cy="126.9" r="4" fill="#60e5e0" /><circle cx="520.0" cy="126.9" r="4" fill="#60e5e0" /><circle cx="533.3" cy="126.9" r="4" fill="#60e5e0" /><circle cx="546.7" cy="126.9" r="4" fill="#60e5e0" /><circle cx="560.0" cy="126.9" r="4" fill="#60e5e0" /><circle cx="573.3" cy="126.9" r="4" fill="#60e5e0" /><circle cx="586.7" cy="126.9" r="4" fill="#60e5e0" /><circle cx="600.0" cy="126.9" r="4" fill="#60e5e0" /><circle cx="613.3" cy="126.9" r="4" fill="#60e5e0" /><circle cx="626.7" cy="126.8" r="4" fill="#60e5e0" /><circle cx="640.0" cy="122.1" r="4" fill="#60e5e0" /><circle cx="653.3" cy="120.4" r="4" fill="#60e5e0" /><circle cx="666.7" cy="120.4" r="4" fill="#60e5e0" /><circle cx="680.0" cy="120.4" r="4" fill="#60e5e0" /><circle cx="693.3" cy="120.4" r="4" fill="#60e5e0" /><circle cx="706.7" cy="120.4" r="4" fill="#60e5e0" /><circle cx="720.0" cy="119.4" r="4" fill="#60e5e0" /><circle cx="733.3" cy="119.4" r="4" fill="#60e5e0" /><circle cx="746.7" cy="119.4" r="4" fill="#60e5e0" /><circle cx="760.0" cy="119.4" r="4" fill="#60e5e0" /><circle cx="773.3" cy="119.1" r="4" fill="#60e5e0" /><circle cx="786.7" cy="118.8" r="4" fill="#60e5e0" /><circle cx="800.0" cy="118.8" r="4" fill="#60e5e0" /><circle cx="813.3" cy="117.8" r="4" fill="#60e5e0" /><circle cx="826.7" cy="117.8" r="4" fill="#60e5e0" /><circle cx="840.0" cy="117.8" r="4" fill="#60e5e0" /><polyline points="80.0,314.6 93.3,314.4 106.7,314.2 120.0,314.2 133.3,314.2 146.7,314.1 160.0,314.1 173.3,314.1 186.7,314.1 200.0,314.1 213.3,314.0 226.7,314.0 240.0,314.0 253.3,314.0 266.7,314.0 280.0,314.0 293.3,314.0 306.7,314.0 320.0,314.0 333.3,314.0 346.7,314.0 360.0,314.0 373.3,314.0 386.7,314.0 400.0,314.0 413.3,314.0 426.7,314.0 440.0,314.0 453.3,314.0 466.7,314.0 480.0,314.0 493.3,314.0 506.7,314.0 520.0,314.0 533.3,314.0 546.7,314.0 560.0,314.0 573.3,314.0 586.7,314.0 600.0,314.0 613.3,314.0 626.7,313.9 640.0,313.6 653.3,313.4 666.7,313.4 680.0,313.4 693.3,313.4 706.7,313.4 720.0,313.1 733.3,313.1 746.7,313.1 760.0,313.1 773.3,313.1 786.7,313.0 800.0,313.0 813.3,312.9 826.7,312.9 840.0,312.9" fill="none" stroke="#567de1" stroke-width="2.5" stroke-linecap="round" stroke-linejoin="round" /><circle cx="80.0" cy="314.6" r="4" fill="#567de1" /><circle cx="93.3" cy="314.4" r="4" fill="#567de1" /><circle cx="106.7" cy="314.2" r="4" fill="#567de1" /><circle cx="120.0" cy="314.2" r="4" fill="#567de1" /><circle cx="133.3" cy="314.2" r="4" fill="#567de1" /><circle cx="146.7" cy="314.1" r="4" fill="#567de1" /><circle cx="160.0" cy="314.1" r="4" fill="#567de1" /><circle cx="173.3" cy="314.1" r="4" fill="#567de1" /><circle cx="186.7" cy="314.1" r="4" fill="#567de1" /><circle cx="200.0" cy="314.1" r="4" fill="#567de1" /><circle cx="213.3" cy="314.0" r="4" fill="#567de1" /><circle cx="226.7" cy="314.0" r="4" fill="#567de1" /><circle cx="240.0" cy="314.0" r="4" fill="#567de1" /><circle cx="253.3" cy="314.0" r="4" fill="#567de1" /><circle cx="266.7" cy="314.0" r="4" fill="#567de1" /><circle cx="280.0" cy="314.0" r="4" fill="#567de1" /><circle cx="293.3" cy="314.0" r="4" fill="#567de1" /><circle cx="306.7" cy="314.0" r="4" fill="#567de1" /><circle cx="320.0" cy="314.0" r="4" fill="#567de1" /><circle cx="333.3" cy="314.0" r="4" fill="#567de1" /><circle cx="346.7" cy="314.0" r="4" fill="#567de1" /><circle cx="360.0" cy="314.0" r="4" fill="#567de1" /><circle cx="373.3" cy="314.0" r="4" fill="#567de1" /><circle cx="386.7" cy="314.0" r="4" fill="#567de1" /><circle cx="400.0" cy="314.0" r="4" fill="#567de1" /><circle cx="413.3" cy="314.0" r="4" fill="#567de1" /><circle cx="426.7" cy="314.0" r="4" fill="#567de1" /><circle cx="440.0" cy="314.0" r="4" fill="#567de1" /><circle cx="453.3" cy="314.0" r="4" fill="#567de1" /><circle cx="466.7" cy="314.0" r="4" fill="#567de1" /><circle cx="480.0" cy="314.0" r="4" fill="#567de1" /><circle cx="493.3" cy="314.0" r="4" fill="#567de1" /><circle cx="506.7" cy="314.0" r="4" fill="#567de1" /><circle cx="520.0" cy="314.0" r="4" fill="#567de1" /><circle cx="533.3" cy="314.0" r="4" fill="#567de1" /><circle cx="546.7" cy="314.0" r="4" fill="#567de1" /><circle cx="560.0" cy="314.0" r="4" fill="#567de1" /><circle cx="573.3" cy="314.0" r="4" fill="#567de1" /><circle cx="586.7" cy="314.0" r="4" fill="#567de1" /><circle cx="600.0" cy="314.0" r="4" fill="#567de1" /><circle cx="613.3" cy="314.0" r="4" fill="#567de1" /><circle cx="626.7" cy="313.9" r="4" fill="#567de1" /><circle cx="640.0" cy="313.6" r="4" fill="#567de1" /><circle cx="653.3" cy="313.4" r="4" fill="#567de1" /><circle cx="666.7" cy="313.4" r="4" fill="#567de1" /><circle cx="680.0" cy="313.4" r="4" fill="#567de1" /><circle cx="693.3" cy="313.4" r="4" fill="#567de1" /><circle cx="706.7" cy="313.4" r="4" fill="#567de1" /><circle cx="720.0" cy="313.1" r="4" fill="#567de1" /><circle cx="733.3" cy="313.1" r="4" fill="#567de1" /><circle cx="746.7" cy="313.1" r="4" fill="#567de1" /><circle cx="760.0" cy="313.1" r="4" fill="#567de1" /><circle cx="773.3" cy="313.1" r="4" fill="#567de1" /><circle cx="786.7" cy="313.0" r="4" fill="#567de1" /><circle cx="800.0" cy="313.0" r="4" fill="#567de1" /><circle cx="813.3" cy="312.9" r="4" fill="#567de1" /><circle cx="826.7" cy="312.9" r="4" fill="#567de1" /><circle cx="840.0" cy="312.9" r="4" fill="#567de1" /><polyline points="80.0,303.9 93.3,304.2 106.7,304.4 120.0,304.4 133.3,304.4 146.7,304.4 160.0,304.4 173.3,304.4 186.7,304.4 200.0,304.4 213.3,304.4 226.7,304.4 240.0,304.4 253.3,304.4 266.7,304.4 280.0,304.4 293.3,304.4 306.7,304.4 320.0,304.4 333.3,304.4 346.7,304.4 360.0,304.4 373.3,304.4 386.7,304.4 400.0,304.4 413.3,304.4 426.7,304.4 440.0,304.4 453.3,299.1 466.7,299.1 480.0,299.1 493.3,298.9 506.7,295.6 520.0,295.6 533.3,295.6 546.7,295.6 560.0,295.6 573.3,295.6 586.7,295.6 600.0,295.6 613.3,295.6 626.7,295.8 640.0,295.9 653.3,295.9 666.7,295.9 680.0,295.9 693.3,295.9 706.7,295.9 720.0,295.9 733.3,295.9 746.7,295.9 760.0,295.9 773.3,295.9 786.7,295.9 800.0,295.9 813.3,295.9 826.7,295.9 840.0,295.9" fill="none" stroke="#9754dd" stroke-width="2.5" stroke-linecap="round" stroke-linejoin="round" /><circle cx="80.0" cy="303.9" r="4" fill="#9754dd" /><circle cx="93.3" cy="304.2" r="4" fill="#9754dd" /><circle cx="106.7" cy="304.4" r="4" fill="#9754dd" /><circle cx="120.0" cy="304.4" r="4" fill="#9754dd" /><circle cx="133.3" cy="304.4" r="4" fill="#9754dd" /><circle cx="146.7" cy="304.4" r="4" fill="#9754dd" /><circle cx="160.0" cy="304.4" r="4" fill="#9754dd" /><circle cx="173.3" cy="304.4" r="4" fill="#9754dd" /><circle cx="186.7" cy="304.4" r="4" fill="#9754dd" /><circle cx="200.0" cy="304.4" r="4" fill="#9754dd" /><circle cx="213.3" cy="304.4" r="4" fill="#9754dd" /><circle cx="226.7" cy="304.4" r="4" fill="#9754dd" /><circle cx="240.0" cy="304.4" r="4" fill="#9754dd" /><circle cx="253.3" cy="304.4" r="4" fill="#9754dd" /><circle cx="266.7" cy="304.4" r="4" fill="#9754dd" /><circle cx="280.0" cy="304.4" r="4" fill="#9754dd" /><circle cx="293.3" cy="304.4" r="4" fill="#9754dd" /><circle cx="306.7" cy="304.4" r="4" fill="#9754dd" /><circle cx="320.0" cy="304.4" r="4" fill="#9754dd" /><circle cx="333.3" cy="304.4" r="4" fill="#9754dd" /><circle cx="346.7" cy="304.4" r="4" fill="#9754dd" /><circle cx="360.0" cy="304.4" r="4" fill="#9754dd" /><circle cx="373.3" cy="304.4" r="4" fill="#9754dd" /><circle cx="386.7" cy="304.4" r="4" fill="#9754dd" /><circle cx="400.0" cy="304.4" r="4" fill="#9754dd" /><circle cx="413.3" cy="304.4" r="4" fill="#9754dd" /><circle cx="426.7" cy="304.4" r="4" fill="#9754dd" /><circle cx="440.0" cy="304.4" r="4" fill="#9754dd" /><circle cx="453.3" cy="299.1" r="4" fill="#9754dd" /><circle cx="466.7" cy="299.1" r="4" fill="#9754dd" /><circle cx="480.0" cy="299.1" r="4" fill="#9754dd" /><circle cx="493.3" cy="298.9" r="4" fill="#9754dd" /><circle cx="506.7" cy="295.6" r="4" fill="#9754dd" /><circle cx="520.0" cy="295.6" r="4" fill="#9754dd" /><circle cx="533.3" cy="295.6" r="4" fill="#9754dd" /><circle cx="546.7" cy="295.6" r="4" fill="#9754dd" /><circle cx="560.0" cy="295.6" r="4" fill="#9754dd" /><circle cx="573.3" cy="295.6" r="4" fill="#9754dd" /><circle cx="586.7" cy="295.6" r="4" fill="#9754dd" /><circle cx="600.0" cy="295.6" r="4" fill="#9754dd" /><circle cx="613.3" cy="295.6" r="4" fill="#9754dd" /><circle cx="626.7" cy="295.8" r="4" fill="#9754dd" /><circle cx="640.0" cy="295.9" r="4" fill="#9754dd" /><circle cx="653.3" cy="295.9" r="4" fill="#9754dd" /><circle cx="666.7" cy="295.9" r="4" fill="#9754dd" /><circle cx="680.0" cy="295.9" r="4" fill="#9754dd" /><circle cx="693.3" cy="295.9" r="4" fill="#9754dd" /><circle cx="706.7" cy="295.9" r="4" fill="#9754dd" /><circle cx="720.0" cy="295.9" r="4" fill="#9754dd" /><circle cx="733.3" cy="295.9" r="4" fill="#9754dd" /><circle cx="746.7" cy="295.9" r="4" fill="#9754dd" /><circle cx="760.0" cy="295.9" r="4" fill="#9754dd" /><circle cx="773.3" cy="295.9" r="4" fill="#9754dd" /><circle cx="786.7" cy="295.9" r="4" fill="#9754dd" /><circle cx="800.0" cy="295.9" r="4" fill="#9754dd" /><circle cx="813.3" cy="295.9" r="4" fill="#9754dd" /><circle cx="826.7" cy="295.9" r="4" fill="#9754dd" /><circle cx="840.0" cy="295.9" r="4" fill="#9754dd" />
  <rect x="80" y="339" width="10" height="10" rx="2" ry="2" fill="#19e5a1" /><text x="96" y="348" class="legend-label">Stars</text><rect x="250" y="339" width="10" height="10" rx="2" ry="2" fill="#6eb6ec" /><text x="266" y="348" class="legend-label">Followers</text><rect x="420" y="339" width="10" height="10" rx="2" ry="2" fill="#5938e2" /><text x="436" y="348" class="legend-label">Following</text><rect x="590" y="339" width="10" height="10" rx="2" ry="2" fill="#60e5e0" /><text x="606" y="348" class="legend-label">Contributions</text><rect x="80" y="357" width="10" height="10" rx="2" ry="2" fill="#567de1" /><text x="96" y="366" class="legend-label">Pull Requests</text><rect x="250" y="357" width="10" height="10" rx="2" ry="2" fill="#9754dd" /><text x="266" y="366" class="legend-label">Issues</text>
</svg>
