<svg width="900" height="402" viewBox="0 0 900 402" xmlns="http://www.w3.org/2000/svg">
  <defs>
    <linearGradient id="history-gradient" x1="0%" y1="0%" x2="100%" y2="100%">
      <stop offset="0%" style="stop-color:#58a6ff;stop-opacity:1" />
      <stop offset="100%" style="stop-color:#a371f7;stop-opacity:1" />
    </linearGradient>
    <clipPath id="history-rounded">
      <rect x="0" y="0" width="900" height="402" rx="8" ry="8" />
    </clipPath>
  </defs>
  <style>
    .title {
      font-family: 'Segoe UI', Ubuntu, 'Helvetica Neue', sans-serif;
      font-size: 22px;
      font-weight: 700;
      fill: #58a6ff;
    }
    .subtitle {
      font-family: 'Segoe UI', Ubuntu, 'Helvetica Neue', sans-serif;
      font-size: 12px;
      font-weight: 500;
      fill: #8b949e;
    }
    .axis-label {
      font-family: 'Segoe UI', Ubuntu, 'Helvetica Neue', sans-serif;
      font-size: 10px;
      fill: #8b949e;
    }
    .grid-line {
      stroke: #30363d;
      stroke-width: 1;
      opacity: 0.3;
    }
    .legend-label {
      font-family: 'Segoe UI', Ubuntu, 'Helvetica Neue', sans-serif;
      font-size: 11px;
      fill: #c9d1d9;
      dominant-baseline: middle;
    }
  </style>
  <rect clip-path="url(#history-rounded)" width="100%" height="100%" fill="#0d1117" stroke="#30363d" stroke-width="1" />
  <rect x="0" y="396" width="900" height="6" fill="url(#history-gradient)" clip-path="url(#history-rounded)" />
  <text x="24" y="34" class="title">Leonardo Klein Stats History</text>
  <text x="24" y="54" class="subtitle">Period: 2026-02-20 to 2026-03-09</text>
  <text x="72" y="320.0" text-anchor="end" dominant-baseline="central" class="axis-label">0</text><text x="72" y="270.0" text-anchor="end" dominant-baseline="central" class="axis-label">400</text><text x="72" y="220.0" text-anchor="end" dominant-baseline="central" class="axis-label">800</text><text x="72" y="170.0" text-anchor="end" dominant-baseline="central" class="axis-label">1.2k</text><text x="72" y="120.0" text-anchor="end" dominant-baseline="central" class="axis-label">1.6k</text><text x="72" y="70.0" text-anchor="end" dominant-baseline="central" class="axis-label">2.0k</text>
  <text x="80.0" y="336" text-anchor="middle" class="axis-label">02-20</text><text x="153.3" y="336" text-anchor="middle" class="axis-label">02-22</text><text x="226.5" y="336" text-anchor="middle" class="axis-label">02-23</text><text x="299.8" y="336" text-anchor="middle" class="axis-label">02-25</text><text x="373.0" y="336" text-anchor="middle" class="axis-label">02-26</text><text x="446.3" y="336" text-anchor="middle" class="axis-label">02-28</text><text x="519.5" y="336" text-anchor="middle" class="axis-label">03-02</text><text x="592.8" y="336" text-anchor="middle" class="axis-label">03-03</text><text x="666.0" y="336" text-anchor="middle" class="axis-label">03-05</text><text x="739.3" y="336" text-anchor="middle" class="axis-label">03-06</text><text x="812.5" y="336" text-anchor="middle" class="axis-label">03-08</text><text x="840.0" y="336" text-anchor="middle" class="axis-label">03-09</text>
  <line x1="80" y1="320.0" x2="840" y2="320.0" class="grid-line" /><line x1="80" y1="270.0" x2="840" y2="270.0" class="grid-line" /><line x1="80" y1="220.0" x2="840" y2="220.0" class="grid-line" /><line x1="80" y1="170.0" x2="840" y2="170.0" class="grid-line" /><line x1="80" y1="120.0" x2="840" y2="120.0" class="grid-line" /><line x1="80" y1="70.0" x2="840" y2="70.0" class="grid-line" />
  <polyline points="80.0,317.0 89.2,317.0 98.3,317.0 107.5,317.0 116.6,317.0 125.8,317.0 134.9,317.0 144.1,317.0 153.3,317.0 162.4,317.0 171.6,317.0 180.7,317.0 189.9,317.0 199.0,317.0 208.2,317.0 217.3,317.0 226.5,317.0 235.7,317.0 244.8,317.0 254.0,317.0 263.1,317.0 272.3,317.0 281.4,317.0 290.6,317.0 299.8,317.0 308.9,317.0 318.1,317.0 327.2,317.0 336.4,317.0 345.5,317.0 354.7,317.0 363.9,317.0 373.0,317.0 382.2,317.0 391.3,317.0 400.5,317.0 409.6,317.0 418.8,317.0 428.0,317.0 437.1,317.0 446.3,317.0 455.4,317.0 464.6,317.0 473.7,317.0 482.9,317.0 492.0,317.0 501.2,317.0 510.4,317.0 519.5,317.0 528.7,317.0 537.8,317.0 547.0,317.0 556.1,317.0 565.3,317.0 574.5,317.0 583.6,317.0 592.8,317.0 601.9,317.0 611.1,317.0 620.2,317.0 629.4,317.0 638.6,317.0 647.7,317.0 656.9,317.0 666.0,317.0 675.2,317.0 684.3,317.0 693.5,317.0 702.7,317.0 711.8,317.0 721.0,317.0 730.1,317.0 739.3,317.0 748.4,317.0 757.6,317.0 766.7,317.0 775.9,317.0 785.1,317.0 794.2,317.0 803.4,317.0 812.5,317.0 821.7,317.0 830.8,317.0 840.0,317.0" fill="none" stroke="#19e5a1" stroke-width="2.5" stroke-linecap="round" stroke-linejoin="round" /><circle cx="80.0" cy="317.0" r="4" fill="#19e5a1" /><circle cx="89.2" cy="317.0" r="4" fill="#19e5a1" /><circle cx="98.3" cy="317.0" r="4" fill="#19e5a1" /><circle cx="107.5" cy="317.0" r="4" fill="#19e5a1" /><circle cx="116.6" cy="317.0" r="4" fill="#19e5a1" /><circle cx="125.8" cy="317.0" r="4" fill="#19e5a1" /><circle cx="134.9" cy="317.0" r="4" fill="#19e5a1" /><circle cx="144.1" cy="317.0" r="4" fill="#19e5a1" /><circle cx="153.3" cy="317.0" r="4" fill="#19e5a1" /><circle cx="162.4" cy="317.0" r="4" fill="#19e5a1" /><circle cx="171.6" cy="317.0" r="4" fill="#19e5a1" /><circle cx="180.7" cy="317.0" r="4" fill="#19e5a1" /><circle cx="189.9" cy="317.0" r="4" fill="#19e5a1" /><circle cx="199.0" cy="317.0" r="4" fill="#19e5a1" /><circle cx="208.2" cy="317.0" r="4" fill="#19e5a1" /><circle cx="217.3" cy="317.0" r="4" fill="#19e5a1" /><circle cx="226.5" cy="317.0" r="4" fill="#19e5a1" /><circle cx="235.7" cy="317.0" r="4" fill="#19e5a1" /><circle cx="244.8" cy="317.0" r="4" fill="#19e5a1" /><circle cx="254.0" cy="317.0" r="4" fill="#19e5a1" /><circle cx="263.1" cy="317.0" r="4" fill="#19e5a1" /><circle cx="272.3" cy="317.0" r="4" fill="#19e5a1" /><circle cx="281.4" cy="317.0" r="4" fill="#19e5a1" /><circle cx="290.6" cy="317.0" r="4" fill="#19e5a1" /><circle cx="299.8" cy="317.0" r="4" fill="#19e5a1" /><circle cx="308.9" cy="317.0" r="4" fill="#19e5a1" /><circle cx="318.1" cy="317.0" r="4" fill="#19e5a1" /><circle cx="327.2" cy="317.0" r="4" fill="#19e5a1" /><circle cx="336.4" cy="317.0" r="4" fill="#19e5a1" /><circle cx="345.5" cy="317.0" r="4" fill="#19e5a1" /><circle cx="354.7" cy="317.0" r="4" fill="#19e5a1" /><circle cx="363.9" cy="317.0" r="4" fill="#19e5a1" /><circle cx="373.0" cy="317.0" r="4" fill="#19e5a1" /><circle cx="382.2" cy="317.0" r="4" fill="#19e5a1" /><circle cx="391.3" cy="317.0" r="4" fill="#19e5a1" /><circle cx="400.5" cy="317.0" r="4" fill="#19e5a1" /><circle cx="409.6" cy="317.0" r="4" fill="#19e5a1" /><circle cx="418.8" cy="317.0" r="4" fill="#19e5a1" /><circle cx="428.0" cy="317.0" r="4" fill="#19e5a1" /><circle cx="437.1" cy="317.0" r="4" fill="#19e5a1" /><circle cx="446.3" cy="317.0" r="4" fill="#19e5a1" /><circle cx="455.4" cy="317.0" r="4" fill="#19e5a1" /><circle cx="464.6" cy="317.0" r="4" fill="#19e5a1" /><circle cx="473.7" cy="317.0" r="4" fill="#19e5a1" /><circle cx="482.9" cy="317.0" r="4" fill="#19e5a1" /><circle cx="492.0" cy="317.0" r="4" fill="#19e5a1" /><circle cx="501.2" cy="317.0" r="4" fill="#19e5a1" /><circle cx="510.4" cy="317.0" r="4" fill="#19e5a1" /><circle cx="519.5" cy="317.0" r="4" fill="#19e5a1" /><circle cx="528.7" cy="317.0" r="4" fill="#19e5a1" /><circle cx="537.8" cy="317.0" r="4" fill="#19e5a1" /><circle cx="547.0" cy="317.0" r="4" fill="#19e5a1" /><circle cx="556.1" cy="317.0" r="4" fill="#19e5a1" /><circle cx="565.3" cy="317.0" r="4" fill="#19e5a1" /><circle cx="574.5" cy="317.0" r="4" fill="#19e5a1" /><circle cx="583.6" cy="317.0" r="4" fill="#19e5a1" /><circle cx="592.8" cy="317.0" r="4" fill="#19e5a1" /><circle cx="601.9" cy="317.0" r="4" fill="#19e5a1" /><circle cx="611.1" cy="317.0" r="4" fill="#19e5a1" /><circle cx="620.2" cy="317.0" r="4" fill="#19e5a1" /><circle cx="629.4" cy="317.0" r="4" fill="#19e5a1" /><circle cx="638.6" cy="317.0" r="4" fill="#19e5a1" /><circle cx="647.7" cy="317.0" r="4" fill="#19e5a1" /><circle cx="656.9" cy="317.0" r="4" fill="#19e5a1" /><circle cx="666.0" cy="317.0" r="4" fill="#19e5a1" /><circle cx="675.2" cy="317.0" r="4" fill="#19e5a1" /><circle cx="684.3" cy="317.0" r="4" fill="#19e5a1" /><circle cx="693.5" cy="317.0" r="4" fill="#19e5a1" /><circle cx="702.7" cy="317.0" r="4" fill="#19e5a1" /><circle cx="711.8" cy="317.0" r="4" fill="#19e5a1" /><circle cx="721.0" cy="317.0" r="4" fill="#19e5a1" /><circle cx="730.1" cy="317.0" r="4" fill="#19e5a1" /><circle cx="739.3" cy="317.0" r="4" fill="#19e5a1" /><circle cx="748.4" cy="317.0" r="4" fill="#19e5a1" /><circle cx="757.6" cy="317.0" r="4" fill="#19e5a1" /><circle cx="766.7" cy="317.0" r="4" fill="#19e5a1" /><circle cx="775.9" cy="317.0" r="4" fill="#19e5a1" /><circle cx="785.1" cy="317.0" r="4" fill="#19e5a1" /><circle cx="794.2" cy="317.0" r="4" fill="#19e5a1" /><circle cx="803.4" cy="317.0" r="4" fill="#19e5a1" /><circle cx="812.5" cy="317.0" r="4" fill="#19e5a1" /><circle cx="821.7" cy="317.0" r="4" fill="#19e5a1" /><circle cx="830.8" cy="317.0" r="4" fill="#19e5a1" /><circle cx="840.0" cy="317.0" r="4" fill="#19e5a1" /><polyline points="80.0,313.2 89.2,312.2 98.3,312.1 107.5,312.4 116.6,312.4 125.8,312.4 134.9,312.1 144.1,312.0 153.3,311.9 162.4,311.9 171.6,311.8 180.7,311.8 189.9,311.5 199.0,311.5 208.2,311.5 217.3,311.2 226.5,311.2 235.7,311.1 244.8,311.1 254.0,311.1 263.1,310.9 272.3,311.0 281.4,310.8 290.6,310.8 299.8,310.8 308.9,310.8 318.1,310.4 327.2,310.2 336.4,310.4 345.5,310.4 354.7,310.4 363.9,310.4 373.0,310.4 382.2,310.2 391.3,310.2 400.5,310.1 409.6,310.1 418.8,309.8 428.0,309.6 437.1,309.6 446.3,309.6 455.4,309.6 464.6,309.5 473.7,309.4 482.9,309.4 492.0,309.4 501.2,309.4 510.4,309.2 519.5,309.2 528.7,309.2 537.8,309.4 547.0,309.4 556.1,309.5 565.3,309.2 574.5,309.2 583.6,309.4 592.8,309.2 601.9,309.2 611.1,309.2 620.2,309.2 629.4,309.2 638.6,309.1 647.7,309.1 656.9,309.1 666.0,309.1 675.2,309.0 684.3,309.0 693.5,308.9 702.7,308.9 711.8,308.9 721.0,308.6 730.1,308.6 739.3,308.6 748.4,308.6 757.6,308.6 766.7,308.6 775.9,308.6 785.1,308.6 794.2,308.6 803.4,308.6 812.5,308.6 821.7,308.6 830.8,308.6 840.0,307.8" fill="none" stroke="#6eb6ec" stroke-width="2.5" stroke-linecap="round" stroke-linejoin="round" /><circle cx="80.0" cy="313.2" r="4" fill="#6eb6ec" /><circle cx="89.2" cy="312.2" r="4" fill="#6eb6ec" /><circle cx="98.3" cy="312.1" r="4" fill="#6eb6ec" /><circle cx="107.5" cy="312.4" r="4" fill="#6eb6ec" /><circle cx="116.6" cy="312.4" r="4" fill="#6eb6ec" /><circle cx="125.8" cy="312.4" r="4" fill="#6eb6ec" /><circle cx="134.9" cy="312.1" r="4" fill="#6eb6ec" /><circle cx="144.1" cy="312.0" r="4" fill="#6eb6ec" /><circle cx="153.3" cy="311.9" r="4" fill="#6eb6ec" /><circle cx="162.4" cy="311.9" r="4" fill="#6eb6ec" /><circle cx="171.6" cy="311.8" r="4" fill="#6eb6ec" /><circle cx="180.7" cy="311.8" r="4" fill="#6eb6ec" /><circle cx="189.9" cy="311.5" r="4" fill="#6eb6ec" /><circle cx="199.0" cy="311.5" r="4" fill="#6eb6ec" /><circle cx="208.2" cy="311.5" r="4" fill="#6eb6ec" /><circle cx="217.3" cy="311.2" r="4" fill="#6eb6ec" /><circle cx="226.5" cy="311.2" r="4" fill="#6eb6ec" /><circle cx="235.7" cy="311.1" r="4" fill="#6eb6ec" /><circle cx="244.8" cy="311.1" r="4" fill="#6eb6ec" /><circle cx="254.0" cy="311.1" r="4" fill="#6eb6ec" /><circle cx="263.1" cy="310.9" r="4" fill="#6eb6ec" /><circle cx="272.3" cy="311.0" r="4" fill="#6eb6ec" /><circle cx="281.4" cy="310.8" r="4" fill="#6eb6ec" /><circle cx="290.6" cy="310.8" r="4" fill="#6eb6ec" /><circle cx="299.8" cy="310.8" r="4" fill="#6eb6ec" /><circle cx="308.9" cy="310.8" r="4" fill="#6eb6ec" /><circle cx="318.1" cy="310.4" r="4" fill="#6eb6ec" /><circle cx="327.2" cy="310.2" r="4" fill="#6eb6ec" /><circle cx="336.4" cy="310.4" r="4" fill="#6eb6ec" /><circle cx="345.5" cy="310.4" r="4" fill="#6eb6ec" /><circle cx="354.7" cy="310.4" r="4" fill="#6eb6ec" /><circle cx="363.9" cy="310.4" r="4" fill="#6eb6ec" /><circle cx="373.0" cy="310.4" r="4" fill="#6eb6ec" /><circle cx="382.2" cy="310.2" r="4" fill="#6eb6ec" /><circle cx="391.3" cy="310.2" r="4" fill="#6eb6ec" /><circle cx="400.5" cy="310.1" r="4" fill="#6eb6ec" /><circle cx="409.6" cy="310.1" r="4" fill="#6eb6ec" /><circle cx="418.8" cy="309.8" r="4" fill="#6eb6ec" /><circle cx="428.0" cy="309.6" r="4" fill="#6eb6ec" /><circle cx="437.1" cy="309.6" r="4" fill="#6eb6ec" /><circle cx="446.3" cy="309.6" r="4" fill="#6eb6ec" /><circle cx="455.4" cy="309.6" r="4" fill="#6eb6ec" /><circle cx="464.6" cy="309.5" r="4" fill="#6eb6ec" /><circle cx="473.7" cy="309.4" r="4" fill="#6eb6ec" /><circle cx="482.9" cy="309.4" r="4" fill="#6eb6ec" /><circle cx="492.0" cy="309.4" r="4" fill="#6eb6ec" /><circle cx="501.2" cy="309.4" r="4" fill="#6eb6ec" /><circle cx="510.4" cy="309.2" r="4" fill="#6eb6ec" /><circle cx="519.5" cy="309.2" r="4" fill="#6eb6ec" /><circle cx="528.7" cy="309.2" r="4" fill="#6eb6ec" /><circle cx="537.8" cy="309.4" r="4" fill="#6eb6ec" /><circle cx="547.0" cy="309.4" r="4" fill="#6eb6ec" /><circle cx="556.1" cy="309.5" r="4" fill="#6eb6ec" /><circle cx="565.3" cy="309.2" r="4" fill="#6eb6ec" /><circle cx="574.5" cy="309.2" r="4" fill="#6eb6ec" /><circle cx="583.6" cy="309.4" r="4" fill="#6eb6ec" /><circle cx="592.8" cy="309.2" r="4" fill="#6eb6ec" /><circle cx="601.9" cy="309.2" r="4" fill="#6eb6ec" /><circle cx="611.1" cy="309.2" r="4" fill="#6eb6ec" /><circle cx="620.2" cy="309.2" r="4" fill="#6eb6ec" /><circle cx="629.4" cy="309.2" r="4" fill="#6eb6ec" /><circle cx="638.6" cy="309.1" r="4" fill="#6eb6ec" /><circle cx="647.7" cy="309.1" r="4" fill="#6eb6ec" /><circle cx="656.9" cy="309.1" r="4" fill="#6eb6ec" /><circle cx="666.0" cy="309.1" r="4" fill="#6eb6ec" /><circle cx="675.2" cy="309.0" r="4" fill="#6eb6ec" /><circle cx="684.3" cy="309.0" r="4" fill="#6eb6ec" /><circle cx="693.5" cy="308.9" r="4" fill="#6eb6ec" /><circle cx="702.7" cy="308.9" r="4" fill="#6eb6ec" /><circle cx="711.8" cy="308.9" r="4" fill="#6eb6ec" /><circle cx="721.0" cy="308.6" r="4" fill="#6eb6ec" /><circle cx="730.1" cy="308.6" r="4" fill="#6eb6ec" /><circle cx="739.3" cy="308.6" r="4" fill="#6eb6ec" /><circle cx="748.4" cy="308.6" r="4" fill="#6eb6ec" /><circle cx="757.6" cy="308.6" r="4" fill="#6eb6ec" /><circle cx="766.7" cy="308.6" r="4" fill="#6eb6ec" /><circle cx="775.9" cy="308.6" r="4" fill="#6eb6ec" /><circle cx="785.1" cy="308.6" r="4" fill="#6eb6ec" /><circle cx="794.2" cy="308.6" r="4" fill="#6eb6ec" /><circle cx="803.4" cy="308.6" r="4" fill="#6eb6ec" /><circle cx="812.5" cy="308.6" r="4" fill="#6eb6ec" /><circle cx="821.7" cy="308.6" r="4" fill="#6eb6ec" /><circle cx="830.8" cy="308.6" r="4" fill="#6eb6ec" /><circle cx="840.0" cy="307.8" r="4" fill="#6eb6ec" /><polyline points="80.0,305.8 89.2,305.8 98.3,305.8 107.5,305.8 116.6,305.8 125.8,305.8 134.9,305.8 144.1,305.8 153.3,305.8 162.4,305.8 171.6,304.9 180.7,304.9 189.9,304.9 199.0,304.9 208.2,304.9 217.3,304.9 226.5,304.9 235.7,304.9 244.8,304.9 254.0,304.9 263.1,304.9 272.3,304.9 281.4,304.9 290.6,304.9 299.8,304.9 308.9,304.9 318.1,304.9 327.2,304.9 336.4,304.9 345.5,304.9 354.7,304.9 363.9,304.9 373.0,304.9 382.2,304.9 391.3,304.9 400.5,304.9 409.6,304.9 418.8,303.6 428.0,303.6 437.1,303.6 446.3,303.6 455.4,303.6 464.6,303.6 473.7,303.6 482.9,303.6 492.0,303.6 501.2,303.6 510.4,303.6 519.5,303.6 528.7,303.6 537.8,303.6 547.0,302.9 556.1,302.9 565.3,298.0 574.5,298.0 583.6,298.0 592.8,298.0 601.9,298.0 611.1,298.0 620.2,298.0 629.4,298.0 638.6,298.0 647.7,298.0 656.9,298.0 666.0,298.0 675.2,298.0 684.3,298.0 693.5,297.8 702.7,297.8 711.8,297.8 721.0,297.8 730.1,297.8 739.3,297.8 748.4,297.8 757.6,297.8 766.7,297.8 775.9,297.8 785.1,297.8 794.2,297.8 803.4,297.8 812.5,297.8 821.7,297.8 830.8,297.8 840.0,297.8" fill="none" stroke="#5938e2" stroke-width="2.5" stroke-linecap="round" stroke-linejoin="round" /><circle cx="80.0" cy="305.8" r="4" fill="#5938e2" /><circle cx="89.2" cy="305.8" r="4" fill="#5938e2" /><circle cx="98.3" cy="305.8" r="4" fill="#5938e2" /><circle cx="107.5" cy="305.8" r="4" fill="#5938e2" /><circle cx="116.6" cy="305.8" r="4" fill="#5938e2" /><circle cx="125.8" cy="305.8" r="4" fill="#5938e2" /><circle cx="134.9" cy="305.8" r="4" fill="#5938e2" /><circle cx="144.1" cy="305.8" r="4" fill="#5938e2" /><circle cx="153.3" cy="305.8" r="4" fill="#5938e2" /><circle cx="162.4" cy="305.8" r="4" fill="#5938e2" /><circle cx="171.6" cy="304.9" r="4" fill="#5938e2" /><circle cx="180.7" cy="304.9" r="4" fill="#5938e2" /><circle cx="189.9" cy="304.9" r="4" fill="#5938e2" /><circle cx="199.0" cy="304.9" r="4" fill="#5938e2" /><circle cx="208.2" cy="304.9" r="4" fill="#5938e2" /><circle cx="217.3" cy="304.9" r="4" fill="#5938e2" /><circle cx="226.5" cy="304.9" r="4" fill="#5938e2" /><circle cx="235.7" cy="304.9" r="4" fill="#5938e2" /><circle cx="244.8" cy="304.9" r="4" fill="#5938e2" /><circle cx="254.0" cy="304.9" r="4" fill="#5938e2" /><circle cx="263.1" cy="304.9" r="4" fill="#5938e2" /><circle cx="272.3" cy="304.9" r="4" fill="#5938e2" /><circle cx="281.4" cy="304.9" r="4" fill="#5938e2" /><circle cx="290.6" cy="304.9" r="4" fill="#5938e2" /><circle cx="299.8" cy="304.9" r="4" fill="#5938e2" /><circle cx="308.9" cy="304.9" r="4" fill="#5938e2" /><circle cx="318.1" cy="304.9" r="4" fill="#5938e2" /><circle cx="327.2" cy="304.9" r="4" fill="#5938e2" /><circle cx="336.4" cy="304.9" r="4" fill="#5938e2" /><circle cx="345.5" cy="304.9" r="4" fill="#5938e2" /><circle cx="354.7" cy="304.9" r="4" fill="#5938e2" /><circle cx="363.9" cy="304.9" r="4" fill="#5938e2" /><circle cx="373.0" cy="304.9" r="4" fill="#5938e2" /><circle cx="382.2" cy="304.9" r="4" fill="#5938e2" /><circle cx="391.3" cy="304.9" r="4" fill="#5938e2" /><circle cx="400.5" cy="304.9" r="4" fill="#5938e2" /><circle cx="409.6" cy="304.9" r="4" fill="#5938e2" /><circle cx="418.8" cy="303.6" r="4" fill="#5938e2" /><circle cx="428.0" cy="303.6" r="4" fill="#5938e2" /><circle cx="437.1" cy="303.6" r="4" fill="#5938e2" /><circle cx="446.3" cy="303.6" r="4" fill="#5938e2" /><circle cx="455.4" cy="303.6" r="4" fill="#5938e2" /><circle cx="464.6" cy="303.6" r="4" fill="#5938e2" /><circle cx="473.7" cy="303.6" r="4" fill="#5938e2" /><circle cx="482.9" cy="303.6" r="4" fill="#5938e2" /><circle cx="492.0" cy="303.6" r="4" fill="#5938e2" /><circle cx="501.2" cy="303.6" r="4" fill="#5938e2" /><circle cx="510.4" cy="303.6" r="4" fill="#5938e2" /><circle cx="519.5" cy="303.6" r="4" fill="#5938e2" /><circle cx="528.7" cy="303.6" r="4" fill="#5938e2" /><circle cx="537.8" cy="303.6" r="4" fill="#5938e2" /><circle cx="547.0" cy="302.9" r="4" fill="#5938e2" /><circle cx="556.1" cy="302.9" r="4" fill="#5938e2" /><circle cx="565.3" cy="298.0" r="4" fill="#5938e2" /><circle cx="574.5" cy="298.0" r="4" fill="#5938e2" /><circle cx="583.6" cy="298.0" r="4" fill="#5938e2" /><circle cx="592.8" cy="298.0" r="4" fill="#5938e2" /><circle cx="601.9" cy="298.0" r="4" fill="#5938e2" /><circle cx="611.1" cy="298.0" r="4" fill="#5938e2" /><circle cx="620.2" cy="298.0" r="4" fill="#5938e2" /><circle cx="629.4" cy="298.0" r="4" fill="#5938e2" /><circle cx="638.6" cy="298.0" r="4" fill="#5938e2" /><circle cx="647.7" cy="298.0" r="4" fill="#5938e2" /><circle cx="656.9" cy="298.0" r="4" fill="#5938e2" /><circle cx="666.0" cy="298.0" r="4" fill="#5938e2" /><circle cx="675.2" cy="298.0" r="4" fill="#5938e2" /><circle cx="684.3" cy="298.0" r="4" fill="#5938e2" /><circle cx="693.5" cy="297.8" r="4" fill="#5938e2" /><circle cx="702.7" cy="297.8" r="4" fill="#5938e2" /><circle cx="711.8" cy="297.8" r="4" fill="#5938e2" /><circle cx="721.0" cy="297.8" r="4" fill="#5938e2" /><circle cx="730.1" cy="297.8" r="4" fill="#5938e2" /><circle cx="739.3" cy="297.8" r="4" fill="#5938e2" /><circle cx="748.4" cy="297.8" r="4" fill="#5938e2" /><circle cx="757.6" cy="297.8" r="4" fill="#5938e2" /><circle cx="766.7" cy="297.8" r="4" fill="#5938e2" /><circle cx="775.9" cy="297.8" r="4" fill="#5938e2" /><circle cx="785.1" cy="297.8" r="4" fill="#5938e2" /><circle cx="794.2" cy="297.8" r="4" fill="#5938e2" /><circle cx="803.4" cy="297.8" r="4" fill="#5938e2" /><circle cx="812.5" cy="297.8" r="4" fill="#5938e2" /><circle cx="821.7" cy="297.8" r="4" fill="#5938e2" /><circle cx="830.8" cy="297.8" r="4" fill="#5938e2" /><circle cx="840.0" cy="297.8" r="4" fill="#5938e2" /><polyline points="80.0,144.6 89.2,140.1 98.3,139.9 107.5,139.8 116.6,139.8 125.8,139.6 134.9,139.6 144.1,139.6 153.3,139.6 162.4,139.6 171.6,138.4 180.7,138.4 189.9,138.4 199.0,138.4 208.2,138.4 217.3,138.4 226.5,138.4 235.7,137.4 244.8,137.4 254.0,137.4 263.1,137.4 272.3,137.4 281.4,137.4 290.6,137.4 299.8,137.4 308.9,137.4 318.1,137.4 327.2,137.4 336.4,131.2 345.5,131.2 354.7,130.8 363.9,130.4 373.0,126.9 382.2,126.9 391.3,126.9 400.5,126.9 409.6,126.9 418.8,126.9 428.0,126.9 437.1,126.9 446.3,126.9 455.4,126.8 464.6,122.1 473.7,120.4 482.9,120.4 492.0,120.4 501.2,120.4 510.4,120.4 519.5,119.4 528.7,119.4 537.8,119.4 547.0,119.4 556.1,119.1 565.3,118.8 574.5,118.8 583.6,117.8 592.8,117.8 601.9,117.8 611.1,115.8 620.2,115.8 629.4,115.0 638.6,115.0 647.7,115.0 656.9,115.0 666.0,115.0 675.2,115.0 684.3,115.0 693.5,113.9 702.7,111.8 711.8,111.8 721.0,111.8 730.1,111.8 739.3,111.8 748.4,111.8 757.6,111.8 766.7,111.8 775.9,111.8 785.1,111.8 794.2,110.6 803.4,110.6 812.5,110.6 821.7,110.6 830.8,110.6 840.0,109.4" fill="none" stroke="#60e5e0" stroke-width="2.5" stroke-linecap="round" stroke-linejoin="round" /><circle cx="80.0" cy="144.6" r="4" fill="#60e5e0" /><circle cx="89.2" cy="140.1" r="4" fill="#60e5e0" /><circle cx="98.3" cy="139.9" r="4" fill="#60e5e0" /><circle cx="107.5" cy="139.8" r="4" fill="#60e5e0" /><circle cx="116.6" cy="139.8" r="4" fill="#60e5e0" /><circle cx="125.8" cy="139.6" r="4" fill="#60e5e0" /><circle cx="134.9" cy="139.6" r="4" fill="#60e5e0" /><circle cx="144.1" cy="139.6" r="4" fill="#60e5e0" /><circle cx="153.3" cy="139.6" r="4" fill="#60e5e0" /><circle cx="162.4" cy="139.6" r="4" fill="#60e5e0" /><circle cx="171.6" cy="138.4" r="4" fill="#60e5e0" /><circle cx="180.7" cy="138.4" r="4" fill="#60e5e0" /><circle cx="189.9" cy="138.4" r="4" fill="#60e5e0" /><circle cx="199.0" cy="138.4" r="4" fill="#60e5e0" /><circle cx="208.2" cy="138.4" r="4" fill="#60e5e0" /><circle cx="217.3" cy="138.4" r="4" fill="#60e5e0" /><circle cx="226.5" cy="138.4" r="4" fill="#60e5e0" /><circle cx="235.7" cy="137.4" r="4" fill="#60e5e0" /><circle cx="244.8" cy="137.4" r="4" fill="#60e5e0" /><circle cx="254.0" cy="137.4" r="4" fill="#60e5e0" /><circle cx="263.1" cy="137.4" r="4" fill="#60e5e0" /><circle cx="272.3" cy="137.4" r="4" fill="#60e5e0" /><circle cx="281.4" cy="137.4" r="4" fill="#60e5e0" /><circle cx="290.6" cy="137.4" r="4" fill="#60e5e0" /><circle cx="299.8" cy="137.4" r="4" fill="#60e5e0" /><circle cx="308.9" cy="137.4" r="4" fill="#60e5e0" /><circle cx="318.1" cy="137.4" r="4" fill="#60e5e0" /><circle cx="327.2" cy="137.4" r="4" fill="#60e5e0" /><circle cx="336.4" cy="131.2" r="4" fill="#60e5e0" /><circle cx="345.5" cy="131.2" r="4" fill="#60e5e0" /><circle cx="354.7" cy="130.8" r="4" fill="#60e5e0" /><circle cx="363.9" cy="130.4" r="4" fill="#60e5e0" /><circle cx="373.0" cy="126.9" r="4" fill="#60e5e0" /><circle cx="382.2" cy="126.9" r="4" fill="#60e5e0" /><circle cx="391.3" cy="126.9" r="4" fill="#60e5e0" /><circle cx="400.5" cy="126.9" r="4" fill="#60e5e0" /><circle cx="409.6" cy="126.9" r="4" fill="#60e5e0" /><circle cx="418.8" cy="126.9" r="4" fill="#60e5e0" /><circle cx="428.0" cy="126.9" r="4" fill="#60e5e0" /><circle cx="437.1" cy="126.9" r="4" fill="#60e5e0" /><circle cx="446.3" cy="126.9" r="4" fill="#60e5e0" /><circle cx="455.4" cy="126.8" r="4" fill="#60e5e0" /><circle cx="464.6" cy="122.1" r="4" fill="#60e5e0" /><circle cx="473.7" cy="120.4" r="4" fill="#60e5e0" /><circle cx="482.9" cy="120.4" r="4" fill="#60e5e0" /><circle cx="492.0" cy="120.4" r="4" fill="#60e5e0" /><circle cx="501.2" cy="120.4" r="4" fill="#60e5e0" /><circle cx="510.4" cy="120.4" r="4" fill="#60e5e0" /><circle cx="519.5" cy="119.4" r="4" fill="#60e5e0" /><circle cx="528.7" cy="119.4" r="4" fill="#60e5e0" /><circle cx="537.8" cy="119.4" r="4" fill="#60e5e0" /><circle cx="547.0" cy="119.4" r="4" fill="#60e5e0" /><circle cx="556.1" cy="119.1" r="4" fill="#60e5e0" /><circle cx="565.3" cy="118.8" r="4" fill="#60e5e0" /><circle cx="574.5" cy="118.8" r="4" fill="#60e5e0" /><circle cx="583.6" cy="117.8" r="4" fill="#60e5e0" /><circle cx="592.8" cy="117.8" r="4" fill="#60e5e0" /><circle cx="601.9" cy="117.8" r="4" fill="#60e5e0" /><circle cx="611.1" cy="115.8" r="4" fill="#60e5e0" /><circle cx="620.2" cy="115.8" r="4" fill="#60e5e0" /><circle cx="629.4" cy="115.0" r="4" fill="#60e5e0" /><circle cx="638.6" cy="115.0" r="4" fill="#60e5e0" /><circle cx="647.7" cy="115.0" r="4" fill="#60e5e0" /><circle cx="656.9" cy="115.0" r="4" fill="#60e5e0" /><circle cx="666.0" cy="115.0" r="4" fill="#60e5e0" /><circle cx="675.2" cy="115.0" r="4" fill="#60e5e0" /><circle cx="684.3" cy="115.0" r="4" fill="#60e5e0" /><circle cx="693.5" cy="113.9" r="4" fill="#60e5e0" /><circle cx="702.7" cy="111.8" r="4" fill="#60e5e0" /><circle cx="711.8" cy="111.8" r="4" fill="#60e5e0" /><circle cx="721.0" cy="111.8" r="4" fill="#60e5e0" /><circle cx="730.1" cy="111.8" r="4" fill="#60e5e0" /><circle cx="739.3" cy="111.8" r="4" fill="#60e5e0" /><circle cx="748.4" cy="111.8" r="4" fill="#60e5e0" /><circle cx="757.6" cy="111.8" r="4" fill="#60e5e0" /><circle cx="766.7" cy="111.8" r="4" fill="#60e5e0" /><circle cx="775.9" cy="111.8" r="4" fill="#60e5e0" /><circle cx="785.1" cy="111.8" r="4" fill="#60e5e0" /><circle cx="794.2" cy="110.6" r="4" fill="#60e5e0" /><circle cx="803.4" cy="110.6" r="4" fill="#60e5e0" /><circle cx="812.5" cy="110.6" r="4" fill="#60e5e0" /><circle cx="821.7" cy="110.6" r="4" fill="#60e5e0" /><circle cx="830.8" cy="110.6" r="4" fill="#60e5e0" /><circle cx="840.0" cy="109.4" r="4" fill="#60e5e0" /><polyline points="80.0,314.6 89.2,314.4 98.3,314.2 107.5,314.2 116.6,314.2 125.8,314.1 134.9,314.1 144.1,314.1 153.3,314.1 162.4,314.1 171.6,314.0 180.7,314.0 189.9,314.0 199.0,314.0 208.2,314.0 217.3,314.0 226.5,314.0 235.7,314.0 244.8,314.0 254.0,314.0 263.1,314.0 272.3,314.0 281.4,314.0 290.6,314.0 299.8,314.0 308.9,314.0 318.1,314.0 327.2,314.0 336.4,314.0 345.5,314.0 354.7,314.0 363.9,314.0 373.0,314.0 382.2,314.0 391.3,314.0 400.5,314.0 409.6,314.0 418.8,314.0 428.0,314.0 437.1,314.0 446.3,314.0 455.4,313.9 464.6,313.6 473.7,313.4 482.9,313.4 492.0,313.4 501.2,313.4 510.4,313.4 519.5,313.1 528.7,313.1 537.8,313.1 547.0,313.1 556.1,313.1 565.3,313.0 574.5,313.0 583.6,312.9 592.8,312.9 601.9,312.9 611.1,312.8 620.2,312.8 629.4,312.6 638.6,312.6 647.7,312.6 656.9,312.6 666.0,312.6 675.2,312.6 684.3,312.6 693.5,312.5 702.7,312.1 711.8,312.1 721.0,312.1 730.1,312.1 739.3,312.1 748.4,312.1 757.6,312.1 766.7,312.1 775.9,312.1 785.1,312.1 794.2,312.0 803.4,312.0 812.5,312.0 821.7,312.0 830.8,312.0 840.0,312.0" fill="none" stroke="#567de1" stroke-width="2.5" stroke-linecap="round" stroke-linejoin="round" /><circle cx="80.0" cy="314.6" r="4" fill="#567de1" /><circle cx="89.2" cy="314.4" r="4" fill="#567de1" /><circle cx="98.3" cy="314.2" r="4" fill="#567de1" /><circle cx="107.5" cy="314.2" r="4" fill="#567de1" /><circle cx="116.6" cy="314.2" r="4" fill="#567de1" /><circle cx="125.8" cy="314.1" r="4" fill="#567de1" /><circle cx="134.9" cy="314.1" r="4" fill="#567de1" /><circle cx="144.1" cy="314.1" r="4" fill="#567de1" /><circle cx="153.3" cy="314.1" r="4" fill="#567de1" /><circle cx="162.4" cy="314.1" r="4" fill="#567de1" /><circle cx="171.6" cy="314.0" r="4" fill="#567de1" /><circle cx="180.7" cy="314.0" r="4" fill="#567de1" /><circle cx="189.9" cy="314.0" r="4" fill="#567de1" /><circle cx="199.0" cy="314.0" r="4" fill="#567de1" /><circle cx="208.2" cy="314.0" r="4" fill="#567de1" /><circle cx="217.3" cy="314.0" r="4" fill="#567de1" /><circle cx="226.5" cy="314.0" r="4" fill="#567de1" /><circle cx="235.7" cy="314.0" r="4" fill="#567de1" /><circle cx="244.8" cy="314.0" r="4" fill="#567de1" /><circle cx="254.0" cy="314.0" r="4" fill="#567de1" /><circle cx="263.1" cy="314.0" r="4" fill="#567de1" /><circle cx="272.3" cy="314.0" r="4" fill="#567de1" /><circle cx="281.4" cy="314.0" r="4" fill="#567de1" /><circle cx="290.6" cy="314.0" r="4" fill="#567de1" /><circle cx="299.8" cy="314.0" r="4" fill="#567de1" /><circle cx="308.9" cy="314.0" r="4" fill="#567de1" /><circle cx="318.1" cy="314.0" r="4" fill="#567de1" /><circle cx="327.2" cy="314.0" r="4" fill="#567de1" /><circle cx="336.4" cy="314.0" r="4" fill="#567de1" /><circle cx="345.5" cy="314.0" r="4" fill="#567de1" /><circle cx="354.7" cy="314.0" r="4" fill="#567de1" /><circle cx="363.9" cy="314.0" r="4" fill="#567de1" /><circle cx="373.0" cy="314.0" r="4" fill="#567de1" /><circle cx="382.2" cy="314.0" r="4" fill="#567de1" /><circle cx="391.3" cy="314.0" r="4" fill="#567de1" /><circle cx="400.5" cy="314.0" r="4" fill="#567de1" /><circle cx="409.6" cy="314.0" r="4" fill="#567de1" /><circle cx="418.8" cy="314.0" r="4" fill="#567de1" /><circle cx="428.0" cy="314.0" r="4" fill="#567de1" /><circle cx="437.1" cy="314.0" r="4" fill="#567de1" /><circle cx="446.3" cy="314.0" r="4" fill="#567de1" /><circle cx="455.4" cy="313.9" r="4" fill="#567de1" /><circle cx="464.6" cy="313.6" r="4" fill="#567de1" /><circle cx="473.7" cy="313.4" r="4" fill="#567de1" /><circle cx="482.9" cy="313.4" r="4" fill="#567de1" /><circle cx="492.0" cy="313.4" r="4" fill="#567de1" /><circle cx="501.2" cy="313.4" r="4" fill="#567de1" /><circle cx="510.4" cy="313.4" r="4" fill="#567de1" /><circle cx="519.5" cy="313.1" r="4" fill="#567de1" /><circle cx="528.7" cy="313.1" r="4" fill="#567de1" /><circle cx="537.8" cy="313.1" r="4" fill="#567de1" /><circle cx="547.0" cy="313.1" r="4" fill="#567de1" /><circle cx="556.1" cy="313.1" r="4" fill="#567de1" /><circle cx="565.3" cy="313.0" r="4" fill="#567de1" /><circle cx="574.5" cy="313.0" r="4" fill="#567de1" /><circle cx="583.6" cy="312.9" r="4" fill="#567de1" /><circle cx="592.8" cy="312.9" r="4" fill="#567de1" /><circle cx="601.9" cy="312.9" r="4" fill="#567de1" /><circle cx="611.1" cy="312.8" r="4" fill="#567de1" /><circle cx="620.2" cy="312.8" r="4" fill="#567de1" /><circle cx="629.4" cy="312.6" r="4" fill="#567de1" /><circle cx="638.6" cy="312.6" r="4" fill="#567de1" /><circle cx="647.7" cy="312.6" r="4" fill="#567de1" /><circle cx="656.9" cy="312.6" r="4" fill="#567de1" /><circle cx="666.0" cy="312.6" r="4" fill="#567de1" /><circle cx="675.2" cy="312.6" r="4" fill="#567de1" /><circle cx="684.3" cy="312.6" r="4" fill="#567de1" /><circle cx="693.5" cy="312.5" r="4" fill="#567de1" /><circle cx="702.7" cy="312.1" r="4" fill="#567de1" /><circle cx="711.8" cy="312.1" r="4" fill="#567de1" /><circle cx="721.0" cy="312.1" r="4" fill="#567de1" /><circle cx="730.1" cy="312.1" r="4" fill="#567de1" /><circle cx="739.3" cy="312.1" r="4" fill="#567de1" /><circle cx="748.4" cy="312.1" r="4" fill="#567de1" /><circle cx="757.6" cy="312.1" r="4" fill="#567de1" /><circle cx="766.7" cy="312.1" r="4" fill="#567de1" /><circle cx="775.9" cy="312.1" r="4" fill="#567de1" /><circle cx="785.1" cy="312.1" r="4" fill="#567de1" /><circle cx="794.2" cy="312.0" r="4" fill="#567de1" /><circle cx="803.4" cy="312.0" r="4" fill="#567de1" /><circle cx="812.5" cy="312.0" r="4" fill="#567de1" /><circle cx="821.7" cy="312.0" r="4" fill="#567de1" /><circle cx="830.8" cy="312.0" r="4" fill="#567de1" /><circle cx="840.0" cy="312.0" r="4" fill="#567de1" /><polyline points="80.0,303.9 89.2,304.2 98.3,304.4 107.5,304.4 116.6,304.4 125.8,304.4 134.9,304.4 144.1,304.4 153.3,304.4 162.4,304.4 171.6,304.4 180.7,304.4 189.9,304.4 199.0,304.4 208.2,304.4 217.3,304.4 226.5,304.4 235.7,304.4 244.8,304.4 254.0,304.4 263.1,304.4 272.3,304.4 281.4,304.4 290.6,304.4 299.8,304.4 308.9,304.4 318.1,304.4 327.2,304.4 336.4,299.1 345.5,299.1 354.7,299.1 363.9,298.9 373.0,295.6 382.2,295.6 391.3,295.6 400.5,295.6 409.6,295.6 418.8,295.6 428.0,295.6 437.1,295.6 446.3,295.6 455.4,295.8 464.6,295.9 473.7,295.9 482.9,295.9 492.0,295.9 501.2,295.9 510.4,295.9 519.5,295.9 528.7,295.9 537.8,295.9 547.0,295.9 556.1,295.9 565.3,295.9 574.5,295.9 583.6,295.9 592.8,295.9 601.9,295.9 611.1,295.8 620.2,295.8 629.4,295.9 638.6,295.9 647.7,295.9 656.9,295.9 666.0,295.9 675.2,295.9 684.3,295.9 693.5,296.0 702.7,296.4 711.8,296.4 721.0,296.4 730.1,296.4 739.3,296.4 748.4,296.4 757.6,296.4 766.7,296.4 775.9,296.4 785.1,296.4 794.2,296.5 803.4,296.5 812.5,296.5 821.7,296.5 830.8,296.5 840.0,296.5" fill="none" stroke="#9754dd" stroke-width="2.5" stroke-linecap="round" stroke-linejoin="round" /><circle cx="80.0" cy="303.9" r="4" fill="#9754dd" /><circle cx="89.2" cy="304.2" r="4" fill="#9754dd" /><circle cx="98.3" cy="304.4" r="4" fill="#9754dd" /><circle cx="107.5" cy="304.4" r="4" fill="#9754dd" /><circle cx="116.6" cy="304.4" r="4" fill="#9754dd" /><circle cx="125.8" cy="304.4" r="4" fill="#9754dd" /><circle cx="134.9" cy="304.4" r="4" fill="#9754dd" /><circle cx="144.1" cy="304.4" r="4" fill="#9754dd" /><circle cx="153.3" cy="304.4" r="4" fill="#9754dd" /><circle cx="162.4" cy="304.4" r="4" fill="#9754dd" /><circle cx="171.6" cy="304.4" r="4" fill="#9754dd" /><circle cx="180.7" cy="304.4" r="4" fill="#9754dd" /><circle cx="189.9" cy="304.4" r="4" fill="#9754dd" /><circle cx="199.0" cy="304.4" r="4" fill="#9754dd" /><circle cx="208.2" cy="304.4" r="4" fill="#9754dd" /><circle cx="217.3" cy="304.4" r="4" fill="#9754dd" /><circle cx="226.5" cy="304.4" r="4" fill="#9754dd" /><circle cx="235.7" cy="304.4" r="4" fill="#9754dd" /><circle cx="244.8" cy="304.4" r="4" fill="#9754dd" /><circle cx="254.0" cy="304.4" r="4" fill="#9754dd" /><circle cx="263.1" cy="304.4" r="4" fill="#9754dd" /><circle cx="272.3" cy="304.4" r="4" fill="#9754dd" /><circle cx="281.4" cy="304.4" r="4" fill="#9754dd" /><circle cx="290.6" cy="304.4" r="4" fill="#9754dd" /><circle cx="299.8" cy="304.4" r="4" fill="#9754dd" /><circle cx="308.9" cy="304.4" r="4" fill="#9754dd" /><circle cx="318.1" cy="304.4" r="4" fill="#9754dd" /><circle cx="327.2" cy="304.4" r="4" fill="#9754dd" /><circle cx="336.4" cy="299.1" r="4" fill="#9754dd" /><circle cx="345.5" cy="299.1" r="4" fill="#9754dd" /><circle cx="354.7" cy="299.1" r="4" fill="#9754dd" /><circle cx="363.9" cy="298.9" r="4" fill="#9754dd" /><circle cx="373.0" cy="295.6" r="4" fill="#9754dd" /><circle cx="382.2" cy="295.6" r="4" fill="#9754dd" /><circle cx="391.3" cy="295.6" r="4" fill="#9754dd" /><circle cx="400.5" cy="295.6" r="4" fill="#9754dd" /><circle cx="409.6" cy="295.6" r="4" fill="#9754dd" /><circle cx="418.8" cy="295.6" r="4" fill="#9754dd" /><circle cx="428.0" cy="295.6" r="4" fill="#9754dd" /><circle cx="437.1" cy="295.6" r="4" fill="#9754dd" /><circle cx="446.3" cy="295.6" r="4" fill="#9754dd" /><circle cx="455.4" cy="295.8" r="4" fill="#9754dd" /><circle cx="464.6" cy="295.9" r="4" fill="#9754dd" /><circle cx="473.7" cy="295.9" r="4" fill="#9754dd" /><circle cx="482.9" cy="295.9" r="4" fill="#9754dd" /><circle cx="492.0" cy="295.9" r="4" fill="#9754dd" /><circle cx="501.2" cy="295.9" r="4" fill="#9754dd" /><circle cx="510.4" cy="295.9" r="4" fill="#9754dd" /><circle cx="519.5" cy="295.9" r="4" fill="#9754dd" /><circle cx="528.7" cy="295.9" r="4" fill="#9754dd" /><circle cx="537.8" cy="295.9" r="4" fill="#9754dd" /><circle cx="547.0" cy="295.9" r="4" fill="#9754dd" /><circle cx="556.1" cy="295.9" r="4" fill="#9754dd" /><circle cx="565.3" cy="295.9" r="4" fill="#9754dd" /><circle cx="574.5" cy="295.9" r="4" fill="#9754dd" /><circle cx="583.6" cy="295.9" r="4" fill="#9754dd" /><circle cx="592.8" cy="295.9" r="4" fill="#9754dd" /><circle cx="601.9" cy="295.9" r="4" fill="#9754dd" /><circle cx="611.1" cy="295.8" r="4" fill="#9754dd" /><circle cx="620.2" cy="295.8" r="4" fill="#9754dd" /><circle cx="629.4" cy="295.9" r="4" fill="#9754dd" /><circle cx="638.6" cy="295.9" r="4" fill="#9754dd" /><circle cx="647.7" cy="295.9" r="4" fill="#9754dd" /><circle cx="656.9" cy="295.9" r="4" fill="#9754dd" /><circle cx="666.0" cy="295.9" r="4" fill="#9754dd" /><circle cx="675.2" cy="295.9" r="4" fill="#9754dd" /><circle cx="684.3" cy="295.9" r="4" fill="#9754dd" /><circle cx="693.5" cy="296.0" r="4" fill="#9754dd" /><circle cx="702.7" cy="296.4" r="4" fill="#9754dd" /><circle cx="711.8" cy="296.4" r="4" fill="#9754dd" /><circle cx="721.0" cy="296.4" r="4" fill="#9754dd" /><circle cx="730.1" cy="296.4" r="4" fill="#9754dd" /><circle cx="739.3" cy="296.4" r="4" fill="#9754dd" /><circle cx="748.4" cy="296.4" r="4" fill="#9754dd" /><circle cx="757.6" cy="296.4" r="4" fill="#9754dd" /><circle cx="766.7" cy="296.4" r="4" fill="#9754dd" /><circle cx="775.9" cy="296.4" r="4" fill="#9754dd" /><circle cx="785.1" cy="296.4" r="4" fill="#9754dd" /><circle cx="794.2" cy="296.5" r="4" fill="#9754dd" /><circle cx="803.4" cy="296.5" r="4" fill="#9754dd" /><circle cx="812.5" cy="296.5" r="4" fill="#9754dd" /><circle cx="821.7" cy="296.5" r="4" fill="#9754dd" /><circle cx="830.8" cy="296.5" r="4" fill="#9754dd" /><circle cx="840.0" cy="296.5" r="4" fill="#9754dd" />
  <rect x="80" y="339" width="10" height="10" rx="2" ry="2" fill="#19e5a1" /><text x="96" y="348" class="legend-label">Stars</text><rect x="250" y="339" width="10" height="10" rx="2" ry="2" fill="#6eb6ec" /><text x="266" y="348" class="legend-label">Followers</text><rect x="420" y="339" width="10" height="10" rx="2" ry="2" fill="#5938e2" /><text x="436" y="348" class="legend-label">Following</text><rect x="590" y="339" width="10" height="10" rx="2" ry="2" fill="#60e5e0" /><text x="606" y="348" class="legend-label">Contributions</text><rect x="80" y="357" width="10" height="10" rx="2" ry="2" fill="#567de1" /><text x="96" y="366" class="legend-label">Pull Requests</text><rect x="250" y="357" width="10" height="10" rx="2" ry="2" fill="#9754dd" /><text x="266" y="366" class="legend-label">Issues</text>
</svg>
