<svg width="900" height="402" viewBox="0 0 900 402" xmlns="http://www.w3.org/2000/svg">
  <defs>
    <linearGradient id="history-gradient" x1="0%" y1="0%" x2="100%" y2="100%">
      <stop offset="0%" style="stop-color:#58a6ff;stop-opacity:1" />
      <stop offset="100%" style="stop-color:#a371f7;stop-opacity:1" />
    </linearGradient>
    <clipPath id="history-rounded">
      <rect x="0" y="0" width="900" height="402" rx="8" ry="8" />
    </clipPath>
  </defs>
  <style>
    .title {
      font-family: 'Segoe UI', Ubuntu, 'Helvetica Neue', sans-serif;
      font-size: 22px;
      font-weight: 700;
      fill: #58a6ff;
    }
    .subtitle {
      font-family: 'Segoe UI', Ubuntu, 'Helvetica Neue', sans-serif;
      font-size: 12px;
      font-weight: 500;
      fill: #8b949e;
    }
    .axis-label {
      font-family: 'Segoe UI', Ubuntu, 'Helvetica Neue', sans-serif;
      font-size: 10px;
      fill: #8b949e;
    }
    .grid-line {
      stroke: #30363d;
      stroke-width: 1;
      opacity: 0.3;
    }
    .legend-label {
      font-family: 'Segoe UI', Ubuntu, 'Helvetica Neue', sans-serif;
      font-size: 11px;
      fill: #c9d1d9;
      dominant-baseline: middle;
    }
  </style>
  <rect clip-path="url(#history-rounded)" width="100%" height="100%" fill="#0d1117" stroke="#30363d" stroke-width="1" />
  <rect x="0" y="396" width="900" height="6" fill="url(#history-gradient)" clip-path="url(#history-rounded)" />
  <text x="24" y="34" class="title">Leonardo Klein Stats History</text>
  <text x="24" y="54" class="subtitle">Period: 2026-02-20 to 2026-03-11</text>
  <text x="72" y="320.0" text-anchor="end" dominant-baseline="central" class="axis-label">0</text><text x="72" y="270.0" text-anchor="end" dominant-baseline="central" class="axis-label">400</text><text x="72" y="220.0" text-anchor="end" dominant-baseline="central" class="axis-label">800</text><text x="72" y="170.0" text-anchor="end" dominant-baseline="central" class="axis-label">1.2k</text><text x="72" y="120.0" text-anchor="end" dominant-baseline="central" class="axis-label">1.6k</text><text x="72" y="70.0" text-anchor="end" dominant-baseline="central" class="axis-label">2.0k</text>
  <text x="80.0" y="336" text-anchor="middle" class="axis-label">02-20</text><text x="152.0" y="336" text-anchor="middle" class="axis-label">02-22</text><text x="224.0" y="336" text-anchor="middle" class="axis-label">02-24</text><text x="296.0" y="336" text-anchor="middle" class="axis-label">02-25</text><text x="368.0" y="336" text-anchor="middle" class="axis-label">02-27</text><text x="440.0" y="336" text-anchor="middle" class="axis-label">03-01</text><text x="512.0" y="336" text-anchor="middle" class="axis-label">03-03</text><text x="584.0" y="336" text-anchor="middle" class="axis-label">03-05</text><text x="656.0" y="336" text-anchor="middle" class="axis-label">03-06</text><text x="728.0" y="336" text-anchor="middle" class="axis-label">03-08</text><text x="800.0" y="336" text-anchor="middle" class="axis-label">03-10</text><text x="840.0" y="336" text-anchor="middle" class="axis-label">03-11</text>
  <line x1="80" y1="320.0" x2="840" y2="320.0" class="grid-line" /><line x1="80" y1="270.0" x2="840" y2="270.0" class="grid-line" /><line x1="80" y1="220.0" x2="840" y2="220.0" class="grid-line" /><line x1="80" y1="170.0" x2="840" y2="170.0" class="grid-line" /><line x1="80" y1="120.0" x2="840" y2="120.0" class="grid-line" /><line x1="80" y1="70.0" x2="840" y2="70.0" class="grid-line" />
  <polyline points="80.0,317.0 88.0,317.0 96.0,317.0 104.0,317.0 112.0,317.0 120.0,317.0 128.0,317.0 136.0,317.0 144.0,317.0 152.0,317.0 160.0,317.0 168.0,317.0 176.0,317.0 184.0,317.0 192.0,317.0 200.0,317.0 208.0,317.0 216.0,317.0 224.0,317.0 232.0,317.0 240.0,317.0 248.0,317.0 256.0,317.0 264.0,317.0 272.0,317.0 280.0,317.0 288.0,317.0 296.0,317.0 304.0,317.0 312.0,317.0 320.0,317.0 328.0,317.0 336.0,317.0 344.0,317.0 352.0,317.0 360.0,317.0 368.0,317.0 376.0,317.0 384.0,317.0 392.0,317.0 400.0,317.0 408.0,317.0 416.0,317.0 424.0,317.0 432.0,317.0 440.0,317.0 448.0,317.0 456.0,317.0 464.0,317.0 472.0,317.0 480.0,317.0 488.0,317.0 496.0,317.0 504.0,317.0 512.0,317.0 520.0,317.0 528.0,317.0 536.0,317.0 544.0,317.0 552.0,317.0 560.0,317.0 568.0,317.0 576.0,317.0 584.0,317.0 592.0,317.0 600.0,317.0 608.0,317.0 616.0,317.0 624.0,317.0 632.0,317.0 640.0,317.0 648.0,317.0 656.0,317.0 664.0,317.0 672.0,317.0 680.0,317.0 688.0,317.0 696.0,317.0 704.0,317.0 712.0,317.0 720.0,317.0 728.0,317.0 736.0,317.0 744.0,317.0 752.0,317.0 760.0,317.0 768.0,317.0 776.0,317.0 784.0,317.0 792.0,317.0 800.0,317.0 808.0,317.0 816.0,317.0 824.0,317.0 832.0,317.0 840.0,317.0" fill="none" stroke="#19e5a1" stroke-width="2.5" stroke-linecap="round" stroke-linejoin="round" /><circle cx="80.0" cy="317.0" r="4" fill="#19e5a1" /><circle cx="88.0" cy="317.0" r="4" fill="#19e5a1" /><circle cx="96.0" cy="317.0" r="4" fill="#19e5a1" /><circle cx="104.0" cy="317.0" r="4" fill="#19e5a1" /><circle cx="112.0" cy="317.0" r="4" fill="#19e5a1" /><circle cx="120.0" cy="317.0" r="4" fill="#19e5a1" /><circle cx="128.0" cy="317.0" r="4" fill="#19e5a1" /><circle cx="136.0" cy="317.0" r="4" fill="#19e5a1" /><circle cx="144.0" cy="317.0" r="4" fill="#19e5a1" /><circle cx="152.0" cy="317.0" r="4" fill="#19e5a1" /><circle cx="160.0" cy="317.0" r="4" fill="#19e5a1" /><circle cx="168.0" cy="317.0" r="4" fill="#19e5a1" /><circle cx="176.0" cy="317.0" r="4" fill="#19e5a1" /><circle cx="184.0" cy="317.0" r="4" fill="#19e5a1" /><circle cx="192.0" cy="317.0" r="4" fill="#19e5a1" /><circle cx="200.0" cy="317.0" r="4" fill="#19e5a1" /><circle cx="208.0" cy="317.0" r="4" fill="#19e5a1" /><circle cx="216.0" cy="317.0" r="4" fill="#19e5a1" /><circle cx="224.0" cy="317.0" r="4" fill="#19e5a1" /><circle cx="232.0" cy="317.0" r="4" fill="#19e5a1" /><circle cx="240.0" cy="317.0" r="4" fill="#19e5a1" /><circle cx="248.0" cy="317.0" r="4" fill="#19e5a1" /><circle cx="256.0" cy="317.0" r="4" fill="#19e5a1" /><circle cx="264.0" cy="317.0" r="4" fill="#19e5a1" /><circle cx="272.0" cy="317.0" r="4" fill="#19e5a1" /><circle cx="280.0" cy="317.0" r="4" fill="#19e5a1" /><circle cx="288.0" cy="317.0" r="4" fill="#19e5a1" /><circle cx="296.0" cy="317.0" r="4" fill="#19e5a1" /><circle cx="304.0" cy="317.0" r="4" fill="#19e5a1" /><circle cx="312.0" cy="317.0" r="4" fill="#19e5a1" /><circle cx="320.0" cy="317.0" r="4" fill="#19e5a1" /><circle cx="328.0" cy="317.0" r="4" fill="#19e5a1" /><circle cx="336.0" cy="317.0" r="4" fill="#19e5a1" /><circle cx="344.0" cy="317.0" r="4" fill="#19e5a1" /><circle cx="352.0" cy="317.0" r="4" fill="#19e5a1" /><circle cx="360.0" cy="317.0" r="4" fill="#19e5a1" /><circle cx="368.0" cy="317.0" r="4" fill="#19e5a1" /><circle cx="376.0" cy="317.0" r="4" fill="#19e5a1" /><circle cx="384.0" cy="317.0" r="4" fill="#19e5a1" /><circle cx="392.0" cy="317.0" r="4" fill="#19e5a1" /><circle cx="400.0" cy="317.0" r="4" fill="#19e5a1" /><circle cx="408.0" cy="317.0" r="4" fill="#19e5a1" /><circle cx="416.0" cy="317.0" r="4" fill="#19e5a1" /><circle cx="424.0" cy="317.0" r="4" fill="#19e5a1" /><circle cx="432.0" cy="317.0" r="4" fill="#19e5a1" /><circle cx="440.0" cy="317.0" r="4" fill="#19e5a1" /><circle cx="448.0" cy="317.0" r="4" fill="#19e5a1" /><circle cx="456.0" cy="317.0" r="4" fill="#19e5a1" /><circle cx="464.0" cy="317.0" r="4" fill="#19e5a1" /><circle cx="472.0" cy="317.0" r="4" fill="#19e5a1" /><circle cx="480.0" cy="317.0" r="4" fill="#19e5a1" /><circle cx="488.0" cy="317.0" r="4" fill="#19e5a1" /><circle cx="496.0" cy="317.0" r="4" fill="#19e5a1" /><circle cx="504.0" cy="317.0" r="4" fill="#19e5a1" /><circle cx="512.0" cy="317.0" r="4" fill="#19e5a1" /><circle cx="520.0" cy="317.0" r="4" fill="#19e5a1" /><circle cx="528.0" cy="317.0" r="4" fill="#19e5a1" /><circle cx="536.0" cy="317.0" r="4" fill="#19e5a1" /><circle cx="544.0" cy="317.0" r="4" fill="#19e5a1" /><circle cx="552.0" cy="317.0" r="4" fill="#19e5a1" /><circle cx="560.0" cy="317.0" r="4" fill="#19e5a1" /><circle cx="568.0" cy="317.0" r="4" fill="#19e5a1" /><circle cx="576.0" cy="317.0" r="4" fill="#19e5a1" /><circle cx="584.0" cy="317.0" r="4" fill="#19e5a1" /><circle cx="592.0" cy="317.0" r="4" fill="#19e5a1" /><circle cx="600.0" cy="317.0" r="4" fill="#19e5a1" /><circle cx="608.0" cy="317.0" r="4" fill="#19e5a1" /><circle cx="616.0" cy="317.0" r="4" fill="#19e5a1" /><circle cx="624.0" cy="317.0" r="4" fill="#19e5a1" /><circle cx="632.0" cy="317.0" r="4" fill="#19e5a1" /><circle cx="640.0" cy="317.0" r="4" fill="#19e5a1" /><circle cx="648.0" cy="317.0" r="4" fill="#19e5a1" /><circle cx="656.0" cy="317.0" r="4" fill="#19e5a1" /><circle cx="664.0" cy="317.0" r="4" fill="#19e5a1" /><circle cx="672.0" cy="317.0" r="4" fill="#19e5a1" /><circle cx="680.0" cy="317.0" r="4" fill="#19e5a1" /><circle cx="688.0" cy="317.0" r="4" fill="#19e5a1" /><circle cx="696.0" cy="317.0" r="4" fill="#19e5a1" /><circle cx="704.0" cy="317.0" r="4" fill="#19e5a1" /><circle cx="712.0" cy="317.0" r="4" fill="#19e5a1" /><circle cx="720.0" cy="317.0" r="4" fill="#19e5a1" /><circle cx="728.0" cy="317.0" r="4" fill="#19e5a1" /><circle cx="736.0" cy="317.0" r="4" fill="#19e5a1" /><circle cx="744.0" cy="317.0" r="4" fill="#19e5a1" /><circle cx="752.0" cy="317.0" r="4" fill="#19e5a1" /><circle cx="760.0" cy="317.0" r="4" fill="#19e5a1" /><circle cx="768.0" cy="317.0" r="4" fill="#19e5a1" /><circle cx="776.0" cy="317.0" r="4" fill="#19e5a1" /><circle cx="784.0" cy="317.0" r="4" fill="#19e5a1" /><circle cx="792.0" cy="317.0" r="4" fill="#19e5a1" /><circle cx="800.0" cy="317.0" r="4" fill="#19e5a1" /><circle cx="808.0" cy="317.0" r="4" fill="#19e5a1" /><circle cx="816.0" cy="317.0" r="4" fill="#19e5a1" /><circle cx="824.0" cy="317.0" r="4" fill="#19e5a1" /><circle cx="832.0" cy="317.0" r="4" fill="#19e5a1" /><circle cx="840.0" cy="317.0" r="4" fill="#19e5a1" /><polyline points="80.0,313.2 88.0,312.2 96.0,312.1 104.0,312.4 112.0,312.4 120.0,312.4 128.0,312.1 136.0,312.0 144.0,311.9 152.0,311.9 160.0,311.8 168.0,311.8 176.0,311.5 184.0,311.5 192.0,311.5 200.0,311.2 208.0,311.2 216.0,311.1 224.0,311.1 232.0,311.1 240.0,310.9 248.0,311.0 256.0,310.8 264.0,310.8 272.0,310.8 280.0,310.8 288.0,310.4 296.0,310.2 304.0,310.4 312.0,310.4 320.0,310.4 328.0,310.4 336.0,310.4 344.0,310.2 352.0,310.2 360.0,310.1 368.0,310.1 376.0,309.8 384.0,309.6 392.0,309.6 400.0,309.6 408.0,309.6 416.0,309.5 424.0,309.4 432.0,309.4 440.0,309.4 448.0,309.4 456.0,309.2 464.0,309.2 472.0,309.2 480.0,309.4 488.0,309.4 496.0,309.5 504.0,309.2 512.0,309.2 520.0,309.4 528.0,309.2 536.0,309.2 544.0,309.2 552.0,309.2 560.0,309.2 568.0,309.1 576.0,309.1 584.0,309.1 592.0,309.1 600.0,309.0 608.0,309.0 616.0,308.9 624.0,308.9 632.0,308.9 640.0,308.6 648.0,308.6 656.0,308.6 664.0,308.6 672.0,308.6 680.0,308.6 688.0,308.6 696.0,308.6 704.0,308.6 712.0,308.6 720.0,308.6 728.0,308.6 736.0,308.6 744.0,307.8 752.0,307.8 760.0,307.6 768.0,307.6 776.0,307.6 784.0,307.5 792.0,307.5 800.0,307.6 808.0,308.5 816.0,308.5 824.0,308.4 832.0,308.4 840.0,307.5" fill="none" stroke="#6eb6ec" stroke-width="2.5" stroke-linecap="round" stroke-linejoin="round" /><circle cx="80.0" cy="313.2" r="4" fill="#6eb6ec" /><circle cx="88.0" cy="312.2" r="4" fill="#6eb6ec" /><circle cx="96.0" cy="312.1" r="4" fill="#6eb6ec" /><circle cx="104.0" cy="312.4" r="4" fill="#6eb6ec" /><circle cx="112.0" cy="312.4" r="4" fill="#6eb6ec" /><circle cx="120.0" cy="312.4" r="4" fill="#6eb6ec" /><circle cx="128.0" cy="312.1" r="4" fill="#6eb6ec" /><circle cx="136.0" cy="312.0" r="4" fill="#6eb6ec" /><circle cx="144.0" cy="311.9" r="4" fill="#6eb6ec" /><circle cx="152.0" cy="311.9" r="4" fill="#6eb6ec" /><circle cx="160.0" cy="311.8" r="4" fill="#6eb6ec" /><circle cx="168.0" cy="311.8" r="4" fill="#6eb6ec" /><circle cx="176.0" cy="311.5" r="4" fill="#6eb6ec" /><circle cx="184.0" cy="311.5" r="4" fill="#6eb6ec" /><circle cx="192.0" cy="311.5" r="4" fill="#6eb6ec" /><circle cx="200.0" cy="311.2" r="4" fill="#6eb6ec" /><circle cx="208.0" cy="311.2" r="4" fill="#6eb6ec" /><circle cx="216.0" cy="311.1" r="4" fill="#6eb6ec" /><circle cx="224.0" cy="311.1" r="4" fill="#6eb6ec" /><circle cx="232.0" cy="311.1" r="4" fill="#6eb6ec" /><circle cx="240.0" cy="310.9" r="4" fill="#6eb6ec" /><circle cx="248.0" cy="311.0" r="4" fill="#6eb6ec" /><circle cx="256.0" cy="310.8" r="4" fill="#6eb6ec" /><circle cx="264.0" cy="310.8" r="4" fill="#6eb6ec" /><circle cx="272.0" cy="310.8" r="4" fill="#6eb6ec" /><circle cx="280.0" cy="310.8" r="4" fill="#6eb6ec" /><circle cx="288.0" cy="310.4" r="4" fill="#6eb6ec" /><circle cx="296.0" cy="310.2" r="4" fill="#6eb6ec" /><circle cx="304.0" cy="310.4" r="4" fill="#6eb6ec" /><circle cx="312.0" cy="310.4" r="4" fill="#6eb6ec" /><circle cx="320.0" cy="310.4" r="4" fill="#6eb6ec" /><circle cx="328.0" cy="310.4" r="4" fill="#6eb6ec" /><circle cx="336.0" cy="310.4" r="4" fill="#6eb6ec" /><circle cx="344.0" cy="310.2" r="4" fill="#6eb6ec" /><circle cx="352.0" cy="310.2" r="4" fill="#6eb6ec" /><circle cx="360.0" cy="310.1" r="4" fill="#6eb6ec" /><circle cx="368.0" cy="310.1" r="4" fill="#6eb6ec" /><circle cx="376.0" cy="309.8" r="4" fill="#6eb6ec" /><circle cx="384.0" cy="309.6" r="4" fill="#6eb6ec" /><circle cx="392.0" cy="309.6" r="4" fill="#6eb6ec" /><circle cx="400.0" cy="309.6" r="4" fill="#6eb6ec" /><circle cx="408.0" cy="309.6" r="4" fill="#6eb6ec" /><circle cx="416.0" cy="309.5" r="4" fill="#6eb6ec" /><circle cx="424.0" cy="309.4" r="4" fill="#6eb6ec" /><circle cx="432.0" cy="309.4" r="4" fill="#6eb6ec" /><circle cx="440.0" cy="309.4" r="4" fill="#6eb6ec" /><circle cx="448.0" cy="309.4" r="4" fill="#6eb6ec" /><circle cx="456.0" cy="309.2" r="4" fill="#6eb6ec" /><circle cx="464.0" cy="309.2" r="4" fill="#6eb6ec" /><circle cx="472.0" cy="309.2" r="4" fill="#6eb6ec" /><circle cx="480.0" cy="309.4" r="4" fill="#6eb6ec" /><circle cx="488.0" cy="309.4" r="4" fill="#6eb6ec" /><circle cx="496.0" cy="309.5" r="4" fill="#6eb6ec" /><circle cx="504.0" cy="309.2" r="4" fill="#6eb6ec" /><circle cx="512.0" cy="309.2" r="4" fill="#6eb6ec" /><circle cx="520.0" cy="309.4" r="4" fill="#6eb6ec" /><circle cx="528.0" cy="309.2" r="4" fill="#6eb6ec" /><circle cx="536.0" cy="309.2" r="4" fill="#6eb6ec" /><circle cx="544.0" cy="309.2" r="4" fill="#6eb6ec" /><circle cx="552.0" cy="309.2" r="4" fill="#6eb6ec" /><circle cx="560.0" cy="309.2" r="4" fill="#6eb6ec" /><circle cx="568.0" cy="309.1" r="4" fill="#6eb6ec" /><circle cx="576.0" cy="309.1" r="4" fill="#6eb6ec" /><circle cx="584.0" cy="309.1" r="4" fill="#6eb6ec" /><circle cx="592.0" cy="309.1" r="4" fill="#6eb6ec" /><circle cx="600.0" cy="309.0" r="4" fill="#6eb6ec" /><circle cx="608.0" cy="309.0" r="4" fill="#6eb6ec" /><circle cx="616.0" cy="308.9" r="4" fill="#6eb6ec" /><circle cx="624.0" cy="308.9" r="4" fill="#6eb6ec" /><circle cx="632.0" cy="308.9" r="4" fill="#6eb6ec" /><circle cx="640.0" cy="308.6" r="4" fill="#6eb6ec" /><circle cx="648.0" cy="308.6" r="4" fill="#6eb6ec" /><circle cx="656.0" cy="308.6" r="4" fill="#6eb6ec" /><circle cx="664.0" cy="308.6" r="4" fill="#6eb6ec" /><circle cx="672.0" cy="308.6" r="4" fill="#6eb6ec" /><circle cx="680.0" cy="308.6" r="4" fill="#6eb6ec" /><circle cx="688.0" cy="308.6" r="4" fill="#6eb6ec" /><circle cx="696.0" cy="308.6" r="4" fill="#6eb6ec" /><circle cx="704.0" cy="308.6" r="4" fill="#6eb6ec" /><circle cx="712.0" cy="308.6" r="4" fill="#6eb6ec" /><circle cx="720.0" cy="308.6" r="4" fill="#6eb6ec" /><circle cx="728.0" cy="308.6" r="4" fill="#6eb6ec" /><circle cx="736.0" cy="308.6" r="4" fill="#6eb6ec" /><circle cx="744.0" cy="307.8" r="4" fill="#6eb6ec" /><circle cx="752.0" cy="307.8" r="4" fill="#6eb6ec" /><circle cx="760.0" cy="307.6" r="4" fill="#6eb6ec" /><circle cx="768.0" cy="307.6" r="4" fill="#6eb6ec" /><circle cx="776.0" cy="307.6" r="4" fill="#6eb6ec" /><circle cx="784.0" cy="307.5" r="4" fill="#6eb6ec" /><circle cx="792.0" cy="307.5" r="4" fill="#6eb6ec" /><circle cx="800.0" cy="307.6" r="4" fill="#6eb6ec" /><circle cx="808.0" cy="308.5" r="4" fill="#6eb6ec" /><circle cx="816.0" cy="308.5" r="4" fill="#6eb6ec" /><circle cx="824.0" cy="308.4" r="4" fill="#6eb6ec" /><circle cx="832.0" cy="308.4" r="4" fill="#6eb6ec" /><circle cx="840.0" cy="307.5" r="4" fill="#6eb6ec" /><polyline points="80.0,305.8 88.0,305.8 96.0,305.8 104.0,305.8 112.0,305.8 120.0,305.8 128.0,305.8 136.0,305.8 144.0,305.8 152.0,305.8 160.0,304.9 168.0,304.9 176.0,304.9 184.0,304.9 192.0,304.9 200.0,304.9 208.0,304.9 216.0,304.9 224.0,304.9 232.0,304.9 240.0,304.9 248.0,304.9 256.0,304.9 264.0,304.9 272.0,304.9 280.0,304.9 288.0,304.9 296.0,304.9 304.0,304.9 312.0,304.9 320.0,304.9 328.0,304.9 336.0,304.9 344.0,304.9 352.0,304.9 360.0,304.9 368.0,304.9 376.0,303.6 384.0,303.6 392.0,303.6 400.0,303.6 408.0,303.6 416.0,303.6 424.0,303.6 432.0,303.6 440.0,303.6 448.0,303.6 456.0,303.6 464.0,303.6 472.0,303.6 480.0,303.6 488.0,302.9 496.0,302.9 504.0,298.0 512.0,298.0 520.0,298.0 528.0,298.0 536.0,298.0 544.0,298.0 552.0,298.0 560.0,298.0 568.0,298.0 576.0,298.0 584.0,298.0 592.0,298.0 600.0,298.0 608.0,298.0 616.0,297.8 624.0,297.8 632.0,297.8 640.0,297.8 648.0,297.8 656.0,297.8 664.0,297.8 672.0,297.8 680.0,297.8 688.0,297.8 696.0,297.8 704.0,297.8 712.0,297.8 720.0,297.8 728.0,297.8 736.0,297.8 744.0,297.8 752.0,297.8 760.0,297.8 768.0,297.6 776.0,297.8 784.0,297.8 792.0,297.8 800.0,297.9 808.0,297.9 816.0,297.9 824.0,296.1 832.0,296.1 840.0,296.1" fill="none" stroke="#5938e2" stroke-width="2.5" stroke-linecap="round" stroke-linejoin="round" /><circle cx="80.0" cy="305.8" r="4" fill="#5938e2" /><circle cx="88.0" cy="305.8" r="4" fill="#5938e2" /><circle cx="96.0" cy="305.8" r="4" fill="#5938e2" /><circle cx="104.0" cy="305.8" r="4" fill="#5938e2" /><circle cx="112.0" cy="305.8" r="4" fill="#5938e2" /><circle cx="120.0" cy="305.8" r="4" fill="#5938e2" /><circle cx="128.0" cy="305.8" r="4" fill="#5938e2" /><circle cx="136.0" cy="305.8" r="4" fill="#5938e2" /><circle cx="144.0" cy="305.8" r="4" fill="#5938e2" /><circle cx="152.0" cy="305.8" r="4" fill="#5938e2" /><circle cx="160.0" cy="304.9" r="4" fill="#5938e2" /><circle cx="168.0" cy="304.9" r="4" fill="#5938e2" /><circle cx="176.0" cy="304.9" r="4" fill="#5938e2" /><circle cx="184.0" cy="304.9" r="4" fill="#5938e2" /><circle cx="192.0" cy="304.9" r="4" fill="#5938e2" /><circle cx="200.0" cy="304.9" r="4" fill="#5938e2" /><circle cx="208.0" cy="304.9" r="4" fill="#5938e2" /><circle cx="216.0" cy="304.9" r="4" fill="#5938e2" /><circle cx="224.0" cy="304.9" r="4" fill="#5938e2" /><circle cx="232.0" cy="304.9" r="4" fill="#5938e2" /><circle cx="240.0" cy="304.9" r="4" fill="#5938e2" /><circle cx="248.0" cy="304.9" r="4" fill="#5938e2" /><circle cx="256.0" cy="304.9" r="4" fill="#5938e2" /><circle cx="264.0" cy="304.9" r="4" fill="#5938e2" /><circle cx="272.0" cy="304.9" r="4" fill="#5938e2" /><circle cx="280.0" cy="304.9" r="4" fill="#5938e2" /><circle cx="288.0" cy="304.9" r="4" fill="#5938e2" /><circle cx="296.0" cy="304.9" r="4" fill="#5938e2" /><circle cx="304.0" cy="304.9" r="4" fill="#5938e2" /><circle cx="312.0" cy="304.9" r="4" fill="#5938e2" /><circle cx="320.0" cy="304.9" r="4" fill="#5938e2" /><circle cx="328.0" cy="304.9" r="4" fill="#5938e2" /><circle cx="336.0" cy="304.9" r="4" fill="#5938e2" /><circle cx="344.0" cy="304.9" r="4" fill="#5938e2" /><circle cx="352.0" cy="304.9" r="4" fill="#5938e2" /><circle cx="360.0" cy="304.9" r="4" fill="#5938e2" /><circle cx="368.0" cy="304.9" r="4" fill="#5938e2" /><circle cx="376.0" cy="303.6" r="4" fill="#5938e2" /><circle cx="384.0" cy="303.6" r="4" fill="#5938e2" /><circle cx="392.0" cy="303.6" r="4" fill="#5938e2" /><circle cx="400.0" cy="303.6" r="4" fill="#5938e2" /><circle cx="408.0" cy="303.6" r="4" fill="#5938e2" /><circle cx="416.0" cy="303.6" r="4" fill="#5938e2" /><circle cx="424.0" cy="303.6" r="4" fill="#5938e2" /><circle cx="432.0" cy="303.6" r="4" fill="#5938e2" /><circle cx="440.0" cy="303.6" r="4" fill="#5938e2" /><circle cx="448.0" cy="303.6" r="4" fill="#5938e2" /><circle cx="456.0" cy="303.6" r="4" fill="#5938e2" /><circle cx="464.0" cy="303.6" r="4" fill="#5938e2" /><circle cx="472.0" cy="303.6" r="4" fill="#5938e2" /><circle cx="480.0" cy="303.6" r="4" fill="#5938e2" /><circle cx="488.0" cy="302.9" r="4" fill="#5938e2" /><circle cx="496.0" cy="302.9" r="4" fill="#5938e2" /><circle cx="504.0" cy="298.0" r="4" fill="#5938e2" /><circle cx="512.0" cy="298.0" r="4" fill="#5938e2" /><circle cx="520.0" cy="298.0" r="4" fill="#5938e2" /><circle cx="528.0" cy="298.0" r="4" fill="#5938e2" /><circle cx="536.0" cy="298.0" r="4" fill="#5938e2" /><circle cx="544.0" cy="298.0" r="4" fill="#5938e2" /><circle cx="552.0" cy="298.0" r="4" fill="#5938e2" /><circle cx="560.0" cy="298.0" r="4" fill="#5938e2" /><circle cx="568.0" cy="298.0" r="4" fill="#5938e2" /><circle cx="576.0" cy="298.0" r="4" fill="#5938e2" /><circle cx="584.0" cy="298.0" r="4" fill="#5938e2" /><circle cx="592.0" cy="298.0" r="4" fill="#5938e2" /><circle cx="600.0" cy="298.0" r="4" fill="#5938e2" /><circle cx="608.0" cy="298.0" r="4" fill="#5938e2" /><circle cx="616.0" cy="297.8" r="4" fill="#5938e2" /><circle cx="624.0" cy="297.8" r="4" fill="#5938e2" /><circle cx="632.0" cy="297.8" r="4" fill="#5938e2" /><circle cx="640.0" cy="297.8" r="4" fill="#5938e2" /><circle cx="648.0" cy="297.8" r="4" fill="#5938e2" /><circle cx="656.0" cy="297.8" r="4" fill="#5938e2" /><circle cx="664.0" cy="297.8" r="4" fill="#5938e2" /><circle cx="672.0" cy="297.8" r="4" fill="#5938e2" /><circle cx="680.0" cy="297.8" r="4" fill="#5938e2" /><circle cx="688.0" cy="297.8" r="4" fill="#5938e2" /><circle cx="696.0" cy="297.8" r="4" fill="#5938e2" /><circle cx="704.0" cy="297.8" r="4" fill="#5938e2" /><circle cx="712.0" cy="297.8" r="4" fill="#5938e2" /><circle cx="720.0" cy="297.8" r="4" fill="#5938e2" /><circle cx="728.0" cy="297.8" r="4" fill="#5938e2" /><circle cx="736.0" cy="297.8" r="4" fill="#5938e2" /><circle cx="744.0" cy="297.8" r="4" fill="#5938e2" /><circle cx="752.0" cy="297.8" r="4" fill="#5938e2" /><circle cx="760.0" cy="297.8" r="4" fill="#5938e2" /><circle cx="768.0" cy="297.6" r="4" fill="#5938e2" /><circle cx="776.0" cy="297.8" r="4" fill="#5938e2" /><circle cx="784.0" cy="297.8" r="4" fill="#5938e2" /><circle cx="792.0" cy="297.8" r="4" fill="#5938e2" /><circle cx="800.0" cy="297.9" r="4" fill="#5938e2" /><circle cx="808.0" cy="297.9" r="4" fill="#5938e2" /><circle cx="816.0" cy="297.9" r="4" fill="#5938e2" /><circle cx="824.0" cy="296.1" r="4" fill="#5938e2" /><circle cx="832.0" cy="296.1" r="4" fill="#5938e2" /><circle cx="840.0" cy="296.1" r="4" fill="#5938e2" /><polyline points="80.0,144.6 88.0,140.1 96.0,139.9 104.0,139.8 112.0,139.8 120.0,139.6 128.0,139.6 136.0,139.6 144.0,139.6 152.0,139.6 160.0,138.4 168.0,138.4 176.0,138.4 184.0,138.4 192.0,138.4 200.0,138.4 208.0,138.4 216.0,137.4 224.0,137.4 232.0,137.4 240.0,137.4 248.0,137.4 256.0,137.4 264.0,137.4 272.0,137.4 280.0,137.4 288.0,137.4 296.0,137.4 304.0,131.2 312.0,131.2 320.0,130.8 328.0,130.4 336.0,126.9 344.0,126.9 352.0,126.9 360.0,126.9 368.0,126.9 376.0,126.9 384.0,126.9 392.0,126.9 400.0,126.9 408.0,126.8 416.0,122.1 424.0,120.4 432.0,120.4 440.0,120.4 448.0,120.4 456.0,120.4 464.0,119.4 472.0,119.4 480.0,119.4 488.0,119.4 496.0,119.1 504.0,118.8 512.0,118.8 520.0,117.8 528.0,117.8 536.0,117.8 544.0,115.8 552.0,115.8 560.0,115.0 568.0,115.0 576.0,115.0 584.0,115.0 592.0,115.0 600.0,115.0 608.0,115.0 616.0,113.9 624.0,111.8 632.0,111.8 640.0,111.8 648.0,111.8 656.0,111.8 664.0,111.8 672.0,111.8 680.0,111.8 688.0,111.8 696.0,111.8 704.0,110.6 712.0,110.6 720.0,110.6 728.0,110.6 736.0,110.6 744.0,109.4 752.0,109.4 760.0,109.4 768.0,109.4 776.0,109.2 784.0,109.2 792.0,109.2 800.0,109.2 808.0,109.2 816.0,109.2 824.0,109.2 832.0,109.2 840.0,109.2" fill="none" stroke="#60e5e0" stroke-width="2.5" stroke-linecap="round" stroke-linejoin="round" /><circle cx="80.0" cy="144.6" r="4" fill="#60e5e0" /><circle cx="88.0" cy="140.1" r="4" fill="#60e5e0" /><circle cx="96.0" cy="139.9" r="4" fill="#60e5e0" /><circle cx="104.0" cy="139.8" r="4" fill="#60e5e0" /><circle cx="112.0" cy="139.8" r="4" fill="#60e5e0" /><circle cx="120.0" cy="139.6" r="4" fill="#60e5e0" /><circle cx="128.0" cy="139.6" r="4" fill="#60e5e0" /><circle cx="136.0" cy="139.6" r="4" fill="#60e5e0" /><circle cx="144.0" cy="139.6" r="4" fill="#60e5e0" /><circle cx="152.0" cy="139.6" r="4" fill="#60e5e0" /><circle cx="160.0" cy="138.4" r="4" fill="#60e5e0" /><circle cx="168.0" cy="138.4" r="4" fill="#60e5e0" /><circle cx="176.0" cy="138.4" r="4" fill="#60e5e0" /><circle cx="184.0" cy="138.4" r="4" fill="#60e5e0" /><circle cx="192.0" cy="138.4" r="4" fill="#60e5e0" /><circle cx="200.0" cy="138.4" r="4" fill="#60e5e0" /><circle cx="208.0" cy="138.4" r="4" fill="#60e5e0" /><circle cx="216.0" cy="137.4" r="4" fill="#60e5e0" /><circle cx="224.0" cy="137.4" r="4" fill="#60e5e0" /><circle cx="232.0" cy="137.4" r="4" fill="#60e5e0" /><circle cx="240.0" cy="137.4" r="4" fill="#60e5e0" /><circle cx="248.0" cy="137.4" r="4" fill="#60e5e0" /><circle cx="256.0" cy="137.4" r="4" fill="#60e5e0" /><circle cx="264.0" cy="137.4" r="4" fill="#60e5e0" /><circle cx="272.0" cy="137.4" r="4" fill="#60e5e0" /><circle cx="280.0" cy="137.4" r="4" fill="#60e5e0" /><circle cx="288.0" cy="137.4" r="4" fill="#60e5e0" /><circle cx="296.0" cy="137.4" r="4" fill="#60e5e0" /><circle cx="304.0" cy="131.2" r="4" fill="#60e5e0" /><circle cx="312.0" cy="131.2" r="4" fill="#60e5e0" /><circle cx="320.0" cy="130.8" r="4" fill="#60e5e0" /><circle cx="328.0" cy="130.4" r="4" fill="#60e5e0" /><circle cx="336.0" cy="126.9" r="4" fill="#60e5e0" /><circle cx="344.0" cy="126.9" r="4" fill="#60e5e0" /><circle cx="352.0" cy="126.9" r="4" fill="#60e5e0" /><circle cx="360.0" cy="126.9" r="4" fill="#60e5e0" /><circle cx="368.0" cy="126.9" r="4" fill="#60e5e0" /><circle cx="376.0" cy="126.9" r="4" fill="#60e5e0" /><circle cx="384.0" cy="126.9" r="4" fill="#60e5e0" /><circle cx="392.0" cy="126.9" r="4" fill="#60e5e0" /><circle cx="400.0" cy="126.9" r="4" fill="#60e5e0" /><circle cx="408.0" cy="126.8" r="4" fill="#60e5e0" /><circle cx="416.0" cy="122.1" r="4" fill="#60e5e0" /><circle cx="424.0" cy="120.4" r="4" fill="#60e5e0" /><circle cx="432.0" cy="120.4" r="4" fill="#60e5e0" /><circle cx="440.0" cy="120.4" r="4" fill="#60e5e0" /><circle cx="448.0" cy="120.4" r="4" fill="#60e5e0" /><circle cx="456.0" cy="120.4" r="4" fill="#60e5e0" /><circle cx="464.0" cy="119.4" r="4" fill="#60e5e0" /><circle cx="472.0" cy="119.4" r="4" fill="#60e5e0" /><circle cx="480.0" cy="119.4" r="4" fill="#60e5e0" /><circle cx="488.0" cy="119.4" r="4" fill="#60e5e0" /><circle cx="496.0" cy="119.1" r="4" fill="#60e5e0" /><circle cx="504.0" cy="118.8" r="4" fill="#60e5e0" /><circle cx="512.0" cy="118.8" r="4" fill="#60e5e0" /><circle cx="520.0" cy="117.8" r="4" fill="#60e5e0" /><circle cx="528.0" cy="117.8" r="4" fill="#60e5e0" /><circle cx="536.0" cy="117.8" r="4" fill="#60e5e0" /><circle cx="544.0" cy="115.8" r="4" fill="#60e5e0" /><circle cx="552.0" cy="115.8" r="4" fill="#60e5e0" /><circle cx="560.0" cy="115.0" r="4" fill="#60e5e0" /><circle cx="568.0" cy="115.0" r="4" fill="#60e5e0" /><circle cx="576.0" cy="115.0" r="4" fill="#60e5e0" /><circle cx="584.0" cy="115.0" r="4" fill="#60e5e0" /><circle cx="592.0" cy="115.0" r="4" fill="#60e5e0" /><circle cx="600.0" cy="115.0" r="4" fill="#60e5e0" /><circle cx="608.0" cy="115.0" r="4" fill="#60e5e0" /><circle cx="616.0" cy="113.9" r="4" fill="#60e5e0" /><circle cx="624.0" cy="111.8" r="4" fill="#60e5e0" /><circle cx="632.0" cy="111.8" r="4" fill="#60e5e0" /><circle cx="640.0" cy="111.8" r="4" fill="#60e5e0" /><circle cx="648.0" cy="111.8" r="4" fill="#60e5e0" /><circle cx="656.0" cy="111.8" r="4" fill="#60e5e0" /><circle cx="664.0" cy="111.8" r="4" fill="#60e5e0" /><circle cx="672.0" cy="111.8" r="4" fill="#60e5e0" /><circle cx="680.0" cy="111.8" r="4" fill="#60e5e0" /><circle cx="688.0" cy="111.8" r="4" fill="#60e5e0" /><circle cx="696.0" cy="111.8" r="4" fill="#60e5e0" /><circle cx="704.0" cy="110.6" r="4" fill="#60e5e0" /><circle cx="712.0" cy="110.6" r="4" fill="#60e5e0" /><circle cx="720.0" cy="110.6" r="4" fill="#60e5e0" /><circle cx="728.0" cy="110.6" r="4" fill="#60e5e0" /><circle cx="736.0" cy="110.6" r="4" fill="#60e5e0" /><circle cx="744.0" cy="109.4" r="4" fill="#60e5e0" /><circle cx="752.0" cy="109.4" r="4" fill="#60e5e0" /><circle cx="760.0" cy="109.4" r="4" fill="#60e5e0" /><circle cx="768.0" cy="109.4" r="4" fill="#60e5e0" /><circle cx="776.0" cy="109.2" r="4" fill="#60e5e0" /><circle cx="784.0" cy="109.2" r="4" fill="#60e5e0" /><circle cx="792.0" cy="109.2" r="4" fill="#60e5e0" /><circle cx="800.0" cy="109.2" r="4" fill="#60e5e0" /><circle cx="808.0" cy="109.2" r="4" fill="#60e5e0" /><circle cx="816.0" cy="109.2" r="4" fill="#60e5e0" /><circle cx="824.0" cy="109.2" r="4" fill="#60e5e0" /><circle cx="832.0" cy="109.2" r="4" fill="#60e5e0" /><circle cx="840.0" cy="109.2" r="4" fill="#60e5e0" /><polyline points="80.0,314.6 88.0,314.4 96.0,314.2 104.0,314.2 112.0,314.2 120.0,314.1 128.0,314.1 136.0,314.1 144.0,314.1 152.0,314.1 160.0,314.0 168.0,314.0 176.0,314.0 184.0,314.0 192.0,314.0 200.0,314.0 208.0,314.0 216.0,314.0 224.0,314.0 232.0,314.0 240.0,314.0 248.0,314.0 256.0,314.0 264.0,314.0 272.0,314.0 280.0,314.0 288.0,314.0 296.0,314.0 304.0,314.0 312.0,314.0 320.0,314.0 328.0,314.0 336.0,314.0 344.0,314.0 352.0,314.0 360.0,314.0 368.0,314.0 376.0,314.0 384.0,314.0 392.0,314.0 400.0,314.0 408.0,313.9 416.0,313.6 424.0,313.4 432.0,313.4 440.0,313.4 448.0,313.4 456.0,313.4 464.0,313.1 472.0,313.1 480.0,313.1 488.0,313.1 496.0,313.1 504.0,313.0 512.0,313.0 520.0,312.9 528.0,312.9 536.0,312.9 544.0,312.8 552.0,312.8 560.0,312.6 568.0,312.6 576.0,312.6 584.0,312.6 592.0,312.6 600.0,312.6 608.0,312.6 616.0,312.5 624.0,312.1 632.0,312.1 640.0,312.1 648.0,312.1 656.0,312.1 664.0,312.1 672.0,312.1 680.0,312.1 688.0,312.1 696.0,312.1 704.0,312.0 712.0,312.0 720.0,312.0 728.0,312.0 736.0,312.0 744.0,312.0 752.0,312.0 760.0,312.0 768.0,312.0 776.0,312.0 784.0,312.0 792.0,312.0 800.0,312.0 808.0,312.0 816.0,312.0 824.0,312.0 832.0,312.0 840.0,312.0" fill="none" stroke="#567de1" stroke-width="2.5" stroke-linecap="round" stroke-linejoin="round" /><circle cx="80.0" cy="314.6" r="4" fill="#567de1" /><circle cx="88.0" cy="314.4" r="4" fill="#567de1" /><circle cx="96.0" cy="314.2" r="4" fill="#567de1" /><circle cx="104.0" cy="314.2" r="4" fill="#567de1" /><circle cx="112.0" cy="314.2" r="4" fill="#567de1" /><circle cx="120.0" cy="314.1" r="4" fill="#567de1" /><circle cx="128.0" cy="314.1" r="4" fill="#567de1" /><circle cx="136.0" cy="314.1" r="4" fill="#567de1" /><circle cx="144.0" cy="314.1" r="4" fill="#567de1" /><circle cx="152.0" cy="314.1" r="4" fill="#567de1" /><circle cx="160.0" cy="314.0" r="4" fill="#567de1" /><circle cx="168.0" cy="314.0" r="4" fill="#567de1" /><circle cx="176.0" cy="314.0" r="4" fill="#567de1" /><circle cx="184.0" cy="314.0" r="4" fill="#567de1" /><circle cx="192.0" cy="314.0" r="4" fill="#567de1" /><circle cx="200.0" cy="314.0" r="4" fill="#567de1" /><circle cx="208.0" cy="314.0" r="4" fill="#567de1" /><circle cx="216.0" cy="314.0" r="4" fill="#567de1" /><circle cx="224.0" cy="314.0" r="4" fill="#567de1" /><circle cx="232.0" cy="314.0" r="4" fill="#567de1" /><circle cx="240.0" cy="314.0" r="4" fill="#567de1" /><circle cx="248.0" cy="314.0" r="4" fill="#567de1" /><circle cx="256.0" cy="314.0" r="4" fill="#567de1" /><circle cx="264.0" cy="314.0" r="4" fill="#567de1" /><circle cx="272.0" cy="314.0" r="4" fill="#567de1" /><circle cx="280.0" cy="314.0" r="4" fill="#567de1" /><circle cx="288.0" cy="314.0" r="4" fill="#567de1" /><circle cx="296.0" cy="314.0" r="4" fill="#567de1" /><circle cx="304.0" cy="314.0" r="4" fill="#567de1" /><circle cx="312.0" cy="314.0" r="4" fill="#567de1" /><circle cx="320.0" cy="314.0" r="4" fill="#567de1" /><circle cx="328.0" cy="314.0" r="4" fill="#567de1" /><circle cx="336.0" cy="314.0" r="4" fill="#567de1" /><circle cx="344.0" cy="314.0" r="4" fill="#567de1" /><circle cx="352.0" cy="314.0" r="4" fill="#567de1" /><circle cx="360.0" cy="314.0" r="4" fill="#567de1" /><circle cx="368.0" cy="314.0" r="4" fill="#567de1" /><circle cx="376.0" cy="314.0" r="4" fill="#567de1" /><circle cx="384.0" cy="314.0" r="4" fill="#567de1" /><circle cx="392.0" cy="314.0" r="4" fill="#567de1" /><circle cx="400.0" cy="314.0" r="4" fill="#567de1" /><circle cx="408.0" cy="313.9" r="4" fill="#567de1" /><circle cx="416.0" cy="313.6" r="4" fill="#567de1" /><circle cx="424.0" cy="313.4" r="4" fill="#567de1" /><circle cx="432.0" cy="313.4" r="4" fill="#567de1" /><circle cx="440.0" cy="313.4" r="4" fill="#567de1" /><circle cx="448.0" cy="313.4" r="4" fill="#567de1" /><circle cx="456.0" cy="313.4" r="4" fill="#567de1" /><circle cx="464.0" cy="313.1" r="4" fill="#567de1" /><circle cx="472.0" cy="313.1" r="4" fill="#567de1" /><circle cx="480.0" cy="313.1" r="4" fill="#567de1" /><circle cx="488.0" cy="313.1" r="4" fill="#567de1" /><circle cx="496.0" cy="313.1" r="4" fill="#567de1" /><circle cx="504.0" cy="313.0" r="4" fill="#567de1" /><circle cx="512.0" cy="313.0" r="4" fill="#567de1" /><circle cx="520.0" cy="312.9" r="4" fill="#567de1" /><circle cx="528.0" cy="312.9" r="4" fill="#567de1" /><circle cx="536.0" cy="312.9" r="4" fill="#567de1" /><circle cx="544.0" cy="312.8" r="4" fill="#567de1" /><circle cx="552.0" cy="312.8" r="4" fill="#567de1" /><circle cx="560.0" cy="312.6" r="4" fill="#567de1" /><circle cx="568.0" cy="312.6" r="4" fill="#567de1" /><circle cx="576.0" cy="312.6" r="4" fill="#567de1" /><circle cx="584.0" cy="312.6" r="4" fill="#567de1" /><circle cx="592.0" cy="312.6" r="4" fill="#567de1" /><circle cx="600.0" cy="312.6" r="4" fill="#567de1" /><circle cx="608.0" cy="312.6" r="4" fill="#567de1" /><circle cx="616.0" cy="312.5" r="4" fill="#567de1" /><circle cx="624.0" cy="312.1" r="4" fill="#567de1" /><circle cx="632.0" cy="312.1" r="4" fill="#567de1" /><circle cx="640.0" cy="312.1" r="4" fill="#567de1" /><circle cx="648.0" cy="312.1" r="4" fill="#567de1" /><circle cx="656.0" cy="312.1" r="4" fill="#567de1" /><circle cx="664.0" cy="312.1" r="4" fill="#567de1" /><circle cx="672.0" cy="312.1" r="4" fill="#567de1" /><circle cx="680.0" cy="312.1" r="4" fill="#567de1" /><circle cx="688.0" cy="312.1" r="4" fill="#567de1" /><circle cx="696.0" cy="312.1" r="4" fill="#567de1" /><circle cx="704.0" cy="312.0" r="4" fill="#567de1" /><circle cx="712.0" cy="312.0" r="4" fill="#567de1" /><circle cx="720.0" cy="312.0" r="4" fill="#567de1" /><circle cx="728.0" cy="312.0" r="4" fill="#567de1" /><circle cx="736.0" cy="312.0" r="4" fill="#567de1" /><circle cx="744.0" cy="312.0" r="4" fill="#567de1" /><circle cx="752.0" cy="312.0" r="4" fill="#567de1" /><circle cx="760.0" cy="312.0" r="4" fill="#567de1" /><circle cx="768.0" cy="312.0" r="4" fill="#567de1" /><circle cx="776.0" cy="312.0" r="4" fill="#567de1" /><circle cx="784.0" cy="312.0" r="4" fill="#567de1" /><circle cx="792.0" cy="312.0" r="4" fill="#567de1" /><circle cx="800.0" cy="312.0" r="4" fill="#567de1" /><circle cx="808.0" cy="312.0" r="4" fill="#567de1" /><circle cx="816.0" cy="312.0" r="4" fill="#567de1" /><circle cx="824.0" cy="312.0" r="4" fill="#567de1" /><circle cx="832.0" cy="312.0" r="4" fill="#567de1" /><circle cx="840.0" cy="312.0" r="4" fill="#567de1" /><polyline points="80.0,303.9 88.0,304.2 96.0,304.4 104.0,304.4 112.0,304.4 120.0,304.4 128.0,304.4 136.0,304.4 144.0,304.4 152.0,304.4 160.0,304.4 168.0,304.4 176.0,304.4 184.0,304.4 192.0,304.4 200.0,304.4 208.0,304.4 216.0,304.4 224.0,304.4 232.0,304.4 240.0,304.4 248.0,304.4 256.0,304.4 264.0,304.4 272.0,304.4 280.0,304.4 288.0,304.4 296.0,304.4 304.0,299.1 312.0,299.1 320.0,299.1 328.0,298.9 336.0,295.6 344.0,295.6 352.0,295.6 360.0,295.6 368.0,295.6 376.0,295.6 384.0,295.6 392.0,295.6 400.0,295.6 408.0,295.8 416.0,295.9 424.0,295.9 432.0,295.9 440.0,295.9 448.0,295.9 456.0,295.9 464.0,295.9 472.0,295.9 480.0,295.9 488.0,295.9 496.0,295.9 504.0,295.9 512.0,295.9 520.0,295.9 528.0,295.9 536.0,295.9 544.0,295.8 552.0,295.8 560.0,295.9 568.0,295.9 576.0,295.9 584.0,295.9 592.0,295.9 600.0,295.9 608.0,295.9 616.0,296.0 624.0,296.4 632.0,296.4 640.0,296.4 648.0,296.4 656.0,296.4 664.0,296.4 672.0,296.4 680.0,296.4 688.0,296.4 696.0,296.4 704.0,296.5 712.0,296.5 720.0,296.5 728.0,296.5 736.0,296.5 744.0,296.5 752.0,296.5 760.0,296.5 768.0,296.5 776.0,296.5 784.0,296.5 792.0,296.5 800.0,296.5 808.0,296.5 816.0,296.5 824.0,296.5 832.0,296.5 840.0,296.5" fill="none" stroke="#9754dd" stroke-width="2.5" stroke-linecap="round" stroke-linejoin="round" /><circle cx="80.0" cy="303.9" r="4" fill="#9754dd" /><circle cx="88.0" cy="304.2" r="4" fill="#9754dd" /><circle cx="96.0" cy="304.4" r="4" fill="#9754dd" /><circle cx="104.0" cy="304.4" r="4" fill="#9754dd" /><circle cx="112.0" cy="304.4" r="4" fill="#9754dd" /><circle cx="120.0" cy="304.4" r="4" fill="#9754dd" /><circle cx="128.0" cy="304.4" r="4" fill="#9754dd" /><circle cx="136.0" cy="304.4" r="4" fill="#9754dd" /><circle cx="144.0" cy="304.4" r="4" fill="#9754dd" /><circle cx="152.0" cy="304.4" r="4" fill="#9754dd" /><circle cx="160.0" cy="304.4" r="4" fill="#9754dd" /><circle cx="168.0" cy="304.4" r="4" fill="#9754dd" /><circle cx="176.0" cy="304.4" r="4" fill="#9754dd" /><circle cx="184.0" cy="304.4" r="4" fill="#9754dd" /><circle cx="192.0" cy="304.4" r="4" fill="#9754dd" /><circle cx="200.0" cy="304.4" r="4" fill="#9754dd" /><circle cx="208.0" cy="304.4" r="4" fill="#9754dd" /><circle cx="216.0" cy="304.4" r="4" fill="#9754dd" /><circle cx="224.0" cy="304.4" r="4" fill="#9754dd" /><circle cx="232.0" cy="304.4" r="4" fill="#9754dd" /><circle cx="240.0" cy="304.4" r="4" fill="#9754dd" /><circle cx="248.0" cy="304.4" r="4" fill="#9754dd" /><circle cx="256.0" cy="304.4" r="4" fill="#9754dd" /><circle cx="264.0" cy="304.4" r="4" fill="#9754dd" /><circle cx="272.0" cy="304.4" r="4" fill="#9754dd" /><circle cx="280.0" cy="304.4" r="4" fill="#9754dd" /><circle cx="288.0" cy="304.4" r="4" fill="#9754dd" /><circle cx="296.0" cy="304.4" r="4" fill="#9754dd" /><circle cx="304.0" cy="299.1" r="4" fill="#9754dd" /><circle cx="312.0" cy="299.1" r="4" fill="#9754dd" /><circle cx="320.0" cy="299.1" r="4" fill="#9754dd" /><circle cx="328.0" cy="298.9" r="4" fill="#9754dd" /><circle cx="336.0" cy="295.6" r="4" fill="#9754dd" /><circle cx="344.0" cy="295.6" r="4" fill="#9754dd" /><circle cx="352.0" cy="295.6" r="4" fill="#9754dd" /><circle cx="360.0" cy="295.6" r="4" fill="#9754dd" /><circle cx="368.0" cy="295.6" r="4" fill="#9754dd" /><circle cx="376.0" cy="295.6" r="4" fill="#9754dd" /><circle cx="384.0" cy="295.6" r="4" fill="#9754dd" /><circle cx="392.0" cy="295.6" r="4" fill="#9754dd" /><circle cx="400.0" cy="295.6" r="4" fill="#9754dd" /><circle cx="408.0" cy="295.8" r="4" fill="#9754dd" /><circle cx="416.0" cy="295.9" r="4" fill="#9754dd" /><circle cx="424.0" cy="295.9" r="4" fill="#9754dd" /><circle cx="432.0" cy="295.9" r="4" fill="#9754dd" /><circle cx="440.0" cy="295.9" r="4" fill="#9754dd" /><circle cx="448.0" cy="295.9" r="4" fill="#9754dd" /><circle cx="456.0" cy="295.9" r="4" fill="#9754dd" /><circle cx="464.0" cy="295.9" r="4" fill="#9754dd" /><circle cx="472.0" cy="295.9" r="4" fill="#9754dd" /><circle cx="480.0" cy="295.9" r="4" fill="#9754dd" /><circle cx="488.0" cy="295.9" r="4" fill="#9754dd" /><circle cx="496.0" cy="295.9" r="4" fill="#9754dd" /><circle cx="504.0" cy="295.9" r="4" fill="#9754dd" /><circle cx="512.0" cy="295.9" r="4" fill="#9754dd" /><circle cx="520.0" cy="295.9" r="4" fill="#9754dd" /><circle cx="528.0" cy="295.9" r="4" fill="#9754dd" /><circle cx="536.0" cy="295.9" r="4" fill="#9754dd" /><circle cx="544.0" cy="295.8" r="4" fill="#9754dd" /><circle cx="552.0" cy="295.8" r="4" fill="#9754dd" /><circle cx="560.0" cy="295.9" r="4" fill="#9754dd" /><circle cx="568.0" cy="295.9" r="4" fill="#9754dd" /><circle cx="576.0" cy="295.9" r="4" fill="#9754dd" /><circle cx="584.0" cy="295.9" r="4" fill="#9754dd" /><circle cx="592.0" cy="295.9" r="4" fill="#9754dd" /><circle cx="600.0" cy="295.9" r="4" fill="#9754dd" /><circle cx="608.0" cy="295.9" r="4" fill="#9754dd" /><circle cx="616.0" cy="296.0" r="4" fill="#9754dd" /><circle cx="624.0" cy="296.4" r="4" fill="#9754dd" /><circle cx="632.0" cy="296.4" r="4" fill="#9754dd" /><circle cx="640.0" cy="296.4" r="4" fill="#9754dd" /><circle cx="648.0" cy="296.4" r="4" fill="#9754dd" /><circle cx="656.0" cy="296.4" r="4" fill="#9754dd" /><circle cx="664.0" cy="296.4" r="4" fill="#9754dd" /><circle cx="672.0" cy="296.4" r="4" fill="#9754dd" /><circle cx="680.0" cy="296.4" r="4" fill="#9754dd" /><circle cx="688.0" cy="296.4" r="4" fill="#9754dd" /><circle cx="696.0" cy="296.4" r="4" fill="#9754dd" /><circle cx="704.0" cy="296.5" r="4" fill="#9754dd" /><circle cx="712.0" cy="296.5" r="4" fill="#9754dd" /><circle cx="720.0" cy="296.5" r="4" fill="#9754dd" /><circle cx="728.0" cy="296.5" r="4" fill="#9754dd" /><circle cx="736.0" cy="296.5" r="4" fill="#9754dd" /><circle cx="744.0" cy="296.5" r="4" fill="#9754dd" /><circle cx="752.0" cy="296.5" r="4" fill="#9754dd" /><circle cx="760.0" cy="296.5" r="4" fill="#9754dd" /><circle cx="768.0" cy="296.5" r="4" fill="#9754dd" /><circle cx="776.0" cy="296.5" r="4" fill="#9754dd" /><circle cx="784.0" cy="296.5" r="4" fill="#9754dd" /><circle cx="792.0" cy="296.5" r="4" fill="#9754dd" /><circle cx="800.0" cy="296.5" r="4" fill="#9754dd" /><circle cx="808.0" cy="296.5" r="4" fill="#9754dd" /><circle cx="816.0" cy="296.5" r="4" fill="#9754dd" /><circle cx="824.0" cy="296.5" r="4" fill="#9754dd" /><circle cx="832.0" cy="296.5" r="4" fill="#9754dd" /><circle cx="840.0" cy="296.5" r="4" fill="#9754dd" />
  <rect x="80" y="339" width="10" height="10" rx="2" ry="2" fill="#19e5a1" /><text x="96" y="348" class="legend-label">Stars</text><rect x="250" y="339" width="10" height="10" rx="2" ry="2" fill="#6eb6ec" /><text x="266" y="348" class="legend-label">Followers</text><rect x="420" y="339" width="10" height="10" rx="2" ry="2" fill="#5938e2" /><text x="436" y="348" class="legend-label">Following</text><rect x="590" y="339" width="10" height="10" rx="2" ry="2" fill="#60e5e0" /><text x="606" y="348" class="legend-label">Contributions</text><rect x="80" y="357" width="10" height="10" rx="2" ry="2" fill="#567de1" /><text x="96" y="366" class="legend-label">Pull Requests</text><rect x="250" y="357" width="10" height="10" rx="2" ry="2" fill="#9754dd" /><text x="266" y="366" class="legend-label">Issues</text>
</svg>
