<svg width="900" height="402" viewBox="0 0 900 402" xmlns="http://www.w3.org/2000/svg">
  <defs>
    <linearGradient id="history-gradient" x1="0%" y1="0%" x2="100%" y2="100%">
      <stop offset="0%" style="stop-color:#58a6ff;stop-opacity:1" />
      <stop offset="100%" style="stop-color:#a371f7;stop-opacity:1" />
    </linearGradient>
    <clipPath id="history-rounded">
      <rect x="0" y="0" width="900" height="402" rx="8" ry="8" />
    </clipPath>
  </defs>
  <style>
    .title {
      font-family: 'Segoe UI', Ubuntu, 'Helvetica Neue', sans-serif;
      font-size: 22px;
      font-weight: 700;
      fill: #58a6ff;
    }
    .subtitle {
      font-family: 'Segoe UI', Ubuntu, 'Helvetica Neue', sans-serif;
      font-size: 12px;
      font-weight: 500;
      fill: #8b949e;
    }
    .axis-label {
      font-family: 'Segoe UI', Ubuntu, 'Helvetica Neue', sans-serif;
      font-size: 10px;
      fill: #8b949e;
    }
    .grid-line {
      stroke: #30363d;
      stroke-width: 1;
      opacity: 0.3;
    }
    .legend-label {
      font-family: 'Segoe UI', Ubuntu, 'Helvetica Neue', sans-serif;
      font-size: 11px;
      fill: #c9d1d9;
      dominant-baseline: middle;
    }
  </style>
  <rect clip-path="url(#history-rounded)" width="100%" height="100%" fill="#0d1117" stroke="#30363d" stroke-width="1" />
  <rect x="0" y="396" width="900" height="6" fill="url(#history-gradient)" clip-path="url(#history-rounded)" />
  <text x="24" y="34" class="title">Leonardo Klein Stats History</text>
  <text x="24" y="54" class="subtitle">Period: 2026-02-20 to 2026-02-27</text>
  <text x="72" y="320.0" text-anchor="end" dominant-baseline="central" class="axis-label">0</text><text x="72" y="270.0" text-anchor="end" dominant-baseline="central" class="axis-label">400</text><text x="72" y="220.0" text-anchor="end" dominant-baseline="central" class="axis-label">800</text><text x="72" y="170.0" text-anchor="end" dominant-baseline="central" class="axis-label">1.2k</text><text x="72" y="120.0" text-anchor="end" dominant-baseline="central" class="axis-label">1.6k</text><text x="72" y="70.0" text-anchor="end" dominant-baseline="central" class="axis-label">2.0k</text>
  <text x="80.0" y="336" text-anchor="middle" class="axis-label">02-20</text><text x="141.6" y="336" text-anchor="middle" class="axis-label">02-21</text><text x="203.2" y="336" text-anchor="middle" class="axis-label">02-21</text><text x="264.9" y="336" text-anchor="middle" class="axis-label">02-22</text><text x="326.5" y="336" text-anchor="middle" class="axis-label">02-22</text><text x="388.1" y="336" text-anchor="middle" class="axis-label">02-23</text><text x="449.7" y="336" text-anchor="middle" class="axis-label">02-24</text><text x="511.4" y="336" text-anchor="middle" class="axis-label">02-24</text><text x="573.0" y="336" text-anchor="middle" class="axis-label">02-25</text><text x="634.6" y="336" text-anchor="middle" class="axis-label">02-25</text><text x="696.2" y="336" text-anchor="middle" class="axis-label">02-26</text><text x="757.8" y="336" text-anchor="middle" class="axis-label">02-27</text><text x="819.5" y="336" text-anchor="middle" class="axis-label">02-27</text><text x="840.0" y="336" text-anchor="middle" class="axis-label">02-27</text>
  <line x1="80" y1="320.0" x2="840" y2="320.0" class="grid-line" /><line x1="80" y1="270.0" x2="840" y2="270.0" class="grid-line" /><line x1="80" y1="220.0" x2="840" y2="220.0" class="grid-line" /><line x1="80" y1="170.0" x2="840" y2="170.0" class="grid-line" /><line x1="80" y1="120.0" x2="840" y2="120.0" class="grid-line" /><line x1="80" y1="70.0" x2="840" y2="70.0" class="grid-line" />
  <polyline points="80.0,317.0 100.5,317.0 121.1,317.0 141.6,317.0 162.2,317.0 182.7,317.0 203.2,317.0 223.8,317.0 244.3,317.0 264.9,317.0 285.4,317.0 305.9,317.0 326.5,317.0 347.0,317.0 367.6,317.0 388.1,317.0 408.6,317.0 429.2,317.0 449.7,317.0 470.3,317.0 490.8,317.0 511.4,317.0 531.9,317.0 552.4,317.0 573.0,317.0 593.5,317.0 614.1,317.0 634.6,317.0 655.1,317.0 675.7,317.0 696.2,317.0 716.8,317.0 737.3,317.0 757.8,317.0 778.4,317.0 798.9,317.0 819.5,317.0 840.0,317.0" fill="none" stroke="#19e5a1" stroke-width="2.5" stroke-linecap="round" stroke-linejoin="round" /><circle cx="80.0" cy="317.0" r="4" fill="#19e5a1" /><circle cx="100.5" cy="317.0" r="4" fill="#19e5a1" /><circle cx="121.1" cy="317.0" r="4" fill="#19e5a1" /><circle cx="141.6" cy="317.0" r="4" fill="#19e5a1" /><circle cx="162.2" cy="317.0" r="4" fill="#19e5a1" /><circle cx="182.7" cy="317.0" r="4" fill="#19e5a1" /><circle cx="203.2" cy="317.0" r="4" fill="#19e5a1" /><circle cx="223.8" cy="317.0" r="4" fill="#19e5a1" /><circle cx="244.3" cy="317.0" r="4" fill="#19e5a1" /><circle cx="264.9" cy="317.0" r="4" fill="#19e5a1" /><circle cx="285.4" cy="317.0" r="4" fill="#19e5a1" /><circle cx="305.9" cy="317.0" r="4" fill="#19e5a1" /><circle cx="326.5" cy="317.0" r="4" fill="#19e5a1" /><circle cx="347.0" cy="317.0" r="4" fill="#19e5a1" /><circle cx="367.6" cy="317.0" r="4" fill="#19e5a1" /><circle cx="388.1" cy="317.0" r="4" fill="#19e5a1" /><circle cx="408.6" cy="317.0" r="4" fill="#19e5a1" /><circle cx="429.2" cy="317.0" r="4" fill="#19e5a1" /><circle cx="449.7" cy="317.0" r="4" fill="#19e5a1" /><circle cx="470.3" cy="317.0" r="4" fill="#19e5a1" /><circle cx="490.8" cy="317.0" r="4" fill="#19e5a1" /><circle cx="511.4" cy="317.0" r="4" fill="#19e5a1" /><circle cx="531.9" cy="317.0" r="4" fill="#19e5a1" /><circle cx="552.4" cy="317.0" r="4" fill="#19e5a1" /><circle cx="573.0" cy="317.0" r="4" fill="#19e5a1" /><circle cx="593.5" cy="317.0" r="4" fill="#19e5a1" /><circle cx="614.1" cy="317.0" r="4" fill="#19e5a1" /><circle cx="634.6" cy="317.0" r="4" fill="#19e5a1" /><circle cx="655.1" cy="317.0" r="4" fill="#19e5a1" /><circle cx="675.7" cy="317.0" r="4" fill="#19e5a1" /><circle cx="696.2" cy="317.0" r="4" fill="#19e5a1" /><circle cx="716.8" cy="317.0" r="4" fill="#19e5a1" /><circle cx="737.3" cy="317.0" r="4" fill="#19e5a1" /><circle cx="757.8" cy="317.0" r="4" fill="#19e5a1" /><circle cx="778.4" cy="317.0" r="4" fill="#19e5a1" /><circle cx="798.9" cy="317.0" r="4" fill="#19e5a1" /><circle cx="819.5" cy="317.0" r="4" fill="#19e5a1" /><circle cx="840.0" cy="317.0" r="4" fill="#19e5a1" /><polyline points="80.0,313.2 100.5,312.2 121.1,312.1 141.6,312.4 162.2,312.4 182.7,312.4 203.2,312.1 223.8,312.0 244.3,311.9 264.9,311.9 285.4,311.8 305.9,311.8 326.5,311.5 347.0,311.5 367.6,311.5 388.1,311.2 408.6,311.2 429.2,311.1 449.7,311.1 470.3,311.1 490.8,310.9 511.4,311.0 531.9,310.8 552.4,310.8 573.0,310.8 593.5,310.8 614.1,310.4 634.6,310.2 655.1,310.4 675.7,310.4 696.2,310.4 716.8,310.4 737.3,310.4 757.8,310.2 778.4,310.2 798.9,310.1 819.5,310.1 840.0,309.8" fill="none" stroke="#6eb6ec" stroke-width="2.5" stroke-linecap="round" stroke-linejoin="round" /><circle cx="80.0" cy="313.2" r="4" fill="#6eb6ec" /><circle cx="100.5" cy="312.2" r="4" fill="#6eb6ec" /><circle cx="121.1" cy="312.1" r="4" fill="#6eb6ec" /><circle cx="141.6" cy="312.4" r="4" fill="#6eb6ec" /><circle cx="162.2" cy="312.4" r="4" fill="#6eb6ec" /><circle cx="182.7" cy="312.4" r="4" fill="#6eb6ec" /><circle cx="203.2" cy="312.1" r="4" fill="#6eb6ec" /><circle cx="223.8" cy="312.0" r="4" fill="#6eb6ec" /><circle cx="244.3" cy="311.9" r="4" fill="#6eb6ec" /><circle cx="264.9" cy="311.9" r="4" fill="#6eb6ec" /><circle cx="285.4" cy="311.8" r="4" fill="#6eb6ec" /><circle cx="305.9" cy="311.8" r="4" fill="#6eb6ec" /><circle cx="326.5" cy="311.5" r="4" fill="#6eb6ec" /><circle cx="347.0" cy="311.5" r="4" fill="#6eb6ec" /><circle cx="367.6" cy="311.5" r="4" fill="#6eb6ec" /><circle cx="388.1" cy="311.2" r="4" fill="#6eb6ec" /><circle cx="408.6" cy="311.2" r="4" fill="#6eb6ec" /><circle cx="429.2" cy="311.1" r="4" fill="#6eb6ec" /><circle cx="449.7" cy="311.1" r="4" fill="#6eb6ec" /><circle cx="470.3" cy="311.1" r="4" fill="#6eb6ec" /><circle cx="490.8" cy="310.9" r="4" fill="#6eb6ec" /><circle cx="511.4" cy="311.0" r="4" fill="#6eb6ec" /><circle cx="531.9" cy="310.8" r="4" fill="#6eb6ec" /><circle cx="552.4" cy="310.8" r="4" fill="#6eb6ec" /><circle cx="573.0" cy="310.8" r="4" fill="#6eb6ec" /><circle cx="593.5" cy="310.8" r="4" fill="#6eb6ec" /><circle cx="614.1" cy="310.4" r="4" fill="#6eb6ec" /><circle cx="634.6" cy="310.2" r="4" fill="#6eb6ec" /><circle cx="655.1" cy="310.4" r="4" fill="#6eb6ec" /><circle cx="675.7" cy="310.4" r="4" fill="#6eb6ec" /><circle cx="696.2" cy="310.4" r="4" fill="#6eb6ec" /><circle cx="716.8" cy="310.4" r="4" fill="#6eb6ec" /><circle cx="737.3" cy="310.4" r="4" fill="#6eb6ec" /><circle cx="757.8" cy="310.2" r="4" fill="#6eb6ec" /><circle cx="778.4" cy="310.2" r="4" fill="#6eb6ec" /><circle cx="798.9" cy="310.1" r="4" fill="#6eb6ec" /><circle cx="819.5" cy="310.1" r="4" fill="#6eb6ec" /><circle cx="840.0" cy="309.8" r="4" fill="#6eb6ec" /><polyline points="80.0,305.8 100.5,305.8 121.1,305.8 141.6,305.8 162.2,305.8 182.7,305.8 203.2,305.8 223.8,305.8 244.3,305.8 264.9,305.8 285.4,304.9 305.9,304.9 326.5,304.9 347.0,304.9 367.6,304.9 388.1,304.9 408.6,304.9 429.2,304.9 449.7,304.9 470.3,304.9 490.8,304.9 511.4,304.9 531.9,304.9 552.4,304.9 573.0,304.9 593.5,304.9 614.1,304.9 634.6,304.9 655.1,304.9 675.7,304.9 696.2,304.9 716.8,304.9 737.3,304.9 757.8,304.9 778.4,304.9 798.9,304.9 819.5,304.9 840.0,303.6" fill="none" stroke="#5938e2" stroke-width="2.5" stroke-linecap="round" stroke-linejoin="round" /><circle cx="80.0" cy="305.8" r="4" fill="#5938e2" /><circle cx="100.5" cy="305.8" r="4" fill="#5938e2" /><circle cx="121.1" cy="305.8" r="4" fill="#5938e2" /><circle cx="141.6" cy="305.8" r="4" fill="#5938e2" /><circle cx="162.2" cy="305.8" r="4" fill="#5938e2" /><circle cx="182.7" cy="305.8" r="4" fill="#5938e2" /><circle cx="203.2" cy="305.8" r="4" fill="#5938e2" /><circle cx="223.8" cy="305.8" r="4" fill="#5938e2" /><circle cx="244.3" cy="305.8" r="4" fill="#5938e2" /><circle cx="264.9" cy="305.8" r="4" fill="#5938e2" /><circle cx="285.4" cy="304.9" r="4" fill="#5938e2" /><circle cx="305.9" cy="304.9" r="4" fill="#5938e2" /><circle cx="326.5" cy="304.9" r="4" fill="#5938e2" /><circle cx="347.0" cy="304.9" r="4" fill="#5938e2" /><circle cx="367.6" cy="304.9" r="4" fill="#5938e2" /><circle cx="388.1" cy="304.9" r="4" fill="#5938e2" /><circle cx="408.6" cy="304.9" r="4" fill="#5938e2" /><circle cx="429.2" cy="304.9" r="4" fill="#5938e2" /><circle cx="449.7" cy="304.9" r="4" fill="#5938e2" /><circle cx="470.3" cy="304.9" r="4" fill="#5938e2" /><circle cx="490.8" cy="304.9" r="4" fill="#5938e2" /><circle cx="511.4" cy="304.9" r="4" fill="#5938e2" /><circle cx="531.9" cy="304.9" r="4" fill="#5938e2" /><circle cx="552.4" cy="304.9" r="4" fill="#5938e2" /><circle cx="573.0" cy="304.9" r="4" fill="#5938e2" /><circle cx="593.5" cy="304.9" r="4" fill="#5938e2" /><circle cx="614.1" cy="304.9" r="4" fill="#5938e2" /><circle cx="634.6" cy="304.9" r="4" fill="#5938e2" /><circle cx="655.1" cy="304.9" r="4" fill="#5938e2" /><circle cx="675.7" cy="304.9" r="4" fill="#5938e2" /><circle cx="696.2" cy="304.9" r="4" fill="#5938e2" /><circle cx="716.8" cy="304.9" r="4" fill="#5938e2" /><circle cx="737.3" cy="304.9" r="4" fill="#5938e2" /><circle cx="757.8" cy="304.9" r="4" fill="#5938e2" /><circle cx="778.4" cy="304.9" r="4" fill="#5938e2" /><circle cx="798.9" cy="304.9" r="4" fill="#5938e2" /><circle cx="819.5" cy="304.9" r="4" fill="#5938e2" /><circle cx="840.0" cy="303.6" r="4" fill="#5938e2" /><polyline points="80.0,144.6 100.5,140.1 121.1,139.9 141.6,139.8 162.2,139.8 182.7,139.6 203.2,139.6 223.8,139.6 244.3,139.6 264.9,139.6 285.4,138.4 305.9,138.4 326.5,138.4 347.0,138.4 367.6,138.4 388.1,138.4 408.6,138.4 429.2,137.4 449.7,137.4 470.3,137.4 490.8,137.4 511.4,137.4 531.9,137.4 552.4,137.4 573.0,137.4 593.5,137.4 614.1,137.4 634.6,137.4 655.1,131.2 675.7,131.2 696.2,130.8 716.8,130.4 737.3,126.9 757.8,126.9 778.4,126.9 798.9,126.9 819.5,126.9 840.0,126.9" fill="none" stroke="#60e5e0" stroke-width="2.5" stroke-linecap="round" stroke-linejoin="round" /><circle cx="80.0" cy="144.6" r="4" fill="#60e5e0" /><circle cx="100.5" cy="140.1" r="4" fill="#60e5e0" /><circle cx="121.1" cy="139.9" r="4" fill="#60e5e0" /><circle cx="141.6" cy="139.8" r="4" fill="#60e5e0" /><circle cx="162.2" cy="139.8" r="4" fill="#60e5e0" /><circle cx="182.7" cy="139.6" r="4" fill="#60e5e0" /><circle cx="203.2" cy="139.6" r="4" fill="#60e5e0" /><circle cx="223.8" cy="139.6" r="4" fill="#60e5e0" /><circle cx="244.3" cy="139.6" r="4" fill="#60e5e0" /><circle cx="264.9" cy="139.6" r="4" fill="#60e5e0" /><circle cx="285.4" cy="138.4" r="4" fill="#60e5e0" /><circle cx="305.9" cy="138.4" r="4" fill="#60e5e0" /><circle cx="326.5" cy="138.4" r="4" fill="#60e5e0" /><circle cx="347.0" cy="138.4" r="4" fill="#60e5e0" /><circle cx="367.6" cy="138.4" r="4" fill="#60e5e0" /><circle cx="388.1" cy="138.4" r="4" fill="#60e5e0" /><circle cx="408.6" cy="138.4" r="4" fill="#60e5e0" /><circle cx="429.2" cy="137.4" r="4" fill="#60e5e0" /><circle cx="449.7" cy="137.4" r="4" fill="#60e5e0" /><circle cx="470.3" cy="137.4" r="4" fill="#60e5e0" /><circle cx="490.8" cy="137.4" r="4" fill="#60e5e0" /><circle cx="511.4" cy="137.4" r="4" fill="#60e5e0" /><circle cx="531.9" cy="137.4" r="4" fill="#60e5e0" /><circle cx="552.4" cy="137.4" r="4" fill="#60e5e0" /><circle cx="573.0" cy="137.4" r="4" fill="#60e5e0" /><circle cx="593.5" cy="137.4" r="4" fill="#60e5e0" /><circle cx="614.1" cy="137.4" r="4" fill="#60e5e0" /><circle cx="634.6" cy="137.4" r="4" fill="#60e5e0" /><circle cx="655.1" cy="131.2" r="4" fill="#60e5e0" /><circle cx="675.7" cy="131.2" r="4" fill="#60e5e0" /><circle cx="696.2" cy="130.8" r="4" fill="#60e5e0" /><circle cx="716.8" cy="130.4" r="4" fill="#60e5e0" /><circle cx="737.3" cy="126.9" r="4" fill="#60e5e0" /><circle cx="757.8" cy="126.9" r="4" fill="#60e5e0" /><circle cx="778.4" cy="126.9" r="4" fill="#60e5e0" /><circle cx="798.9" cy="126.9" r="4" fill="#60e5e0" /><circle cx="819.5" cy="126.9" r="4" fill="#60e5e0" /><circle cx="840.0" cy="126.9" r="4" fill="#60e5e0" /><polyline points="80.0,314.6 100.5,314.4 121.1,314.2 141.6,314.2 162.2,314.2 182.7,314.1 203.2,314.1 223.8,314.1 244.3,314.1 264.9,314.1 285.4,314.0 305.9,314.0 326.5,314.0 347.0,314.0 367.6,314.0 388.1,314.0 408.6,314.0 429.2,314.0 449.7,314.0 470.3,314.0 490.8,314.0 511.4,314.0 531.9,314.0 552.4,314.0 573.0,314.0 593.5,314.0 614.1,314.0 634.6,314.0 655.1,314.0 675.7,314.0 696.2,314.0 716.8,314.0 737.3,314.0 757.8,314.0 778.4,314.0 798.9,314.0 819.5,314.0 840.0,314.0" fill="none" stroke="#567de1" stroke-width="2.5" stroke-linecap="round" stroke-linejoin="round" /><circle cx="80.0" cy="314.6" r="4" fill="#567de1" /><circle cx="100.5" cy="314.4" r="4" fill="#567de1" /><circle cx="121.1" cy="314.2" r="4" fill="#567de1" /><circle cx="141.6" cy="314.2" r="4" fill="#567de1" /><circle cx="162.2" cy="314.2" r="4" fill="#567de1" /><circle cx="182.7" cy="314.1" r="4" fill="#567de1" /><circle cx="203.2" cy="314.1" r="4" fill="#567de1" /><circle cx="223.8" cy="314.1" r="4" fill="#567de1" /><circle cx="244.3" cy="314.1" r="4" fill="#567de1" /><circle cx="264.9" cy="314.1" r="4" fill="#567de1" /><circle cx="285.4" cy="314.0" r="4" fill="#567de1" /><circle cx="305.9" cy="314.0" r="4" fill="#567de1" /><circle cx="326.5" cy="314.0" r="4" fill="#567de1" /><circle cx="347.0" cy="314.0" r="4" fill="#567de1" /><circle cx="367.6" cy="314.0" r="4" fill="#567de1" /><circle cx="388.1" cy="314.0" r="4" fill="#567de1" /><circle cx="408.6" cy="314.0" r="4" fill="#567de1" /><circle cx="429.2" cy="314.0" r="4" fill="#567de1" /><circle cx="449.7" cy="314.0" r="4" fill="#567de1" /><circle cx="470.3" cy="314.0" r="4" fill="#567de1" /><circle cx="490.8" cy="314.0" r="4" fill="#567de1" /><circle cx="511.4" cy="314.0" r="4" fill="#567de1" /><circle cx="531.9" cy="314.0" r="4" fill="#567de1" /><circle cx="552.4" cy="314.0" r="4" fill="#567de1" /><circle cx="573.0" cy="314.0" r="4" fill="#567de1" /><circle cx="593.5" cy="314.0" r="4" fill="#567de1" /><circle cx="614.1" cy="314.0" r="4" fill="#567de1" /><circle cx="634.6" cy="314.0" r="4" fill="#567de1" /><circle cx="655.1" cy="314.0" r="4" fill="#567de1" /><circle cx="675.7" cy="314.0" r="4" fill="#567de1" /><circle cx="696.2" cy="314.0" r="4" fill="#567de1" /><circle cx="716.8" cy="314.0" r="4" fill="#567de1" /><circle cx="737.3" cy="314.0" r="4" fill="#567de1" /><circle cx="757.8" cy="314.0" r="4" fill="#567de1" /><circle cx="778.4" cy="314.0" r="4" fill="#567de1" /><circle cx="798.9" cy="314.0" r="4" fill="#567de1" /><circle cx="819.5" cy="314.0" r="4" fill="#567de1" /><circle cx="840.0" cy="314.0" r="4" fill="#567de1" /><polyline points="80.0,303.9 100.5,304.2 121.1,304.4 141.6,304.4 162.2,304.4 182.7,304.4 203.2,304.4 223.8,304.4 244.3,304.4 264.9,304.4 285.4,304.4 305.9,304.4 326.5,304.4 347.0,304.4 367.6,304.4 388.1,304.4 408.6,304.4 429.2,304.4 449.7,304.4 470.3,304.4 490.8,304.4 511.4,304.4 531.9,304.4 552.4,304.4 573.0,304.4 593.5,304.4 614.1,304.4 634.6,304.4 655.1,299.1 675.7,299.1 696.2,299.1 716.8,298.9 737.3,295.6 757.8,295.6 778.4,295.6 798.9,295.6 819.5,295.6 840.0,295.6" fill="none" stroke="#9754dd" stroke-width="2.5" stroke-linecap="round" stroke-linejoin="round" /><circle cx="80.0" cy="303.9" r="4" fill="#9754dd" /><circle cx="100.5" cy="304.2" r="4" fill="#9754dd" /><circle cx="121.1" cy="304.4" r="4" fill="#9754dd" /><circle cx="141.6" cy="304.4" r="4" fill="#9754dd" /><circle cx="162.2" cy="304.4" r="4" fill="#9754dd" /><circle cx="182.7" cy="304.4" r="4" fill="#9754dd" /><circle cx="203.2" cy="304.4" r="4" fill="#9754dd" /><circle cx="223.8" cy="304.4" r="4" fill="#9754dd" /><circle cx="244.3" cy="304.4" r="4" fill="#9754dd" /><circle cx="264.9" cy="304.4" r="4" fill="#9754dd" /><circle cx="285.4" cy="304.4" r="4" fill="#9754dd" /><circle cx="305.9" cy="304.4" r="4" fill="#9754dd" /><circle cx="326.5" cy="304.4" r="4" fill="#9754dd" /><circle cx="347.0" cy="304.4" r="4" fill="#9754dd" /><circle cx="367.6" cy="304.4" r="4" fill="#9754dd" /><circle cx="388.1" cy="304.4" r="4" fill="#9754dd" /><circle cx="408.6" cy="304.4" r="4" fill="#9754dd" /><circle cx="429.2" cy="304.4" r="4" fill="#9754dd" /><circle cx="449.7" cy="304.4" r="4" fill="#9754dd" /><circle cx="470.3" cy="304.4" r="4" fill="#9754dd" /><circle cx="490.8" cy="304.4" r="4" fill="#9754dd" /><circle cx="511.4" cy="304.4" r="4" fill="#9754dd" /><circle cx="531.9" cy="304.4" r="4" fill="#9754dd" /><circle cx="552.4" cy="304.4" r="4" fill="#9754dd" /><circle cx="573.0" cy="304.4" r="4" fill="#9754dd" /><circle cx="593.5" cy="304.4" r="4" fill="#9754dd" /><circle cx="614.1" cy="304.4" r="4" fill="#9754dd" /><circle cx="634.6" cy="304.4" r="4" fill="#9754dd" /><circle cx="655.1" cy="299.1" r="4" fill="#9754dd" /><circle cx="675.7" cy="299.1" r="4" fill="#9754dd" /><circle cx="696.2" cy="299.1" r="4" fill="#9754dd" /><circle cx="716.8" cy="298.9" r="4" fill="#9754dd" /><circle cx="737.3" cy="295.6" r="4" fill="#9754dd" /><circle cx="757.8" cy="295.6" r="4" fill="#9754dd" /><circle cx="778.4" cy="295.6" r="4" fill="#9754dd" /><circle cx="798.9" cy="295.6" r="4" fill="#9754dd" /><circle cx="819.5" cy="295.6" r="4" fill="#9754dd" /><circle cx="840.0" cy="295.6" r="4" fill="#9754dd" />
  <rect x="80" y="339" width="10" height="10" rx="2" ry="2" fill="#19e5a1" /><text x="96" y="348" class="legend-label">Stars</text><rect x="250" y="339" width="10" height="10" rx="2" ry="2" fill="#6eb6ec" /><text x="266" y="348" class="legend-label">Followers</text><rect x="420" y="339" width="10" height="10" rx="2" ry="2" fill="#5938e2" /><text x="436" y="348" class="legend-label">Following</text><rect x="590" y="339" width="10" height="10" rx="2" ry="2" fill="#60e5e0" /><text x="606" y="348" class="legend-label">Contributions</text><rect x="80" y="357" width="10" height="10" rx="2" ry="2" fill="#567de1" /><text x="96" y="366" class="legend-label">Pull Requests</text><rect x="250" y="357" width="10" height="10" rx="2" ry="2" fill="#9754dd" /><text x="266" y="366" class="legend-label">Issues</text>
</svg>
