<svg width="900" height="402" viewBox="0 0 900 402" xmlns="http://www.w3.org/2000/svg">
  <defs>
    <linearGradient id="history-gradient" x1="0%" y1="0%" x2="100%" y2="100%">
      <stop offset="0%" style="stop-color:#58a6ff;stop-opacity:1" />
      <stop offset="100%" style="stop-color:#a371f7;stop-opacity:1" />
    </linearGradient>
    <clipPath id="history-rounded">
      <rect x="0" y="0" width="900" height="402" rx="8" ry="8" />
    </clipPath>
  </defs>
  <style>
    .title {
      font-family: 'Segoe UI', Ubuntu, 'Helvetica Neue', sans-serif;
      font-size: 22px;
      font-weight: 700;
      fill: #58a6ff;
    }
    .subtitle {
      font-family: 'Segoe UI', Ubuntu, 'Helvetica Neue', sans-serif;
      font-size: 12px;
      font-weight: 500;
      fill: #8b949e;
    }
    .axis-label {
      font-family: 'Segoe UI', Ubuntu, 'Helvetica Neue', sans-serif;
      font-size: 10px;
      fill: #8b949e;
    }
    .grid-line {
      stroke: #30363d;
      stroke-width: 1;
      opacity: 0.3;
    }
    .legend-label {
      font-family: 'Segoe UI', Ubuntu, 'Helvetica Neue', sans-serif;
      font-size: 11px;
      fill: #c9d1d9;
      dominant-baseline: middle;
    }
  </style>
  <rect clip-path="url(#history-rounded)" width="100%" height="100%" fill="#0d1117" stroke="#30363d" stroke-width="1" />
  <rect x="0" y="396" width="900" height="6" fill="url(#history-gradient)" clip-path="url(#history-rounded)" />
  <text x="24" y="34" class="title">Leonardo Klein Stats History</text>
  <text x="24" y="54" class="subtitle">Period: 2026-02-20 to 2026-03-14</text>
  <text x="72" y="320.0" text-anchor="end" dominant-baseline="central" class="axis-label">0</text><text x="72" y="270.0" text-anchor="end" dominant-baseline="central" class="axis-label">400</text><text x="72" y="220.0" text-anchor="end" dominant-baseline="central" class="axis-label">800</text><text x="72" y="170.0" text-anchor="end" dominant-baseline="central" class="axis-label">1.2k</text><text x="72" y="120.0" text-anchor="end" dominant-baseline="central" class="axis-label">1.6k</text><text x="72" y="70.0" text-anchor="end" dominant-baseline="central" class="axis-label">2.0k</text>
  <text x="80.0" y="336" text-anchor="middle" class="axis-label">02-20</text><text x="154.6" y="336" text-anchor="middle" class="axis-label">02-22</text><text x="229.3" y="336" text-anchor="middle" class="axis-label">02-24</text><text x="303.9" y="336" text-anchor="middle" class="axis-label">02-27</text><text x="378.6" y="336" text-anchor="middle" class="axis-label">03-01</text><text x="453.2" y="336" text-anchor="middle" class="axis-label">03-03</text><text x="527.9" y="336" text-anchor="middle" class="axis-label">03-05</text><text x="602.5" y="336" text-anchor="middle" class="axis-label">03-07</text><text x="677.1" y="336" text-anchor="middle" class="axis-label">03-10</text><text x="751.8" y="336" text-anchor="middle" class="axis-label">03-12</text><text x="826.4" y="336" text-anchor="middle" class="axis-label">03-14</text><text x="840.0" y="336" text-anchor="middle" class="axis-label">03-14</text>
  <line x1="80" y1="320.0" x2="840" y2="320.0" class="grid-line" /><line x1="80" y1="270.0" x2="840" y2="270.0" class="grid-line" /><line x1="80" y1="220.0" x2="840" y2="220.0" class="grid-line" /><line x1="80" y1="170.0" x2="840" y2="170.0" class="grid-line" /><line x1="80" y1="120.0" x2="840" y2="120.0" class="grid-line" /><line x1="80" y1="70.0" x2="840" y2="70.0" class="grid-line" />
  <polyline points="80.0,317.0 86.8,317.0 93.6,317.0 100.4,317.0 107.1,317.0 113.9,317.0 120.7,317.0 127.5,317.0 134.3,317.0 141.1,317.0 147.9,317.0 154.6,317.0 161.4,317.0 168.2,317.0 175.0,317.0 181.8,317.0 188.6,317.0 195.4,317.0 202.1,317.0 208.9,317.0 215.7,317.0 222.5,317.0 229.3,317.0 236.1,317.0 242.9,317.0 249.6,317.0 256.4,317.0 263.2,317.0 270.0,317.0 276.8,317.0 283.6,317.0 290.4,317.0 297.1,317.0 303.9,317.0 310.7,317.0 317.5,317.0 324.3,317.0 331.1,317.0 337.9,317.0 344.6,317.0 351.4,317.0 358.2,317.0 365.0,317.0 371.8,317.0 378.6,317.0 385.4,317.0 392.1,317.0 398.9,317.0 405.7,317.0 412.5,317.0 419.3,317.0 426.1,317.0 432.9,317.0 439.6,317.0 446.4,317.0 453.2,317.0 460.0,317.0 466.8,317.0 473.6,317.0 480.4,317.0 487.1,317.0 493.9,317.0 500.7,317.0 507.5,317.0 514.3,317.0 521.1,317.0 527.9,317.0 534.6,317.0 541.4,317.0 548.2,317.0 555.0,317.0 561.8,317.0 568.6,317.0 575.4,317.0 582.1,317.0 588.9,317.0 595.7,317.0 602.5,317.0 609.3,317.0 616.1,317.0 622.9,317.0 629.6,317.0 636.4,317.0 643.2,317.0 650.0,317.0 656.8,317.0 663.6,317.0 670.4,317.0 677.1,317.0 683.9,317.0 690.7,317.0 697.5,317.0 704.3,317.0 711.1,317.0 717.9,317.0 724.6,317.0 731.4,317.0 738.2,317.0 745.0,317.0 751.8,317.0 758.6,317.0 765.4,317.0 772.1,317.0 778.9,317.0 785.7,317.0 792.5,317.0 799.3,317.0 806.1,317.0 812.9,317.0 819.6,317.0 826.4,317.0 833.2,317.0 840.0,317.0" fill="none" stroke="#19e5a1" stroke-width="2.5" stroke-linecap="round" stroke-linejoin="round" /><circle cx="80.0" cy="317.0" r="4" fill="#19e5a1" /><circle cx="86.8" cy="317.0" r="4" fill="#19e5a1" /><circle cx="93.6" cy="317.0" r="4" fill="#19e5a1" /><circle cx="100.4" cy="317.0" r="4" fill="#19e5a1" /><circle cx="107.1" cy="317.0" r="4" fill="#19e5a1" /><circle cx="113.9" cy="317.0" r="4" fill="#19e5a1" /><circle cx="120.7" cy="317.0" r="4" fill="#19e5a1" /><circle cx="127.5" cy="317.0" r="4" fill="#19e5a1" /><circle cx="134.3" cy="317.0" r="4" fill="#19e5a1" /><circle cx="141.1" cy="317.0" r="4" fill="#19e5a1" /><circle cx="147.9" cy="317.0" r="4" fill="#19e5a1" /><circle cx="154.6" cy="317.0" r="4" fill="#19e5a1" /><circle cx="161.4" cy="317.0" r="4" fill="#19e5a1" /><circle cx="168.2" cy="317.0" r="4" fill="#19e5a1" /><circle cx="175.0" cy="317.0" r="4" fill="#19e5a1" /><circle cx="181.8" cy="317.0" r="4" fill="#19e5a1" /><circle cx="188.6" cy="317.0" r="4" fill="#19e5a1" /><circle cx="195.4" cy="317.0" r="4" fill="#19e5a1" /><circle cx="202.1" cy="317.0" r="4" fill="#19e5a1" /><circle cx="208.9" cy="317.0" r="4" fill="#19e5a1" /><circle cx="215.7" cy="317.0" r="4" fill="#19e5a1" /><circle cx="222.5" cy="317.0" r="4" fill="#19e5a1" /><circle cx="229.3" cy="317.0" r="4" fill="#19e5a1" /><circle cx="236.1" cy="317.0" r="4" fill="#19e5a1" /><circle cx="242.9" cy="317.0" r="4" fill="#19e5a1" /><circle cx="249.6" cy="317.0" r="4" fill="#19e5a1" /><circle cx="256.4" cy="317.0" r="4" fill="#19e5a1" /><circle cx="263.2" cy="317.0" r="4" fill="#19e5a1" /><circle cx="270.0" cy="317.0" r="4" fill="#19e5a1" /><circle cx="276.8" cy="317.0" r="4" fill="#19e5a1" /><circle cx="283.6" cy="317.0" r="4" fill="#19e5a1" /><circle cx="290.4" cy="317.0" r="4" fill="#19e5a1" /><circle cx="297.1" cy="317.0" r="4" fill="#19e5a1" /><circle cx="303.9" cy="317.0" r="4" fill="#19e5a1" /><circle cx="310.7" cy="317.0" r="4" fill="#19e5a1" /><circle cx="317.5" cy="317.0" r="4" fill="#19e5a1" /><circle cx="324.3" cy="317.0" r="4" fill="#19e5a1" /><circle cx="331.1" cy="317.0" r="4" fill="#19e5a1" /><circle cx="337.9" cy="317.0" r="4" fill="#19e5a1" /><circle cx="344.6" cy="317.0" r="4" fill="#19e5a1" /><circle cx="351.4" cy="317.0" r="4" fill="#19e5a1" /><circle cx="358.2" cy="317.0" r="4" fill="#19e5a1" /><circle cx="365.0" cy="317.0" r="4" fill="#19e5a1" /><circle cx="371.8" cy="317.0" r="4" fill="#19e5a1" /><circle cx="378.6" cy="317.0" r="4" fill="#19e5a1" /><circle cx="385.4" cy="317.0" r="4" fill="#19e5a1" /><circle cx="392.1" cy="317.0" r="4" fill="#19e5a1" /><circle cx="398.9" cy="317.0" r="4" fill="#19e5a1" /><circle cx="405.7" cy="317.0" r="4" fill="#19e5a1" /><circle cx="412.5" cy="317.0" r="4" fill="#19e5a1" /><circle cx="419.3" cy="317.0" r="4" fill="#19e5a1" /><circle cx="426.1" cy="317.0" r="4" fill="#19e5a1" /><circle cx="432.9" cy="317.0" r="4" fill="#19e5a1" /><circle cx="439.6" cy="317.0" r="4" fill="#19e5a1" /><circle cx="446.4" cy="317.0" r="4" fill="#19e5a1" /><circle cx="453.2" cy="317.0" r="4" fill="#19e5a1" /><circle cx="460.0" cy="317.0" r="4" fill="#19e5a1" /><circle cx="466.8" cy="317.0" r="4" fill="#19e5a1" /><circle cx="473.6" cy="317.0" r="4" fill="#19e5a1" /><circle cx="480.4" cy="317.0" r="4" fill="#19e5a1" /><circle cx="487.1" cy="317.0" r="4" fill="#19e5a1" /><circle cx="493.9" cy="317.0" r="4" fill="#19e5a1" /><circle cx="500.7" cy="317.0" r="4" fill="#19e5a1" /><circle cx="507.5" cy="317.0" r="4" fill="#19e5a1" /><circle cx="514.3" cy="317.0" r="4" fill="#19e5a1" /><circle cx="521.1" cy="317.0" r="4" fill="#19e5a1" /><circle cx="527.9" cy="317.0" r="4" fill="#19e5a1" /><circle cx="534.6" cy="317.0" r="4" fill="#19e5a1" /><circle cx="541.4" cy="317.0" r="4" fill="#19e5a1" /><circle cx="548.2" cy="317.0" r="4" fill="#19e5a1" /><circle cx="555.0" cy="317.0" r="4" fill="#19e5a1" /><circle cx="561.8" cy="317.0" r="4" fill="#19e5a1" /><circle cx="568.6" cy="317.0" r="4" fill="#19e5a1" /><circle cx="575.4" cy="317.0" r="4" fill="#19e5a1" /><circle cx="582.1" cy="317.0" r="4" fill="#19e5a1" /><circle cx="588.9" cy="317.0" r="4" fill="#19e5a1" /><circle cx="595.7" cy="317.0" r="4" fill="#19e5a1" /><circle cx="602.5" cy="317.0" r="4" fill="#19e5a1" /><circle cx="609.3" cy="317.0" r="4" fill="#19e5a1" /><circle cx="616.1" cy="317.0" r="4" fill="#19e5a1" /><circle cx="622.9" cy="317.0" r="4" fill="#19e5a1" /><circle cx="629.6" cy="317.0" r="4" fill="#19e5a1" /><circle cx="636.4" cy="317.0" r="4" fill="#19e5a1" /><circle cx="643.2" cy="317.0" r="4" fill="#19e5a1" /><circle cx="650.0" cy="317.0" r="4" fill="#19e5a1" /><circle cx="656.8" cy="317.0" r="4" fill="#19e5a1" /><circle cx="663.6" cy="317.0" r="4" fill="#19e5a1" /><circle cx="670.4" cy="317.0" r="4" fill="#19e5a1" /><circle cx="677.1" cy="317.0" r="4" fill="#19e5a1" /><circle cx="683.9" cy="317.0" r="4" fill="#19e5a1" /><circle cx="690.7" cy="317.0" r="4" fill="#19e5a1" /><circle cx="697.5" cy="317.0" r="4" fill="#19e5a1" /><circle cx="704.3" cy="317.0" r="4" fill="#19e5a1" /><circle cx="711.1" cy="317.0" r="4" fill="#19e5a1" /><circle cx="717.9" cy="317.0" r="4" fill="#19e5a1" /><circle cx="724.6" cy="317.0" r="4" fill="#19e5a1" /><circle cx="731.4" cy="317.0" r="4" fill="#19e5a1" /><circle cx="738.2" cy="317.0" r="4" fill="#19e5a1" /><circle cx="745.0" cy="317.0" r="4" fill="#19e5a1" /><circle cx="751.8" cy="317.0" r="4" fill="#19e5a1" /><circle cx="758.6" cy="317.0" r="4" fill="#19e5a1" /><circle cx="765.4" cy="317.0" r="4" fill="#19e5a1" /><circle cx="772.1" cy="317.0" r="4" fill="#19e5a1" /><circle cx="778.9" cy="317.0" r="4" fill="#19e5a1" /><circle cx="785.7" cy="317.0" r="4" fill="#19e5a1" /><circle cx="792.5" cy="317.0" r="4" fill="#19e5a1" /><circle cx="799.3" cy="317.0" r="4" fill="#19e5a1" /><circle cx="806.1" cy="317.0" r="4" fill="#19e5a1" /><circle cx="812.9" cy="317.0" r="4" fill="#19e5a1" /><circle cx="819.6" cy="317.0" r="4" fill="#19e5a1" /><circle cx="826.4" cy="317.0" r="4" fill="#19e5a1" /><circle cx="833.2" cy="317.0" r="4" fill="#19e5a1" /><circle cx="840.0" cy="317.0" r="4" fill="#19e5a1" /><polyline points="80.0,313.2 86.8,312.2 93.6,312.1 100.4,312.4 107.1,312.4 113.9,312.4 120.7,312.1 127.5,312.0 134.3,311.9 141.1,311.9 147.9,311.8 154.6,311.8 161.4,311.5 168.2,311.5 175.0,311.5 181.8,311.2 188.6,311.2 195.4,311.1 202.1,311.1 208.9,311.1 215.7,310.9 222.5,311.0 229.3,310.8 236.1,310.8 242.9,310.8 249.6,310.8 256.4,310.4 263.2,310.2 270.0,310.4 276.8,310.4 283.6,310.4 290.4,310.4 297.1,310.4 303.9,310.2 310.7,310.2 317.5,310.1 324.3,310.1 331.1,309.8 337.9,309.6 344.6,309.6 351.4,309.6 358.2,309.6 365.0,309.5 371.8,309.4 378.6,309.4 385.4,309.4 392.1,309.4 398.9,309.2 405.7,309.2 412.5,309.2 419.3,309.4 426.1,309.4 432.9,309.5 439.6,309.2 446.4,309.2 453.2,309.4 460.0,309.2 466.8,309.2 473.6,309.2 480.4,309.2 487.1,309.2 493.9,309.1 500.7,309.1 507.5,309.1 514.3,309.1 521.1,309.0 527.9,309.0 534.6,308.9 541.4,308.9 548.2,308.9 555.0,308.6 561.8,308.6 568.6,308.6 575.4,308.6 582.1,308.6 588.9,308.6 595.7,308.6 602.5,308.6 609.3,308.6 616.1,308.6 622.9,308.6 629.6,308.6 636.4,308.6 643.2,307.8 650.0,307.8 656.8,307.6 663.6,307.6 670.4,307.6 677.1,307.5 683.9,307.5 690.7,307.6 697.5,308.5 704.3,308.5 711.1,308.4 717.9,308.4 724.6,307.5 731.4,307.5 738.2,307.2 745.0,307.1 751.8,307.1 758.6,307.1 765.4,307.0 772.1,306.8 778.9,306.6 785.7,306.6 792.5,306.5 799.3,306.5 806.1,306.5 812.9,306.5 819.6,306.5 826.4,306.4 833.2,306.5 840.0,306.5" fill="none" stroke="#6eb6ec" stroke-width="2.5" stroke-linecap="round" stroke-linejoin="round" /><circle cx="80.0" cy="313.2" r="4" fill="#6eb6ec" /><circle cx="86.8" cy="312.2" r="4" fill="#6eb6ec" /><circle cx="93.6" cy="312.1" r="4" fill="#6eb6ec" /><circle cx="100.4" cy="312.4" r="4" fill="#6eb6ec" /><circle cx="107.1" cy="312.4" r="4" fill="#6eb6ec" /><circle cx="113.9" cy="312.4" r="4" fill="#6eb6ec" /><circle cx="120.7" cy="312.1" r="4" fill="#6eb6ec" /><circle cx="127.5" cy="312.0" r="4" fill="#6eb6ec" /><circle cx="134.3" cy="311.9" r="4" fill="#6eb6ec" /><circle cx="141.1" cy="311.9" r="4" fill="#6eb6ec" /><circle cx="147.9" cy="311.8" r="4" fill="#6eb6ec" /><circle cx="154.6" cy="311.8" r="4" fill="#6eb6ec" /><circle cx="161.4" cy="311.5" r="4" fill="#6eb6ec" /><circle cx="168.2" cy="311.5" r="4" fill="#6eb6ec" /><circle cx="175.0" cy="311.5" r="4" fill="#6eb6ec" /><circle cx="181.8" cy="311.2" r="4" fill="#6eb6ec" /><circle cx="188.6" cy="311.2" r="4" fill="#6eb6ec" /><circle cx="195.4" cy="311.1" r="4" fill="#6eb6ec" /><circle cx="202.1" cy="311.1" r="4" fill="#6eb6ec" /><circle cx="208.9" cy="311.1" r="4" fill="#6eb6ec" /><circle cx="215.7" cy="310.9" r="4" fill="#6eb6ec" /><circle cx="222.5" cy="311.0" r="4" fill="#6eb6ec" /><circle cx="229.3" cy="310.8" r="4" fill="#6eb6ec" /><circle cx="236.1" cy="310.8" r="4" fill="#6eb6ec" /><circle cx="242.9" cy="310.8" r="4" fill="#6eb6ec" /><circle cx="249.6" cy="310.8" r="4" fill="#6eb6ec" /><circle cx="256.4" cy="310.4" r="4" fill="#6eb6ec" /><circle cx="263.2" cy="310.2" r="4" fill="#6eb6ec" /><circle cx="270.0" cy="310.4" r="4" fill="#6eb6ec" /><circle cx="276.8" cy="310.4" r="4" fill="#6eb6ec" /><circle cx="283.6" cy="310.4" r="4" fill="#6eb6ec" /><circle cx="290.4" cy="310.4" r="4" fill="#6eb6ec" /><circle cx="297.1" cy="310.4" r="4" fill="#6eb6ec" /><circle cx="303.9" cy="310.2" r="4" fill="#6eb6ec" /><circle cx="310.7" cy="310.2" r="4" fill="#6eb6ec" /><circle cx="317.5" cy="310.1" r="4" fill="#6eb6ec" /><circle cx="324.3" cy="310.1" r="4" fill="#6eb6ec" /><circle cx="331.1" cy="309.8" r="4" fill="#6eb6ec" /><circle cx="337.9" cy="309.6" r="4" fill="#6eb6ec" /><circle cx="344.6" cy="309.6" r="4" fill="#6eb6ec" /><circle cx="351.4" cy="309.6" r="4" fill="#6eb6ec" /><circle cx="358.2" cy="309.6" r="4" fill="#6eb6ec" /><circle cx="365.0" cy="309.5" r="4" fill="#6eb6ec" /><circle cx="371.8" cy="309.4" r="4" fill="#6eb6ec" /><circle cx="378.6" cy="309.4" r="4" fill="#6eb6ec" /><circle cx="385.4" cy="309.4" r="4" fill="#6eb6ec" /><circle cx="392.1" cy="309.4" r="4" fill="#6eb6ec" /><circle cx="398.9" cy="309.2" r="4" fill="#6eb6ec" /><circle cx="405.7" cy="309.2" r="4" fill="#6eb6ec" /><circle cx="412.5" cy="309.2" r="4" fill="#6eb6ec" /><circle cx="419.3" cy="309.4" r="4" fill="#6eb6ec" /><circle cx="426.1" cy="309.4" r="4" fill="#6eb6ec" /><circle cx="432.9" cy="309.5" r="4" fill="#6eb6ec" /><circle cx="439.6" cy="309.2" r="4" fill="#6eb6ec" /><circle cx="446.4" cy="309.2" r="4" fill="#6eb6ec" /><circle cx="453.2" cy="309.4" r="4" fill="#6eb6ec" /><circle cx="460.0" cy="309.2" r="4" fill="#6eb6ec" /><circle cx="466.8" cy="309.2" r="4" fill="#6eb6ec" /><circle cx="473.6" cy="309.2" r="4" fill="#6eb6ec" /><circle cx="480.4" cy="309.2" r="4" fill="#6eb6ec" /><circle cx="487.1" cy="309.2" r="4" fill="#6eb6ec" /><circle cx="493.9" cy="309.1" r="4" fill="#6eb6ec" /><circle cx="500.7" cy="309.1" r="4" fill="#6eb6ec" /><circle cx="507.5" cy="309.1" r="4" fill="#6eb6ec" /><circle cx="514.3" cy="309.1" r="4" fill="#6eb6ec" /><circle cx="521.1" cy="309.0" r="4" fill="#6eb6ec" /><circle cx="527.9" cy="309.0" r="4" fill="#6eb6ec" /><circle cx="534.6" cy="308.9" r="4" fill="#6eb6ec" /><circle cx="541.4" cy="308.9" r="4" fill="#6eb6ec" /><circle cx="548.2" cy="308.9" r="4" fill="#6eb6ec" /><circle cx="555.0" cy="308.6" r="4" fill="#6eb6ec" /><circle cx="561.8" cy="308.6" r="4" fill="#6eb6ec" /><circle cx="568.6" cy="308.6" r="4" fill="#6eb6ec" /><circle cx="575.4" cy="308.6" r="4" fill="#6eb6ec" /><circle cx="582.1" cy="308.6" r="4" fill="#6eb6ec" /><circle cx="588.9" cy="308.6" r="4" fill="#6eb6ec" /><circle cx="595.7" cy="308.6" r="4" fill="#6eb6ec" /><circle cx="602.5" cy="308.6" r="4" fill="#6eb6ec" /><circle cx="609.3" cy="308.6" r="4" fill="#6eb6ec" /><circle cx="616.1" cy="308.6" r="4" fill="#6eb6ec" /><circle cx="622.9" cy="308.6" r="4" fill="#6eb6ec" /><circle cx="629.6" cy="308.6" r="4" fill="#6eb6ec" /><circle cx="636.4" cy="308.6" r="4" fill="#6eb6ec" /><circle cx="643.2" cy="307.8" r="4" fill="#6eb6ec" /><circle cx="650.0" cy="307.8" r="4" fill="#6eb6ec" /><circle cx="656.8" cy="307.6" r="4" fill="#6eb6ec" /><circle cx="663.6" cy="307.6" r="4" fill="#6eb6ec" /><circle cx="670.4" cy="307.6" r="4" fill="#6eb6ec" /><circle cx="677.1" cy="307.5" r="4" fill="#6eb6ec" /><circle cx="683.9" cy="307.5" r="4" fill="#6eb6ec" /><circle cx="690.7" cy="307.6" r="4" fill="#6eb6ec" /><circle cx="697.5" cy="308.5" r="4" fill="#6eb6ec" /><circle cx="704.3" cy="308.5" r="4" fill="#6eb6ec" /><circle cx="711.1" cy="308.4" r="4" fill="#6eb6ec" /><circle cx="717.9" cy="308.4" r="4" fill="#6eb6ec" /><circle cx="724.6" cy="307.5" r="4" fill="#6eb6ec" /><circle cx="731.4" cy="307.5" r="4" fill="#6eb6ec" /><circle cx="738.2" cy="307.2" r="4" fill="#6eb6ec" /><circle cx="745.0" cy="307.1" r="4" fill="#6eb6ec" /><circle cx="751.8" cy="307.1" r="4" fill="#6eb6ec" /><circle cx="758.6" cy="307.1" r="4" fill="#6eb6ec" /><circle cx="765.4" cy="307.0" r="4" fill="#6eb6ec" /><circle cx="772.1" cy="306.8" r="4" fill="#6eb6ec" /><circle cx="778.9" cy="306.6" r="4" fill="#6eb6ec" /><circle cx="785.7" cy="306.6" r="4" fill="#6eb6ec" /><circle cx="792.5" cy="306.5" r="4" fill="#6eb6ec" /><circle cx="799.3" cy="306.5" r="4" fill="#6eb6ec" /><circle cx="806.1" cy="306.5" r="4" fill="#6eb6ec" /><circle cx="812.9" cy="306.5" r="4" fill="#6eb6ec" /><circle cx="819.6" cy="306.5" r="4" fill="#6eb6ec" /><circle cx="826.4" cy="306.4" r="4" fill="#6eb6ec" /><circle cx="833.2" cy="306.5" r="4" fill="#6eb6ec" /><circle cx="840.0" cy="306.5" r="4" fill="#6eb6ec" /><polyline points="80.0,305.8 86.8,305.8 93.6,305.8 100.4,305.8 107.1,305.8 113.9,305.8 120.7,305.8 127.5,305.8 134.3,305.8 141.1,305.8 147.9,304.9 154.6,304.9 161.4,304.9 168.2,304.9 175.0,304.9 181.8,304.9 188.6,304.9 195.4,304.9 202.1,304.9 208.9,304.9 215.7,304.9 222.5,304.9 229.3,304.9 236.1,304.9 242.9,304.9 249.6,304.9 256.4,304.9 263.2,304.9 270.0,304.9 276.8,304.9 283.6,304.9 290.4,304.9 297.1,304.9 303.9,304.9 310.7,304.9 317.5,304.9 324.3,304.9 331.1,303.6 337.9,303.6 344.6,303.6 351.4,303.6 358.2,303.6 365.0,303.6 371.8,303.6 378.6,303.6 385.4,303.6 392.1,303.6 398.9,303.6 405.7,303.6 412.5,303.6 419.3,303.6 426.1,302.9 432.9,302.9 439.6,298.0 446.4,298.0 453.2,298.0 460.0,298.0 466.8,298.0 473.6,298.0 480.4,298.0 487.1,298.0 493.9,298.0 500.7,298.0 507.5,298.0 514.3,298.0 521.1,298.0 527.9,298.0 534.6,297.8 541.4,297.8 548.2,297.8 555.0,297.8 561.8,297.8 568.6,297.8 575.4,297.8 582.1,297.8 588.9,297.8 595.7,297.8 602.5,297.8 609.3,297.8 616.1,297.8 622.9,297.8 629.6,297.8 636.4,297.8 643.2,297.8 650.0,297.8 656.8,297.8 663.6,297.6 670.4,297.8 677.1,297.8 683.9,297.8 690.7,297.9 697.5,297.9 704.3,297.9 711.1,296.1 717.9,296.1 724.6,296.1 731.4,296.1 738.2,296.1 745.0,296.1 751.8,296.1 758.6,296.1 765.4,296.1 772.1,296.1 778.9,295.0 785.7,295.0 792.5,295.0 799.3,295.0 806.1,295.0 812.9,295.0 819.6,295.0 826.4,295.0 833.2,294.9 840.0,294.9" fill="none" stroke="#5938e2" stroke-width="2.5" stroke-linecap="round" stroke-linejoin="round" /><circle cx="80.0" cy="305.8" r="4" fill="#5938e2" /><circle cx="86.8" cy="305.8" r="4" fill="#5938e2" /><circle cx="93.6" cy="305.8" r="4" fill="#5938e2" /><circle cx="100.4" cy="305.8" r="4" fill="#5938e2" /><circle cx="107.1" cy="305.8" r="4" fill="#5938e2" /><circle cx="113.9" cy="305.8" r="4" fill="#5938e2" /><circle cx="120.7" cy="305.8" r="4" fill="#5938e2" /><circle cx="127.5" cy="305.8" r="4" fill="#5938e2" /><circle cx="134.3" cy="305.8" r="4" fill="#5938e2" /><circle cx="141.1" cy="305.8" r="4" fill="#5938e2" /><circle cx="147.9" cy="304.9" r="4" fill="#5938e2" /><circle cx="154.6" cy="304.9" r="4" fill="#5938e2" /><circle cx="161.4" cy="304.9" r="4" fill="#5938e2" /><circle cx="168.2" cy="304.9" r="4" fill="#5938e2" /><circle cx="175.0" cy="304.9" r="4" fill="#5938e2" /><circle cx="181.8" cy="304.9" r="4" fill="#5938e2" /><circle cx="188.6" cy="304.9" r="4" fill="#5938e2" /><circle cx="195.4" cy="304.9" r="4" fill="#5938e2" /><circle cx="202.1" cy="304.9" r="4" fill="#5938e2" /><circle cx="208.9" cy="304.9" r="4" fill="#5938e2" /><circle cx="215.7" cy="304.9" r="4" fill="#5938e2" /><circle cx="222.5" cy="304.9" r="4" fill="#5938e2" /><circle cx="229.3" cy="304.9" r="4" fill="#5938e2" /><circle cx="236.1" cy="304.9" r="4" fill="#5938e2" /><circle cx="242.9" cy="304.9" r="4" fill="#5938e2" /><circle cx="249.6" cy="304.9" r="4" fill="#5938e2" /><circle cx="256.4" cy="304.9" r="4" fill="#5938e2" /><circle cx="263.2" cy="304.9" r="4" fill="#5938e2" /><circle cx="270.0" cy="304.9" r="4" fill="#5938e2" /><circle cx="276.8" cy="304.9" r="4" fill="#5938e2" /><circle cx="283.6" cy="304.9" r="4" fill="#5938e2" /><circle cx="290.4" cy="304.9" r="4" fill="#5938e2" /><circle cx="297.1" cy="304.9" r="4" fill="#5938e2" /><circle cx="303.9" cy="304.9" r="4" fill="#5938e2" /><circle cx="310.7" cy="304.9" r="4" fill="#5938e2" /><circle cx="317.5" cy="304.9" r="4" fill="#5938e2" /><circle cx="324.3" cy="304.9" r="4" fill="#5938e2" /><circle cx="331.1" cy="303.6" r="4" fill="#5938e2" /><circle cx="337.9" cy="303.6" r="4" fill="#5938e2" /><circle cx="344.6" cy="303.6" r="4" fill="#5938e2" /><circle cx="351.4" cy="303.6" r="4" fill="#5938e2" /><circle cx="358.2" cy="303.6" r="4" fill="#5938e2" /><circle cx="365.0" cy="303.6" r="4" fill="#5938e2" /><circle cx="371.8" cy="303.6" r="4" fill="#5938e2" /><circle cx="378.6" cy="303.6" r="4" fill="#5938e2" /><circle cx="385.4" cy="303.6" r="4" fill="#5938e2" /><circle cx="392.1" cy="303.6" r="4" fill="#5938e2" /><circle cx="398.9" cy="303.6" r="4" fill="#5938e2" /><circle cx="405.7" cy="303.6" r="4" fill="#5938e2" /><circle cx="412.5" cy="303.6" r="4" fill="#5938e2" /><circle cx="419.3" cy="303.6" r="4" fill="#5938e2" /><circle cx="426.1" cy="302.9" r="4" fill="#5938e2" /><circle cx="432.9" cy="302.9" r="4" fill="#5938e2" /><circle cx="439.6" cy="298.0" r="4" fill="#5938e2" /><circle cx="446.4" cy="298.0" r="4" fill="#5938e2" /><circle cx="453.2" cy="298.0" r="4" fill="#5938e2" /><circle cx="460.0" cy="298.0" r="4" fill="#5938e2" /><circle cx="466.8" cy="298.0" r="4" fill="#5938e2" /><circle cx="473.6" cy="298.0" r="4" fill="#5938e2" /><circle cx="480.4" cy="298.0" r="4" fill="#5938e2" /><circle cx="487.1" cy="298.0" r="4" fill="#5938e2" /><circle cx="493.9" cy="298.0" r="4" fill="#5938e2" /><circle cx="500.7" cy="298.0" r="4" fill="#5938e2" /><circle cx="507.5" cy="298.0" r="4" fill="#5938e2" /><circle cx="514.3" cy="298.0" r="4" fill="#5938e2" /><circle cx="521.1" cy="298.0" r="4" fill="#5938e2" /><circle cx="527.9" cy="298.0" r="4" fill="#5938e2" /><circle cx="534.6" cy="297.8" r="4" fill="#5938e2" /><circle cx="541.4" cy="297.8" r="4" fill="#5938e2" /><circle cx="548.2" cy="297.8" r="4" fill="#5938e2" /><circle cx="555.0" cy="297.8" r="4" fill="#5938e2" /><circle cx="561.8" cy="297.8" r="4" fill="#5938e2" /><circle cx="568.6" cy="297.8" r="4" fill="#5938e2" /><circle cx="575.4" cy="297.8" r="4" fill="#5938e2" /><circle cx="582.1" cy="297.8" r="4" fill="#5938e2" /><circle cx="588.9" cy="297.8" r="4" fill="#5938e2" /><circle cx="595.7" cy="297.8" r="4" fill="#5938e2" /><circle cx="602.5" cy="297.8" r="4" fill="#5938e2" /><circle cx="609.3" cy="297.8" r="4" fill="#5938e2" /><circle cx="616.1" cy="297.8" r="4" fill="#5938e2" /><circle cx="622.9" cy="297.8" r="4" fill="#5938e2" /><circle cx="629.6" cy="297.8" r="4" fill="#5938e2" /><circle cx="636.4" cy="297.8" r="4" fill="#5938e2" /><circle cx="643.2" cy="297.8" r="4" fill="#5938e2" /><circle cx="650.0" cy="297.8" r="4" fill="#5938e2" /><circle cx="656.8" cy="297.8" r="4" fill="#5938e2" /><circle cx="663.6" cy="297.6" r="4" fill="#5938e2" /><circle cx="670.4" cy="297.8" r="4" fill="#5938e2" /><circle cx="677.1" cy="297.8" r="4" fill="#5938e2" /><circle cx="683.9" cy="297.8" r="4" fill="#5938e2" /><circle cx="690.7" cy="297.9" r="4" fill="#5938e2" /><circle cx="697.5" cy="297.9" r="4" fill="#5938e2" /><circle cx="704.3" cy="297.9" r="4" fill="#5938e2" /><circle cx="711.1" cy="296.1" r="4" fill="#5938e2" /><circle cx="717.9" cy="296.1" r="4" fill="#5938e2" /><circle cx="724.6" cy="296.1" r="4" fill="#5938e2" /><circle cx="731.4" cy="296.1" r="4" fill="#5938e2" /><circle cx="738.2" cy="296.1" r="4" fill="#5938e2" /><circle cx="745.0" cy="296.1" r="4" fill="#5938e2" /><circle cx="751.8" cy="296.1" r="4" fill="#5938e2" /><circle cx="758.6" cy="296.1" r="4" fill="#5938e2" /><circle cx="765.4" cy="296.1" r="4" fill="#5938e2" /><circle cx="772.1" cy="296.1" r="4" fill="#5938e2" /><circle cx="778.9" cy="295.0" r="4" fill="#5938e2" /><circle cx="785.7" cy="295.0" r="4" fill="#5938e2" /><circle cx="792.5" cy="295.0" r="4" fill="#5938e2" /><circle cx="799.3" cy="295.0" r="4" fill="#5938e2" /><circle cx="806.1" cy="295.0" r="4" fill="#5938e2" /><circle cx="812.9" cy="295.0" r="4" fill="#5938e2" /><circle cx="819.6" cy="295.0" r="4" fill="#5938e2" /><circle cx="826.4" cy="295.0" r="4" fill="#5938e2" /><circle cx="833.2" cy="294.9" r="4" fill="#5938e2" /><circle cx="840.0" cy="294.9" r="4" fill="#5938e2" /><polyline points="80.0,144.6 86.8,140.1 93.6,139.9 100.4,139.8 107.1,139.8 113.9,139.6 120.7,139.6 127.5,139.6 134.3,139.6 141.1,139.6 147.9,138.4 154.6,138.4 161.4,138.4 168.2,138.4 175.0,138.4 181.8,138.4 188.6,138.4 195.4,137.4 202.1,137.4 208.9,137.4 215.7,137.4 222.5,137.4 229.3,137.4 236.1,137.4 242.9,137.4 249.6,137.4 256.4,137.4 263.2,137.4 270.0,131.2 276.8,131.2 283.6,130.8 290.4,130.4 297.1,126.9 303.9,126.9 310.7,126.9 317.5,126.9 324.3,126.9 331.1,126.9 337.9,126.9 344.6,126.9 351.4,126.9 358.2,126.8 365.0,122.1 371.8,120.4 378.6,120.4 385.4,120.4 392.1,120.4 398.9,120.4 405.7,119.4 412.5,119.4 419.3,119.4 426.1,119.4 432.9,119.1 439.6,118.8 446.4,118.8 453.2,117.8 460.0,117.8 466.8,117.8 473.6,115.8 480.4,115.8 487.1,115.0 493.9,115.0 500.7,115.0 507.5,115.0 514.3,115.0 521.1,115.0 527.9,115.0 534.6,113.9 541.4,111.8 548.2,111.8 555.0,111.8 561.8,111.8 568.6,111.8 575.4,111.8 582.1,111.8 588.9,111.8 595.7,111.8 602.5,111.8 609.3,110.6 616.1,110.6 622.9,110.6 629.6,110.6 636.4,110.6 643.2,109.4 650.0,109.4 656.8,109.4 663.6,109.4 670.4,109.2 677.1,109.2 683.9,109.2 690.7,109.2 697.5,109.2 704.3,109.2 711.1,109.2 717.9,109.2 724.6,109.2 731.4,109.2 738.2,109.2 745.0,109.2 751.8,109.2 758.6,109.2 765.4,109.2 772.1,109.1 778.9,103.5 785.7,103.5 792.5,103.5 799.3,101.5 806.1,101.5 812.9,101.5 819.6,101.5 826.4,101.5 833.2,101.5 840.0,101.5" fill="none" stroke="#60e5e0" stroke-width="2.5" stroke-linecap="round" stroke-linejoin="round" /><circle cx="80.0" cy="144.6" r="4" fill="#60e5e0" /><circle cx="86.8" cy="140.1" r="4" fill="#60e5e0" /><circle cx="93.6" cy="139.9" r="4" fill="#60e5e0" /><circle cx="100.4" cy="139.8" r="4" fill="#60e5e0" /><circle cx="107.1" cy="139.8" r="4" fill="#60e5e0" /><circle cx="113.9" cy="139.6" r="4" fill="#60e5e0" /><circle cx="120.7" cy="139.6" r="4" fill="#60e5e0" /><circle cx="127.5" cy="139.6" r="4" fill="#60e5e0" /><circle cx="134.3" cy="139.6" r="4" fill="#60e5e0" /><circle cx="141.1" cy="139.6" r="4" fill="#60e5e0" /><circle cx="147.9" cy="138.4" r="4" fill="#60e5e0" /><circle cx="154.6" cy="138.4" r="4" fill="#60e5e0" /><circle cx="161.4" cy="138.4" r="4" fill="#60e5e0" /><circle cx="168.2" cy="138.4" r="4" fill="#60e5e0" /><circle cx="175.0" cy="138.4" r="4" fill="#60e5e0" /><circle cx="181.8" cy="138.4" r="4" fill="#60e5e0" /><circle cx="188.6" cy="138.4" r="4" fill="#60e5e0" /><circle cx="195.4" cy="137.4" r="4" fill="#60e5e0" /><circle cx="202.1" cy="137.4" r="4" fill="#60e5e0" /><circle cx="208.9" cy="137.4" r="4" fill="#60e5e0" /><circle cx="215.7" cy="137.4" r="4" fill="#60e5e0" /><circle cx="222.5" cy="137.4" r="4" fill="#60e5e0" /><circle cx="229.3" cy="137.4" r="4" fill="#60e5e0" /><circle cx="236.1" cy="137.4" r="4" fill="#60e5e0" /><circle cx="242.9" cy="137.4" r="4" fill="#60e5e0" /><circle cx="249.6" cy="137.4" r="4" fill="#60e5e0" /><circle cx="256.4" cy="137.4" r="4" fill="#60e5e0" /><circle cx="263.2" cy="137.4" r="4" fill="#60e5e0" /><circle cx="270.0" cy="131.2" r="4" fill="#60e5e0" /><circle cx="276.8" cy="131.2" r="4" fill="#60e5e0" /><circle cx="283.6" cy="130.8" r="4" fill="#60e5e0" /><circle cx="290.4" cy="130.4" r="4" fill="#60e5e0" /><circle cx="297.1" cy="126.9" r="4" fill="#60e5e0" /><circle cx="303.9" cy="126.9" r="4" fill="#60e5e0" /><circle cx="310.7" cy="126.9" r="4" fill="#60e5e0" /><circle cx="317.5" cy="126.9" r="4" fill="#60e5e0" /><circle cx="324.3" cy="126.9" r="4" fill="#60e5e0" /><circle cx="331.1" cy="126.9" r="4" fill="#60e5e0" /><circle cx="337.9" cy="126.9" r="4" fill="#60e5e0" /><circle cx="344.6" cy="126.9" r="4" fill="#60e5e0" /><circle cx="351.4" cy="126.9" r="4" fill="#60e5e0" /><circle cx="358.2" cy="126.8" r="4" fill="#60e5e0" /><circle cx="365.0" cy="122.1" r="4" fill="#60e5e0" /><circle cx="371.8" cy="120.4" r="4" fill="#60e5e0" /><circle cx="378.6" cy="120.4" r="4" fill="#60e5e0" /><circle cx="385.4" cy="120.4" r="4" fill="#60e5e0" /><circle cx="392.1" cy="120.4" r="4" fill="#60e5e0" /><circle cx="398.9" cy="120.4" r="4" fill="#60e5e0" /><circle cx="405.7" cy="119.4" r="4" fill="#60e5e0" /><circle cx="412.5" cy="119.4" r="4" fill="#60e5e0" /><circle cx="419.3" cy="119.4" r="4" fill="#60e5e0" /><circle cx="426.1" cy="119.4" r="4" fill="#60e5e0" /><circle cx="432.9" cy="119.1" r="4" fill="#60e5e0" /><circle cx="439.6" cy="118.8" r="4" fill="#60e5e0" /><circle cx="446.4" cy="118.8" r="4" fill="#60e5e0" /><circle cx="453.2" cy="117.8" r="4" fill="#60e5e0" /><circle cx="460.0" cy="117.8" r="4" fill="#60e5e0" /><circle cx="466.8" cy="117.8" r="4" fill="#60e5e0" /><circle cx="473.6" cy="115.8" r="4" fill="#60e5e0" /><circle cx="480.4" cy="115.8" r="4" fill="#60e5e0" /><circle cx="487.1" cy="115.0" r="4" fill="#60e5e0" /><circle cx="493.9" cy="115.0" r="4" fill="#60e5e0" /><circle cx="500.7" cy="115.0" r="4" fill="#60e5e0" /><circle cx="507.5" cy="115.0" r="4" fill="#60e5e0" /><circle cx="514.3" cy="115.0" r="4" fill="#60e5e0" /><circle cx="521.1" cy="115.0" r="4" fill="#60e5e0" /><circle cx="527.9" cy="115.0" r="4" fill="#60e5e0" /><circle cx="534.6" cy="113.9" r="4" fill="#60e5e0" /><circle cx="541.4" cy="111.8" r="4" fill="#60e5e0" /><circle cx="548.2" cy="111.8" r="4" fill="#60e5e0" /><circle cx="555.0" cy="111.8" r="4" fill="#60e5e0" /><circle cx="561.8" cy="111.8" r="4" fill="#60e5e0" /><circle cx="568.6" cy="111.8" r="4" fill="#60e5e0" /><circle cx="575.4" cy="111.8" r="4" fill="#60e5e0" /><circle cx="582.1" cy="111.8" r="4" fill="#60e5e0" /><circle cx="588.9" cy="111.8" r="4" fill="#60e5e0" /><circle cx="595.7" cy="111.8" r="4" fill="#60e5e0" /><circle cx="602.5" cy="111.8" r="4" fill="#60e5e0" /><circle cx="609.3" cy="110.6" r="4" fill="#60e5e0" /><circle cx="616.1" cy="110.6" r="4" fill="#60e5e0" /><circle cx="622.9" cy="110.6" r="4" fill="#60e5e0" /><circle cx="629.6" cy="110.6" r="4" fill="#60e5e0" /><circle cx="636.4" cy="110.6" r="4" fill="#60e5e0" /><circle cx="643.2" cy="109.4" r="4" fill="#60e5e0" /><circle cx="650.0" cy="109.4" r="4" fill="#60e5e0" /><circle cx="656.8" cy="109.4" r="4" fill="#60e5e0" /><circle cx="663.6" cy="109.4" r="4" fill="#60e5e0" /><circle cx="670.4" cy="109.2" r="4" fill="#60e5e0" /><circle cx="677.1" cy="109.2" r="4" fill="#60e5e0" /><circle cx="683.9" cy="109.2" r="4" fill="#60e5e0" /><circle cx="690.7" cy="109.2" r="4" fill="#60e5e0" /><circle cx="697.5" cy="109.2" r="4" fill="#60e5e0" /><circle cx="704.3" cy="109.2" r="4" fill="#60e5e0" /><circle cx="711.1" cy="109.2" r="4" fill="#60e5e0" /><circle cx="717.9" cy="109.2" r="4" fill="#60e5e0" /><circle cx="724.6" cy="109.2" r="4" fill="#60e5e0" /><circle cx="731.4" cy="109.2" r="4" fill="#60e5e0" /><circle cx="738.2" cy="109.2" r="4" fill="#60e5e0" /><circle cx="745.0" cy="109.2" r="4" fill="#60e5e0" /><circle cx="751.8" cy="109.2" r="4" fill="#60e5e0" /><circle cx="758.6" cy="109.2" r="4" fill="#60e5e0" /><circle cx="765.4" cy="109.2" r="4" fill="#60e5e0" /><circle cx="772.1" cy="109.1" r="4" fill="#60e5e0" /><circle cx="778.9" cy="103.5" r="4" fill="#60e5e0" /><circle cx="785.7" cy="103.5" r="4" fill="#60e5e0" /><circle cx="792.5" cy="103.5" r="4" fill="#60e5e0" /><circle cx="799.3" cy="101.5" r="4" fill="#60e5e0" /><circle cx="806.1" cy="101.5" r="4" fill="#60e5e0" /><circle cx="812.9" cy="101.5" r="4" fill="#60e5e0" /><circle cx="819.6" cy="101.5" r="4" fill="#60e5e0" /><circle cx="826.4" cy="101.5" r="4" fill="#60e5e0" /><circle cx="833.2" cy="101.5" r="4" fill="#60e5e0" /><circle cx="840.0" cy="101.5" r="4" fill="#60e5e0" /><polyline points="80.0,314.6 86.8,314.4 93.6,314.2 100.4,314.2 107.1,314.2 113.9,314.1 120.7,314.1 127.5,314.1 134.3,314.1 141.1,314.1 147.9,314.0 154.6,314.0 161.4,314.0 168.2,314.0 175.0,314.0 181.8,314.0 188.6,314.0 195.4,314.0 202.1,314.0 208.9,314.0 215.7,314.0 222.5,314.0 229.3,314.0 236.1,314.0 242.9,314.0 249.6,314.0 256.4,314.0 263.2,314.0 270.0,314.0 276.8,314.0 283.6,314.0 290.4,314.0 297.1,314.0 303.9,314.0 310.7,314.0 317.5,314.0 324.3,314.0 331.1,314.0 337.9,314.0 344.6,314.0 351.4,314.0 358.2,313.9 365.0,313.6 371.8,313.4 378.6,313.4 385.4,313.4 392.1,313.4 398.9,313.4 405.7,313.1 412.5,313.1 419.3,313.1 426.1,313.1 432.9,313.1 439.6,313.0 446.4,313.0 453.2,312.9 460.0,312.9 466.8,312.9 473.6,312.8 480.4,312.8 487.1,312.6 493.9,312.6 500.7,312.6 507.5,312.6 514.3,312.6 521.1,312.6 527.9,312.6 534.6,312.5 541.4,312.1 548.2,312.1 555.0,312.1 561.8,312.1 568.6,312.1 575.4,312.1 582.1,312.1 588.9,312.1 595.7,312.1 602.5,312.1 609.3,312.0 616.1,312.0 622.9,312.0 629.6,312.0 636.4,312.0 643.2,312.0 650.0,312.0 656.8,312.0 663.6,312.0 670.4,312.0 677.1,312.0 683.9,312.0 690.7,312.0 697.5,312.0 704.3,312.0 711.1,312.0 717.9,312.0 724.6,312.0 731.4,312.0 738.2,312.0 745.0,312.0 751.8,312.0 758.6,312.0 765.4,312.0 772.1,312.0 778.9,311.9 785.7,311.9 792.5,311.9 799.3,311.8 806.1,311.8 812.9,311.8 819.6,311.8 826.4,311.8 833.2,311.8 840.0,311.8" fill="none" stroke="#567de1" stroke-width="2.5" stroke-linecap="round" stroke-linejoin="round" /><circle cx="80.0" cy="314.6" r="4" fill="#567de1" /><circle cx="86.8" cy="314.4" r="4" fill="#567de1" /><circle cx="93.6" cy="314.2" r="4" fill="#567de1" /><circle cx="100.4" cy="314.2" r="4" fill="#567de1" /><circle cx="107.1" cy="314.2" r="4" fill="#567de1" /><circle cx="113.9" cy="314.1" r="4" fill="#567de1" /><circle cx="120.7" cy="314.1" r="4" fill="#567de1" /><circle cx="127.5" cy="314.1" r="4" fill="#567de1" /><circle cx="134.3" cy="314.1" r="4" fill="#567de1" /><circle cx="141.1" cy="314.1" r="4" fill="#567de1" /><circle cx="147.9" cy="314.0" r="4" fill="#567de1" /><circle cx="154.6" cy="314.0" r="4" fill="#567de1" /><circle cx="161.4" cy="314.0" r="4" fill="#567de1" /><circle cx="168.2" cy="314.0" r="4" fill="#567de1" /><circle cx="175.0" cy="314.0" r="4" fill="#567de1" /><circle cx="181.8" cy="314.0" r="4" fill="#567de1" /><circle cx="188.6" cy="314.0" r="4" fill="#567de1" /><circle cx="195.4" cy="314.0" r="4" fill="#567de1" /><circle cx="202.1" cy="314.0" r="4" fill="#567de1" /><circle cx="208.9" cy="314.0" r="4" fill="#567de1" /><circle cx="215.7" cy="314.0" r="4" fill="#567de1" /><circle cx="222.5" cy="314.0" r="4" fill="#567de1" /><circle cx="229.3" cy="314.0" r="4" fill="#567de1" /><circle cx="236.1" cy="314.0" r="4" fill="#567de1" /><circle cx="242.9" cy="314.0" r="4" fill="#567de1" /><circle cx="249.6" cy="314.0" r="4" fill="#567de1" /><circle cx="256.4" cy="314.0" r="4" fill="#567de1" /><circle cx="263.2" cy="314.0" r="4" fill="#567de1" /><circle cx="270.0" cy="314.0" r="4" fill="#567de1" /><circle cx="276.8" cy="314.0" r="4" fill="#567de1" /><circle cx="283.6" cy="314.0" r="4" fill="#567de1" /><circle cx="290.4" cy="314.0" r="4" fill="#567de1" /><circle cx="297.1" cy="314.0" r="4" fill="#567de1" /><circle cx="303.9" cy="314.0" r="4" fill="#567de1" /><circle cx="310.7" cy="314.0" r="4" fill="#567de1" /><circle cx="317.5" cy="314.0" r="4" fill="#567de1" /><circle cx="324.3" cy="314.0" r="4" fill="#567de1" /><circle cx="331.1" cy="314.0" r="4" fill="#567de1" /><circle cx="337.9" cy="314.0" r="4" fill="#567de1" /><circle cx="344.6" cy="314.0" r="4" fill="#567de1" /><circle cx="351.4" cy="314.0" r="4" fill="#567de1" /><circle cx="358.2" cy="313.9" r="4" fill="#567de1" /><circle cx="365.0" cy="313.6" r="4" fill="#567de1" /><circle cx="371.8" cy="313.4" r="4" fill="#567de1" /><circle cx="378.6" cy="313.4" r="4" fill="#567de1" /><circle cx="385.4" cy="313.4" r="4" fill="#567de1" /><circle cx="392.1" cy="313.4" r="4" fill="#567de1" /><circle cx="398.9" cy="313.4" r="4" fill="#567de1" /><circle cx="405.7" cy="313.1" r="4" fill="#567de1" /><circle cx="412.5" cy="313.1" r="4" fill="#567de1" /><circle cx="419.3" cy="313.1" r="4" fill="#567de1" /><circle cx="426.1" cy="313.1" r="4" fill="#567de1" /><circle cx="432.9" cy="313.1" r="4" fill="#567de1" /><circle cx="439.6" cy="313.0" r="4" fill="#567de1" /><circle cx="446.4" cy="313.0" r="4" fill="#567de1" /><circle cx="453.2" cy="312.9" r="4" fill="#567de1" /><circle cx="460.0" cy="312.9" r="4" fill="#567de1" /><circle cx="466.8" cy="312.9" r="4" fill="#567de1" /><circle cx="473.6" cy="312.8" r="4" fill="#567de1" /><circle cx="480.4" cy="312.8" r="4" fill="#567de1" /><circle cx="487.1" cy="312.6" r="4" fill="#567de1" /><circle cx="493.9" cy="312.6" r="4" fill="#567de1" /><circle cx="500.7" cy="312.6" r="4" fill="#567de1" /><circle cx="507.5" cy="312.6" r="4" fill="#567de1" /><circle cx="514.3" cy="312.6" r="4" fill="#567de1" /><circle cx="521.1" cy="312.6" r="4" fill="#567de1" /><circle cx="527.9" cy="312.6" r="4" fill="#567de1" /><circle cx="534.6" cy="312.5" r="4" fill="#567de1" /><circle cx="541.4" cy="312.1" r="4" fill="#567de1" /><circle cx="548.2" cy="312.1" r="4" fill="#567de1" /><circle cx="555.0" cy="312.1" r="4" fill="#567de1" /><circle cx="561.8" cy="312.1" r="4" fill="#567de1" /><circle cx="568.6" cy="312.1" r="4" fill="#567de1" /><circle cx="575.4" cy="312.1" r="4" fill="#567de1" /><circle cx="582.1" cy="312.1" r="4" fill="#567de1" /><circle cx="588.9" cy="312.1" r="4" fill="#567de1" /><circle cx="595.7" cy="312.1" r="4" fill="#567de1" /><circle cx="602.5" cy="312.1" r="4" fill="#567de1" /><circle cx="609.3" cy="312.0" r="4" fill="#567de1" /><circle cx="616.1" cy="312.0" r="4" fill="#567de1" /><circle cx="622.9" cy="312.0" r="4" fill="#567de1" /><circle cx="629.6" cy="312.0" r="4" fill="#567de1" /><circle cx="636.4" cy="312.0" r="4" fill="#567de1" /><circle cx="643.2" cy="312.0" r="4" fill="#567de1" /><circle cx="650.0" cy="312.0" r="4" fill="#567de1" /><circle cx="656.8" cy="312.0" r="4" fill="#567de1" /><circle cx="663.6" cy="312.0" r="4" fill="#567de1" /><circle cx="670.4" cy="312.0" r="4" fill="#567de1" /><circle cx="677.1" cy="312.0" r="4" fill="#567de1" /><circle cx="683.9" cy="312.0" r="4" fill="#567de1" /><circle cx="690.7" cy="312.0" r="4" fill="#567de1" /><circle cx="697.5" cy="312.0" r="4" fill="#567de1" /><circle cx="704.3" cy="312.0" r="4" fill="#567de1" /><circle cx="711.1" cy="312.0" r="4" fill="#567de1" /><circle cx="717.9" cy="312.0" r="4" fill="#567de1" /><circle cx="724.6" cy="312.0" r="4" fill="#567de1" /><circle cx="731.4" cy="312.0" r="4" fill="#567de1" /><circle cx="738.2" cy="312.0" r="4" fill="#567de1" /><circle cx="745.0" cy="312.0" r="4" fill="#567de1" /><circle cx="751.8" cy="312.0" r="4" fill="#567de1" /><circle cx="758.6" cy="312.0" r="4" fill="#567de1" /><circle cx="765.4" cy="312.0" r="4" fill="#567de1" /><circle cx="772.1" cy="312.0" r="4" fill="#567de1" /><circle cx="778.9" cy="311.9" r="4" fill="#567de1" /><circle cx="785.7" cy="311.9" r="4" fill="#567de1" /><circle cx="792.5" cy="311.9" r="4" fill="#567de1" /><circle cx="799.3" cy="311.8" r="4" fill="#567de1" /><circle cx="806.1" cy="311.8" r="4" fill="#567de1" /><circle cx="812.9" cy="311.8" r="4" fill="#567de1" /><circle cx="819.6" cy="311.8" r="4" fill="#567de1" /><circle cx="826.4" cy="311.8" r="4" fill="#567de1" /><circle cx="833.2" cy="311.8" r="4" fill="#567de1" /><circle cx="840.0" cy="311.8" r="4" fill="#567de1" /><polyline points="80.0,303.9 86.8,304.2 93.6,304.4 100.4,304.4 107.1,304.4 113.9,304.4 120.7,304.4 127.5,304.4 134.3,304.4 141.1,304.4 147.9,304.4 154.6,304.4 161.4,304.4 168.2,304.4 175.0,304.4 181.8,304.4 188.6,304.4 195.4,304.4 202.1,304.4 208.9,304.4 215.7,304.4 222.5,304.4 229.3,304.4 236.1,304.4 242.9,304.4 249.6,304.4 256.4,304.4 263.2,304.4 270.0,299.1 276.8,299.1 283.6,299.1 290.4,298.9 297.1,295.6 303.9,295.6 310.7,295.6 317.5,295.6 324.3,295.6 331.1,295.6 337.9,295.6 344.6,295.6 351.4,295.6 358.2,295.8 365.0,295.9 371.8,295.9 378.6,295.9 385.4,295.9 392.1,295.9 398.9,295.9 405.7,295.9 412.5,295.9 419.3,295.9 426.1,295.9 432.9,295.9 439.6,295.9 446.4,295.9 453.2,295.9 460.0,295.9 466.8,295.9 473.6,295.8 480.4,295.8 487.1,295.9 493.9,295.9 500.7,295.9 507.5,295.9 514.3,295.9 521.1,295.9 527.9,295.9 534.6,296.0 541.4,296.4 548.2,296.4 555.0,296.4 561.8,296.4 568.6,296.4 575.4,296.4 582.1,296.4 588.9,296.4 595.7,296.4 602.5,296.4 609.3,296.5 616.1,296.5 622.9,296.5 629.6,296.5 636.4,296.5 643.2,296.5 650.0,296.5 656.8,296.5 663.6,296.5 670.4,296.5 677.1,296.5 683.9,296.5 690.7,296.5 697.5,296.5 704.3,296.5 711.1,296.5 717.9,296.5 724.6,296.5 731.4,296.5 738.2,296.5 745.0,296.5 751.8,296.5 758.6,296.5 765.4,296.5 772.1,296.5 778.9,295.0 785.7,295.0 792.5,295.0 799.3,295.1 806.1,295.1 812.9,295.1 819.6,295.1 826.4,295.1 833.2,295.1 840.0,295.1" fill="none" stroke="#9754dd" stroke-width="2.5" stroke-linecap="round" stroke-linejoin="round" /><circle cx="80.0" cy="303.9" r="4" fill="#9754dd" /><circle cx="86.8" cy="304.2" r="4" fill="#9754dd" /><circle cx="93.6" cy="304.4" r="4" fill="#9754dd" /><circle cx="100.4" cy="304.4" r="4" fill="#9754dd" /><circle cx="107.1" cy="304.4" r="4" fill="#9754dd" /><circle cx="113.9" cy="304.4" r="4" fill="#9754dd" /><circle cx="120.7" cy="304.4" r="4" fill="#9754dd" /><circle cx="127.5" cy="304.4" r="4" fill="#9754dd" /><circle cx="134.3" cy="304.4" r="4" fill="#9754dd" /><circle cx="141.1" cy="304.4" r="4" fill="#9754dd" /><circle cx="147.9" cy="304.4" r="4" fill="#9754dd" /><circle cx="154.6" cy="304.4" r="4" fill="#9754dd" /><circle cx="161.4" cy="304.4" r="4" fill="#9754dd" /><circle cx="168.2" cy="304.4" r="4" fill="#9754dd" /><circle cx="175.0" cy="304.4" r="4" fill="#9754dd" /><circle cx="181.8" cy="304.4" r="4" fill="#9754dd" /><circle cx="188.6" cy="304.4" r="4" fill="#9754dd" /><circle cx="195.4" cy="304.4" r="4" fill="#9754dd" /><circle cx="202.1" cy="304.4" r="4" fill="#9754dd" /><circle cx="208.9" cy="304.4" r="4" fill="#9754dd" /><circle cx="215.7" cy="304.4" r="4" fill="#9754dd" /><circle cx="222.5" cy="304.4" r="4" fill="#9754dd" /><circle cx="229.3" cy="304.4" r="4" fill="#9754dd" /><circle cx="236.1" cy="304.4" r="4" fill="#9754dd" /><circle cx="242.9" cy="304.4" r="4" fill="#9754dd" /><circle cx="249.6" cy="304.4" r="4" fill="#9754dd" /><circle cx="256.4" cy="304.4" r="4" fill="#9754dd" /><circle cx="263.2" cy="304.4" r="4" fill="#9754dd" /><circle cx="270.0" cy="299.1" r="4" fill="#9754dd" /><circle cx="276.8" cy="299.1" r="4" fill="#9754dd" /><circle cx="283.6" cy="299.1" r="4" fill="#9754dd" /><circle cx="290.4" cy="298.9" r="4" fill="#9754dd" /><circle cx="297.1" cy="295.6" r="4" fill="#9754dd" /><circle cx="303.9" cy="295.6" r="4" fill="#9754dd" /><circle cx="310.7" cy="295.6" r="4" fill="#9754dd" /><circle cx="317.5" cy="295.6" r="4" fill="#9754dd" /><circle cx="324.3" cy="295.6" r="4" fill="#9754dd" /><circle cx="331.1" cy="295.6" r="4" fill="#9754dd" /><circle cx="337.9" cy="295.6" r="4" fill="#9754dd" /><circle cx="344.6" cy="295.6" r="4" fill="#9754dd" /><circle cx="351.4" cy="295.6" r="4" fill="#9754dd" /><circle cx="358.2" cy="295.8" r="4" fill="#9754dd" /><circle cx="365.0" cy="295.9" r="4" fill="#9754dd" /><circle cx="371.8" cy="295.9" r="4" fill="#9754dd" /><circle cx="378.6" cy="295.9" r="4" fill="#9754dd" /><circle cx="385.4" cy="295.9" r="4" fill="#9754dd" /><circle cx="392.1" cy="295.9" r="4" fill="#9754dd" /><circle cx="398.9" cy="295.9" r="4" fill="#9754dd" /><circle cx="405.7" cy="295.9" r="4" fill="#9754dd" /><circle cx="412.5" cy="295.9" r="4" fill="#9754dd" /><circle cx="419.3" cy="295.9" r="4" fill="#9754dd" /><circle cx="426.1" cy="295.9" r="4" fill="#9754dd" /><circle cx="432.9" cy="295.9" r="4" fill="#9754dd" /><circle cx="439.6" cy="295.9" r="4" fill="#9754dd" /><circle cx="446.4" cy="295.9" r="4" fill="#9754dd" /><circle cx="453.2" cy="295.9" r="4" fill="#9754dd" /><circle cx="460.0" cy="295.9" r="4" fill="#9754dd" /><circle cx="466.8" cy="295.9" r="4" fill="#9754dd" /><circle cx="473.6" cy="295.8" r="4" fill="#9754dd" /><circle cx="480.4" cy="295.8" r="4" fill="#9754dd" /><circle cx="487.1" cy="295.9" r="4" fill="#9754dd" /><circle cx="493.9" cy="295.9" r="4" fill="#9754dd" /><circle cx="500.7" cy="295.9" r="4" fill="#9754dd" /><circle cx="507.5" cy="295.9" r="4" fill="#9754dd" /><circle cx="514.3" cy="295.9" r="4" fill="#9754dd" /><circle cx="521.1" cy="295.9" r="4" fill="#9754dd" /><circle cx="527.9" cy="295.9" r="4" fill="#9754dd" /><circle cx="534.6" cy="296.0" r="4" fill="#9754dd" /><circle cx="541.4" cy="296.4" r="4" fill="#9754dd" /><circle cx="548.2" cy="296.4" r="4" fill="#9754dd" /><circle cx="555.0" cy="296.4" r="4" fill="#9754dd" /><circle cx="561.8" cy="296.4" r="4" fill="#9754dd" /><circle cx="568.6" cy="296.4" r="4" fill="#9754dd" /><circle cx="575.4" cy="296.4" r="4" fill="#9754dd" /><circle cx="582.1" cy="296.4" r="4" fill="#9754dd" /><circle cx="588.9" cy="296.4" r="4" fill="#9754dd" /><circle cx="595.7" cy="296.4" r="4" fill="#9754dd" /><circle cx="602.5" cy="296.4" r="4" fill="#9754dd" /><circle cx="609.3" cy="296.5" r="4" fill="#9754dd" /><circle cx="616.1" cy="296.5" r="4" fill="#9754dd" /><circle cx="622.9" cy="296.5" r="4" fill="#9754dd" /><circle cx="629.6" cy="296.5" r="4" fill="#9754dd" /><circle cx="636.4" cy="296.5" r="4" fill="#9754dd" /><circle cx="643.2" cy="296.5" r="4" fill="#9754dd" /><circle cx="650.0" cy="296.5" r="4" fill="#9754dd" /><circle cx="656.8" cy="296.5" r="4" fill="#9754dd" /><circle cx="663.6" cy="296.5" r="4" fill="#9754dd" /><circle cx="670.4" cy="296.5" r="4" fill="#9754dd" /><circle cx="677.1" cy="296.5" r="4" fill="#9754dd" /><circle cx="683.9" cy="296.5" r="4" fill="#9754dd" /><circle cx="690.7" cy="296.5" r="4" fill="#9754dd" /><circle cx="697.5" cy="296.5" r="4" fill="#9754dd" /><circle cx="704.3" cy="296.5" r="4" fill="#9754dd" /><circle cx="711.1" cy="296.5" r="4" fill="#9754dd" /><circle cx="717.9" cy="296.5" r="4" fill="#9754dd" /><circle cx="724.6" cy="296.5" r="4" fill="#9754dd" /><circle cx="731.4" cy="296.5" r="4" fill="#9754dd" /><circle cx="738.2" cy="296.5" r="4" fill="#9754dd" /><circle cx="745.0" cy="296.5" r="4" fill="#9754dd" /><circle cx="751.8" cy="296.5" r="4" fill="#9754dd" /><circle cx="758.6" cy="296.5" r="4" fill="#9754dd" /><circle cx="765.4" cy="296.5" r="4" fill="#9754dd" /><circle cx="772.1" cy="296.5" r="4" fill="#9754dd" /><circle cx="778.9" cy="295.0" r="4" fill="#9754dd" /><circle cx="785.7" cy="295.0" r="4" fill="#9754dd" /><circle cx="792.5" cy="295.0" r="4" fill="#9754dd" /><circle cx="799.3" cy="295.1" r="4" fill="#9754dd" /><circle cx="806.1" cy="295.1" r="4" fill="#9754dd" /><circle cx="812.9" cy="295.1" r="4" fill="#9754dd" /><circle cx="819.6" cy="295.1" r="4" fill="#9754dd" /><circle cx="826.4" cy="295.1" r="4" fill="#9754dd" /><circle cx="833.2" cy="295.1" r="4" fill="#9754dd" /><circle cx="840.0" cy="295.1" r="4" fill="#9754dd" />
  <rect x="80" y="339" width="10" height="10" rx="2" ry="2" fill="#19e5a1" /><text x="96" y="348" class="legend-label">Stars</text><rect x="250" y="339" width="10" height="10" rx="2" ry="2" fill="#6eb6ec" /><text x="266" y="348" class="legend-label">Followers</text><rect x="420" y="339" width="10" height="10" rx="2" ry="2" fill="#5938e2" /><text x="436" y="348" class="legend-label">Following</text><rect x="590" y="339" width="10" height="10" rx="2" ry="2" fill="#60e5e0" /><text x="606" y="348" class="legend-label">Contributions</text><rect x="80" y="357" width="10" height="10" rx="2" ry="2" fill="#567de1" /><text x="96" y="366" class="legend-label">Pull Requests</text><rect x="250" y="357" width="10" height="10" rx="2" ry="2" fill="#9754dd" /><text x="266" y="366" class="legend-label">Issues</text>
</svg>
