<svg width="900" height="402" viewBox="0 0 900 402" xmlns="http://www.w3.org/2000/svg">
  <defs>
    <linearGradient id="history-gradient" x1="0%" y1="0%" x2="100%" y2="100%">
      <stop offset="0%" style="stop-color:#58a6ff;stop-opacity:1" />
      <stop offset="100%" style="stop-color:#a371f7;stop-opacity:1" />
    </linearGradient>
    <clipPath id="history-rounded">
      <rect x="0" y="0" width="900" height="402" rx="8" ry="8" />
    </clipPath>
  </defs>
  <style>
    .title {
      font-family: 'Segoe UI', Ubuntu, 'Helvetica Neue', sans-serif;
      font-size: 22px;
      font-weight: 700;
      fill: #58a6ff;
    }
    .subtitle {
      font-family: 'Segoe UI', Ubuntu, 'Helvetica Neue', sans-serif;
      font-size: 12px;
      font-weight: 500;
      fill: #8b949e;
    }
    .axis-label {
      font-family: 'Segoe UI', Ubuntu, 'Helvetica Neue', sans-serif;
      font-size: 10px;
      fill: #8b949e;
    }
    .grid-line {
      stroke: #30363d;
      stroke-width: 1;
      opacity: 0.3;
    }
    .legend-label {
      font-family: 'Segoe UI', Ubuntu, 'Helvetica Neue', sans-serif;
      font-size: 11px;
      fill: #c9d1d9;
      dominant-baseline: middle;
    }
  </style>
  <rect clip-path="url(#history-rounded)" width="100%" height="100%" fill="#0d1117" stroke="#30363d" stroke-width="1" />
  <rect x="0" y="396" width="900" height="6" fill="url(#history-gradient)" clip-path="url(#history-rounded)" />
  <text x="24" y="34" class="title">Leonardo Klein Stats History</text>
  <text x="24" y="54" class="subtitle">Period: 2026-02-20 to 2026-03-09</text>
  <text x="72" y="320.0" text-anchor="end" dominant-baseline="central" class="axis-label">0</text><text x="72" y="270.0" text-anchor="end" dominant-baseline="central" class="axis-label">400</text><text x="72" y="220.0" text-anchor="end" dominant-baseline="central" class="axis-label">800</text><text x="72" y="170.0" text-anchor="end" dominant-baseline="central" class="axis-label">1.2k</text><text x="72" y="120.0" text-anchor="end" dominant-baseline="central" class="axis-label">1.6k</text><text x="72" y="70.0" text-anchor="end" dominant-baseline="central" class="axis-label">2.0k</text>
  <text x="80.0" y="336" text-anchor="middle" class="axis-label">02-20</text><text x="149.9" y="336" text-anchor="middle" class="axis-label">02-22</text><text x="219.8" y="336" text-anchor="middle" class="axis-label">02-23</text><text x="289.7" y="336" text-anchor="middle" class="axis-label">02-25</text><text x="359.5" y="336" text-anchor="middle" class="axis-label">02-26</text><text x="429.4" y="336" text-anchor="middle" class="axis-label">02-28</text><text x="499.3" y="336" text-anchor="middle" class="axis-label">03-02</text><text x="569.2" y="336" text-anchor="middle" class="axis-label">03-03</text><text x="639.1" y="336" text-anchor="middle" class="axis-label">03-05</text><text x="709.0" y="336" text-anchor="middle" class="axis-label">03-06</text><text x="778.9" y="336" text-anchor="middle" class="axis-label">03-08</text><text x="840.0" y="336" text-anchor="middle" class="axis-label">03-09</text>
  <line x1="80" y1="320.0" x2="840" y2="320.0" class="grid-line" /><line x1="80" y1="270.0" x2="840" y2="270.0" class="grid-line" /><line x1="80" y1="220.0" x2="840" y2="220.0" class="grid-line" /><line x1="80" y1="170.0" x2="840" y2="170.0" class="grid-line" /><line x1="80" y1="120.0" x2="840" y2="120.0" class="grid-line" /><line x1="80" y1="70.0" x2="840" y2="70.0" class="grid-line" />
  <polyline points="80.0,317.0 88.7,317.0 97.5,317.0 106.2,317.0 114.9,317.0 123.7,317.0 132.4,317.0 141.1,317.0 149.9,317.0 158.6,317.0 167.4,317.0 176.1,317.0 184.8,317.0 193.6,317.0 202.3,317.0 211.0,317.0 219.8,317.0 228.5,317.0 237.2,317.0 246.0,317.0 254.7,317.0 263.4,317.0 272.2,317.0 280.9,317.0 289.7,317.0 298.4,317.0 307.1,317.0 315.9,317.0 324.6,317.0 333.3,317.0 342.1,317.0 350.8,317.0 359.5,317.0 368.3,317.0 377.0,317.0 385.7,317.0 394.5,317.0 403.2,317.0 412.0,317.0 420.7,317.0 429.4,317.0 438.2,317.0 446.9,317.0 455.6,317.0 464.4,317.0 473.1,317.0 481.8,317.0 490.6,317.0 499.3,317.0 508.0,317.0 516.8,317.0 525.5,317.0 534.3,317.0 543.0,317.0 551.7,317.0 560.5,317.0 569.2,317.0 577.9,317.0 586.7,317.0 595.4,317.0 604.1,317.0 612.9,317.0 621.6,317.0 630.3,317.0 639.1,317.0 647.8,317.0 656.6,317.0 665.3,317.0 674.0,317.0 682.8,317.0 691.5,317.0 700.2,317.0 709.0,317.0 717.7,317.0 726.4,317.0 735.2,317.0 743.9,317.0 752.6,317.0 761.4,317.0 770.1,317.0 778.9,317.0 787.6,317.0 796.3,317.0 805.1,317.0 813.8,317.0 822.5,317.0 831.3,317.0 840.0,317.0" fill="none" stroke="#19e5a1" stroke-width="2.5" stroke-linecap="round" stroke-linejoin="round" /><circle cx="80.0" cy="317.0" r="4" fill="#19e5a1" /><circle cx="88.7" cy="317.0" r="4" fill="#19e5a1" /><circle cx="97.5" cy="317.0" r="4" fill="#19e5a1" /><circle cx="106.2" cy="317.0" r="4" fill="#19e5a1" /><circle cx="114.9" cy="317.0" r="4" fill="#19e5a1" /><circle cx="123.7" cy="317.0" r="4" fill="#19e5a1" /><circle cx="132.4" cy="317.0" r="4" fill="#19e5a1" /><circle cx="141.1" cy="317.0" r="4" fill="#19e5a1" /><circle cx="149.9" cy="317.0" r="4" fill="#19e5a1" /><circle cx="158.6" cy="317.0" r="4" fill="#19e5a1" /><circle cx="167.4" cy="317.0" r="4" fill="#19e5a1" /><circle cx="176.1" cy="317.0" r="4" fill="#19e5a1" /><circle cx="184.8" cy="317.0" r="4" fill="#19e5a1" /><circle cx="193.6" cy="317.0" r="4" fill="#19e5a1" /><circle cx="202.3" cy="317.0" r="4" fill="#19e5a1" /><circle cx="211.0" cy="317.0" r="4" fill="#19e5a1" /><circle cx="219.8" cy="317.0" r="4" fill="#19e5a1" /><circle cx="228.5" cy="317.0" r="4" fill="#19e5a1" /><circle cx="237.2" cy="317.0" r="4" fill="#19e5a1" /><circle cx="246.0" cy="317.0" r="4" fill="#19e5a1" /><circle cx="254.7" cy="317.0" r="4" fill="#19e5a1" /><circle cx="263.4" cy="317.0" r="4" fill="#19e5a1" /><circle cx="272.2" cy="317.0" r="4" fill="#19e5a1" /><circle cx="280.9" cy="317.0" r="4" fill="#19e5a1" /><circle cx="289.7" cy="317.0" r="4" fill="#19e5a1" /><circle cx="298.4" cy="317.0" r="4" fill="#19e5a1" /><circle cx="307.1" cy="317.0" r="4" fill="#19e5a1" /><circle cx="315.9" cy="317.0" r="4" fill="#19e5a1" /><circle cx="324.6" cy="317.0" r="4" fill="#19e5a1" /><circle cx="333.3" cy="317.0" r="4" fill="#19e5a1" /><circle cx="342.1" cy="317.0" r="4" fill="#19e5a1" /><circle cx="350.8" cy="317.0" r="4" fill="#19e5a1" /><circle cx="359.5" cy="317.0" r="4" fill="#19e5a1" /><circle cx="368.3" cy="317.0" r="4" fill="#19e5a1" /><circle cx="377.0" cy="317.0" r="4" fill="#19e5a1" /><circle cx="385.7" cy="317.0" r="4" fill="#19e5a1" /><circle cx="394.5" cy="317.0" r="4" fill="#19e5a1" /><circle cx="403.2" cy="317.0" r="4" fill="#19e5a1" /><circle cx="412.0" cy="317.0" r="4" fill="#19e5a1" /><circle cx="420.7" cy="317.0" r="4" fill="#19e5a1" /><circle cx="429.4" cy="317.0" r="4" fill="#19e5a1" /><circle cx="438.2" cy="317.0" r="4" fill="#19e5a1" /><circle cx="446.9" cy="317.0" r="4" fill="#19e5a1" /><circle cx="455.6" cy="317.0" r="4" fill="#19e5a1" /><circle cx="464.4" cy="317.0" r="4" fill="#19e5a1" /><circle cx="473.1" cy="317.0" r="4" fill="#19e5a1" /><circle cx="481.8" cy="317.0" r="4" fill="#19e5a1" /><circle cx="490.6" cy="317.0" r="4" fill="#19e5a1" /><circle cx="499.3" cy="317.0" r="4" fill="#19e5a1" /><circle cx="508.0" cy="317.0" r="4" fill="#19e5a1" /><circle cx="516.8" cy="317.0" r="4" fill="#19e5a1" /><circle cx="525.5" cy="317.0" r="4" fill="#19e5a1" /><circle cx="534.3" cy="317.0" r="4" fill="#19e5a1" /><circle cx="543.0" cy="317.0" r="4" fill="#19e5a1" /><circle cx="551.7" cy="317.0" r="4" fill="#19e5a1" /><circle cx="560.5" cy="317.0" r="4" fill="#19e5a1" /><circle cx="569.2" cy="317.0" r="4" fill="#19e5a1" /><circle cx="577.9" cy="317.0" r="4" fill="#19e5a1" /><circle cx="586.7" cy="317.0" r="4" fill="#19e5a1" /><circle cx="595.4" cy="317.0" r="4" fill="#19e5a1" /><circle cx="604.1" cy="317.0" r="4" fill="#19e5a1" /><circle cx="612.9" cy="317.0" r="4" fill="#19e5a1" /><circle cx="621.6" cy="317.0" r="4" fill="#19e5a1" /><circle cx="630.3" cy="317.0" r="4" fill="#19e5a1" /><circle cx="639.1" cy="317.0" r="4" fill="#19e5a1" /><circle cx="647.8" cy="317.0" r="4" fill="#19e5a1" /><circle cx="656.6" cy="317.0" r="4" fill="#19e5a1" /><circle cx="665.3" cy="317.0" r="4" fill="#19e5a1" /><circle cx="674.0" cy="317.0" r="4" fill="#19e5a1" /><circle cx="682.8" cy="317.0" r="4" fill="#19e5a1" /><circle cx="691.5" cy="317.0" r="4" fill="#19e5a1" /><circle cx="700.2" cy="317.0" r="4" fill="#19e5a1" /><circle cx="709.0" cy="317.0" r="4" fill="#19e5a1" /><circle cx="717.7" cy="317.0" r="4" fill="#19e5a1" /><circle cx="726.4" cy="317.0" r="4" fill="#19e5a1" /><circle cx="735.2" cy="317.0" r="4" fill="#19e5a1" /><circle cx="743.9" cy="317.0" r="4" fill="#19e5a1" /><circle cx="752.6" cy="317.0" r="4" fill="#19e5a1" /><circle cx="761.4" cy="317.0" r="4" fill="#19e5a1" /><circle cx="770.1" cy="317.0" r="4" fill="#19e5a1" /><circle cx="778.9" cy="317.0" r="4" fill="#19e5a1" /><circle cx="787.6" cy="317.0" r="4" fill="#19e5a1" /><circle cx="796.3" cy="317.0" r="4" fill="#19e5a1" /><circle cx="805.1" cy="317.0" r="4" fill="#19e5a1" /><circle cx="813.8" cy="317.0" r="4" fill="#19e5a1" /><circle cx="822.5" cy="317.0" r="4" fill="#19e5a1" /><circle cx="831.3" cy="317.0" r="4" fill="#19e5a1" /><circle cx="840.0" cy="317.0" r="4" fill="#19e5a1" /><polyline points="80.0,313.2 88.7,312.2 97.5,312.1 106.2,312.4 114.9,312.4 123.7,312.4 132.4,312.1 141.1,312.0 149.9,311.9 158.6,311.9 167.4,311.8 176.1,311.8 184.8,311.5 193.6,311.5 202.3,311.5 211.0,311.2 219.8,311.2 228.5,311.1 237.2,311.1 246.0,311.1 254.7,310.9 263.4,311.0 272.2,310.8 280.9,310.8 289.7,310.8 298.4,310.8 307.1,310.4 315.9,310.2 324.6,310.4 333.3,310.4 342.1,310.4 350.8,310.4 359.5,310.4 368.3,310.2 377.0,310.2 385.7,310.1 394.5,310.1 403.2,309.8 412.0,309.6 420.7,309.6 429.4,309.6 438.2,309.6 446.9,309.5 455.6,309.4 464.4,309.4 473.1,309.4 481.8,309.4 490.6,309.2 499.3,309.2 508.0,309.2 516.8,309.4 525.5,309.4 534.3,309.5 543.0,309.2 551.7,309.2 560.5,309.4 569.2,309.2 577.9,309.2 586.7,309.2 595.4,309.2 604.1,309.2 612.9,309.1 621.6,309.1 630.3,309.1 639.1,309.1 647.8,309.0 656.6,309.0 665.3,308.9 674.0,308.9 682.8,308.9 691.5,308.6 700.2,308.6 709.0,308.6 717.7,308.6 726.4,308.6 735.2,308.6 743.9,308.6 752.6,308.6 761.4,308.6 770.1,308.6 778.9,308.6 787.6,308.6 796.3,308.6 805.1,307.8 813.8,307.8 822.5,307.6 831.3,307.6 840.0,307.6" fill="none" stroke="#6eb6ec" stroke-width="2.5" stroke-linecap="round" stroke-linejoin="round" /><circle cx="80.0" cy="313.2" r="4" fill="#6eb6ec" /><circle cx="88.7" cy="312.2" r="4" fill="#6eb6ec" /><circle cx="97.5" cy="312.1" r="4" fill="#6eb6ec" /><circle cx="106.2" cy="312.4" r="4" fill="#6eb6ec" /><circle cx="114.9" cy="312.4" r="4" fill="#6eb6ec" /><circle cx="123.7" cy="312.4" r="4" fill="#6eb6ec" /><circle cx="132.4" cy="312.1" r="4" fill="#6eb6ec" /><circle cx="141.1" cy="312.0" r="4" fill="#6eb6ec" /><circle cx="149.9" cy="311.9" r="4" fill="#6eb6ec" /><circle cx="158.6" cy="311.9" r="4" fill="#6eb6ec" /><circle cx="167.4" cy="311.8" r="4" fill="#6eb6ec" /><circle cx="176.1" cy="311.8" r="4" fill="#6eb6ec" /><circle cx="184.8" cy="311.5" r="4" fill="#6eb6ec" /><circle cx="193.6" cy="311.5" r="4" fill="#6eb6ec" /><circle cx="202.3" cy="311.5" r="4" fill="#6eb6ec" /><circle cx="211.0" cy="311.2" r="4" fill="#6eb6ec" /><circle cx="219.8" cy="311.2" r="4" fill="#6eb6ec" /><circle cx="228.5" cy="311.1" r="4" fill="#6eb6ec" /><circle cx="237.2" cy="311.1" r="4" fill="#6eb6ec" /><circle cx="246.0" cy="311.1" r="4" fill="#6eb6ec" /><circle cx="254.7" cy="310.9" r="4" fill="#6eb6ec" /><circle cx="263.4" cy="311.0" r="4" fill="#6eb6ec" /><circle cx="272.2" cy="310.8" r="4" fill="#6eb6ec" /><circle cx="280.9" cy="310.8" r="4" fill="#6eb6ec" /><circle cx="289.7" cy="310.8" r="4" fill="#6eb6ec" /><circle cx="298.4" cy="310.8" r="4" fill="#6eb6ec" /><circle cx="307.1" cy="310.4" r="4" fill="#6eb6ec" /><circle cx="315.9" cy="310.2" r="4" fill="#6eb6ec" /><circle cx="324.6" cy="310.4" r="4" fill="#6eb6ec" /><circle cx="333.3" cy="310.4" r="4" fill="#6eb6ec" /><circle cx="342.1" cy="310.4" r="4" fill="#6eb6ec" /><circle cx="350.8" cy="310.4" r="4" fill="#6eb6ec" /><circle cx="359.5" cy="310.4" r="4" fill="#6eb6ec" /><circle cx="368.3" cy="310.2" r="4" fill="#6eb6ec" /><circle cx="377.0" cy="310.2" r="4" fill="#6eb6ec" /><circle cx="385.7" cy="310.1" r="4" fill="#6eb6ec" /><circle cx="394.5" cy="310.1" r="4" fill="#6eb6ec" /><circle cx="403.2" cy="309.8" r="4" fill="#6eb6ec" /><circle cx="412.0" cy="309.6" r="4" fill="#6eb6ec" /><circle cx="420.7" cy="309.6" r="4" fill="#6eb6ec" /><circle cx="429.4" cy="309.6" r="4" fill="#6eb6ec" /><circle cx="438.2" cy="309.6" r="4" fill="#6eb6ec" /><circle cx="446.9" cy="309.5" r="4" fill="#6eb6ec" /><circle cx="455.6" cy="309.4" r="4" fill="#6eb6ec" /><circle cx="464.4" cy="309.4" r="4" fill="#6eb6ec" /><circle cx="473.1" cy="309.4" r="4" fill="#6eb6ec" /><circle cx="481.8" cy="309.4" r="4" fill="#6eb6ec" /><circle cx="490.6" cy="309.2" r="4" fill="#6eb6ec" /><circle cx="499.3" cy="309.2" r="4" fill="#6eb6ec" /><circle cx="508.0" cy="309.2" r="4" fill="#6eb6ec" /><circle cx="516.8" cy="309.4" r="4" fill="#6eb6ec" /><circle cx="525.5" cy="309.4" r="4" fill="#6eb6ec" /><circle cx="534.3" cy="309.5" r="4" fill="#6eb6ec" /><circle cx="543.0" cy="309.2" r="4" fill="#6eb6ec" /><circle cx="551.7" cy="309.2" r="4" fill="#6eb6ec" /><circle cx="560.5" cy="309.4" r="4" fill="#6eb6ec" /><circle cx="569.2" cy="309.2" r="4" fill="#6eb6ec" /><circle cx="577.9" cy="309.2" r="4" fill="#6eb6ec" /><circle cx="586.7" cy="309.2" r="4" fill="#6eb6ec" /><circle cx="595.4" cy="309.2" r="4" fill="#6eb6ec" /><circle cx="604.1" cy="309.2" r="4" fill="#6eb6ec" /><circle cx="612.9" cy="309.1" r="4" fill="#6eb6ec" /><circle cx="621.6" cy="309.1" r="4" fill="#6eb6ec" /><circle cx="630.3" cy="309.1" r="4" fill="#6eb6ec" /><circle cx="639.1" cy="309.1" r="4" fill="#6eb6ec" /><circle cx="647.8" cy="309.0" r="4" fill="#6eb6ec" /><circle cx="656.6" cy="309.0" r="4" fill="#6eb6ec" /><circle cx="665.3" cy="308.9" r="4" fill="#6eb6ec" /><circle cx="674.0" cy="308.9" r="4" fill="#6eb6ec" /><circle cx="682.8" cy="308.9" r="4" fill="#6eb6ec" /><circle cx="691.5" cy="308.6" r="4" fill="#6eb6ec" /><circle cx="700.2" cy="308.6" r="4" fill="#6eb6ec" /><circle cx="709.0" cy="308.6" r="4" fill="#6eb6ec" /><circle cx="717.7" cy="308.6" r="4" fill="#6eb6ec" /><circle cx="726.4" cy="308.6" r="4" fill="#6eb6ec" /><circle cx="735.2" cy="308.6" r="4" fill="#6eb6ec" /><circle cx="743.9" cy="308.6" r="4" fill="#6eb6ec" /><circle cx="752.6" cy="308.6" r="4" fill="#6eb6ec" /><circle cx="761.4" cy="308.6" r="4" fill="#6eb6ec" /><circle cx="770.1" cy="308.6" r="4" fill="#6eb6ec" /><circle cx="778.9" cy="308.6" r="4" fill="#6eb6ec" /><circle cx="787.6" cy="308.6" r="4" fill="#6eb6ec" /><circle cx="796.3" cy="308.6" r="4" fill="#6eb6ec" /><circle cx="805.1" cy="307.8" r="4" fill="#6eb6ec" /><circle cx="813.8" cy="307.8" r="4" fill="#6eb6ec" /><circle cx="822.5" cy="307.6" r="4" fill="#6eb6ec" /><circle cx="831.3" cy="307.6" r="4" fill="#6eb6ec" /><circle cx="840.0" cy="307.6" r="4" fill="#6eb6ec" /><polyline points="80.0,305.8 88.7,305.8 97.5,305.8 106.2,305.8 114.9,305.8 123.7,305.8 132.4,305.8 141.1,305.8 149.9,305.8 158.6,305.8 167.4,304.9 176.1,304.9 184.8,304.9 193.6,304.9 202.3,304.9 211.0,304.9 219.8,304.9 228.5,304.9 237.2,304.9 246.0,304.9 254.7,304.9 263.4,304.9 272.2,304.9 280.9,304.9 289.7,304.9 298.4,304.9 307.1,304.9 315.9,304.9 324.6,304.9 333.3,304.9 342.1,304.9 350.8,304.9 359.5,304.9 368.3,304.9 377.0,304.9 385.7,304.9 394.5,304.9 403.2,303.6 412.0,303.6 420.7,303.6 429.4,303.6 438.2,303.6 446.9,303.6 455.6,303.6 464.4,303.6 473.1,303.6 481.8,303.6 490.6,303.6 499.3,303.6 508.0,303.6 516.8,303.6 525.5,302.9 534.3,302.9 543.0,298.0 551.7,298.0 560.5,298.0 569.2,298.0 577.9,298.0 586.7,298.0 595.4,298.0 604.1,298.0 612.9,298.0 621.6,298.0 630.3,298.0 639.1,298.0 647.8,298.0 656.6,298.0 665.3,297.8 674.0,297.8 682.8,297.8 691.5,297.8 700.2,297.8 709.0,297.8 717.7,297.8 726.4,297.8 735.2,297.8 743.9,297.8 752.6,297.8 761.4,297.8 770.1,297.8 778.9,297.8 787.6,297.8 796.3,297.8 805.1,297.8 813.8,297.8 822.5,297.8 831.3,297.6 840.0,297.8" fill="none" stroke="#5938e2" stroke-width="2.5" stroke-linecap="round" stroke-linejoin="round" /><circle cx="80.0" cy="305.8" r="4" fill="#5938e2" /><circle cx="88.7" cy="305.8" r="4" fill="#5938e2" /><circle cx="97.5" cy="305.8" r="4" fill="#5938e2" /><circle cx="106.2" cy="305.8" r="4" fill="#5938e2" /><circle cx="114.9" cy="305.8" r="4" fill="#5938e2" /><circle cx="123.7" cy="305.8" r="4" fill="#5938e2" /><circle cx="132.4" cy="305.8" r="4" fill="#5938e2" /><circle cx="141.1" cy="305.8" r="4" fill="#5938e2" /><circle cx="149.9" cy="305.8" r="4" fill="#5938e2" /><circle cx="158.6" cy="305.8" r="4" fill="#5938e2" /><circle cx="167.4" cy="304.9" r="4" fill="#5938e2" /><circle cx="176.1" cy="304.9" r="4" fill="#5938e2" /><circle cx="184.8" cy="304.9" r="4" fill="#5938e2" /><circle cx="193.6" cy="304.9" r="4" fill="#5938e2" /><circle cx="202.3" cy="304.9" r="4" fill="#5938e2" /><circle cx="211.0" cy="304.9" r="4" fill="#5938e2" /><circle cx="219.8" cy="304.9" r="4" fill="#5938e2" /><circle cx="228.5" cy="304.9" r="4" fill="#5938e2" /><circle cx="237.2" cy="304.9" r="4" fill="#5938e2" /><circle cx="246.0" cy="304.9" r="4" fill="#5938e2" /><circle cx="254.7" cy="304.9" r="4" fill="#5938e2" /><circle cx="263.4" cy="304.9" r="4" fill="#5938e2" /><circle cx="272.2" cy="304.9" r="4" fill="#5938e2" /><circle cx="280.9" cy="304.9" r="4" fill="#5938e2" /><circle cx="289.7" cy="304.9" r="4" fill="#5938e2" /><circle cx="298.4" cy="304.9" r="4" fill="#5938e2" /><circle cx="307.1" cy="304.9" r="4" fill="#5938e2" /><circle cx="315.9" cy="304.9" r="4" fill="#5938e2" /><circle cx="324.6" cy="304.9" r="4" fill="#5938e2" /><circle cx="333.3" cy="304.9" r="4" fill="#5938e2" /><circle cx="342.1" cy="304.9" r="4" fill="#5938e2" /><circle cx="350.8" cy="304.9" r="4" fill="#5938e2" /><circle cx="359.5" cy="304.9" r="4" fill="#5938e2" /><circle cx="368.3" cy="304.9" r="4" fill="#5938e2" /><circle cx="377.0" cy="304.9" r="4" fill="#5938e2" /><circle cx="385.7" cy="304.9" r="4" fill="#5938e2" /><circle cx="394.5" cy="304.9" r="4" fill="#5938e2" /><circle cx="403.2" cy="303.6" r="4" fill="#5938e2" /><circle cx="412.0" cy="303.6" r="4" fill="#5938e2" /><circle cx="420.7" cy="303.6" r="4" fill="#5938e2" /><circle cx="429.4" cy="303.6" r="4" fill="#5938e2" /><circle cx="438.2" cy="303.6" r="4" fill="#5938e2" /><circle cx="446.9" cy="303.6" r="4" fill="#5938e2" /><circle cx="455.6" cy="303.6" r="4" fill="#5938e2" /><circle cx="464.4" cy="303.6" r="4" fill="#5938e2" /><circle cx="473.1" cy="303.6" r="4" fill="#5938e2" /><circle cx="481.8" cy="303.6" r="4" fill="#5938e2" /><circle cx="490.6" cy="303.6" r="4" fill="#5938e2" /><circle cx="499.3" cy="303.6" r="4" fill="#5938e2" /><circle cx="508.0" cy="303.6" r="4" fill="#5938e2" /><circle cx="516.8" cy="303.6" r="4" fill="#5938e2" /><circle cx="525.5" cy="302.9" r="4" fill="#5938e2" /><circle cx="534.3" cy="302.9" r="4" fill="#5938e2" /><circle cx="543.0" cy="298.0" r="4" fill="#5938e2" /><circle cx="551.7" cy="298.0" r="4" fill="#5938e2" /><circle cx="560.5" cy="298.0" r="4" fill="#5938e2" /><circle cx="569.2" cy="298.0" r="4" fill="#5938e2" /><circle cx="577.9" cy="298.0" r="4" fill="#5938e2" /><circle cx="586.7" cy="298.0" r="4" fill="#5938e2" /><circle cx="595.4" cy="298.0" r="4" fill="#5938e2" /><circle cx="604.1" cy="298.0" r="4" fill="#5938e2" /><circle cx="612.9" cy="298.0" r="4" fill="#5938e2" /><circle cx="621.6" cy="298.0" r="4" fill="#5938e2" /><circle cx="630.3" cy="298.0" r="4" fill="#5938e2" /><circle cx="639.1" cy="298.0" r="4" fill="#5938e2" /><circle cx="647.8" cy="298.0" r="4" fill="#5938e2" /><circle cx="656.6" cy="298.0" r="4" fill="#5938e2" /><circle cx="665.3" cy="297.8" r="4" fill="#5938e2" /><circle cx="674.0" cy="297.8" r="4" fill="#5938e2" /><circle cx="682.8" cy="297.8" r="4" fill="#5938e2" /><circle cx="691.5" cy="297.8" r="4" fill="#5938e2" /><circle cx="700.2" cy="297.8" r="4" fill="#5938e2" /><circle cx="709.0" cy="297.8" r="4" fill="#5938e2" /><circle cx="717.7" cy="297.8" r="4" fill="#5938e2" /><circle cx="726.4" cy="297.8" r="4" fill="#5938e2" /><circle cx="735.2" cy="297.8" r="4" fill="#5938e2" /><circle cx="743.9" cy="297.8" r="4" fill="#5938e2" /><circle cx="752.6" cy="297.8" r="4" fill="#5938e2" /><circle cx="761.4" cy="297.8" r="4" fill="#5938e2" /><circle cx="770.1" cy="297.8" r="4" fill="#5938e2" /><circle cx="778.9" cy="297.8" r="4" fill="#5938e2" /><circle cx="787.6" cy="297.8" r="4" fill="#5938e2" /><circle cx="796.3" cy="297.8" r="4" fill="#5938e2" /><circle cx="805.1" cy="297.8" r="4" fill="#5938e2" /><circle cx="813.8" cy="297.8" r="4" fill="#5938e2" /><circle cx="822.5" cy="297.8" r="4" fill="#5938e2" /><circle cx="831.3" cy="297.6" r="4" fill="#5938e2" /><circle cx="840.0" cy="297.8" r="4" fill="#5938e2" /><polyline points="80.0,144.6 88.7,140.1 97.5,139.9 106.2,139.8 114.9,139.8 123.7,139.6 132.4,139.6 141.1,139.6 149.9,139.6 158.6,139.6 167.4,138.4 176.1,138.4 184.8,138.4 193.6,138.4 202.3,138.4 211.0,138.4 219.8,138.4 228.5,137.4 237.2,137.4 246.0,137.4 254.7,137.4 263.4,137.4 272.2,137.4 280.9,137.4 289.7,137.4 298.4,137.4 307.1,137.4 315.9,137.4 324.6,131.2 333.3,131.2 342.1,130.8 350.8,130.4 359.5,126.9 368.3,126.9 377.0,126.9 385.7,126.9 394.5,126.9 403.2,126.9 412.0,126.9 420.7,126.9 429.4,126.9 438.2,126.8 446.9,122.1 455.6,120.4 464.4,120.4 473.1,120.4 481.8,120.4 490.6,120.4 499.3,119.4 508.0,119.4 516.8,119.4 525.5,119.4 534.3,119.1 543.0,118.8 551.7,118.8 560.5,117.8 569.2,117.8 577.9,117.8 586.7,115.8 595.4,115.8 604.1,115.0 612.9,115.0 621.6,115.0 630.3,115.0 639.1,115.0 647.8,115.0 656.6,115.0 665.3,113.9 674.0,111.8 682.8,111.8 691.5,111.8 700.2,111.8 709.0,111.8 717.7,111.8 726.4,111.8 735.2,111.8 743.9,111.8 752.6,111.8 761.4,110.6 770.1,110.6 778.9,110.6 787.6,110.6 796.3,110.6 805.1,109.4 813.8,109.4 822.5,109.4 831.3,109.4 840.0,109.2" fill="none" stroke="#60e5e0" stroke-width="2.5" stroke-linecap="round" stroke-linejoin="round" /><circle cx="80.0" cy="144.6" r="4" fill="#60e5e0" /><circle cx="88.7" cy="140.1" r="4" fill="#60e5e0" /><circle cx="97.5" cy="139.9" r="4" fill="#60e5e0" /><circle cx="106.2" cy="139.8" r="4" fill="#60e5e0" /><circle cx="114.9" cy="139.8" r="4" fill="#60e5e0" /><circle cx="123.7" cy="139.6" r="4" fill="#60e5e0" /><circle cx="132.4" cy="139.6" r="4" fill="#60e5e0" /><circle cx="141.1" cy="139.6" r="4" fill="#60e5e0" /><circle cx="149.9" cy="139.6" r="4" fill="#60e5e0" /><circle cx="158.6" cy="139.6" r="4" fill="#60e5e0" /><circle cx="167.4" cy="138.4" r="4" fill="#60e5e0" /><circle cx="176.1" cy="138.4" r="4" fill="#60e5e0" /><circle cx="184.8" cy="138.4" r="4" fill="#60e5e0" /><circle cx="193.6" cy="138.4" r="4" fill="#60e5e0" /><circle cx="202.3" cy="138.4" r="4" fill="#60e5e0" /><circle cx="211.0" cy="138.4" r="4" fill="#60e5e0" /><circle cx="219.8" cy="138.4" r="4" fill="#60e5e0" /><circle cx="228.5" cy="137.4" r="4" fill="#60e5e0" /><circle cx="237.2" cy="137.4" r="4" fill="#60e5e0" /><circle cx="246.0" cy="137.4" r="4" fill="#60e5e0" /><circle cx="254.7" cy="137.4" r="4" fill="#60e5e0" /><circle cx="263.4" cy="137.4" r="4" fill="#60e5e0" /><circle cx="272.2" cy="137.4" r="4" fill="#60e5e0" /><circle cx="280.9" cy="137.4" r="4" fill="#60e5e0" /><circle cx="289.7" cy="137.4" r="4" fill="#60e5e0" /><circle cx="298.4" cy="137.4" r="4" fill="#60e5e0" /><circle cx="307.1" cy="137.4" r="4" fill="#60e5e0" /><circle cx="315.9" cy="137.4" r="4" fill="#60e5e0" /><circle cx="324.6" cy="131.2" r="4" fill="#60e5e0" /><circle cx="333.3" cy="131.2" r="4" fill="#60e5e0" /><circle cx="342.1" cy="130.8" r="4" fill="#60e5e0" /><circle cx="350.8" cy="130.4" r="4" fill="#60e5e0" /><circle cx="359.5" cy="126.9" r="4" fill="#60e5e0" /><circle cx="368.3" cy="126.9" r="4" fill="#60e5e0" /><circle cx="377.0" cy="126.9" r="4" fill="#60e5e0" /><circle cx="385.7" cy="126.9" r="4" fill="#60e5e0" /><circle cx="394.5" cy="126.9" r="4" fill="#60e5e0" /><circle cx="403.2" cy="126.9" r="4" fill="#60e5e0" /><circle cx="412.0" cy="126.9" r="4" fill="#60e5e0" /><circle cx="420.7" cy="126.9" r="4" fill="#60e5e0" /><circle cx="429.4" cy="126.9" r="4" fill="#60e5e0" /><circle cx="438.2" cy="126.8" r="4" fill="#60e5e0" /><circle cx="446.9" cy="122.1" r="4" fill="#60e5e0" /><circle cx="455.6" cy="120.4" r="4" fill="#60e5e0" /><circle cx="464.4" cy="120.4" r="4" fill="#60e5e0" /><circle cx="473.1" cy="120.4" r="4" fill="#60e5e0" /><circle cx="481.8" cy="120.4" r="4" fill="#60e5e0" /><circle cx="490.6" cy="120.4" r="4" fill="#60e5e0" /><circle cx="499.3" cy="119.4" r="4" fill="#60e5e0" /><circle cx="508.0" cy="119.4" r="4" fill="#60e5e0" /><circle cx="516.8" cy="119.4" r="4" fill="#60e5e0" /><circle cx="525.5" cy="119.4" r="4" fill="#60e5e0" /><circle cx="534.3" cy="119.1" r="4" fill="#60e5e0" /><circle cx="543.0" cy="118.8" r="4" fill="#60e5e0" /><circle cx="551.7" cy="118.8" r="4" fill="#60e5e0" /><circle cx="560.5" cy="117.8" r="4" fill="#60e5e0" /><circle cx="569.2" cy="117.8" r="4" fill="#60e5e0" /><circle cx="577.9" cy="117.8" r="4" fill="#60e5e0" /><circle cx="586.7" cy="115.8" r="4" fill="#60e5e0" /><circle cx="595.4" cy="115.8" r="4" fill="#60e5e0" /><circle cx="604.1" cy="115.0" r="4" fill="#60e5e0" /><circle cx="612.9" cy="115.0" r="4" fill="#60e5e0" /><circle cx="621.6" cy="115.0" r="4" fill="#60e5e0" /><circle cx="630.3" cy="115.0" r="4" fill="#60e5e0" /><circle cx="639.1" cy="115.0" r="4" fill="#60e5e0" /><circle cx="647.8" cy="115.0" r="4" fill="#60e5e0" /><circle cx="656.6" cy="115.0" r="4" fill="#60e5e0" /><circle cx="665.3" cy="113.9" r="4" fill="#60e5e0" /><circle cx="674.0" cy="111.8" r="4" fill="#60e5e0" /><circle cx="682.8" cy="111.8" r="4" fill="#60e5e0" /><circle cx="691.5" cy="111.8" r="4" fill="#60e5e0" /><circle cx="700.2" cy="111.8" r="4" fill="#60e5e0" /><circle cx="709.0" cy="111.8" r="4" fill="#60e5e0" /><circle cx="717.7" cy="111.8" r="4" fill="#60e5e0" /><circle cx="726.4" cy="111.8" r="4" fill="#60e5e0" /><circle cx="735.2" cy="111.8" r="4" fill="#60e5e0" /><circle cx="743.9" cy="111.8" r="4" fill="#60e5e0" /><circle cx="752.6" cy="111.8" r="4" fill="#60e5e0" /><circle cx="761.4" cy="110.6" r="4" fill="#60e5e0" /><circle cx="770.1" cy="110.6" r="4" fill="#60e5e0" /><circle cx="778.9" cy="110.6" r="4" fill="#60e5e0" /><circle cx="787.6" cy="110.6" r="4" fill="#60e5e0" /><circle cx="796.3" cy="110.6" r="4" fill="#60e5e0" /><circle cx="805.1" cy="109.4" r="4" fill="#60e5e0" /><circle cx="813.8" cy="109.4" r="4" fill="#60e5e0" /><circle cx="822.5" cy="109.4" r="4" fill="#60e5e0" /><circle cx="831.3" cy="109.4" r="4" fill="#60e5e0" /><circle cx="840.0" cy="109.2" r="4" fill="#60e5e0" /><polyline points="80.0,314.6 88.7,314.4 97.5,314.2 106.2,314.2 114.9,314.2 123.7,314.1 132.4,314.1 141.1,314.1 149.9,314.1 158.6,314.1 167.4,314.0 176.1,314.0 184.8,314.0 193.6,314.0 202.3,314.0 211.0,314.0 219.8,314.0 228.5,314.0 237.2,314.0 246.0,314.0 254.7,314.0 263.4,314.0 272.2,314.0 280.9,314.0 289.7,314.0 298.4,314.0 307.1,314.0 315.9,314.0 324.6,314.0 333.3,314.0 342.1,314.0 350.8,314.0 359.5,314.0 368.3,314.0 377.0,314.0 385.7,314.0 394.5,314.0 403.2,314.0 412.0,314.0 420.7,314.0 429.4,314.0 438.2,313.9 446.9,313.6 455.6,313.4 464.4,313.4 473.1,313.4 481.8,313.4 490.6,313.4 499.3,313.1 508.0,313.1 516.8,313.1 525.5,313.1 534.3,313.1 543.0,313.0 551.7,313.0 560.5,312.9 569.2,312.9 577.9,312.9 586.7,312.8 595.4,312.8 604.1,312.6 612.9,312.6 621.6,312.6 630.3,312.6 639.1,312.6 647.8,312.6 656.6,312.6 665.3,312.5 674.0,312.1 682.8,312.1 691.5,312.1 700.2,312.1 709.0,312.1 717.7,312.1 726.4,312.1 735.2,312.1 743.9,312.1 752.6,312.1 761.4,312.0 770.1,312.0 778.9,312.0 787.6,312.0 796.3,312.0 805.1,312.0 813.8,312.0 822.5,312.0 831.3,312.0 840.0,312.0" fill="none" stroke="#567de1" stroke-width="2.5" stroke-linecap="round" stroke-linejoin="round" /><circle cx="80.0" cy="314.6" r="4" fill="#567de1" /><circle cx="88.7" cy="314.4" r="4" fill="#567de1" /><circle cx="97.5" cy="314.2" r="4" fill="#567de1" /><circle cx="106.2" cy="314.2" r="4" fill="#567de1" /><circle cx="114.9" cy="314.2" r="4" fill="#567de1" /><circle cx="123.7" cy="314.1" r="4" fill="#567de1" /><circle cx="132.4" cy="314.1" r="4" fill="#567de1" /><circle cx="141.1" cy="314.1" r="4" fill="#567de1" /><circle cx="149.9" cy="314.1" r="4" fill="#567de1" /><circle cx="158.6" cy="314.1" r="4" fill="#567de1" /><circle cx="167.4" cy="314.0" r="4" fill="#567de1" /><circle cx="176.1" cy="314.0" r="4" fill="#567de1" /><circle cx="184.8" cy="314.0" r="4" fill="#567de1" /><circle cx="193.6" cy="314.0" r="4" fill="#567de1" /><circle cx="202.3" cy="314.0" r="4" fill="#567de1" /><circle cx="211.0" cy="314.0" r="4" fill="#567de1" /><circle cx="219.8" cy="314.0" r="4" fill="#567de1" /><circle cx="228.5" cy="314.0" r="4" fill="#567de1" /><circle cx="237.2" cy="314.0" r="4" fill="#567de1" /><circle cx="246.0" cy="314.0" r="4" fill="#567de1" /><circle cx="254.7" cy="314.0" r="4" fill="#567de1" /><circle cx="263.4" cy="314.0" r="4" fill="#567de1" /><circle cx="272.2" cy="314.0" r="4" fill="#567de1" /><circle cx="280.9" cy="314.0" r="4" fill="#567de1" /><circle cx="289.7" cy="314.0" r="4" fill="#567de1" /><circle cx="298.4" cy="314.0" r="4" fill="#567de1" /><circle cx="307.1" cy="314.0" r="4" fill="#567de1" /><circle cx="315.9" cy="314.0" r="4" fill="#567de1" /><circle cx="324.6" cy="314.0" r="4" fill="#567de1" /><circle cx="333.3" cy="314.0" r="4" fill="#567de1" /><circle cx="342.1" cy="314.0" r="4" fill="#567de1" /><circle cx="350.8" cy="314.0" r="4" fill="#567de1" /><circle cx="359.5" cy="314.0" r="4" fill="#567de1" /><circle cx="368.3" cy="314.0" r="4" fill="#567de1" /><circle cx="377.0" cy="314.0" r="4" fill="#567de1" /><circle cx="385.7" cy="314.0" r="4" fill="#567de1" /><circle cx="394.5" cy="314.0" r="4" fill="#567de1" /><circle cx="403.2" cy="314.0" r="4" fill="#567de1" /><circle cx="412.0" cy="314.0" r="4" fill="#567de1" /><circle cx="420.7" cy="314.0" r="4" fill="#567de1" /><circle cx="429.4" cy="314.0" r="4" fill="#567de1" /><circle cx="438.2" cy="313.9" r="4" fill="#567de1" /><circle cx="446.9" cy="313.6" r="4" fill="#567de1" /><circle cx="455.6" cy="313.4" r="4" fill="#567de1" /><circle cx="464.4" cy="313.4" r="4" fill="#567de1" /><circle cx="473.1" cy="313.4" r="4" fill="#567de1" /><circle cx="481.8" cy="313.4" r="4" fill="#567de1" /><circle cx="490.6" cy="313.4" r="4" fill="#567de1" /><circle cx="499.3" cy="313.1" r="4" fill="#567de1" /><circle cx="508.0" cy="313.1" r="4" fill="#567de1" /><circle cx="516.8" cy="313.1" r="4" fill="#567de1" /><circle cx="525.5" cy="313.1" r="4" fill="#567de1" /><circle cx="534.3" cy="313.1" r="4" fill="#567de1" /><circle cx="543.0" cy="313.0" r="4" fill="#567de1" /><circle cx="551.7" cy="313.0" r="4" fill="#567de1" /><circle cx="560.5" cy="312.9" r="4" fill="#567de1" /><circle cx="569.2" cy="312.9" r="4" fill="#567de1" /><circle cx="577.9" cy="312.9" r="4" fill="#567de1" /><circle cx="586.7" cy="312.8" r="4" fill="#567de1" /><circle cx="595.4" cy="312.8" r="4" fill="#567de1" /><circle cx="604.1" cy="312.6" r="4" fill="#567de1" /><circle cx="612.9" cy="312.6" r="4" fill="#567de1" /><circle cx="621.6" cy="312.6" r="4" fill="#567de1" /><circle cx="630.3" cy="312.6" r="4" fill="#567de1" /><circle cx="639.1" cy="312.6" r="4" fill="#567de1" /><circle cx="647.8" cy="312.6" r="4" fill="#567de1" /><circle cx="656.6" cy="312.6" r="4" fill="#567de1" /><circle cx="665.3" cy="312.5" r="4" fill="#567de1" /><circle cx="674.0" cy="312.1" r="4" fill="#567de1" /><circle cx="682.8" cy="312.1" r="4" fill="#567de1" /><circle cx="691.5" cy="312.1" r="4" fill="#567de1" /><circle cx="700.2" cy="312.1" r="4" fill="#567de1" /><circle cx="709.0" cy="312.1" r="4" fill="#567de1" /><circle cx="717.7" cy="312.1" r="4" fill="#567de1" /><circle cx="726.4" cy="312.1" r="4" fill="#567de1" /><circle cx="735.2" cy="312.1" r="4" fill="#567de1" /><circle cx="743.9" cy="312.1" r="4" fill="#567de1" /><circle cx="752.6" cy="312.1" r="4" fill="#567de1" /><circle cx="761.4" cy="312.0" r="4" fill="#567de1" /><circle cx="770.1" cy="312.0" r="4" fill="#567de1" /><circle cx="778.9" cy="312.0" r="4" fill="#567de1" /><circle cx="787.6" cy="312.0" r="4" fill="#567de1" /><circle cx="796.3" cy="312.0" r="4" fill="#567de1" /><circle cx="805.1" cy="312.0" r="4" fill="#567de1" /><circle cx="813.8" cy="312.0" r="4" fill="#567de1" /><circle cx="822.5" cy="312.0" r="4" fill="#567de1" /><circle cx="831.3" cy="312.0" r="4" fill="#567de1" /><circle cx="840.0" cy="312.0" r="4" fill="#567de1" /><polyline points="80.0,303.9 88.7,304.2 97.5,304.4 106.2,304.4 114.9,304.4 123.7,304.4 132.4,304.4 141.1,304.4 149.9,304.4 158.6,304.4 167.4,304.4 176.1,304.4 184.8,304.4 193.6,304.4 202.3,304.4 211.0,304.4 219.8,304.4 228.5,304.4 237.2,304.4 246.0,304.4 254.7,304.4 263.4,304.4 272.2,304.4 280.9,304.4 289.7,304.4 298.4,304.4 307.1,304.4 315.9,304.4 324.6,299.1 333.3,299.1 342.1,299.1 350.8,298.9 359.5,295.6 368.3,295.6 377.0,295.6 385.7,295.6 394.5,295.6 403.2,295.6 412.0,295.6 420.7,295.6 429.4,295.6 438.2,295.8 446.9,295.9 455.6,295.9 464.4,295.9 473.1,295.9 481.8,295.9 490.6,295.9 499.3,295.9 508.0,295.9 516.8,295.9 525.5,295.9 534.3,295.9 543.0,295.9 551.7,295.9 560.5,295.9 569.2,295.9 577.9,295.9 586.7,295.8 595.4,295.8 604.1,295.9 612.9,295.9 621.6,295.9 630.3,295.9 639.1,295.9 647.8,295.9 656.6,295.9 665.3,296.0 674.0,296.4 682.8,296.4 691.5,296.4 700.2,296.4 709.0,296.4 717.7,296.4 726.4,296.4 735.2,296.4 743.9,296.4 752.6,296.4 761.4,296.5 770.1,296.5 778.9,296.5 787.6,296.5 796.3,296.5 805.1,296.5 813.8,296.5 822.5,296.5 831.3,296.5 840.0,296.5" fill="none" stroke="#9754dd" stroke-width="2.5" stroke-linecap="round" stroke-linejoin="round" /><circle cx="80.0" cy="303.9" r="4" fill="#9754dd" /><circle cx="88.7" cy="304.2" r="4" fill="#9754dd" /><circle cx="97.5" cy="304.4" r="4" fill="#9754dd" /><circle cx="106.2" cy="304.4" r="4" fill="#9754dd" /><circle cx="114.9" cy="304.4" r="4" fill="#9754dd" /><circle cx="123.7" cy="304.4" r="4" fill="#9754dd" /><circle cx="132.4" cy="304.4" r="4" fill="#9754dd" /><circle cx="141.1" cy="304.4" r="4" fill="#9754dd" /><circle cx="149.9" cy="304.4" r="4" fill="#9754dd" /><circle cx="158.6" cy="304.4" r="4" fill="#9754dd" /><circle cx="167.4" cy="304.4" r="4" fill="#9754dd" /><circle cx="176.1" cy="304.4" r="4" fill="#9754dd" /><circle cx="184.8" cy="304.4" r="4" fill="#9754dd" /><circle cx="193.6" cy="304.4" r="4" fill="#9754dd" /><circle cx="202.3" cy="304.4" r="4" fill="#9754dd" /><circle cx="211.0" cy="304.4" r="4" fill="#9754dd" /><circle cx="219.8" cy="304.4" r="4" fill="#9754dd" /><circle cx="228.5" cy="304.4" r="4" fill="#9754dd" /><circle cx="237.2" cy="304.4" r="4" fill="#9754dd" /><circle cx="246.0" cy="304.4" r="4" fill="#9754dd" /><circle cx="254.7" cy="304.4" r="4" fill="#9754dd" /><circle cx="263.4" cy="304.4" r="4" fill="#9754dd" /><circle cx="272.2" cy="304.4" r="4" fill="#9754dd" /><circle cx="280.9" cy="304.4" r="4" fill="#9754dd" /><circle cx="289.7" cy="304.4" r="4" fill="#9754dd" /><circle cx="298.4" cy="304.4" r="4" fill="#9754dd" /><circle cx="307.1" cy="304.4" r="4" fill="#9754dd" /><circle cx="315.9" cy="304.4" r="4" fill="#9754dd" /><circle cx="324.6" cy="299.1" r="4" fill="#9754dd" /><circle cx="333.3" cy="299.1" r="4" fill="#9754dd" /><circle cx="342.1" cy="299.1" r="4" fill="#9754dd" /><circle cx="350.8" cy="298.9" r="4" fill="#9754dd" /><circle cx="359.5" cy="295.6" r="4" fill="#9754dd" /><circle cx="368.3" cy="295.6" r="4" fill="#9754dd" /><circle cx="377.0" cy="295.6" r="4" fill="#9754dd" /><circle cx="385.7" cy="295.6" r="4" fill="#9754dd" /><circle cx="394.5" cy="295.6" r="4" fill="#9754dd" /><circle cx="403.2" cy="295.6" r="4" fill="#9754dd" /><circle cx="412.0" cy="295.6" r="4" fill="#9754dd" /><circle cx="420.7" cy="295.6" r="4" fill="#9754dd" /><circle cx="429.4" cy="295.6" r="4" fill="#9754dd" /><circle cx="438.2" cy="295.8" r="4" fill="#9754dd" /><circle cx="446.9" cy="295.9" r="4" fill="#9754dd" /><circle cx="455.6" cy="295.9" r="4" fill="#9754dd" /><circle cx="464.4" cy="295.9" r="4" fill="#9754dd" /><circle cx="473.1" cy="295.9" r="4" fill="#9754dd" /><circle cx="481.8" cy="295.9" r="4" fill="#9754dd" /><circle cx="490.6" cy="295.9" r="4" fill="#9754dd" /><circle cx="499.3" cy="295.9" r="4" fill="#9754dd" /><circle cx="508.0" cy="295.9" r="4" fill="#9754dd" /><circle cx="516.8" cy="295.9" r="4" fill="#9754dd" /><circle cx="525.5" cy="295.9" r="4" fill="#9754dd" /><circle cx="534.3" cy="295.9" r="4" fill="#9754dd" /><circle cx="543.0" cy="295.9" r="4" fill="#9754dd" /><circle cx="551.7" cy="295.9" r="4" fill="#9754dd" /><circle cx="560.5" cy="295.9" r="4" fill="#9754dd" /><circle cx="569.2" cy="295.9" r="4" fill="#9754dd" /><circle cx="577.9" cy="295.9" r="4" fill="#9754dd" /><circle cx="586.7" cy="295.8" r="4" fill="#9754dd" /><circle cx="595.4" cy="295.8" r="4" fill="#9754dd" /><circle cx="604.1" cy="295.9" r="4" fill="#9754dd" /><circle cx="612.9" cy="295.9" r="4" fill="#9754dd" /><circle cx="621.6" cy="295.9" r="4" fill="#9754dd" /><circle cx="630.3" cy="295.9" r="4" fill="#9754dd" /><circle cx="639.1" cy="295.9" r="4" fill="#9754dd" /><circle cx="647.8" cy="295.9" r="4" fill="#9754dd" /><circle cx="656.6" cy="295.9" r="4" fill="#9754dd" /><circle cx="665.3" cy="296.0" r="4" fill="#9754dd" /><circle cx="674.0" cy="296.4" r="4" fill="#9754dd" /><circle cx="682.8" cy="296.4" r="4" fill="#9754dd" /><circle cx="691.5" cy="296.4" r="4" fill="#9754dd" /><circle cx="700.2" cy="296.4" r="4" fill="#9754dd" /><circle cx="709.0" cy="296.4" r="4" fill="#9754dd" /><circle cx="717.7" cy="296.4" r="4" fill="#9754dd" /><circle cx="726.4" cy="296.4" r="4" fill="#9754dd" /><circle cx="735.2" cy="296.4" r="4" fill="#9754dd" /><circle cx="743.9" cy="296.4" r="4" fill="#9754dd" /><circle cx="752.6" cy="296.4" r="4" fill="#9754dd" /><circle cx="761.4" cy="296.5" r="4" fill="#9754dd" /><circle cx="770.1" cy="296.5" r="4" fill="#9754dd" /><circle cx="778.9" cy="296.5" r="4" fill="#9754dd" /><circle cx="787.6" cy="296.5" r="4" fill="#9754dd" /><circle cx="796.3" cy="296.5" r="4" fill="#9754dd" /><circle cx="805.1" cy="296.5" r="4" fill="#9754dd" /><circle cx="813.8" cy="296.5" r="4" fill="#9754dd" /><circle cx="822.5" cy="296.5" r="4" fill="#9754dd" /><circle cx="831.3" cy="296.5" r="4" fill="#9754dd" /><circle cx="840.0" cy="296.5" r="4" fill="#9754dd" />
  <rect x="80" y="339" width="10" height="10" rx="2" ry="2" fill="#19e5a1" /><text x="96" y="348" class="legend-label">Stars</text><rect x="250" y="339" width="10" height="10" rx="2" ry="2" fill="#6eb6ec" /><text x="266" y="348" class="legend-label">Followers</text><rect x="420" y="339" width="10" height="10" rx="2" ry="2" fill="#5938e2" /><text x="436" y="348" class="legend-label">Following</text><rect x="590" y="339" width="10" height="10" rx="2" ry="2" fill="#60e5e0" /><text x="606" y="348" class="legend-label">Contributions</text><rect x="80" y="357" width="10" height="10" rx="2" ry="2" fill="#567de1" /><text x="96" y="366" class="legend-label">Pull Requests</text><rect x="250" y="357" width="10" height="10" rx="2" ry="2" fill="#9754dd" /><text x="266" y="366" class="legend-label">Issues</text>
</svg>
