<svg width="900" height="402" viewBox="0 0 900 402" xmlns="http://www.w3.org/2000/svg">
  <defs>
    <linearGradient id="history-gradient" x1="0%" y1="0%" x2="100%" y2="100%">
      <stop offset="0%" style="stop-color:#58a6ff;stop-opacity:1" />
      <stop offset="100%" style="stop-color:#a371f7;stop-opacity:1" />
    </linearGradient>
    <clipPath id="history-rounded">
      <rect x="0" y="0" width="900" height="402" rx="8" ry="8" />
    </clipPath>
  </defs>
  <style>
    .title {
      font-family: 'Segoe UI', Ubuntu, 'Helvetica Neue', sans-serif;
      font-size: 22px;
      font-weight: 700;
      fill: #58a6ff;
    }
    .subtitle {
      font-family: 'Segoe UI', Ubuntu, 'Helvetica Neue', sans-serif;
      font-size: 12px;
      font-weight: 500;
      fill: #8b949e;
    }
    .axis-label {
      font-family: 'Segoe UI', Ubuntu, 'Helvetica Neue', sans-serif;
      font-size: 10px;
      fill: #8b949e;
    }
    .grid-line {
      stroke: #30363d;
      stroke-width: 1;
      opacity: 0.3;
    }
    .legend-label {
      font-family: 'Segoe UI', Ubuntu, 'Helvetica Neue', sans-serif;
      font-size: 11px;
      fill: #c9d1d9;
      dominant-baseline: middle;
    }
  </style>
  <rect clip-path="url(#history-rounded)" width="100%" height="100%" fill="#0d1117" stroke="#30363d" stroke-width="1" />
  <rect x="0" y="396" width="900" height="6" fill="url(#history-gradient)" clip-path="url(#history-rounded)" />
  <text x="24" y="34" class="title">Leonardo Klein Stats History</text>
  <text x="24" y="54" class="subtitle">Period: 2026-02-20 to 2026-03-15</text>
  <text x="72" y="320.0" text-anchor="end" dominant-baseline="central" class="axis-label">0</text><text x="72" y="270.0" text-anchor="end" dominant-baseline="central" class="axis-label">400</text><text x="72" y="220.0" text-anchor="end" dominant-baseline="central" class="axis-label">800</text><text x="72" y="170.0" text-anchor="end" dominant-baseline="central" class="axis-label">1.2k</text><text x="72" y="120.0" text-anchor="end" dominant-baseline="central" class="axis-label">1.6k</text><text x="72" y="70.0" text-anchor="end" dominant-baseline="central" class="axis-label">2.0k</text>
  <text x="80.0" y="336" text-anchor="middle" class="axis-label">02-20</text><text x="154.0" y="336" text-anchor="middle" class="axis-label">02-22</text><text x="228.0" y="336" text-anchor="middle" class="axis-label">02-24</text><text x="301.9" y="336" text-anchor="middle" class="axis-label">02-27</text><text x="375.9" y="336" text-anchor="middle" class="axis-label">03-01</text><text x="449.9" y="336" text-anchor="middle" class="axis-label">03-03</text><text x="523.9" y="336" text-anchor="middle" class="axis-label">03-05</text><text x="597.9" y="336" text-anchor="middle" class="axis-label">03-07</text><text x="671.9" y="336" text-anchor="middle" class="axis-label">03-10</text><text x="745.8" y="336" text-anchor="middle" class="axis-label">03-12</text><text x="819.8" y="336" text-anchor="middle" class="axis-label">03-14</text><text x="840.0" y="336" text-anchor="middle" class="axis-label">03-15</text>
  <line x1="80" y1="320.0" x2="840" y2="320.0" class="grid-line" /><line x1="80" y1="270.0" x2="840" y2="270.0" class="grid-line" /><line x1="80" y1="220.0" x2="840" y2="220.0" class="grid-line" /><line x1="80" y1="170.0" x2="840" y2="170.0" class="grid-line" /><line x1="80" y1="120.0" x2="840" y2="120.0" class="grid-line" /><line x1="80" y1="70.0" x2="840" y2="70.0" class="grid-line" />
  <polyline points="80.0,317.0 86.7,317.0 93.5,317.0 100.2,317.0 106.9,317.0 113.6,317.0 120.4,317.0 127.1,317.0 133.8,317.0 140.5,317.0 147.3,317.0 154.0,317.0 160.7,317.0 167.4,317.0 174.2,317.0 180.9,317.0 187.6,317.0 194.3,317.0 201.1,317.0 207.8,317.0 214.5,317.0 221.2,317.0 228.0,317.0 234.7,317.0 241.4,317.0 248.1,317.0 254.9,317.0 261.6,317.0 268.3,317.0 275.0,317.0 281.8,317.0 288.5,317.0 295.2,317.0 301.9,317.0 308.7,317.0 315.4,317.0 322.1,317.0 328.8,317.0 335.6,317.0 342.3,317.0 349.0,317.0 355.8,317.0 362.5,317.0 369.2,317.0 375.9,317.0 382.7,317.0 389.4,317.0 396.1,317.0 402.8,317.0 409.6,317.0 416.3,317.0 423.0,317.0 429.7,317.0 436.5,317.0 443.2,317.0 449.9,317.0 456.6,317.0 463.4,317.0 470.1,317.0 476.8,317.0 483.5,317.0 490.3,317.0 497.0,317.0 503.7,317.0 510.4,317.0 517.2,317.0 523.9,317.0 530.6,317.0 537.3,317.0 544.1,317.0 550.8,317.0 557.5,317.0 564.2,317.0 571.0,317.0 577.7,317.0 584.4,317.0 591.2,317.0 597.9,317.0 604.6,317.0 611.3,317.0 618.1,317.0 624.8,317.0 631.5,317.0 638.2,317.0 645.0,317.0 651.7,317.0 658.4,317.0 665.1,317.0 671.9,317.0 678.6,317.0 685.3,317.0 692.0,317.0 698.8,317.0 705.5,317.0 712.2,317.0 718.9,317.0 725.7,317.0 732.4,317.0 739.1,317.0 745.8,317.0 752.6,317.0 759.3,317.0 766.0,317.0 772.7,317.0 779.5,317.0 786.2,317.0 792.9,317.0 799.6,317.0 806.4,317.0 813.1,317.0 819.8,317.0 826.5,317.0 833.3,317.0 840.0,317.0" fill="none" stroke="#19e5a1" stroke-width="2.5" stroke-linecap="round" stroke-linejoin="round" /><circle cx="80.0" cy="317.0" r="4" fill="#19e5a1" /><circle cx="86.7" cy="317.0" r="4" fill="#19e5a1" /><circle cx="93.5" cy="317.0" r="4" fill="#19e5a1" /><circle cx="100.2" cy="317.0" r="4" fill="#19e5a1" /><circle cx="106.9" cy="317.0" r="4" fill="#19e5a1" /><circle cx="113.6" cy="317.0" r="4" fill="#19e5a1" /><circle cx="120.4" cy="317.0" r="4" fill="#19e5a1" /><circle cx="127.1" cy="317.0" r="4" fill="#19e5a1" /><circle cx="133.8" cy="317.0" r="4" fill="#19e5a1" /><circle cx="140.5" cy="317.0" r="4" fill="#19e5a1" /><circle cx="147.3" cy="317.0" r="4" fill="#19e5a1" /><circle cx="154.0" cy="317.0" r="4" fill="#19e5a1" /><circle cx="160.7" cy="317.0" r="4" fill="#19e5a1" /><circle cx="167.4" cy="317.0" r="4" fill="#19e5a1" /><circle cx="174.2" cy="317.0" r="4" fill="#19e5a1" /><circle cx="180.9" cy="317.0" r="4" fill="#19e5a1" /><circle cx="187.6" cy="317.0" r="4" fill="#19e5a1" /><circle cx="194.3" cy="317.0" r="4" fill="#19e5a1" /><circle cx="201.1" cy="317.0" r="4" fill="#19e5a1" /><circle cx="207.8" cy="317.0" r="4" fill="#19e5a1" /><circle cx="214.5" cy="317.0" r="4" fill="#19e5a1" /><circle cx="221.2" cy="317.0" r="4" fill="#19e5a1" /><circle cx="228.0" cy="317.0" r="4" fill="#19e5a1" /><circle cx="234.7" cy="317.0" r="4" fill="#19e5a1" /><circle cx="241.4" cy="317.0" r="4" fill="#19e5a1" /><circle cx="248.1" cy="317.0" r="4" fill="#19e5a1" /><circle cx="254.9" cy="317.0" r="4" fill="#19e5a1" /><circle cx="261.6" cy="317.0" r="4" fill="#19e5a1" /><circle cx="268.3" cy="317.0" r="4" fill="#19e5a1" /><circle cx="275.0" cy="317.0" r="4" fill="#19e5a1" /><circle cx="281.8" cy="317.0" r="4" fill="#19e5a1" /><circle cx="288.5" cy="317.0" r="4" fill="#19e5a1" /><circle cx="295.2" cy="317.0" r="4" fill="#19e5a1" /><circle cx="301.9" cy="317.0" r="4" fill="#19e5a1" /><circle cx="308.7" cy="317.0" r="4" fill="#19e5a1" /><circle cx="315.4" cy="317.0" r="4" fill="#19e5a1" /><circle cx="322.1" cy="317.0" r="4" fill="#19e5a1" /><circle cx="328.8" cy="317.0" r="4" fill="#19e5a1" /><circle cx="335.6" cy="317.0" r="4" fill="#19e5a1" /><circle cx="342.3" cy="317.0" r="4" fill="#19e5a1" /><circle cx="349.0" cy="317.0" r="4" fill="#19e5a1" /><circle cx="355.8" cy="317.0" r="4" fill="#19e5a1" /><circle cx="362.5" cy="317.0" r="4" fill="#19e5a1" /><circle cx="369.2" cy="317.0" r="4" fill="#19e5a1" /><circle cx="375.9" cy="317.0" r="4" fill="#19e5a1" /><circle cx="382.7" cy="317.0" r="4" fill="#19e5a1" /><circle cx="389.4" cy="317.0" r="4" fill="#19e5a1" /><circle cx="396.1" cy="317.0" r="4" fill="#19e5a1" /><circle cx="402.8" cy="317.0" r="4" fill="#19e5a1" /><circle cx="409.6" cy="317.0" r="4" fill="#19e5a1" /><circle cx="416.3" cy="317.0" r="4" fill="#19e5a1" /><circle cx="423.0" cy="317.0" r="4" fill="#19e5a1" /><circle cx="429.7" cy="317.0" r="4" fill="#19e5a1" /><circle cx="436.5" cy="317.0" r="4" fill="#19e5a1" /><circle cx="443.2" cy="317.0" r="4" fill="#19e5a1" /><circle cx="449.9" cy="317.0" r="4" fill="#19e5a1" /><circle cx="456.6" cy="317.0" r="4" fill="#19e5a1" /><circle cx="463.4" cy="317.0" r="4" fill="#19e5a1" /><circle cx="470.1" cy="317.0" r="4" fill="#19e5a1" /><circle cx="476.8" cy="317.0" r="4" fill="#19e5a1" /><circle cx="483.5" cy="317.0" r="4" fill="#19e5a1" /><circle cx="490.3" cy="317.0" r="4" fill="#19e5a1" /><circle cx="497.0" cy="317.0" r="4" fill="#19e5a1" /><circle cx="503.7" cy="317.0" r="4" fill="#19e5a1" /><circle cx="510.4" cy="317.0" r="4" fill="#19e5a1" /><circle cx="517.2" cy="317.0" r="4" fill="#19e5a1" /><circle cx="523.9" cy="317.0" r="4" fill="#19e5a1" /><circle cx="530.6" cy="317.0" r="4" fill="#19e5a1" /><circle cx="537.3" cy="317.0" r="4" fill="#19e5a1" /><circle cx="544.1" cy="317.0" r="4" fill="#19e5a1" /><circle cx="550.8" cy="317.0" r="4" fill="#19e5a1" /><circle cx="557.5" cy="317.0" r="4" fill="#19e5a1" /><circle cx="564.2" cy="317.0" r="4" fill="#19e5a1" /><circle cx="571.0" cy="317.0" r="4" fill="#19e5a1" /><circle cx="577.7" cy="317.0" r="4" fill="#19e5a1" /><circle cx="584.4" cy="317.0" r="4" fill="#19e5a1" /><circle cx="591.2" cy="317.0" r="4" fill="#19e5a1" /><circle cx="597.9" cy="317.0" r="4" fill="#19e5a1" /><circle cx="604.6" cy="317.0" r="4" fill="#19e5a1" /><circle cx="611.3" cy="317.0" r="4" fill="#19e5a1" /><circle cx="618.1" cy="317.0" r="4" fill="#19e5a1" /><circle cx="624.8" cy="317.0" r="4" fill="#19e5a1" /><circle cx="631.5" cy="317.0" r="4" fill="#19e5a1" /><circle cx="638.2" cy="317.0" r="4" fill="#19e5a1" /><circle cx="645.0" cy="317.0" r="4" fill="#19e5a1" /><circle cx="651.7" cy="317.0" r="4" fill="#19e5a1" /><circle cx="658.4" cy="317.0" r="4" fill="#19e5a1" /><circle cx="665.1" cy="317.0" r="4" fill="#19e5a1" /><circle cx="671.9" cy="317.0" r="4" fill="#19e5a1" /><circle cx="678.6" cy="317.0" r="4" fill="#19e5a1" /><circle cx="685.3" cy="317.0" r="4" fill="#19e5a1" /><circle cx="692.0" cy="317.0" r="4" fill="#19e5a1" /><circle cx="698.8" cy="317.0" r="4" fill="#19e5a1" /><circle cx="705.5" cy="317.0" r="4" fill="#19e5a1" /><circle cx="712.2" cy="317.0" r="4" fill="#19e5a1" /><circle cx="718.9" cy="317.0" r="4" fill="#19e5a1" /><circle cx="725.7" cy="317.0" r="4" fill="#19e5a1" /><circle cx="732.4" cy="317.0" r="4" fill="#19e5a1" /><circle cx="739.1" cy="317.0" r="4" fill="#19e5a1" /><circle cx="745.8" cy="317.0" r="4" fill="#19e5a1" /><circle cx="752.6" cy="317.0" r="4" fill="#19e5a1" /><circle cx="759.3" cy="317.0" r="4" fill="#19e5a1" /><circle cx="766.0" cy="317.0" r="4" fill="#19e5a1" /><circle cx="772.7" cy="317.0" r="4" fill="#19e5a1" /><circle cx="779.5" cy="317.0" r="4" fill="#19e5a1" /><circle cx="786.2" cy="317.0" r="4" fill="#19e5a1" /><circle cx="792.9" cy="317.0" r="4" fill="#19e5a1" /><circle cx="799.6" cy="317.0" r="4" fill="#19e5a1" /><circle cx="806.4" cy="317.0" r="4" fill="#19e5a1" /><circle cx="813.1" cy="317.0" r="4" fill="#19e5a1" /><circle cx="819.8" cy="317.0" r="4" fill="#19e5a1" /><circle cx="826.5" cy="317.0" r="4" fill="#19e5a1" /><circle cx="833.3" cy="317.0" r="4" fill="#19e5a1" /><circle cx="840.0" cy="317.0" r="4" fill="#19e5a1" /><polyline points="80.0,313.2 86.7,312.2 93.5,312.1 100.2,312.4 106.9,312.4 113.6,312.4 120.4,312.1 127.1,312.0 133.8,311.9 140.5,311.9 147.3,311.8 154.0,311.8 160.7,311.5 167.4,311.5 174.2,311.5 180.9,311.2 187.6,311.2 194.3,311.1 201.1,311.1 207.8,311.1 214.5,310.9 221.2,311.0 228.0,310.8 234.7,310.8 241.4,310.8 248.1,310.8 254.9,310.4 261.6,310.2 268.3,310.4 275.0,310.4 281.8,310.4 288.5,310.4 295.2,310.4 301.9,310.2 308.7,310.2 315.4,310.1 322.1,310.1 328.8,309.8 335.6,309.6 342.3,309.6 349.0,309.6 355.8,309.6 362.5,309.5 369.2,309.4 375.9,309.4 382.7,309.4 389.4,309.4 396.1,309.2 402.8,309.2 409.6,309.2 416.3,309.4 423.0,309.4 429.7,309.5 436.5,309.2 443.2,309.2 449.9,309.4 456.6,309.2 463.4,309.2 470.1,309.2 476.8,309.2 483.5,309.2 490.3,309.1 497.0,309.1 503.7,309.1 510.4,309.1 517.2,309.0 523.9,309.0 530.6,308.9 537.3,308.9 544.1,308.9 550.8,308.6 557.5,308.6 564.2,308.6 571.0,308.6 577.7,308.6 584.4,308.6 591.2,308.6 597.9,308.6 604.6,308.6 611.3,308.6 618.1,308.6 624.8,308.6 631.5,308.6 638.2,307.8 645.0,307.8 651.7,307.6 658.4,307.6 665.1,307.6 671.9,307.5 678.6,307.5 685.3,307.6 692.0,308.5 698.8,308.5 705.5,308.4 712.2,308.4 718.9,307.5 725.7,307.5 732.4,307.2 739.1,307.1 745.8,307.1 752.6,307.1 759.3,307.0 766.0,306.8 772.7,306.6 779.5,306.6 786.2,306.5 792.9,306.5 799.6,306.5 806.4,306.5 813.1,306.5 819.8,306.4 826.5,306.5 833.3,306.5 840.0,306.5" fill="none" stroke="#6eb6ec" stroke-width="2.5" stroke-linecap="round" stroke-linejoin="round" /><circle cx="80.0" cy="313.2" r="4" fill="#6eb6ec" /><circle cx="86.7" cy="312.2" r="4" fill="#6eb6ec" /><circle cx="93.5" cy="312.1" r="4" fill="#6eb6ec" /><circle cx="100.2" cy="312.4" r="4" fill="#6eb6ec" /><circle cx="106.9" cy="312.4" r="4" fill="#6eb6ec" /><circle cx="113.6" cy="312.4" r="4" fill="#6eb6ec" /><circle cx="120.4" cy="312.1" r="4" fill="#6eb6ec" /><circle cx="127.1" cy="312.0" r="4" fill="#6eb6ec" /><circle cx="133.8" cy="311.9" r="4" fill="#6eb6ec" /><circle cx="140.5" cy="311.9" r="4" fill="#6eb6ec" /><circle cx="147.3" cy="311.8" r="4" fill="#6eb6ec" /><circle cx="154.0" cy="311.8" r="4" fill="#6eb6ec" /><circle cx="160.7" cy="311.5" r="4" fill="#6eb6ec" /><circle cx="167.4" cy="311.5" r="4" fill="#6eb6ec" /><circle cx="174.2" cy="311.5" r="4" fill="#6eb6ec" /><circle cx="180.9" cy="311.2" r="4" fill="#6eb6ec" /><circle cx="187.6" cy="311.2" r="4" fill="#6eb6ec" /><circle cx="194.3" cy="311.1" r="4" fill="#6eb6ec" /><circle cx="201.1" cy="311.1" r="4" fill="#6eb6ec" /><circle cx="207.8" cy="311.1" r="4" fill="#6eb6ec" /><circle cx="214.5" cy="310.9" r="4" fill="#6eb6ec" /><circle cx="221.2" cy="311.0" r="4" fill="#6eb6ec" /><circle cx="228.0" cy="310.8" r="4" fill="#6eb6ec" /><circle cx="234.7" cy="310.8" r="4" fill="#6eb6ec" /><circle cx="241.4" cy="310.8" r="4" fill="#6eb6ec" /><circle cx="248.1" cy="310.8" r="4" fill="#6eb6ec" /><circle cx="254.9" cy="310.4" r="4" fill="#6eb6ec" /><circle cx="261.6" cy="310.2" r="4" fill="#6eb6ec" /><circle cx="268.3" cy="310.4" r="4" fill="#6eb6ec" /><circle cx="275.0" cy="310.4" r="4" fill="#6eb6ec" /><circle cx="281.8" cy="310.4" r="4" fill="#6eb6ec" /><circle cx="288.5" cy="310.4" r="4" fill="#6eb6ec" /><circle cx="295.2" cy="310.4" r="4" fill="#6eb6ec" /><circle cx="301.9" cy="310.2" r="4" fill="#6eb6ec" /><circle cx="308.7" cy="310.2" r="4" fill="#6eb6ec" /><circle cx="315.4" cy="310.1" r="4" fill="#6eb6ec" /><circle cx="322.1" cy="310.1" r="4" fill="#6eb6ec" /><circle cx="328.8" cy="309.8" r="4" fill="#6eb6ec" /><circle cx="335.6" cy="309.6" r="4" fill="#6eb6ec" /><circle cx="342.3" cy="309.6" r="4" fill="#6eb6ec" /><circle cx="349.0" cy="309.6" r="4" fill="#6eb6ec" /><circle cx="355.8" cy="309.6" r="4" fill="#6eb6ec" /><circle cx="362.5" cy="309.5" r="4" fill="#6eb6ec" /><circle cx="369.2" cy="309.4" r="4" fill="#6eb6ec" /><circle cx="375.9" cy="309.4" r="4" fill="#6eb6ec" /><circle cx="382.7" cy="309.4" r="4" fill="#6eb6ec" /><circle cx="389.4" cy="309.4" r="4" fill="#6eb6ec" /><circle cx="396.1" cy="309.2" r="4" fill="#6eb6ec" /><circle cx="402.8" cy="309.2" r="4" fill="#6eb6ec" /><circle cx="409.6" cy="309.2" r="4" fill="#6eb6ec" /><circle cx="416.3" cy="309.4" r="4" fill="#6eb6ec" /><circle cx="423.0" cy="309.4" r="4" fill="#6eb6ec" /><circle cx="429.7" cy="309.5" r="4" fill="#6eb6ec" /><circle cx="436.5" cy="309.2" r="4" fill="#6eb6ec" /><circle cx="443.2" cy="309.2" r="4" fill="#6eb6ec" /><circle cx="449.9" cy="309.4" r="4" fill="#6eb6ec" /><circle cx="456.6" cy="309.2" r="4" fill="#6eb6ec" /><circle cx="463.4" cy="309.2" r="4" fill="#6eb6ec" /><circle cx="470.1" cy="309.2" r="4" fill="#6eb6ec" /><circle cx="476.8" cy="309.2" r="4" fill="#6eb6ec" /><circle cx="483.5" cy="309.2" r="4" fill="#6eb6ec" /><circle cx="490.3" cy="309.1" r="4" fill="#6eb6ec" /><circle cx="497.0" cy="309.1" r="4" fill="#6eb6ec" /><circle cx="503.7" cy="309.1" r="4" fill="#6eb6ec" /><circle cx="510.4" cy="309.1" r="4" fill="#6eb6ec" /><circle cx="517.2" cy="309.0" r="4" fill="#6eb6ec" /><circle cx="523.9" cy="309.0" r="4" fill="#6eb6ec" /><circle cx="530.6" cy="308.9" r="4" fill="#6eb6ec" /><circle cx="537.3" cy="308.9" r="4" fill="#6eb6ec" /><circle cx="544.1" cy="308.9" r="4" fill="#6eb6ec" /><circle cx="550.8" cy="308.6" r="4" fill="#6eb6ec" /><circle cx="557.5" cy="308.6" r="4" fill="#6eb6ec" /><circle cx="564.2" cy="308.6" r="4" fill="#6eb6ec" /><circle cx="571.0" cy="308.6" r="4" fill="#6eb6ec" /><circle cx="577.7" cy="308.6" r="4" fill="#6eb6ec" /><circle cx="584.4" cy="308.6" r="4" fill="#6eb6ec" /><circle cx="591.2" cy="308.6" r="4" fill="#6eb6ec" /><circle cx="597.9" cy="308.6" r="4" fill="#6eb6ec" /><circle cx="604.6" cy="308.6" r="4" fill="#6eb6ec" /><circle cx="611.3" cy="308.6" r="4" fill="#6eb6ec" /><circle cx="618.1" cy="308.6" r="4" fill="#6eb6ec" /><circle cx="624.8" cy="308.6" r="4" fill="#6eb6ec" /><circle cx="631.5" cy="308.6" r="4" fill="#6eb6ec" /><circle cx="638.2" cy="307.8" r="4" fill="#6eb6ec" /><circle cx="645.0" cy="307.8" r="4" fill="#6eb6ec" /><circle cx="651.7" cy="307.6" r="4" fill="#6eb6ec" /><circle cx="658.4" cy="307.6" r="4" fill="#6eb6ec" /><circle cx="665.1" cy="307.6" r="4" fill="#6eb6ec" /><circle cx="671.9" cy="307.5" r="4" fill="#6eb6ec" /><circle cx="678.6" cy="307.5" r="4" fill="#6eb6ec" /><circle cx="685.3" cy="307.6" r="4" fill="#6eb6ec" /><circle cx="692.0" cy="308.5" r="4" fill="#6eb6ec" /><circle cx="698.8" cy="308.5" r="4" fill="#6eb6ec" /><circle cx="705.5" cy="308.4" r="4" fill="#6eb6ec" /><circle cx="712.2" cy="308.4" r="4" fill="#6eb6ec" /><circle cx="718.9" cy="307.5" r="4" fill="#6eb6ec" /><circle cx="725.7" cy="307.5" r="4" fill="#6eb6ec" /><circle cx="732.4" cy="307.2" r="4" fill="#6eb6ec" /><circle cx="739.1" cy="307.1" r="4" fill="#6eb6ec" /><circle cx="745.8" cy="307.1" r="4" fill="#6eb6ec" /><circle cx="752.6" cy="307.1" r="4" fill="#6eb6ec" /><circle cx="759.3" cy="307.0" r="4" fill="#6eb6ec" /><circle cx="766.0" cy="306.8" r="4" fill="#6eb6ec" /><circle cx="772.7" cy="306.6" r="4" fill="#6eb6ec" /><circle cx="779.5" cy="306.6" r="4" fill="#6eb6ec" /><circle cx="786.2" cy="306.5" r="4" fill="#6eb6ec" /><circle cx="792.9" cy="306.5" r="4" fill="#6eb6ec" /><circle cx="799.6" cy="306.5" r="4" fill="#6eb6ec" /><circle cx="806.4" cy="306.5" r="4" fill="#6eb6ec" /><circle cx="813.1" cy="306.5" r="4" fill="#6eb6ec" /><circle cx="819.8" cy="306.4" r="4" fill="#6eb6ec" /><circle cx="826.5" cy="306.5" r="4" fill="#6eb6ec" /><circle cx="833.3" cy="306.5" r="4" fill="#6eb6ec" /><circle cx="840.0" cy="306.5" r="4" fill="#6eb6ec" /><polyline points="80.0,305.8 86.7,305.8 93.5,305.8 100.2,305.8 106.9,305.8 113.6,305.8 120.4,305.8 127.1,305.8 133.8,305.8 140.5,305.8 147.3,304.9 154.0,304.9 160.7,304.9 167.4,304.9 174.2,304.9 180.9,304.9 187.6,304.9 194.3,304.9 201.1,304.9 207.8,304.9 214.5,304.9 221.2,304.9 228.0,304.9 234.7,304.9 241.4,304.9 248.1,304.9 254.9,304.9 261.6,304.9 268.3,304.9 275.0,304.9 281.8,304.9 288.5,304.9 295.2,304.9 301.9,304.9 308.7,304.9 315.4,304.9 322.1,304.9 328.8,303.6 335.6,303.6 342.3,303.6 349.0,303.6 355.8,303.6 362.5,303.6 369.2,303.6 375.9,303.6 382.7,303.6 389.4,303.6 396.1,303.6 402.8,303.6 409.6,303.6 416.3,303.6 423.0,302.9 429.7,302.9 436.5,298.0 443.2,298.0 449.9,298.0 456.6,298.0 463.4,298.0 470.1,298.0 476.8,298.0 483.5,298.0 490.3,298.0 497.0,298.0 503.7,298.0 510.4,298.0 517.2,298.0 523.9,298.0 530.6,297.8 537.3,297.8 544.1,297.8 550.8,297.8 557.5,297.8 564.2,297.8 571.0,297.8 577.7,297.8 584.4,297.8 591.2,297.8 597.9,297.8 604.6,297.8 611.3,297.8 618.1,297.8 624.8,297.8 631.5,297.8 638.2,297.8 645.0,297.8 651.7,297.8 658.4,297.6 665.1,297.8 671.9,297.8 678.6,297.8 685.3,297.9 692.0,297.9 698.8,297.9 705.5,296.1 712.2,296.1 718.9,296.1 725.7,296.1 732.4,296.1 739.1,296.1 745.8,296.1 752.6,296.1 759.3,296.1 766.0,296.1 772.7,295.0 779.5,295.0 786.2,295.0 792.9,295.0 799.6,295.0 806.4,295.0 813.1,295.0 819.8,295.0 826.5,294.9 833.3,294.9 840.0,294.9" fill="none" stroke="#5938e2" stroke-width="2.5" stroke-linecap="round" stroke-linejoin="round" /><circle cx="80.0" cy="305.8" r="4" fill="#5938e2" /><circle cx="86.7" cy="305.8" r="4" fill="#5938e2" /><circle cx="93.5" cy="305.8" r="4" fill="#5938e2" /><circle cx="100.2" cy="305.8" r="4" fill="#5938e2" /><circle cx="106.9" cy="305.8" r="4" fill="#5938e2" /><circle cx="113.6" cy="305.8" r="4" fill="#5938e2" /><circle cx="120.4" cy="305.8" r="4" fill="#5938e2" /><circle cx="127.1" cy="305.8" r="4" fill="#5938e2" /><circle cx="133.8" cy="305.8" r="4" fill="#5938e2" /><circle cx="140.5" cy="305.8" r="4" fill="#5938e2" /><circle cx="147.3" cy="304.9" r="4" fill="#5938e2" /><circle cx="154.0" cy="304.9" r="4" fill="#5938e2" /><circle cx="160.7" cy="304.9" r="4" fill="#5938e2" /><circle cx="167.4" cy="304.9" r="4" fill="#5938e2" /><circle cx="174.2" cy="304.9" r="4" fill="#5938e2" /><circle cx="180.9" cy="304.9" r="4" fill="#5938e2" /><circle cx="187.6" cy="304.9" r="4" fill="#5938e2" /><circle cx="194.3" cy="304.9" r="4" fill="#5938e2" /><circle cx="201.1" cy="304.9" r="4" fill="#5938e2" /><circle cx="207.8" cy="304.9" r="4" fill="#5938e2" /><circle cx="214.5" cy="304.9" r="4" fill="#5938e2" /><circle cx="221.2" cy="304.9" r="4" fill="#5938e2" /><circle cx="228.0" cy="304.9" r="4" fill="#5938e2" /><circle cx="234.7" cy="304.9" r="4" fill="#5938e2" /><circle cx="241.4" cy="304.9" r="4" fill="#5938e2" /><circle cx="248.1" cy="304.9" r="4" fill="#5938e2" /><circle cx="254.9" cy="304.9" r="4" fill="#5938e2" /><circle cx="261.6" cy="304.9" r="4" fill="#5938e2" /><circle cx="268.3" cy="304.9" r="4" fill="#5938e2" /><circle cx="275.0" cy="304.9" r="4" fill="#5938e2" /><circle cx="281.8" cy="304.9" r="4" fill="#5938e2" /><circle cx="288.5" cy="304.9" r="4" fill="#5938e2" /><circle cx="295.2" cy="304.9" r="4" fill="#5938e2" /><circle cx="301.9" cy="304.9" r="4" fill="#5938e2" /><circle cx="308.7" cy="304.9" r="4" fill="#5938e2" /><circle cx="315.4" cy="304.9" r="4" fill="#5938e2" /><circle cx="322.1" cy="304.9" r="4" fill="#5938e2" /><circle cx="328.8" cy="303.6" r="4" fill="#5938e2" /><circle cx="335.6" cy="303.6" r="4" fill="#5938e2" /><circle cx="342.3" cy="303.6" r="4" fill="#5938e2" /><circle cx="349.0" cy="303.6" r="4" fill="#5938e2" /><circle cx="355.8" cy="303.6" r="4" fill="#5938e2" /><circle cx="362.5" cy="303.6" r="4" fill="#5938e2" /><circle cx="369.2" cy="303.6" r="4" fill="#5938e2" /><circle cx="375.9" cy="303.6" r="4" fill="#5938e2" /><circle cx="382.7" cy="303.6" r="4" fill="#5938e2" /><circle cx="389.4" cy="303.6" r="4" fill="#5938e2" /><circle cx="396.1" cy="303.6" r="4" fill="#5938e2" /><circle cx="402.8" cy="303.6" r="4" fill="#5938e2" /><circle cx="409.6" cy="303.6" r="4" fill="#5938e2" /><circle cx="416.3" cy="303.6" r="4" fill="#5938e2" /><circle cx="423.0" cy="302.9" r="4" fill="#5938e2" /><circle cx="429.7" cy="302.9" r="4" fill="#5938e2" /><circle cx="436.5" cy="298.0" r="4" fill="#5938e2" /><circle cx="443.2" cy="298.0" r="4" fill="#5938e2" /><circle cx="449.9" cy="298.0" r="4" fill="#5938e2" /><circle cx="456.6" cy="298.0" r="4" fill="#5938e2" /><circle cx="463.4" cy="298.0" r="4" fill="#5938e2" /><circle cx="470.1" cy="298.0" r="4" fill="#5938e2" /><circle cx="476.8" cy="298.0" r="4" fill="#5938e2" /><circle cx="483.5" cy="298.0" r="4" fill="#5938e2" /><circle cx="490.3" cy="298.0" r="4" fill="#5938e2" /><circle cx="497.0" cy="298.0" r="4" fill="#5938e2" /><circle cx="503.7" cy="298.0" r="4" fill="#5938e2" /><circle cx="510.4" cy="298.0" r="4" fill="#5938e2" /><circle cx="517.2" cy="298.0" r="4" fill="#5938e2" /><circle cx="523.9" cy="298.0" r="4" fill="#5938e2" /><circle cx="530.6" cy="297.8" r="4" fill="#5938e2" /><circle cx="537.3" cy="297.8" r="4" fill="#5938e2" /><circle cx="544.1" cy="297.8" r="4" fill="#5938e2" /><circle cx="550.8" cy="297.8" r="4" fill="#5938e2" /><circle cx="557.5" cy="297.8" r="4" fill="#5938e2" /><circle cx="564.2" cy="297.8" r="4" fill="#5938e2" /><circle cx="571.0" cy="297.8" r="4" fill="#5938e2" /><circle cx="577.7" cy="297.8" r="4" fill="#5938e2" /><circle cx="584.4" cy="297.8" r="4" fill="#5938e2" /><circle cx="591.2" cy="297.8" r="4" fill="#5938e2" /><circle cx="597.9" cy="297.8" r="4" fill="#5938e2" /><circle cx="604.6" cy="297.8" r="4" fill="#5938e2" /><circle cx="611.3" cy="297.8" r="4" fill="#5938e2" /><circle cx="618.1" cy="297.8" r="4" fill="#5938e2" /><circle cx="624.8" cy="297.8" r="4" fill="#5938e2" /><circle cx="631.5" cy="297.8" r="4" fill="#5938e2" /><circle cx="638.2" cy="297.8" r="4" fill="#5938e2" /><circle cx="645.0" cy="297.8" r="4" fill="#5938e2" /><circle cx="651.7" cy="297.8" r="4" fill="#5938e2" /><circle cx="658.4" cy="297.6" r="4" fill="#5938e2" /><circle cx="665.1" cy="297.8" r="4" fill="#5938e2" /><circle cx="671.9" cy="297.8" r="4" fill="#5938e2" /><circle cx="678.6" cy="297.8" r="4" fill="#5938e2" /><circle cx="685.3" cy="297.9" r="4" fill="#5938e2" /><circle cx="692.0" cy="297.9" r="4" fill="#5938e2" /><circle cx="698.8" cy="297.9" r="4" fill="#5938e2" /><circle cx="705.5" cy="296.1" r="4" fill="#5938e2" /><circle cx="712.2" cy="296.1" r="4" fill="#5938e2" /><circle cx="718.9" cy="296.1" r="4" fill="#5938e2" /><circle cx="725.7" cy="296.1" r="4" fill="#5938e2" /><circle cx="732.4" cy="296.1" r="4" fill="#5938e2" /><circle cx="739.1" cy="296.1" r="4" fill="#5938e2" /><circle cx="745.8" cy="296.1" r="4" fill="#5938e2" /><circle cx="752.6" cy="296.1" r="4" fill="#5938e2" /><circle cx="759.3" cy="296.1" r="4" fill="#5938e2" /><circle cx="766.0" cy="296.1" r="4" fill="#5938e2" /><circle cx="772.7" cy="295.0" r="4" fill="#5938e2" /><circle cx="779.5" cy="295.0" r="4" fill="#5938e2" /><circle cx="786.2" cy="295.0" r="4" fill="#5938e2" /><circle cx="792.9" cy="295.0" r="4" fill="#5938e2" /><circle cx="799.6" cy="295.0" r="4" fill="#5938e2" /><circle cx="806.4" cy="295.0" r="4" fill="#5938e2" /><circle cx="813.1" cy="295.0" r="4" fill="#5938e2" /><circle cx="819.8" cy="295.0" r="4" fill="#5938e2" /><circle cx="826.5" cy="294.9" r="4" fill="#5938e2" /><circle cx="833.3" cy="294.9" r="4" fill="#5938e2" /><circle cx="840.0" cy="294.9" r="4" fill="#5938e2" /><polyline points="80.0,144.6 86.7,140.1 93.5,139.9 100.2,139.8 106.9,139.8 113.6,139.6 120.4,139.6 127.1,139.6 133.8,139.6 140.5,139.6 147.3,138.4 154.0,138.4 160.7,138.4 167.4,138.4 174.2,138.4 180.9,138.4 187.6,138.4 194.3,137.4 201.1,137.4 207.8,137.4 214.5,137.4 221.2,137.4 228.0,137.4 234.7,137.4 241.4,137.4 248.1,137.4 254.9,137.4 261.6,137.4 268.3,131.2 275.0,131.2 281.8,130.8 288.5,130.4 295.2,126.9 301.9,126.9 308.7,126.9 315.4,126.9 322.1,126.9 328.8,126.9 335.6,126.9 342.3,126.9 349.0,126.9 355.8,126.8 362.5,122.1 369.2,120.4 375.9,120.4 382.7,120.4 389.4,120.4 396.1,120.4 402.8,119.4 409.6,119.4 416.3,119.4 423.0,119.4 429.7,119.1 436.5,118.8 443.2,118.8 449.9,117.8 456.6,117.8 463.4,117.8 470.1,115.8 476.8,115.8 483.5,115.0 490.3,115.0 497.0,115.0 503.7,115.0 510.4,115.0 517.2,115.0 523.9,115.0 530.6,113.9 537.3,111.8 544.1,111.8 550.8,111.8 557.5,111.8 564.2,111.8 571.0,111.8 577.7,111.8 584.4,111.8 591.2,111.8 597.9,111.8 604.6,110.6 611.3,110.6 618.1,110.6 624.8,110.6 631.5,110.6 638.2,109.4 645.0,109.4 651.7,109.4 658.4,109.4 665.1,109.2 671.9,109.2 678.6,109.2 685.3,109.2 692.0,109.2 698.8,109.2 705.5,109.2 712.2,109.2 718.9,109.2 725.7,109.2 732.4,109.2 739.1,109.2 745.8,109.2 752.6,109.2 759.3,109.2 766.0,109.1 772.7,103.5 779.5,103.5 786.2,103.5 792.9,101.5 799.6,101.5 806.4,101.5 813.1,101.5 819.8,101.5 826.5,101.5 833.3,101.5 840.0,101.5" fill="none" stroke="#60e5e0" stroke-width="2.5" stroke-linecap="round" stroke-linejoin="round" /><circle cx="80.0" cy="144.6" r="4" fill="#60e5e0" /><circle cx="86.7" cy="140.1" r="4" fill="#60e5e0" /><circle cx="93.5" cy="139.9" r="4" fill="#60e5e0" /><circle cx="100.2" cy="139.8" r="4" fill="#60e5e0" /><circle cx="106.9" cy="139.8" r="4" fill="#60e5e0" /><circle cx="113.6" cy="139.6" r="4" fill="#60e5e0" /><circle cx="120.4" cy="139.6" r="4" fill="#60e5e0" /><circle cx="127.1" cy="139.6" r="4" fill="#60e5e0" /><circle cx="133.8" cy="139.6" r="4" fill="#60e5e0" /><circle cx="140.5" cy="139.6" r="4" fill="#60e5e0" /><circle cx="147.3" cy="138.4" r="4" fill="#60e5e0" /><circle cx="154.0" cy="138.4" r="4" fill="#60e5e0" /><circle cx="160.7" cy="138.4" r="4" fill="#60e5e0" /><circle cx="167.4" cy="138.4" r="4" fill="#60e5e0" /><circle cx="174.2" cy="138.4" r="4" fill="#60e5e0" /><circle cx="180.9" cy="138.4" r="4" fill="#60e5e0" /><circle cx="187.6" cy="138.4" r="4" fill="#60e5e0" /><circle cx="194.3" cy="137.4" r="4" fill="#60e5e0" /><circle cx="201.1" cy="137.4" r="4" fill="#60e5e0" /><circle cx="207.8" cy="137.4" r="4" fill="#60e5e0" /><circle cx="214.5" cy="137.4" r="4" fill="#60e5e0" /><circle cx="221.2" cy="137.4" r="4" fill="#60e5e0" /><circle cx="228.0" cy="137.4" r="4" fill="#60e5e0" /><circle cx="234.7" cy="137.4" r="4" fill="#60e5e0" /><circle cx="241.4" cy="137.4" r="4" fill="#60e5e0" /><circle cx="248.1" cy="137.4" r="4" fill="#60e5e0" /><circle cx="254.9" cy="137.4" r="4" fill="#60e5e0" /><circle cx="261.6" cy="137.4" r="4" fill="#60e5e0" /><circle cx="268.3" cy="131.2" r="4" fill="#60e5e0" /><circle cx="275.0" cy="131.2" r="4" fill="#60e5e0" /><circle cx="281.8" cy="130.8" r="4" fill="#60e5e0" /><circle cx="288.5" cy="130.4" r="4" fill="#60e5e0" /><circle cx="295.2" cy="126.9" r="4" fill="#60e5e0" /><circle cx="301.9" cy="126.9" r="4" fill="#60e5e0" /><circle cx="308.7" cy="126.9" r="4" fill="#60e5e0" /><circle cx="315.4" cy="126.9" r="4" fill="#60e5e0" /><circle cx="322.1" cy="126.9" r="4" fill="#60e5e0" /><circle cx="328.8" cy="126.9" r="4" fill="#60e5e0" /><circle cx="335.6" cy="126.9" r="4" fill="#60e5e0" /><circle cx="342.3" cy="126.9" r="4" fill="#60e5e0" /><circle cx="349.0" cy="126.9" r="4" fill="#60e5e0" /><circle cx="355.8" cy="126.8" r="4" fill="#60e5e0" /><circle cx="362.5" cy="122.1" r="4" fill="#60e5e0" /><circle cx="369.2" cy="120.4" r="4" fill="#60e5e0" /><circle cx="375.9" cy="120.4" r="4" fill="#60e5e0" /><circle cx="382.7" cy="120.4" r="4" fill="#60e5e0" /><circle cx="389.4" cy="120.4" r="4" fill="#60e5e0" /><circle cx="396.1" cy="120.4" r="4" fill="#60e5e0" /><circle cx="402.8" cy="119.4" r="4" fill="#60e5e0" /><circle cx="409.6" cy="119.4" r="4" fill="#60e5e0" /><circle cx="416.3" cy="119.4" r="4" fill="#60e5e0" /><circle cx="423.0" cy="119.4" r="4" fill="#60e5e0" /><circle cx="429.7" cy="119.1" r="4" fill="#60e5e0" /><circle cx="436.5" cy="118.8" r="4" fill="#60e5e0" /><circle cx="443.2" cy="118.8" r="4" fill="#60e5e0" /><circle cx="449.9" cy="117.8" r="4" fill="#60e5e0" /><circle cx="456.6" cy="117.8" r="4" fill="#60e5e0" /><circle cx="463.4" cy="117.8" r="4" fill="#60e5e0" /><circle cx="470.1" cy="115.8" r="4" fill="#60e5e0" /><circle cx="476.8" cy="115.8" r="4" fill="#60e5e0" /><circle cx="483.5" cy="115.0" r="4" fill="#60e5e0" /><circle cx="490.3" cy="115.0" r="4" fill="#60e5e0" /><circle cx="497.0" cy="115.0" r="4" fill="#60e5e0" /><circle cx="503.7" cy="115.0" r="4" fill="#60e5e0" /><circle cx="510.4" cy="115.0" r="4" fill="#60e5e0" /><circle cx="517.2" cy="115.0" r="4" fill="#60e5e0" /><circle cx="523.9" cy="115.0" r="4" fill="#60e5e0" /><circle cx="530.6" cy="113.9" r="4" fill="#60e5e0" /><circle cx="537.3" cy="111.8" r="4" fill="#60e5e0" /><circle cx="544.1" cy="111.8" r="4" fill="#60e5e0" /><circle cx="550.8" cy="111.8" r="4" fill="#60e5e0" /><circle cx="557.5" cy="111.8" r="4" fill="#60e5e0" /><circle cx="564.2" cy="111.8" r="4" fill="#60e5e0" /><circle cx="571.0" cy="111.8" r="4" fill="#60e5e0" /><circle cx="577.7" cy="111.8" r="4" fill="#60e5e0" /><circle cx="584.4" cy="111.8" r="4" fill="#60e5e0" /><circle cx="591.2" cy="111.8" r="4" fill="#60e5e0" /><circle cx="597.9" cy="111.8" r="4" fill="#60e5e0" /><circle cx="604.6" cy="110.6" r="4" fill="#60e5e0" /><circle cx="611.3" cy="110.6" r="4" fill="#60e5e0" /><circle cx="618.1" cy="110.6" r="4" fill="#60e5e0" /><circle cx="624.8" cy="110.6" r="4" fill="#60e5e0" /><circle cx="631.5" cy="110.6" r="4" fill="#60e5e0" /><circle cx="638.2" cy="109.4" r="4" fill="#60e5e0" /><circle cx="645.0" cy="109.4" r="4" fill="#60e5e0" /><circle cx="651.7" cy="109.4" r="4" fill="#60e5e0" /><circle cx="658.4" cy="109.4" r="4" fill="#60e5e0" /><circle cx="665.1" cy="109.2" r="4" fill="#60e5e0" /><circle cx="671.9" cy="109.2" r="4" fill="#60e5e0" /><circle cx="678.6" cy="109.2" r="4" fill="#60e5e0" /><circle cx="685.3" cy="109.2" r="4" fill="#60e5e0" /><circle cx="692.0" cy="109.2" r="4" fill="#60e5e0" /><circle cx="698.8" cy="109.2" r="4" fill="#60e5e0" /><circle cx="705.5" cy="109.2" r="4" fill="#60e5e0" /><circle cx="712.2" cy="109.2" r="4" fill="#60e5e0" /><circle cx="718.9" cy="109.2" r="4" fill="#60e5e0" /><circle cx="725.7" cy="109.2" r="4" fill="#60e5e0" /><circle cx="732.4" cy="109.2" r="4" fill="#60e5e0" /><circle cx="739.1" cy="109.2" r="4" fill="#60e5e0" /><circle cx="745.8" cy="109.2" r="4" fill="#60e5e0" /><circle cx="752.6" cy="109.2" r="4" fill="#60e5e0" /><circle cx="759.3" cy="109.2" r="4" fill="#60e5e0" /><circle cx="766.0" cy="109.1" r="4" fill="#60e5e0" /><circle cx="772.7" cy="103.5" r="4" fill="#60e5e0" /><circle cx="779.5" cy="103.5" r="4" fill="#60e5e0" /><circle cx="786.2" cy="103.5" r="4" fill="#60e5e0" /><circle cx="792.9" cy="101.5" r="4" fill="#60e5e0" /><circle cx="799.6" cy="101.5" r="4" fill="#60e5e0" /><circle cx="806.4" cy="101.5" r="4" fill="#60e5e0" /><circle cx="813.1" cy="101.5" r="4" fill="#60e5e0" /><circle cx="819.8" cy="101.5" r="4" fill="#60e5e0" /><circle cx="826.5" cy="101.5" r="4" fill="#60e5e0" /><circle cx="833.3" cy="101.5" r="4" fill="#60e5e0" /><circle cx="840.0" cy="101.5" r="4" fill="#60e5e0" /><polyline points="80.0,314.6 86.7,314.4 93.5,314.2 100.2,314.2 106.9,314.2 113.6,314.1 120.4,314.1 127.1,314.1 133.8,314.1 140.5,314.1 147.3,314.0 154.0,314.0 160.7,314.0 167.4,314.0 174.2,314.0 180.9,314.0 187.6,314.0 194.3,314.0 201.1,314.0 207.8,314.0 214.5,314.0 221.2,314.0 228.0,314.0 234.7,314.0 241.4,314.0 248.1,314.0 254.9,314.0 261.6,314.0 268.3,314.0 275.0,314.0 281.8,314.0 288.5,314.0 295.2,314.0 301.9,314.0 308.7,314.0 315.4,314.0 322.1,314.0 328.8,314.0 335.6,314.0 342.3,314.0 349.0,314.0 355.8,313.9 362.5,313.6 369.2,313.4 375.9,313.4 382.7,313.4 389.4,313.4 396.1,313.4 402.8,313.1 409.6,313.1 416.3,313.1 423.0,313.1 429.7,313.1 436.5,313.0 443.2,313.0 449.9,312.9 456.6,312.9 463.4,312.9 470.1,312.8 476.8,312.8 483.5,312.6 490.3,312.6 497.0,312.6 503.7,312.6 510.4,312.6 517.2,312.6 523.9,312.6 530.6,312.5 537.3,312.1 544.1,312.1 550.8,312.1 557.5,312.1 564.2,312.1 571.0,312.1 577.7,312.1 584.4,312.1 591.2,312.1 597.9,312.1 604.6,312.0 611.3,312.0 618.1,312.0 624.8,312.0 631.5,312.0 638.2,312.0 645.0,312.0 651.7,312.0 658.4,312.0 665.1,312.0 671.9,312.0 678.6,312.0 685.3,312.0 692.0,312.0 698.8,312.0 705.5,312.0 712.2,312.0 718.9,312.0 725.7,312.0 732.4,312.0 739.1,312.0 745.8,312.0 752.6,312.0 759.3,312.0 766.0,312.0 772.7,311.9 779.5,311.9 786.2,311.9 792.9,311.8 799.6,311.8 806.4,311.8 813.1,311.8 819.8,311.8 826.5,311.8 833.3,311.8 840.0,311.8" fill="none" stroke="#567de1" stroke-width="2.5" stroke-linecap="round" stroke-linejoin="round" /><circle cx="80.0" cy="314.6" r="4" fill="#567de1" /><circle cx="86.7" cy="314.4" r="4" fill="#567de1" /><circle cx="93.5" cy="314.2" r="4" fill="#567de1" /><circle cx="100.2" cy="314.2" r="4" fill="#567de1" /><circle cx="106.9" cy="314.2" r="4" fill="#567de1" /><circle cx="113.6" cy="314.1" r="4" fill="#567de1" /><circle cx="120.4" cy="314.1" r="4" fill="#567de1" /><circle cx="127.1" cy="314.1" r="4" fill="#567de1" /><circle cx="133.8" cy="314.1" r="4" fill="#567de1" /><circle cx="140.5" cy="314.1" r="4" fill="#567de1" /><circle cx="147.3" cy="314.0" r="4" fill="#567de1" /><circle cx="154.0" cy="314.0" r="4" fill="#567de1" /><circle cx="160.7" cy="314.0" r="4" fill="#567de1" /><circle cx="167.4" cy="314.0" r="4" fill="#567de1" /><circle cx="174.2" cy="314.0" r="4" fill="#567de1" /><circle cx="180.9" cy="314.0" r="4" fill="#567de1" /><circle cx="187.6" cy="314.0" r="4" fill="#567de1" /><circle cx="194.3" cy="314.0" r="4" fill="#567de1" /><circle cx="201.1" cy="314.0" r="4" fill="#567de1" /><circle cx="207.8" cy="314.0" r="4" fill="#567de1" /><circle cx="214.5" cy="314.0" r="4" fill="#567de1" /><circle cx="221.2" cy="314.0" r="4" fill="#567de1" /><circle cx="228.0" cy="314.0" r="4" fill="#567de1" /><circle cx="234.7" cy="314.0" r="4" fill="#567de1" /><circle cx="241.4" cy="314.0" r="4" fill="#567de1" /><circle cx="248.1" cy="314.0" r="4" fill="#567de1" /><circle cx="254.9" cy="314.0" r="4" fill="#567de1" /><circle cx="261.6" cy="314.0" r="4" fill="#567de1" /><circle cx="268.3" cy="314.0" r="4" fill="#567de1" /><circle cx="275.0" cy="314.0" r="4" fill="#567de1" /><circle cx="281.8" cy="314.0" r="4" fill="#567de1" /><circle cx="288.5" cy="314.0" r="4" fill="#567de1" /><circle cx="295.2" cy="314.0" r="4" fill="#567de1" /><circle cx="301.9" cy="314.0" r="4" fill="#567de1" /><circle cx="308.7" cy="314.0" r="4" fill="#567de1" /><circle cx="315.4" cy="314.0" r="4" fill="#567de1" /><circle cx="322.1" cy="314.0" r="4" fill="#567de1" /><circle cx="328.8" cy="314.0" r="4" fill="#567de1" /><circle cx="335.6" cy="314.0" r="4" fill="#567de1" /><circle cx="342.3" cy="314.0" r="4" fill="#567de1" /><circle cx="349.0" cy="314.0" r="4" fill="#567de1" /><circle cx="355.8" cy="313.9" r="4" fill="#567de1" /><circle cx="362.5" cy="313.6" r="4" fill="#567de1" /><circle cx="369.2" cy="313.4" r="4" fill="#567de1" /><circle cx="375.9" cy="313.4" r="4" fill="#567de1" /><circle cx="382.7" cy="313.4" r="4" fill="#567de1" /><circle cx="389.4" cy="313.4" r="4" fill="#567de1" /><circle cx="396.1" cy="313.4" r="4" fill="#567de1" /><circle cx="402.8" cy="313.1" r="4" fill="#567de1" /><circle cx="409.6" cy="313.1" r="4" fill="#567de1" /><circle cx="416.3" cy="313.1" r="4" fill="#567de1" /><circle cx="423.0" cy="313.1" r="4" fill="#567de1" /><circle cx="429.7" cy="313.1" r="4" fill="#567de1" /><circle cx="436.5" cy="313.0" r="4" fill="#567de1" /><circle cx="443.2" cy="313.0" r="4" fill="#567de1" /><circle cx="449.9" cy="312.9" r="4" fill="#567de1" /><circle cx="456.6" cy="312.9" r="4" fill="#567de1" /><circle cx="463.4" cy="312.9" r="4" fill="#567de1" /><circle cx="470.1" cy="312.8" r="4" fill="#567de1" /><circle cx="476.8" cy="312.8" r="4" fill="#567de1" /><circle cx="483.5" cy="312.6" r="4" fill="#567de1" /><circle cx="490.3" cy="312.6" r="4" fill="#567de1" /><circle cx="497.0" cy="312.6" r="4" fill="#567de1" /><circle cx="503.7" cy="312.6" r="4" fill="#567de1" /><circle cx="510.4" cy="312.6" r="4" fill="#567de1" /><circle cx="517.2" cy="312.6" r="4" fill="#567de1" /><circle cx="523.9" cy="312.6" r="4" fill="#567de1" /><circle cx="530.6" cy="312.5" r="4" fill="#567de1" /><circle cx="537.3" cy="312.1" r="4" fill="#567de1" /><circle cx="544.1" cy="312.1" r="4" fill="#567de1" /><circle cx="550.8" cy="312.1" r="4" fill="#567de1" /><circle cx="557.5" cy="312.1" r="4" fill="#567de1" /><circle cx="564.2" cy="312.1" r="4" fill="#567de1" /><circle cx="571.0" cy="312.1" r="4" fill="#567de1" /><circle cx="577.7" cy="312.1" r="4" fill="#567de1" /><circle cx="584.4" cy="312.1" r="4" fill="#567de1" /><circle cx="591.2" cy="312.1" r="4" fill="#567de1" /><circle cx="597.9" cy="312.1" r="4" fill="#567de1" /><circle cx="604.6" cy="312.0" r="4" fill="#567de1" /><circle cx="611.3" cy="312.0" r="4" fill="#567de1" /><circle cx="618.1" cy="312.0" r="4" fill="#567de1" /><circle cx="624.8" cy="312.0" r="4" fill="#567de1" /><circle cx="631.5" cy="312.0" r="4" fill="#567de1" /><circle cx="638.2" cy="312.0" r="4" fill="#567de1" /><circle cx="645.0" cy="312.0" r="4" fill="#567de1" /><circle cx="651.7" cy="312.0" r="4" fill="#567de1" /><circle cx="658.4" cy="312.0" r="4" fill="#567de1" /><circle cx="665.1" cy="312.0" r="4" fill="#567de1" /><circle cx="671.9" cy="312.0" r="4" fill="#567de1" /><circle cx="678.6" cy="312.0" r="4" fill="#567de1" /><circle cx="685.3" cy="312.0" r="4" fill="#567de1" /><circle cx="692.0" cy="312.0" r="4" fill="#567de1" /><circle cx="698.8" cy="312.0" r="4" fill="#567de1" /><circle cx="705.5" cy="312.0" r="4" fill="#567de1" /><circle cx="712.2" cy="312.0" r="4" fill="#567de1" /><circle cx="718.9" cy="312.0" r="4" fill="#567de1" /><circle cx="725.7" cy="312.0" r="4" fill="#567de1" /><circle cx="732.4" cy="312.0" r="4" fill="#567de1" /><circle cx="739.1" cy="312.0" r="4" fill="#567de1" /><circle cx="745.8" cy="312.0" r="4" fill="#567de1" /><circle cx="752.6" cy="312.0" r="4" fill="#567de1" /><circle cx="759.3" cy="312.0" r="4" fill="#567de1" /><circle cx="766.0" cy="312.0" r="4" fill="#567de1" /><circle cx="772.7" cy="311.9" r="4" fill="#567de1" /><circle cx="779.5" cy="311.9" r="4" fill="#567de1" /><circle cx="786.2" cy="311.9" r="4" fill="#567de1" /><circle cx="792.9" cy="311.8" r="4" fill="#567de1" /><circle cx="799.6" cy="311.8" r="4" fill="#567de1" /><circle cx="806.4" cy="311.8" r="4" fill="#567de1" /><circle cx="813.1" cy="311.8" r="4" fill="#567de1" /><circle cx="819.8" cy="311.8" r="4" fill="#567de1" /><circle cx="826.5" cy="311.8" r="4" fill="#567de1" /><circle cx="833.3" cy="311.8" r="4" fill="#567de1" /><circle cx="840.0" cy="311.8" r="4" fill="#567de1" /><polyline points="80.0,303.9 86.7,304.2 93.5,304.4 100.2,304.4 106.9,304.4 113.6,304.4 120.4,304.4 127.1,304.4 133.8,304.4 140.5,304.4 147.3,304.4 154.0,304.4 160.7,304.4 167.4,304.4 174.2,304.4 180.9,304.4 187.6,304.4 194.3,304.4 201.1,304.4 207.8,304.4 214.5,304.4 221.2,304.4 228.0,304.4 234.7,304.4 241.4,304.4 248.1,304.4 254.9,304.4 261.6,304.4 268.3,299.1 275.0,299.1 281.8,299.1 288.5,298.9 295.2,295.6 301.9,295.6 308.7,295.6 315.4,295.6 322.1,295.6 328.8,295.6 335.6,295.6 342.3,295.6 349.0,295.6 355.8,295.8 362.5,295.9 369.2,295.9 375.9,295.9 382.7,295.9 389.4,295.9 396.1,295.9 402.8,295.9 409.6,295.9 416.3,295.9 423.0,295.9 429.7,295.9 436.5,295.9 443.2,295.9 449.9,295.9 456.6,295.9 463.4,295.9 470.1,295.8 476.8,295.8 483.5,295.9 490.3,295.9 497.0,295.9 503.7,295.9 510.4,295.9 517.2,295.9 523.9,295.9 530.6,296.0 537.3,296.4 544.1,296.4 550.8,296.4 557.5,296.4 564.2,296.4 571.0,296.4 577.7,296.4 584.4,296.4 591.2,296.4 597.9,296.4 604.6,296.5 611.3,296.5 618.1,296.5 624.8,296.5 631.5,296.5 638.2,296.5 645.0,296.5 651.7,296.5 658.4,296.5 665.1,296.5 671.9,296.5 678.6,296.5 685.3,296.5 692.0,296.5 698.8,296.5 705.5,296.5 712.2,296.5 718.9,296.5 725.7,296.5 732.4,296.5 739.1,296.5 745.8,296.5 752.6,296.5 759.3,296.5 766.0,296.5 772.7,295.0 779.5,295.0 786.2,295.0 792.9,295.1 799.6,295.1 806.4,295.1 813.1,295.1 819.8,295.1 826.5,295.1 833.3,295.1 840.0,295.1" fill="none" stroke="#9754dd" stroke-width="2.5" stroke-linecap="round" stroke-linejoin="round" /><circle cx="80.0" cy="303.9" r="4" fill="#9754dd" /><circle cx="86.7" cy="304.2" r="4" fill="#9754dd" /><circle cx="93.5" cy="304.4" r="4" fill="#9754dd" /><circle cx="100.2" cy="304.4" r="4" fill="#9754dd" /><circle cx="106.9" cy="304.4" r="4" fill="#9754dd" /><circle cx="113.6" cy="304.4" r="4" fill="#9754dd" /><circle cx="120.4" cy="304.4" r="4" fill="#9754dd" /><circle cx="127.1" cy="304.4" r="4" fill="#9754dd" /><circle cx="133.8" cy="304.4" r="4" fill="#9754dd" /><circle cx="140.5" cy="304.4" r="4" fill="#9754dd" /><circle cx="147.3" cy="304.4" r="4" fill="#9754dd" /><circle cx="154.0" cy="304.4" r="4" fill="#9754dd" /><circle cx="160.7" cy="304.4" r="4" fill="#9754dd" /><circle cx="167.4" cy="304.4" r="4" fill="#9754dd" /><circle cx="174.2" cy="304.4" r="4" fill="#9754dd" /><circle cx="180.9" cy="304.4" r="4" fill="#9754dd" /><circle cx="187.6" cy="304.4" r="4" fill="#9754dd" /><circle cx="194.3" cy="304.4" r="4" fill="#9754dd" /><circle cx="201.1" cy="304.4" r="4" fill="#9754dd" /><circle cx="207.8" cy="304.4" r="4" fill="#9754dd" /><circle cx="214.5" cy="304.4" r="4" fill="#9754dd" /><circle cx="221.2" cy="304.4" r="4" fill="#9754dd" /><circle cx="228.0" cy="304.4" r="4" fill="#9754dd" /><circle cx="234.7" cy="304.4" r="4" fill="#9754dd" /><circle cx="241.4" cy="304.4" r="4" fill="#9754dd" /><circle cx="248.1" cy="304.4" r="4" fill="#9754dd" /><circle cx="254.9" cy="304.4" r="4" fill="#9754dd" /><circle cx="261.6" cy="304.4" r="4" fill="#9754dd" /><circle cx="268.3" cy="299.1" r="4" fill="#9754dd" /><circle cx="275.0" cy="299.1" r="4" fill="#9754dd" /><circle cx="281.8" cy="299.1" r="4" fill="#9754dd" /><circle cx="288.5" cy="298.9" r="4" fill="#9754dd" /><circle cx="295.2" cy="295.6" r="4" fill="#9754dd" /><circle cx="301.9" cy="295.6" r="4" fill="#9754dd" /><circle cx="308.7" cy="295.6" r="4" fill="#9754dd" /><circle cx="315.4" cy="295.6" r="4" fill="#9754dd" /><circle cx="322.1" cy="295.6" r="4" fill="#9754dd" /><circle cx="328.8" cy="295.6" r="4" fill="#9754dd" /><circle cx="335.6" cy="295.6" r="4" fill="#9754dd" /><circle cx="342.3" cy="295.6" r="4" fill="#9754dd" /><circle cx="349.0" cy="295.6" r="4" fill="#9754dd" /><circle cx="355.8" cy="295.8" r="4" fill="#9754dd" /><circle cx="362.5" cy="295.9" r="4" fill="#9754dd" /><circle cx="369.2" cy="295.9" r="4" fill="#9754dd" /><circle cx="375.9" cy="295.9" r="4" fill="#9754dd" /><circle cx="382.7" cy="295.9" r="4" fill="#9754dd" /><circle cx="389.4" cy="295.9" r="4" fill="#9754dd" /><circle cx="396.1" cy="295.9" r="4" fill="#9754dd" /><circle cx="402.8" cy="295.9" r="4" fill="#9754dd" /><circle cx="409.6" cy="295.9" r="4" fill="#9754dd" /><circle cx="416.3" cy="295.9" r="4" fill="#9754dd" /><circle cx="423.0" cy="295.9" r="4" fill="#9754dd" /><circle cx="429.7" cy="295.9" r="4" fill="#9754dd" /><circle cx="436.5" cy="295.9" r="4" fill="#9754dd" /><circle cx="443.2" cy="295.9" r="4" fill="#9754dd" /><circle cx="449.9" cy="295.9" r="4" fill="#9754dd" /><circle cx="456.6" cy="295.9" r="4" fill="#9754dd" /><circle cx="463.4" cy="295.9" r="4" fill="#9754dd" /><circle cx="470.1" cy="295.8" r="4" fill="#9754dd" /><circle cx="476.8" cy="295.8" r="4" fill="#9754dd" /><circle cx="483.5" cy="295.9" r="4" fill="#9754dd" /><circle cx="490.3" cy="295.9" r="4" fill="#9754dd" /><circle cx="497.0" cy="295.9" r="4" fill="#9754dd" /><circle cx="503.7" cy="295.9" r="4" fill="#9754dd" /><circle cx="510.4" cy="295.9" r="4" fill="#9754dd" /><circle cx="517.2" cy="295.9" r="4" fill="#9754dd" /><circle cx="523.9" cy="295.9" r="4" fill="#9754dd" /><circle cx="530.6" cy="296.0" r="4" fill="#9754dd" /><circle cx="537.3" cy="296.4" r="4" fill="#9754dd" /><circle cx="544.1" cy="296.4" r="4" fill="#9754dd" /><circle cx="550.8" cy="296.4" r="4" fill="#9754dd" /><circle cx="557.5" cy="296.4" r="4" fill="#9754dd" /><circle cx="564.2" cy="296.4" r="4" fill="#9754dd" /><circle cx="571.0" cy="296.4" r="4" fill="#9754dd" /><circle cx="577.7" cy="296.4" r="4" fill="#9754dd" /><circle cx="584.4" cy="296.4" r="4" fill="#9754dd" /><circle cx="591.2" cy="296.4" r="4" fill="#9754dd" /><circle cx="597.9" cy="296.4" r="4" fill="#9754dd" /><circle cx="604.6" cy="296.5" r="4" fill="#9754dd" /><circle cx="611.3" cy="296.5" r="4" fill="#9754dd" /><circle cx="618.1" cy="296.5" r="4" fill="#9754dd" /><circle cx="624.8" cy="296.5" r="4" fill="#9754dd" /><circle cx="631.5" cy="296.5" r="4" fill="#9754dd" /><circle cx="638.2" cy="296.5" r="4" fill="#9754dd" /><circle cx="645.0" cy="296.5" r="4" fill="#9754dd" /><circle cx="651.7" cy="296.5" r="4" fill="#9754dd" /><circle cx="658.4" cy="296.5" r="4" fill="#9754dd" /><circle cx="665.1" cy="296.5" r="4" fill="#9754dd" /><circle cx="671.9" cy="296.5" r="4" fill="#9754dd" /><circle cx="678.6" cy="296.5" r="4" fill="#9754dd" /><circle cx="685.3" cy="296.5" r="4" fill="#9754dd" /><circle cx="692.0" cy="296.5" r="4" fill="#9754dd" /><circle cx="698.8" cy="296.5" r="4" fill="#9754dd" /><circle cx="705.5" cy="296.5" r="4" fill="#9754dd" /><circle cx="712.2" cy="296.5" r="4" fill="#9754dd" /><circle cx="718.9" cy="296.5" r="4" fill="#9754dd" /><circle cx="725.7" cy="296.5" r="4" fill="#9754dd" /><circle cx="732.4" cy="296.5" r="4" fill="#9754dd" /><circle cx="739.1" cy="296.5" r="4" fill="#9754dd" /><circle cx="745.8" cy="296.5" r="4" fill="#9754dd" /><circle cx="752.6" cy="296.5" r="4" fill="#9754dd" /><circle cx="759.3" cy="296.5" r="4" fill="#9754dd" /><circle cx="766.0" cy="296.5" r="4" fill="#9754dd" /><circle cx="772.7" cy="295.0" r="4" fill="#9754dd" /><circle cx="779.5" cy="295.0" r="4" fill="#9754dd" /><circle cx="786.2" cy="295.0" r="4" fill="#9754dd" /><circle cx="792.9" cy="295.1" r="4" fill="#9754dd" /><circle cx="799.6" cy="295.1" r="4" fill="#9754dd" /><circle cx="806.4" cy="295.1" r="4" fill="#9754dd" /><circle cx="813.1" cy="295.1" r="4" fill="#9754dd" /><circle cx="819.8" cy="295.1" r="4" fill="#9754dd" /><circle cx="826.5" cy="295.1" r="4" fill="#9754dd" /><circle cx="833.3" cy="295.1" r="4" fill="#9754dd" /><circle cx="840.0" cy="295.1" r="4" fill="#9754dd" />
  <rect x="80" y="339" width="10" height="10" rx="2" ry="2" fill="#19e5a1" /><text x="96" y="348" class="legend-label">Stars</text><rect x="250" y="339" width="10" height="10" rx="2" ry="2" fill="#6eb6ec" /><text x="266" y="348" class="legend-label">Followers</text><rect x="420" y="339" width="10" height="10" rx="2" ry="2" fill="#5938e2" /><text x="436" y="348" class="legend-label">Following</text><rect x="590" y="339" width="10" height="10" rx="2" ry="2" fill="#60e5e0" /><text x="606" y="348" class="legend-label">Contributions</text><rect x="80" y="357" width="10" height="10" rx="2" ry="2" fill="#567de1" /><text x="96" y="366" class="legend-label">Pull Requests</text><rect x="250" y="357" width="10" height="10" rx="2" ry="2" fill="#9754dd" /><text x="266" y="366" class="legend-label">Issues</text>
</svg>
