<svg width="900" height="402" viewBox="0 0 900 402" xmlns="http://www.w3.org/2000/svg">
  <defs>
    <linearGradient id="history-gradient" x1="0%" y1="0%" x2="100%" y2="100%">
      <stop offset="0%" style="stop-color:#58a6ff;stop-opacity:1" />
      <stop offset="100%" style="stop-color:#a371f7;stop-opacity:1" />
    </linearGradient>
    <clipPath id="history-rounded">
      <rect x="0" y="0" width="900" height="402" rx="8" ry="8" />
    </clipPath>
  </defs>
  <style>
    .title {
      font-family: 'Segoe UI', Ubuntu, 'Helvetica Neue', sans-serif;
      font-size: 22px;
      font-weight: 700;
      fill: #58a6ff;
    }
    .subtitle {
      font-family: 'Segoe UI', Ubuntu, 'Helvetica Neue', sans-serif;
      font-size: 12px;
      font-weight: 500;
      fill: #8b949e;
    }
    .axis-label {
      font-family: 'Segoe UI', Ubuntu, 'Helvetica Neue', sans-serif;
      font-size: 10px;
      fill: #8b949e;
    }
    .grid-line {
      stroke: #30363d;
      stroke-width: 1;
      opacity: 0.3;
    }
    .legend-label {
      font-family: 'Segoe UI', Ubuntu, 'Helvetica Neue', sans-serif;
      font-size: 11px;
      fill: #c9d1d9;
      dominant-baseline: middle;
    }
  </style>
  <rect clip-path="url(#history-rounded)" width="100%" height="100%" fill="#0d1117" stroke="#30363d" stroke-width="1" />
  <rect x="0" y="396" width="900" height="6" fill="url(#history-gradient)" clip-path="url(#history-rounded)" />
  <text x="24" y="34" class="title">Leonardo Klein Stats History</text>
  <text x="24" y="54" class="subtitle">Period: 2026-02-20 to 2026-03-10</text>
  <text x="72" y="320.0" text-anchor="end" dominant-baseline="central" class="axis-label">0</text><text x="72" y="270.0" text-anchor="end" dominant-baseline="central" class="axis-label">400</text><text x="72" y="220.0" text-anchor="end" dominant-baseline="central" class="axis-label">800</text><text x="72" y="170.0" text-anchor="end" dominant-baseline="central" class="axis-label">1.2k</text><text x="72" y="120.0" text-anchor="end" dominant-baseline="central" class="axis-label">1.6k</text><text x="72" y="70.0" text-anchor="end" dominant-baseline="central" class="axis-label">2.0k</text>
  <text x="80.0" y="336" text-anchor="middle" class="axis-label">02-20</text><text x="156.0" y="336" text-anchor="middle" class="axis-label">02-22</text><text x="232.0" y="336" text-anchor="middle" class="axis-label">02-24</text><text x="308.0" y="336" text-anchor="middle" class="axis-label">02-25</text><text x="384.0" y="336" text-anchor="middle" class="axis-label">02-27</text><text x="460.0" y="336" text-anchor="middle" class="axis-label">03-01</text><text x="536.0" y="336" text-anchor="middle" class="axis-label">03-03</text><text x="612.0" y="336" text-anchor="middle" class="axis-label">03-05</text><text x="688.0" y="336" text-anchor="middle" class="axis-label">03-06</text><text x="764.0" y="336" text-anchor="middle" class="axis-label">03-08</text><text x="840.0" y="336" text-anchor="middle" class="axis-label">03-10</text>
  <line x1="80" y1="320.0" x2="840" y2="320.0" class="grid-line" /><line x1="80" y1="270.0" x2="840" y2="270.0" class="grid-line" /><line x1="80" y1="220.0" x2="840" y2="220.0" class="grid-line" /><line x1="80" y1="170.0" x2="840" y2="170.0" class="grid-line" /><line x1="80" y1="120.0" x2="840" y2="120.0" class="grid-line" /><line x1="80" y1="70.0" x2="840" y2="70.0" class="grid-line" />
  <polyline points="80.0,317.0 88.4,317.0 96.9,317.0 105.3,317.0 113.8,317.0 122.2,317.0 130.7,317.0 139.1,317.0 147.6,317.0 156.0,317.0 164.4,317.0 172.9,317.0 181.3,317.0 189.8,317.0 198.2,317.0 206.7,317.0 215.1,317.0 223.6,317.0 232.0,317.0 240.4,317.0 248.9,317.0 257.3,317.0 265.8,317.0 274.2,317.0 282.7,317.0 291.1,317.0 299.6,317.0 308.0,317.0 316.4,317.0 324.9,317.0 333.3,317.0 341.8,317.0 350.2,317.0 358.7,317.0 367.1,317.0 375.6,317.0 384.0,317.0 392.4,317.0 400.9,317.0 409.3,317.0 417.8,317.0 426.2,317.0 434.7,317.0 443.1,317.0 451.6,317.0 460.0,317.0 468.4,317.0 476.9,317.0 485.3,317.0 493.8,317.0 502.2,317.0 510.7,317.0 519.1,317.0 527.6,317.0 536.0,317.0 544.4,317.0 552.9,317.0 561.3,317.0 569.8,317.0 578.2,317.0 586.7,317.0 595.1,317.0 603.6,317.0 612.0,317.0 620.4,317.0 628.9,317.0 637.3,317.0 645.8,317.0 654.2,317.0 662.7,317.0 671.1,317.0 679.6,317.0 688.0,317.0 696.4,317.0 704.9,317.0 713.3,317.0 721.8,317.0 730.2,317.0 738.7,317.0 747.1,317.0 755.6,317.0 764.0,317.0 772.4,317.0 780.9,317.0 789.3,317.0 797.8,317.0 806.2,317.0 814.7,317.0 823.1,317.0 831.6,317.0 840.0,317.0" fill="none" stroke="#19e5a1" stroke-width="2.5" stroke-linecap="round" stroke-linejoin="round" /><circle cx="80.0" cy="317.0" r="4" fill="#19e5a1" /><circle cx="88.4" cy="317.0" r="4" fill="#19e5a1" /><circle cx="96.9" cy="317.0" r="4" fill="#19e5a1" /><circle cx="105.3" cy="317.0" r="4" fill="#19e5a1" /><circle cx="113.8" cy="317.0" r="4" fill="#19e5a1" /><circle cx="122.2" cy="317.0" r="4" fill="#19e5a1" /><circle cx="130.7" cy="317.0" r="4" fill="#19e5a1" /><circle cx="139.1" cy="317.0" r="4" fill="#19e5a1" /><circle cx="147.6" cy="317.0" r="4" fill="#19e5a1" /><circle cx="156.0" cy="317.0" r="4" fill="#19e5a1" /><circle cx="164.4" cy="317.0" r="4" fill="#19e5a1" /><circle cx="172.9" cy="317.0" r="4" fill="#19e5a1" /><circle cx="181.3" cy="317.0" r="4" fill="#19e5a1" /><circle cx="189.8" cy="317.0" r="4" fill="#19e5a1" /><circle cx="198.2" cy="317.0" r="4" fill="#19e5a1" /><circle cx="206.7" cy="317.0" r="4" fill="#19e5a1" /><circle cx="215.1" cy="317.0" r="4" fill="#19e5a1" /><circle cx="223.6" cy="317.0" r="4" fill="#19e5a1" /><circle cx="232.0" cy="317.0" r="4" fill="#19e5a1" /><circle cx="240.4" cy="317.0" r="4" fill="#19e5a1" /><circle cx="248.9" cy="317.0" r="4" fill="#19e5a1" /><circle cx="257.3" cy="317.0" r="4" fill="#19e5a1" /><circle cx="265.8" cy="317.0" r="4" fill="#19e5a1" /><circle cx="274.2" cy="317.0" r="4" fill="#19e5a1" /><circle cx="282.7" cy="317.0" r="4" fill="#19e5a1" /><circle cx="291.1" cy="317.0" r="4" fill="#19e5a1" /><circle cx="299.6" cy="317.0" r="4" fill="#19e5a1" /><circle cx="308.0" cy="317.0" r="4" fill="#19e5a1" /><circle cx="316.4" cy="317.0" r="4" fill="#19e5a1" /><circle cx="324.9" cy="317.0" r="4" fill="#19e5a1" /><circle cx="333.3" cy="317.0" r="4" fill="#19e5a1" /><circle cx="341.8" cy="317.0" r="4" fill="#19e5a1" /><circle cx="350.2" cy="317.0" r="4" fill="#19e5a1" /><circle cx="358.7" cy="317.0" r="4" fill="#19e5a1" /><circle cx="367.1" cy="317.0" r="4" fill="#19e5a1" /><circle cx="375.6" cy="317.0" r="4" fill="#19e5a1" /><circle cx="384.0" cy="317.0" r="4" fill="#19e5a1" /><circle cx="392.4" cy="317.0" r="4" fill="#19e5a1" /><circle cx="400.9" cy="317.0" r="4" fill="#19e5a1" /><circle cx="409.3" cy="317.0" r="4" fill="#19e5a1" /><circle cx="417.8" cy="317.0" r="4" fill="#19e5a1" /><circle cx="426.2" cy="317.0" r="4" fill="#19e5a1" /><circle cx="434.7" cy="317.0" r="4" fill="#19e5a1" /><circle cx="443.1" cy="317.0" r="4" fill="#19e5a1" /><circle cx="451.6" cy="317.0" r="4" fill="#19e5a1" /><circle cx="460.0" cy="317.0" r="4" fill="#19e5a1" /><circle cx="468.4" cy="317.0" r="4" fill="#19e5a1" /><circle cx="476.9" cy="317.0" r="4" fill="#19e5a1" /><circle cx="485.3" cy="317.0" r="4" fill="#19e5a1" /><circle cx="493.8" cy="317.0" r="4" fill="#19e5a1" /><circle cx="502.2" cy="317.0" r="4" fill="#19e5a1" /><circle cx="510.7" cy="317.0" r="4" fill="#19e5a1" /><circle cx="519.1" cy="317.0" r="4" fill="#19e5a1" /><circle cx="527.6" cy="317.0" r="4" fill="#19e5a1" /><circle cx="536.0" cy="317.0" r="4" fill="#19e5a1" /><circle cx="544.4" cy="317.0" r="4" fill="#19e5a1" /><circle cx="552.9" cy="317.0" r="4" fill="#19e5a1" /><circle cx="561.3" cy="317.0" r="4" fill="#19e5a1" /><circle cx="569.8" cy="317.0" r="4" fill="#19e5a1" /><circle cx="578.2" cy="317.0" r="4" fill="#19e5a1" /><circle cx="586.7" cy="317.0" r="4" fill="#19e5a1" /><circle cx="595.1" cy="317.0" r="4" fill="#19e5a1" /><circle cx="603.6" cy="317.0" r="4" fill="#19e5a1" /><circle cx="612.0" cy="317.0" r="4" fill="#19e5a1" /><circle cx="620.4" cy="317.0" r="4" fill="#19e5a1" /><circle cx="628.9" cy="317.0" r="4" fill="#19e5a1" /><circle cx="637.3" cy="317.0" r="4" fill="#19e5a1" /><circle cx="645.8" cy="317.0" r="4" fill="#19e5a1" /><circle cx="654.2" cy="317.0" r="4" fill="#19e5a1" /><circle cx="662.7" cy="317.0" r="4" fill="#19e5a1" /><circle cx="671.1" cy="317.0" r="4" fill="#19e5a1" /><circle cx="679.6" cy="317.0" r="4" fill="#19e5a1" /><circle cx="688.0" cy="317.0" r="4" fill="#19e5a1" /><circle cx="696.4" cy="317.0" r="4" fill="#19e5a1" /><circle cx="704.9" cy="317.0" r="4" fill="#19e5a1" /><circle cx="713.3" cy="317.0" r="4" fill="#19e5a1" /><circle cx="721.8" cy="317.0" r="4" fill="#19e5a1" /><circle cx="730.2" cy="317.0" r="4" fill="#19e5a1" /><circle cx="738.7" cy="317.0" r="4" fill="#19e5a1" /><circle cx="747.1" cy="317.0" r="4" fill="#19e5a1" /><circle cx="755.6" cy="317.0" r="4" fill="#19e5a1" /><circle cx="764.0" cy="317.0" r="4" fill="#19e5a1" /><circle cx="772.4" cy="317.0" r="4" fill="#19e5a1" /><circle cx="780.9" cy="317.0" r="4" fill="#19e5a1" /><circle cx="789.3" cy="317.0" r="4" fill="#19e5a1" /><circle cx="797.8" cy="317.0" r="4" fill="#19e5a1" /><circle cx="806.2" cy="317.0" r="4" fill="#19e5a1" /><circle cx="814.7" cy="317.0" r="4" fill="#19e5a1" /><circle cx="823.1" cy="317.0" r="4" fill="#19e5a1" /><circle cx="831.6" cy="317.0" r="4" fill="#19e5a1" /><circle cx="840.0" cy="317.0" r="4" fill="#19e5a1" /><polyline points="80.0,313.2 88.4,312.2 96.9,312.1 105.3,312.4 113.8,312.4 122.2,312.4 130.7,312.1 139.1,312.0 147.6,311.9 156.0,311.9 164.4,311.8 172.9,311.8 181.3,311.5 189.8,311.5 198.2,311.5 206.7,311.2 215.1,311.2 223.6,311.1 232.0,311.1 240.4,311.1 248.9,310.9 257.3,311.0 265.8,310.8 274.2,310.8 282.7,310.8 291.1,310.8 299.6,310.4 308.0,310.2 316.4,310.4 324.9,310.4 333.3,310.4 341.8,310.4 350.2,310.4 358.7,310.2 367.1,310.2 375.6,310.1 384.0,310.1 392.4,309.8 400.9,309.6 409.3,309.6 417.8,309.6 426.2,309.6 434.7,309.5 443.1,309.4 451.6,309.4 460.0,309.4 468.4,309.4 476.9,309.2 485.3,309.2 493.8,309.2 502.2,309.4 510.7,309.4 519.1,309.5 527.6,309.2 536.0,309.2 544.4,309.4 552.9,309.2 561.3,309.2 569.8,309.2 578.2,309.2 586.7,309.2 595.1,309.1 603.6,309.1 612.0,309.1 620.4,309.1 628.9,309.0 637.3,309.0 645.8,308.9 654.2,308.9 662.7,308.9 671.1,308.6 679.6,308.6 688.0,308.6 696.4,308.6 704.9,308.6 713.3,308.6 721.8,308.6 730.2,308.6 738.7,308.6 747.1,308.6 755.6,308.6 764.0,308.6 772.4,308.6 780.9,307.8 789.3,307.8 797.8,307.6 806.2,307.6 814.7,307.6 823.1,307.5 831.6,307.5 840.0,307.6" fill="none" stroke="#6eb6ec" stroke-width="2.5" stroke-linecap="round" stroke-linejoin="round" /><circle cx="80.0" cy="313.2" r="4" fill="#6eb6ec" /><circle cx="88.4" cy="312.2" r="4" fill="#6eb6ec" /><circle cx="96.9" cy="312.1" r="4" fill="#6eb6ec" /><circle cx="105.3" cy="312.4" r="4" fill="#6eb6ec" /><circle cx="113.8" cy="312.4" r="4" fill="#6eb6ec" /><circle cx="122.2" cy="312.4" r="4" fill="#6eb6ec" /><circle cx="130.7" cy="312.1" r="4" fill="#6eb6ec" /><circle cx="139.1" cy="312.0" r="4" fill="#6eb6ec" /><circle cx="147.6" cy="311.9" r="4" fill="#6eb6ec" /><circle cx="156.0" cy="311.9" r="4" fill="#6eb6ec" /><circle cx="164.4" cy="311.8" r="4" fill="#6eb6ec" /><circle cx="172.9" cy="311.8" r="4" fill="#6eb6ec" /><circle cx="181.3" cy="311.5" r="4" fill="#6eb6ec" /><circle cx="189.8" cy="311.5" r="4" fill="#6eb6ec" /><circle cx="198.2" cy="311.5" r="4" fill="#6eb6ec" /><circle cx="206.7" cy="311.2" r="4" fill="#6eb6ec" /><circle cx="215.1" cy="311.2" r="4" fill="#6eb6ec" /><circle cx="223.6" cy="311.1" r="4" fill="#6eb6ec" /><circle cx="232.0" cy="311.1" r="4" fill="#6eb6ec" /><circle cx="240.4" cy="311.1" r="4" fill="#6eb6ec" /><circle cx="248.9" cy="310.9" r="4" fill="#6eb6ec" /><circle cx="257.3" cy="311.0" r="4" fill="#6eb6ec" /><circle cx="265.8" cy="310.8" r="4" fill="#6eb6ec" /><circle cx="274.2" cy="310.8" r="4" fill="#6eb6ec" /><circle cx="282.7" cy="310.8" r="4" fill="#6eb6ec" /><circle cx="291.1" cy="310.8" r="4" fill="#6eb6ec" /><circle cx="299.6" cy="310.4" r="4" fill="#6eb6ec" /><circle cx="308.0" cy="310.2" r="4" fill="#6eb6ec" /><circle cx="316.4" cy="310.4" r="4" fill="#6eb6ec" /><circle cx="324.9" cy="310.4" r="4" fill="#6eb6ec" /><circle cx="333.3" cy="310.4" r="4" fill="#6eb6ec" /><circle cx="341.8" cy="310.4" r="4" fill="#6eb6ec" /><circle cx="350.2" cy="310.4" r="4" fill="#6eb6ec" /><circle cx="358.7" cy="310.2" r="4" fill="#6eb6ec" /><circle cx="367.1" cy="310.2" r="4" fill="#6eb6ec" /><circle cx="375.6" cy="310.1" r="4" fill="#6eb6ec" /><circle cx="384.0" cy="310.1" r="4" fill="#6eb6ec" /><circle cx="392.4" cy="309.8" r="4" fill="#6eb6ec" /><circle cx="400.9" cy="309.6" r="4" fill="#6eb6ec" /><circle cx="409.3" cy="309.6" r="4" fill="#6eb6ec" /><circle cx="417.8" cy="309.6" r="4" fill="#6eb6ec" /><circle cx="426.2" cy="309.6" r="4" fill="#6eb6ec" /><circle cx="434.7" cy="309.5" r="4" fill="#6eb6ec" /><circle cx="443.1" cy="309.4" r="4" fill="#6eb6ec" /><circle cx="451.6" cy="309.4" r="4" fill="#6eb6ec" /><circle cx="460.0" cy="309.4" r="4" fill="#6eb6ec" /><circle cx="468.4" cy="309.4" r="4" fill="#6eb6ec" /><circle cx="476.9" cy="309.2" r="4" fill="#6eb6ec" /><circle cx="485.3" cy="309.2" r="4" fill="#6eb6ec" /><circle cx="493.8" cy="309.2" r="4" fill="#6eb6ec" /><circle cx="502.2" cy="309.4" r="4" fill="#6eb6ec" /><circle cx="510.7" cy="309.4" r="4" fill="#6eb6ec" /><circle cx="519.1" cy="309.5" r="4" fill="#6eb6ec" /><circle cx="527.6" cy="309.2" r="4" fill="#6eb6ec" /><circle cx="536.0" cy="309.2" r="4" fill="#6eb6ec" /><circle cx="544.4" cy="309.4" r="4" fill="#6eb6ec" /><circle cx="552.9" cy="309.2" r="4" fill="#6eb6ec" /><circle cx="561.3" cy="309.2" r="4" fill="#6eb6ec" /><circle cx="569.8" cy="309.2" r="4" fill="#6eb6ec" /><circle cx="578.2" cy="309.2" r="4" fill="#6eb6ec" /><circle cx="586.7" cy="309.2" r="4" fill="#6eb6ec" /><circle cx="595.1" cy="309.1" r="4" fill="#6eb6ec" /><circle cx="603.6" cy="309.1" r="4" fill="#6eb6ec" /><circle cx="612.0" cy="309.1" r="4" fill="#6eb6ec" /><circle cx="620.4" cy="309.1" r="4" fill="#6eb6ec" /><circle cx="628.9" cy="309.0" r="4" fill="#6eb6ec" /><circle cx="637.3" cy="309.0" r="4" fill="#6eb6ec" /><circle cx="645.8" cy="308.9" r="4" fill="#6eb6ec" /><circle cx="654.2" cy="308.9" r="4" fill="#6eb6ec" /><circle cx="662.7" cy="308.9" r="4" fill="#6eb6ec" /><circle cx="671.1" cy="308.6" r="4" fill="#6eb6ec" /><circle cx="679.6" cy="308.6" r="4" fill="#6eb6ec" /><circle cx="688.0" cy="308.6" r="4" fill="#6eb6ec" /><circle cx="696.4" cy="308.6" r="4" fill="#6eb6ec" /><circle cx="704.9" cy="308.6" r="4" fill="#6eb6ec" /><circle cx="713.3" cy="308.6" r="4" fill="#6eb6ec" /><circle cx="721.8" cy="308.6" r="4" fill="#6eb6ec" /><circle cx="730.2" cy="308.6" r="4" fill="#6eb6ec" /><circle cx="738.7" cy="308.6" r="4" fill="#6eb6ec" /><circle cx="747.1" cy="308.6" r="4" fill="#6eb6ec" /><circle cx="755.6" cy="308.6" r="4" fill="#6eb6ec" /><circle cx="764.0" cy="308.6" r="4" fill="#6eb6ec" /><circle cx="772.4" cy="308.6" r="4" fill="#6eb6ec" /><circle cx="780.9" cy="307.8" r="4" fill="#6eb6ec" /><circle cx="789.3" cy="307.8" r="4" fill="#6eb6ec" /><circle cx="797.8" cy="307.6" r="4" fill="#6eb6ec" /><circle cx="806.2" cy="307.6" r="4" fill="#6eb6ec" /><circle cx="814.7" cy="307.6" r="4" fill="#6eb6ec" /><circle cx="823.1" cy="307.5" r="4" fill="#6eb6ec" /><circle cx="831.6" cy="307.5" r="4" fill="#6eb6ec" /><circle cx="840.0" cy="307.6" r="4" fill="#6eb6ec" /><polyline points="80.0,305.8 88.4,305.8 96.9,305.8 105.3,305.8 113.8,305.8 122.2,305.8 130.7,305.8 139.1,305.8 147.6,305.8 156.0,305.8 164.4,304.9 172.9,304.9 181.3,304.9 189.8,304.9 198.2,304.9 206.7,304.9 215.1,304.9 223.6,304.9 232.0,304.9 240.4,304.9 248.9,304.9 257.3,304.9 265.8,304.9 274.2,304.9 282.7,304.9 291.1,304.9 299.6,304.9 308.0,304.9 316.4,304.9 324.9,304.9 333.3,304.9 341.8,304.9 350.2,304.9 358.7,304.9 367.1,304.9 375.6,304.9 384.0,304.9 392.4,303.6 400.9,303.6 409.3,303.6 417.8,303.6 426.2,303.6 434.7,303.6 443.1,303.6 451.6,303.6 460.0,303.6 468.4,303.6 476.9,303.6 485.3,303.6 493.8,303.6 502.2,303.6 510.7,302.9 519.1,302.9 527.6,298.0 536.0,298.0 544.4,298.0 552.9,298.0 561.3,298.0 569.8,298.0 578.2,298.0 586.7,298.0 595.1,298.0 603.6,298.0 612.0,298.0 620.4,298.0 628.9,298.0 637.3,298.0 645.8,297.8 654.2,297.8 662.7,297.8 671.1,297.8 679.6,297.8 688.0,297.8 696.4,297.8 704.9,297.8 713.3,297.8 721.8,297.8 730.2,297.8 738.7,297.8 747.1,297.8 755.6,297.8 764.0,297.8 772.4,297.8 780.9,297.8 789.3,297.8 797.8,297.8 806.2,297.6 814.7,297.8 823.1,297.8 831.6,297.8 840.0,297.9" fill="none" stroke="#5938e2" stroke-width="2.5" stroke-linecap="round" stroke-linejoin="round" /><circle cx="80.0" cy="305.8" r="4" fill="#5938e2" /><circle cx="88.4" cy="305.8" r="4" fill="#5938e2" /><circle cx="96.9" cy="305.8" r="4" fill="#5938e2" /><circle cx="105.3" cy="305.8" r="4" fill="#5938e2" /><circle cx="113.8" cy="305.8" r="4" fill="#5938e2" /><circle cx="122.2" cy="305.8" r="4" fill="#5938e2" /><circle cx="130.7" cy="305.8" r="4" fill="#5938e2" /><circle cx="139.1" cy="305.8" r="4" fill="#5938e2" /><circle cx="147.6" cy="305.8" r="4" fill="#5938e2" /><circle cx="156.0" cy="305.8" r="4" fill="#5938e2" /><circle cx="164.4" cy="304.9" r="4" fill="#5938e2" /><circle cx="172.9" cy="304.9" r="4" fill="#5938e2" /><circle cx="181.3" cy="304.9" r="4" fill="#5938e2" /><circle cx="189.8" cy="304.9" r="4" fill="#5938e2" /><circle cx="198.2" cy="304.9" r="4" fill="#5938e2" /><circle cx="206.7" cy="304.9" r="4" fill="#5938e2" /><circle cx="215.1" cy="304.9" r="4" fill="#5938e2" /><circle cx="223.6" cy="304.9" r="4" fill="#5938e2" /><circle cx="232.0" cy="304.9" r="4" fill="#5938e2" /><circle cx="240.4" cy="304.9" r="4" fill="#5938e2" /><circle cx="248.9" cy="304.9" r="4" fill="#5938e2" /><circle cx="257.3" cy="304.9" r="4" fill="#5938e2" /><circle cx="265.8" cy="304.9" r="4" fill="#5938e2" /><circle cx="274.2" cy="304.9" r="4" fill="#5938e2" /><circle cx="282.7" cy="304.9" r="4" fill="#5938e2" /><circle cx="291.1" cy="304.9" r="4" fill="#5938e2" /><circle cx="299.6" cy="304.9" r="4" fill="#5938e2" /><circle cx="308.0" cy="304.9" r="4" fill="#5938e2" /><circle cx="316.4" cy="304.9" r="4" fill="#5938e2" /><circle cx="324.9" cy="304.9" r="4" fill="#5938e2" /><circle cx="333.3" cy="304.9" r="4" fill="#5938e2" /><circle cx="341.8" cy="304.9" r="4" fill="#5938e2" /><circle cx="350.2" cy="304.9" r="4" fill="#5938e2" /><circle cx="358.7" cy="304.9" r="4" fill="#5938e2" /><circle cx="367.1" cy="304.9" r="4" fill="#5938e2" /><circle cx="375.6" cy="304.9" r="4" fill="#5938e2" /><circle cx="384.0" cy="304.9" r="4" fill="#5938e2" /><circle cx="392.4" cy="303.6" r="4" fill="#5938e2" /><circle cx="400.9" cy="303.6" r="4" fill="#5938e2" /><circle cx="409.3" cy="303.6" r="4" fill="#5938e2" /><circle cx="417.8" cy="303.6" r="4" fill="#5938e2" /><circle cx="426.2" cy="303.6" r="4" fill="#5938e2" /><circle cx="434.7" cy="303.6" r="4" fill="#5938e2" /><circle cx="443.1" cy="303.6" r="4" fill="#5938e2" /><circle cx="451.6" cy="303.6" r="4" fill="#5938e2" /><circle cx="460.0" cy="303.6" r="4" fill="#5938e2" /><circle cx="468.4" cy="303.6" r="4" fill="#5938e2" /><circle cx="476.9" cy="303.6" r="4" fill="#5938e2" /><circle cx="485.3" cy="303.6" r="4" fill="#5938e2" /><circle cx="493.8" cy="303.6" r="4" fill="#5938e2" /><circle cx="502.2" cy="303.6" r="4" fill="#5938e2" /><circle cx="510.7" cy="302.9" r="4" fill="#5938e2" /><circle cx="519.1" cy="302.9" r="4" fill="#5938e2" /><circle cx="527.6" cy="298.0" r="4" fill="#5938e2" /><circle cx="536.0" cy="298.0" r="4" fill="#5938e2" /><circle cx="544.4" cy="298.0" r="4" fill="#5938e2" /><circle cx="552.9" cy="298.0" r="4" fill="#5938e2" /><circle cx="561.3" cy="298.0" r="4" fill="#5938e2" /><circle cx="569.8" cy="298.0" r="4" fill="#5938e2" /><circle cx="578.2" cy="298.0" r="4" fill="#5938e2" /><circle cx="586.7" cy="298.0" r="4" fill="#5938e2" /><circle cx="595.1" cy="298.0" r="4" fill="#5938e2" /><circle cx="603.6" cy="298.0" r="4" fill="#5938e2" /><circle cx="612.0" cy="298.0" r="4" fill="#5938e2" /><circle cx="620.4" cy="298.0" r="4" fill="#5938e2" /><circle cx="628.9" cy="298.0" r="4" fill="#5938e2" /><circle cx="637.3" cy="298.0" r="4" fill="#5938e2" /><circle cx="645.8" cy="297.8" r="4" fill="#5938e2" /><circle cx="654.2" cy="297.8" r="4" fill="#5938e2" /><circle cx="662.7" cy="297.8" r="4" fill="#5938e2" /><circle cx="671.1" cy="297.8" r="4" fill="#5938e2" /><circle cx="679.6" cy="297.8" r="4" fill="#5938e2" /><circle cx="688.0" cy="297.8" r="4" fill="#5938e2" /><circle cx="696.4" cy="297.8" r="4" fill="#5938e2" /><circle cx="704.9" cy="297.8" r="4" fill="#5938e2" /><circle cx="713.3" cy="297.8" r="4" fill="#5938e2" /><circle cx="721.8" cy="297.8" r="4" fill="#5938e2" /><circle cx="730.2" cy="297.8" r="4" fill="#5938e2" /><circle cx="738.7" cy="297.8" r="4" fill="#5938e2" /><circle cx="747.1" cy="297.8" r="4" fill="#5938e2" /><circle cx="755.6" cy="297.8" r="4" fill="#5938e2" /><circle cx="764.0" cy="297.8" r="4" fill="#5938e2" /><circle cx="772.4" cy="297.8" r="4" fill="#5938e2" /><circle cx="780.9" cy="297.8" r="4" fill="#5938e2" /><circle cx="789.3" cy="297.8" r="4" fill="#5938e2" /><circle cx="797.8" cy="297.8" r="4" fill="#5938e2" /><circle cx="806.2" cy="297.6" r="4" fill="#5938e2" /><circle cx="814.7" cy="297.8" r="4" fill="#5938e2" /><circle cx="823.1" cy="297.8" r="4" fill="#5938e2" /><circle cx="831.6" cy="297.8" r="4" fill="#5938e2" /><circle cx="840.0" cy="297.9" r="4" fill="#5938e2" /><polyline points="80.0,144.6 88.4,140.1 96.9,139.9 105.3,139.8 113.8,139.8 122.2,139.6 130.7,139.6 139.1,139.6 147.6,139.6 156.0,139.6 164.4,138.4 172.9,138.4 181.3,138.4 189.8,138.4 198.2,138.4 206.7,138.4 215.1,138.4 223.6,137.4 232.0,137.4 240.4,137.4 248.9,137.4 257.3,137.4 265.8,137.4 274.2,137.4 282.7,137.4 291.1,137.4 299.6,137.4 308.0,137.4 316.4,131.2 324.9,131.2 333.3,130.8 341.8,130.4 350.2,126.9 358.7,126.9 367.1,126.9 375.6,126.9 384.0,126.9 392.4,126.9 400.9,126.9 409.3,126.9 417.8,126.9 426.2,126.8 434.7,122.1 443.1,120.4 451.6,120.4 460.0,120.4 468.4,120.4 476.9,120.4 485.3,119.4 493.8,119.4 502.2,119.4 510.7,119.4 519.1,119.1 527.6,118.8 536.0,118.8 544.4,117.8 552.9,117.8 561.3,117.8 569.8,115.8 578.2,115.8 586.7,115.0 595.1,115.0 603.6,115.0 612.0,115.0 620.4,115.0 628.9,115.0 637.3,115.0 645.8,113.9 654.2,111.8 662.7,111.8 671.1,111.8 679.6,111.8 688.0,111.8 696.4,111.8 704.9,111.8 713.3,111.8 721.8,111.8 730.2,111.8 738.7,110.6 747.1,110.6 755.6,110.6 764.0,110.6 772.4,110.6 780.9,109.4 789.3,109.4 797.8,109.4 806.2,109.4 814.7,109.2 823.1,109.2 831.6,109.2 840.0,109.2" fill="none" stroke="#60e5e0" stroke-width="2.5" stroke-linecap="round" stroke-linejoin="round" /><circle cx="80.0" cy="144.6" r="4" fill="#60e5e0" /><circle cx="88.4" cy="140.1" r="4" fill="#60e5e0" /><circle cx="96.9" cy="139.9" r="4" fill="#60e5e0" /><circle cx="105.3" cy="139.8" r="4" fill="#60e5e0" /><circle cx="113.8" cy="139.8" r="4" fill="#60e5e0" /><circle cx="122.2" cy="139.6" r="4" fill="#60e5e0" /><circle cx="130.7" cy="139.6" r="4" fill="#60e5e0" /><circle cx="139.1" cy="139.6" r="4" fill="#60e5e0" /><circle cx="147.6" cy="139.6" r="4" fill="#60e5e0" /><circle cx="156.0" cy="139.6" r="4" fill="#60e5e0" /><circle cx="164.4" cy="138.4" r="4" fill="#60e5e0" /><circle cx="172.9" cy="138.4" r="4" fill="#60e5e0" /><circle cx="181.3" cy="138.4" r="4" fill="#60e5e0" /><circle cx="189.8" cy="138.4" r="4" fill="#60e5e0" /><circle cx="198.2" cy="138.4" r="4" fill="#60e5e0" /><circle cx="206.7" cy="138.4" r="4" fill="#60e5e0" /><circle cx="215.1" cy="138.4" r="4" fill="#60e5e0" /><circle cx="223.6" cy="137.4" r="4" fill="#60e5e0" /><circle cx="232.0" cy="137.4" r="4" fill="#60e5e0" /><circle cx="240.4" cy="137.4" r="4" fill="#60e5e0" /><circle cx="248.9" cy="137.4" r="4" fill="#60e5e0" /><circle cx="257.3" cy="137.4" r="4" fill="#60e5e0" /><circle cx="265.8" cy="137.4" r="4" fill="#60e5e0" /><circle cx="274.2" cy="137.4" r="4" fill="#60e5e0" /><circle cx="282.7" cy="137.4" r="4" fill="#60e5e0" /><circle cx="291.1" cy="137.4" r="4" fill="#60e5e0" /><circle cx="299.6" cy="137.4" r="4" fill="#60e5e0" /><circle cx="308.0" cy="137.4" r="4" fill="#60e5e0" /><circle cx="316.4" cy="131.2" r="4" fill="#60e5e0" /><circle cx="324.9" cy="131.2" r="4" fill="#60e5e0" /><circle cx="333.3" cy="130.8" r="4" fill="#60e5e0" /><circle cx="341.8" cy="130.4" r="4" fill="#60e5e0" /><circle cx="350.2" cy="126.9" r="4" fill="#60e5e0" /><circle cx="358.7" cy="126.9" r="4" fill="#60e5e0" /><circle cx="367.1" cy="126.9" r="4" fill="#60e5e0" /><circle cx="375.6" cy="126.9" r="4" fill="#60e5e0" /><circle cx="384.0" cy="126.9" r="4" fill="#60e5e0" /><circle cx="392.4" cy="126.9" r="4" fill="#60e5e0" /><circle cx="400.9" cy="126.9" r="4" fill="#60e5e0" /><circle cx="409.3" cy="126.9" r="4" fill="#60e5e0" /><circle cx="417.8" cy="126.9" r="4" fill="#60e5e0" /><circle cx="426.2" cy="126.8" r="4" fill="#60e5e0" /><circle cx="434.7" cy="122.1" r="4" fill="#60e5e0" /><circle cx="443.1" cy="120.4" r="4" fill="#60e5e0" /><circle cx="451.6" cy="120.4" r="4" fill="#60e5e0" /><circle cx="460.0" cy="120.4" r="4" fill="#60e5e0" /><circle cx="468.4" cy="120.4" r="4" fill="#60e5e0" /><circle cx="476.9" cy="120.4" r="4" fill="#60e5e0" /><circle cx="485.3" cy="119.4" r="4" fill="#60e5e0" /><circle cx="493.8" cy="119.4" r="4" fill="#60e5e0" /><circle cx="502.2" cy="119.4" r="4" fill="#60e5e0" /><circle cx="510.7" cy="119.4" r="4" fill="#60e5e0" /><circle cx="519.1" cy="119.1" r="4" fill="#60e5e0" /><circle cx="527.6" cy="118.8" r="4" fill="#60e5e0" /><circle cx="536.0" cy="118.8" r="4" fill="#60e5e0" /><circle cx="544.4" cy="117.8" r="4" fill="#60e5e0" /><circle cx="552.9" cy="117.8" r="4" fill="#60e5e0" /><circle cx="561.3" cy="117.8" r="4" fill="#60e5e0" /><circle cx="569.8" cy="115.8" r="4" fill="#60e5e0" /><circle cx="578.2" cy="115.8" r="4" fill="#60e5e0" /><circle cx="586.7" cy="115.0" r="4" fill="#60e5e0" /><circle cx="595.1" cy="115.0" r="4" fill="#60e5e0" /><circle cx="603.6" cy="115.0" r="4" fill="#60e5e0" /><circle cx="612.0" cy="115.0" r="4" fill="#60e5e0" /><circle cx="620.4" cy="115.0" r="4" fill="#60e5e0" /><circle cx="628.9" cy="115.0" r="4" fill="#60e5e0" /><circle cx="637.3" cy="115.0" r="4" fill="#60e5e0" /><circle cx="645.8" cy="113.9" r="4" fill="#60e5e0" /><circle cx="654.2" cy="111.8" r="4" fill="#60e5e0" /><circle cx="662.7" cy="111.8" r="4" fill="#60e5e0" /><circle cx="671.1" cy="111.8" r="4" fill="#60e5e0" /><circle cx="679.6" cy="111.8" r="4" fill="#60e5e0" /><circle cx="688.0" cy="111.8" r="4" fill="#60e5e0" /><circle cx="696.4" cy="111.8" r="4" fill="#60e5e0" /><circle cx="704.9" cy="111.8" r="4" fill="#60e5e0" /><circle cx="713.3" cy="111.8" r="4" fill="#60e5e0" /><circle cx="721.8" cy="111.8" r="4" fill="#60e5e0" /><circle cx="730.2" cy="111.8" r="4" fill="#60e5e0" /><circle cx="738.7" cy="110.6" r="4" fill="#60e5e0" /><circle cx="747.1" cy="110.6" r="4" fill="#60e5e0" /><circle cx="755.6" cy="110.6" r="4" fill="#60e5e0" /><circle cx="764.0" cy="110.6" r="4" fill="#60e5e0" /><circle cx="772.4" cy="110.6" r="4" fill="#60e5e0" /><circle cx="780.9" cy="109.4" r="4" fill="#60e5e0" /><circle cx="789.3" cy="109.4" r="4" fill="#60e5e0" /><circle cx="797.8" cy="109.4" r="4" fill="#60e5e0" /><circle cx="806.2" cy="109.4" r="4" fill="#60e5e0" /><circle cx="814.7" cy="109.2" r="4" fill="#60e5e0" /><circle cx="823.1" cy="109.2" r="4" fill="#60e5e0" /><circle cx="831.6" cy="109.2" r="4" fill="#60e5e0" /><circle cx="840.0" cy="109.2" r="4" fill="#60e5e0" /><polyline points="80.0,314.6 88.4,314.4 96.9,314.2 105.3,314.2 113.8,314.2 122.2,314.1 130.7,314.1 139.1,314.1 147.6,314.1 156.0,314.1 164.4,314.0 172.9,314.0 181.3,314.0 189.8,314.0 198.2,314.0 206.7,314.0 215.1,314.0 223.6,314.0 232.0,314.0 240.4,314.0 248.9,314.0 257.3,314.0 265.8,314.0 274.2,314.0 282.7,314.0 291.1,314.0 299.6,314.0 308.0,314.0 316.4,314.0 324.9,314.0 333.3,314.0 341.8,314.0 350.2,314.0 358.7,314.0 367.1,314.0 375.6,314.0 384.0,314.0 392.4,314.0 400.9,314.0 409.3,314.0 417.8,314.0 426.2,313.9 434.7,313.6 443.1,313.4 451.6,313.4 460.0,313.4 468.4,313.4 476.9,313.4 485.3,313.1 493.8,313.1 502.2,313.1 510.7,313.1 519.1,313.1 527.6,313.0 536.0,313.0 544.4,312.9 552.9,312.9 561.3,312.9 569.8,312.8 578.2,312.8 586.7,312.6 595.1,312.6 603.6,312.6 612.0,312.6 620.4,312.6 628.9,312.6 637.3,312.6 645.8,312.5 654.2,312.1 662.7,312.1 671.1,312.1 679.6,312.1 688.0,312.1 696.4,312.1 704.9,312.1 713.3,312.1 721.8,312.1 730.2,312.1 738.7,312.0 747.1,312.0 755.6,312.0 764.0,312.0 772.4,312.0 780.9,312.0 789.3,312.0 797.8,312.0 806.2,312.0 814.7,312.0 823.1,312.0 831.6,312.0 840.0,312.0" fill="none" stroke="#567de1" stroke-width="2.5" stroke-linecap="round" stroke-linejoin="round" /><circle cx="80.0" cy="314.6" r="4" fill="#567de1" /><circle cx="88.4" cy="314.4" r="4" fill="#567de1" /><circle cx="96.9" cy="314.2" r="4" fill="#567de1" /><circle cx="105.3" cy="314.2" r="4" fill="#567de1" /><circle cx="113.8" cy="314.2" r="4" fill="#567de1" /><circle cx="122.2" cy="314.1" r="4" fill="#567de1" /><circle cx="130.7" cy="314.1" r="4" fill="#567de1" /><circle cx="139.1" cy="314.1" r="4" fill="#567de1" /><circle cx="147.6" cy="314.1" r="4" fill="#567de1" /><circle cx="156.0" cy="314.1" r="4" fill="#567de1" /><circle cx="164.4" cy="314.0" r="4" fill="#567de1" /><circle cx="172.9" cy="314.0" r="4" fill="#567de1" /><circle cx="181.3" cy="314.0" r="4" fill="#567de1" /><circle cx="189.8" cy="314.0" r="4" fill="#567de1" /><circle cx="198.2" cy="314.0" r="4" fill="#567de1" /><circle cx="206.7" cy="314.0" r="4" fill="#567de1" /><circle cx="215.1" cy="314.0" r="4" fill="#567de1" /><circle cx="223.6" cy="314.0" r="4" fill="#567de1" /><circle cx="232.0" cy="314.0" r="4" fill="#567de1" /><circle cx="240.4" cy="314.0" r="4" fill="#567de1" /><circle cx="248.9" cy="314.0" r="4" fill="#567de1" /><circle cx="257.3" cy="314.0" r="4" fill="#567de1" /><circle cx="265.8" cy="314.0" r="4" fill="#567de1" /><circle cx="274.2" cy="314.0" r="4" fill="#567de1" /><circle cx="282.7" cy="314.0" r="4" fill="#567de1" /><circle cx="291.1" cy="314.0" r="4" fill="#567de1" /><circle cx="299.6" cy="314.0" r="4" fill="#567de1" /><circle cx="308.0" cy="314.0" r="4" fill="#567de1" /><circle cx="316.4" cy="314.0" r="4" fill="#567de1" /><circle cx="324.9" cy="314.0" r="4" fill="#567de1" /><circle cx="333.3" cy="314.0" r="4" fill="#567de1" /><circle cx="341.8" cy="314.0" r="4" fill="#567de1" /><circle cx="350.2" cy="314.0" r="4" fill="#567de1" /><circle cx="358.7" cy="314.0" r="4" fill="#567de1" /><circle cx="367.1" cy="314.0" r="4" fill="#567de1" /><circle cx="375.6" cy="314.0" r="4" fill="#567de1" /><circle cx="384.0" cy="314.0" r="4" fill="#567de1" /><circle cx="392.4" cy="314.0" r="4" fill="#567de1" /><circle cx="400.9" cy="314.0" r="4" fill="#567de1" /><circle cx="409.3" cy="314.0" r="4" fill="#567de1" /><circle cx="417.8" cy="314.0" r="4" fill="#567de1" /><circle cx="426.2" cy="313.9" r="4" fill="#567de1" /><circle cx="434.7" cy="313.6" r="4" fill="#567de1" /><circle cx="443.1" cy="313.4" r="4" fill="#567de1" /><circle cx="451.6" cy="313.4" r="4" fill="#567de1" /><circle cx="460.0" cy="313.4" r="4" fill="#567de1" /><circle cx="468.4" cy="313.4" r="4" fill="#567de1" /><circle cx="476.9" cy="313.4" r="4" fill="#567de1" /><circle cx="485.3" cy="313.1" r="4" fill="#567de1" /><circle cx="493.8" cy="313.1" r="4" fill="#567de1" /><circle cx="502.2" cy="313.1" r="4" fill="#567de1" /><circle cx="510.7" cy="313.1" r="4" fill="#567de1" /><circle cx="519.1" cy="313.1" r="4" fill="#567de1" /><circle cx="527.6" cy="313.0" r="4" fill="#567de1" /><circle cx="536.0" cy="313.0" r="4" fill="#567de1" /><circle cx="544.4" cy="312.9" r="4" fill="#567de1" /><circle cx="552.9" cy="312.9" r="4" fill="#567de1" /><circle cx="561.3" cy="312.9" r="4" fill="#567de1" /><circle cx="569.8" cy="312.8" r="4" fill="#567de1" /><circle cx="578.2" cy="312.8" r="4" fill="#567de1" /><circle cx="586.7" cy="312.6" r="4" fill="#567de1" /><circle cx="595.1" cy="312.6" r="4" fill="#567de1" /><circle cx="603.6" cy="312.6" r="4" fill="#567de1" /><circle cx="612.0" cy="312.6" r="4" fill="#567de1" /><circle cx="620.4" cy="312.6" r="4" fill="#567de1" /><circle cx="628.9" cy="312.6" r="4" fill="#567de1" /><circle cx="637.3" cy="312.6" r="4" fill="#567de1" /><circle cx="645.8" cy="312.5" r="4" fill="#567de1" /><circle cx="654.2" cy="312.1" r="4" fill="#567de1" /><circle cx="662.7" cy="312.1" r="4" fill="#567de1" /><circle cx="671.1" cy="312.1" r="4" fill="#567de1" /><circle cx="679.6" cy="312.1" r="4" fill="#567de1" /><circle cx="688.0" cy="312.1" r="4" fill="#567de1" /><circle cx="696.4" cy="312.1" r="4" fill="#567de1" /><circle cx="704.9" cy="312.1" r="4" fill="#567de1" /><circle cx="713.3" cy="312.1" r="4" fill="#567de1" /><circle cx="721.8" cy="312.1" r="4" fill="#567de1" /><circle cx="730.2" cy="312.1" r="4" fill="#567de1" /><circle cx="738.7" cy="312.0" r="4" fill="#567de1" /><circle cx="747.1" cy="312.0" r="4" fill="#567de1" /><circle cx="755.6" cy="312.0" r="4" fill="#567de1" /><circle cx="764.0" cy="312.0" r="4" fill="#567de1" /><circle cx="772.4" cy="312.0" r="4" fill="#567de1" /><circle cx="780.9" cy="312.0" r="4" fill="#567de1" /><circle cx="789.3" cy="312.0" r="4" fill="#567de1" /><circle cx="797.8" cy="312.0" r="4" fill="#567de1" /><circle cx="806.2" cy="312.0" r="4" fill="#567de1" /><circle cx="814.7" cy="312.0" r="4" fill="#567de1" /><circle cx="823.1" cy="312.0" r="4" fill="#567de1" /><circle cx="831.6" cy="312.0" r="4" fill="#567de1" /><circle cx="840.0" cy="312.0" r="4" fill="#567de1" /><polyline points="80.0,303.9 88.4,304.2 96.9,304.4 105.3,304.4 113.8,304.4 122.2,304.4 130.7,304.4 139.1,304.4 147.6,304.4 156.0,304.4 164.4,304.4 172.9,304.4 181.3,304.4 189.8,304.4 198.2,304.4 206.7,304.4 215.1,304.4 223.6,304.4 232.0,304.4 240.4,304.4 248.9,304.4 257.3,304.4 265.8,304.4 274.2,304.4 282.7,304.4 291.1,304.4 299.6,304.4 308.0,304.4 316.4,299.1 324.9,299.1 333.3,299.1 341.8,298.9 350.2,295.6 358.7,295.6 367.1,295.6 375.6,295.6 384.0,295.6 392.4,295.6 400.9,295.6 409.3,295.6 417.8,295.6 426.2,295.8 434.7,295.9 443.1,295.9 451.6,295.9 460.0,295.9 468.4,295.9 476.9,295.9 485.3,295.9 493.8,295.9 502.2,295.9 510.7,295.9 519.1,295.9 527.6,295.9 536.0,295.9 544.4,295.9 552.9,295.9 561.3,295.9 569.8,295.8 578.2,295.8 586.7,295.9 595.1,295.9 603.6,295.9 612.0,295.9 620.4,295.9 628.9,295.9 637.3,295.9 645.8,296.0 654.2,296.4 662.7,296.4 671.1,296.4 679.6,296.4 688.0,296.4 696.4,296.4 704.9,296.4 713.3,296.4 721.8,296.4 730.2,296.4 738.7,296.5 747.1,296.5 755.6,296.5 764.0,296.5 772.4,296.5 780.9,296.5 789.3,296.5 797.8,296.5 806.2,296.5 814.7,296.5 823.1,296.5 831.6,296.5 840.0,296.5" fill="none" stroke="#9754dd" stroke-width="2.5" stroke-linecap="round" stroke-linejoin="round" /><circle cx="80.0" cy="303.9" r="4" fill="#9754dd" /><circle cx="88.4" cy="304.2" r="4" fill="#9754dd" /><circle cx="96.9" cy="304.4" r="4" fill="#9754dd" /><circle cx="105.3" cy="304.4" r="4" fill="#9754dd" /><circle cx="113.8" cy="304.4" r="4" fill="#9754dd" /><circle cx="122.2" cy="304.4" r="4" fill="#9754dd" /><circle cx="130.7" cy="304.4" r="4" fill="#9754dd" /><circle cx="139.1" cy="304.4" r="4" fill="#9754dd" /><circle cx="147.6" cy="304.4" r="4" fill="#9754dd" /><circle cx="156.0" cy="304.4" r="4" fill="#9754dd" /><circle cx="164.4" cy="304.4" r="4" fill="#9754dd" /><circle cx="172.9" cy="304.4" r="4" fill="#9754dd" /><circle cx="181.3" cy="304.4" r="4" fill="#9754dd" /><circle cx="189.8" cy="304.4" r="4" fill="#9754dd" /><circle cx="198.2" cy="304.4" r="4" fill="#9754dd" /><circle cx="206.7" cy="304.4" r="4" fill="#9754dd" /><circle cx="215.1" cy="304.4" r="4" fill="#9754dd" /><circle cx="223.6" cy="304.4" r="4" fill="#9754dd" /><circle cx="232.0" cy="304.4" r="4" fill="#9754dd" /><circle cx="240.4" cy="304.4" r="4" fill="#9754dd" /><circle cx="248.9" cy="304.4" r="4" fill="#9754dd" /><circle cx="257.3" cy="304.4" r="4" fill="#9754dd" /><circle cx="265.8" cy="304.4" r="4" fill="#9754dd" /><circle cx="274.2" cy="304.4" r="4" fill="#9754dd" /><circle cx="282.7" cy="304.4" r="4" fill="#9754dd" /><circle cx="291.1" cy="304.4" r="4" fill="#9754dd" /><circle cx="299.6" cy="304.4" r="4" fill="#9754dd" /><circle cx="308.0" cy="304.4" r="4" fill="#9754dd" /><circle cx="316.4" cy="299.1" r="4" fill="#9754dd" /><circle cx="324.9" cy="299.1" r="4" fill="#9754dd" /><circle cx="333.3" cy="299.1" r="4" fill="#9754dd" /><circle cx="341.8" cy="298.9" r="4" fill="#9754dd" /><circle cx="350.2" cy="295.6" r="4" fill="#9754dd" /><circle cx="358.7" cy="295.6" r="4" fill="#9754dd" /><circle cx="367.1" cy="295.6" r="4" fill="#9754dd" /><circle cx="375.6" cy="295.6" r="4" fill="#9754dd" /><circle cx="384.0" cy="295.6" r="4" fill="#9754dd" /><circle cx="392.4" cy="295.6" r="4" fill="#9754dd" /><circle cx="400.9" cy="295.6" r="4" fill="#9754dd" /><circle cx="409.3" cy="295.6" r="4" fill="#9754dd" /><circle cx="417.8" cy="295.6" r="4" fill="#9754dd" /><circle cx="426.2" cy="295.8" r="4" fill="#9754dd" /><circle cx="434.7" cy="295.9" r="4" fill="#9754dd" /><circle cx="443.1" cy="295.9" r="4" fill="#9754dd" /><circle cx="451.6" cy="295.9" r="4" fill="#9754dd" /><circle cx="460.0" cy="295.9" r="4" fill="#9754dd" /><circle cx="468.4" cy="295.9" r="4" fill="#9754dd" /><circle cx="476.9" cy="295.9" r="4" fill="#9754dd" /><circle cx="485.3" cy="295.9" r="4" fill="#9754dd" /><circle cx="493.8" cy="295.9" r="4" fill="#9754dd" /><circle cx="502.2" cy="295.9" r="4" fill="#9754dd" /><circle cx="510.7" cy="295.9" r="4" fill="#9754dd" /><circle cx="519.1" cy="295.9" r="4" fill="#9754dd" /><circle cx="527.6" cy="295.9" r="4" fill="#9754dd" /><circle cx="536.0" cy="295.9" r="4" fill="#9754dd" /><circle cx="544.4" cy="295.9" r="4" fill="#9754dd" /><circle cx="552.9" cy="295.9" r="4" fill="#9754dd" /><circle cx="561.3" cy="295.9" r="4" fill="#9754dd" /><circle cx="569.8" cy="295.8" r="4" fill="#9754dd" /><circle cx="578.2" cy="295.8" r="4" fill="#9754dd" /><circle cx="586.7" cy="295.9" r="4" fill="#9754dd" /><circle cx="595.1" cy="295.9" r="4" fill="#9754dd" /><circle cx="603.6" cy="295.9" r="4" fill="#9754dd" /><circle cx="612.0" cy="295.9" r="4" fill="#9754dd" /><circle cx="620.4" cy="295.9" r="4" fill="#9754dd" /><circle cx="628.9" cy="295.9" r="4" fill="#9754dd" /><circle cx="637.3" cy="295.9" r="4" fill="#9754dd" /><circle cx="645.8" cy="296.0" r="4" fill="#9754dd" /><circle cx="654.2" cy="296.4" r="4" fill="#9754dd" /><circle cx="662.7" cy="296.4" r="4" fill="#9754dd" /><circle cx="671.1" cy="296.4" r="4" fill="#9754dd" /><circle cx="679.6" cy="296.4" r="4" fill="#9754dd" /><circle cx="688.0" cy="296.4" r="4" fill="#9754dd" /><circle cx="696.4" cy="296.4" r="4" fill="#9754dd" /><circle cx="704.9" cy="296.4" r="4" fill="#9754dd" /><circle cx="713.3" cy="296.4" r="4" fill="#9754dd" /><circle cx="721.8" cy="296.4" r="4" fill="#9754dd" /><circle cx="730.2" cy="296.4" r="4" fill="#9754dd" /><circle cx="738.7" cy="296.5" r="4" fill="#9754dd" /><circle cx="747.1" cy="296.5" r="4" fill="#9754dd" /><circle cx="755.6" cy="296.5" r="4" fill="#9754dd" /><circle cx="764.0" cy="296.5" r="4" fill="#9754dd" /><circle cx="772.4" cy="296.5" r="4" fill="#9754dd" /><circle cx="780.9" cy="296.5" r="4" fill="#9754dd" /><circle cx="789.3" cy="296.5" r="4" fill="#9754dd" /><circle cx="797.8" cy="296.5" r="4" fill="#9754dd" /><circle cx="806.2" cy="296.5" r="4" fill="#9754dd" /><circle cx="814.7" cy="296.5" r="4" fill="#9754dd" /><circle cx="823.1" cy="296.5" r="4" fill="#9754dd" /><circle cx="831.6" cy="296.5" r="4" fill="#9754dd" /><circle cx="840.0" cy="296.5" r="4" fill="#9754dd" />
  <rect x="80" y="339" width="10" height="10" rx="2" ry="2" fill="#19e5a1" /><text x="96" y="348" class="legend-label">Stars</text><rect x="250" y="339" width="10" height="10" rx="2" ry="2" fill="#6eb6ec" /><text x="266" y="348" class="legend-label">Followers</text><rect x="420" y="339" width="10" height="10" rx="2" ry="2" fill="#5938e2" /><text x="436" y="348" class="legend-label">Following</text><rect x="590" y="339" width="10" height="10" rx="2" ry="2" fill="#60e5e0" /><text x="606" y="348" class="legend-label">Contributions</text><rect x="80" y="357" width="10" height="10" rx="2" ry="2" fill="#567de1" /><text x="96" y="366" class="legend-label">Pull Requests</text><rect x="250" y="357" width="10" height="10" rx="2" ry="2" fill="#9754dd" /><text x="266" y="366" class="legend-label">Issues</text>
</svg>
