<svg width="900" height="402" viewBox="0 0 900 402" xmlns="http://www.w3.org/2000/svg">
  <defs>
    <linearGradient id="history-gradient" x1="0%" y1="0%" x2="100%" y2="100%">
      <stop offset="0%" style="stop-color:#58a6ff;stop-opacity:1" />
      <stop offset="100%" style="stop-color:#a371f7;stop-opacity:1" />
    </linearGradient>
    <clipPath id="history-rounded">
      <rect x="0" y="0" width="900" height="402" rx="8" ry="8" />
    </clipPath>
  </defs>
  <style>
    .title {
      font-family: 'Segoe UI', Ubuntu, 'Helvetica Neue', sans-serif;
      font-size: 22px;
      font-weight: 700;
      fill: #58a6ff;
    }
    .subtitle {
      font-family: 'Segoe UI', Ubuntu, 'Helvetica Neue', sans-serif;
      font-size: 12px;
      font-weight: 500;
      fill: #8b949e;
    }
    .axis-label {
      font-family: 'Segoe UI', Ubuntu, 'Helvetica Neue', sans-serif;
      font-size: 10px;
      fill: #8b949e;
    }
    .grid-line {
      stroke: #30363d;
      stroke-width: 1;
      opacity: 0.3;
    }
    .legend-label {
      font-family: 'Segoe UI', Ubuntu, 'Helvetica Neue', sans-serif;
      font-size: 11px;
      fill: #c9d1d9;
      dominant-baseline: middle;
    }
  </style>
  <rect clip-path="url(#history-rounded)" width="100%" height="100%" fill="#0d1117" stroke="#30363d" stroke-width="1" />
  <rect x="0" y="396" width="900" height="6" fill="url(#history-gradient)" clip-path="url(#history-rounded)" />
  <text x="24" y="34" class="title">Leonardo Klein Stats History</text>
  <text x="24" y="54" class="subtitle">Period: 2026-02-20 to 2026-03-03</text>
  <text x="72" y="320.0" text-anchor="end" dominant-baseline="central" class="axis-label">0</text><text x="72" y="270.0" text-anchor="end" dominant-baseline="central" class="axis-label">400</text><text x="72" y="220.0" text-anchor="end" dominant-baseline="central" class="axis-label">800</text><text x="72" y="170.0" text-anchor="end" dominant-baseline="central" class="axis-label">1.2k</text><text x="72" y="120.0" text-anchor="end" dominant-baseline="central" class="axis-label">1.6k</text><text x="72" y="70.0" text-anchor="end" dominant-baseline="central" class="axis-label">2.0k</text>
  <text x="80.0" y="336" text-anchor="middle" class="axis-label">02-20</text><text x="149.1" y="336" text-anchor="middle" class="axis-label">02-21</text><text x="218.2" y="336" text-anchor="middle" class="axis-label">02-22</text><text x="287.3" y="336" text-anchor="middle" class="axis-label">02-23</text><text x="356.4" y="336" text-anchor="middle" class="axis-label">02-24</text><text x="425.5" y="336" text-anchor="middle" class="axis-label">02-25</text><text x="494.5" y="336" text-anchor="middle" class="axis-label">02-26</text><text x="563.6" y="336" text-anchor="middle" class="axis-label">02-27</text><text x="632.7" y="336" text-anchor="middle" class="axis-label">02-28</text><text x="701.8" y="336" text-anchor="middle" class="axis-label">03-01</text><text x="770.9" y="336" text-anchor="middle" class="axis-label">03-02</text><text x="840.0" y="336" text-anchor="middle" class="axis-label">03-03</text>
  <line x1="80" y1="320.0" x2="840" y2="320.0" class="grid-line" /><line x1="80" y1="270.0" x2="840" y2="270.0" class="grid-line" /><line x1="80" y1="220.0" x2="840" y2="220.0" class="grid-line" /><line x1="80" y1="170.0" x2="840" y2="170.0" class="grid-line" /><line x1="80" y1="120.0" x2="840" y2="120.0" class="grid-line" /><line x1="80" y1="70.0" x2="840" y2="70.0" class="grid-line" />
  <polyline points="80.0,317.0 93.8,317.0 107.6,317.0 121.5,317.0 135.3,317.0 149.1,317.0 162.9,317.0 176.7,317.0 190.5,317.0 204.4,317.0 218.2,317.0 232.0,317.0 245.8,317.0 259.6,317.0 273.5,317.0 287.3,317.0 301.1,317.0 314.9,317.0 328.7,317.0 342.5,317.0 356.4,317.0 370.2,317.0 384.0,317.0 397.8,317.0 411.6,317.0 425.5,317.0 439.3,317.0 453.1,317.0 466.9,317.0 480.7,317.0 494.5,317.0 508.4,317.0 522.2,317.0 536.0,317.0 549.8,317.0 563.6,317.0 577.5,317.0 591.3,317.0 605.1,317.0 618.9,317.0 632.7,317.0 646.5,317.0 660.4,317.0 674.2,317.0 688.0,317.0 701.8,317.0 715.6,317.0 729.5,317.0 743.3,317.0 757.1,317.0 770.9,317.0 784.7,317.0 798.5,317.0 812.4,317.0 826.2,317.0 840.0,317.0" fill="none" stroke="#19e5a1" stroke-width="2.5" stroke-linecap="round" stroke-linejoin="round" /><circle cx="80.0" cy="317.0" r="4" fill="#19e5a1" /><circle cx="93.8" cy="317.0" r="4" fill="#19e5a1" /><circle cx="107.6" cy="317.0" r="4" fill="#19e5a1" /><circle cx="121.5" cy="317.0" r="4" fill="#19e5a1" /><circle cx="135.3" cy="317.0" r="4" fill="#19e5a1" /><circle cx="149.1" cy="317.0" r="4" fill="#19e5a1" /><circle cx="162.9" cy="317.0" r="4" fill="#19e5a1" /><circle cx="176.7" cy="317.0" r="4" fill="#19e5a1" /><circle cx="190.5" cy="317.0" r="4" fill="#19e5a1" /><circle cx="204.4" cy="317.0" r="4" fill="#19e5a1" /><circle cx="218.2" cy="317.0" r="4" fill="#19e5a1" /><circle cx="232.0" cy="317.0" r="4" fill="#19e5a1" /><circle cx="245.8" cy="317.0" r="4" fill="#19e5a1" /><circle cx="259.6" cy="317.0" r="4" fill="#19e5a1" /><circle cx="273.5" cy="317.0" r="4" fill="#19e5a1" /><circle cx="287.3" cy="317.0" r="4" fill="#19e5a1" /><circle cx="301.1" cy="317.0" r="4" fill="#19e5a1" /><circle cx="314.9" cy="317.0" r="4" fill="#19e5a1" /><circle cx="328.7" cy="317.0" r="4" fill="#19e5a1" /><circle cx="342.5" cy="317.0" r="4" fill="#19e5a1" /><circle cx="356.4" cy="317.0" r="4" fill="#19e5a1" /><circle cx="370.2" cy="317.0" r="4" fill="#19e5a1" /><circle cx="384.0" cy="317.0" r="4" fill="#19e5a1" /><circle cx="397.8" cy="317.0" r="4" fill="#19e5a1" /><circle cx="411.6" cy="317.0" r="4" fill="#19e5a1" /><circle cx="425.5" cy="317.0" r="4" fill="#19e5a1" /><circle cx="439.3" cy="317.0" r="4" fill="#19e5a1" /><circle cx="453.1" cy="317.0" r="4" fill="#19e5a1" /><circle cx="466.9" cy="317.0" r="4" fill="#19e5a1" /><circle cx="480.7" cy="317.0" r="4" fill="#19e5a1" /><circle cx="494.5" cy="317.0" r="4" fill="#19e5a1" /><circle cx="508.4" cy="317.0" r="4" fill="#19e5a1" /><circle cx="522.2" cy="317.0" r="4" fill="#19e5a1" /><circle cx="536.0" cy="317.0" r="4" fill="#19e5a1" /><circle cx="549.8" cy="317.0" r="4" fill="#19e5a1" /><circle cx="563.6" cy="317.0" r="4" fill="#19e5a1" /><circle cx="577.5" cy="317.0" r="4" fill="#19e5a1" /><circle cx="591.3" cy="317.0" r="4" fill="#19e5a1" /><circle cx="605.1" cy="317.0" r="4" fill="#19e5a1" /><circle cx="618.9" cy="317.0" r="4" fill="#19e5a1" /><circle cx="632.7" cy="317.0" r="4" fill="#19e5a1" /><circle cx="646.5" cy="317.0" r="4" fill="#19e5a1" /><circle cx="660.4" cy="317.0" r="4" fill="#19e5a1" /><circle cx="674.2" cy="317.0" r="4" fill="#19e5a1" /><circle cx="688.0" cy="317.0" r="4" fill="#19e5a1" /><circle cx="701.8" cy="317.0" r="4" fill="#19e5a1" /><circle cx="715.6" cy="317.0" r="4" fill="#19e5a1" /><circle cx="729.5" cy="317.0" r="4" fill="#19e5a1" /><circle cx="743.3" cy="317.0" r="4" fill="#19e5a1" /><circle cx="757.1" cy="317.0" r="4" fill="#19e5a1" /><circle cx="770.9" cy="317.0" r="4" fill="#19e5a1" /><circle cx="784.7" cy="317.0" r="4" fill="#19e5a1" /><circle cx="798.5" cy="317.0" r="4" fill="#19e5a1" /><circle cx="812.4" cy="317.0" r="4" fill="#19e5a1" /><circle cx="826.2" cy="317.0" r="4" fill="#19e5a1" /><circle cx="840.0" cy="317.0" r="4" fill="#19e5a1" /><polyline points="80.0,313.2 93.8,312.2 107.6,312.1 121.5,312.4 135.3,312.4 149.1,312.4 162.9,312.1 176.7,312.0 190.5,311.9 204.4,311.9 218.2,311.8 232.0,311.8 245.8,311.5 259.6,311.5 273.5,311.5 287.3,311.2 301.1,311.2 314.9,311.1 328.7,311.1 342.5,311.1 356.4,310.9 370.2,311.0 384.0,310.8 397.8,310.8 411.6,310.8 425.5,310.8 439.3,310.4 453.1,310.2 466.9,310.4 480.7,310.4 494.5,310.4 508.4,310.4 522.2,310.4 536.0,310.2 549.8,310.2 563.6,310.1 577.5,310.1 591.3,309.8 605.1,309.6 618.9,309.6 632.7,309.6 646.5,309.6 660.4,309.5 674.2,309.4 688.0,309.4 701.8,309.4 715.6,309.4 729.5,309.2 743.3,309.2 757.1,309.2 770.9,309.4 784.7,309.4 798.5,309.5 812.4,309.2 826.2,309.2 840.0,309.4" fill="none" stroke="#6eb6ec" stroke-width="2.5" stroke-linecap="round" stroke-linejoin="round" /><circle cx="80.0" cy="313.2" r="4" fill="#6eb6ec" /><circle cx="93.8" cy="312.2" r="4" fill="#6eb6ec" /><circle cx="107.6" cy="312.1" r="4" fill="#6eb6ec" /><circle cx="121.5" cy="312.4" r="4" fill="#6eb6ec" /><circle cx="135.3" cy="312.4" r="4" fill="#6eb6ec" /><circle cx="149.1" cy="312.4" r="4" fill="#6eb6ec" /><circle cx="162.9" cy="312.1" r="4" fill="#6eb6ec" /><circle cx="176.7" cy="312.0" r="4" fill="#6eb6ec" /><circle cx="190.5" cy="311.9" r="4" fill="#6eb6ec" /><circle cx="204.4" cy="311.9" r="4" fill="#6eb6ec" /><circle cx="218.2" cy="311.8" r="4" fill="#6eb6ec" /><circle cx="232.0" cy="311.8" r="4" fill="#6eb6ec" /><circle cx="245.8" cy="311.5" r="4" fill="#6eb6ec" /><circle cx="259.6" cy="311.5" r="4" fill="#6eb6ec" /><circle cx="273.5" cy="311.5" r="4" fill="#6eb6ec" /><circle cx="287.3" cy="311.2" r="4" fill="#6eb6ec" /><circle cx="301.1" cy="311.2" r="4" fill="#6eb6ec" /><circle cx="314.9" cy="311.1" r="4" fill="#6eb6ec" /><circle cx="328.7" cy="311.1" r="4" fill="#6eb6ec" /><circle cx="342.5" cy="311.1" r="4" fill="#6eb6ec" /><circle cx="356.4" cy="310.9" r="4" fill="#6eb6ec" /><circle cx="370.2" cy="311.0" r="4" fill="#6eb6ec" /><circle cx="384.0" cy="310.8" r="4" fill="#6eb6ec" /><circle cx="397.8" cy="310.8" r="4" fill="#6eb6ec" /><circle cx="411.6" cy="310.8" r="4" fill="#6eb6ec" /><circle cx="425.5" cy="310.8" r="4" fill="#6eb6ec" /><circle cx="439.3" cy="310.4" r="4" fill="#6eb6ec" /><circle cx="453.1" cy="310.2" r="4" fill="#6eb6ec" /><circle cx="466.9" cy="310.4" r="4" fill="#6eb6ec" /><circle cx="480.7" cy="310.4" r="4" fill="#6eb6ec" /><circle cx="494.5" cy="310.4" r="4" fill="#6eb6ec" /><circle cx="508.4" cy="310.4" r="4" fill="#6eb6ec" /><circle cx="522.2" cy="310.4" r="4" fill="#6eb6ec" /><circle cx="536.0" cy="310.2" r="4" fill="#6eb6ec" /><circle cx="549.8" cy="310.2" r="4" fill="#6eb6ec" /><circle cx="563.6" cy="310.1" r="4" fill="#6eb6ec" /><circle cx="577.5" cy="310.1" r="4" fill="#6eb6ec" /><circle cx="591.3" cy="309.8" r="4" fill="#6eb6ec" /><circle cx="605.1" cy="309.6" r="4" fill="#6eb6ec" /><circle cx="618.9" cy="309.6" r="4" fill="#6eb6ec" /><circle cx="632.7" cy="309.6" r="4" fill="#6eb6ec" /><circle cx="646.5" cy="309.6" r="4" fill="#6eb6ec" /><circle cx="660.4" cy="309.5" r="4" fill="#6eb6ec" /><circle cx="674.2" cy="309.4" r="4" fill="#6eb6ec" /><circle cx="688.0" cy="309.4" r="4" fill="#6eb6ec" /><circle cx="701.8" cy="309.4" r="4" fill="#6eb6ec" /><circle cx="715.6" cy="309.4" r="4" fill="#6eb6ec" /><circle cx="729.5" cy="309.2" r="4" fill="#6eb6ec" /><circle cx="743.3" cy="309.2" r="4" fill="#6eb6ec" /><circle cx="757.1" cy="309.2" r="4" fill="#6eb6ec" /><circle cx="770.9" cy="309.4" r="4" fill="#6eb6ec" /><circle cx="784.7" cy="309.4" r="4" fill="#6eb6ec" /><circle cx="798.5" cy="309.5" r="4" fill="#6eb6ec" /><circle cx="812.4" cy="309.2" r="4" fill="#6eb6ec" /><circle cx="826.2" cy="309.2" r="4" fill="#6eb6ec" /><circle cx="840.0" cy="309.4" r="4" fill="#6eb6ec" /><polyline points="80.0,305.8 93.8,305.8 107.6,305.8 121.5,305.8 135.3,305.8 149.1,305.8 162.9,305.8 176.7,305.8 190.5,305.8 204.4,305.8 218.2,304.9 232.0,304.9 245.8,304.9 259.6,304.9 273.5,304.9 287.3,304.9 301.1,304.9 314.9,304.9 328.7,304.9 342.5,304.9 356.4,304.9 370.2,304.9 384.0,304.9 397.8,304.9 411.6,304.9 425.5,304.9 439.3,304.9 453.1,304.9 466.9,304.9 480.7,304.9 494.5,304.9 508.4,304.9 522.2,304.9 536.0,304.9 549.8,304.9 563.6,304.9 577.5,304.9 591.3,303.6 605.1,303.6 618.9,303.6 632.7,303.6 646.5,303.6 660.4,303.6 674.2,303.6 688.0,303.6 701.8,303.6 715.6,303.6 729.5,303.6 743.3,303.6 757.1,303.6 770.9,303.6 784.7,302.9 798.5,302.9 812.4,298.0 826.2,298.0 840.0,298.0" fill="none" stroke="#5938e2" stroke-width="2.5" stroke-linecap="round" stroke-linejoin="round" /><circle cx="80.0" cy="305.8" r="4" fill="#5938e2" /><circle cx="93.8" cy="305.8" r="4" fill="#5938e2" /><circle cx="107.6" cy="305.8" r="4" fill="#5938e2" /><circle cx="121.5" cy="305.8" r="4" fill="#5938e2" /><circle cx="135.3" cy="305.8" r="4" fill="#5938e2" /><circle cx="149.1" cy="305.8" r="4" fill="#5938e2" /><circle cx="162.9" cy="305.8" r="4" fill="#5938e2" /><circle cx="176.7" cy="305.8" r="4" fill="#5938e2" /><circle cx="190.5" cy="305.8" r="4" fill="#5938e2" /><circle cx="204.4" cy="305.8" r="4" fill="#5938e2" /><circle cx="218.2" cy="304.9" r="4" fill="#5938e2" /><circle cx="232.0" cy="304.9" r="4" fill="#5938e2" /><circle cx="245.8" cy="304.9" r="4" fill="#5938e2" /><circle cx="259.6" cy="304.9" r="4" fill="#5938e2" /><circle cx="273.5" cy="304.9" r="4" fill="#5938e2" /><circle cx="287.3" cy="304.9" r="4" fill="#5938e2" /><circle cx="301.1" cy="304.9" r="4" fill="#5938e2" /><circle cx="314.9" cy="304.9" r="4" fill="#5938e2" /><circle cx="328.7" cy="304.9" r="4" fill="#5938e2" /><circle cx="342.5" cy="304.9" r="4" fill="#5938e2" /><circle cx="356.4" cy="304.9" r="4" fill="#5938e2" /><circle cx="370.2" cy="304.9" r="4" fill="#5938e2" /><circle cx="384.0" cy="304.9" r="4" fill="#5938e2" /><circle cx="397.8" cy="304.9" r="4" fill="#5938e2" /><circle cx="411.6" cy="304.9" r="4" fill="#5938e2" /><circle cx="425.5" cy="304.9" r="4" fill="#5938e2" /><circle cx="439.3" cy="304.9" r="4" fill="#5938e2" /><circle cx="453.1" cy="304.9" r="4" fill="#5938e2" /><circle cx="466.9" cy="304.9" r="4" fill="#5938e2" /><circle cx="480.7" cy="304.9" r="4" fill="#5938e2" /><circle cx="494.5" cy="304.9" r="4" fill="#5938e2" /><circle cx="508.4" cy="304.9" r="4" fill="#5938e2" /><circle cx="522.2" cy="304.9" r="4" fill="#5938e2" /><circle cx="536.0" cy="304.9" r="4" fill="#5938e2" /><circle cx="549.8" cy="304.9" r="4" fill="#5938e2" /><circle cx="563.6" cy="304.9" r="4" fill="#5938e2" /><circle cx="577.5" cy="304.9" r="4" fill="#5938e2" /><circle cx="591.3" cy="303.6" r="4" fill="#5938e2" /><circle cx="605.1" cy="303.6" r="4" fill="#5938e2" /><circle cx="618.9" cy="303.6" r="4" fill="#5938e2" /><circle cx="632.7" cy="303.6" r="4" fill="#5938e2" /><circle cx="646.5" cy="303.6" r="4" fill="#5938e2" /><circle cx="660.4" cy="303.6" r="4" fill="#5938e2" /><circle cx="674.2" cy="303.6" r="4" fill="#5938e2" /><circle cx="688.0" cy="303.6" r="4" fill="#5938e2" /><circle cx="701.8" cy="303.6" r="4" fill="#5938e2" /><circle cx="715.6" cy="303.6" r="4" fill="#5938e2" /><circle cx="729.5" cy="303.6" r="4" fill="#5938e2" /><circle cx="743.3" cy="303.6" r="4" fill="#5938e2" /><circle cx="757.1" cy="303.6" r="4" fill="#5938e2" /><circle cx="770.9" cy="303.6" r="4" fill="#5938e2" /><circle cx="784.7" cy="302.9" r="4" fill="#5938e2" /><circle cx="798.5" cy="302.9" r="4" fill="#5938e2" /><circle cx="812.4" cy="298.0" r="4" fill="#5938e2" /><circle cx="826.2" cy="298.0" r="4" fill="#5938e2" /><circle cx="840.0" cy="298.0" r="4" fill="#5938e2" /><polyline points="80.0,144.6 93.8,140.1 107.6,139.9 121.5,139.8 135.3,139.8 149.1,139.6 162.9,139.6 176.7,139.6 190.5,139.6 204.4,139.6 218.2,138.4 232.0,138.4 245.8,138.4 259.6,138.4 273.5,138.4 287.3,138.4 301.1,138.4 314.9,137.4 328.7,137.4 342.5,137.4 356.4,137.4 370.2,137.4 384.0,137.4 397.8,137.4 411.6,137.4 425.5,137.4 439.3,137.4 453.1,137.4 466.9,131.2 480.7,131.2 494.5,130.8 508.4,130.4 522.2,126.9 536.0,126.9 549.8,126.9 563.6,126.9 577.5,126.9 591.3,126.9 605.1,126.9 618.9,126.9 632.7,126.9 646.5,126.8 660.4,122.1 674.2,120.4 688.0,120.4 701.8,120.4 715.6,120.4 729.5,120.4 743.3,119.4 757.1,119.4 770.9,119.4 784.7,119.4 798.5,119.1 812.4,118.8 826.2,118.8 840.0,117.8" fill="none" stroke="#60e5e0" stroke-width="2.5" stroke-linecap="round" stroke-linejoin="round" /><circle cx="80.0" cy="144.6" r="4" fill="#60e5e0" /><circle cx="93.8" cy="140.1" r="4" fill="#60e5e0" /><circle cx="107.6" cy="139.9" r="4" fill="#60e5e0" /><circle cx="121.5" cy="139.8" r="4" fill="#60e5e0" /><circle cx="135.3" cy="139.8" r="4" fill="#60e5e0" /><circle cx="149.1" cy="139.6" r="4" fill="#60e5e0" /><circle cx="162.9" cy="139.6" r="4" fill="#60e5e0" /><circle cx="176.7" cy="139.6" r="4" fill="#60e5e0" /><circle cx="190.5" cy="139.6" r="4" fill="#60e5e0" /><circle cx="204.4" cy="139.6" r="4" fill="#60e5e0" /><circle cx="218.2" cy="138.4" r="4" fill="#60e5e0" /><circle cx="232.0" cy="138.4" r="4" fill="#60e5e0" /><circle cx="245.8" cy="138.4" r="4" fill="#60e5e0" /><circle cx="259.6" cy="138.4" r="4" fill="#60e5e0" /><circle cx="273.5" cy="138.4" r="4" fill="#60e5e0" /><circle cx="287.3" cy="138.4" r="4" fill="#60e5e0" /><circle cx="301.1" cy="138.4" r="4" fill="#60e5e0" /><circle cx="314.9" cy="137.4" r="4" fill="#60e5e0" /><circle cx="328.7" cy="137.4" r="4" fill="#60e5e0" /><circle cx="342.5" cy="137.4" r="4" fill="#60e5e0" /><circle cx="356.4" cy="137.4" r="4" fill="#60e5e0" /><circle cx="370.2" cy="137.4" r="4" fill="#60e5e0" /><circle cx="384.0" cy="137.4" r="4" fill="#60e5e0" /><circle cx="397.8" cy="137.4" r="4" fill="#60e5e0" /><circle cx="411.6" cy="137.4" r="4" fill="#60e5e0" /><circle cx="425.5" cy="137.4" r="4" fill="#60e5e0" /><circle cx="439.3" cy="137.4" r="4" fill="#60e5e0" /><circle cx="453.1" cy="137.4" r="4" fill="#60e5e0" /><circle cx="466.9" cy="131.2" r="4" fill="#60e5e0" /><circle cx="480.7" cy="131.2" r="4" fill="#60e5e0" /><circle cx="494.5" cy="130.8" r="4" fill="#60e5e0" /><circle cx="508.4" cy="130.4" r="4" fill="#60e5e0" /><circle cx="522.2" cy="126.9" r="4" fill="#60e5e0" /><circle cx="536.0" cy="126.9" r="4" fill="#60e5e0" /><circle cx="549.8" cy="126.9" r="4" fill="#60e5e0" /><circle cx="563.6" cy="126.9" r="4" fill="#60e5e0" /><circle cx="577.5" cy="126.9" r="4" fill="#60e5e0" /><circle cx="591.3" cy="126.9" r="4" fill="#60e5e0" /><circle cx="605.1" cy="126.9" r="4" fill="#60e5e0" /><circle cx="618.9" cy="126.9" r="4" fill="#60e5e0" /><circle cx="632.7" cy="126.9" r="4" fill="#60e5e0" /><circle cx="646.5" cy="126.8" r="4" fill="#60e5e0" /><circle cx="660.4" cy="122.1" r="4" fill="#60e5e0" /><circle cx="674.2" cy="120.4" r="4" fill="#60e5e0" /><circle cx="688.0" cy="120.4" r="4" fill="#60e5e0" /><circle cx="701.8" cy="120.4" r="4" fill="#60e5e0" /><circle cx="715.6" cy="120.4" r="4" fill="#60e5e0" /><circle cx="729.5" cy="120.4" r="4" fill="#60e5e0" /><circle cx="743.3" cy="119.4" r="4" fill="#60e5e0" /><circle cx="757.1" cy="119.4" r="4" fill="#60e5e0" /><circle cx="770.9" cy="119.4" r="4" fill="#60e5e0" /><circle cx="784.7" cy="119.4" r="4" fill="#60e5e0" /><circle cx="798.5" cy="119.1" r="4" fill="#60e5e0" /><circle cx="812.4" cy="118.8" r="4" fill="#60e5e0" /><circle cx="826.2" cy="118.8" r="4" fill="#60e5e0" /><circle cx="840.0" cy="117.8" r="4" fill="#60e5e0" /><polyline points="80.0,314.6 93.8,314.4 107.6,314.2 121.5,314.2 135.3,314.2 149.1,314.1 162.9,314.1 176.7,314.1 190.5,314.1 204.4,314.1 218.2,314.0 232.0,314.0 245.8,314.0 259.6,314.0 273.5,314.0 287.3,314.0 301.1,314.0 314.9,314.0 328.7,314.0 342.5,314.0 356.4,314.0 370.2,314.0 384.0,314.0 397.8,314.0 411.6,314.0 425.5,314.0 439.3,314.0 453.1,314.0 466.9,314.0 480.7,314.0 494.5,314.0 508.4,314.0 522.2,314.0 536.0,314.0 549.8,314.0 563.6,314.0 577.5,314.0 591.3,314.0 605.1,314.0 618.9,314.0 632.7,314.0 646.5,313.9 660.4,313.6 674.2,313.4 688.0,313.4 701.8,313.4 715.6,313.4 729.5,313.4 743.3,313.1 757.1,313.1 770.9,313.1 784.7,313.1 798.5,313.1 812.4,313.0 826.2,313.0 840.0,312.9" fill="none" stroke="#567de1" stroke-width="2.5" stroke-linecap="round" stroke-linejoin="round" /><circle cx="80.0" cy="314.6" r="4" fill="#567de1" /><circle cx="93.8" cy="314.4" r="4" fill="#567de1" /><circle cx="107.6" cy="314.2" r="4" fill="#567de1" /><circle cx="121.5" cy="314.2" r="4" fill="#567de1" /><circle cx="135.3" cy="314.2" r="4" fill="#567de1" /><circle cx="149.1" cy="314.1" r="4" fill="#567de1" /><circle cx="162.9" cy="314.1" r="4" fill="#567de1" /><circle cx="176.7" cy="314.1" r="4" fill="#567de1" /><circle cx="190.5" cy="314.1" r="4" fill="#567de1" /><circle cx="204.4" cy="314.1" r="4" fill="#567de1" /><circle cx="218.2" cy="314.0" r="4" fill="#567de1" /><circle cx="232.0" cy="314.0" r="4" fill="#567de1" /><circle cx="245.8" cy="314.0" r="4" fill="#567de1" /><circle cx="259.6" cy="314.0" r="4" fill="#567de1" /><circle cx="273.5" cy="314.0" r="4" fill="#567de1" /><circle cx="287.3" cy="314.0" r="4" fill="#567de1" /><circle cx="301.1" cy="314.0" r="4" fill="#567de1" /><circle cx="314.9" cy="314.0" r="4" fill="#567de1" /><circle cx="328.7" cy="314.0" r="4" fill="#567de1" /><circle cx="342.5" cy="314.0" r="4" fill="#567de1" /><circle cx="356.4" cy="314.0" r="4" fill="#567de1" /><circle cx="370.2" cy="314.0" r="4" fill="#567de1" /><circle cx="384.0" cy="314.0" r="4" fill="#567de1" /><circle cx="397.8" cy="314.0" r="4" fill="#567de1" /><circle cx="411.6" cy="314.0" r="4" fill="#567de1" /><circle cx="425.5" cy="314.0" r="4" fill="#567de1" /><circle cx="439.3" cy="314.0" r="4" fill="#567de1" /><circle cx="453.1" cy="314.0" r="4" fill="#567de1" /><circle cx="466.9" cy="314.0" r="4" fill="#567de1" /><circle cx="480.7" cy="314.0" r="4" fill="#567de1" /><circle cx="494.5" cy="314.0" r="4" fill="#567de1" /><circle cx="508.4" cy="314.0" r="4" fill="#567de1" /><circle cx="522.2" cy="314.0" r="4" fill="#567de1" /><circle cx="536.0" cy="314.0" r="4" fill="#567de1" /><circle cx="549.8" cy="314.0" r="4" fill="#567de1" /><circle cx="563.6" cy="314.0" r="4" fill="#567de1" /><circle cx="577.5" cy="314.0" r="4" fill="#567de1" /><circle cx="591.3" cy="314.0" r="4" fill="#567de1" /><circle cx="605.1" cy="314.0" r="4" fill="#567de1" /><circle cx="618.9" cy="314.0" r="4" fill="#567de1" /><circle cx="632.7" cy="314.0" r="4" fill="#567de1" /><circle cx="646.5" cy="313.9" r="4" fill="#567de1" /><circle cx="660.4" cy="313.6" r="4" fill="#567de1" /><circle cx="674.2" cy="313.4" r="4" fill="#567de1" /><circle cx="688.0" cy="313.4" r="4" fill="#567de1" /><circle cx="701.8" cy="313.4" r="4" fill="#567de1" /><circle cx="715.6" cy="313.4" r="4" fill="#567de1" /><circle cx="729.5" cy="313.4" r="4" fill="#567de1" /><circle cx="743.3" cy="313.1" r="4" fill="#567de1" /><circle cx="757.1" cy="313.1" r="4" fill="#567de1" /><circle cx="770.9" cy="313.1" r="4" fill="#567de1" /><circle cx="784.7" cy="313.1" r="4" fill="#567de1" /><circle cx="798.5" cy="313.1" r="4" fill="#567de1" /><circle cx="812.4" cy="313.0" r="4" fill="#567de1" /><circle cx="826.2" cy="313.0" r="4" fill="#567de1" /><circle cx="840.0" cy="312.9" r="4" fill="#567de1" /><polyline points="80.0,303.9 93.8,304.2 107.6,304.4 121.5,304.4 135.3,304.4 149.1,304.4 162.9,304.4 176.7,304.4 190.5,304.4 204.4,304.4 218.2,304.4 232.0,304.4 245.8,304.4 259.6,304.4 273.5,304.4 287.3,304.4 301.1,304.4 314.9,304.4 328.7,304.4 342.5,304.4 356.4,304.4 370.2,304.4 384.0,304.4 397.8,304.4 411.6,304.4 425.5,304.4 439.3,304.4 453.1,304.4 466.9,299.1 480.7,299.1 494.5,299.1 508.4,298.9 522.2,295.6 536.0,295.6 549.8,295.6 563.6,295.6 577.5,295.6 591.3,295.6 605.1,295.6 618.9,295.6 632.7,295.6 646.5,295.8 660.4,295.9 674.2,295.9 688.0,295.9 701.8,295.9 715.6,295.9 729.5,295.9 743.3,295.9 757.1,295.9 770.9,295.9 784.7,295.9 798.5,295.9 812.4,295.9 826.2,295.9 840.0,295.9" fill="none" stroke="#9754dd" stroke-width="2.5" stroke-linecap="round" stroke-linejoin="round" /><circle cx="80.0" cy="303.9" r="4" fill="#9754dd" /><circle cx="93.8" cy="304.2" r="4" fill="#9754dd" /><circle cx="107.6" cy="304.4" r="4" fill="#9754dd" /><circle cx="121.5" cy="304.4" r="4" fill="#9754dd" /><circle cx="135.3" cy="304.4" r="4" fill="#9754dd" /><circle cx="149.1" cy="304.4" r="4" fill="#9754dd" /><circle cx="162.9" cy="304.4" r="4" fill="#9754dd" /><circle cx="176.7" cy="304.4" r="4" fill="#9754dd" /><circle cx="190.5" cy="304.4" r="4" fill="#9754dd" /><circle cx="204.4" cy="304.4" r="4" fill="#9754dd" /><circle cx="218.2" cy="304.4" r="4" fill="#9754dd" /><circle cx="232.0" cy="304.4" r="4" fill="#9754dd" /><circle cx="245.8" cy="304.4" r="4" fill="#9754dd" /><circle cx="259.6" cy="304.4" r="4" fill="#9754dd" /><circle cx="273.5" cy="304.4" r="4" fill="#9754dd" /><circle cx="287.3" cy="304.4" r="4" fill="#9754dd" /><circle cx="301.1" cy="304.4" r="4" fill="#9754dd" /><circle cx="314.9" cy="304.4" r="4" fill="#9754dd" /><circle cx="328.7" cy="304.4" r="4" fill="#9754dd" /><circle cx="342.5" cy="304.4" r="4" fill="#9754dd" /><circle cx="356.4" cy="304.4" r="4" fill="#9754dd" /><circle cx="370.2" cy="304.4" r="4" fill="#9754dd" /><circle cx="384.0" cy="304.4" r="4" fill="#9754dd" /><circle cx="397.8" cy="304.4" r="4" fill="#9754dd" /><circle cx="411.6" cy="304.4" r="4" fill="#9754dd" /><circle cx="425.5" cy="304.4" r="4" fill="#9754dd" /><circle cx="439.3" cy="304.4" r="4" fill="#9754dd" /><circle cx="453.1" cy="304.4" r="4" fill="#9754dd" /><circle cx="466.9" cy="299.1" r="4" fill="#9754dd" /><circle cx="480.7" cy="299.1" r="4" fill="#9754dd" /><circle cx="494.5" cy="299.1" r="4" fill="#9754dd" /><circle cx="508.4" cy="298.9" r="4" fill="#9754dd" /><circle cx="522.2" cy="295.6" r="4" fill="#9754dd" /><circle cx="536.0" cy="295.6" r="4" fill="#9754dd" /><circle cx="549.8" cy="295.6" r="4" fill="#9754dd" /><circle cx="563.6" cy="295.6" r="4" fill="#9754dd" /><circle cx="577.5" cy="295.6" r="4" fill="#9754dd" /><circle cx="591.3" cy="295.6" r="4" fill="#9754dd" /><circle cx="605.1" cy="295.6" r="4" fill="#9754dd" /><circle cx="618.9" cy="295.6" r="4" fill="#9754dd" /><circle cx="632.7" cy="295.6" r="4" fill="#9754dd" /><circle cx="646.5" cy="295.8" r="4" fill="#9754dd" /><circle cx="660.4" cy="295.9" r="4" fill="#9754dd" /><circle cx="674.2" cy="295.9" r="4" fill="#9754dd" /><circle cx="688.0" cy="295.9" r="4" fill="#9754dd" /><circle cx="701.8" cy="295.9" r="4" fill="#9754dd" /><circle cx="715.6" cy="295.9" r="4" fill="#9754dd" /><circle cx="729.5" cy="295.9" r="4" fill="#9754dd" /><circle cx="743.3" cy="295.9" r="4" fill="#9754dd" /><circle cx="757.1" cy="295.9" r="4" fill="#9754dd" /><circle cx="770.9" cy="295.9" r="4" fill="#9754dd" /><circle cx="784.7" cy="295.9" r="4" fill="#9754dd" /><circle cx="798.5" cy="295.9" r="4" fill="#9754dd" /><circle cx="812.4" cy="295.9" r="4" fill="#9754dd" /><circle cx="826.2" cy="295.9" r="4" fill="#9754dd" /><circle cx="840.0" cy="295.9" r="4" fill="#9754dd" />
  <rect x="80" y="339" width="10" height="10" rx="2" ry="2" fill="#19e5a1" /><text x="96" y="348" class="legend-label">Stars</text><rect x="250" y="339" width="10" height="10" rx="2" ry="2" fill="#6eb6ec" /><text x="266" y="348" class="legend-label">Followers</text><rect x="420" y="339" width="10" height="10" rx="2" ry="2" fill="#5938e2" /><text x="436" y="348" class="legend-label">Following</text><rect x="590" y="339" width="10" height="10" rx="2" ry="2" fill="#60e5e0" /><text x="606" y="348" class="legend-label">Contributions</text><rect x="80" y="357" width="10" height="10" rx="2" ry="2" fill="#567de1" /><text x="96" y="366" class="legend-label">Pull Requests</text><rect x="250" y="357" width="10" height="10" rx="2" ry="2" fill="#9754dd" /><text x="266" y="366" class="legend-label">Issues</text>
</svg>
