<svg width="900" height="402" viewBox="0 0 900 402" xmlns="http://www.w3.org/2000/svg">
  <defs>
    <linearGradient id="history-gradient" x1="0%" y1="0%" x2="100%" y2="100%">
      <stop offset="0%" style="stop-color:#58a6ff;stop-opacity:1" />
      <stop offset="100%" style="stop-color:#a371f7;stop-opacity:1" />
    </linearGradient>
    <clipPath id="history-rounded">
      <rect x="0" y="0" width="900" height="402" rx="8" ry="8" />
    </clipPath>
  </defs>
  <style>
    .title {
      font-family: 'Segoe UI', Ubuntu, 'Helvetica Neue', sans-serif;
      font-size: 22px;
      font-weight: 700;
      fill: #58a6ff;
    }
    .subtitle {
      font-family: 'Segoe UI', Ubuntu, 'Helvetica Neue', sans-serif;
      font-size: 12px;
      font-weight: 500;
      fill: #8b949e;
    }
    .axis-label {
      font-family: 'Segoe UI', Ubuntu, 'Helvetica Neue', sans-serif;
      font-size: 10px;
      fill: #8b949e;
    }
    .grid-line {
      stroke: #30363d;
      stroke-width: 1;
      opacity: 0.3;
    }
    .legend-label {
      font-family: 'Segoe UI', Ubuntu, 'Helvetica Neue', sans-serif;
      font-size: 11px;
      fill: #c9d1d9;
      dominant-baseline: middle;
    }
  </style>
  <rect clip-path="url(#history-rounded)" width="100%" height="100%" fill="#0d1117" stroke="#30363d" stroke-width="1" />
  <rect x="0" y="396" width="900" height="6" fill="url(#history-gradient)" clip-path="url(#history-rounded)" />
  <text x="24" y="34" class="title">Leonardo Klein Stats History</text>
  <text x="24" y="54" class="subtitle">Period: 2026-02-20 to 2026-03-06</text>
  <text x="72" y="320.0" text-anchor="end" dominant-baseline="central" class="axis-label">0</text><text x="72" y="270.0" text-anchor="end" dominant-baseline="central" class="axis-label">400</text><text x="72" y="220.0" text-anchor="end" dominant-baseline="central" class="axis-label">800</text><text x="72" y="170.0" text-anchor="end" dominant-baseline="central" class="axis-label">1.2k</text><text x="72" y="120.0" text-anchor="end" dominant-baseline="central" class="axis-label">1.6k</text><text x="72" y="70.0" text-anchor="end" dominant-baseline="central" class="axis-label">2.0k</text>
  <text x="80.0" y="336" text-anchor="middle" class="axis-label">02-20</text><text x="147.1" y="336" text-anchor="middle" class="axis-label">02-21</text><text x="214.1" y="336" text-anchor="middle" class="axis-label">02-22</text><text x="281.2" y="336" text-anchor="middle" class="axis-label">02-24</text><text x="348.2" y="336" text-anchor="middle" class="axis-label">02-25</text><text x="415.3" y="336" text-anchor="middle" class="axis-label">02-26</text><text x="482.4" y="336" text-anchor="middle" class="axis-label">02-27</text><text x="549.4" y="336" text-anchor="middle" class="axis-label">02-28</text><text x="616.5" y="336" text-anchor="middle" class="axis-label">03-02</text><text x="683.5" y="336" text-anchor="middle" class="axis-label">03-03</text><text x="750.6" y="336" text-anchor="middle" class="axis-label">03-04</text><text x="817.6" y="336" text-anchor="middle" class="axis-label">03-05</text><text x="840.0" y="336" text-anchor="middle" class="axis-label">03-06</text>
  <line x1="80" y1="320.0" x2="840" y2="320.0" class="grid-line" /><line x1="80" y1="270.0" x2="840" y2="270.0" class="grid-line" /><line x1="80" y1="220.0" x2="840" y2="220.0" class="grid-line" /><line x1="80" y1="170.0" x2="840" y2="170.0" class="grid-line" /><line x1="80" y1="120.0" x2="840" y2="120.0" class="grid-line" /><line x1="80" y1="70.0" x2="840" y2="70.0" class="grid-line" />
  <polyline points="80.0,317.0 91.2,317.0 102.4,317.0 113.5,317.0 124.7,317.0 135.9,317.0 147.1,317.0 158.2,317.0 169.4,317.0 180.6,317.0 191.8,317.0 202.9,317.0 214.1,317.0 225.3,317.0 236.5,317.0 247.6,317.0 258.8,317.0 270.0,317.0 281.2,317.0 292.4,317.0 303.5,317.0 314.7,317.0 325.9,317.0 337.1,317.0 348.2,317.0 359.4,317.0 370.6,317.0 381.8,317.0 392.9,317.0 404.1,317.0 415.3,317.0 426.5,317.0 437.6,317.0 448.8,317.0 460.0,317.0 471.2,317.0 482.4,317.0 493.5,317.0 504.7,317.0 515.9,317.0 527.1,317.0 538.2,317.0 549.4,317.0 560.6,317.0 571.8,317.0 582.9,317.0 594.1,317.0 605.3,317.0 616.5,317.0 627.6,317.0 638.8,317.0 650.0,317.0 661.2,317.0 672.4,317.0 683.5,317.0 694.7,317.0 705.9,317.0 717.1,317.0 728.2,317.0 739.4,317.0 750.6,317.0 761.8,317.0 772.9,317.0 784.1,317.0 795.3,317.0 806.5,317.0 817.6,317.0 828.8,317.0 840.0,317.0" fill="none" stroke="#19e5a1" stroke-width="2.5" stroke-linecap="round" stroke-linejoin="round" /><circle cx="80.0" cy="317.0" r="4" fill="#19e5a1" /><circle cx="91.2" cy="317.0" r="4" fill="#19e5a1" /><circle cx="102.4" cy="317.0" r="4" fill="#19e5a1" /><circle cx="113.5" cy="317.0" r="4" fill="#19e5a1" /><circle cx="124.7" cy="317.0" r="4" fill="#19e5a1" /><circle cx="135.9" cy="317.0" r="4" fill="#19e5a1" /><circle cx="147.1" cy="317.0" r="4" fill="#19e5a1" /><circle cx="158.2" cy="317.0" r="4" fill="#19e5a1" /><circle cx="169.4" cy="317.0" r="4" fill="#19e5a1" /><circle cx="180.6" cy="317.0" r="4" fill="#19e5a1" /><circle cx="191.8" cy="317.0" r="4" fill="#19e5a1" /><circle cx="202.9" cy="317.0" r="4" fill="#19e5a1" /><circle cx="214.1" cy="317.0" r="4" fill="#19e5a1" /><circle cx="225.3" cy="317.0" r="4" fill="#19e5a1" /><circle cx="236.5" cy="317.0" r="4" fill="#19e5a1" /><circle cx="247.6" cy="317.0" r="4" fill="#19e5a1" /><circle cx="258.8" cy="317.0" r="4" fill="#19e5a1" /><circle cx="270.0" cy="317.0" r="4" fill="#19e5a1" /><circle cx="281.2" cy="317.0" r="4" fill="#19e5a1" /><circle cx="292.4" cy="317.0" r="4" fill="#19e5a1" /><circle cx="303.5" cy="317.0" r="4" fill="#19e5a1" /><circle cx="314.7" cy="317.0" r="4" fill="#19e5a1" /><circle cx="325.9" cy="317.0" r="4" fill="#19e5a1" /><circle cx="337.1" cy="317.0" r="4" fill="#19e5a1" /><circle cx="348.2" cy="317.0" r="4" fill="#19e5a1" /><circle cx="359.4" cy="317.0" r="4" fill="#19e5a1" /><circle cx="370.6" cy="317.0" r="4" fill="#19e5a1" /><circle cx="381.8" cy="317.0" r="4" fill="#19e5a1" /><circle cx="392.9" cy="317.0" r="4" fill="#19e5a1" /><circle cx="404.1" cy="317.0" r="4" fill="#19e5a1" /><circle cx="415.3" cy="317.0" r="4" fill="#19e5a1" /><circle cx="426.5" cy="317.0" r="4" fill="#19e5a1" /><circle cx="437.6" cy="317.0" r="4" fill="#19e5a1" /><circle cx="448.8" cy="317.0" r="4" fill="#19e5a1" /><circle cx="460.0" cy="317.0" r="4" fill="#19e5a1" /><circle cx="471.2" cy="317.0" r="4" fill="#19e5a1" /><circle cx="482.4" cy="317.0" r="4" fill="#19e5a1" /><circle cx="493.5" cy="317.0" r="4" fill="#19e5a1" /><circle cx="504.7" cy="317.0" r="4" fill="#19e5a1" /><circle cx="515.9" cy="317.0" r="4" fill="#19e5a1" /><circle cx="527.1" cy="317.0" r="4" fill="#19e5a1" /><circle cx="538.2" cy="317.0" r="4" fill="#19e5a1" /><circle cx="549.4" cy="317.0" r="4" fill="#19e5a1" /><circle cx="560.6" cy="317.0" r="4" fill="#19e5a1" /><circle cx="571.8" cy="317.0" r="4" fill="#19e5a1" /><circle cx="582.9" cy="317.0" r="4" fill="#19e5a1" /><circle cx="594.1" cy="317.0" r="4" fill="#19e5a1" /><circle cx="605.3" cy="317.0" r="4" fill="#19e5a1" /><circle cx="616.5" cy="317.0" r="4" fill="#19e5a1" /><circle cx="627.6" cy="317.0" r="4" fill="#19e5a1" /><circle cx="638.8" cy="317.0" r="4" fill="#19e5a1" /><circle cx="650.0" cy="317.0" r="4" fill="#19e5a1" /><circle cx="661.2" cy="317.0" r="4" fill="#19e5a1" /><circle cx="672.4" cy="317.0" r="4" fill="#19e5a1" /><circle cx="683.5" cy="317.0" r="4" fill="#19e5a1" /><circle cx="694.7" cy="317.0" r="4" fill="#19e5a1" /><circle cx="705.9" cy="317.0" r="4" fill="#19e5a1" /><circle cx="717.1" cy="317.0" r="4" fill="#19e5a1" /><circle cx="728.2" cy="317.0" r="4" fill="#19e5a1" /><circle cx="739.4" cy="317.0" r="4" fill="#19e5a1" /><circle cx="750.6" cy="317.0" r="4" fill="#19e5a1" /><circle cx="761.8" cy="317.0" r="4" fill="#19e5a1" /><circle cx="772.9" cy="317.0" r="4" fill="#19e5a1" /><circle cx="784.1" cy="317.0" r="4" fill="#19e5a1" /><circle cx="795.3" cy="317.0" r="4" fill="#19e5a1" /><circle cx="806.5" cy="317.0" r="4" fill="#19e5a1" /><circle cx="817.6" cy="317.0" r="4" fill="#19e5a1" /><circle cx="828.8" cy="317.0" r="4" fill="#19e5a1" /><circle cx="840.0" cy="317.0" r="4" fill="#19e5a1" /><polyline points="80.0,313.2 91.2,312.2 102.4,312.1 113.5,312.4 124.7,312.4 135.9,312.4 147.1,312.1 158.2,312.0 169.4,311.9 180.6,311.9 191.8,311.8 202.9,311.8 214.1,311.5 225.3,311.5 236.5,311.5 247.6,311.2 258.8,311.2 270.0,311.1 281.2,311.1 292.4,311.1 303.5,310.9 314.7,311.0 325.9,310.8 337.1,310.8 348.2,310.8 359.4,310.8 370.6,310.4 381.8,310.2 392.9,310.4 404.1,310.4 415.3,310.4 426.5,310.4 437.6,310.4 448.8,310.2 460.0,310.2 471.2,310.1 482.4,310.1 493.5,309.8 504.7,309.6 515.9,309.6 527.1,309.6 538.2,309.6 549.4,309.5 560.6,309.4 571.8,309.4 582.9,309.4 594.1,309.4 605.3,309.2 616.5,309.2 627.6,309.2 638.8,309.4 650.0,309.4 661.2,309.5 672.4,309.2 683.5,309.2 694.7,309.4 705.9,309.2 717.1,309.2 728.2,309.2 739.4,309.2 750.6,309.2 761.8,309.1 772.9,309.1 784.1,309.1 795.3,309.1 806.5,309.0 817.6,309.0 828.8,308.9 840.0,308.9" fill="none" stroke="#6eb6ec" stroke-width="2.5" stroke-linecap="round" stroke-linejoin="round" /><circle cx="80.0" cy="313.2" r="4" fill="#6eb6ec" /><circle cx="91.2" cy="312.2" r="4" fill="#6eb6ec" /><circle cx="102.4" cy="312.1" r="4" fill="#6eb6ec" /><circle cx="113.5" cy="312.4" r="4" fill="#6eb6ec" /><circle cx="124.7" cy="312.4" r="4" fill="#6eb6ec" /><circle cx="135.9" cy="312.4" r="4" fill="#6eb6ec" /><circle cx="147.1" cy="312.1" r="4" fill="#6eb6ec" /><circle cx="158.2" cy="312.0" r="4" fill="#6eb6ec" /><circle cx="169.4" cy="311.9" r="4" fill="#6eb6ec" /><circle cx="180.6" cy="311.9" r="4" fill="#6eb6ec" /><circle cx="191.8" cy="311.8" r="4" fill="#6eb6ec" /><circle cx="202.9" cy="311.8" r="4" fill="#6eb6ec" /><circle cx="214.1" cy="311.5" r="4" fill="#6eb6ec" /><circle cx="225.3" cy="311.5" r="4" fill="#6eb6ec" /><circle cx="236.5" cy="311.5" r="4" fill="#6eb6ec" /><circle cx="247.6" cy="311.2" r="4" fill="#6eb6ec" /><circle cx="258.8" cy="311.2" r="4" fill="#6eb6ec" /><circle cx="270.0" cy="311.1" r="4" fill="#6eb6ec" /><circle cx="281.2" cy="311.1" r="4" fill="#6eb6ec" /><circle cx="292.4" cy="311.1" r="4" fill="#6eb6ec" /><circle cx="303.5" cy="310.9" r="4" fill="#6eb6ec" /><circle cx="314.7" cy="311.0" r="4" fill="#6eb6ec" /><circle cx="325.9" cy="310.8" r="4" fill="#6eb6ec" /><circle cx="337.1" cy="310.8" r="4" fill="#6eb6ec" /><circle cx="348.2" cy="310.8" r="4" fill="#6eb6ec" /><circle cx="359.4" cy="310.8" r="4" fill="#6eb6ec" /><circle cx="370.6" cy="310.4" r="4" fill="#6eb6ec" /><circle cx="381.8" cy="310.2" r="4" fill="#6eb6ec" /><circle cx="392.9" cy="310.4" r="4" fill="#6eb6ec" /><circle cx="404.1" cy="310.4" r="4" fill="#6eb6ec" /><circle cx="415.3" cy="310.4" r="4" fill="#6eb6ec" /><circle cx="426.5" cy="310.4" r="4" fill="#6eb6ec" /><circle cx="437.6" cy="310.4" r="4" fill="#6eb6ec" /><circle cx="448.8" cy="310.2" r="4" fill="#6eb6ec" /><circle cx="460.0" cy="310.2" r="4" fill="#6eb6ec" /><circle cx="471.2" cy="310.1" r="4" fill="#6eb6ec" /><circle cx="482.4" cy="310.1" r="4" fill="#6eb6ec" /><circle cx="493.5" cy="309.8" r="4" fill="#6eb6ec" /><circle cx="504.7" cy="309.6" r="4" fill="#6eb6ec" /><circle cx="515.9" cy="309.6" r="4" fill="#6eb6ec" /><circle cx="527.1" cy="309.6" r="4" fill="#6eb6ec" /><circle cx="538.2" cy="309.6" r="4" fill="#6eb6ec" /><circle cx="549.4" cy="309.5" r="4" fill="#6eb6ec" /><circle cx="560.6" cy="309.4" r="4" fill="#6eb6ec" /><circle cx="571.8" cy="309.4" r="4" fill="#6eb6ec" /><circle cx="582.9" cy="309.4" r="4" fill="#6eb6ec" /><circle cx="594.1" cy="309.4" r="4" fill="#6eb6ec" /><circle cx="605.3" cy="309.2" r="4" fill="#6eb6ec" /><circle cx="616.5" cy="309.2" r="4" fill="#6eb6ec" /><circle cx="627.6" cy="309.2" r="4" fill="#6eb6ec" /><circle cx="638.8" cy="309.4" r="4" fill="#6eb6ec" /><circle cx="650.0" cy="309.4" r="4" fill="#6eb6ec" /><circle cx="661.2" cy="309.5" r="4" fill="#6eb6ec" /><circle cx="672.4" cy="309.2" r="4" fill="#6eb6ec" /><circle cx="683.5" cy="309.2" r="4" fill="#6eb6ec" /><circle cx="694.7" cy="309.4" r="4" fill="#6eb6ec" /><circle cx="705.9" cy="309.2" r="4" fill="#6eb6ec" /><circle cx="717.1" cy="309.2" r="4" fill="#6eb6ec" /><circle cx="728.2" cy="309.2" r="4" fill="#6eb6ec" /><circle cx="739.4" cy="309.2" r="4" fill="#6eb6ec" /><circle cx="750.6" cy="309.2" r="4" fill="#6eb6ec" /><circle cx="761.8" cy="309.1" r="4" fill="#6eb6ec" /><circle cx="772.9" cy="309.1" r="4" fill="#6eb6ec" /><circle cx="784.1" cy="309.1" r="4" fill="#6eb6ec" /><circle cx="795.3" cy="309.1" r="4" fill="#6eb6ec" /><circle cx="806.5" cy="309.0" r="4" fill="#6eb6ec" /><circle cx="817.6" cy="309.0" r="4" fill="#6eb6ec" /><circle cx="828.8" cy="308.9" r="4" fill="#6eb6ec" /><circle cx="840.0" cy="308.9" r="4" fill="#6eb6ec" /><polyline points="80.0,305.8 91.2,305.8 102.4,305.8 113.5,305.8 124.7,305.8 135.9,305.8 147.1,305.8 158.2,305.8 169.4,305.8 180.6,305.8 191.8,304.9 202.9,304.9 214.1,304.9 225.3,304.9 236.5,304.9 247.6,304.9 258.8,304.9 270.0,304.9 281.2,304.9 292.4,304.9 303.5,304.9 314.7,304.9 325.9,304.9 337.1,304.9 348.2,304.9 359.4,304.9 370.6,304.9 381.8,304.9 392.9,304.9 404.1,304.9 415.3,304.9 426.5,304.9 437.6,304.9 448.8,304.9 460.0,304.9 471.2,304.9 482.4,304.9 493.5,303.6 504.7,303.6 515.9,303.6 527.1,303.6 538.2,303.6 549.4,303.6 560.6,303.6 571.8,303.6 582.9,303.6 594.1,303.6 605.3,303.6 616.5,303.6 627.6,303.6 638.8,303.6 650.0,302.9 661.2,302.9 672.4,298.0 683.5,298.0 694.7,298.0 705.9,298.0 717.1,298.0 728.2,298.0 739.4,298.0 750.6,298.0 761.8,298.0 772.9,298.0 784.1,298.0 795.3,298.0 806.5,298.0 817.6,298.0 828.8,297.8 840.0,297.8" fill="none" stroke="#5938e2" stroke-width="2.5" stroke-linecap="round" stroke-linejoin="round" /><circle cx="80.0" cy="305.8" r="4" fill="#5938e2" /><circle cx="91.2" cy="305.8" r="4" fill="#5938e2" /><circle cx="102.4" cy="305.8" r="4" fill="#5938e2" /><circle cx="113.5" cy="305.8" r="4" fill="#5938e2" /><circle cx="124.7" cy="305.8" r="4" fill="#5938e2" /><circle cx="135.9" cy="305.8" r="4" fill="#5938e2" /><circle cx="147.1" cy="305.8" r="4" fill="#5938e2" /><circle cx="158.2" cy="305.8" r="4" fill="#5938e2" /><circle cx="169.4" cy="305.8" r="4" fill="#5938e2" /><circle cx="180.6" cy="305.8" r="4" fill="#5938e2" /><circle cx="191.8" cy="304.9" r="4" fill="#5938e2" /><circle cx="202.9" cy="304.9" r="4" fill="#5938e2" /><circle cx="214.1" cy="304.9" r="4" fill="#5938e2" /><circle cx="225.3" cy="304.9" r="4" fill="#5938e2" /><circle cx="236.5" cy="304.9" r="4" fill="#5938e2" /><circle cx="247.6" cy="304.9" r="4" fill="#5938e2" /><circle cx="258.8" cy="304.9" r="4" fill="#5938e2" /><circle cx="270.0" cy="304.9" r="4" fill="#5938e2" /><circle cx="281.2" cy="304.9" r="4" fill="#5938e2" /><circle cx="292.4" cy="304.9" r="4" fill="#5938e2" /><circle cx="303.5" cy="304.9" r="4" fill="#5938e2" /><circle cx="314.7" cy="304.9" r="4" fill="#5938e2" /><circle cx="325.9" cy="304.9" r="4" fill="#5938e2" /><circle cx="337.1" cy="304.9" r="4" fill="#5938e2" /><circle cx="348.2" cy="304.9" r="4" fill="#5938e2" /><circle cx="359.4" cy="304.9" r="4" fill="#5938e2" /><circle cx="370.6" cy="304.9" r="4" fill="#5938e2" /><circle cx="381.8" cy="304.9" r="4" fill="#5938e2" /><circle cx="392.9" cy="304.9" r="4" fill="#5938e2" /><circle cx="404.1" cy="304.9" r="4" fill="#5938e2" /><circle cx="415.3" cy="304.9" r="4" fill="#5938e2" /><circle cx="426.5" cy="304.9" r="4" fill="#5938e2" /><circle cx="437.6" cy="304.9" r="4" fill="#5938e2" /><circle cx="448.8" cy="304.9" r="4" fill="#5938e2" /><circle cx="460.0" cy="304.9" r="4" fill="#5938e2" /><circle cx="471.2" cy="304.9" r="4" fill="#5938e2" /><circle cx="482.4" cy="304.9" r="4" fill="#5938e2" /><circle cx="493.5" cy="303.6" r="4" fill="#5938e2" /><circle cx="504.7" cy="303.6" r="4" fill="#5938e2" /><circle cx="515.9" cy="303.6" r="4" fill="#5938e2" /><circle cx="527.1" cy="303.6" r="4" fill="#5938e2" /><circle cx="538.2" cy="303.6" r="4" fill="#5938e2" /><circle cx="549.4" cy="303.6" r="4" fill="#5938e2" /><circle cx="560.6" cy="303.6" r="4" fill="#5938e2" /><circle cx="571.8" cy="303.6" r="4" fill="#5938e2" /><circle cx="582.9" cy="303.6" r="4" fill="#5938e2" /><circle cx="594.1" cy="303.6" r="4" fill="#5938e2" /><circle cx="605.3" cy="303.6" r="4" fill="#5938e2" /><circle cx="616.5" cy="303.6" r="4" fill="#5938e2" /><circle cx="627.6" cy="303.6" r="4" fill="#5938e2" /><circle cx="638.8" cy="303.6" r="4" fill="#5938e2" /><circle cx="650.0" cy="302.9" r="4" fill="#5938e2" /><circle cx="661.2" cy="302.9" r="4" fill="#5938e2" /><circle cx="672.4" cy="298.0" r="4" fill="#5938e2" /><circle cx="683.5" cy="298.0" r="4" fill="#5938e2" /><circle cx="694.7" cy="298.0" r="4" fill="#5938e2" /><circle cx="705.9" cy="298.0" r="4" fill="#5938e2" /><circle cx="717.1" cy="298.0" r="4" fill="#5938e2" /><circle cx="728.2" cy="298.0" r="4" fill="#5938e2" /><circle cx="739.4" cy="298.0" r="4" fill="#5938e2" /><circle cx="750.6" cy="298.0" r="4" fill="#5938e2" /><circle cx="761.8" cy="298.0" r="4" fill="#5938e2" /><circle cx="772.9" cy="298.0" r="4" fill="#5938e2" /><circle cx="784.1" cy="298.0" r="4" fill="#5938e2" /><circle cx="795.3" cy="298.0" r="4" fill="#5938e2" /><circle cx="806.5" cy="298.0" r="4" fill="#5938e2" /><circle cx="817.6" cy="298.0" r="4" fill="#5938e2" /><circle cx="828.8" cy="297.8" r="4" fill="#5938e2" /><circle cx="840.0" cy="297.8" r="4" fill="#5938e2" /><polyline points="80.0,144.6 91.2,140.1 102.4,139.9 113.5,139.8 124.7,139.8 135.9,139.6 147.1,139.6 158.2,139.6 169.4,139.6 180.6,139.6 191.8,138.4 202.9,138.4 214.1,138.4 225.3,138.4 236.5,138.4 247.6,138.4 258.8,138.4 270.0,137.4 281.2,137.4 292.4,137.4 303.5,137.4 314.7,137.4 325.9,137.4 337.1,137.4 348.2,137.4 359.4,137.4 370.6,137.4 381.8,137.4 392.9,131.2 404.1,131.2 415.3,130.8 426.5,130.4 437.6,126.9 448.8,126.9 460.0,126.9 471.2,126.9 482.4,126.9 493.5,126.9 504.7,126.9 515.9,126.9 527.1,126.9 538.2,126.8 549.4,122.1 560.6,120.4 571.8,120.4 582.9,120.4 594.1,120.4 605.3,120.4 616.5,119.4 627.6,119.4 638.8,119.4 650.0,119.4 661.2,119.1 672.4,118.8 683.5,118.8 694.7,117.8 705.9,117.8 717.1,117.8 728.2,115.8 739.4,115.8 750.6,115.0 761.8,115.0 772.9,115.0 784.1,115.0 795.3,115.0 806.5,115.0 817.6,115.0 828.8,113.9 840.0,111.8" fill="none" stroke="#60e5e0" stroke-width="2.5" stroke-linecap="round" stroke-linejoin="round" /><circle cx="80.0" cy="144.6" r="4" fill="#60e5e0" /><circle cx="91.2" cy="140.1" r="4" fill="#60e5e0" /><circle cx="102.4" cy="139.9" r="4" fill="#60e5e0" /><circle cx="113.5" cy="139.8" r="4" fill="#60e5e0" /><circle cx="124.7" cy="139.8" r="4" fill="#60e5e0" /><circle cx="135.9" cy="139.6" r="4" fill="#60e5e0" /><circle cx="147.1" cy="139.6" r="4" fill="#60e5e0" /><circle cx="158.2" cy="139.6" r="4" fill="#60e5e0" /><circle cx="169.4" cy="139.6" r="4" fill="#60e5e0" /><circle cx="180.6" cy="139.6" r="4" fill="#60e5e0" /><circle cx="191.8" cy="138.4" r="4" fill="#60e5e0" /><circle cx="202.9" cy="138.4" r="4" fill="#60e5e0" /><circle cx="214.1" cy="138.4" r="4" fill="#60e5e0" /><circle cx="225.3" cy="138.4" r="4" fill="#60e5e0" /><circle cx="236.5" cy="138.4" r="4" fill="#60e5e0" /><circle cx="247.6" cy="138.4" r="4" fill="#60e5e0" /><circle cx="258.8" cy="138.4" r="4" fill="#60e5e0" /><circle cx="270.0" cy="137.4" r="4" fill="#60e5e0" /><circle cx="281.2" cy="137.4" r="4" fill="#60e5e0" /><circle cx="292.4" cy="137.4" r="4" fill="#60e5e0" /><circle cx="303.5" cy="137.4" r="4" fill="#60e5e0" /><circle cx="314.7" cy="137.4" r="4" fill="#60e5e0" /><circle cx="325.9" cy="137.4" r="4" fill="#60e5e0" /><circle cx="337.1" cy="137.4" r="4" fill="#60e5e0" /><circle cx="348.2" cy="137.4" r="4" fill="#60e5e0" /><circle cx="359.4" cy="137.4" r="4" fill="#60e5e0" /><circle cx="370.6" cy="137.4" r="4" fill="#60e5e0" /><circle cx="381.8" cy="137.4" r="4" fill="#60e5e0" /><circle cx="392.9" cy="131.2" r="4" fill="#60e5e0" /><circle cx="404.1" cy="131.2" r="4" fill="#60e5e0" /><circle cx="415.3" cy="130.8" r="4" fill="#60e5e0" /><circle cx="426.5" cy="130.4" r="4" fill="#60e5e0" /><circle cx="437.6" cy="126.9" r="4" fill="#60e5e0" /><circle cx="448.8" cy="126.9" r="4" fill="#60e5e0" /><circle cx="460.0" cy="126.9" r="4" fill="#60e5e0" /><circle cx="471.2" cy="126.9" r="4" fill="#60e5e0" /><circle cx="482.4" cy="126.9" r="4" fill="#60e5e0" /><circle cx="493.5" cy="126.9" r="4" fill="#60e5e0" /><circle cx="504.7" cy="126.9" r="4" fill="#60e5e0" /><circle cx="515.9" cy="126.9" r="4" fill="#60e5e0" /><circle cx="527.1" cy="126.9" r="4" fill="#60e5e0" /><circle cx="538.2" cy="126.8" r="4" fill="#60e5e0" /><circle cx="549.4" cy="122.1" r="4" fill="#60e5e0" /><circle cx="560.6" cy="120.4" r="4" fill="#60e5e0" /><circle cx="571.8" cy="120.4" r="4" fill="#60e5e0" /><circle cx="582.9" cy="120.4" r="4" fill="#60e5e0" /><circle cx="594.1" cy="120.4" r="4" fill="#60e5e0" /><circle cx="605.3" cy="120.4" r="4" fill="#60e5e0" /><circle cx="616.5" cy="119.4" r="4" fill="#60e5e0" /><circle cx="627.6" cy="119.4" r="4" fill="#60e5e0" /><circle cx="638.8" cy="119.4" r="4" fill="#60e5e0" /><circle cx="650.0" cy="119.4" r="4" fill="#60e5e0" /><circle cx="661.2" cy="119.1" r="4" fill="#60e5e0" /><circle cx="672.4" cy="118.8" r="4" fill="#60e5e0" /><circle cx="683.5" cy="118.8" r="4" fill="#60e5e0" /><circle cx="694.7" cy="117.8" r="4" fill="#60e5e0" /><circle cx="705.9" cy="117.8" r="4" fill="#60e5e0" /><circle cx="717.1" cy="117.8" r="4" fill="#60e5e0" /><circle cx="728.2" cy="115.8" r="4" fill="#60e5e0" /><circle cx="739.4" cy="115.8" r="4" fill="#60e5e0" /><circle cx="750.6" cy="115.0" r="4" fill="#60e5e0" /><circle cx="761.8" cy="115.0" r="4" fill="#60e5e0" /><circle cx="772.9" cy="115.0" r="4" fill="#60e5e0" /><circle cx="784.1" cy="115.0" r="4" fill="#60e5e0" /><circle cx="795.3" cy="115.0" r="4" fill="#60e5e0" /><circle cx="806.5" cy="115.0" r="4" fill="#60e5e0" /><circle cx="817.6" cy="115.0" r="4" fill="#60e5e0" /><circle cx="828.8" cy="113.9" r="4" fill="#60e5e0" /><circle cx="840.0" cy="111.8" r="4" fill="#60e5e0" /><polyline points="80.0,314.6 91.2,314.4 102.4,314.2 113.5,314.2 124.7,314.2 135.9,314.1 147.1,314.1 158.2,314.1 169.4,314.1 180.6,314.1 191.8,314.0 202.9,314.0 214.1,314.0 225.3,314.0 236.5,314.0 247.6,314.0 258.8,314.0 270.0,314.0 281.2,314.0 292.4,314.0 303.5,314.0 314.7,314.0 325.9,314.0 337.1,314.0 348.2,314.0 359.4,314.0 370.6,314.0 381.8,314.0 392.9,314.0 404.1,314.0 415.3,314.0 426.5,314.0 437.6,314.0 448.8,314.0 460.0,314.0 471.2,314.0 482.4,314.0 493.5,314.0 504.7,314.0 515.9,314.0 527.1,314.0 538.2,313.9 549.4,313.6 560.6,313.4 571.8,313.4 582.9,313.4 594.1,313.4 605.3,313.4 616.5,313.1 627.6,313.1 638.8,313.1 650.0,313.1 661.2,313.1 672.4,313.0 683.5,313.0 694.7,312.9 705.9,312.9 717.1,312.9 728.2,312.8 739.4,312.8 750.6,312.6 761.8,312.6 772.9,312.6 784.1,312.6 795.3,312.6 806.5,312.6 817.6,312.6 828.8,312.5 840.0,312.1" fill="none" stroke="#567de1" stroke-width="2.5" stroke-linecap="round" stroke-linejoin="round" /><circle cx="80.0" cy="314.6" r="4" fill="#567de1" /><circle cx="91.2" cy="314.4" r="4" fill="#567de1" /><circle cx="102.4" cy="314.2" r="4" fill="#567de1" /><circle cx="113.5" cy="314.2" r="4" fill="#567de1" /><circle cx="124.7" cy="314.2" r="4" fill="#567de1" /><circle cx="135.9" cy="314.1" r="4" fill="#567de1" /><circle cx="147.1" cy="314.1" r="4" fill="#567de1" /><circle cx="158.2" cy="314.1" r="4" fill="#567de1" /><circle cx="169.4" cy="314.1" r="4" fill="#567de1" /><circle cx="180.6" cy="314.1" r="4" fill="#567de1" /><circle cx="191.8" cy="314.0" r="4" fill="#567de1" /><circle cx="202.9" cy="314.0" r="4" fill="#567de1" /><circle cx="214.1" cy="314.0" r="4" fill="#567de1" /><circle cx="225.3" cy="314.0" r="4" fill="#567de1" /><circle cx="236.5" cy="314.0" r="4" fill="#567de1" /><circle cx="247.6" cy="314.0" r="4" fill="#567de1" /><circle cx="258.8" cy="314.0" r="4" fill="#567de1" /><circle cx="270.0" cy="314.0" r="4" fill="#567de1" /><circle cx="281.2" cy="314.0" r="4" fill="#567de1" /><circle cx="292.4" cy="314.0" r="4" fill="#567de1" /><circle cx="303.5" cy="314.0" r="4" fill="#567de1" /><circle cx="314.7" cy="314.0" r="4" fill="#567de1" /><circle cx="325.9" cy="314.0" r="4" fill="#567de1" /><circle cx="337.1" cy="314.0" r="4" fill="#567de1" /><circle cx="348.2" cy="314.0" r="4" fill="#567de1" /><circle cx="359.4" cy="314.0" r="4" fill="#567de1" /><circle cx="370.6" cy="314.0" r="4" fill="#567de1" /><circle cx="381.8" cy="314.0" r="4" fill="#567de1" /><circle cx="392.9" cy="314.0" r="4" fill="#567de1" /><circle cx="404.1" cy="314.0" r="4" fill="#567de1" /><circle cx="415.3" cy="314.0" r="4" fill="#567de1" /><circle cx="426.5" cy="314.0" r="4" fill="#567de1" /><circle cx="437.6" cy="314.0" r="4" fill="#567de1" /><circle cx="448.8" cy="314.0" r="4" fill="#567de1" /><circle cx="460.0" cy="314.0" r="4" fill="#567de1" /><circle cx="471.2" cy="314.0" r="4" fill="#567de1" /><circle cx="482.4" cy="314.0" r="4" fill="#567de1" /><circle cx="493.5" cy="314.0" r="4" fill="#567de1" /><circle cx="504.7" cy="314.0" r="4" fill="#567de1" /><circle cx="515.9" cy="314.0" r="4" fill="#567de1" /><circle cx="527.1" cy="314.0" r="4" fill="#567de1" /><circle cx="538.2" cy="313.9" r="4" fill="#567de1" /><circle cx="549.4" cy="313.6" r="4" fill="#567de1" /><circle cx="560.6" cy="313.4" r="4" fill="#567de1" /><circle cx="571.8" cy="313.4" r="4" fill="#567de1" /><circle cx="582.9" cy="313.4" r="4" fill="#567de1" /><circle cx="594.1" cy="313.4" r="4" fill="#567de1" /><circle cx="605.3" cy="313.4" r="4" fill="#567de1" /><circle cx="616.5" cy="313.1" r="4" fill="#567de1" /><circle cx="627.6" cy="313.1" r="4" fill="#567de1" /><circle cx="638.8" cy="313.1" r="4" fill="#567de1" /><circle cx="650.0" cy="313.1" r="4" fill="#567de1" /><circle cx="661.2" cy="313.1" r="4" fill="#567de1" /><circle cx="672.4" cy="313.0" r="4" fill="#567de1" /><circle cx="683.5" cy="313.0" r="4" fill="#567de1" /><circle cx="694.7" cy="312.9" r="4" fill="#567de1" /><circle cx="705.9" cy="312.9" r="4" fill="#567de1" /><circle cx="717.1" cy="312.9" r="4" fill="#567de1" /><circle cx="728.2" cy="312.8" r="4" fill="#567de1" /><circle cx="739.4" cy="312.8" r="4" fill="#567de1" /><circle cx="750.6" cy="312.6" r="4" fill="#567de1" /><circle cx="761.8" cy="312.6" r="4" fill="#567de1" /><circle cx="772.9" cy="312.6" r="4" fill="#567de1" /><circle cx="784.1" cy="312.6" r="4" fill="#567de1" /><circle cx="795.3" cy="312.6" r="4" fill="#567de1" /><circle cx="806.5" cy="312.6" r="4" fill="#567de1" /><circle cx="817.6" cy="312.6" r="4" fill="#567de1" /><circle cx="828.8" cy="312.5" r="4" fill="#567de1" /><circle cx="840.0" cy="312.1" r="4" fill="#567de1" /><polyline points="80.0,303.9 91.2,304.2 102.4,304.4 113.5,304.4 124.7,304.4 135.9,304.4 147.1,304.4 158.2,304.4 169.4,304.4 180.6,304.4 191.8,304.4 202.9,304.4 214.1,304.4 225.3,304.4 236.5,304.4 247.6,304.4 258.8,304.4 270.0,304.4 281.2,304.4 292.4,304.4 303.5,304.4 314.7,304.4 325.9,304.4 337.1,304.4 348.2,304.4 359.4,304.4 370.6,304.4 381.8,304.4 392.9,299.1 404.1,299.1 415.3,299.1 426.5,298.9 437.6,295.6 448.8,295.6 460.0,295.6 471.2,295.6 482.4,295.6 493.5,295.6 504.7,295.6 515.9,295.6 527.1,295.6 538.2,295.8 549.4,295.9 560.6,295.9 571.8,295.9 582.9,295.9 594.1,295.9 605.3,295.9 616.5,295.9 627.6,295.9 638.8,295.9 650.0,295.9 661.2,295.9 672.4,295.9 683.5,295.9 694.7,295.9 705.9,295.9 717.1,295.9 728.2,295.8 739.4,295.8 750.6,295.9 761.8,295.9 772.9,295.9 784.1,295.9 795.3,295.9 806.5,295.9 817.6,295.9 828.8,296.0 840.0,296.4" fill="none" stroke="#9754dd" stroke-width="2.5" stroke-linecap="round" stroke-linejoin="round" /><circle cx="80.0" cy="303.9" r="4" fill="#9754dd" /><circle cx="91.2" cy="304.2" r="4" fill="#9754dd" /><circle cx="102.4" cy="304.4" r="4" fill="#9754dd" /><circle cx="113.5" cy="304.4" r="4" fill="#9754dd" /><circle cx="124.7" cy="304.4" r="4" fill="#9754dd" /><circle cx="135.9" cy="304.4" r="4" fill="#9754dd" /><circle cx="147.1" cy="304.4" r="4" fill="#9754dd" /><circle cx="158.2" cy="304.4" r="4" fill="#9754dd" /><circle cx="169.4" cy="304.4" r="4" fill="#9754dd" /><circle cx="180.6" cy="304.4" r="4" fill="#9754dd" /><circle cx="191.8" cy="304.4" r="4" fill="#9754dd" /><circle cx="202.9" cy="304.4" r="4" fill="#9754dd" /><circle cx="214.1" cy="304.4" r="4" fill="#9754dd" /><circle cx="225.3" cy="304.4" r="4" fill="#9754dd" /><circle cx="236.5" cy="304.4" r="4" fill="#9754dd" /><circle cx="247.6" cy="304.4" r="4" fill="#9754dd" /><circle cx="258.8" cy="304.4" r="4" fill="#9754dd" /><circle cx="270.0" cy="304.4" r="4" fill="#9754dd" /><circle cx="281.2" cy="304.4" r="4" fill="#9754dd" /><circle cx="292.4" cy="304.4" r="4" fill="#9754dd" /><circle cx="303.5" cy="304.4" r="4" fill="#9754dd" /><circle cx="314.7" cy="304.4" r="4" fill="#9754dd" /><circle cx="325.9" cy="304.4" r="4" fill="#9754dd" /><circle cx="337.1" cy="304.4" r="4" fill="#9754dd" /><circle cx="348.2" cy="304.4" r="4" fill="#9754dd" /><circle cx="359.4" cy="304.4" r="4" fill="#9754dd" /><circle cx="370.6" cy="304.4" r="4" fill="#9754dd" /><circle cx="381.8" cy="304.4" r="4" fill="#9754dd" /><circle cx="392.9" cy="299.1" r="4" fill="#9754dd" /><circle cx="404.1" cy="299.1" r="4" fill="#9754dd" /><circle cx="415.3" cy="299.1" r="4" fill="#9754dd" /><circle cx="426.5" cy="298.9" r="4" fill="#9754dd" /><circle cx="437.6" cy="295.6" r="4" fill="#9754dd" /><circle cx="448.8" cy="295.6" r="4" fill="#9754dd" /><circle cx="460.0" cy="295.6" r="4" fill="#9754dd" /><circle cx="471.2" cy="295.6" r="4" fill="#9754dd" /><circle cx="482.4" cy="295.6" r="4" fill="#9754dd" /><circle cx="493.5" cy="295.6" r="4" fill="#9754dd" /><circle cx="504.7" cy="295.6" r="4" fill="#9754dd" /><circle cx="515.9" cy="295.6" r="4" fill="#9754dd" /><circle cx="527.1" cy="295.6" r="4" fill="#9754dd" /><circle cx="538.2" cy="295.8" r="4" fill="#9754dd" /><circle cx="549.4" cy="295.9" r="4" fill="#9754dd" /><circle cx="560.6" cy="295.9" r="4" fill="#9754dd" /><circle cx="571.8" cy="295.9" r="4" fill="#9754dd" /><circle cx="582.9" cy="295.9" r="4" fill="#9754dd" /><circle cx="594.1" cy="295.9" r="4" fill="#9754dd" /><circle cx="605.3" cy="295.9" r="4" fill="#9754dd" /><circle cx="616.5" cy="295.9" r="4" fill="#9754dd" /><circle cx="627.6" cy="295.9" r="4" fill="#9754dd" /><circle cx="638.8" cy="295.9" r="4" fill="#9754dd" /><circle cx="650.0" cy="295.9" r="4" fill="#9754dd" /><circle cx="661.2" cy="295.9" r="4" fill="#9754dd" /><circle cx="672.4" cy="295.9" r="4" fill="#9754dd" /><circle cx="683.5" cy="295.9" r="4" fill="#9754dd" /><circle cx="694.7" cy="295.9" r="4" fill="#9754dd" /><circle cx="705.9" cy="295.9" r="4" fill="#9754dd" /><circle cx="717.1" cy="295.9" r="4" fill="#9754dd" /><circle cx="728.2" cy="295.8" r="4" fill="#9754dd" /><circle cx="739.4" cy="295.8" r="4" fill="#9754dd" /><circle cx="750.6" cy="295.9" r="4" fill="#9754dd" /><circle cx="761.8" cy="295.9" r="4" fill="#9754dd" /><circle cx="772.9" cy="295.9" r="4" fill="#9754dd" /><circle cx="784.1" cy="295.9" r="4" fill="#9754dd" /><circle cx="795.3" cy="295.9" r="4" fill="#9754dd" /><circle cx="806.5" cy="295.9" r="4" fill="#9754dd" /><circle cx="817.6" cy="295.9" r="4" fill="#9754dd" /><circle cx="828.8" cy="296.0" r="4" fill="#9754dd" /><circle cx="840.0" cy="296.4" r="4" fill="#9754dd" />
  <rect x="80" y="339" width="10" height="10" rx="2" ry="2" fill="#19e5a1" /><text x="96" y="348" class="legend-label">Stars</text><rect x="250" y="339" width="10" height="10" rx="2" ry="2" fill="#6eb6ec" /><text x="266" y="348" class="legend-label">Followers</text><rect x="420" y="339" width="10" height="10" rx="2" ry="2" fill="#5938e2" /><text x="436" y="348" class="legend-label">Following</text><rect x="590" y="339" width="10" height="10" rx="2" ry="2" fill="#60e5e0" /><text x="606" y="348" class="legend-label">Contributions</text><rect x="80" y="357" width="10" height="10" rx="2" ry="2" fill="#567de1" /><text x="96" y="366" class="legend-label">Pull Requests</text><rect x="250" y="357" width="10" height="10" rx="2" ry="2" fill="#9754dd" /><text x="266" y="366" class="legend-label">Issues</text>
</svg>
