<svg width="900" height="402" viewBox="0 0 900 402" xmlns="http://www.w3.org/2000/svg">
  <defs>
    <linearGradient id="history-gradient" x1="0%" y1="0%" x2="100%" y2="100%">
      <stop offset="0%" style="stop-color:#58a6ff;stop-opacity:1" />
      <stop offset="100%" style="stop-color:#a371f7;stop-opacity:1" />
    </linearGradient>
    <clipPath id="history-rounded">
      <rect x="0" y="0" width="900" height="402" rx="8" ry="8" />
    </clipPath>
  </defs>
  <style>
    .title {
      font-family: 'Segoe UI', Ubuntu, 'Helvetica Neue', sans-serif;
      font-size: 22px;
      font-weight: 700;
      fill: #58a6ff;
    }
    .subtitle {
      font-family: 'Segoe UI', Ubuntu, 'Helvetica Neue', sans-serif;
      font-size: 12px;
      font-weight: 500;
      fill: #8b949e;
    }
    .axis-label {
      font-family: 'Segoe UI', Ubuntu, 'Helvetica Neue', sans-serif;
      font-size: 10px;
      fill: #8b949e;
    }
    .grid-line {
      stroke: #30363d;
      stroke-width: 1;
      opacity: 0.3;
    }
    .legend-label {
      font-family: 'Segoe UI', Ubuntu, 'Helvetica Neue', sans-serif;
      font-size: 11px;
      fill: #c9d1d9;
      dominant-baseline: middle;
    }
  </style>
  <rect clip-path="url(#history-rounded)" width="100%" height="100%" fill="#0d1117" stroke="#30363d" stroke-width="1" />
  <rect x="0" y="396" width="900" height="6" fill="url(#history-gradient)" clip-path="url(#history-rounded)" />
  <text x="24" y="34" class="title">Leonardo Klein Stats History</text>
  <text x="24" y="54" class="subtitle">Period: 2026-02-20 to 2026-03-11</text>
  <text x="72" y="320.0" text-anchor="end" dominant-baseline="central" class="axis-label">0</text><text x="72" y="270.0" text-anchor="end" dominant-baseline="central" class="axis-label">400</text><text x="72" y="220.0" text-anchor="end" dominant-baseline="central" class="axis-label">800</text><text x="72" y="170.0" text-anchor="end" dominant-baseline="central" class="axis-label">1.2k</text><text x="72" y="120.0" text-anchor="end" dominant-baseline="central" class="axis-label">1.6k</text><text x="72" y="70.0" text-anchor="end" dominant-baseline="central" class="axis-label">2.0k</text>
  <text x="80.0" y="336" text-anchor="middle" class="axis-label">02-20</text><text x="150.5" y="336" text-anchor="middle" class="axis-label">02-22</text><text x="221.0" y="336" text-anchor="middle" class="axis-label">02-24</text><text x="291.5" y="336" text-anchor="middle" class="axis-label">02-25</text><text x="362.1" y="336" text-anchor="middle" class="axis-label">02-27</text><text x="432.6" y="336" text-anchor="middle" class="axis-label">03-01</text><text x="503.1" y="336" text-anchor="middle" class="axis-label">03-03</text><text x="573.6" y="336" text-anchor="middle" class="axis-label">03-05</text><text x="644.1" y="336" text-anchor="middle" class="axis-label">03-06</text><text x="714.6" y="336" text-anchor="middle" class="axis-label">03-08</text><text x="785.2" y="336" text-anchor="middle" class="axis-label">03-10</text><text x="840.0" y="336" text-anchor="middle" class="axis-label">03-11</text>
  <line x1="80" y1="320.0" x2="840" y2="320.0" class="grid-line" /><line x1="80" y1="270.0" x2="840" y2="270.0" class="grid-line" /><line x1="80" y1="220.0" x2="840" y2="220.0" class="grid-line" /><line x1="80" y1="170.0" x2="840" y2="170.0" class="grid-line" /><line x1="80" y1="120.0" x2="840" y2="120.0" class="grid-line" /><line x1="80" y1="70.0" x2="840" y2="70.0" class="grid-line" />
  <polyline points="80.0,317.0 87.8,317.0 95.7,317.0 103.5,317.0 111.3,317.0 119.2,317.0 127.0,317.0 134.8,317.0 142.7,317.0 150.5,317.0 158.4,317.0 166.2,317.0 174.0,317.0 181.9,317.0 189.7,317.0 197.5,317.0 205.4,317.0 213.2,317.0 221.0,317.0 228.9,317.0 236.7,317.0 244.5,317.0 252.4,317.0 260.2,317.0 268.0,317.0 275.9,317.0 283.7,317.0 291.5,317.0 299.4,317.0 307.2,317.0 315.1,317.0 322.9,317.0 330.7,317.0 338.6,317.0 346.4,317.0 354.2,317.0 362.1,317.0 369.9,317.0 377.7,317.0 385.6,317.0 393.4,317.0 401.2,317.0 409.1,317.0 416.9,317.0 424.7,317.0 432.6,317.0 440.4,317.0 448.2,317.0 456.1,317.0 463.9,317.0 471.8,317.0 479.6,317.0 487.4,317.0 495.3,317.0 503.1,317.0 510.9,317.0 518.8,317.0 526.6,317.0 534.4,317.0 542.3,317.0 550.1,317.0 557.9,317.0 565.8,317.0 573.6,317.0 581.4,317.0 589.3,317.0 597.1,317.0 604.9,317.0 612.8,317.0 620.6,317.0 628.5,317.0 636.3,317.0 644.1,317.0 652.0,317.0 659.8,317.0 667.6,317.0 675.5,317.0 683.3,317.0 691.1,317.0 699.0,317.0 706.8,317.0 714.6,317.0 722.5,317.0 730.3,317.0 738.1,317.0 746.0,317.0 753.8,317.0 761.6,317.0 769.5,317.0 777.3,317.0 785.2,317.0 793.0,317.0 800.8,317.0 808.7,317.0 816.5,317.0 824.3,317.0 832.2,317.0 840.0,317.0" fill="none" stroke="#19e5a1" stroke-width="2.5" stroke-linecap="round" stroke-linejoin="round" /><circle cx="80.0" cy="317.0" r="4" fill="#19e5a1" /><circle cx="87.8" cy="317.0" r="4" fill="#19e5a1" /><circle cx="95.7" cy="317.0" r="4" fill="#19e5a1" /><circle cx="103.5" cy="317.0" r="4" fill="#19e5a1" /><circle cx="111.3" cy="317.0" r="4" fill="#19e5a1" /><circle cx="119.2" cy="317.0" r="4" fill="#19e5a1" /><circle cx="127.0" cy="317.0" r="4" fill="#19e5a1" /><circle cx="134.8" cy="317.0" r="4" fill="#19e5a1" /><circle cx="142.7" cy="317.0" r="4" fill="#19e5a1" /><circle cx="150.5" cy="317.0" r="4" fill="#19e5a1" /><circle cx="158.4" cy="317.0" r="4" fill="#19e5a1" /><circle cx="166.2" cy="317.0" r="4" fill="#19e5a1" /><circle cx="174.0" cy="317.0" r="4" fill="#19e5a1" /><circle cx="181.9" cy="317.0" r="4" fill="#19e5a1" /><circle cx="189.7" cy="317.0" r="4" fill="#19e5a1" /><circle cx="197.5" cy="317.0" r="4" fill="#19e5a1" /><circle cx="205.4" cy="317.0" r="4" fill="#19e5a1" /><circle cx="213.2" cy="317.0" r="4" fill="#19e5a1" /><circle cx="221.0" cy="317.0" r="4" fill="#19e5a1" /><circle cx="228.9" cy="317.0" r="4" fill="#19e5a1" /><circle cx="236.7" cy="317.0" r="4" fill="#19e5a1" /><circle cx="244.5" cy="317.0" r="4" fill="#19e5a1" /><circle cx="252.4" cy="317.0" r="4" fill="#19e5a1" /><circle cx="260.2" cy="317.0" r="4" fill="#19e5a1" /><circle cx="268.0" cy="317.0" r="4" fill="#19e5a1" /><circle cx="275.9" cy="317.0" r="4" fill="#19e5a1" /><circle cx="283.7" cy="317.0" r="4" fill="#19e5a1" /><circle cx="291.5" cy="317.0" r="4" fill="#19e5a1" /><circle cx="299.4" cy="317.0" r="4" fill="#19e5a1" /><circle cx="307.2" cy="317.0" r="4" fill="#19e5a1" /><circle cx="315.1" cy="317.0" r="4" fill="#19e5a1" /><circle cx="322.9" cy="317.0" r="4" fill="#19e5a1" /><circle cx="330.7" cy="317.0" r="4" fill="#19e5a1" /><circle cx="338.6" cy="317.0" r="4" fill="#19e5a1" /><circle cx="346.4" cy="317.0" r="4" fill="#19e5a1" /><circle cx="354.2" cy="317.0" r="4" fill="#19e5a1" /><circle cx="362.1" cy="317.0" r="4" fill="#19e5a1" /><circle cx="369.9" cy="317.0" r="4" fill="#19e5a1" /><circle cx="377.7" cy="317.0" r="4" fill="#19e5a1" /><circle cx="385.6" cy="317.0" r="4" fill="#19e5a1" /><circle cx="393.4" cy="317.0" r="4" fill="#19e5a1" /><circle cx="401.2" cy="317.0" r="4" fill="#19e5a1" /><circle cx="409.1" cy="317.0" r="4" fill="#19e5a1" /><circle cx="416.9" cy="317.0" r="4" fill="#19e5a1" /><circle cx="424.7" cy="317.0" r="4" fill="#19e5a1" /><circle cx="432.6" cy="317.0" r="4" fill="#19e5a1" /><circle cx="440.4" cy="317.0" r="4" fill="#19e5a1" /><circle cx="448.2" cy="317.0" r="4" fill="#19e5a1" /><circle cx="456.1" cy="317.0" r="4" fill="#19e5a1" /><circle cx="463.9" cy="317.0" r="4" fill="#19e5a1" /><circle cx="471.8" cy="317.0" r="4" fill="#19e5a1" /><circle cx="479.6" cy="317.0" r="4" fill="#19e5a1" /><circle cx="487.4" cy="317.0" r="4" fill="#19e5a1" /><circle cx="495.3" cy="317.0" r="4" fill="#19e5a1" /><circle cx="503.1" cy="317.0" r="4" fill="#19e5a1" /><circle cx="510.9" cy="317.0" r="4" fill="#19e5a1" /><circle cx="518.8" cy="317.0" r="4" fill="#19e5a1" /><circle cx="526.6" cy="317.0" r="4" fill="#19e5a1" /><circle cx="534.4" cy="317.0" r="4" fill="#19e5a1" /><circle cx="542.3" cy="317.0" r="4" fill="#19e5a1" /><circle cx="550.1" cy="317.0" r="4" fill="#19e5a1" /><circle cx="557.9" cy="317.0" r="4" fill="#19e5a1" /><circle cx="565.8" cy="317.0" r="4" fill="#19e5a1" /><circle cx="573.6" cy="317.0" r="4" fill="#19e5a1" /><circle cx="581.4" cy="317.0" r="4" fill="#19e5a1" /><circle cx="589.3" cy="317.0" r="4" fill="#19e5a1" /><circle cx="597.1" cy="317.0" r="4" fill="#19e5a1" /><circle cx="604.9" cy="317.0" r="4" fill="#19e5a1" /><circle cx="612.8" cy="317.0" r="4" fill="#19e5a1" /><circle cx="620.6" cy="317.0" r="4" fill="#19e5a1" /><circle cx="628.5" cy="317.0" r="4" fill="#19e5a1" /><circle cx="636.3" cy="317.0" r="4" fill="#19e5a1" /><circle cx="644.1" cy="317.0" r="4" fill="#19e5a1" /><circle cx="652.0" cy="317.0" r="4" fill="#19e5a1" /><circle cx="659.8" cy="317.0" r="4" fill="#19e5a1" /><circle cx="667.6" cy="317.0" r="4" fill="#19e5a1" /><circle cx="675.5" cy="317.0" r="4" fill="#19e5a1" /><circle cx="683.3" cy="317.0" r="4" fill="#19e5a1" /><circle cx="691.1" cy="317.0" r="4" fill="#19e5a1" /><circle cx="699.0" cy="317.0" r="4" fill="#19e5a1" /><circle cx="706.8" cy="317.0" r="4" fill="#19e5a1" /><circle cx="714.6" cy="317.0" r="4" fill="#19e5a1" /><circle cx="722.5" cy="317.0" r="4" fill="#19e5a1" /><circle cx="730.3" cy="317.0" r="4" fill="#19e5a1" /><circle cx="738.1" cy="317.0" r="4" fill="#19e5a1" /><circle cx="746.0" cy="317.0" r="4" fill="#19e5a1" /><circle cx="753.8" cy="317.0" r="4" fill="#19e5a1" /><circle cx="761.6" cy="317.0" r="4" fill="#19e5a1" /><circle cx="769.5" cy="317.0" r="4" fill="#19e5a1" /><circle cx="777.3" cy="317.0" r="4" fill="#19e5a1" /><circle cx="785.2" cy="317.0" r="4" fill="#19e5a1" /><circle cx="793.0" cy="317.0" r="4" fill="#19e5a1" /><circle cx="800.8" cy="317.0" r="4" fill="#19e5a1" /><circle cx="808.7" cy="317.0" r="4" fill="#19e5a1" /><circle cx="816.5" cy="317.0" r="4" fill="#19e5a1" /><circle cx="824.3" cy="317.0" r="4" fill="#19e5a1" /><circle cx="832.2" cy="317.0" r="4" fill="#19e5a1" /><circle cx="840.0" cy="317.0" r="4" fill="#19e5a1" /><polyline points="80.0,313.2 87.8,312.2 95.7,312.1 103.5,312.4 111.3,312.4 119.2,312.4 127.0,312.1 134.8,312.0 142.7,311.9 150.5,311.9 158.4,311.8 166.2,311.8 174.0,311.5 181.9,311.5 189.7,311.5 197.5,311.2 205.4,311.2 213.2,311.1 221.0,311.1 228.9,311.1 236.7,310.9 244.5,311.0 252.4,310.8 260.2,310.8 268.0,310.8 275.9,310.8 283.7,310.4 291.5,310.2 299.4,310.4 307.2,310.4 315.1,310.4 322.9,310.4 330.7,310.4 338.6,310.2 346.4,310.2 354.2,310.1 362.1,310.1 369.9,309.8 377.7,309.6 385.6,309.6 393.4,309.6 401.2,309.6 409.1,309.5 416.9,309.4 424.7,309.4 432.6,309.4 440.4,309.4 448.2,309.2 456.1,309.2 463.9,309.2 471.8,309.4 479.6,309.4 487.4,309.5 495.3,309.2 503.1,309.2 510.9,309.4 518.8,309.2 526.6,309.2 534.4,309.2 542.3,309.2 550.1,309.2 557.9,309.1 565.8,309.1 573.6,309.1 581.4,309.1 589.3,309.0 597.1,309.0 604.9,308.9 612.8,308.9 620.6,308.9 628.5,308.6 636.3,308.6 644.1,308.6 652.0,308.6 659.8,308.6 667.6,308.6 675.5,308.6 683.3,308.6 691.1,308.6 699.0,308.6 706.8,308.6 714.6,308.6 722.5,308.6 730.3,307.8 738.1,307.8 746.0,307.6 753.8,307.6 761.6,307.6 769.5,307.5 777.3,307.5 785.2,307.6 793.0,308.5 800.8,308.5 808.7,308.4 816.5,308.4 824.3,307.5 832.2,307.5 840.0,307.2" fill="none" stroke="#6eb6ec" stroke-width="2.5" stroke-linecap="round" stroke-linejoin="round" /><circle cx="80.0" cy="313.2" r="4" fill="#6eb6ec" /><circle cx="87.8" cy="312.2" r="4" fill="#6eb6ec" /><circle cx="95.7" cy="312.1" r="4" fill="#6eb6ec" /><circle cx="103.5" cy="312.4" r="4" fill="#6eb6ec" /><circle cx="111.3" cy="312.4" r="4" fill="#6eb6ec" /><circle cx="119.2" cy="312.4" r="4" fill="#6eb6ec" /><circle cx="127.0" cy="312.1" r="4" fill="#6eb6ec" /><circle cx="134.8" cy="312.0" r="4" fill="#6eb6ec" /><circle cx="142.7" cy="311.9" r="4" fill="#6eb6ec" /><circle cx="150.5" cy="311.9" r="4" fill="#6eb6ec" /><circle cx="158.4" cy="311.8" r="4" fill="#6eb6ec" /><circle cx="166.2" cy="311.8" r="4" fill="#6eb6ec" /><circle cx="174.0" cy="311.5" r="4" fill="#6eb6ec" /><circle cx="181.9" cy="311.5" r="4" fill="#6eb6ec" /><circle cx="189.7" cy="311.5" r="4" fill="#6eb6ec" /><circle cx="197.5" cy="311.2" r="4" fill="#6eb6ec" /><circle cx="205.4" cy="311.2" r="4" fill="#6eb6ec" /><circle cx="213.2" cy="311.1" r="4" fill="#6eb6ec" /><circle cx="221.0" cy="311.1" r="4" fill="#6eb6ec" /><circle cx="228.9" cy="311.1" r="4" fill="#6eb6ec" /><circle cx="236.7" cy="310.9" r="4" fill="#6eb6ec" /><circle cx="244.5" cy="311.0" r="4" fill="#6eb6ec" /><circle cx="252.4" cy="310.8" r="4" fill="#6eb6ec" /><circle cx="260.2" cy="310.8" r="4" fill="#6eb6ec" /><circle cx="268.0" cy="310.8" r="4" fill="#6eb6ec" /><circle cx="275.9" cy="310.8" r="4" fill="#6eb6ec" /><circle cx="283.7" cy="310.4" r="4" fill="#6eb6ec" /><circle cx="291.5" cy="310.2" r="4" fill="#6eb6ec" /><circle cx="299.4" cy="310.4" r="4" fill="#6eb6ec" /><circle cx="307.2" cy="310.4" r="4" fill="#6eb6ec" /><circle cx="315.1" cy="310.4" r="4" fill="#6eb6ec" /><circle cx="322.9" cy="310.4" r="4" fill="#6eb6ec" /><circle cx="330.7" cy="310.4" r="4" fill="#6eb6ec" /><circle cx="338.6" cy="310.2" r="4" fill="#6eb6ec" /><circle cx="346.4" cy="310.2" r="4" fill="#6eb6ec" /><circle cx="354.2" cy="310.1" r="4" fill="#6eb6ec" /><circle cx="362.1" cy="310.1" r="4" fill="#6eb6ec" /><circle cx="369.9" cy="309.8" r="4" fill="#6eb6ec" /><circle cx="377.7" cy="309.6" r="4" fill="#6eb6ec" /><circle cx="385.6" cy="309.6" r="4" fill="#6eb6ec" /><circle cx="393.4" cy="309.6" r="4" fill="#6eb6ec" /><circle cx="401.2" cy="309.6" r="4" fill="#6eb6ec" /><circle cx="409.1" cy="309.5" r="4" fill="#6eb6ec" /><circle cx="416.9" cy="309.4" r="4" fill="#6eb6ec" /><circle cx="424.7" cy="309.4" r="4" fill="#6eb6ec" /><circle cx="432.6" cy="309.4" r="4" fill="#6eb6ec" /><circle cx="440.4" cy="309.4" r="4" fill="#6eb6ec" /><circle cx="448.2" cy="309.2" r="4" fill="#6eb6ec" /><circle cx="456.1" cy="309.2" r="4" fill="#6eb6ec" /><circle cx="463.9" cy="309.2" r="4" fill="#6eb6ec" /><circle cx="471.8" cy="309.4" r="4" fill="#6eb6ec" /><circle cx="479.6" cy="309.4" r="4" fill="#6eb6ec" /><circle cx="487.4" cy="309.5" r="4" fill="#6eb6ec" /><circle cx="495.3" cy="309.2" r="4" fill="#6eb6ec" /><circle cx="503.1" cy="309.2" r="4" fill="#6eb6ec" /><circle cx="510.9" cy="309.4" r="4" fill="#6eb6ec" /><circle cx="518.8" cy="309.2" r="4" fill="#6eb6ec" /><circle cx="526.6" cy="309.2" r="4" fill="#6eb6ec" /><circle cx="534.4" cy="309.2" r="4" fill="#6eb6ec" /><circle cx="542.3" cy="309.2" r="4" fill="#6eb6ec" /><circle cx="550.1" cy="309.2" r="4" fill="#6eb6ec" /><circle cx="557.9" cy="309.1" r="4" fill="#6eb6ec" /><circle cx="565.8" cy="309.1" r="4" fill="#6eb6ec" /><circle cx="573.6" cy="309.1" r="4" fill="#6eb6ec" /><circle cx="581.4" cy="309.1" r="4" fill="#6eb6ec" /><circle cx="589.3" cy="309.0" r="4" fill="#6eb6ec" /><circle cx="597.1" cy="309.0" r="4" fill="#6eb6ec" /><circle cx="604.9" cy="308.9" r="4" fill="#6eb6ec" /><circle cx="612.8" cy="308.9" r="4" fill="#6eb6ec" /><circle cx="620.6" cy="308.9" r="4" fill="#6eb6ec" /><circle cx="628.5" cy="308.6" r="4" fill="#6eb6ec" /><circle cx="636.3" cy="308.6" r="4" fill="#6eb6ec" /><circle cx="644.1" cy="308.6" r="4" fill="#6eb6ec" /><circle cx="652.0" cy="308.6" r="4" fill="#6eb6ec" /><circle cx="659.8" cy="308.6" r="4" fill="#6eb6ec" /><circle cx="667.6" cy="308.6" r="4" fill="#6eb6ec" /><circle cx="675.5" cy="308.6" r="4" fill="#6eb6ec" /><circle cx="683.3" cy="308.6" r="4" fill="#6eb6ec" /><circle cx="691.1" cy="308.6" r="4" fill="#6eb6ec" /><circle cx="699.0" cy="308.6" r="4" fill="#6eb6ec" /><circle cx="706.8" cy="308.6" r="4" fill="#6eb6ec" /><circle cx="714.6" cy="308.6" r="4" fill="#6eb6ec" /><circle cx="722.5" cy="308.6" r="4" fill="#6eb6ec" /><circle cx="730.3" cy="307.8" r="4" fill="#6eb6ec" /><circle cx="738.1" cy="307.8" r="4" fill="#6eb6ec" /><circle cx="746.0" cy="307.6" r="4" fill="#6eb6ec" /><circle cx="753.8" cy="307.6" r="4" fill="#6eb6ec" /><circle cx="761.6" cy="307.6" r="4" fill="#6eb6ec" /><circle cx="769.5" cy="307.5" r="4" fill="#6eb6ec" /><circle cx="777.3" cy="307.5" r="4" fill="#6eb6ec" /><circle cx="785.2" cy="307.6" r="4" fill="#6eb6ec" /><circle cx="793.0" cy="308.5" r="4" fill="#6eb6ec" /><circle cx="800.8" cy="308.5" r="4" fill="#6eb6ec" /><circle cx="808.7" cy="308.4" r="4" fill="#6eb6ec" /><circle cx="816.5" cy="308.4" r="4" fill="#6eb6ec" /><circle cx="824.3" cy="307.5" r="4" fill="#6eb6ec" /><circle cx="832.2" cy="307.5" r="4" fill="#6eb6ec" /><circle cx="840.0" cy="307.2" r="4" fill="#6eb6ec" /><polyline points="80.0,305.8 87.8,305.8 95.7,305.8 103.5,305.8 111.3,305.8 119.2,305.8 127.0,305.8 134.8,305.8 142.7,305.8 150.5,305.8 158.4,304.9 166.2,304.9 174.0,304.9 181.9,304.9 189.7,304.9 197.5,304.9 205.4,304.9 213.2,304.9 221.0,304.9 228.9,304.9 236.7,304.9 244.5,304.9 252.4,304.9 260.2,304.9 268.0,304.9 275.9,304.9 283.7,304.9 291.5,304.9 299.4,304.9 307.2,304.9 315.1,304.9 322.9,304.9 330.7,304.9 338.6,304.9 346.4,304.9 354.2,304.9 362.1,304.9 369.9,303.6 377.7,303.6 385.6,303.6 393.4,303.6 401.2,303.6 409.1,303.6 416.9,303.6 424.7,303.6 432.6,303.6 440.4,303.6 448.2,303.6 456.1,303.6 463.9,303.6 471.8,303.6 479.6,302.9 487.4,302.9 495.3,298.0 503.1,298.0 510.9,298.0 518.8,298.0 526.6,298.0 534.4,298.0 542.3,298.0 550.1,298.0 557.9,298.0 565.8,298.0 573.6,298.0 581.4,298.0 589.3,298.0 597.1,298.0 604.9,297.8 612.8,297.8 620.6,297.8 628.5,297.8 636.3,297.8 644.1,297.8 652.0,297.8 659.8,297.8 667.6,297.8 675.5,297.8 683.3,297.8 691.1,297.8 699.0,297.8 706.8,297.8 714.6,297.8 722.5,297.8 730.3,297.8 738.1,297.8 746.0,297.8 753.8,297.6 761.6,297.8 769.5,297.8 777.3,297.8 785.2,297.9 793.0,297.9 800.8,297.9 808.7,296.1 816.5,296.1 824.3,296.1 832.2,296.1 840.0,296.1" fill="none" stroke="#5938e2" stroke-width="2.5" stroke-linecap="round" stroke-linejoin="round" /><circle cx="80.0" cy="305.8" r="4" fill="#5938e2" /><circle cx="87.8" cy="305.8" r="4" fill="#5938e2" /><circle cx="95.7" cy="305.8" r="4" fill="#5938e2" /><circle cx="103.5" cy="305.8" r="4" fill="#5938e2" /><circle cx="111.3" cy="305.8" r="4" fill="#5938e2" /><circle cx="119.2" cy="305.8" r="4" fill="#5938e2" /><circle cx="127.0" cy="305.8" r="4" fill="#5938e2" /><circle cx="134.8" cy="305.8" r="4" fill="#5938e2" /><circle cx="142.7" cy="305.8" r="4" fill="#5938e2" /><circle cx="150.5" cy="305.8" r="4" fill="#5938e2" /><circle cx="158.4" cy="304.9" r="4" fill="#5938e2" /><circle cx="166.2" cy="304.9" r="4" fill="#5938e2" /><circle cx="174.0" cy="304.9" r="4" fill="#5938e2" /><circle cx="181.9" cy="304.9" r="4" fill="#5938e2" /><circle cx="189.7" cy="304.9" r="4" fill="#5938e2" /><circle cx="197.5" cy="304.9" r="4" fill="#5938e2" /><circle cx="205.4" cy="304.9" r="4" fill="#5938e2" /><circle cx="213.2" cy="304.9" r="4" fill="#5938e2" /><circle cx="221.0" cy="304.9" r="4" fill="#5938e2" /><circle cx="228.9" cy="304.9" r="4" fill="#5938e2" /><circle cx="236.7" cy="304.9" r="4" fill="#5938e2" /><circle cx="244.5" cy="304.9" r="4" fill="#5938e2" /><circle cx="252.4" cy="304.9" r="4" fill="#5938e2" /><circle cx="260.2" cy="304.9" r="4" fill="#5938e2" /><circle cx="268.0" cy="304.9" r="4" fill="#5938e2" /><circle cx="275.9" cy="304.9" r="4" fill="#5938e2" /><circle cx="283.7" cy="304.9" r="4" fill="#5938e2" /><circle cx="291.5" cy="304.9" r="4" fill="#5938e2" /><circle cx="299.4" cy="304.9" r="4" fill="#5938e2" /><circle cx="307.2" cy="304.9" r="4" fill="#5938e2" /><circle cx="315.1" cy="304.9" r="4" fill="#5938e2" /><circle cx="322.9" cy="304.9" r="4" fill="#5938e2" /><circle cx="330.7" cy="304.9" r="4" fill="#5938e2" /><circle cx="338.6" cy="304.9" r="4" fill="#5938e2" /><circle cx="346.4" cy="304.9" r="4" fill="#5938e2" /><circle cx="354.2" cy="304.9" r="4" fill="#5938e2" /><circle cx="362.1" cy="304.9" r="4" fill="#5938e2" /><circle cx="369.9" cy="303.6" r="4" fill="#5938e2" /><circle cx="377.7" cy="303.6" r="4" fill="#5938e2" /><circle cx="385.6" cy="303.6" r="4" fill="#5938e2" /><circle cx="393.4" cy="303.6" r="4" fill="#5938e2" /><circle cx="401.2" cy="303.6" r="4" fill="#5938e2" /><circle cx="409.1" cy="303.6" r="4" fill="#5938e2" /><circle cx="416.9" cy="303.6" r="4" fill="#5938e2" /><circle cx="424.7" cy="303.6" r="4" fill="#5938e2" /><circle cx="432.6" cy="303.6" r="4" fill="#5938e2" /><circle cx="440.4" cy="303.6" r="4" fill="#5938e2" /><circle cx="448.2" cy="303.6" r="4" fill="#5938e2" /><circle cx="456.1" cy="303.6" r="4" fill="#5938e2" /><circle cx="463.9" cy="303.6" r="4" fill="#5938e2" /><circle cx="471.8" cy="303.6" r="4" fill="#5938e2" /><circle cx="479.6" cy="302.9" r="4" fill="#5938e2" /><circle cx="487.4" cy="302.9" r="4" fill="#5938e2" /><circle cx="495.3" cy="298.0" r="4" fill="#5938e2" /><circle cx="503.1" cy="298.0" r="4" fill="#5938e2" /><circle cx="510.9" cy="298.0" r="4" fill="#5938e2" /><circle cx="518.8" cy="298.0" r="4" fill="#5938e2" /><circle cx="526.6" cy="298.0" r="4" fill="#5938e2" /><circle cx="534.4" cy="298.0" r="4" fill="#5938e2" /><circle cx="542.3" cy="298.0" r="4" fill="#5938e2" /><circle cx="550.1" cy="298.0" r="4" fill="#5938e2" /><circle cx="557.9" cy="298.0" r="4" fill="#5938e2" /><circle cx="565.8" cy="298.0" r="4" fill="#5938e2" /><circle cx="573.6" cy="298.0" r="4" fill="#5938e2" /><circle cx="581.4" cy="298.0" r="4" fill="#5938e2" /><circle cx="589.3" cy="298.0" r="4" fill="#5938e2" /><circle cx="597.1" cy="298.0" r="4" fill="#5938e2" /><circle cx="604.9" cy="297.8" r="4" fill="#5938e2" /><circle cx="612.8" cy="297.8" r="4" fill="#5938e2" /><circle cx="620.6" cy="297.8" r="4" fill="#5938e2" /><circle cx="628.5" cy="297.8" r="4" fill="#5938e2" /><circle cx="636.3" cy="297.8" r="4" fill="#5938e2" /><circle cx="644.1" cy="297.8" r="4" fill="#5938e2" /><circle cx="652.0" cy="297.8" r="4" fill="#5938e2" /><circle cx="659.8" cy="297.8" r="4" fill="#5938e2" /><circle cx="667.6" cy="297.8" r="4" fill="#5938e2" /><circle cx="675.5" cy="297.8" r="4" fill="#5938e2" /><circle cx="683.3" cy="297.8" r="4" fill="#5938e2" /><circle cx="691.1" cy="297.8" r="4" fill="#5938e2" /><circle cx="699.0" cy="297.8" r="4" fill="#5938e2" /><circle cx="706.8" cy="297.8" r="4" fill="#5938e2" /><circle cx="714.6" cy="297.8" r="4" fill="#5938e2" /><circle cx="722.5" cy="297.8" r="4" fill="#5938e2" /><circle cx="730.3" cy="297.8" r="4" fill="#5938e2" /><circle cx="738.1" cy="297.8" r="4" fill="#5938e2" /><circle cx="746.0" cy="297.8" r="4" fill="#5938e2" /><circle cx="753.8" cy="297.6" r="4" fill="#5938e2" /><circle cx="761.6" cy="297.8" r="4" fill="#5938e2" /><circle cx="769.5" cy="297.8" r="4" fill="#5938e2" /><circle cx="777.3" cy="297.8" r="4" fill="#5938e2" /><circle cx="785.2" cy="297.9" r="4" fill="#5938e2" /><circle cx="793.0" cy="297.9" r="4" fill="#5938e2" /><circle cx="800.8" cy="297.9" r="4" fill="#5938e2" /><circle cx="808.7" cy="296.1" r="4" fill="#5938e2" /><circle cx="816.5" cy="296.1" r="4" fill="#5938e2" /><circle cx="824.3" cy="296.1" r="4" fill="#5938e2" /><circle cx="832.2" cy="296.1" r="4" fill="#5938e2" /><circle cx="840.0" cy="296.1" r="4" fill="#5938e2" /><polyline points="80.0,144.6 87.8,140.1 95.7,139.9 103.5,139.8 111.3,139.8 119.2,139.6 127.0,139.6 134.8,139.6 142.7,139.6 150.5,139.6 158.4,138.4 166.2,138.4 174.0,138.4 181.9,138.4 189.7,138.4 197.5,138.4 205.4,138.4 213.2,137.4 221.0,137.4 228.9,137.4 236.7,137.4 244.5,137.4 252.4,137.4 260.2,137.4 268.0,137.4 275.9,137.4 283.7,137.4 291.5,137.4 299.4,131.2 307.2,131.2 315.1,130.8 322.9,130.4 330.7,126.9 338.6,126.9 346.4,126.9 354.2,126.9 362.1,126.9 369.9,126.9 377.7,126.9 385.6,126.9 393.4,126.9 401.2,126.8 409.1,122.1 416.9,120.4 424.7,120.4 432.6,120.4 440.4,120.4 448.2,120.4 456.1,119.4 463.9,119.4 471.8,119.4 479.6,119.4 487.4,119.1 495.3,118.8 503.1,118.8 510.9,117.8 518.8,117.8 526.6,117.8 534.4,115.8 542.3,115.8 550.1,115.0 557.9,115.0 565.8,115.0 573.6,115.0 581.4,115.0 589.3,115.0 597.1,115.0 604.9,113.9 612.8,111.8 620.6,111.8 628.5,111.8 636.3,111.8 644.1,111.8 652.0,111.8 659.8,111.8 667.6,111.8 675.5,111.8 683.3,111.8 691.1,110.6 699.0,110.6 706.8,110.6 714.6,110.6 722.5,110.6 730.3,109.4 738.1,109.4 746.0,109.4 753.8,109.4 761.6,109.2 769.5,109.2 777.3,109.2 785.2,109.2 793.0,109.2 800.8,109.2 808.7,109.2 816.5,109.2 824.3,109.2 832.2,109.2 840.0,109.2" fill="none" stroke="#60e5e0" stroke-width="2.5" stroke-linecap="round" stroke-linejoin="round" /><circle cx="80.0" cy="144.6" r="4" fill="#60e5e0" /><circle cx="87.8" cy="140.1" r="4" fill="#60e5e0" /><circle cx="95.7" cy="139.9" r="4" fill="#60e5e0" /><circle cx="103.5" cy="139.8" r="4" fill="#60e5e0" /><circle cx="111.3" cy="139.8" r="4" fill="#60e5e0" /><circle cx="119.2" cy="139.6" r="4" fill="#60e5e0" /><circle cx="127.0" cy="139.6" r="4" fill="#60e5e0" /><circle cx="134.8" cy="139.6" r="4" fill="#60e5e0" /><circle cx="142.7" cy="139.6" r="4" fill="#60e5e0" /><circle cx="150.5" cy="139.6" r="4" fill="#60e5e0" /><circle cx="158.4" cy="138.4" r="4" fill="#60e5e0" /><circle cx="166.2" cy="138.4" r="4" fill="#60e5e0" /><circle cx="174.0" cy="138.4" r="4" fill="#60e5e0" /><circle cx="181.9" cy="138.4" r="4" fill="#60e5e0" /><circle cx="189.7" cy="138.4" r="4" fill="#60e5e0" /><circle cx="197.5" cy="138.4" r="4" fill="#60e5e0" /><circle cx="205.4" cy="138.4" r="4" fill="#60e5e0" /><circle cx="213.2" cy="137.4" r="4" fill="#60e5e0" /><circle cx="221.0" cy="137.4" r="4" fill="#60e5e0" /><circle cx="228.9" cy="137.4" r="4" fill="#60e5e0" /><circle cx="236.7" cy="137.4" r="4" fill="#60e5e0" /><circle cx="244.5" cy="137.4" r="4" fill="#60e5e0" /><circle cx="252.4" cy="137.4" r="4" fill="#60e5e0" /><circle cx="260.2" cy="137.4" r="4" fill="#60e5e0" /><circle cx="268.0" cy="137.4" r="4" fill="#60e5e0" /><circle cx="275.9" cy="137.4" r="4" fill="#60e5e0" /><circle cx="283.7" cy="137.4" r="4" fill="#60e5e0" /><circle cx="291.5" cy="137.4" r="4" fill="#60e5e0" /><circle cx="299.4" cy="131.2" r="4" fill="#60e5e0" /><circle cx="307.2" cy="131.2" r="4" fill="#60e5e0" /><circle cx="315.1" cy="130.8" r="4" fill="#60e5e0" /><circle cx="322.9" cy="130.4" r="4" fill="#60e5e0" /><circle cx="330.7" cy="126.9" r="4" fill="#60e5e0" /><circle cx="338.6" cy="126.9" r="4" fill="#60e5e0" /><circle cx="346.4" cy="126.9" r="4" fill="#60e5e0" /><circle cx="354.2" cy="126.9" r="4" fill="#60e5e0" /><circle cx="362.1" cy="126.9" r="4" fill="#60e5e0" /><circle cx="369.9" cy="126.9" r="4" fill="#60e5e0" /><circle cx="377.7" cy="126.9" r="4" fill="#60e5e0" /><circle cx="385.6" cy="126.9" r="4" fill="#60e5e0" /><circle cx="393.4" cy="126.9" r="4" fill="#60e5e0" /><circle cx="401.2" cy="126.8" r="4" fill="#60e5e0" /><circle cx="409.1" cy="122.1" r="4" fill="#60e5e0" /><circle cx="416.9" cy="120.4" r="4" fill="#60e5e0" /><circle cx="424.7" cy="120.4" r="4" fill="#60e5e0" /><circle cx="432.6" cy="120.4" r="4" fill="#60e5e0" /><circle cx="440.4" cy="120.4" r="4" fill="#60e5e0" /><circle cx="448.2" cy="120.4" r="4" fill="#60e5e0" /><circle cx="456.1" cy="119.4" r="4" fill="#60e5e0" /><circle cx="463.9" cy="119.4" r="4" fill="#60e5e0" /><circle cx="471.8" cy="119.4" r="4" fill="#60e5e0" /><circle cx="479.6" cy="119.4" r="4" fill="#60e5e0" /><circle cx="487.4" cy="119.1" r="4" fill="#60e5e0" /><circle cx="495.3" cy="118.8" r="4" fill="#60e5e0" /><circle cx="503.1" cy="118.8" r="4" fill="#60e5e0" /><circle cx="510.9" cy="117.8" r="4" fill="#60e5e0" /><circle cx="518.8" cy="117.8" r="4" fill="#60e5e0" /><circle cx="526.6" cy="117.8" r="4" fill="#60e5e0" /><circle cx="534.4" cy="115.8" r="4" fill="#60e5e0" /><circle cx="542.3" cy="115.8" r="4" fill="#60e5e0" /><circle cx="550.1" cy="115.0" r="4" fill="#60e5e0" /><circle cx="557.9" cy="115.0" r="4" fill="#60e5e0" /><circle cx="565.8" cy="115.0" r="4" fill="#60e5e0" /><circle cx="573.6" cy="115.0" r="4" fill="#60e5e0" /><circle cx="581.4" cy="115.0" r="4" fill="#60e5e0" /><circle cx="589.3" cy="115.0" r="4" fill="#60e5e0" /><circle cx="597.1" cy="115.0" r="4" fill="#60e5e0" /><circle cx="604.9" cy="113.9" r="4" fill="#60e5e0" /><circle cx="612.8" cy="111.8" r="4" fill="#60e5e0" /><circle cx="620.6" cy="111.8" r="4" fill="#60e5e0" /><circle cx="628.5" cy="111.8" r="4" fill="#60e5e0" /><circle cx="636.3" cy="111.8" r="4" fill="#60e5e0" /><circle cx="644.1" cy="111.8" r="4" fill="#60e5e0" /><circle cx="652.0" cy="111.8" r="4" fill="#60e5e0" /><circle cx="659.8" cy="111.8" r="4" fill="#60e5e0" /><circle cx="667.6" cy="111.8" r="4" fill="#60e5e0" /><circle cx="675.5" cy="111.8" r="4" fill="#60e5e0" /><circle cx="683.3" cy="111.8" r="4" fill="#60e5e0" /><circle cx="691.1" cy="110.6" r="4" fill="#60e5e0" /><circle cx="699.0" cy="110.6" r="4" fill="#60e5e0" /><circle cx="706.8" cy="110.6" r="4" fill="#60e5e0" /><circle cx="714.6" cy="110.6" r="4" fill="#60e5e0" /><circle cx="722.5" cy="110.6" r="4" fill="#60e5e0" /><circle cx="730.3" cy="109.4" r="4" fill="#60e5e0" /><circle cx="738.1" cy="109.4" r="4" fill="#60e5e0" /><circle cx="746.0" cy="109.4" r="4" fill="#60e5e0" /><circle cx="753.8" cy="109.4" r="4" fill="#60e5e0" /><circle cx="761.6" cy="109.2" r="4" fill="#60e5e0" /><circle cx="769.5" cy="109.2" r="4" fill="#60e5e0" /><circle cx="777.3" cy="109.2" r="4" fill="#60e5e0" /><circle cx="785.2" cy="109.2" r="4" fill="#60e5e0" /><circle cx="793.0" cy="109.2" r="4" fill="#60e5e0" /><circle cx="800.8" cy="109.2" r="4" fill="#60e5e0" /><circle cx="808.7" cy="109.2" r="4" fill="#60e5e0" /><circle cx="816.5" cy="109.2" r="4" fill="#60e5e0" /><circle cx="824.3" cy="109.2" r="4" fill="#60e5e0" /><circle cx="832.2" cy="109.2" r="4" fill="#60e5e0" /><circle cx="840.0" cy="109.2" r="4" fill="#60e5e0" /><polyline points="80.0,314.6 87.8,314.4 95.7,314.2 103.5,314.2 111.3,314.2 119.2,314.1 127.0,314.1 134.8,314.1 142.7,314.1 150.5,314.1 158.4,314.0 166.2,314.0 174.0,314.0 181.9,314.0 189.7,314.0 197.5,314.0 205.4,314.0 213.2,314.0 221.0,314.0 228.9,314.0 236.7,314.0 244.5,314.0 252.4,314.0 260.2,314.0 268.0,314.0 275.9,314.0 283.7,314.0 291.5,314.0 299.4,314.0 307.2,314.0 315.1,314.0 322.9,314.0 330.7,314.0 338.6,314.0 346.4,314.0 354.2,314.0 362.1,314.0 369.9,314.0 377.7,314.0 385.6,314.0 393.4,314.0 401.2,313.9 409.1,313.6 416.9,313.4 424.7,313.4 432.6,313.4 440.4,313.4 448.2,313.4 456.1,313.1 463.9,313.1 471.8,313.1 479.6,313.1 487.4,313.1 495.3,313.0 503.1,313.0 510.9,312.9 518.8,312.9 526.6,312.9 534.4,312.8 542.3,312.8 550.1,312.6 557.9,312.6 565.8,312.6 573.6,312.6 581.4,312.6 589.3,312.6 597.1,312.6 604.9,312.5 612.8,312.1 620.6,312.1 628.5,312.1 636.3,312.1 644.1,312.1 652.0,312.1 659.8,312.1 667.6,312.1 675.5,312.1 683.3,312.1 691.1,312.0 699.0,312.0 706.8,312.0 714.6,312.0 722.5,312.0 730.3,312.0 738.1,312.0 746.0,312.0 753.8,312.0 761.6,312.0 769.5,312.0 777.3,312.0 785.2,312.0 793.0,312.0 800.8,312.0 808.7,312.0 816.5,312.0 824.3,312.0 832.2,312.0 840.0,312.0" fill="none" stroke="#567de1" stroke-width="2.5" stroke-linecap="round" stroke-linejoin="round" /><circle cx="80.0" cy="314.6" r="4" fill="#567de1" /><circle cx="87.8" cy="314.4" r="4" fill="#567de1" /><circle cx="95.7" cy="314.2" r="4" fill="#567de1" /><circle cx="103.5" cy="314.2" r="4" fill="#567de1" /><circle cx="111.3" cy="314.2" r="4" fill="#567de1" /><circle cx="119.2" cy="314.1" r="4" fill="#567de1" /><circle cx="127.0" cy="314.1" r="4" fill="#567de1" /><circle cx="134.8" cy="314.1" r="4" fill="#567de1" /><circle cx="142.7" cy="314.1" r="4" fill="#567de1" /><circle cx="150.5" cy="314.1" r="4" fill="#567de1" /><circle cx="158.4" cy="314.0" r="4" fill="#567de1" /><circle cx="166.2" cy="314.0" r="4" fill="#567de1" /><circle cx="174.0" cy="314.0" r="4" fill="#567de1" /><circle cx="181.9" cy="314.0" r="4" fill="#567de1" /><circle cx="189.7" cy="314.0" r="4" fill="#567de1" /><circle cx="197.5" cy="314.0" r="4" fill="#567de1" /><circle cx="205.4" cy="314.0" r="4" fill="#567de1" /><circle cx="213.2" cy="314.0" r="4" fill="#567de1" /><circle cx="221.0" cy="314.0" r="4" fill="#567de1" /><circle cx="228.9" cy="314.0" r="4" fill="#567de1" /><circle cx="236.7" cy="314.0" r="4" fill="#567de1" /><circle cx="244.5" cy="314.0" r="4" fill="#567de1" /><circle cx="252.4" cy="314.0" r="4" fill="#567de1" /><circle cx="260.2" cy="314.0" r="4" fill="#567de1" /><circle cx="268.0" cy="314.0" r="4" fill="#567de1" /><circle cx="275.9" cy="314.0" r="4" fill="#567de1" /><circle cx="283.7" cy="314.0" r="4" fill="#567de1" /><circle cx="291.5" cy="314.0" r="4" fill="#567de1" /><circle cx="299.4" cy="314.0" r="4" fill="#567de1" /><circle cx="307.2" cy="314.0" r="4" fill="#567de1" /><circle cx="315.1" cy="314.0" r="4" fill="#567de1" /><circle cx="322.9" cy="314.0" r="4" fill="#567de1" /><circle cx="330.7" cy="314.0" r="4" fill="#567de1" /><circle cx="338.6" cy="314.0" r="4" fill="#567de1" /><circle cx="346.4" cy="314.0" r="4" fill="#567de1" /><circle cx="354.2" cy="314.0" r="4" fill="#567de1" /><circle cx="362.1" cy="314.0" r="4" fill="#567de1" /><circle cx="369.9" cy="314.0" r="4" fill="#567de1" /><circle cx="377.7" cy="314.0" r="4" fill="#567de1" /><circle cx="385.6" cy="314.0" r="4" fill="#567de1" /><circle cx="393.4" cy="314.0" r="4" fill="#567de1" /><circle cx="401.2" cy="313.9" r="4" fill="#567de1" /><circle cx="409.1" cy="313.6" r="4" fill="#567de1" /><circle cx="416.9" cy="313.4" r="4" fill="#567de1" /><circle cx="424.7" cy="313.4" r="4" fill="#567de1" /><circle cx="432.6" cy="313.4" r="4" fill="#567de1" /><circle cx="440.4" cy="313.4" r="4" fill="#567de1" /><circle cx="448.2" cy="313.4" r="4" fill="#567de1" /><circle cx="456.1" cy="313.1" r="4" fill="#567de1" /><circle cx="463.9" cy="313.1" r="4" fill="#567de1" /><circle cx="471.8" cy="313.1" r="4" fill="#567de1" /><circle cx="479.6" cy="313.1" r="4" fill="#567de1" /><circle cx="487.4" cy="313.1" r="4" fill="#567de1" /><circle cx="495.3" cy="313.0" r="4" fill="#567de1" /><circle cx="503.1" cy="313.0" r="4" fill="#567de1" /><circle cx="510.9" cy="312.9" r="4" fill="#567de1" /><circle cx="518.8" cy="312.9" r="4" fill="#567de1" /><circle cx="526.6" cy="312.9" r="4" fill="#567de1" /><circle cx="534.4" cy="312.8" r="4" fill="#567de1" /><circle cx="542.3" cy="312.8" r="4" fill="#567de1" /><circle cx="550.1" cy="312.6" r="4" fill="#567de1" /><circle cx="557.9" cy="312.6" r="4" fill="#567de1" /><circle cx="565.8" cy="312.6" r="4" fill="#567de1" /><circle cx="573.6" cy="312.6" r="4" fill="#567de1" /><circle cx="581.4" cy="312.6" r="4" fill="#567de1" /><circle cx="589.3" cy="312.6" r="4" fill="#567de1" /><circle cx="597.1" cy="312.6" r="4" fill="#567de1" /><circle cx="604.9" cy="312.5" r="4" fill="#567de1" /><circle cx="612.8" cy="312.1" r="4" fill="#567de1" /><circle cx="620.6" cy="312.1" r="4" fill="#567de1" /><circle cx="628.5" cy="312.1" r="4" fill="#567de1" /><circle cx="636.3" cy="312.1" r="4" fill="#567de1" /><circle cx="644.1" cy="312.1" r="4" fill="#567de1" /><circle cx="652.0" cy="312.1" r="4" fill="#567de1" /><circle cx="659.8" cy="312.1" r="4" fill="#567de1" /><circle cx="667.6" cy="312.1" r="4" fill="#567de1" /><circle cx="675.5" cy="312.1" r="4" fill="#567de1" /><circle cx="683.3" cy="312.1" r="4" fill="#567de1" /><circle cx="691.1" cy="312.0" r="4" fill="#567de1" /><circle cx="699.0" cy="312.0" r="4" fill="#567de1" /><circle cx="706.8" cy="312.0" r="4" fill="#567de1" /><circle cx="714.6" cy="312.0" r="4" fill="#567de1" /><circle cx="722.5" cy="312.0" r="4" fill="#567de1" /><circle cx="730.3" cy="312.0" r="4" fill="#567de1" /><circle cx="738.1" cy="312.0" r="4" fill="#567de1" /><circle cx="746.0" cy="312.0" r="4" fill="#567de1" /><circle cx="753.8" cy="312.0" r="4" fill="#567de1" /><circle cx="761.6" cy="312.0" r="4" fill="#567de1" /><circle cx="769.5" cy="312.0" r="4" fill="#567de1" /><circle cx="777.3" cy="312.0" r="4" fill="#567de1" /><circle cx="785.2" cy="312.0" r="4" fill="#567de1" /><circle cx="793.0" cy="312.0" r="4" fill="#567de1" /><circle cx="800.8" cy="312.0" r="4" fill="#567de1" /><circle cx="808.7" cy="312.0" r="4" fill="#567de1" /><circle cx="816.5" cy="312.0" r="4" fill="#567de1" /><circle cx="824.3" cy="312.0" r="4" fill="#567de1" /><circle cx="832.2" cy="312.0" r="4" fill="#567de1" /><circle cx="840.0" cy="312.0" r="4" fill="#567de1" /><polyline points="80.0,303.9 87.8,304.2 95.7,304.4 103.5,304.4 111.3,304.4 119.2,304.4 127.0,304.4 134.8,304.4 142.7,304.4 150.5,304.4 158.4,304.4 166.2,304.4 174.0,304.4 181.9,304.4 189.7,304.4 197.5,304.4 205.4,304.4 213.2,304.4 221.0,304.4 228.9,304.4 236.7,304.4 244.5,304.4 252.4,304.4 260.2,304.4 268.0,304.4 275.9,304.4 283.7,304.4 291.5,304.4 299.4,299.1 307.2,299.1 315.1,299.1 322.9,298.9 330.7,295.6 338.6,295.6 346.4,295.6 354.2,295.6 362.1,295.6 369.9,295.6 377.7,295.6 385.6,295.6 393.4,295.6 401.2,295.8 409.1,295.9 416.9,295.9 424.7,295.9 432.6,295.9 440.4,295.9 448.2,295.9 456.1,295.9 463.9,295.9 471.8,295.9 479.6,295.9 487.4,295.9 495.3,295.9 503.1,295.9 510.9,295.9 518.8,295.9 526.6,295.9 534.4,295.8 542.3,295.8 550.1,295.9 557.9,295.9 565.8,295.9 573.6,295.9 581.4,295.9 589.3,295.9 597.1,295.9 604.9,296.0 612.8,296.4 620.6,296.4 628.5,296.4 636.3,296.4 644.1,296.4 652.0,296.4 659.8,296.4 667.6,296.4 675.5,296.4 683.3,296.4 691.1,296.5 699.0,296.5 706.8,296.5 714.6,296.5 722.5,296.5 730.3,296.5 738.1,296.5 746.0,296.5 753.8,296.5 761.6,296.5 769.5,296.5 777.3,296.5 785.2,296.5 793.0,296.5 800.8,296.5 808.7,296.5 816.5,296.5 824.3,296.5 832.2,296.5 840.0,296.5" fill="none" stroke="#9754dd" stroke-width="2.5" stroke-linecap="round" stroke-linejoin="round" /><circle cx="80.0" cy="303.9" r="4" fill="#9754dd" /><circle cx="87.8" cy="304.2" r="4" fill="#9754dd" /><circle cx="95.7" cy="304.4" r="4" fill="#9754dd" /><circle cx="103.5" cy="304.4" r="4" fill="#9754dd" /><circle cx="111.3" cy="304.4" r="4" fill="#9754dd" /><circle cx="119.2" cy="304.4" r="4" fill="#9754dd" /><circle cx="127.0" cy="304.4" r="4" fill="#9754dd" /><circle cx="134.8" cy="304.4" r="4" fill="#9754dd" /><circle cx="142.7" cy="304.4" r="4" fill="#9754dd" /><circle cx="150.5" cy="304.4" r="4" fill="#9754dd" /><circle cx="158.4" cy="304.4" r="4" fill="#9754dd" /><circle cx="166.2" cy="304.4" r="4" fill="#9754dd" /><circle cx="174.0" cy="304.4" r="4" fill="#9754dd" /><circle cx="181.9" cy="304.4" r="4" fill="#9754dd" /><circle cx="189.7" cy="304.4" r="4" fill="#9754dd" /><circle cx="197.5" cy="304.4" r="4" fill="#9754dd" /><circle cx="205.4" cy="304.4" r="4" fill="#9754dd" /><circle cx="213.2" cy="304.4" r="4" fill="#9754dd" /><circle cx="221.0" cy="304.4" r="4" fill="#9754dd" /><circle cx="228.9" cy="304.4" r="4" fill="#9754dd" /><circle cx="236.7" cy="304.4" r="4" fill="#9754dd" /><circle cx="244.5" cy="304.4" r="4" fill="#9754dd" /><circle cx="252.4" cy="304.4" r="4" fill="#9754dd" /><circle cx="260.2" cy="304.4" r="4" fill="#9754dd" /><circle cx="268.0" cy="304.4" r="4" fill="#9754dd" /><circle cx="275.9" cy="304.4" r="4" fill="#9754dd" /><circle cx="283.7" cy="304.4" r="4" fill="#9754dd" /><circle cx="291.5" cy="304.4" r="4" fill="#9754dd" /><circle cx="299.4" cy="299.1" r="4" fill="#9754dd" /><circle cx="307.2" cy="299.1" r="4" fill="#9754dd" /><circle cx="315.1" cy="299.1" r="4" fill="#9754dd" /><circle cx="322.9" cy="298.9" r="4" fill="#9754dd" /><circle cx="330.7" cy="295.6" r="4" fill="#9754dd" /><circle cx="338.6" cy="295.6" r="4" fill="#9754dd" /><circle cx="346.4" cy="295.6" r="4" fill="#9754dd" /><circle cx="354.2" cy="295.6" r="4" fill="#9754dd" /><circle cx="362.1" cy="295.6" r="4" fill="#9754dd" /><circle cx="369.9" cy="295.6" r="4" fill="#9754dd" /><circle cx="377.7" cy="295.6" r="4" fill="#9754dd" /><circle cx="385.6" cy="295.6" r="4" fill="#9754dd" /><circle cx="393.4" cy="295.6" r="4" fill="#9754dd" /><circle cx="401.2" cy="295.8" r="4" fill="#9754dd" /><circle cx="409.1" cy="295.9" r="4" fill="#9754dd" /><circle cx="416.9" cy="295.9" r="4" fill="#9754dd" /><circle cx="424.7" cy="295.9" r="4" fill="#9754dd" /><circle cx="432.6" cy="295.9" r="4" fill="#9754dd" /><circle cx="440.4" cy="295.9" r="4" fill="#9754dd" /><circle cx="448.2" cy="295.9" r="4" fill="#9754dd" /><circle cx="456.1" cy="295.9" r="4" fill="#9754dd" /><circle cx="463.9" cy="295.9" r="4" fill="#9754dd" /><circle cx="471.8" cy="295.9" r="4" fill="#9754dd" /><circle cx="479.6" cy="295.9" r="4" fill="#9754dd" /><circle cx="487.4" cy="295.9" r="4" fill="#9754dd" /><circle cx="495.3" cy="295.9" r="4" fill="#9754dd" /><circle cx="503.1" cy="295.9" r="4" fill="#9754dd" /><circle cx="510.9" cy="295.9" r="4" fill="#9754dd" /><circle cx="518.8" cy="295.9" r="4" fill="#9754dd" /><circle cx="526.6" cy="295.9" r="4" fill="#9754dd" /><circle cx="534.4" cy="295.8" r="4" fill="#9754dd" /><circle cx="542.3" cy="295.8" r="4" fill="#9754dd" /><circle cx="550.1" cy="295.9" r="4" fill="#9754dd" /><circle cx="557.9" cy="295.9" r="4" fill="#9754dd" /><circle cx="565.8" cy="295.9" r="4" fill="#9754dd" /><circle cx="573.6" cy="295.9" r="4" fill="#9754dd" /><circle cx="581.4" cy="295.9" r="4" fill="#9754dd" /><circle cx="589.3" cy="295.9" r="4" fill="#9754dd" /><circle cx="597.1" cy="295.9" r="4" fill="#9754dd" /><circle cx="604.9" cy="296.0" r="4" fill="#9754dd" /><circle cx="612.8" cy="296.4" r="4" fill="#9754dd" /><circle cx="620.6" cy="296.4" r="4" fill="#9754dd" /><circle cx="628.5" cy="296.4" r="4" fill="#9754dd" /><circle cx="636.3" cy="296.4" r="4" fill="#9754dd" /><circle cx="644.1" cy="296.4" r="4" fill="#9754dd" /><circle cx="652.0" cy="296.4" r="4" fill="#9754dd" /><circle cx="659.8" cy="296.4" r="4" fill="#9754dd" /><circle cx="667.6" cy="296.4" r="4" fill="#9754dd" /><circle cx="675.5" cy="296.4" r="4" fill="#9754dd" /><circle cx="683.3" cy="296.4" r="4" fill="#9754dd" /><circle cx="691.1" cy="296.5" r="4" fill="#9754dd" /><circle cx="699.0" cy="296.5" r="4" fill="#9754dd" /><circle cx="706.8" cy="296.5" r="4" fill="#9754dd" /><circle cx="714.6" cy="296.5" r="4" fill="#9754dd" /><circle cx="722.5" cy="296.5" r="4" fill="#9754dd" /><circle cx="730.3" cy="296.5" r="4" fill="#9754dd" /><circle cx="738.1" cy="296.5" r="4" fill="#9754dd" /><circle cx="746.0" cy="296.5" r="4" fill="#9754dd" /><circle cx="753.8" cy="296.5" r="4" fill="#9754dd" /><circle cx="761.6" cy="296.5" r="4" fill="#9754dd" /><circle cx="769.5" cy="296.5" r="4" fill="#9754dd" /><circle cx="777.3" cy="296.5" r="4" fill="#9754dd" /><circle cx="785.2" cy="296.5" r="4" fill="#9754dd" /><circle cx="793.0" cy="296.5" r="4" fill="#9754dd" /><circle cx="800.8" cy="296.5" r="4" fill="#9754dd" /><circle cx="808.7" cy="296.5" r="4" fill="#9754dd" /><circle cx="816.5" cy="296.5" r="4" fill="#9754dd" /><circle cx="824.3" cy="296.5" r="4" fill="#9754dd" /><circle cx="832.2" cy="296.5" r="4" fill="#9754dd" /><circle cx="840.0" cy="296.5" r="4" fill="#9754dd" />
  <rect x="80" y="339" width="10" height="10" rx="2" ry="2" fill="#19e5a1" /><text x="96" y="348" class="legend-label">Stars</text><rect x="250" y="339" width="10" height="10" rx="2" ry="2" fill="#6eb6ec" /><text x="266" y="348" class="legend-label">Followers</text><rect x="420" y="339" width="10" height="10" rx="2" ry="2" fill="#5938e2" /><text x="436" y="348" class="legend-label">Following</text><rect x="590" y="339" width="10" height="10" rx="2" ry="2" fill="#60e5e0" /><text x="606" y="348" class="legend-label">Contributions</text><rect x="80" y="357" width="10" height="10" rx="2" ry="2" fill="#567de1" /><text x="96" y="366" class="legend-label">Pull Requests</text><rect x="250" y="357" width="10" height="10" rx="2" ry="2" fill="#9754dd" /><text x="266" y="366" class="legend-label">Issues</text>
</svg>
