<svg width="900" height="402" viewBox="0 0 900 402" xmlns="http://www.w3.org/2000/svg">
  <defs>
    <linearGradient id="history-gradient" x1="0%" y1="0%" x2="100%" y2="100%">
      <stop offset="0%" style="stop-color:#58a6ff;stop-opacity:1" />
      <stop offset="100%" style="stop-color:#a371f7;stop-opacity:1" />
    </linearGradient>
    <clipPath id="history-rounded">
      <rect x="0" y="0" width="900" height="402" rx="8" ry="8" />
    </clipPath>
  </defs>
  <style>
    .title {
      font-family: 'Segoe UI', Ubuntu, 'Helvetica Neue', sans-serif;
      font-size: 22px;
      font-weight: 700;
      fill: #58a6ff;
    }
    .subtitle {
      font-family: 'Segoe UI', Ubuntu, 'Helvetica Neue', sans-serif;
      font-size: 12px;
      font-weight: 500;
      fill: #8b949e;
    }
    .axis-label {
      font-family: 'Segoe UI', Ubuntu, 'Helvetica Neue', sans-serif;
      font-size: 10px;
      fill: #8b949e;
    }
    .grid-line {
      stroke: #30363d;
      stroke-width: 1;
      opacity: 0.3;
    }
    .legend-label {
      font-family: 'Segoe UI', Ubuntu, 'Helvetica Neue', sans-serif;
      font-size: 11px;
      fill: #c9d1d9;
      dominant-baseline: middle;
    }
  </style>
  <rect clip-path="url(#history-rounded)" width="100%" height="100%" fill="#0d1117" stroke="#30363d" stroke-width="1" />
  <rect x="0" y="396" width="900" height="6" fill="url(#history-gradient)" clip-path="url(#history-rounded)" />
  <text x="24" y="34" class="title">Leonardo Klein Stats History</text>
  <text x="24" y="54" class="subtitle">Period: 2026-02-20 to 2026-03-12</text>
  <text x="72" y="320.0" text-anchor="end" dominant-baseline="central" class="axis-label">0</text><text x="72" y="270.0" text-anchor="end" dominant-baseline="central" class="axis-label">400</text><text x="72" y="220.0" text-anchor="end" dominant-baseline="central" class="axis-label">800</text><text x="72" y="170.0" text-anchor="end" dominant-baseline="central" class="axis-label">1.2k</text><text x="72" y="120.0" text-anchor="end" dominant-baseline="central" class="axis-label">1.6k</text><text x="72" y="70.0" text-anchor="end" dominant-baseline="central" class="axis-label">2.0k</text>
  <text x="80.0" y="336" text-anchor="middle" class="axis-label">02-20</text><text x="155.2" y="336" text-anchor="middle" class="axis-label">02-22</text><text x="230.5" y="336" text-anchor="middle" class="axis-label">02-24</text><text x="305.7" y="336" text-anchor="middle" class="axis-label">02-26</text><text x="381.0" y="336" text-anchor="middle" class="axis-label">02-28</text><text x="456.2" y="336" text-anchor="middle" class="axis-label">03-02</text><text x="531.5" y="336" text-anchor="middle" class="axis-label">03-04</text><text x="606.7" y="336" text-anchor="middle" class="axis-label">03-06</text><text x="682.0" y="336" text-anchor="middle" class="axis-label">03-08</text><text x="757.2" y="336" text-anchor="middle" class="axis-label">03-10</text><text x="832.5" y="336" text-anchor="middle" class="axis-label">03-12</text><text x="840.0" y="336" text-anchor="middle" class="axis-label">03-12</text>
  <line x1="80" y1="320.0" x2="840" y2="320.0" class="grid-line" /><line x1="80" y1="270.0" x2="840" y2="270.0" class="grid-line" /><line x1="80" y1="220.0" x2="840" y2="220.0" class="grid-line" /><line x1="80" y1="170.0" x2="840" y2="170.0" class="grid-line" /><line x1="80" y1="120.0" x2="840" y2="120.0" class="grid-line" /><line x1="80" y1="70.0" x2="840" y2="70.0" class="grid-line" />
  <polyline points="80.0,317.0 87.5,317.0 95.0,317.0 102.6,317.0 110.1,317.0 117.6,317.0 125.1,317.0 132.7,317.0 140.2,317.0 147.7,317.0 155.2,317.0 162.8,317.0 170.3,317.0 177.8,317.0 185.3,317.0 192.9,317.0 200.4,317.0 207.9,317.0 215.4,317.0 223.0,317.0 230.5,317.0 238.0,317.0 245.5,317.0 253.1,317.0 260.6,317.0 268.1,317.0 275.6,317.0 283.2,317.0 290.7,317.0 298.2,317.0 305.7,317.0 313.3,317.0 320.8,317.0 328.3,317.0 335.8,317.0 343.4,317.0 350.9,317.0 358.4,317.0 365.9,317.0 373.5,317.0 381.0,317.0 388.5,317.0 396.0,317.0 403.6,317.0 411.1,317.0 418.6,317.0 426.1,317.0 433.7,317.0 441.2,317.0 448.7,317.0 456.2,317.0 463.8,317.0 471.3,317.0 478.8,317.0 486.3,317.0 493.9,317.0 501.4,317.0 508.9,317.0 516.4,317.0 524.0,317.0 531.5,317.0 539.0,317.0 546.5,317.0 554.1,317.0 561.6,317.0 569.1,317.0 576.6,317.0 584.2,317.0 591.7,317.0 599.2,317.0 606.7,317.0 614.3,317.0 621.8,317.0 629.3,317.0 636.8,317.0 644.4,317.0 651.9,317.0 659.4,317.0 666.9,317.0 674.5,317.0 682.0,317.0 689.5,317.0 697.0,317.0 704.6,317.0 712.1,317.0 719.6,317.0 727.1,317.0 734.7,317.0 742.2,317.0 749.7,317.0 757.2,317.0 764.8,317.0 772.3,317.0 779.8,317.0 787.3,317.0 794.9,317.0 802.4,317.0 809.9,317.0 817.4,317.0 825.0,317.0 832.5,317.0 840.0,317.0" fill="none" stroke="#19e5a1" stroke-width="2.5" stroke-linecap="round" stroke-linejoin="round" /><circle cx="80.0" cy="317.0" r="4" fill="#19e5a1" /><circle cx="87.5" cy="317.0" r="4" fill="#19e5a1" /><circle cx="95.0" cy="317.0" r="4" fill="#19e5a1" /><circle cx="102.6" cy="317.0" r="4" fill="#19e5a1" /><circle cx="110.1" cy="317.0" r="4" fill="#19e5a1" /><circle cx="117.6" cy="317.0" r="4" fill="#19e5a1" /><circle cx="125.1" cy="317.0" r="4" fill="#19e5a1" /><circle cx="132.7" cy="317.0" r="4" fill="#19e5a1" /><circle cx="140.2" cy="317.0" r="4" fill="#19e5a1" /><circle cx="147.7" cy="317.0" r="4" fill="#19e5a1" /><circle cx="155.2" cy="317.0" r="4" fill="#19e5a1" /><circle cx="162.8" cy="317.0" r="4" fill="#19e5a1" /><circle cx="170.3" cy="317.0" r="4" fill="#19e5a1" /><circle cx="177.8" cy="317.0" r="4" fill="#19e5a1" /><circle cx="185.3" cy="317.0" r="4" fill="#19e5a1" /><circle cx="192.9" cy="317.0" r="4" fill="#19e5a1" /><circle cx="200.4" cy="317.0" r="4" fill="#19e5a1" /><circle cx="207.9" cy="317.0" r="4" fill="#19e5a1" /><circle cx="215.4" cy="317.0" r="4" fill="#19e5a1" /><circle cx="223.0" cy="317.0" r="4" fill="#19e5a1" /><circle cx="230.5" cy="317.0" r="4" fill="#19e5a1" /><circle cx="238.0" cy="317.0" r="4" fill="#19e5a1" /><circle cx="245.5" cy="317.0" r="4" fill="#19e5a1" /><circle cx="253.1" cy="317.0" r="4" fill="#19e5a1" /><circle cx="260.6" cy="317.0" r="4" fill="#19e5a1" /><circle cx="268.1" cy="317.0" r="4" fill="#19e5a1" /><circle cx="275.6" cy="317.0" r="4" fill="#19e5a1" /><circle cx="283.2" cy="317.0" r="4" fill="#19e5a1" /><circle cx="290.7" cy="317.0" r="4" fill="#19e5a1" /><circle cx="298.2" cy="317.0" r="4" fill="#19e5a1" /><circle cx="305.7" cy="317.0" r="4" fill="#19e5a1" /><circle cx="313.3" cy="317.0" r="4" fill="#19e5a1" /><circle cx="320.8" cy="317.0" r="4" fill="#19e5a1" /><circle cx="328.3" cy="317.0" r="4" fill="#19e5a1" /><circle cx="335.8" cy="317.0" r="4" fill="#19e5a1" /><circle cx="343.4" cy="317.0" r="4" fill="#19e5a1" /><circle cx="350.9" cy="317.0" r="4" fill="#19e5a1" /><circle cx="358.4" cy="317.0" r="4" fill="#19e5a1" /><circle cx="365.9" cy="317.0" r="4" fill="#19e5a1" /><circle cx="373.5" cy="317.0" r="4" fill="#19e5a1" /><circle cx="381.0" cy="317.0" r="4" fill="#19e5a1" /><circle cx="388.5" cy="317.0" r="4" fill="#19e5a1" /><circle cx="396.0" cy="317.0" r="4" fill="#19e5a1" /><circle cx="403.6" cy="317.0" r="4" fill="#19e5a1" /><circle cx="411.1" cy="317.0" r="4" fill="#19e5a1" /><circle cx="418.6" cy="317.0" r="4" fill="#19e5a1" /><circle cx="426.1" cy="317.0" r="4" fill="#19e5a1" /><circle cx="433.7" cy="317.0" r="4" fill="#19e5a1" /><circle cx="441.2" cy="317.0" r="4" fill="#19e5a1" /><circle cx="448.7" cy="317.0" r="4" fill="#19e5a1" /><circle cx="456.2" cy="317.0" r="4" fill="#19e5a1" /><circle cx="463.8" cy="317.0" r="4" fill="#19e5a1" /><circle cx="471.3" cy="317.0" r="4" fill="#19e5a1" /><circle cx="478.8" cy="317.0" r="4" fill="#19e5a1" /><circle cx="486.3" cy="317.0" r="4" fill="#19e5a1" /><circle cx="493.9" cy="317.0" r="4" fill="#19e5a1" /><circle cx="501.4" cy="317.0" r="4" fill="#19e5a1" /><circle cx="508.9" cy="317.0" r="4" fill="#19e5a1" /><circle cx="516.4" cy="317.0" r="4" fill="#19e5a1" /><circle cx="524.0" cy="317.0" r="4" fill="#19e5a1" /><circle cx="531.5" cy="317.0" r="4" fill="#19e5a1" /><circle cx="539.0" cy="317.0" r="4" fill="#19e5a1" /><circle cx="546.5" cy="317.0" r="4" fill="#19e5a1" /><circle cx="554.1" cy="317.0" r="4" fill="#19e5a1" /><circle cx="561.6" cy="317.0" r="4" fill="#19e5a1" /><circle cx="569.1" cy="317.0" r="4" fill="#19e5a1" /><circle cx="576.6" cy="317.0" r="4" fill="#19e5a1" /><circle cx="584.2" cy="317.0" r="4" fill="#19e5a1" /><circle cx="591.7" cy="317.0" r="4" fill="#19e5a1" /><circle cx="599.2" cy="317.0" r="4" fill="#19e5a1" /><circle cx="606.7" cy="317.0" r="4" fill="#19e5a1" /><circle cx="614.3" cy="317.0" r="4" fill="#19e5a1" /><circle cx="621.8" cy="317.0" r="4" fill="#19e5a1" /><circle cx="629.3" cy="317.0" r="4" fill="#19e5a1" /><circle cx="636.8" cy="317.0" r="4" fill="#19e5a1" /><circle cx="644.4" cy="317.0" r="4" fill="#19e5a1" /><circle cx="651.9" cy="317.0" r="4" fill="#19e5a1" /><circle cx="659.4" cy="317.0" r="4" fill="#19e5a1" /><circle cx="666.9" cy="317.0" r="4" fill="#19e5a1" /><circle cx="674.5" cy="317.0" r="4" fill="#19e5a1" /><circle cx="682.0" cy="317.0" r="4" fill="#19e5a1" /><circle cx="689.5" cy="317.0" r="4" fill="#19e5a1" /><circle cx="697.0" cy="317.0" r="4" fill="#19e5a1" /><circle cx="704.6" cy="317.0" r="4" fill="#19e5a1" /><circle cx="712.1" cy="317.0" r="4" fill="#19e5a1" /><circle cx="719.6" cy="317.0" r="4" fill="#19e5a1" /><circle cx="727.1" cy="317.0" r="4" fill="#19e5a1" /><circle cx="734.7" cy="317.0" r="4" fill="#19e5a1" /><circle cx="742.2" cy="317.0" r="4" fill="#19e5a1" /><circle cx="749.7" cy="317.0" r="4" fill="#19e5a1" /><circle cx="757.2" cy="317.0" r="4" fill="#19e5a1" /><circle cx="764.8" cy="317.0" r="4" fill="#19e5a1" /><circle cx="772.3" cy="317.0" r="4" fill="#19e5a1" /><circle cx="779.8" cy="317.0" r="4" fill="#19e5a1" /><circle cx="787.3" cy="317.0" r="4" fill="#19e5a1" /><circle cx="794.9" cy="317.0" r="4" fill="#19e5a1" /><circle cx="802.4" cy="317.0" r="4" fill="#19e5a1" /><circle cx="809.9" cy="317.0" r="4" fill="#19e5a1" /><circle cx="817.4" cy="317.0" r="4" fill="#19e5a1" /><circle cx="825.0" cy="317.0" r="4" fill="#19e5a1" /><circle cx="832.5" cy="317.0" r="4" fill="#19e5a1" /><circle cx="840.0" cy="317.0" r="4" fill="#19e5a1" /><polyline points="80.0,313.2 87.5,312.2 95.0,312.1 102.6,312.4 110.1,312.4 117.6,312.4 125.1,312.1 132.7,312.0 140.2,311.9 147.7,311.9 155.2,311.8 162.8,311.8 170.3,311.5 177.8,311.5 185.3,311.5 192.9,311.2 200.4,311.2 207.9,311.1 215.4,311.1 223.0,311.1 230.5,310.9 238.0,311.0 245.5,310.8 253.1,310.8 260.6,310.8 268.1,310.8 275.6,310.4 283.2,310.2 290.7,310.4 298.2,310.4 305.7,310.4 313.3,310.4 320.8,310.4 328.3,310.2 335.8,310.2 343.4,310.1 350.9,310.1 358.4,309.8 365.9,309.6 373.5,309.6 381.0,309.6 388.5,309.6 396.0,309.5 403.6,309.4 411.1,309.4 418.6,309.4 426.1,309.4 433.7,309.2 441.2,309.2 448.7,309.2 456.2,309.4 463.8,309.4 471.3,309.5 478.8,309.2 486.3,309.2 493.9,309.4 501.4,309.2 508.9,309.2 516.4,309.2 524.0,309.2 531.5,309.2 539.0,309.1 546.5,309.1 554.1,309.1 561.6,309.1 569.1,309.0 576.6,309.0 584.2,308.9 591.7,308.9 599.2,308.9 606.7,308.6 614.3,308.6 621.8,308.6 629.3,308.6 636.8,308.6 644.4,308.6 651.9,308.6 659.4,308.6 666.9,308.6 674.5,308.6 682.0,308.6 689.5,308.6 697.0,308.6 704.6,307.8 712.1,307.8 719.6,307.6 727.1,307.6 734.7,307.6 742.2,307.5 749.7,307.5 757.2,307.6 764.8,308.5 772.3,308.5 779.8,308.4 787.3,308.4 794.9,307.5 802.4,307.5 809.9,307.2 817.4,307.1 825.0,307.1 832.5,307.1 840.0,307.0" fill="none" stroke="#6eb6ec" stroke-width="2.5" stroke-linecap="round" stroke-linejoin="round" /><circle cx="80.0" cy="313.2" r="4" fill="#6eb6ec" /><circle cx="87.5" cy="312.2" r="4" fill="#6eb6ec" /><circle cx="95.0" cy="312.1" r="4" fill="#6eb6ec" /><circle cx="102.6" cy="312.4" r="4" fill="#6eb6ec" /><circle cx="110.1" cy="312.4" r="4" fill="#6eb6ec" /><circle cx="117.6" cy="312.4" r="4" fill="#6eb6ec" /><circle cx="125.1" cy="312.1" r="4" fill="#6eb6ec" /><circle cx="132.7" cy="312.0" r="4" fill="#6eb6ec" /><circle cx="140.2" cy="311.9" r="4" fill="#6eb6ec" /><circle cx="147.7" cy="311.9" r="4" fill="#6eb6ec" /><circle cx="155.2" cy="311.8" r="4" fill="#6eb6ec" /><circle cx="162.8" cy="311.8" r="4" fill="#6eb6ec" /><circle cx="170.3" cy="311.5" r="4" fill="#6eb6ec" /><circle cx="177.8" cy="311.5" r="4" fill="#6eb6ec" /><circle cx="185.3" cy="311.5" r="4" fill="#6eb6ec" /><circle cx="192.9" cy="311.2" r="4" fill="#6eb6ec" /><circle cx="200.4" cy="311.2" r="4" fill="#6eb6ec" /><circle cx="207.9" cy="311.1" r="4" fill="#6eb6ec" /><circle cx="215.4" cy="311.1" r="4" fill="#6eb6ec" /><circle cx="223.0" cy="311.1" r="4" fill="#6eb6ec" /><circle cx="230.5" cy="310.9" r="4" fill="#6eb6ec" /><circle cx="238.0" cy="311.0" r="4" fill="#6eb6ec" /><circle cx="245.5" cy="310.8" r="4" fill="#6eb6ec" /><circle cx="253.1" cy="310.8" r="4" fill="#6eb6ec" /><circle cx="260.6" cy="310.8" r="4" fill="#6eb6ec" /><circle cx="268.1" cy="310.8" r="4" fill="#6eb6ec" /><circle cx="275.6" cy="310.4" r="4" fill="#6eb6ec" /><circle cx="283.2" cy="310.2" r="4" fill="#6eb6ec" /><circle cx="290.7" cy="310.4" r="4" fill="#6eb6ec" /><circle cx="298.2" cy="310.4" r="4" fill="#6eb6ec" /><circle cx="305.7" cy="310.4" r="4" fill="#6eb6ec" /><circle cx="313.3" cy="310.4" r="4" fill="#6eb6ec" /><circle cx="320.8" cy="310.4" r="4" fill="#6eb6ec" /><circle cx="328.3" cy="310.2" r="4" fill="#6eb6ec" /><circle cx="335.8" cy="310.2" r="4" fill="#6eb6ec" /><circle cx="343.4" cy="310.1" r="4" fill="#6eb6ec" /><circle cx="350.9" cy="310.1" r="4" fill="#6eb6ec" /><circle cx="358.4" cy="309.8" r="4" fill="#6eb6ec" /><circle cx="365.9" cy="309.6" r="4" fill="#6eb6ec" /><circle cx="373.5" cy="309.6" r="4" fill="#6eb6ec" /><circle cx="381.0" cy="309.6" r="4" fill="#6eb6ec" /><circle cx="388.5" cy="309.6" r="4" fill="#6eb6ec" /><circle cx="396.0" cy="309.5" r="4" fill="#6eb6ec" /><circle cx="403.6" cy="309.4" r="4" fill="#6eb6ec" /><circle cx="411.1" cy="309.4" r="4" fill="#6eb6ec" /><circle cx="418.6" cy="309.4" r="4" fill="#6eb6ec" /><circle cx="426.1" cy="309.4" r="4" fill="#6eb6ec" /><circle cx="433.7" cy="309.2" r="4" fill="#6eb6ec" /><circle cx="441.2" cy="309.2" r="4" fill="#6eb6ec" /><circle cx="448.7" cy="309.2" r="4" fill="#6eb6ec" /><circle cx="456.2" cy="309.4" r="4" fill="#6eb6ec" /><circle cx="463.8" cy="309.4" r="4" fill="#6eb6ec" /><circle cx="471.3" cy="309.5" r="4" fill="#6eb6ec" /><circle cx="478.8" cy="309.2" r="4" fill="#6eb6ec" /><circle cx="486.3" cy="309.2" r="4" fill="#6eb6ec" /><circle cx="493.9" cy="309.4" r="4" fill="#6eb6ec" /><circle cx="501.4" cy="309.2" r="4" fill="#6eb6ec" /><circle cx="508.9" cy="309.2" r="4" fill="#6eb6ec" /><circle cx="516.4" cy="309.2" r="4" fill="#6eb6ec" /><circle cx="524.0" cy="309.2" r="4" fill="#6eb6ec" /><circle cx="531.5" cy="309.2" r="4" fill="#6eb6ec" /><circle cx="539.0" cy="309.1" r="4" fill="#6eb6ec" /><circle cx="546.5" cy="309.1" r="4" fill="#6eb6ec" /><circle cx="554.1" cy="309.1" r="4" fill="#6eb6ec" /><circle cx="561.6" cy="309.1" r="4" fill="#6eb6ec" /><circle cx="569.1" cy="309.0" r="4" fill="#6eb6ec" /><circle cx="576.6" cy="309.0" r="4" fill="#6eb6ec" /><circle cx="584.2" cy="308.9" r="4" fill="#6eb6ec" /><circle cx="591.7" cy="308.9" r="4" fill="#6eb6ec" /><circle cx="599.2" cy="308.9" r="4" fill="#6eb6ec" /><circle cx="606.7" cy="308.6" r="4" fill="#6eb6ec" /><circle cx="614.3" cy="308.6" r="4" fill="#6eb6ec" /><circle cx="621.8" cy="308.6" r="4" fill="#6eb6ec" /><circle cx="629.3" cy="308.6" r="4" fill="#6eb6ec" /><circle cx="636.8" cy="308.6" r="4" fill="#6eb6ec" /><circle cx="644.4" cy="308.6" r="4" fill="#6eb6ec" /><circle cx="651.9" cy="308.6" r="4" fill="#6eb6ec" /><circle cx="659.4" cy="308.6" r="4" fill="#6eb6ec" /><circle cx="666.9" cy="308.6" r="4" fill="#6eb6ec" /><circle cx="674.5" cy="308.6" r="4" fill="#6eb6ec" /><circle cx="682.0" cy="308.6" r="4" fill="#6eb6ec" /><circle cx="689.5" cy="308.6" r="4" fill="#6eb6ec" /><circle cx="697.0" cy="308.6" r="4" fill="#6eb6ec" /><circle cx="704.6" cy="307.8" r="4" fill="#6eb6ec" /><circle cx="712.1" cy="307.8" r="4" fill="#6eb6ec" /><circle cx="719.6" cy="307.6" r="4" fill="#6eb6ec" /><circle cx="727.1" cy="307.6" r="4" fill="#6eb6ec" /><circle cx="734.7" cy="307.6" r="4" fill="#6eb6ec" /><circle cx="742.2" cy="307.5" r="4" fill="#6eb6ec" /><circle cx="749.7" cy="307.5" r="4" fill="#6eb6ec" /><circle cx="757.2" cy="307.6" r="4" fill="#6eb6ec" /><circle cx="764.8" cy="308.5" r="4" fill="#6eb6ec" /><circle cx="772.3" cy="308.5" r="4" fill="#6eb6ec" /><circle cx="779.8" cy="308.4" r="4" fill="#6eb6ec" /><circle cx="787.3" cy="308.4" r="4" fill="#6eb6ec" /><circle cx="794.9" cy="307.5" r="4" fill="#6eb6ec" /><circle cx="802.4" cy="307.5" r="4" fill="#6eb6ec" /><circle cx="809.9" cy="307.2" r="4" fill="#6eb6ec" /><circle cx="817.4" cy="307.1" r="4" fill="#6eb6ec" /><circle cx="825.0" cy="307.1" r="4" fill="#6eb6ec" /><circle cx="832.5" cy="307.1" r="4" fill="#6eb6ec" /><circle cx="840.0" cy="307.0" r="4" fill="#6eb6ec" /><polyline points="80.0,305.8 87.5,305.8 95.0,305.8 102.6,305.8 110.1,305.8 117.6,305.8 125.1,305.8 132.7,305.8 140.2,305.8 147.7,305.8 155.2,304.9 162.8,304.9 170.3,304.9 177.8,304.9 185.3,304.9 192.9,304.9 200.4,304.9 207.9,304.9 215.4,304.9 223.0,304.9 230.5,304.9 238.0,304.9 245.5,304.9 253.1,304.9 260.6,304.9 268.1,304.9 275.6,304.9 283.2,304.9 290.7,304.9 298.2,304.9 305.7,304.9 313.3,304.9 320.8,304.9 328.3,304.9 335.8,304.9 343.4,304.9 350.9,304.9 358.4,303.6 365.9,303.6 373.5,303.6 381.0,303.6 388.5,303.6 396.0,303.6 403.6,303.6 411.1,303.6 418.6,303.6 426.1,303.6 433.7,303.6 441.2,303.6 448.7,303.6 456.2,303.6 463.8,302.9 471.3,302.9 478.8,298.0 486.3,298.0 493.9,298.0 501.4,298.0 508.9,298.0 516.4,298.0 524.0,298.0 531.5,298.0 539.0,298.0 546.5,298.0 554.1,298.0 561.6,298.0 569.1,298.0 576.6,298.0 584.2,297.8 591.7,297.8 599.2,297.8 606.7,297.8 614.3,297.8 621.8,297.8 629.3,297.8 636.8,297.8 644.4,297.8 651.9,297.8 659.4,297.8 666.9,297.8 674.5,297.8 682.0,297.8 689.5,297.8 697.0,297.8 704.6,297.8 712.1,297.8 719.6,297.8 727.1,297.6 734.7,297.8 742.2,297.8 749.7,297.8 757.2,297.9 764.8,297.9 772.3,297.9 779.8,296.1 787.3,296.1 794.9,296.1 802.4,296.1 809.9,296.1 817.4,296.1 825.0,296.1 832.5,296.1 840.0,296.1" fill="none" stroke="#5938e2" stroke-width="2.5" stroke-linecap="round" stroke-linejoin="round" /><circle cx="80.0" cy="305.8" r="4" fill="#5938e2" /><circle cx="87.5" cy="305.8" r="4" fill="#5938e2" /><circle cx="95.0" cy="305.8" r="4" fill="#5938e2" /><circle cx="102.6" cy="305.8" r="4" fill="#5938e2" /><circle cx="110.1" cy="305.8" r="4" fill="#5938e2" /><circle cx="117.6" cy="305.8" r="4" fill="#5938e2" /><circle cx="125.1" cy="305.8" r="4" fill="#5938e2" /><circle cx="132.7" cy="305.8" r="4" fill="#5938e2" /><circle cx="140.2" cy="305.8" r="4" fill="#5938e2" /><circle cx="147.7" cy="305.8" r="4" fill="#5938e2" /><circle cx="155.2" cy="304.9" r="4" fill="#5938e2" /><circle cx="162.8" cy="304.9" r="4" fill="#5938e2" /><circle cx="170.3" cy="304.9" r="4" fill="#5938e2" /><circle cx="177.8" cy="304.9" r="4" fill="#5938e2" /><circle cx="185.3" cy="304.9" r="4" fill="#5938e2" /><circle cx="192.9" cy="304.9" r="4" fill="#5938e2" /><circle cx="200.4" cy="304.9" r="4" fill="#5938e2" /><circle cx="207.9" cy="304.9" r="4" fill="#5938e2" /><circle cx="215.4" cy="304.9" r="4" fill="#5938e2" /><circle cx="223.0" cy="304.9" r="4" fill="#5938e2" /><circle cx="230.5" cy="304.9" r="4" fill="#5938e2" /><circle cx="238.0" cy="304.9" r="4" fill="#5938e2" /><circle cx="245.5" cy="304.9" r="4" fill="#5938e2" /><circle cx="253.1" cy="304.9" r="4" fill="#5938e2" /><circle cx="260.6" cy="304.9" r="4" fill="#5938e2" /><circle cx="268.1" cy="304.9" r="4" fill="#5938e2" /><circle cx="275.6" cy="304.9" r="4" fill="#5938e2" /><circle cx="283.2" cy="304.9" r="4" fill="#5938e2" /><circle cx="290.7" cy="304.9" r="4" fill="#5938e2" /><circle cx="298.2" cy="304.9" r="4" fill="#5938e2" /><circle cx="305.7" cy="304.9" r="4" fill="#5938e2" /><circle cx="313.3" cy="304.9" r="4" fill="#5938e2" /><circle cx="320.8" cy="304.9" r="4" fill="#5938e2" /><circle cx="328.3" cy="304.9" r="4" fill="#5938e2" /><circle cx="335.8" cy="304.9" r="4" fill="#5938e2" /><circle cx="343.4" cy="304.9" r="4" fill="#5938e2" /><circle cx="350.9" cy="304.9" r="4" fill="#5938e2" /><circle cx="358.4" cy="303.6" r="4" fill="#5938e2" /><circle cx="365.9" cy="303.6" r="4" fill="#5938e2" /><circle cx="373.5" cy="303.6" r="4" fill="#5938e2" /><circle cx="381.0" cy="303.6" r="4" fill="#5938e2" /><circle cx="388.5" cy="303.6" r="4" fill="#5938e2" /><circle cx="396.0" cy="303.6" r="4" fill="#5938e2" /><circle cx="403.6" cy="303.6" r="4" fill="#5938e2" /><circle cx="411.1" cy="303.6" r="4" fill="#5938e2" /><circle cx="418.6" cy="303.6" r="4" fill="#5938e2" /><circle cx="426.1" cy="303.6" r="4" fill="#5938e2" /><circle cx="433.7" cy="303.6" r="4" fill="#5938e2" /><circle cx="441.2" cy="303.6" r="4" fill="#5938e2" /><circle cx="448.7" cy="303.6" r="4" fill="#5938e2" /><circle cx="456.2" cy="303.6" r="4" fill="#5938e2" /><circle cx="463.8" cy="302.9" r="4" fill="#5938e2" /><circle cx="471.3" cy="302.9" r="4" fill="#5938e2" /><circle cx="478.8" cy="298.0" r="4" fill="#5938e2" /><circle cx="486.3" cy="298.0" r="4" fill="#5938e2" /><circle cx="493.9" cy="298.0" r="4" fill="#5938e2" /><circle cx="501.4" cy="298.0" r="4" fill="#5938e2" /><circle cx="508.9" cy="298.0" r="4" fill="#5938e2" /><circle cx="516.4" cy="298.0" r="4" fill="#5938e2" /><circle cx="524.0" cy="298.0" r="4" fill="#5938e2" /><circle cx="531.5" cy="298.0" r="4" fill="#5938e2" /><circle cx="539.0" cy="298.0" r="4" fill="#5938e2" /><circle cx="546.5" cy="298.0" r="4" fill="#5938e2" /><circle cx="554.1" cy="298.0" r="4" fill="#5938e2" /><circle cx="561.6" cy="298.0" r="4" fill="#5938e2" /><circle cx="569.1" cy="298.0" r="4" fill="#5938e2" /><circle cx="576.6" cy="298.0" r="4" fill="#5938e2" /><circle cx="584.2" cy="297.8" r="4" fill="#5938e2" /><circle cx="591.7" cy="297.8" r="4" fill="#5938e2" /><circle cx="599.2" cy="297.8" r="4" fill="#5938e2" /><circle cx="606.7" cy="297.8" r="4" fill="#5938e2" /><circle cx="614.3" cy="297.8" r="4" fill="#5938e2" /><circle cx="621.8" cy="297.8" r="4" fill="#5938e2" /><circle cx="629.3" cy="297.8" r="4" fill="#5938e2" /><circle cx="636.8" cy="297.8" r="4" fill="#5938e2" /><circle cx="644.4" cy="297.8" r="4" fill="#5938e2" /><circle cx="651.9" cy="297.8" r="4" fill="#5938e2" /><circle cx="659.4" cy="297.8" r="4" fill="#5938e2" /><circle cx="666.9" cy="297.8" r="4" fill="#5938e2" /><circle cx="674.5" cy="297.8" r="4" fill="#5938e2" /><circle cx="682.0" cy="297.8" r="4" fill="#5938e2" /><circle cx="689.5" cy="297.8" r="4" fill="#5938e2" /><circle cx="697.0" cy="297.8" r="4" fill="#5938e2" /><circle cx="704.6" cy="297.8" r="4" fill="#5938e2" /><circle cx="712.1" cy="297.8" r="4" fill="#5938e2" /><circle cx="719.6" cy="297.8" r="4" fill="#5938e2" /><circle cx="727.1" cy="297.6" r="4" fill="#5938e2" /><circle cx="734.7" cy="297.8" r="4" fill="#5938e2" /><circle cx="742.2" cy="297.8" r="4" fill="#5938e2" /><circle cx="749.7" cy="297.8" r="4" fill="#5938e2" /><circle cx="757.2" cy="297.9" r="4" fill="#5938e2" /><circle cx="764.8" cy="297.9" r="4" fill="#5938e2" /><circle cx="772.3" cy="297.9" r="4" fill="#5938e2" /><circle cx="779.8" cy="296.1" r="4" fill="#5938e2" /><circle cx="787.3" cy="296.1" r="4" fill="#5938e2" /><circle cx="794.9" cy="296.1" r="4" fill="#5938e2" /><circle cx="802.4" cy="296.1" r="4" fill="#5938e2" /><circle cx="809.9" cy="296.1" r="4" fill="#5938e2" /><circle cx="817.4" cy="296.1" r="4" fill="#5938e2" /><circle cx="825.0" cy="296.1" r="4" fill="#5938e2" /><circle cx="832.5" cy="296.1" r="4" fill="#5938e2" /><circle cx="840.0" cy="296.1" r="4" fill="#5938e2" /><polyline points="80.0,144.6 87.5,140.1 95.0,139.9 102.6,139.8 110.1,139.8 117.6,139.6 125.1,139.6 132.7,139.6 140.2,139.6 147.7,139.6 155.2,138.4 162.8,138.4 170.3,138.4 177.8,138.4 185.3,138.4 192.9,138.4 200.4,138.4 207.9,137.4 215.4,137.4 223.0,137.4 230.5,137.4 238.0,137.4 245.5,137.4 253.1,137.4 260.6,137.4 268.1,137.4 275.6,137.4 283.2,137.4 290.7,131.2 298.2,131.2 305.7,130.8 313.3,130.4 320.8,126.9 328.3,126.9 335.8,126.9 343.4,126.9 350.9,126.9 358.4,126.9 365.9,126.9 373.5,126.9 381.0,126.9 388.5,126.8 396.0,122.1 403.6,120.4 411.1,120.4 418.6,120.4 426.1,120.4 433.7,120.4 441.2,119.4 448.7,119.4 456.2,119.4 463.8,119.4 471.3,119.1 478.8,118.8 486.3,118.8 493.9,117.8 501.4,117.8 508.9,117.8 516.4,115.8 524.0,115.8 531.5,115.0 539.0,115.0 546.5,115.0 554.1,115.0 561.6,115.0 569.1,115.0 576.6,115.0 584.2,113.9 591.7,111.8 599.2,111.8 606.7,111.8 614.3,111.8 621.8,111.8 629.3,111.8 636.8,111.8 644.4,111.8 651.9,111.8 659.4,111.8 666.9,110.6 674.5,110.6 682.0,110.6 689.5,110.6 697.0,110.6 704.6,109.4 712.1,109.4 719.6,109.4 727.1,109.4 734.7,109.2 742.2,109.2 749.7,109.2 757.2,109.2 764.8,109.2 772.3,109.2 779.8,109.2 787.3,109.2 794.9,109.2 802.4,109.2 809.9,109.2 817.4,109.2 825.0,109.2 832.5,109.2 840.0,109.2" fill="none" stroke="#60e5e0" stroke-width="2.5" stroke-linecap="round" stroke-linejoin="round" /><circle cx="80.0" cy="144.6" r="4" fill="#60e5e0" /><circle cx="87.5" cy="140.1" r="4" fill="#60e5e0" /><circle cx="95.0" cy="139.9" r="4" fill="#60e5e0" /><circle cx="102.6" cy="139.8" r="4" fill="#60e5e0" /><circle cx="110.1" cy="139.8" r="4" fill="#60e5e0" /><circle cx="117.6" cy="139.6" r="4" fill="#60e5e0" /><circle cx="125.1" cy="139.6" r="4" fill="#60e5e0" /><circle cx="132.7" cy="139.6" r="4" fill="#60e5e0" /><circle cx="140.2" cy="139.6" r="4" fill="#60e5e0" /><circle cx="147.7" cy="139.6" r="4" fill="#60e5e0" /><circle cx="155.2" cy="138.4" r="4" fill="#60e5e0" /><circle cx="162.8" cy="138.4" r="4" fill="#60e5e0" /><circle cx="170.3" cy="138.4" r="4" fill="#60e5e0" /><circle cx="177.8" cy="138.4" r="4" fill="#60e5e0" /><circle cx="185.3" cy="138.4" r="4" fill="#60e5e0" /><circle cx="192.9" cy="138.4" r="4" fill="#60e5e0" /><circle cx="200.4" cy="138.4" r="4" fill="#60e5e0" /><circle cx="207.9" cy="137.4" r="4" fill="#60e5e0" /><circle cx="215.4" cy="137.4" r="4" fill="#60e5e0" /><circle cx="223.0" cy="137.4" r="4" fill="#60e5e0" /><circle cx="230.5" cy="137.4" r="4" fill="#60e5e0" /><circle cx="238.0" cy="137.4" r="4" fill="#60e5e0" /><circle cx="245.5" cy="137.4" r="4" fill="#60e5e0" /><circle cx="253.1" cy="137.4" r="4" fill="#60e5e0" /><circle cx="260.6" cy="137.4" r="4" fill="#60e5e0" /><circle cx="268.1" cy="137.4" r="4" fill="#60e5e0" /><circle cx="275.6" cy="137.4" r="4" fill="#60e5e0" /><circle cx="283.2" cy="137.4" r="4" fill="#60e5e0" /><circle cx="290.7" cy="131.2" r="4" fill="#60e5e0" /><circle cx="298.2" cy="131.2" r="4" fill="#60e5e0" /><circle cx="305.7" cy="130.8" r="4" fill="#60e5e0" /><circle cx="313.3" cy="130.4" r="4" fill="#60e5e0" /><circle cx="320.8" cy="126.9" r="4" fill="#60e5e0" /><circle cx="328.3" cy="126.9" r="4" fill="#60e5e0" /><circle cx="335.8" cy="126.9" r="4" fill="#60e5e0" /><circle cx="343.4" cy="126.9" r="4" fill="#60e5e0" /><circle cx="350.9" cy="126.9" r="4" fill="#60e5e0" /><circle cx="358.4" cy="126.9" r="4" fill="#60e5e0" /><circle cx="365.9" cy="126.9" r="4" fill="#60e5e0" /><circle cx="373.5" cy="126.9" r="4" fill="#60e5e0" /><circle cx="381.0" cy="126.9" r="4" fill="#60e5e0" /><circle cx="388.5" cy="126.8" r="4" fill="#60e5e0" /><circle cx="396.0" cy="122.1" r="4" fill="#60e5e0" /><circle cx="403.6" cy="120.4" r="4" fill="#60e5e0" /><circle cx="411.1" cy="120.4" r="4" fill="#60e5e0" /><circle cx="418.6" cy="120.4" r="4" fill="#60e5e0" /><circle cx="426.1" cy="120.4" r="4" fill="#60e5e0" /><circle cx="433.7" cy="120.4" r="4" fill="#60e5e0" /><circle cx="441.2" cy="119.4" r="4" fill="#60e5e0" /><circle cx="448.7" cy="119.4" r="4" fill="#60e5e0" /><circle cx="456.2" cy="119.4" r="4" fill="#60e5e0" /><circle cx="463.8" cy="119.4" r="4" fill="#60e5e0" /><circle cx="471.3" cy="119.1" r="4" fill="#60e5e0" /><circle cx="478.8" cy="118.8" r="4" fill="#60e5e0" /><circle cx="486.3" cy="118.8" r="4" fill="#60e5e0" /><circle cx="493.9" cy="117.8" r="4" fill="#60e5e0" /><circle cx="501.4" cy="117.8" r="4" fill="#60e5e0" /><circle cx="508.9" cy="117.8" r="4" fill="#60e5e0" /><circle cx="516.4" cy="115.8" r="4" fill="#60e5e0" /><circle cx="524.0" cy="115.8" r="4" fill="#60e5e0" /><circle cx="531.5" cy="115.0" r="4" fill="#60e5e0" /><circle cx="539.0" cy="115.0" r="4" fill="#60e5e0" /><circle cx="546.5" cy="115.0" r="4" fill="#60e5e0" /><circle cx="554.1" cy="115.0" r="4" fill="#60e5e0" /><circle cx="561.6" cy="115.0" r="4" fill="#60e5e0" /><circle cx="569.1" cy="115.0" r="4" fill="#60e5e0" /><circle cx="576.6" cy="115.0" r="4" fill="#60e5e0" /><circle cx="584.2" cy="113.9" r="4" fill="#60e5e0" /><circle cx="591.7" cy="111.8" r="4" fill="#60e5e0" /><circle cx="599.2" cy="111.8" r="4" fill="#60e5e0" /><circle cx="606.7" cy="111.8" r="4" fill="#60e5e0" /><circle cx="614.3" cy="111.8" r="4" fill="#60e5e0" /><circle cx="621.8" cy="111.8" r="4" fill="#60e5e0" /><circle cx="629.3" cy="111.8" r="4" fill="#60e5e0" /><circle cx="636.8" cy="111.8" r="4" fill="#60e5e0" /><circle cx="644.4" cy="111.8" r="4" fill="#60e5e0" /><circle cx="651.9" cy="111.8" r="4" fill="#60e5e0" /><circle cx="659.4" cy="111.8" r="4" fill="#60e5e0" /><circle cx="666.9" cy="110.6" r="4" fill="#60e5e0" /><circle cx="674.5" cy="110.6" r="4" fill="#60e5e0" /><circle cx="682.0" cy="110.6" r="4" fill="#60e5e0" /><circle cx="689.5" cy="110.6" r="4" fill="#60e5e0" /><circle cx="697.0" cy="110.6" r="4" fill="#60e5e0" /><circle cx="704.6" cy="109.4" r="4" fill="#60e5e0" /><circle cx="712.1" cy="109.4" r="4" fill="#60e5e0" /><circle cx="719.6" cy="109.4" r="4" fill="#60e5e0" /><circle cx="727.1" cy="109.4" r="4" fill="#60e5e0" /><circle cx="734.7" cy="109.2" r="4" fill="#60e5e0" /><circle cx="742.2" cy="109.2" r="4" fill="#60e5e0" /><circle cx="749.7" cy="109.2" r="4" fill="#60e5e0" /><circle cx="757.2" cy="109.2" r="4" fill="#60e5e0" /><circle cx="764.8" cy="109.2" r="4" fill="#60e5e0" /><circle cx="772.3" cy="109.2" r="4" fill="#60e5e0" /><circle cx="779.8" cy="109.2" r="4" fill="#60e5e0" /><circle cx="787.3" cy="109.2" r="4" fill="#60e5e0" /><circle cx="794.9" cy="109.2" r="4" fill="#60e5e0" /><circle cx="802.4" cy="109.2" r="4" fill="#60e5e0" /><circle cx="809.9" cy="109.2" r="4" fill="#60e5e0" /><circle cx="817.4" cy="109.2" r="4" fill="#60e5e0" /><circle cx="825.0" cy="109.2" r="4" fill="#60e5e0" /><circle cx="832.5" cy="109.2" r="4" fill="#60e5e0" /><circle cx="840.0" cy="109.2" r="4" fill="#60e5e0" /><polyline points="80.0,314.6 87.5,314.4 95.0,314.2 102.6,314.2 110.1,314.2 117.6,314.1 125.1,314.1 132.7,314.1 140.2,314.1 147.7,314.1 155.2,314.0 162.8,314.0 170.3,314.0 177.8,314.0 185.3,314.0 192.9,314.0 200.4,314.0 207.9,314.0 215.4,314.0 223.0,314.0 230.5,314.0 238.0,314.0 245.5,314.0 253.1,314.0 260.6,314.0 268.1,314.0 275.6,314.0 283.2,314.0 290.7,314.0 298.2,314.0 305.7,314.0 313.3,314.0 320.8,314.0 328.3,314.0 335.8,314.0 343.4,314.0 350.9,314.0 358.4,314.0 365.9,314.0 373.5,314.0 381.0,314.0 388.5,313.9 396.0,313.6 403.6,313.4 411.1,313.4 418.6,313.4 426.1,313.4 433.7,313.4 441.2,313.1 448.7,313.1 456.2,313.1 463.8,313.1 471.3,313.1 478.8,313.0 486.3,313.0 493.9,312.9 501.4,312.9 508.9,312.9 516.4,312.8 524.0,312.8 531.5,312.6 539.0,312.6 546.5,312.6 554.1,312.6 561.6,312.6 569.1,312.6 576.6,312.6 584.2,312.5 591.7,312.1 599.2,312.1 606.7,312.1 614.3,312.1 621.8,312.1 629.3,312.1 636.8,312.1 644.4,312.1 651.9,312.1 659.4,312.1 666.9,312.0 674.5,312.0 682.0,312.0 689.5,312.0 697.0,312.0 704.6,312.0 712.1,312.0 719.6,312.0 727.1,312.0 734.7,312.0 742.2,312.0 749.7,312.0 757.2,312.0 764.8,312.0 772.3,312.0 779.8,312.0 787.3,312.0 794.9,312.0 802.4,312.0 809.9,312.0 817.4,312.0 825.0,312.0 832.5,312.0 840.0,312.0" fill="none" stroke="#567de1" stroke-width="2.5" stroke-linecap="round" stroke-linejoin="round" /><circle cx="80.0" cy="314.6" r="4" fill="#567de1" /><circle cx="87.5" cy="314.4" r="4" fill="#567de1" /><circle cx="95.0" cy="314.2" r="4" fill="#567de1" /><circle cx="102.6" cy="314.2" r="4" fill="#567de1" /><circle cx="110.1" cy="314.2" r="4" fill="#567de1" /><circle cx="117.6" cy="314.1" r="4" fill="#567de1" /><circle cx="125.1" cy="314.1" r="4" fill="#567de1" /><circle cx="132.7" cy="314.1" r="4" fill="#567de1" /><circle cx="140.2" cy="314.1" r="4" fill="#567de1" /><circle cx="147.7" cy="314.1" r="4" fill="#567de1" /><circle cx="155.2" cy="314.0" r="4" fill="#567de1" /><circle cx="162.8" cy="314.0" r="4" fill="#567de1" /><circle cx="170.3" cy="314.0" r="4" fill="#567de1" /><circle cx="177.8" cy="314.0" r="4" fill="#567de1" /><circle cx="185.3" cy="314.0" r="4" fill="#567de1" /><circle cx="192.9" cy="314.0" r="4" fill="#567de1" /><circle cx="200.4" cy="314.0" r="4" fill="#567de1" /><circle cx="207.9" cy="314.0" r="4" fill="#567de1" /><circle cx="215.4" cy="314.0" r="4" fill="#567de1" /><circle cx="223.0" cy="314.0" r="4" fill="#567de1" /><circle cx="230.5" cy="314.0" r="4" fill="#567de1" /><circle cx="238.0" cy="314.0" r="4" fill="#567de1" /><circle cx="245.5" cy="314.0" r="4" fill="#567de1" /><circle cx="253.1" cy="314.0" r="4" fill="#567de1" /><circle cx="260.6" cy="314.0" r="4" fill="#567de1" /><circle cx="268.1" cy="314.0" r="4" fill="#567de1" /><circle cx="275.6" cy="314.0" r="4" fill="#567de1" /><circle cx="283.2" cy="314.0" r="4" fill="#567de1" /><circle cx="290.7" cy="314.0" r="4" fill="#567de1" /><circle cx="298.2" cy="314.0" r="4" fill="#567de1" /><circle cx="305.7" cy="314.0" r="4" fill="#567de1" /><circle cx="313.3" cy="314.0" r="4" fill="#567de1" /><circle cx="320.8" cy="314.0" r="4" fill="#567de1" /><circle cx="328.3" cy="314.0" r="4" fill="#567de1" /><circle cx="335.8" cy="314.0" r="4" fill="#567de1" /><circle cx="343.4" cy="314.0" r="4" fill="#567de1" /><circle cx="350.9" cy="314.0" r="4" fill="#567de1" /><circle cx="358.4" cy="314.0" r="4" fill="#567de1" /><circle cx="365.9" cy="314.0" r="4" fill="#567de1" /><circle cx="373.5" cy="314.0" r="4" fill="#567de1" /><circle cx="381.0" cy="314.0" r="4" fill="#567de1" /><circle cx="388.5" cy="313.9" r="4" fill="#567de1" /><circle cx="396.0" cy="313.6" r="4" fill="#567de1" /><circle cx="403.6" cy="313.4" r="4" fill="#567de1" /><circle cx="411.1" cy="313.4" r="4" fill="#567de1" /><circle cx="418.6" cy="313.4" r="4" fill="#567de1" /><circle cx="426.1" cy="313.4" r="4" fill="#567de1" /><circle cx="433.7" cy="313.4" r="4" fill="#567de1" /><circle cx="441.2" cy="313.1" r="4" fill="#567de1" /><circle cx="448.7" cy="313.1" r="4" fill="#567de1" /><circle cx="456.2" cy="313.1" r="4" fill="#567de1" /><circle cx="463.8" cy="313.1" r="4" fill="#567de1" /><circle cx="471.3" cy="313.1" r="4" fill="#567de1" /><circle cx="478.8" cy="313.0" r="4" fill="#567de1" /><circle cx="486.3" cy="313.0" r="4" fill="#567de1" /><circle cx="493.9" cy="312.9" r="4" fill="#567de1" /><circle cx="501.4" cy="312.9" r="4" fill="#567de1" /><circle cx="508.9" cy="312.9" r="4" fill="#567de1" /><circle cx="516.4" cy="312.8" r="4" fill="#567de1" /><circle cx="524.0" cy="312.8" r="4" fill="#567de1" /><circle cx="531.5" cy="312.6" r="4" fill="#567de1" /><circle cx="539.0" cy="312.6" r="4" fill="#567de1" /><circle cx="546.5" cy="312.6" r="4" fill="#567de1" /><circle cx="554.1" cy="312.6" r="4" fill="#567de1" /><circle cx="561.6" cy="312.6" r="4" fill="#567de1" /><circle cx="569.1" cy="312.6" r="4" fill="#567de1" /><circle cx="576.6" cy="312.6" r="4" fill="#567de1" /><circle cx="584.2" cy="312.5" r="4" fill="#567de1" /><circle cx="591.7" cy="312.1" r="4" fill="#567de1" /><circle cx="599.2" cy="312.1" r="4" fill="#567de1" /><circle cx="606.7" cy="312.1" r="4" fill="#567de1" /><circle cx="614.3" cy="312.1" r="4" fill="#567de1" /><circle cx="621.8" cy="312.1" r="4" fill="#567de1" /><circle cx="629.3" cy="312.1" r="4" fill="#567de1" /><circle cx="636.8" cy="312.1" r="4" fill="#567de1" /><circle cx="644.4" cy="312.1" r="4" fill="#567de1" /><circle cx="651.9" cy="312.1" r="4" fill="#567de1" /><circle cx="659.4" cy="312.1" r="4" fill="#567de1" /><circle cx="666.9" cy="312.0" r="4" fill="#567de1" /><circle cx="674.5" cy="312.0" r="4" fill="#567de1" /><circle cx="682.0" cy="312.0" r="4" fill="#567de1" /><circle cx="689.5" cy="312.0" r="4" fill="#567de1" /><circle cx="697.0" cy="312.0" r="4" fill="#567de1" /><circle cx="704.6" cy="312.0" r="4" fill="#567de1" /><circle cx="712.1" cy="312.0" r="4" fill="#567de1" /><circle cx="719.6" cy="312.0" r="4" fill="#567de1" /><circle cx="727.1" cy="312.0" r="4" fill="#567de1" /><circle cx="734.7" cy="312.0" r="4" fill="#567de1" /><circle cx="742.2" cy="312.0" r="4" fill="#567de1" /><circle cx="749.7" cy="312.0" r="4" fill="#567de1" /><circle cx="757.2" cy="312.0" r="4" fill="#567de1" /><circle cx="764.8" cy="312.0" r="4" fill="#567de1" /><circle cx="772.3" cy="312.0" r="4" fill="#567de1" /><circle cx="779.8" cy="312.0" r="4" fill="#567de1" /><circle cx="787.3" cy="312.0" r="4" fill="#567de1" /><circle cx="794.9" cy="312.0" r="4" fill="#567de1" /><circle cx="802.4" cy="312.0" r="4" fill="#567de1" /><circle cx="809.9" cy="312.0" r="4" fill="#567de1" /><circle cx="817.4" cy="312.0" r="4" fill="#567de1" /><circle cx="825.0" cy="312.0" r="4" fill="#567de1" /><circle cx="832.5" cy="312.0" r="4" fill="#567de1" /><circle cx="840.0" cy="312.0" r="4" fill="#567de1" /><polyline points="80.0,303.9 87.5,304.2 95.0,304.4 102.6,304.4 110.1,304.4 117.6,304.4 125.1,304.4 132.7,304.4 140.2,304.4 147.7,304.4 155.2,304.4 162.8,304.4 170.3,304.4 177.8,304.4 185.3,304.4 192.9,304.4 200.4,304.4 207.9,304.4 215.4,304.4 223.0,304.4 230.5,304.4 238.0,304.4 245.5,304.4 253.1,304.4 260.6,304.4 268.1,304.4 275.6,304.4 283.2,304.4 290.7,299.1 298.2,299.1 305.7,299.1 313.3,298.9 320.8,295.6 328.3,295.6 335.8,295.6 343.4,295.6 350.9,295.6 358.4,295.6 365.9,295.6 373.5,295.6 381.0,295.6 388.5,295.8 396.0,295.9 403.6,295.9 411.1,295.9 418.6,295.9 426.1,295.9 433.7,295.9 441.2,295.9 448.7,295.9 456.2,295.9 463.8,295.9 471.3,295.9 478.8,295.9 486.3,295.9 493.9,295.9 501.4,295.9 508.9,295.9 516.4,295.8 524.0,295.8 531.5,295.9 539.0,295.9 546.5,295.9 554.1,295.9 561.6,295.9 569.1,295.9 576.6,295.9 584.2,296.0 591.7,296.4 599.2,296.4 606.7,296.4 614.3,296.4 621.8,296.4 629.3,296.4 636.8,296.4 644.4,296.4 651.9,296.4 659.4,296.4 666.9,296.5 674.5,296.5 682.0,296.5 689.5,296.5 697.0,296.5 704.6,296.5 712.1,296.5 719.6,296.5 727.1,296.5 734.7,296.5 742.2,296.5 749.7,296.5 757.2,296.5 764.8,296.5 772.3,296.5 779.8,296.5 787.3,296.5 794.9,296.5 802.4,296.5 809.9,296.5 817.4,296.5 825.0,296.5 832.5,296.5 840.0,296.5" fill="none" stroke="#9754dd" stroke-width="2.5" stroke-linecap="round" stroke-linejoin="round" /><circle cx="80.0" cy="303.9" r="4" fill="#9754dd" /><circle cx="87.5" cy="304.2" r="4" fill="#9754dd" /><circle cx="95.0" cy="304.4" r="4" fill="#9754dd" /><circle cx="102.6" cy="304.4" r="4" fill="#9754dd" /><circle cx="110.1" cy="304.4" r="4" fill="#9754dd" /><circle cx="117.6" cy="304.4" r="4" fill="#9754dd" /><circle cx="125.1" cy="304.4" r="4" fill="#9754dd" /><circle cx="132.7" cy="304.4" r="4" fill="#9754dd" /><circle cx="140.2" cy="304.4" r="4" fill="#9754dd" /><circle cx="147.7" cy="304.4" r="4" fill="#9754dd" /><circle cx="155.2" cy="304.4" r="4" fill="#9754dd" /><circle cx="162.8" cy="304.4" r="4" fill="#9754dd" /><circle cx="170.3" cy="304.4" r="4" fill="#9754dd" /><circle cx="177.8" cy="304.4" r="4" fill="#9754dd" /><circle cx="185.3" cy="304.4" r="4" fill="#9754dd" /><circle cx="192.9" cy="304.4" r="4" fill="#9754dd" /><circle cx="200.4" cy="304.4" r="4" fill="#9754dd" /><circle cx="207.9" cy="304.4" r="4" fill="#9754dd" /><circle cx="215.4" cy="304.4" r="4" fill="#9754dd" /><circle cx="223.0" cy="304.4" r="4" fill="#9754dd" /><circle cx="230.5" cy="304.4" r="4" fill="#9754dd" /><circle cx="238.0" cy="304.4" r="4" fill="#9754dd" /><circle cx="245.5" cy="304.4" r="4" fill="#9754dd" /><circle cx="253.1" cy="304.4" r="4" fill="#9754dd" /><circle cx="260.6" cy="304.4" r="4" fill="#9754dd" /><circle cx="268.1" cy="304.4" r="4" fill="#9754dd" /><circle cx="275.6" cy="304.4" r="4" fill="#9754dd" /><circle cx="283.2" cy="304.4" r="4" fill="#9754dd" /><circle cx="290.7" cy="299.1" r="4" fill="#9754dd" /><circle cx="298.2" cy="299.1" r="4" fill="#9754dd" /><circle cx="305.7" cy="299.1" r="4" fill="#9754dd" /><circle cx="313.3" cy="298.9" r="4" fill="#9754dd" /><circle cx="320.8" cy="295.6" r="4" fill="#9754dd" /><circle cx="328.3" cy="295.6" r="4" fill="#9754dd" /><circle cx="335.8" cy="295.6" r="4" fill="#9754dd" /><circle cx="343.4" cy="295.6" r="4" fill="#9754dd" /><circle cx="350.9" cy="295.6" r="4" fill="#9754dd" /><circle cx="358.4" cy="295.6" r="4" fill="#9754dd" /><circle cx="365.9" cy="295.6" r="4" fill="#9754dd" /><circle cx="373.5" cy="295.6" r="4" fill="#9754dd" /><circle cx="381.0" cy="295.6" r="4" fill="#9754dd" /><circle cx="388.5" cy="295.8" r="4" fill="#9754dd" /><circle cx="396.0" cy="295.9" r="4" fill="#9754dd" /><circle cx="403.6" cy="295.9" r="4" fill="#9754dd" /><circle cx="411.1" cy="295.9" r="4" fill="#9754dd" /><circle cx="418.6" cy="295.9" r="4" fill="#9754dd" /><circle cx="426.1" cy="295.9" r="4" fill="#9754dd" /><circle cx="433.7" cy="295.9" r="4" fill="#9754dd" /><circle cx="441.2" cy="295.9" r="4" fill="#9754dd" /><circle cx="448.7" cy="295.9" r="4" fill="#9754dd" /><circle cx="456.2" cy="295.9" r="4" fill="#9754dd" /><circle cx="463.8" cy="295.9" r="4" fill="#9754dd" /><circle cx="471.3" cy="295.9" r="4" fill="#9754dd" /><circle cx="478.8" cy="295.9" r="4" fill="#9754dd" /><circle cx="486.3" cy="295.9" r="4" fill="#9754dd" /><circle cx="493.9" cy="295.9" r="4" fill="#9754dd" /><circle cx="501.4" cy="295.9" r="4" fill="#9754dd" /><circle cx="508.9" cy="295.9" r="4" fill="#9754dd" /><circle cx="516.4" cy="295.8" r="4" fill="#9754dd" /><circle cx="524.0" cy="295.8" r="4" fill="#9754dd" /><circle cx="531.5" cy="295.9" r="4" fill="#9754dd" /><circle cx="539.0" cy="295.9" r="4" fill="#9754dd" /><circle cx="546.5" cy="295.9" r="4" fill="#9754dd" /><circle cx="554.1" cy="295.9" r="4" fill="#9754dd" /><circle cx="561.6" cy="295.9" r="4" fill="#9754dd" /><circle cx="569.1" cy="295.9" r="4" fill="#9754dd" /><circle cx="576.6" cy="295.9" r="4" fill="#9754dd" /><circle cx="584.2" cy="296.0" r="4" fill="#9754dd" /><circle cx="591.7" cy="296.4" r="4" fill="#9754dd" /><circle cx="599.2" cy="296.4" r="4" fill="#9754dd" /><circle cx="606.7" cy="296.4" r="4" fill="#9754dd" /><circle cx="614.3" cy="296.4" r="4" fill="#9754dd" /><circle cx="621.8" cy="296.4" r="4" fill="#9754dd" /><circle cx="629.3" cy="296.4" r="4" fill="#9754dd" /><circle cx="636.8" cy="296.4" r="4" fill="#9754dd" /><circle cx="644.4" cy="296.4" r="4" fill="#9754dd" /><circle cx="651.9" cy="296.4" r="4" fill="#9754dd" /><circle cx="659.4" cy="296.4" r="4" fill="#9754dd" /><circle cx="666.9" cy="296.5" r="4" fill="#9754dd" /><circle cx="674.5" cy="296.5" r="4" fill="#9754dd" /><circle cx="682.0" cy="296.5" r="4" fill="#9754dd" /><circle cx="689.5" cy="296.5" r="4" fill="#9754dd" /><circle cx="697.0" cy="296.5" r="4" fill="#9754dd" /><circle cx="704.6" cy="296.5" r="4" fill="#9754dd" /><circle cx="712.1" cy="296.5" r="4" fill="#9754dd" /><circle cx="719.6" cy="296.5" r="4" fill="#9754dd" /><circle cx="727.1" cy="296.5" r="4" fill="#9754dd" /><circle cx="734.7" cy="296.5" r="4" fill="#9754dd" /><circle cx="742.2" cy="296.5" r="4" fill="#9754dd" /><circle cx="749.7" cy="296.5" r="4" fill="#9754dd" /><circle cx="757.2" cy="296.5" r="4" fill="#9754dd" /><circle cx="764.8" cy="296.5" r="4" fill="#9754dd" /><circle cx="772.3" cy="296.5" r="4" fill="#9754dd" /><circle cx="779.8" cy="296.5" r="4" fill="#9754dd" /><circle cx="787.3" cy="296.5" r="4" fill="#9754dd" /><circle cx="794.9" cy="296.5" r="4" fill="#9754dd" /><circle cx="802.4" cy="296.5" r="4" fill="#9754dd" /><circle cx="809.9" cy="296.5" r="4" fill="#9754dd" /><circle cx="817.4" cy="296.5" r="4" fill="#9754dd" /><circle cx="825.0" cy="296.5" r="4" fill="#9754dd" /><circle cx="832.5" cy="296.5" r="4" fill="#9754dd" /><circle cx="840.0" cy="296.5" r="4" fill="#9754dd" />
  <rect x="80" y="339" width="10" height="10" rx="2" ry="2" fill="#19e5a1" /><text x="96" y="348" class="legend-label">Stars</text><rect x="250" y="339" width="10" height="10" rx="2" ry="2" fill="#6eb6ec" /><text x="266" y="348" class="legend-label">Followers</text><rect x="420" y="339" width="10" height="10" rx="2" ry="2" fill="#5938e2" /><text x="436" y="348" class="legend-label">Following</text><rect x="590" y="339" width="10" height="10" rx="2" ry="2" fill="#60e5e0" /><text x="606" y="348" class="legend-label">Contributions</text><rect x="80" y="357" width="10" height="10" rx="2" ry="2" fill="#567de1" /><text x="96" y="366" class="legend-label">Pull Requests</text><rect x="250" y="357" width="10" height="10" rx="2" ry="2" fill="#9754dd" /><text x="266" y="366" class="legend-label">Issues</text>
</svg>
