<svg width="900" height="402" viewBox="0 0 900 402" xmlns="http://www.w3.org/2000/svg">
  <defs>
    <linearGradient id="history-gradient" x1="0%" y1="0%" x2="100%" y2="100%">
      <stop offset="0%" style="stop-color:#58a6ff;stop-opacity:1" />
      <stop offset="100%" style="stop-color:#a371f7;stop-opacity:1" />
    </linearGradient>
    <clipPath id="history-rounded">
      <rect x="0" y="0" width="900" height="402" rx="8" ry="8" />
    </clipPath>
  </defs>
  <style>
    .title {
      font-family: 'Segoe UI', Ubuntu, 'Helvetica Neue', sans-serif;
      font-size: 22px;
      font-weight: 700;
      fill: #58a6ff;
    }
    .subtitle {
      font-family: 'Segoe UI', Ubuntu, 'Helvetica Neue', sans-serif;
      font-size: 12px;
      font-weight: 500;
      fill: #8b949e;
    }
    .axis-label {
      font-family: 'Segoe UI', Ubuntu, 'Helvetica Neue', sans-serif;
      font-size: 10px;
      fill: #8b949e;
    }
    .grid-line {
      stroke: #30363d;
      stroke-width: 1;
      opacity: 0.3;
    }
    .legend-label {
      font-family: 'Segoe UI', Ubuntu, 'Helvetica Neue', sans-serif;
      font-size: 11px;
      fill: #c9d1d9;
      dominant-baseline: middle;
    }
  </style>
  <rect clip-path="url(#history-rounded)" width="100%" height="100%" fill="#0d1117" stroke="#30363d" stroke-width="1" />
  <rect x="0" y="396" width="900" height="6" fill="url(#history-gradient)" clip-path="url(#history-rounded)" />
  <text x="24" y="34" class="title">Leonardo Klein Stats History</text>
  <text x="24" y="54" class="subtitle">Period: 2026-02-20 to 2026-02-27</text>
  <text x="72" y="320.0" text-anchor="end" dominant-baseline="central" class="axis-label">0</text><text x="72" y="270.0" text-anchor="end" dominant-baseline="central" class="axis-label">400</text><text x="72" y="220.0" text-anchor="end" dominant-baseline="central" class="axis-label">800</text><text x="72" y="170.0" text-anchor="end" dominant-baseline="central" class="axis-label">1.2k</text><text x="72" y="120.0" text-anchor="end" dominant-baseline="central" class="axis-label">1.6k</text><text x="72" y="70.0" text-anchor="end" dominant-baseline="central" class="axis-label">2.0k</text>
  <text x="80.0" y="336" text-anchor="middle" class="axis-label">02-20</text><text x="145.1" y="336" text-anchor="middle" class="axis-label">02-21</text><text x="210.3" y="336" text-anchor="middle" class="axis-label">02-21</text><text x="275.4" y="336" text-anchor="middle" class="axis-label">02-22</text><text x="340.6" y="336" text-anchor="middle" class="axis-label">02-22</text><text x="405.7" y="336" text-anchor="middle" class="axis-label">02-23</text><text x="470.9" y="336" text-anchor="middle" class="axis-label">02-24</text><text x="536.0" y="336" text-anchor="middle" class="axis-label">02-24</text><text x="601.1" y="336" text-anchor="middle" class="axis-label">02-25</text><text x="666.3" y="336" text-anchor="middle" class="axis-label">02-25</text><text x="731.4" y="336" text-anchor="middle" class="axis-label">02-26</text><text x="796.6" y="336" text-anchor="middle" class="axis-label">02-27</text><text x="840.0" y="336" text-anchor="middle" class="axis-label">02-27</text>
  <line x1="80" y1="320.0" x2="840" y2="320.0" class="grid-line" /><line x1="80" y1="270.0" x2="840" y2="270.0" class="grid-line" /><line x1="80" y1="220.0" x2="840" y2="220.0" class="grid-line" /><line x1="80" y1="170.0" x2="840" y2="170.0" class="grid-line" /><line x1="80" y1="120.0" x2="840" y2="120.0" class="grid-line" /><line x1="80" y1="70.0" x2="840" y2="70.0" class="grid-line" />
  <polyline points="80.0,317.0 101.7,317.0 123.4,317.0 145.1,317.0 166.9,317.0 188.6,317.0 210.3,317.0 232.0,317.0 253.7,317.0 275.4,317.0 297.1,317.0 318.9,317.0 340.6,317.0 362.3,317.0 384.0,317.0 405.7,317.0 427.4,317.0 449.1,317.0 470.9,317.0 492.6,317.0 514.3,317.0 536.0,317.0 557.7,317.0 579.4,317.0 601.1,317.0 622.9,317.0 644.6,317.0 666.3,317.0 688.0,317.0 709.7,317.0 731.4,317.0 753.1,317.0 774.9,317.0 796.6,317.0 818.3,317.0 840.0,317.0" fill="none" stroke="#19e5a1" stroke-width="2.5" stroke-linecap="round" stroke-linejoin="round" /><circle cx="80.0" cy="317.0" r="4" fill="#19e5a1" /><circle cx="101.7" cy="317.0" r="4" fill="#19e5a1" /><circle cx="123.4" cy="317.0" r="4" fill="#19e5a1" /><circle cx="145.1" cy="317.0" r="4" fill="#19e5a1" /><circle cx="166.9" cy="317.0" r="4" fill="#19e5a1" /><circle cx="188.6" cy="317.0" r="4" fill="#19e5a1" /><circle cx="210.3" cy="317.0" r="4" fill="#19e5a1" /><circle cx="232.0" cy="317.0" r="4" fill="#19e5a1" /><circle cx="253.7" cy="317.0" r="4" fill="#19e5a1" /><circle cx="275.4" cy="317.0" r="4" fill="#19e5a1" /><circle cx="297.1" cy="317.0" r="4" fill="#19e5a1" /><circle cx="318.9" cy="317.0" r="4" fill="#19e5a1" /><circle cx="340.6" cy="317.0" r="4" fill="#19e5a1" /><circle cx="362.3" cy="317.0" r="4" fill="#19e5a1" /><circle cx="384.0" cy="317.0" r="4" fill="#19e5a1" /><circle cx="405.7" cy="317.0" r="4" fill="#19e5a1" /><circle cx="427.4" cy="317.0" r="4" fill="#19e5a1" /><circle cx="449.1" cy="317.0" r="4" fill="#19e5a1" /><circle cx="470.9" cy="317.0" r="4" fill="#19e5a1" /><circle cx="492.6" cy="317.0" r="4" fill="#19e5a1" /><circle cx="514.3" cy="317.0" r="4" fill="#19e5a1" /><circle cx="536.0" cy="317.0" r="4" fill="#19e5a1" /><circle cx="557.7" cy="317.0" r="4" fill="#19e5a1" /><circle cx="579.4" cy="317.0" r="4" fill="#19e5a1" /><circle cx="601.1" cy="317.0" r="4" fill="#19e5a1" /><circle cx="622.9" cy="317.0" r="4" fill="#19e5a1" /><circle cx="644.6" cy="317.0" r="4" fill="#19e5a1" /><circle cx="666.3" cy="317.0" r="4" fill="#19e5a1" /><circle cx="688.0" cy="317.0" r="4" fill="#19e5a1" /><circle cx="709.7" cy="317.0" r="4" fill="#19e5a1" /><circle cx="731.4" cy="317.0" r="4" fill="#19e5a1" /><circle cx="753.1" cy="317.0" r="4" fill="#19e5a1" /><circle cx="774.9" cy="317.0" r="4" fill="#19e5a1" /><circle cx="796.6" cy="317.0" r="4" fill="#19e5a1" /><circle cx="818.3" cy="317.0" r="4" fill="#19e5a1" /><circle cx="840.0" cy="317.0" r="4" fill="#19e5a1" /><polyline points="80.0,313.2 101.7,312.2 123.4,312.1 145.1,312.4 166.9,312.4 188.6,312.4 210.3,312.1 232.0,312.0 253.7,311.9 275.4,311.9 297.1,311.8 318.9,311.8 340.6,311.5 362.3,311.5 384.0,311.5 405.7,311.2 427.4,311.2 449.1,311.1 470.9,311.1 492.6,311.1 514.3,310.9 536.0,311.0 557.7,310.8 579.4,310.8 601.1,310.8 622.9,310.8 644.6,310.4 666.3,310.2 688.0,310.4 709.7,310.4 731.4,310.4 753.1,310.4 774.9,310.4 796.6,310.2 818.3,310.2 840.0,310.1" fill="none" stroke="#6eb6ec" stroke-width="2.5" stroke-linecap="round" stroke-linejoin="round" /><circle cx="80.0" cy="313.2" r="4" fill="#6eb6ec" /><circle cx="101.7" cy="312.2" r="4" fill="#6eb6ec" /><circle cx="123.4" cy="312.1" r="4" fill="#6eb6ec" /><circle cx="145.1" cy="312.4" r="4" fill="#6eb6ec" /><circle cx="166.9" cy="312.4" r="4" fill="#6eb6ec" /><circle cx="188.6" cy="312.4" r="4" fill="#6eb6ec" /><circle cx="210.3" cy="312.1" r="4" fill="#6eb6ec" /><circle cx="232.0" cy="312.0" r="4" fill="#6eb6ec" /><circle cx="253.7" cy="311.9" r="4" fill="#6eb6ec" /><circle cx="275.4" cy="311.9" r="4" fill="#6eb6ec" /><circle cx="297.1" cy="311.8" r="4" fill="#6eb6ec" /><circle cx="318.9" cy="311.8" r="4" fill="#6eb6ec" /><circle cx="340.6" cy="311.5" r="4" fill="#6eb6ec" /><circle cx="362.3" cy="311.5" r="4" fill="#6eb6ec" /><circle cx="384.0" cy="311.5" r="4" fill="#6eb6ec" /><circle cx="405.7" cy="311.2" r="4" fill="#6eb6ec" /><circle cx="427.4" cy="311.2" r="4" fill="#6eb6ec" /><circle cx="449.1" cy="311.1" r="4" fill="#6eb6ec" /><circle cx="470.9" cy="311.1" r="4" fill="#6eb6ec" /><circle cx="492.6" cy="311.1" r="4" fill="#6eb6ec" /><circle cx="514.3" cy="310.9" r="4" fill="#6eb6ec" /><circle cx="536.0" cy="311.0" r="4" fill="#6eb6ec" /><circle cx="557.7" cy="310.8" r="4" fill="#6eb6ec" /><circle cx="579.4" cy="310.8" r="4" fill="#6eb6ec" /><circle cx="601.1" cy="310.8" r="4" fill="#6eb6ec" /><circle cx="622.9" cy="310.8" r="4" fill="#6eb6ec" /><circle cx="644.6" cy="310.4" r="4" fill="#6eb6ec" /><circle cx="666.3" cy="310.2" r="4" fill="#6eb6ec" /><circle cx="688.0" cy="310.4" r="4" fill="#6eb6ec" /><circle cx="709.7" cy="310.4" r="4" fill="#6eb6ec" /><circle cx="731.4" cy="310.4" r="4" fill="#6eb6ec" /><circle cx="753.1" cy="310.4" r="4" fill="#6eb6ec" /><circle cx="774.9" cy="310.4" r="4" fill="#6eb6ec" /><circle cx="796.6" cy="310.2" r="4" fill="#6eb6ec" /><circle cx="818.3" cy="310.2" r="4" fill="#6eb6ec" /><circle cx="840.0" cy="310.1" r="4" fill="#6eb6ec" /><polyline points="80.0,305.8 101.7,305.8 123.4,305.8 145.1,305.8 166.9,305.8 188.6,305.8 210.3,305.8 232.0,305.8 253.7,305.8 275.4,305.8 297.1,304.9 318.9,304.9 340.6,304.9 362.3,304.9 384.0,304.9 405.7,304.9 427.4,304.9 449.1,304.9 470.9,304.9 492.6,304.9 514.3,304.9 536.0,304.9 557.7,304.9 579.4,304.9 601.1,304.9 622.9,304.9 644.6,304.9 666.3,304.9 688.0,304.9 709.7,304.9 731.4,304.9 753.1,304.9 774.9,304.9 796.6,304.9 818.3,304.9 840.0,304.9" fill="none" stroke="#5938e2" stroke-width="2.5" stroke-linecap="round" stroke-linejoin="round" /><circle cx="80.0" cy="305.8" r="4" fill="#5938e2" /><circle cx="101.7" cy="305.8" r="4" fill="#5938e2" /><circle cx="123.4" cy="305.8" r="4" fill="#5938e2" /><circle cx="145.1" cy="305.8" r="4" fill="#5938e2" /><circle cx="166.9" cy="305.8" r="4" fill="#5938e2" /><circle cx="188.6" cy="305.8" r="4" fill="#5938e2" /><circle cx="210.3" cy="305.8" r="4" fill="#5938e2" /><circle cx="232.0" cy="305.8" r="4" fill="#5938e2" /><circle cx="253.7" cy="305.8" r="4" fill="#5938e2" /><circle cx="275.4" cy="305.8" r="4" fill="#5938e2" /><circle cx="297.1" cy="304.9" r="4" fill="#5938e2" /><circle cx="318.9" cy="304.9" r="4" fill="#5938e2" /><circle cx="340.6" cy="304.9" r="4" fill="#5938e2" /><circle cx="362.3" cy="304.9" r="4" fill="#5938e2" /><circle cx="384.0" cy="304.9" r="4" fill="#5938e2" /><circle cx="405.7" cy="304.9" r="4" fill="#5938e2" /><circle cx="427.4" cy="304.9" r="4" fill="#5938e2" /><circle cx="449.1" cy="304.9" r="4" fill="#5938e2" /><circle cx="470.9" cy="304.9" r="4" fill="#5938e2" /><circle cx="492.6" cy="304.9" r="4" fill="#5938e2" /><circle cx="514.3" cy="304.9" r="4" fill="#5938e2" /><circle cx="536.0" cy="304.9" r="4" fill="#5938e2" /><circle cx="557.7" cy="304.9" r="4" fill="#5938e2" /><circle cx="579.4" cy="304.9" r="4" fill="#5938e2" /><circle cx="601.1" cy="304.9" r="4" fill="#5938e2" /><circle cx="622.9" cy="304.9" r="4" fill="#5938e2" /><circle cx="644.6" cy="304.9" r="4" fill="#5938e2" /><circle cx="666.3" cy="304.9" r="4" fill="#5938e2" /><circle cx="688.0" cy="304.9" r="4" fill="#5938e2" /><circle cx="709.7" cy="304.9" r="4" fill="#5938e2" /><circle cx="731.4" cy="304.9" r="4" fill="#5938e2" /><circle cx="753.1" cy="304.9" r="4" fill="#5938e2" /><circle cx="774.9" cy="304.9" r="4" fill="#5938e2" /><circle cx="796.6" cy="304.9" r="4" fill="#5938e2" /><circle cx="818.3" cy="304.9" r="4" fill="#5938e2" /><circle cx="840.0" cy="304.9" r="4" fill="#5938e2" /><polyline points="80.0,144.6 101.7,140.1 123.4,139.9 145.1,139.8 166.9,139.8 188.6,139.6 210.3,139.6 232.0,139.6 253.7,139.6 275.4,139.6 297.1,138.4 318.9,138.4 340.6,138.4 362.3,138.4 384.0,138.4 405.7,138.4 427.4,138.4 449.1,137.4 470.9,137.4 492.6,137.4 514.3,137.4 536.0,137.4 557.7,137.4 579.4,137.4 601.1,137.4 622.9,137.4 644.6,137.4 666.3,137.4 688.0,131.2 709.7,131.2 731.4,130.8 753.1,130.4 774.9,126.9 796.6,126.9 818.3,126.9 840.0,126.9" fill="none" stroke="#60e5e0" stroke-width="2.5" stroke-linecap="round" stroke-linejoin="round" /><circle cx="80.0" cy="144.6" r="4" fill="#60e5e0" /><circle cx="101.7" cy="140.1" r="4" fill="#60e5e0" /><circle cx="123.4" cy="139.9" r="4" fill="#60e5e0" /><circle cx="145.1" cy="139.8" r="4" fill="#60e5e0" /><circle cx="166.9" cy="139.8" r="4" fill="#60e5e0" /><circle cx="188.6" cy="139.6" r="4" fill="#60e5e0" /><circle cx="210.3" cy="139.6" r="4" fill="#60e5e0" /><circle cx="232.0" cy="139.6" r="4" fill="#60e5e0" /><circle cx="253.7" cy="139.6" r="4" fill="#60e5e0" /><circle cx="275.4" cy="139.6" r="4" fill="#60e5e0" /><circle cx="297.1" cy="138.4" r="4" fill="#60e5e0" /><circle cx="318.9" cy="138.4" r="4" fill="#60e5e0" /><circle cx="340.6" cy="138.4" r="4" fill="#60e5e0" /><circle cx="362.3" cy="138.4" r="4" fill="#60e5e0" /><circle cx="384.0" cy="138.4" r="4" fill="#60e5e0" /><circle cx="405.7" cy="138.4" r="4" fill="#60e5e0" /><circle cx="427.4" cy="138.4" r="4" fill="#60e5e0" /><circle cx="449.1" cy="137.4" r="4" fill="#60e5e0" /><circle cx="470.9" cy="137.4" r="4" fill="#60e5e0" /><circle cx="492.6" cy="137.4" r="4" fill="#60e5e0" /><circle cx="514.3" cy="137.4" r="4" fill="#60e5e0" /><circle cx="536.0" cy="137.4" r="4" fill="#60e5e0" /><circle cx="557.7" cy="137.4" r="4" fill="#60e5e0" /><circle cx="579.4" cy="137.4" r="4" fill="#60e5e0" /><circle cx="601.1" cy="137.4" r="4" fill="#60e5e0" /><circle cx="622.9" cy="137.4" r="4" fill="#60e5e0" /><circle cx="644.6" cy="137.4" r="4" fill="#60e5e0" /><circle cx="666.3" cy="137.4" r="4" fill="#60e5e0" /><circle cx="688.0" cy="131.2" r="4" fill="#60e5e0" /><circle cx="709.7" cy="131.2" r="4" fill="#60e5e0" /><circle cx="731.4" cy="130.8" r="4" fill="#60e5e0" /><circle cx="753.1" cy="130.4" r="4" fill="#60e5e0" /><circle cx="774.9" cy="126.9" r="4" fill="#60e5e0" /><circle cx="796.6" cy="126.9" r="4" fill="#60e5e0" /><circle cx="818.3" cy="126.9" r="4" fill="#60e5e0" /><circle cx="840.0" cy="126.9" r="4" fill="#60e5e0" /><polyline points="80.0,314.6 101.7,314.4 123.4,314.2 145.1,314.2 166.9,314.2 188.6,314.1 210.3,314.1 232.0,314.1 253.7,314.1 275.4,314.1 297.1,314.0 318.9,314.0 340.6,314.0 362.3,314.0 384.0,314.0 405.7,314.0 427.4,314.0 449.1,314.0 470.9,314.0 492.6,314.0 514.3,314.0 536.0,314.0 557.7,314.0 579.4,314.0 601.1,314.0 622.9,314.0 644.6,314.0 666.3,314.0 688.0,314.0 709.7,314.0 731.4,314.0 753.1,314.0 774.9,314.0 796.6,314.0 818.3,314.0 840.0,314.0" fill="none" stroke="#567de1" stroke-width="2.5" stroke-linecap="round" stroke-linejoin="round" /><circle cx="80.0" cy="314.6" r="4" fill="#567de1" /><circle cx="101.7" cy="314.4" r="4" fill="#567de1" /><circle cx="123.4" cy="314.2" r="4" fill="#567de1" /><circle cx="145.1" cy="314.2" r="4" fill="#567de1" /><circle cx="166.9" cy="314.2" r="4" fill="#567de1" /><circle cx="188.6" cy="314.1" r="4" fill="#567de1" /><circle cx="210.3" cy="314.1" r="4" fill="#567de1" /><circle cx="232.0" cy="314.1" r="4" fill="#567de1" /><circle cx="253.7" cy="314.1" r="4" fill="#567de1" /><circle cx="275.4" cy="314.1" r="4" fill="#567de1" /><circle cx="297.1" cy="314.0" r="4" fill="#567de1" /><circle cx="318.9" cy="314.0" r="4" fill="#567de1" /><circle cx="340.6" cy="314.0" r="4" fill="#567de1" /><circle cx="362.3" cy="314.0" r="4" fill="#567de1" /><circle cx="384.0" cy="314.0" r="4" fill="#567de1" /><circle cx="405.7" cy="314.0" r="4" fill="#567de1" /><circle cx="427.4" cy="314.0" r="4" fill="#567de1" /><circle cx="449.1" cy="314.0" r="4" fill="#567de1" /><circle cx="470.9" cy="314.0" r="4" fill="#567de1" /><circle cx="492.6" cy="314.0" r="4" fill="#567de1" /><circle cx="514.3" cy="314.0" r="4" fill="#567de1" /><circle cx="536.0" cy="314.0" r="4" fill="#567de1" /><circle cx="557.7" cy="314.0" r="4" fill="#567de1" /><circle cx="579.4" cy="314.0" r="4" fill="#567de1" /><circle cx="601.1" cy="314.0" r="4" fill="#567de1" /><circle cx="622.9" cy="314.0" r="4" fill="#567de1" /><circle cx="644.6" cy="314.0" r="4" fill="#567de1" /><circle cx="666.3" cy="314.0" r="4" fill="#567de1" /><circle cx="688.0" cy="314.0" r="4" fill="#567de1" /><circle cx="709.7" cy="314.0" r="4" fill="#567de1" /><circle cx="731.4" cy="314.0" r="4" fill="#567de1" /><circle cx="753.1" cy="314.0" r="4" fill="#567de1" /><circle cx="774.9" cy="314.0" r="4" fill="#567de1" /><circle cx="796.6" cy="314.0" r="4" fill="#567de1" /><circle cx="818.3" cy="314.0" r="4" fill="#567de1" /><circle cx="840.0" cy="314.0" r="4" fill="#567de1" /><polyline points="80.0,303.9 101.7,304.2 123.4,304.4 145.1,304.4 166.9,304.4 188.6,304.4 210.3,304.4 232.0,304.4 253.7,304.4 275.4,304.4 297.1,304.4 318.9,304.4 340.6,304.4 362.3,304.4 384.0,304.4 405.7,304.4 427.4,304.4 449.1,304.4 470.9,304.4 492.6,304.4 514.3,304.4 536.0,304.4 557.7,304.4 579.4,304.4 601.1,304.4 622.9,304.4 644.6,304.4 666.3,304.4 688.0,299.1 709.7,299.1 731.4,299.1 753.1,298.9 774.9,295.6 796.6,295.6 818.3,295.6 840.0,295.6" fill="none" stroke="#9754dd" stroke-width="2.5" stroke-linecap="round" stroke-linejoin="round" /><circle cx="80.0" cy="303.9" r="4" fill="#9754dd" /><circle cx="101.7" cy="304.2" r="4" fill="#9754dd" /><circle cx="123.4" cy="304.4" r="4" fill="#9754dd" /><circle cx="145.1" cy="304.4" r="4" fill="#9754dd" /><circle cx="166.9" cy="304.4" r="4" fill="#9754dd" /><circle cx="188.6" cy="304.4" r="4" fill="#9754dd" /><circle cx="210.3" cy="304.4" r="4" fill="#9754dd" /><circle cx="232.0" cy="304.4" r="4" fill="#9754dd" /><circle cx="253.7" cy="304.4" r="4" fill="#9754dd" /><circle cx="275.4" cy="304.4" r="4" fill="#9754dd" /><circle cx="297.1" cy="304.4" r="4" fill="#9754dd" /><circle cx="318.9" cy="304.4" r="4" fill="#9754dd" /><circle cx="340.6" cy="304.4" r="4" fill="#9754dd" /><circle cx="362.3" cy="304.4" r="4" fill="#9754dd" /><circle cx="384.0" cy="304.4" r="4" fill="#9754dd" /><circle cx="405.7" cy="304.4" r="4" fill="#9754dd" /><circle cx="427.4" cy="304.4" r="4" fill="#9754dd" /><circle cx="449.1" cy="304.4" r="4" fill="#9754dd" /><circle cx="470.9" cy="304.4" r="4" fill="#9754dd" /><circle cx="492.6" cy="304.4" r="4" fill="#9754dd" /><circle cx="514.3" cy="304.4" r="4" fill="#9754dd" /><circle cx="536.0" cy="304.4" r="4" fill="#9754dd" /><circle cx="557.7" cy="304.4" r="4" fill="#9754dd" /><circle cx="579.4" cy="304.4" r="4" fill="#9754dd" /><circle cx="601.1" cy="304.4" r="4" fill="#9754dd" /><circle cx="622.9" cy="304.4" r="4" fill="#9754dd" /><circle cx="644.6" cy="304.4" r="4" fill="#9754dd" /><circle cx="666.3" cy="304.4" r="4" fill="#9754dd" /><circle cx="688.0" cy="299.1" r="4" fill="#9754dd" /><circle cx="709.7" cy="299.1" r="4" fill="#9754dd" /><circle cx="731.4" cy="299.1" r="4" fill="#9754dd" /><circle cx="753.1" cy="298.9" r="4" fill="#9754dd" /><circle cx="774.9" cy="295.6" r="4" fill="#9754dd" /><circle cx="796.6" cy="295.6" r="4" fill="#9754dd" /><circle cx="818.3" cy="295.6" r="4" fill="#9754dd" /><circle cx="840.0" cy="295.6" r="4" fill="#9754dd" />
  <rect x="80" y="339" width="10" height="10" rx="2" ry="2" fill="#19e5a1" /><text x="96" y="348" class="legend-label">Stars</text><rect x="250" y="339" width="10" height="10" rx="2" ry="2" fill="#6eb6ec" /><text x="266" y="348" class="legend-label">Followers</text><rect x="420" y="339" width="10" height="10" rx="2" ry="2" fill="#5938e2" /><text x="436" y="348" class="legend-label">Following</text><rect x="590" y="339" width="10" height="10" rx="2" ry="2" fill="#60e5e0" /><text x="606" y="348" class="legend-label">Contributions</text><rect x="80" y="357" width="10" height="10" rx="2" ry="2" fill="#567de1" /><text x="96" y="366" class="legend-label">Pull Requests</text><rect x="250" y="357" width="10" height="10" rx="2" ry="2" fill="#9754dd" /><text x="266" y="366" class="legend-label">Issues</text>
</svg>
