<svg width="900" height="402" viewBox="0 0 900 402" xmlns="http://www.w3.org/2000/svg">
  <defs>
    <linearGradient id="history-gradient" x1="0%" y1="0%" x2="100%" y2="100%">
      <stop offset="0%" style="stop-color:#58a6ff;stop-opacity:1" />
      <stop offset="100%" style="stop-color:#a371f7;stop-opacity:1" />
    </linearGradient>
    <clipPath id="history-rounded">
      <rect x="0" y="0" width="900" height="402" rx="8" ry="8" />
    </clipPath>
  </defs>
  <style>
    .title {
      font-family: 'Segoe UI', Ubuntu, 'Helvetica Neue', sans-serif;
      font-size: 22px;
      font-weight: 700;
      fill: #58a6ff;
    }
    .subtitle {
      font-family: 'Segoe UI', Ubuntu, 'Helvetica Neue', sans-serif;
      font-size: 12px;
      font-weight: 500;
      fill: #8b949e;
    }
    .axis-label {
      font-family: 'Segoe UI', Ubuntu, 'Helvetica Neue', sans-serif;
      font-size: 10px;
      fill: #8b949e;
    }
    .grid-line {
      stroke: #30363d;
      stroke-width: 1;
      opacity: 0.3;
    }
    .legend-label {
      font-family: 'Segoe UI', Ubuntu, 'Helvetica Neue', sans-serif;
      font-size: 11px;
      fill: #c9d1d9;
      dominant-baseline: middle;
    }
  </style>
  <rect clip-path="url(#history-rounded)" width="100%" height="100%" fill="#0d1117" stroke="#30363d" stroke-width="1" />
  <rect x="0" y="396" width="900" height="6" fill="url(#history-gradient)" clip-path="url(#history-rounded)" />
  <text x="24" y="34" class="title">Leonardo Klein Stats History</text>
  <text x="24" y="54" class="subtitle">Period: 2026-02-20 to 2026-03-04</text>
  <text x="72" y="320.0" text-anchor="end" dominant-baseline="central" class="axis-label">0</text><text x="72" y="270.0" text-anchor="end" dominant-baseline="central" class="axis-label">400</text><text x="72" y="220.0" text-anchor="end" dominant-baseline="central" class="axis-label">800</text><text x="72" y="170.0" text-anchor="end" dominant-baseline="central" class="axis-label">1.2k</text><text x="72" y="120.0" text-anchor="end" dominant-baseline="central" class="axis-label">1.6k</text><text x="72" y="70.0" text-anchor="end" dominant-baseline="central" class="axis-label">2.0k</text>
  <text x="80.0" y="336" text-anchor="middle" class="axis-label">02-20</text><text x="156.0" y="336" text-anchor="middle" class="axis-label">02-21</text><text x="232.0" y="336" text-anchor="middle" class="axis-label">02-22</text><text x="308.0" y="336" text-anchor="middle" class="axis-label">02-24</text><text x="384.0" y="336" text-anchor="middle" class="axis-label">02-25</text><text x="460.0" y="336" text-anchor="middle" class="axis-label">02-26</text><text x="536.0" y="336" text-anchor="middle" class="axis-label">02-27</text><text x="612.0" y="336" text-anchor="middle" class="axis-label">02-28</text><text x="688.0" y="336" text-anchor="middle" class="axis-label">03-02</text><text x="764.0" y="336" text-anchor="middle" class="axis-label">03-03</text><text x="840.0" y="336" text-anchor="middle" class="axis-label">03-04</text>
  <line x1="80" y1="320.0" x2="840" y2="320.0" class="grid-line" /><line x1="80" y1="270.0" x2="840" y2="270.0" class="grid-line" /><line x1="80" y1="220.0" x2="840" y2="220.0" class="grid-line" /><line x1="80" y1="170.0" x2="840" y2="170.0" class="grid-line" /><line x1="80" y1="120.0" x2="840" y2="120.0" class="grid-line" /><line x1="80" y1="70.0" x2="840" y2="70.0" class="grid-line" />
  <polyline points="80.0,317.0 92.7,317.0 105.3,317.0 118.0,317.0 130.7,317.0 143.3,317.0 156.0,317.0 168.7,317.0 181.3,317.0 194.0,317.0 206.7,317.0 219.3,317.0 232.0,317.0 244.7,317.0 257.3,317.0 270.0,317.0 282.7,317.0 295.3,317.0 308.0,317.0 320.7,317.0 333.3,317.0 346.0,317.0 358.7,317.0 371.3,317.0 384.0,317.0 396.7,317.0 409.3,317.0 422.0,317.0 434.7,317.0 447.3,317.0 460.0,317.0 472.7,317.0 485.3,317.0 498.0,317.0 510.7,317.0 523.3,317.0 536.0,317.0 548.7,317.0 561.3,317.0 574.0,317.0 586.7,317.0 599.3,317.0 612.0,317.0 624.7,317.0 637.3,317.0 650.0,317.0 662.7,317.0 675.3,317.0 688.0,317.0 700.7,317.0 713.3,317.0 726.0,317.0 738.7,317.0 751.3,317.0 764.0,317.0 776.7,317.0 789.3,317.0 802.0,317.0 814.7,317.0 827.3,317.0 840.0,317.0" fill="none" stroke="#19e5a1" stroke-width="2.5" stroke-linecap="round" stroke-linejoin="round" /><circle cx="80.0" cy="317.0" r="4" fill="#19e5a1" /><circle cx="92.7" cy="317.0" r="4" fill="#19e5a1" /><circle cx="105.3" cy="317.0" r="4" fill="#19e5a1" /><circle cx="118.0" cy="317.0" r="4" fill="#19e5a1" /><circle cx="130.7" cy="317.0" r="4" fill="#19e5a1" /><circle cx="143.3" cy="317.0" r="4" fill="#19e5a1" /><circle cx="156.0" cy="317.0" r="4" fill="#19e5a1" /><circle cx="168.7" cy="317.0" r="4" fill="#19e5a1" /><circle cx="181.3" cy="317.0" r="4" fill="#19e5a1" /><circle cx="194.0" cy="317.0" r="4" fill="#19e5a1" /><circle cx="206.7" cy="317.0" r="4" fill="#19e5a1" /><circle cx="219.3" cy="317.0" r="4" fill="#19e5a1" /><circle cx="232.0" cy="317.0" r="4" fill="#19e5a1" /><circle cx="244.7" cy="317.0" r="4" fill="#19e5a1" /><circle cx="257.3" cy="317.0" r="4" fill="#19e5a1" /><circle cx="270.0" cy="317.0" r="4" fill="#19e5a1" /><circle cx="282.7" cy="317.0" r="4" fill="#19e5a1" /><circle cx="295.3" cy="317.0" r="4" fill="#19e5a1" /><circle cx="308.0" cy="317.0" r="4" fill="#19e5a1" /><circle cx="320.7" cy="317.0" r="4" fill="#19e5a1" /><circle cx="333.3" cy="317.0" r="4" fill="#19e5a1" /><circle cx="346.0" cy="317.0" r="4" fill="#19e5a1" /><circle cx="358.7" cy="317.0" r="4" fill="#19e5a1" /><circle cx="371.3" cy="317.0" r="4" fill="#19e5a1" /><circle cx="384.0" cy="317.0" r="4" fill="#19e5a1" /><circle cx="396.7" cy="317.0" r="4" fill="#19e5a1" /><circle cx="409.3" cy="317.0" r="4" fill="#19e5a1" /><circle cx="422.0" cy="317.0" r="4" fill="#19e5a1" /><circle cx="434.7" cy="317.0" r="4" fill="#19e5a1" /><circle cx="447.3" cy="317.0" r="4" fill="#19e5a1" /><circle cx="460.0" cy="317.0" r="4" fill="#19e5a1" /><circle cx="472.7" cy="317.0" r="4" fill="#19e5a1" /><circle cx="485.3" cy="317.0" r="4" fill="#19e5a1" /><circle cx="498.0" cy="317.0" r="4" fill="#19e5a1" /><circle cx="510.7" cy="317.0" r="4" fill="#19e5a1" /><circle cx="523.3" cy="317.0" r="4" fill="#19e5a1" /><circle cx="536.0" cy="317.0" r="4" fill="#19e5a1" /><circle cx="548.7" cy="317.0" r="4" fill="#19e5a1" /><circle cx="561.3" cy="317.0" r="4" fill="#19e5a1" /><circle cx="574.0" cy="317.0" r="4" fill="#19e5a1" /><circle cx="586.7" cy="317.0" r="4" fill="#19e5a1" /><circle cx="599.3" cy="317.0" r="4" fill="#19e5a1" /><circle cx="612.0" cy="317.0" r="4" fill="#19e5a1" /><circle cx="624.7" cy="317.0" r="4" fill="#19e5a1" /><circle cx="637.3" cy="317.0" r="4" fill="#19e5a1" /><circle cx="650.0" cy="317.0" r="4" fill="#19e5a1" /><circle cx="662.7" cy="317.0" r="4" fill="#19e5a1" /><circle cx="675.3" cy="317.0" r="4" fill="#19e5a1" /><circle cx="688.0" cy="317.0" r="4" fill="#19e5a1" /><circle cx="700.7" cy="317.0" r="4" fill="#19e5a1" /><circle cx="713.3" cy="317.0" r="4" fill="#19e5a1" /><circle cx="726.0" cy="317.0" r="4" fill="#19e5a1" /><circle cx="738.7" cy="317.0" r="4" fill="#19e5a1" /><circle cx="751.3" cy="317.0" r="4" fill="#19e5a1" /><circle cx="764.0" cy="317.0" r="4" fill="#19e5a1" /><circle cx="776.7" cy="317.0" r="4" fill="#19e5a1" /><circle cx="789.3" cy="317.0" r="4" fill="#19e5a1" /><circle cx="802.0" cy="317.0" r="4" fill="#19e5a1" /><circle cx="814.7" cy="317.0" r="4" fill="#19e5a1" /><circle cx="827.3" cy="317.0" r="4" fill="#19e5a1" /><circle cx="840.0" cy="317.0" r="4" fill="#19e5a1" /><polyline points="80.0,313.2 92.7,312.2 105.3,312.1 118.0,312.4 130.7,312.4 143.3,312.4 156.0,312.1 168.7,312.0 181.3,311.9 194.0,311.9 206.7,311.8 219.3,311.8 232.0,311.5 244.7,311.5 257.3,311.5 270.0,311.2 282.7,311.2 295.3,311.1 308.0,311.1 320.7,311.1 333.3,310.9 346.0,311.0 358.7,310.8 371.3,310.8 384.0,310.8 396.7,310.8 409.3,310.4 422.0,310.2 434.7,310.4 447.3,310.4 460.0,310.4 472.7,310.4 485.3,310.4 498.0,310.2 510.7,310.2 523.3,310.1 536.0,310.1 548.7,309.8 561.3,309.6 574.0,309.6 586.7,309.6 599.3,309.6 612.0,309.5 624.7,309.4 637.3,309.4 650.0,309.4 662.7,309.4 675.3,309.2 688.0,309.2 700.7,309.2 713.3,309.4 726.0,309.4 738.7,309.5 751.3,309.2 764.0,309.2 776.7,309.4 789.3,309.2 802.0,309.2 814.7,309.2 827.3,309.2 840.0,309.2" fill="none" stroke="#6eb6ec" stroke-width="2.5" stroke-linecap="round" stroke-linejoin="round" /><circle cx="80.0" cy="313.2" r="4" fill="#6eb6ec" /><circle cx="92.7" cy="312.2" r="4" fill="#6eb6ec" /><circle cx="105.3" cy="312.1" r="4" fill="#6eb6ec" /><circle cx="118.0" cy="312.4" r="4" fill="#6eb6ec" /><circle cx="130.7" cy="312.4" r="4" fill="#6eb6ec" /><circle cx="143.3" cy="312.4" r="4" fill="#6eb6ec" /><circle cx="156.0" cy="312.1" r="4" fill="#6eb6ec" /><circle cx="168.7" cy="312.0" r="4" fill="#6eb6ec" /><circle cx="181.3" cy="311.9" r="4" fill="#6eb6ec" /><circle cx="194.0" cy="311.9" r="4" fill="#6eb6ec" /><circle cx="206.7" cy="311.8" r="4" fill="#6eb6ec" /><circle cx="219.3" cy="311.8" r="4" fill="#6eb6ec" /><circle cx="232.0" cy="311.5" r="4" fill="#6eb6ec" /><circle cx="244.7" cy="311.5" r="4" fill="#6eb6ec" /><circle cx="257.3" cy="311.5" r="4" fill="#6eb6ec" /><circle cx="270.0" cy="311.2" r="4" fill="#6eb6ec" /><circle cx="282.7" cy="311.2" r="4" fill="#6eb6ec" /><circle cx="295.3" cy="311.1" r="4" fill="#6eb6ec" /><circle cx="308.0" cy="311.1" r="4" fill="#6eb6ec" /><circle cx="320.7" cy="311.1" r="4" fill="#6eb6ec" /><circle cx="333.3" cy="310.9" r="4" fill="#6eb6ec" /><circle cx="346.0" cy="311.0" r="4" fill="#6eb6ec" /><circle cx="358.7" cy="310.8" r="4" fill="#6eb6ec" /><circle cx="371.3" cy="310.8" r="4" fill="#6eb6ec" /><circle cx="384.0" cy="310.8" r="4" fill="#6eb6ec" /><circle cx="396.7" cy="310.8" r="4" fill="#6eb6ec" /><circle cx="409.3" cy="310.4" r="4" fill="#6eb6ec" /><circle cx="422.0" cy="310.2" r="4" fill="#6eb6ec" /><circle cx="434.7" cy="310.4" r="4" fill="#6eb6ec" /><circle cx="447.3" cy="310.4" r="4" fill="#6eb6ec" /><circle cx="460.0" cy="310.4" r="4" fill="#6eb6ec" /><circle cx="472.7" cy="310.4" r="4" fill="#6eb6ec" /><circle cx="485.3" cy="310.4" r="4" fill="#6eb6ec" /><circle cx="498.0" cy="310.2" r="4" fill="#6eb6ec" /><circle cx="510.7" cy="310.2" r="4" fill="#6eb6ec" /><circle cx="523.3" cy="310.1" r="4" fill="#6eb6ec" /><circle cx="536.0" cy="310.1" r="4" fill="#6eb6ec" /><circle cx="548.7" cy="309.8" r="4" fill="#6eb6ec" /><circle cx="561.3" cy="309.6" r="4" fill="#6eb6ec" /><circle cx="574.0" cy="309.6" r="4" fill="#6eb6ec" /><circle cx="586.7" cy="309.6" r="4" fill="#6eb6ec" /><circle cx="599.3" cy="309.6" r="4" fill="#6eb6ec" /><circle cx="612.0" cy="309.5" r="4" fill="#6eb6ec" /><circle cx="624.7" cy="309.4" r="4" fill="#6eb6ec" /><circle cx="637.3" cy="309.4" r="4" fill="#6eb6ec" /><circle cx="650.0" cy="309.4" r="4" fill="#6eb6ec" /><circle cx="662.7" cy="309.4" r="4" fill="#6eb6ec" /><circle cx="675.3" cy="309.2" r="4" fill="#6eb6ec" /><circle cx="688.0" cy="309.2" r="4" fill="#6eb6ec" /><circle cx="700.7" cy="309.2" r="4" fill="#6eb6ec" /><circle cx="713.3" cy="309.4" r="4" fill="#6eb6ec" /><circle cx="726.0" cy="309.4" r="4" fill="#6eb6ec" /><circle cx="738.7" cy="309.5" r="4" fill="#6eb6ec" /><circle cx="751.3" cy="309.2" r="4" fill="#6eb6ec" /><circle cx="764.0" cy="309.2" r="4" fill="#6eb6ec" /><circle cx="776.7" cy="309.4" r="4" fill="#6eb6ec" /><circle cx="789.3" cy="309.2" r="4" fill="#6eb6ec" /><circle cx="802.0" cy="309.2" r="4" fill="#6eb6ec" /><circle cx="814.7" cy="309.2" r="4" fill="#6eb6ec" /><circle cx="827.3" cy="309.2" r="4" fill="#6eb6ec" /><circle cx="840.0" cy="309.2" r="4" fill="#6eb6ec" /><polyline points="80.0,305.8 92.7,305.8 105.3,305.8 118.0,305.8 130.7,305.8 143.3,305.8 156.0,305.8 168.7,305.8 181.3,305.8 194.0,305.8 206.7,304.9 219.3,304.9 232.0,304.9 244.7,304.9 257.3,304.9 270.0,304.9 282.7,304.9 295.3,304.9 308.0,304.9 320.7,304.9 333.3,304.9 346.0,304.9 358.7,304.9 371.3,304.9 384.0,304.9 396.7,304.9 409.3,304.9 422.0,304.9 434.7,304.9 447.3,304.9 460.0,304.9 472.7,304.9 485.3,304.9 498.0,304.9 510.7,304.9 523.3,304.9 536.0,304.9 548.7,303.6 561.3,303.6 574.0,303.6 586.7,303.6 599.3,303.6 612.0,303.6 624.7,303.6 637.3,303.6 650.0,303.6 662.7,303.6 675.3,303.6 688.0,303.6 700.7,303.6 713.3,303.6 726.0,302.9 738.7,302.9 751.3,298.0 764.0,298.0 776.7,298.0 789.3,298.0 802.0,298.0 814.7,298.0 827.3,298.0 840.0,298.0" fill="none" stroke="#5938e2" stroke-width="2.5" stroke-linecap="round" stroke-linejoin="round" /><circle cx="80.0" cy="305.8" r="4" fill="#5938e2" /><circle cx="92.7" cy="305.8" r="4" fill="#5938e2" /><circle cx="105.3" cy="305.8" r="4" fill="#5938e2" /><circle cx="118.0" cy="305.8" r="4" fill="#5938e2" /><circle cx="130.7" cy="305.8" r="4" fill="#5938e2" /><circle cx="143.3" cy="305.8" r="4" fill="#5938e2" /><circle cx="156.0" cy="305.8" r="4" fill="#5938e2" /><circle cx="168.7" cy="305.8" r="4" fill="#5938e2" /><circle cx="181.3" cy="305.8" r="4" fill="#5938e2" /><circle cx="194.0" cy="305.8" r="4" fill="#5938e2" /><circle cx="206.7" cy="304.9" r="4" fill="#5938e2" /><circle cx="219.3" cy="304.9" r="4" fill="#5938e2" /><circle cx="232.0" cy="304.9" r="4" fill="#5938e2" /><circle cx="244.7" cy="304.9" r="4" fill="#5938e2" /><circle cx="257.3" cy="304.9" r="4" fill="#5938e2" /><circle cx="270.0" cy="304.9" r="4" fill="#5938e2" /><circle cx="282.7" cy="304.9" r="4" fill="#5938e2" /><circle cx="295.3" cy="304.9" r="4" fill="#5938e2" /><circle cx="308.0" cy="304.9" r="4" fill="#5938e2" /><circle cx="320.7" cy="304.9" r="4" fill="#5938e2" /><circle cx="333.3" cy="304.9" r="4" fill="#5938e2" /><circle cx="346.0" cy="304.9" r="4" fill="#5938e2" /><circle cx="358.7" cy="304.9" r="4" fill="#5938e2" /><circle cx="371.3" cy="304.9" r="4" fill="#5938e2" /><circle cx="384.0" cy="304.9" r="4" fill="#5938e2" /><circle cx="396.7" cy="304.9" r="4" fill="#5938e2" /><circle cx="409.3" cy="304.9" r="4" fill="#5938e2" /><circle cx="422.0" cy="304.9" r="4" fill="#5938e2" /><circle cx="434.7" cy="304.9" r="4" fill="#5938e2" /><circle cx="447.3" cy="304.9" r="4" fill="#5938e2" /><circle cx="460.0" cy="304.9" r="4" fill="#5938e2" /><circle cx="472.7" cy="304.9" r="4" fill="#5938e2" /><circle cx="485.3" cy="304.9" r="4" fill="#5938e2" /><circle cx="498.0" cy="304.9" r="4" fill="#5938e2" /><circle cx="510.7" cy="304.9" r="4" fill="#5938e2" /><circle cx="523.3" cy="304.9" r="4" fill="#5938e2" /><circle cx="536.0" cy="304.9" r="4" fill="#5938e2" /><circle cx="548.7" cy="303.6" r="4" fill="#5938e2" /><circle cx="561.3" cy="303.6" r="4" fill="#5938e2" /><circle cx="574.0" cy="303.6" r="4" fill="#5938e2" /><circle cx="586.7" cy="303.6" r="4" fill="#5938e2" /><circle cx="599.3" cy="303.6" r="4" fill="#5938e2" /><circle cx="612.0" cy="303.6" r="4" fill="#5938e2" /><circle cx="624.7" cy="303.6" r="4" fill="#5938e2" /><circle cx="637.3" cy="303.6" r="4" fill="#5938e2" /><circle cx="650.0" cy="303.6" r="4" fill="#5938e2" /><circle cx="662.7" cy="303.6" r="4" fill="#5938e2" /><circle cx="675.3" cy="303.6" r="4" fill="#5938e2" /><circle cx="688.0" cy="303.6" r="4" fill="#5938e2" /><circle cx="700.7" cy="303.6" r="4" fill="#5938e2" /><circle cx="713.3" cy="303.6" r="4" fill="#5938e2" /><circle cx="726.0" cy="302.9" r="4" fill="#5938e2" /><circle cx="738.7" cy="302.9" r="4" fill="#5938e2" /><circle cx="751.3" cy="298.0" r="4" fill="#5938e2" /><circle cx="764.0" cy="298.0" r="4" fill="#5938e2" /><circle cx="776.7" cy="298.0" r="4" fill="#5938e2" /><circle cx="789.3" cy="298.0" r="4" fill="#5938e2" /><circle cx="802.0" cy="298.0" r="4" fill="#5938e2" /><circle cx="814.7" cy="298.0" r="4" fill="#5938e2" /><circle cx="827.3" cy="298.0" r="4" fill="#5938e2" /><circle cx="840.0" cy="298.0" r="4" fill="#5938e2" /><polyline points="80.0,144.6 92.7,140.1 105.3,139.9 118.0,139.8 130.7,139.8 143.3,139.6 156.0,139.6 168.7,139.6 181.3,139.6 194.0,139.6 206.7,138.4 219.3,138.4 232.0,138.4 244.7,138.4 257.3,138.4 270.0,138.4 282.7,138.4 295.3,137.4 308.0,137.4 320.7,137.4 333.3,137.4 346.0,137.4 358.7,137.4 371.3,137.4 384.0,137.4 396.7,137.4 409.3,137.4 422.0,137.4 434.7,131.2 447.3,131.2 460.0,130.8 472.7,130.4 485.3,126.9 498.0,126.9 510.7,126.9 523.3,126.9 536.0,126.9 548.7,126.9 561.3,126.9 574.0,126.9 586.7,126.9 599.3,126.8 612.0,122.1 624.7,120.4 637.3,120.4 650.0,120.4 662.7,120.4 675.3,120.4 688.0,119.4 700.7,119.4 713.3,119.4 726.0,119.4 738.7,119.1 751.3,118.8 764.0,118.8 776.7,117.8 789.3,117.8 802.0,117.8 814.7,115.8 827.3,115.8 840.0,115.0" fill="none" stroke="#60e5e0" stroke-width="2.5" stroke-linecap="round" stroke-linejoin="round" /><circle cx="80.0" cy="144.6" r="4" fill="#60e5e0" /><circle cx="92.7" cy="140.1" r="4" fill="#60e5e0" /><circle cx="105.3" cy="139.9" r="4" fill="#60e5e0" /><circle cx="118.0" cy="139.8" r="4" fill="#60e5e0" /><circle cx="130.7" cy="139.8" r="4" fill="#60e5e0" /><circle cx="143.3" cy="139.6" r="4" fill="#60e5e0" /><circle cx="156.0" cy="139.6" r="4" fill="#60e5e0" /><circle cx="168.7" cy="139.6" r="4" fill="#60e5e0" /><circle cx="181.3" cy="139.6" r="4" fill="#60e5e0" /><circle cx="194.0" cy="139.6" r="4" fill="#60e5e0" /><circle cx="206.7" cy="138.4" r="4" fill="#60e5e0" /><circle cx="219.3" cy="138.4" r="4" fill="#60e5e0" /><circle cx="232.0" cy="138.4" r="4" fill="#60e5e0" /><circle cx="244.7" cy="138.4" r="4" fill="#60e5e0" /><circle cx="257.3" cy="138.4" r="4" fill="#60e5e0" /><circle cx="270.0" cy="138.4" r="4" fill="#60e5e0" /><circle cx="282.7" cy="138.4" r="4" fill="#60e5e0" /><circle cx="295.3" cy="137.4" r="4" fill="#60e5e0" /><circle cx="308.0" cy="137.4" r="4" fill="#60e5e0" /><circle cx="320.7" cy="137.4" r="4" fill="#60e5e0" /><circle cx="333.3" cy="137.4" r="4" fill="#60e5e0" /><circle cx="346.0" cy="137.4" r="4" fill="#60e5e0" /><circle cx="358.7" cy="137.4" r="4" fill="#60e5e0" /><circle cx="371.3" cy="137.4" r="4" fill="#60e5e0" /><circle cx="384.0" cy="137.4" r="4" fill="#60e5e0" /><circle cx="396.7" cy="137.4" r="4" fill="#60e5e0" /><circle cx="409.3" cy="137.4" r="4" fill="#60e5e0" /><circle cx="422.0" cy="137.4" r="4" fill="#60e5e0" /><circle cx="434.7" cy="131.2" r="4" fill="#60e5e0" /><circle cx="447.3" cy="131.2" r="4" fill="#60e5e0" /><circle cx="460.0" cy="130.8" r="4" fill="#60e5e0" /><circle cx="472.7" cy="130.4" r="4" fill="#60e5e0" /><circle cx="485.3" cy="126.9" r="4" fill="#60e5e0" /><circle cx="498.0" cy="126.9" r="4" fill="#60e5e0" /><circle cx="510.7" cy="126.9" r="4" fill="#60e5e0" /><circle cx="523.3" cy="126.9" r="4" fill="#60e5e0" /><circle cx="536.0" cy="126.9" r="4" fill="#60e5e0" /><circle cx="548.7" cy="126.9" r="4" fill="#60e5e0" /><circle cx="561.3" cy="126.9" r="4" fill="#60e5e0" /><circle cx="574.0" cy="126.9" r="4" fill="#60e5e0" /><circle cx="586.7" cy="126.9" r="4" fill="#60e5e0" /><circle cx="599.3" cy="126.8" r="4" fill="#60e5e0" /><circle cx="612.0" cy="122.1" r="4" fill="#60e5e0" /><circle cx="624.7" cy="120.4" r="4" fill="#60e5e0" /><circle cx="637.3" cy="120.4" r="4" fill="#60e5e0" /><circle cx="650.0" cy="120.4" r="4" fill="#60e5e0" /><circle cx="662.7" cy="120.4" r="4" fill="#60e5e0" /><circle cx="675.3" cy="120.4" r="4" fill="#60e5e0" /><circle cx="688.0" cy="119.4" r="4" fill="#60e5e0" /><circle cx="700.7" cy="119.4" r="4" fill="#60e5e0" /><circle cx="713.3" cy="119.4" r="4" fill="#60e5e0" /><circle cx="726.0" cy="119.4" r="4" fill="#60e5e0" /><circle cx="738.7" cy="119.1" r="4" fill="#60e5e0" /><circle cx="751.3" cy="118.8" r="4" fill="#60e5e0" /><circle cx="764.0" cy="118.8" r="4" fill="#60e5e0" /><circle cx="776.7" cy="117.8" r="4" fill="#60e5e0" /><circle cx="789.3" cy="117.8" r="4" fill="#60e5e0" /><circle cx="802.0" cy="117.8" r="4" fill="#60e5e0" /><circle cx="814.7" cy="115.8" r="4" fill="#60e5e0" /><circle cx="827.3" cy="115.8" r="4" fill="#60e5e0" /><circle cx="840.0" cy="115.0" r="4" fill="#60e5e0" /><polyline points="80.0,314.6 92.7,314.4 105.3,314.2 118.0,314.2 130.7,314.2 143.3,314.1 156.0,314.1 168.7,314.1 181.3,314.1 194.0,314.1 206.7,314.0 219.3,314.0 232.0,314.0 244.7,314.0 257.3,314.0 270.0,314.0 282.7,314.0 295.3,314.0 308.0,314.0 320.7,314.0 333.3,314.0 346.0,314.0 358.7,314.0 371.3,314.0 384.0,314.0 396.7,314.0 409.3,314.0 422.0,314.0 434.7,314.0 447.3,314.0 460.0,314.0 472.7,314.0 485.3,314.0 498.0,314.0 510.7,314.0 523.3,314.0 536.0,314.0 548.7,314.0 561.3,314.0 574.0,314.0 586.7,314.0 599.3,313.9 612.0,313.6 624.7,313.4 637.3,313.4 650.0,313.4 662.7,313.4 675.3,313.4 688.0,313.1 700.7,313.1 713.3,313.1 726.0,313.1 738.7,313.1 751.3,313.0 764.0,313.0 776.7,312.9 789.3,312.9 802.0,312.9 814.7,312.8 827.3,312.8 840.0,312.6" fill="none" stroke="#567de1" stroke-width="2.5" stroke-linecap="round" stroke-linejoin="round" /><circle cx="80.0" cy="314.6" r="4" fill="#567de1" /><circle cx="92.7" cy="314.4" r="4" fill="#567de1" /><circle cx="105.3" cy="314.2" r="4" fill="#567de1" /><circle cx="118.0" cy="314.2" r="4" fill="#567de1" /><circle cx="130.7" cy="314.2" r="4" fill="#567de1" /><circle cx="143.3" cy="314.1" r="4" fill="#567de1" /><circle cx="156.0" cy="314.1" r="4" fill="#567de1" /><circle cx="168.7" cy="314.1" r="4" fill="#567de1" /><circle cx="181.3" cy="314.1" r="4" fill="#567de1" /><circle cx="194.0" cy="314.1" r="4" fill="#567de1" /><circle cx="206.7" cy="314.0" r="4" fill="#567de1" /><circle cx="219.3" cy="314.0" r="4" fill="#567de1" /><circle cx="232.0" cy="314.0" r="4" fill="#567de1" /><circle cx="244.7" cy="314.0" r="4" fill="#567de1" /><circle cx="257.3" cy="314.0" r="4" fill="#567de1" /><circle cx="270.0" cy="314.0" r="4" fill="#567de1" /><circle cx="282.7" cy="314.0" r="4" fill="#567de1" /><circle cx="295.3" cy="314.0" r="4" fill="#567de1" /><circle cx="308.0" cy="314.0" r="4" fill="#567de1" /><circle cx="320.7" cy="314.0" r="4" fill="#567de1" /><circle cx="333.3" cy="314.0" r="4" fill="#567de1" /><circle cx="346.0" cy="314.0" r="4" fill="#567de1" /><circle cx="358.7" cy="314.0" r="4" fill="#567de1" /><circle cx="371.3" cy="314.0" r="4" fill="#567de1" /><circle cx="384.0" cy="314.0" r="4" fill="#567de1" /><circle cx="396.7" cy="314.0" r="4" fill="#567de1" /><circle cx="409.3" cy="314.0" r="4" fill="#567de1" /><circle cx="422.0" cy="314.0" r="4" fill="#567de1" /><circle cx="434.7" cy="314.0" r="4" fill="#567de1" /><circle cx="447.3" cy="314.0" r="4" fill="#567de1" /><circle cx="460.0" cy="314.0" r="4" fill="#567de1" /><circle cx="472.7" cy="314.0" r="4" fill="#567de1" /><circle cx="485.3" cy="314.0" r="4" fill="#567de1" /><circle cx="498.0" cy="314.0" r="4" fill="#567de1" /><circle cx="510.7" cy="314.0" r="4" fill="#567de1" /><circle cx="523.3" cy="314.0" r="4" fill="#567de1" /><circle cx="536.0" cy="314.0" r="4" fill="#567de1" /><circle cx="548.7" cy="314.0" r="4" fill="#567de1" /><circle cx="561.3" cy="314.0" r="4" fill="#567de1" /><circle cx="574.0" cy="314.0" r="4" fill="#567de1" /><circle cx="586.7" cy="314.0" r="4" fill="#567de1" /><circle cx="599.3" cy="313.9" r="4" fill="#567de1" /><circle cx="612.0" cy="313.6" r="4" fill="#567de1" /><circle cx="624.7" cy="313.4" r="4" fill="#567de1" /><circle cx="637.3" cy="313.4" r="4" fill="#567de1" /><circle cx="650.0" cy="313.4" r="4" fill="#567de1" /><circle cx="662.7" cy="313.4" r="4" fill="#567de1" /><circle cx="675.3" cy="313.4" r="4" fill="#567de1" /><circle cx="688.0" cy="313.1" r="4" fill="#567de1" /><circle cx="700.7" cy="313.1" r="4" fill="#567de1" /><circle cx="713.3" cy="313.1" r="4" fill="#567de1" /><circle cx="726.0" cy="313.1" r="4" fill="#567de1" /><circle cx="738.7" cy="313.1" r="4" fill="#567de1" /><circle cx="751.3" cy="313.0" r="4" fill="#567de1" /><circle cx="764.0" cy="313.0" r="4" fill="#567de1" /><circle cx="776.7" cy="312.9" r="4" fill="#567de1" /><circle cx="789.3" cy="312.9" r="4" fill="#567de1" /><circle cx="802.0" cy="312.9" r="4" fill="#567de1" /><circle cx="814.7" cy="312.8" r="4" fill="#567de1" /><circle cx="827.3" cy="312.8" r="4" fill="#567de1" /><circle cx="840.0" cy="312.6" r="4" fill="#567de1" /><polyline points="80.0,303.9 92.7,304.2 105.3,304.4 118.0,304.4 130.7,304.4 143.3,304.4 156.0,304.4 168.7,304.4 181.3,304.4 194.0,304.4 206.7,304.4 219.3,304.4 232.0,304.4 244.7,304.4 257.3,304.4 270.0,304.4 282.7,304.4 295.3,304.4 308.0,304.4 320.7,304.4 333.3,304.4 346.0,304.4 358.7,304.4 371.3,304.4 384.0,304.4 396.7,304.4 409.3,304.4 422.0,304.4 434.7,299.1 447.3,299.1 460.0,299.1 472.7,298.9 485.3,295.6 498.0,295.6 510.7,295.6 523.3,295.6 536.0,295.6 548.7,295.6 561.3,295.6 574.0,295.6 586.7,295.6 599.3,295.8 612.0,295.9 624.7,295.9 637.3,295.9 650.0,295.9 662.7,295.9 675.3,295.9 688.0,295.9 700.7,295.9 713.3,295.9 726.0,295.9 738.7,295.9 751.3,295.9 764.0,295.9 776.7,295.9 789.3,295.9 802.0,295.9 814.7,295.8 827.3,295.8 840.0,295.9" fill="none" stroke="#9754dd" stroke-width="2.5" stroke-linecap="round" stroke-linejoin="round" /><circle cx="80.0" cy="303.9" r="4" fill="#9754dd" /><circle cx="92.7" cy="304.2" r="4" fill="#9754dd" /><circle cx="105.3" cy="304.4" r="4" fill="#9754dd" /><circle cx="118.0" cy="304.4" r="4" fill="#9754dd" /><circle cx="130.7" cy="304.4" r="4" fill="#9754dd" /><circle cx="143.3" cy="304.4" r="4" fill="#9754dd" /><circle cx="156.0" cy="304.4" r="4" fill="#9754dd" /><circle cx="168.7" cy="304.4" r="4" fill="#9754dd" /><circle cx="181.3" cy="304.4" r="4" fill="#9754dd" /><circle cx="194.0" cy="304.4" r="4" fill="#9754dd" /><circle cx="206.7" cy="304.4" r="4" fill="#9754dd" /><circle cx="219.3" cy="304.4" r="4" fill="#9754dd" /><circle cx="232.0" cy="304.4" r="4" fill="#9754dd" /><circle cx="244.7" cy="304.4" r="4" fill="#9754dd" /><circle cx="257.3" cy="304.4" r="4" fill="#9754dd" /><circle cx="270.0" cy="304.4" r="4" fill="#9754dd" /><circle cx="282.7" cy="304.4" r="4" fill="#9754dd" /><circle cx="295.3" cy="304.4" r="4" fill="#9754dd" /><circle cx="308.0" cy="304.4" r="4" fill="#9754dd" /><circle cx="320.7" cy="304.4" r="4" fill="#9754dd" /><circle cx="333.3" cy="304.4" r="4" fill="#9754dd" /><circle cx="346.0" cy="304.4" r="4" fill="#9754dd" /><circle cx="358.7" cy="304.4" r="4" fill="#9754dd" /><circle cx="371.3" cy="304.4" r="4" fill="#9754dd" /><circle cx="384.0" cy="304.4" r="4" fill="#9754dd" /><circle cx="396.7" cy="304.4" r="4" fill="#9754dd" /><circle cx="409.3" cy="304.4" r="4" fill="#9754dd" /><circle cx="422.0" cy="304.4" r="4" fill="#9754dd" /><circle cx="434.7" cy="299.1" r="4" fill="#9754dd" /><circle cx="447.3" cy="299.1" r="4" fill="#9754dd" /><circle cx="460.0" cy="299.1" r="4" fill="#9754dd" /><circle cx="472.7" cy="298.9" r="4" fill="#9754dd" /><circle cx="485.3" cy="295.6" r="4" fill="#9754dd" /><circle cx="498.0" cy="295.6" r="4" fill="#9754dd" /><circle cx="510.7" cy="295.6" r="4" fill="#9754dd" /><circle cx="523.3" cy="295.6" r="4" fill="#9754dd" /><circle cx="536.0" cy="295.6" r="4" fill="#9754dd" /><circle cx="548.7" cy="295.6" r="4" fill="#9754dd" /><circle cx="561.3" cy="295.6" r="4" fill="#9754dd" /><circle cx="574.0" cy="295.6" r="4" fill="#9754dd" /><circle cx="586.7" cy="295.6" r="4" fill="#9754dd" /><circle cx="599.3" cy="295.8" r="4" fill="#9754dd" /><circle cx="612.0" cy="295.9" r="4" fill="#9754dd" /><circle cx="624.7" cy="295.9" r="4" fill="#9754dd" /><circle cx="637.3" cy="295.9" r="4" fill="#9754dd" /><circle cx="650.0" cy="295.9" r="4" fill="#9754dd" /><circle cx="662.7" cy="295.9" r="4" fill="#9754dd" /><circle cx="675.3" cy="295.9" r="4" fill="#9754dd" /><circle cx="688.0" cy="295.9" r="4" fill="#9754dd" /><circle cx="700.7" cy="295.9" r="4" fill="#9754dd" /><circle cx="713.3" cy="295.9" r="4" fill="#9754dd" /><circle cx="726.0" cy="295.9" r="4" fill="#9754dd" /><circle cx="738.7" cy="295.9" r="4" fill="#9754dd" /><circle cx="751.3" cy="295.9" r="4" fill="#9754dd" /><circle cx="764.0" cy="295.9" r="4" fill="#9754dd" /><circle cx="776.7" cy="295.9" r="4" fill="#9754dd" /><circle cx="789.3" cy="295.9" r="4" fill="#9754dd" /><circle cx="802.0" cy="295.9" r="4" fill="#9754dd" /><circle cx="814.7" cy="295.8" r="4" fill="#9754dd" /><circle cx="827.3" cy="295.8" r="4" fill="#9754dd" /><circle cx="840.0" cy="295.9" r="4" fill="#9754dd" />
  <rect x="80" y="339" width="10" height="10" rx="2" ry="2" fill="#19e5a1" /><text x="96" y="348" class="legend-label">Stars</text><rect x="250" y="339" width="10" height="10" rx="2" ry="2" fill="#6eb6ec" /><text x="266" y="348" class="legend-label">Followers</text><rect x="420" y="339" width="10" height="10" rx="2" ry="2" fill="#5938e2" /><text x="436" y="348" class="legend-label">Following</text><rect x="590" y="339" width="10" height="10" rx="2" ry="2" fill="#60e5e0" /><text x="606" y="348" class="legend-label">Contributions</text><rect x="80" y="357" width="10" height="10" rx="2" ry="2" fill="#567de1" /><text x="96" y="366" class="legend-label">Pull Requests</text><rect x="250" y="357" width="10" height="10" rx="2" ry="2" fill="#9754dd" /><text x="266" y="366" class="legend-label">Issues</text>
</svg>
