<svg width="900" height="402" viewBox="0 0 900 402" xmlns="http://www.w3.org/2000/svg">
  <defs>
    <linearGradient id="history-gradient" x1="0%" y1="0%" x2="100%" y2="100%">
      <stop offset="0%" style="stop-color:#58a6ff;stop-opacity:1" />
      <stop offset="100%" style="stop-color:#a371f7;stop-opacity:1" />
    </linearGradient>
    <clipPath id="history-rounded">
      <rect x="0" y="0" width="900" height="402" rx="8" ry="8" />
    </clipPath>
  </defs>
  <style>
    .title {
      font-family: 'Segoe UI', Ubuntu, 'Helvetica Neue', sans-serif;
      font-size: 22px;
      font-weight: 700;
      fill: #58a6ff;
    }
    .subtitle {
      font-family: 'Segoe UI', Ubuntu, 'Helvetica Neue', sans-serif;
      font-size: 12px;
      font-weight: 500;
      fill: #8b949e;
    }
    .axis-label {
      font-family: 'Segoe UI', Ubuntu, 'Helvetica Neue', sans-serif;
      font-size: 10px;
      fill: #8b949e;
    }
    .grid-line {
      stroke: #30363d;
      stroke-width: 1;
      opacity: 0.3;
    }
    .legend-label {
      font-family: 'Segoe UI', Ubuntu, 'Helvetica Neue', sans-serif;
      font-size: 11px;
      fill: #c9d1d9;
      dominant-baseline: middle;
    }
  </style>
  <rect clip-path="url(#history-rounded)" width="100%" height="100%" fill="#0d1117" stroke="#30363d" stroke-width="1" />
  <rect x="0" y="396" width="900" height="6" fill="url(#history-gradient)" clip-path="url(#history-rounded)" />
  <text x="24" y="34" class="title">Leonardo Klein Stats History</text>
  <text x="24" y="54" class="subtitle">Period: 2026-02-20 to 2026-02-26</text>
  <text x="72" y="320.0" text-anchor="end" dominant-baseline="central" class="axis-label">0</text><text x="72" y="270.0" text-anchor="end" dominant-baseline="central" class="axis-label">400</text><text x="72" y="220.0" text-anchor="end" dominant-baseline="central" class="axis-label">800</text><text x="72" y="170.0" text-anchor="end" dominant-baseline="central" class="axis-label">1.2k</text><text x="72" y="120.0" text-anchor="end" dominant-baseline="central" class="axis-label">1.6k</text><text x="72" y="70.0" text-anchor="end" dominant-baseline="central" class="axis-label">2.0k</text>
  <text x="80.0" y="336" text-anchor="middle" class="axis-label">02-20</text><text x="156.0" y="336" text-anchor="middle" class="axis-label">02-21</text><text x="232.0" y="336" text-anchor="middle" class="axis-label">02-21</text><text x="308.0" y="336" text-anchor="middle" class="axis-label">02-22</text><text x="384.0" y="336" text-anchor="middle" class="axis-label">02-22</text><text x="460.0" y="336" text-anchor="middle" class="axis-label">02-23</text><text x="536.0" y="336" text-anchor="middle" class="axis-label">02-24</text><text x="612.0" y="336" text-anchor="middle" class="axis-label">02-24</text><text x="688.0" y="336" text-anchor="middle" class="axis-label">02-25</text><text x="764.0" y="336" text-anchor="middle" class="axis-label">02-25</text><text x="840.0" y="336" text-anchor="middle" class="axis-label">02-26</text>
  <line x1="80" y1="320.0" x2="840" y2="320.0" class="grid-line" /><line x1="80" y1="270.0" x2="840" y2="270.0" class="grid-line" /><line x1="80" y1="220.0" x2="840" y2="220.0" class="grid-line" /><line x1="80" y1="170.0" x2="840" y2="170.0" class="grid-line" /><line x1="80" y1="120.0" x2="840" y2="120.0" class="grid-line" /><line x1="80" y1="70.0" x2="840" y2="70.0" class="grid-line" />
  <polyline points="80.0,317.0 105.3,317.0 130.7,317.0 156.0,317.0 181.3,317.0 206.7,317.0 232.0,317.0 257.3,317.0 282.7,317.0 308.0,317.0 333.3,317.0 358.7,317.0 384.0,317.0 409.3,317.0 434.7,317.0 460.0,317.0 485.3,317.0 510.7,317.0 536.0,317.0 561.3,317.0 586.7,317.0 612.0,317.0 637.3,317.0 662.7,317.0 688.0,317.0 713.3,317.0 738.7,317.0 764.0,317.0 789.3,317.0 814.7,317.0 840.0,317.0" fill="none" stroke="#19e5a1" stroke-width="2.5" stroke-linecap="round" stroke-linejoin="round" /><circle cx="80.0" cy="317.0" r="4" fill="#19e5a1" /><circle cx="105.3" cy="317.0" r="4" fill="#19e5a1" /><circle cx="130.7" cy="317.0" r="4" fill="#19e5a1" /><circle cx="156.0" cy="317.0" r="4" fill="#19e5a1" /><circle cx="181.3" cy="317.0" r="4" fill="#19e5a1" /><circle cx="206.7" cy="317.0" r="4" fill="#19e5a1" /><circle cx="232.0" cy="317.0" r="4" fill="#19e5a1" /><circle cx="257.3" cy="317.0" r="4" fill="#19e5a1" /><circle cx="282.7" cy="317.0" r="4" fill="#19e5a1" /><circle cx="308.0" cy="317.0" r="4" fill="#19e5a1" /><circle cx="333.3" cy="317.0" r="4" fill="#19e5a1" /><circle cx="358.7" cy="317.0" r="4" fill="#19e5a1" /><circle cx="384.0" cy="317.0" r="4" fill="#19e5a1" /><circle cx="409.3" cy="317.0" r="4" fill="#19e5a1" /><circle cx="434.7" cy="317.0" r="4" fill="#19e5a1" /><circle cx="460.0" cy="317.0" r="4" fill="#19e5a1" /><circle cx="485.3" cy="317.0" r="4" fill="#19e5a1" /><circle cx="510.7" cy="317.0" r="4" fill="#19e5a1" /><circle cx="536.0" cy="317.0" r="4" fill="#19e5a1" /><circle cx="561.3" cy="317.0" r="4" fill="#19e5a1" /><circle cx="586.7" cy="317.0" r="4" fill="#19e5a1" /><circle cx="612.0" cy="317.0" r="4" fill="#19e5a1" /><circle cx="637.3" cy="317.0" r="4" fill="#19e5a1" /><circle cx="662.7" cy="317.0" r="4" fill="#19e5a1" /><circle cx="688.0" cy="317.0" r="4" fill="#19e5a1" /><circle cx="713.3" cy="317.0" r="4" fill="#19e5a1" /><circle cx="738.7" cy="317.0" r="4" fill="#19e5a1" /><circle cx="764.0" cy="317.0" r="4" fill="#19e5a1" /><circle cx="789.3" cy="317.0" r="4" fill="#19e5a1" /><circle cx="814.7" cy="317.0" r="4" fill="#19e5a1" /><circle cx="840.0" cy="317.0" r="4" fill="#19e5a1" /><polyline points="80.0,313.2 105.3,312.2 130.7,312.1 156.0,312.4 181.3,312.4 206.7,312.4 232.0,312.1 257.3,312.0 282.7,311.9 308.0,311.9 333.3,311.8 358.7,311.8 384.0,311.5 409.3,311.5 434.7,311.5 460.0,311.2 485.3,311.2 510.7,311.1 536.0,311.1 561.3,311.1 586.7,310.9 612.0,311.0 637.3,310.8 662.7,310.8 688.0,310.8 713.3,310.8 738.7,310.4 764.0,310.2 789.3,310.4 814.7,310.4 840.0,310.4" fill="none" stroke="#6eb6ec" stroke-width="2.5" stroke-linecap="round" stroke-linejoin="round" /><circle cx="80.0" cy="313.2" r="4" fill="#6eb6ec" /><circle cx="105.3" cy="312.2" r="4" fill="#6eb6ec" /><circle cx="130.7" cy="312.1" r="4" fill="#6eb6ec" /><circle cx="156.0" cy="312.4" r="4" fill="#6eb6ec" /><circle cx="181.3" cy="312.4" r="4" fill="#6eb6ec" /><circle cx="206.7" cy="312.4" r="4" fill="#6eb6ec" /><circle cx="232.0" cy="312.1" r="4" fill="#6eb6ec" /><circle cx="257.3" cy="312.0" r="4" fill="#6eb6ec" /><circle cx="282.7" cy="311.9" r="4" fill="#6eb6ec" /><circle cx="308.0" cy="311.9" r="4" fill="#6eb6ec" /><circle cx="333.3" cy="311.8" r="4" fill="#6eb6ec" /><circle cx="358.7" cy="311.8" r="4" fill="#6eb6ec" /><circle cx="384.0" cy="311.5" r="4" fill="#6eb6ec" /><circle cx="409.3" cy="311.5" r="4" fill="#6eb6ec" /><circle cx="434.7" cy="311.5" r="4" fill="#6eb6ec" /><circle cx="460.0" cy="311.2" r="4" fill="#6eb6ec" /><circle cx="485.3" cy="311.2" r="4" fill="#6eb6ec" /><circle cx="510.7" cy="311.1" r="4" fill="#6eb6ec" /><circle cx="536.0" cy="311.1" r="4" fill="#6eb6ec" /><circle cx="561.3" cy="311.1" r="4" fill="#6eb6ec" /><circle cx="586.7" cy="310.9" r="4" fill="#6eb6ec" /><circle cx="612.0" cy="311.0" r="4" fill="#6eb6ec" /><circle cx="637.3" cy="310.8" r="4" fill="#6eb6ec" /><circle cx="662.7" cy="310.8" r="4" fill="#6eb6ec" /><circle cx="688.0" cy="310.8" r="4" fill="#6eb6ec" /><circle cx="713.3" cy="310.8" r="4" fill="#6eb6ec" /><circle cx="738.7" cy="310.4" r="4" fill="#6eb6ec" /><circle cx="764.0" cy="310.2" r="4" fill="#6eb6ec" /><circle cx="789.3" cy="310.4" r="4" fill="#6eb6ec" /><circle cx="814.7" cy="310.4" r="4" fill="#6eb6ec" /><circle cx="840.0" cy="310.4" r="4" fill="#6eb6ec" /><polyline points="80.0,305.8 105.3,305.8 130.7,305.8 156.0,305.8 181.3,305.8 206.7,305.8 232.0,305.8 257.3,305.8 282.7,305.8 308.0,305.8 333.3,304.9 358.7,304.9 384.0,304.9 409.3,304.9 434.7,304.9 460.0,304.9 485.3,304.9 510.7,304.9 536.0,304.9 561.3,304.9 586.7,304.9 612.0,304.9 637.3,304.9 662.7,304.9 688.0,304.9 713.3,304.9 738.7,304.9 764.0,304.9 789.3,304.9 814.7,304.9 840.0,304.9" fill="none" stroke="#5938e2" stroke-width="2.5" stroke-linecap="round" stroke-linejoin="round" /><circle cx="80.0" cy="305.8" r="4" fill="#5938e2" /><circle cx="105.3" cy="305.8" r="4" fill="#5938e2" /><circle cx="130.7" cy="305.8" r="4" fill="#5938e2" /><circle cx="156.0" cy="305.8" r="4" fill="#5938e2" /><circle cx="181.3" cy="305.8" r="4" fill="#5938e2" /><circle cx="206.7" cy="305.8" r="4" fill="#5938e2" /><circle cx="232.0" cy="305.8" r="4" fill="#5938e2" /><circle cx="257.3" cy="305.8" r="4" fill="#5938e2" /><circle cx="282.7" cy="305.8" r="4" fill="#5938e2" /><circle cx="308.0" cy="305.8" r="4" fill="#5938e2" /><circle cx="333.3" cy="304.9" r="4" fill="#5938e2" /><circle cx="358.7" cy="304.9" r="4" fill="#5938e2" /><circle cx="384.0" cy="304.9" r="4" fill="#5938e2" /><circle cx="409.3" cy="304.9" r="4" fill="#5938e2" /><circle cx="434.7" cy="304.9" r="4" fill="#5938e2" /><circle cx="460.0" cy="304.9" r="4" fill="#5938e2" /><circle cx="485.3" cy="304.9" r="4" fill="#5938e2" /><circle cx="510.7" cy="304.9" r="4" fill="#5938e2" /><circle cx="536.0" cy="304.9" r="4" fill="#5938e2" /><circle cx="561.3" cy="304.9" r="4" fill="#5938e2" /><circle cx="586.7" cy="304.9" r="4" fill="#5938e2" /><circle cx="612.0" cy="304.9" r="4" fill="#5938e2" /><circle cx="637.3" cy="304.9" r="4" fill="#5938e2" /><circle cx="662.7" cy="304.9" r="4" fill="#5938e2" /><circle cx="688.0" cy="304.9" r="4" fill="#5938e2" /><circle cx="713.3" cy="304.9" r="4" fill="#5938e2" /><circle cx="738.7" cy="304.9" r="4" fill="#5938e2" /><circle cx="764.0" cy="304.9" r="4" fill="#5938e2" /><circle cx="789.3" cy="304.9" r="4" fill="#5938e2" /><circle cx="814.7" cy="304.9" r="4" fill="#5938e2" /><circle cx="840.0" cy="304.9" r="4" fill="#5938e2" /><polyline points="80.0,144.6 105.3,140.1 130.7,139.9 156.0,139.8 181.3,139.8 206.7,139.6 232.0,139.6 257.3,139.6 282.7,139.6 308.0,139.6 333.3,138.4 358.7,138.4 384.0,138.4 409.3,138.4 434.7,138.4 460.0,138.4 485.3,138.4 510.7,137.4 536.0,137.4 561.3,137.4 586.7,137.4 612.0,137.4 637.3,137.4 662.7,137.4 688.0,137.4 713.3,137.4 738.7,137.4 764.0,137.4 789.3,131.2 814.7,131.2 840.0,130.8" fill="none" stroke="#60e5e0" stroke-width="2.5" stroke-linecap="round" stroke-linejoin="round" /><circle cx="80.0" cy="144.6" r="4" fill="#60e5e0" /><circle cx="105.3" cy="140.1" r="4" fill="#60e5e0" /><circle cx="130.7" cy="139.9" r="4" fill="#60e5e0" /><circle cx="156.0" cy="139.8" r="4" fill="#60e5e0" /><circle cx="181.3" cy="139.8" r="4" fill="#60e5e0" /><circle cx="206.7" cy="139.6" r="4" fill="#60e5e0" /><circle cx="232.0" cy="139.6" r="4" fill="#60e5e0" /><circle cx="257.3" cy="139.6" r="4" fill="#60e5e0" /><circle cx="282.7" cy="139.6" r="4" fill="#60e5e0" /><circle cx="308.0" cy="139.6" r="4" fill="#60e5e0" /><circle cx="333.3" cy="138.4" r="4" fill="#60e5e0" /><circle cx="358.7" cy="138.4" r="4" fill="#60e5e0" /><circle cx="384.0" cy="138.4" r="4" fill="#60e5e0" /><circle cx="409.3" cy="138.4" r="4" fill="#60e5e0" /><circle cx="434.7" cy="138.4" r="4" fill="#60e5e0" /><circle cx="460.0" cy="138.4" r="4" fill="#60e5e0" /><circle cx="485.3" cy="138.4" r="4" fill="#60e5e0" /><circle cx="510.7" cy="137.4" r="4" fill="#60e5e0" /><circle cx="536.0" cy="137.4" r="4" fill="#60e5e0" /><circle cx="561.3" cy="137.4" r="4" fill="#60e5e0" /><circle cx="586.7" cy="137.4" r="4" fill="#60e5e0" /><circle cx="612.0" cy="137.4" r="4" fill="#60e5e0" /><circle cx="637.3" cy="137.4" r="4" fill="#60e5e0" /><circle cx="662.7" cy="137.4" r="4" fill="#60e5e0" /><circle cx="688.0" cy="137.4" r="4" fill="#60e5e0" /><circle cx="713.3" cy="137.4" r="4" fill="#60e5e0" /><circle cx="738.7" cy="137.4" r="4" fill="#60e5e0" /><circle cx="764.0" cy="137.4" r="4" fill="#60e5e0" /><circle cx="789.3" cy="131.2" r="4" fill="#60e5e0" /><circle cx="814.7" cy="131.2" r="4" fill="#60e5e0" /><circle cx="840.0" cy="130.8" r="4" fill="#60e5e0" /><polyline points="80.0,314.6 105.3,314.4 130.7,314.2 156.0,314.2 181.3,314.2 206.7,314.1 232.0,314.1 257.3,314.1 282.7,314.1 308.0,314.1 333.3,314.0 358.7,314.0 384.0,314.0 409.3,314.0 434.7,314.0 460.0,314.0 485.3,314.0 510.7,314.0 536.0,314.0 561.3,314.0 586.7,314.0 612.0,314.0 637.3,314.0 662.7,314.0 688.0,314.0 713.3,314.0 738.7,314.0 764.0,314.0 789.3,314.0 814.7,314.0 840.0,314.0" fill="none" stroke="#567de1" stroke-width="2.5" stroke-linecap="round" stroke-linejoin="round" /><circle cx="80.0" cy="314.6" r="4" fill="#567de1" /><circle cx="105.3" cy="314.4" r="4" fill="#567de1" /><circle cx="130.7" cy="314.2" r="4" fill="#567de1" /><circle cx="156.0" cy="314.2" r="4" fill="#567de1" /><circle cx="181.3" cy="314.2" r="4" fill="#567de1" /><circle cx="206.7" cy="314.1" r="4" fill="#567de1" /><circle cx="232.0" cy="314.1" r="4" fill="#567de1" /><circle cx="257.3" cy="314.1" r="4" fill="#567de1" /><circle cx="282.7" cy="314.1" r="4" fill="#567de1" /><circle cx="308.0" cy="314.1" r="4" fill="#567de1" /><circle cx="333.3" cy="314.0" r="4" fill="#567de1" /><circle cx="358.7" cy="314.0" r="4" fill="#567de1" /><circle cx="384.0" cy="314.0" r="4" fill="#567de1" /><circle cx="409.3" cy="314.0" r="4" fill="#567de1" /><circle cx="434.7" cy="314.0" r="4" fill="#567de1" /><circle cx="460.0" cy="314.0" r="4" fill="#567de1" /><circle cx="485.3" cy="314.0" r="4" fill="#567de1" /><circle cx="510.7" cy="314.0" r="4" fill="#567de1" /><circle cx="536.0" cy="314.0" r="4" fill="#567de1" /><circle cx="561.3" cy="314.0" r="4" fill="#567de1" /><circle cx="586.7" cy="314.0" r="4" fill="#567de1" /><circle cx="612.0" cy="314.0" r="4" fill="#567de1" /><circle cx="637.3" cy="314.0" r="4" fill="#567de1" /><circle cx="662.7" cy="314.0" r="4" fill="#567de1" /><circle cx="688.0" cy="314.0" r="4" fill="#567de1" /><circle cx="713.3" cy="314.0" r="4" fill="#567de1" /><circle cx="738.7" cy="314.0" r="4" fill="#567de1" /><circle cx="764.0" cy="314.0" r="4" fill="#567de1" /><circle cx="789.3" cy="314.0" r="4" fill="#567de1" /><circle cx="814.7" cy="314.0" r="4" fill="#567de1" /><circle cx="840.0" cy="314.0" r="4" fill="#567de1" /><polyline points="80.0,303.9 105.3,304.2 130.7,304.4 156.0,304.4 181.3,304.4 206.7,304.4 232.0,304.4 257.3,304.4 282.7,304.4 308.0,304.4 333.3,304.4 358.7,304.4 384.0,304.4 409.3,304.4 434.7,304.4 460.0,304.4 485.3,304.4 510.7,304.4 536.0,304.4 561.3,304.4 586.7,304.4 612.0,304.4 637.3,304.4 662.7,304.4 688.0,304.4 713.3,304.4 738.7,304.4 764.0,304.4 789.3,299.1 814.7,299.1 840.0,299.1" fill="none" stroke="#9754dd" stroke-width="2.5" stroke-linecap="round" stroke-linejoin="round" /><circle cx="80.0" cy="303.9" r="4" fill="#9754dd" /><circle cx="105.3" cy="304.2" r="4" fill="#9754dd" /><circle cx="130.7" cy="304.4" r="4" fill="#9754dd" /><circle cx="156.0" cy="304.4" r="4" fill="#9754dd" /><circle cx="181.3" cy="304.4" r="4" fill="#9754dd" /><circle cx="206.7" cy="304.4" r="4" fill="#9754dd" /><circle cx="232.0" cy="304.4" r="4" fill="#9754dd" /><circle cx="257.3" cy="304.4" r="4" fill="#9754dd" /><circle cx="282.7" cy="304.4" r="4" fill="#9754dd" /><circle cx="308.0" cy="304.4" r="4" fill="#9754dd" /><circle cx="333.3" cy="304.4" r="4" fill="#9754dd" /><circle cx="358.7" cy="304.4" r="4" fill="#9754dd" /><circle cx="384.0" cy="304.4" r="4" fill="#9754dd" /><circle cx="409.3" cy="304.4" r="4" fill="#9754dd" /><circle cx="434.7" cy="304.4" r="4" fill="#9754dd" /><circle cx="460.0" cy="304.4" r="4" fill="#9754dd" /><circle cx="485.3" cy="304.4" r="4" fill="#9754dd" /><circle cx="510.7" cy="304.4" r="4" fill="#9754dd" /><circle cx="536.0" cy="304.4" r="4" fill="#9754dd" /><circle cx="561.3" cy="304.4" r="4" fill="#9754dd" /><circle cx="586.7" cy="304.4" r="4" fill="#9754dd" /><circle cx="612.0" cy="304.4" r="4" fill="#9754dd" /><circle cx="637.3" cy="304.4" r="4" fill="#9754dd" /><circle cx="662.7" cy="304.4" r="4" fill="#9754dd" /><circle cx="688.0" cy="304.4" r="4" fill="#9754dd" /><circle cx="713.3" cy="304.4" r="4" fill="#9754dd" /><circle cx="738.7" cy="304.4" r="4" fill="#9754dd" /><circle cx="764.0" cy="304.4" r="4" fill="#9754dd" /><circle cx="789.3" cy="299.1" r="4" fill="#9754dd" /><circle cx="814.7" cy="299.1" r="4" fill="#9754dd" /><circle cx="840.0" cy="299.1" r="4" fill="#9754dd" />
  <rect x="80" y="339" width="10" height="10" rx="2" ry="2" fill="#19e5a1" /><text x="96" y="348" class="legend-label">Stars</text><rect x="250" y="339" width="10" height="10" rx="2" ry="2" fill="#6eb6ec" /><text x="266" y="348" class="legend-label">Followers</text><rect x="420" y="339" width="10" height="10" rx="2" ry="2" fill="#5938e2" /><text x="436" y="348" class="legend-label">Following</text><rect x="590" y="339" width="10" height="10" rx="2" ry="2" fill="#60e5e0" /><text x="606" y="348" class="legend-label">Contributions</text><rect x="80" y="357" width="10" height="10" rx="2" ry="2" fill="#567de1" /><text x="96" y="366" class="legend-label">Pull Requests</text><rect x="250" y="357" width="10" height="10" rx="2" ry="2" fill="#9754dd" /><text x="266" y="366" class="legend-label">Issues</text>
</svg>
