<svg width="900" height="402" viewBox="0 0 900 402" xmlns="http://www.w3.org/2000/svg">
  <defs>
    <linearGradient id="history-gradient" x1="0%" y1="0%" x2="100%" y2="100%">
      <stop offset="0%" style="stop-color:#58a6ff;stop-opacity:1" />
      <stop offset="100%" style="stop-color:#a371f7;stop-opacity:1" />
    </linearGradient>
    <clipPath id="history-rounded">
      <rect x="0" y="0" width="900" height="402" rx="8" ry="8" />
    </clipPath>
  </defs>
  <style>
    .title {
      font-family: 'Segoe UI', Ubuntu, 'Helvetica Neue', sans-serif;
      font-size: 22px;
      font-weight: 700;
      fill: #58a6ff;
    }
    .subtitle {
      font-family: 'Segoe UI', Ubuntu, 'Helvetica Neue', sans-serif;
      font-size: 12px;
      font-weight: 500;
      fill: #8b949e;
    }
    .axis-label {
      font-family: 'Segoe UI', Ubuntu, 'Helvetica Neue', sans-serif;
      font-size: 10px;
      fill: #8b949e;
    }
    .grid-line {
      stroke: #30363d;
      stroke-width: 1;
      opacity: 0.3;
    }
    .legend-label {
      font-family: 'Segoe UI', Ubuntu, 'Helvetica Neue', sans-serif;
      font-size: 11px;
      fill: #c9d1d9;
      dominant-baseline: middle;
    }
  </style>
  <rect clip-path="url(#history-rounded)" width="100%" height="100%" fill="#0d1117" stroke="#30363d" stroke-width="1" />
  <rect x="0" y="396" width="900" height="6" fill="url(#history-gradient)" clip-path="url(#history-rounded)" />
  <text x="24" y="34" class="title">Leonardo Klein Stats History</text>
  <text x="24" y="54" class="subtitle">Period: 2026-02-20 to 2026-03-04</text>
  <text x="72" y="320.0" text-anchor="end" dominant-baseline="central" class="axis-label">0</text><text x="72" y="270.0" text-anchor="end" dominant-baseline="central" class="axis-label">400</text><text x="72" y="220.0" text-anchor="end" dominant-baseline="central" class="axis-label">800</text><text x="72" y="170.0" text-anchor="end" dominant-baseline="central" class="axis-label">1.2k</text><text x="72" y="120.0" text-anchor="end" dominant-baseline="central" class="axis-label">1.6k</text><text x="72" y="70.0" text-anchor="end" dominant-baseline="central" class="axis-label">2.0k</text>
  <text x="80.0" y="336" text-anchor="middle" class="axis-label">02-20</text><text x="153.5" y="336" text-anchor="middle" class="axis-label">02-21</text><text x="227.1" y="336" text-anchor="middle" class="axis-label">02-22</text><text x="300.6" y="336" text-anchor="middle" class="axis-label">02-24</text><text x="374.2" y="336" text-anchor="middle" class="axis-label">02-25</text><text x="447.7" y="336" text-anchor="middle" class="axis-label">02-26</text><text x="521.3" y="336" text-anchor="middle" class="axis-label">02-27</text><text x="594.8" y="336" text-anchor="middle" class="axis-label">02-28</text><text x="668.4" y="336" text-anchor="middle" class="axis-label">03-02</text><text x="741.9" y="336" text-anchor="middle" class="axis-label">03-03</text><text x="815.5" y="336" text-anchor="middle" class="axis-label">03-04</text><text x="840.0" y="336" text-anchor="middle" class="axis-label">03-04</text>
  <line x1="80" y1="320.0" x2="840" y2="320.0" class="grid-line" /><line x1="80" y1="270.0" x2="840" y2="270.0" class="grid-line" /><line x1="80" y1="220.0" x2="840" y2="220.0" class="grid-line" /><line x1="80" y1="170.0" x2="840" y2="170.0" class="grid-line" /><line x1="80" y1="120.0" x2="840" y2="120.0" class="grid-line" /><line x1="80" y1="70.0" x2="840" y2="70.0" class="grid-line" />
  <polyline points="80.0,317.0 92.3,317.0 104.5,317.0 116.8,317.0 129.0,317.0 141.3,317.0 153.5,317.0 165.8,317.0 178.1,317.0 190.3,317.0 202.6,317.0 214.8,317.0 227.1,317.0 239.4,317.0 251.6,317.0 263.9,317.0 276.1,317.0 288.4,317.0 300.6,317.0 312.9,317.0 325.2,317.0 337.4,317.0 349.7,317.0 361.9,317.0 374.2,317.0 386.5,317.0 398.7,317.0 411.0,317.0 423.2,317.0 435.5,317.0 447.7,317.0 460.0,317.0 472.3,317.0 484.5,317.0 496.8,317.0 509.0,317.0 521.3,317.0 533.5,317.0 545.8,317.0 558.1,317.0 570.3,317.0 582.6,317.0 594.8,317.0 607.1,317.0 619.4,317.0 631.6,317.0 643.9,317.0 656.1,317.0 668.4,317.0 680.6,317.0 692.9,317.0 705.2,317.0 717.4,317.0 729.7,317.0 741.9,317.0 754.2,317.0 766.5,317.0 778.7,317.0 791.0,317.0 803.2,317.0 815.5,317.0 827.7,317.0 840.0,317.0" fill="none" stroke="#19e5a1" stroke-width="2.5" stroke-linecap="round" stroke-linejoin="round" /><circle cx="80.0" cy="317.0" r="4" fill="#19e5a1" /><circle cx="92.3" cy="317.0" r="4" fill="#19e5a1" /><circle cx="104.5" cy="317.0" r="4" fill="#19e5a1" /><circle cx="116.8" cy="317.0" r="4" fill="#19e5a1" /><circle cx="129.0" cy="317.0" r="4" fill="#19e5a1" /><circle cx="141.3" cy="317.0" r="4" fill="#19e5a1" /><circle cx="153.5" cy="317.0" r="4" fill="#19e5a1" /><circle cx="165.8" cy="317.0" r="4" fill="#19e5a1" /><circle cx="178.1" cy="317.0" r="4" fill="#19e5a1" /><circle cx="190.3" cy="317.0" r="4" fill="#19e5a1" /><circle cx="202.6" cy="317.0" r="4" fill="#19e5a1" /><circle cx="214.8" cy="317.0" r="4" fill="#19e5a1" /><circle cx="227.1" cy="317.0" r="4" fill="#19e5a1" /><circle cx="239.4" cy="317.0" r="4" fill="#19e5a1" /><circle cx="251.6" cy="317.0" r="4" fill="#19e5a1" /><circle cx="263.9" cy="317.0" r="4" fill="#19e5a1" /><circle cx="276.1" cy="317.0" r="4" fill="#19e5a1" /><circle cx="288.4" cy="317.0" r="4" fill="#19e5a1" /><circle cx="300.6" cy="317.0" r="4" fill="#19e5a1" /><circle cx="312.9" cy="317.0" r="4" fill="#19e5a1" /><circle cx="325.2" cy="317.0" r="4" fill="#19e5a1" /><circle cx="337.4" cy="317.0" r="4" fill="#19e5a1" /><circle cx="349.7" cy="317.0" r="4" fill="#19e5a1" /><circle cx="361.9" cy="317.0" r="4" fill="#19e5a1" /><circle cx="374.2" cy="317.0" r="4" fill="#19e5a1" /><circle cx="386.5" cy="317.0" r="4" fill="#19e5a1" /><circle cx="398.7" cy="317.0" r="4" fill="#19e5a1" /><circle cx="411.0" cy="317.0" r="4" fill="#19e5a1" /><circle cx="423.2" cy="317.0" r="4" fill="#19e5a1" /><circle cx="435.5" cy="317.0" r="4" fill="#19e5a1" /><circle cx="447.7" cy="317.0" r="4" fill="#19e5a1" /><circle cx="460.0" cy="317.0" r="4" fill="#19e5a1" /><circle cx="472.3" cy="317.0" r="4" fill="#19e5a1" /><circle cx="484.5" cy="317.0" r="4" fill="#19e5a1" /><circle cx="496.8" cy="317.0" r="4" fill="#19e5a1" /><circle cx="509.0" cy="317.0" r="4" fill="#19e5a1" /><circle cx="521.3" cy="317.0" r="4" fill="#19e5a1" /><circle cx="533.5" cy="317.0" r="4" fill="#19e5a1" /><circle cx="545.8" cy="317.0" r="4" fill="#19e5a1" /><circle cx="558.1" cy="317.0" r="4" fill="#19e5a1" /><circle cx="570.3" cy="317.0" r="4" fill="#19e5a1" /><circle cx="582.6" cy="317.0" r="4" fill="#19e5a1" /><circle cx="594.8" cy="317.0" r="4" fill="#19e5a1" /><circle cx="607.1" cy="317.0" r="4" fill="#19e5a1" /><circle cx="619.4" cy="317.0" r="4" fill="#19e5a1" /><circle cx="631.6" cy="317.0" r="4" fill="#19e5a1" /><circle cx="643.9" cy="317.0" r="4" fill="#19e5a1" /><circle cx="656.1" cy="317.0" r="4" fill="#19e5a1" /><circle cx="668.4" cy="317.0" r="4" fill="#19e5a1" /><circle cx="680.6" cy="317.0" r="4" fill="#19e5a1" /><circle cx="692.9" cy="317.0" r="4" fill="#19e5a1" /><circle cx="705.2" cy="317.0" r="4" fill="#19e5a1" /><circle cx="717.4" cy="317.0" r="4" fill="#19e5a1" /><circle cx="729.7" cy="317.0" r="4" fill="#19e5a1" /><circle cx="741.9" cy="317.0" r="4" fill="#19e5a1" /><circle cx="754.2" cy="317.0" r="4" fill="#19e5a1" /><circle cx="766.5" cy="317.0" r="4" fill="#19e5a1" /><circle cx="778.7" cy="317.0" r="4" fill="#19e5a1" /><circle cx="791.0" cy="317.0" r="4" fill="#19e5a1" /><circle cx="803.2" cy="317.0" r="4" fill="#19e5a1" /><circle cx="815.5" cy="317.0" r="4" fill="#19e5a1" /><circle cx="827.7" cy="317.0" r="4" fill="#19e5a1" /><circle cx="840.0" cy="317.0" r="4" fill="#19e5a1" /><polyline points="80.0,313.2 92.3,312.2 104.5,312.1 116.8,312.4 129.0,312.4 141.3,312.4 153.5,312.1 165.8,312.0 178.1,311.9 190.3,311.9 202.6,311.8 214.8,311.8 227.1,311.5 239.4,311.5 251.6,311.5 263.9,311.2 276.1,311.2 288.4,311.1 300.6,311.1 312.9,311.1 325.2,310.9 337.4,311.0 349.7,310.8 361.9,310.8 374.2,310.8 386.5,310.8 398.7,310.4 411.0,310.2 423.2,310.4 435.5,310.4 447.7,310.4 460.0,310.4 472.3,310.4 484.5,310.2 496.8,310.2 509.0,310.1 521.3,310.1 533.5,309.8 545.8,309.6 558.1,309.6 570.3,309.6 582.6,309.6 594.8,309.5 607.1,309.4 619.4,309.4 631.6,309.4 643.9,309.4 656.1,309.2 668.4,309.2 680.6,309.2 692.9,309.4 705.2,309.4 717.4,309.5 729.7,309.2 741.9,309.2 754.2,309.4 766.5,309.2 778.7,309.2 791.0,309.2 803.2,309.2 815.5,309.2 827.7,309.1 840.0,309.1" fill="none" stroke="#6eb6ec" stroke-width="2.5" stroke-linecap="round" stroke-linejoin="round" /><circle cx="80.0" cy="313.2" r="4" fill="#6eb6ec" /><circle cx="92.3" cy="312.2" r="4" fill="#6eb6ec" /><circle cx="104.5" cy="312.1" r="4" fill="#6eb6ec" /><circle cx="116.8" cy="312.4" r="4" fill="#6eb6ec" /><circle cx="129.0" cy="312.4" r="4" fill="#6eb6ec" /><circle cx="141.3" cy="312.4" r="4" fill="#6eb6ec" /><circle cx="153.5" cy="312.1" r="4" fill="#6eb6ec" /><circle cx="165.8" cy="312.0" r="4" fill="#6eb6ec" /><circle cx="178.1" cy="311.9" r="4" fill="#6eb6ec" /><circle cx="190.3" cy="311.9" r="4" fill="#6eb6ec" /><circle cx="202.6" cy="311.8" r="4" fill="#6eb6ec" /><circle cx="214.8" cy="311.8" r="4" fill="#6eb6ec" /><circle cx="227.1" cy="311.5" r="4" fill="#6eb6ec" /><circle cx="239.4" cy="311.5" r="4" fill="#6eb6ec" /><circle cx="251.6" cy="311.5" r="4" fill="#6eb6ec" /><circle cx="263.9" cy="311.2" r="4" fill="#6eb6ec" /><circle cx="276.1" cy="311.2" r="4" fill="#6eb6ec" /><circle cx="288.4" cy="311.1" r="4" fill="#6eb6ec" /><circle cx="300.6" cy="311.1" r="4" fill="#6eb6ec" /><circle cx="312.9" cy="311.1" r="4" fill="#6eb6ec" /><circle cx="325.2" cy="310.9" r="4" fill="#6eb6ec" /><circle cx="337.4" cy="311.0" r="4" fill="#6eb6ec" /><circle cx="349.7" cy="310.8" r="4" fill="#6eb6ec" /><circle cx="361.9" cy="310.8" r="4" fill="#6eb6ec" /><circle cx="374.2" cy="310.8" r="4" fill="#6eb6ec" /><circle cx="386.5" cy="310.8" r="4" fill="#6eb6ec" /><circle cx="398.7" cy="310.4" r="4" fill="#6eb6ec" /><circle cx="411.0" cy="310.2" r="4" fill="#6eb6ec" /><circle cx="423.2" cy="310.4" r="4" fill="#6eb6ec" /><circle cx="435.5" cy="310.4" r="4" fill="#6eb6ec" /><circle cx="447.7" cy="310.4" r="4" fill="#6eb6ec" /><circle cx="460.0" cy="310.4" r="4" fill="#6eb6ec" /><circle cx="472.3" cy="310.4" r="4" fill="#6eb6ec" /><circle cx="484.5" cy="310.2" r="4" fill="#6eb6ec" /><circle cx="496.8" cy="310.2" r="4" fill="#6eb6ec" /><circle cx="509.0" cy="310.1" r="4" fill="#6eb6ec" /><circle cx="521.3" cy="310.1" r="4" fill="#6eb6ec" /><circle cx="533.5" cy="309.8" r="4" fill="#6eb6ec" /><circle cx="545.8" cy="309.6" r="4" fill="#6eb6ec" /><circle cx="558.1" cy="309.6" r="4" fill="#6eb6ec" /><circle cx="570.3" cy="309.6" r="4" fill="#6eb6ec" /><circle cx="582.6" cy="309.6" r="4" fill="#6eb6ec" /><circle cx="594.8" cy="309.5" r="4" fill="#6eb6ec" /><circle cx="607.1" cy="309.4" r="4" fill="#6eb6ec" /><circle cx="619.4" cy="309.4" r="4" fill="#6eb6ec" /><circle cx="631.6" cy="309.4" r="4" fill="#6eb6ec" /><circle cx="643.9" cy="309.4" r="4" fill="#6eb6ec" /><circle cx="656.1" cy="309.2" r="4" fill="#6eb6ec" /><circle cx="668.4" cy="309.2" r="4" fill="#6eb6ec" /><circle cx="680.6" cy="309.2" r="4" fill="#6eb6ec" /><circle cx="692.9" cy="309.4" r="4" fill="#6eb6ec" /><circle cx="705.2" cy="309.4" r="4" fill="#6eb6ec" /><circle cx="717.4" cy="309.5" r="4" fill="#6eb6ec" /><circle cx="729.7" cy="309.2" r="4" fill="#6eb6ec" /><circle cx="741.9" cy="309.2" r="4" fill="#6eb6ec" /><circle cx="754.2" cy="309.4" r="4" fill="#6eb6ec" /><circle cx="766.5" cy="309.2" r="4" fill="#6eb6ec" /><circle cx="778.7" cy="309.2" r="4" fill="#6eb6ec" /><circle cx="791.0" cy="309.2" r="4" fill="#6eb6ec" /><circle cx="803.2" cy="309.2" r="4" fill="#6eb6ec" /><circle cx="815.5" cy="309.2" r="4" fill="#6eb6ec" /><circle cx="827.7" cy="309.1" r="4" fill="#6eb6ec" /><circle cx="840.0" cy="309.1" r="4" fill="#6eb6ec" /><polyline points="80.0,305.8 92.3,305.8 104.5,305.8 116.8,305.8 129.0,305.8 141.3,305.8 153.5,305.8 165.8,305.8 178.1,305.8 190.3,305.8 202.6,304.9 214.8,304.9 227.1,304.9 239.4,304.9 251.6,304.9 263.9,304.9 276.1,304.9 288.4,304.9 300.6,304.9 312.9,304.9 325.2,304.9 337.4,304.9 349.7,304.9 361.9,304.9 374.2,304.9 386.5,304.9 398.7,304.9 411.0,304.9 423.2,304.9 435.5,304.9 447.7,304.9 460.0,304.9 472.3,304.9 484.5,304.9 496.8,304.9 509.0,304.9 521.3,304.9 533.5,303.6 545.8,303.6 558.1,303.6 570.3,303.6 582.6,303.6 594.8,303.6 607.1,303.6 619.4,303.6 631.6,303.6 643.9,303.6 656.1,303.6 668.4,303.6 680.6,303.6 692.9,303.6 705.2,302.9 717.4,302.9 729.7,298.0 741.9,298.0 754.2,298.0 766.5,298.0 778.7,298.0 791.0,298.0 803.2,298.0 815.5,298.0 827.7,298.0 840.0,298.0" fill="none" stroke="#5938e2" stroke-width="2.5" stroke-linecap="round" stroke-linejoin="round" /><circle cx="80.0" cy="305.8" r="4" fill="#5938e2" /><circle cx="92.3" cy="305.8" r="4" fill="#5938e2" /><circle cx="104.5" cy="305.8" r="4" fill="#5938e2" /><circle cx="116.8" cy="305.8" r="4" fill="#5938e2" /><circle cx="129.0" cy="305.8" r="4" fill="#5938e2" /><circle cx="141.3" cy="305.8" r="4" fill="#5938e2" /><circle cx="153.5" cy="305.8" r="4" fill="#5938e2" /><circle cx="165.8" cy="305.8" r="4" fill="#5938e2" /><circle cx="178.1" cy="305.8" r="4" fill="#5938e2" /><circle cx="190.3" cy="305.8" r="4" fill="#5938e2" /><circle cx="202.6" cy="304.9" r="4" fill="#5938e2" /><circle cx="214.8" cy="304.9" r="4" fill="#5938e2" /><circle cx="227.1" cy="304.9" r="4" fill="#5938e2" /><circle cx="239.4" cy="304.9" r="4" fill="#5938e2" /><circle cx="251.6" cy="304.9" r="4" fill="#5938e2" /><circle cx="263.9" cy="304.9" r="4" fill="#5938e2" /><circle cx="276.1" cy="304.9" r="4" fill="#5938e2" /><circle cx="288.4" cy="304.9" r="4" fill="#5938e2" /><circle cx="300.6" cy="304.9" r="4" fill="#5938e2" /><circle cx="312.9" cy="304.9" r="4" fill="#5938e2" /><circle cx="325.2" cy="304.9" r="4" fill="#5938e2" /><circle cx="337.4" cy="304.9" r="4" fill="#5938e2" /><circle cx="349.7" cy="304.9" r="4" fill="#5938e2" /><circle cx="361.9" cy="304.9" r="4" fill="#5938e2" /><circle cx="374.2" cy="304.9" r="4" fill="#5938e2" /><circle cx="386.5" cy="304.9" r="4" fill="#5938e2" /><circle cx="398.7" cy="304.9" r="4" fill="#5938e2" /><circle cx="411.0" cy="304.9" r="4" fill="#5938e2" /><circle cx="423.2" cy="304.9" r="4" fill="#5938e2" /><circle cx="435.5" cy="304.9" r="4" fill="#5938e2" /><circle cx="447.7" cy="304.9" r="4" fill="#5938e2" /><circle cx="460.0" cy="304.9" r="4" fill="#5938e2" /><circle cx="472.3" cy="304.9" r="4" fill="#5938e2" /><circle cx="484.5" cy="304.9" r="4" fill="#5938e2" /><circle cx="496.8" cy="304.9" r="4" fill="#5938e2" /><circle cx="509.0" cy="304.9" r="4" fill="#5938e2" /><circle cx="521.3" cy="304.9" r="4" fill="#5938e2" /><circle cx="533.5" cy="303.6" r="4" fill="#5938e2" /><circle cx="545.8" cy="303.6" r="4" fill="#5938e2" /><circle cx="558.1" cy="303.6" r="4" fill="#5938e2" /><circle cx="570.3" cy="303.6" r="4" fill="#5938e2" /><circle cx="582.6" cy="303.6" r="4" fill="#5938e2" /><circle cx="594.8" cy="303.6" r="4" fill="#5938e2" /><circle cx="607.1" cy="303.6" r="4" fill="#5938e2" /><circle cx="619.4" cy="303.6" r="4" fill="#5938e2" /><circle cx="631.6" cy="303.6" r="4" fill="#5938e2" /><circle cx="643.9" cy="303.6" r="4" fill="#5938e2" /><circle cx="656.1" cy="303.6" r="4" fill="#5938e2" /><circle cx="668.4" cy="303.6" r="4" fill="#5938e2" /><circle cx="680.6" cy="303.6" r="4" fill="#5938e2" /><circle cx="692.9" cy="303.6" r="4" fill="#5938e2" /><circle cx="705.2" cy="302.9" r="4" fill="#5938e2" /><circle cx="717.4" cy="302.9" r="4" fill="#5938e2" /><circle cx="729.7" cy="298.0" r="4" fill="#5938e2" /><circle cx="741.9" cy="298.0" r="4" fill="#5938e2" /><circle cx="754.2" cy="298.0" r="4" fill="#5938e2" /><circle cx="766.5" cy="298.0" r="4" fill="#5938e2" /><circle cx="778.7" cy="298.0" r="4" fill="#5938e2" /><circle cx="791.0" cy="298.0" r="4" fill="#5938e2" /><circle cx="803.2" cy="298.0" r="4" fill="#5938e2" /><circle cx="815.5" cy="298.0" r="4" fill="#5938e2" /><circle cx="827.7" cy="298.0" r="4" fill="#5938e2" /><circle cx="840.0" cy="298.0" r="4" fill="#5938e2" /><polyline points="80.0,144.6 92.3,140.1 104.5,139.9 116.8,139.8 129.0,139.8 141.3,139.6 153.5,139.6 165.8,139.6 178.1,139.6 190.3,139.6 202.6,138.4 214.8,138.4 227.1,138.4 239.4,138.4 251.6,138.4 263.9,138.4 276.1,138.4 288.4,137.4 300.6,137.4 312.9,137.4 325.2,137.4 337.4,137.4 349.7,137.4 361.9,137.4 374.2,137.4 386.5,137.4 398.7,137.4 411.0,137.4 423.2,131.2 435.5,131.2 447.7,130.8 460.0,130.4 472.3,126.9 484.5,126.9 496.8,126.9 509.0,126.9 521.3,126.9 533.5,126.9 545.8,126.9 558.1,126.9 570.3,126.9 582.6,126.8 594.8,122.1 607.1,120.4 619.4,120.4 631.6,120.4 643.9,120.4 656.1,120.4 668.4,119.4 680.6,119.4 692.9,119.4 705.2,119.4 717.4,119.1 729.7,118.8 741.9,118.8 754.2,117.8 766.5,117.8 778.7,117.8 791.0,115.8 803.2,115.8 815.5,115.0 827.7,115.0 840.0,115.0" fill="none" stroke="#60e5e0" stroke-width="2.5" stroke-linecap="round" stroke-linejoin="round" /><circle cx="80.0" cy="144.6" r="4" fill="#60e5e0" /><circle cx="92.3" cy="140.1" r="4" fill="#60e5e0" /><circle cx="104.5" cy="139.9" r="4" fill="#60e5e0" /><circle cx="116.8" cy="139.8" r="4" fill="#60e5e0" /><circle cx="129.0" cy="139.8" r="4" fill="#60e5e0" /><circle cx="141.3" cy="139.6" r="4" fill="#60e5e0" /><circle cx="153.5" cy="139.6" r="4" fill="#60e5e0" /><circle cx="165.8" cy="139.6" r="4" fill="#60e5e0" /><circle cx="178.1" cy="139.6" r="4" fill="#60e5e0" /><circle cx="190.3" cy="139.6" r="4" fill="#60e5e0" /><circle cx="202.6" cy="138.4" r="4" fill="#60e5e0" /><circle cx="214.8" cy="138.4" r="4" fill="#60e5e0" /><circle cx="227.1" cy="138.4" r="4" fill="#60e5e0" /><circle cx="239.4" cy="138.4" r="4" fill="#60e5e0" /><circle cx="251.6" cy="138.4" r="4" fill="#60e5e0" /><circle cx="263.9" cy="138.4" r="4" fill="#60e5e0" /><circle cx="276.1" cy="138.4" r="4" fill="#60e5e0" /><circle cx="288.4" cy="137.4" r="4" fill="#60e5e0" /><circle cx="300.6" cy="137.4" r="4" fill="#60e5e0" /><circle cx="312.9" cy="137.4" r="4" fill="#60e5e0" /><circle cx="325.2" cy="137.4" r="4" fill="#60e5e0" /><circle cx="337.4" cy="137.4" r="4" fill="#60e5e0" /><circle cx="349.7" cy="137.4" r="4" fill="#60e5e0" /><circle cx="361.9" cy="137.4" r="4" fill="#60e5e0" /><circle cx="374.2" cy="137.4" r="4" fill="#60e5e0" /><circle cx="386.5" cy="137.4" r="4" fill="#60e5e0" /><circle cx="398.7" cy="137.4" r="4" fill="#60e5e0" /><circle cx="411.0" cy="137.4" r="4" fill="#60e5e0" /><circle cx="423.2" cy="131.2" r="4" fill="#60e5e0" /><circle cx="435.5" cy="131.2" r="4" fill="#60e5e0" /><circle cx="447.7" cy="130.8" r="4" fill="#60e5e0" /><circle cx="460.0" cy="130.4" r="4" fill="#60e5e0" /><circle cx="472.3" cy="126.9" r="4" fill="#60e5e0" /><circle cx="484.5" cy="126.9" r="4" fill="#60e5e0" /><circle cx="496.8" cy="126.9" r="4" fill="#60e5e0" /><circle cx="509.0" cy="126.9" r="4" fill="#60e5e0" /><circle cx="521.3" cy="126.9" r="4" fill="#60e5e0" /><circle cx="533.5" cy="126.9" r="4" fill="#60e5e0" /><circle cx="545.8" cy="126.9" r="4" fill="#60e5e0" /><circle cx="558.1" cy="126.9" r="4" fill="#60e5e0" /><circle cx="570.3" cy="126.9" r="4" fill="#60e5e0" /><circle cx="582.6" cy="126.8" r="4" fill="#60e5e0" /><circle cx="594.8" cy="122.1" r="4" fill="#60e5e0" /><circle cx="607.1" cy="120.4" r="4" fill="#60e5e0" /><circle cx="619.4" cy="120.4" r="4" fill="#60e5e0" /><circle cx="631.6" cy="120.4" r="4" fill="#60e5e0" /><circle cx="643.9" cy="120.4" r="4" fill="#60e5e0" /><circle cx="656.1" cy="120.4" r="4" fill="#60e5e0" /><circle cx="668.4" cy="119.4" r="4" fill="#60e5e0" /><circle cx="680.6" cy="119.4" r="4" fill="#60e5e0" /><circle cx="692.9" cy="119.4" r="4" fill="#60e5e0" /><circle cx="705.2" cy="119.4" r="4" fill="#60e5e0" /><circle cx="717.4" cy="119.1" r="4" fill="#60e5e0" /><circle cx="729.7" cy="118.8" r="4" fill="#60e5e0" /><circle cx="741.9" cy="118.8" r="4" fill="#60e5e0" /><circle cx="754.2" cy="117.8" r="4" fill="#60e5e0" /><circle cx="766.5" cy="117.8" r="4" fill="#60e5e0" /><circle cx="778.7" cy="117.8" r="4" fill="#60e5e0" /><circle cx="791.0" cy="115.8" r="4" fill="#60e5e0" /><circle cx="803.2" cy="115.8" r="4" fill="#60e5e0" /><circle cx="815.5" cy="115.0" r="4" fill="#60e5e0" /><circle cx="827.7" cy="115.0" r="4" fill="#60e5e0" /><circle cx="840.0" cy="115.0" r="4" fill="#60e5e0" /><polyline points="80.0,314.6 92.3,314.4 104.5,314.2 116.8,314.2 129.0,314.2 141.3,314.1 153.5,314.1 165.8,314.1 178.1,314.1 190.3,314.1 202.6,314.0 214.8,314.0 227.1,314.0 239.4,314.0 251.6,314.0 263.9,314.0 276.1,314.0 288.4,314.0 300.6,314.0 312.9,314.0 325.2,314.0 337.4,314.0 349.7,314.0 361.9,314.0 374.2,314.0 386.5,314.0 398.7,314.0 411.0,314.0 423.2,314.0 435.5,314.0 447.7,314.0 460.0,314.0 472.3,314.0 484.5,314.0 496.8,314.0 509.0,314.0 521.3,314.0 533.5,314.0 545.8,314.0 558.1,314.0 570.3,314.0 582.6,313.9 594.8,313.6 607.1,313.4 619.4,313.4 631.6,313.4 643.9,313.4 656.1,313.4 668.4,313.1 680.6,313.1 692.9,313.1 705.2,313.1 717.4,313.1 729.7,313.0 741.9,313.0 754.2,312.9 766.5,312.9 778.7,312.9 791.0,312.8 803.2,312.8 815.5,312.6 827.7,312.6 840.0,312.6" fill="none" stroke="#567de1" stroke-width="2.5" stroke-linecap="round" stroke-linejoin="round" /><circle cx="80.0" cy="314.6" r="4" fill="#567de1" /><circle cx="92.3" cy="314.4" r="4" fill="#567de1" /><circle cx="104.5" cy="314.2" r="4" fill="#567de1" /><circle cx="116.8" cy="314.2" r="4" fill="#567de1" /><circle cx="129.0" cy="314.2" r="4" fill="#567de1" /><circle cx="141.3" cy="314.1" r="4" fill="#567de1" /><circle cx="153.5" cy="314.1" r="4" fill="#567de1" /><circle cx="165.8" cy="314.1" r="4" fill="#567de1" /><circle cx="178.1" cy="314.1" r="4" fill="#567de1" /><circle cx="190.3" cy="314.1" r="4" fill="#567de1" /><circle cx="202.6" cy="314.0" r="4" fill="#567de1" /><circle cx="214.8" cy="314.0" r="4" fill="#567de1" /><circle cx="227.1" cy="314.0" r="4" fill="#567de1" /><circle cx="239.4" cy="314.0" r="4" fill="#567de1" /><circle cx="251.6" cy="314.0" r="4" fill="#567de1" /><circle cx="263.9" cy="314.0" r="4" fill="#567de1" /><circle cx="276.1" cy="314.0" r="4" fill="#567de1" /><circle cx="288.4" cy="314.0" r="4" fill="#567de1" /><circle cx="300.6" cy="314.0" r="4" fill="#567de1" /><circle cx="312.9" cy="314.0" r="4" fill="#567de1" /><circle cx="325.2" cy="314.0" r="4" fill="#567de1" /><circle cx="337.4" cy="314.0" r="4" fill="#567de1" /><circle cx="349.7" cy="314.0" r="4" fill="#567de1" /><circle cx="361.9" cy="314.0" r="4" fill="#567de1" /><circle cx="374.2" cy="314.0" r="4" fill="#567de1" /><circle cx="386.5" cy="314.0" r="4" fill="#567de1" /><circle cx="398.7" cy="314.0" r="4" fill="#567de1" /><circle cx="411.0" cy="314.0" r="4" fill="#567de1" /><circle cx="423.2" cy="314.0" r="4" fill="#567de1" /><circle cx="435.5" cy="314.0" r="4" fill="#567de1" /><circle cx="447.7" cy="314.0" r="4" fill="#567de1" /><circle cx="460.0" cy="314.0" r="4" fill="#567de1" /><circle cx="472.3" cy="314.0" r="4" fill="#567de1" /><circle cx="484.5" cy="314.0" r="4" fill="#567de1" /><circle cx="496.8" cy="314.0" r="4" fill="#567de1" /><circle cx="509.0" cy="314.0" r="4" fill="#567de1" /><circle cx="521.3" cy="314.0" r="4" fill="#567de1" /><circle cx="533.5" cy="314.0" r="4" fill="#567de1" /><circle cx="545.8" cy="314.0" r="4" fill="#567de1" /><circle cx="558.1" cy="314.0" r="4" fill="#567de1" /><circle cx="570.3" cy="314.0" r="4" fill="#567de1" /><circle cx="582.6" cy="313.9" r="4" fill="#567de1" /><circle cx="594.8" cy="313.6" r="4" fill="#567de1" /><circle cx="607.1" cy="313.4" r="4" fill="#567de1" /><circle cx="619.4" cy="313.4" r="4" fill="#567de1" /><circle cx="631.6" cy="313.4" r="4" fill="#567de1" /><circle cx="643.9" cy="313.4" r="4" fill="#567de1" /><circle cx="656.1" cy="313.4" r="4" fill="#567de1" /><circle cx="668.4" cy="313.1" r="4" fill="#567de1" /><circle cx="680.6" cy="313.1" r="4" fill="#567de1" /><circle cx="692.9" cy="313.1" r="4" fill="#567de1" /><circle cx="705.2" cy="313.1" r="4" fill="#567de1" /><circle cx="717.4" cy="313.1" r="4" fill="#567de1" /><circle cx="729.7" cy="313.0" r="4" fill="#567de1" /><circle cx="741.9" cy="313.0" r="4" fill="#567de1" /><circle cx="754.2" cy="312.9" r="4" fill="#567de1" /><circle cx="766.5" cy="312.9" r="4" fill="#567de1" /><circle cx="778.7" cy="312.9" r="4" fill="#567de1" /><circle cx="791.0" cy="312.8" r="4" fill="#567de1" /><circle cx="803.2" cy="312.8" r="4" fill="#567de1" /><circle cx="815.5" cy="312.6" r="4" fill="#567de1" /><circle cx="827.7" cy="312.6" r="4" fill="#567de1" /><circle cx="840.0" cy="312.6" r="4" fill="#567de1" /><polyline points="80.0,303.9 92.3,304.2 104.5,304.4 116.8,304.4 129.0,304.4 141.3,304.4 153.5,304.4 165.8,304.4 178.1,304.4 190.3,304.4 202.6,304.4 214.8,304.4 227.1,304.4 239.4,304.4 251.6,304.4 263.9,304.4 276.1,304.4 288.4,304.4 300.6,304.4 312.9,304.4 325.2,304.4 337.4,304.4 349.7,304.4 361.9,304.4 374.2,304.4 386.5,304.4 398.7,304.4 411.0,304.4 423.2,299.1 435.5,299.1 447.7,299.1 460.0,298.9 472.3,295.6 484.5,295.6 496.8,295.6 509.0,295.6 521.3,295.6 533.5,295.6 545.8,295.6 558.1,295.6 570.3,295.6 582.6,295.8 594.8,295.9 607.1,295.9 619.4,295.9 631.6,295.9 643.9,295.9 656.1,295.9 668.4,295.9 680.6,295.9 692.9,295.9 705.2,295.9 717.4,295.9 729.7,295.9 741.9,295.9 754.2,295.9 766.5,295.9 778.7,295.9 791.0,295.8 803.2,295.8 815.5,295.9 827.7,295.9 840.0,295.9" fill="none" stroke="#9754dd" stroke-width="2.5" stroke-linecap="round" stroke-linejoin="round" /><circle cx="80.0" cy="303.9" r="4" fill="#9754dd" /><circle cx="92.3" cy="304.2" r="4" fill="#9754dd" /><circle cx="104.5" cy="304.4" r="4" fill="#9754dd" /><circle cx="116.8" cy="304.4" r="4" fill="#9754dd" /><circle cx="129.0" cy="304.4" r="4" fill="#9754dd" /><circle cx="141.3" cy="304.4" r="4" fill="#9754dd" /><circle cx="153.5" cy="304.4" r="4" fill="#9754dd" /><circle cx="165.8" cy="304.4" r="4" fill="#9754dd" /><circle cx="178.1" cy="304.4" r="4" fill="#9754dd" /><circle cx="190.3" cy="304.4" r="4" fill="#9754dd" /><circle cx="202.6" cy="304.4" r="4" fill="#9754dd" /><circle cx="214.8" cy="304.4" r="4" fill="#9754dd" /><circle cx="227.1" cy="304.4" r="4" fill="#9754dd" /><circle cx="239.4" cy="304.4" r="4" fill="#9754dd" /><circle cx="251.6" cy="304.4" r="4" fill="#9754dd" /><circle cx="263.9" cy="304.4" r="4" fill="#9754dd" /><circle cx="276.1" cy="304.4" r="4" fill="#9754dd" /><circle cx="288.4" cy="304.4" r="4" fill="#9754dd" /><circle cx="300.6" cy="304.4" r="4" fill="#9754dd" /><circle cx="312.9" cy="304.4" r="4" fill="#9754dd" /><circle cx="325.2" cy="304.4" r="4" fill="#9754dd" /><circle cx="337.4" cy="304.4" r="4" fill="#9754dd" /><circle cx="349.7" cy="304.4" r="4" fill="#9754dd" /><circle cx="361.9" cy="304.4" r="4" fill="#9754dd" /><circle cx="374.2" cy="304.4" r="4" fill="#9754dd" /><circle cx="386.5" cy="304.4" r="4" fill="#9754dd" /><circle cx="398.7" cy="304.4" r="4" fill="#9754dd" /><circle cx="411.0" cy="304.4" r="4" fill="#9754dd" /><circle cx="423.2" cy="299.1" r="4" fill="#9754dd" /><circle cx="435.5" cy="299.1" r="4" fill="#9754dd" /><circle cx="447.7" cy="299.1" r="4" fill="#9754dd" /><circle cx="460.0" cy="298.9" r="4" fill="#9754dd" /><circle cx="472.3" cy="295.6" r="4" fill="#9754dd" /><circle cx="484.5" cy="295.6" r="4" fill="#9754dd" /><circle cx="496.8" cy="295.6" r="4" fill="#9754dd" /><circle cx="509.0" cy="295.6" r="4" fill="#9754dd" /><circle cx="521.3" cy="295.6" r="4" fill="#9754dd" /><circle cx="533.5" cy="295.6" r="4" fill="#9754dd" /><circle cx="545.8" cy="295.6" r="4" fill="#9754dd" /><circle cx="558.1" cy="295.6" r="4" fill="#9754dd" /><circle cx="570.3" cy="295.6" r="4" fill="#9754dd" /><circle cx="582.6" cy="295.8" r="4" fill="#9754dd" /><circle cx="594.8" cy="295.9" r="4" fill="#9754dd" /><circle cx="607.1" cy="295.9" r="4" fill="#9754dd" /><circle cx="619.4" cy="295.9" r="4" fill="#9754dd" /><circle cx="631.6" cy="295.9" r="4" fill="#9754dd" /><circle cx="643.9" cy="295.9" r="4" fill="#9754dd" /><circle cx="656.1" cy="295.9" r="4" fill="#9754dd" /><circle cx="668.4" cy="295.9" r="4" fill="#9754dd" /><circle cx="680.6" cy="295.9" r="4" fill="#9754dd" /><circle cx="692.9" cy="295.9" r="4" fill="#9754dd" /><circle cx="705.2" cy="295.9" r="4" fill="#9754dd" /><circle cx="717.4" cy="295.9" r="4" fill="#9754dd" /><circle cx="729.7" cy="295.9" r="4" fill="#9754dd" /><circle cx="741.9" cy="295.9" r="4" fill="#9754dd" /><circle cx="754.2" cy="295.9" r="4" fill="#9754dd" /><circle cx="766.5" cy="295.9" r="4" fill="#9754dd" /><circle cx="778.7" cy="295.9" r="4" fill="#9754dd" /><circle cx="791.0" cy="295.8" r="4" fill="#9754dd" /><circle cx="803.2" cy="295.8" r="4" fill="#9754dd" /><circle cx="815.5" cy="295.9" r="4" fill="#9754dd" /><circle cx="827.7" cy="295.9" r="4" fill="#9754dd" /><circle cx="840.0" cy="295.9" r="4" fill="#9754dd" />
  <rect x="80" y="339" width="10" height="10" rx="2" ry="2" fill="#19e5a1" /><text x="96" y="348" class="legend-label">Stars</text><rect x="250" y="339" width="10" height="10" rx="2" ry="2" fill="#6eb6ec" /><text x="266" y="348" class="legend-label">Followers</text><rect x="420" y="339" width="10" height="10" rx="2" ry="2" fill="#5938e2" /><text x="436" y="348" class="legend-label">Following</text><rect x="590" y="339" width="10" height="10" rx="2" ry="2" fill="#60e5e0" /><text x="606" y="348" class="legend-label">Contributions</text><rect x="80" y="357" width="10" height="10" rx="2" ry="2" fill="#567de1" /><text x="96" y="366" class="legend-label">Pull Requests</text><rect x="250" y="357" width="10" height="10" rx="2" ry="2" fill="#9754dd" /><text x="266" y="366" class="legend-label">Issues</text>
</svg>
