<svg width="900" height="402" viewBox="0 0 900 402" xmlns="http://www.w3.org/2000/svg">
  <defs>
    <linearGradient id="history-gradient" x1="0%" y1="0%" x2="100%" y2="100%">
      <stop offset="0%" style="stop-color:#58a6ff;stop-opacity:1" />
      <stop offset="100%" style="stop-color:#a371f7;stop-opacity:1" />
    </linearGradient>
    <clipPath id="history-rounded">
      <rect x="0" y="0" width="900" height="402" rx="8" ry="8" />
    </clipPath>
  </defs>
  <style>
    .title {
      font-family: 'Segoe UI', Ubuntu, 'Helvetica Neue', sans-serif;
      font-size: 22px;
      font-weight: 700;
      fill: #58a6ff;
    }
    .subtitle {
      font-family: 'Segoe UI', Ubuntu, 'Helvetica Neue', sans-serif;
      font-size: 12px;
      font-weight: 500;
      fill: #8b949e;
    }
    .axis-label {
      font-family: 'Segoe UI', Ubuntu, 'Helvetica Neue', sans-serif;
      font-size: 10px;
      fill: #8b949e;
    }
    .grid-line {
      stroke: #30363d;
      stroke-width: 1;
      opacity: 0.3;
    }
    .legend-label {
      font-family: 'Segoe UI', Ubuntu, 'Helvetica Neue', sans-serif;
      font-size: 11px;
      fill: #c9d1d9;
      dominant-baseline: middle;
    }
  </style>
  <rect clip-path="url(#history-rounded)" width="100%" height="100%" fill="#0d1117" stroke="#30363d" stroke-width="1" />
  <rect x="0" y="396" width="900" height="6" fill="url(#history-gradient)" clip-path="url(#history-rounded)" />
  <text x="24" y="34" class="title">Leonardo Klein Stats History</text>
  <text x="24" y="54" class="subtitle">Period: 2026-02-20 to 2026-02-27</text>
  <text x="72" y="320.0" text-anchor="end" dominant-baseline="central" class="axis-label">0</text><text x="72" y="270.0" text-anchor="end" dominant-baseline="central" class="axis-label">400</text><text x="72" y="220.0" text-anchor="end" dominant-baseline="central" class="axis-label">800</text><text x="72" y="170.0" text-anchor="end" dominant-baseline="central" class="axis-label">1.2k</text><text x="72" y="120.0" text-anchor="end" dominant-baseline="central" class="axis-label">1.6k</text><text x="72" y="70.0" text-anchor="end" dominant-baseline="central" class="axis-label">2.0k</text>
  <text x="80.0" y="336" text-anchor="middle" class="axis-label">02-20</text><text x="149.1" y="336" text-anchor="middle" class="axis-label">02-21</text><text x="218.2" y="336" text-anchor="middle" class="axis-label">02-21</text><text x="287.3" y="336" text-anchor="middle" class="axis-label">02-22</text><text x="356.4" y="336" text-anchor="middle" class="axis-label">02-22</text><text x="425.5" y="336" text-anchor="middle" class="axis-label">02-23</text><text x="494.5" y="336" text-anchor="middle" class="axis-label">02-24</text><text x="563.6" y="336" text-anchor="middle" class="axis-label">02-24</text><text x="632.7" y="336" text-anchor="middle" class="axis-label">02-25</text><text x="701.8" y="336" text-anchor="middle" class="axis-label">02-25</text><text x="770.9" y="336" text-anchor="middle" class="axis-label">02-26</text><text x="840.0" y="336" text-anchor="middle" class="axis-label">02-27</text>
  <line x1="80" y1="320.0" x2="840" y2="320.0" class="grid-line" /><line x1="80" y1="270.0" x2="840" y2="270.0" class="grid-line" /><line x1="80" y1="220.0" x2="840" y2="220.0" class="grid-line" /><line x1="80" y1="170.0" x2="840" y2="170.0" class="grid-line" /><line x1="80" y1="120.0" x2="840" y2="120.0" class="grid-line" /><line x1="80" y1="70.0" x2="840" y2="70.0" class="grid-line" />
  <polyline points="80.0,317.0 103.0,317.0 126.1,317.0 149.1,317.0 172.1,317.0 195.2,317.0 218.2,317.0 241.2,317.0 264.2,317.0 287.3,317.0 310.3,317.0 333.3,317.0 356.4,317.0 379.4,317.0 402.4,317.0 425.5,317.0 448.5,317.0 471.5,317.0 494.5,317.0 517.6,317.0 540.6,317.0 563.6,317.0 586.7,317.0 609.7,317.0 632.7,317.0 655.8,317.0 678.8,317.0 701.8,317.0 724.8,317.0 747.9,317.0 770.9,317.0 793.9,317.0 817.0,317.0 840.0,317.0" fill="none" stroke="#19e5a1" stroke-width="2.5" stroke-linecap="round" stroke-linejoin="round" /><circle cx="80.0" cy="317.0" r="4" fill="#19e5a1" /><circle cx="103.0" cy="317.0" r="4" fill="#19e5a1" /><circle cx="126.1" cy="317.0" r="4" fill="#19e5a1" /><circle cx="149.1" cy="317.0" r="4" fill="#19e5a1" /><circle cx="172.1" cy="317.0" r="4" fill="#19e5a1" /><circle cx="195.2" cy="317.0" r="4" fill="#19e5a1" /><circle cx="218.2" cy="317.0" r="4" fill="#19e5a1" /><circle cx="241.2" cy="317.0" r="4" fill="#19e5a1" /><circle cx="264.2" cy="317.0" r="4" fill="#19e5a1" /><circle cx="287.3" cy="317.0" r="4" fill="#19e5a1" /><circle cx="310.3" cy="317.0" r="4" fill="#19e5a1" /><circle cx="333.3" cy="317.0" r="4" fill="#19e5a1" /><circle cx="356.4" cy="317.0" r="4" fill="#19e5a1" /><circle cx="379.4" cy="317.0" r="4" fill="#19e5a1" /><circle cx="402.4" cy="317.0" r="4" fill="#19e5a1" /><circle cx="425.5" cy="317.0" r="4" fill="#19e5a1" /><circle cx="448.5" cy="317.0" r="4" fill="#19e5a1" /><circle cx="471.5" cy="317.0" r="4" fill="#19e5a1" /><circle cx="494.5" cy="317.0" r="4" fill="#19e5a1" /><circle cx="517.6" cy="317.0" r="4" fill="#19e5a1" /><circle cx="540.6" cy="317.0" r="4" fill="#19e5a1" /><circle cx="563.6" cy="317.0" r="4" fill="#19e5a1" /><circle cx="586.7" cy="317.0" r="4" fill="#19e5a1" /><circle cx="609.7" cy="317.0" r="4" fill="#19e5a1" /><circle cx="632.7" cy="317.0" r="4" fill="#19e5a1" /><circle cx="655.8" cy="317.0" r="4" fill="#19e5a1" /><circle cx="678.8" cy="317.0" r="4" fill="#19e5a1" /><circle cx="701.8" cy="317.0" r="4" fill="#19e5a1" /><circle cx="724.8" cy="317.0" r="4" fill="#19e5a1" /><circle cx="747.9" cy="317.0" r="4" fill="#19e5a1" /><circle cx="770.9" cy="317.0" r="4" fill="#19e5a1" /><circle cx="793.9" cy="317.0" r="4" fill="#19e5a1" /><circle cx="817.0" cy="317.0" r="4" fill="#19e5a1" /><circle cx="840.0" cy="317.0" r="4" fill="#19e5a1" /><polyline points="80.0,313.2 103.0,312.2 126.1,312.1 149.1,312.4 172.1,312.4 195.2,312.4 218.2,312.1 241.2,312.0 264.2,311.9 287.3,311.9 310.3,311.8 333.3,311.8 356.4,311.5 379.4,311.5 402.4,311.5 425.5,311.2 448.5,311.2 471.5,311.1 494.5,311.1 517.6,311.1 540.6,310.9 563.6,311.0 586.7,310.8 609.7,310.8 632.7,310.8 655.8,310.8 678.8,310.4 701.8,310.2 724.8,310.4 747.9,310.4 770.9,310.4 793.9,310.4 817.0,310.4 840.0,310.2" fill="none" stroke="#6eb6ec" stroke-width="2.5" stroke-linecap="round" stroke-linejoin="round" /><circle cx="80.0" cy="313.2" r="4" fill="#6eb6ec" /><circle cx="103.0" cy="312.2" r="4" fill="#6eb6ec" /><circle cx="126.1" cy="312.1" r="4" fill="#6eb6ec" /><circle cx="149.1" cy="312.4" r="4" fill="#6eb6ec" /><circle cx="172.1" cy="312.4" r="4" fill="#6eb6ec" /><circle cx="195.2" cy="312.4" r="4" fill="#6eb6ec" /><circle cx="218.2" cy="312.1" r="4" fill="#6eb6ec" /><circle cx="241.2" cy="312.0" r="4" fill="#6eb6ec" /><circle cx="264.2" cy="311.9" r="4" fill="#6eb6ec" /><circle cx="287.3" cy="311.9" r="4" fill="#6eb6ec" /><circle cx="310.3" cy="311.8" r="4" fill="#6eb6ec" /><circle cx="333.3" cy="311.8" r="4" fill="#6eb6ec" /><circle cx="356.4" cy="311.5" r="4" fill="#6eb6ec" /><circle cx="379.4" cy="311.5" r="4" fill="#6eb6ec" /><circle cx="402.4" cy="311.5" r="4" fill="#6eb6ec" /><circle cx="425.5" cy="311.2" r="4" fill="#6eb6ec" /><circle cx="448.5" cy="311.2" r="4" fill="#6eb6ec" /><circle cx="471.5" cy="311.1" r="4" fill="#6eb6ec" /><circle cx="494.5" cy="311.1" r="4" fill="#6eb6ec" /><circle cx="517.6" cy="311.1" r="4" fill="#6eb6ec" /><circle cx="540.6" cy="310.9" r="4" fill="#6eb6ec" /><circle cx="563.6" cy="311.0" r="4" fill="#6eb6ec" /><circle cx="586.7" cy="310.8" r="4" fill="#6eb6ec" /><circle cx="609.7" cy="310.8" r="4" fill="#6eb6ec" /><circle cx="632.7" cy="310.8" r="4" fill="#6eb6ec" /><circle cx="655.8" cy="310.8" r="4" fill="#6eb6ec" /><circle cx="678.8" cy="310.4" r="4" fill="#6eb6ec" /><circle cx="701.8" cy="310.2" r="4" fill="#6eb6ec" /><circle cx="724.8" cy="310.4" r="4" fill="#6eb6ec" /><circle cx="747.9" cy="310.4" r="4" fill="#6eb6ec" /><circle cx="770.9" cy="310.4" r="4" fill="#6eb6ec" /><circle cx="793.9" cy="310.4" r="4" fill="#6eb6ec" /><circle cx="817.0" cy="310.4" r="4" fill="#6eb6ec" /><circle cx="840.0" cy="310.2" r="4" fill="#6eb6ec" /><polyline points="80.0,305.8 103.0,305.8 126.1,305.8 149.1,305.8 172.1,305.8 195.2,305.8 218.2,305.8 241.2,305.8 264.2,305.8 287.3,305.8 310.3,304.9 333.3,304.9 356.4,304.9 379.4,304.9 402.4,304.9 425.5,304.9 448.5,304.9 471.5,304.9 494.5,304.9 517.6,304.9 540.6,304.9 563.6,304.9 586.7,304.9 609.7,304.9 632.7,304.9 655.8,304.9 678.8,304.9 701.8,304.9 724.8,304.9 747.9,304.9 770.9,304.9 793.9,304.9 817.0,304.9 840.0,304.9" fill="none" stroke="#5938e2" stroke-width="2.5" stroke-linecap="round" stroke-linejoin="round" /><circle cx="80.0" cy="305.8" r="4" fill="#5938e2" /><circle cx="103.0" cy="305.8" r="4" fill="#5938e2" /><circle cx="126.1" cy="305.8" r="4" fill="#5938e2" /><circle cx="149.1" cy="305.8" r="4" fill="#5938e2" /><circle cx="172.1" cy="305.8" r="4" fill="#5938e2" /><circle cx="195.2" cy="305.8" r="4" fill="#5938e2" /><circle cx="218.2" cy="305.8" r="4" fill="#5938e2" /><circle cx="241.2" cy="305.8" r="4" fill="#5938e2" /><circle cx="264.2" cy="305.8" r="4" fill="#5938e2" /><circle cx="287.3" cy="305.8" r="4" fill="#5938e2" /><circle cx="310.3" cy="304.9" r="4" fill="#5938e2" /><circle cx="333.3" cy="304.9" r="4" fill="#5938e2" /><circle cx="356.4" cy="304.9" r="4" fill="#5938e2" /><circle cx="379.4" cy="304.9" r="4" fill="#5938e2" /><circle cx="402.4" cy="304.9" r="4" fill="#5938e2" /><circle cx="425.5" cy="304.9" r="4" fill="#5938e2" /><circle cx="448.5" cy="304.9" r="4" fill="#5938e2" /><circle cx="471.5" cy="304.9" r="4" fill="#5938e2" /><circle cx="494.5" cy="304.9" r="4" fill="#5938e2" /><circle cx="517.6" cy="304.9" r="4" fill="#5938e2" /><circle cx="540.6" cy="304.9" r="4" fill="#5938e2" /><circle cx="563.6" cy="304.9" r="4" fill="#5938e2" /><circle cx="586.7" cy="304.9" r="4" fill="#5938e2" /><circle cx="609.7" cy="304.9" r="4" fill="#5938e2" /><circle cx="632.7" cy="304.9" r="4" fill="#5938e2" /><circle cx="655.8" cy="304.9" r="4" fill="#5938e2" /><circle cx="678.8" cy="304.9" r="4" fill="#5938e2" /><circle cx="701.8" cy="304.9" r="4" fill="#5938e2" /><circle cx="724.8" cy="304.9" r="4" fill="#5938e2" /><circle cx="747.9" cy="304.9" r="4" fill="#5938e2" /><circle cx="770.9" cy="304.9" r="4" fill="#5938e2" /><circle cx="793.9" cy="304.9" r="4" fill="#5938e2" /><circle cx="817.0" cy="304.9" r="4" fill="#5938e2" /><circle cx="840.0" cy="304.9" r="4" fill="#5938e2" /><polyline points="80.0,144.6 103.0,140.1 126.1,139.9 149.1,139.8 172.1,139.8 195.2,139.6 218.2,139.6 241.2,139.6 264.2,139.6 287.3,139.6 310.3,138.4 333.3,138.4 356.4,138.4 379.4,138.4 402.4,138.4 425.5,138.4 448.5,138.4 471.5,137.4 494.5,137.4 517.6,137.4 540.6,137.4 563.6,137.4 586.7,137.4 609.7,137.4 632.7,137.4 655.8,137.4 678.8,137.4 701.8,137.4 724.8,131.2 747.9,131.2 770.9,130.8 793.9,130.4 817.0,126.9 840.0,126.9" fill="none" stroke="#60e5e0" stroke-width="2.5" stroke-linecap="round" stroke-linejoin="round" /><circle cx="80.0" cy="144.6" r="4" fill="#60e5e0" /><circle cx="103.0" cy="140.1" r="4" fill="#60e5e0" /><circle cx="126.1" cy="139.9" r="4" fill="#60e5e0" /><circle cx="149.1" cy="139.8" r="4" fill="#60e5e0" /><circle cx="172.1" cy="139.8" r="4" fill="#60e5e0" /><circle cx="195.2" cy="139.6" r="4" fill="#60e5e0" /><circle cx="218.2" cy="139.6" r="4" fill="#60e5e0" /><circle cx="241.2" cy="139.6" r="4" fill="#60e5e0" /><circle cx="264.2" cy="139.6" r="4" fill="#60e5e0" /><circle cx="287.3" cy="139.6" r="4" fill="#60e5e0" /><circle cx="310.3" cy="138.4" r="4" fill="#60e5e0" /><circle cx="333.3" cy="138.4" r="4" fill="#60e5e0" /><circle cx="356.4" cy="138.4" r="4" fill="#60e5e0" /><circle cx="379.4" cy="138.4" r="4" fill="#60e5e0" /><circle cx="402.4" cy="138.4" r="4" fill="#60e5e0" /><circle cx="425.5" cy="138.4" r="4" fill="#60e5e0" /><circle cx="448.5" cy="138.4" r="4" fill="#60e5e0" /><circle cx="471.5" cy="137.4" r="4" fill="#60e5e0" /><circle cx="494.5" cy="137.4" r="4" fill="#60e5e0" /><circle cx="517.6" cy="137.4" r="4" fill="#60e5e0" /><circle cx="540.6" cy="137.4" r="4" fill="#60e5e0" /><circle cx="563.6" cy="137.4" r="4" fill="#60e5e0" /><circle cx="586.7" cy="137.4" r="4" fill="#60e5e0" /><circle cx="609.7" cy="137.4" r="4" fill="#60e5e0" /><circle cx="632.7" cy="137.4" r="4" fill="#60e5e0" /><circle cx="655.8" cy="137.4" r="4" fill="#60e5e0" /><circle cx="678.8" cy="137.4" r="4" fill="#60e5e0" /><circle cx="701.8" cy="137.4" r="4" fill="#60e5e0" /><circle cx="724.8" cy="131.2" r="4" fill="#60e5e0" /><circle cx="747.9" cy="131.2" r="4" fill="#60e5e0" /><circle cx="770.9" cy="130.8" r="4" fill="#60e5e0" /><circle cx="793.9" cy="130.4" r="4" fill="#60e5e0" /><circle cx="817.0" cy="126.9" r="4" fill="#60e5e0" /><circle cx="840.0" cy="126.9" r="4" fill="#60e5e0" /><polyline points="80.0,314.6 103.0,314.4 126.1,314.2 149.1,314.2 172.1,314.2 195.2,314.1 218.2,314.1 241.2,314.1 264.2,314.1 287.3,314.1 310.3,314.0 333.3,314.0 356.4,314.0 379.4,314.0 402.4,314.0 425.5,314.0 448.5,314.0 471.5,314.0 494.5,314.0 517.6,314.0 540.6,314.0 563.6,314.0 586.7,314.0 609.7,314.0 632.7,314.0 655.8,314.0 678.8,314.0 701.8,314.0 724.8,314.0 747.9,314.0 770.9,314.0 793.9,314.0 817.0,314.0 840.0,314.0" fill="none" stroke="#567de1" stroke-width="2.5" stroke-linecap="round" stroke-linejoin="round" /><circle cx="80.0" cy="314.6" r="4" fill="#567de1" /><circle cx="103.0" cy="314.4" r="4" fill="#567de1" /><circle cx="126.1" cy="314.2" r="4" fill="#567de1" /><circle cx="149.1" cy="314.2" r="4" fill="#567de1" /><circle cx="172.1" cy="314.2" r="4" fill="#567de1" /><circle cx="195.2" cy="314.1" r="4" fill="#567de1" /><circle cx="218.2" cy="314.1" r="4" fill="#567de1" /><circle cx="241.2" cy="314.1" r="4" fill="#567de1" /><circle cx="264.2" cy="314.1" r="4" fill="#567de1" /><circle cx="287.3" cy="314.1" r="4" fill="#567de1" /><circle cx="310.3" cy="314.0" r="4" fill="#567de1" /><circle cx="333.3" cy="314.0" r="4" fill="#567de1" /><circle cx="356.4" cy="314.0" r="4" fill="#567de1" /><circle cx="379.4" cy="314.0" r="4" fill="#567de1" /><circle cx="402.4" cy="314.0" r="4" fill="#567de1" /><circle cx="425.5" cy="314.0" r="4" fill="#567de1" /><circle cx="448.5" cy="314.0" r="4" fill="#567de1" /><circle cx="471.5" cy="314.0" r="4" fill="#567de1" /><circle cx="494.5" cy="314.0" r="4" fill="#567de1" /><circle cx="517.6" cy="314.0" r="4" fill="#567de1" /><circle cx="540.6" cy="314.0" r="4" fill="#567de1" /><circle cx="563.6" cy="314.0" r="4" fill="#567de1" /><circle cx="586.7" cy="314.0" r="4" fill="#567de1" /><circle cx="609.7" cy="314.0" r="4" fill="#567de1" /><circle cx="632.7" cy="314.0" r="4" fill="#567de1" /><circle cx="655.8" cy="314.0" r="4" fill="#567de1" /><circle cx="678.8" cy="314.0" r="4" fill="#567de1" /><circle cx="701.8" cy="314.0" r="4" fill="#567de1" /><circle cx="724.8" cy="314.0" r="4" fill="#567de1" /><circle cx="747.9" cy="314.0" r="4" fill="#567de1" /><circle cx="770.9" cy="314.0" r="4" fill="#567de1" /><circle cx="793.9" cy="314.0" r="4" fill="#567de1" /><circle cx="817.0" cy="314.0" r="4" fill="#567de1" /><circle cx="840.0" cy="314.0" r="4" fill="#567de1" /><polyline points="80.0,303.9 103.0,304.2 126.1,304.4 149.1,304.4 172.1,304.4 195.2,304.4 218.2,304.4 241.2,304.4 264.2,304.4 287.3,304.4 310.3,304.4 333.3,304.4 356.4,304.4 379.4,304.4 402.4,304.4 425.5,304.4 448.5,304.4 471.5,304.4 494.5,304.4 517.6,304.4 540.6,304.4 563.6,304.4 586.7,304.4 609.7,304.4 632.7,304.4 655.8,304.4 678.8,304.4 701.8,304.4 724.8,299.1 747.9,299.1 770.9,299.1 793.9,298.9 817.0,295.6 840.0,295.6" fill="none" stroke="#9754dd" stroke-width="2.5" stroke-linecap="round" stroke-linejoin="round" /><circle cx="80.0" cy="303.9" r="4" fill="#9754dd" /><circle cx="103.0" cy="304.2" r="4" fill="#9754dd" /><circle cx="126.1" cy="304.4" r="4" fill="#9754dd" /><circle cx="149.1" cy="304.4" r="4" fill="#9754dd" /><circle cx="172.1" cy="304.4" r="4" fill="#9754dd" /><circle cx="195.2" cy="304.4" r="4" fill="#9754dd" /><circle cx="218.2" cy="304.4" r="4" fill="#9754dd" /><circle cx="241.2" cy="304.4" r="4" fill="#9754dd" /><circle cx="264.2" cy="304.4" r="4" fill="#9754dd" /><circle cx="287.3" cy="304.4" r="4" fill="#9754dd" /><circle cx="310.3" cy="304.4" r="4" fill="#9754dd" /><circle cx="333.3" cy="304.4" r="4" fill="#9754dd" /><circle cx="356.4" cy="304.4" r="4" fill="#9754dd" /><circle cx="379.4" cy="304.4" r="4" fill="#9754dd" /><circle cx="402.4" cy="304.4" r="4" fill="#9754dd" /><circle cx="425.5" cy="304.4" r="4" fill="#9754dd" /><circle cx="448.5" cy="304.4" r="4" fill="#9754dd" /><circle cx="471.5" cy="304.4" r="4" fill="#9754dd" /><circle cx="494.5" cy="304.4" r="4" fill="#9754dd" /><circle cx="517.6" cy="304.4" r="4" fill="#9754dd" /><circle cx="540.6" cy="304.4" r="4" fill="#9754dd" /><circle cx="563.6" cy="304.4" r="4" fill="#9754dd" /><circle cx="586.7" cy="304.4" r="4" fill="#9754dd" /><circle cx="609.7" cy="304.4" r="4" fill="#9754dd" /><circle cx="632.7" cy="304.4" r="4" fill="#9754dd" /><circle cx="655.8" cy="304.4" r="4" fill="#9754dd" /><circle cx="678.8" cy="304.4" r="4" fill="#9754dd" /><circle cx="701.8" cy="304.4" r="4" fill="#9754dd" /><circle cx="724.8" cy="299.1" r="4" fill="#9754dd" /><circle cx="747.9" cy="299.1" r="4" fill="#9754dd" /><circle cx="770.9" cy="299.1" r="4" fill="#9754dd" /><circle cx="793.9" cy="298.9" r="4" fill="#9754dd" /><circle cx="817.0" cy="295.6" r="4" fill="#9754dd" /><circle cx="840.0" cy="295.6" r="4" fill="#9754dd" />
  <rect x="80" y="339" width="10" height="10" rx="2" ry="2" fill="#19e5a1" /><text x="96" y="348" class="legend-label">Stars</text><rect x="250" y="339" width="10" height="10" rx="2" ry="2" fill="#6eb6ec" /><text x="266" y="348" class="legend-label">Followers</text><rect x="420" y="339" width="10" height="10" rx="2" ry="2" fill="#5938e2" /><text x="436" y="348" class="legend-label">Following</text><rect x="590" y="339" width="10" height="10" rx="2" ry="2" fill="#60e5e0" /><text x="606" y="348" class="legend-label">Contributions</text><rect x="80" y="357" width="10" height="10" rx="2" ry="2" fill="#567de1" /><text x="96" y="366" class="legend-label">Pull Requests</text><rect x="250" y="357" width="10" height="10" rx="2" ry="2" fill="#9754dd" /><text x="266" y="366" class="legend-label">Issues</text>
</svg>
