<svg width="900" height="402" viewBox="0 0 900 402" xmlns="http://www.w3.org/2000/svg">
  <defs>
    <linearGradient id="history-gradient" x1="0%" y1="0%" x2="100%" y2="100%">
      <stop offset="0%" style="stop-color:#58a6ff;stop-opacity:1" />
      <stop offset="100%" style="stop-color:#a371f7;stop-opacity:1" />
    </linearGradient>
    <clipPath id="history-rounded">
      <rect x="0" y="0" width="900" height="402" rx="8" ry="8" />
    </clipPath>
  </defs>
  <style>
    .title {
      font-family: 'Segoe UI', Ubuntu, 'Helvetica Neue', sans-serif;
      font-size: 22px;
      font-weight: 700;
      fill: #58a6ff;
    }
    .subtitle {
      font-family: 'Segoe UI', Ubuntu, 'Helvetica Neue', sans-serif;
      font-size: 12px;
      font-weight: 500;
      fill: #8b949e;
    }
    .axis-label {
      font-family: 'Segoe UI', Ubuntu, 'Helvetica Neue', sans-serif;
      font-size: 10px;
      fill: #8b949e;
    }
    .grid-line {
      stroke: #30363d;
      stroke-width: 1;
      opacity: 0.3;
    }
    .legend-label {
      font-family: 'Segoe UI', Ubuntu, 'Helvetica Neue', sans-serif;
      font-size: 11px;
      fill: #c9d1d9;
      dominant-baseline: middle;
    }
  </style>
  <rect clip-path="url(#history-rounded)" width="100%" height="100%" fill="#0d1117" stroke="#30363d" stroke-width="1" />
  <rect x="0" y="396" width="900" height="6" fill="url(#history-gradient)" clip-path="url(#history-rounded)" />
  <text x="24" y="34" class="title">Leonardo Klein Stats History</text>
  <text x="24" y="54" class="subtitle">Period: 2026-02-20 to 2026-03-10</text>
  <text x="72" y="320.0" text-anchor="end" dominant-baseline="central" class="axis-label">0</text><text x="72" y="270.0" text-anchor="end" dominant-baseline="central" class="axis-label">400</text><text x="72" y="220.0" text-anchor="end" dominant-baseline="central" class="axis-label">800</text><text x="72" y="170.0" text-anchor="end" dominant-baseline="central" class="axis-label">1.2k</text><text x="72" y="120.0" text-anchor="end" dominant-baseline="central" class="axis-label">1.6k</text><text x="72" y="70.0" text-anchor="end" dominant-baseline="central" class="axis-label">2.0k</text>
  <text x="80.0" y="336" text-anchor="middle" class="axis-label">02-20</text><text x="154.3" y="336" text-anchor="middle" class="axis-label">02-22</text><text x="228.7" y="336" text-anchor="middle" class="axis-label">02-24</text><text x="303.0" y="336" text-anchor="middle" class="axis-label">02-25</text><text x="377.4" y="336" text-anchor="middle" class="axis-label">02-27</text><text x="451.7" y="336" text-anchor="middle" class="axis-label">03-01</text><text x="526.1" y="336" text-anchor="middle" class="axis-label">03-03</text><text x="600.4" y="336" text-anchor="middle" class="axis-label">03-05</text><text x="674.8" y="336" text-anchor="middle" class="axis-label">03-06</text><text x="749.1" y="336" text-anchor="middle" class="axis-label">03-08</text><text x="823.5" y="336" text-anchor="middle" class="axis-label">03-10</text><text x="840.0" y="336" text-anchor="middle" class="axis-label">03-10</text>
  <line x1="80" y1="320.0" x2="840" y2="320.0" class="grid-line" /><line x1="80" y1="270.0" x2="840" y2="270.0" class="grid-line" /><line x1="80" y1="220.0" x2="840" y2="220.0" class="grid-line" /><line x1="80" y1="170.0" x2="840" y2="170.0" class="grid-line" /><line x1="80" y1="120.0" x2="840" y2="120.0" class="grid-line" /><line x1="80" y1="70.0" x2="840" y2="70.0" class="grid-line" />
  <polyline points="80.0,317.0 88.3,317.0 96.5,317.0 104.8,317.0 113.0,317.0 121.3,317.0 129.6,317.0 137.8,317.0 146.1,317.0 154.3,317.0 162.6,317.0 170.9,317.0 179.1,317.0 187.4,317.0 195.7,317.0 203.9,317.0 212.2,317.0 220.4,317.0 228.7,317.0 237.0,317.0 245.2,317.0 253.5,317.0 261.7,317.0 270.0,317.0 278.3,317.0 286.5,317.0 294.8,317.0 303.0,317.0 311.3,317.0 319.6,317.0 327.8,317.0 336.1,317.0 344.3,317.0 352.6,317.0 360.9,317.0 369.1,317.0 377.4,317.0 385.7,317.0 393.9,317.0 402.2,317.0 410.4,317.0 418.7,317.0 427.0,317.0 435.2,317.0 443.5,317.0 451.7,317.0 460.0,317.0 468.3,317.0 476.5,317.0 484.8,317.0 493.0,317.0 501.3,317.0 509.6,317.0 517.8,317.0 526.1,317.0 534.3,317.0 542.6,317.0 550.9,317.0 559.1,317.0 567.4,317.0 575.7,317.0 583.9,317.0 592.2,317.0 600.4,317.0 608.7,317.0 617.0,317.0 625.2,317.0 633.5,317.0 641.7,317.0 650.0,317.0 658.3,317.0 666.5,317.0 674.8,317.0 683.0,317.0 691.3,317.0 699.6,317.0 707.8,317.0 716.1,317.0 724.3,317.0 732.6,317.0 740.9,317.0 749.1,317.0 757.4,317.0 765.7,317.0 773.9,317.0 782.2,317.0 790.4,317.0 798.7,317.0 807.0,317.0 815.2,317.0 823.5,317.0 831.7,317.0 840.0,317.0" fill="none" stroke="#19e5a1" stroke-width="2.5" stroke-linecap="round" stroke-linejoin="round" /><circle cx="80.0" cy="317.0" r="4" fill="#19e5a1" /><circle cx="88.3" cy="317.0" r="4" fill="#19e5a1" /><circle cx="96.5" cy="317.0" r="4" fill="#19e5a1" /><circle cx="104.8" cy="317.0" r="4" fill="#19e5a1" /><circle cx="113.0" cy="317.0" r="4" fill="#19e5a1" /><circle cx="121.3" cy="317.0" r="4" fill="#19e5a1" /><circle cx="129.6" cy="317.0" r="4" fill="#19e5a1" /><circle cx="137.8" cy="317.0" r="4" fill="#19e5a1" /><circle cx="146.1" cy="317.0" r="4" fill="#19e5a1" /><circle cx="154.3" cy="317.0" r="4" fill="#19e5a1" /><circle cx="162.6" cy="317.0" r="4" fill="#19e5a1" /><circle cx="170.9" cy="317.0" r="4" fill="#19e5a1" /><circle cx="179.1" cy="317.0" r="4" fill="#19e5a1" /><circle cx="187.4" cy="317.0" r="4" fill="#19e5a1" /><circle cx="195.7" cy="317.0" r="4" fill="#19e5a1" /><circle cx="203.9" cy="317.0" r="4" fill="#19e5a1" /><circle cx="212.2" cy="317.0" r="4" fill="#19e5a1" /><circle cx="220.4" cy="317.0" r="4" fill="#19e5a1" /><circle cx="228.7" cy="317.0" r="4" fill="#19e5a1" /><circle cx="237.0" cy="317.0" r="4" fill="#19e5a1" /><circle cx="245.2" cy="317.0" r="4" fill="#19e5a1" /><circle cx="253.5" cy="317.0" r="4" fill="#19e5a1" /><circle cx="261.7" cy="317.0" r="4" fill="#19e5a1" /><circle cx="270.0" cy="317.0" r="4" fill="#19e5a1" /><circle cx="278.3" cy="317.0" r="4" fill="#19e5a1" /><circle cx="286.5" cy="317.0" r="4" fill="#19e5a1" /><circle cx="294.8" cy="317.0" r="4" fill="#19e5a1" /><circle cx="303.0" cy="317.0" r="4" fill="#19e5a1" /><circle cx="311.3" cy="317.0" r="4" fill="#19e5a1" /><circle cx="319.6" cy="317.0" r="4" fill="#19e5a1" /><circle cx="327.8" cy="317.0" r="4" fill="#19e5a1" /><circle cx="336.1" cy="317.0" r="4" fill="#19e5a1" /><circle cx="344.3" cy="317.0" r="4" fill="#19e5a1" /><circle cx="352.6" cy="317.0" r="4" fill="#19e5a1" /><circle cx="360.9" cy="317.0" r="4" fill="#19e5a1" /><circle cx="369.1" cy="317.0" r="4" fill="#19e5a1" /><circle cx="377.4" cy="317.0" r="4" fill="#19e5a1" /><circle cx="385.7" cy="317.0" r="4" fill="#19e5a1" /><circle cx="393.9" cy="317.0" r="4" fill="#19e5a1" /><circle cx="402.2" cy="317.0" r="4" fill="#19e5a1" /><circle cx="410.4" cy="317.0" r="4" fill="#19e5a1" /><circle cx="418.7" cy="317.0" r="4" fill="#19e5a1" /><circle cx="427.0" cy="317.0" r="4" fill="#19e5a1" /><circle cx="435.2" cy="317.0" r="4" fill="#19e5a1" /><circle cx="443.5" cy="317.0" r="4" fill="#19e5a1" /><circle cx="451.7" cy="317.0" r="4" fill="#19e5a1" /><circle cx="460.0" cy="317.0" r="4" fill="#19e5a1" /><circle cx="468.3" cy="317.0" r="4" fill="#19e5a1" /><circle cx="476.5" cy="317.0" r="4" fill="#19e5a1" /><circle cx="484.8" cy="317.0" r="4" fill="#19e5a1" /><circle cx="493.0" cy="317.0" r="4" fill="#19e5a1" /><circle cx="501.3" cy="317.0" r="4" fill="#19e5a1" /><circle cx="509.6" cy="317.0" r="4" fill="#19e5a1" /><circle cx="517.8" cy="317.0" r="4" fill="#19e5a1" /><circle cx="526.1" cy="317.0" r="4" fill="#19e5a1" /><circle cx="534.3" cy="317.0" r="4" fill="#19e5a1" /><circle cx="542.6" cy="317.0" r="4" fill="#19e5a1" /><circle cx="550.9" cy="317.0" r="4" fill="#19e5a1" /><circle cx="559.1" cy="317.0" r="4" fill="#19e5a1" /><circle cx="567.4" cy="317.0" r="4" fill="#19e5a1" /><circle cx="575.7" cy="317.0" r="4" fill="#19e5a1" /><circle cx="583.9" cy="317.0" r="4" fill="#19e5a1" /><circle cx="592.2" cy="317.0" r="4" fill="#19e5a1" /><circle cx="600.4" cy="317.0" r="4" fill="#19e5a1" /><circle cx="608.7" cy="317.0" r="4" fill="#19e5a1" /><circle cx="617.0" cy="317.0" r="4" fill="#19e5a1" /><circle cx="625.2" cy="317.0" r="4" fill="#19e5a1" /><circle cx="633.5" cy="317.0" r="4" fill="#19e5a1" /><circle cx="641.7" cy="317.0" r="4" fill="#19e5a1" /><circle cx="650.0" cy="317.0" r="4" fill="#19e5a1" /><circle cx="658.3" cy="317.0" r="4" fill="#19e5a1" /><circle cx="666.5" cy="317.0" r="4" fill="#19e5a1" /><circle cx="674.8" cy="317.0" r="4" fill="#19e5a1" /><circle cx="683.0" cy="317.0" r="4" fill="#19e5a1" /><circle cx="691.3" cy="317.0" r="4" fill="#19e5a1" /><circle cx="699.6" cy="317.0" r="4" fill="#19e5a1" /><circle cx="707.8" cy="317.0" r="4" fill="#19e5a1" /><circle cx="716.1" cy="317.0" r="4" fill="#19e5a1" /><circle cx="724.3" cy="317.0" r="4" fill="#19e5a1" /><circle cx="732.6" cy="317.0" r="4" fill="#19e5a1" /><circle cx="740.9" cy="317.0" r="4" fill="#19e5a1" /><circle cx="749.1" cy="317.0" r="4" fill="#19e5a1" /><circle cx="757.4" cy="317.0" r="4" fill="#19e5a1" /><circle cx="765.7" cy="317.0" r="4" fill="#19e5a1" /><circle cx="773.9" cy="317.0" r="4" fill="#19e5a1" /><circle cx="782.2" cy="317.0" r="4" fill="#19e5a1" /><circle cx="790.4" cy="317.0" r="4" fill="#19e5a1" /><circle cx="798.7" cy="317.0" r="4" fill="#19e5a1" /><circle cx="807.0" cy="317.0" r="4" fill="#19e5a1" /><circle cx="815.2" cy="317.0" r="4" fill="#19e5a1" /><circle cx="823.5" cy="317.0" r="4" fill="#19e5a1" /><circle cx="831.7" cy="317.0" r="4" fill="#19e5a1" /><circle cx="840.0" cy="317.0" r="4" fill="#19e5a1" /><polyline points="80.0,313.2 88.3,312.2 96.5,312.1 104.8,312.4 113.0,312.4 121.3,312.4 129.6,312.1 137.8,312.0 146.1,311.9 154.3,311.9 162.6,311.8 170.9,311.8 179.1,311.5 187.4,311.5 195.7,311.5 203.9,311.2 212.2,311.2 220.4,311.1 228.7,311.1 237.0,311.1 245.2,310.9 253.5,311.0 261.7,310.8 270.0,310.8 278.3,310.8 286.5,310.8 294.8,310.4 303.0,310.2 311.3,310.4 319.6,310.4 327.8,310.4 336.1,310.4 344.3,310.4 352.6,310.2 360.9,310.2 369.1,310.1 377.4,310.1 385.7,309.8 393.9,309.6 402.2,309.6 410.4,309.6 418.7,309.6 427.0,309.5 435.2,309.4 443.5,309.4 451.7,309.4 460.0,309.4 468.3,309.2 476.5,309.2 484.8,309.2 493.0,309.4 501.3,309.4 509.6,309.5 517.8,309.2 526.1,309.2 534.3,309.4 542.6,309.2 550.9,309.2 559.1,309.2 567.4,309.2 575.7,309.2 583.9,309.1 592.2,309.1 600.4,309.1 608.7,309.1 617.0,309.0 625.2,309.0 633.5,308.9 641.7,308.9 650.0,308.9 658.3,308.6 666.5,308.6 674.8,308.6 683.0,308.6 691.3,308.6 699.6,308.6 707.8,308.6 716.1,308.6 724.3,308.6 732.6,308.6 740.9,308.6 749.1,308.6 757.4,308.6 765.7,307.8 773.9,307.8 782.2,307.6 790.4,307.6 798.7,307.6 807.0,307.5 815.2,307.5 823.5,307.6 831.7,308.5 840.0,308.5" fill="none" stroke="#6eb6ec" stroke-width="2.5" stroke-linecap="round" stroke-linejoin="round" /><circle cx="80.0" cy="313.2" r="4" fill="#6eb6ec" /><circle cx="88.3" cy="312.2" r="4" fill="#6eb6ec" /><circle cx="96.5" cy="312.1" r="4" fill="#6eb6ec" /><circle cx="104.8" cy="312.4" r="4" fill="#6eb6ec" /><circle cx="113.0" cy="312.4" r="4" fill="#6eb6ec" /><circle cx="121.3" cy="312.4" r="4" fill="#6eb6ec" /><circle cx="129.6" cy="312.1" r="4" fill="#6eb6ec" /><circle cx="137.8" cy="312.0" r="4" fill="#6eb6ec" /><circle cx="146.1" cy="311.9" r="4" fill="#6eb6ec" /><circle cx="154.3" cy="311.9" r="4" fill="#6eb6ec" /><circle cx="162.6" cy="311.8" r="4" fill="#6eb6ec" /><circle cx="170.9" cy="311.8" r="4" fill="#6eb6ec" /><circle cx="179.1" cy="311.5" r="4" fill="#6eb6ec" /><circle cx="187.4" cy="311.5" r="4" fill="#6eb6ec" /><circle cx="195.7" cy="311.5" r="4" fill="#6eb6ec" /><circle cx="203.9" cy="311.2" r="4" fill="#6eb6ec" /><circle cx="212.2" cy="311.2" r="4" fill="#6eb6ec" /><circle cx="220.4" cy="311.1" r="4" fill="#6eb6ec" /><circle cx="228.7" cy="311.1" r="4" fill="#6eb6ec" /><circle cx="237.0" cy="311.1" r="4" fill="#6eb6ec" /><circle cx="245.2" cy="310.9" r="4" fill="#6eb6ec" /><circle cx="253.5" cy="311.0" r="4" fill="#6eb6ec" /><circle cx="261.7" cy="310.8" r="4" fill="#6eb6ec" /><circle cx="270.0" cy="310.8" r="4" fill="#6eb6ec" /><circle cx="278.3" cy="310.8" r="4" fill="#6eb6ec" /><circle cx="286.5" cy="310.8" r="4" fill="#6eb6ec" /><circle cx="294.8" cy="310.4" r="4" fill="#6eb6ec" /><circle cx="303.0" cy="310.2" r="4" fill="#6eb6ec" /><circle cx="311.3" cy="310.4" r="4" fill="#6eb6ec" /><circle cx="319.6" cy="310.4" r="4" fill="#6eb6ec" /><circle cx="327.8" cy="310.4" r="4" fill="#6eb6ec" /><circle cx="336.1" cy="310.4" r="4" fill="#6eb6ec" /><circle cx="344.3" cy="310.4" r="4" fill="#6eb6ec" /><circle cx="352.6" cy="310.2" r="4" fill="#6eb6ec" /><circle cx="360.9" cy="310.2" r="4" fill="#6eb6ec" /><circle cx="369.1" cy="310.1" r="4" fill="#6eb6ec" /><circle cx="377.4" cy="310.1" r="4" fill="#6eb6ec" /><circle cx="385.7" cy="309.8" r="4" fill="#6eb6ec" /><circle cx="393.9" cy="309.6" r="4" fill="#6eb6ec" /><circle cx="402.2" cy="309.6" r="4" fill="#6eb6ec" /><circle cx="410.4" cy="309.6" r="4" fill="#6eb6ec" /><circle cx="418.7" cy="309.6" r="4" fill="#6eb6ec" /><circle cx="427.0" cy="309.5" r="4" fill="#6eb6ec" /><circle cx="435.2" cy="309.4" r="4" fill="#6eb6ec" /><circle cx="443.5" cy="309.4" r="4" fill="#6eb6ec" /><circle cx="451.7" cy="309.4" r="4" fill="#6eb6ec" /><circle cx="460.0" cy="309.4" r="4" fill="#6eb6ec" /><circle cx="468.3" cy="309.2" r="4" fill="#6eb6ec" /><circle cx="476.5" cy="309.2" r="4" fill="#6eb6ec" /><circle cx="484.8" cy="309.2" r="4" fill="#6eb6ec" /><circle cx="493.0" cy="309.4" r="4" fill="#6eb6ec" /><circle cx="501.3" cy="309.4" r="4" fill="#6eb6ec" /><circle cx="509.6" cy="309.5" r="4" fill="#6eb6ec" /><circle cx="517.8" cy="309.2" r="4" fill="#6eb6ec" /><circle cx="526.1" cy="309.2" r="4" fill="#6eb6ec" /><circle cx="534.3" cy="309.4" r="4" fill="#6eb6ec" /><circle cx="542.6" cy="309.2" r="4" fill="#6eb6ec" /><circle cx="550.9" cy="309.2" r="4" fill="#6eb6ec" /><circle cx="559.1" cy="309.2" r="4" fill="#6eb6ec" /><circle cx="567.4" cy="309.2" r="4" fill="#6eb6ec" /><circle cx="575.7" cy="309.2" r="4" fill="#6eb6ec" /><circle cx="583.9" cy="309.1" r="4" fill="#6eb6ec" /><circle cx="592.2" cy="309.1" r="4" fill="#6eb6ec" /><circle cx="600.4" cy="309.1" r="4" fill="#6eb6ec" /><circle cx="608.7" cy="309.1" r="4" fill="#6eb6ec" /><circle cx="617.0" cy="309.0" r="4" fill="#6eb6ec" /><circle cx="625.2" cy="309.0" r="4" fill="#6eb6ec" /><circle cx="633.5" cy="308.9" r="4" fill="#6eb6ec" /><circle cx="641.7" cy="308.9" r="4" fill="#6eb6ec" /><circle cx="650.0" cy="308.9" r="4" fill="#6eb6ec" /><circle cx="658.3" cy="308.6" r="4" fill="#6eb6ec" /><circle cx="666.5" cy="308.6" r="4" fill="#6eb6ec" /><circle cx="674.8" cy="308.6" r="4" fill="#6eb6ec" /><circle cx="683.0" cy="308.6" r="4" fill="#6eb6ec" /><circle cx="691.3" cy="308.6" r="4" fill="#6eb6ec" /><circle cx="699.6" cy="308.6" r="4" fill="#6eb6ec" /><circle cx="707.8" cy="308.6" r="4" fill="#6eb6ec" /><circle cx="716.1" cy="308.6" r="4" fill="#6eb6ec" /><circle cx="724.3" cy="308.6" r="4" fill="#6eb6ec" /><circle cx="732.6" cy="308.6" r="4" fill="#6eb6ec" /><circle cx="740.9" cy="308.6" r="4" fill="#6eb6ec" /><circle cx="749.1" cy="308.6" r="4" fill="#6eb6ec" /><circle cx="757.4" cy="308.6" r="4" fill="#6eb6ec" /><circle cx="765.7" cy="307.8" r="4" fill="#6eb6ec" /><circle cx="773.9" cy="307.8" r="4" fill="#6eb6ec" /><circle cx="782.2" cy="307.6" r="4" fill="#6eb6ec" /><circle cx="790.4" cy="307.6" r="4" fill="#6eb6ec" /><circle cx="798.7" cy="307.6" r="4" fill="#6eb6ec" /><circle cx="807.0" cy="307.5" r="4" fill="#6eb6ec" /><circle cx="815.2" cy="307.5" r="4" fill="#6eb6ec" /><circle cx="823.5" cy="307.6" r="4" fill="#6eb6ec" /><circle cx="831.7" cy="308.5" r="4" fill="#6eb6ec" /><circle cx="840.0" cy="308.5" r="4" fill="#6eb6ec" /><polyline points="80.0,305.8 88.3,305.8 96.5,305.8 104.8,305.8 113.0,305.8 121.3,305.8 129.6,305.8 137.8,305.8 146.1,305.8 154.3,305.8 162.6,304.9 170.9,304.9 179.1,304.9 187.4,304.9 195.7,304.9 203.9,304.9 212.2,304.9 220.4,304.9 228.7,304.9 237.0,304.9 245.2,304.9 253.5,304.9 261.7,304.9 270.0,304.9 278.3,304.9 286.5,304.9 294.8,304.9 303.0,304.9 311.3,304.9 319.6,304.9 327.8,304.9 336.1,304.9 344.3,304.9 352.6,304.9 360.9,304.9 369.1,304.9 377.4,304.9 385.7,303.6 393.9,303.6 402.2,303.6 410.4,303.6 418.7,303.6 427.0,303.6 435.2,303.6 443.5,303.6 451.7,303.6 460.0,303.6 468.3,303.6 476.5,303.6 484.8,303.6 493.0,303.6 501.3,302.9 509.6,302.9 517.8,298.0 526.1,298.0 534.3,298.0 542.6,298.0 550.9,298.0 559.1,298.0 567.4,298.0 575.7,298.0 583.9,298.0 592.2,298.0 600.4,298.0 608.7,298.0 617.0,298.0 625.2,298.0 633.5,297.8 641.7,297.8 650.0,297.8 658.3,297.8 666.5,297.8 674.8,297.8 683.0,297.8 691.3,297.8 699.6,297.8 707.8,297.8 716.1,297.8 724.3,297.8 732.6,297.8 740.9,297.8 749.1,297.8 757.4,297.8 765.7,297.8 773.9,297.8 782.2,297.8 790.4,297.6 798.7,297.8 807.0,297.8 815.2,297.8 823.5,297.9 831.7,297.9 840.0,297.9" fill="none" stroke="#5938e2" stroke-width="2.5" stroke-linecap="round" stroke-linejoin="round" /><circle cx="80.0" cy="305.8" r="4" fill="#5938e2" /><circle cx="88.3" cy="305.8" r="4" fill="#5938e2" /><circle cx="96.5" cy="305.8" r="4" fill="#5938e2" /><circle cx="104.8" cy="305.8" r="4" fill="#5938e2" /><circle cx="113.0" cy="305.8" r="4" fill="#5938e2" /><circle cx="121.3" cy="305.8" r="4" fill="#5938e2" /><circle cx="129.6" cy="305.8" r="4" fill="#5938e2" /><circle cx="137.8" cy="305.8" r="4" fill="#5938e2" /><circle cx="146.1" cy="305.8" r="4" fill="#5938e2" /><circle cx="154.3" cy="305.8" r="4" fill="#5938e2" /><circle cx="162.6" cy="304.9" r="4" fill="#5938e2" /><circle cx="170.9" cy="304.9" r="4" fill="#5938e2" /><circle cx="179.1" cy="304.9" r="4" fill="#5938e2" /><circle cx="187.4" cy="304.9" r="4" fill="#5938e2" /><circle cx="195.7" cy="304.9" r="4" fill="#5938e2" /><circle cx="203.9" cy="304.9" r="4" fill="#5938e2" /><circle cx="212.2" cy="304.9" r="4" fill="#5938e2" /><circle cx="220.4" cy="304.9" r="4" fill="#5938e2" /><circle cx="228.7" cy="304.9" r="4" fill="#5938e2" /><circle cx="237.0" cy="304.9" r="4" fill="#5938e2" /><circle cx="245.2" cy="304.9" r="4" fill="#5938e2" /><circle cx="253.5" cy="304.9" r="4" fill="#5938e2" /><circle cx="261.7" cy="304.9" r="4" fill="#5938e2" /><circle cx="270.0" cy="304.9" r="4" fill="#5938e2" /><circle cx="278.3" cy="304.9" r="4" fill="#5938e2" /><circle cx="286.5" cy="304.9" r="4" fill="#5938e2" /><circle cx="294.8" cy="304.9" r="4" fill="#5938e2" /><circle cx="303.0" cy="304.9" r="4" fill="#5938e2" /><circle cx="311.3" cy="304.9" r="4" fill="#5938e2" /><circle cx="319.6" cy="304.9" r="4" fill="#5938e2" /><circle cx="327.8" cy="304.9" r="4" fill="#5938e2" /><circle cx="336.1" cy="304.9" r="4" fill="#5938e2" /><circle cx="344.3" cy="304.9" r="4" fill="#5938e2" /><circle cx="352.6" cy="304.9" r="4" fill="#5938e2" /><circle cx="360.9" cy="304.9" r="4" fill="#5938e2" /><circle cx="369.1" cy="304.9" r="4" fill="#5938e2" /><circle cx="377.4" cy="304.9" r="4" fill="#5938e2" /><circle cx="385.7" cy="303.6" r="4" fill="#5938e2" /><circle cx="393.9" cy="303.6" r="4" fill="#5938e2" /><circle cx="402.2" cy="303.6" r="4" fill="#5938e2" /><circle cx="410.4" cy="303.6" r="4" fill="#5938e2" /><circle cx="418.7" cy="303.6" r="4" fill="#5938e2" /><circle cx="427.0" cy="303.6" r="4" fill="#5938e2" /><circle cx="435.2" cy="303.6" r="4" fill="#5938e2" /><circle cx="443.5" cy="303.6" r="4" fill="#5938e2" /><circle cx="451.7" cy="303.6" r="4" fill="#5938e2" /><circle cx="460.0" cy="303.6" r="4" fill="#5938e2" /><circle cx="468.3" cy="303.6" r="4" fill="#5938e2" /><circle cx="476.5" cy="303.6" r="4" fill="#5938e2" /><circle cx="484.8" cy="303.6" r="4" fill="#5938e2" /><circle cx="493.0" cy="303.6" r="4" fill="#5938e2" /><circle cx="501.3" cy="302.9" r="4" fill="#5938e2" /><circle cx="509.6" cy="302.9" r="4" fill="#5938e2" /><circle cx="517.8" cy="298.0" r="4" fill="#5938e2" /><circle cx="526.1" cy="298.0" r="4" fill="#5938e2" /><circle cx="534.3" cy="298.0" r="4" fill="#5938e2" /><circle cx="542.6" cy="298.0" r="4" fill="#5938e2" /><circle cx="550.9" cy="298.0" r="4" fill="#5938e2" /><circle cx="559.1" cy="298.0" r="4" fill="#5938e2" /><circle cx="567.4" cy="298.0" r="4" fill="#5938e2" /><circle cx="575.7" cy="298.0" r="4" fill="#5938e2" /><circle cx="583.9" cy="298.0" r="4" fill="#5938e2" /><circle cx="592.2" cy="298.0" r="4" fill="#5938e2" /><circle cx="600.4" cy="298.0" r="4" fill="#5938e2" /><circle cx="608.7" cy="298.0" r="4" fill="#5938e2" /><circle cx="617.0" cy="298.0" r="4" fill="#5938e2" /><circle cx="625.2" cy="298.0" r="4" fill="#5938e2" /><circle cx="633.5" cy="297.8" r="4" fill="#5938e2" /><circle cx="641.7" cy="297.8" r="4" fill="#5938e2" /><circle cx="650.0" cy="297.8" r="4" fill="#5938e2" /><circle cx="658.3" cy="297.8" r="4" fill="#5938e2" /><circle cx="666.5" cy="297.8" r="4" fill="#5938e2" /><circle cx="674.8" cy="297.8" r="4" fill="#5938e2" /><circle cx="683.0" cy="297.8" r="4" fill="#5938e2" /><circle cx="691.3" cy="297.8" r="4" fill="#5938e2" /><circle cx="699.6" cy="297.8" r="4" fill="#5938e2" /><circle cx="707.8" cy="297.8" r="4" fill="#5938e2" /><circle cx="716.1" cy="297.8" r="4" fill="#5938e2" /><circle cx="724.3" cy="297.8" r="4" fill="#5938e2" /><circle cx="732.6" cy="297.8" r="4" fill="#5938e2" /><circle cx="740.9" cy="297.8" r="4" fill="#5938e2" /><circle cx="749.1" cy="297.8" r="4" fill="#5938e2" /><circle cx="757.4" cy="297.8" r="4" fill="#5938e2" /><circle cx="765.7" cy="297.8" r="4" fill="#5938e2" /><circle cx="773.9" cy="297.8" r="4" fill="#5938e2" /><circle cx="782.2" cy="297.8" r="4" fill="#5938e2" /><circle cx="790.4" cy="297.6" r="4" fill="#5938e2" /><circle cx="798.7" cy="297.8" r="4" fill="#5938e2" /><circle cx="807.0" cy="297.8" r="4" fill="#5938e2" /><circle cx="815.2" cy="297.8" r="4" fill="#5938e2" /><circle cx="823.5" cy="297.9" r="4" fill="#5938e2" /><circle cx="831.7" cy="297.9" r="4" fill="#5938e2" /><circle cx="840.0" cy="297.9" r="4" fill="#5938e2" /><polyline points="80.0,144.6 88.3,140.1 96.5,139.9 104.8,139.8 113.0,139.8 121.3,139.6 129.6,139.6 137.8,139.6 146.1,139.6 154.3,139.6 162.6,138.4 170.9,138.4 179.1,138.4 187.4,138.4 195.7,138.4 203.9,138.4 212.2,138.4 220.4,137.4 228.7,137.4 237.0,137.4 245.2,137.4 253.5,137.4 261.7,137.4 270.0,137.4 278.3,137.4 286.5,137.4 294.8,137.4 303.0,137.4 311.3,131.2 319.6,131.2 327.8,130.8 336.1,130.4 344.3,126.9 352.6,126.9 360.9,126.9 369.1,126.9 377.4,126.9 385.7,126.9 393.9,126.9 402.2,126.9 410.4,126.9 418.7,126.8 427.0,122.1 435.2,120.4 443.5,120.4 451.7,120.4 460.0,120.4 468.3,120.4 476.5,119.4 484.8,119.4 493.0,119.4 501.3,119.4 509.6,119.1 517.8,118.8 526.1,118.8 534.3,117.8 542.6,117.8 550.9,117.8 559.1,115.8 567.4,115.8 575.7,115.0 583.9,115.0 592.2,115.0 600.4,115.0 608.7,115.0 617.0,115.0 625.2,115.0 633.5,113.9 641.7,111.8 650.0,111.8 658.3,111.8 666.5,111.8 674.8,111.8 683.0,111.8 691.3,111.8 699.6,111.8 707.8,111.8 716.1,111.8 724.3,110.6 732.6,110.6 740.9,110.6 749.1,110.6 757.4,110.6 765.7,109.4 773.9,109.4 782.2,109.4 790.4,109.4 798.7,109.2 807.0,109.2 815.2,109.2 823.5,109.2 831.7,109.2 840.0,109.2" fill="none" stroke="#60e5e0" stroke-width="2.5" stroke-linecap="round" stroke-linejoin="round" /><circle cx="80.0" cy="144.6" r="4" fill="#60e5e0" /><circle cx="88.3" cy="140.1" r="4" fill="#60e5e0" /><circle cx="96.5" cy="139.9" r="4" fill="#60e5e0" /><circle cx="104.8" cy="139.8" r="4" fill="#60e5e0" /><circle cx="113.0" cy="139.8" r="4" fill="#60e5e0" /><circle cx="121.3" cy="139.6" r="4" fill="#60e5e0" /><circle cx="129.6" cy="139.6" r="4" fill="#60e5e0" /><circle cx="137.8" cy="139.6" r="4" fill="#60e5e0" /><circle cx="146.1" cy="139.6" r="4" fill="#60e5e0" /><circle cx="154.3" cy="139.6" r="4" fill="#60e5e0" /><circle cx="162.6" cy="138.4" r="4" fill="#60e5e0" /><circle cx="170.9" cy="138.4" r="4" fill="#60e5e0" /><circle cx="179.1" cy="138.4" r="4" fill="#60e5e0" /><circle cx="187.4" cy="138.4" r="4" fill="#60e5e0" /><circle cx="195.7" cy="138.4" r="4" fill="#60e5e0" /><circle cx="203.9" cy="138.4" r="4" fill="#60e5e0" /><circle cx="212.2" cy="138.4" r="4" fill="#60e5e0" /><circle cx="220.4" cy="137.4" r="4" fill="#60e5e0" /><circle cx="228.7" cy="137.4" r="4" fill="#60e5e0" /><circle cx="237.0" cy="137.4" r="4" fill="#60e5e0" /><circle cx="245.2" cy="137.4" r="4" fill="#60e5e0" /><circle cx="253.5" cy="137.4" r="4" fill="#60e5e0" /><circle cx="261.7" cy="137.4" r="4" fill="#60e5e0" /><circle cx="270.0" cy="137.4" r="4" fill="#60e5e0" /><circle cx="278.3" cy="137.4" r="4" fill="#60e5e0" /><circle cx="286.5" cy="137.4" r="4" fill="#60e5e0" /><circle cx="294.8" cy="137.4" r="4" fill="#60e5e0" /><circle cx="303.0" cy="137.4" r="4" fill="#60e5e0" /><circle cx="311.3" cy="131.2" r="4" fill="#60e5e0" /><circle cx="319.6" cy="131.2" r="4" fill="#60e5e0" /><circle cx="327.8" cy="130.8" r="4" fill="#60e5e0" /><circle cx="336.1" cy="130.4" r="4" fill="#60e5e0" /><circle cx="344.3" cy="126.9" r="4" fill="#60e5e0" /><circle cx="352.6" cy="126.9" r="4" fill="#60e5e0" /><circle cx="360.9" cy="126.9" r="4" fill="#60e5e0" /><circle cx="369.1" cy="126.9" r="4" fill="#60e5e0" /><circle cx="377.4" cy="126.9" r="4" fill="#60e5e0" /><circle cx="385.7" cy="126.9" r="4" fill="#60e5e0" /><circle cx="393.9" cy="126.9" r="4" fill="#60e5e0" /><circle cx="402.2" cy="126.9" r="4" fill="#60e5e0" /><circle cx="410.4" cy="126.9" r="4" fill="#60e5e0" /><circle cx="418.7" cy="126.8" r="4" fill="#60e5e0" /><circle cx="427.0" cy="122.1" r="4" fill="#60e5e0" /><circle cx="435.2" cy="120.4" r="4" fill="#60e5e0" /><circle cx="443.5" cy="120.4" r="4" fill="#60e5e0" /><circle cx="451.7" cy="120.4" r="4" fill="#60e5e0" /><circle cx="460.0" cy="120.4" r="4" fill="#60e5e0" /><circle cx="468.3" cy="120.4" r="4" fill="#60e5e0" /><circle cx="476.5" cy="119.4" r="4" fill="#60e5e0" /><circle cx="484.8" cy="119.4" r="4" fill="#60e5e0" /><circle cx="493.0" cy="119.4" r="4" fill="#60e5e0" /><circle cx="501.3" cy="119.4" r="4" fill="#60e5e0" /><circle cx="509.6" cy="119.1" r="4" fill="#60e5e0" /><circle cx="517.8" cy="118.8" r="4" fill="#60e5e0" /><circle cx="526.1" cy="118.8" r="4" fill="#60e5e0" /><circle cx="534.3" cy="117.8" r="4" fill="#60e5e0" /><circle cx="542.6" cy="117.8" r="4" fill="#60e5e0" /><circle cx="550.9" cy="117.8" r="4" fill="#60e5e0" /><circle cx="559.1" cy="115.8" r="4" fill="#60e5e0" /><circle cx="567.4" cy="115.8" r="4" fill="#60e5e0" /><circle cx="575.7" cy="115.0" r="4" fill="#60e5e0" /><circle cx="583.9" cy="115.0" r="4" fill="#60e5e0" /><circle cx="592.2" cy="115.0" r="4" fill="#60e5e0" /><circle cx="600.4" cy="115.0" r="4" fill="#60e5e0" /><circle cx="608.7" cy="115.0" r="4" fill="#60e5e0" /><circle cx="617.0" cy="115.0" r="4" fill="#60e5e0" /><circle cx="625.2" cy="115.0" r="4" fill="#60e5e0" /><circle cx="633.5" cy="113.9" r="4" fill="#60e5e0" /><circle cx="641.7" cy="111.8" r="4" fill="#60e5e0" /><circle cx="650.0" cy="111.8" r="4" fill="#60e5e0" /><circle cx="658.3" cy="111.8" r="4" fill="#60e5e0" /><circle cx="666.5" cy="111.8" r="4" fill="#60e5e0" /><circle cx="674.8" cy="111.8" r="4" fill="#60e5e0" /><circle cx="683.0" cy="111.8" r="4" fill="#60e5e0" /><circle cx="691.3" cy="111.8" r="4" fill="#60e5e0" /><circle cx="699.6" cy="111.8" r="4" fill="#60e5e0" /><circle cx="707.8" cy="111.8" r="4" fill="#60e5e0" /><circle cx="716.1" cy="111.8" r="4" fill="#60e5e0" /><circle cx="724.3" cy="110.6" r="4" fill="#60e5e0" /><circle cx="732.6" cy="110.6" r="4" fill="#60e5e0" /><circle cx="740.9" cy="110.6" r="4" fill="#60e5e0" /><circle cx="749.1" cy="110.6" r="4" fill="#60e5e0" /><circle cx="757.4" cy="110.6" r="4" fill="#60e5e0" /><circle cx="765.7" cy="109.4" r="4" fill="#60e5e0" /><circle cx="773.9" cy="109.4" r="4" fill="#60e5e0" /><circle cx="782.2" cy="109.4" r="4" fill="#60e5e0" /><circle cx="790.4" cy="109.4" r="4" fill="#60e5e0" /><circle cx="798.7" cy="109.2" r="4" fill="#60e5e0" /><circle cx="807.0" cy="109.2" r="4" fill="#60e5e0" /><circle cx="815.2" cy="109.2" r="4" fill="#60e5e0" /><circle cx="823.5" cy="109.2" r="4" fill="#60e5e0" /><circle cx="831.7" cy="109.2" r="4" fill="#60e5e0" /><circle cx="840.0" cy="109.2" r="4" fill="#60e5e0" /><polyline points="80.0,314.6 88.3,314.4 96.5,314.2 104.8,314.2 113.0,314.2 121.3,314.1 129.6,314.1 137.8,314.1 146.1,314.1 154.3,314.1 162.6,314.0 170.9,314.0 179.1,314.0 187.4,314.0 195.7,314.0 203.9,314.0 212.2,314.0 220.4,314.0 228.7,314.0 237.0,314.0 245.2,314.0 253.5,314.0 261.7,314.0 270.0,314.0 278.3,314.0 286.5,314.0 294.8,314.0 303.0,314.0 311.3,314.0 319.6,314.0 327.8,314.0 336.1,314.0 344.3,314.0 352.6,314.0 360.9,314.0 369.1,314.0 377.4,314.0 385.7,314.0 393.9,314.0 402.2,314.0 410.4,314.0 418.7,313.9 427.0,313.6 435.2,313.4 443.5,313.4 451.7,313.4 460.0,313.4 468.3,313.4 476.5,313.1 484.8,313.1 493.0,313.1 501.3,313.1 509.6,313.1 517.8,313.0 526.1,313.0 534.3,312.9 542.6,312.9 550.9,312.9 559.1,312.8 567.4,312.8 575.7,312.6 583.9,312.6 592.2,312.6 600.4,312.6 608.7,312.6 617.0,312.6 625.2,312.6 633.5,312.5 641.7,312.1 650.0,312.1 658.3,312.1 666.5,312.1 674.8,312.1 683.0,312.1 691.3,312.1 699.6,312.1 707.8,312.1 716.1,312.1 724.3,312.0 732.6,312.0 740.9,312.0 749.1,312.0 757.4,312.0 765.7,312.0 773.9,312.0 782.2,312.0 790.4,312.0 798.7,312.0 807.0,312.0 815.2,312.0 823.5,312.0 831.7,312.0 840.0,312.0" fill="none" stroke="#567de1" stroke-width="2.5" stroke-linecap="round" stroke-linejoin="round" /><circle cx="80.0" cy="314.6" r="4" fill="#567de1" /><circle cx="88.3" cy="314.4" r="4" fill="#567de1" /><circle cx="96.5" cy="314.2" r="4" fill="#567de1" /><circle cx="104.8" cy="314.2" r="4" fill="#567de1" /><circle cx="113.0" cy="314.2" r="4" fill="#567de1" /><circle cx="121.3" cy="314.1" r="4" fill="#567de1" /><circle cx="129.6" cy="314.1" r="4" fill="#567de1" /><circle cx="137.8" cy="314.1" r="4" fill="#567de1" /><circle cx="146.1" cy="314.1" r="4" fill="#567de1" /><circle cx="154.3" cy="314.1" r="4" fill="#567de1" /><circle cx="162.6" cy="314.0" r="4" fill="#567de1" /><circle cx="170.9" cy="314.0" r="4" fill="#567de1" /><circle cx="179.1" cy="314.0" r="4" fill="#567de1" /><circle cx="187.4" cy="314.0" r="4" fill="#567de1" /><circle cx="195.7" cy="314.0" r="4" fill="#567de1" /><circle cx="203.9" cy="314.0" r="4" fill="#567de1" /><circle cx="212.2" cy="314.0" r="4" fill="#567de1" /><circle cx="220.4" cy="314.0" r="4" fill="#567de1" /><circle cx="228.7" cy="314.0" r="4" fill="#567de1" /><circle cx="237.0" cy="314.0" r="4" fill="#567de1" /><circle cx="245.2" cy="314.0" r="4" fill="#567de1" /><circle cx="253.5" cy="314.0" r="4" fill="#567de1" /><circle cx="261.7" cy="314.0" r="4" fill="#567de1" /><circle cx="270.0" cy="314.0" r="4" fill="#567de1" /><circle cx="278.3" cy="314.0" r="4" fill="#567de1" /><circle cx="286.5" cy="314.0" r="4" fill="#567de1" /><circle cx="294.8" cy="314.0" r="4" fill="#567de1" /><circle cx="303.0" cy="314.0" r="4" fill="#567de1" /><circle cx="311.3" cy="314.0" r="4" fill="#567de1" /><circle cx="319.6" cy="314.0" r="4" fill="#567de1" /><circle cx="327.8" cy="314.0" r="4" fill="#567de1" /><circle cx="336.1" cy="314.0" r="4" fill="#567de1" /><circle cx="344.3" cy="314.0" r="4" fill="#567de1" /><circle cx="352.6" cy="314.0" r="4" fill="#567de1" /><circle cx="360.9" cy="314.0" r="4" fill="#567de1" /><circle cx="369.1" cy="314.0" r="4" fill="#567de1" /><circle cx="377.4" cy="314.0" r="4" fill="#567de1" /><circle cx="385.7" cy="314.0" r="4" fill="#567de1" /><circle cx="393.9" cy="314.0" r="4" fill="#567de1" /><circle cx="402.2" cy="314.0" r="4" fill="#567de1" /><circle cx="410.4" cy="314.0" r="4" fill="#567de1" /><circle cx="418.7" cy="313.9" r="4" fill="#567de1" /><circle cx="427.0" cy="313.6" r="4" fill="#567de1" /><circle cx="435.2" cy="313.4" r="4" fill="#567de1" /><circle cx="443.5" cy="313.4" r="4" fill="#567de1" /><circle cx="451.7" cy="313.4" r="4" fill="#567de1" /><circle cx="460.0" cy="313.4" r="4" fill="#567de1" /><circle cx="468.3" cy="313.4" r="4" fill="#567de1" /><circle cx="476.5" cy="313.1" r="4" fill="#567de1" /><circle cx="484.8" cy="313.1" r="4" fill="#567de1" /><circle cx="493.0" cy="313.1" r="4" fill="#567de1" /><circle cx="501.3" cy="313.1" r="4" fill="#567de1" /><circle cx="509.6" cy="313.1" r="4" fill="#567de1" /><circle cx="517.8" cy="313.0" r="4" fill="#567de1" /><circle cx="526.1" cy="313.0" r="4" fill="#567de1" /><circle cx="534.3" cy="312.9" r="4" fill="#567de1" /><circle cx="542.6" cy="312.9" r="4" fill="#567de1" /><circle cx="550.9" cy="312.9" r="4" fill="#567de1" /><circle cx="559.1" cy="312.8" r="4" fill="#567de1" /><circle cx="567.4" cy="312.8" r="4" fill="#567de1" /><circle cx="575.7" cy="312.6" r="4" fill="#567de1" /><circle cx="583.9" cy="312.6" r="4" fill="#567de1" /><circle cx="592.2" cy="312.6" r="4" fill="#567de1" /><circle cx="600.4" cy="312.6" r="4" fill="#567de1" /><circle cx="608.7" cy="312.6" r="4" fill="#567de1" /><circle cx="617.0" cy="312.6" r="4" fill="#567de1" /><circle cx="625.2" cy="312.6" r="4" fill="#567de1" /><circle cx="633.5" cy="312.5" r="4" fill="#567de1" /><circle cx="641.7" cy="312.1" r="4" fill="#567de1" /><circle cx="650.0" cy="312.1" r="4" fill="#567de1" /><circle cx="658.3" cy="312.1" r="4" fill="#567de1" /><circle cx="666.5" cy="312.1" r="4" fill="#567de1" /><circle cx="674.8" cy="312.1" r="4" fill="#567de1" /><circle cx="683.0" cy="312.1" r="4" fill="#567de1" /><circle cx="691.3" cy="312.1" r="4" fill="#567de1" /><circle cx="699.6" cy="312.1" r="4" fill="#567de1" /><circle cx="707.8" cy="312.1" r="4" fill="#567de1" /><circle cx="716.1" cy="312.1" r="4" fill="#567de1" /><circle cx="724.3" cy="312.0" r="4" fill="#567de1" /><circle cx="732.6" cy="312.0" r="4" fill="#567de1" /><circle cx="740.9" cy="312.0" r="4" fill="#567de1" /><circle cx="749.1" cy="312.0" r="4" fill="#567de1" /><circle cx="757.4" cy="312.0" r="4" fill="#567de1" /><circle cx="765.7" cy="312.0" r="4" fill="#567de1" /><circle cx="773.9" cy="312.0" r="4" fill="#567de1" /><circle cx="782.2" cy="312.0" r="4" fill="#567de1" /><circle cx="790.4" cy="312.0" r="4" fill="#567de1" /><circle cx="798.7" cy="312.0" r="4" fill="#567de1" /><circle cx="807.0" cy="312.0" r="4" fill="#567de1" /><circle cx="815.2" cy="312.0" r="4" fill="#567de1" /><circle cx="823.5" cy="312.0" r="4" fill="#567de1" /><circle cx="831.7" cy="312.0" r="4" fill="#567de1" /><circle cx="840.0" cy="312.0" r="4" fill="#567de1" /><polyline points="80.0,303.9 88.3,304.2 96.5,304.4 104.8,304.4 113.0,304.4 121.3,304.4 129.6,304.4 137.8,304.4 146.1,304.4 154.3,304.4 162.6,304.4 170.9,304.4 179.1,304.4 187.4,304.4 195.7,304.4 203.9,304.4 212.2,304.4 220.4,304.4 228.7,304.4 237.0,304.4 245.2,304.4 253.5,304.4 261.7,304.4 270.0,304.4 278.3,304.4 286.5,304.4 294.8,304.4 303.0,304.4 311.3,299.1 319.6,299.1 327.8,299.1 336.1,298.9 344.3,295.6 352.6,295.6 360.9,295.6 369.1,295.6 377.4,295.6 385.7,295.6 393.9,295.6 402.2,295.6 410.4,295.6 418.7,295.8 427.0,295.9 435.2,295.9 443.5,295.9 451.7,295.9 460.0,295.9 468.3,295.9 476.5,295.9 484.8,295.9 493.0,295.9 501.3,295.9 509.6,295.9 517.8,295.9 526.1,295.9 534.3,295.9 542.6,295.9 550.9,295.9 559.1,295.8 567.4,295.8 575.7,295.9 583.9,295.9 592.2,295.9 600.4,295.9 608.7,295.9 617.0,295.9 625.2,295.9 633.5,296.0 641.7,296.4 650.0,296.4 658.3,296.4 666.5,296.4 674.8,296.4 683.0,296.4 691.3,296.4 699.6,296.4 707.8,296.4 716.1,296.4 724.3,296.5 732.6,296.5 740.9,296.5 749.1,296.5 757.4,296.5 765.7,296.5 773.9,296.5 782.2,296.5 790.4,296.5 798.7,296.5 807.0,296.5 815.2,296.5 823.5,296.5 831.7,296.5 840.0,296.5" fill="none" stroke="#9754dd" stroke-width="2.5" stroke-linecap="round" stroke-linejoin="round" /><circle cx="80.0" cy="303.9" r="4" fill="#9754dd" /><circle cx="88.3" cy="304.2" r="4" fill="#9754dd" /><circle cx="96.5" cy="304.4" r="4" fill="#9754dd" /><circle cx="104.8" cy="304.4" r="4" fill="#9754dd" /><circle cx="113.0" cy="304.4" r="4" fill="#9754dd" /><circle cx="121.3" cy="304.4" r="4" fill="#9754dd" /><circle cx="129.6" cy="304.4" r="4" fill="#9754dd" /><circle cx="137.8" cy="304.4" r="4" fill="#9754dd" /><circle cx="146.1" cy="304.4" r="4" fill="#9754dd" /><circle cx="154.3" cy="304.4" r="4" fill="#9754dd" /><circle cx="162.6" cy="304.4" r="4" fill="#9754dd" /><circle cx="170.9" cy="304.4" r="4" fill="#9754dd" /><circle cx="179.1" cy="304.4" r="4" fill="#9754dd" /><circle cx="187.4" cy="304.4" r="4" fill="#9754dd" /><circle cx="195.7" cy="304.4" r="4" fill="#9754dd" /><circle cx="203.9" cy="304.4" r="4" fill="#9754dd" /><circle cx="212.2" cy="304.4" r="4" fill="#9754dd" /><circle cx="220.4" cy="304.4" r="4" fill="#9754dd" /><circle cx="228.7" cy="304.4" r="4" fill="#9754dd" /><circle cx="237.0" cy="304.4" r="4" fill="#9754dd" /><circle cx="245.2" cy="304.4" r="4" fill="#9754dd" /><circle cx="253.5" cy="304.4" r="4" fill="#9754dd" /><circle cx="261.7" cy="304.4" r="4" fill="#9754dd" /><circle cx="270.0" cy="304.4" r="4" fill="#9754dd" /><circle cx="278.3" cy="304.4" r="4" fill="#9754dd" /><circle cx="286.5" cy="304.4" r="4" fill="#9754dd" /><circle cx="294.8" cy="304.4" r="4" fill="#9754dd" /><circle cx="303.0" cy="304.4" r="4" fill="#9754dd" /><circle cx="311.3" cy="299.1" r="4" fill="#9754dd" /><circle cx="319.6" cy="299.1" r="4" fill="#9754dd" /><circle cx="327.8" cy="299.1" r="4" fill="#9754dd" /><circle cx="336.1" cy="298.9" r="4" fill="#9754dd" /><circle cx="344.3" cy="295.6" r="4" fill="#9754dd" /><circle cx="352.6" cy="295.6" r="4" fill="#9754dd" /><circle cx="360.9" cy="295.6" r="4" fill="#9754dd" /><circle cx="369.1" cy="295.6" r="4" fill="#9754dd" /><circle cx="377.4" cy="295.6" r="4" fill="#9754dd" /><circle cx="385.7" cy="295.6" r="4" fill="#9754dd" /><circle cx="393.9" cy="295.6" r="4" fill="#9754dd" /><circle cx="402.2" cy="295.6" r="4" fill="#9754dd" /><circle cx="410.4" cy="295.6" r="4" fill="#9754dd" /><circle cx="418.7" cy="295.8" r="4" fill="#9754dd" /><circle cx="427.0" cy="295.9" r="4" fill="#9754dd" /><circle cx="435.2" cy="295.9" r="4" fill="#9754dd" /><circle cx="443.5" cy="295.9" r="4" fill="#9754dd" /><circle cx="451.7" cy="295.9" r="4" fill="#9754dd" /><circle cx="460.0" cy="295.9" r="4" fill="#9754dd" /><circle cx="468.3" cy="295.9" r="4" fill="#9754dd" /><circle cx="476.5" cy="295.9" r="4" fill="#9754dd" /><circle cx="484.8" cy="295.9" r="4" fill="#9754dd" /><circle cx="493.0" cy="295.9" r="4" fill="#9754dd" /><circle cx="501.3" cy="295.9" r="4" fill="#9754dd" /><circle cx="509.6" cy="295.9" r="4" fill="#9754dd" /><circle cx="517.8" cy="295.9" r="4" fill="#9754dd" /><circle cx="526.1" cy="295.9" r="4" fill="#9754dd" /><circle cx="534.3" cy="295.9" r="4" fill="#9754dd" /><circle cx="542.6" cy="295.9" r="4" fill="#9754dd" /><circle cx="550.9" cy="295.9" r="4" fill="#9754dd" /><circle cx="559.1" cy="295.8" r="4" fill="#9754dd" /><circle cx="567.4" cy="295.8" r="4" fill="#9754dd" /><circle cx="575.7" cy="295.9" r="4" fill="#9754dd" /><circle cx="583.9" cy="295.9" r="4" fill="#9754dd" /><circle cx="592.2" cy="295.9" r="4" fill="#9754dd" /><circle cx="600.4" cy="295.9" r="4" fill="#9754dd" /><circle cx="608.7" cy="295.9" r="4" fill="#9754dd" /><circle cx="617.0" cy="295.9" r="4" fill="#9754dd" /><circle cx="625.2" cy="295.9" r="4" fill="#9754dd" /><circle cx="633.5" cy="296.0" r="4" fill="#9754dd" /><circle cx="641.7" cy="296.4" r="4" fill="#9754dd" /><circle cx="650.0" cy="296.4" r="4" fill="#9754dd" /><circle cx="658.3" cy="296.4" r="4" fill="#9754dd" /><circle cx="666.5" cy="296.4" r="4" fill="#9754dd" /><circle cx="674.8" cy="296.4" r="4" fill="#9754dd" /><circle cx="683.0" cy="296.4" r="4" fill="#9754dd" /><circle cx="691.3" cy="296.4" r="4" fill="#9754dd" /><circle cx="699.6" cy="296.4" r="4" fill="#9754dd" /><circle cx="707.8" cy="296.4" r="4" fill="#9754dd" /><circle cx="716.1" cy="296.4" r="4" fill="#9754dd" /><circle cx="724.3" cy="296.5" r="4" fill="#9754dd" /><circle cx="732.6" cy="296.5" r="4" fill="#9754dd" /><circle cx="740.9" cy="296.5" r="4" fill="#9754dd" /><circle cx="749.1" cy="296.5" r="4" fill="#9754dd" /><circle cx="757.4" cy="296.5" r="4" fill="#9754dd" /><circle cx="765.7" cy="296.5" r="4" fill="#9754dd" /><circle cx="773.9" cy="296.5" r="4" fill="#9754dd" /><circle cx="782.2" cy="296.5" r="4" fill="#9754dd" /><circle cx="790.4" cy="296.5" r="4" fill="#9754dd" /><circle cx="798.7" cy="296.5" r="4" fill="#9754dd" /><circle cx="807.0" cy="296.5" r="4" fill="#9754dd" /><circle cx="815.2" cy="296.5" r="4" fill="#9754dd" /><circle cx="823.5" cy="296.5" r="4" fill="#9754dd" /><circle cx="831.7" cy="296.5" r="4" fill="#9754dd" /><circle cx="840.0" cy="296.5" r="4" fill="#9754dd" />
  <rect x="80" y="339" width="10" height="10" rx="2" ry="2" fill="#19e5a1" /><text x="96" y="348" class="legend-label">Stars</text><rect x="250" y="339" width="10" height="10" rx="2" ry="2" fill="#6eb6ec" /><text x="266" y="348" class="legend-label">Followers</text><rect x="420" y="339" width="10" height="10" rx="2" ry="2" fill="#5938e2" /><text x="436" y="348" class="legend-label">Following</text><rect x="590" y="339" width="10" height="10" rx="2" ry="2" fill="#60e5e0" /><text x="606" y="348" class="legend-label">Contributions</text><rect x="80" y="357" width="10" height="10" rx="2" ry="2" fill="#567de1" /><text x="96" y="366" class="legend-label">Pull Requests</text><rect x="250" y="357" width="10" height="10" rx="2" ry="2" fill="#9754dd" /><text x="266" y="366" class="legend-label">Issues</text>
</svg>
