<svg width="900" height="402" viewBox="0 0 900 402" xmlns="http://www.w3.org/2000/svg">
  <defs>
    <linearGradient id="history-gradient" x1="0%" y1="0%" x2="100%" y2="100%">
      <stop offset="0%" style="stop-color:#58a6ff;stop-opacity:1" />
      <stop offset="100%" style="stop-color:#a371f7;stop-opacity:1" />
    </linearGradient>
    <clipPath id="history-rounded">
      <rect x="0" y="0" width="900" height="402" rx="8" ry="8" />
    </clipPath>
  </defs>
  <style>
    .title {
      font-family: 'Segoe UI', Ubuntu, 'Helvetica Neue', sans-serif;
      font-size: 22px;
      font-weight: 700;
      fill: #58a6ff;
    }
    .subtitle {
      font-family: 'Segoe UI', Ubuntu, 'Helvetica Neue', sans-serif;
      font-size: 12px;
      font-weight: 500;
      fill: #8b949e;
    }
    .axis-label {
      font-family: 'Segoe UI', Ubuntu, 'Helvetica Neue', sans-serif;
      font-size: 10px;
      fill: #8b949e;
    }
    .grid-line {
      stroke: #30363d;
      stroke-width: 1;
      opacity: 0.3;
    }
    .legend-label {
      font-family: 'Segoe UI', Ubuntu, 'Helvetica Neue', sans-serif;
      font-size: 11px;
      fill: #c9d1d9;
      dominant-baseline: middle;
    }
  </style>
  <rect clip-path="url(#history-rounded)" width="100%" height="100%" fill="#0d1117" stroke="#30363d" stroke-width="1" />
  <rect x="0" y="396" width="900" height="6" fill="url(#history-gradient)" clip-path="url(#history-rounded)" />
  <text x="24" y="34" class="title">Leonardo Klein Stats History</text>
  <text x="24" y="54" class="subtitle">Period: 2026-02-20 to 2026-03-08</text>
  <text x="72" y="320.0" text-anchor="end" dominant-baseline="central" class="axis-label">0</text><text x="72" y="270.0" text-anchor="end" dominant-baseline="central" class="axis-label">400</text><text x="72" y="220.0" text-anchor="end" dominant-baseline="central" class="axis-label">800</text><text x="72" y="170.0" text-anchor="end" dominant-baseline="central" class="axis-label">1.2k</text><text x="72" y="120.0" text-anchor="end" dominant-baseline="central" class="axis-label">1.6k</text><text x="72" y="70.0" text-anchor="end" dominant-baseline="central" class="axis-label">2.0k</text>
  <text x="80.0" y="336" text-anchor="middle" class="axis-label">02-20</text><text x="154.1" y="336" text-anchor="middle" class="axis-label">02-22</text><text x="228.3" y="336" text-anchor="middle" class="axis-label">02-23</text><text x="302.4" y="336" text-anchor="middle" class="axis-label">02-25</text><text x="376.6" y="336" text-anchor="middle" class="axis-label">02-26</text><text x="450.7" y="336" text-anchor="middle" class="axis-label">02-28</text><text x="524.9" y="336" text-anchor="middle" class="axis-label">03-02</text><text x="599.0" y="336" text-anchor="middle" class="axis-label">03-03</text><text x="673.2" y="336" text-anchor="middle" class="axis-label">03-05</text><text x="747.3" y="336" text-anchor="middle" class="axis-label">03-06</text><text x="821.5" y="336" text-anchor="middle" class="axis-label">03-08</text><text x="840.0" y="336" text-anchor="middle" class="axis-label">03-08</text>
  <line x1="80" y1="320.0" x2="840" y2="320.0" class="grid-line" /><line x1="80" y1="270.0" x2="840" y2="270.0" class="grid-line" /><line x1="80" y1="220.0" x2="840" y2="220.0" class="grid-line" /><line x1="80" y1="170.0" x2="840" y2="170.0" class="grid-line" /><line x1="80" y1="120.0" x2="840" y2="120.0" class="grid-line" /><line x1="80" y1="70.0" x2="840" y2="70.0" class="grid-line" />
  <polyline points="80.0,317.0 89.3,317.0 98.5,317.0 107.8,317.0 117.1,317.0 126.3,317.0 135.6,317.0 144.9,317.0 154.1,317.0 163.4,317.0 172.7,317.0 182.0,317.0 191.2,317.0 200.5,317.0 209.8,317.0 219.0,317.0 228.3,317.0 237.6,317.0 246.8,317.0 256.1,317.0 265.4,317.0 274.6,317.0 283.9,317.0 293.2,317.0 302.4,317.0 311.7,317.0 321.0,317.0 330.2,317.0 339.5,317.0 348.8,317.0 358.0,317.0 367.3,317.0 376.6,317.0 385.9,317.0 395.1,317.0 404.4,317.0 413.7,317.0 422.9,317.0 432.2,317.0 441.5,317.0 450.7,317.0 460.0,317.0 469.3,317.0 478.5,317.0 487.8,317.0 497.1,317.0 506.3,317.0 515.6,317.0 524.9,317.0 534.1,317.0 543.4,317.0 552.7,317.0 562.0,317.0 571.2,317.0 580.5,317.0 589.8,317.0 599.0,317.0 608.3,317.0 617.6,317.0 626.8,317.0 636.1,317.0 645.4,317.0 654.6,317.0 663.9,317.0 673.2,317.0 682.4,317.0 691.7,317.0 701.0,317.0 710.2,317.0 719.5,317.0 728.8,317.0 738.0,317.0 747.3,317.0 756.6,317.0 765.9,317.0 775.1,317.0 784.4,317.0 793.7,317.0 802.9,317.0 812.2,317.0 821.5,317.0 830.7,317.0 840.0,317.0" fill="none" stroke="#19e5a1" stroke-width="2.5" stroke-linecap="round" stroke-linejoin="round" /><circle cx="80.0" cy="317.0" r="4" fill="#19e5a1" /><circle cx="89.3" cy="317.0" r="4" fill="#19e5a1" /><circle cx="98.5" cy="317.0" r="4" fill="#19e5a1" /><circle cx="107.8" cy="317.0" r="4" fill="#19e5a1" /><circle cx="117.1" cy="317.0" r="4" fill="#19e5a1" /><circle cx="126.3" cy="317.0" r="4" fill="#19e5a1" /><circle cx="135.6" cy="317.0" r="4" fill="#19e5a1" /><circle cx="144.9" cy="317.0" r="4" fill="#19e5a1" /><circle cx="154.1" cy="317.0" r="4" fill="#19e5a1" /><circle cx="163.4" cy="317.0" r="4" fill="#19e5a1" /><circle cx="172.7" cy="317.0" r="4" fill="#19e5a1" /><circle cx="182.0" cy="317.0" r="4" fill="#19e5a1" /><circle cx="191.2" cy="317.0" r="4" fill="#19e5a1" /><circle cx="200.5" cy="317.0" r="4" fill="#19e5a1" /><circle cx="209.8" cy="317.0" r="4" fill="#19e5a1" /><circle cx="219.0" cy="317.0" r="4" fill="#19e5a1" /><circle cx="228.3" cy="317.0" r="4" fill="#19e5a1" /><circle cx="237.6" cy="317.0" r="4" fill="#19e5a1" /><circle cx="246.8" cy="317.0" r="4" fill="#19e5a1" /><circle cx="256.1" cy="317.0" r="4" fill="#19e5a1" /><circle cx="265.4" cy="317.0" r="4" fill="#19e5a1" /><circle cx="274.6" cy="317.0" r="4" fill="#19e5a1" /><circle cx="283.9" cy="317.0" r="4" fill="#19e5a1" /><circle cx="293.2" cy="317.0" r="4" fill="#19e5a1" /><circle cx="302.4" cy="317.0" r="4" fill="#19e5a1" /><circle cx="311.7" cy="317.0" r="4" fill="#19e5a1" /><circle cx="321.0" cy="317.0" r="4" fill="#19e5a1" /><circle cx="330.2" cy="317.0" r="4" fill="#19e5a1" /><circle cx="339.5" cy="317.0" r="4" fill="#19e5a1" /><circle cx="348.8" cy="317.0" r="4" fill="#19e5a1" /><circle cx="358.0" cy="317.0" r="4" fill="#19e5a1" /><circle cx="367.3" cy="317.0" r="4" fill="#19e5a1" /><circle cx="376.6" cy="317.0" r="4" fill="#19e5a1" /><circle cx="385.9" cy="317.0" r="4" fill="#19e5a1" /><circle cx="395.1" cy="317.0" r="4" fill="#19e5a1" /><circle cx="404.4" cy="317.0" r="4" fill="#19e5a1" /><circle cx="413.7" cy="317.0" r="4" fill="#19e5a1" /><circle cx="422.9" cy="317.0" r="4" fill="#19e5a1" /><circle cx="432.2" cy="317.0" r="4" fill="#19e5a1" /><circle cx="441.5" cy="317.0" r="4" fill="#19e5a1" /><circle cx="450.7" cy="317.0" r="4" fill="#19e5a1" /><circle cx="460.0" cy="317.0" r="4" fill="#19e5a1" /><circle cx="469.3" cy="317.0" r="4" fill="#19e5a1" /><circle cx="478.5" cy="317.0" r="4" fill="#19e5a1" /><circle cx="487.8" cy="317.0" r="4" fill="#19e5a1" /><circle cx="497.1" cy="317.0" r="4" fill="#19e5a1" /><circle cx="506.3" cy="317.0" r="4" fill="#19e5a1" /><circle cx="515.6" cy="317.0" r="4" fill="#19e5a1" /><circle cx="524.9" cy="317.0" r="4" fill="#19e5a1" /><circle cx="534.1" cy="317.0" r="4" fill="#19e5a1" /><circle cx="543.4" cy="317.0" r="4" fill="#19e5a1" /><circle cx="552.7" cy="317.0" r="4" fill="#19e5a1" /><circle cx="562.0" cy="317.0" r="4" fill="#19e5a1" /><circle cx="571.2" cy="317.0" r="4" fill="#19e5a1" /><circle cx="580.5" cy="317.0" r="4" fill="#19e5a1" /><circle cx="589.8" cy="317.0" r="4" fill="#19e5a1" /><circle cx="599.0" cy="317.0" r="4" fill="#19e5a1" /><circle cx="608.3" cy="317.0" r="4" fill="#19e5a1" /><circle cx="617.6" cy="317.0" r="4" fill="#19e5a1" /><circle cx="626.8" cy="317.0" r="4" fill="#19e5a1" /><circle cx="636.1" cy="317.0" r="4" fill="#19e5a1" /><circle cx="645.4" cy="317.0" r="4" fill="#19e5a1" /><circle cx="654.6" cy="317.0" r="4" fill="#19e5a1" /><circle cx="663.9" cy="317.0" r="4" fill="#19e5a1" /><circle cx="673.2" cy="317.0" r="4" fill="#19e5a1" /><circle cx="682.4" cy="317.0" r="4" fill="#19e5a1" /><circle cx="691.7" cy="317.0" r="4" fill="#19e5a1" /><circle cx="701.0" cy="317.0" r="4" fill="#19e5a1" /><circle cx="710.2" cy="317.0" r="4" fill="#19e5a1" /><circle cx="719.5" cy="317.0" r="4" fill="#19e5a1" /><circle cx="728.8" cy="317.0" r="4" fill="#19e5a1" /><circle cx="738.0" cy="317.0" r="4" fill="#19e5a1" /><circle cx="747.3" cy="317.0" r="4" fill="#19e5a1" /><circle cx="756.6" cy="317.0" r="4" fill="#19e5a1" /><circle cx="765.9" cy="317.0" r="4" fill="#19e5a1" /><circle cx="775.1" cy="317.0" r="4" fill="#19e5a1" /><circle cx="784.4" cy="317.0" r="4" fill="#19e5a1" /><circle cx="793.7" cy="317.0" r="4" fill="#19e5a1" /><circle cx="802.9" cy="317.0" r="4" fill="#19e5a1" /><circle cx="812.2" cy="317.0" r="4" fill="#19e5a1" /><circle cx="821.5" cy="317.0" r="4" fill="#19e5a1" /><circle cx="830.7" cy="317.0" r="4" fill="#19e5a1" /><circle cx="840.0" cy="317.0" r="4" fill="#19e5a1" /><polyline points="80.0,313.2 89.3,312.2 98.5,312.1 107.8,312.4 117.1,312.4 126.3,312.4 135.6,312.1 144.9,312.0 154.1,311.9 163.4,311.9 172.7,311.8 182.0,311.8 191.2,311.5 200.5,311.5 209.8,311.5 219.0,311.2 228.3,311.2 237.6,311.1 246.8,311.1 256.1,311.1 265.4,310.9 274.6,311.0 283.9,310.8 293.2,310.8 302.4,310.8 311.7,310.8 321.0,310.4 330.2,310.2 339.5,310.4 348.8,310.4 358.0,310.4 367.3,310.4 376.6,310.4 385.9,310.2 395.1,310.2 404.4,310.1 413.7,310.1 422.9,309.8 432.2,309.6 441.5,309.6 450.7,309.6 460.0,309.6 469.3,309.5 478.5,309.4 487.8,309.4 497.1,309.4 506.3,309.4 515.6,309.2 524.9,309.2 534.1,309.2 543.4,309.4 552.7,309.4 562.0,309.5 571.2,309.2 580.5,309.2 589.8,309.4 599.0,309.2 608.3,309.2 617.6,309.2 626.8,309.2 636.1,309.2 645.4,309.1 654.6,309.1 663.9,309.1 673.2,309.1 682.4,309.0 691.7,309.0 701.0,308.9 710.2,308.9 719.5,308.9 728.8,308.6 738.0,308.6 747.3,308.6 756.6,308.6 765.9,308.6 775.1,308.6 784.4,308.6 793.7,308.6 802.9,308.6 812.2,308.6 821.5,308.6 830.7,308.6 840.0,308.6" fill="none" stroke="#6eb6ec" stroke-width="2.5" stroke-linecap="round" stroke-linejoin="round" /><circle cx="80.0" cy="313.2" r="4" fill="#6eb6ec" /><circle cx="89.3" cy="312.2" r="4" fill="#6eb6ec" /><circle cx="98.5" cy="312.1" r="4" fill="#6eb6ec" /><circle cx="107.8" cy="312.4" r="4" fill="#6eb6ec" /><circle cx="117.1" cy="312.4" r="4" fill="#6eb6ec" /><circle cx="126.3" cy="312.4" r="4" fill="#6eb6ec" /><circle cx="135.6" cy="312.1" r="4" fill="#6eb6ec" /><circle cx="144.9" cy="312.0" r="4" fill="#6eb6ec" /><circle cx="154.1" cy="311.9" r="4" fill="#6eb6ec" /><circle cx="163.4" cy="311.9" r="4" fill="#6eb6ec" /><circle cx="172.7" cy="311.8" r="4" fill="#6eb6ec" /><circle cx="182.0" cy="311.8" r="4" fill="#6eb6ec" /><circle cx="191.2" cy="311.5" r="4" fill="#6eb6ec" /><circle cx="200.5" cy="311.5" r="4" fill="#6eb6ec" /><circle cx="209.8" cy="311.5" r="4" fill="#6eb6ec" /><circle cx="219.0" cy="311.2" r="4" fill="#6eb6ec" /><circle cx="228.3" cy="311.2" r="4" fill="#6eb6ec" /><circle cx="237.6" cy="311.1" r="4" fill="#6eb6ec" /><circle cx="246.8" cy="311.1" r="4" fill="#6eb6ec" /><circle cx="256.1" cy="311.1" r="4" fill="#6eb6ec" /><circle cx="265.4" cy="310.9" r="4" fill="#6eb6ec" /><circle cx="274.6" cy="311.0" r="4" fill="#6eb6ec" /><circle cx="283.9" cy="310.8" r="4" fill="#6eb6ec" /><circle cx="293.2" cy="310.8" r="4" fill="#6eb6ec" /><circle cx="302.4" cy="310.8" r="4" fill="#6eb6ec" /><circle cx="311.7" cy="310.8" r="4" fill="#6eb6ec" /><circle cx="321.0" cy="310.4" r="4" fill="#6eb6ec" /><circle cx="330.2" cy="310.2" r="4" fill="#6eb6ec" /><circle cx="339.5" cy="310.4" r="4" fill="#6eb6ec" /><circle cx="348.8" cy="310.4" r="4" fill="#6eb6ec" /><circle cx="358.0" cy="310.4" r="4" fill="#6eb6ec" /><circle cx="367.3" cy="310.4" r="4" fill="#6eb6ec" /><circle cx="376.6" cy="310.4" r="4" fill="#6eb6ec" /><circle cx="385.9" cy="310.2" r="4" fill="#6eb6ec" /><circle cx="395.1" cy="310.2" r="4" fill="#6eb6ec" /><circle cx="404.4" cy="310.1" r="4" fill="#6eb6ec" /><circle cx="413.7" cy="310.1" r="4" fill="#6eb6ec" /><circle cx="422.9" cy="309.8" r="4" fill="#6eb6ec" /><circle cx="432.2" cy="309.6" r="4" fill="#6eb6ec" /><circle cx="441.5" cy="309.6" r="4" fill="#6eb6ec" /><circle cx="450.7" cy="309.6" r="4" fill="#6eb6ec" /><circle cx="460.0" cy="309.6" r="4" fill="#6eb6ec" /><circle cx="469.3" cy="309.5" r="4" fill="#6eb6ec" /><circle cx="478.5" cy="309.4" r="4" fill="#6eb6ec" /><circle cx="487.8" cy="309.4" r="4" fill="#6eb6ec" /><circle cx="497.1" cy="309.4" r="4" fill="#6eb6ec" /><circle cx="506.3" cy="309.4" r="4" fill="#6eb6ec" /><circle cx="515.6" cy="309.2" r="4" fill="#6eb6ec" /><circle cx="524.9" cy="309.2" r="4" fill="#6eb6ec" /><circle cx="534.1" cy="309.2" r="4" fill="#6eb6ec" /><circle cx="543.4" cy="309.4" r="4" fill="#6eb6ec" /><circle cx="552.7" cy="309.4" r="4" fill="#6eb6ec" /><circle cx="562.0" cy="309.5" r="4" fill="#6eb6ec" /><circle cx="571.2" cy="309.2" r="4" fill="#6eb6ec" /><circle cx="580.5" cy="309.2" r="4" fill="#6eb6ec" /><circle cx="589.8" cy="309.4" r="4" fill="#6eb6ec" /><circle cx="599.0" cy="309.2" r="4" fill="#6eb6ec" /><circle cx="608.3" cy="309.2" r="4" fill="#6eb6ec" /><circle cx="617.6" cy="309.2" r="4" fill="#6eb6ec" /><circle cx="626.8" cy="309.2" r="4" fill="#6eb6ec" /><circle cx="636.1" cy="309.2" r="4" fill="#6eb6ec" /><circle cx="645.4" cy="309.1" r="4" fill="#6eb6ec" /><circle cx="654.6" cy="309.1" r="4" fill="#6eb6ec" /><circle cx="663.9" cy="309.1" r="4" fill="#6eb6ec" /><circle cx="673.2" cy="309.1" r="4" fill="#6eb6ec" /><circle cx="682.4" cy="309.0" r="4" fill="#6eb6ec" /><circle cx="691.7" cy="309.0" r="4" fill="#6eb6ec" /><circle cx="701.0" cy="308.9" r="4" fill="#6eb6ec" /><circle cx="710.2" cy="308.9" r="4" fill="#6eb6ec" /><circle cx="719.5" cy="308.9" r="4" fill="#6eb6ec" /><circle cx="728.8" cy="308.6" r="4" fill="#6eb6ec" /><circle cx="738.0" cy="308.6" r="4" fill="#6eb6ec" /><circle cx="747.3" cy="308.6" r="4" fill="#6eb6ec" /><circle cx="756.6" cy="308.6" r="4" fill="#6eb6ec" /><circle cx="765.9" cy="308.6" r="4" fill="#6eb6ec" /><circle cx="775.1" cy="308.6" r="4" fill="#6eb6ec" /><circle cx="784.4" cy="308.6" r="4" fill="#6eb6ec" /><circle cx="793.7" cy="308.6" r="4" fill="#6eb6ec" /><circle cx="802.9" cy="308.6" r="4" fill="#6eb6ec" /><circle cx="812.2" cy="308.6" r="4" fill="#6eb6ec" /><circle cx="821.5" cy="308.6" r="4" fill="#6eb6ec" /><circle cx="830.7" cy="308.6" r="4" fill="#6eb6ec" /><circle cx="840.0" cy="308.6" r="4" fill="#6eb6ec" /><polyline points="80.0,305.8 89.3,305.8 98.5,305.8 107.8,305.8 117.1,305.8 126.3,305.8 135.6,305.8 144.9,305.8 154.1,305.8 163.4,305.8 172.7,304.9 182.0,304.9 191.2,304.9 200.5,304.9 209.8,304.9 219.0,304.9 228.3,304.9 237.6,304.9 246.8,304.9 256.1,304.9 265.4,304.9 274.6,304.9 283.9,304.9 293.2,304.9 302.4,304.9 311.7,304.9 321.0,304.9 330.2,304.9 339.5,304.9 348.8,304.9 358.0,304.9 367.3,304.9 376.6,304.9 385.9,304.9 395.1,304.9 404.4,304.9 413.7,304.9 422.9,303.6 432.2,303.6 441.5,303.6 450.7,303.6 460.0,303.6 469.3,303.6 478.5,303.6 487.8,303.6 497.1,303.6 506.3,303.6 515.6,303.6 524.9,303.6 534.1,303.6 543.4,303.6 552.7,302.9 562.0,302.9 571.2,298.0 580.5,298.0 589.8,298.0 599.0,298.0 608.3,298.0 617.6,298.0 626.8,298.0 636.1,298.0 645.4,298.0 654.6,298.0 663.9,298.0 673.2,298.0 682.4,298.0 691.7,298.0 701.0,297.8 710.2,297.8 719.5,297.8 728.8,297.8 738.0,297.8 747.3,297.8 756.6,297.8 765.9,297.8 775.1,297.8 784.4,297.8 793.7,297.8 802.9,297.8 812.2,297.8 821.5,297.8 830.7,297.8 840.0,297.8" fill="none" stroke="#5938e2" stroke-width="2.5" stroke-linecap="round" stroke-linejoin="round" /><circle cx="80.0" cy="305.8" r="4" fill="#5938e2" /><circle cx="89.3" cy="305.8" r="4" fill="#5938e2" /><circle cx="98.5" cy="305.8" r="4" fill="#5938e2" /><circle cx="107.8" cy="305.8" r="4" fill="#5938e2" /><circle cx="117.1" cy="305.8" r="4" fill="#5938e2" /><circle cx="126.3" cy="305.8" r="4" fill="#5938e2" /><circle cx="135.6" cy="305.8" r="4" fill="#5938e2" /><circle cx="144.9" cy="305.8" r="4" fill="#5938e2" /><circle cx="154.1" cy="305.8" r="4" fill="#5938e2" /><circle cx="163.4" cy="305.8" r="4" fill="#5938e2" /><circle cx="172.7" cy="304.9" r="4" fill="#5938e2" /><circle cx="182.0" cy="304.9" r="4" fill="#5938e2" /><circle cx="191.2" cy="304.9" r="4" fill="#5938e2" /><circle cx="200.5" cy="304.9" r="4" fill="#5938e2" /><circle cx="209.8" cy="304.9" r="4" fill="#5938e2" /><circle cx="219.0" cy="304.9" r="4" fill="#5938e2" /><circle cx="228.3" cy="304.9" r="4" fill="#5938e2" /><circle cx="237.6" cy="304.9" r="4" fill="#5938e2" /><circle cx="246.8" cy="304.9" r="4" fill="#5938e2" /><circle cx="256.1" cy="304.9" r="4" fill="#5938e2" /><circle cx="265.4" cy="304.9" r="4" fill="#5938e2" /><circle cx="274.6" cy="304.9" r="4" fill="#5938e2" /><circle cx="283.9" cy="304.9" r="4" fill="#5938e2" /><circle cx="293.2" cy="304.9" r="4" fill="#5938e2" /><circle cx="302.4" cy="304.9" r="4" fill="#5938e2" /><circle cx="311.7" cy="304.9" r="4" fill="#5938e2" /><circle cx="321.0" cy="304.9" r="4" fill="#5938e2" /><circle cx="330.2" cy="304.9" r="4" fill="#5938e2" /><circle cx="339.5" cy="304.9" r="4" fill="#5938e2" /><circle cx="348.8" cy="304.9" r="4" fill="#5938e2" /><circle cx="358.0" cy="304.9" r="4" fill="#5938e2" /><circle cx="367.3" cy="304.9" r="4" fill="#5938e2" /><circle cx="376.6" cy="304.9" r="4" fill="#5938e2" /><circle cx="385.9" cy="304.9" r="4" fill="#5938e2" /><circle cx="395.1" cy="304.9" r="4" fill="#5938e2" /><circle cx="404.4" cy="304.9" r="4" fill="#5938e2" /><circle cx="413.7" cy="304.9" r="4" fill="#5938e2" /><circle cx="422.9" cy="303.6" r="4" fill="#5938e2" /><circle cx="432.2" cy="303.6" r="4" fill="#5938e2" /><circle cx="441.5" cy="303.6" r="4" fill="#5938e2" /><circle cx="450.7" cy="303.6" r="4" fill="#5938e2" /><circle cx="460.0" cy="303.6" r="4" fill="#5938e2" /><circle cx="469.3" cy="303.6" r="4" fill="#5938e2" /><circle cx="478.5" cy="303.6" r="4" fill="#5938e2" /><circle cx="487.8" cy="303.6" r="4" fill="#5938e2" /><circle cx="497.1" cy="303.6" r="4" fill="#5938e2" /><circle cx="506.3" cy="303.6" r="4" fill="#5938e2" /><circle cx="515.6" cy="303.6" r="4" fill="#5938e2" /><circle cx="524.9" cy="303.6" r="4" fill="#5938e2" /><circle cx="534.1" cy="303.6" r="4" fill="#5938e2" /><circle cx="543.4" cy="303.6" r="4" fill="#5938e2" /><circle cx="552.7" cy="302.9" r="4" fill="#5938e2" /><circle cx="562.0" cy="302.9" r="4" fill="#5938e2" /><circle cx="571.2" cy="298.0" r="4" fill="#5938e2" /><circle cx="580.5" cy="298.0" r="4" fill="#5938e2" /><circle cx="589.8" cy="298.0" r="4" fill="#5938e2" /><circle cx="599.0" cy="298.0" r="4" fill="#5938e2" /><circle cx="608.3" cy="298.0" r="4" fill="#5938e2" /><circle cx="617.6" cy="298.0" r="4" fill="#5938e2" /><circle cx="626.8" cy="298.0" r="4" fill="#5938e2" /><circle cx="636.1" cy="298.0" r="4" fill="#5938e2" /><circle cx="645.4" cy="298.0" r="4" fill="#5938e2" /><circle cx="654.6" cy="298.0" r="4" fill="#5938e2" /><circle cx="663.9" cy="298.0" r="4" fill="#5938e2" /><circle cx="673.2" cy="298.0" r="4" fill="#5938e2" /><circle cx="682.4" cy="298.0" r="4" fill="#5938e2" /><circle cx="691.7" cy="298.0" r="4" fill="#5938e2" /><circle cx="701.0" cy="297.8" r="4" fill="#5938e2" /><circle cx="710.2" cy="297.8" r="4" fill="#5938e2" /><circle cx="719.5" cy="297.8" r="4" fill="#5938e2" /><circle cx="728.8" cy="297.8" r="4" fill="#5938e2" /><circle cx="738.0" cy="297.8" r="4" fill="#5938e2" /><circle cx="747.3" cy="297.8" r="4" fill="#5938e2" /><circle cx="756.6" cy="297.8" r="4" fill="#5938e2" /><circle cx="765.9" cy="297.8" r="4" fill="#5938e2" /><circle cx="775.1" cy="297.8" r="4" fill="#5938e2" /><circle cx="784.4" cy="297.8" r="4" fill="#5938e2" /><circle cx="793.7" cy="297.8" r="4" fill="#5938e2" /><circle cx="802.9" cy="297.8" r="4" fill="#5938e2" /><circle cx="812.2" cy="297.8" r="4" fill="#5938e2" /><circle cx="821.5" cy="297.8" r="4" fill="#5938e2" /><circle cx="830.7" cy="297.8" r="4" fill="#5938e2" /><circle cx="840.0" cy="297.8" r="4" fill="#5938e2" /><polyline points="80.0,144.6 89.3,140.1 98.5,139.9 107.8,139.8 117.1,139.8 126.3,139.6 135.6,139.6 144.9,139.6 154.1,139.6 163.4,139.6 172.7,138.4 182.0,138.4 191.2,138.4 200.5,138.4 209.8,138.4 219.0,138.4 228.3,138.4 237.6,137.4 246.8,137.4 256.1,137.4 265.4,137.4 274.6,137.4 283.9,137.4 293.2,137.4 302.4,137.4 311.7,137.4 321.0,137.4 330.2,137.4 339.5,131.2 348.8,131.2 358.0,130.8 367.3,130.4 376.6,126.9 385.9,126.9 395.1,126.9 404.4,126.9 413.7,126.9 422.9,126.9 432.2,126.9 441.5,126.9 450.7,126.9 460.0,126.8 469.3,122.1 478.5,120.4 487.8,120.4 497.1,120.4 506.3,120.4 515.6,120.4 524.9,119.4 534.1,119.4 543.4,119.4 552.7,119.4 562.0,119.1 571.2,118.8 580.5,118.8 589.8,117.8 599.0,117.8 608.3,117.8 617.6,115.8 626.8,115.8 636.1,115.0 645.4,115.0 654.6,115.0 663.9,115.0 673.2,115.0 682.4,115.0 691.7,115.0 701.0,113.9 710.2,111.8 719.5,111.8 728.8,111.8 738.0,111.8 747.3,111.8 756.6,111.8 765.9,111.8 775.1,111.8 784.4,111.8 793.7,111.8 802.9,110.6 812.2,110.6 821.5,110.6 830.7,110.6 840.0,110.6" fill="none" stroke="#60e5e0" stroke-width="2.5" stroke-linecap="round" stroke-linejoin="round" /><circle cx="80.0" cy="144.6" r="4" fill="#60e5e0" /><circle cx="89.3" cy="140.1" r="4" fill="#60e5e0" /><circle cx="98.5" cy="139.9" r="4" fill="#60e5e0" /><circle cx="107.8" cy="139.8" r="4" fill="#60e5e0" /><circle cx="117.1" cy="139.8" r="4" fill="#60e5e0" /><circle cx="126.3" cy="139.6" r="4" fill="#60e5e0" /><circle cx="135.6" cy="139.6" r="4" fill="#60e5e0" /><circle cx="144.9" cy="139.6" r="4" fill="#60e5e0" /><circle cx="154.1" cy="139.6" r="4" fill="#60e5e0" /><circle cx="163.4" cy="139.6" r="4" fill="#60e5e0" /><circle cx="172.7" cy="138.4" r="4" fill="#60e5e0" /><circle cx="182.0" cy="138.4" r="4" fill="#60e5e0" /><circle cx="191.2" cy="138.4" r="4" fill="#60e5e0" /><circle cx="200.5" cy="138.4" r="4" fill="#60e5e0" /><circle cx="209.8" cy="138.4" r="4" fill="#60e5e0" /><circle cx="219.0" cy="138.4" r="4" fill="#60e5e0" /><circle cx="228.3" cy="138.4" r="4" fill="#60e5e0" /><circle cx="237.6" cy="137.4" r="4" fill="#60e5e0" /><circle cx="246.8" cy="137.4" r="4" fill="#60e5e0" /><circle cx="256.1" cy="137.4" r="4" fill="#60e5e0" /><circle cx="265.4" cy="137.4" r="4" fill="#60e5e0" /><circle cx="274.6" cy="137.4" r="4" fill="#60e5e0" /><circle cx="283.9" cy="137.4" r="4" fill="#60e5e0" /><circle cx="293.2" cy="137.4" r="4" fill="#60e5e0" /><circle cx="302.4" cy="137.4" r="4" fill="#60e5e0" /><circle cx="311.7" cy="137.4" r="4" fill="#60e5e0" /><circle cx="321.0" cy="137.4" r="4" fill="#60e5e0" /><circle cx="330.2" cy="137.4" r="4" fill="#60e5e0" /><circle cx="339.5" cy="131.2" r="4" fill="#60e5e0" /><circle cx="348.8" cy="131.2" r="4" fill="#60e5e0" /><circle cx="358.0" cy="130.8" r="4" fill="#60e5e0" /><circle cx="367.3" cy="130.4" r="4" fill="#60e5e0" /><circle cx="376.6" cy="126.9" r="4" fill="#60e5e0" /><circle cx="385.9" cy="126.9" r="4" fill="#60e5e0" /><circle cx="395.1" cy="126.9" r="4" fill="#60e5e0" /><circle cx="404.4" cy="126.9" r="4" fill="#60e5e0" /><circle cx="413.7" cy="126.9" r="4" fill="#60e5e0" /><circle cx="422.9" cy="126.9" r="4" fill="#60e5e0" /><circle cx="432.2" cy="126.9" r="4" fill="#60e5e0" /><circle cx="441.5" cy="126.9" r="4" fill="#60e5e0" /><circle cx="450.7" cy="126.9" r="4" fill="#60e5e0" /><circle cx="460.0" cy="126.8" r="4" fill="#60e5e0" /><circle cx="469.3" cy="122.1" r="4" fill="#60e5e0" /><circle cx="478.5" cy="120.4" r="4" fill="#60e5e0" /><circle cx="487.8" cy="120.4" r="4" fill="#60e5e0" /><circle cx="497.1" cy="120.4" r="4" fill="#60e5e0" /><circle cx="506.3" cy="120.4" r="4" fill="#60e5e0" /><circle cx="515.6" cy="120.4" r="4" fill="#60e5e0" /><circle cx="524.9" cy="119.4" r="4" fill="#60e5e0" /><circle cx="534.1" cy="119.4" r="4" fill="#60e5e0" /><circle cx="543.4" cy="119.4" r="4" fill="#60e5e0" /><circle cx="552.7" cy="119.4" r="4" fill="#60e5e0" /><circle cx="562.0" cy="119.1" r="4" fill="#60e5e0" /><circle cx="571.2" cy="118.8" r="4" fill="#60e5e0" /><circle cx="580.5" cy="118.8" r="4" fill="#60e5e0" /><circle cx="589.8" cy="117.8" r="4" fill="#60e5e0" /><circle cx="599.0" cy="117.8" r="4" fill="#60e5e0" /><circle cx="608.3" cy="117.8" r="4" fill="#60e5e0" /><circle cx="617.6" cy="115.8" r="4" fill="#60e5e0" /><circle cx="626.8" cy="115.8" r="4" fill="#60e5e0" /><circle cx="636.1" cy="115.0" r="4" fill="#60e5e0" /><circle cx="645.4" cy="115.0" r="4" fill="#60e5e0" /><circle cx="654.6" cy="115.0" r="4" fill="#60e5e0" /><circle cx="663.9" cy="115.0" r="4" fill="#60e5e0" /><circle cx="673.2" cy="115.0" r="4" fill="#60e5e0" /><circle cx="682.4" cy="115.0" r="4" fill="#60e5e0" /><circle cx="691.7" cy="115.0" r="4" fill="#60e5e0" /><circle cx="701.0" cy="113.9" r="4" fill="#60e5e0" /><circle cx="710.2" cy="111.8" r="4" fill="#60e5e0" /><circle cx="719.5" cy="111.8" r="4" fill="#60e5e0" /><circle cx="728.8" cy="111.8" r="4" fill="#60e5e0" /><circle cx="738.0" cy="111.8" r="4" fill="#60e5e0" /><circle cx="747.3" cy="111.8" r="4" fill="#60e5e0" /><circle cx="756.6" cy="111.8" r="4" fill="#60e5e0" /><circle cx="765.9" cy="111.8" r="4" fill="#60e5e0" /><circle cx="775.1" cy="111.8" r="4" fill="#60e5e0" /><circle cx="784.4" cy="111.8" r="4" fill="#60e5e0" /><circle cx="793.7" cy="111.8" r="4" fill="#60e5e0" /><circle cx="802.9" cy="110.6" r="4" fill="#60e5e0" /><circle cx="812.2" cy="110.6" r="4" fill="#60e5e0" /><circle cx="821.5" cy="110.6" r="4" fill="#60e5e0" /><circle cx="830.7" cy="110.6" r="4" fill="#60e5e0" /><circle cx="840.0" cy="110.6" r="4" fill="#60e5e0" /><polyline points="80.0,314.6 89.3,314.4 98.5,314.2 107.8,314.2 117.1,314.2 126.3,314.1 135.6,314.1 144.9,314.1 154.1,314.1 163.4,314.1 172.7,314.0 182.0,314.0 191.2,314.0 200.5,314.0 209.8,314.0 219.0,314.0 228.3,314.0 237.6,314.0 246.8,314.0 256.1,314.0 265.4,314.0 274.6,314.0 283.9,314.0 293.2,314.0 302.4,314.0 311.7,314.0 321.0,314.0 330.2,314.0 339.5,314.0 348.8,314.0 358.0,314.0 367.3,314.0 376.6,314.0 385.9,314.0 395.1,314.0 404.4,314.0 413.7,314.0 422.9,314.0 432.2,314.0 441.5,314.0 450.7,314.0 460.0,313.9 469.3,313.6 478.5,313.4 487.8,313.4 497.1,313.4 506.3,313.4 515.6,313.4 524.9,313.1 534.1,313.1 543.4,313.1 552.7,313.1 562.0,313.1 571.2,313.0 580.5,313.0 589.8,312.9 599.0,312.9 608.3,312.9 617.6,312.8 626.8,312.8 636.1,312.6 645.4,312.6 654.6,312.6 663.9,312.6 673.2,312.6 682.4,312.6 691.7,312.6 701.0,312.5 710.2,312.1 719.5,312.1 728.8,312.1 738.0,312.1 747.3,312.1 756.6,312.1 765.9,312.1 775.1,312.1 784.4,312.1 793.7,312.1 802.9,312.0 812.2,312.0 821.5,312.0 830.7,312.0 840.0,312.0" fill="none" stroke="#567de1" stroke-width="2.5" stroke-linecap="round" stroke-linejoin="round" /><circle cx="80.0" cy="314.6" r="4" fill="#567de1" /><circle cx="89.3" cy="314.4" r="4" fill="#567de1" /><circle cx="98.5" cy="314.2" r="4" fill="#567de1" /><circle cx="107.8" cy="314.2" r="4" fill="#567de1" /><circle cx="117.1" cy="314.2" r="4" fill="#567de1" /><circle cx="126.3" cy="314.1" r="4" fill="#567de1" /><circle cx="135.6" cy="314.1" r="4" fill="#567de1" /><circle cx="144.9" cy="314.1" r="4" fill="#567de1" /><circle cx="154.1" cy="314.1" r="4" fill="#567de1" /><circle cx="163.4" cy="314.1" r="4" fill="#567de1" /><circle cx="172.7" cy="314.0" r="4" fill="#567de1" /><circle cx="182.0" cy="314.0" r="4" fill="#567de1" /><circle cx="191.2" cy="314.0" r="4" fill="#567de1" /><circle cx="200.5" cy="314.0" r="4" fill="#567de1" /><circle cx="209.8" cy="314.0" r="4" fill="#567de1" /><circle cx="219.0" cy="314.0" r="4" fill="#567de1" /><circle cx="228.3" cy="314.0" r="4" fill="#567de1" /><circle cx="237.6" cy="314.0" r="4" fill="#567de1" /><circle cx="246.8" cy="314.0" r="4" fill="#567de1" /><circle cx="256.1" cy="314.0" r="4" fill="#567de1" /><circle cx="265.4" cy="314.0" r="4" fill="#567de1" /><circle cx="274.6" cy="314.0" r="4" fill="#567de1" /><circle cx="283.9" cy="314.0" r="4" fill="#567de1" /><circle cx="293.2" cy="314.0" r="4" fill="#567de1" /><circle cx="302.4" cy="314.0" r="4" fill="#567de1" /><circle cx="311.7" cy="314.0" r="4" fill="#567de1" /><circle cx="321.0" cy="314.0" r="4" fill="#567de1" /><circle cx="330.2" cy="314.0" r="4" fill="#567de1" /><circle cx="339.5" cy="314.0" r="4" fill="#567de1" /><circle cx="348.8" cy="314.0" r="4" fill="#567de1" /><circle cx="358.0" cy="314.0" r="4" fill="#567de1" /><circle cx="367.3" cy="314.0" r="4" fill="#567de1" /><circle cx="376.6" cy="314.0" r="4" fill="#567de1" /><circle cx="385.9" cy="314.0" r="4" fill="#567de1" /><circle cx="395.1" cy="314.0" r="4" fill="#567de1" /><circle cx="404.4" cy="314.0" r="4" fill="#567de1" /><circle cx="413.7" cy="314.0" r="4" fill="#567de1" /><circle cx="422.9" cy="314.0" r="4" fill="#567de1" /><circle cx="432.2" cy="314.0" r="4" fill="#567de1" /><circle cx="441.5" cy="314.0" r="4" fill="#567de1" /><circle cx="450.7" cy="314.0" r="4" fill="#567de1" /><circle cx="460.0" cy="313.9" r="4" fill="#567de1" /><circle cx="469.3" cy="313.6" r="4" fill="#567de1" /><circle cx="478.5" cy="313.4" r="4" fill="#567de1" /><circle cx="487.8" cy="313.4" r="4" fill="#567de1" /><circle cx="497.1" cy="313.4" r="4" fill="#567de1" /><circle cx="506.3" cy="313.4" r="4" fill="#567de1" /><circle cx="515.6" cy="313.4" r="4" fill="#567de1" /><circle cx="524.9" cy="313.1" r="4" fill="#567de1" /><circle cx="534.1" cy="313.1" r="4" fill="#567de1" /><circle cx="543.4" cy="313.1" r="4" fill="#567de1" /><circle cx="552.7" cy="313.1" r="4" fill="#567de1" /><circle cx="562.0" cy="313.1" r="4" fill="#567de1" /><circle cx="571.2" cy="313.0" r="4" fill="#567de1" /><circle cx="580.5" cy="313.0" r="4" fill="#567de1" /><circle cx="589.8" cy="312.9" r="4" fill="#567de1" /><circle cx="599.0" cy="312.9" r="4" fill="#567de1" /><circle cx="608.3" cy="312.9" r="4" fill="#567de1" /><circle cx="617.6" cy="312.8" r="4" fill="#567de1" /><circle cx="626.8" cy="312.8" r="4" fill="#567de1" /><circle cx="636.1" cy="312.6" r="4" fill="#567de1" /><circle cx="645.4" cy="312.6" r="4" fill="#567de1" /><circle cx="654.6" cy="312.6" r="4" fill="#567de1" /><circle cx="663.9" cy="312.6" r="4" fill="#567de1" /><circle cx="673.2" cy="312.6" r="4" fill="#567de1" /><circle cx="682.4" cy="312.6" r="4" fill="#567de1" /><circle cx="691.7" cy="312.6" r="4" fill="#567de1" /><circle cx="701.0" cy="312.5" r="4" fill="#567de1" /><circle cx="710.2" cy="312.1" r="4" fill="#567de1" /><circle cx="719.5" cy="312.1" r="4" fill="#567de1" /><circle cx="728.8" cy="312.1" r="4" fill="#567de1" /><circle cx="738.0" cy="312.1" r="4" fill="#567de1" /><circle cx="747.3" cy="312.1" r="4" fill="#567de1" /><circle cx="756.6" cy="312.1" r="4" fill="#567de1" /><circle cx="765.9" cy="312.1" r="4" fill="#567de1" /><circle cx="775.1" cy="312.1" r="4" fill="#567de1" /><circle cx="784.4" cy="312.1" r="4" fill="#567de1" /><circle cx="793.7" cy="312.1" r="4" fill="#567de1" /><circle cx="802.9" cy="312.0" r="4" fill="#567de1" /><circle cx="812.2" cy="312.0" r="4" fill="#567de1" /><circle cx="821.5" cy="312.0" r="4" fill="#567de1" /><circle cx="830.7" cy="312.0" r="4" fill="#567de1" /><circle cx="840.0" cy="312.0" r="4" fill="#567de1" /><polyline points="80.0,303.9 89.3,304.2 98.5,304.4 107.8,304.4 117.1,304.4 126.3,304.4 135.6,304.4 144.9,304.4 154.1,304.4 163.4,304.4 172.7,304.4 182.0,304.4 191.2,304.4 200.5,304.4 209.8,304.4 219.0,304.4 228.3,304.4 237.6,304.4 246.8,304.4 256.1,304.4 265.4,304.4 274.6,304.4 283.9,304.4 293.2,304.4 302.4,304.4 311.7,304.4 321.0,304.4 330.2,304.4 339.5,299.1 348.8,299.1 358.0,299.1 367.3,298.9 376.6,295.6 385.9,295.6 395.1,295.6 404.4,295.6 413.7,295.6 422.9,295.6 432.2,295.6 441.5,295.6 450.7,295.6 460.0,295.8 469.3,295.9 478.5,295.9 487.8,295.9 497.1,295.9 506.3,295.9 515.6,295.9 524.9,295.9 534.1,295.9 543.4,295.9 552.7,295.9 562.0,295.9 571.2,295.9 580.5,295.9 589.8,295.9 599.0,295.9 608.3,295.9 617.6,295.8 626.8,295.8 636.1,295.9 645.4,295.9 654.6,295.9 663.9,295.9 673.2,295.9 682.4,295.9 691.7,295.9 701.0,296.0 710.2,296.4 719.5,296.4 728.8,296.4 738.0,296.4 747.3,296.4 756.6,296.4 765.9,296.4 775.1,296.4 784.4,296.4 793.7,296.4 802.9,296.5 812.2,296.5 821.5,296.5 830.7,296.5 840.0,296.5" fill="none" stroke="#9754dd" stroke-width="2.5" stroke-linecap="round" stroke-linejoin="round" /><circle cx="80.0" cy="303.9" r="4" fill="#9754dd" /><circle cx="89.3" cy="304.2" r="4" fill="#9754dd" /><circle cx="98.5" cy="304.4" r="4" fill="#9754dd" /><circle cx="107.8" cy="304.4" r="4" fill="#9754dd" /><circle cx="117.1" cy="304.4" r="4" fill="#9754dd" /><circle cx="126.3" cy="304.4" r="4" fill="#9754dd" /><circle cx="135.6" cy="304.4" r="4" fill="#9754dd" /><circle cx="144.9" cy="304.4" r="4" fill="#9754dd" /><circle cx="154.1" cy="304.4" r="4" fill="#9754dd" /><circle cx="163.4" cy="304.4" r="4" fill="#9754dd" /><circle cx="172.7" cy="304.4" r="4" fill="#9754dd" /><circle cx="182.0" cy="304.4" r="4" fill="#9754dd" /><circle cx="191.2" cy="304.4" r="4" fill="#9754dd" /><circle cx="200.5" cy="304.4" r="4" fill="#9754dd" /><circle cx="209.8" cy="304.4" r="4" fill="#9754dd" /><circle cx="219.0" cy="304.4" r="4" fill="#9754dd" /><circle cx="228.3" cy="304.4" r="4" fill="#9754dd" /><circle cx="237.6" cy="304.4" r="4" fill="#9754dd" /><circle cx="246.8" cy="304.4" r="4" fill="#9754dd" /><circle cx="256.1" cy="304.4" r="4" fill="#9754dd" /><circle cx="265.4" cy="304.4" r="4" fill="#9754dd" /><circle cx="274.6" cy="304.4" r="4" fill="#9754dd" /><circle cx="283.9" cy="304.4" r="4" fill="#9754dd" /><circle cx="293.2" cy="304.4" r="4" fill="#9754dd" /><circle cx="302.4" cy="304.4" r="4" fill="#9754dd" /><circle cx="311.7" cy="304.4" r="4" fill="#9754dd" /><circle cx="321.0" cy="304.4" r="4" fill="#9754dd" /><circle cx="330.2" cy="304.4" r="4" fill="#9754dd" /><circle cx="339.5" cy="299.1" r="4" fill="#9754dd" /><circle cx="348.8" cy="299.1" r="4" fill="#9754dd" /><circle cx="358.0" cy="299.1" r="4" fill="#9754dd" /><circle cx="367.3" cy="298.9" r="4" fill="#9754dd" /><circle cx="376.6" cy="295.6" r="4" fill="#9754dd" /><circle cx="385.9" cy="295.6" r="4" fill="#9754dd" /><circle cx="395.1" cy="295.6" r="4" fill="#9754dd" /><circle cx="404.4" cy="295.6" r="4" fill="#9754dd" /><circle cx="413.7" cy="295.6" r="4" fill="#9754dd" /><circle cx="422.9" cy="295.6" r="4" fill="#9754dd" /><circle cx="432.2" cy="295.6" r="4" fill="#9754dd" /><circle cx="441.5" cy="295.6" r="4" fill="#9754dd" /><circle cx="450.7" cy="295.6" r="4" fill="#9754dd" /><circle cx="460.0" cy="295.8" r="4" fill="#9754dd" /><circle cx="469.3" cy="295.9" r="4" fill="#9754dd" /><circle cx="478.5" cy="295.9" r="4" fill="#9754dd" /><circle cx="487.8" cy="295.9" r="4" fill="#9754dd" /><circle cx="497.1" cy="295.9" r="4" fill="#9754dd" /><circle cx="506.3" cy="295.9" r="4" fill="#9754dd" /><circle cx="515.6" cy="295.9" r="4" fill="#9754dd" /><circle cx="524.9" cy="295.9" r="4" fill="#9754dd" /><circle cx="534.1" cy="295.9" r="4" fill="#9754dd" /><circle cx="543.4" cy="295.9" r="4" fill="#9754dd" /><circle cx="552.7" cy="295.9" r="4" fill="#9754dd" /><circle cx="562.0" cy="295.9" r="4" fill="#9754dd" /><circle cx="571.2" cy="295.9" r="4" fill="#9754dd" /><circle cx="580.5" cy="295.9" r="4" fill="#9754dd" /><circle cx="589.8" cy="295.9" r="4" fill="#9754dd" /><circle cx="599.0" cy="295.9" r="4" fill="#9754dd" /><circle cx="608.3" cy="295.9" r="4" fill="#9754dd" /><circle cx="617.6" cy="295.8" r="4" fill="#9754dd" /><circle cx="626.8" cy="295.8" r="4" fill="#9754dd" /><circle cx="636.1" cy="295.9" r="4" fill="#9754dd" /><circle cx="645.4" cy="295.9" r="4" fill="#9754dd" /><circle cx="654.6" cy="295.9" r="4" fill="#9754dd" /><circle cx="663.9" cy="295.9" r="4" fill="#9754dd" /><circle cx="673.2" cy="295.9" r="4" fill="#9754dd" /><circle cx="682.4" cy="295.9" r="4" fill="#9754dd" /><circle cx="691.7" cy="295.9" r="4" fill="#9754dd" /><circle cx="701.0" cy="296.0" r="4" fill="#9754dd" /><circle cx="710.2" cy="296.4" r="4" fill="#9754dd" /><circle cx="719.5" cy="296.4" r="4" fill="#9754dd" /><circle cx="728.8" cy="296.4" r="4" fill="#9754dd" /><circle cx="738.0" cy="296.4" r="4" fill="#9754dd" /><circle cx="747.3" cy="296.4" r="4" fill="#9754dd" /><circle cx="756.6" cy="296.4" r="4" fill="#9754dd" /><circle cx="765.9" cy="296.4" r="4" fill="#9754dd" /><circle cx="775.1" cy="296.4" r="4" fill="#9754dd" /><circle cx="784.4" cy="296.4" r="4" fill="#9754dd" /><circle cx="793.7" cy="296.4" r="4" fill="#9754dd" /><circle cx="802.9" cy="296.5" r="4" fill="#9754dd" /><circle cx="812.2" cy="296.5" r="4" fill="#9754dd" /><circle cx="821.5" cy="296.5" r="4" fill="#9754dd" /><circle cx="830.7" cy="296.5" r="4" fill="#9754dd" /><circle cx="840.0" cy="296.5" r="4" fill="#9754dd" />
  <rect x="80" y="339" width="10" height="10" rx="2" ry="2" fill="#19e5a1" /><text x="96" y="348" class="legend-label">Stars</text><rect x="250" y="339" width="10" height="10" rx="2" ry="2" fill="#6eb6ec" /><text x="266" y="348" class="legend-label">Followers</text><rect x="420" y="339" width="10" height="10" rx="2" ry="2" fill="#5938e2" /><text x="436" y="348" class="legend-label">Following</text><rect x="590" y="339" width="10" height="10" rx="2" ry="2" fill="#60e5e0" /><text x="606" y="348" class="legend-label">Contributions</text><rect x="80" y="357" width="10" height="10" rx="2" ry="2" fill="#567de1" /><text x="96" y="366" class="legend-label">Pull Requests</text><rect x="250" y="357" width="10" height="10" rx="2" ry="2" fill="#9754dd" /><text x="266" y="366" class="legend-label">Issues</text>
</svg>
