<svg width="900" height="402" viewBox="0 0 900 402" xmlns="http://www.w3.org/2000/svg">
  <defs>
    <linearGradient id="history-gradient" x1="0%" y1="0%" x2="100%" y2="100%">
      <stop offset="0%" style="stop-color:#58a6ff;stop-opacity:1" />
      <stop offset="100%" style="stop-color:#a371f7;stop-opacity:1" />
    </linearGradient>
    <clipPath id="history-rounded">
      <rect x="0" y="0" width="900" height="402" rx="8" ry="8" />
    </clipPath>
  </defs>
  <style>
    .title {
      font-family: 'Segoe UI', Ubuntu, 'Helvetica Neue', sans-serif;
      font-size: 22px;
      font-weight: 700;
      fill: #58a6ff;
    }
    .subtitle {
      font-family: 'Segoe UI', Ubuntu, 'Helvetica Neue', sans-serif;
      font-size: 12px;
      font-weight: 500;
      fill: #8b949e;
    }
    .axis-label {
      font-family: 'Segoe UI', Ubuntu, 'Helvetica Neue', sans-serif;
      font-size: 10px;
      fill: #8b949e;
    }
    .grid-line {
      stroke: #30363d;
      stroke-width: 1;
      opacity: 0.3;
    }
    .legend-label {
      font-family: 'Segoe UI', Ubuntu, 'Helvetica Neue', sans-serif;
      font-size: 11px;
      fill: #c9d1d9;
      dominant-baseline: middle;
    }
  </style>
  <rect clip-path="url(#history-rounded)" width="100%" height="100%" fill="#0d1117" stroke="#30363d" stroke-width="1" />
  <rect x="0" y="396" width="900" height="6" fill="url(#history-gradient)" clip-path="url(#history-rounded)" />
  <text x="24" y="34" class="title">Leonardo Klein Stats History</text>
  <text x="24" y="54" class="subtitle">Period: 2026-02-20 to 2026-03-12</text>
  <text x="72" y="320.0" text-anchor="end" dominant-baseline="central" class="axis-label">0</text><text x="72" y="270.0" text-anchor="end" dominant-baseline="central" class="axis-label">400</text><text x="72" y="220.0" text-anchor="end" dominant-baseline="central" class="axis-label">800</text><text x="72" y="170.0" text-anchor="end" dominant-baseline="central" class="axis-label">1.2k</text><text x="72" y="120.0" text-anchor="end" dominant-baseline="central" class="axis-label">1.6k</text><text x="72" y="70.0" text-anchor="end" dominant-baseline="central" class="axis-label">2.0k</text>
  <text x="80.0" y="336" text-anchor="middle" class="axis-label">02-20</text><text x="149.8" y="336" text-anchor="middle" class="axis-label">02-22</text><text x="219.6" y="336" text-anchor="middle" class="axis-label">02-24</text><text x="289.4" y="336" text-anchor="middle" class="axis-label">02-25</text><text x="359.2" y="336" text-anchor="middle" class="axis-label">02-27</text><text x="429.0" y="336" text-anchor="middle" class="axis-label">03-01</text><text x="498.8" y="336" text-anchor="middle" class="axis-label">03-03</text><text x="568.6" y="336" text-anchor="middle" class="axis-label">03-05</text><text x="638.4" y="336" text-anchor="middle" class="axis-label">03-06</text><text x="708.2" y="336" text-anchor="middle" class="axis-label">03-08</text><text x="778.0" y="336" text-anchor="middle" class="axis-label">03-10</text><text x="840.0" y="336" text-anchor="middle" class="axis-label">03-12</text>
  <line x1="80" y1="320.0" x2="840" y2="320.0" class="grid-line" /><line x1="80" y1="270.0" x2="840" y2="270.0" class="grid-line" /><line x1="80" y1="220.0" x2="840" y2="220.0" class="grid-line" /><line x1="80" y1="170.0" x2="840" y2="170.0" class="grid-line" /><line x1="80" y1="120.0" x2="840" y2="120.0" class="grid-line" /><line x1="80" y1="70.0" x2="840" y2="70.0" class="grid-line" />
  <polyline points="80.0,317.0 87.8,317.0 95.5,317.0 103.3,317.0 111.0,317.0 118.8,317.0 126.5,317.0 134.3,317.0 142.0,317.0 149.8,317.0 157.6,317.0 165.3,317.0 173.1,317.0 180.8,317.0 188.6,317.0 196.3,317.0 204.1,317.0 211.8,317.0 219.6,317.0 227.3,317.0 235.1,317.0 242.9,317.0 250.6,317.0 258.4,317.0 266.1,317.0 273.9,317.0 281.6,317.0 289.4,317.0 297.1,317.0 304.9,317.0 312.7,317.0 320.4,317.0 328.2,317.0 335.9,317.0 343.7,317.0 351.4,317.0 359.2,317.0 366.9,317.0 374.7,317.0 382.4,317.0 390.2,317.0 398.0,317.0 405.7,317.0 413.5,317.0 421.2,317.0 429.0,317.0 436.7,317.0 444.5,317.0 452.2,317.0 460.0,317.0 467.8,317.0 475.5,317.0 483.3,317.0 491.0,317.0 498.8,317.0 506.5,317.0 514.3,317.0 522.0,317.0 529.8,317.0 537.6,317.0 545.3,317.0 553.1,317.0 560.8,317.0 568.6,317.0 576.3,317.0 584.1,317.0 591.8,317.0 599.6,317.0 607.3,317.0 615.1,317.0 622.9,317.0 630.6,317.0 638.4,317.0 646.1,317.0 653.9,317.0 661.6,317.0 669.4,317.0 677.1,317.0 684.9,317.0 692.7,317.0 700.4,317.0 708.2,317.0 715.9,317.0 723.7,317.0 731.4,317.0 739.2,317.0 746.9,317.0 754.7,317.0 762.4,317.0 770.2,317.0 778.0,317.0 785.7,317.0 793.5,317.0 801.2,317.0 809.0,317.0 816.7,317.0 824.5,317.0 832.2,317.0 840.0,317.0" fill="none" stroke="#19e5a1" stroke-width="2.5" stroke-linecap="round" stroke-linejoin="round" /><circle cx="80.0" cy="317.0" r="4" fill="#19e5a1" /><circle cx="87.8" cy="317.0" r="4" fill="#19e5a1" /><circle cx="95.5" cy="317.0" r="4" fill="#19e5a1" /><circle cx="103.3" cy="317.0" r="4" fill="#19e5a1" /><circle cx="111.0" cy="317.0" r="4" fill="#19e5a1" /><circle cx="118.8" cy="317.0" r="4" fill="#19e5a1" /><circle cx="126.5" cy="317.0" r="4" fill="#19e5a1" /><circle cx="134.3" cy="317.0" r="4" fill="#19e5a1" /><circle cx="142.0" cy="317.0" r="4" fill="#19e5a1" /><circle cx="149.8" cy="317.0" r="4" fill="#19e5a1" /><circle cx="157.6" cy="317.0" r="4" fill="#19e5a1" /><circle cx="165.3" cy="317.0" r="4" fill="#19e5a1" /><circle cx="173.1" cy="317.0" r="4" fill="#19e5a1" /><circle cx="180.8" cy="317.0" r="4" fill="#19e5a1" /><circle cx="188.6" cy="317.0" r="4" fill="#19e5a1" /><circle cx="196.3" cy="317.0" r="4" fill="#19e5a1" /><circle cx="204.1" cy="317.0" r="4" fill="#19e5a1" /><circle cx="211.8" cy="317.0" r="4" fill="#19e5a1" /><circle cx="219.6" cy="317.0" r="4" fill="#19e5a1" /><circle cx="227.3" cy="317.0" r="4" fill="#19e5a1" /><circle cx="235.1" cy="317.0" r="4" fill="#19e5a1" /><circle cx="242.9" cy="317.0" r="4" fill="#19e5a1" /><circle cx="250.6" cy="317.0" r="4" fill="#19e5a1" /><circle cx="258.4" cy="317.0" r="4" fill="#19e5a1" /><circle cx="266.1" cy="317.0" r="4" fill="#19e5a1" /><circle cx="273.9" cy="317.0" r="4" fill="#19e5a1" /><circle cx="281.6" cy="317.0" r="4" fill="#19e5a1" /><circle cx="289.4" cy="317.0" r="4" fill="#19e5a1" /><circle cx="297.1" cy="317.0" r="4" fill="#19e5a1" /><circle cx="304.9" cy="317.0" r="4" fill="#19e5a1" /><circle cx="312.7" cy="317.0" r="4" fill="#19e5a1" /><circle cx="320.4" cy="317.0" r="4" fill="#19e5a1" /><circle cx="328.2" cy="317.0" r="4" fill="#19e5a1" /><circle cx="335.9" cy="317.0" r="4" fill="#19e5a1" /><circle cx="343.7" cy="317.0" r="4" fill="#19e5a1" /><circle cx="351.4" cy="317.0" r="4" fill="#19e5a1" /><circle cx="359.2" cy="317.0" r="4" fill="#19e5a1" /><circle cx="366.9" cy="317.0" r="4" fill="#19e5a1" /><circle cx="374.7" cy="317.0" r="4" fill="#19e5a1" /><circle cx="382.4" cy="317.0" r="4" fill="#19e5a1" /><circle cx="390.2" cy="317.0" r="4" fill="#19e5a1" /><circle cx="398.0" cy="317.0" r="4" fill="#19e5a1" /><circle cx="405.7" cy="317.0" r="4" fill="#19e5a1" /><circle cx="413.5" cy="317.0" r="4" fill="#19e5a1" /><circle cx="421.2" cy="317.0" r="4" fill="#19e5a1" /><circle cx="429.0" cy="317.0" r="4" fill="#19e5a1" /><circle cx="436.7" cy="317.0" r="4" fill="#19e5a1" /><circle cx="444.5" cy="317.0" r="4" fill="#19e5a1" /><circle cx="452.2" cy="317.0" r="4" fill="#19e5a1" /><circle cx="460.0" cy="317.0" r="4" fill="#19e5a1" /><circle cx="467.8" cy="317.0" r="4" fill="#19e5a1" /><circle cx="475.5" cy="317.0" r="4" fill="#19e5a1" /><circle cx="483.3" cy="317.0" r="4" fill="#19e5a1" /><circle cx="491.0" cy="317.0" r="4" fill="#19e5a1" /><circle cx="498.8" cy="317.0" r="4" fill="#19e5a1" /><circle cx="506.5" cy="317.0" r="4" fill="#19e5a1" /><circle cx="514.3" cy="317.0" r="4" fill="#19e5a1" /><circle cx="522.0" cy="317.0" r="4" fill="#19e5a1" /><circle cx="529.8" cy="317.0" r="4" fill="#19e5a1" /><circle cx="537.6" cy="317.0" r="4" fill="#19e5a1" /><circle cx="545.3" cy="317.0" r="4" fill="#19e5a1" /><circle cx="553.1" cy="317.0" r="4" fill="#19e5a1" /><circle cx="560.8" cy="317.0" r="4" fill="#19e5a1" /><circle cx="568.6" cy="317.0" r="4" fill="#19e5a1" /><circle cx="576.3" cy="317.0" r="4" fill="#19e5a1" /><circle cx="584.1" cy="317.0" r="4" fill="#19e5a1" /><circle cx="591.8" cy="317.0" r="4" fill="#19e5a1" /><circle cx="599.6" cy="317.0" r="4" fill="#19e5a1" /><circle cx="607.3" cy="317.0" r="4" fill="#19e5a1" /><circle cx="615.1" cy="317.0" r="4" fill="#19e5a1" /><circle cx="622.9" cy="317.0" r="4" fill="#19e5a1" /><circle cx="630.6" cy="317.0" r="4" fill="#19e5a1" /><circle cx="638.4" cy="317.0" r="4" fill="#19e5a1" /><circle cx="646.1" cy="317.0" r="4" fill="#19e5a1" /><circle cx="653.9" cy="317.0" r="4" fill="#19e5a1" /><circle cx="661.6" cy="317.0" r="4" fill="#19e5a1" /><circle cx="669.4" cy="317.0" r="4" fill="#19e5a1" /><circle cx="677.1" cy="317.0" r="4" fill="#19e5a1" /><circle cx="684.9" cy="317.0" r="4" fill="#19e5a1" /><circle cx="692.7" cy="317.0" r="4" fill="#19e5a1" /><circle cx="700.4" cy="317.0" r="4" fill="#19e5a1" /><circle cx="708.2" cy="317.0" r="4" fill="#19e5a1" /><circle cx="715.9" cy="317.0" r="4" fill="#19e5a1" /><circle cx="723.7" cy="317.0" r="4" fill="#19e5a1" /><circle cx="731.4" cy="317.0" r="4" fill="#19e5a1" /><circle cx="739.2" cy="317.0" r="4" fill="#19e5a1" /><circle cx="746.9" cy="317.0" r="4" fill="#19e5a1" /><circle cx="754.7" cy="317.0" r="4" fill="#19e5a1" /><circle cx="762.4" cy="317.0" r="4" fill="#19e5a1" /><circle cx="770.2" cy="317.0" r="4" fill="#19e5a1" /><circle cx="778.0" cy="317.0" r="4" fill="#19e5a1" /><circle cx="785.7" cy="317.0" r="4" fill="#19e5a1" /><circle cx="793.5" cy="317.0" r="4" fill="#19e5a1" /><circle cx="801.2" cy="317.0" r="4" fill="#19e5a1" /><circle cx="809.0" cy="317.0" r="4" fill="#19e5a1" /><circle cx="816.7" cy="317.0" r="4" fill="#19e5a1" /><circle cx="824.5" cy="317.0" r="4" fill="#19e5a1" /><circle cx="832.2" cy="317.0" r="4" fill="#19e5a1" /><circle cx="840.0" cy="317.0" r="4" fill="#19e5a1" /><polyline points="80.0,313.2 87.8,312.2 95.5,312.1 103.3,312.4 111.0,312.4 118.8,312.4 126.5,312.1 134.3,312.0 142.0,311.9 149.8,311.9 157.6,311.8 165.3,311.8 173.1,311.5 180.8,311.5 188.6,311.5 196.3,311.2 204.1,311.2 211.8,311.1 219.6,311.1 227.3,311.1 235.1,310.9 242.9,311.0 250.6,310.8 258.4,310.8 266.1,310.8 273.9,310.8 281.6,310.4 289.4,310.2 297.1,310.4 304.9,310.4 312.7,310.4 320.4,310.4 328.2,310.4 335.9,310.2 343.7,310.2 351.4,310.1 359.2,310.1 366.9,309.8 374.7,309.6 382.4,309.6 390.2,309.6 398.0,309.6 405.7,309.5 413.5,309.4 421.2,309.4 429.0,309.4 436.7,309.4 444.5,309.2 452.2,309.2 460.0,309.2 467.8,309.4 475.5,309.4 483.3,309.5 491.0,309.2 498.8,309.2 506.5,309.4 514.3,309.2 522.0,309.2 529.8,309.2 537.6,309.2 545.3,309.2 553.1,309.1 560.8,309.1 568.6,309.1 576.3,309.1 584.1,309.0 591.8,309.0 599.6,308.9 607.3,308.9 615.1,308.9 622.9,308.6 630.6,308.6 638.4,308.6 646.1,308.6 653.9,308.6 661.6,308.6 669.4,308.6 677.1,308.6 684.9,308.6 692.7,308.6 700.4,308.6 708.2,308.6 715.9,308.6 723.7,307.8 731.4,307.8 739.2,307.6 746.9,307.6 754.7,307.6 762.4,307.5 770.2,307.5 778.0,307.6 785.7,308.5 793.5,308.5 801.2,308.4 809.0,308.4 816.7,307.5 824.5,307.5 832.2,307.2 840.0,307.1" fill="none" stroke="#6eb6ec" stroke-width="2.5" stroke-linecap="round" stroke-linejoin="round" /><circle cx="80.0" cy="313.2" r="4" fill="#6eb6ec" /><circle cx="87.8" cy="312.2" r="4" fill="#6eb6ec" /><circle cx="95.5" cy="312.1" r="4" fill="#6eb6ec" /><circle cx="103.3" cy="312.4" r="4" fill="#6eb6ec" /><circle cx="111.0" cy="312.4" r="4" fill="#6eb6ec" /><circle cx="118.8" cy="312.4" r="4" fill="#6eb6ec" /><circle cx="126.5" cy="312.1" r="4" fill="#6eb6ec" /><circle cx="134.3" cy="312.0" r="4" fill="#6eb6ec" /><circle cx="142.0" cy="311.9" r="4" fill="#6eb6ec" /><circle cx="149.8" cy="311.9" r="4" fill="#6eb6ec" /><circle cx="157.6" cy="311.8" r="4" fill="#6eb6ec" /><circle cx="165.3" cy="311.8" r="4" fill="#6eb6ec" /><circle cx="173.1" cy="311.5" r="4" fill="#6eb6ec" /><circle cx="180.8" cy="311.5" r="4" fill="#6eb6ec" /><circle cx="188.6" cy="311.5" r="4" fill="#6eb6ec" /><circle cx="196.3" cy="311.2" r="4" fill="#6eb6ec" /><circle cx="204.1" cy="311.2" r="4" fill="#6eb6ec" /><circle cx="211.8" cy="311.1" r="4" fill="#6eb6ec" /><circle cx="219.6" cy="311.1" r="4" fill="#6eb6ec" /><circle cx="227.3" cy="311.1" r="4" fill="#6eb6ec" /><circle cx="235.1" cy="310.9" r="4" fill="#6eb6ec" /><circle cx="242.9" cy="311.0" r="4" fill="#6eb6ec" /><circle cx="250.6" cy="310.8" r="4" fill="#6eb6ec" /><circle cx="258.4" cy="310.8" r="4" fill="#6eb6ec" /><circle cx="266.1" cy="310.8" r="4" fill="#6eb6ec" /><circle cx="273.9" cy="310.8" r="4" fill="#6eb6ec" /><circle cx="281.6" cy="310.4" r="4" fill="#6eb6ec" /><circle cx="289.4" cy="310.2" r="4" fill="#6eb6ec" /><circle cx="297.1" cy="310.4" r="4" fill="#6eb6ec" /><circle cx="304.9" cy="310.4" r="4" fill="#6eb6ec" /><circle cx="312.7" cy="310.4" r="4" fill="#6eb6ec" /><circle cx="320.4" cy="310.4" r="4" fill="#6eb6ec" /><circle cx="328.2" cy="310.4" r="4" fill="#6eb6ec" /><circle cx="335.9" cy="310.2" r="4" fill="#6eb6ec" /><circle cx="343.7" cy="310.2" r="4" fill="#6eb6ec" /><circle cx="351.4" cy="310.1" r="4" fill="#6eb6ec" /><circle cx="359.2" cy="310.1" r="4" fill="#6eb6ec" /><circle cx="366.9" cy="309.8" r="4" fill="#6eb6ec" /><circle cx="374.7" cy="309.6" r="4" fill="#6eb6ec" /><circle cx="382.4" cy="309.6" r="4" fill="#6eb6ec" /><circle cx="390.2" cy="309.6" r="4" fill="#6eb6ec" /><circle cx="398.0" cy="309.6" r="4" fill="#6eb6ec" /><circle cx="405.7" cy="309.5" r="4" fill="#6eb6ec" /><circle cx="413.5" cy="309.4" r="4" fill="#6eb6ec" /><circle cx="421.2" cy="309.4" r="4" fill="#6eb6ec" /><circle cx="429.0" cy="309.4" r="4" fill="#6eb6ec" /><circle cx="436.7" cy="309.4" r="4" fill="#6eb6ec" /><circle cx="444.5" cy="309.2" r="4" fill="#6eb6ec" /><circle cx="452.2" cy="309.2" r="4" fill="#6eb6ec" /><circle cx="460.0" cy="309.2" r="4" fill="#6eb6ec" /><circle cx="467.8" cy="309.4" r="4" fill="#6eb6ec" /><circle cx="475.5" cy="309.4" r="4" fill="#6eb6ec" /><circle cx="483.3" cy="309.5" r="4" fill="#6eb6ec" /><circle cx="491.0" cy="309.2" r="4" fill="#6eb6ec" /><circle cx="498.8" cy="309.2" r="4" fill="#6eb6ec" /><circle cx="506.5" cy="309.4" r="4" fill="#6eb6ec" /><circle cx="514.3" cy="309.2" r="4" fill="#6eb6ec" /><circle cx="522.0" cy="309.2" r="4" fill="#6eb6ec" /><circle cx="529.8" cy="309.2" r="4" fill="#6eb6ec" /><circle cx="537.6" cy="309.2" r="4" fill="#6eb6ec" /><circle cx="545.3" cy="309.2" r="4" fill="#6eb6ec" /><circle cx="553.1" cy="309.1" r="4" fill="#6eb6ec" /><circle cx="560.8" cy="309.1" r="4" fill="#6eb6ec" /><circle cx="568.6" cy="309.1" r="4" fill="#6eb6ec" /><circle cx="576.3" cy="309.1" r="4" fill="#6eb6ec" /><circle cx="584.1" cy="309.0" r="4" fill="#6eb6ec" /><circle cx="591.8" cy="309.0" r="4" fill="#6eb6ec" /><circle cx="599.6" cy="308.9" r="4" fill="#6eb6ec" /><circle cx="607.3" cy="308.9" r="4" fill="#6eb6ec" /><circle cx="615.1" cy="308.9" r="4" fill="#6eb6ec" /><circle cx="622.9" cy="308.6" r="4" fill="#6eb6ec" /><circle cx="630.6" cy="308.6" r="4" fill="#6eb6ec" /><circle cx="638.4" cy="308.6" r="4" fill="#6eb6ec" /><circle cx="646.1" cy="308.6" r="4" fill="#6eb6ec" /><circle cx="653.9" cy="308.6" r="4" fill="#6eb6ec" /><circle cx="661.6" cy="308.6" r="4" fill="#6eb6ec" /><circle cx="669.4" cy="308.6" r="4" fill="#6eb6ec" /><circle cx="677.1" cy="308.6" r="4" fill="#6eb6ec" /><circle cx="684.9" cy="308.6" r="4" fill="#6eb6ec" /><circle cx="692.7" cy="308.6" r="4" fill="#6eb6ec" /><circle cx="700.4" cy="308.6" r="4" fill="#6eb6ec" /><circle cx="708.2" cy="308.6" r="4" fill="#6eb6ec" /><circle cx="715.9" cy="308.6" r="4" fill="#6eb6ec" /><circle cx="723.7" cy="307.8" r="4" fill="#6eb6ec" /><circle cx="731.4" cy="307.8" r="4" fill="#6eb6ec" /><circle cx="739.2" cy="307.6" r="4" fill="#6eb6ec" /><circle cx="746.9" cy="307.6" r="4" fill="#6eb6ec" /><circle cx="754.7" cy="307.6" r="4" fill="#6eb6ec" /><circle cx="762.4" cy="307.5" r="4" fill="#6eb6ec" /><circle cx="770.2" cy="307.5" r="4" fill="#6eb6ec" /><circle cx="778.0" cy="307.6" r="4" fill="#6eb6ec" /><circle cx="785.7" cy="308.5" r="4" fill="#6eb6ec" /><circle cx="793.5" cy="308.5" r="4" fill="#6eb6ec" /><circle cx="801.2" cy="308.4" r="4" fill="#6eb6ec" /><circle cx="809.0" cy="308.4" r="4" fill="#6eb6ec" /><circle cx="816.7" cy="307.5" r="4" fill="#6eb6ec" /><circle cx="824.5" cy="307.5" r="4" fill="#6eb6ec" /><circle cx="832.2" cy="307.2" r="4" fill="#6eb6ec" /><circle cx="840.0" cy="307.1" r="4" fill="#6eb6ec" /><polyline points="80.0,305.8 87.8,305.8 95.5,305.8 103.3,305.8 111.0,305.8 118.8,305.8 126.5,305.8 134.3,305.8 142.0,305.8 149.8,305.8 157.6,304.9 165.3,304.9 173.1,304.9 180.8,304.9 188.6,304.9 196.3,304.9 204.1,304.9 211.8,304.9 219.6,304.9 227.3,304.9 235.1,304.9 242.9,304.9 250.6,304.9 258.4,304.9 266.1,304.9 273.9,304.9 281.6,304.9 289.4,304.9 297.1,304.9 304.9,304.9 312.7,304.9 320.4,304.9 328.2,304.9 335.9,304.9 343.7,304.9 351.4,304.9 359.2,304.9 366.9,303.6 374.7,303.6 382.4,303.6 390.2,303.6 398.0,303.6 405.7,303.6 413.5,303.6 421.2,303.6 429.0,303.6 436.7,303.6 444.5,303.6 452.2,303.6 460.0,303.6 467.8,303.6 475.5,302.9 483.3,302.9 491.0,298.0 498.8,298.0 506.5,298.0 514.3,298.0 522.0,298.0 529.8,298.0 537.6,298.0 545.3,298.0 553.1,298.0 560.8,298.0 568.6,298.0 576.3,298.0 584.1,298.0 591.8,298.0 599.6,297.8 607.3,297.8 615.1,297.8 622.9,297.8 630.6,297.8 638.4,297.8 646.1,297.8 653.9,297.8 661.6,297.8 669.4,297.8 677.1,297.8 684.9,297.8 692.7,297.8 700.4,297.8 708.2,297.8 715.9,297.8 723.7,297.8 731.4,297.8 739.2,297.8 746.9,297.6 754.7,297.8 762.4,297.8 770.2,297.8 778.0,297.9 785.7,297.9 793.5,297.9 801.2,296.1 809.0,296.1 816.7,296.1 824.5,296.1 832.2,296.1 840.0,296.1" fill="none" stroke="#5938e2" stroke-width="2.5" stroke-linecap="round" stroke-linejoin="round" /><circle cx="80.0" cy="305.8" r="4" fill="#5938e2" /><circle cx="87.8" cy="305.8" r="4" fill="#5938e2" /><circle cx="95.5" cy="305.8" r="4" fill="#5938e2" /><circle cx="103.3" cy="305.8" r="4" fill="#5938e2" /><circle cx="111.0" cy="305.8" r="4" fill="#5938e2" /><circle cx="118.8" cy="305.8" r="4" fill="#5938e2" /><circle cx="126.5" cy="305.8" r="4" fill="#5938e2" /><circle cx="134.3" cy="305.8" r="4" fill="#5938e2" /><circle cx="142.0" cy="305.8" r="4" fill="#5938e2" /><circle cx="149.8" cy="305.8" r="4" fill="#5938e2" /><circle cx="157.6" cy="304.9" r="4" fill="#5938e2" /><circle cx="165.3" cy="304.9" r="4" fill="#5938e2" /><circle cx="173.1" cy="304.9" r="4" fill="#5938e2" /><circle cx="180.8" cy="304.9" r="4" fill="#5938e2" /><circle cx="188.6" cy="304.9" r="4" fill="#5938e2" /><circle cx="196.3" cy="304.9" r="4" fill="#5938e2" /><circle cx="204.1" cy="304.9" r="4" fill="#5938e2" /><circle cx="211.8" cy="304.9" r="4" fill="#5938e2" /><circle cx="219.6" cy="304.9" r="4" fill="#5938e2" /><circle cx="227.3" cy="304.9" r="4" fill="#5938e2" /><circle cx="235.1" cy="304.9" r="4" fill="#5938e2" /><circle cx="242.9" cy="304.9" r="4" fill="#5938e2" /><circle cx="250.6" cy="304.9" r="4" fill="#5938e2" /><circle cx="258.4" cy="304.9" r="4" fill="#5938e2" /><circle cx="266.1" cy="304.9" r="4" fill="#5938e2" /><circle cx="273.9" cy="304.9" r="4" fill="#5938e2" /><circle cx="281.6" cy="304.9" r="4" fill="#5938e2" /><circle cx="289.4" cy="304.9" r="4" fill="#5938e2" /><circle cx="297.1" cy="304.9" r="4" fill="#5938e2" /><circle cx="304.9" cy="304.9" r="4" fill="#5938e2" /><circle cx="312.7" cy="304.9" r="4" fill="#5938e2" /><circle cx="320.4" cy="304.9" r="4" fill="#5938e2" /><circle cx="328.2" cy="304.9" r="4" fill="#5938e2" /><circle cx="335.9" cy="304.9" r="4" fill="#5938e2" /><circle cx="343.7" cy="304.9" r="4" fill="#5938e2" /><circle cx="351.4" cy="304.9" r="4" fill="#5938e2" /><circle cx="359.2" cy="304.9" r="4" fill="#5938e2" /><circle cx="366.9" cy="303.6" r="4" fill="#5938e2" /><circle cx="374.7" cy="303.6" r="4" fill="#5938e2" /><circle cx="382.4" cy="303.6" r="4" fill="#5938e2" /><circle cx="390.2" cy="303.6" r="4" fill="#5938e2" /><circle cx="398.0" cy="303.6" r="4" fill="#5938e2" /><circle cx="405.7" cy="303.6" r="4" fill="#5938e2" /><circle cx="413.5" cy="303.6" r="4" fill="#5938e2" /><circle cx="421.2" cy="303.6" r="4" fill="#5938e2" /><circle cx="429.0" cy="303.6" r="4" fill="#5938e2" /><circle cx="436.7" cy="303.6" r="4" fill="#5938e2" /><circle cx="444.5" cy="303.6" r="4" fill="#5938e2" /><circle cx="452.2" cy="303.6" r="4" fill="#5938e2" /><circle cx="460.0" cy="303.6" r="4" fill="#5938e2" /><circle cx="467.8" cy="303.6" r="4" fill="#5938e2" /><circle cx="475.5" cy="302.9" r="4" fill="#5938e2" /><circle cx="483.3" cy="302.9" r="4" fill="#5938e2" /><circle cx="491.0" cy="298.0" r="4" fill="#5938e2" /><circle cx="498.8" cy="298.0" r="4" fill="#5938e2" /><circle cx="506.5" cy="298.0" r="4" fill="#5938e2" /><circle cx="514.3" cy="298.0" r="4" fill="#5938e2" /><circle cx="522.0" cy="298.0" r="4" fill="#5938e2" /><circle cx="529.8" cy="298.0" r="4" fill="#5938e2" /><circle cx="537.6" cy="298.0" r="4" fill="#5938e2" /><circle cx="545.3" cy="298.0" r="4" fill="#5938e2" /><circle cx="553.1" cy="298.0" r="4" fill="#5938e2" /><circle cx="560.8" cy="298.0" r="4" fill="#5938e2" /><circle cx="568.6" cy="298.0" r="4" fill="#5938e2" /><circle cx="576.3" cy="298.0" r="4" fill="#5938e2" /><circle cx="584.1" cy="298.0" r="4" fill="#5938e2" /><circle cx="591.8" cy="298.0" r="4" fill="#5938e2" /><circle cx="599.6" cy="297.8" r="4" fill="#5938e2" /><circle cx="607.3" cy="297.8" r="4" fill="#5938e2" /><circle cx="615.1" cy="297.8" r="4" fill="#5938e2" /><circle cx="622.9" cy="297.8" r="4" fill="#5938e2" /><circle cx="630.6" cy="297.8" r="4" fill="#5938e2" /><circle cx="638.4" cy="297.8" r="4" fill="#5938e2" /><circle cx="646.1" cy="297.8" r="4" fill="#5938e2" /><circle cx="653.9" cy="297.8" r="4" fill="#5938e2" /><circle cx="661.6" cy="297.8" r="4" fill="#5938e2" /><circle cx="669.4" cy="297.8" r="4" fill="#5938e2" /><circle cx="677.1" cy="297.8" r="4" fill="#5938e2" /><circle cx="684.9" cy="297.8" r="4" fill="#5938e2" /><circle cx="692.7" cy="297.8" r="4" fill="#5938e2" /><circle cx="700.4" cy="297.8" r="4" fill="#5938e2" /><circle cx="708.2" cy="297.8" r="4" fill="#5938e2" /><circle cx="715.9" cy="297.8" r="4" fill="#5938e2" /><circle cx="723.7" cy="297.8" r="4" fill="#5938e2" /><circle cx="731.4" cy="297.8" r="4" fill="#5938e2" /><circle cx="739.2" cy="297.8" r="4" fill="#5938e2" /><circle cx="746.9" cy="297.6" r="4" fill="#5938e2" /><circle cx="754.7" cy="297.8" r="4" fill="#5938e2" /><circle cx="762.4" cy="297.8" r="4" fill="#5938e2" /><circle cx="770.2" cy="297.8" r="4" fill="#5938e2" /><circle cx="778.0" cy="297.9" r="4" fill="#5938e2" /><circle cx="785.7" cy="297.9" r="4" fill="#5938e2" /><circle cx="793.5" cy="297.9" r="4" fill="#5938e2" /><circle cx="801.2" cy="296.1" r="4" fill="#5938e2" /><circle cx="809.0" cy="296.1" r="4" fill="#5938e2" /><circle cx="816.7" cy="296.1" r="4" fill="#5938e2" /><circle cx="824.5" cy="296.1" r="4" fill="#5938e2" /><circle cx="832.2" cy="296.1" r="4" fill="#5938e2" /><circle cx="840.0" cy="296.1" r="4" fill="#5938e2" /><polyline points="80.0,144.6 87.8,140.1 95.5,139.9 103.3,139.8 111.0,139.8 118.8,139.6 126.5,139.6 134.3,139.6 142.0,139.6 149.8,139.6 157.6,138.4 165.3,138.4 173.1,138.4 180.8,138.4 188.6,138.4 196.3,138.4 204.1,138.4 211.8,137.4 219.6,137.4 227.3,137.4 235.1,137.4 242.9,137.4 250.6,137.4 258.4,137.4 266.1,137.4 273.9,137.4 281.6,137.4 289.4,137.4 297.1,131.2 304.9,131.2 312.7,130.8 320.4,130.4 328.2,126.9 335.9,126.9 343.7,126.9 351.4,126.9 359.2,126.9 366.9,126.9 374.7,126.9 382.4,126.9 390.2,126.9 398.0,126.8 405.7,122.1 413.5,120.4 421.2,120.4 429.0,120.4 436.7,120.4 444.5,120.4 452.2,119.4 460.0,119.4 467.8,119.4 475.5,119.4 483.3,119.1 491.0,118.8 498.8,118.8 506.5,117.8 514.3,117.8 522.0,117.8 529.8,115.8 537.6,115.8 545.3,115.0 553.1,115.0 560.8,115.0 568.6,115.0 576.3,115.0 584.1,115.0 591.8,115.0 599.6,113.9 607.3,111.8 615.1,111.8 622.9,111.8 630.6,111.8 638.4,111.8 646.1,111.8 653.9,111.8 661.6,111.8 669.4,111.8 677.1,111.8 684.9,110.6 692.7,110.6 700.4,110.6 708.2,110.6 715.9,110.6 723.7,109.4 731.4,109.4 739.2,109.4 746.9,109.4 754.7,109.2 762.4,109.2 770.2,109.2 778.0,109.2 785.7,109.2 793.5,109.2 801.2,109.2 809.0,109.2 816.7,109.2 824.5,109.2 832.2,109.2 840.0,109.2" fill="none" stroke="#60e5e0" stroke-width="2.5" stroke-linecap="round" stroke-linejoin="round" /><circle cx="80.0" cy="144.6" r="4" fill="#60e5e0" /><circle cx="87.8" cy="140.1" r="4" fill="#60e5e0" /><circle cx="95.5" cy="139.9" r="4" fill="#60e5e0" /><circle cx="103.3" cy="139.8" r="4" fill="#60e5e0" /><circle cx="111.0" cy="139.8" r="4" fill="#60e5e0" /><circle cx="118.8" cy="139.6" r="4" fill="#60e5e0" /><circle cx="126.5" cy="139.6" r="4" fill="#60e5e0" /><circle cx="134.3" cy="139.6" r="4" fill="#60e5e0" /><circle cx="142.0" cy="139.6" r="4" fill="#60e5e0" /><circle cx="149.8" cy="139.6" r="4" fill="#60e5e0" /><circle cx="157.6" cy="138.4" r="4" fill="#60e5e0" /><circle cx="165.3" cy="138.4" r="4" fill="#60e5e0" /><circle cx="173.1" cy="138.4" r="4" fill="#60e5e0" /><circle cx="180.8" cy="138.4" r="4" fill="#60e5e0" /><circle cx="188.6" cy="138.4" r="4" fill="#60e5e0" /><circle cx="196.3" cy="138.4" r="4" fill="#60e5e0" /><circle cx="204.1" cy="138.4" r="4" fill="#60e5e0" /><circle cx="211.8" cy="137.4" r="4" fill="#60e5e0" /><circle cx="219.6" cy="137.4" r="4" fill="#60e5e0" /><circle cx="227.3" cy="137.4" r="4" fill="#60e5e0" /><circle cx="235.1" cy="137.4" r="4" fill="#60e5e0" /><circle cx="242.9" cy="137.4" r="4" fill="#60e5e0" /><circle cx="250.6" cy="137.4" r="4" fill="#60e5e0" /><circle cx="258.4" cy="137.4" r="4" fill="#60e5e0" /><circle cx="266.1" cy="137.4" r="4" fill="#60e5e0" /><circle cx="273.9" cy="137.4" r="4" fill="#60e5e0" /><circle cx="281.6" cy="137.4" r="4" fill="#60e5e0" /><circle cx="289.4" cy="137.4" r="4" fill="#60e5e0" /><circle cx="297.1" cy="131.2" r="4" fill="#60e5e0" /><circle cx="304.9" cy="131.2" r="4" fill="#60e5e0" /><circle cx="312.7" cy="130.8" r="4" fill="#60e5e0" /><circle cx="320.4" cy="130.4" r="4" fill="#60e5e0" /><circle cx="328.2" cy="126.9" r="4" fill="#60e5e0" /><circle cx="335.9" cy="126.9" r="4" fill="#60e5e0" /><circle cx="343.7" cy="126.9" r="4" fill="#60e5e0" /><circle cx="351.4" cy="126.9" r="4" fill="#60e5e0" /><circle cx="359.2" cy="126.9" r="4" fill="#60e5e0" /><circle cx="366.9" cy="126.9" r="4" fill="#60e5e0" /><circle cx="374.7" cy="126.9" r="4" fill="#60e5e0" /><circle cx="382.4" cy="126.9" r="4" fill="#60e5e0" /><circle cx="390.2" cy="126.9" r="4" fill="#60e5e0" /><circle cx="398.0" cy="126.8" r="4" fill="#60e5e0" /><circle cx="405.7" cy="122.1" r="4" fill="#60e5e0" /><circle cx="413.5" cy="120.4" r="4" fill="#60e5e0" /><circle cx="421.2" cy="120.4" r="4" fill="#60e5e0" /><circle cx="429.0" cy="120.4" r="4" fill="#60e5e0" /><circle cx="436.7" cy="120.4" r="4" fill="#60e5e0" /><circle cx="444.5" cy="120.4" r="4" fill="#60e5e0" /><circle cx="452.2" cy="119.4" r="4" fill="#60e5e0" /><circle cx="460.0" cy="119.4" r="4" fill="#60e5e0" /><circle cx="467.8" cy="119.4" r="4" fill="#60e5e0" /><circle cx="475.5" cy="119.4" r="4" fill="#60e5e0" /><circle cx="483.3" cy="119.1" r="4" fill="#60e5e0" /><circle cx="491.0" cy="118.8" r="4" fill="#60e5e0" /><circle cx="498.8" cy="118.8" r="4" fill="#60e5e0" /><circle cx="506.5" cy="117.8" r="4" fill="#60e5e0" /><circle cx="514.3" cy="117.8" r="4" fill="#60e5e0" /><circle cx="522.0" cy="117.8" r="4" fill="#60e5e0" /><circle cx="529.8" cy="115.8" r="4" fill="#60e5e0" /><circle cx="537.6" cy="115.8" r="4" fill="#60e5e0" /><circle cx="545.3" cy="115.0" r="4" fill="#60e5e0" /><circle cx="553.1" cy="115.0" r="4" fill="#60e5e0" /><circle cx="560.8" cy="115.0" r="4" fill="#60e5e0" /><circle cx="568.6" cy="115.0" r="4" fill="#60e5e0" /><circle cx="576.3" cy="115.0" r="4" fill="#60e5e0" /><circle cx="584.1" cy="115.0" r="4" fill="#60e5e0" /><circle cx="591.8" cy="115.0" r="4" fill="#60e5e0" /><circle cx="599.6" cy="113.9" r="4" fill="#60e5e0" /><circle cx="607.3" cy="111.8" r="4" fill="#60e5e0" /><circle cx="615.1" cy="111.8" r="4" fill="#60e5e0" /><circle cx="622.9" cy="111.8" r="4" fill="#60e5e0" /><circle cx="630.6" cy="111.8" r="4" fill="#60e5e0" /><circle cx="638.4" cy="111.8" r="4" fill="#60e5e0" /><circle cx="646.1" cy="111.8" r="4" fill="#60e5e0" /><circle cx="653.9" cy="111.8" r="4" fill="#60e5e0" /><circle cx="661.6" cy="111.8" r="4" fill="#60e5e0" /><circle cx="669.4" cy="111.8" r="4" fill="#60e5e0" /><circle cx="677.1" cy="111.8" r="4" fill="#60e5e0" /><circle cx="684.9" cy="110.6" r="4" fill="#60e5e0" /><circle cx="692.7" cy="110.6" r="4" fill="#60e5e0" /><circle cx="700.4" cy="110.6" r="4" fill="#60e5e0" /><circle cx="708.2" cy="110.6" r="4" fill="#60e5e0" /><circle cx="715.9" cy="110.6" r="4" fill="#60e5e0" /><circle cx="723.7" cy="109.4" r="4" fill="#60e5e0" /><circle cx="731.4" cy="109.4" r="4" fill="#60e5e0" /><circle cx="739.2" cy="109.4" r="4" fill="#60e5e0" /><circle cx="746.9" cy="109.4" r="4" fill="#60e5e0" /><circle cx="754.7" cy="109.2" r="4" fill="#60e5e0" /><circle cx="762.4" cy="109.2" r="4" fill="#60e5e0" /><circle cx="770.2" cy="109.2" r="4" fill="#60e5e0" /><circle cx="778.0" cy="109.2" r="4" fill="#60e5e0" /><circle cx="785.7" cy="109.2" r="4" fill="#60e5e0" /><circle cx="793.5" cy="109.2" r="4" fill="#60e5e0" /><circle cx="801.2" cy="109.2" r="4" fill="#60e5e0" /><circle cx="809.0" cy="109.2" r="4" fill="#60e5e0" /><circle cx="816.7" cy="109.2" r="4" fill="#60e5e0" /><circle cx="824.5" cy="109.2" r="4" fill="#60e5e0" /><circle cx="832.2" cy="109.2" r="4" fill="#60e5e0" /><circle cx="840.0" cy="109.2" r="4" fill="#60e5e0" /><polyline points="80.0,314.6 87.8,314.4 95.5,314.2 103.3,314.2 111.0,314.2 118.8,314.1 126.5,314.1 134.3,314.1 142.0,314.1 149.8,314.1 157.6,314.0 165.3,314.0 173.1,314.0 180.8,314.0 188.6,314.0 196.3,314.0 204.1,314.0 211.8,314.0 219.6,314.0 227.3,314.0 235.1,314.0 242.9,314.0 250.6,314.0 258.4,314.0 266.1,314.0 273.9,314.0 281.6,314.0 289.4,314.0 297.1,314.0 304.9,314.0 312.7,314.0 320.4,314.0 328.2,314.0 335.9,314.0 343.7,314.0 351.4,314.0 359.2,314.0 366.9,314.0 374.7,314.0 382.4,314.0 390.2,314.0 398.0,313.9 405.7,313.6 413.5,313.4 421.2,313.4 429.0,313.4 436.7,313.4 444.5,313.4 452.2,313.1 460.0,313.1 467.8,313.1 475.5,313.1 483.3,313.1 491.0,313.0 498.8,313.0 506.5,312.9 514.3,312.9 522.0,312.9 529.8,312.8 537.6,312.8 545.3,312.6 553.1,312.6 560.8,312.6 568.6,312.6 576.3,312.6 584.1,312.6 591.8,312.6 599.6,312.5 607.3,312.1 615.1,312.1 622.9,312.1 630.6,312.1 638.4,312.1 646.1,312.1 653.9,312.1 661.6,312.1 669.4,312.1 677.1,312.1 684.9,312.0 692.7,312.0 700.4,312.0 708.2,312.0 715.9,312.0 723.7,312.0 731.4,312.0 739.2,312.0 746.9,312.0 754.7,312.0 762.4,312.0 770.2,312.0 778.0,312.0 785.7,312.0 793.5,312.0 801.2,312.0 809.0,312.0 816.7,312.0 824.5,312.0 832.2,312.0 840.0,312.0" fill="none" stroke="#567de1" stroke-width="2.5" stroke-linecap="round" stroke-linejoin="round" /><circle cx="80.0" cy="314.6" r="4" fill="#567de1" /><circle cx="87.8" cy="314.4" r="4" fill="#567de1" /><circle cx="95.5" cy="314.2" r="4" fill="#567de1" /><circle cx="103.3" cy="314.2" r="4" fill="#567de1" /><circle cx="111.0" cy="314.2" r="4" fill="#567de1" /><circle cx="118.8" cy="314.1" r="4" fill="#567de1" /><circle cx="126.5" cy="314.1" r="4" fill="#567de1" /><circle cx="134.3" cy="314.1" r="4" fill="#567de1" /><circle cx="142.0" cy="314.1" r="4" fill="#567de1" /><circle cx="149.8" cy="314.1" r="4" fill="#567de1" /><circle cx="157.6" cy="314.0" r="4" fill="#567de1" /><circle cx="165.3" cy="314.0" r="4" fill="#567de1" /><circle cx="173.1" cy="314.0" r="4" fill="#567de1" /><circle cx="180.8" cy="314.0" r="4" fill="#567de1" /><circle cx="188.6" cy="314.0" r="4" fill="#567de1" /><circle cx="196.3" cy="314.0" r="4" fill="#567de1" /><circle cx="204.1" cy="314.0" r="4" fill="#567de1" /><circle cx="211.8" cy="314.0" r="4" fill="#567de1" /><circle cx="219.6" cy="314.0" r="4" fill="#567de1" /><circle cx="227.3" cy="314.0" r="4" fill="#567de1" /><circle cx="235.1" cy="314.0" r="4" fill="#567de1" /><circle cx="242.9" cy="314.0" r="4" fill="#567de1" /><circle cx="250.6" cy="314.0" r="4" fill="#567de1" /><circle cx="258.4" cy="314.0" r="4" fill="#567de1" /><circle cx="266.1" cy="314.0" r="4" fill="#567de1" /><circle cx="273.9" cy="314.0" r="4" fill="#567de1" /><circle cx="281.6" cy="314.0" r="4" fill="#567de1" /><circle cx="289.4" cy="314.0" r="4" fill="#567de1" /><circle cx="297.1" cy="314.0" r="4" fill="#567de1" /><circle cx="304.9" cy="314.0" r="4" fill="#567de1" /><circle cx="312.7" cy="314.0" r="4" fill="#567de1" /><circle cx="320.4" cy="314.0" r="4" fill="#567de1" /><circle cx="328.2" cy="314.0" r="4" fill="#567de1" /><circle cx="335.9" cy="314.0" r="4" fill="#567de1" /><circle cx="343.7" cy="314.0" r="4" fill="#567de1" /><circle cx="351.4" cy="314.0" r="4" fill="#567de1" /><circle cx="359.2" cy="314.0" r="4" fill="#567de1" /><circle cx="366.9" cy="314.0" r="4" fill="#567de1" /><circle cx="374.7" cy="314.0" r="4" fill="#567de1" /><circle cx="382.4" cy="314.0" r="4" fill="#567de1" /><circle cx="390.2" cy="314.0" r="4" fill="#567de1" /><circle cx="398.0" cy="313.9" r="4" fill="#567de1" /><circle cx="405.7" cy="313.6" r="4" fill="#567de1" /><circle cx="413.5" cy="313.4" r="4" fill="#567de1" /><circle cx="421.2" cy="313.4" r="4" fill="#567de1" /><circle cx="429.0" cy="313.4" r="4" fill="#567de1" /><circle cx="436.7" cy="313.4" r="4" fill="#567de1" /><circle cx="444.5" cy="313.4" r="4" fill="#567de1" /><circle cx="452.2" cy="313.1" r="4" fill="#567de1" /><circle cx="460.0" cy="313.1" r="4" fill="#567de1" /><circle cx="467.8" cy="313.1" r="4" fill="#567de1" /><circle cx="475.5" cy="313.1" r="4" fill="#567de1" /><circle cx="483.3" cy="313.1" r="4" fill="#567de1" /><circle cx="491.0" cy="313.0" r="4" fill="#567de1" /><circle cx="498.8" cy="313.0" r="4" fill="#567de1" /><circle cx="506.5" cy="312.9" r="4" fill="#567de1" /><circle cx="514.3" cy="312.9" r="4" fill="#567de1" /><circle cx="522.0" cy="312.9" r="4" fill="#567de1" /><circle cx="529.8" cy="312.8" r="4" fill="#567de1" /><circle cx="537.6" cy="312.8" r="4" fill="#567de1" /><circle cx="545.3" cy="312.6" r="4" fill="#567de1" /><circle cx="553.1" cy="312.6" r="4" fill="#567de1" /><circle cx="560.8" cy="312.6" r="4" fill="#567de1" /><circle cx="568.6" cy="312.6" r="4" fill="#567de1" /><circle cx="576.3" cy="312.6" r="4" fill="#567de1" /><circle cx="584.1" cy="312.6" r="4" fill="#567de1" /><circle cx="591.8" cy="312.6" r="4" fill="#567de1" /><circle cx="599.6" cy="312.5" r="4" fill="#567de1" /><circle cx="607.3" cy="312.1" r="4" fill="#567de1" /><circle cx="615.1" cy="312.1" r="4" fill="#567de1" /><circle cx="622.9" cy="312.1" r="4" fill="#567de1" /><circle cx="630.6" cy="312.1" r="4" fill="#567de1" /><circle cx="638.4" cy="312.1" r="4" fill="#567de1" /><circle cx="646.1" cy="312.1" r="4" fill="#567de1" /><circle cx="653.9" cy="312.1" r="4" fill="#567de1" /><circle cx="661.6" cy="312.1" r="4" fill="#567de1" /><circle cx="669.4" cy="312.1" r="4" fill="#567de1" /><circle cx="677.1" cy="312.1" r="4" fill="#567de1" /><circle cx="684.9" cy="312.0" r="4" fill="#567de1" /><circle cx="692.7" cy="312.0" r="4" fill="#567de1" /><circle cx="700.4" cy="312.0" r="4" fill="#567de1" /><circle cx="708.2" cy="312.0" r="4" fill="#567de1" /><circle cx="715.9" cy="312.0" r="4" fill="#567de1" /><circle cx="723.7" cy="312.0" r="4" fill="#567de1" /><circle cx="731.4" cy="312.0" r="4" fill="#567de1" /><circle cx="739.2" cy="312.0" r="4" fill="#567de1" /><circle cx="746.9" cy="312.0" r="4" fill="#567de1" /><circle cx="754.7" cy="312.0" r="4" fill="#567de1" /><circle cx="762.4" cy="312.0" r="4" fill="#567de1" /><circle cx="770.2" cy="312.0" r="4" fill="#567de1" /><circle cx="778.0" cy="312.0" r="4" fill="#567de1" /><circle cx="785.7" cy="312.0" r="4" fill="#567de1" /><circle cx="793.5" cy="312.0" r="4" fill="#567de1" /><circle cx="801.2" cy="312.0" r="4" fill="#567de1" /><circle cx="809.0" cy="312.0" r="4" fill="#567de1" /><circle cx="816.7" cy="312.0" r="4" fill="#567de1" /><circle cx="824.5" cy="312.0" r="4" fill="#567de1" /><circle cx="832.2" cy="312.0" r="4" fill="#567de1" /><circle cx="840.0" cy="312.0" r="4" fill="#567de1" /><polyline points="80.0,303.9 87.8,304.2 95.5,304.4 103.3,304.4 111.0,304.4 118.8,304.4 126.5,304.4 134.3,304.4 142.0,304.4 149.8,304.4 157.6,304.4 165.3,304.4 173.1,304.4 180.8,304.4 188.6,304.4 196.3,304.4 204.1,304.4 211.8,304.4 219.6,304.4 227.3,304.4 235.1,304.4 242.9,304.4 250.6,304.4 258.4,304.4 266.1,304.4 273.9,304.4 281.6,304.4 289.4,304.4 297.1,299.1 304.9,299.1 312.7,299.1 320.4,298.9 328.2,295.6 335.9,295.6 343.7,295.6 351.4,295.6 359.2,295.6 366.9,295.6 374.7,295.6 382.4,295.6 390.2,295.6 398.0,295.8 405.7,295.9 413.5,295.9 421.2,295.9 429.0,295.9 436.7,295.9 444.5,295.9 452.2,295.9 460.0,295.9 467.8,295.9 475.5,295.9 483.3,295.9 491.0,295.9 498.8,295.9 506.5,295.9 514.3,295.9 522.0,295.9 529.8,295.8 537.6,295.8 545.3,295.9 553.1,295.9 560.8,295.9 568.6,295.9 576.3,295.9 584.1,295.9 591.8,295.9 599.6,296.0 607.3,296.4 615.1,296.4 622.9,296.4 630.6,296.4 638.4,296.4 646.1,296.4 653.9,296.4 661.6,296.4 669.4,296.4 677.1,296.4 684.9,296.5 692.7,296.5 700.4,296.5 708.2,296.5 715.9,296.5 723.7,296.5 731.4,296.5 739.2,296.5 746.9,296.5 754.7,296.5 762.4,296.5 770.2,296.5 778.0,296.5 785.7,296.5 793.5,296.5 801.2,296.5 809.0,296.5 816.7,296.5 824.5,296.5 832.2,296.5 840.0,296.5" fill="none" stroke="#9754dd" stroke-width="2.5" stroke-linecap="round" stroke-linejoin="round" /><circle cx="80.0" cy="303.9" r="4" fill="#9754dd" /><circle cx="87.8" cy="304.2" r="4" fill="#9754dd" /><circle cx="95.5" cy="304.4" r="4" fill="#9754dd" /><circle cx="103.3" cy="304.4" r="4" fill="#9754dd" /><circle cx="111.0" cy="304.4" r="4" fill="#9754dd" /><circle cx="118.8" cy="304.4" r="4" fill="#9754dd" /><circle cx="126.5" cy="304.4" r="4" fill="#9754dd" /><circle cx="134.3" cy="304.4" r="4" fill="#9754dd" /><circle cx="142.0" cy="304.4" r="4" fill="#9754dd" /><circle cx="149.8" cy="304.4" r="4" fill="#9754dd" /><circle cx="157.6" cy="304.4" r="4" fill="#9754dd" /><circle cx="165.3" cy="304.4" r="4" fill="#9754dd" /><circle cx="173.1" cy="304.4" r="4" fill="#9754dd" /><circle cx="180.8" cy="304.4" r="4" fill="#9754dd" /><circle cx="188.6" cy="304.4" r="4" fill="#9754dd" /><circle cx="196.3" cy="304.4" r="4" fill="#9754dd" /><circle cx="204.1" cy="304.4" r="4" fill="#9754dd" /><circle cx="211.8" cy="304.4" r="4" fill="#9754dd" /><circle cx="219.6" cy="304.4" r="4" fill="#9754dd" /><circle cx="227.3" cy="304.4" r="4" fill="#9754dd" /><circle cx="235.1" cy="304.4" r="4" fill="#9754dd" /><circle cx="242.9" cy="304.4" r="4" fill="#9754dd" /><circle cx="250.6" cy="304.4" r="4" fill="#9754dd" /><circle cx="258.4" cy="304.4" r="4" fill="#9754dd" /><circle cx="266.1" cy="304.4" r="4" fill="#9754dd" /><circle cx="273.9" cy="304.4" r="4" fill="#9754dd" /><circle cx="281.6" cy="304.4" r="4" fill="#9754dd" /><circle cx="289.4" cy="304.4" r="4" fill="#9754dd" /><circle cx="297.1" cy="299.1" r="4" fill="#9754dd" /><circle cx="304.9" cy="299.1" r="4" fill="#9754dd" /><circle cx="312.7" cy="299.1" r="4" fill="#9754dd" /><circle cx="320.4" cy="298.9" r="4" fill="#9754dd" /><circle cx="328.2" cy="295.6" r="4" fill="#9754dd" /><circle cx="335.9" cy="295.6" r="4" fill="#9754dd" /><circle cx="343.7" cy="295.6" r="4" fill="#9754dd" /><circle cx="351.4" cy="295.6" r="4" fill="#9754dd" /><circle cx="359.2" cy="295.6" r="4" fill="#9754dd" /><circle cx="366.9" cy="295.6" r="4" fill="#9754dd" /><circle cx="374.7" cy="295.6" r="4" fill="#9754dd" /><circle cx="382.4" cy="295.6" r="4" fill="#9754dd" /><circle cx="390.2" cy="295.6" r="4" fill="#9754dd" /><circle cx="398.0" cy="295.8" r="4" fill="#9754dd" /><circle cx="405.7" cy="295.9" r="4" fill="#9754dd" /><circle cx="413.5" cy="295.9" r="4" fill="#9754dd" /><circle cx="421.2" cy="295.9" r="4" fill="#9754dd" /><circle cx="429.0" cy="295.9" r="4" fill="#9754dd" /><circle cx="436.7" cy="295.9" r="4" fill="#9754dd" /><circle cx="444.5" cy="295.9" r="4" fill="#9754dd" /><circle cx="452.2" cy="295.9" r="4" fill="#9754dd" /><circle cx="460.0" cy="295.9" r="4" fill="#9754dd" /><circle cx="467.8" cy="295.9" r="4" fill="#9754dd" /><circle cx="475.5" cy="295.9" r="4" fill="#9754dd" /><circle cx="483.3" cy="295.9" r="4" fill="#9754dd" /><circle cx="491.0" cy="295.9" r="4" fill="#9754dd" /><circle cx="498.8" cy="295.9" r="4" fill="#9754dd" /><circle cx="506.5" cy="295.9" r="4" fill="#9754dd" /><circle cx="514.3" cy="295.9" r="4" fill="#9754dd" /><circle cx="522.0" cy="295.9" r="4" fill="#9754dd" /><circle cx="529.8" cy="295.8" r="4" fill="#9754dd" /><circle cx="537.6" cy="295.8" r="4" fill="#9754dd" /><circle cx="545.3" cy="295.9" r="4" fill="#9754dd" /><circle cx="553.1" cy="295.9" r="4" fill="#9754dd" /><circle cx="560.8" cy="295.9" r="4" fill="#9754dd" /><circle cx="568.6" cy="295.9" r="4" fill="#9754dd" /><circle cx="576.3" cy="295.9" r="4" fill="#9754dd" /><circle cx="584.1" cy="295.9" r="4" fill="#9754dd" /><circle cx="591.8" cy="295.9" r="4" fill="#9754dd" /><circle cx="599.6" cy="296.0" r="4" fill="#9754dd" /><circle cx="607.3" cy="296.4" r="4" fill="#9754dd" /><circle cx="615.1" cy="296.4" r="4" fill="#9754dd" /><circle cx="622.9" cy="296.4" r="4" fill="#9754dd" /><circle cx="630.6" cy="296.4" r="4" fill="#9754dd" /><circle cx="638.4" cy="296.4" r="4" fill="#9754dd" /><circle cx="646.1" cy="296.4" r="4" fill="#9754dd" /><circle cx="653.9" cy="296.4" r="4" fill="#9754dd" /><circle cx="661.6" cy="296.4" r="4" fill="#9754dd" /><circle cx="669.4" cy="296.4" r="4" fill="#9754dd" /><circle cx="677.1" cy="296.4" r="4" fill="#9754dd" /><circle cx="684.9" cy="296.5" r="4" fill="#9754dd" /><circle cx="692.7" cy="296.5" r="4" fill="#9754dd" /><circle cx="700.4" cy="296.5" r="4" fill="#9754dd" /><circle cx="708.2" cy="296.5" r="4" fill="#9754dd" /><circle cx="715.9" cy="296.5" r="4" fill="#9754dd" /><circle cx="723.7" cy="296.5" r="4" fill="#9754dd" /><circle cx="731.4" cy="296.5" r="4" fill="#9754dd" /><circle cx="739.2" cy="296.5" r="4" fill="#9754dd" /><circle cx="746.9" cy="296.5" r="4" fill="#9754dd" /><circle cx="754.7" cy="296.5" r="4" fill="#9754dd" /><circle cx="762.4" cy="296.5" r="4" fill="#9754dd" /><circle cx="770.2" cy="296.5" r="4" fill="#9754dd" /><circle cx="778.0" cy="296.5" r="4" fill="#9754dd" /><circle cx="785.7" cy="296.5" r="4" fill="#9754dd" /><circle cx="793.5" cy="296.5" r="4" fill="#9754dd" /><circle cx="801.2" cy="296.5" r="4" fill="#9754dd" /><circle cx="809.0" cy="296.5" r="4" fill="#9754dd" /><circle cx="816.7" cy="296.5" r="4" fill="#9754dd" /><circle cx="824.5" cy="296.5" r="4" fill="#9754dd" /><circle cx="832.2" cy="296.5" r="4" fill="#9754dd" /><circle cx="840.0" cy="296.5" r="4" fill="#9754dd" />
  <rect x="80" y="339" width="10" height="10" rx="2" ry="2" fill="#19e5a1" /><text x="96" y="348" class="legend-label">Stars</text><rect x="250" y="339" width="10" height="10" rx="2" ry="2" fill="#6eb6ec" /><text x="266" y="348" class="legend-label">Followers</text><rect x="420" y="339" width="10" height="10" rx="2" ry="2" fill="#5938e2" /><text x="436" y="348" class="legend-label">Following</text><rect x="590" y="339" width="10" height="10" rx="2" ry="2" fill="#60e5e0" /><text x="606" y="348" class="legend-label">Contributions</text><rect x="80" y="357" width="10" height="10" rx="2" ry="2" fill="#567de1" /><text x="96" y="366" class="legend-label">Pull Requests</text><rect x="250" y="357" width="10" height="10" rx="2" ry="2" fill="#9754dd" /><text x="266" y="366" class="legend-label">Issues</text>
</svg>
