<svg width="900" height="402" viewBox="0 0 900 402" xmlns="http://www.w3.org/2000/svg">
  <defs>
    <linearGradient id="history-gradient" x1="0%" y1="0%" x2="100%" y2="100%">
      <stop offset="0%" style="stop-color:#58a6ff;stop-opacity:1" />
      <stop offset="100%" style="stop-color:#a371f7;stop-opacity:1" />
    </linearGradient>
    <clipPath id="history-rounded">
      <rect x="0" y="0" width="900" height="402" rx="8" ry="8" />
    </clipPath>
  </defs>
  <style>
    .title {
      font-family: 'Segoe UI', Ubuntu, 'Helvetica Neue', sans-serif;
      font-size: 22px;
      font-weight: 700;
      fill: #58a6ff;
    }
    .subtitle {
      font-family: 'Segoe UI', Ubuntu, 'Helvetica Neue', sans-serif;
      font-size: 12px;
      font-weight: 500;
      fill: #8b949e;
    }
    .axis-label {
      font-family: 'Segoe UI', Ubuntu, 'Helvetica Neue', sans-serif;
      font-size: 10px;
      fill: #8b949e;
    }
    .grid-line {
      stroke: #30363d;
      stroke-width: 1;
      opacity: 0.3;
    }
    .legend-label {
      font-family: 'Segoe UI', Ubuntu, 'Helvetica Neue', sans-serif;
      font-size: 11px;
      fill: #c9d1d9;
      dominant-baseline: middle;
    }
  </style>
  <rect clip-path="url(#history-rounded)" width="100%" height="100%" fill="#0d1117" stroke="#30363d" stroke-width="1" />
  <rect x="0" y="396" width="900" height="6" fill="url(#history-gradient)" clip-path="url(#history-rounded)" />
  <text x="24" y="34" class="title">Leonardo Klein Stats History</text>
  <text x="24" y="54" class="subtitle">Period: 2026-02-20 to 2026-03-09</text>
  <text x="72" y="320.0" text-anchor="end" dominant-baseline="central" class="axis-label">0</text><text x="72" y="270.0" text-anchor="end" dominant-baseline="central" class="axis-label">400</text><text x="72" y="220.0" text-anchor="end" dominant-baseline="central" class="axis-label">800</text><text x="72" y="170.0" text-anchor="end" dominant-baseline="central" class="axis-label">1.2k</text><text x="72" y="120.0" text-anchor="end" dominant-baseline="central" class="axis-label">1.6k</text><text x="72" y="70.0" text-anchor="end" dominant-baseline="central" class="axis-label">2.0k</text>
  <text x="80.0" y="336" text-anchor="middle" class="axis-label">02-20</text><text x="150.7" y="336" text-anchor="middle" class="axis-label">02-22</text><text x="221.4" y="336" text-anchor="middle" class="axis-label">02-23</text><text x="292.1" y="336" text-anchor="middle" class="axis-label">02-25</text><text x="362.8" y="336" text-anchor="middle" class="axis-label">02-26</text><text x="433.5" y="336" text-anchor="middle" class="axis-label">02-28</text><text x="504.2" y="336" text-anchor="middle" class="axis-label">03-02</text><text x="574.9" y="336" text-anchor="middle" class="axis-label">03-03</text><text x="645.6" y="336" text-anchor="middle" class="axis-label">03-05</text><text x="716.3" y="336" text-anchor="middle" class="axis-label">03-06</text><text x="787.0" y="336" text-anchor="middle" class="axis-label">03-08</text><text x="840.0" y="336" text-anchor="middle" class="axis-label">03-09</text>
  <line x1="80" y1="320.0" x2="840" y2="320.0" class="grid-line" /><line x1="80" y1="270.0" x2="840" y2="270.0" class="grid-line" /><line x1="80" y1="220.0" x2="840" y2="220.0" class="grid-line" /><line x1="80" y1="170.0" x2="840" y2="170.0" class="grid-line" /><line x1="80" y1="120.0" x2="840" y2="120.0" class="grid-line" /><line x1="80" y1="70.0" x2="840" y2="70.0" class="grid-line" />
  <polyline points="80.0,317.0 88.8,317.0 97.7,317.0 106.5,317.0 115.3,317.0 124.2,317.0 133.0,317.0 141.9,317.0 150.7,317.0 159.5,317.0 168.4,317.0 177.2,317.0 186.0,317.0 194.9,317.0 203.7,317.0 212.6,317.0 221.4,317.0 230.2,317.0 239.1,317.0 247.9,317.0 256.7,317.0 265.6,317.0 274.4,317.0 283.3,317.0 292.1,317.0 300.9,317.0 309.8,317.0 318.6,317.0 327.4,317.0 336.3,317.0 345.1,317.0 354.0,317.0 362.8,317.0 371.6,317.0 380.5,317.0 389.3,317.0 398.1,317.0 407.0,317.0 415.8,317.0 424.7,317.0 433.5,317.0 442.3,317.0 451.2,317.0 460.0,317.0 468.8,317.0 477.7,317.0 486.5,317.0 495.3,317.0 504.2,317.0 513.0,317.0 521.9,317.0 530.7,317.0 539.5,317.0 548.4,317.0 557.2,317.0 566.0,317.0 574.9,317.0 583.7,317.0 592.6,317.0 601.4,317.0 610.2,317.0 619.1,317.0 627.9,317.0 636.7,317.0 645.6,317.0 654.4,317.0 663.3,317.0 672.1,317.0 680.9,317.0 689.8,317.0 698.6,317.0 707.4,317.0 716.3,317.0 725.1,317.0 734.0,317.0 742.8,317.0 751.6,317.0 760.5,317.0 769.3,317.0 778.1,317.0 787.0,317.0 795.8,317.0 804.7,317.0 813.5,317.0 822.3,317.0 831.2,317.0 840.0,317.0" fill="none" stroke="#19e5a1" stroke-width="2.5" stroke-linecap="round" stroke-linejoin="round" /><circle cx="80.0" cy="317.0" r="4" fill="#19e5a1" /><circle cx="88.8" cy="317.0" r="4" fill="#19e5a1" /><circle cx="97.7" cy="317.0" r="4" fill="#19e5a1" /><circle cx="106.5" cy="317.0" r="4" fill="#19e5a1" /><circle cx="115.3" cy="317.0" r="4" fill="#19e5a1" /><circle cx="124.2" cy="317.0" r="4" fill="#19e5a1" /><circle cx="133.0" cy="317.0" r="4" fill="#19e5a1" /><circle cx="141.9" cy="317.0" r="4" fill="#19e5a1" /><circle cx="150.7" cy="317.0" r="4" fill="#19e5a1" /><circle cx="159.5" cy="317.0" r="4" fill="#19e5a1" /><circle cx="168.4" cy="317.0" r="4" fill="#19e5a1" /><circle cx="177.2" cy="317.0" r="4" fill="#19e5a1" /><circle cx="186.0" cy="317.0" r="4" fill="#19e5a1" /><circle cx="194.9" cy="317.0" r="4" fill="#19e5a1" /><circle cx="203.7" cy="317.0" r="4" fill="#19e5a1" /><circle cx="212.6" cy="317.0" r="4" fill="#19e5a1" /><circle cx="221.4" cy="317.0" r="4" fill="#19e5a1" /><circle cx="230.2" cy="317.0" r="4" fill="#19e5a1" /><circle cx="239.1" cy="317.0" r="4" fill="#19e5a1" /><circle cx="247.9" cy="317.0" r="4" fill="#19e5a1" /><circle cx="256.7" cy="317.0" r="4" fill="#19e5a1" /><circle cx="265.6" cy="317.0" r="4" fill="#19e5a1" /><circle cx="274.4" cy="317.0" r="4" fill="#19e5a1" /><circle cx="283.3" cy="317.0" r="4" fill="#19e5a1" /><circle cx="292.1" cy="317.0" r="4" fill="#19e5a1" /><circle cx="300.9" cy="317.0" r="4" fill="#19e5a1" /><circle cx="309.8" cy="317.0" r="4" fill="#19e5a1" /><circle cx="318.6" cy="317.0" r="4" fill="#19e5a1" /><circle cx="327.4" cy="317.0" r="4" fill="#19e5a1" /><circle cx="336.3" cy="317.0" r="4" fill="#19e5a1" /><circle cx="345.1" cy="317.0" r="4" fill="#19e5a1" /><circle cx="354.0" cy="317.0" r="4" fill="#19e5a1" /><circle cx="362.8" cy="317.0" r="4" fill="#19e5a1" /><circle cx="371.6" cy="317.0" r="4" fill="#19e5a1" /><circle cx="380.5" cy="317.0" r="4" fill="#19e5a1" /><circle cx="389.3" cy="317.0" r="4" fill="#19e5a1" /><circle cx="398.1" cy="317.0" r="4" fill="#19e5a1" /><circle cx="407.0" cy="317.0" r="4" fill="#19e5a1" /><circle cx="415.8" cy="317.0" r="4" fill="#19e5a1" /><circle cx="424.7" cy="317.0" r="4" fill="#19e5a1" /><circle cx="433.5" cy="317.0" r="4" fill="#19e5a1" /><circle cx="442.3" cy="317.0" r="4" fill="#19e5a1" /><circle cx="451.2" cy="317.0" r="4" fill="#19e5a1" /><circle cx="460.0" cy="317.0" r="4" fill="#19e5a1" /><circle cx="468.8" cy="317.0" r="4" fill="#19e5a1" /><circle cx="477.7" cy="317.0" r="4" fill="#19e5a1" /><circle cx="486.5" cy="317.0" r="4" fill="#19e5a1" /><circle cx="495.3" cy="317.0" r="4" fill="#19e5a1" /><circle cx="504.2" cy="317.0" r="4" fill="#19e5a1" /><circle cx="513.0" cy="317.0" r="4" fill="#19e5a1" /><circle cx="521.9" cy="317.0" r="4" fill="#19e5a1" /><circle cx="530.7" cy="317.0" r="4" fill="#19e5a1" /><circle cx="539.5" cy="317.0" r="4" fill="#19e5a1" /><circle cx="548.4" cy="317.0" r="4" fill="#19e5a1" /><circle cx="557.2" cy="317.0" r="4" fill="#19e5a1" /><circle cx="566.0" cy="317.0" r="4" fill="#19e5a1" /><circle cx="574.9" cy="317.0" r="4" fill="#19e5a1" /><circle cx="583.7" cy="317.0" r="4" fill="#19e5a1" /><circle cx="592.6" cy="317.0" r="4" fill="#19e5a1" /><circle cx="601.4" cy="317.0" r="4" fill="#19e5a1" /><circle cx="610.2" cy="317.0" r="4" fill="#19e5a1" /><circle cx="619.1" cy="317.0" r="4" fill="#19e5a1" /><circle cx="627.9" cy="317.0" r="4" fill="#19e5a1" /><circle cx="636.7" cy="317.0" r="4" fill="#19e5a1" /><circle cx="645.6" cy="317.0" r="4" fill="#19e5a1" /><circle cx="654.4" cy="317.0" r="4" fill="#19e5a1" /><circle cx="663.3" cy="317.0" r="4" fill="#19e5a1" /><circle cx="672.1" cy="317.0" r="4" fill="#19e5a1" /><circle cx="680.9" cy="317.0" r="4" fill="#19e5a1" /><circle cx="689.8" cy="317.0" r="4" fill="#19e5a1" /><circle cx="698.6" cy="317.0" r="4" fill="#19e5a1" /><circle cx="707.4" cy="317.0" r="4" fill="#19e5a1" /><circle cx="716.3" cy="317.0" r="4" fill="#19e5a1" /><circle cx="725.1" cy="317.0" r="4" fill="#19e5a1" /><circle cx="734.0" cy="317.0" r="4" fill="#19e5a1" /><circle cx="742.8" cy="317.0" r="4" fill="#19e5a1" /><circle cx="751.6" cy="317.0" r="4" fill="#19e5a1" /><circle cx="760.5" cy="317.0" r="4" fill="#19e5a1" /><circle cx="769.3" cy="317.0" r="4" fill="#19e5a1" /><circle cx="778.1" cy="317.0" r="4" fill="#19e5a1" /><circle cx="787.0" cy="317.0" r="4" fill="#19e5a1" /><circle cx="795.8" cy="317.0" r="4" fill="#19e5a1" /><circle cx="804.7" cy="317.0" r="4" fill="#19e5a1" /><circle cx="813.5" cy="317.0" r="4" fill="#19e5a1" /><circle cx="822.3" cy="317.0" r="4" fill="#19e5a1" /><circle cx="831.2" cy="317.0" r="4" fill="#19e5a1" /><circle cx="840.0" cy="317.0" r="4" fill="#19e5a1" /><polyline points="80.0,313.2 88.8,312.2 97.7,312.1 106.5,312.4 115.3,312.4 124.2,312.4 133.0,312.1 141.9,312.0 150.7,311.9 159.5,311.9 168.4,311.8 177.2,311.8 186.0,311.5 194.9,311.5 203.7,311.5 212.6,311.2 221.4,311.2 230.2,311.1 239.1,311.1 247.9,311.1 256.7,310.9 265.6,311.0 274.4,310.8 283.3,310.8 292.1,310.8 300.9,310.8 309.8,310.4 318.6,310.2 327.4,310.4 336.3,310.4 345.1,310.4 354.0,310.4 362.8,310.4 371.6,310.2 380.5,310.2 389.3,310.1 398.1,310.1 407.0,309.8 415.8,309.6 424.7,309.6 433.5,309.6 442.3,309.6 451.2,309.5 460.0,309.4 468.8,309.4 477.7,309.4 486.5,309.4 495.3,309.2 504.2,309.2 513.0,309.2 521.9,309.4 530.7,309.4 539.5,309.5 548.4,309.2 557.2,309.2 566.0,309.4 574.9,309.2 583.7,309.2 592.6,309.2 601.4,309.2 610.2,309.2 619.1,309.1 627.9,309.1 636.7,309.1 645.6,309.1 654.4,309.0 663.3,309.0 672.1,308.9 680.9,308.9 689.8,308.9 698.6,308.6 707.4,308.6 716.3,308.6 725.1,308.6 734.0,308.6 742.8,308.6 751.6,308.6 760.5,308.6 769.3,308.6 778.1,308.6 787.0,308.6 795.8,308.6 804.7,308.6 813.5,307.8 822.3,307.8 831.2,307.6 840.0,307.6" fill="none" stroke="#6eb6ec" stroke-width="2.5" stroke-linecap="round" stroke-linejoin="round" /><circle cx="80.0" cy="313.2" r="4" fill="#6eb6ec" /><circle cx="88.8" cy="312.2" r="4" fill="#6eb6ec" /><circle cx="97.7" cy="312.1" r="4" fill="#6eb6ec" /><circle cx="106.5" cy="312.4" r="4" fill="#6eb6ec" /><circle cx="115.3" cy="312.4" r="4" fill="#6eb6ec" /><circle cx="124.2" cy="312.4" r="4" fill="#6eb6ec" /><circle cx="133.0" cy="312.1" r="4" fill="#6eb6ec" /><circle cx="141.9" cy="312.0" r="4" fill="#6eb6ec" /><circle cx="150.7" cy="311.9" r="4" fill="#6eb6ec" /><circle cx="159.5" cy="311.9" r="4" fill="#6eb6ec" /><circle cx="168.4" cy="311.8" r="4" fill="#6eb6ec" /><circle cx="177.2" cy="311.8" r="4" fill="#6eb6ec" /><circle cx="186.0" cy="311.5" r="4" fill="#6eb6ec" /><circle cx="194.9" cy="311.5" r="4" fill="#6eb6ec" /><circle cx="203.7" cy="311.5" r="4" fill="#6eb6ec" /><circle cx="212.6" cy="311.2" r="4" fill="#6eb6ec" /><circle cx="221.4" cy="311.2" r="4" fill="#6eb6ec" /><circle cx="230.2" cy="311.1" r="4" fill="#6eb6ec" /><circle cx="239.1" cy="311.1" r="4" fill="#6eb6ec" /><circle cx="247.9" cy="311.1" r="4" fill="#6eb6ec" /><circle cx="256.7" cy="310.9" r="4" fill="#6eb6ec" /><circle cx="265.6" cy="311.0" r="4" fill="#6eb6ec" /><circle cx="274.4" cy="310.8" r="4" fill="#6eb6ec" /><circle cx="283.3" cy="310.8" r="4" fill="#6eb6ec" /><circle cx="292.1" cy="310.8" r="4" fill="#6eb6ec" /><circle cx="300.9" cy="310.8" r="4" fill="#6eb6ec" /><circle cx="309.8" cy="310.4" r="4" fill="#6eb6ec" /><circle cx="318.6" cy="310.2" r="4" fill="#6eb6ec" /><circle cx="327.4" cy="310.4" r="4" fill="#6eb6ec" /><circle cx="336.3" cy="310.4" r="4" fill="#6eb6ec" /><circle cx="345.1" cy="310.4" r="4" fill="#6eb6ec" /><circle cx="354.0" cy="310.4" r="4" fill="#6eb6ec" /><circle cx="362.8" cy="310.4" r="4" fill="#6eb6ec" /><circle cx="371.6" cy="310.2" r="4" fill="#6eb6ec" /><circle cx="380.5" cy="310.2" r="4" fill="#6eb6ec" /><circle cx="389.3" cy="310.1" r="4" fill="#6eb6ec" /><circle cx="398.1" cy="310.1" r="4" fill="#6eb6ec" /><circle cx="407.0" cy="309.8" r="4" fill="#6eb6ec" /><circle cx="415.8" cy="309.6" r="4" fill="#6eb6ec" /><circle cx="424.7" cy="309.6" r="4" fill="#6eb6ec" /><circle cx="433.5" cy="309.6" r="4" fill="#6eb6ec" /><circle cx="442.3" cy="309.6" r="4" fill="#6eb6ec" /><circle cx="451.2" cy="309.5" r="4" fill="#6eb6ec" /><circle cx="460.0" cy="309.4" r="4" fill="#6eb6ec" /><circle cx="468.8" cy="309.4" r="4" fill="#6eb6ec" /><circle cx="477.7" cy="309.4" r="4" fill="#6eb6ec" /><circle cx="486.5" cy="309.4" r="4" fill="#6eb6ec" /><circle cx="495.3" cy="309.2" r="4" fill="#6eb6ec" /><circle cx="504.2" cy="309.2" r="4" fill="#6eb6ec" /><circle cx="513.0" cy="309.2" r="4" fill="#6eb6ec" /><circle cx="521.9" cy="309.4" r="4" fill="#6eb6ec" /><circle cx="530.7" cy="309.4" r="4" fill="#6eb6ec" /><circle cx="539.5" cy="309.5" r="4" fill="#6eb6ec" /><circle cx="548.4" cy="309.2" r="4" fill="#6eb6ec" /><circle cx="557.2" cy="309.2" r="4" fill="#6eb6ec" /><circle cx="566.0" cy="309.4" r="4" fill="#6eb6ec" /><circle cx="574.9" cy="309.2" r="4" fill="#6eb6ec" /><circle cx="583.7" cy="309.2" r="4" fill="#6eb6ec" /><circle cx="592.6" cy="309.2" r="4" fill="#6eb6ec" /><circle cx="601.4" cy="309.2" r="4" fill="#6eb6ec" /><circle cx="610.2" cy="309.2" r="4" fill="#6eb6ec" /><circle cx="619.1" cy="309.1" r="4" fill="#6eb6ec" /><circle cx="627.9" cy="309.1" r="4" fill="#6eb6ec" /><circle cx="636.7" cy="309.1" r="4" fill="#6eb6ec" /><circle cx="645.6" cy="309.1" r="4" fill="#6eb6ec" /><circle cx="654.4" cy="309.0" r="4" fill="#6eb6ec" /><circle cx="663.3" cy="309.0" r="4" fill="#6eb6ec" /><circle cx="672.1" cy="308.9" r="4" fill="#6eb6ec" /><circle cx="680.9" cy="308.9" r="4" fill="#6eb6ec" /><circle cx="689.8" cy="308.9" r="4" fill="#6eb6ec" /><circle cx="698.6" cy="308.6" r="4" fill="#6eb6ec" /><circle cx="707.4" cy="308.6" r="4" fill="#6eb6ec" /><circle cx="716.3" cy="308.6" r="4" fill="#6eb6ec" /><circle cx="725.1" cy="308.6" r="4" fill="#6eb6ec" /><circle cx="734.0" cy="308.6" r="4" fill="#6eb6ec" /><circle cx="742.8" cy="308.6" r="4" fill="#6eb6ec" /><circle cx="751.6" cy="308.6" r="4" fill="#6eb6ec" /><circle cx="760.5" cy="308.6" r="4" fill="#6eb6ec" /><circle cx="769.3" cy="308.6" r="4" fill="#6eb6ec" /><circle cx="778.1" cy="308.6" r="4" fill="#6eb6ec" /><circle cx="787.0" cy="308.6" r="4" fill="#6eb6ec" /><circle cx="795.8" cy="308.6" r="4" fill="#6eb6ec" /><circle cx="804.7" cy="308.6" r="4" fill="#6eb6ec" /><circle cx="813.5" cy="307.8" r="4" fill="#6eb6ec" /><circle cx="822.3" cy="307.8" r="4" fill="#6eb6ec" /><circle cx="831.2" cy="307.6" r="4" fill="#6eb6ec" /><circle cx="840.0" cy="307.6" r="4" fill="#6eb6ec" /><polyline points="80.0,305.8 88.8,305.8 97.7,305.8 106.5,305.8 115.3,305.8 124.2,305.8 133.0,305.8 141.9,305.8 150.7,305.8 159.5,305.8 168.4,304.9 177.2,304.9 186.0,304.9 194.9,304.9 203.7,304.9 212.6,304.9 221.4,304.9 230.2,304.9 239.1,304.9 247.9,304.9 256.7,304.9 265.6,304.9 274.4,304.9 283.3,304.9 292.1,304.9 300.9,304.9 309.8,304.9 318.6,304.9 327.4,304.9 336.3,304.9 345.1,304.9 354.0,304.9 362.8,304.9 371.6,304.9 380.5,304.9 389.3,304.9 398.1,304.9 407.0,303.6 415.8,303.6 424.7,303.6 433.5,303.6 442.3,303.6 451.2,303.6 460.0,303.6 468.8,303.6 477.7,303.6 486.5,303.6 495.3,303.6 504.2,303.6 513.0,303.6 521.9,303.6 530.7,302.9 539.5,302.9 548.4,298.0 557.2,298.0 566.0,298.0 574.9,298.0 583.7,298.0 592.6,298.0 601.4,298.0 610.2,298.0 619.1,298.0 627.9,298.0 636.7,298.0 645.6,298.0 654.4,298.0 663.3,298.0 672.1,297.8 680.9,297.8 689.8,297.8 698.6,297.8 707.4,297.8 716.3,297.8 725.1,297.8 734.0,297.8 742.8,297.8 751.6,297.8 760.5,297.8 769.3,297.8 778.1,297.8 787.0,297.8 795.8,297.8 804.7,297.8 813.5,297.8 822.3,297.8 831.2,297.8 840.0,297.6" fill="none" stroke="#5938e2" stroke-width="2.5" stroke-linecap="round" stroke-linejoin="round" /><circle cx="80.0" cy="305.8" r="4" fill="#5938e2" /><circle cx="88.8" cy="305.8" r="4" fill="#5938e2" /><circle cx="97.7" cy="305.8" r="4" fill="#5938e2" /><circle cx="106.5" cy="305.8" r="4" fill="#5938e2" /><circle cx="115.3" cy="305.8" r="4" fill="#5938e2" /><circle cx="124.2" cy="305.8" r="4" fill="#5938e2" /><circle cx="133.0" cy="305.8" r="4" fill="#5938e2" /><circle cx="141.9" cy="305.8" r="4" fill="#5938e2" /><circle cx="150.7" cy="305.8" r="4" fill="#5938e2" /><circle cx="159.5" cy="305.8" r="4" fill="#5938e2" /><circle cx="168.4" cy="304.9" r="4" fill="#5938e2" /><circle cx="177.2" cy="304.9" r="4" fill="#5938e2" /><circle cx="186.0" cy="304.9" r="4" fill="#5938e2" /><circle cx="194.9" cy="304.9" r="4" fill="#5938e2" /><circle cx="203.7" cy="304.9" r="4" fill="#5938e2" /><circle cx="212.6" cy="304.9" r="4" fill="#5938e2" /><circle cx="221.4" cy="304.9" r="4" fill="#5938e2" /><circle cx="230.2" cy="304.9" r="4" fill="#5938e2" /><circle cx="239.1" cy="304.9" r="4" fill="#5938e2" /><circle cx="247.9" cy="304.9" r="4" fill="#5938e2" /><circle cx="256.7" cy="304.9" r="4" fill="#5938e2" /><circle cx="265.6" cy="304.9" r="4" fill="#5938e2" /><circle cx="274.4" cy="304.9" r="4" fill="#5938e2" /><circle cx="283.3" cy="304.9" r="4" fill="#5938e2" /><circle cx="292.1" cy="304.9" r="4" fill="#5938e2" /><circle cx="300.9" cy="304.9" r="4" fill="#5938e2" /><circle cx="309.8" cy="304.9" r="4" fill="#5938e2" /><circle cx="318.6" cy="304.9" r="4" fill="#5938e2" /><circle cx="327.4" cy="304.9" r="4" fill="#5938e2" /><circle cx="336.3" cy="304.9" r="4" fill="#5938e2" /><circle cx="345.1" cy="304.9" r="4" fill="#5938e2" /><circle cx="354.0" cy="304.9" r="4" fill="#5938e2" /><circle cx="362.8" cy="304.9" r="4" fill="#5938e2" /><circle cx="371.6" cy="304.9" r="4" fill="#5938e2" /><circle cx="380.5" cy="304.9" r="4" fill="#5938e2" /><circle cx="389.3" cy="304.9" r="4" fill="#5938e2" /><circle cx="398.1" cy="304.9" r="4" fill="#5938e2" /><circle cx="407.0" cy="303.6" r="4" fill="#5938e2" /><circle cx="415.8" cy="303.6" r="4" fill="#5938e2" /><circle cx="424.7" cy="303.6" r="4" fill="#5938e2" /><circle cx="433.5" cy="303.6" r="4" fill="#5938e2" /><circle cx="442.3" cy="303.6" r="4" fill="#5938e2" /><circle cx="451.2" cy="303.6" r="4" fill="#5938e2" /><circle cx="460.0" cy="303.6" r="4" fill="#5938e2" /><circle cx="468.8" cy="303.6" r="4" fill="#5938e2" /><circle cx="477.7" cy="303.6" r="4" fill="#5938e2" /><circle cx="486.5" cy="303.6" r="4" fill="#5938e2" /><circle cx="495.3" cy="303.6" r="4" fill="#5938e2" /><circle cx="504.2" cy="303.6" r="4" fill="#5938e2" /><circle cx="513.0" cy="303.6" r="4" fill="#5938e2" /><circle cx="521.9" cy="303.6" r="4" fill="#5938e2" /><circle cx="530.7" cy="302.9" r="4" fill="#5938e2" /><circle cx="539.5" cy="302.9" r="4" fill="#5938e2" /><circle cx="548.4" cy="298.0" r="4" fill="#5938e2" /><circle cx="557.2" cy="298.0" r="4" fill="#5938e2" /><circle cx="566.0" cy="298.0" r="4" fill="#5938e2" /><circle cx="574.9" cy="298.0" r="4" fill="#5938e2" /><circle cx="583.7" cy="298.0" r="4" fill="#5938e2" /><circle cx="592.6" cy="298.0" r="4" fill="#5938e2" /><circle cx="601.4" cy="298.0" r="4" fill="#5938e2" /><circle cx="610.2" cy="298.0" r="4" fill="#5938e2" /><circle cx="619.1" cy="298.0" r="4" fill="#5938e2" /><circle cx="627.9" cy="298.0" r="4" fill="#5938e2" /><circle cx="636.7" cy="298.0" r="4" fill="#5938e2" /><circle cx="645.6" cy="298.0" r="4" fill="#5938e2" /><circle cx="654.4" cy="298.0" r="4" fill="#5938e2" /><circle cx="663.3" cy="298.0" r="4" fill="#5938e2" /><circle cx="672.1" cy="297.8" r="4" fill="#5938e2" /><circle cx="680.9" cy="297.8" r="4" fill="#5938e2" /><circle cx="689.8" cy="297.8" r="4" fill="#5938e2" /><circle cx="698.6" cy="297.8" r="4" fill="#5938e2" /><circle cx="707.4" cy="297.8" r="4" fill="#5938e2" /><circle cx="716.3" cy="297.8" r="4" fill="#5938e2" /><circle cx="725.1" cy="297.8" r="4" fill="#5938e2" /><circle cx="734.0" cy="297.8" r="4" fill="#5938e2" /><circle cx="742.8" cy="297.8" r="4" fill="#5938e2" /><circle cx="751.6" cy="297.8" r="4" fill="#5938e2" /><circle cx="760.5" cy="297.8" r="4" fill="#5938e2" /><circle cx="769.3" cy="297.8" r="4" fill="#5938e2" /><circle cx="778.1" cy="297.8" r="4" fill="#5938e2" /><circle cx="787.0" cy="297.8" r="4" fill="#5938e2" /><circle cx="795.8" cy="297.8" r="4" fill="#5938e2" /><circle cx="804.7" cy="297.8" r="4" fill="#5938e2" /><circle cx="813.5" cy="297.8" r="4" fill="#5938e2" /><circle cx="822.3" cy="297.8" r="4" fill="#5938e2" /><circle cx="831.2" cy="297.8" r="4" fill="#5938e2" /><circle cx="840.0" cy="297.6" r="4" fill="#5938e2" /><polyline points="80.0,144.6 88.8,140.1 97.7,139.9 106.5,139.8 115.3,139.8 124.2,139.6 133.0,139.6 141.9,139.6 150.7,139.6 159.5,139.6 168.4,138.4 177.2,138.4 186.0,138.4 194.9,138.4 203.7,138.4 212.6,138.4 221.4,138.4 230.2,137.4 239.1,137.4 247.9,137.4 256.7,137.4 265.6,137.4 274.4,137.4 283.3,137.4 292.1,137.4 300.9,137.4 309.8,137.4 318.6,137.4 327.4,131.2 336.3,131.2 345.1,130.8 354.0,130.4 362.8,126.9 371.6,126.9 380.5,126.9 389.3,126.9 398.1,126.9 407.0,126.9 415.8,126.9 424.7,126.9 433.5,126.9 442.3,126.8 451.2,122.1 460.0,120.4 468.8,120.4 477.7,120.4 486.5,120.4 495.3,120.4 504.2,119.4 513.0,119.4 521.9,119.4 530.7,119.4 539.5,119.1 548.4,118.8 557.2,118.8 566.0,117.8 574.9,117.8 583.7,117.8 592.6,115.8 601.4,115.8 610.2,115.0 619.1,115.0 627.9,115.0 636.7,115.0 645.6,115.0 654.4,115.0 663.3,115.0 672.1,113.9 680.9,111.8 689.8,111.8 698.6,111.8 707.4,111.8 716.3,111.8 725.1,111.8 734.0,111.8 742.8,111.8 751.6,111.8 760.5,111.8 769.3,110.6 778.1,110.6 787.0,110.6 795.8,110.6 804.7,110.6 813.5,109.4 822.3,109.4 831.2,109.4 840.0,109.4" fill="none" stroke="#60e5e0" stroke-width="2.5" stroke-linecap="round" stroke-linejoin="round" /><circle cx="80.0" cy="144.6" r="4" fill="#60e5e0" /><circle cx="88.8" cy="140.1" r="4" fill="#60e5e0" /><circle cx="97.7" cy="139.9" r="4" fill="#60e5e0" /><circle cx="106.5" cy="139.8" r="4" fill="#60e5e0" /><circle cx="115.3" cy="139.8" r="4" fill="#60e5e0" /><circle cx="124.2" cy="139.6" r="4" fill="#60e5e0" /><circle cx="133.0" cy="139.6" r="4" fill="#60e5e0" /><circle cx="141.9" cy="139.6" r="4" fill="#60e5e0" /><circle cx="150.7" cy="139.6" r="4" fill="#60e5e0" /><circle cx="159.5" cy="139.6" r="4" fill="#60e5e0" /><circle cx="168.4" cy="138.4" r="4" fill="#60e5e0" /><circle cx="177.2" cy="138.4" r="4" fill="#60e5e0" /><circle cx="186.0" cy="138.4" r="4" fill="#60e5e0" /><circle cx="194.9" cy="138.4" r="4" fill="#60e5e0" /><circle cx="203.7" cy="138.4" r="4" fill="#60e5e0" /><circle cx="212.6" cy="138.4" r="4" fill="#60e5e0" /><circle cx="221.4" cy="138.4" r="4" fill="#60e5e0" /><circle cx="230.2" cy="137.4" r="4" fill="#60e5e0" /><circle cx="239.1" cy="137.4" r="4" fill="#60e5e0" /><circle cx="247.9" cy="137.4" r="4" fill="#60e5e0" /><circle cx="256.7" cy="137.4" r="4" fill="#60e5e0" /><circle cx="265.6" cy="137.4" r="4" fill="#60e5e0" /><circle cx="274.4" cy="137.4" r="4" fill="#60e5e0" /><circle cx="283.3" cy="137.4" r="4" fill="#60e5e0" /><circle cx="292.1" cy="137.4" r="4" fill="#60e5e0" /><circle cx="300.9" cy="137.4" r="4" fill="#60e5e0" /><circle cx="309.8" cy="137.4" r="4" fill="#60e5e0" /><circle cx="318.6" cy="137.4" r="4" fill="#60e5e0" /><circle cx="327.4" cy="131.2" r="4" fill="#60e5e0" /><circle cx="336.3" cy="131.2" r="4" fill="#60e5e0" /><circle cx="345.1" cy="130.8" r="4" fill="#60e5e0" /><circle cx="354.0" cy="130.4" r="4" fill="#60e5e0" /><circle cx="362.8" cy="126.9" r="4" fill="#60e5e0" /><circle cx="371.6" cy="126.9" r="4" fill="#60e5e0" /><circle cx="380.5" cy="126.9" r="4" fill="#60e5e0" /><circle cx="389.3" cy="126.9" r="4" fill="#60e5e0" /><circle cx="398.1" cy="126.9" r="4" fill="#60e5e0" /><circle cx="407.0" cy="126.9" r="4" fill="#60e5e0" /><circle cx="415.8" cy="126.9" r="4" fill="#60e5e0" /><circle cx="424.7" cy="126.9" r="4" fill="#60e5e0" /><circle cx="433.5" cy="126.9" r="4" fill="#60e5e0" /><circle cx="442.3" cy="126.8" r="4" fill="#60e5e0" /><circle cx="451.2" cy="122.1" r="4" fill="#60e5e0" /><circle cx="460.0" cy="120.4" r="4" fill="#60e5e0" /><circle cx="468.8" cy="120.4" r="4" fill="#60e5e0" /><circle cx="477.7" cy="120.4" r="4" fill="#60e5e0" /><circle cx="486.5" cy="120.4" r="4" fill="#60e5e0" /><circle cx="495.3" cy="120.4" r="4" fill="#60e5e0" /><circle cx="504.2" cy="119.4" r="4" fill="#60e5e0" /><circle cx="513.0" cy="119.4" r="4" fill="#60e5e0" /><circle cx="521.9" cy="119.4" r="4" fill="#60e5e0" /><circle cx="530.7" cy="119.4" r="4" fill="#60e5e0" /><circle cx="539.5" cy="119.1" r="4" fill="#60e5e0" /><circle cx="548.4" cy="118.8" r="4" fill="#60e5e0" /><circle cx="557.2" cy="118.8" r="4" fill="#60e5e0" /><circle cx="566.0" cy="117.8" r="4" fill="#60e5e0" /><circle cx="574.9" cy="117.8" r="4" fill="#60e5e0" /><circle cx="583.7" cy="117.8" r="4" fill="#60e5e0" /><circle cx="592.6" cy="115.8" r="4" fill="#60e5e0" /><circle cx="601.4" cy="115.8" r="4" fill="#60e5e0" /><circle cx="610.2" cy="115.0" r="4" fill="#60e5e0" /><circle cx="619.1" cy="115.0" r="4" fill="#60e5e0" /><circle cx="627.9" cy="115.0" r="4" fill="#60e5e0" /><circle cx="636.7" cy="115.0" r="4" fill="#60e5e0" /><circle cx="645.6" cy="115.0" r="4" fill="#60e5e0" /><circle cx="654.4" cy="115.0" r="4" fill="#60e5e0" /><circle cx="663.3" cy="115.0" r="4" fill="#60e5e0" /><circle cx="672.1" cy="113.9" r="4" fill="#60e5e0" /><circle cx="680.9" cy="111.8" r="4" fill="#60e5e0" /><circle cx="689.8" cy="111.8" r="4" fill="#60e5e0" /><circle cx="698.6" cy="111.8" r="4" fill="#60e5e0" /><circle cx="707.4" cy="111.8" r="4" fill="#60e5e0" /><circle cx="716.3" cy="111.8" r="4" fill="#60e5e0" /><circle cx="725.1" cy="111.8" r="4" fill="#60e5e0" /><circle cx="734.0" cy="111.8" r="4" fill="#60e5e0" /><circle cx="742.8" cy="111.8" r="4" fill="#60e5e0" /><circle cx="751.6" cy="111.8" r="4" fill="#60e5e0" /><circle cx="760.5" cy="111.8" r="4" fill="#60e5e0" /><circle cx="769.3" cy="110.6" r="4" fill="#60e5e0" /><circle cx="778.1" cy="110.6" r="4" fill="#60e5e0" /><circle cx="787.0" cy="110.6" r="4" fill="#60e5e0" /><circle cx="795.8" cy="110.6" r="4" fill="#60e5e0" /><circle cx="804.7" cy="110.6" r="4" fill="#60e5e0" /><circle cx="813.5" cy="109.4" r="4" fill="#60e5e0" /><circle cx="822.3" cy="109.4" r="4" fill="#60e5e0" /><circle cx="831.2" cy="109.4" r="4" fill="#60e5e0" /><circle cx="840.0" cy="109.4" r="4" fill="#60e5e0" /><polyline points="80.0,314.6 88.8,314.4 97.7,314.2 106.5,314.2 115.3,314.2 124.2,314.1 133.0,314.1 141.9,314.1 150.7,314.1 159.5,314.1 168.4,314.0 177.2,314.0 186.0,314.0 194.9,314.0 203.7,314.0 212.6,314.0 221.4,314.0 230.2,314.0 239.1,314.0 247.9,314.0 256.7,314.0 265.6,314.0 274.4,314.0 283.3,314.0 292.1,314.0 300.9,314.0 309.8,314.0 318.6,314.0 327.4,314.0 336.3,314.0 345.1,314.0 354.0,314.0 362.8,314.0 371.6,314.0 380.5,314.0 389.3,314.0 398.1,314.0 407.0,314.0 415.8,314.0 424.7,314.0 433.5,314.0 442.3,313.9 451.2,313.6 460.0,313.4 468.8,313.4 477.7,313.4 486.5,313.4 495.3,313.4 504.2,313.1 513.0,313.1 521.9,313.1 530.7,313.1 539.5,313.1 548.4,313.0 557.2,313.0 566.0,312.9 574.9,312.9 583.7,312.9 592.6,312.8 601.4,312.8 610.2,312.6 619.1,312.6 627.9,312.6 636.7,312.6 645.6,312.6 654.4,312.6 663.3,312.6 672.1,312.5 680.9,312.1 689.8,312.1 698.6,312.1 707.4,312.1 716.3,312.1 725.1,312.1 734.0,312.1 742.8,312.1 751.6,312.1 760.5,312.1 769.3,312.0 778.1,312.0 787.0,312.0 795.8,312.0 804.7,312.0 813.5,312.0 822.3,312.0 831.2,312.0 840.0,312.0" fill="none" stroke="#567de1" stroke-width="2.5" stroke-linecap="round" stroke-linejoin="round" /><circle cx="80.0" cy="314.6" r="4" fill="#567de1" /><circle cx="88.8" cy="314.4" r="4" fill="#567de1" /><circle cx="97.7" cy="314.2" r="4" fill="#567de1" /><circle cx="106.5" cy="314.2" r="4" fill="#567de1" /><circle cx="115.3" cy="314.2" r="4" fill="#567de1" /><circle cx="124.2" cy="314.1" r="4" fill="#567de1" /><circle cx="133.0" cy="314.1" r="4" fill="#567de1" /><circle cx="141.9" cy="314.1" r="4" fill="#567de1" /><circle cx="150.7" cy="314.1" r="4" fill="#567de1" /><circle cx="159.5" cy="314.1" r="4" fill="#567de1" /><circle cx="168.4" cy="314.0" r="4" fill="#567de1" /><circle cx="177.2" cy="314.0" r="4" fill="#567de1" /><circle cx="186.0" cy="314.0" r="4" fill="#567de1" /><circle cx="194.9" cy="314.0" r="4" fill="#567de1" /><circle cx="203.7" cy="314.0" r="4" fill="#567de1" /><circle cx="212.6" cy="314.0" r="4" fill="#567de1" /><circle cx="221.4" cy="314.0" r="4" fill="#567de1" /><circle cx="230.2" cy="314.0" r="4" fill="#567de1" /><circle cx="239.1" cy="314.0" r="4" fill="#567de1" /><circle cx="247.9" cy="314.0" r="4" fill="#567de1" /><circle cx="256.7" cy="314.0" r="4" fill="#567de1" /><circle cx="265.6" cy="314.0" r="4" fill="#567de1" /><circle cx="274.4" cy="314.0" r="4" fill="#567de1" /><circle cx="283.3" cy="314.0" r="4" fill="#567de1" /><circle cx="292.1" cy="314.0" r="4" fill="#567de1" /><circle cx="300.9" cy="314.0" r="4" fill="#567de1" /><circle cx="309.8" cy="314.0" r="4" fill="#567de1" /><circle cx="318.6" cy="314.0" r="4" fill="#567de1" /><circle cx="327.4" cy="314.0" r="4" fill="#567de1" /><circle cx="336.3" cy="314.0" r="4" fill="#567de1" /><circle cx="345.1" cy="314.0" r="4" fill="#567de1" /><circle cx="354.0" cy="314.0" r="4" fill="#567de1" /><circle cx="362.8" cy="314.0" r="4" fill="#567de1" /><circle cx="371.6" cy="314.0" r="4" fill="#567de1" /><circle cx="380.5" cy="314.0" r="4" fill="#567de1" /><circle cx="389.3" cy="314.0" r="4" fill="#567de1" /><circle cx="398.1" cy="314.0" r="4" fill="#567de1" /><circle cx="407.0" cy="314.0" r="4" fill="#567de1" /><circle cx="415.8" cy="314.0" r="4" fill="#567de1" /><circle cx="424.7" cy="314.0" r="4" fill="#567de1" /><circle cx="433.5" cy="314.0" r="4" fill="#567de1" /><circle cx="442.3" cy="313.9" r="4" fill="#567de1" /><circle cx="451.2" cy="313.6" r="4" fill="#567de1" /><circle cx="460.0" cy="313.4" r="4" fill="#567de1" /><circle cx="468.8" cy="313.4" r="4" fill="#567de1" /><circle cx="477.7" cy="313.4" r="4" fill="#567de1" /><circle cx="486.5" cy="313.4" r="4" fill="#567de1" /><circle cx="495.3" cy="313.4" r="4" fill="#567de1" /><circle cx="504.2" cy="313.1" r="4" fill="#567de1" /><circle cx="513.0" cy="313.1" r="4" fill="#567de1" /><circle cx="521.9" cy="313.1" r="4" fill="#567de1" /><circle cx="530.7" cy="313.1" r="4" fill="#567de1" /><circle cx="539.5" cy="313.1" r="4" fill="#567de1" /><circle cx="548.4" cy="313.0" r="4" fill="#567de1" /><circle cx="557.2" cy="313.0" r="4" fill="#567de1" /><circle cx="566.0" cy="312.9" r="4" fill="#567de1" /><circle cx="574.9" cy="312.9" r="4" fill="#567de1" /><circle cx="583.7" cy="312.9" r="4" fill="#567de1" /><circle cx="592.6" cy="312.8" r="4" fill="#567de1" /><circle cx="601.4" cy="312.8" r="4" fill="#567de1" /><circle cx="610.2" cy="312.6" r="4" fill="#567de1" /><circle cx="619.1" cy="312.6" r="4" fill="#567de1" /><circle cx="627.9" cy="312.6" r="4" fill="#567de1" /><circle cx="636.7" cy="312.6" r="4" fill="#567de1" /><circle cx="645.6" cy="312.6" r="4" fill="#567de1" /><circle cx="654.4" cy="312.6" r="4" fill="#567de1" /><circle cx="663.3" cy="312.6" r="4" fill="#567de1" /><circle cx="672.1" cy="312.5" r="4" fill="#567de1" /><circle cx="680.9" cy="312.1" r="4" fill="#567de1" /><circle cx="689.8" cy="312.1" r="4" fill="#567de1" /><circle cx="698.6" cy="312.1" r="4" fill="#567de1" /><circle cx="707.4" cy="312.1" r="4" fill="#567de1" /><circle cx="716.3" cy="312.1" r="4" fill="#567de1" /><circle cx="725.1" cy="312.1" r="4" fill="#567de1" /><circle cx="734.0" cy="312.1" r="4" fill="#567de1" /><circle cx="742.8" cy="312.1" r="4" fill="#567de1" /><circle cx="751.6" cy="312.1" r="4" fill="#567de1" /><circle cx="760.5" cy="312.1" r="4" fill="#567de1" /><circle cx="769.3" cy="312.0" r="4" fill="#567de1" /><circle cx="778.1" cy="312.0" r="4" fill="#567de1" /><circle cx="787.0" cy="312.0" r="4" fill="#567de1" /><circle cx="795.8" cy="312.0" r="4" fill="#567de1" /><circle cx="804.7" cy="312.0" r="4" fill="#567de1" /><circle cx="813.5" cy="312.0" r="4" fill="#567de1" /><circle cx="822.3" cy="312.0" r="4" fill="#567de1" /><circle cx="831.2" cy="312.0" r="4" fill="#567de1" /><circle cx="840.0" cy="312.0" r="4" fill="#567de1" /><polyline points="80.0,303.9 88.8,304.2 97.7,304.4 106.5,304.4 115.3,304.4 124.2,304.4 133.0,304.4 141.9,304.4 150.7,304.4 159.5,304.4 168.4,304.4 177.2,304.4 186.0,304.4 194.9,304.4 203.7,304.4 212.6,304.4 221.4,304.4 230.2,304.4 239.1,304.4 247.9,304.4 256.7,304.4 265.6,304.4 274.4,304.4 283.3,304.4 292.1,304.4 300.9,304.4 309.8,304.4 318.6,304.4 327.4,299.1 336.3,299.1 345.1,299.1 354.0,298.9 362.8,295.6 371.6,295.6 380.5,295.6 389.3,295.6 398.1,295.6 407.0,295.6 415.8,295.6 424.7,295.6 433.5,295.6 442.3,295.8 451.2,295.9 460.0,295.9 468.8,295.9 477.7,295.9 486.5,295.9 495.3,295.9 504.2,295.9 513.0,295.9 521.9,295.9 530.7,295.9 539.5,295.9 548.4,295.9 557.2,295.9 566.0,295.9 574.9,295.9 583.7,295.9 592.6,295.8 601.4,295.8 610.2,295.9 619.1,295.9 627.9,295.9 636.7,295.9 645.6,295.9 654.4,295.9 663.3,295.9 672.1,296.0 680.9,296.4 689.8,296.4 698.6,296.4 707.4,296.4 716.3,296.4 725.1,296.4 734.0,296.4 742.8,296.4 751.6,296.4 760.5,296.4 769.3,296.5 778.1,296.5 787.0,296.5 795.8,296.5 804.7,296.5 813.5,296.5 822.3,296.5 831.2,296.5 840.0,296.5" fill="none" stroke="#9754dd" stroke-width="2.5" stroke-linecap="round" stroke-linejoin="round" /><circle cx="80.0" cy="303.9" r="4" fill="#9754dd" /><circle cx="88.8" cy="304.2" r="4" fill="#9754dd" /><circle cx="97.7" cy="304.4" r="4" fill="#9754dd" /><circle cx="106.5" cy="304.4" r="4" fill="#9754dd" /><circle cx="115.3" cy="304.4" r="4" fill="#9754dd" /><circle cx="124.2" cy="304.4" r="4" fill="#9754dd" /><circle cx="133.0" cy="304.4" r="4" fill="#9754dd" /><circle cx="141.9" cy="304.4" r="4" fill="#9754dd" /><circle cx="150.7" cy="304.4" r="4" fill="#9754dd" /><circle cx="159.5" cy="304.4" r="4" fill="#9754dd" /><circle cx="168.4" cy="304.4" r="4" fill="#9754dd" /><circle cx="177.2" cy="304.4" r="4" fill="#9754dd" /><circle cx="186.0" cy="304.4" r="4" fill="#9754dd" /><circle cx="194.9" cy="304.4" r="4" fill="#9754dd" /><circle cx="203.7" cy="304.4" r="4" fill="#9754dd" /><circle cx="212.6" cy="304.4" r="4" fill="#9754dd" /><circle cx="221.4" cy="304.4" r="4" fill="#9754dd" /><circle cx="230.2" cy="304.4" r="4" fill="#9754dd" /><circle cx="239.1" cy="304.4" r="4" fill="#9754dd" /><circle cx="247.9" cy="304.4" r="4" fill="#9754dd" /><circle cx="256.7" cy="304.4" r="4" fill="#9754dd" /><circle cx="265.6" cy="304.4" r="4" fill="#9754dd" /><circle cx="274.4" cy="304.4" r="4" fill="#9754dd" /><circle cx="283.3" cy="304.4" r="4" fill="#9754dd" /><circle cx="292.1" cy="304.4" r="4" fill="#9754dd" /><circle cx="300.9" cy="304.4" r="4" fill="#9754dd" /><circle cx="309.8" cy="304.4" r="4" fill="#9754dd" /><circle cx="318.6" cy="304.4" r="4" fill="#9754dd" /><circle cx="327.4" cy="299.1" r="4" fill="#9754dd" /><circle cx="336.3" cy="299.1" r="4" fill="#9754dd" /><circle cx="345.1" cy="299.1" r="4" fill="#9754dd" /><circle cx="354.0" cy="298.9" r="4" fill="#9754dd" /><circle cx="362.8" cy="295.6" r="4" fill="#9754dd" /><circle cx="371.6" cy="295.6" r="4" fill="#9754dd" /><circle cx="380.5" cy="295.6" r="4" fill="#9754dd" /><circle cx="389.3" cy="295.6" r="4" fill="#9754dd" /><circle cx="398.1" cy="295.6" r="4" fill="#9754dd" /><circle cx="407.0" cy="295.6" r="4" fill="#9754dd" /><circle cx="415.8" cy="295.6" r="4" fill="#9754dd" /><circle cx="424.7" cy="295.6" r="4" fill="#9754dd" /><circle cx="433.5" cy="295.6" r="4" fill="#9754dd" /><circle cx="442.3" cy="295.8" r="4" fill="#9754dd" /><circle cx="451.2" cy="295.9" r="4" fill="#9754dd" /><circle cx="460.0" cy="295.9" r="4" fill="#9754dd" /><circle cx="468.8" cy="295.9" r="4" fill="#9754dd" /><circle cx="477.7" cy="295.9" r="4" fill="#9754dd" /><circle cx="486.5" cy="295.9" r="4" fill="#9754dd" /><circle cx="495.3" cy="295.9" r="4" fill="#9754dd" /><circle cx="504.2" cy="295.9" r="4" fill="#9754dd" /><circle cx="513.0" cy="295.9" r="4" fill="#9754dd" /><circle cx="521.9" cy="295.9" r="4" fill="#9754dd" /><circle cx="530.7" cy="295.9" r="4" fill="#9754dd" /><circle cx="539.5" cy="295.9" r="4" fill="#9754dd" /><circle cx="548.4" cy="295.9" r="4" fill="#9754dd" /><circle cx="557.2" cy="295.9" r="4" fill="#9754dd" /><circle cx="566.0" cy="295.9" r="4" fill="#9754dd" /><circle cx="574.9" cy="295.9" r="4" fill="#9754dd" /><circle cx="583.7" cy="295.9" r="4" fill="#9754dd" /><circle cx="592.6" cy="295.8" r="4" fill="#9754dd" /><circle cx="601.4" cy="295.8" r="4" fill="#9754dd" /><circle cx="610.2" cy="295.9" r="4" fill="#9754dd" /><circle cx="619.1" cy="295.9" r="4" fill="#9754dd" /><circle cx="627.9" cy="295.9" r="4" fill="#9754dd" /><circle cx="636.7" cy="295.9" r="4" fill="#9754dd" /><circle cx="645.6" cy="295.9" r="4" fill="#9754dd" /><circle cx="654.4" cy="295.9" r="4" fill="#9754dd" /><circle cx="663.3" cy="295.9" r="4" fill="#9754dd" /><circle cx="672.1" cy="296.0" r="4" fill="#9754dd" /><circle cx="680.9" cy="296.4" r="4" fill="#9754dd" /><circle cx="689.8" cy="296.4" r="4" fill="#9754dd" /><circle cx="698.6" cy="296.4" r="4" fill="#9754dd" /><circle cx="707.4" cy="296.4" r="4" fill="#9754dd" /><circle cx="716.3" cy="296.4" r="4" fill="#9754dd" /><circle cx="725.1" cy="296.4" r="4" fill="#9754dd" /><circle cx="734.0" cy="296.4" r="4" fill="#9754dd" /><circle cx="742.8" cy="296.4" r="4" fill="#9754dd" /><circle cx="751.6" cy="296.4" r="4" fill="#9754dd" /><circle cx="760.5" cy="296.4" r="4" fill="#9754dd" /><circle cx="769.3" cy="296.5" r="4" fill="#9754dd" /><circle cx="778.1" cy="296.5" r="4" fill="#9754dd" /><circle cx="787.0" cy="296.5" r="4" fill="#9754dd" /><circle cx="795.8" cy="296.5" r="4" fill="#9754dd" /><circle cx="804.7" cy="296.5" r="4" fill="#9754dd" /><circle cx="813.5" cy="296.5" r="4" fill="#9754dd" /><circle cx="822.3" cy="296.5" r="4" fill="#9754dd" /><circle cx="831.2" cy="296.5" r="4" fill="#9754dd" /><circle cx="840.0" cy="296.5" r="4" fill="#9754dd" />
  <rect x="80" y="339" width="10" height="10" rx="2" ry="2" fill="#19e5a1" /><text x="96" y="348" class="legend-label">Stars</text><rect x="250" y="339" width="10" height="10" rx="2" ry="2" fill="#6eb6ec" /><text x="266" y="348" class="legend-label">Followers</text><rect x="420" y="339" width="10" height="10" rx="2" ry="2" fill="#5938e2" /><text x="436" y="348" class="legend-label">Following</text><rect x="590" y="339" width="10" height="10" rx="2" ry="2" fill="#60e5e0" /><text x="606" y="348" class="legend-label">Contributions</text><rect x="80" y="357" width="10" height="10" rx="2" ry="2" fill="#567de1" /><text x="96" y="366" class="legend-label">Pull Requests</text><rect x="250" y="357" width="10" height="10" rx="2" ry="2" fill="#9754dd" /><text x="266" y="366" class="legend-label">Issues</text>
</svg>
