<svg width="900" height="402" viewBox="0 0 900 402" xmlns="http://www.w3.org/2000/svg">
  <defs>
    <linearGradient id="history-gradient" x1="0%" y1="0%" x2="100%" y2="100%">
      <stop offset="0%" style="stop-color:#58a6ff;stop-opacity:1" />
      <stop offset="100%" style="stop-color:#a371f7;stop-opacity:1" />
    </linearGradient>
    <clipPath id="history-rounded">
      <rect x="0" y="0" width="900" height="402" rx="8" ry="8" />
    </clipPath>
  </defs>
  <style>
    .title {
      font-family: 'Segoe UI', Ubuntu, 'Helvetica Neue', sans-serif;
      font-size: 22px;
      font-weight: 700;
      fill: #58a6ff;
    }
    .subtitle {
      font-family: 'Segoe UI', Ubuntu, 'Helvetica Neue', sans-serif;
      font-size: 12px;
      font-weight: 500;
      fill: #8b949e;
    }
    .axis-label {
      font-family: 'Segoe UI', Ubuntu, 'Helvetica Neue', sans-serif;
      font-size: 10px;
      fill: #8b949e;
    }
    .grid-line {
      stroke: #30363d;
      stroke-width: 1;
      opacity: 0.3;
    }
    .legend-label {
      font-family: 'Segoe UI', Ubuntu, 'Helvetica Neue', sans-serif;
      font-size: 11px;
      fill: #c9d1d9;
      dominant-baseline: middle;
    }
  </style>
  <rect clip-path="url(#history-rounded)" width="100%" height="100%" fill="#0d1117" stroke="#30363d" stroke-width="1" />
  <rect x="0" y="396" width="900" height="6" fill="url(#history-gradient)" clip-path="url(#history-rounded)" />
  <text x="24" y="34" class="title">Leonardo Klein Stats History</text>
  <text x="24" y="54" class="subtitle">Period: 2026-02-20 to 2026-03-06</text>
  <text x="72" y="320.0" text-anchor="end" dominant-baseline="central" class="axis-label">0</text><text x="72" y="270.0" text-anchor="end" dominant-baseline="central" class="axis-label">400</text><text x="72" y="220.0" text-anchor="end" dominant-baseline="central" class="axis-label">800</text><text x="72" y="170.0" text-anchor="end" dominant-baseline="central" class="axis-label">1.2k</text><text x="72" y="120.0" text-anchor="end" dominant-baseline="central" class="axis-label">1.6k</text><text x="72" y="70.0" text-anchor="end" dominant-baseline="central" class="axis-label">2.0k</text>
  <text x="80.0" y="336" text-anchor="middle" class="axis-label">02-20</text><text x="154.9" y="336" text-anchor="middle" class="axis-label">02-21</text><text x="229.9" y="336" text-anchor="middle" class="axis-label">02-23</text><text x="304.8" y="336" text-anchor="middle" class="axis-label">02-24</text><text x="379.7" y="336" text-anchor="middle" class="axis-label">02-26</text><text x="454.6" y="336" text-anchor="middle" class="axis-label">02-27</text><text x="529.6" y="336" text-anchor="middle" class="axis-label">02-28</text><text x="604.5" y="336" text-anchor="middle" class="axis-label">03-02</text><text x="679.4" y="336" text-anchor="middle" class="axis-label">03-03</text><text x="754.4" y="336" text-anchor="middle" class="axis-label">03-05</text><text x="829.3" y="336" text-anchor="middle" class="axis-label">03-06</text><text x="840.0" y="336" text-anchor="middle" class="axis-label">03-06</text>
  <line x1="80" y1="320.0" x2="840" y2="320.0" class="grid-line" /><line x1="80" y1="270.0" x2="840" y2="270.0" class="grid-line" /><line x1="80" y1="220.0" x2="840" y2="220.0" class="grid-line" /><line x1="80" y1="170.0" x2="840" y2="170.0" class="grid-line" /><line x1="80" y1="120.0" x2="840" y2="120.0" class="grid-line" /><line x1="80" y1="70.0" x2="840" y2="70.0" class="grid-line" />
  <polyline points="80.0,317.0 90.7,317.0 101.4,317.0 112.1,317.0 122.8,317.0 133.5,317.0 144.2,317.0 154.9,317.0 165.6,317.0 176.3,317.0 187.0,317.0 197.7,317.0 208.5,317.0 219.2,317.0 229.9,317.0 240.6,317.0 251.3,317.0 262.0,317.0 272.7,317.0 283.4,317.0 294.1,317.0 304.8,317.0 315.5,317.0 326.2,317.0 336.9,317.0 347.6,317.0 358.3,317.0 369.0,317.0 379.7,317.0 390.4,317.0 401.1,317.0 411.8,317.0 422.5,317.0 433.2,317.0 443.9,317.0 454.6,317.0 465.4,317.0 476.1,317.0 486.8,317.0 497.5,317.0 508.2,317.0 518.9,317.0 529.6,317.0 540.3,317.0 551.0,317.0 561.7,317.0 572.4,317.0 583.1,317.0 593.8,317.0 604.5,317.0 615.2,317.0 625.9,317.0 636.6,317.0 647.3,317.0 658.0,317.0 668.7,317.0 679.4,317.0 690.1,317.0 700.8,317.0 711.5,317.0 722.3,317.0 733.0,317.0 743.7,317.0 754.4,317.0 765.1,317.0 775.8,317.0 786.5,317.0 797.2,317.0 807.9,317.0 818.6,317.0 829.3,317.0 840.0,317.0" fill="none" stroke="#19e5a1" stroke-width="2.5" stroke-linecap="round" stroke-linejoin="round" /><circle cx="80.0" cy="317.0" r="4" fill="#19e5a1" /><circle cx="90.7" cy="317.0" r="4" fill="#19e5a1" /><circle cx="101.4" cy="317.0" r="4" fill="#19e5a1" /><circle cx="112.1" cy="317.0" r="4" fill="#19e5a1" /><circle cx="122.8" cy="317.0" r="4" fill="#19e5a1" /><circle cx="133.5" cy="317.0" r="4" fill="#19e5a1" /><circle cx="144.2" cy="317.0" r="4" fill="#19e5a1" /><circle cx="154.9" cy="317.0" r="4" fill="#19e5a1" /><circle cx="165.6" cy="317.0" r="4" fill="#19e5a1" /><circle cx="176.3" cy="317.0" r="4" fill="#19e5a1" /><circle cx="187.0" cy="317.0" r="4" fill="#19e5a1" /><circle cx="197.7" cy="317.0" r="4" fill="#19e5a1" /><circle cx="208.5" cy="317.0" r="4" fill="#19e5a1" /><circle cx="219.2" cy="317.0" r="4" fill="#19e5a1" /><circle cx="229.9" cy="317.0" r="4" fill="#19e5a1" /><circle cx="240.6" cy="317.0" r="4" fill="#19e5a1" /><circle cx="251.3" cy="317.0" r="4" fill="#19e5a1" /><circle cx="262.0" cy="317.0" r="4" fill="#19e5a1" /><circle cx="272.7" cy="317.0" r="4" fill="#19e5a1" /><circle cx="283.4" cy="317.0" r="4" fill="#19e5a1" /><circle cx="294.1" cy="317.0" r="4" fill="#19e5a1" /><circle cx="304.8" cy="317.0" r="4" fill="#19e5a1" /><circle cx="315.5" cy="317.0" r="4" fill="#19e5a1" /><circle cx="326.2" cy="317.0" r="4" fill="#19e5a1" /><circle cx="336.9" cy="317.0" r="4" fill="#19e5a1" /><circle cx="347.6" cy="317.0" r="4" fill="#19e5a1" /><circle cx="358.3" cy="317.0" r="4" fill="#19e5a1" /><circle cx="369.0" cy="317.0" r="4" fill="#19e5a1" /><circle cx="379.7" cy="317.0" r="4" fill="#19e5a1" /><circle cx="390.4" cy="317.0" r="4" fill="#19e5a1" /><circle cx="401.1" cy="317.0" r="4" fill="#19e5a1" /><circle cx="411.8" cy="317.0" r="4" fill="#19e5a1" /><circle cx="422.5" cy="317.0" r="4" fill="#19e5a1" /><circle cx="433.2" cy="317.0" r="4" fill="#19e5a1" /><circle cx="443.9" cy="317.0" r="4" fill="#19e5a1" /><circle cx="454.6" cy="317.0" r="4" fill="#19e5a1" /><circle cx="465.4" cy="317.0" r="4" fill="#19e5a1" /><circle cx="476.1" cy="317.0" r="4" fill="#19e5a1" /><circle cx="486.8" cy="317.0" r="4" fill="#19e5a1" /><circle cx="497.5" cy="317.0" r="4" fill="#19e5a1" /><circle cx="508.2" cy="317.0" r="4" fill="#19e5a1" /><circle cx="518.9" cy="317.0" r="4" fill="#19e5a1" /><circle cx="529.6" cy="317.0" r="4" fill="#19e5a1" /><circle cx="540.3" cy="317.0" r="4" fill="#19e5a1" /><circle cx="551.0" cy="317.0" r="4" fill="#19e5a1" /><circle cx="561.7" cy="317.0" r="4" fill="#19e5a1" /><circle cx="572.4" cy="317.0" r="4" fill="#19e5a1" /><circle cx="583.1" cy="317.0" r="4" fill="#19e5a1" /><circle cx="593.8" cy="317.0" r="4" fill="#19e5a1" /><circle cx="604.5" cy="317.0" r="4" fill="#19e5a1" /><circle cx="615.2" cy="317.0" r="4" fill="#19e5a1" /><circle cx="625.9" cy="317.0" r="4" fill="#19e5a1" /><circle cx="636.6" cy="317.0" r="4" fill="#19e5a1" /><circle cx="647.3" cy="317.0" r="4" fill="#19e5a1" /><circle cx="658.0" cy="317.0" r="4" fill="#19e5a1" /><circle cx="668.7" cy="317.0" r="4" fill="#19e5a1" /><circle cx="679.4" cy="317.0" r="4" fill="#19e5a1" /><circle cx="690.1" cy="317.0" r="4" fill="#19e5a1" /><circle cx="700.8" cy="317.0" r="4" fill="#19e5a1" /><circle cx="711.5" cy="317.0" r="4" fill="#19e5a1" /><circle cx="722.3" cy="317.0" r="4" fill="#19e5a1" /><circle cx="733.0" cy="317.0" r="4" fill="#19e5a1" /><circle cx="743.7" cy="317.0" r="4" fill="#19e5a1" /><circle cx="754.4" cy="317.0" r="4" fill="#19e5a1" /><circle cx="765.1" cy="317.0" r="4" fill="#19e5a1" /><circle cx="775.8" cy="317.0" r="4" fill="#19e5a1" /><circle cx="786.5" cy="317.0" r="4" fill="#19e5a1" /><circle cx="797.2" cy="317.0" r="4" fill="#19e5a1" /><circle cx="807.9" cy="317.0" r="4" fill="#19e5a1" /><circle cx="818.6" cy="317.0" r="4" fill="#19e5a1" /><circle cx="829.3" cy="317.0" r="4" fill="#19e5a1" /><circle cx="840.0" cy="317.0" r="4" fill="#19e5a1" /><polyline points="80.0,313.2 90.7,312.2 101.4,312.1 112.1,312.4 122.8,312.4 133.5,312.4 144.2,312.1 154.9,312.0 165.6,311.9 176.3,311.9 187.0,311.8 197.7,311.8 208.5,311.5 219.2,311.5 229.9,311.5 240.6,311.2 251.3,311.2 262.0,311.1 272.7,311.1 283.4,311.1 294.1,310.9 304.8,311.0 315.5,310.8 326.2,310.8 336.9,310.8 347.6,310.8 358.3,310.4 369.0,310.2 379.7,310.4 390.4,310.4 401.1,310.4 411.8,310.4 422.5,310.4 433.2,310.2 443.9,310.2 454.6,310.1 465.4,310.1 476.1,309.8 486.8,309.6 497.5,309.6 508.2,309.6 518.9,309.6 529.6,309.5 540.3,309.4 551.0,309.4 561.7,309.4 572.4,309.4 583.1,309.2 593.8,309.2 604.5,309.2 615.2,309.4 625.9,309.4 636.6,309.5 647.3,309.2 658.0,309.2 668.7,309.4 679.4,309.2 690.1,309.2 700.8,309.2 711.5,309.2 722.3,309.2 733.0,309.1 743.7,309.1 754.4,309.1 765.1,309.1 775.8,309.0 786.5,309.0 797.2,308.9 807.9,308.9 818.6,308.9 829.3,308.6 840.0,308.6" fill="none" stroke="#6eb6ec" stroke-width="2.5" stroke-linecap="round" stroke-linejoin="round" /><circle cx="80.0" cy="313.2" r="4" fill="#6eb6ec" /><circle cx="90.7" cy="312.2" r="4" fill="#6eb6ec" /><circle cx="101.4" cy="312.1" r="4" fill="#6eb6ec" /><circle cx="112.1" cy="312.4" r="4" fill="#6eb6ec" /><circle cx="122.8" cy="312.4" r="4" fill="#6eb6ec" /><circle cx="133.5" cy="312.4" r="4" fill="#6eb6ec" /><circle cx="144.2" cy="312.1" r="4" fill="#6eb6ec" /><circle cx="154.9" cy="312.0" r="4" fill="#6eb6ec" /><circle cx="165.6" cy="311.9" r="4" fill="#6eb6ec" /><circle cx="176.3" cy="311.9" r="4" fill="#6eb6ec" /><circle cx="187.0" cy="311.8" r="4" fill="#6eb6ec" /><circle cx="197.7" cy="311.8" r="4" fill="#6eb6ec" /><circle cx="208.5" cy="311.5" r="4" fill="#6eb6ec" /><circle cx="219.2" cy="311.5" r="4" fill="#6eb6ec" /><circle cx="229.9" cy="311.5" r="4" fill="#6eb6ec" /><circle cx="240.6" cy="311.2" r="4" fill="#6eb6ec" /><circle cx="251.3" cy="311.2" r="4" fill="#6eb6ec" /><circle cx="262.0" cy="311.1" r="4" fill="#6eb6ec" /><circle cx="272.7" cy="311.1" r="4" fill="#6eb6ec" /><circle cx="283.4" cy="311.1" r="4" fill="#6eb6ec" /><circle cx="294.1" cy="310.9" r="4" fill="#6eb6ec" /><circle cx="304.8" cy="311.0" r="4" fill="#6eb6ec" /><circle cx="315.5" cy="310.8" r="4" fill="#6eb6ec" /><circle cx="326.2" cy="310.8" r="4" fill="#6eb6ec" /><circle cx="336.9" cy="310.8" r="4" fill="#6eb6ec" /><circle cx="347.6" cy="310.8" r="4" fill="#6eb6ec" /><circle cx="358.3" cy="310.4" r="4" fill="#6eb6ec" /><circle cx="369.0" cy="310.2" r="4" fill="#6eb6ec" /><circle cx="379.7" cy="310.4" r="4" fill="#6eb6ec" /><circle cx="390.4" cy="310.4" r="4" fill="#6eb6ec" /><circle cx="401.1" cy="310.4" r="4" fill="#6eb6ec" /><circle cx="411.8" cy="310.4" r="4" fill="#6eb6ec" /><circle cx="422.5" cy="310.4" r="4" fill="#6eb6ec" /><circle cx="433.2" cy="310.2" r="4" fill="#6eb6ec" /><circle cx="443.9" cy="310.2" r="4" fill="#6eb6ec" /><circle cx="454.6" cy="310.1" r="4" fill="#6eb6ec" /><circle cx="465.4" cy="310.1" r="4" fill="#6eb6ec" /><circle cx="476.1" cy="309.8" r="4" fill="#6eb6ec" /><circle cx="486.8" cy="309.6" r="4" fill="#6eb6ec" /><circle cx="497.5" cy="309.6" r="4" fill="#6eb6ec" /><circle cx="508.2" cy="309.6" r="4" fill="#6eb6ec" /><circle cx="518.9" cy="309.6" r="4" fill="#6eb6ec" /><circle cx="529.6" cy="309.5" r="4" fill="#6eb6ec" /><circle cx="540.3" cy="309.4" r="4" fill="#6eb6ec" /><circle cx="551.0" cy="309.4" r="4" fill="#6eb6ec" /><circle cx="561.7" cy="309.4" r="4" fill="#6eb6ec" /><circle cx="572.4" cy="309.4" r="4" fill="#6eb6ec" /><circle cx="583.1" cy="309.2" r="4" fill="#6eb6ec" /><circle cx="593.8" cy="309.2" r="4" fill="#6eb6ec" /><circle cx="604.5" cy="309.2" r="4" fill="#6eb6ec" /><circle cx="615.2" cy="309.4" r="4" fill="#6eb6ec" /><circle cx="625.9" cy="309.4" r="4" fill="#6eb6ec" /><circle cx="636.6" cy="309.5" r="4" fill="#6eb6ec" /><circle cx="647.3" cy="309.2" r="4" fill="#6eb6ec" /><circle cx="658.0" cy="309.2" r="4" fill="#6eb6ec" /><circle cx="668.7" cy="309.4" r="4" fill="#6eb6ec" /><circle cx="679.4" cy="309.2" r="4" fill="#6eb6ec" /><circle cx="690.1" cy="309.2" r="4" fill="#6eb6ec" /><circle cx="700.8" cy="309.2" r="4" fill="#6eb6ec" /><circle cx="711.5" cy="309.2" r="4" fill="#6eb6ec" /><circle cx="722.3" cy="309.2" r="4" fill="#6eb6ec" /><circle cx="733.0" cy="309.1" r="4" fill="#6eb6ec" /><circle cx="743.7" cy="309.1" r="4" fill="#6eb6ec" /><circle cx="754.4" cy="309.1" r="4" fill="#6eb6ec" /><circle cx="765.1" cy="309.1" r="4" fill="#6eb6ec" /><circle cx="775.8" cy="309.0" r="4" fill="#6eb6ec" /><circle cx="786.5" cy="309.0" r="4" fill="#6eb6ec" /><circle cx="797.2" cy="308.9" r="4" fill="#6eb6ec" /><circle cx="807.9" cy="308.9" r="4" fill="#6eb6ec" /><circle cx="818.6" cy="308.9" r="4" fill="#6eb6ec" /><circle cx="829.3" cy="308.6" r="4" fill="#6eb6ec" /><circle cx="840.0" cy="308.6" r="4" fill="#6eb6ec" /><polyline points="80.0,305.8 90.7,305.8 101.4,305.8 112.1,305.8 122.8,305.8 133.5,305.8 144.2,305.8 154.9,305.8 165.6,305.8 176.3,305.8 187.0,304.9 197.7,304.9 208.5,304.9 219.2,304.9 229.9,304.9 240.6,304.9 251.3,304.9 262.0,304.9 272.7,304.9 283.4,304.9 294.1,304.9 304.8,304.9 315.5,304.9 326.2,304.9 336.9,304.9 347.6,304.9 358.3,304.9 369.0,304.9 379.7,304.9 390.4,304.9 401.1,304.9 411.8,304.9 422.5,304.9 433.2,304.9 443.9,304.9 454.6,304.9 465.4,304.9 476.1,303.6 486.8,303.6 497.5,303.6 508.2,303.6 518.9,303.6 529.6,303.6 540.3,303.6 551.0,303.6 561.7,303.6 572.4,303.6 583.1,303.6 593.8,303.6 604.5,303.6 615.2,303.6 625.9,302.9 636.6,302.9 647.3,298.0 658.0,298.0 668.7,298.0 679.4,298.0 690.1,298.0 700.8,298.0 711.5,298.0 722.3,298.0 733.0,298.0 743.7,298.0 754.4,298.0 765.1,298.0 775.8,298.0 786.5,298.0 797.2,297.8 807.9,297.8 818.6,297.8 829.3,297.8 840.0,297.8" fill="none" stroke="#5938e2" stroke-width="2.5" stroke-linecap="round" stroke-linejoin="round" /><circle cx="80.0" cy="305.8" r="4" fill="#5938e2" /><circle cx="90.7" cy="305.8" r="4" fill="#5938e2" /><circle cx="101.4" cy="305.8" r="4" fill="#5938e2" /><circle cx="112.1" cy="305.8" r="4" fill="#5938e2" /><circle cx="122.8" cy="305.8" r="4" fill="#5938e2" /><circle cx="133.5" cy="305.8" r="4" fill="#5938e2" /><circle cx="144.2" cy="305.8" r="4" fill="#5938e2" /><circle cx="154.9" cy="305.8" r="4" fill="#5938e2" /><circle cx="165.6" cy="305.8" r="4" fill="#5938e2" /><circle cx="176.3" cy="305.8" r="4" fill="#5938e2" /><circle cx="187.0" cy="304.9" r="4" fill="#5938e2" /><circle cx="197.7" cy="304.9" r="4" fill="#5938e2" /><circle cx="208.5" cy="304.9" r="4" fill="#5938e2" /><circle cx="219.2" cy="304.9" r="4" fill="#5938e2" /><circle cx="229.9" cy="304.9" r="4" fill="#5938e2" /><circle cx="240.6" cy="304.9" r="4" fill="#5938e2" /><circle cx="251.3" cy="304.9" r="4" fill="#5938e2" /><circle cx="262.0" cy="304.9" r="4" fill="#5938e2" /><circle cx="272.7" cy="304.9" r="4" fill="#5938e2" /><circle cx="283.4" cy="304.9" r="4" fill="#5938e2" /><circle cx="294.1" cy="304.9" r="4" fill="#5938e2" /><circle cx="304.8" cy="304.9" r="4" fill="#5938e2" /><circle cx="315.5" cy="304.9" r="4" fill="#5938e2" /><circle cx="326.2" cy="304.9" r="4" fill="#5938e2" /><circle cx="336.9" cy="304.9" r="4" fill="#5938e2" /><circle cx="347.6" cy="304.9" r="4" fill="#5938e2" /><circle cx="358.3" cy="304.9" r="4" fill="#5938e2" /><circle cx="369.0" cy="304.9" r="4" fill="#5938e2" /><circle cx="379.7" cy="304.9" r="4" fill="#5938e2" /><circle cx="390.4" cy="304.9" r="4" fill="#5938e2" /><circle cx="401.1" cy="304.9" r="4" fill="#5938e2" /><circle cx="411.8" cy="304.9" r="4" fill="#5938e2" /><circle cx="422.5" cy="304.9" r="4" fill="#5938e2" /><circle cx="433.2" cy="304.9" r="4" fill="#5938e2" /><circle cx="443.9" cy="304.9" r="4" fill="#5938e2" /><circle cx="454.6" cy="304.9" r="4" fill="#5938e2" /><circle cx="465.4" cy="304.9" r="4" fill="#5938e2" /><circle cx="476.1" cy="303.6" r="4" fill="#5938e2" /><circle cx="486.8" cy="303.6" r="4" fill="#5938e2" /><circle cx="497.5" cy="303.6" r="4" fill="#5938e2" /><circle cx="508.2" cy="303.6" r="4" fill="#5938e2" /><circle cx="518.9" cy="303.6" r="4" fill="#5938e2" /><circle cx="529.6" cy="303.6" r="4" fill="#5938e2" /><circle cx="540.3" cy="303.6" r="4" fill="#5938e2" /><circle cx="551.0" cy="303.6" r="4" fill="#5938e2" /><circle cx="561.7" cy="303.6" r="4" fill="#5938e2" /><circle cx="572.4" cy="303.6" r="4" fill="#5938e2" /><circle cx="583.1" cy="303.6" r="4" fill="#5938e2" /><circle cx="593.8" cy="303.6" r="4" fill="#5938e2" /><circle cx="604.5" cy="303.6" r="4" fill="#5938e2" /><circle cx="615.2" cy="303.6" r="4" fill="#5938e2" /><circle cx="625.9" cy="302.9" r="4" fill="#5938e2" /><circle cx="636.6" cy="302.9" r="4" fill="#5938e2" /><circle cx="647.3" cy="298.0" r="4" fill="#5938e2" /><circle cx="658.0" cy="298.0" r="4" fill="#5938e2" /><circle cx="668.7" cy="298.0" r="4" fill="#5938e2" /><circle cx="679.4" cy="298.0" r="4" fill="#5938e2" /><circle cx="690.1" cy="298.0" r="4" fill="#5938e2" /><circle cx="700.8" cy="298.0" r="4" fill="#5938e2" /><circle cx="711.5" cy="298.0" r="4" fill="#5938e2" /><circle cx="722.3" cy="298.0" r="4" fill="#5938e2" /><circle cx="733.0" cy="298.0" r="4" fill="#5938e2" /><circle cx="743.7" cy="298.0" r="4" fill="#5938e2" /><circle cx="754.4" cy="298.0" r="4" fill="#5938e2" /><circle cx="765.1" cy="298.0" r="4" fill="#5938e2" /><circle cx="775.8" cy="298.0" r="4" fill="#5938e2" /><circle cx="786.5" cy="298.0" r="4" fill="#5938e2" /><circle cx="797.2" cy="297.8" r="4" fill="#5938e2" /><circle cx="807.9" cy="297.8" r="4" fill="#5938e2" /><circle cx="818.6" cy="297.8" r="4" fill="#5938e2" /><circle cx="829.3" cy="297.8" r="4" fill="#5938e2" /><circle cx="840.0" cy="297.8" r="4" fill="#5938e2" /><polyline points="80.0,144.6 90.7,140.1 101.4,139.9 112.1,139.8 122.8,139.8 133.5,139.6 144.2,139.6 154.9,139.6 165.6,139.6 176.3,139.6 187.0,138.4 197.7,138.4 208.5,138.4 219.2,138.4 229.9,138.4 240.6,138.4 251.3,138.4 262.0,137.4 272.7,137.4 283.4,137.4 294.1,137.4 304.8,137.4 315.5,137.4 326.2,137.4 336.9,137.4 347.6,137.4 358.3,137.4 369.0,137.4 379.7,131.2 390.4,131.2 401.1,130.8 411.8,130.4 422.5,126.9 433.2,126.9 443.9,126.9 454.6,126.9 465.4,126.9 476.1,126.9 486.8,126.9 497.5,126.9 508.2,126.9 518.9,126.8 529.6,122.1 540.3,120.4 551.0,120.4 561.7,120.4 572.4,120.4 583.1,120.4 593.8,119.4 604.5,119.4 615.2,119.4 625.9,119.4 636.6,119.1 647.3,118.8 658.0,118.8 668.7,117.8 679.4,117.8 690.1,117.8 700.8,115.8 711.5,115.8 722.3,115.0 733.0,115.0 743.7,115.0 754.4,115.0 765.1,115.0 775.8,115.0 786.5,115.0 797.2,113.9 807.9,111.8 818.6,111.8 829.3,111.8 840.0,111.8" fill="none" stroke="#60e5e0" stroke-width="2.5" stroke-linecap="round" stroke-linejoin="round" /><circle cx="80.0" cy="144.6" r="4" fill="#60e5e0" /><circle cx="90.7" cy="140.1" r="4" fill="#60e5e0" /><circle cx="101.4" cy="139.9" r="4" fill="#60e5e0" /><circle cx="112.1" cy="139.8" r="4" fill="#60e5e0" /><circle cx="122.8" cy="139.8" r="4" fill="#60e5e0" /><circle cx="133.5" cy="139.6" r="4" fill="#60e5e0" /><circle cx="144.2" cy="139.6" r="4" fill="#60e5e0" /><circle cx="154.9" cy="139.6" r="4" fill="#60e5e0" /><circle cx="165.6" cy="139.6" r="4" fill="#60e5e0" /><circle cx="176.3" cy="139.6" r="4" fill="#60e5e0" /><circle cx="187.0" cy="138.4" r="4" fill="#60e5e0" /><circle cx="197.7" cy="138.4" r="4" fill="#60e5e0" /><circle cx="208.5" cy="138.4" r="4" fill="#60e5e0" /><circle cx="219.2" cy="138.4" r="4" fill="#60e5e0" /><circle cx="229.9" cy="138.4" r="4" fill="#60e5e0" /><circle cx="240.6" cy="138.4" r="4" fill="#60e5e0" /><circle cx="251.3" cy="138.4" r="4" fill="#60e5e0" /><circle cx="262.0" cy="137.4" r="4" fill="#60e5e0" /><circle cx="272.7" cy="137.4" r="4" fill="#60e5e0" /><circle cx="283.4" cy="137.4" r="4" fill="#60e5e0" /><circle cx="294.1" cy="137.4" r="4" fill="#60e5e0" /><circle cx="304.8" cy="137.4" r="4" fill="#60e5e0" /><circle cx="315.5" cy="137.4" r="4" fill="#60e5e0" /><circle cx="326.2" cy="137.4" r="4" fill="#60e5e0" /><circle cx="336.9" cy="137.4" r="4" fill="#60e5e0" /><circle cx="347.6" cy="137.4" r="4" fill="#60e5e0" /><circle cx="358.3" cy="137.4" r="4" fill="#60e5e0" /><circle cx="369.0" cy="137.4" r="4" fill="#60e5e0" /><circle cx="379.7" cy="131.2" r="4" fill="#60e5e0" /><circle cx="390.4" cy="131.2" r="4" fill="#60e5e0" /><circle cx="401.1" cy="130.8" r="4" fill="#60e5e0" /><circle cx="411.8" cy="130.4" r="4" fill="#60e5e0" /><circle cx="422.5" cy="126.9" r="4" fill="#60e5e0" /><circle cx="433.2" cy="126.9" r="4" fill="#60e5e0" /><circle cx="443.9" cy="126.9" r="4" fill="#60e5e0" /><circle cx="454.6" cy="126.9" r="4" fill="#60e5e0" /><circle cx="465.4" cy="126.9" r="4" fill="#60e5e0" /><circle cx="476.1" cy="126.9" r="4" fill="#60e5e0" /><circle cx="486.8" cy="126.9" r="4" fill="#60e5e0" /><circle cx="497.5" cy="126.9" r="4" fill="#60e5e0" /><circle cx="508.2" cy="126.9" r="4" fill="#60e5e0" /><circle cx="518.9" cy="126.8" r="4" fill="#60e5e0" /><circle cx="529.6" cy="122.1" r="4" fill="#60e5e0" /><circle cx="540.3" cy="120.4" r="4" fill="#60e5e0" /><circle cx="551.0" cy="120.4" r="4" fill="#60e5e0" /><circle cx="561.7" cy="120.4" r="4" fill="#60e5e0" /><circle cx="572.4" cy="120.4" r="4" fill="#60e5e0" /><circle cx="583.1" cy="120.4" r="4" fill="#60e5e0" /><circle cx="593.8" cy="119.4" r="4" fill="#60e5e0" /><circle cx="604.5" cy="119.4" r="4" fill="#60e5e0" /><circle cx="615.2" cy="119.4" r="4" fill="#60e5e0" /><circle cx="625.9" cy="119.4" r="4" fill="#60e5e0" /><circle cx="636.6" cy="119.1" r="4" fill="#60e5e0" /><circle cx="647.3" cy="118.8" r="4" fill="#60e5e0" /><circle cx="658.0" cy="118.8" r="4" fill="#60e5e0" /><circle cx="668.7" cy="117.8" r="4" fill="#60e5e0" /><circle cx="679.4" cy="117.8" r="4" fill="#60e5e0" /><circle cx="690.1" cy="117.8" r="4" fill="#60e5e0" /><circle cx="700.8" cy="115.8" r="4" fill="#60e5e0" /><circle cx="711.5" cy="115.8" r="4" fill="#60e5e0" /><circle cx="722.3" cy="115.0" r="4" fill="#60e5e0" /><circle cx="733.0" cy="115.0" r="4" fill="#60e5e0" /><circle cx="743.7" cy="115.0" r="4" fill="#60e5e0" /><circle cx="754.4" cy="115.0" r="4" fill="#60e5e0" /><circle cx="765.1" cy="115.0" r="4" fill="#60e5e0" /><circle cx="775.8" cy="115.0" r="4" fill="#60e5e0" /><circle cx="786.5" cy="115.0" r="4" fill="#60e5e0" /><circle cx="797.2" cy="113.9" r="4" fill="#60e5e0" /><circle cx="807.9" cy="111.8" r="4" fill="#60e5e0" /><circle cx="818.6" cy="111.8" r="4" fill="#60e5e0" /><circle cx="829.3" cy="111.8" r="4" fill="#60e5e0" /><circle cx="840.0" cy="111.8" r="4" fill="#60e5e0" /><polyline points="80.0,314.6 90.7,314.4 101.4,314.2 112.1,314.2 122.8,314.2 133.5,314.1 144.2,314.1 154.9,314.1 165.6,314.1 176.3,314.1 187.0,314.0 197.7,314.0 208.5,314.0 219.2,314.0 229.9,314.0 240.6,314.0 251.3,314.0 262.0,314.0 272.7,314.0 283.4,314.0 294.1,314.0 304.8,314.0 315.5,314.0 326.2,314.0 336.9,314.0 347.6,314.0 358.3,314.0 369.0,314.0 379.7,314.0 390.4,314.0 401.1,314.0 411.8,314.0 422.5,314.0 433.2,314.0 443.9,314.0 454.6,314.0 465.4,314.0 476.1,314.0 486.8,314.0 497.5,314.0 508.2,314.0 518.9,313.9 529.6,313.6 540.3,313.4 551.0,313.4 561.7,313.4 572.4,313.4 583.1,313.4 593.8,313.1 604.5,313.1 615.2,313.1 625.9,313.1 636.6,313.1 647.3,313.0 658.0,313.0 668.7,312.9 679.4,312.9 690.1,312.9 700.8,312.8 711.5,312.8 722.3,312.6 733.0,312.6 743.7,312.6 754.4,312.6 765.1,312.6 775.8,312.6 786.5,312.6 797.2,312.5 807.9,312.1 818.6,312.1 829.3,312.1 840.0,312.1" fill="none" stroke="#567de1" stroke-width="2.5" stroke-linecap="round" stroke-linejoin="round" /><circle cx="80.0" cy="314.6" r="4" fill="#567de1" /><circle cx="90.7" cy="314.4" r="4" fill="#567de1" /><circle cx="101.4" cy="314.2" r="4" fill="#567de1" /><circle cx="112.1" cy="314.2" r="4" fill="#567de1" /><circle cx="122.8" cy="314.2" r="4" fill="#567de1" /><circle cx="133.5" cy="314.1" r="4" fill="#567de1" /><circle cx="144.2" cy="314.1" r="4" fill="#567de1" /><circle cx="154.9" cy="314.1" r="4" fill="#567de1" /><circle cx="165.6" cy="314.1" r="4" fill="#567de1" /><circle cx="176.3" cy="314.1" r="4" fill="#567de1" /><circle cx="187.0" cy="314.0" r="4" fill="#567de1" /><circle cx="197.7" cy="314.0" r="4" fill="#567de1" /><circle cx="208.5" cy="314.0" r="4" fill="#567de1" /><circle cx="219.2" cy="314.0" r="4" fill="#567de1" /><circle cx="229.9" cy="314.0" r="4" fill="#567de1" /><circle cx="240.6" cy="314.0" r="4" fill="#567de1" /><circle cx="251.3" cy="314.0" r="4" fill="#567de1" /><circle cx="262.0" cy="314.0" r="4" fill="#567de1" /><circle cx="272.7" cy="314.0" r="4" fill="#567de1" /><circle cx="283.4" cy="314.0" r="4" fill="#567de1" /><circle cx="294.1" cy="314.0" r="4" fill="#567de1" /><circle cx="304.8" cy="314.0" r="4" fill="#567de1" /><circle cx="315.5" cy="314.0" r="4" fill="#567de1" /><circle cx="326.2" cy="314.0" r="4" fill="#567de1" /><circle cx="336.9" cy="314.0" r="4" fill="#567de1" /><circle cx="347.6" cy="314.0" r="4" fill="#567de1" /><circle cx="358.3" cy="314.0" r="4" fill="#567de1" /><circle cx="369.0" cy="314.0" r="4" fill="#567de1" /><circle cx="379.7" cy="314.0" r="4" fill="#567de1" /><circle cx="390.4" cy="314.0" r="4" fill="#567de1" /><circle cx="401.1" cy="314.0" r="4" fill="#567de1" /><circle cx="411.8" cy="314.0" r="4" fill="#567de1" /><circle cx="422.5" cy="314.0" r="4" fill="#567de1" /><circle cx="433.2" cy="314.0" r="4" fill="#567de1" /><circle cx="443.9" cy="314.0" r="4" fill="#567de1" /><circle cx="454.6" cy="314.0" r="4" fill="#567de1" /><circle cx="465.4" cy="314.0" r="4" fill="#567de1" /><circle cx="476.1" cy="314.0" r="4" fill="#567de1" /><circle cx="486.8" cy="314.0" r="4" fill="#567de1" /><circle cx="497.5" cy="314.0" r="4" fill="#567de1" /><circle cx="508.2" cy="314.0" r="4" fill="#567de1" /><circle cx="518.9" cy="313.9" r="4" fill="#567de1" /><circle cx="529.6" cy="313.6" r="4" fill="#567de1" /><circle cx="540.3" cy="313.4" r="4" fill="#567de1" /><circle cx="551.0" cy="313.4" r="4" fill="#567de1" /><circle cx="561.7" cy="313.4" r="4" fill="#567de1" /><circle cx="572.4" cy="313.4" r="4" fill="#567de1" /><circle cx="583.1" cy="313.4" r="4" fill="#567de1" /><circle cx="593.8" cy="313.1" r="4" fill="#567de1" /><circle cx="604.5" cy="313.1" r="4" fill="#567de1" /><circle cx="615.2" cy="313.1" r="4" fill="#567de1" /><circle cx="625.9" cy="313.1" r="4" fill="#567de1" /><circle cx="636.6" cy="313.1" r="4" fill="#567de1" /><circle cx="647.3" cy="313.0" r="4" fill="#567de1" /><circle cx="658.0" cy="313.0" r="4" fill="#567de1" /><circle cx="668.7" cy="312.9" r="4" fill="#567de1" /><circle cx="679.4" cy="312.9" r="4" fill="#567de1" /><circle cx="690.1" cy="312.9" r="4" fill="#567de1" /><circle cx="700.8" cy="312.8" r="4" fill="#567de1" /><circle cx="711.5" cy="312.8" r="4" fill="#567de1" /><circle cx="722.3" cy="312.6" r="4" fill="#567de1" /><circle cx="733.0" cy="312.6" r="4" fill="#567de1" /><circle cx="743.7" cy="312.6" r="4" fill="#567de1" /><circle cx="754.4" cy="312.6" r="4" fill="#567de1" /><circle cx="765.1" cy="312.6" r="4" fill="#567de1" /><circle cx="775.8" cy="312.6" r="4" fill="#567de1" /><circle cx="786.5" cy="312.6" r="4" fill="#567de1" /><circle cx="797.2" cy="312.5" r="4" fill="#567de1" /><circle cx="807.9" cy="312.1" r="4" fill="#567de1" /><circle cx="818.6" cy="312.1" r="4" fill="#567de1" /><circle cx="829.3" cy="312.1" r="4" fill="#567de1" /><circle cx="840.0" cy="312.1" r="4" fill="#567de1" /><polyline points="80.0,303.9 90.7,304.2 101.4,304.4 112.1,304.4 122.8,304.4 133.5,304.4 144.2,304.4 154.9,304.4 165.6,304.4 176.3,304.4 187.0,304.4 197.7,304.4 208.5,304.4 219.2,304.4 229.9,304.4 240.6,304.4 251.3,304.4 262.0,304.4 272.7,304.4 283.4,304.4 294.1,304.4 304.8,304.4 315.5,304.4 326.2,304.4 336.9,304.4 347.6,304.4 358.3,304.4 369.0,304.4 379.7,299.1 390.4,299.1 401.1,299.1 411.8,298.9 422.5,295.6 433.2,295.6 443.9,295.6 454.6,295.6 465.4,295.6 476.1,295.6 486.8,295.6 497.5,295.6 508.2,295.6 518.9,295.8 529.6,295.9 540.3,295.9 551.0,295.9 561.7,295.9 572.4,295.9 583.1,295.9 593.8,295.9 604.5,295.9 615.2,295.9 625.9,295.9 636.6,295.9 647.3,295.9 658.0,295.9 668.7,295.9 679.4,295.9 690.1,295.9 700.8,295.8 711.5,295.8 722.3,295.9 733.0,295.9 743.7,295.9 754.4,295.9 765.1,295.9 775.8,295.9 786.5,295.9 797.2,296.0 807.9,296.4 818.6,296.4 829.3,296.4 840.0,296.4" fill="none" stroke="#9754dd" stroke-width="2.5" stroke-linecap="round" stroke-linejoin="round" /><circle cx="80.0" cy="303.9" r="4" fill="#9754dd" /><circle cx="90.7" cy="304.2" r="4" fill="#9754dd" /><circle cx="101.4" cy="304.4" r="4" fill="#9754dd" /><circle cx="112.1" cy="304.4" r="4" fill="#9754dd" /><circle cx="122.8" cy="304.4" r="4" fill="#9754dd" /><circle cx="133.5" cy="304.4" r="4" fill="#9754dd" /><circle cx="144.2" cy="304.4" r="4" fill="#9754dd" /><circle cx="154.9" cy="304.4" r="4" fill="#9754dd" /><circle cx="165.6" cy="304.4" r="4" fill="#9754dd" /><circle cx="176.3" cy="304.4" r="4" fill="#9754dd" /><circle cx="187.0" cy="304.4" r="4" fill="#9754dd" /><circle cx="197.7" cy="304.4" r="4" fill="#9754dd" /><circle cx="208.5" cy="304.4" r="4" fill="#9754dd" /><circle cx="219.2" cy="304.4" r="4" fill="#9754dd" /><circle cx="229.9" cy="304.4" r="4" fill="#9754dd" /><circle cx="240.6" cy="304.4" r="4" fill="#9754dd" /><circle cx="251.3" cy="304.4" r="4" fill="#9754dd" /><circle cx="262.0" cy="304.4" r="4" fill="#9754dd" /><circle cx="272.7" cy="304.4" r="4" fill="#9754dd" /><circle cx="283.4" cy="304.4" r="4" fill="#9754dd" /><circle cx="294.1" cy="304.4" r="4" fill="#9754dd" /><circle cx="304.8" cy="304.4" r="4" fill="#9754dd" /><circle cx="315.5" cy="304.4" r="4" fill="#9754dd" /><circle cx="326.2" cy="304.4" r="4" fill="#9754dd" /><circle cx="336.9" cy="304.4" r="4" fill="#9754dd" /><circle cx="347.6" cy="304.4" r="4" fill="#9754dd" /><circle cx="358.3" cy="304.4" r="4" fill="#9754dd" /><circle cx="369.0" cy="304.4" r="4" fill="#9754dd" /><circle cx="379.7" cy="299.1" r="4" fill="#9754dd" /><circle cx="390.4" cy="299.1" r="4" fill="#9754dd" /><circle cx="401.1" cy="299.1" r="4" fill="#9754dd" /><circle cx="411.8" cy="298.9" r="4" fill="#9754dd" /><circle cx="422.5" cy="295.6" r="4" fill="#9754dd" /><circle cx="433.2" cy="295.6" r="4" fill="#9754dd" /><circle cx="443.9" cy="295.6" r="4" fill="#9754dd" /><circle cx="454.6" cy="295.6" r="4" fill="#9754dd" /><circle cx="465.4" cy="295.6" r="4" fill="#9754dd" /><circle cx="476.1" cy="295.6" r="4" fill="#9754dd" /><circle cx="486.8" cy="295.6" r="4" fill="#9754dd" /><circle cx="497.5" cy="295.6" r="4" fill="#9754dd" /><circle cx="508.2" cy="295.6" r="4" fill="#9754dd" /><circle cx="518.9" cy="295.8" r="4" fill="#9754dd" /><circle cx="529.6" cy="295.9" r="4" fill="#9754dd" /><circle cx="540.3" cy="295.9" r="4" fill="#9754dd" /><circle cx="551.0" cy="295.9" r="4" fill="#9754dd" /><circle cx="561.7" cy="295.9" r="4" fill="#9754dd" /><circle cx="572.4" cy="295.9" r="4" fill="#9754dd" /><circle cx="583.1" cy="295.9" r="4" fill="#9754dd" /><circle cx="593.8" cy="295.9" r="4" fill="#9754dd" /><circle cx="604.5" cy="295.9" r="4" fill="#9754dd" /><circle cx="615.2" cy="295.9" r="4" fill="#9754dd" /><circle cx="625.9" cy="295.9" r="4" fill="#9754dd" /><circle cx="636.6" cy="295.9" r="4" fill="#9754dd" /><circle cx="647.3" cy="295.9" r="4" fill="#9754dd" /><circle cx="658.0" cy="295.9" r="4" fill="#9754dd" /><circle cx="668.7" cy="295.9" r="4" fill="#9754dd" /><circle cx="679.4" cy="295.9" r="4" fill="#9754dd" /><circle cx="690.1" cy="295.9" r="4" fill="#9754dd" /><circle cx="700.8" cy="295.8" r="4" fill="#9754dd" /><circle cx="711.5" cy="295.8" r="4" fill="#9754dd" /><circle cx="722.3" cy="295.9" r="4" fill="#9754dd" /><circle cx="733.0" cy="295.9" r="4" fill="#9754dd" /><circle cx="743.7" cy="295.9" r="4" fill="#9754dd" /><circle cx="754.4" cy="295.9" r="4" fill="#9754dd" /><circle cx="765.1" cy="295.9" r="4" fill="#9754dd" /><circle cx="775.8" cy="295.9" r="4" fill="#9754dd" /><circle cx="786.5" cy="295.9" r="4" fill="#9754dd" /><circle cx="797.2" cy="296.0" r="4" fill="#9754dd" /><circle cx="807.9" cy="296.4" r="4" fill="#9754dd" /><circle cx="818.6" cy="296.4" r="4" fill="#9754dd" /><circle cx="829.3" cy="296.4" r="4" fill="#9754dd" /><circle cx="840.0" cy="296.4" r="4" fill="#9754dd" />
  <rect x="80" y="339" width="10" height="10" rx="2" ry="2" fill="#19e5a1" /><text x="96" y="348" class="legend-label">Stars</text><rect x="250" y="339" width="10" height="10" rx="2" ry="2" fill="#6eb6ec" /><text x="266" y="348" class="legend-label">Followers</text><rect x="420" y="339" width="10" height="10" rx="2" ry="2" fill="#5938e2" /><text x="436" y="348" class="legend-label">Following</text><rect x="590" y="339" width="10" height="10" rx="2" ry="2" fill="#60e5e0" /><text x="606" y="348" class="legend-label">Contributions</text><rect x="80" y="357" width="10" height="10" rx="2" ry="2" fill="#567de1" /><text x="96" y="366" class="legend-label">Pull Requests</text><rect x="250" y="357" width="10" height="10" rx="2" ry="2" fill="#9754dd" /><text x="266" y="366" class="legend-label">Issues</text>
</svg>
