<svg width="900" height="402" viewBox="0 0 900 402" xmlns="http://www.w3.org/2000/svg">
  <defs>
    <linearGradient id="history-gradient" x1="0%" y1="0%" x2="100%" y2="100%">
      <stop offset="0%" style="stop-color:#58a6ff;stop-opacity:1" />
      <stop offset="100%" style="stop-color:#a371f7;stop-opacity:1" />
    </linearGradient>
    <clipPath id="history-rounded">
      <rect x="0" y="0" width="900" height="402" rx="8" ry="8" />
    </clipPath>
  </defs>
  <style>
    .title {
      font-family: 'Segoe UI', Ubuntu, 'Helvetica Neue', sans-serif;
      font-size: 22px;
      font-weight: 700;
      fill: #58a6ff;
    }
    .subtitle {
      font-family: 'Segoe UI', Ubuntu, 'Helvetica Neue', sans-serif;
      font-size: 12px;
      font-weight: 500;
      fill: #8b949e;
    }
    .axis-label {
      font-family: 'Segoe UI', Ubuntu, 'Helvetica Neue', sans-serif;
      font-size: 10px;
      fill: #8b949e;
    }
    .grid-line {
      stroke: #30363d;
      stroke-width: 1;
      opacity: 0.3;
    }
    .legend-label {
      font-family: 'Segoe UI', Ubuntu, 'Helvetica Neue', sans-serif;
      font-size: 11px;
      fill: #c9d1d9;
      dominant-baseline: middle;
    }
  </style>
  <rect clip-path="url(#history-rounded)" width="100%" height="100%" fill="#0d1117" stroke="#30363d" stroke-width="1" />
  <rect x="0" y="396" width="900" height="6" fill="url(#history-gradient)" clip-path="url(#history-rounded)" />
  <text x="24" y="34" class="title">Leonardo Klein Stats History</text>
  <text x="24" y="54" class="subtitle">Period: 2026-02-20 to 2026-02-24</text>
  <text x="72" y="320.0" text-anchor="end" dominant-baseline="central" class="axis-label">0</text><text x="72" y="270.0" text-anchor="end" dominant-baseline="central" class="axis-label">300</text><text x="72" y="220.0" text-anchor="end" dominant-baseline="central" class="axis-label">600</text><text x="72" y="170.0" text-anchor="end" dominant-baseline="central" class="axis-label">900</text><text x="72" y="120.0" text-anchor="end" dominant-baseline="central" class="axis-label">1.2k</text><text x="72" y="70.0" text-anchor="end" dominant-baseline="central" class="axis-label">1.5k</text>
  <text x="80.0" y="336" text-anchor="middle" class="axis-label">02-20</text><text x="156.0" y="336" text-anchor="middle" class="axis-label">02-20</text><text x="232.0" y="336" text-anchor="middle" class="axis-label">02-21</text><text x="308.0" y="336" text-anchor="middle" class="axis-label">02-21</text><text x="384.0" y="336" text-anchor="middle" class="axis-label">02-22</text><text x="460.0" y="336" text-anchor="middle" class="axis-label">02-22</text><text x="536.0" y="336" text-anchor="middle" class="axis-label">02-22</text><text x="612.0" y="336" text-anchor="middle" class="axis-label">02-23</text><text x="688.0" y="336" text-anchor="middle" class="axis-label">02-23</text><text x="764.0" y="336" text-anchor="middle" class="axis-label">02-24</text><text x="840.0" y="336" text-anchor="middle" class="axis-label">02-24</text>
  <line x1="80" y1="320.0" x2="840" y2="320.0" class="grid-line" /><line x1="80" y1="270.0" x2="840" y2="270.0" class="grid-line" /><line x1="80" y1="220.0" x2="840" y2="220.0" class="grid-line" /><line x1="80" y1="170.0" x2="840" y2="170.0" class="grid-line" /><line x1="80" y1="120.0" x2="840" y2="120.0" class="grid-line" /><line x1="80" y1="70.0" x2="840" y2="70.0" class="grid-line" />
  <polyline points="80.0,316.0 118.0,316.0 156.0,316.0 194.0,316.0 232.0,316.0 270.0,316.0 308.0,316.0 346.0,316.0 384.0,316.0 422.0,316.0 460.0,316.0 498.0,316.0 536.0,316.0 574.0,316.0 612.0,316.0 650.0,316.0 688.0,316.0 726.0,316.0 764.0,316.0 802.0,316.0 840.0,316.0" fill="none" stroke="#19e5a1" stroke-width="2.5" stroke-linecap="round" stroke-linejoin="round" /><circle cx="80.0" cy="316.0" r="4" fill="#19e5a1" /><circle cx="118.0" cy="316.0" r="4" fill="#19e5a1" /><circle cx="156.0" cy="316.0" r="4" fill="#19e5a1" /><circle cx="194.0" cy="316.0" r="4" fill="#19e5a1" /><circle cx="232.0" cy="316.0" r="4" fill="#19e5a1" /><circle cx="270.0" cy="316.0" r="4" fill="#19e5a1" /><circle cx="308.0" cy="316.0" r="4" fill="#19e5a1" /><circle cx="346.0" cy="316.0" r="4" fill="#19e5a1" /><circle cx="384.0" cy="316.0" r="4" fill="#19e5a1" /><circle cx="422.0" cy="316.0" r="4" fill="#19e5a1" /><circle cx="460.0" cy="316.0" r="4" fill="#19e5a1" /><circle cx="498.0" cy="316.0" r="4" fill="#19e5a1" /><circle cx="536.0" cy="316.0" r="4" fill="#19e5a1" /><circle cx="574.0" cy="316.0" r="4" fill="#19e5a1" /><circle cx="612.0" cy="316.0" r="4" fill="#19e5a1" /><circle cx="650.0" cy="316.0" r="4" fill="#19e5a1" /><circle cx="688.0" cy="316.0" r="4" fill="#19e5a1" /><circle cx="726.0" cy="316.0" r="4" fill="#19e5a1" /><circle cx="764.0" cy="316.0" r="4" fill="#19e5a1" /><circle cx="802.0" cy="316.0" r="4" fill="#19e5a1" /><circle cx="840.0" cy="316.0" r="4" fill="#19e5a1" /><polyline points="80.0,311.0 118.0,309.7 156.0,309.5 194.0,309.8 232.0,309.8 270.0,309.8 308.0,309.5 346.0,309.3 384.0,309.2 422.0,309.2 460.0,309.0 498.0,309.0 536.0,308.7 574.0,308.7 612.0,308.7 650.0,308.3 688.0,308.3 726.0,308.2 764.0,308.2 802.0,308.2 840.0,307.8" fill="none" stroke="#6eb6ec" stroke-width="2.5" stroke-linecap="round" stroke-linejoin="round" /><circle cx="80.0" cy="311.0" r="4" fill="#6eb6ec" /><circle cx="118.0" cy="309.7" r="4" fill="#6eb6ec" /><circle cx="156.0" cy="309.5" r="4" fill="#6eb6ec" /><circle cx="194.0" cy="309.8" r="4" fill="#6eb6ec" /><circle cx="232.0" cy="309.8" r="4" fill="#6eb6ec" /><circle cx="270.0" cy="309.8" r="4" fill="#6eb6ec" /><circle cx="308.0" cy="309.5" r="4" fill="#6eb6ec" /><circle cx="346.0" cy="309.3" r="4" fill="#6eb6ec" /><circle cx="384.0" cy="309.2" r="4" fill="#6eb6ec" /><circle cx="422.0" cy="309.2" r="4" fill="#6eb6ec" /><circle cx="460.0" cy="309.0" r="4" fill="#6eb6ec" /><circle cx="498.0" cy="309.0" r="4" fill="#6eb6ec" /><circle cx="536.0" cy="308.7" r="4" fill="#6eb6ec" /><circle cx="574.0" cy="308.7" r="4" fill="#6eb6ec" /><circle cx="612.0" cy="308.7" r="4" fill="#6eb6ec" /><circle cx="650.0" cy="308.3" r="4" fill="#6eb6ec" /><circle cx="688.0" cy="308.3" r="4" fill="#6eb6ec" /><circle cx="726.0" cy="308.2" r="4" fill="#6eb6ec" /><circle cx="764.0" cy="308.2" r="4" fill="#6eb6ec" /><circle cx="802.0" cy="308.2" r="4" fill="#6eb6ec" /><circle cx="840.0" cy="307.8" r="4" fill="#6eb6ec" /><polyline points="80.0,301.0 118.0,301.0 156.0,301.0 194.0,301.0 232.0,301.0 270.0,301.0 308.0,301.0 346.0,301.0 384.0,301.0 422.0,301.0 460.0,299.8 498.0,299.8 536.0,299.8 574.0,299.8 612.0,299.8 650.0,299.8 688.0,299.8 726.0,299.8 764.0,299.8 802.0,299.8 840.0,299.8" fill="none" stroke="#5938e2" stroke-width="2.5" stroke-linecap="round" stroke-linejoin="round" /><circle cx="80.0" cy="301.0" r="4" fill="#5938e2" /><circle cx="118.0" cy="301.0" r="4" fill="#5938e2" /><circle cx="156.0" cy="301.0" r="4" fill="#5938e2" /><circle cx="194.0" cy="301.0" r="4" fill="#5938e2" /><circle cx="232.0" cy="301.0" r="4" fill="#5938e2" /><circle cx="270.0" cy="301.0" r="4" fill="#5938e2" /><circle cx="308.0" cy="301.0" r="4" fill="#5938e2" /><circle cx="346.0" cy="301.0" r="4" fill="#5938e2" /><circle cx="384.0" cy="301.0" r="4" fill="#5938e2" /><circle cx="422.0" cy="301.0" r="4" fill="#5938e2" /><circle cx="460.0" cy="299.8" r="4" fill="#5938e2" /><circle cx="498.0" cy="299.8" r="4" fill="#5938e2" /><circle cx="536.0" cy="299.8" r="4" fill="#5938e2" /><circle cx="574.0" cy="299.8" r="4" fill="#5938e2" /><circle cx="612.0" cy="299.8" r="4" fill="#5938e2" /><circle cx="650.0" cy="299.8" r="4" fill="#5938e2" /><circle cx="688.0" cy="299.8" r="4" fill="#5938e2" /><circle cx="726.0" cy="299.8" r="4" fill="#5938e2" /><circle cx="764.0" cy="299.8" r="4" fill="#5938e2" /><circle cx="802.0" cy="299.8" r="4" fill="#5938e2" /><circle cx="840.0" cy="299.8" r="4" fill="#5938e2" /><polyline points="80.0,86.2 118.0,80.2 156.0,79.8 194.0,79.7 232.0,79.7 270.0,79.5 308.0,79.5 346.0,79.5 384.0,79.5 422.0,79.5 460.0,77.8 498.0,77.8 536.0,77.8 574.0,77.8 612.0,77.8 650.0,77.8 688.0,77.8 726.0,76.5 764.0,76.5 802.0,76.5 840.0,76.5" fill="none" stroke="#60e5e0" stroke-width="2.5" stroke-linecap="round" stroke-linejoin="round" /><circle cx="80.0" cy="86.2" r="4" fill="#60e5e0" /><circle cx="118.0" cy="80.2" r="4" fill="#60e5e0" /><circle cx="156.0" cy="79.8" r="4" fill="#60e5e0" /><circle cx="194.0" cy="79.7" r="4" fill="#60e5e0" /><circle cx="232.0" cy="79.7" r="4" fill="#60e5e0" /><circle cx="270.0" cy="79.5" r="4" fill="#60e5e0" /><circle cx="308.0" cy="79.5" r="4" fill="#60e5e0" /><circle cx="346.0" cy="79.5" r="4" fill="#60e5e0" /><circle cx="384.0" cy="79.5" r="4" fill="#60e5e0" /><circle cx="422.0" cy="79.5" r="4" fill="#60e5e0" /><circle cx="460.0" cy="77.8" r="4" fill="#60e5e0" /><circle cx="498.0" cy="77.8" r="4" fill="#60e5e0" /><circle cx="536.0" cy="77.8" r="4" fill="#60e5e0" /><circle cx="574.0" cy="77.8" r="4" fill="#60e5e0" /><circle cx="612.0" cy="77.8" r="4" fill="#60e5e0" /><circle cx="650.0" cy="77.8" r="4" fill="#60e5e0" /><circle cx="688.0" cy="77.8" r="4" fill="#60e5e0" /><circle cx="726.0" cy="76.5" r="4" fill="#60e5e0" /><circle cx="764.0" cy="76.5" r="4" fill="#60e5e0" /><circle cx="802.0" cy="76.5" r="4" fill="#60e5e0" /><circle cx="840.0" cy="76.5" r="4" fill="#60e5e0" /><polyline points="80.0,312.8 118.0,312.5 156.0,312.3 194.0,312.3 232.0,312.3 270.0,312.2 308.0,312.2 346.0,312.2 384.0,312.2 422.0,312.2 460.0,312.0 498.0,312.0 536.0,312.0 574.0,312.0 612.0,312.0 650.0,312.0 688.0,312.0 726.0,312.0 764.0,312.0 802.0,312.0 840.0,312.0" fill="none" stroke="#567de1" stroke-width="2.5" stroke-linecap="round" stroke-linejoin="round" /><circle cx="80.0" cy="312.8" r="4" fill="#567de1" /><circle cx="118.0" cy="312.5" r="4" fill="#567de1" /><circle cx="156.0" cy="312.3" r="4" fill="#567de1" /><circle cx="194.0" cy="312.3" r="4" fill="#567de1" /><circle cx="232.0" cy="312.3" r="4" fill="#567de1" /><circle cx="270.0" cy="312.2" r="4" fill="#567de1" /><circle cx="308.0" cy="312.2" r="4" fill="#567de1" /><circle cx="346.0" cy="312.2" r="4" fill="#567de1" /><circle cx="384.0" cy="312.2" r="4" fill="#567de1" /><circle cx="422.0" cy="312.2" r="4" fill="#567de1" /><circle cx="460.0" cy="312.0" r="4" fill="#567de1" /><circle cx="498.0" cy="312.0" r="4" fill="#567de1" /><circle cx="536.0" cy="312.0" r="4" fill="#567de1" /><circle cx="574.0" cy="312.0" r="4" fill="#567de1" /><circle cx="612.0" cy="312.0" r="4" fill="#567de1" /><circle cx="650.0" cy="312.0" r="4" fill="#567de1" /><circle cx="688.0" cy="312.0" r="4" fill="#567de1" /><circle cx="726.0" cy="312.0" r="4" fill="#567de1" /><circle cx="764.0" cy="312.0" r="4" fill="#567de1" /><circle cx="802.0" cy="312.0" r="4" fill="#567de1" /><circle cx="840.0" cy="312.0" r="4" fill="#567de1" /><polyline points="80.0,298.5 118.0,299.0 156.0,299.2 194.0,299.2 232.0,299.2 270.0,299.2 308.0,299.2 346.0,299.2 384.0,299.2 422.0,299.2 460.0,299.2 498.0,299.2 536.0,299.2 574.0,299.2 612.0,299.2 650.0,299.2 688.0,299.2 726.0,299.2 764.0,299.2 802.0,299.2 840.0,299.2" fill="none" stroke="#9754dd" stroke-width="2.5" stroke-linecap="round" stroke-linejoin="round" /><circle cx="80.0" cy="298.5" r="4" fill="#9754dd" /><circle cx="118.0" cy="299.0" r="4" fill="#9754dd" /><circle cx="156.0" cy="299.2" r="4" fill="#9754dd" /><circle cx="194.0" cy="299.2" r="4" fill="#9754dd" /><circle cx="232.0" cy="299.2" r="4" fill="#9754dd" /><circle cx="270.0" cy="299.2" r="4" fill="#9754dd" /><circle cx="308.0" cy="299.2" r="4" fill="#9754dd" /><circle cx="346.0" cy="299.2" r="4" fill="#9754dd" /><circle cx="384.0" cy="299.2" r="4" fill="#9754dd" /><circle cx="422.0" cy="299.2" r="4" fill="#9754dd" /><circle cx="460.0" cy="299.2" r="4" fill="#9754dd" /><circle cx="498.0" cy="299.2" r="4" fill="#9754dd" /><circle cx="536.0" cy="299.2" r="4" fill="#9754dd" /><circle cx="574.0" cy="299.2" r="4" fill="#9754dd" /><circle cx="612.0" cy="299.2" r="4" fill="#9754dd" /><circle cx="650.0" cy="299.2" r="4" fill="#9754dd" /><circle cx="688.0" cy="299.2" r="4" fill="#9754dd" /><circle cx="726.0" cy="299.2" r="4" fill="#9754dd" /><circle cx="764.0" cy="299.2" r="4" fill="#9754dd" /><circle cx="802.0" cy="299.2" r="4" fill="#9754dd" /><circle cx="840.0" cy="299.2" r="4" fill="#9754dd" />
  <rect x="80" y="339" width="10" height="10" rx="2" ry="2" fill="#19e5a1" /><text x="96" y="348" class="legend-label">Stars</text><rect x="250" y="339" width="10" height="10" rx="2" ry="2" fill="#6eb6ec" /><text x="266" y="348" class="legend-label">Followers</text><rect x="420" y="339" width="10" height="10" rx="2" ry="2" fill="#5938e2" /><text x="436" y="348" class="legend-label">Following</text><rect x="590" y="339" width="10" height="10" rx="2" ry="2" fill="#60e5e0" /><text x="606" y="348" class="legend-label">Contributions</text><rect x="80" y="357" width="10" height="10" rx="2" ry="2" fill="#567de1" /><text x="96" y="366" class="legend-label">Pull Requests</text><rect x="250" y="357" width="10" height="10" rx="2" ry="2" fill="#9754dd" /><text x="266" y="366" class="legend-label">Issues</text>
</svg>
