<svg width="900" height="402" viewBox="0 0 900 402" xmlns="http://www.w3.org/2000/svg">
  <defs>
    <linearGradient id="history-gradient" x1="0%" y1="0%" x2="100%" y2="100%">
      <stop offset="0%" style="stop-color:#58a6ff;stop-opacity:1" />
      <stop offset="100%" style="stop-color:#a371f7;stop-opacity:1" />
    </linearGradient>
    <clipPath id="history-rounded">
      <rect x="0" y="0" width="900" height="402" rx="8" ry="8" />
    </clipPath>
  </defs>
  <style>
    .title {
      font-family: 'Segoe UI', Ubuntu, 'Helvetica Neue', sans-serif;
      font-size: 22px;
      font-weight: 700;
      fill: #58a6ff;
    }
    .subtitle {
      font-family: 'Segoe UI', Ubuntu, 'Helvetica Neue', sans-serif;
      font-size: 12px;
      font-weight: 500;
      fill: #8b949e;
    }
    .axis-label {
      font-family: 'Segoe UI', Ubuntu, 'Helvetica Neue', sans-serif;
      font-size: 10px;
      fill: #8b949e;
    }
    .grid-line {
      stroke: #30363d;
      stroke-width: 1;
      opacity: 0.3;
    }
    .legend-label {
      font-family: 'Segoe UI', Ubuntu, 'Helvetica Neue', sans-serif;
      font-size: 11px;
      fill: #c9d1d9;
      dominant-baseline: middle;
    }
  </style>
  <rect clip-path="url(#history-rounded)" width="100%" height="100%" fill="#0d1117" stroke="#30363d" stroke-width="1" />
  <rect x="0" y="396" width="900" height="6" fill="url(#history-gradient)" clip-path="url(#history-rounded)" />
  <text x="24" y="34" class="title">Leonardo Klein Stats History</text>
  <text x="24" y="54" class="subtitle">Period: 2026-02-20 to 2026-02-28</text>
  <text x="72" y="320.0" text-anchor="end" dominant-baseline="central" class="axis-label">0</text><text x="72" y="270.0" text-anchor="end" dominant-baseline="central" class="axis-label">400</text><text x="72" y="220.0" text-anchor="end" dominant-baseline="central" class="axis-label">800</text><text x="72" y="170.0" text-anchor="end" dominant-baseline="central" class="axis-label">1.2k</text><text x="72" y="120.0" text-anchor="end" dominant-baseline="central" class="axis-label">1.6k</text><text x="72" y="70.0" text-anchor="end" dominant-baseline="central" class="axis-label">2.0k</text>
  <text x="80.0" y="336" text-anchor="middle" class="axis-label">02-20</text><text x="154.1" y="336" text-anchor="middle" class="axis-label">02-21</text><text x="228.3" y="336" text-anchor="middle" class="axis-label">02-22</text><text x="302.4" y="336" text-anchor="middle" class="axis-label">02-22</text><text x="376.6" y="336" text-anchor="middle" class="axis-label">02-23</text><text x="450.7" y="336" text-anchor="middle" class="axis-label">02-24</text><text x="524.9" y="336" text-anchor="middle" class="axis-label">02-25</text><text x="599.0" y="336" text-anchor="middle" class="axis-label">02-26</text><text x="673.2" y="336" text-anchor="middle" class="axis-label">02-26</text><text x="747.3" y="336" text-anchor="middle" class="axis-label">02-27</text><text x="821.5" y="336" text-anchor="middle" class="axis-label">02-28</text><text x="840.0" y="336" text-anchor="middle" class="axis-label">02-28</text>
  <line x1="80" y1="320.0" x2="840" y2="320.0" class="grid-line" /><line x1="80" y1="270.0" x2="840" y2="270.0" class="grid-line" /><line x1="80" y1="220.0" x2="840" y2="220.0" class="grid-line" /><line x1="80" y1="170.0" x2="840" y2="170.0" class="grid-line" /><line x1="80" y1="120.0" x2="840" y2="120.0" class="grid-line" /><line x1="80" y1="70.0" x2="840" y2="70.0" class="grid-line" />
  <polyline points="80.0,317.0 98.5,317.0 117.1,317.0 135.6,317.0 154.1,317.0 172.7,317.0 191.2,317.0 209.8,317.0 228.3,317.0 246.8,317.0 265.4,317.0 283.9,317.0 302.4,317.0 321.0,317.0 339.5,317.0 358.0,317.0 376.6,317.0 395.1,317.0 413.7,317.0 432.2,317.0 450.7,317.0 469.3,317.0 487.8,317.0 506.3,317.0 524.9,317.0 543.4,317.0 562.0,317.0 580.5,317.0 599.0,317.0 617.6,317.0 636.1,317.0 654.6,317.0 673.2,317.0 691.7,317.0 710.2,317.0 728.8,317.0 747.3,317.0 765.9,317.0 784.4,317.0 802.9,317.0 821.5,317.0 840.0,317.0" fill="none" stroke="#19e5a1" stroke-width="2.5" stroke-linecap="round" stroke-linejoin="round" /><circle cx="80.0" cy="317.0" r="4" fill="#19e5a1" /><circle cx="98.5" cy="317.0" r="4" fill="#19e5a1" /><circle cx="117.1" cy="317.0" r="4" fill="#19e5a1" /><circle cx="135.6" cy="317.0" r="4" fill="#19e5a1" /><circle cx="154.1" cy="317.0" r="4" fill="#19e5a1" /><circle cx="172.7" cy="317.0" r="4" fill="#19e5a1" /><circle cx="191.2" cy="317.0" r="4" fill="#19e5a1" /><circle cx="209.8" cy="317.0" r="4" fill="#19e5a1" /><circle cx="228.3" cy="317.0" r="4" fill="#19e5a1" /><circle cx="246.8" cy="317.0" r="4" fill="#19e5a1" /><circle cx="265.4" cy="317.0" r="4" fill="#19e5a1" /><circle cx="283.9" cy="317.0" r="4" fill="#19e5a1" /><circle cx="302.4" cy="317.0" r="4" fill="#19e5a1" /><circle cx="321.0" cy="317.0" r="4" fill="#19e5a1" /><circle cx="339.5" cy="317.0" r="4" fill="#19e5a1" /><circle cx="358.0" cy="317.0" r="4" fill="#19e5a1" /><circle cx="376.6" cy="317.0" r="4" fill="#19e5a1" /><circle cx="395.1" cy="317.0" r="4" fill="#19e5a1" /><circle cx="413.7" cy="317.0" r="4" fill="#19e5a1" /><circle cx="432.2" cy="317.0" r="4" fill="#19e5a1" /><circle cx="450.7" cy="317.0" r="4" fill="#19e5a1" /><circle cx="469.3" cy="317.0" r="4" fill="#19e5a1" /><circle cx="487.8" cy="317.0" r="4" fill="#19e5a1" /><circle cx="506.3" cy="317.0" r="4" fill="#19e5a1" /><circle cx="524.9" cy="317.0" r="4" fill="#19e5a1" /><circle cx="543.4" cy="317.0" r="4" fill="#19e5a1" /><circle cx="562.0" cy="317.0" r="4" fill="#19e5a1" /><circle cx="580.5" cy="317.0" r="4" fill="#19e5a1" /><circle cx="599.0" cy="317.0" r="4" fill="#19e5a1" /><circle cx="617.6" cy="317.0" r="4" fill="#19e5a1" /><circle cx="636.1" cy="317.0" r="4" fill="#19e5a1" /><circle cx="654.6" cy="317.0" r="4" fill="#19e5a1" /><circle cx="673.2" cy="317.0" r="4" fill="#19e5a1" /><circle cx="691.7" cy="317.0" r="4" fill="#19e5a1" /><circle cx="710.2" cy="317.0" r="4" fill="#19e5a1" /><circle cx="728.8" cy="317.0" r="4" fill="#19e5a1" /><circle cx="747.3" cy="317.0" r="4" fill="#19e5a1" /><circle cx="765.9" cy="317.0" r="4" fill="#19e5a1" /><circle cx="784.4" cy="317.0" r="4" fill="#19e5a1" /><circle cx="802.9" cy="317.0" r="4" fill="#19e5a1" /><circle cx="821.5" cy="317.0" r="4" fill="#19e5a1" /><circle cx="840.0" cy="317.0" r="4" fill="#19e5a1" /><polyline points="80.0,313.2 98.5,312.2 117.1,312.1 135.6,312.4 154.1,312.4 172.7,312.4 191.2,312.1 209.8,312.0 228.3,311.9 246.8,311.9 265.4,311.8 283.9,311.8 302.4,311.5 321.0,311.5 339.5,311.5 358.0,311.2 376.6,311.2 395.1,311.1 413.7,311.1 432.2,311.1 450.7,310.9 469.3,311.0 487.8,310.8 506.3,310.8 524.9,310.8 543.4,310.8 562.0,310.4 580.5,310.2 599.0,310.4 617.6,310.4 636.1,310.4 654.6,310.4 673.2,310.4 691.7,310.2 710.2,310.2 728.8,310.1 747.3,310.1 765.9,309.8 784.4,309.6 802.9,309.6 821.5,309.6 840.0,309.6" fill="none" stroke="#6eb6ec" stroke-width="2.5" stroke-linecap="round" stroke-linejoin="round" /><circle cx="80.0" cy="313.2" r="4" fill="#6eb6ec" /><circle cx="98.5" cy="312.2" r="4" fill="#6eb6ec" /><circle cx="117.1" cy="312.1" r="4" fill="#6eb6ec" /><circle cx="135.6" cy="312.4" r="4" fill="#6eb6ec" /><circle cx="154.1" cy="312.4" r="4" fill="#6eb6ec" /><circle cx="172.7" cy="312.4" r="4" fill="#6eb6ec" /><circle cx="191.2" cy="312.1" r="4" fill="#6eb6ec" /><circle cx="209.8" cy="312.0" r="4" fill="#6eb6ec" /><circle cx="228.3" cy="311.9" r="4" fill="#6eb6ec" /><circle cx="246.8" cy="311.9" r="4" fill="#6eb6ec" /><circle cx="265.4" cy="311.8" r="4" fill="#6eb6ec" /><circle cx="283.9" cy="311.8" r="4" fill="#6eb6ec" /><circle cx="302.4" cy="311.5" r="4" fill="#6eb6ec" /><circle cx="321.0" cy="311.5" r="4" fill="#6eb6ec" /><circle cx="339.5" cy="311.5" r="4" fill="#6eb6ec" /><circle cx="358.0" cy="311.2" r="4" fill="#6eb6ec" /><circle cx="376.6" cy="311.2" r="4" fill="#6eb6ec" /><circle cx="395.1" cy="311.1" r="4" fill="#6eb6ec" /><circle cx="413.7" cy="311.1" r="4" fill="#6eb6ec" /><circle cx="432.2" cy="311.1" r="4" fill="#6eb6ec" /><circle cx="450.7" cy="310.9" r="4" fill="#6eb6ec" /><circle cx="469.3" cy="311.0" r="4" fill="#6eb6ec" /><circle cx="487.8" cy="310.8" r="4" fill="#6eb6ec" /><circle cx="506.3" cy="310.8" r="4" fill="#6eb6ec" /><circle cx="524.9" cy="310.8" r="4" fill="#6eb6ec" /><circle cx="543.4" cy="310.8" r="4" fill="#6eb6ec" /><circle cx="562.0" cy="310.4" r="4" fill="#6eb6ec" /><circle cx="580.5" cy="310.2" r="4" fill="#6eb6ec" /><circle cx="599.0" cy="310.4" r="4" fill="#6eb6ec" /><circle cx="617.6" cy="310.4" r="4" fill="#6eb6ec" /><circle cx="636.1" cy="310.4" r="4" fill="#6eb6ec" /><circle cx="654.6" cy="310.4" r="4" fill="#6eb6ec" /><circle cx="673.2" cy="310.4" r="4" fill="#6eb6ec" /><circle cx="691.7" cy="310.2" r="4" fill="#6eb6ec" /><circle cx="710.2" cy="310.2" r="4" fill="#6eb6ec" /><circle cx="728.8" cy="310.1" r="4" fill="#6eb6ec" /><circle cx="747.3" cy="310.1" r="4" fill="#6eb6ec" /><circle cx="765.9" cy="309.8" r="4" fill="#6eb6ec" /><circle cx="784.4" cy="309.6" r="4" fill="#6eb6ec" /><circle cx="802.9" cy="309.6" r="4" fill="#6eb6ec" /><circle cx="821.5" cy="309.6" r="4" fill="#6eb6ec" /><circle cx="840.0" cy="309.6" r="4" fill="#6eb6ec" /><polyline points="80.0,305.8 98.5,305.8 117.1,305.8 135.6,305.8 154.1,305.8 172.7,305.8 191.2,305.8 209.8,305.8 228.3,305.8 246.8,305.8 265.4,304.9 283.9,304.9 302.4,304.9 321.0,304.9 339.5,304.9 358.0,304.9 376.6,304.9 395.1,304.9 413.7,304.9 432.2,304.9 450.7,304.9 469.3,304.9 487.8,304.9 506.3,304.9 524.9,304.9 543.4,304.9 562.0,304.9 580.5,304.9 599.0,304.9 617.6,304.9 636.1,304.9 654.6,304.9 673.2,304.9 691.7,304.9 710.2,304.9 728.8,304.9 747.3,304.9 765.9,303.6 784.4,303.6 802.9,303.6 821.5,303.6 840.0,303.6" fill="none" stroke="#5938e2" stroke-width="2.5" stroke-linecap="round" stroke-linejoin="round" /><circle cx="80.0" cy="305.8" r="4" fill="#5938e2" /><circle cx="98.5" cy="305.8" r="4" fill="#5938e2" /><circle cx="117.1" cy="305.8" r="4" fill="#5938e2" /><circle cx="135.6" cy="305.8" r="4" fill="#5938e2" /><circle cx="154.1" cy="305.8" r="4" fill="#5938e2" /><circle cx="172.7" cy="305.8" r="4" fill="#5938e2" /><circle cx="191.2" cy="305.8" r="4" fill="#5938e2" /><circle cx="209.8" cy="305.8" r="4" fill="#5938e2" /><circle cx="228.3" cy="305.8" r="4" fill="#5938e2" /><circle cx="246.8" cy="305.8" r="4" fill="#5938e2" /><circle cx="265.4" cy="304.9" r="4" fill="#5938e2" /><circle cx="283.9" cy="304.9" r="4" fill="#5938e2" /><circle cx="302.4" cy="304.9" r="4" fill="#5938e2" /><circle cx="321.0" cy="304.9" r="4" fill="#5938e2" /><circle cx="339.5" cy="304.9" r="4" fill="#5938e2" /><circle cx="358.0" cy="304.9" r="4" fill="#5938e2" /><circle cx="376.6" cy="304.9" r="4" fill="#5938e2" /><circle cx="395.1" cy="304.9" r="4" fill="#5938e2" /><circle cx="413.7" cy="304.9" r="4" fill="#5938e2" /><circle cx="432.2" cy="304.9" r="4" fill="#5938e2" /><circle cx="450.7" cy="304.9" r="4" fill="#5938e2" /><circle cx="469.3" cy="304.9" r="4" fill="#5938e2" /><circle cx="487.8" cy="304.9" r="4" fill="#5938e2" /><circle cx="506.3" cy="304.9" r="4" fill="#5938e2" /><circle cx="524.9" cy="304.9" r="4" fill="#5938e2" /><circle cx="543.4" cy="304.9" r="4" fill="#5938e2" /><circle cx="562.0" cy="304.9" r="4" fill="#5938e2" /><circle cx="580.5" cy="304.9" r="4" fill="#5938e2" /><circle cx="599.0" cy="304.9" r="4" fill="#5938e2" /><circle cx="617.6" cy="304.9" r="4" fill="#5938e2" /><circle cx="636.1" cy="304.9" r="4" fill="#5938e2" /><circle cx="654.6" cy="304.9" r="4" fill="#5938e2" /><circle cx="673.2" cy="304.9" r="4" fill="#5938e2" /><circle cx="691.7" cy="304.9" r="4" fill="#5938e2" /><circle cx="710.2" cy="304.9" r="4" fill="#5938e2" /><circle cx="728.8" cy="304.9" r="4" fill="#5938e2" /><circle cx="747.3" cy="304.9" r="4" fill="#5938e2" /><circle cx="765.9" cy="303.6" r="4" fill="#5938e2" /><circle cx="784.4" cy="303.6" r="4" fill="#5938e2" /><circle cx="802.9" cy="303.6" r="4" fill="#5938e2" /><circle cx="821.5" cy="303.6" r="4" fill="#5938e2" /><circle cx="840.0" cy="303.6" r="4" fill="#5938e2" /><polyline points="80.0,144.6 98.5,140.1 117.1,139.9 135.6,139.8 154.1,139.8 172.7,139.6 191.2,139.6 209.8,139.6 228.3,139.6 246.8,139.6 265.4,138.4 283.9,138.4 302.4,138.4 321.0,138.4 339.5,138.4 358.0,138.4 376.6,138.4 395.1,137.4 413.7,137.4 432.2,137.4 450.7,137.4 469.3,137.4 487.8,137.4 506.3,137.4 524.9,137.4 543.4,137.4 562.0,137.4 580.5,137.4 599.0,131.2 617.6,131.2 636.1,130.8 654.6,130.4 673.2,126.9 691.7,126.9 710.2,126.9 728.8,126.9 747.3,126.9 765.9,126.9 784.4,126.9 802.9,126.9 821.5,126.9 840.0,126.8" fill="none" stroke="#60e5e0" stroke-width="2.5" stroke-linecap="round" stroke-linejoin="round" /><circle cx="80.0" cy="144.6" r="4" fill="#60e5e0" /><circle cx="98.5" cy="140.1" r="4" fill="#60e5e0" /><circle cx="117.1" cy="139.9" r="4" fill="#60e5e0" /><circle cx="135.6" cy="139.8" r="4" fill="#60e5e0" /><circle cx="154.1" cy="139.8" r="4" fill="#60e5e0" /><circle cx="172.7" cy="139.6" r="4" fill="#60e5e0" /><circle cx="191.2" cy="139.6" r="4" fill="#60e5e0" /><circle cx="209.8" cy="139.6" r="4" fill="#60e5e0" /><circle cx="228.3" cy="139.6" r="4" fill="#60e5e0" /><circle cx="246.8" cy="139.6" r="4" fill="#60e5e0" /><circle cx="265.4" cy="138.4" r="4" fill="#60e5e0" /><circle cx="283.9" cy="138.4" r="4" fill="#60e5e0" /><circle cx="302.4" cy="138.4" r="4" fill="#60e5e0" /><circle cx="321.0" cy="138.4" r="4" fill="#60e5e0" /><circle cx="339.5" cy="138.4" r="4" fill="#60e5e0" /><circle cx="358.0" cy="138.4" r="4" fill="#60e5e0" /><circle cx="376.6" cy="138.4" r="4" fill="#60e5e0" /><circle cx="395.1" cy="137.4" r="4" fill="#60e5e0" /><circle cx="413.7" cy="137.4" r="4" fill="#60e5e0" /><circle cx="432.2" cy="137.4" r="4" fill="#60e5e0" /><circle cx="450.7" cy="137.4" r="4" fill="#60e5e0" /><circle cx="469.3" cy="137.4" r="4" fill="#60e5e0" /><circle cx="487.8" cy="137.4" r="4" fill="#60e5e0" /><circle cx="506.3" cy="137.4" r="4" fill="#60e5e0" /><circle cx="524.9" cy="137.4" r="4" fill="#60e5e0" /><circle cx="543.4" cy="137.4" r="4" fill="#60e5e0" /><circle cx="562.0" cy="137.4" r="4" fill="#60e5e0" /><circle cx="580.5" cy="137.4" r="4" fill="#60e5e0" /><circle cx="599.0" cy="131.2" r="4" fill="#60e5e0" /><circle cx="617.6" cy="131.2" r="4" fill="#60e5e0" /><circle cx="636.1" cy="130.8" r="4" fill="#60e5e0" /><circle cx="654.6" cy="130.4" r="4" fill="#60e5e0" /><circle cx="673.2" cy="126.9" r="4" fill="#60e5e0" /><circle cx="691.7" cy="126.9" r="4" fill="#60e5e0" /><circle cx="710.2" cy="126.9" r="4" fill="#60e5e0" /><circle cx="728.8" cy="126.9" r="4" fill="#60e5e0" /><circle cx="747.3" cy="126.9" r="4" fill="#60e5e0" /><circle cx="765.9" cy="126.9" r="4" fill="#60e5e0" /><circle cx="784.4" cy="126.9" r="4" fill="#60e5e0" /><circle cx="802.9" cy="126.9" r="4" fill="#60e5e0" /><circle cx="821.5" cy="126.9" r="4" fill="#60e5e0" /><circle cx="840.0" cy="126.8" r="4" fill="#60e5e0" /><polyline points="80.0,314.6 98.5,314.4 117.1,314.2 135.6,314.2 154.1,314.2 172.7,314.1 191.2,314.1 209.8,314.1 228.3,314.1 246.8,314.1 265.4,314.0 283.9,314.0 302.4,314.0 321.0,314.0 339.5,314.0 358.0,314.0 376.6,314.0 395.1,314.0 413.7,314.0 432.2,314.0 450.7,314.0 469.3,314.0 487.8,314.0 506.3,314.0 524.9,314.0 543.4,314.0 562.0,314.0 580.5,314.0 599.0,314.0 617.6,314.0 636.1,314.0 654.6,314.0 673.2,314.0 691.7,314.0 710.2,314.0 728.8,314.0 747.3,314.0 765.9,314.0 784.4,314.0 802.9,314.0 821.5,314.0 840.0,313.9" fill="none" stroke="#567de1" stroke-width="2.5" stroke-linecap="round" stroke-linejoin="round" /><circle cx="80.0" cy="314.6" r="4" fill="#567de1" /><circle cx="98.5" cy="314.4" r="4" fill="#567de1" /><circle cx="117.1" cy="314.2" r="4" fill="#567de1" /><circle cx="135.6" cy="314.2" r="4" fill="#567de1" /><circle cx="154.1" cy="314.2" r="4" fill="#567de1" /><circle cx="172.7" cy="314.1" r="4" fill="#567de1" /><circle cx="191.2" cy="314.1" r="4" fill="#567de1" /><circle cx="209.8" cy="314.1" r="4" fill="#567de1" /><circle cx="228.3" cy="314.1" r="4" fill="#567de1" /><circle cx="246.8" cy="314.1" r="4" fill="#567de1" /><circle cx="265.4" cy="314.0" r="4" fill="#567de1" /><circle cx="283.9" cy="314.0" r="4" fill="#567de1" /><circle cx="302.4" cy="314.0" r="4" fill="#567de1" /><circle cx="321.0" cy="314.0" r="4" fill="#567de1" /><circle cx="339.5" cy="314.0" r="4" fill="#567de1" /><circle cx="358.0" cy="314.0" r="4" fill="#567de1" /><circle cx="376.6" cy="314.0" r="4" fill="#567de1" /><circle cx="395.1" cy="314.0" r="4" fill="#567de1" /><circle cx="413.7" cy="314.0" r="4" fill="#567de1" /><circle cx="432.2" cy="314.0" r="4" fill="#567de1" /><circle cx="450.7" cy="314.0" r="4" fill="#567de1" /><circle cx="469.3" cy="314.0" r="4" fill="#567de1" /><circle cx="487.8" cy="314.0" r="4" fill="#567de1" /><circle cx="506.3" cy="314.0" r="4" fill="#567de1" /><circle cx="524.9" cy="314.0" r="4" fill="#567de1" /><circle cx="543.4" cy="314.0" r="4" fill="#567de1" /><circle cx="562.0" cy="314.0" r="4" fill="#567de1" /><circle cx="580.5" cy="314.0" r="4" fill="#567de1" /><circle cx="599.0" cy="314.0" r="4" fill="#567de1" /><circle cx="617.6" cy="314.0" r="4" fill="#567de1" /><circle cx="636.1" cy="314.0" r="4" fill="#567de1" /><circle cx="654.6" cy="314.0" r="4" fill="#567de1" /><circle cx="673.2" cy="314.0" r="4" fill="#567de1" /><circle cx="691.7" cy="314.0" r="4" fill="#567de1" /><circle cx="710.2" cy="314.0" r="4" fill="#567de1" /><circle cx="728.8" cy="314.0" r="4" fill="#567de1" /><circle cx="747.3" cy="314.0" r="4" fill="#567de1" /><circle cx="765.9" cy="314.0" r="4" fill="#567de1" /><circle cx="784.4" cy="314.0" r="4" fill="#567de1" /><circle cx="802.9" cy="314.0" r="4" fill="#567de1" /><circle cx="821.5" cy="314.0" r="4" fill="#567de1" /><circle cx="840.0" cy="313.9" r="4" fill="#567de1" /><polyline points="80.0,303.9 98.5,304.2 117.1,304.4 135.6,304.4 154.1,304.4 172.7,304.4 191.2,304.4 209.8,304.4 228.3,304.4 246.8,304.4 265.4,304.4 283.9,304.4 302.4,304.4 321.0,304.4 339.5,304.4 358.0,304.4 376.6,304.4 395.1,304.4 413.7,304.4 432.2,304.4 450.7,304.4 469.3,304.4 487.8,304.4 506.3,304.4 524.9,304.4 543.4,304.4 562.0,304.4 580.5,304.4 599.0,299.1 617.6,299.1 636.1,299.1 654.6,298.9 673.2,295.6 691.7,295.6 710.2,295.6 728.8,295.6 747.3,295.6 765.9,295.6 784.4,295.6 802.9,295.6 821.5,295.6 840.0,295.8" fill="none" stroke="#9754dd" stroke-width="2.5" stroke-linecap="round" stroke-linejoin="round" /><circle cx="80.0" cy="303.9" r="4" fill="#9754dd" /><circle cx="98.5" cy="304.2" r="4" fill="#9754dd" /><circle cx="117.1" cy="304.4" r="4" fill="#9754dd" /><circle cx="135.6" cy="304.4" r="4" fill="#9754dd" /><circle cx="154.1" cy="304.4" r="4" fill="#9754dd" /><circle cx="172.7" cy="304.4" r="4" fill="#9754dd" /><circle cx="191.2" cy="304.4" r="4" fill="#9754dd" /><circle cx="209.8" cy="304.4" r="4" fill="#9754dd" /><circle cx="228.3" cy="304.4" r="4" fill="#9754dd" /><circle cx="246.8" cy="304.4" r="4" fill="#9754dd" /><circle cx="265.4" cy="304.4" r="4" fill="#9754dd" /><circle cx="283.9" cy="304.4" r="4" fill="#9754dd" /><circle cx="302.4" cy="304.4" r="4" fill="#9754dd" /><circle cx="321.0" cy="304.4" r="4" fill="#9754dd" /><circle cx="339.5" cy="304.4" r="4" fill="#9754dd" /><circle cx="358.0" cy="304.4" r="4" fill="#9754dd" /><circle cx="376.6" cy="304.4" r="4" fill="#9754dd" /><circle cx="395.1" cy="304.4" r="4" fill="#9754dd" /><circle cx="413.7" cy="304.4" r="4" fill="#9754dd" /><circle cx="432.2" cy="304.4" r="4" fill="#9754dd" /><circle cx="450.7" cy="304.4" r="4" fill="#9754dd" /><circle cx="469.3" cy="304.4" r="4" fill="#9754dd" /><circle cx="487.8" cy="304.4" r="4" fill="#9754dd" /><circle cx="506.3" cy="304.4" r="4" fill="#9754dd" /><circle cx="524.9" cy="304.4" r="4" fill="#9754dd" /><circle cx="543.4" cy="304.4" r="4" fill="#9754dd" /><circle cx="562.0" cy="304.4" r="4" fill="#9754dd" /><circle cx="580.5" cy="304.4" r="4" fill="#9754dd" /><circle cx="599.0" cy="299.1" r="4" fill="#9754dd" /><circle cx="617.6" cy="299.1" r="4" fill="#9754dd" /><circle cx="636.1" cy="299.1" r="4" fill="#9754dd" /><circle cx="654.6" cy="298.9" r="4" fill="#9754dd" /><circle cx="673.2" cy="295.6" r="4" fill="#9754dd" /><circle cx="691.7" cy="295.6" r="4" fill="#9754dd" /><circle cx="710.2" cy="295.6" r="4" fill="#9754dd" /><circle cx="728.8" cy="295.6" r="4" fill="#9754dd" /><circle cx="747.3" cy="295.6" r="4" fill="#9754dd" /><circle cx="765.9" cy="295.6" r="4" fill="#9754dd" /><circle cx="784.4" cy="295.6" r="4" fill="#9754dd" /><circle cx="802.9" cy="295.6" r="4" fill="#9754dd" /><circle cx="821.5" cy="295.6" r="4" fill="#9754dd" /><circle cx="840.0" cy="295.8" r="4" fill="#9754dd" />
  <rect x="80" y="339" width="10" height="10" rx="2" ry="2" fill="#19e5a1" /><text x="96" y="348" class="legend-label">Stars</text><rect x="250" y="339" width="10" height="10" rx="2" ry="2" fill="#6eb6ec" /><text x="266" y="348" class="legend-label">Followers</text><rect x="420" y="339" width="10" height="10" rx="2" ry="2" fill="#5938e2" /><text x="436" y="348" class="legend-label">Following</text><rect x="590" y="339" width="10" height="10" rx="2" ry="2" fill="#60e5e0" /><text x="606" y="348" class="legend-label">Contributions</text><rect x="80" y="357" width="10" height="10" rx="2" ry="2" fill="#567de1" /><text x="96" y="366" class="legend-label">Pull Requests</text><rect x="250" y="357" width="10" height="10" rx="2" ry="2" fill="#9754dd" /><text x="266" y="366" class="legend-label">Issues</text>
</svg>
