<svg width="900" height="402" viewBox="0 0 900 402" xmlns="http://www.w3.org/2000/svg">
  <defs>
    <linearGradient id="history-gradient" x1="0%" y1="0%" x2="100%" y2="100%">
      <stop offset="0%" style="stop-color:#58a6ff;stop-opacity:1" />
      <stop offset="100%" style="stop-color:#a371f7;stop-opacity:1" />
    </linearGradient>
    <clipPath id="history-rounded">
      <rect x="0" y="0" width="900" height="402" rx="8" ry="8" />
    </clipPath>
  </defs>
  <style>
    .title {
      font-family: 'Segoe UI', Ubuntu, 'Helvetica Neue', sans-serif;
      font-size: 22px;
      font-weight: 700;
      fill: #58a6ff;
    }
    .subtitle {
      font-family: 'Segoe UI', Ubuntu, 'Helvetica Neue', sans-serif;
      font-size: 12px;
      font-weight: 500;
      fill: #8b949e;
    }
    .axis-label {
      font-family: 'Segoe UI', Ubuntu, 'Helvetica Neue', sans-serif;
      font-size: 10px;
      fill: #8b949e;
    }
    .grid-line {
      stroke: #30363d;
      stroke-width: 1;
      opacity: 0.3;
    }
    .legend-label {
      font-family: 'Segoe UI', Ubuntu, 'Helvetica Neue', sans-serif;
      font-size: 11px;
      fill: #c9d1d9;
      dominant-baseline: middle;
    }
  </style>
  <rect clip-path="url(#history-rounded)" width="100%" height="100%" fill="#0d1117" stroke="#30363d" stroke-width="1" />
  <rect x="0" y="396" width="900" height="6" fill="url(#history-gradient)" clip-path="url(#history-rounded)" />
  <text x="24" y="34" class="title">Leonardo Klein Stats History</text>
  <text x="24" y="54" class="subtitle">Period: 2026-02-20 to 2026-02-23</text>
  <text x="72" y="320.0" text-anchor="end" dominant-baseline="central" class="axis-label">0</text><text x="72" y="270.0" text-anchor="end" dominant-baseline="central" class="axis-label">300</text><text x="72" y="220.0" text-anchor="end" dominant-baseline="central" class="axis-label">600</text><text x="72" y="170.0" text-anchor="end" dominant-baseline="central" class="axis-label">900</text><text x="72" y="120.0" text-anchor="end" dominant-baseline="central" class="axis-label">1.2k</text><text x="72" y="70.0" text-anchor="end" dominant-baseline="central" class="axis-label">1.5k</text>
  <text x="80.0" y="336" text-anchor="middle" class="axis-label">02-20</text><text x="127.5" y="336" text-anchor="middle" class="axis-label">02-20</text><text x="175.0" y="336" text-anchor="middle" class="axis-label">02-20</text><text x="222.5" y="336" text-anchor="middle" class="axis-label">02-21</text><text x="270.0" y="336" text-anchor="middle" class="axis-label">02-21</text><text x="317.5" y="336" text-anchor="middle" class="axis-label">02-21</text><text x="365.0" y="336" text-anchor="middle" class="axis-label">02-21</text><text x="412.5" y="336" text-anchor="middle" class="axis-label">02-21</text><text x="460.0" y="336" text-anchor="middle" class="axis-label">02-22</text><text x="507.5" y="336" text-anchor="middle" class="axis-label">02-22</text><text x="555.0" y="336" text-anchor="middle" class="axis-label">02-22</text><text x="602.5" y="336" text-anchor="middle" class="axis-label">02-22</text><text x="650.0" y="336" text-anchor="middle" class="axis-label">02-22</text><text x="697.5" y="336" text-anchor="middle" class="axis-label">02-23</text><text x="745.0" y="336" text-anchor="middle" class="axis-label">02-23</text><text x="792.5" y="336" text-anchor="middle" class="axis-label">02-23</text><text x="840.0" y="336" text-anchor="middle" class="axis-label">02-23</text>
  <line x1="80" y1="320.0" x2="840" y2="320.0" class="grid-line" /><line x1="80" y1="270.0" x2="840" y2="270.0" class="grid-line" /><line x1="80" y1="220.0" x2="840" y2="220.0" class="grid-line" /><line x1="80" y1="170.0" x2="840" y2="170.0" class="grid-line" /><line x1="80" y1="120.0" x2="840" y2="120.0" class="grid-line" /><line x1="80" y1="70.0" x2="840" y2="70.0" class="grid-line" />
  <polyline points="80.0,316.0 127.5,316.0 175.0,316.0 222.5,316.0 270.0,316.0 317.5,316.0 365.0,316.0 412.5,316.0 460.0,316.0 507.5,316.0 555.0,316.0 602.5,316.0 650.0,316.0 697.5,316.0 745.0,316.0 792.5,316.0 840.0,316.0" fill="none" stroke="#19e5a1" stroke-width="2.5" stroke-linecap="round" stroke-linejoin="round" /><circle cx="80.0" cy="316.0" r="4" fill="#19e5a1" /><circle cx="127.5" cy="316.0" r="4" fill="#19e5a1" /><circle cx="175.0" cy="316.0" r="4" fill="#19e5a1" /><circle cx="222.5" cy="316.0" r="4" fill="#19e5a1" /><circle cx="270.0" cy="316.0" r="4" fill="#19e5a1" /><circle cx="317.5" cy="316.0" r="4" fill="#19e5a1" /><circle cx="365.0" cy="316.0" r="4" fill="#19e5a1" /><circle cx="412.5" cy="316.0" r="4" fill="#19e5a1" /><circle cx="460.0" cy="316.0" r="4" fill="#19e5a1" /><circle cx="507.5" cy="316.0" r="4" fill="#19e5a1" /><circle cx="555.0" cy="316.0" r="4" fill="#19e5a1" /><circle cx="602.5" cy="316.0" r="4" fill="#19e5a1" /><circle cx="650.0" cy="316.0" r="4" fill="#19e5a1" /><circle cx="697.5" cy="316.0" r="4" fill="#19e5a1" /><circle cx="745.0" cy="316.0" r="4" fill="#19e5a1" /><circle cx="792.5" cy="316.0" r="4" fill="#19e5a1" /><circle cx="840.0" cy="316.0" r="4" fill="#19e5a1" /><polyline points="80.0,311.0 127.5,309.7 175.0,309.5 222.5,309.8 270.0,309.8 317.5,309.8 365.0,309.5 412.5,309.3 460.0,309.2 507.5,309.2 555.0,309.0 602.5,309.0 650.0,308.7 697.5,308.7 745.0,308.7 792.5,308.3 840.0,308.3" fill="none" stroke="#6eb6ec" stroke-width="2.5" stroke-linecap="round" stroke-linejoin="round" /><circle cx="80.0" cy="311.0" r="4" fill="#6eb6ec" /><circle cx="127.5" cy="309.7" r="4" fill="#6eb6ec" /><circle cx="175.0" cy="309.5" r="4" fill="#6eb6ec" /><circle cx="222.5" cy="309.8" r="4" fill="#6eb6ec" /><circle cx="270.0" cy="309.8" r="4" fill="#6eb6ec" /><circle cx="317.5" cy="309.8" r="4" fill="#6eb6ec" /><circle cx="365.0" cy="309.5" r="4" fill="#6eb6ec" /><circle cx="412.5" cy="309.3" r="4" fill="#6eb6ec" /><circle cx="460.0" cy="309.2" r="4" fill="#6eb6ec" /><circle cx="507.5" cy="309.2" r="4" fill="#6eb6ec" /><circle cx="555.0" cy="309.0" r="4" fill="#6eb6ec" /><circle cx="602.5" cy="309.0" r="4" fill="#6eb6ec" /><circle cx="650.0" cy="308.7" r="4" fill="#6eb6ec" /><circle cx="697.5" cy="308.7" r="4" fill="#6eb6ec" /><circle cx="745.0" cy="308.7" r="4" fill="#6eb6ec" /><circle cx="792.5" cy="308.3" r="4" fill="#6eb6ec" /><circle cx="840.0" cy="308.3" r="4" fill="#6eb6ec" /><polyline points="80.0,301.0 127.5,301.0 175.0,301.0 222.5,301.0 270.0,301.0 317.5,301.0 365.0,301.0 412.5,301.0 460.0,301.0 507.5,301.0 555.0,299.8 602.5,299.8 650.0,299.8 697.5,299.8 745.0,299.8 792.5,299.8 840.0,299.8" fill="none" stroke="#5938e2" stroke-width="2.5" stroke-linecap="round" stroke-linejoin="round" /><circle cx="80.0" cy="301.0" r="4" fill="#5938e2" /><circle cx="127.5" cy="301.0" r="4" fill="#5938e2" /><circle cx="175.0" cy="301.0" r="4" fill="#5938e2" /><circle cx="222.5" cy="301.0" r="4" fill="#5938e2" /><circle cx="270.0" cy="301.0" r="4" fill="#5938e2" /><circle cx="317.5" cy="301.0" r="4" fill="#5938e2" /><circle cx="365.0" cy="301.0" r="4" fill="#5938e2" /><circle cx="412.5" cy="301.0" r="4" fill="#5938e2" /><circle cx="460.0" cy="301.0" r="4" fill="#5938e2" /><circle cx="507.5" cy="301.0" r="4" fill="#5938e2" /><circle cx="555.0" cy="299.8" r="4" fill="#5938e2" /><circle cx="602.5" cy="299.8" r="4" fill="#5938e2" /><circle cx="650.0" cy="299.8" r="4" fill="#5938e2" /><circle cx="697.5" cy="299.8" r="4" fill="#5938e2" /><circle cx="745.0" cy="299.8" r="4" fill="#5938e2" /><circle cx="792.5" cy="299.8" r="4" fill="#5938e2" /><circle cx="840.0" cy="299.8" r="4" fill="#5938e2" /><polyline points="80.0,86.2 127.5,80.2 175.0,79.8 222.5,79.7 270.0,79.7 317.5,79.5 365.0,79.5 412.5,79.5 460.0,79.5 507.5,79.5 555.0,77.8 602.5,77.8 650.0,77.8 697.5,77.8 745.0,77.8 792.5,77.8 840.0,77.8" fill="none" stroke="#60e5e0" stroke-width="2.5" stroke-linecap="round" stroke-linejoin="round" /><circle cx="80.0" cy="86.2" r="4" fill="#60e5e0" /><circle cx="127.5" cy="80.2" r="4" fill="#60e5e0" /><circle cx="175.0" cy="79.8" r="4" fill="#60e5e0" /><circle cx="222.5" cy="79.7" r="4" fill="#60e5e0" /><circle cx="270.0" cy="79.7" r="4" fill="#60e5e0" /><circle cx="317.5" cy="79.5" r="4" fill="#60e5e0" /><circle cx="365.0" cy="79.5" r="4" fill="#60e5e0" /><circle cx="412.5" cy="79.5" r="4" fill="#60e5e0" /><circle cx="460.0" cy="79.5" r="4" fill="#60e5e0" /><circle cx="507.5" cy="79.5" r="4" fill="#60e5e0" /><circle cx="555.0" cy="77.8" r="4" fill="#60e5e0" /><circle cx="602.5" cy="77.8" r="4" fill="#60e5e0" /><circle cx="650.0" cy="77.8" r="4" fill="#60e5e0" /><circle cx="697.5" cy="77.8" r="4" fill="#60e5e0" /><circle cx="745.0" cy="77.8" r="4" fill="#60e5e0" /><circle cx="792.5" cy="77.8" r="4" fill="#60e5e0" /><circle cx="840.0" cy="77.8" r="4" fill="#60e5e0" /><polyline points="80.0,312.8 127.5,312.5 175.0,312.3 222.5,312.3 270.0,312.3 317.5,312.2 365.0,312.2 412.5,312.2 460.0,312.2 507.5,312.2 555.0,312.0 602.5,312.0 650.0,312.0 697.5,312.0 745.0,312.0 792.5,312.0 840.0,312.0" fill="none" stroke="#567de1" stroke-width="2.5" stroke-linecap="round" stroke-linejoin="round" /><circle cx="80.0" cy="312.8" r="4" fill="#567de1" /><circle cx="127.5" cy="312.5" r="4" fill="#567de1" /><circle cx="175.0" cy="312.3" r="4" fill="#567de1" /><circle cx="222.5" cy="312.3" r="4" fill="#567de1" /><circle cx="270.0" cy="312.3" r="4" fill="#567de1" /><circle cx="317.5" cy="312.2" r="4" fill="#567de1" /><circle cx="365.0" cy="312.2" r="4" fill="#567de1" /><circle cx="412.5" cy="312.2" r="4" fill="#567de1" /><circle cx="460.0" cy="312.2" r="4" fill="#567de1" /><circle cx="507.5" cy="312.2" r="4" fill="#567de1" /><circle cx="555.0" cy="312.0" r="4" fill="#567de1" /><circle cx="602.5" cy="312.0" r="4" fill="#567de1" /><circle cx="650.0" cy="312.0" r="4" fill="#567de1" /><circle cx="697.5" cy="312.0" r="4" fill="#567de1" /><circle cx="745.0" cy="312.0" r="4" fill="#567de1" /><circle cx="792.5" cy="312.0" r="4" fill="#567de1" /><circle cx="840.0" cy="312.0" r="4" fill="#567de1" /><polyline points="80.0,298.5 127.5,299.0 175.0,299.2 222.5,299.2 270.0,299.2 317.5,299.2 365.0,299.2 412.5,299.2 460.0,299.2 507.5,299.2 555.0,299.2 602.5,299.2 650.0,299.2 697.5,299.2 745.0,299.2 792.5,299.2 840.0,299.2" fill="none" stroke="#9754dd" stroke-width="2.5" stroke-linecap="round" stroke-linejoin="round" /><circle cx="80.0" cy="298.5" r="4" fill="#9754dd" /><circle cx="127.5" cy="299.0" r="4" fill="#9754dd" /><circle cx="175.0" cy="299.2" r="4" fill="#9754dd" /><circle cx="222.5" cy="299.2" r="4" fill="#9754dd" /><circle cx="270.0" cy="299.2" r="4" fill="#9754dd" /><circle cx="317.5" cy="299.2" r="4" fill="#9754dd" /><circle cx="365.0" cy="299.2" r="4" fill="#9754dd" /><circle cx="412.5" cy="299.2" r="4" fill="#9754dd" /><circle cx="460.0" cy="299.2" r="4" fill="#9754dd" /><circle cx="507.5" cy="299.2" r="4" fill="#9754dd" /><circle cx="555.0" cy="299.2" r="4" fill="#9754dd" /><circle cx="602.5" cy="299.2" r="4" fill="#9754dd" /><circle cx="650.0" cy="299.2" r="4" fill="#9754dd" /><circle cx="697.5" cy="299.2" r="4" fill="#9754dd" /><circle cx="745.0" cy="299.2" r="4" fill="#9754dd" /><circle cx="792.5" cy="299.2" r="4" fill="#9754dd" /><circle cx="840.0" cy="299.2" r="4" fill="#9754dd" />
  <rect x="80" y="339" width="10" height="10" rx="2" ry="2" fill="#19e5a1" /><text x="96" y="348" class="legend-label">Stars</text><rect x="250" y="339" width="10" height="10" rx="2" ry="2" fill="#6eb6ec" /><text x="266" y="348" class="legend-label">Followers</text><rect x="420" y="339" width="10" height="10" rx="2" ry="2" fill="#5938e2" /><text x="436" y="348" class="legend-label">Following</text><rect x="590" y="339" width="10" height="10" rx="2" ry="2" fill="#60e5e0" /><text x="606" y="348" class="legend-label">Contributions</text><rect x="80" y="357" width="10" height="10" rx="2" ry="2" fill="#567de1" /><text x="96" y="366" class="legend-label">Pull Requests</text><rect x="250" y="357" width="10" height="10" rx="2" ry="2" fill="#9754dd" /><text x="266" y="366" class="legend-label">Issues</text>
</svg>
